<svg width="10" height="10" viewBox="0 0 10 10" fill="none" xmlns="http://www.w3.org/2000/svg">
<path d="M7.75045 0.624083L5.00002 3.37452L2.24958 0.624083C1.7495 0.124004 1.12441 0.124004 0.624327 0.624083C0.124248 1.12416 0.124248 1.74926 0.624327 2.24934L3.37476 4.99977L0.624327 7.75021C0.124248 8.25029 0.124248 8.87539 0.624327 9.37547C1.12441 9.87555 1.7495 9.87555 2.24958 9.37547L5.00002 6.62503L7.75045 9.37547C8.25053 9.87555 8.87563 9.87555 9.37571 9.37547C9.87579 8.87539 9.87579 8.25029 9.37571 7.75021L6.62528 4.99977L9.37571 2.24934C9.87579 1.74926 9.87579 1.12416 9.37571 0.624083C8.87563 0.249023 8.12551 0.249023 7.75045 0.624083Z" fill="#2FC6F6"/>
</svg>
