<svg width="16" height="16" viewBox="0 0 16 16" fill="none" xmlns="http://www.w3.org/2000/svg">
<path fill-rule="evenodd" clip-rule="evenodd" d="M9.86623 11.8868C8.86362 12.5452 7.66401 12.9281 6.37495 12.9281C2.8574 12.9281 0.00585938 10.0766 0.00585938 6.55903C0.00585938 3.04148 2.8574 0.189941 6.37495 0.189941C9.8925 0.189941 12.744 3.04148 12.744 6.55903C12.744 7.84809 12.3611 9.0477 11.7028 10.0503L15.0131 13.3607C15.4037 13.7512 15.4037 14.3844 15.0131 14.7749L14.5908 15.1972C14.2003 15.5877 13.5671 15.5877 13.1766 15.1972L9.86623 11.8868ZM10.9243 6.55903C10.9243 9.07157 8.88749 11.1084 6.37495 11.1084C3.86241 11.1084 1.8256 9.07157 1.8256 6.55903C1.8256 4.0465 3.86241 2.00968 6.37495 2.00968C8.88749 2.00968 10.9243 4.0465 10.9243 6.55903Z" fill="#A8ADB4"/>
</svg>
