<svg width="18" height="18" viewBox="0 0 18 18" fill="none" xmlns="http://www.w3.org/2000/svg">
<path fill-rule="evenodd" clip-rule="evenodd" d="M6 9C6 9.82843 5.32843 10.5 4.5 10.5C3.67157 10.5 3 9.82843 3 9C3 8.17157 3.67157 7.5 4.5 7.5C5.32843 7.5 6 8.17157 6 9ZM10.5 9C10.5 9.82843 9.82843 10.5 9 10.5C8.17157 10.5 7.5 9.82843 7.5 9C7.5 8.17157 8.17157 7.5 9 7.5C9.82843 7.5 10.5 8.17157 10.5 9ZM13.5 10.5C14.3284 10.5 15 9.82843 15 9C15 8.17157 14.3284 7.5 13.5 7.5C12.6716 7.5 12 8.17157 12 9C12 9.82843 12.6716 10.5 13.5 10.5Z" fill="#525C69"/>
</svg>
