<svg width="166" height="154" viewBox="0 0 166 154" fill="none" xmlns="http://www.w3.org/2000/svg">
	<g clip-path="url(#clip0_8025_844281)">
		<g clip-path="url(#clip1_8025_844281)">
			<path opacity="0.6" fill-rule="evenodd" clip-rule="evenodd" d="M116.534 154.43H-8.20538C-9.25563 154.43 -10.2968 154.39 -11.3276 154.311C-39.0671 153.653 -61.358 130.043 -61.3594 101.014C-61.3513 86.8657 -55.9437 73.2999 -46.3262 63.3012C-41.3964 58.176 -35.5675 54.2033 -29.2257 51.5493C-29.3318 50.1096 -29.3859 48.6547 -29.3859 47.1866C-29.3771 32.2578 -23.6711 17.944 -13.5231 7.39415C-3.37514 -3.15571 10.3836 -9.07745 24.7263 -9.06835C43.0989 -9.04503 63.3198 0.517941 73.0681 15.114C77.6975 13.4068 82.6808 12.4789 87.8725 12.4817C110.807 12.5105 129.643 30.7076 131.827 53.9787C153.802 58.9652 166.246 79.3423 166.227 103.705C166.205 131.782 146.326 154.527 119.352 154.515C118.406 154.514 117.466 154.486 116.534 154.43Z" fill="#C3F0FF"/>
			<path opacity="0.3" fill-rule="evenodd" clip-rule="evenodd" d="M15.9228 39.2678C15.9228 37.1871 17.7344 35.5 19.9693 35.5C21.594 35.5 22.9849 36.3976 23.6296 37.6851C24.1456 37.5087 24.695 37.3971 25.2766 37.3971C27.8518 37.3971 29.9356 39.2906 30.0544 41.6605C30.1534 41.6533 30.2499 41.6329 30.3514 41.6329C32.4427 41.6329 34.1367 43.2144 34.1367 45.1655C34.1367 47.1178 32.4427 48.6994 30.3514 48.6994C30.016 48.6994 28.8875 48.6994 28.6165 48.6994H18.3977C18.1874 48.6994 17.2209 48.6994 16.9239 48.6994C14.1285 48.6994 11.8628 46.5947 11.8628 43.9968C11.8628 41.7145 13.6138 39.815 15.9364 39.3878C15.9352 39.347 15.9228 39.3086 15.9228 39.2678Z" fill="white"/>
			<path opacity="0.3" fill-rule="evenodd" clip-rule="evenodd" d="M145.641 71.5757C145.641 70.0004 144.266 68.7231 142.569 68.7231C141.335 68.7231 140.279 69.4027 139.79 70.3774C139.398 70.2439 138.981 70.1594 138.539 70.1594C136.584 70.1594 135.002 71.5929 134.912 73.3871C134.837 73.3817 134.763 73.3662 134.686 73.3662C133.099 73.3662 131.812 74.5636 131.812 76.0407C131.812 77.5188 133.099 78.7161 134.686 78.7161C134.941 78.7161 135.798 78.7161 136.004 78.7161H143.762C143.922 78.7161 144.656 78.7161 144.881 78.7161C147.003 78.7161 148.724 77.1227 148.724 75.1559C148.724 73.428 147.394 71.9899 145.631 71.6665C145.632 71.6356 145.641 71.6066 145.641 71.5757Z" fill="white"/>
		</g>
		<g opacity="0.8" filter="url(#filter0_d_8025_844281)">
			<path fill-rule="evenodd" clip-rule="evenodd" d="M110.07 126.958H43.7529C43.1855 126.958 42.6229 126.938 42.066 126.898C27.0781 126.569 16.0008 114.762 16 100.244C16.0044 93.1685 19.1724 86.8377 23.7806 81.2995C25.9834 78.6523 27.5787 76.9073 30.8 75.3153C30.7426 74.5953 30.7135 73.8677 30.7135 73.1336C30.7182 65.6676 33.8012 58.5092 39.2842 53.2331C44.7672 47.9571 52.2012 44.9956 59.9506 45.0002C69.8775 45.0118 78.5358 50.1866 83.8029 57.4862C87.2707 56.6324 91.5587 56.3595 94.3638 56.361C106.755 56.3753 116.933 65.4758 118.113 77.1138C129.986 79.6076 138.01 89.4059 138 101.59C137.988 115.631 126.167 127.006 111.592 127C111.081 127 110.574 126.986 110.07 126.958Z" fill="url(#paint0_linear_8025_844281)" shape-rendering="crispEdges"/>
		</g>
		<g filter="url(#filter1_d_8025_844281)">
			<path d="M42.998 48.72C42.998 46.6655 44.6635 45 46.718 45H109.039C111.778 45 113.998 47.2201 113.998 49.9588V59.0412C113.998 61.7799 111.778 64 109.039 64H46.718C44.6635 64 42.998 62.3345 42.998 60.28V48.72Z" fill="white"/>
			<rect opacity="0.5" x="47.998" y="50" width="21" height="3" rx="1.5" fill="#BDC1C6"/>
			<rect x="47.998" y="56" width="40" height="3" rx="1.5" fill="#525C69" fill-opacity="0.1"/>
			<circle cx="31.502" cy="54.5" r="7.5" fill="#00ACE3"/>
		</g>
		<g filter="url(#filter2_d_8025_844281)">
			<path d="M56.998 71.7199C56.998 69.6654 58.6635 67.9999 60.718 67.9999H123.039C125.778 67.9999 127.998 70.2201 127.998 72.9588V82.0411C127.998 84.7798 125.778 86.9999 123.039 86.9999H60.718C58.6635 86.9999 56.998 85.3344 56.998 83.2799V71.7199Z" fill="white"/>
			<rect opacity="0.5" x="61.998" y="72.9999" width="19" height="3" rx="1.5" fill="#BDC1C6"/>
			<rect x="61.998" y="78.9999" width="43" height="3" rx="1.5" fill="#525C69" fill-opacity="0.1"/>
			<circle cx="45.502" cy="77.4999" r="7.5" fill="#9DCF00"/>
		</g>
		<g filter="url(#filter3_d_8025_844281)">
			<path d="M43 94.719C43 92.665 44.6651 90.9999 46.7191 90.9999H110.041C112.78 90.9999 115 93.22 115 95.9587V105.041C115 107.78 112.78 110 110.041 110H46.72C44.6655 110 43 108.334 43 106.28V94.719Z" fill="white"/>
			<rect opacity="0.5" x="48" y="95.9999" width="17" height="3" rx="1.5" fill="#BDC1C6"/>
			<rect x="48" y="102" width="43" height="3" rx="1.5" fill="#525C69" fill-opacity="0.1"/>
			<circle cx="31.5" cy="100.5" r="7.5" fill="#FFA900"/>
		</g>
	</g>
	<defs>
		<filter id="filter0_d_8025_844281" x="12" y="43.0002" width="130" height="90" filterUnits="userSpaceOnUse" color-interpolation-filters="sRGB">
			<feFlood flood-opacity="0" result="BackgroundImageFix"/>
			<feColorMatrix in="SourceAlpha" type="matrix" values="0 0 0 0 0 0 0 0 0 0 0 0 0 0 0 0 0 0 127 0" result="hardAlpha"/>
			<feOffset dy="2"/>
			<feGaussianBlur stdDeviation="2"/>
			<feComposite in2="hardAlpha" operator="out"/>
			<feColorMatrix type="matrix" values="0 0 0 0 0.025382 0 0 0 0 0.275095 0 0 0 0 0.358333 0 0 0 0.06 0"/>
			<feBlend mode="normal" in2="BackgroundImageFix" result="effect1_dropShadow_8025_844281"/>
			<feBlend mode="normal" in="SourceGraphic" in2="effect1_dropShadow_8025_844281" result="shape"/>
		</filter>
		<filter id="filter1_d_8025_844281" x="20.002" y="42.5" width="97.9961" height="27" filterUnits="userSpaceOnUse" color-interpolation-filters="sRGB">
			<feFlood flood-opacity="0" result="BackgroundImageFix"/>
			<feColorMatrix in="SourceAlpha" type="matrix" values="0 0 0 0 0 0 0 0 0 0 0 0 0 0 0 0 0 0 127 0" result="hardAlpha"/>
			<feOffset dy="1.5"/>
			<feGaussianBlur stdDeviation="2"/>
			<feComposite in2="hardAlpha" operator="out"/>
			<feColorMatrix type="matrix" values="0 0 0 0 0.423529 0 0 0 0 0.423529 0 0 0 0 0.423529 0 0 0 0.1 0"/>
			<feBlend mode="normal" in2="BackgroundImageFix" result="effect1_dropShadow_8025_844281"/>
			<feBlend mode="normal" in="SourceGraphic" in2="effect1_dropShadow_8025_844281" result="shape"/>
		</filter>
		<filter id="filter2_d_8025_844281" x="34.002" y="65.4999" width="97.9961" height="27" filterUnits="userSpaceOnUse" color-interpolation-filters="sRGB">
			<feFlood flood-opacity="0" result="BackgroundImageFix"/>
			<feColorMatrix in="SourceAlpha" type="matrix" values="0 0 0 0 0 0 0 0 0 0 0 0 0 0 0 0 0 0 127 0" result="hardAlpha"/>
			<feOffset dy="1.5"/>
			<feGaussianBlur stdDeviation="2"/>
			<feComposite in2="hardAlpha" operator="out"/>
			<feColorMatrix type="matrix" values="0 0 0 0 0.423529 0 0 0 0 0.423529 0 0 0 0 0.423529 0 0 0 0.1 0"/>
			<feBlend mode="normal" in2="BackgroundImageFix" result="effect1_dropShadow_8025_844281"/>
			<feBlend mode="normal" in="SourceGraphic" in2="effect1_dropShadow_8025_844281" result="shape"/>
		</filter>
		<filter id="filter3_d_8025_844281" x="20" y="88.4999" width="99" height="27" filterUnits="userSpaceOnUse" color-interpolation-filters="sRGB">
			<feFlood flood-opacity="0" result="BackgroundImageFix"/>
			<feColorMatrix in="SourceAlpha" type="matrix" values="0 0 0 0 0 0 0 0 0 0 0 0 0 0 0 0 0 0 127 0" result="hardAlpha"/>
			<feOffset dy="1.5"/>
			<feGaussianBlur stdDeviation="2"/>
			<feComposite in2="hardAlpha" operator="out"/>
			<feColorMatrix type="matrix" values="0 0 0 0 0.423529 0 0 0 0 0.423529 0 0 0 0 0.423529 0 0 0 0.1 0"/>
			<feBlend mode="normal" in2="BackgroundImageFix" result="effect1_dropShadow_8025_844281"/>
			<feBlend mode="normal" in="SourceGraphic" in2="effect1_dropShadow_8025_844281" result="shape"/>
		</filter>
		<linearGradient id="paint0_linear_8025_844281" x1="76.5167" y1="60.5036" x2="76.5167" y2="127" gradientUnits="userSpaceOnUse">
			<stop stop-color="white" stop-opacity="0.4"/>
			<stop offset="1" stop-color="white" stop-opacity="0.8"/>
		</linearGradient>
		<clipPath id="clip0_8025_844281">
			<path d="M0 0H150C158.837 0 166 7.16344 166 16V139C166 147.837 158.837 155 150 155H16C7.16344 155 0 147.837 0 139V0Z" fill="white"/>
		</clipPath>
		<clipPath id="clip1_8025_844281">
			<rect width="229" height="165" fill="white" transform="translate(-62 -10)"/>
		</clipPath>
	</defs>
</svg>
