<svg xmlns="http://www.w3.org/2000/svg" width="47" height="1272" viewBox="0 0 47 1272"><g fill="none" fill-rule="evenodd"><path fill="#FFF" d="M28.354 1262.289h1.383a1 1 0 0 1 .971 1.24l-1.817 7.328a1 1 0 0 1-.97.76h-8.842a1 1 0 0 1-.97-.76l-1.817-7.328a1 1 0 0 1 .97-1.24h1.16a.897.897 0 0 1 .019-.034l2.202-3.814a.881.881 0 1 1 1.526.88l-1.713 2.968h5.864l-1.713-2.967a.881.881 0 1 1 1.526-.881l2.203 3.814a.897.897 0 0 1 .018.034zm-3.996 3.807l.214-1.742h-2.285l.213 1.742h1.858zm1.453 0h2.05c.26 0 .47-.21.47-.47v-.8a.47.47 0 0 0-.47-.472h-1.836l-.214 1.742zm-1.621 1.37h-1.521l.214 1.743h1.093l.214-1.742zm1.453 0l-.214 1.743h1.686c.26 0 .47-.211.47-.471v-.8a.47.47 0 0 0-.47-.471h-1.472zm-4.595-1.37l-.214-1.742h-1.727a.47.47 0 0 0-.471.471v.8c0 .26.21.471.47.471h1.942zm.168 1.37h-1.33a.47.47 0 0 0-.471.472v.8c0 .26.21.47.47.47h1.545l-.214-1.741z"/><g fill="#FFF" fill-rule="nonzero"><path d="M20.585 1192.13h5.9c.16 0 .29.127.29.285v1.03c0 .157-.13.285-.29.285h-5.9a.288.288 0 0 1-.29-.286v-1.029c0-.158.13-.285.29-.285zm0-3.203h5.9c.16 0 .29.129.29.287v1.028c0 .158-.13.286-.29.286h-5.9a.288.288 0 0 1-.29-.286v-1.028c0-.158.13-.287.29-.287zm.058-3.201h.925c.192 0 .347.153.347.343v.914c0 .19-.155.343-.347.343h-.925a.345.345 0 0 1-.347-.343v-.914c0-.19.155-.343.347-.343z"/><path d="M25.303 1183.335a.088.088 0 0 0-.061-.025.087.087 0 0 0-.087.085v2.245c0 .047.039.086.087.086h2.272a.086.086 0 0 0 .061-.147l-2.272-2.244zm2.86 11.995a.23.23 0 0 0 .232-.228v-7.546a.23.23 0 0 0-.231-.23h-4.397a.23.23 0 0 1-.231-.228v-4.345a.23.23 0 0 0-.232-.229h-4.397a.23.23 0 0 0-.231.229v12.35a.23.23 0 0 0 .231.227h9.257zm-3.367-14.407c.23 0 .45.09.613.251l4.267 4.216c.217.215.339.506.339.81v9.874a.863.863 0 0 1-.868.858H17.924a.862.862 0 0 1-.867-.858v-14.294c0-.473.388-.857.867-.857h6.872z"/></g><g fill="#FFF" fill-rule="nonzero"><path d="M18.4 1141h10.2c1.878 0 3.4 1.535 3.4 3.429v9.142c0 1.894-1.522 3.429-3.4 3.429H18.4c-1.878 0-3.4-1.535-3.4-3.429v-9.142c0-1.894 1.522-3.429 3.4-3.429zm-.225 1.921c-.626 0-1.134.512-1.134 1.143v9.872c0 .631.508 1.143 1.134 1.143h10.65c.626 0 1.134-.512 1.134-1.143v-9.872c0-.631-.508-1.143-1.134-1.143h-10.65z"/><path d="M27 1149a.497.497 0 0 0-.193-.396l-3.427-3.51a.458.458 0 0 0-.492-.041.493.493 0 0 0-.259.437v1.975h-5.157c-.26 0-.472.22-.472.49v2.09c0 .27.211.49.472.49h5.157v1.975c0 .184.1.353.259.437.158.084.349.067.492-.042l3.427-3.51A.497.497 0 0 0 27 1149"/></g><path fill="#78D700" fill-rule="nonzero" d="M23 390.57v-4.232c0-.736.602-1.338 1.338-1.338h7.324c.736 0 1.338.602 1.338 1.338v4.229c0 .736-.602 1.338-1.338 1.338h-.993v2.349c0 .239-.211.232-.651-.141-.257-.215-1.219-1.317-1.986-2.208h-3.694A1.337 1.337 0 0 1 23 390.57zm-2.965 1.015c-.495-.002-.99-.004-1.486.002-.136.002-.207-.039-.243-.163-.073-.242-.173-.477-.232-.721-.267-1.143-.288-2.298-.167-3.457.06-.575.173-1.144.401-1.687.046-.11.105-.155.234-.155.49.008.979.004 1.47.002.684-.002 1.085-.392 1.087-1.06.002-.381 0-.757.002-1.137 0-.39.004-.781 0-1.171-.008-.63-.418-1.03-1.066-1.033-.498-.004-.99.008-1.488-.004a1.742 1.742 0 0 0-1.198.425c-.56.467-.924 1.069-1.223 1.71-.623 1.32-.943 2.722-1.07 4.167a13.332 13.332 0 0 0 .717 5.711c.296.834.679 1.625 1.294 2.291.422.46.923.728 1.584.692.452-.025.91-.002 1.363-.004.673-.004 1.085-.4 1.087-1.05.002-.774 0-1.549-.002-2.323-.004-.635-.414-1.033-1.064-1.035z"/><g transform="translate(17 309)"><circle cx="5.5" cy="6.5" r="5.5" fill="#2FC6F6" fill-rule="nonzero" opacity=".797"/><circle cx="8.5" cy="6.5" r="5.5" fill="#59D2F8" fill-rule="nonzero"/><circle cx="8.5" cy="6.5" r="6" stroke="#FFF"/><path fill="#FFF" fill-rule="nonzero" d="M11.278 5.092l-.458-.459a.325.325 0 0 0-.238-.1.325.325 0 0 0-.238.1L7.647 7.331 6.55 6.234a.325.325 0 0 0-.237-.1.325.325 0 0 0-.238.1l-.459.459a.325.325 0 0 0-.1.238c0 .091.034.17.1.237L7.41 8.961c.067.067.146.1.238.1.091 0 .17-.033.237-.1l3.394-3.394a.325.325 0 0 0 .1-.238.325.325 0 0 0-.1-.237z"/></g><g fill-rule="nonzero" transform="translate(18 341)"><circle cx="5.5" cy="5.5" r="5.5" fill="#2FC6F6" opacity=".797"/><path fill="#FFF" d="M8.278 4.092l-.458-.459a.325.325 0 0 0-.238-.1.325.325 0 0 0-.238.1L4.647 6.331 3.55 5.234a.325.325 0 0 0-.237-.1.325.325 0 0 0-.238.1l-.459.459a.325.325 0 0 0-.1.238c0 .091.034.17.1.237L4.41 7.961c.067.067.146.1.238.1.091 0 .17-.033.237-.1l3.394-3.394a.325.325 0 0 0 .1-.238.325.325 0 0 0-.1-.237z"/></g><path fill="#535C69" fill-rule="nonzero" d="M27.294 898.397v-1.368c0-1.67-1.478-3.029-3.293-3.029-1.816 0-3.293 1.359-3.293 3.03v1.367H20V904h8v-5.603h-.706zm-5.346-1.368c0-1.04.92-1.886 2.053-1.886 1.13 0 2.05.846 2.05 1.886v1.368h-4.103v-1.368zm2.619 5.435h-1.13l.169-1.536a.67.67 0 0 1-.35-.578c0-.378.333-.684.745-.684.41 0 .743.306.743.684a.667.667 0 0 1-.35.578l.173 1.536z"/><path fill="#FFF" fill-rule="nonzero" d="M23.475 1231.994c-1.644 1.932-2.636 2.93-2.975 2.997-.588.115-.917-.884-.987-2.997H18.8a2.8 2.8 0 0 1-2.8-2.8v-6.394a2.8 2.8 0 0 1 2.8-2.8h9.4a2.8 2.8 0 0 1 2.8 2.8v6.394a2.8 2.8 0 0 1-2.8 2.8h-4.725zm-4.473-9.926a1 1 0 0 0-1 1v5.831a1 1 0 0 0 1 1h8.996a1 1 0 0 0 1-1v-5.831a1 1 0 0 0-1-1h-8.996z"/><circle cx="23.5" cy="283.5" r="4.5" fill="#C1C4C8" fill-rule="nonzero"/><path fill="#FFF" fill-rule="nonzero" d="M23.556 259.636H21.68v5.81h5.684v-1.935h-3.808v-3.875zm-.056 10.31a6.447 6.447 0 1 1-.002-12.894 6.447 6.447 0 0 1 .002 12.894zm0-14.946a8.5 8.5 0 1 0 0 17 8.5 8.5 0 0 0 0-17z"/><path fill="#7BD500" fill-rule="nonzero" d="M28.7 1065.058a.198.198 0 0 0-.28 0l-6.37 6.37-2.484-2.485a.152.152 0 0 0-.214 0l-1.308 1.308a.152.152 0 0 0 0 .214l3.9 3.9a.152.152 0 0 0 .213 0l.033-.033 7.752-7.752a.198.198 0 0 0 0-.28l-1.242-1.242z"/><path fill="#2FC6F6" fill-rule="nonzero" d="M37.957 1014.803l2.53-8.136a2.021 2.021 0 0 0-.488-2.014 2.18 2.18 0 0 0-2.045-.598 2.109 2.109 0 0 0-1.556 1.416l-2.168 6.985a23.86 23.86 0 0 0-21.503.022l-2.178-7.007c-.34-1.093-1.533-1.712-2.662-1.382-1.13.33-1.768 1.484-1.427 2.578l2.54 8.169c-5.706 4.417-9.02 11.114-9 18.19 0 12.768 10.517 9.634 23.5 9.634s23.5 3.134 23.5-9.635c.023-7.094-3.31-13.807-9.043-18.222zm-14.478 16.487c-9.268 0-16.784.93-16.784-2.873 0-3.805 7.516-6.893 16.784-6.893 9.267 0 16.794 3.085 16.794 6.893 0 3.807-7.516 2.873-16.794 2.873zm-7.677-6.917c-1.323.235-2.23 1.426-2.068 2.72.162 1.292 1.335 2.24 2.677 2.162 1.343-.078 2.39-1.155 2.391-2.458-.15-1.465-1.485-2.544-3-2.424zm13.282 2.725c.164 1.293 1.34 2.24 2.682 2.16 1.343-.08 2.39-1.158 2.39-2.46-.15-1.47-1.492-2.55-3.011-2.425-1.323.239-2.226 1.432-2.061 2.725z"/><path fill="#525C69" fill-rule="nonzero" d="M27.062 972l1.928 1.929-6.917 6.916-1.929-1.929L27.062 972zm-8.055 9.723c-.02.074.002.151.054.205.054.054.131.075.204.054l2.287-.616-1.929-1.929-.616 2.286z"/><path fill="#468EE5" fill-rule="nonzero" d="M26.063 853.824c.94 0 1.71-.77 1.71-1.71v-5.405c0-.94-.77-1.709-1.71-1.709H16.71c-.94 0-1.709.769-1.709 1.709v5.401c0 .94.769 1.71 1.709 1.71h1.268v2.999c0 .306.27.297.832-.18.329-.274 1.556-1.682 2.537-2.82h4.717v.005zm4.228-5.136h-.962v4.191a2.521 2.521 0 0 1-2.514 2.514h-5.028l-1.772 1.849c.265.17.584.274.922.274h4.717c.98 1.138 2.213 2.546 2.537 2.82.566.477.832.481.832.18v-3h1.268c.94 0 1.709-.769 1.709-1.709v-5.41a1.708 1.708 0 0 0-1.709-1.71zM16.84 787.113l5.997 4.814c.136.109.273.181.443.181h.272c.17-.036.307-.072.443-.18l5.997-4.815c.103-.072.17-.181.239-.29v3.186h1.67v-4.09c0-1.05-.818-1.919-1.806-1.919h-13.29c-.987 0-1.805.869-1.805 1.918v8.869c0 1.05.818 1.918 1.806 1.918h6.78v-1.773h-6.371c-.307 0-.545-.254-.545-.58v-7.492a.65.65 0 0 0 .17.253zm11.653-1.34l-5.077 4.091-5.077-4.09h10.154zm5.622 9.557l-2.794-2.932c-.102-.109-.272-.109-.409-.036a.402.402 0 0 0-.204.362v1.665h-4.225c-.205 0-.375.18-.375.398v1.737c0 .218.17.398.375.398h4.225v1.666c0 .144.068.29.204.362a.345.345 0 0 0 .41-.037l2.793-2.932a.44.44 0 0 0 .17-.325.44.44 0 0 0-.17-.326z"/><path fill="#FFF" fill-rule="nonzero" d="M28.967 755H18.033c-.568 0-1.033.465-1.033 1.033v6.971c0 .568.465 1.033 1.033 1.033h5.234l2.753 2.751a.442.442 0 0 0 .622 0v-2.751h2.325c.568 0 1.033-.465 1.033-1.033v-6.971c0-.568-.465-1.033-1.033-1.033zm-1.468-29.915l.7-2.323a.59.59 0 0 0-1.132-.342l-.599 1.995a6.414 6.414 0 0 0-5.948.006l-.602-2a.59.59 0 1 0-1.131.34l.703 2.334A6.628 6.628 0 0 0 17 730.29c0 3.646 2.909 2.751 6.5 2.751s6.5.895 6.5-2.751a6.621 6.621 0 0 0-2.501-5.205zm-4.005 4.709c-2.563 0-4.642.266-4.642-.82 0-1.087 2.079-1.97 4.642-1.97s4.645.882 4.645 1.97c0 1.087-2.079.82-4.645.82zm-2.123-1.975a.703.703 0 1 0 .83.692.77.77 0 0 0-.83-.692zm3.673.778a.704.704 0 0 0 1.403-.086.77.77 0 0 0-.833-.692.704.704 0 0 0-.57.778zm-3.693-32.422c.757 0 .937-.437.402-.971l-1.063-1.065c.15-.211.314-.409.498-.588a4.157 4.157 0 0 1 .44-.37c.073-.053.147-.108.22-.158.126-.08.253-.154.384-.22.06-.03.118-.055.178-.083.138-.063.28-.118.426-.168.029-.008.056-.02.084-.028a4.037 4.037 0 0 1 .684-.145c.191-.028.384-.045.582-.045l.017.001c.141 0 .276.007.413.02.068.007.132.02.196.03.08.012.156.02.23.036.056.012.11.027.165.04.086.02.174.042.261.07.038.01.076.026.114.04.101.035.202.069.3.112a4.31 4.31 0 0 1 2.308 2.379 1.167 1.167 0 0 0 2.173-.854 6.586 6.586 0 0 0-1.483-2.264 6.668 6.668 0 0 0-2.018-1.378c-.011-.005-.019-.012-.029-.016l-.025-.01a6.204 6.204 0 0 0-.51-.19c-.042-.015-.08-.033-.123-.045a5.956 5.956 0 0 0-.497-.13c-.053-.012-.104-.03-.157-.04a6.318 6.318 0 0 0-.505-.077c-.053-.006-.105-.019-.159-.024a6.905 6.905 0 0 0-.674-.034l-.04.003a5.666 5.666 0 0 0-.743.047c-.14.017-.278.037-.415.062-.06.01-.122.02-.183.034a6.032 6.032 0 0 0-.513.129 2.512 2.512 0 0 1-.049.012 6.998 6.998 0 0 0-.58.209l-.056.024a6.705 6.705 0 0 0-.527.25l-.035.017a6.605 6.605 0 0 0-2.03 1.678l-1.04-1.043c-.534-.533-.972-.353-.972.403v2.977c0 .757.618 1.373 1.373 1.373h2.978zM29.072 698h-2.978c-.755 0-.935.436-.402.97l1.065 1.066c-.15.208-.313.405-.497.583a3.585 3.585 0 0 1-.202.183 3.713 3.713 0 0 1-.233.186c-.078.057-.157.116-.24.168a4.067 4.067 0 0 1-.55.3 4.467 4.467 0 0 1-.42.163c-.03.01-.06.023-.09.031a3.998 3.998 0 0 1-.542.125c-.047.007-.095.013-.142.021a4.207 4.207 0 0 1-1.013.02c-.061-.005-.122-.017-.182-.026a3.083 3.083 0 0 1-.248-.038c-.05-.008-.102-.027-.152-.038-.091-.023-.18-.043-.269-.07-.039-.013-.077-.03-.117-.041a4.29 4.29 0 0 1-1.642-1.024 4.288 4.288 0 0 1-.963-1.466 1.167 1.167 0 1 0-2.173.855c.335.848.833 1.61 1.485 2.26a6.592 6.592 0 0 0 2.018 1.38c.01.005.019.012.027.014.008.006.018.007.024.01.171.076.346.14.523.197l.11.04c.17.053.343.095.516.135.046.01.09.024.138.034.175.037.355.061.535.081.043.007.084.017.128.02.223.022.447.036.675.036.013 0 .023-.003.035-.003.189-.001.376-.01.56-.028l.184-.02a7.386 7.386 0 0 0 .598-.096c.178-.036.356-.08.53-.133.011-.002.02-.006.033-.007.2-.061.397-.133.588-.211l.045-.02c.184-.075.363-.16.537-.254l.029-.015a6.607 6.607 0 0 0 2.031-1.68l1.042 1.042c.535.535.971.353.971-.4v-2.977c0-.755-.618-1.373-1.372-1.373zm1.811-35.654l-1.105-1.105a.783.783 0 0 0-.573-.241c-.22 0-.412.08-.572.241l-6.5 6.5-2.642-2.642a.782.782 0 0 0-.572-.241.782.782 0 0 0-.573.24l-1.105 1.106a.782.782 0 0 0-.241.572c0 .221.08.412.241.573l4.32 4.32c.16.16.351.24.572.24.221 0 .412-.08.573-.24l8.177-8.178a.783.783 0 0 0 .241-.572.782.782 0 0 0-.24-.573z"/><g fill-rule="nonzero"><path fill="#B1B7C5" d="M29.978 423.49A6.489 6.489 0 1 0 17 423.488a6.489 6.489 0 0 0 12.978 0z"/><path fill="#FFF" d="M20.982 421.79c0-.318.102-.64.306-.965.204-.326.502-.596.893-.81.39-.214.847-.32 1.368-.32.485 0 .912.089 1.283.267.371.18.658.422.86.73.202.307.303.641.303 1.002 0 .284-.057.533-.172.747a2.286 2.286 0 0 1-.412.554c-.158.156-.443.417-.854.785a3.475 3.475 0 0 0-.273.273c-.069.079-.12.15-.153.216-.034.065-.06.13-.078.195-.019.065-.046.18-.083.343-.063.348-.262.522-.596.522a.61.61 0 0 1-.439-.17c-.119-.114-.178-.283-.178-.507 0-.28.043-.524.13-.73a1.85 1.85 0 0 1 .346-.54c.144-.156.338-.34.582-.555.214-.187.368-.328.464-.423.095-.096.175-.202.24-.319a.77.77 0 0 0 .098-.38c0-.268-.1-.494-.298-.677-.2-.184-.456-.276-.77-.276-.368 0-.638.093-.812.278-.174.186-.32.459-.441.82-.114.377-.33.566-.647.566a.635.635 0 0 1-.474-.198.606.606 0 0 1-.193-.428zm2.447 5.494a.789.789 0 0 1-.534-.198c-.152-.132-.228-.317-.228-.554 0-.21.073-.388.22-.531a.745.745 0 0 1 .542-.216c.21 0 .387.072.531.216.144.143.216.32.216.53 0 .235-.075.419-.226.552a.761.761 0 0 1-.521.2z"/></g><g fill-rule="nonzero"><path fill="#959CA5" d="M21.264 633.123l-.006 2.414-3.109-3.12 3.123-3.121-.005 2.598h3.71a1.846 1.846 0 0 0 1.844-1.844 1.846 1.846 0 0 0-1.843-1.844H23.92l.005-1.229h1.053a3.076 3.076 0 0 1 3.073 3.073 3.076 3.076 0 0 1-3.073 3.073h-3.714z"/><path fill="#A1A7AF" d="M23.375 642.861c6.318 0 11.44-5.122 11.44-11.44 0-6.317-5.122-11.439-11.44-11.439-6.317 0-11.44 5.122-11.44 11.44 0 6.317 5.123 11.439 11.44 11.439zm0-.83c5.86 0 10.61-4.75 10.61-10.61 0-5.859-4.75-10.609-10.61-10.609-5.859 0-10.609 4.75-10.609 10.61 0 5.859 4.75 10.609 10.61 10.609z"/></g><path fill="#69A3E9" fill-rule="nonzero" d="M25.104 604.753l2.7-2.702-1.35-1.35-2.701 2.701-2.701-2.701-1.35 1.35 2.7 2.702-2.701 2.701 1.35 1.351 2.702-2.702 2.703 2.703 1.35-1.35z"/><path fill="#525C69" fill-rule="nonzero" d="M28.132 573.486l-1.859 1.858a2.627 2.627 0 0 1-3.716 0 2.625 2.625 0 0 1-.399-.53l.864-.863c.04-.042.091-.065.14-.093.06.204.164.397.324.557a1.315 1.315 0 0 0 1.858 0l1.858-1.858a1.315 1.315 0 0 0-1.858-1.858l-.66.661a3.297 3.297 0 0 0-1.677-.182l1.408-1.408a2.628 2.628 0 0 1 3.717 3.716zm-4.914 3.056l-.66.661a1.316 1.316 0 0 1-1.86 0 1.316 1.316 0 0 1 0-1.859l1.86-1.858a1.315 1.315 0 0 1 1.857 0c.16.16.265.353.325.557.049-.028.099-.051.14-.092l.863-.864a2.583 2.583 0 0 0-.399-.53 2.628 2.628 0 0 0-3.716 0l-1.858 1.858a2.628 2.628 0 0 0 3.716 3.717l1.409-1.408a3.295 3.295 0 0 1-1.677-.182z"/><path fill="#468EE5" fill-rule="nonzero" d="M25.787 544.4c1.001 0 1.82-.819 1.82-1.82v-5.76c0-1-.819-1.82-1.82-1.82H15.82c-1.002 0-1.821.82-1.821 1.82v5.755c0 1.002.82 1.821 1.82 1.821h1.352v3.196c0 .326.287.316.886-.192.35-.292 1.658-1.792 2.703-3.004h5.026v.005zm4.408-5.471H29.18v4.466c0 1.47-1.192 2.678-2.655 2.678h-5.31l-1.872 1.97c.28.181.618.292.974.292h4.982c1.036 1.212 2.337 2.712 2.68 3.004.598.508.878.512.878.191v-3.195h1.34c.992 0 1.804-.82 1.804-1.821v-5.764a1.812 1.812 0 0 0-1.805-1.821zM30.936 505H16.028c-1.147.036-2.05.908-2.026 1.958v9.084c-.048 1.025.81 1.896 1.93 1.958h15.041c1.147-.036 2.05-.908 2.027-1.957v-9.049c.008-1.063-.903-1.943-2.064-1.994zm-1.796 1.808l-5.693 4.173-5.693-4.173h11.391-.005zm1.86 8.79a.547.547 0 0 1-.168.413.634.634 0 0 1-.434.178H16.574a.618.618 0 0 1-.42-.184.533.533 0 0 1-.153-.407V507.955c.065.082.14.156.226.221l6.616 4.912a.8.8 0 0 0 .489.185h.3c.177-.024.345-.087.49-.185l6.615-4.912c.108-.082.197-.184.262-.298v7.719zm-3.668-32.15c-.534-.557-1.201-.557-1.732 0-.405.423-.708.56-1.106.99-.11.119-.201.144-.334.065-.262-.151-.541-.273-.793-.438-1.174-.78-2.158-1.781-3.029-2.908-.432-.56-.817-1.16-1.086-1.835-.054-.137-.044-.226.062-.338.405-.412.54-.563.94-.987.554-.589.554-1.278-.004-1.87-.317-.338-.623-.804-.88-1.17-.259-.366-.461-.802-.791-1.143-.535-.549-1.202-.549-1.733.004-.408.424-.8.858-1.215 1.275-.384.384-.578.854-.62 1.403-.064.894.144 1.738.436 2.56.6 1.702 1.512 3.214 2.618 4.6 1.494 1.874 3.277 3.356 5.363 4.426.94.481 1.913.851 2.972.912.728.043 1.36-.15 1.868-.75.347-.41.739-.783 1.106-1.174.545-.582.548-1.286.007-1.86-.647-.686-1.399-1.08-2.049-1.763zm-.276-3.083l.15-.028c.33-.059.538-.406.446-.744a6.009 6.009 0 0 0-1.43-2.556 5.518 5.518 0 0 0-2.588-1.558c-.324-.086-.647.143-.694.492l-.021.161c-.04.3.142.58.42.657a4.277 4.277 0 0 1 1.984 1.2 4.621 4.621 0 0 1 1.1 1.962.558.558 0 0 0 .633.414zm1.442-5.665c-1.309-1.381-2.932-2.303-4.725-2.688-.316-.068-.62.162-.664.499l-.022.16a.59.59 0 0 0 .444.662c1.544.336 2.941 1.132 4.069 2.318a8.598 8.598 0 0 1 2.144 4.032c.069.305.348.502.64.45l.15-.027c.32-.058.526-.39.45-.725a9.997 9.997 0 0 0-2.486-4.681z"/><path fill="#FFF" fill-rule="nonzero" d="M23.153 170.332l-4.276-4.218a.59.59 0 0 0-.938.475v2.373h-2.35a.59.59 0 0 0-.589.59v2.511c0 .326.264.59.59.59h2.35v2.373a.59.59 0 0 0 .937.475l4.276-4.218a.59.59 0 0 0 0-.95zm1.074.951l4.276 4.218a.59.59 0 0 0 .938-.475v-2.373h2.35a.59.59 0 0 0 .59-.59v-2.511a.59.59 0 0 0-.59-.59h-2.35v-2.373a.59.59 0 0 0-.938-.475l-4.276 4.218a.59.59 0 0 0 0 .951zM25.745 17.63c.828 0 1.505-.665 1.505-1.478v-4.674c0-.813-.677-1.478-1.505-1.478h-8.24c-.828 0-1.505.665-1.505 1.478v4.67c0 .813.677 1.478 1.505 1.478h1.117v2.593c0 .265.238.257.733-.155.29-.237 1.37-1.454 2.234-2.438h4.156v.004zM29.842 13h-.828v3.622a2.174 2.174 0 0 1-2.163 2.173h-4.326L21 20.392c.228.148.503.237.793.237h4.06c.843.983 1.903 2.2 2.182 2.437.488.412.716.416.716.155V20.63h1.091c.809 0 1.47-.665 1.47-1.477v-4.675A1.473 1.473 0 0 0 29.842 13zm.132 89H17.026A1.04 1.04 0 0 0 16 103.03v3.546c0 .545.453 1.03 1.026 1.03h12.948a1.04 1.04 0 0 0 1.026-1.03v-3.546a1.02 1.02 0 0 0-1.026-1.03zm-.453 3.758c0 .181-.15.333-.332.333H17.841a.336.336 0 0 1-.332-.333v-1.94c0-.182.151-.333.332-.333h11.348c.181 0 .332.151.332.333v1.94zm.453 3.636H17.026a1.04 1.04 0 0 0-1.026 1.03v3.546c0 .545.453 1.03 1.026 1.03h12.948A1.04 1.04 0 0 0 31 113.97v-3.546a1.02 1.02 0 0 0-1.026-1.03zm-.453 3.758c0 .181-.15.333-.332.333H17.841a.336.336 0 0 1-.332-.333v-1.94c0-.182.151-.333.332-.333h11.348c.181 0 .332.151.332.333v1.94zm-.865 118.022h-9.531c-.189 0-.34-.134-.34-.303v-1.246c0-.169.151-.304.34-.304h9.531c.188 0 .34.135.34.304v1.246c.037.169-.152.303-.34.303zm0 3.715h-9.531c-.189 0-.34-.135-.34-.304v-1.246c0-.169.151-.303.34-.303h9.531c.188 0 .34.134.34.303v1.246c.037.169-.152.304-.34.304zm.645-7.889H17.646c-.898 0-1.646.674-1.646 1.482v7.58c0 .809.748 1.482 1.646 1.482h7.556c.112 0 .187.034.262.102l2.32 2.257c.224.202.598.067.598-.202v-1.853c0-.169.15-.304.336-.304h.62c.898 0 1.646-.673 1.646-1.482v-7.58c-.037-.808-.786-1.482-1.683-1.482zm-3.91-32.839c0-1.4-.811-2.161-2.236-2.161-1.4 0-2.21.761-2.21 2.161s.81 2.21 2.21 2.21c1.425 0 2.235-.81 2.235-2.21zM27 209.52v-1.94l-1.253-.172c-.368-.05-.393-.099-.393-.492v-8.303H20.27l-.27 1.99 1.326.466c.246.074.32.245.32.516v5.331c0 .369-.05.442-.393.492l-1.253.171v1.94h7zM30.153 71H16.815c-1.026.033-1.834.838-1.813 1.807v8.386c-.043.946.725 1.75 1.726 1.807h13.459c1.025-.033 1.833-.838 1.813-1.806V72.84c.007-.982-.808-1.794-1.847-1.841zm-1.607 1.669l-5.093 3.852-5.094-3.852h10.192-.005zm1.778 8.113a.509.509 0 0 1-.152.382.573.573 0 0 1-.395.164H17.2a.559.559 0 0 1-.382-.17.497.497 0 0 1-.14-.376v-7.054c.06.075.129.144.206.204l6.02 4.534c.121.104.279.165.444.17h.273c.161-.021.314-.08.445-.17l6.02-4.534a.921.921 0 0 0 .237-.275v7.125zm-2.48-31.766c-.47-.5-1.057-.5-1.524 0-.356.38-.622.503-.972.89-.096.106-.177.128-.294.057-.23-.135-.475-.245-.697-.393-1.032-.7-1.897-1.598-2.663-2.61-.38-.503-.718-1.041-.955-1.647-.048-.122-.039-.203.054-.303.356-.37.476-.506.826-.886.488-.529.488-1.147-.003-1.68-.278-.302-.547-.72-.774-1.05-.227-.328-.405-.718-.695-1.025-.47-.493-1.057-.493-1.524.004-.359.38-.703.77-1.068 1.144-.338.344-.509.767-.545 1.26-.056.802.126 1.56.383 2.297.527 1.528 1.33 2.885 2.302 4.129 1.313 1.682 2.882 3.013 4.716 3.973.826.432 1.682.764 2.613.819.64.039 1.197-.136 1.642-.674.306-.367.65-.702.973-1.054.479-.522.482-1.153.006-1.669-.569-.615-1.23-.97-1.802-1.582zm-.363-3.023l.126-.022a.482.482 0 0 0 .375-.606 4.855 4.855 0 0 0-1.202-2.082 4.666 4.666 0 0 0-2.174-1.268.473.473 0 0 0-.583.4l-.018.131a.484.484 0 0 0 .353.535 3.616 3.616 0 0 1 1.667.977c.439.449.754.995.925 1.598a.47.47 0 0 0 .53.337zm1.307-4.672a8.122 8.122 0 0 0-4.177-2.31.497.497 0 0 0-.587.428l-.02.138a.508.508 0 0 0 .393.57c1.365.288 2.6.972 3.597 1.992a7.33 7.33 0 0 1 1.895 3.468.497.497 0 0 0 .567.386l.132-.023a.51.51 0 0 0 .398-.623 8.523 8.523 0 0 0-2.198-4.026zm.044 102.382c0 .284-.232.504-.53.504h-9.915c-.298 0-.53-.22-.53-.504v-9.406c0-.284.232-.504.53-.504h6.831l1.89-1.793h-9.35c-.962 0-1.758.755-1.758 1.667v10.666c0 .912.796 1.667 1.757 1.667h11.241c.962 0 1.758-.755 1.758-1.667v-4.122l-1.89 1.793v1.7h-.034zm2.985-9.406l-.863-.818c-.232-.22-.596-.22-.795 0l-6.002 5.663-2.686-2.549c-.232-.22-.597-.22-.796 0l-.862.818c-.232.22-.232.567 0 .755l3.98 3.776a.633.633 0 0 0 .53.157.69.69 0 0 0 .298-.157l7.262-6.89c.166-.19.166-.535-.066-.755zM8 0h1v1H8zM38 0h1v1h-1zM23.635 921h-9.667a.967.967 0 0 0-.968.968v10.655c0 .535.432.968.968.968h9.667a.967.967 0 0 0 .967-.968v-10.655a.967.967 0 0 0-.967-.968zm-4.748 10.872a4.671 4.671 0 0 1-4.673-4.674 4.671 4.671 0 0 1 4.673-4.673 4.671 4.671 0 0 1 4.674 4.673 4.671 4.671 0 0 1-4.674 4.674zm.681-4.664c.36-.268.608-.762.608-1.318 0-.854-.567-1.544-1.277-1.544-.7 0-1.277.69-1.277 1.544 0 .556.248 1.04.608 1.318-1.194.134-2.08.68-2.08 2.224 0 .278 2.728.236 2.728.236s2.76.021 2.76-.236c0-1.545-.876-2.1-2.07-2.224zm8.491-2.608h5.037a.972.972 0 1 0 0-1.946H28.06a.972.972 0 1 0 0 1.946zm5.037 1.259H28.06a.972.972 0 1 0 0 1.946h5.037a.972.972 0 1 0 0-1.946zm-1.22 3.09h-4.014c-.429 0-.776.436-.776.974s.347.973.776.973h4.014c.43 0 .776-.435.776-.973s-.347-.973-.776-.973z"/><g fill="#A8ADB4" fill-rule="nonzero" opacity=".8"><path d="M17.989 954H26v1h-8.011zM29.556 954.5l-3.54 3v-6z"/></g><path fill="#FFF" fill-rule="nonzero" d="M20.202 1099.682l-1.778-.01v-3.123h1.952v-2.59h-2.638a1.91 1.91 0 0 0-1.904 1.904v3.796l-1.834-.01 3.1 3.126 3.102-3.093zm9.693 1.134l-3.106 3.046 1.914.004v3.224h-2.079v2.543h2.765c1.048 0 1.904-.841 1.904-1.87v-3.891l1.707.004-3.105-3.06zm-8.766 6.275h-2.895v-1.946h-2.412v2.597c0 .992.797 1.804 1.772 1.804h3.521l-.008 1.454 2.912-2.939-2.88-2.938-.01 1.968zm7.766-8.234h2.41v-2.859c0-1.124-.797-2.043-1.771-2.043h-3.529l.004-1.955-2.9 3.334 2.887 3.334.003-1.934h2.896v2.123z"/><path fill="#828B95" fill-rule="nonzero" d="M28.384 874.838l-2.634-2.634a.745.745 0 0 0-1.054 1.053l.539.539-4.226 3.151-.53-.53a.745.745 0 0 0-1.053 1.054l1.613 1.613-2.975 3.181a.188.188 0 1 0 .265.266l3.172-2.985 1.611 1.61a.745.745 0 0 0 1.053-1.054l-.53-.529 3.152-4.225.542.543a.745.745 0 0 0 1.055-1.053z"/><path fill="#468EE5" fill-rule="nonzero" d="M26.843 824.016c.572.612 1.233.967 1.802 1.582.476.516.473 1.147-.006 1.67-.323.35-.667.686-.973 1.053-.445.538-1.002.713-1.642.674-.931-.055-1.787-.387-2.613-.819-1.834-.96-3.403-2.291-4.716-3.973-.973-1.244-1.775-2.601-2.302-4.129-.257-.737-.44-1.495-.383-2.297.036-.493.207-.916.545-1.26.365-.374.71-.764 1.068-1.144.467-.497 1.054-.497 1.524-.004.29.307.468.697.695 1.026.227.328.496.747.774 1.05.49.532.49 1.15.003 1.679-.35.38-.47.515-.826.886-.093.1-.102.18-.054.303.237.606.575 1.144.955 1.647.766 1.012 1.63 1.91 2.663 2.61.222.148.467.258.697.393.117.071.198.049.294-.058.35-.386.616-.509.972-.89.467-.499 1.054-.499 1.523 0zm-.362-3.023a.47.47 0 0 1-.531-.337 3.734 3.734 0 0 0-.925-1.598 3.616 3.616 0 0 0-1.667-.977.484.484 0 0 1-.353-.535l.018-.13a.473.473 0 0 1 .583-.401c.82.213 1.564.645 2.174 1.268a4.855 4.855 0 0 1 1.202 2.082.482.482 0 0 1-.375.606l-.126.022zm1.307-4.672a8.523 8.523 0 0 1 2.198 4.026.51.51 0 0 1-.398.623l-.132.023a.497.497 0 0 1-.567-.386 7.33 7.33 0 0 0-1.895-3.468 7.045 7.045 0 0 0-3.597-1.993.508.508 0 0 1-.392-.569l.019-.138a.497.497 0 0 1 .587-.429 8.122 8.122 0 0 1 4.177 2.311z"/></g></svg>