<svg width="13" height="15" viewBox="0 0 13 15" fill="none" xmlns="http://www.w3.org/2000/svg">
<path fill-rule="evenodd" clip-rule="evenodd" d="M1 0C0.447715 0 0 0.447715 0 1V14C0 14.5523 0.447715 15 1 15H11.0227C11.575 15 12.0227 14.5523 12.0227 14V5.00028C12.0227 4.49809 11.8338 4.01427 11.4935 3.64497L8.72873 0.644696C8.35006 0.233771 7.81675 0 7.25796 0H1ZM2.81162 3.98241C2.37545 3.98241 2.02186 4.336 2.02186 4.77217C2.02186 5.20834 2.37545 5.56193 2.81162 5.56193H8.62934C9.06551 5.56193 9.4191 5.20834 9.4191 4.77217C9.4191 4.336 9.06551 3.98241 8.62934 3.98241H2.81162ZM2.81162 6.98241C2.37545 6.98241 2.02186 7.336 2.02186 7.77217C2.02186 8.20834 2.37545 8.56193 2.81162 8.56193H8.62934C9.06551 8.56193 9.4191 8.20834 9.4191 7.77217C9.4191 7.336 9.06551 6.98241 8.62934 6.98241H2.81162ZM2.02186 10.732C2.02186 10.2958 2.37545 9.9422 2.81162 9.9422H6.92524C7.36141 9.9422 7.715 10.2958 7.715 10.732C7.715 11.1681 7.36141 11.5217 6.92524 11.5217H2.81162C2.37545 11.5217 2.02186 11.1681 2.02186 10.732Z" fill="#BDC1C6"/>
</svg>
