<svg width="40" height="40" viewBox="0 0 40 40" fill="none" xmlns="http://www.w3.org/2000/svg">
<path fill-rule="evenodd" clip-rule="evenodd" d="M20 33.3063C12.651 33.3063 6.69351 27.3488 6.69351 19.9998C6.69351 12.6509 12.651 6.69336 20 6.69336C27.3489 6.69336 33.3064 12.6509 33.3064 19.9998C33.3064 27.3488 27.3489 33.3063 20 33.3063ZM16.4053 29.7749C13.9784 28.8821 11.9758 27.1112 10.7827 24.8475H14.3776C14.7052 26.0263 15.1122 27.0865 15.5123 27.9822C15.8215 28.6746 16.1311 29.2786 16.4053 29.7749ZM23.5379 29.7956C25.9904 28.9097 28.0149 27.1289 29.2173 24.8475H25.5268C25.209 26.0198 24.8146 27.0746 24.4266 27.967C24.1183 28.6762 23.8096 29.2927 23.5379 29.7956ZM26.1085 21.7503H30.2657C30.3621 21.1812 30.4122 20.5963 30.4122 19.9998C30.4122 19.4511 30.3698 18.9124 30.288 18.3866H26.1169C26.169 18.9215 26.1977 19.469 26.1977 20.0264C26.1977 20.613 26.1659 21.1888 26.1085 21.7503ZM22.7641 18.3866C22.8284 18.9221 22.8643 19.4703 22.8643 20.0264C22.8643 20.6116 22.8245 21.1881 22.7538 21.7503L17.1372 21.7503C17.0643 21.188 17.0233 20.6115 17.0233 20.0264C17.0233 19.4704 17.0603 18.9222 17.1266 18.3866L22.7641 18.3866ZM25.5494 15.2894H29.2883C28.0899 12.931 26.0197 11.0902 23.502 10.1912C23.7823 10.7057 24.1046 11.3452 24.4266 12.0858C24.8239 12.9994 25.2278 14.0835 25.5494 15.2894ZM16.4424 10.2112C13.9498 11.1173 11.9012 12.9484 10.7117 15.2894H14.3544C14.6859 14.0769 15.1027 12.9876 15.5123 12.0706C15.8356 11.3469 16.1592 10.7197 16.4424 10.2112ZM17.8347 15.2894C18.0557 14.6184 18.304 13.9939 18.5558 13.4301C18.9441 12.5608 19.3318 11.856 19.6192 11.3734C19.7626 11.1326 19.8803 10.9484 19.9594 10.8282L19.9868 10.7868L20.0024 10.811C20.0795 10.9312 20.194 11.1155 20.3337 11.3565C20.6137 11.8394 20.9914 12.5447 21.3697 13.4149C21.6166 13.9827 21.8601 14.6124 22.0766 15.2894L17.8347 15.2894ZM13.7727 18.3866H9.712C9.63023 18.9124 9.58779 19.4511 9.58779 19.9998C9.58779 20.5964 9.63795 21.1812 9.7343 21.7503H13.7813C13.7225 21.1888 13.69 20.6131 13.69 20.0264C13.69 19.469 13.7194 18.9214 13.7727 18.3866ZM17.8626 24.8475L22.0495 24.8475C21.8399 25.4926 21.6063 26.0937 21.3697 26.6379C20.9914 27.5081 20.6137 28.2135 20.3337 28.6963C20.194 28.9373 20.0795 29.1216 20.0024 29.2418L19.9868 29.2661L19.9594 29.2247C19.8803 29.1044 19.7626 28.9203 19.6192 28.6794C19.3318 28.1968 18.9441 27.4921 18.5558 26.6228C18.3145 26.0826 18.0765 25.4866 17.8626 24.8475Z" fill="white"/>
</svg>
