<svg width="40" height="40" viewBox="0 0 40 40" fill="none" xmlns="http://www.w3.org/2000/svg">
<path fill-rule="evenodd" clip-rule="evenodd" d="M12.7004 13.9814C14.188 13.9814 15.5862 14.5743 15.5862 16.2644C15.5862 17.7863 14.1946 18.7951 12.461 20.0519C9.80403 21.9781 6.34354 24.4869 5.85739 30.3179H20.1084V26.8788H11.1531C11.6955 25.0902 13.4033 23.793 15.1628 22.4566C17.4577 20.7135 19.8407 18.9036 19.8407 15.8492C19.8407 12.7658 17.7283 10.5718 13.355 10.5718C10.5583 10.5718 8.20784 11.4316 6.51181 12.2026L7.55342 15.3156C9.07061 14.6336 10.707 13.9814 12.7004 13.9814ZM28.1714 22.4017H26.3862C25.7021 22.4017 24.2738 22.4609 23.9169 22.4906L28.35 16.6498C28.2902 17.0351 28.1714 18.7846 28.1714 20.2966V22.4017ZM29.2126 10.6312L19.3946 23.0836V25.663H28.1713V30.3179H32.1285V25.663H35.044V22.4017H32.1285V10.6312H29.2126Z" fill="white"/>
</svg>
