<svg width="10px" height="13px" viewBox="0 0 10 13" version="1.1" xmlns="http://www.w3.org/2000/svg" xmlns:xlink="http://www.w3.org/1999/xlink">
    <g id="Редактор-финал" stroke="none" stroke-width="1" fill="none" fill-rule="evenodd">
        <g id="01_Редактирование" transform="translate(-1465.000000, -89.000000)" fill="#525C69">
            <g id="Group-17" transform="translate(1268.000000, 77.000000)">
                <g id="Group-3">
                    <g id="trash-copy" transform="translate(197.000000, 12.000000)">
                        <path d="M4,1 L4,0 L6,0 L6,1 L8.5,1 C9.32842712,1 10,1.67157288 10,2.5 L10,3 L0,3 L0,2.5 C-1.01453063e-16,1.67157288 0.671572875,1 1.5,1 L4,1 Z M1,4 L9,4 L8.28101869,12.0885398 C8.23515756,12.6044774 7.80291791,13 7.28494604,13 L2.71505396,13 C2.19708209,13 1.76484244,12.6044774 1.71898131,12.0885398 L1,4 Z" id="Combined-Shape"></path>
                    </g>
                </g>
            </g>
        </g>
    </g>
</svg>