<svg width="9px" height="7px" viewBox="0 0 9 7" version="1.1" xmlns="http://www.w3.org/2000/svg" xmlns:xlink="http://www.w3.org/1999/xlink">
    <g id="Symbols" stroke="none" stroke-width="1" fill="none" fill-rule="evenodd">
        <g id="Rectangle" transform="translate(-4.000000, -5.000000)" fill="#FFFFFF">
            <path d="M7.42140455,5.25299651 L7.42140455,10.0472716 C7.42140455,10.4817325 7.06383653,10.8435502 6.62275402,10.8435502 C6.17859636,10.8435502 5.82410349,10.4870441 5.82410349,10.0472716 L5.82410349,5.25062463 C5.82410349,5.10699285 5.86318382,4.97130061 5.9314422,4.85399653 C5.86335103,4.73645219 5.82410349,4.59994933 5.82410349,4.45434598 C5.82410349,4.01018833 6.17837401,3.65569545 6.61538884,3.65569545 L9.82472132,3.65569545 C10.2558351,3.65569545 10.6160067,4.01326347 10.6160067,4.45434598 C10.6160067,4.89850363 10.2617361,5.25299651 9.82472132,5.25299651 L7.42140455,5.25299651 Z" id="Combined-Shape" transform="translate(8.220055, 7.249623) rotate(-136.000000) translate(-8.220055, -7.249623) "></path>
        </g>
    </g>
</svg>