<svg width="17px" height="13px" viewBox="0 0 17 13" version="1.1" xmlns="http://www.w3.org/2000/svg" xmlns:xlink="http://www.w3.org/1999/xlink">
  <g id="Page-1" stroke="none" stroke-width="1" fill="none" fill-rule="evenodd">
      <g id="false-button" fill="#333333">
        <path d="M11.6549547,1.71628336 L9.75241664,3.14994862 C9.36737152,2.99345588 8.94859882,2.90719295 8.5103153,2.90608691 C6.60935681,2.90133912 5.04747434,4.50448936 5.0469611,6.46093442 C5.04694151,6.53820395 5.04914433,6.614858 5.05350712,6.69083093 L1.99886019,8.99267249 C1.38676108,8.42644897 0.812973959,7.80100981 0.275280296,7.12165122 C-0.0873089811,6.66354512 -0.0932424563,6.33104576 0.266595846,5.88116096 C1.83675521,3.91781376 3.66027397,2.37851296 5.87583362,1.49901847 C6.33443732,1.31697523 6.80684983,1.19847713 7.28271454,1.09598895 C7.69109946,1.00802714 8.10590332,1.02292439 8.51693133,1.0009803 C9.620976,0.981507073 10.6623965,1.25327348 11.6549547,1.71628336 Z M14.8812444,3.90273192 C15.5394947,4.49341517 16.1537409,5.15011622 16.7215251,5.87368143 C17.0872969,6.33976158 17.0957116,6.65495292 16.7291847,7.10799025 C15.2657739,8.91686341 13.5962019,10.3975642 11.5750984,11.3053697 C9.41840044,12.274076 7.28246854,12.2189421 5.18866553,11.206614 L7.08517289,9.77749321 C7.51466825,9.97640563 7.99204074,10.0865338 8.49708529,10.0866427 C10.3938239,10.0870581 11.952741,8.47809184 11.9521137,6.52081591 C11.9520755,6.38716183 11.9451548,6.25522456 11.9317017,6.12537177 L14.8812444,3.90273192 Z" id="Shape"></path>
        <rect id="Rectangle-path" transform="translate(8.508000, 6.418000) rotate(53.000000) translate(-8.508000, -6.418000) " x="8.008" y="-2.582" width="1" height="18"></rect>
      </g>
  </g>
</svg>