<svg width="36" height="36" viewBox="0 0 36 36" fill="none" xmlns="http://www.w3.org/2000/svg">
    <path fill-rule="evenodd" clip-rule="evenodd" d="M23.9622 11.6242H11.0145C10.4712 11.6242 9.98835 12.0788 9.98835 12.6545V16.2C9.98835 16.7454 10.4411 17.2303 11.0145 17.2303H23.9622C24.5055 17.2303 24.9884 16.7757 24.9884 16.2V12.6545C24.9884 12.0788 24.5356 11.6242 23.9622 11.6242ZM23.5095 15.3818C23.5095 15.5636 23.3586 15.7151 23.1775 15.7151H11.8294C11.6483 15.7151 11.4974 15.5636 11.4974 15.3818V13.4424C11.4974 13.2606 11.6483 13.1091 11.8294 13.1091H23.1775C23.3586 13.1091 23.5095 13.2606 23.5095 13.4424V15.3818ZM23.9622 19.0182H11.0145C10.4712 19.0182 9.98835 19.4727 9.98835 20.0485V23.5939C9.98835 24.1394 10.4411 24.6242 11.0145 24.6242H23.9622C24.5055 24.6242 24.9884 24.1697 24.9884 23.5939V20.0485C24.9884 19.4727 24.5356 19.0182 23.9622 19.0182ZM23.5095 22.7757C23.5095 22.9576 23.3586 23.1091 23.1775 23.1091H11.8294C11.6483 23.1091 11.4974 22.9576 11.4974 22.7757V20.8363C11.4974 20.6545 11.6483 20.503 11.8294 20.503H23.1775C23.3586 20.503 23.5095 20.6545 23.5095 20.8363V22.7757Z" fill="white"/>
</svg>
