<svg xmlns="http://www.w3.org/2000/svg" width="21" height="13" viewBox="0 0 21 13">
  <g fill="none" fill-rule="evenodd">
    <path fill="#777777" d="M4.58644792,7.81275391 L7.24932191,7.81275391 L5.9538697,3.22478349 L5.92508187,3.22478349 L4.58644792,7.81275391 Z M4.80235662,0.142788101 L7.11977669,0.142788101 L10.9629516,12.645883 L8.61674368,12.645883 L7.83947236,9.86158039 L3.99629747,9.86158039 L3.19023832,12.645883 L0.916,12.645883 L4.80235662,0.142788101 Z"/>
    <path fill="#777777" d="M15.6113682,10.8404512 C12.9868228,10.8404512 10.8592084,8.71283684 10.8592084,6.08829149 C10.8592084,3.46374613 12.9868228,1.33613175 15.6113682,1.33613175 C18.2359135,1.33613175 20.3635279,3.46374613 20.3635279,6.08829149 C20.3635279,8.71283684 18.2359135,10.8404512 15.6113682,10.8404512 Z M17.9601767,3.60170497 L17.2272922,4.34151501 C16.4716224,5.10257859 15.7108815,5.86873044 14.943855,6.6412273 C14.633856,6.33154808 13.8982052,5.63687388 13.6032371,5.34215293 C13.3078742,5.63500409 13.0104161,5.92997026 12.7289301,6.20905858 C13.333381,6.82204136 14.3651842,7.82173565 14.958734,8.42368364 C16.0065177,7.36327063 17.7941395,5.55602822 18.8486946,4.48881041 C18.5680589,4.20858796 18.2740624,3.9150931 17.9601767,3.60170497 Z"/>
  </g>
</svg>
