<svg xmlns="http://www.w3.org/2000/svg" width="50" height="49" viewBox="0 0 50 49">
  <path fill="#ff799c" d="M47.9817926,11.9109512 C48.7502171,11.9109512 49.3868269,12.4309838 49.4590632,13.0906947 L49.4658882,13.2159345 L49.4658882,33.6202549 C49.4658882,34.2959398 48.8744798,34.8557186 48.1242219,34.9192369 L47.9817926,34.9252381 L26.9653715,34.9252381 C26.1969471,34.9252381 25.5603372,34.4052056 25.4881009,33.7454947 L25.4812759,33.6202549 L25.4812759,13.2159345 C25.4812759,12.5402495 26.0726843,11.9804708 26.8229423,11.9169525 L26.9653715,11.9109512 L47.9817926,11.9109512 Z M21.35,25.98 L21.35,32.996 L17.4590418,32.9969697 C16.6754905,32.9969697 15.9799817,32.4952298 15.7328275,31.7516792 L14.6098931,28.3733894 C14.2929982,27.4200275 14.8089566,26.3902809 15.7623185,26.073386 C15.9473676,26.0118762 16.1411033,25.980521 16.3361075,25.980521 L21.35,25.98 Z M30.3664433,22.8544253 C29.253114,22.8544253 28.3505823,23.756957 28.3505823,24.8702863 C28.3505823,25.9836156 29.253114,26.8861473 30.3664433,26.8861473 C31.4797726,26.8861473 32.3823044,25.9836156 32.3823044,24.8702863 C32.3823044,23.756957 31.4797726,22.8544253 30.3664433,22.8544253 Z M44.7172601,23.4395483 L35.6052259,23.4395483 C35.0205896,23.4395483 34.5350771,23.9812544 34.4766718,24.6707736 L34.4707827,24.8105316 L34.4707827,24.8806843 C34.4707827,25.5881613 34.9197554,26.1740847 35.4897175,26.2445615 L35.6052259,26.2516676 L44.7172601,26.2516676 C45.3026739,26.2516676 45.7875061,25.7099615 45.8458234,25.0204422 L45.8517034,24.8806843 L45.8517034,24.8105316 C45.8517034,24.0558895 45.3417015,23.4395483 44.7172601,23.4395483 Z M30.3664433,16.1147636 C29.253114,16.1147636 28.3505823,17.0172954 28.3505823,18.1306247 C28.3505823,19.243954 29.253114,20.1464857 30.3664433,20.1464857 C31.4797726,20.1464857 32.3823044,19.243954 32.3823044,18.1306247 C32.3823044,17.0172954 31.4797726,16.1147636 30.3664433,16.1147636 Z M21.35,12.969 L21.35,19.986 L9.43071225,19.9863621 C8.66068324,19.9863621 7.97407356,19.5015234 7.71645572,18.7758667 L6.51711771,15.3975768 C6.18100606,14.4508191 6.67603254,13.410848 7.62279028,13.0747363 C7.81819468,13.0053652 8.0240213,12.9699134 8.23137424,12.9699134 L21.35,12.969 Z M44.7172601,16.6998866 L35.6052259,16.6998866 C35.0205896,16.6998866 34.5350771,17.2415928 34.4766718,17.931112 L34.4707827,18.07087 L34.4707827,18.1410226 C34.4707827,18.8484996 34.9197554,19.4344231 35.4897175,19.5048999 L35.6052259,19.512006 L44.7172601,19.512006 C45.3026739,19.512006 45.7875061,18.9702998 45.8458234,18.2807806 L45.8517034,18.1410226 L45.8517034,18.07087 C45.8517034,17.3162278 45.3417015,16.6998866 44.7172601,16.6998866 Z M40.7484436,-3.23296945e-13 C41.7530934,-3.23296945e-13 42.567523,0.814429593 42.567523,1.81907941 C42.567523,2.02271373 42.5333313,2.22490275 42.466374,2.41721408 L41.2901492,5.79550393 C41.0356176,6.52655598 40.346314,7.01644867 39.5722188,7.01644867 L2.98628336,7.01644867 C2.21050777,7.01644867 1.52009546,6.52446033 1.26685438,5.79118227 L0.100145856,2.41289241 C-0.227808011,1.46327801 0.276147427,0.427604297 1.22576183,0.0996504306 C1.41678966,0.033678059 1.61747589,-3.23296945e-13 1.81957483,-3.23296945e-13 L40.7484436,-3.23296945e-13 Z"/>
  <ellipse cx="20.805" cy="2.33" fill="#000" opacity=".023" rx="20.186" ry="1.927" transform="translate(2.952 43.067)"/>
</svg>
