<svg xmlns="http://www.w3.org/2000/svg" width="15" height="16" viewBox="0 0 15 16">
  <path fill="#525C69" d="M8.99438423,1.9983323 L10.1715729,2 C10.7020059,2 11.2107137,2.21071368 11.5857864,2.58578644 L14.4142136,5.41421356 C14.7892863,5.78928632 15,6.29799415 15,6.82842712 L15,14 C15,15.1045695 14.1045695,16 13,16 L5,16 C3.8954305,16 3,15.1045695 3,14 L2.99837734,9.29527735 C3.33445356,9.36129841 3.68179682,9.39590147 4.03722205,9.39590147 C4.36578454,9.39590147 4.68744053,9.36633129 4.99967395,9.30970704 L5,14 L13,14 L13,6.82842712 L10.1715729,4 L9.39418073,3.9993323 L9.39143177,3.81633768 C9.3654231,3.17484916 9.22664373,2.56241718 8.99438423,1.9983323 Z M4.75213892,0.0647759987 L4.75213892,2.71317854 L7.04420738,1.38911524 L7.79665409,2.69551824 L5.50745651,4.01985748 L7.79665409,5.34419672 L7.04420738,6.65096764 L4.75176848,5.3266284 L4.75176848,7.97503094 L3.24724548,7.97503094 L3.24724548,5.3266284 L0.954806588,6.65096764 L0.202721046,5.34419672 L2.49191863,4.01985748 L0.202721046,2.69551824 L0.955167763,1.38874732 L3.24760666,2.71308656 L3.24760666,0.064684018 L4.75213892,0.0647759987 Z"/>
</svg>
