
<svg width="21px" height="15px" viewBox="0 0 21 15" version="1.1" xmlns="http://www.w3.org/2000/svg" xmlns:xlink="http://www.w3.org/1999/xlink">
    <!-- Generator: Sketch 47 (45396) - http://www.bohemiancoding.com/sketch -->
    <desc>Created with Sketch.</desc>
    <defs></defs>
    <g id="Page-1" stroke="none" stroke-width="1" fill="none" fill-rule="evenodd">
        <g id="%u0420%u0435%u0434%u0430%u043A%u0442%u0438%u0440%u043E%u0432%u0430%u043D%u0438%u0435-Copy" transform="translate(-1130.000000, -26.000000)" fill="#525C6A">
            <path d="M1135.55046,27.6082096 C1139.80218,25.0172173 1145.24698,26.0966873 1148.23164,29.9362709 C1148.34923,30.0855733 1148.55402,30.129175 1148.71653,30.0300804 L1150.49359,28.9479679 C1150.72481,28.8052717 1151.01151,29.0153522 1150.9481,29.2796043 L1149.90829,33.5644527 C1149.81976,33.9317632 1149.45114,34.1563775 1149.08384,34.0678531 L1144.8004,33.0280209 C1144.53616,32.9632791 1144.48066,32.6118238 1144.7132,32.4704489 L1146.46251,31.4041915 C1146.65938,31.2839568 1146.7109,31.006492 1146.56161,30.8294431 C1144.11072,27.9319184 1139.86032,27.1589809 1136.5176,29.1950436 C1133.09693,31.2813143 1131.84572,35.5674839 1133.46687,39.125639 C1133.54483,39.2974029 1133.48933,39.4982345 1133.32946,39.597329 L1132.1866,40.3002397 C1132.1866,40.3002397 1132.10468,40.3438413 1132.04126,40.3227012 C1131.97917,40.301561 1131.95538,40.2632444 1131.92235,40.1945389 C1129.70268,35.7366053 1131.21946,30.2480884 1135.55046,27.6082096 Z" id="Fill-1-Copy"></path>
        </g>
    </g>
</svg>