<svg width="71px" height="71px" viewBox="0 0 71 71" version="1.1" xmlns="http://www.w3.org/2000/svg" xmlns:xlink="http://www.w3.org/1999/xlink">
    <g id="Page-1" stroke="none" stroke-width="1" fill="none" fill-rule="evenodd">
        <g id="Заблокировано" transform="translate(-209.000000, -159.000000)">
            <g id="Group-8" transform="translate(46.000000, 105.000000)">
                <g id="Group-7" transform="translate(20.000000, 55.000000)">
                    <g id="Group-11" transform="translate(144.000000, 0.000000)">
                        <circle id="Oval-2" stroke-opacity="0.446869339" stroke="#2FC6F6" fill="#FFFFFF" cx="34.5" cy="34.5" r="34.5"></circle>
                        <path d="M44.2815151,27.8376067 C44.2828426,22.9637049 39.9699181,19 34.6743825,19 C29.374809,19 25.0645979,22.9637049 25.0645979,27.8376067 L25.0645979,31.8288828 L23,31.8288828 L23,48.1757812 L46.340625,48.1757812 L46.340625,31.827599 L44.2815151,31.827599 L44.2815151,27.8376067 Z M28.6834334,27.8376067 C28.6834334,24.8016041 31.3700036,22.3339749 34.6730579,22.3339749 C37.9706856,22.3339749 40.655867,24.8028878 40.655867,27.8376067 L40.655867,31.8288828 L28.6834334,31.8288828 L28.6834334,27.8376067 Z M36.3238907,43.6937102 L33.0262631,43.6937102 L33.520282,39.2129229 C32.910549,38.8636596 32.4995614,38.2401732 32.4995614,37.5253082 C32.4995614,36.4248269 33.4713221,35.5309393 34.6743825,35.5309393 C35.8706917,35.5309393 36.8396777,36.4248852 36.8396777,37.5253082 C36.8396777,38.2401732 36.4354385,38.8624342 35.8202788,39.2129229 L36.3238907,43.6937102 Z" id="Shape" fill="#2FC6F6" fill-rule="nonzero"></path>
                    </g>
                </g>
            </g>
        </g>
    </g>
</svg>