<?xml version="1.0" encoding="UTF-8"?>
<svg width="16px" height="16px" viewBox="0 0 16 16" version="1.1" xmlns="http://www.w3.org/2000/svg" xmlns:xlink="http://www.w3.org/1999/xlink">
    <defs>
        <linearGradient x1="50%" y1="0%" x2="50%" y2="100%" id="linearGradient-1">
            <stop stop-color="#FAFAFA" offset="0%"></stop>
            <stop stop-color="#FFFFFF" offset="45.0380068%"></stop>
            <stop stop-color="#EEF2F4" offset="100%"></stop>
        </linearGradient>
        <linearGradient x1="50%" y1="0%" x2="50%" y2="100%" id="linearGradient-2">
            <stop stop-color="#FAFAFA" offset="0%"></stop>
            <stop stop-color="#FFFFFF" offset="45.0380068%"></stop>
            <stop stop-color="#EEF2F4" offset="100%"></stop>
        </linearGradient>
    </defs>
    <g id="Page-1" stroke="none" stroke-width="1" fill="none" fill-rule="evenodd">
        <g id="02-Контролы-2" transform="translate(-1004.000000, -708.000000)">
            <g id="Group-2" transform="translate(507.000000, 52.000000)">
                <rect id="grey" fill="#FFFFFF" x="328" y="0" width="1022" height="1041"></rect>
                <rect id="Rectangle" fill="url(#linearGradient-1)" x="328" y="22" width="431" height="1019"></rect>
                <rect id="Rectangle" fill="url(#linearGradient-2)" x="0" y="0" width="759" height="1041"></rect>
            </g>
            <g id="left" transform="translate(171.000000, 66.000000)" fill="#000000" opacity="1">
                <rect id="Rectangle" x="1" y="0" width="1685" height="1019"></rect>
            </g>
            <g id="Group-9" transform="translate(991.000000, 697.000000)">
                <path d="M18.5,-0.5 L37.5,-0.5 C47.9934102,-0.5 56.5,8.00658975 56.5,18.5 C56.5,28.9934102 47.9934102,37.5 37.5,37.5 L18.5,37.5 C8.00658975,37.5 -0.5,28.9934102 -0.5,18.5 C-0.5,8.00658975 8.00658975,-0.5 18.5,-0.5 Z" id="Rectangle-3-Copy-8" stroke-opacity="1" stroke="#525C69" fill="#FFFFFF"></path>
                <path d="M24.077904,19.6913799 C23.8239394,20.8852057 22.8850923,21.824047 21.691272,22.0779291 C19.4151847,22.561991 17.4379553,20.5841867 17.9221145,18.308592 C18.1510763,17.2325476 19.2323767,16.1511708 20.3084244,15.9221647 C22.5840774,15.4378101 24.5620771,17.4151746 24.077904,19.6913799 M28.4145333,17.8349653 L26.8296133,17.57054 L26.8296133,17.57054 C26.7170133,17.1101933 26.554,16.6696867 26.3424133,16.2579133 C26.33352,16.2405893 26.3355867,16.219748 26.3478133,16.2045907 L27.3423333,14.9714347 C27.5581333,14.7055427 27.5483333,14.322992 27.3208267,14.0663907 L26.6904667,13.35694 C26.4619733,13.1005947 26.0830667,13.0463867 25.79404,13.228988 L24.4386133,14.08106 L24.4386133,14.08106 C23.8510133,13.67052 23.18652,13.365788 22.4700133,13.1862373 C22.4510133,13.181464 22.4366,13.165956 22.43336,13.1466053 L22.1735067,11.584968 C22.1178533,11.2475667 21.82588,11 21.4831467,11 L20.5332133,11 C20.1911733,11 19.8982,11.2475667 19.8437867,11.584968 L19.5824933,13.147188 C19.5792533,13.1664907 19.5648667,13.181952 19.5458933,13.1867027 C18.96604,13.3320253 18.4214,13.5613827 17.92248,13.861248 C17.9056667,13.8713547 17.8845467,13.8706093 17.8685733,13.8592 L16.6058133,12.957996 C16.3280133,12.7595147 15.9464267,12.7905533 15.7039867,13.0324853 L15.0328933,13.7040747 C14.79096,13.9465187 14.75992,14.3281147 14.9589333,14.6059293 L15.8622533,15.8712173 C15.87364,15.887168 15.8744267,15.9082867 15.8643467,15.9250987 C15.5674,16.420164 15.3404267,16.9615653 15.1952533,17.536148 C15.1904533,17.5551253 15.175,17.5694693 15.15572,17.5726827 L13.5849333,17.8349893 C13.2480533,17.8906173 13,18.1826347 13,18.525392 L13,19.474608 C13,19.8173413 13.2480533,20.1093827 13.5849333,20.1650107 L15.1556667,20.4272947 C15.1749733,20.4305307 15.1904533,20.4448987 15.1952267,20.4638987 C15.31332,20.933 15.4815333,21.3817267 15.7026667,21.7994387 C15.71188,21.816856 15.7099333,21.8380213 15.6975467,21.8533667 L14.7079333,23.0790467 C14.49288,23.344684 14.5019067,23.7274907 14.7294267,23.9838587 L15.3592933,24.693332 C15.5878,24.950144 15.96692,25.0033733 16.2559733,24.8212373 L17.6037467,23.974568 C17.6202667,23.9641827 17.64132,23.9646027 17.65748,23.9755467 C18.23272,24.3642907 18.88164,24.6505573 19.5771867,24.8212373 L19.5771867,24.8212373 L19.8438133,26.4149853 C19.8982267,26.7524093 20.1911733,27 20.5332133,27 L21.4831467,27 C21.8258933,27 22.1178533,26.7524333 22.1735067,26.4150093 L22.4338,24.853068 C22.43704,24.8337413 22.4514533,24.8182573 22.4704533,24.8135067 C23.0428133,24.6701867 23.5803733,24.44488 24.0745867,24.1503013 C24.0914,24.140288 24.11244,24.14108 24.1283467,24.1524427 L25.44492,25.0927653 C25.72224,25.2919693 26.1040933,25.26072 26.34628,25.01802 L27.0176667,24.3466413 C27.2593067,24.1049413 27.2920267,23.7235547 27.09136,23.445228 L26.15412,22.1311347 C26.1427333,22.115184 26.14196,22.094088 26.15204,22.0772987 C26.4498667,21.5805587 26.6780533,21.0381093 26.8224267,20.4609413 C26.8271733,20.4419413 26.8426533,20.427528 26.86196,20.4242907 L28.4150667,20.1649653 C28.7529467,20.1093133 29,19.8172947 29,19.4745613 L29,18.5253453 C28.9994933,18.1826347 28.75244,17.8906173 28.4145333,17.8349653" id="Icon" fill="#525C69" opacity="1"></path>
            </g>
        </g>
    </g>
</svg>