<svg width="15px" height="14px" viewBox="0 0 15 14" version="1.1" xmlns="http://www.w3.org/2000/svg" xmlns:xlink="http://www.w3.org/1999/xlink">
    <g id="Page-1" stroke="none" stroke-width="1" fill="none" fill-rule="evenodd">
        <g id="01_Редактирование" transform="translate(-235.000000, -53.000000)" fill="#525C68" fill-rule="nonzero">
            <g id="Group-11-Copy" transform="translate(198.000000, 47.000000)">
                <g id="pencil" transform="translate(12.000000, 3.000000)">
                    <path d="M29.9019053,7.42647705 L29.9390726,7.72405466 C29.9390726,8.37842282 30.4715102,8.86299621 31.2485549,9.15887121 C31.8217604,9.36984883 32.1903081,9.96075493 32.1487217,10.5936878 L31.7801739,15.3406841 C31.739402,16.268648 32.4557083,17.0499403 33.3558751,17.0499403 L33.396647,17.0499403 C34.2968138,17.0499403 35.013116,16.2694919 34.9723482,15.3406841 L34.6053968,10.5936878 C34.5646249,9.96075493 34.9331767,9.36984883 35.5055635,9.15887121 C36.2834268,8.86384012 36.8150459,8.39901424 36.8150459,7.72405466 L36.7778786,7.42647705 L29.9019053,7.42647705 Z M33.3775279,16.3956565 C33.0089802,16.3956565 32.7227867,16.0791901 32.7227867,15.720697 C32.7227867,15.3407685 33.0297734,15.0457374 33.3775279,15.0457374 C33.7252824,15.0457374 34.032269,15.3622038 34.032269,15.720697 C34.032269,16.0791901 33.7460756,16.3956565 33.3775279,16.3956565 Z M36.7815488,6.40751182 L29.9046382,6.40751182 L29.8775606,2.00613937 C29.8775606,1.26771772 30.0206614,1.14079359 30.1845473,1.14079359 C31.0501741,1.14465133 31.5594189,1.1465802 31.7122816,1.1465802 C31.7284196,1.1465802 31.7429503,1.1465802 31.7558738,1.1465802 C31.8381354,1.1465802 32.0927165,2.99517055 32.1183727,3.07470684 C32.1354768,3.12773104 32.1494914,3.12773104 32.1604165,3.07470684 C32.3469269,1.79815412 32.456771,1.15987776 32.489949,1.15987776 C32.5017078,1.15987776 32.5133281,1.15987776 32.5248099,1.15987776 C33.0856863,1.15987776 33.7606609,1.16426492 34.5497336,1.17303924 C34.5497336,1.17303924 34.5705186,1.17303924 34.5705186,1.19446613 L35.1288217,3.38144319 C35.1288217,3.40287007 35.1496067,3.40287007 35.1695936,3.38144319 L35.5483761,1.14085946 C35.5483761,1.14085946 35.669407,1.12969468 35.5691611,1.11943257 L36.61214,1.14079359 C36.7336555,1.14161767 36.8775606,1.28913617 36.8775606,1.45808282 L36.7815488,6.40751182 Z" id="Shape" transform="translate(33.377561, 9.084686) rotate(-135.000000) translate(-33.377561, -9.084686) "></path>
                </g>
            </g>
        </g>
    </g>
</svg>