<svg width="12px" height="12px" viewBox="0 0 12 12" version="1.1" xmlns="http://www.w3.org/2000/svg" xmlns:xlink="http://www.w3.org/1999/xlink">
    <g id="Page-1" stroke="none" stroke-width="1" fill="none" fill-rule="evenodd">
        <g id="01_Редактирование" transform="translate(-210.000000, -53.000000)" fill="#525C68" fill-rule="nonzero">
            <g id="Group-11-Copy" transform="translate(198.000000, 47.000000)">
                <g id="pencil" transform="translate(12.000000, 3.000000)">
                    <path d="M0.96990319,10.9544185 L0,14.401212 L3.55590757,13.3803889 C3.33404222,12.8251193 3.01033703,12.3171325 2.59570341,11.8855256 C2.1349994,11.4539187 1.57730506,11.1362754 0.971115569,10.9544185 L0.96990319,10.9544185 Z M8.83824282,3.00121238 L1.88282457,9.95420587 C2.45991697,10.2306283 2.9945761,10.5846429 3.4734658,11.0089756 C3.86748897,11.4672548 4.19604368,11.976454 4.45064326,12.5244493 C4.87982542,12.0928424 9.28076115,7.69311906 11.3999996,5.57388059 C11.1308515,4.97739013 10.7635007,4.43060721 10.3149204,3.95656702 C9.88452588,3.54920768 9.3813886,3.22671487 8.83581806,3.00363714 L8.83824282,3 L8.83824282,3.00121238 Z" id="Shape"></path>
                </g>
            </g>
        </g>
    </g>
</svg>