<?xml version="1.0" encoding="UTF-8"?>
<svg width="20px" height="14px" viewBox="0 0 20 14" version="1.1" xmlns="http://www.w3.org/2000/svg" xmlns:xlink="http://www.w3.org/1999/xlink">
    <!-- Generator: Sketch 53.2 (72643) - https://sketchapp.com -->
    <title>Textcolor</title>
    <desc>Created with Sketch.</desc>
    <g id="Редактор-финал" stroke="none" stroke-width="1" fill="none" fill-rule="evenodd">
        <g id="01_Редактирование" transform="translate(-1267.000000, -1482.000000)" fill="#80868E">
            <g id="Textcolor" transform="translate(1266.456055, 1481.875977)">
                <path d="M9.4723832,9.28660979 L16.9844794,9.01774855 L16.9667313,9.03741845 L17.6631857,8.92882057 L13.587414,4.85304886 L13.1373909,5.28608296 L14.2342998,6.38299185 C14.3413851,6.49007714 14.3413851,6.6636967 14.2342998,6.77078199 L13.7444214,7.26066046 C13.6373361,7.36774575 13.4637165,7.36774575 13.3566312,7.26066046 L10.4054906,4.30951986 C10.2984053,4.20243457 10.2984053,4.02881501 10.4054906,3.92172971 L10.8953691,3.43185125 C11.0024544,3.32476596 11.1760739,3.32476596 11.2831592,3.43185125 L12.286284,4.434976 L13.4933526,3.22790735 L19.2326029,8.96715765 C19.3932309,9.12778559 19.3932309,9.38821495 19.2326029,9.54884289 C19.1696733,9.61177257 19.0880304,9.652594 18.9999288,9.66517994 L17.970682,9.8122152 L14.420821,13.3620761 C13.6176814,14.1652158 12.3155347,14.1652158 11.512395,13.3620761 L8.89000245,10.7396836 C8.08686277,9.93654393 8.08686277,8.63439722 8.89000245,7.83125754 L10.7782059,5.94305407 L11.6002994,6.76514751 L9.88805459,8.41275299 C9.88171972,8.41884871 9.87544363,8.42500521 9.86922719,8.43122166 C9.63055617,8.66989267 9.49827484,8.97466577 9.4723832,9.28660979 L9.4723832,9.28660979 Z M19.1846249,13.6805149 C18.4155613,13.6805149 17.7921122,13.0570658 17.7921122,12.2880022 C17.7921122,11.5189387 18.9780019,9.90713839 19.1846249,9.90713839 C19.3912479,9.90713839 20.5771376,11.5189387 20.5771376,12.2880022 C20.5771376,13.0570658 19.9536884,13.6805149 19.1846249,13.6805149 Z M0.749037109,0.172546875 L10.3710313,0.172546875 L10.3710313,1.97042814 L6.59215122,1.97042814 L6.59215122,12.0585397 L4.51127013,12.0585397 L4.51127013,1.97042814 L0.749037109,1.97042814 L0.749037109,0.172546875 Z" id="Shape"></path>
            </g>
        </g>
    </g>
</svg>