
<svg width="21px" height="15px" viewBox="0 0 21 15" version="1.1" xmlns="http://www.w3.org/2000/svg" xmlns:xlink="http://www.w3.org/1999/xlink">
    <!-- Generator: Sketch 47 (45396) - http://www.bohemiancoding.com/sketch -->
    <desc>Created with Sketch.</desc>
    <defs></defs>
    <g id="Page-1" stroke="none" stroke-width="1" fill="none" fill-rule="evenodd">
        <g id="%u0420%u0435%u0434%u0430%u043A%u0442%u0438%u0440%u043E%u0432%u0430%u043D%u0438%u0435-Copy" transform="translate(-1091.000000, -26.000000)" fill="#525C6A">
            <path d="M1107.34485,27.6082096 C1103.09303,25.0172173 1097.64811,26.0966873 1094.66339,29.9362709 C1094.54579,30.0855733 1094.341,30.129175 1094.17848,30.0300804 L1092.40139,28.9479679 C1092.17017,28.8052717 1091.88345,29.0153522 1091.94687,29.2796043 L1092.98671,33.5644527 C1093.07523,33.9317632 1093.44386,34.1563775 1093.81117,34.0678531 L1098.0947,33.0280209 C1098.35895,32.9632791 1098.41445,32.6118238 1098.1819,32.4704489 L1096.43255,31.4041915 C1096.23569,31.2839568 1096.18416,31.006492 1096.33346,30.8294431 C1098.7844,27.9319184 1103.03489,27.1589809 1106.37768,29.1950436 C1109.79843,31.2813143 1111.04966,35.5674839 1109.42847,39.125639 C1109.35052,39.2974029 1109.40601,39.4982345 1109.56589,39.597329 L1110.70878,40.3002397 C1110.70878,40.3002397 1110.79069,40.3438413 1110.85411,40.3227012 C1110.91621,40.301561 1110.94,40.2632444 1110.97303,40.1945389 C1113.19275,35.7366053 1111.67594,30.2480884 1107.34485,27.6082096" id="Fill-1"></path>
        </g>
    </g>
</svg>