<svg width="11" height="11" viewBox="0 0 11 11" fill="none" xmlns="http://www.w3.org/2000/svg">
<path fill-rule="evenodd" clip-rule="evenodd" d="M10.7001 5.49994C10.7001 8.3719 8.3719 10.7001 5.49994 10.7001C2.62799 10.7001 0.299805 8.3719 0.299805 5.49994C0.299805 2.62799 2.62799 0.299805 5.49994 0.299805C8.3719 0.299805 10.7001 2.62799 10.7001 5.49994ZM4.84597 3.19027C4.84597 2.86041 5.10987 2.59651 5.43973 2.59651H5.52037C5.85024 2.59651 6.11413 2.86041 6.11413 3.19027V5.41138C6.11413 5.74125 5.85024 6.00515 5.52037 6.00515H5.43973C5.10987 6.00515 4.84597 5.74125 4.84597 5.41138V3.19027ZM5.4837 8.24775C5.8942 8.24775 6.2314 7.91055 6.2314 7.50005C6.2314 7.08954 5.8942 6.75234 5.4837 6.75234C5.0732 6.75234 4.736 7.08954 4.736 7.50005C4.736 7.91055 5.0732 8.24775 5.4837 8.24775Z" fill="#FF5752"/>
</svg>
