<svg width="11" height="11" viewBox="0 0 11 11" fill="none" xmlns="http://www.w3.org/2000/svg">
<path fill-rule="evenodd" clip-rule="evenodd" d="M5.71863 10.9956C3.47618 11.085 1.40437 9.80274 0.483941 7.75577C-0.436492 5.70879 -0.0208703 3.30783 1.53406 1.68943C3.089 0.0710353 5.47125 -0.44008 7.55314 0.398035C9.63503 1.23615 10.9988 3.25533 10.999 5.49976C11.0568 8.47505 8.6936 10.9347 5.71863 10.9956ZM5.66894 9.7462C3.93631 9.81528 2.33553 8.82453 1.62436 7.24293C0.913185 5.66134 1.23432 3.80624 2.43574 2.55578C3.63716 1.30533 5.4778 0.910413 7.08637 1.55798C8.69495 2.20555 9.74869 3.76567 9.74879 5.49983C9.79349 7.79869 7.96755 9.69915 5.66894 9.7462ZM4.55199 3.21078C4.55199 2.83364 4.85772 2.52792 5.23485 2.52792C5.61199 2.52792 5.91771 2.83364 5.91771 3.21078V5.25921H7.28334C7.66047 5.25921 7.9662 5.56493 7.9662 5.94207C7.9662 6.3192 7.66047 6.62493 7.28334 6.62493H5.24946L5.23485 6.62508C4.99101 6.62508 4.77702 6.49727 4.65621 6.30499C4.59012 6.19985 4.5519 6.07542 4.5519 5.94207L4.55199 5.93051V3.21078Z" fill="white"/>
</svg>
