<?xml version="1.0" encoding="UTF-8"?>
<svg width="7px" height="14px" viewBox="0 0 7 14" version="1.1" xmlns="http://www.w3.org/2000/svg" xmlns:xlink="http://www.w3.org/1999/xlink">
    <g id="Symbols" stroke="none" stroke-width="1" fill="none" fill-rule="evenodd">
        <g id="Parts-/-&lt;-/-&lt;-center" transform="translate(-1.000000, -19.000000)" fill="#F4F6F8" stroke="#0DBEF7">
            <g id="&lt;" transform="translate(2.000000, 0.000000)">
                <path d="M12.0184061,0.5 L8.01840609,0.5 C7.32805015,0.5 6.70305015,0.779822031 6.25063914,1.23223305 C5.79822812,1.68464406 5.51840609,2.30964406 5.51840609,3 L5.51751288,20.4892791 L0.540698765,25.2475955 C0.248676624,25.5482512 0.108113404,25.9392362 0.116887759,26.3268406 C0.125575656,26.7106258 0.280672654,27.0910966 0.580119497,27.3772862 L5.51751325,32.0957877 L5.51840609,49.0000264 C5.51840609,49.6903559 5.79822812,50.3153559 6.25063914,50.767767 C6.70305015,51.220178 7.32805015,51.5 8.01840609,51.5 L12.0184061,51.5 C12.708762,51.5 13.333762,51.220178 13.786173,50.767767 C14.2385841,50.3153559 14.5184061,49.6903559 14.5184061,49 L14.5184061,3 C14.5184061,2.30964406 14.2385841,1.68464406 13.786173,1.23223305 C13.333762,0.779822031 12.708762,0.5 12.0184061,0.5 Z" id="Combined-Shape"></path>
            </g>
        </g>
    </g>
</svg>