<svg width="15" height="11" viewBox="0 0 15 11" fill="none" xmlns="http://www.w3.org/2000/svg">
	<path fill-rule="evenodd" clip-rule="evenodd" d="M10.5958 0H0.764648V5H10.5958C10.7653 5 10.9533 4.86938 11.013 4.70826L12.0204 2.64468C12.0495 2.56632 12.0502 2.43443 12.0204 2.35425L11.013 0.291608C10.9534 0.130861 10.7665 0 10.5958 0ZM3.62164 10.104V6.89529H11.7378C11.9214 6.89529 12.1248 6.75385 12.1895 6.57938L12.9717 5.10405H13.4528C13.6234 5.10405 13.8103 5.23491 13.8699 5.39566L14.9505 7.4583C14.9802 7.53848 14.9795 7.67037 14.9505 7.74873L13.8699 9.81231C13.8102 9.97343 13.6223 10.104 13.4528 10.104H3.62164Z" fill="#525C69"/>
</svg>
