<svg width="13" height="12" viewBox="0 0 13 12" fill="none" xmlns="http://www.w3.org/2000/svg">
	<path fill-rule="evenodd" clip-rule="evenodd" d="M1.89084 7.2994V1.804C1.89084 1.71136 1.9669 1.63554 2.05984 1.63554H7.57305C7.666 1.63554 7.7421 1.71136 7.7421 1.804V2.06897H9.38294V0.551724C9.38294 0.248276 9.13382 0 8.82943 0H0.803512C0.49908 0 0.25 0.248276 0.25 0.551724V8.55172C0.25 8.85513 0.49908 9.10345 0.803512 9.10345H2.23342V7.46786H2.05984C1.9669 7.46786 1.89084 7.39209 1.89084 7.2994ZM10.7272 10.2651C10.7272 10.3632 10.6467 10.4434 10.5483 10.4434H4.71147C4.61305 10.4434 4.5325 10.3632 4.5325 10.2651V4.44706C4.5325 4.34896 4.61305 4.26867 4.71147 4.26867H10.5483C10.6467 4.26867 10.7272 4.34896 10.7272 4.44706V10.2651ZM11.7193 2.63173H3.45987C3.14658 2.63173 2.89026 2.88723 2.89026 3.1995V11.4322C2.89026 11.7445 3.14658 12 3.45987 12H11.7193C12.0325 12 12.2889 11.7445 12.2889 11.4322V3.1995C12.2889 2.88723 12.0325 2.63173 11.7193 2.63173Z" fill="#525C69"/>
</svg>
