<svg width="14" height="14" viewBox="0 0 14 14" fill="none" xmlns="http://www.w3.org/2000/svg">
<path d="M8.53704 0.199475C8.57921 0.0814374 8.74617 0.0815308 8.78821 0.199615L8.95019 0.654624C8.96361 0.692325 8.99326 0.722004 9.03094 0.735468L9.48577 0.89796C9.60381 0.94013 9.60371 1.10709 9.48563 1.14913L9.03062 1.31111C8.99292 1.32454 8.96324 1.35418 8.94978 1.39187L8.78729 1.84669C8.74512 1.96473 8.57815 1.96464 8.53611 1.84655L8.37413 1.39155C8.36071 1.35384 8.33106 1.32417 8.29338 1.3107L7.83855 1.14821C7.72051 1.10604 7.72061 0.939075 7.83869 0.897037L8.2937 0.735054C8.3314 0.721633 8.36108 0.691987 8.37454 0.654302L8.53704 0.199475Z" fill="white"/>
<path d="M3.06736 0.623477C3.10953 0.50544 3.27649 0.505533 3.31853 0.623618L3.88127 2.20434C3.89469 2.24204 3.92433 2.27172 3.96202 2.28519L5.54211 2.84969C5.66015 2.89186 5.66006 3.05883 5.54197 3.10087L3.96125 3.6636C3.92355 3.67702 3.89387 3.70667 3.8804 3.74436L3.3159 5.32445C3.27373 5.44249 3.10676 5.44239 3.06472 5.32431L2.50199 3.74358C2.48857 3.70588 2.45892 3.6762 2.42123 3.66274L0.841142 3.09823C0.723105 3.05606 0.723198 2.8891 0.841282 2.84706L2.42201 2.28432C2.45971 2.2709 2.48939 2.24126 2.50285 2.20357L3.06736 0.623477Z" fill="white"/>
<path fill-rule="evenodd" clip-rule="evenodd" d="M3.45798 12.057L3.46095 6.75943C5.30711 6.36033 6.75941 4.90267 7.15038 3.05318L12.4689 3.05616C13.132 3.05653 13.6693 3.59444 13.669 4.25761L13.6646 12.0627C13.6642 12.7258 13.1263 13.2632 12.4632 13.2628L4.65809 13.2584C3.99492 13.258 3.45761 12.7201 3.45798 12.057ZM4.68998 11.8488C4.68993 11.947 4.76948 12.0266 4.86766 12.0267L12.2903 12.0308C12.3884 12.0309 12.4681 11.9513 12.4681 11.8532L12.4683 11.499C12.4684 11.4562 12.453 11.4149 12.425 11.3825L10.5299 9.19317C10.4591 9.11133 10.3322 9.11125 10.2612 9.19301L9.49215 10.0794C9.42122 10.1612 9.2943 10.1611 9.22346 10.0793L6.90084 7.39628C6.83 7.31445 6.70309 7.31438 6.63215 7.39613L4.73469 9.58305C4.70665 9.61536 4.69121 9.65669 4.69119 9.69946L4.68998 11.8488ZM10.6437 4.78901C10.6859 4.67098 10.8529 4.67107 10.8949 4.78916L11.1616 5.53826C11.175 5.57596 11.2047 5.60564 11.2424 5.6191L11.9912 5.88662C12.1092 5.92879 12.1091 6.09576 11.991 6.13779L11.2419 6.40447C11.2042 6.4179 11.1745 6.44754 11.1611 6.48523L10.8935 7.23403C10.8514 7.35207 10.6844 7.35198 10.6424 7.23389L10.3757 6.48479C10.3623 6.44709 10.3326 6.41741 10.2949 6.40394L9.54614 6.13642C9.4281 6.09425 9.42819 5.92729 9.54628 5.88525L10.2954 5.61857C10.3331 5.60515 10.3628 5.5755 10.3762 5.53782L10.6437 4.78901Z" fill="white"/>
</svg>
