<svg width="13" height="12" viewBox="0 0 13 12" fill="none" xmlns="http://www.w3.org/2000/svg">
<path fill-rule="evenodd" clip-rule="evenodd" d="M8.72019 10.2353H10.8447V7.94118V1.76471H2.34667V7.94118V10.2353H4.47118H8.72019ZM1.6385 4.58558e-06H11.5529C12.1395 4.58558e-06 12.6151 0.474056 12.6151 1.05883V10.9412C12.6151 11.526 12.1395 12 11.5529 12H1.6385C1.05184 12 0.57625 11.526 0.57625 10.9412V1.05883C0.57625 0.474056 1.05184 4.58558e-06 1.6385 4.58558e-06ZM4.93633 5.36357L5.92776 6.3871L8.40635 3.88122L9.11452 4.94004L5.92776 8.11651L4.15734 6.35181L4.93633 5.36357Z" fill="#525C69"/>
</svg>
