<svg xmlns="http://www.w3.org/2000/svg" width="100" height="900" viewBox="0 0 100 900">
  <g fill="none" fill-rule="evenodd">
    <rect width="100" height="900" fill="#7B8691" opacity="0"/>
    <path fill="#FFFFFF" d="M39.838 838L56.693 838 56.693 866.991 62.675 866.991 62.675 873 39.838 873 39.838 866.991 44.816 866.991 44.816 844.012 39.838 844.012 39.838 838zM50 818C53.8659932 818 57 821.134007 57 825 57 828.865993 53.8659932 832 50 832 46.1340068 832 43 828.865993 43 825 43 821.134007 46.1340068 818 50 818zM25 741L75 741 75 771 25 771 25 741zM25 733.75L75 733.75 75 737.438 25 737.438 25 733.75zM25 729L45.3445296 729 52 733.75 25 733.75 25 729zM82.642 657.774C82.7020643 651.938414 78.8786599 646.77302 73.28 645.126 73.28 645.013 73.288 644.902 73.288 644.788 73.4077247 637.34429 67.4726436 631.211805 60.029 631.088 58.5282721 631.087748 57.0391003 631.350384 55.629 631.864 53.6217228 626.640088 48.6250616 623.17415 43.029 623.124 35.3802864 623.249448 29.2812677 629.551275 29.406 637.2 29.406 637.285 29.406 637.368 29.412 637.453 22.7042741 640.018969 18.2969099 646.482492 18.358 653.664 18.358 663.171 25.817 670.879 35.017 670.879 35.203 670.879 35.387 670.871 35.571 670.864L35.571 670.879 70.035 670.879C77.1252554 670.718841 82.756512 664.86514 82.642 657.774zM73.681 545.115C73.681 545.002 73.689 544.889 73.689 544.776 73.689 537.176 67.778 531.008 60.489 531.008 58.9937859 531.007792 57.5103024 531.271853 56.107 531.788 54.1340202 526.552159 49.1508821 523.063049 43.556 523 36.066 523 30 529.336 30 537.147 30 537.232 30 537.316 30.006 537.401 23.3012037 540.009526 18.9148011 546.500095 18.995 553.694 18.995 563.248 26.421 570.994 35.583 570.994 35.768 570.994 35.951 570.985 36.135 570.979L36.135 570.994 70.45 570.994C77.5410774 570.798216 83.145578 564.917286 83 557.825 83.0769068 551.983809 79.274908 546.798338 73.681 545.115zM50.8 562.141C45.8049175 562.340146 41.1899551 559.484111 39.139682 554.924847 37.089409 550.365583 38.0152101 545.017901 41.478842 541.413214 44.9424739 537.808528 50.2489631 536.670114 54.8863945 538.53686 59.5238259 540.403605 62.5617045 544.900949 62.562 549.9 62.6908735 556.526916 57.4267814 562.005385 50.8 562.141zM56.415 549.911L51.625 549.911 51.625 544.011C51.6597735 543.470704 51.3912613 542.955884 50.9282895 542.675195 50.4653178 542.394506 49.8846822 542.394506 49.4217105 542.675195 48.9587387 542.955884 48.6902265 543.470704 48.725 544.011L48.725 551.418C48.7088224 552.236165 49.3588396 552.912595 50.177 552.929L56.415 552.929C57.2114482 552.877705 57.8308778 552.21622 57.82982 551.418122 57.8287622 550.620025 57.2075814 549.960184 56.411 549.911L56.415 549.911zM61.583 443.132C61.583 443.132 61.156 444.501 61.088 444.684 60.9324703 444.920387 60.8014589 445.172023 60.697 445.435 60.785 445.435 61.697 445.868 61.697 445.868L65.228 447 65.177 448.711C64.5058805 448.984956 63.9173587 449.428414 63.469 449.998 63.2990577 450.377334 63.0906324 450.738225 62.847 451.075 66.064 452.409 67.947 454.362 68.023 456.547 68.075 456.936 70.023 464.097 70.139 465.709L85.0002308 465.709C85.012 465.642 84.552 456.379 84.547 456.309 84.547 456.309 83.694 454.078 82.342 453.851 80.9992246 453.676821 79.7031537 453.243099 78.526 452.574 77.7483823 452.113271 76.9278658 451.729135 76.076 451.427 75.639414 451.034327 75.3013098 450.54447 75.089 449.997 74.6411971 449.427086 74.052486 448.983829 73.381 448.711L73.331 447 76.863 445.872C76.863 445.872 77.774 445.439 77.863 445.439 77.7217039 445.137395 77.5589528 444.846314 77.376 444.568 77.309 444.386 76.976 443.138 76.976 443.138 77.4909353 443.811015 78.0967035 444.40938 78.776 444.916 78.174376 443.767095 77.6596042 442.574763 77.236 441.349 76.9527011 440.214198 76.7558041 439.059558 76.647 437.895 76.4042665 435.730866 76.0265304 433.584015 75.516 431.467 75.1530642 430.415074 74.5066288 429.483833 73.648 428.776 72.3891784 427.882648 70.9118526 427.347009 69.373 427.226 69.344 427.226 69.316 427.226 69.286 427.226 69.256 427.226 69.228 427.226 69.196 427.226 67.6570515 427.346566 66.1796111 427.882246 64.921 428.776 64.0635451 429.484704 63.4176349 430.415687 63.054 431.467 62.5422957 433.583819 62.1642162 435.730723 61.922 437.895 61.8286901 439.085645 61.641102 440.267015 61.361 441.428 60.9370473 442.632088 60.4128777 443.798508 59.794 444.915 60.4695539 444.405838 61.0715718 443.80584 61.583 443.132zM68 469C68 466.263 66.31 456.682 66.31 456.682 66.31 454.99 64.144 453.056 59.876 451.93 58.4265209 451.516988 57.05104 450.878516 55.8 450.038 55.5995212 449.51664 55.5201889 448.956527 55.568 448.4L54.2 448.186C54.2 448.066 54.083 446.293 54.083 446.293 55.727 445.729 55.558 442.401 55.558 442.401 56.602 442.992 57.282 440.362 57.282 440.362 58.517 436.705 56.667 436.925 56.667 436.925 56.9905655 434.690989 56.9905655 432.422011 56.667 430.188 55.845 422.779 43.461 424.788 44.93 427.21 41.311 426.526 42.137 434.938 42.137 434.938L42.922 437.113C41.381 438.132 42.452 439.368 42.504 440.79 42.58 442.89 43.835 442.454 43.835 442.454 43.913 445.917 45.584 446.372 45.584 446.372 45.898 448.547 45.703 448.172 45.703 448.172L44.215 448.356C44.2353345 448.850249 44.1960515 449.345148 44.098 449.83 42.344 450.63 41.971 451.094 40.232 451.871 36.866 453.379 33.648 455.368 33 458 32.352 460.632 32 469 32 469L68 469zM38.417 443.132C38.417 443.132 38.844 444.501 38.912 444.684 39.0675057 444.920401 39.1985158 445.172035 39.303 445.435 39.215 445.435 38.303 445.868 38.303 445.868L34.772 447 34.823 448.711C35.4941195 448.984956 36.0826413 449.428414 36.531 449.998 36.700892 450.377359 36.9093202 450.738255 37.153 451.075 33.936 452.409 32.053 454.362 31.978 456.547 31.925 456.936 29.978 464.097 29.862 465.709L14.9997692 465.709C14.988 465.642 15.448 456.379 15.452 456.309 15.452 456.309 16.305 454.078 17.657 453.851 18.9997754 453.676821 20.2958463 453.243099 21.473 452.574 22.2506295 452.113293 23.0711438 451.729158 23.923 451.427 24.3596143 451.034352 24.6977235 450.544488 24.91 449.997 25.3578354 449.427119 25.9465369 448.98387 26.618 448.711L26.669 447 23.137 445.872C23.137 445.872 22.226 445.439 22.137 445.439 22.2780042 445.137439 22.4404194 444.846362 22.623 444.568 22.69 444.386 23.023 443.138 23.023 443.138 22.5080841 443.811032 21.9023134 444.409399 21.223 444.916 21.8246105 443.767088 22.3393818 442.574757 22.763 441.349 23.0462838 440.214194 23.2431807 439.059556 23.352 437.895 23.5947335 435.730866 23.9724696 433.584015 24.483 431.467 24.8459825 430.415098 25.4924098 429.483869 26.351 428.776 27.6098216 427.882648 29.0871474 427.347009 30.626 427.226 30.655 427.226 30.683 427.226 30.713 427.226 30.743 427.226 30.771 427.226 30.803 427.226 32.3419485 427.346566 33.8193889 427.882246 35.078 428.776 35.9354549 429.484704 36.5813651 430.415687 36.945 431.467 37.4567043 433.583819 37.8347838 435.730723 38.077 437.895 38.1702598 439.085651 38.3578485 440.267025 38.638 441.428 39.0620007 442.632069 39.5861685 443.798485 40.205 444.915 39.5297994 444.405767 38.9281213 443.805772 38.417 443.132zM55.029 342.708C55.029 342.708 54.555 344.2 54.48 344.4 54.3079773 344.656379 54.1628752 344.929827 54.047 345.216 54.147 345.216 55.154 345.687 55.154 345.687L59.071 346.913 59.014 348.773C58.2727415 349.068961 57.6203829 349.551169 57.12 350.173 56.9311406 350.586158 56.6999012 350.978595 56.43 351.344 59.998 352.794 62.085 354.916 62.17 357.292 62.228 357.715 64.393 365.498 64.517 367.251L81 367.251C81.014 367.178 80.5 357.109 80.5 357.034 80.5 357.034 79.554 354.609 78.054 354.362 76.5673417 354.173754 75.1304746 353.702605 73.821 352.974 72.9562051 352.470457 72.0450159 352.051196 71.1 351.722 70.6172891 351.297442 70.2420399 350.764554 70.005 350.167 69.5053463 349.54441 68.8527705 349.062041 68.111 348.767L68.055 346.906 71.972 345.68C71.972 345.68 72.982 345.209 73.079 345.209 72.9221071 344.880706 72.7416347 344.564211 72.539 344.262 72.465 344.062 72.096 342.708 72.096 342.708 72.6675884 343.441196 73.3379552 344.091707 74.088 344.641 73.421409 343.393735 72.8504361 342.09768 72.38 340.764 72.0660261 339.531341 71.8477105 338.276277 71.727 337.01 71.4573873 334.656724 71.0382059 332.323002 70.472 330.023 70.0656156 328.875448 69.3482471 327.863446 68.4 327.1 66.9974486 326.126346 65.3604512 325.544663 63.658 325.415 63.626 325.415 63.595 325.415 63.558 325.415 63.521 325.415 63.493 325.415 63.458 325.415 61.7585578 325.545758 60.1247423 326.127414 58.725 327.1 57.7776682 327.86492 57.0608146 328.877376 56.654 330.025 56.0871982 332.324826 55.6683401 334.658607 55.4 337.012 55.2965318 338.307005 55.0885207 339.591524 54.778 340.853 54.3073399 342.163551 53.7262528 343.431773 53.041 344.644 53.7896419 344.093275 54.4586298 343.441785 55.029 342.708zM60.271 357.437C60.271 355.597 57.871 353.496 53.136 352.272 51.5329103 351.824345 50.0090796 351.130407 48.619 350.215 48.319 350.041 48.361 348.435 48.361 348.435L46.836 348.2C46.836 348.069 46.706 346.143 46.706 346.143 48.53 345.53 48.342 341.913 48.342 341.913 49.5 342.558 50.254 339.7 50.254 339.7 51.624 335.724 49.572 335.964 49.572 335.964 49.9309534 333.536196 49.9309534 331.068804 49.572 328.641 48.66 320.587 34.926 322.773 36.554 325.4 32.54 324.656 33.454 333.8 33.454 333.8L34.325 336.164C32.615 337.272 33.803 338.615 33.861 340.164 33.945 342.445 35.337 341.972 35.337 341.972 35.423 345.736 37.276 346.231 37.276 346.231 37.625 348.595 37.408 348.193 37.408 348.193L35.757 348.393C35.7792806 348.929643 35.735621 349.466993 35.627 349.993 33.682 350.859 33.268 351.367 31.34 352.212 27.614 353.846 23.563 355.972 22.84 358.833 22.117 361.694 21 371 21 371L63 371 60.271 357.437zM71.382 264.54C71.482658 262.381766 70.9336719 260.24295 69.806 258.4 68.851 256.641 65.8 254.489 64.863 252.549 61.907 246.425 64.431 233.777 50.051 233.777 34.766 233.777 37.969 246.019 34.858 252.227 33.658 254.611 30.693 256.341 29.618 258.452 28.6861719 260.297412 28.3453884 262.38506 28.642 264.431L71.382 264.54zM53.026 221.654L53.088 229.929 46.976 229.929 46.957 221.654 53.026 221.654zM53.088 265.451L53.088 273.221 46.976 273.221 46.976 265.451 53.088 265.451zM72.168 129.243C74.128 131.2 74.454 137.109 73.418 137.154 72.382 137.199 60.888 142.479 59.852 142.525 58.816 142.571 55.283 139.044 54.252 138.012 53.221 136.98 44.259 144.912 44.09 145.061 43.938 145.23 36 154.183 37.025 155.2 38.05 156.217 41.591 159.758 41.546 160.792 41.501 161.826 36.211 173.3 36.166 174.338 36.121 175.376 30.2 175.047 28.24 173.09 26.565 171.418 20.484 162.757 31.34 147.698 32.292 146.047 34.474 143.431 38.445 139.465L38.452 139.458 38.461 139.449 38.47 139.44 38.477 139.433C42.45 135.469 45.071 133.291 46.725 132.341 61.816 121.5 70.493 127.571 72.168 129.243zM72.785 62.259C72.785 59.948 69.756 57.308 63.785 55.77 61.7628527 55.2084846 59.8400073 54.3367947 58.085 53.186 57.702 52.968 57.76 50.95 57.76 50.95L55.838 50.658C55.838 50.494 55.674 48.074 55.674 48.074 57.974 47.304 57.737 42.76 57.737 42.76 59.197 43.567 60.148 39.976 60.148 39.976 61.876 34.982 59.288 35.283 59.288 35.283 60.11 31.545 59.288 26.083 59.288 26.083 58.138 15.967 40.818 18.713 42.871 22.018 37.809 21.084 38.964 32.569 38.964 32.569L40.064 35.538C37.908 36.93 39.406 38.617 39.479 40.558 39.585 43.423 41.34 42.83 41.34 42.83 41.449 47.558 43.786 48.18 43.786 48.18 44.226 51.149 43.952 50.644 43.952 50.644L41.87 50.894C41.898257 51.5691898 41.8431749 52.2452881 41.706 52.907 39.257 54 38.735 54.634 36.3 55.7 31.6 57.753 26.492 60.423 25.585 64.017 24.678 67.611 23 76 23 76L76 76 72.785 62.259z"/>
  </g>
</svg>
