<svg width="100" height="2200" viewBox="0 0 100 2200" version="1.1" xmlns="http://www.w3.org/2000/svg" xmlns:xlink="http://www.w3.org/1999/xlink">
    <defs>
        <polygon id="basis" fill="#E5E8EB" points="0 0 54 0 75 22.227 75 98 0 98"/>
        <polygon id="corner" fill="#535C69" points="54 0 75 22.227 54 22.227" opacity=".3"/>
        <polygon id="textbox" points="30 44.454 85 44.454 85 72.742 30 72.742"/>
    </defs>
    <g fill="none" fill-rule="evenodd">
         <g fill-rule="nonzero" transform="translate(0 2108)">
             <polygon fill="#86E0FB" points="0 15.83 99.795 15.83 99.795 82.693 0 82.693"/>
             <polygon fill="#2FC7F7" points="0 9.143 99.795 9.143 99.795 15.829 0 15.829"/>
             <polygon fill="#2FC7F7" points="0 .818 49.887 .818 60.975 11.96 0 11.96"/>
             <path fill="#3EAFD2" d="M96.967,70.155 C93.415,67.75 90.537,66.823 87.819,66.645 C83.882,66.388 77.469,69.78 74.344,69.835 C71.221,69.889 65.03,64.073 66.469,65.252 C67.909,66.43 57.524,58.622 57.039,57.648 C56.553,56.673 57.939,55.581 59.191,56.245 C60.441,56.909 70.294,62.447 71.851,62.967 C73.408,63.487 80.001,63.135 80.001,63.135 L80.787,62.845 C81.244,62.521 81.345,62.071 80.667,61.71 C79.752,61.225 71.352,58.956 71.352,58.956 C71.352,58.956 70.526,57.134 71.912,56.786 C73.3,56.436 86.14,57.318 88.025,57.856 C89.909,58.396 93.415,60.876 93.415,60.876 L97.56,63.168 L96.967,70.155 Z M14.79,71.116 C14.79,72.481 15.455,73.164 16.782,73.164 C18.109,73.164 18.772,72.481 18.772,71.116 L18.772,52.681 L20.812,52.681 L20.812,71.117 C20.812,72.482 21.476,73.165 22.802,73.165 C24.13,73.165 24.792,72.482 24.792,71.117 L24.792,39.71 L25.764,39.71 L25.764,51.023 C25.764,51.738 26.007,52.259 26.492,52.583 C26.942,52.909 27.548,52.909 27.997,52.583 C28.515,52.259 28.774,51.738 28.774,51.023 L28.774,38.831 C28.774,37.531 28.337,36.523 27.464,35.808 C26.59,35.093 25.376,34.735 23.824,34.735 L15.86,34.735 C14.37,34.735 13.156,35.061 12.218,35.711 C11.28,36.361 10.811,37.369 10.811,38.734 L10.811,51.707 C10.7847848,52.2494702 11.0935069,52.7526316 11.589,52.975 C12.0570068,53.2348924 12.6259932,53.2348924 13.094,52.975 C13.5688448,52.7361738 13.8558994,52.2375638 13.824,51.707 L13.824,39.71 L14.792,39.71 L14.792,71.116 L14.79,71.116 Z M15.57,28.833 C15.566127,30.5067462 16.5704515,32.0181657 18.115,32.663 C19.6573802,33.3043118 21.4345624,32.946819 22.609,31.759 C23.4057007,30.9758211 23.8444762,29.8989584 23.822,28.782 C23.8299023,27.6969161 23.3908446,26.6564145 22.608,25.905 C21.4313008,24.7223119 19.6564063,24.3682813 18.116,25.009 C16.574215,25.6533014 15.5697455,27.1600056 15.568,28.831 L15.57,28.833 Z M36.413,71.116 C36.413,72.481 37.077,73.164 38.403,73.164 C39.733,73.164 40.395,72.481 40.395,71.116 L40.395,52.681 L42.435,52.681 L42.435,71.117 C42.435,72.482 43.098,73.165 44.425,73.165 C45.753,73.165 46.415,72.482 46.415,71.117 L46.415,39.71 L47.385,39.71 L47.385,51.023 C47.385,51.738 47.629,52.259 48.115,52.583 C48.565,52.909 49.17,52.909 49.62,52.583 C50.137,52.259 50.396,51.738 50.396,51.023 L50.396,38.831 C50.396,37.531 49.959,36.523 49.086,35.808 C48.212,35.093 46.998,34.735 45.446,34.735 L37.483,34.735 C35.993,34.735 34.778,35.061 33.84,35.711 C32.902,36.361 32.433,37.369 32.433,38.734 L32.433,51.707 C32.4066152,52.2492307 32.7148985,52.7523237 33.21,52.975 C33.6780068,53.2348924 34.2469932,53.2348924 34.715,52.975 C35.1898448,52.7361738 35.4768994,52.2375638 35.445,51.707 L35.445,39.71 L36.413,39.71 L36.413,71.116 Z M37.193,28.833 C37.1889589,30.5065036 38.1928436,32.0178552 39.737,32.663 C41.2793802,33.3043118 43.0565624,32.946819 44.231,31.759 C45.028435,30.9761607 45.4679515,29.8992547 45.446,28.782 C45.4539023,27.6969161 45.0148446,26.6564145 44.232,25.905 C43.0556689,24.7231592 41.2818507,24.3691857 39.742,25.009 C38.200215,25.6533014 37.1957455,27.1600056 37.194,28.831 L37.193,28.833 Z"/>
         </g>
         <g fill-rule="nonzero" transform="translate(0 1958)">
             <polygon fill="#86E0FB" points="0 15.03 100 15.03 100 81.968 0 81.968"/>
             <polygon fill="#2FC7F7" points="0 8 100 8 100 15 0 15"/>
             <polygon fill="#2FC7F7" points="0 .002 49.99 .002 61.1 11.157 0 11.157"/>
             <path fill="#3EAFD2" d="M33.488,70.714 C33.488,72.081 34.153,72.764 35.483,72.764 C36.813,72.764 37.478,72.08 37.478,70.714 L37.478,52.257 L39.522,52.257 L39.522,70.714 C39.522,72.081 40.187,72.764 41.517,72.764 C42.847,72.764 43.511,72.08 43.51,70.714 L43.51,39.271 L44.483,39.271 L44.483,50.601 C44.483,51.315 44.727,51.837 45.213,52.161 C45.663,52.488 46.271,52.488 46.723,52.161 C47.24,51.837 47.5,51.315 47.5,50.601 L47.5,38.394 C47.5,37.092 47.062,36.084 46.187,35.366 C45.311,34.65 44.095,34.292 42.537,34.292 L34.56,34.292 C33.067,34.292 31.85,34.619 30.91,35.27 C29.97,35.922 29.5,36.93 29.5,38.296 L29.5,51.284 C29.4740792,51.8268927 29.7825771,52.3304817 30.278,52.554 C30.748,52.814 31.318,52.814 31.788,52.554 C32.261,52.314 32.548,51.816 32.518,51.284 L32.518,39.274 L33.488,39.274 L33.488,70.716 L33.488,70.714 Z M34.268,28.384 C34.2640239,30.0604527 35.2705248,31.5741512 36.818,32.219 C38.3642592,32.8607056 40.1451474,32.501681 41.322,31.311 C42.1198021,30.5283306 42.5596893,29.4514029 42.538,28.334 C42.5461654,27.2470029 42.1063501,26.2046116 41.322,25.452 C40.1422154,24.2689311 38.3649649,23.9150608 36.822,24.556 C35.2767202,25.1997929 34.2695466,26.7089759 34.268,28.383 L34.268,28.384 Z M55.155,70.714 C55.155,72.081 55.82,72.764 57.15,72.764 C58.48,72.764 59.145,72.08 59.145,70.714 L59.145,52.257 L61.188,52.257 L61.188,70.714 C61.188,72.081 61.853,72.764 63.183,72.764 C64.513,72.764 65.178,72.08 65.177,70.714 L65.177,39.271 L66.15,39.271 L66.15,50.601 C66.15,51.315 66.393,51.837 66.88,52.161 C67.33,52.488 67.938,52.488 68.388,52.161 C68.908,51.837 69.168,51.315 69.168,50.601 L69.168,38.394 C69.168,37.092 68.728,36.084 67.853,35.366 C66.978,34.65 65.763,34.292 64.205,34.292 L56.227,34.292 C54.733,34.292 53.517,34.619 52.577,35.27 C51.637,35.922 51.167,36.93 51.167,38.296 L51.167,51.284 C51.1410792,51.8268927 51.4495771,52.3304817 51.945,52.554 C52.415,52.814 52.985,52.814 53.453,52.554 C53.927,52.314 54.213,51.816 54.183,51.284 L54.183,39.274 L55.155,39.274 L55.155,70.716 L55.155,70.714 Z M55.935,28.384 C55.9310239,30.0604527 56.9375248,31.5741512 58.485,32.219 C60.0309812,32.8602521 61.8113303,32.5012566 62.988,31.311 C63.7861693,30.5285005 64.2264271,29.4515512 64.205,28.334 C64.2129046,27.2468538 63.7727182,26.2044404 62.988,25.452 C61.8082154,24.2689311 60.0309649,23.9150608 58.488,24.556 C56.9431123,25.2001031 55.9363782,26.7092184 55.935,28.383 L55.935,28.384 Z"/>
         </g>
         <g fill-rule="nonzero" transform="translate(0 1808)">
             <polygon fill="#86E0FB" points="0 15.013 100 15.013 100 81.877 0 81.877"/>
             <polygon fill="#2FC7F7" points="0 8 100 8 100 15.013 0 15.013"/>
             <polygon fill="#2FC7F7" points="0 .002 49.99 .002 61.1 11.144 0 11.144"/>
         </g>
         <g fill-rule="nonzero" transform="translate(12 1651)">
             <use xlink:href="#basis" />
             <path fill="#B9BEC4" d="M63.14,32.0862709 L10.008,32.0862709 L10.008,86.5429311 L65.008,86.5429311 L65.008,32.087261 L63.14,32.087261 L63.14,32.0862709 Z M63.008,84.5617348 L12.008,84.5617348 L12.008,34.0664771 L63.008,34.0664771 L63.008,84.5617348 Z"/>
             <use xlink:href="#corner" />
             <polygon fill="#B9BEC4" points="60.008 81.591 60.008 78.621 48.008 66.74 42.008 72.68 27.008 57.829 15.008 69.71 15.008 81.591"/>
             <ellipse cx="51.712" cy="46.785" fill="#B9BEC4" rx="5.231" ry="5.172"/>
         </g>
         <g fill-rule="nonzero" transform="translate(12 1501)">
             <use xlink:href="#basis" />
             <use xlink:href="#corner" />
             <path fill="#B9BEC4" d="M10.002,39.4343918 L10.002,79.6750103 L65,79.6750103 L65,39.4343918 L10.002,39.4343918 Z M63,77.7938144 L12,77.7938144 L12,41.4226804 L63,41.4226804 L63,77.7938144 Z M57,77.7938144 L55,77.7938144 L55,41.4226804 L57,41.4226804 L57,77.7938144 Z M57,41.4226804 L63,41.4226804 L63,44.4536082 L57,44.4536082 L57,41.4226804 Z M57,47.4845361 L63,47.4845361 L63,51.5257732 L57,51.5257732 L57,47.4845361 Z M57,54.556701 L63,54.556701 L63,58.5979381 L57,58.5979381 L57,54.556701 Z M57,61.628866 L63,61.628866 L63,65.6701031 L57,65.6701031 L57,61.628866 Z M57,68.7010309 L63,68.7010309 L63,72.742268 L57,72.742268 L57,68.7010309 Z M63,75.7731959 L63,77.7938144 L57,77.7938144 L57,75.7731959 L63,75.7731959 Z M18,41.4226804 L20,41.4226804 L20,77.7938144 L18,77.7938144 L18,41.4226804 Z M18,77.7938144 L12,77.7938144 L12,75.7731959 L18,75.7731959 L18,77.7938144 Z M18,72.742268 L12,72.742268 L12,68.7010309 L18,68.7010309 L18,72.742268 Z M18,65.6701031 L12,65.6701031 L12,61.628866 L18,61.628866 L18,65.6701031 Z M18,58.5979381 L12,58.5979381 L12,54.556701 L18,54.556701 L18,58.5979381 Z M18,51.5257732 L12,51.5257732 L12,47.4845361 L18,47.4845361 L18,51.5257732 Z M18,44.4536082 L12,44.4536082 L12,41.4226804 L18,41.4226804 L18,44.4536082 Z"/>
         </g>
         <g fill-rule="nonzero" transform="translate(12 1351)">
             <use xlink:href="#basis" />
             <path fill="#535C69" d="M75,22.2268041 L54,22.2268041 L54,0 L75,22.2268041 Z M59.608,54.9204124 L59.608,60.3215258 L54.04,60.3215258 C53.6433155,62.6596253 52.7382458,64.8797204 51.39,66.8218557 L56.977,71.7461031 L53.133,76.5612371 L46.976,71.1318351 C45.1586661,72.3477428 43.1127636,73.1721331 40.966,73.5535464 L40.966,79.226433 L35.64,79.226433 L35.64,73.5788041 C33.49,73.1989278 31.44,72.3684536 29.62,71.1419381 L23.473,76.5612371 L19.63,71.7461031 L25.223,66.8127629 C23.8862206,64.8701813 22.9883738,62.6545046 22.593,60.3225361 L17,60.3225361 L17,54.9214227 L22.568,54.9214227 C22.9661574,52.5837517 23.8710986,50.3639719 25.218,48.4210928 L19.632,43.4968454 L23.475,38.6817113 L29.635,44.1111134 C31.4509284,42.8950118 33.4960373,42.0712177 35.642,41.6914227 L35.642,36.0165155 L40.968,36.0165155 L40.968,41.6914227 C43.114848,42.0713795 45.1609055,42.8951443 46.978,44.1111134 L53.135,38.6817113 L56.979,43.4968454 L51.393,48.4210928 C52.7412458,50.363228 53.6463155,52.5833232 54.043,54.9214227 L59.611,54.9214227 L59.608,54.9204124 Z M38.303,49.519299 C35.0675401,49.5224669 32.1535107,51.4971486 30.923,54.5203299 C29.6851491,57.5469226 30.3672606,61.0284919 32.653,63.350433 C34.9338397,65.6664876 38.3741144,66.3598795 41.36,65.1053402 C44.3486194,63.8456247 46.2941535,60.893651 46.292,57.6219794 C46.292,53.1483299 42.715,49.5213196 38.302,49.519299 L38.303,49.519299 Z" opacity=".3"/>
         </g>
         <g fill-rule="nonzero" transform="translate(12 1201)">
             <use xlink:href="#basis" />
             <use xlink:href="#corner" />
             <use xlink:href="#textbox" fill="#AC5FBD"/>
             <path fill="#FFFFFF" d="M39.04,65.2710309 L49.912,65.2710309 L49.912,63.3160825 L42.745,63.3160825 L49.737,50.7983505 L39.257,50.7983505 L39.864,52.753299 L46.144,52.753299 L39.041,65.2710309 L39.04,65.2710309 Z M51.706,65.2710309 L53.979,65.2710309 L53.979,50.7983505 L51.705,50.7983505 L51.705,65.2710309 L51.706,65.2710309 Z M56.988,65.2710309 L59.262,65.2710309 L59.262,60.1760412 L59.976,60.1760412 C61.256,60.1760412 62.208,59.9780206 62.966,59.6506804 C64.87,58.8363711 65.586,57.1683505 65.586,55.4760825 C65.586,53.5665979 64.762,52.1824742 63.356,51.436866 C62.532,50.9973814 61.536,50.8003711 60.173,50.8003711 L56.988,50.8003711 L56.988,65.2710309 Z M59.262,58.2877732 L59.262,52.6876289 L60.108,52.6876289 C60.952,52.6876289 61.558,52.8411959 62.013,53.1048866 C62.813,53.5878144 63.203,54.4445567 63.203,55.4760825 C63.203,56.6399588 62.793,57.496701 61.926,57.9149691 C61.493,58.1574433 60.909,58.2887835 60.129,58.2887835 L59.261,58.2887835 L59.262,58.2877732 Z"/>
             <path fill="#B9BEC4" d="M26,2.02061856 L26,5.05154639 L21,5.05154639 L21,2.02061856 L26,2.02061856 Z M26,6.06185567 L26,8.08247423 L21,8.08247423 L21,6.06185567 L26,6.06185567 Z M21,9.09278351 L26,9.09278351 L26,11.1134021 L21,11.1134021 L21,9.09278351 Z M21,12.1237113 L26,12.1237113 L26,14.1443299 L21,14.1443299 L21,12.1237113 Z M21,15.1546392 L26,15.1546392 L26,17.1752577 L21,17.1752577 L21,15.1546392 Z M21,18.185567 L26,18.185567 L26,20.2061856 L21,20.2061856 L21,18.185567 Z M26,21.2164948 L26,23.2371134 L21,23.2371134 L21,21.2164948 L26,21.2164948 Z M21,24.2474227 L26,24.2474227 L26,26.2680412 L21,26.2680412 L21,24.2474227 Z M21,27.2783505 L26,27.2783505 L26,29.2989691 L21,29.2989691 L21,27.2783505 Z M21,30.3092784 L26,30.3092784 L26,32.3298969 L21,32.3298969 L21,30.3092784 Z M21,33.3402062 L26,33.3402062 L26,35.3608247 L21,35.3608247 L21,33.3402062 Z M21,36.371134 L26,36.371134 L26,39.4020619 L21,39.4020619 L21,36.371134 Z M28,2.02061856 L33,2.02061856 L33,5.05154639 L28,5.05154639 L28,2.02061856 Z M28,6.06185567 L33,6.06185567 L33,8.08247423 L28,8.08247423 L28,6.06185567 Z M28,9.09278351 L33,9.09278351 L33,11.1134021 L28,11.1134021 L28,9.09278351 Z M28,12.1237113 L33,12.1237113 L33,14.1443299 L28,14.1443299 L28,12.1237113 Z M28,15.1546392 L33,15.1546392 L33,17.1752577 L28,17.1752577 L28,15.1546392 Z M28,18.185567 L33,18.185567 L33,20.2061856 L28,20.2061856 L28,18.185567 Z M28,21.2164948 L33,21.2164948 L33,23.2371134 L28,23.2371134 L28,21.2164948 Z M28,24.2474227 L33,24.2474227 L33,26.2680412 L28,26.2680412 L28,24.2474227 Z M28,27.2783505 L33,27.2783505 L33,29.2989691 L28,29.2989691 L28,27.2783505 Z M28,30.3092784 L33,30.3092784 L33,32.3298969 L28,32.3298969 L28,30.3092784 Z M28,33.3402062 L33,33.3402062 L33,35.3608247 L28,35.3608247 L28,33.3402062 Z M28,36.371134 L33,36.371134 L33,39.4020619 L28,39.4020619 L28,36.371134 Z"/>
         </g>
         <g fill-rule="nonzero" transform="translate(12 1051)">
             <use xlink:href="#basis" />
             <use xlink:href="#corner" />
             <use xlink:href="#textbox" fill="#7EAB34"/>
             <path fill="#FFFFFF" d="M40.08,65.2710309 L42.353,65.2710309 L42.353,59.4738763 L43.697,59.4738763 C44.087,59.5617732 44.607,60.1760412 45.299,61.4278144 L47.485,65.2720412 L50.105,65.2720412 L47.658,61.011567 C46.898,59.7163505 46.336,58.9252784 45.903,58.6838144 L45.903,58.6403711 C47.613,58.0927835 48.718,56.8177732 48.718,54.8638351 C48.718,53.4595052 48.155,52.1844948 46.748,51.4590928 C46.012,51.0428454 45.038,50.8023918 43.652,50.8023918 L40.08,50.8023918 L40.08,65.2730515 L40.08,65.2710309 Z M42.353,57.5623711 L42.353,52.6876289 L43.589,52.6876289 C44.476,52.6876289 45.039,52.8856495 45.429,53.1927835 C46.056,53.5868041 46.359,54.2909897 46.359,55.102268 C46.359,56.069134 45.926,56.771299 45.277,57.1683505 C44.7512463,57.449419 44.1613869,57.5853353 43.567,57.5623711 L42.352,57.5623711 L42.353,57.5623711 Z M50.407,65.2710309 L52.787,65.2710309 L54.152,61.5591546 L59.436,61.5591546 L60.844,65.2720412 L63.292,65.2720412 L57.64,50.7336907 L55.886,50.7336907 L50.406,65.2720412 L50.407,65.2710309 Z M54.825,59.6708866 L55.995,56.3772784 C56.293,55.6144948 56.553,54.837567 56.775,54.0495258 L56.817,54.0495258 C56.967,54.5324536 57.185,55.1911753 57.575,56.376268 L58.745,59.6718969 L54.825,59.6718969 L54.825,59.6708866 Z M64.761,65.2710309 L67.035,65.2710309 L67.035,59.4738763 L68.377,59.4738763 C68.767,59.5617732 69.287,60.1760412 69.981,61.4278144 L72.167,65.2720412 L74.787,65.2720412 L72.341,61.011567 C71.583,59.7163505 71.021,58.9252784 70.587,58.6838144 L70.587,58.6403711 C72.297,58.0927835 73.401,56.8177732 73.401,54.8638351 C73.401,53.4595052 72.839,52.1844948 71.431,51.4590928 C70.695,51.0428454 69.721,50.8023918 68.334,50.8023918 L64.76,50.8023918 L64.76,65.2730515 L64.761,65.2710309 Z M67.035,57.5623711 L67.035,52.6876289 L68.269,52.6876289 C69.159,52.6876289 69.721,52.8856495 70.111,53.1927835 C70.739,53.5868041 71.041,54.2909897 71.041,55.102268 C71.041,56.069134 70.609,56.771299 69.959,57.1683505 C69.4326537,57.4497668 68.8420586,57.5856936 68.247,57.5623711 L67.035,57.5623711 Z"/>
             <path fill="#B9BEC4" d="M26,2.02061856 L26,5.05154639 L21,5.05154639 L21,2.02061856 L26,2.02061856 Z M26,6.06185567 L26,8.08247423 L21,8.08247423 L21,6.06185567 L26,6.06185567 Z M21,9.09278351 L26,9.09278351 L26,11.1134021 L21,11.1134021 L21,9.09278351 Z M21,12.1237113 L26,12.1237113 L26,14.1443299 L21,14.1443299 L21,12.1237113 Z M21,15.1546392 L26,15.1546392 L26,17.1752577 L21,17.1752577 L21,15.1546392 Z M21,18.185567 L26,18.185567 L26,20.2061856 L21,20.2061856 L21,18.185567 Z M26,21.2164948 L26,23.2371134 L21,23.2371134 L21,21.2164948 L26,21.2164948 Z M21,24.2474227 L26,24.2474227 L26,26.2680412 L21,26.2680412 L21,24.2474227 Z M21,27.2783505 L26,27.2783505 L26,29.2989691 L21,29.2989691 L21,27.2783505 Z M21,30.3092784 L26,30.3092784 L26,32.3298969 L21,32.3298969 L21,30.3092784 Z M21,33.3402062 L26,33.3402062 L26,35.3608247 L21,35.3608247 L21,33.3402062 Z M21,36.371134 L26,36.371134 L26,39.4020619 L21,39.4020619 L21,36.371134 Z M28,2.02061856 L33,2.02061856 L33,5.05154639 L28,5.05154639 L28,2.02061856 Z M28,6.06185567 L33,6.06185567 L33,8.08247423 L28,8.08247423 L28,6.06185567 Z M28,9.09278351 L33,9.09278351 L33,11.1134021 L28,11.1134021 L28,9.09278351 Z M28,12.1237113 L33,12.1237113 L33,14.1443299 L28,14.1443299 L28,12.1237113 Z M28,15.1546392 L33,15.1546392 L33,17.1752577 L28,17.1752577 L28,15.1546392 Z M28,18.185567 L33,18.185567 L33,20.2061856 L28,20.2061856 L28,18.185567 Z M28,21.2164948 L33,21.2164948 L33,23.2371134 L28,23.2371134 L28,21.2164948 Z M28,24.2474227 L33,24.2474227 L33,26.2680412 L28,26.2680412 L28,24.2474227 Z M28,27.2783505 L33,27.2783505 L33,29.2989691 L28,29.2989691 L28,27.2783505 Z M28,30.3092784 L33,30.3092784 L33,32.3298969 L28,32.3298969 L28,30.3092784 Z M28,33.3402062 L33,33.3402062 L33,35.3608247 L28,35.3608247 L28,33.3402062 Z M28,36.371134 L33,36.371134 L33,39.4020619 L28,39.4020619 L28,36.371134 Z"/>
         </g>
         <g fill-rule="nonzero" transform="translate(12 901)">
             <polygon fill="#E5E8EB" points="54 0 75 22.227 75 98 0 98 0 0"/>
             <use xlink:href="#corner" />
             <use xlink:href="#textbox" fill="#E89E00"/>
             <path fill="#FFFFFF" d="M42.978,65.2710309 L45.253,65.2710309 L45.253,60.1760412 L45.967,60.1760412 C47.244,60.1760412 48.197,59.9780206 48.955,59.6506804 C50.86,58.8363711 51.575,57.1683505 51.575,55.4760825 C51.575,53.5665979 50.752,52.1824742 49.345,51.436866 C48.522,50.9973814 47.525,50.8003711 46.162,50.8003711 L42.978,50.8003711 L42.978,65.2710309 Z M45.253,58.2877732 L45.253,52.6876289 L46.097,52.6876289 C46.941,52.6876289 47.547,52.8411959 48.002,53.1048866 C48.802,53.5878144 49.192,54.4445567 49.192,55.4760825 C49.192,56.6399588 48.782,57.496701 47.916,57.9149691 C47.483,58.1574433 46.898,58.2887835 46.119,58.2887835 L45.252,58.2887835 L45.253,58.2877732 Z M54.365,65.2710309 L56.64,65.2710309 L56.64,60.1760412 L57.355,60.1760412 C58.632,60.1760412 59.585,59.9780206 60.342,59.6506804 C62.248,58.8363711 62.962,57.1683505 62.962,55.4760825 C62.962,53.5665979 62.139,52.1824742 60.732,51.436866 C59.909,50.9973814 58.914,50.8003711 57.55,50.8003711 L54.365,50.8003711 L54.365,65.2710309 Z M56.64,58.2877732 L56.64,52.6876289 L57.485,52.6876289 C58.329,52.6876289 58.935,52.8411959 59.39,53.1048866 C60.19,53.5878144 60.58,54.4445567 60.58,55.4760825 C60.58,56.6399588 60.17,57.496701 59.303,57.9149691 C58.87,58.1574433 58.286,58.2887835 57.506,58.2887835 L56.64,58.2887835 L56.64,58.2877732 Z M68.892,65.2710309 L71.167,65.2710309 L71.167,52.753299 L75.042,52.753299 L75.692,50.7993608 L64.757,50.7993608 L64.757,52.7543093 L68.892,52.7543093 L68.892,65.2720412 L68.892,65.2710309 Z"/>
         </g>
         <g fill-rule="nonzero" transform="translate(12 751)">
             <use xlink:href="#basis" />
             <use xlink:href="#corner" />
             <use xlink:href="#textbox" fill="#D73B41"/>
             <path fill="#FFFFFF" d="M41.68,65.2710309 L43.954,65.2710309 L43.954,60.1760412 L44.668,60.1760412 C45.945,60.1760412 46.898,59.9780206 47.656,59.6486598 C49.561,58.8363711 50.276,57.1673402 50.276,55.4760825 C50.276,53.5665979 49.453,52.1824742 48.046,51.4348454 C47.223,50.9963711 46.226,50.7983505 44.863,50.7983505 L41.68,50.7983505 L41.68,65.2710309 Z M43.954,58.2877732 L43.954,52.6876289 L44.798,52.6876289 C45.642,52.6876289 46.248,52.8411959 46.703,53.1048866 C47.503,53.5878144 47.893,54.4445567 47.893,55.4760825 C47.893,56.6399588 47.483,57.496701 46.617,57.9139588 C46.184,58.156433 45.599,58.2877732 44.82,58.2877732 L43.954,58.2877732 Z M53.499,65.2710309 L57.419,65.2710309 C62.441,65.2710309 65.322,62.2401031 65.322,57.9361856 C65.322,53.7201649 62.658,50.7993608 57.592,50.7993608 L53.5,50.7993608 L53.5,65.2720412 L53.499,65.2710309 Z M55.773,63.3160825 L55.773,52.753299 L57.397,52.753299 C61.099,52.753299 62.897,54.8395876 62.897,57.9563918 C62.897,60.8559794 61.447,63.3160825 57.44,63.3160825 L55.774,63.3160825 L55.773,63.3160825 Z M68.113,65.2710309 L70.385,65.2710309 L70.385,58.8798144 L74.977,58.8798144 L74.977,56.924866 L70.385,56.924866 L70.385,52.7522887 L75.063,52.7522887 L75.713,50.7983505 L68.113,50.7983505 L68.113,65.2710309 Z"/>
         </g>
         <g fill-rule="nonzero" transform="translate(12 601)">
             <use xlink:href="#basis" />
             <use xlink:href="#corner" />
             <use xlink:href="#textbox" fill="#746781"/>
             <path fill="#FFFFFF" d="M40.08,65.2710309 L42.353,65.2710309 L42.353,60.1760412 L43.069,60.1760412 C44.346,60.1760412 45.299,59.9780206 46.056,59.6506804 C47.961,58.8363711 48.676,57.1683505 48.676,55.4760825 C48.676,53.5665979 47.853,52.1824742 46.446,51.436866 C45.623,50.9973814 44.626,50.8003711 43.263,50.8003711 L40.08,50.8003711 L40.08,65.2710309 Z M42.353,58.2877732 L42.353,52.6876289 L43.199,52.6876289 C44.043,52.6876289 44.649,52.8411959 45.103,53.1048866 C45.903,53.5878144 46.293,54.4445567 46.293,55.4760825 C46.293,56.6399588 45.883,57.496701 45.017,57.9149691 C44.584,58.1574433 43.999,58.2887835 43.22,58.2887835 L42.353,58.2887835 L42.353,58.2877732 Z M52.767,65.2710309 L55.04,65.2710309 L55.04,58.8585979 L62.186,58.8585979 L62.186,65.2710309 L64.461,65.2710309 L64.461,50.7983505 L62.187,50.7983505 L62.187,56.9036495 L55.04,56.9036495 L55.04,50.7993608 L52.767,50.7993608 L52.767,65.2720412 L52.767,65.2710309 Z M68.767,65.2710309 L71.039,65.2710309 L71.039,60.1760412 L71.752,60.1760412 C73.032,60.1760412 73.984,59.9780206 74.742,59.6506804 C76.647,58.8363711 77.362,57.1683505 77.362,55.4760825 C77.362,53.5665979 76.539,52.1824742 75.132,51.436866 C74.309,50.9973814 73.312,50.8003711 71.947,50.8003711 L68.765,50.8003711 L68.765,65.2710309 L68.767,65.2710309 Z M71.039,58.2877732 L71.039,52.6876289 L71.882,52.6876289 C72.728,52.6876289 73.334,52.8411959 73.789,53.1048866 C74.589,53.5878144 74.979,54.4445567 74.979,55.4760825 C74.979,56.6399588 74.569,57.496701 73.703,57.9149691 C73.27,58.1574433 72.685,58.2887835 71.903,58.2887835 L71.038,58.2887835 L71.039,58.2877732 Z"/>
         </g>
         <g fill-rule="nonzero" transform="translate(12 451)">
             <use xlink:href="#basis" />
             <use xlink:href="#corner" />
             <use xlink:href="#textbox" fill="#54B51E"/>
             <path fill="#FFFFFF" d="M41.96,65.2710309 L44.45,65.2710309 L48.327,59.6941237 L51.964,65.2710309 L54.542,65.2710309 L49.756,57.9361856 L54.694,50.7993608 L52.18,50.7993608 L48.457,56.2449278 L44.905,50.7993608 L42.328,50.7993608 L47.006,58.002866 L41.96,65.2720412 L41.96,65.2710309 Z M56.682,65.2710309 L64.088,65.2710309 L64.088,63.3160825 L58.955,63.3160825 L58.955,50.7983505 L56.682,50.7983505 L56.682,65.2710309 Z M64.627,64.2809278 C65.623,65.0083505 67.095,65.4912784 68.741,65.4912784 C71.601,65.4912784 73.658,63.9525773 73.658,61.4278144 C73.658,56.8814227 67.464,57.2128041 67.464,54.3576701 C67.464,53.0624536 68.524,52.6229691 69.608,52.6229691 C70.7572898,52.6389817 71.8860838,52.9327501 72.9,53.4797113 L72.9,51.3934227 C72.163,50.9994021 70.95,50.6690309 69.542,50.6690309 C66.684,50.6690309 65.039,52.4471753 65.039,54.5789278 C65.039,58.9485155 71.253,58.5757113 71.253,61.6268454 C71.253,63.0311753 70.019,63.5363299 68.696,63.5363299 C67.5667993,63.5236556 66.4668395,63.1719785 65.536,62.5260206 L64.626,64.2839588 L64.627,64.2809278 Z"/>
         </g>
         <g fill-rule="nonzero" transform="translate(12 301)">
             <polygon fill="#E5E8EB" points="54 0 75 22.227 75 98 0 98 0 0"/>
             <use xlink:href="#corner" />
             <use xlink:href="#textbox" fill="#2C77B1"/>
             <path fill="#FFFFFF" d="M37.55,65.2710309 L41.47,65.2710309 C46.492,65.2710309 49.373,62.2401031 49.373,57.9361856 C49.373,53.7201649 46.708,50.7993608 41.643,50.7993608 L37.549,50.7993608 L37.549,65.2720412 L37.55,65.2710309 Z M39.824,63.3160825 L39.824,52.753299 L41.447,52.753299 C45.149,52.753299 46.947,54.8395876 46.947,57.9584124 C46.947,60.858 45.497,63.3160825 41.491,63.3160825 L39.825,63.3160825 L39.824,63.3160825 Z M58.637,65.4912784 C62.709,65.4912784 65.74,62.5694639 65.74,58.0907629 C65.74,53.7413814 62.817,50.6680206 58.637,50.6680206 C54.479,50.6680206 51.513,53.6989485 51.513,58.0917732 C51.513,62.5472371 54.5,65.4922887 58.637,65.4922887 L58.637,65.4912784 Z M58.637,63.5353196 C55.823,63.5353196 53.937,61.4712577 53.937,58.0897526 C53.937,54.7092577 55.823,52.6219588 58.637,52.6219588 C61.56,52.6219588 63.337,54.8173608 63.337,58.0907629 C63.337,61.4712577 61.452,63.5363299 58.637,63.5363299 L58.637,63.5353196 Z M79.139,62.5694639 C78.091796,63.2024 76.894291,63.5365492 75.674,63.5363299 C72.644,63.5363299 70.758,61.318701 70.758,58.1352165 C70.758,55.1265155 72.578,52.6239794 75.782,52.6239794 C77.044993,52.6162027 78.2891232,52.933658 79.397,53.5463918 L79.397,51.394433 C78.573,51.0004124 77.274,50.6700412 75.737,50.6700412 C71.277,50.6700412 68.331,54.0081031 68.331,58.2029072 C68.331,62.4401443 70.886,65.4943093 75.411,65.4943093 C76.933,65.5145155 78.433,65.1366598 79.766,64.3930722 L79.136,62.5724948 L79.139,62.5694639 Z"/>
         </g>
         <g fill-rule="nonzero" transform="translate(12 151)">
             <polygon fill="#E5E8EB" points="54 0 75 22.227 75 98 0 98 0 0"/>
             <use xlink:href="#corner" />
             <use xlink:href="#textbox" fill="#9BA4AE"/>
             <path fill="#FFFFFF" d="M44.453,65.2710309 L46.726,65.2710309 L46.726,52.753299 L50.602,52.753299 L51.252,50.7993608 L40.316,50.7993608 L40.316,52.7543093 L44.452,52.7543093 L44.452,65.2720412 L44.453,65.2710309 Z M51.509,65.2710309 L54,65.2710309 L57.876,59.6941237 L61.513,65.2710309 L64.091,65.2710309 L59.306,57.9361856 L64.244,50.7993608 L61.73,50.7993608 L58.006,56.2449278 L54.454,50.7993608 L51.877,50.7993608 L56.555,58.002866 L51.509,65.2720412 L51.509,65.2710309 Z M69.802,65.2710309 L72.077,65.2710309 L72.077,52.753299 L75.952,52.753299 L76.602,50.7993608 L65.668,50.7993608 L65.668,52.7543093 L69.803,52.7543093 L69.803,65.2720412 L69.802,65.2710309 Z"/>
         </g>
         <g fill-rule="nonzero" transform="translate(12 1)">
            <polygon fill="#E5E8EB" points="54 0 75 22.227 75 98 0 98 0 0"/>
            <use xlink:href="#corner" />
        </g>
        <rect width="100" height="1" fill="none"/>
        <rect width="100" height="1" fill="none" transform="translate(0 1499)"/>
    </g>
</svg>
