<svg width="100" height="2200" viewBox="0 0 100 2200" version="1.1" xmlns="http://www.w3.org/2000/svg" xmlns:xlink="http://www.w3.org/1999/xlink"><defs><path id="a" fill="#E5E8EB" d="M0 0h54l21 22.227V98H0z"/><path id="b" fill="#535C69" opacity=".3" d="M54 0l21 22.227H54z"/><path id="c" d="M30 44.454h55v28.288H30z"/></defs><g fill="none" fill-rule="evenodd"><g fill-rule="nonzero"><path fill="#86E0FB" d="M0 2123.83h99.795v66.863H0z"/><path fill="#2FC7F7" d="M0 2117.143h99.795v6.686H0z"/><path fill="#2FC7F7" d="M0 2108.818h49.887l11.088 11.142H0z"/><path fill="#3EAFD2" d="M96.967 2178.155c-3.552-2.405-6.43-3.332-9.148-3.51-3.937-.257-10.35 3.135-13.475 3.19-3.123.054-9.314-5.762-7.875-4.583 1.44 1.178-8.945-6.63-9.43-7.604-.486-.975.9-2.067 2.152-1.403 1.25.664 11.103 6.202 12.66 6.722 1.557.52 8.15.168 8.15.168l.786-.29c.457-.324.558-.774-.12-1.135-.915-.485-9.315-2.754-9.315-2.754s-.826-1.822.56-2.17c1.388-.35 14.228.532 16.113 1.07 1.884.54 5.39 3.02 5.39 3.02l4.145 2.292-.593 6.987zm-82.177.961c0 1.365.665 2.048 1.992 2.048s1.99-.683 1.99-2.048v-18.435h2.04v18.436c0 1.365.664 2.048 1.99 2.048 1.328 0 1.99-.683 1.99-2.048v-31.407h.972v11.313c0 .715.243 1.236.728 1.56a1.28 1.28 0 0 0 1.505 0c.518-.324.777-.845.777-1.56v-12.192c0-1.3-.437-2.308-1.31-3.023-.874-.715-2.088-1.073-3.64-1.073H15.86c-1.49 0-2.704.326-3.642.976-.938.65-1.407 1.658-1.407 3.023v12.973a1.32 1.32 0 0 0 .778 1.268 1.55 1.55 0 0 0 1.505 0 1.33 1.33 0 0 0 .73-1.268v-11.997h.968v31.406h-.002zm.78-42.283a4.14 4.14 0 0 0 2.545 3.83 4.104 4.104 0 0 0 4.494-.904 4.06 4.06 0 0 0 1.213-2.977 3.948 3.948 0 0 0-1.214-2.877 4.11 4.11 0 0 0-4.492-.896 4.147 4.147 0 0 0-2.548 3.822l.002.002zm20.843 42.283c0 1.365.664 2.048 1.99 2.048 1.33 0 1.992-.683 1.992-2.048v-18.435h2.04v18.436c0 1.365.663 2.048 1.99 2.048 1.328 0 1.99-.683 1.99-2.048v-31.407h.97v11.313c0 .715.244 1.236.73 1.56a1.28 1.28 0 0 0 1.505 0c.517-.324.776-.845.776-1.56v-12.192c0-1.3-.437-2.308-1.31-3.023-.874-.715-2.088-1.073-3.64-1.073h-7.963c-1.49 0-2.705.326-3.643.976-.938.65-1.407 1.658-1.407 3.023v12.973a1.32 1.32 0 0 0 .777 1.268 1.55 1.55 0 0 0 1.505 0 1.33 1.33 0 0 0 .73-1.268v-11.997h.968v31.406zm.78-42.283a4.14 4.14 0 0 0 2.544 3.83 4.104 4.104 0 0 0 4.494-.904 4.06 4.06 0 0 0 1.215-2.977 3.948 3.948 0 0 0-1.214-2.877 4.11 4.11 0 0 0-4.49-.896 4.147 4.147 0 0 0-2.548 3.822l-.001.002z"/></g><g fill-rule="nonzero"><path fill="#86E0FB" d="M0 1973.03h100v66.938H0z"/><path fill="#2FC7F7" d="M0 1966h100v7H0z"/><path fill="#2FC7F7" d="M0 1958.002h49.99l11.11 11.155H0z"/><path fill="#3EAFD2" d="M33.488 2028.714c0 1.367.665 2.05 1.995 2.05s1.995-.684 1.995-2.05v-18.457h2.044v18.457c0 1.367.665 2.05 1.995 2.05s1.994-.684 1.993-2.05v-31.443h.973v11.33c0 .714.244 1.236.73 1.56.45.327 1.058.327 1.51 0 .517-.324.777-.846.777-1.56v-12.207c0-1.302-.438-2.31-1.313-3.028-.876-.716-2.092-1.074-3.65-1.074H34.56c-1.493 0-2.71.327-3.65.978-.94.652-1.41 1.66-1.41 3.026v12.988a1.324 1.324 0 0 0 .778 1.27c.47.26 1.04.26 1.51 0 .473-.24.76-.738.73-1.27v-12.01h.97v31.442-.002zm.78-42.33a4.144 4.144 0 0 0 2.55 3.835 4.115 4.115 0 0 0 4.504-.908 4.06 4.06 0 0 0 1.216-2.977 3.953 3.953 0 0 0-1.216-2.882 4.122 4.122 0 0 0-4.5-.896 4.15 4.15 0 0 0-2.554 3.827v.001zm20.887 42.33c0 1.367.665 2.05 1.995 2.05s1.995-.684 1.995-2.05v-18.457h2.043v18.457c0 1.367.665 2.05 1.995 2.05s1.995-.684 1.994-2.05v-31.443h.973v11.33c0 .714.243 1.236.73 1.56.45.327 1.058.327 1.508 0 .52-.324.78-.846.78-1.56v-12.207c0-1.302-.44-2.31-1.315-3.028-.875-.716-2.09-1.074-3.648-1.074h-7.978c-1.494 0-2.71.327-3.65.978-.94.652-1.41 1.66-1.41 3.026v12.988a1.324 1.324 0 0 0 .778 1.27c.47.26 1.04.26 1.508 0 .474-.24.76-.738.73-1.27v-12.01h.972v31.442-.002zm.78-42.33a4.144 4.144 0 0 0 2.55 3.835 4.115 4.115 0 0 0 4.503-.908 4.06 4.06 0 0 0 1.217-2.977 3.953 3.953 0 0 0-1.217-2.882 4.122 4.122 0 0 0-4.5-.896 4.15 4.15 0 0 0-2.553 3.827v.001z"/></g><g fill-rule="nonzero"><path fill="#86E0FB" d="M0 1823.013h100v66.864H0z"/><path fill="#2FC7F7" d="M0 1816h100v7.013H0z"/><path fill="#2FC7F7" d="M0 1808.002h49.99l11.11 11.142H0z"/></g><g fill-rule="nonzero" transform="translate(12 1651)"><use xlink:href="#a"/><path fill="#B9BEC4" d="M63.14 32.086H10.008v54.457h55V32.087H63.14zm-.132 52.476h-51V34.066h51v50.496z"/><use xlink:href="#b"/><path fill="#B9BEC4" d="M60.008 81.591v-2.97l-12-11.881-6 5.94-15-14.851-12 11.881v11.881z"/><ellipse cx="51.712" cy="46.785" fill="#B9BEC4" rx="5.231" ry="5.172"/></g><g fill-rule="nonzero" transform="translate(12 1501)"><use xlink:href="#a"/><use xlink:href="#b"/><path fill="#B9BEC4" d="M10.002 39.434v40.241H65v-40.24H10.002zM63 77.794H12V41.423h51v36.37zm-6 0h-2V41.423h2v36.37zm0-36.371h6v3.03h-6v-3.03zm0 6.062h6v4.04h-6v-4.04zm0 7.072h6v4.04h-6v-4.04zm0 7.072h6v4.041h-6V61.63zm0 7.072h6v4.041h-6v-4.041zm6 7.072v2.02h-6v-2.02h6zm-45-34.35h2v36.37h-2v-36.37zm0 36.37h-6v-2.02h6v2.02zm0-5.05h-6V68.7h6v4.041zm0-7.073h-6V61.63h6v4.041zm0-7.072h-6v-4.041h6v4.04zm0-7.072h-6v-4.041h6v4.04zm0-7.072h-6v-3.031h6v3.03z"/></g><g fill-rule="nonzero" transform="translate(12 1351)"><use xlink:href="#a"/><path fill="#535C69" d="M75 22.227H54V0l21 22.227zM59.608 54.92v5.402H54.04a16.13 16.13 0 0 1-2.65 6.5l5.587 4.924-3.844 4.815-6.157-5.43a15.768 15.768 0 0 1-6.01 2.423v5.672H35.64V73.58c-2.15-.38-4.2-1.21-6.02-2.437l-6.147 5.42-3.843-4.816 5.593-4.933a16.237 16.237 0 0 1-2.63-6.49H17V54.92h5.568a16.177 16.177 0 0 1 2.65-6.5l-5.586-4.924 3.843-4.815 6.16 5.43a15.718 15.718 0 0 1 6.007-2.42v-5.675h5.326v5.674a15.738 15.738 0 0 1 6.01 2.42l6.157-5.43 3.844 4.816-5.586 4.924a16.13 16.13 0 0 1 2.65 6.5h5.568-.003zm-21.305-5.4c-3.235.002-6.15 1.977-7.38 5a8.184 8.184 0 0 0 1.73 8.83 7.908 7.908 0 0 0 8.707 1.755c2.989-1.26 4.934-4.211 4.932-7.483 0-4.474-3.577-8.1-7.99-8.103h.001z" opacity=".3"/></g><g fill-rule="nonzero" transform="translate(12 1201)"><use xlink:href="#a"/><use xlink:href="#b"/><use xlink:href="#c" fill="#AC5FBD"/><path fill="#FFF" d="M39.04 65.271h10.872v-1.955h-7.167l6.992-12.518h-10.48l.607 1.955h6.28l-7.103 12.518h-.001zm12.666 0h2.273V50.798h-2.274v14.473h.001zm5.282 0h2.274v-5.095h.714c1.28 0 2.232-.198 2.99-.525 1.904-.815 2.62-2.483 2.62-4.175 0-1.91-.824-3.294-2.23-4.04-.824-.439-1.82-.636-3.183-.636h-3.185v14.471zm2.274-6.983v-5.6h.846c.844 0 1.45.153 1.905.417.8.483 1.19 1.34 1.19 2.371 0 1.164-.41 2.02-1.277 2.439-.433.242-1.017.374-1.797.374h-.868l.001-.001z"/><path fill="#B9BEC4" d="M26 2.02v3.032h-5V2.02h5zm0 4.042v2.02h-5v-2.02h5zm-5 3.03h5v2.021h-5v-2.02zm0 3.032h5v2.02h-5v-2.02zm0 3.03h5v2.021h-5v-2.02zm0 3.032h5v2.02h-5v-2.02zm5 3.03v2.021h-5v-2.02h5zm-5 3.031h5v2.021h-5v-2.02zm0 3.031h5V29.3h-5v-2.02zm0 3.031h5v2.02h-5v-2.02zm0 3.031h5v2.02h-5v-2.02zm0 3.031h5v3.031h-5v-3.03zm7-34.35h5v3.03h-5v-3.03zm0 4.04h5v2.021h-5v-2.02zm0 3.032h5v2.02h-5v-2.02zm0 3.03h5v2.021h-5v-2.02zm0 3.032h5v2.02h-5v-2.02zm0 3.03h5v2.021h-5v-2.02zm0 3.031h5v2.021h-5v-2.02zm0 3.031h5v2.021h-5v-2.02zm0 3.031h5V29.3h-5v-2.02zm0 3.031h5v2.02h-5v-2.02zm0 3.031h5v2.02h-5v-2.02zm0 3.031h5v3.031h-5v-3.03z"/></g><g fill-rule="nonzero" transform="translate(12 1051)"><use xlink:href="#a"/><use xlink:href="#b"/><use xlink:href="#c" fill="#7EAB34"/><path fill="#FFF" d="M40.08 65.271h2.273v-5.797h1.344c.39.088.91.702 1.602 1.954l2.186 3.844h2.62l-2.447-4.26c-.76-1.296-1.322-2.087-1.755-2.328v-.044c1.71-.547 2.815-1.822 2.815-3.776 0-1.404-.563-2.68-1.97-3.405-.736-.416-1.71-.657-3.096-.657H40.08v14.471-.002zm2.273-7.709v-4.874h1.236c.887 0 1.45.198 1.84.505.627.394.93 1.098.93 1.91 0 .966-.433 1.668-1.082 2.065a3.352 3.352 0 0 1-1.71.394h-1.215.001zm8.054 7.709h2.38l1.365-3.712h5.284l1.408 3.713h2.448L57.64 50.734h-1.754l-5.48 14.538.001-.001zm4.418-5.6l1.17-3.294a25.1 25.1 0 0 0 .78-2.327h.042c.15.482.368 1.141.758 2.326l1.17 3.296h-3.92v-.001zm9.936 5.6h2.274v-5.797h1.342c.39.088.91.702 1.604 1.954l2.186 3.844h2.62l-2.446-4.26c-.758-1.296-1.32-2.087-1.754-2.328v-.044c1.71-.547 2.814-1.822 2.814-3.776 0-1.404-.562-2.68-1.97-3.405-.736-.416-1.71-.657-3.097-.657H64.76v14.471l.001-.002zm2.274-7.709v-4.874h1.234c.89 0 1.452.198 1.842.505.628.394.93 1.098.93 1.91 0 .966-.432 1.668-1.082 2.065a3.352 3.352 0 0 1-1.712.394h-1.212z"/><path fill="#B9BEC4" d="M26 2.02v3.032h-5V2.02h5zm0 4.042v2.02h-5v-2.02h5zm-5 3.03h5v2.021h-5v-2.02zm0 3.032h5v2.02h-5v-2.02zm0 3.03h5v2.021h-5v-2.02zm0 3.032h5v2.02h-5v-2.02zm5 3.03v2.021h-5v-2.02h5zm-5 3.031h5v2.021h-5v-2.02zm0 3.031h5V29.3h-5v-2.02zm0 3.031h5v2.02h-5v-2.02zm0 3.031h5v2.02h-5v-2.02zm0 3.031h5v3.031h-5v-3.03zm7-34.35h5v3.03h-5v-3.03zm0 4.04h5v2.021h-5v-2.02zm0 3.032h5v2.02h-5v-2.02zm0 3.03h5v2.021h-5v-2.02zm0 3.032h5v2.02h-5v-2.02zm0 3.03h5v2.021h-5v-2.02zm0 3.031h5v2.021h-5v-2.02zm0 3.031h5v2.021h-5v-2.02zm0 3.031h5V29.3h-5v-2.02zm0 3.031h5v2.02h-5v-2.02zm0 3.031h5v2.02h-5v-2.02zm0 3.031h5v3.031h-5v-3.03z"/></g><g fill-rule="nonzero" transform="translate(12 901)"><path fill="#E5E8EB" d="M54 0l21 22.227V98H0V0z"/><use xlink:href="#b"/><use xlink:href="#c" fill="#E89E00"/><path fill="#FFF" d="M42.978 65.271h2.275v-5.095h.714c1.277 0 2.23-.198 2.988-.525 1.905-.815 2.62-2.483 2.62-4.175 0-1.91-.823-3.294-2.23-4.04-.823-.439-1.82-.636-3.183-.636h-3.184v14.471zm2.275-6.983v-5.6h.844c.844 0 1.45.153 1.905.417.8.483 1.19 1.34 1.19 2.371 0 1.164-.41 2.02-1.276 2.439-.433.242-1.018.374-1.797.374h-.867l.001-.001zm9.112 6.983h2.275v-5.095h.715c1.277 0 2.23-.198 2.987-.525 1.906-.815 2.62-2.483 2.62-4.175 0-1.91-.823-3.294-2.23-4.04-.823-.439-1.818-.636-3.182-.636h-3.185v14.471zm2.275-6.983v-5.6h.845c.844 0 1.45.153 1.905.417.8.483 1.19 1.34 1.19 2.371 0 1.164-.41 2.02-1.277 2.439-.433.242-1.017.374-1.797.374h-.866v-.001zm12.252 6.983h2.275V52.753h3.875l.65-1.954H64.757v1.955h4.135v12.518-.001z"/></g><g fill-rule="nonzero" transform="translate(12 751)"><use xlink:href="#a"/><use xlink:href="#b"/><use xlink:href="#c" fill="#D73B41"/><path fill="#FFF" d="M41.68 65.271h2.274v-5.095h.714c1.277 0 2.23-.198 2.988-.527 1.905-.813 2.62-2.482 2.62-4.173 0-1.91-.823-3.294-2.23-4.041-.823-.439-1.82-.637-3.183-.637H41.68v14.473zm2.274-6.983v-5.6h.844c.844 0 1.45.153 1.905.417.8.483 1.19 1.34 1.19 2.371 0 1.164-.41 2.02-1.276 2.438-.433.242-1.018.374-1.797.374h-.866zm9.545 6.983h3.92c5.022 0 7.903-3.03 7.903-7.335 0-4.216-2.664-7.137-7.73-7.137H53.5v14.473l-.001-.001zm2.274-1.955V52.753h1.624c3.702 0 5.5 2.087 5.5 5.203 0 2.9-1.45 5.36-5.457 5.36H55.773zm12.34 1.955h2.272V58.88h4.592v-1.955h-4.592v-4.173h4.678l.65-1.954h-7.6v14.473z"/></g><g fill-rule="nonzero" transform="translate(12 601)"><use xlink:href="#a"/><use xlink:href="#b"/><use xlink:href="#c" fill="#746781"/><path fill="#FFF" d="M40.08 65.271h2.273v-5.095h.716c1.277 0 2.23-.198 2.987-.525 1.905-.815 2.62-2.483 2.62-4.175 0-1.91-.823-3.294-2.23-4.04-.823-.439-1.82-.636-3.183-.636H40.08v14.471zm2.273-6.983v-5.6h.846c.844 0 1.45.153 1.904.417.8.483 1.19 1.34 1.19 2.371 0 1.164-.41 2.02-1.276 2.439-.433.242-1.018.374-1.797.374h-.867v-.001zm10.414 6.983h2.273v-6.412h7.146v6.412h2.275V50.798h-2.274v6.106H55.04v-6.105h-2.273v14.473-.001zm16 0h2.272v-5.095h.713c1.28 0 2.232-.198 2.99-.525 1.905-.815 2.62-2.483 2.62-4.175 0-1.91-.823-3.294-2.23-4.04-.823-.439-1.82-.636-3.185-.636h-3.182v14.471h.002zm2.272-6.983v-5.6h.843c.846 0 1.452.153 1.907.417.8.483 1.19 1.34 1.19 2.371 0 1.164-.41 2.02-1.276 2.439-.433.242-1.018.374-1.8.374h-.865l.001-.001z"/></g><g fill-rule="nonzero" transform="translate(12 451)"><use xlink:href="#a"/><use xlink:href="#b"/><use xlink:href="#c" fill="#54B51E"/><path fill="#FFF" d="M41.96 65.271h2.49l3.877-5.577 3.637 5.577h2.578l-4.786-7.335 4.938-7.137H52.18l-3.723 5.446-3.552-5.446h-2.577l4.678 7.204-5.046 7.269v-.001zm14.722 0h7.406v-1.955h-5.133V50.798h-2.273v14.473zm7.945-.99c.996.727 2.468 1.21 4.114 1.21 2.86 0 4.917-1.538 4.917-4.063 0-4.547-6.194-4.215-6.194-7.07 0-1.296 1.06-1.735 2.144-1.735 1.15.016 2.278.31 3.292.857v-2.087c-.737-.394-1.95-.724-3.358-.724-2.858 0-4.503 1.778-4.503 3.91 0 4.37 6.214 3.997 6.214 7.048 0 1.404-1.234 1.91-2.557 1.91a5.653 5.653 0 0 1-3.16-1.011l-.91 1.758.001-.003z"/></g><g fill-rule="nonzero" transform="translate(12 301)"><path fill="#E5E8EB" d="M54 0l21 22.227V98H0V0z"/><use xlink:href="#b"/><use xlink:href="#c" fill="#2C77B1"/><path fill="#FFF" d="M37.55 65.271h3.92c5.022 0 7.903-3.03 7.903-7.335 0-4.216-2.665-7.137-7.73-7.137h-4.094v14.473l.001-.001zm2.274-1.955V52.753h1.623c3.702 0 5.5 2.087 5.5 5.205 0 2.9-1.45 5.358-5.456 5.358H39.824zm18.813 2.175c4.072 0 7.103-2.922 7.103-7.4 0-4.35-2.923-7.423-7.103-7.423-4.158 0-7.124 3.03-7.124 7.424 0 4.455 2.987 7.4 7.124 7.4zm0-1.956c-2.814 0-4.7-2.064-4.7-5.445 0-3.38 1.886-5.468 4.7-5.468 2.923 0 4.7 2.195 4.7 5.469 0 3.38-1.885 5.445-4.7 5.445zm20.502-.966a6.695 6.695 0 0 1-3.465.967c-3.03 0-4.916-2.217-4.916-5.4 0-3.01 1.82-5.512 5.024-5.512a7.374 7.374 0 0 1 3.615.922v-2.152c-.824-.394-2.123-.724-3.66-.724-4.46 0-7.406 3.338-7.406 7.533 0 4.237 2.555 7.291 7.08 7.291a8.696 8.696 0 0 0 4.355-1.1l-.63-1.822.003-.003z"/></g><g fill-rule="nonzero" transform="translate(12 151)"><path fill="#E5E8EB" d="M54 0l21 22.227V98H0V0z"/><use xlink:href="#b"/><use xlink:href="#c" fill="#9BA4AE"/><path fill="#FFF" d="M44.453 65.271h2.273V52.753h3.876l.65-1.954H40.316v1.955h4.136v12.518l.001-.001zm7.056 0H54l3.876-5.577 3.637 5.577h2.578l-4.785-7.335 4.938-7.137H61.73l-3.724 5.446-3.552-5.446h-2.577l4.678 7.204-5.046 7.269v-.001zm18.293 0h2.275V52.753h3.875l.65-1.954H65.668v1.955h4.135v12.518l-.001-.001z"/></g><g fill-rule="nonzero" transform="translate(12 1)"><path fill="#E5E8EB" d="M54 0l21 22.227V98H0V0z"/><use xlink:href="#b"/></g><path d="M0 0h100v1H0zM0 1499h100v1H0z"/></g></svg>