<svg xmlns="http://www.w3.org/2000/svg" width="40" height="54" viewBox="0 0 40 54">
  <defs>
    <linearGradient id="group-4-a" x1="63.675%" x2="-40.323%" y1="77.19%" y2="-2.474%">
      <stop offset="0%" stop-color="#FFF"/>
      <stop offset="100%" stop-color="#F9E900"/>
    </linearGradient>
    <linearGradient id="group-4-b" x1="50%" x2="50%" y1="0%" y2="100%">
      <stop offset="0%" stop-color="#F7CC00"/>
      <stop offset="100%" stop-color="#F9E900"/>
    </linearGradient>
    <linearGradient id="group-4-c" x1="17.473%" x2="73.199%" y1="41.812%" y2="78.162%">
      <stop offset="0%" stop-color="#F93000"/>
      <stop offset="100%" stop-color="#FF5752"/>
    </linearGradient>
  </defs>
  <g fill="none" fill-rule="evenodd">
    <ellipse cx="20.5" cy="43" fill="url(#group-4-a)" rx="15.5" ry="11"/>
    <path fill="url(#group-4-b)" d="M14.0766367,33.4994471 C14.1860179,35.9475524 14.5084499,37.3816859 16.0334188,38.7074011 C15.598453,36.5654576 13.7579013,30.4260745 23.7763445,24 C21.5493615,37.0008968 42.2813669,40.6388521 25.1850829,53.7965834 C29.1222884,44.6300879 22.134611,45.7623765 21.9171769,37.7043945 C18.4323056,40.8660439 17.5090339,42.9595816 18.8165036,46.7336157 C17.4009029,46.2237322 16.4741421,45.7384489 15.6029406,44.0039181 C14.0779716,47.6754814 15.1602437,51.0240149 16.9091405,54 C7.90129922,51.086943 6.08566159,41.9602073 14.0766367,33.4994471 Z" transform="matrix(-1 0 0 1 41 0)"/>
    <path fill="url(#group-4-c)" fill-rule="nonzero" d="M9.476353,16.7823565 C9.66658128,21.1073426 10.2273325,23.6409784 12.8794524,25.9830753 C12.1229901,22.1989751 8.92203068,11.3527315 26.3454101,0 C24.2356253,12.5117203 33.9561786,20.7886563 38.1464431,29.6352539 C41.64841,37.0286993 41.039168,45.242872 28.79539,52.6406306 C35.6427039,36.4464886 23.4902213,38.4468652 23.1120751,24.2110969 C17.0514295,29.7966775 15.4457394,33.4952609 17.7195999,40.162721 C15.2576856,39.2619269 13.6459277,38.404593 12.1307946,35.3402553 C9.47867465,41.8266838 11.360887,47.7424263 14.4024467,53 C-1.2633643,47.8535993 -4.42099496,31.7296995 9.476353,16.7823565 Z" transform="matrix(-1 0 0 1 40.647 0)"/>
  </g>
</svg>