<svg width="198" height="162" viewBox="0 0 198 162" fill="none" xmlns="http://www.w3.org/2000/svg">
	<path fill-rule="evenodd" clip-rule="evenodd" d="M142.299 5.27797C143.496 5.27797 144.466 4.30752 144.466 3.11042C144.466 1.91332 143.496 0.942871 142.299 0.942871C141.102 0.942871 140.131 1.91332 140.131 3.11042C140.131 4.30752 141.102 5.27797 142.299 5.27797ZM35.3417 24.0024C37.9369 24.0024 40.0406 21.8986 40.0406 19.3035C40.0406 16.7083 37.9369 14.6045 35.3417 14.6045C32.7466 14.6045 30.6428 16.7083 30.6428 19.3035C30.6428 21.8986 32.7466 24.0024 35.3417 24.0024ZM35.3404 21.3825C36.4887 21.3825 37.4194 20.4517 37.4194 19.3035C37.4194 18.1553 36.4887 17.2245 35.3404 17.2245C34.1923 17.2245 33.2615 18.1553 33.2615 19.3035C33.2615 20.4517 34.1923 21.3825 35.3404 21.3825ZM11.4714 69.8749C14.9667 69.8749 17.8002 67.0414 17.8002 63.5461C17.8002 60.0508 14.9667 57.2173 11.4714 57.2173C7.97613 57.2173 5.14263 60.0508 5.14263 63.5461C5.14263 67.0414 7.97613 69.8749 11.4714 69.8749ZM11.4699 66.5717C13.141 66.5717 14.4957 65.217 14.4957 63.5459C14.4957 61.8748 13.141 60.5201 11.4699 60.5201C9.79878 60.5201 8.44409 61.8748 8.44409 63.5459C8.44409 65.217 9.79878 66.5717 11.4699 66.5717ZM172.152 149.51C174.64 149.51 176.658 147.493 176.658 145.004C176.658 142.516 174.64 140.498 172.152 140.498C169.663 140.498 167.646 142.516 167.646 145.004C167.646 147.493 169.663 149.51 172.152 149.51ZM172.151 147.165C173.345 147.165 174.312 146.198 174.312 145.004C174.312 143.811 173.345 142.843 172.151 142.843C170.958 142.843 169.99 143.811 169.99 145.004C169.99 146.198 170.958 147.165 172.151 147.165ZM100.032 161.084C142.828 161.084 177.522 126.391 177.522 83.5946C177.522 40.7984 142.828 6.10526 100.032 6.10526C57.236 6.10526 22.5429 40.7984 22.5429 83.5946C22.5429 126.391 57.236 161.084 100.032 161.084ZM22.5058 155.667H7.44168C7.31278 155.667 7.185 155.663 7.05849 155.653C3.65396 155.573 0.918141 152.712 0.917969 149.195C0.918959 147.48 1.58264 145.836 2.76302 144.624C3.36807 144.003 4.08347 143.522 4.8618 143.2C4.84878 143.026 4.84215 142.85 4.84215 142.672C4.84322 140.863 5.54353 139.128 6.78902 137.85C8.03451 136.571 9.72315 135.854 11.4835 135.855C13.7384 135.858 15.7292 137.016 16.9256 138.785C17.4938 138.578 18.1054 138.466 18.7426 138.466C21.5574 138.47 23.8692 140.675 24.1372 143.495C26.8343 144.099 28.8525 146.568 28.8502 149.521C28.8474 152.923 26.1622 155.679 22.8516 155.678C22.7355 155.678 22.6202 155.674 22.5058 155.667ZM182.151 35.8326H192.842C192.923 35.8372 193.005 35.8395 193.087 35.8395C195.437 35.8405 197.342 33.9613 197.344 31.6416C197.346 29.6286 195.914 27.945 194 27.533C193.81 25.6103 192.169 24.1068 190.171 24.1045C189.719 24.1042 189.285 24.1809 188.882 24.3219C188.033 23.116 186.62 22.3259 185.02 22.324C183.77 22.3232 182.572 22.8125 181.688 23.6841C180.804 24.5558 180.307 25.7384 180.306 26.9719C180.306 27.0931 180.311 27.2134 180.32 27.3323C179.768 27.5516 179.26 27.8798 178.831 28.3033C177.993 29.1294 177.522 30.2502 177.522 31.4192C177.522 33.8176 179.463 35.7684 181.879 35.8227C181.969 35.8292 182.06 35.8326 182.151 35.8326Z" fill="#EEF2F4"/>
	<g filter="url(#filter0_d_510_5255)">
		<rect x="50.9727" y="38.1655" width="96.7439" height="35.2618" rx="5.92506" fill="#DFE0E3"/>
	</g>
	<g filter="url(#filter1_d_510_5255)">
		<rect x="50.9727" y="60.8589" width="96.7439" height="67.8111" rx="5.92506" fill="#D5D7DB"/>
	</g>
	<rect x="50.9727" y="58.7324" width="96.7439" height="67.8111" rx="5.92506" fill="#DFE0E3"/>
	<rect x="50.9727" y="56.6064" width="96.7439" height="67.8111" rx="5.92506" fill="white"/>
	<rect opacity="0.3" x="60.0625" y="66.7607" width="10.6312" height="10.6312" rx="1.99052" fill="#BDC1C6"/>
	<rect opacity="0.3" x="60.0625" y="84.834" width="10.6312" height="10.6312" rx="1.99052" fill="#BDC1C6"/>
	<rect opacity="0.3" x="60.0625" y="102.907" width="10.6312" height="10.6312" rx="1.99052" fill="#BDC1C6"/>
	<rect opacity="0.3" x="77.0234" y="66.7607" width="10.6312" height="10.6312" rx="1.99052" fill="#BDC1C6"/>
	<rect x="77.0234" y="84.834" width="10.6312" height="10.6312" rx="1.99052" fill="#C9CCD0"/>
	<rect opacity="0.3" x="77.0234" y="102.907" width="10.6312" height="10.6312" rx="1.99052" fill="#BDC1C6"/>
	<rect opacity="0.3" x="93.9844" y="66.7607" width="10.6312" height="10.6312" rx="1.99052" fill="#BDC1C6"/>
	<rect opacity="0.3" x="93.9844" y="84.834" width="10.6312" height="10.6312" rx="1.99052" fill="#BDC1C6"/>
	<rect opacity="0.3" x="93.9844" y="102.907" width="10.6312" height="10.6312" rx="1.99052" fill="#BDC1C6"/>
	<rect opacity="0.3" x="110.945" y="66.7607" width="10.6312" height="10.6312" rx="1.99052" fill="#BDC1C6"/>
	<rect opacity="0.3" x="110.945" y="84.834" width="10.6312" height="10.6312" rx="1.99052" fill="#BDC1C6"/>
	<rect opacity="0.3" x="127.906" y="66.7607" width="10.6312" height="10.6312" rx="1.99052" fill="#BDC1C6"/>
	<rect opacity="0.3" x="127.906" y="84.834" width="10.6312" height="10.6312" rx="1.99052" fill="#BDC1C6"/>
	<rect opacity="0.25" x="69.043" y="31.8364" width="7.44184" height="19.1361" rx="3.72092" fill="#BDC1C6"/>
	<rect x="69.043" y="29.7104" width="7.44184" height="19.1361" rx="3.72092" fill="#BDC1C6"/>
	<rect opacity="0.25" x="123.266" y="31.8364" width="7.44184" height="19.1361" rx="3.72092" fill="#BDC1C6"/>
	<rect x="123.266" y="29.7104" width="7.44184" height="19.1361" rx="3.72092" fill="#BDC1C6"/>
	<defs>
		<filter id="filter0_d_510_5255" x="48.4333" y="36.4727" width="101.821" height="40.3403" filterUnits="userSpaceOnUse" color-interpolation-filters="sRGB">
			<feFlood flood-opacity="0" result="BackgroundImageFix"/>
			<feColorMatrix in="SourceAlpha" type="matrix" values="0 0 0 0 0 0 0 0 0 0 0 0 0 0 0 0 0 0 127 0" result="hardAlpha"/>
			<feOffset dy="0.846437"/>
			<feGaussianBlur stdDeviation="1.26966"/>
			<feComposite in2="hardAlpha" operator="out"/>
			<feColorMatrix type="matrix" values="0 0 0 0 0 0 0 0 0 0.294118 0 0 0 0 0.388235 0 0 0 0.09 0"/>
			<feBlend mode="normal" in2="BackgroundImageFix" result="effect1_dropShadow_510_5255"/>
			<feBlend mode="normal" in="SourceGraphic" in2="effect1_dropShadow_510_5255" result="shape"/>
		</filter>
		<filter id="filter1_d_510_5255" x="48.4333" y="59.166" width="101.821" height="72.8897" filterUnits="userSpaceOnUse" color-interpolation-filters="sRGB">
			<feFlood flood-opacity="0" result="BackgroundImageFix"/>
			<feColorMatrix in="SourceAlpha" type="matrix" values="0 0 0 0 0 0 0 0 0 0 0 0 0 0 0 0 0 0 127 0" result="hardAlpha"/>
			<feOffset dy="0.846437"/>
			<feGaussianBlur stdDeviation="1.26966"/>
			<feComposite in2="hardAlpha" operator="out"/>
			<feColorMatrix type="matrix" values="0 0 0 0 0 0 0 0 0 0.294118 0 0 0 0 0.388235 0 0 0 0.09 0"/>
			<feBlend mode="normal" in2="BackgroundImageFix" result="effect1_dropShadow_510_5255"/>
			<feBlend mode="normal" in="SourceGraphic" in2="effect1_dropShadow_510_5255" result="shape"/>
		</filter>
	</defs>
</svg>