<svg width="39" height="38" viewBox="0 0 39 38" fill="none" xmlns="http://www.w3.org/2000/svg">
	<path d="M24.3788 14.125H14.6289V23.8749H24.3788V14.125Z" fill="white"/>
	<path d="M24.375 28.263L28.7625 23.8755H24.375V28.263Z" fill="#EA4335"/>
	<path d="M28.7625 14.125H24.375V23.8749H28.7625V14.125Z" fill="#FBBC04"/>
	<path d="M24.3788 23.8755H14.6289V28.263H24.3788V23.8755Z" fill="#34A853"/>
	<path d="M10.2383 23.8755V26.8005C10.2383 27.6085 10.8927 28.263 11.7008 28.263H14.6258V23.8755H10.2383Z" fill="#188038"/>
	<path d="M28.7625 14.1253V11.2003C28.7625 10.3923 28.108 9.73779 27.3 9.73779H24.375V14.1253H28.7625Z" fill="#1967D2"/>
	<path d="M24.3757 9.73779H11.7008C10.8927 9.73779 10.2383 10.3923 10.2383 11.2003V23.8752H14.6258V14.1253H24.3757V9.73779Z" fill="#4285F4"/>
	<path d="M16.6294 21.6888C16.265 21.4426 16.0127 21.0831 15.875 20.6078L16.7208 20.2592C16.7976 20.5517 16.9316 20.7784 17.123 20.9393C17.3131 21.1001 17.5447 21.1794 17.8152 21.1794C18.0919 21.1794 18.3295 21.0953 18.5282 20.9271C18.7269 20.7589 18.8268 20.5444 18.8268 20.2848C18.8268 20.0191 18.722 19.8022 18.5124 19.634C18.3027 19.4658 18.0395 19.3817 17.725 19.3817H17.2363V18.5444H17.6751C17.9456 18.5444 18.1735 18.4713 18.3588 18.3251C18.544 18.1788 18.6367 17.9789 18.6367 17.7242C18.6367 17.4975 18.5538 17.3172 18.388 17.1819C18.2223 17.0466 18.0127 16.9784 17.758 16.9784C17.5093 16.9784 17.3119 17.0442 17.1656 17.177C17.0195 17.3102 16.9096 17.4784 16.8463 17.6657L16.0091 17.3172C16.12 17.0027 16.3235 16.7249 16.6221 16.4848C16.9207 16.2447 17.3021 16.124 17.7653 16.124C18.1077 16.124 18.4161 16.1898 18.6891 16.3227C18.9621 16.4555 19.1766 16.6396 19.3314 16.8736C19.4861 17.1088 19.5629 17.372 19.5629 17.6645C19.5629 17.9631 19.491 18.2154 19.3472 18.4226C19.2034 18.6298 19.0267 18.7882 18.817 18.8991V18.9491C19.0877 19.0607 19.3228 19.244 19.4971 19.4792C19.6738 19.7169 19.7628 20.0008 19.7628 20.3323C19.7628 20.6638 19.6787 20.96 19.5105 21.2196C19.3423 21.4792 19.1095 21.6839 18.8146 21.8326C18.5185 21.9813 18.1857 22.0569 17.8165 22.0569C17.3887 22.0581 16.9938 21.935 16.6294 21.6888V21.6888ZM21.8249 17.4915L20.8962 18.163L20.4319 17.4585L22.0979 16.2569H22.7365V21.9252H21.8249V17.4915Z" fill="#4285F4"/>
</svg>