<svg width="867" height="500" viewBox="0 0 867 500" fill="none" xmlns="http://www.w3.org/2000/svg">
<path fill-rule="evenodd" clip-rule="evenodd" d="M0 0L867 0L867 500L0 500L0 0Z" fill="#FBE6EB"/>
<mask id="mask0" mask-type="alpha" maskUnits="userSpaceOnUse" x="0" y="0" width="867" height="500">
<path fill-rule="evenodd" clip-rule="evenodd" d="M0 0L867 0L867 500L0 500L0 0Z" fill="white"/>
</mask>
<g mask="url(#mask0)">
<g opacity="0.193499">
<path fill-rule="evenodd" clip-rule="evenodd" d="M279.743 259.768C274.5 259.737 270.392 263.721 270.55 268.685C270.699 273.381 274.804 277.529 279.381 277.606C284.483 277.692 288.379 273.755 288.384 268.506C288.391 263.501 284.728 259.797 279.743 259.768M285.394 348.198C284.639 334.531 301.661 325.727 315.721 331.739C311.127 346.915 302.796 351.435 285.394 348.198M280.204 294.371C273.568 303.24 266.594 305.252 259.702 300.541C252.523 295.634 252.061 288.003 258.35 278.161C249.065 276.113 243.787 269.55 245.389 262.04C247.408 252.567 253.563 249.363 265.436 251.604C267.225 239.201 271.088 234.338 279.188 234.287C286.898 234.238 291.499 239.541 293.229 250.627C298.226 249.807 303.256 248.38 308.023 251.723C310.944 253.77 312.688 256.508 313.557 259.776C315.637 267.587 310.965 274.194 301.478 277.134C307.823 285.796 307.83 294.273 301.494 299.26C294.979 304.388 287.84 302.833 280.204 294.371M244.752 331.115C252.074 328.995 259.137 329.042 265.883 332.786C271.833 336.089 274.472 341.452 274.884 348.349C257.472 350.185 249.611 348.134 244.752 331.115M304.943 320.968C297.28 321.159 290.757 324.264 284.444 328.526V310.051C303.63 314.902 318.895 301.67 314.889 280.869C328.608 268.282 324.985 242.919 300.254 239.561C291.544 220.676 266.529 219.763 257.265 240.984C236.233 244.323 228.86 267.22 244.935 282.974C242.684 300.467 254.007 314.734 274.571 311.414V327.463C261.116 318.412 247.627 319.813 233.397 324.895C234.7 331.782 236.541 338.028 240.015 343.84C245.644 353.258 253.593 358.03 264.749 357.757C275.869 357.487 287.001 357.695 298.128 357.764C304.6 357.804 309.964 355.381 314.641 351.006C322.189 343.941 324.977 334.755 327.064 324.917C319.582 322.475 312.491 320.779 304.943 320.968" fill="white"/>
</g>
<g opacity="0.222982">
<path fill-rule="evenodd" clip-rule="evenodd" d="M724.018 84.582C703.545 84.4603 687.502 100.021 688.12 119.404C688.702 137.744 704.732 153.943 722.605 154.243C742.529 154.577 757.742 139.204 757.764 118.704C757.79 99.1605 743.486 84.6949 724.018 84.582M746.088 429.913C743.136 376.542 809.612 342.159 864.517 365.639C846.575 424.9 814.041 442.554 746.088 429.913M725.819 219.71C699.905 254.345 672.67 262.203 645.756 243.806C617.721 224.645 615.917 194.845 640.475 156.409C604.217 148.411 583.605 122.782 589.86 93.4553C597.745 56.4617 621.781 43.9509 668.15 52.6998C675.134 4.26832 690.221 -14.7237 721.851 -14.9235C751.959 -15.1147 769.928 5.59325 776.682 48.8857C796.198 45.6842 815.84 40.1108 834.456 53.1646C845.861 61.1619 852.672 71.8525 856.067 84.6153C864.186 115.119 845.944 140.918 808.894 152.399C833.674 186.226 833.7 219.328 808.959 238.802C783.515 258.828 755.636 252.755 725.819 219.71M587.375 363.203C615.967 354.923 643.55 355.105 669.894 369.727C693.131 382.625 703.436 403.567 705.044 430.5C637.048 437.672 606.348 429.662 587.375 363.203M822.426 323.577C792.5 324.324 767.03 336.448 742.376 353.09V280.944C817.301 299.889 876.91 248.216 861.266 166.983C914.842 117.831 900.694 18.7872 804.114 5.67261C770.103 -68.0758 672.415 -71.6422 636.238 11.2286C554.107 24.2693 525.315 113.682 588.088 175.207C579.299 243.516 623.516 299.233 703.822 286.266V348.941C651.277 313.594 598.602 319.067 543.032 338.911C548.121 365.805 555.311 390.196 568.876 412.894C590.856 449.67 621.899 468.306 665.464 467.242C708.891 466.186 752.36 466.999 795.812 467.268C821.087 467.424 842.033 457.963 860.297 440.878C889.775 413.289 900.663 377.416 908.813 338.998C879.596 329.463 851.904 322.838 822.426 323.577" fill="white"/>
</g>
</g>
</svg>
