<svg width="16" height="16" viewBox="0 0 16 16" version="1.1" xmlns="http://www.w3.org/2000/svg" xmlns:xlink="http://www.w3.org/1999/xlink">
<title>Shape</title>
<desc>Created using Figma</desc>
<g id="Canvas" transform="translate(-8865 -470)">
<g id="Shape">
<g id="Shape">
<use xlink:href="#path0_fill" transform="translate(8865 470)" fill="#B1B7C5"/>
</g>
<g id="Shape">
<use xlink:href="#path1_fill" transform="translate(8869.9 473.316)" fill="#FFFFFF"/>
</g>
</g>
</g>
<defs>
<path id="path0_fill" d="M 15.9729 7.98654C 15.9729 3.57537 12.3972 0 7.98658 0C 3.57569 -4.6115e-16 0 3.57537 0 7.98654C 0 12.397 3.57569 15.9727 7.98658 15.9727C 12.3972 15.9727 15.9729 12.397 15.9729 7.98654Z"/>
<path id="path1_fill" fill-rule="evenodd" d="M 0.0947266 1.9888C 0.03125 2.18683 0 2.38358 0 2.57901C 0 2.76825 0.0791016 2.94406 0.237305 3.10654C 0.395508 3.26907 0.589844 3.35025 0.820312 3.35025C 1.21094 3.35025 1.47656 3.11792 1.61621 2.65305C 1.76465 2.20883 1.94531 1.87256 2.15918 1.64429C 2.37305 1.41599 2.70605 1.30185 3.15918 1.30185C 3.5459 1.30185 3.86133 1.41504 4.10645 1.6412C 4.35059 1.86746 4.47363 2.14508 4.47363 2.47412C 4.47363 2.64282 4.43262 2.7991 4.35254 2.94302C 4.27246 3.0871 4.17383 3.21759 4.05664 3.33484C 3.93945 3.45206 3.74902 3.62589 3.48633 3.8562C 3.27832 4.03848 3.09961 4.20346 2.95117 4.3512C 2.88574 4.41687 2.8252 4.47913 2.77051 4.53799C 2.59375 4.72922 2.45117 4.95132 2.34473 5.20432C 2.2373 5.45728 2.18457 5.7565 2.18457 6.10202C 2.18457 6.37766 2.25684 6.58539 2.40332 6.72519C 2.54883 6.86508 2.72949 6.93497 2.94336 6.93497C 3.35449 6.93497 3.59863 6.7211 3.67676 6.29327C 3.72266 6.0918 3.75586 5.95084 3.7793 5.87067C 3.80176 5.79044 3.83301 5.71024 3.875 5.63C 3.91602 5.54984 3.97852 5.46143 4.0625 5.36475C 4.11523 5.30444 4.17871 5.2381 4.25293 5.16571C 4.29785 5.12213 4.34668 5.07639 4.39941 5.02844C 4.90527 4.57599 5.25586 4.25412 5.45117 4.06284C 5.64648 3.87161 5.81543 3.64435 5.95703 3.38107C 6.09863 3.11792 6.16992 2.81143 6.16992 2.46176C 6.16992 2.01755 6.0459 1.60629 5.79688 1.22778C 5.54785 0.849426 5.19531 0.550171 4.73828 0.330078C 4.28223 0.110107 3.75488 0 3.15918 0C 2.51758 0 1.95605 0.131653 1.47461 0.394867C 0.993164 0.658142 0.626953 0.990265 0.375977 1.3913C 0.250977 1.59177 0.157227 1.79092 0.0947266 1.9888ZM 2.35352 9.0975C 2.54102 9.25995 2.75977 9.34122 3.01074 9.34122C 3.25391 9.34122 3.46777 9.25894 3.65234 9.09442C 3.83789 8.92993 3.93066 8.7037 3.93066 8.41574C 3.93066 8.15659 3.8418 7.93863 3.66504 7.76172C 3.48828 7.5849 3.27051 7.49643 3.01074 7.49643C 2.89551 7.49643 2.78809 7.51349 2.68848 7.54761C 2.56055 7.59116 2.44629 7.66254 2.34473 7.76172C 2.16406 7.93863 2.07324 8.15659 2.07324 8.41574C 2.07324 8.70782 2.16699 8.93509 2.35352 9.0975Z"/>
</defs>
</svg>
