<svg width="220" height="273" viewBox="0 0 220 273" version="1.1" xmlns="http://www.w3.org/2000/svg" xmlns:xlink="http://www.w3.org/1999/xlink">
<title>Group 46</title>
<desc>Created using Figma</desc>
<g id="Canvas" transform="translate(-8948 -46)">
<g id="Group 46">
<g id="001 copy 5">
<g id="Rectangle 8">
<use xlink:href="#path0_fill" transform="translate(8948 46)" fill="#FFFFFF"/>
<mask id="mask0_outline_ins">
<use xlink:href="#path0_fill" fill="white" transform="translate(8948 46)"/>
</mask>
<g mask="url(#mask0_outline_ins)">
<use xlink:href="#path1_stroke_2x" transform="translate(8948 46)" fill="#49515C" fill-opacity="0.31216"/>
</g>
</g>
<g id="Rectangle 8 Copy" opacity="0.298528">
<use xlink:href="#path2_fill" transform="translate(8956 72)" fill="#55D0E0"/>
</g>
<g id="Rectangle 8 Copy 3" opacity="0.298528">
<use xlink:href="#path3_fill" transform="translate(9099 141)" fill="#55D0E0"/>
</g>
<g id="Rectangle 8 Copy 2" opacity="0.298528">
<use xlink:href="#path2_fill" transform="translate(8956 251)" fill="#55D0E0"/>
</g>
<g id="Rectangle 8">
<use xlink:href="#path4_fill" transform="translate(8948 46)" fill="#ADB2B8"/>
</g>
<g id="Rectangle 10">
<use xlink:href="#path5_fill" transform="translate(8956 52)" fill="#FFFFFF"/>
</g>
<g id="Rectangle 10 Copy">
<use xlink:href="#path5_fill" transform="translate(8967 52)" fill="#FFFFFF"/>
</g>
<g id="Rectangle 10 Copy 2">
<use xlink:href="#path5_fill" transform="translate(8978 52)" fill="#FFFFFF"/>
</g>
</g>
<g id="1">
<use xlink:href="#path6_fill" transform="translate(9052 90)" fill="#525C69"/>
</g>
<g id="2">
<use xlink:href="#path7_fill" transform="translate(9123 179)" fill="#525C69"/>
</g>
<g id="3">
<use xlink:href="#path8_fill" transform="translate(9052 269)" fill="#525C69"/>
</g>
</g>
</g>
<defs>
<path id="path0_fill" fill-rule="evenodd" d="M 0 4C 0 1.79086 1.79086 0 4 0L 216 0C 218.209 0 220 1.79086 220 4L 220 269C 220 271.209 218.209 273 216 273L 4 273C 1.79086 273 0 271.209 0 269L 0 4Z"/>
<path id="path1_stroke_2x" d="M 4 1L 216 1L 216 -1L 4 -1L 4 1ZM 219 4L 219 269L 221 269L 221 4L 219 4ZM 216 272L 4 272L 4 274L 216 274L 216 272ZM 1 269L 1 4L -1 4L -1 269L 1 269ZM 4 272C 2.34314 272 1 270.657 1 269L -1 269C -1 271.761 1.23857 274 4 274L 4 272ZM 219 269C 219 270.657 217.657 272 216 272L 216 274C 218.761 274 221 271.761 221 269L 219 269ZM 216 1C 217.657 1 219 2.34314 219 4L 221 4C 221 1.23858 218.761 -1 216 -1L 216 1ZM 4 -1C 1.23858 -1 -1 1.23858 -1 4L 1 4C 1 2.34315 2.34315 1 4 1L 4 -1Z"/>
<path id="path2_fill" fill-rule="evenodd" d="M 0 2C 0 0.895432 0.895431 0 2 0L 202 0C 203.105 0 204 0.89543 204 2L 204 59C 204 60.1046 203.105 61 202 61L 1.99999 61C 0.895424 61 0 60.1046 0 59L 0 2Z"/>
<path id="path3_fill" fill-rule="evenodd" d="M 0 2C 0 0.89543 0.89543 0 2 0L 59 0C 60.1046 0 61 0.895431 61 2L 61 100C 61 101.105 60.1046 102 59 102L 2 102C 0.895432 102 0 101.105 0 100L 0 2Z"/>
<path id="path4_fill" fill-rule="evenodd" d="M 0 4C 0 1.79086 1.79086 0 4 0L 216 0C 218.209 0 220 1.79086 220 4L 220 18L 0 18L 0 4Z"/>
<path id="path5_fill" fill-rule="evenodd" d="M 0 3.5C 0 1.567 1.567 0 3.5 0C 5.433 0 7 1.567 7 3.5C 7 5.433 5.433 7 3.5 7C 1.567 7 0 5.433 0 3.5Z"/>
<path id="path6_fill" d="M 9.03516 20L 6.0166 20L 6.0166 8.62402C 4.91374 9.65527 3.61393 10.418 2.11719 10.9121L 2.11719 8.17285C 2.90495 7.91504 3.76074 7.42806 4.68457 6.71191C 5.6084 5.98861 6.24219 5.14714 6.58594 4.1875L 9.03516 4.1875L 9.03516 20Z"/>
<path id="path7_fill" d="M 11.5059 17.1963L 11.5059 20L 0.924805 20C 1.03939 18.9401 1.38314 17.9375 1.95605 16.9922C 2.52897 16.0397 3.66048 14.7793 5.35059 13.2109C 6.71126 11.9434 7.54557 11.084 7.85352 10.6328C 8.26888 10.0098 8.47656 9.39388 8.47656 8.78516C 8.47656 8.11198 8.29395 7.59635 7.92871 7.23828C 7.57064 6.87305 7.07292 6.69043 6.43555 6.69043C 5.80534 6.69043 5.30404 6.88021 4.93164 7.25977C 4.55924 7.63932 4.3444 8.26953 4.28711 9.15039L 1.2793 8.84961C 1.45833 7.18815 2.02051 5.99577 2.96582 5.27246C 3.91113 4.54915 5.09277 4.1875 6.51074 4.1875C 8.06478 4.1875 9.28581 4.60645 10.1738 5.44434C 11.0618 6.28223 11.5059 7.32422 11.5059 8.57031C 11.5059 9.2793 11.377 9.95605 11.1191 10.6006C 10.8685 11.238 10.4674 11.9076 9.91602 12.6094C 9.55078 13.0749 8.89193 13.7445 7.93945 14.6182C 6.98698 15.4919 6.38184 16.0719 6.12402 16.3584C 5.87337 16.6449 5.66927 16.9242 5.51172 17.1963L 11.5059 17.1963Z"/>
<path id="path8_fill" d="M 1.2041 15.8213L 4.12598 15.4668C 4.21908 16.2116 4.46973 16.7809 4.87793 17.1748C 5.28613 17.5687 5.78027 17.7656 6.36035 17.7656C 6.9834 17.7656 7.50619 17.5293 7.92871 17.0566C 8.3584 16.584 8.57324 15.9466 8.57324 15.1445C 8.57324 14.3854 8.36914 13.7839 7.96094 13.3398C 7.55273 12.8958 7.05501 12.6738 6.46777 12.6738C 6.08105 12.6738 5.61914 12.749 5.08203 12.8994L 5.41504 10.4395C 6.23145 10.4609 6.85449 10.2855 7.28418 9.91309C 7.71387 9.53353 7.92871 9.03223 7.92871 8.40918C 7.92871 7.87923 7.77116 7.45671 7.45605 7.1416C 7.14095 6.8265 6.72201 6.66895 6.19922 6.66895C 5.68359 6.66895 5.24316 6.84798 4.87793 7.20605C 4.5127 7.56413 4.29069 8.08691 4.21191 8.77441L 1.42969 8.30176C 1.62305 7.34928 1.91309 6.59017 2.2998 6.02441C 2.69368 5.4515 3.23796 5.00391 3.93262 4.68164C 4.63444 4.35221 5.41862 4.1875 6.28516 4.1875C 7.76758 4.1875 8.95638 4.66016 9.85156 5.60547C 10.5892 6.37891 10.958 7.2526 10.958 8.22656C 10.958 9.60872 10.2025 10.7116 8.69141 11.5352C 9.59375 11.7285 10.3135 12.1618 10.8506 12.835C 11.3949 13.5081 11.667 14.321 11.667 15.2734C 11.667 16.6556 11.1621 17.8337 10.1523 18.8076C 9.14258 19.7816 7.88574 20.2686 6.38184 20.2686C 4.95671 20.2686 3.77507 19.8604 2.83691 19.0439C 1.89876 18.2204 1.35449 17.1462 1.2041 15.8213Z"/>
</defs>
</svg>
