<svg xmlns="http://www.w3.org/2000/svg" width="181" height="107" fill="none"><path fill="#959CA4" d="M21 7.271c0-3.999 3.227-7.24 7.208-7.24h123.584C155.773.03 159 3.271 159 7.27v92.759H21V7.271Z"/><path fill="#fff" d="M27 8.772c0-1.514 1.183-2.742 2.643-2.742h120.713c1.46 0 2.644 1.228 2.644 2.742v78.516c0 1.515-1.184 2.742-2.644 2.742H29.644c-1.46 0-2.644-1.227-2.644-2.742V8.772Z"/><path fill="#fff" fill-opacity=".2" d="M27 8.772c0-1.514 1.183-2.742 2.643-2.742h120.713c1.46 0 2.644 1.228 2.644 2.742v78.516c0 1.515-1.184 2.742-2.644 2.742H29.644c-1.46 0-2.644-1.227-2.644-2.742V8.772Z"/><path fill="#C9CCD0" d="M5 97.697c0 2.945 2.706 5.333 6.044 5.333h157.912c3.338 0 6.044-2.388 6.044-5.333 0-.368-.338-.667-.756-.667H5.756c-.418 0-.756.299-.756.667Z"/><path fill="#fff" d="M82.504 92.58c0-.624.508-1.13 1.136-1.13h13.63c.628 0 1.136.506 1.136 1.13 0 .623-.508 1.129-1.135 1.129H83.64a1.133 1.133 0 0 1-1.136-1.13Z" opacity=".3"/><rect width="114" height="20" x="33" y="13.03" fill="#C3F0FF" rx="1.765"/><rect width="114" height="18" x="33" y="37.03" fill="#C3F0FF" rx="1.765"/><rect width="114" height="24" x="33" y="59.03" fill="#C3F0FF" rx="1.765"/></svg>