<svg xmlns="http://www.w3.org/2000/svg" width="180" height="111" fill="none"><path fill="#A8ADB4" d="M21 10.741c0-4 3.227-7.241 7.208-7.241h123.584c3.981 0 7.208 3.242 7.208 7.241V103.5H21V10.741Z"/><path fill="#F8F9FA" d="M27 12.242c0-1.514 1.183-2.742 2.643-2.742h120.713c1.46 0 2.644 1.228 2.644 2.742v78.516c0 1.514-1.184 2.742-2.644 2.742H29.644c-1.46 0-2.644-1.228-2.644-2.742V12.242Z"/><path fill="#fff" d="M27 12.242c0-1.514 1.183-2.742 2.643-2.742h120.713c1.46 0 2.644 1.228 2.644 2.742v78.516c0 1.514-1.184 2.742-2.644 2.742H29.644c-1.46 0-2.644-1.228-2.644-2.742V12.242Z"/><path fill="#D5D7DB" d="M4.676 100.964c0 3.326 2.712 6.022 6.058 6.022H169c3.346 0 6.058-2.696 6.058-6.022a.755.755 0 0 0-.757-.753H5.433a.755.755 0 0 0-.757.753Z"/><path fill="#fff" d="M81.894 96.196c0-.624.51-1.13 1.136-1.13h13.631c.627 0 1.136.506 1.136 1.13 0 .624-.509 1.13-1.136 1.13h-13.63a1.133 1.133 0 0 1-1.137-1.13Z" opacity=".3"/><rect width="83" height="20" x="33" y="16.5" fill="#C3F0FF" opacity=".8" rx="1.765"/><rect width="83" height="20" x="33" y="40.5" fill="#C3F0FF" opacity=".8" rx="1.765"/><rect width="83" height="22" x="33" y="64.5" fill="#C3F0FF" opacity=".8" rx="1.765"/><rect width="28" height="20" x="119" y="16.5" fill="#7FDEFC" opacity=".65" rx="1.765"/><rect width="28" height="20" x="119" y="40.5" fill="#7FDEFC" opacity=".65" rx="1.765"/><rect width="28" height="22" x="119" y="64.5" fill="#7FDEFC" opacity=".65" rx="1.765"/></svg>