<svg xmlns="http://www.w3.org/2000/svg" width="15.875" height="15.78" viewBox="0 0 15.875 15.78">
  <defs>
    <style>
      .cls-1 {
        fill: #7e858e;
        fill-rule: evenodd;
      }
    </style>
  </defs>
  <path id="Forma_1_copy_2" data-name="Forma 1 copy 2" class="cls-1" d="M525.611,3430.21a0.534,0.534,0,0,0-.534.53v2.52a0.534,0.534,0,0,0,.534.53h0.457a0.534,0.534,0,0,0,.534-0.53v-2.52a0.534,0.534,0,0,0-.534-0.53h-0.457Zm8.385,0a0.534,0.534,0,0,0-.534.53v2.52a0.534,0.534,0,0,0,.534.53h0.457a0.534,0.534,0,0,0,.534-0.53v-2.52a0.534,0.534,0,0,0-.534-0.53H534Zm-10.672,15.78h7.547a5.825,5.825,0,0,1-.114-1.15c0-.13,0-0.25.014-0.38h-6.38a0.914,0.914,0,0,1-.914-0.91v-7.32h13.111v2.83c0.1-.01.2-0.01,0.3-0.01a5.387,5.387,0,0,1,1.068.1v-5.97a1.222,1.222,0,0,0-1.22-1.22h-0.991v1.3a1.3,1.3,0,0,1-1.3,1.29H534a1.3,1.3,0,0,1-1.3-1.29v-1.3h-5.336v1.3a1.3,1.3,0,0,1-1.3,1.29h-0.457a1.3,1.3,0,0,1-1.3-1.29v-1.3h-0.991a1.222,1.222,0,0,0-1.219,1.22v11.59A1.222,1.222,0,0,0,523.324,3445.99Zm3.078-8.68a1.21,1.21,0,1,1-1.21,1.21A1.209,1.209,0,0,1,526.4,3437.31Zm3.63,0a1.21,1.21,0,1,1-1.21,1.21A1.209,1.209,0,0,1,530.032,3437.31Zm3.63,0a1.21,1.21,0,1,1-1.21,1.21A1.208,1.208,0,0,1,533.662,3437.31Zm-3.63,3.65a1.21,1.21,0,1,1-1.21,1.21A1.215,1.215,0,0,1,530.032,3440.96Zm-3.63,0a1.21,1.21,0,1,1-1.21,1.21A1.215,1.215,0,0,1,526.4,3440.96Zm11.548-7.78v11.59a1.222,1.222,0,0,1-1.22,1.22h-7.546a5.9,5.9,0,0,0,.114-1.15c0-.13-0.006-0.25-0.014-0.38h6.379a0.914,0.914,0,0,0,.915-0.91v-7.32" transform="translate(-522.094 -3430.22)"/>
</svg>
