<svg xmlns="http://www.w3.org/2000/svg" width="72" height="490" viewBox="0 0 72 490">
  <g fill="none" fill-rule="evenodd">
    <g opacity=".54">
      <circle cx="36" cy="36" r="36" fill="#FFFFFF" opacity=".2"/>
      <circle cx="36.214" cy="36.214" r="29.189" fill="#0082FF" opacity=".8"/>
      <path fill="#FFFFFF" d="M43.2789964,36.220556 L43.2789964,27.0786209 C43.2789964,25.8694067 42.0623818,24.5853659 40.825029,24.5853659 L25.2832357,24.5853659 C24.0457968,24.5853659 22.8292683,25.8694067 22.8292683,27.0786209 L22.8292683,36.220556 C22.8292683,37.6893934 24.0457968,38.9732526 25.2832357,38.713811 L27.737203,38.713811 L27.737203,42.038151 L27.737203,43.7003211 L28.5551922,43.7003211 C28.5901139,43.7003211 28.8084607,42.7777913 29.3731813,42.869236 L32.6451378,38.713811 L40.825029,38.713811 C42.0623818,38.9732526 43.2789964,37.6893934 43.2789964,36.220556 L43.2789964,36.220556 Z M45.7329638,32.8962159 L45.7329638,37.051641 C46.0388725,39.1649807 44.1913619,41.0536169 41.6430181,41.207066 L34.281116,41.207066 L32.6451378,42.869236 C32.8393381,43.8554241 33.824509,44.7365151 35.0991051,44.5314061 L41.6430181,44.5314061 L44.0969855,47.8557461 C44.6440033,47.7661707 44.9149746,48.6868311 44.9149746,48.6868311 L45.7329638,48.6868311 L45.7329638,47.0246611 L45.7329638,44.5314061 L47.368942,44.5314061 C48.7472449,44.7364262 49.8229094,43.6364621 49.8229094,42.038151 L49.8229094,35.389471 C49.8228224,33.9960024 48.747158,32.8962159 47.368942,32.8962159 L45.7329638,32.8962159 L45.7329638,32.8962159 Z"/>
    </g>
    <g transform="translate(0 245)">
      <circle cx="36" cy="36" r="36" fill="#FFFFFF" opacity=".2"/>
      <circle cx="36.214" cy="36.214" r="29.189" fill="#0082FF" opacity=".8"/>
      <path fill="#FFFFFF" d="M45.1375925,25.4634146 L26.6097104,25.4634146 C25.978078,25.4634146 25.4634146,25.978078 25.4634146,26.6097104 L25.4634146,45.1375925 C25.4634146,45.7692248 25.978078,46.2838882 26.6097104,46.2838882 L45.1375925,46.2838882 C45.7692248,46.2838882 46.2838882,45.7692248 46.2838882,45.1375925 L46.2838882,26.6019124 C46.2760903,25.978078 45.7614269,25.4634146 45.1375925,25.4634146 L45.1375925,25.4634146 L45.1375925,25.4634146 Z M37.152512,41.3088088 C37.152512,41.6675136 36.8561906,41.956037 36.5052838,41.956037 L28.886706,41.956037 C28.5280012,41.956037 28.2394778,41.6597156 28.2394778,41.3088088 L28.2394778,39.8739896 C28.2394778,39.5152848 28.5357991,39.2267614 28.886706,39.2267614 L36.5052838,39.2267614 C36.8639886,39.2267614 37.152512,39.5230828 37.152512,39.8739896 L37.152512,41.3088088 L37.152512,41.3088088 L37.152512,41.3088088 Z M43.515623,36.2245583 C43.515623,36.5832631 43.2193017,36.8717865 42.8683948,36.8717865 L28.8789081,36.8717865 C28.5202033,36.8717865 28.2316799,36.5754652 28.2316799,36.2245583 L28.2316799,34.7897391 C28.2316799,34.4310344 28.5280012,34.1425109 28.8789081,34.1425109 L42.8605969,34.1425109 C43.2193017,34.1425109 43.5078251,34.4388323 43.5078251,34.7897391 L43.5078251,36.2245583 L43.515623,36.2245583 L43.515623,36.2245583 Z M43.515623,31.1325099 C43.515623,31.4912147 43.2193017,31.7797381 42.8683948,31.7797381 L28.8789081,31.7797381 C28.5202033,31.7797381 28.2316799,31.4834167 28.2316799,31.1325099 L28.2316799,29.6976907 C28.2316799,29.3389859 28.5280012,29.0504625 28.8789081,29.0504625 L42.8605969,29.0504625 C43.2193017,29.0504625 43.5078251,29.3467839 43.5078251,29.6976907 L43.5078251,31.1325099 L43.515623,31.1325099 L43.515623,31.1325099 Z"/>
    </g>
    <g style="mix-blend-mode:luminosity" transform="translate(0 162)" opacity=".537">
      <circle cx="36" cy="36" r="36" fill="#FFFFFF" opacity=".2"/>
      <circle cx="36.214" cy="36.214" r="29.189" fill="#0082FF" opacity=".8"/>
      <path fill="#FFFFFF" d="M45.1375925,25.4634146 L26.6097104,25.4634146 C25.978078,25.4634146 25.4634146,25.978078 25.4634146,26.6097104 L25.4634146,45.1375925 C25.4634146,45.7692248 25.978078,46.2838882 26.6097104,46.2838882 L45.1375925,46.2838882 C45.7692248,46.2838882 46.2838882,45.7692248 46.2838882,45.1375925 L46.2838882,26.6019124 C46.2760903,25.978078 45.7614269,25.4634146 45.1375925,25.4634146 L45.1375925,25.4634146 L45.1375925,25.4634146 Z M37.152512,41.3088088 C37.152512,41.6675136 36.8561906,41.956037 36.5052838,41.956037 L28.886706,41.956037 C28.5280012,41.956037 28.2394778,41.6597156 28.2394778,41.3088088 L28.2394778,39.8739896 C28.2394778,39.5152848 28.5357991,39.2267614 28.886706,39.2267614 L36.5052838,39.2267614 C36.8639886,39.2267614 37.152512,39.5230828 37.152512,39.8739896 L37.152512,41.3088088 L37.152512,41.3088088 L37.152512,41.3088088 Z M43.515623,36.2245583 C43.515623,36.5832631 43.2193017,36.8717865 42.8683948,36.8717865 L28.8789081,36.8717865 C28.5202033,36.8717865 28.2316799,36.5754652 28.2316799,36.2245583 L28.2316799,34.7897391 C28.2316799,34.4310344 28.5280012,34.1425109 28.8789081,34.1425109 L42.8605969,34.1425109 C43.2193017,34.1425109 43.5078251,34.4388323 43.5078251,34.7897391 L43.5078251,36.2245583 L43.515623,36.2245583 L43.515623,36.2245583 Z M43.515623,31.1325099 C43.515623,31.4912147 43.2193017,31.7797381 42.8683948,31.7797381 L28.8789081,31.7797381 C28.5202033,31.7797381 28.2316799,31.4834167 28.2316799,31.1325099 L28.2316799,29.6976907 C28.2316799,29.3389859 28.5280012,29.0504625 28.8789081,29.0504625 L42.8605969,29.0504625 C43.2193017,29.0504625 43.5078251,29.3467839 43.5078251,29.6976907 L43.5078251,31.1325099 L43.515623,31.1325099 L43.515623,31.1325099 Z"/>
    </g>
    <g style="mix-blend-mode:luminosity" transform="translate(0 327)" opacity=".537">
      <circle cx="36" cy="36" r="36" fill="#FFFFFF" opacity=".2"/>
      <circle cx="36.214" cy="36.214" r="29.189" fill="#0082FF" opacity=".8"/>
      <path fill="#FFFFFF" d="M42.9123637,40.3067256 C42.0802382,39.4570666 41.0414064,39.4570666 40.214581,40.3067256 C39.5838617,40.9535628 39.1121472,41.1618663 38.4920282,41.8196668 C38.322423,42.0005619 38.1793186,42.0389336 37.9726123,41.9183369 C37.5644998,41.6881067 37.1298865,41.5017299 36.7376744,41.249573 C34.9091184,40.0600504 33.3773714,38.5306643 32.0205298,36.8094196 C31.3474092,35.9542789 30.7484908,35.0388399 30.329778,34.0082858 C30.2449754,33.7999823 30.2608759,33.6629405 30.4251809,33.4930087 C31.0559003,32.8626166 31.2679068,32.6323864 31.8880258,31.9855492 C32.7519523,31.0865552 32.7519523,30.0340744 31.8827256,29.1295987 C31.3898105,28.6143216 30.9132199,27.9023622 30.5114146,27.3433962 C30.1096623,26.7844302 29.7944616,26.1201614 29.2803458,25.5994026 C28.4482203,24.760707 27.4093885,24.760707 26.5825631,25.6048843 C25.9465436,26.2517215 25.3370249,26.9150036 24.6904051,27.5508775 C24.0914868,28.1374163 23.7893775,28.8555151 23.7257755,29.6942108 C23.6250725,31.0591468 23.9483824,32.3473395 24.4041963,33.6026421 C25.3370249,36.2009541 26.7574685,38.5087376 28.4800213,40.6246625 C30.8067926,43.4860947 33.5840778,45.7500248 36.8330774,47.3835627 C38.2959222,48.1181066 39.8117687,48.6827187 41.4601192,48.7759071 C42.594354,48.8416872 43.5801842,48.545677 44.3699084,47.6302379 C44.910525,47.0053274 45.5200437,46.4352337 46.0924612,45.8377315 C46.9404872,44.9497009 46.9457874,43.8752934 46.1030615,42.998226 C45.0960307,41.9512269 43.9246948,41.3482431 42.9123637,40.3067256 L42.9123637,40.3067256 Z M42.48207,35.6002946 L42.7166552,35.5588531 C43.2285979,35.4684604 43.5540279,34.9382732 43.4107115,34.4220094 C43.002334,32.9508934 42.2410717,31.6186281 41.1827352,30.5196079 C40.0525286,29.3506964 38.6742213,28.5402862 37.1537637,28.1416591 C36.6491352,28.0093315 36.1449838,28.3592266 36.0726896,28.8923739 L36.0394045,29.138172 C35.9772336,29.5967686 36.2615343,30.0247226 36.6949816,30.1408244 C37.8593743,30.4527315 38.9163857,31.0753945 39.7834923,31.9722507 C40.5972793,32.8139064 41.1813042,33.8383759 41.4979889,34.9680386 C41.6209526,35.4068464 42.0466617,35.6772024 42.48207,35.6002946 L42.48207,35.6002946 Z M44.7285545,26.9510292 C42.689794,24.8424497 40.1627295,23.4355788 37.3697029,22.8473955 C36.8782188,22.7439016 36.4049143,23.0950026 36.3352702,23.6087996 L36.3020382,23.8540496 C36.2380122,24.3266792 36.5405985,24.7680634 36.9925434,24.8643763 C39.3968031,25.3769674 41.5735268,26.5926924 43.3293116,28.403672 C44.9840753,30.1151044 46.1298115,32.2300975 46.667937,34.560301 C46.7753183,35.0252015 47.2100376,35.3261452 47.6655865,35.2457291 L47.8982107,35.2046714 C48.397857,35.1164165 48.7178278,34.6089782 48.6001112,34.0990732 C47.975328,31.3934301 46.6479023,28.9409853 44.7285545,26.9510292 L44.7285545,26.9510292 Z"/>
    </g>
    <g transform="translate(0 409)">
      <circle cx="36" cy="36" r="36" fill="#FFFFFF" opacity=".2"/>
      <circle cx="36.214" cy="36.214" r="29.189" fill="#0082FF" opacity=".8"/>
      <path fill="#FFFFFF" d="M42.9123637,40.3067256 C42.0802382,39.4570666 41.0414064,39.4570666 40.214581,40.3067256 C39.5838617,40.9535628 39.1121472,41.1618663 38.4920282,41.8196668 C38.322423,42.0005619 38.1793186,42.0389336 37.9726123,41.9183369 C37.5644998,41.6881067 37.1298865,41.5017299 36.7376744,41.249573 C34.9091184,40.0600504 33.3773714,38.5306643 32.0205298,36.8094196 C31.3474092,35.9542789 30.7484908,35.0388399 30.329778,34.0082858 C30.2449754,33.7999823 30.2608759,33.6629405 30.4251809,33.4930087 C31.0559003,32.8626166 31.2679068,32.6323864 31.8880258,31.9855492 C32.7519523,31.0865552 32.7519523,30.0340744 31.8827256,29.1295987 C31.3898105,28.6143216 30.9132199,27.9023622 30.5114146,27.3433962 C30.1096623,26.7844302 29.7944616,26.1201614 29.2803458,25.5994026 C28.4482203,24.760707 27.4093885,24.760707 26.5825631,25.6048843 C25.9465436,26.2517215 25.3370249,26.9150036 24.6904051,27.5508775 C24.0914868,28.1374163 23.7893775,28.8555151 23.7257755,29.6942108 C23.6250725,31.0591468 23.9483824,32.3473395 24.4041963,33.6026421 C25.3370249,36.2009541 26.7574685,38.5087376 28.4800213,40.6246625 C30.8067926,43.4860947 33.5840778,45.7500248 36.8330774,47.3835627 C38.2959222,48.1181066 39.8117687,48.6827187 41.4601192,48.7759071 C42.594354,48.8416872 43.5801842,48.545677 44.3699084,47.6302379 C44.910525,47.0053274 45.5200437,46.4352337 46.0924612,45.8377315 C46.9404872,44.9497009 46.9457874,43.8752934 46.1030615,42.998226 C45.0960307,41.9512269 43.9246948,41.3482431 42.9123637,40.3067256 L42.9123637,40.3067256 Z M42.48207,35.6002946 L42.7166552,35.5588531 C43.2285979,35.4684604 43.5540279,34.9382732 43.4107115,34.4220094 C43.002334,32.9508934 42.2410717,31.6186281 41.1827352,30.5196079 C40.0525286,29.3506964 38.6742213,28.5402862 37.1537637,28.1416591 C36.6491352,28.0093315 36.1449838,28.3592266 36.0726896,28.8923739 L36.0394045,29.138172 C35.9772336,29.5967686 36.2615343,30.0247226 36.6949816,30.1408244 C37.8593743,30.4527315 38.9163857,31.0753945 39.7834923,31.9722507 C40.5972793,32.8139064 41.1813042,33.8383759 41.4979889,34.9680386 C41.6209526,35.4068464 42.0466617,35.6772024 42.48207,35.6002946 L42.48207,35.6002946 Z M44.7285545,26.9510292 C42.689794,24.8424497 40.1627295,23.4355788 37.3697029,22.8473955 C36.8782188,22.7439016 36.4049143,23.0950026 36.3352702,23.6087996 L36.3020382,23.8540496 C36.2380122,24.3266792 36.5405985,24.7680634 36.9925434,24.8643763 C39.3968031,25.3769674 41.5735268,26.5926924 43.3293116,28.403672 C44.9840753,30.1151044 46.1298115,32.2300975 46.667937,34.560301 C46.7753183,35.0252015 47.2100376,35.3261452 47.6655865,35.2457291 L47.8982107,35.2046714 C48.397857,35.1164165 48.7178278,34.6089782 48.6001112,34.0990732 C47.975328,31.3934301 46.6479023,28.9409853 44.7285545,26.9510292 L44.7285545,26.9510292 Z"/>
    </g>
    <g transform="translate(0 80)">
      <circle cx="36" cy="36" r="36" fill="#FFFFFF" opacity=".2"/>
      <circle cx="36.214" cy="36.214" r="29.189" fill="#0082FF" opacity=".8"/>
      <path fill="#FFFFFF" d="M43.2789964,36.220556 L43.2789964,27.0786209 C43.2789964,25.8694067 42.0623818,24.5853659 40.825029,24.5853659 L25.2832357,24.5853659 C24.0457968,24.5853659 22.8292683,25.8694067 22.8292683,27.0786209 L22.8292683,36.220556 C22.8292683,37.6893934 24.0457968,38.9732526 25.2832357,38.713811 L27.737203,38.713811 L27.737203,42.038151 L27.737203,43.7003211 L28.5551922,43.7003211 C28.5901139,43.7003211 28.8084607,42.7777913 29.3731813,42.869236 L32.6451378,38.713811 L40.825029,38.713811 C42.0623818,38.9732526 43.2789964,37.6893934 43.2789964,36.220556 L43.2789964,36.220556 Z M45.7329638,32.8962159 L45.7329638,37.051641 C46.0388725,39.1649807 44.1913619,41.0536169 41.6430181,41.207066 L34.281116,41.207066 L32.6451378,42.869236 C32.8393381,43.8554241 33.824509,44.7365151 35.0991051,44.5314061 L41.6430181,44.5314061 L44.0969855,47.8557461 C44.6440033,47.7661707 44.9149746,48.6868311 44.9149746,48.6868311 L45.7329638,48.6868311 L45.7329638,47.0246611 L45.7329638,44.5314061 L47.368942,44.5314061 C48.7472449,44.7364262 49.8229094,43.6364621 49.8229094,42.038151 L49.8229094,35.389471 C49.8228224,33.9960024 48.747158,32.8962159 47.368942,32.8962159 L45.7329638,32.8962159 L45.7329638,32.8962159 Z"/>
    </g>
  </g>
</svg>
