<svg width="167" height="154" viewBox="0 0 167 154" fill="none" xmlns="http://www.w3.org/2000/svg">
<g clip-path="url(#clip0_87_21989)">
<path opacity="0.6" fill-rule="evenodd" clip-rule="evenodd" d="M117.307 154.43H-7.43274C-8.48298 154.43 -9.52417 154.39 -10.5549 154.311C-38.2944 153.653 -60.5853 130.043 -60.5867 101.014C-60.5787 86.8657 -55.1711 73.2999 -45.5536 63.3012C-40.6238 58.176 -34.7948 54.2033 -28.4531 51.5493C-28.5592 50.1096 -28.6132 48.6547 -28.6132 47.1866C-28.6045 32.2578 -22.8985 17.944 -12.7505 7.39415C-2.6025 -3.15571 11.1562 -9.07745 25.4989 -9.06835C43.8715 -9.04503 64.0924 0.517941 73.8408 15.114C78.4701 13.4068 83.4534 12.4789 88.6451 12.4817C111.579 12.5105 130.416 30.7076 132.599 53.9787C154.574 58.9652 167.019 79.3423 167 103.705C166.977 131.782 147.098 154.527 120.124 154.515C119.179 154.514 118.239 154.486 117.307 154.43Z" fill="#C3F0FF"/>
<path opacity="0.3" fill-rule="evenodd" clip-rule="evenodd" d="M16.6955 39.2678C16.6955 37.1871 18.5071 35.5 20.7419 35.5C22.3667 35.5 23.7576 36.3976 24.4023 37.6851C24.9183 37.5087 25.4677 37.3971 26.0493 37.3971C28.6244 37.3971 30.7083 39.2906 30.827 41.6605C30.926 41.6533 31.0226 41.6329 31.124 41.6329C33.2153 41.6329 34.9094 43.2144 34.9094 45.1655C34.9094 47.1178 33.2153 48.6994 31.124 48.6994C30.7887 48.6994 29.6601 48.6994 29.3891 48.6994H19.1704C18.96 48.6994 17.9936 48.6994 17.6966 48.6994C14.9012 48.6994 12.6354 46.5947 12.6354 43.9968C12.6354 41.7145 14.3864 39.815 16.7091 39.3878C16.7079 39.347 16.6955 39.3086 16.6955 39.2678Z" fill="white"/>
<path opacity="0.3" fill-rule="evenodd" clip-rule="evenodd" d="M146.414 71.5752C146.414 69.9999 145.038 68.7227 143.342 68.7227C142.108 68.7227 141.052 69.4022 140.563 70.3769C140.171 70.2434 139.754 70.1589 139.312 70.1589C137.357 70.1589 135.775 71.5924 135.685 73.3866C135.609 73.3812 135.536 73.3657 135.459 73.3657C133.871 73.3657 132.585 74.5631 132.585 76.0402C132.585 77.5183 133.871 78.7156 135.459 78.7156C135.714 78.7156 136.571 78.7156 136.776 78.7156H144.535C144.694 78.7156 145.428 78.7156 145.654 78.7156C147.776 78.7156 149.496 77.1222 149.496 75.1554C149.496 73.4275 148.167 71.9894 146.403 71.666C146.404 71.6351 146.414 71.6061 146.414 71.5752Z" fill="white"/>
<g opacity="0.8" filter="url(#filter0_d_87_21989)">
<path fill-rule="evenodd" clip-rule="evenodd" d="M110.53 123.959H45.8439C45.2904 123.959 44.7417 123.939 44.1984 123.9C29.5792 123.58 18.7742 112.06 18.7734 97.8967C18.7777 90.9935 21.8679 84.8171 26.3627 79.414C28.5113 76.8313 30.0674 75.1289 33.2095 73.5758C33.1536 72.8733 33.1251 72.1635 33.1251 71.4472C33.1297 64.1633 36.1369 57.1795 41.4851 52.0322C46.8333 46.8848 54.0844 43.9956 61.6433 44C71.3261 44.0114 79.7714 49.06 84.909 56.1815C88.2916 55.3485 92.4742 55.0823 95.2103 55.0837C107.297 55.0977 117.224 63.9763 118.375 75.3304C129.956 77.7634 137.784 87.3227 137.773 99.2097C137.762 112.908 126.231 124.006 112.015 124C111.517 124 111.022 123.986 110.53 123.959Z" fill="url(#paint0_linear_87_21989)" shape-rendering="crispEdges"/>
</g>
<g filter="url(#filter1_d_87_21989)">
<path fill-rule="evenodd" clip-rule="evenodd" d="M93.7726 32H49.5461C46.7847 32 44.5461 34.2386 44.5461 37V107C44.5461 109.761 46.7847 112 49.5461 112H104.546C107.308 112 109.546 109.761 109.546 107V47.7734L93.7726 32Z" fill="white"/>
<path opacity="0.4" fill-rule="evenodd" clip-rule="evenodd" d="M93.7726 32L109.773 48H98.7726C96.0112 48 93.7726 45.7614 93.7726 43V32Z" fill="#00ACE3"/>
</g>
<rect x="62.5461" y="53" width="30" height="3" rx="1.5" fill="#2FC6F6"/>
<rect x="51.5461" y="98" width="24" height="3" rx="1.5" fill="black" fill-opacity="0.05"/>
<path d="M51.5461 65.5C51.5461 64.6716 52.2177 64 53.0461 64H101.046C101.875 64 102.546 64.6716 102.546 65.5C102.546 66.3284 101.875 67 101.046 67H53.0461C52.2177 67 51.5461 66.3284 51.5461 65.5Z" fill="black" fill-opacity="0.05"/>
<path d="M51.5461 71.5C51.5461 70.6716 52.2177 70 53.0461 70H101.046C101.875 70 102.546 70.6716 102.546 71.5C102.546 72.3284 101.875 73 101.046 73H53.0461C52.2177 73 51.5461 72.3284 51.5461 71.5Z" fill="black" fill-opacity="0.05"/>
<path d="M51.5461 77.5C51.5461 76.6716 52.2177 76 53.0461 76H101.046C101.875 76 102.546 76.6716 102.546 77.5C102.546 78.3284 101.875 79 101.046 79H53.0461C52.2177 79 51.5461 78.3284 51.5461 77.5Z" fill="black" fill-opacity="0.05"/>
<path d="M51.5461 83.5C51.5461 82.6716 52.2177 82 53.0461 82H71.0461C71.8745 82 72.5461 82.6716 72.5461 83.5C72.5461 84.3284 71.8745 85 71.0461 85H53.0461C52.2177 85 51.5461 84.3284 51.5461 83.5Z" fill="black" fill-opacity="0.05"/>
<circle cx="112.273" cy="98.5" r="15.5" fill="#00ACE3"/>
<path fill-rule="evenodd" clip-rule="evenodd" d="M115.2 90.3575C114.935 90.0891 114.502 90.0877 114.234 90.3543L105.39 99.1732L107.956 101.767L116.804 92.944C117.07 92.6788 117.072 92.2485 116.808 91.9816L115.2 90.3575ZM104.016 103.14C103.95 103.072 103.924 102.975 103.948 102.883L104.721 100.015L107.141 102.434L104.272 103.207C104.181 103.233 104.083 103.207 104.016 103.14ZM105.581 105.53L104.855 104.744C104.948 104.751 105.042 104.755 105.137 104.755C106.662 104.755 107.964 103.8 108.478 102.456L108.734 102.275C109.292 101.879 110.048 101.914 110.567 102.359L112.147 103.713L113.717 102.516C114.474 101.94 115.549 102.061 116.158 102.792L116.73 103.478L119.078 102.27C119.601 102.001 120.243 102.207 120.512 102.73C120.782 103.254 120.575 103.896 120.052 104.165L117.451 105.503C116.712 105.883 115.807 105.699 115.275 105.061L114.738 104.417L113.027 105.721C112.468 106.147 111.686 106.124 111.152 105.667L109.56 104.301L107.54 105.734C106.928 106.168 106.09 106.08 105.581 105.53Z" fill="white"/>
</g>
<defs>
<filter id="filter0_d_87_21989" x="14.7734" y="42" width="127" height="88" filterUnits="userSpaceOnUse" color-interpolation-filters="sRGB">
<feFlood flood-opacity="0" result="BackgroundImageFix"/>
<feColorMatrix in="SourceAlpha" type="matrix" values="0 0 0 0 0 0 0 0 0 0 0 0 0 0 0 0 0 0 127 0" result="hardAlpha"/>
<feOffset dy="2"/>
<feGaussianBlur stdDeviation="2"/>
<feComposite in2="hardAlpha" operator="out"/>
<feColorMatrix type="matrix" values="0 0 0 0 0.025382 0 0 0 0 0.275095 0 0 0 0 0.358333 0 0 0 0.06 0"/>
<feBlend mode="normal" in2="BackgroundImageFix" result="effect1_dropShadow_87_21989"/>
<feBlend mode="normal" in="SourceGraphic" in2="effect1_dropShadow_87_21989" result="shape"/>
</filter>
<filter id="filter1_d_87_21989" x="37.4717" y="27.2837" width="79.3754" height="94.1488" filterUnits="userSpaceOnUse" color-interpolation-filters="sRGB">
<feFlood flood-opacity="0" result="BackgroundImageFix"/>
<feColorMatrix in="SourceAlpha" type="matrix" values="0 0 0 0 0 0 0 0 0 0 0 0 0 0 0 0 0 0 127 0" result="hardAlpha"/>
<feOffset dy="2.35813"/>
<feGaussianBlur stdDeviation="3.5372"/>
<feComposite in2="hardAlpha" operator="out"/>
<feColorMatrix type="matrix" values="0 0 0 0 0.423529 0 0 0 0 0.423529 0 0 0 0 0.423529 0 0 0 0.12 0"/>
<feBlend mode="normal" in2="BackgroundImageFix" result="effect1_dropShadow_87_21989"/>
<feBlend mode="normal" in="SourceGraphic" in2="effect1_dropShadow_87_21989" result="shape"/>
</filter>
<linearGradient id="paint0_linear_87_21989" x1="77.802" y1="59.1254" x2="77.802" y2="124" gradientUnits="userSpaceOnUse">
<stop stop-color="white" stop-opacity="0.4"/>
<stop offset="1" stop-color="white" stop-opacity="0.8"/>
</linearGradient>
<clipPath id="clip0_87_21989">
<path d="M0.772644 0H150.773C159.609 0 166.773 7.16344 166.773 16V139C166.773 147.837 159.609 155 150.773 155H16.7726C7.93609 999 0.772644 147.837 0.772644 139V0Z" fill="white"/>
</clipPath>
</defs>
</svg>
