<svg width="167" height="154" viewBox="0 0 167 154" fill="none" xmlns="http://www.w3.org/2000/svg">
<g clip-path="url(#clip0_176_44979)">
<path opacity="0.6" fill-rule="evenodd" clip-rule="evenodd" d="M117.307 154.43H-7.43268C-8.48292 154.43 -9.52411 154.39 -10.5549 154.311C-38.2943 153.653 -60.5853 130.043 -60.5867 101.014C-60.5786 86.8657 -55.171 73.2999 -45.5535 63.3012C-40.6237 58.176 -34.7948 54.2033 -28.453 51.5493C-28.5591 50.1096 -28.6132 48.6547 -28.6132 47.1866C-28.6044 32.2578 -22.8984 17.944 -12.7504 7.39415C-2.60244 -3.15571 11.1563 -9.07745 25.499 -9.06835C43.8716 -9.04503 64.0925 0.517941 73.8409 15.114C78.4702 13.4068 83.4535 12.4789 88.6452 12.4817C111.579 12.5105 130.416 30.7076 132.6 53.9787C154.574 58.9652 167.019 79.3423 167 103.705C166.977 131.782 147.098 154.527 120.124 154.515C119.179 154.514 118.239 154.486 117.307 154.43Z" fill="#FFCDCC"/>
<path opacity="0.3" fill-rule="evenodd" clip-rule="evenodd" d="M16.6955 39.2678C16.6955 37.1871 18.5072 35.5 20.742 35.5C22.3667 35.5 23.7576 36.3976 24.4023 37.6851C24.9183 37.5087 25.4678 37.3971 26.0494 37.3971C28.6245 37.3971 30.7083 39.2906 30.8271 41.6605C30.9261 41.6533 31.0226 41.6329 31.1241 41.6329C33.2154 41.6329 34.9094 43.2144 34.9094 45.1655C34.9094 47.1178 33.2154 48.6994 31.1241 48.6994C30.7887 48.6994 29.6602 48.6994 29.3892 48.6994H19.1704C18.9601 48.6994 17.9936 48.6994 17.6966 48.6994C14.9013 48.6994 12.6355 46.5947 12.6355 43.9968C12.6355 41.7145 14.3865 39.815 16.7092 39.3878C16.7079 39.347 16.6955 39.3086 16.6955 39.2678Z" fill="white"/>
<path opacity="0.3" fill-rule="evenodd" clip-rule="evenodd" d="M146.414 71.5752C146.414 69.9999 145.038 68.7227 143.342 68.7227C142.108 68.7227 141.052 69.4022 140.563 70.3769C140.171 70.2434 139.754 70.1589 139.312 70.1589C137.357 70.1589 135.775 71.5924 135.685 73.3866C135.609 73.3812 135.536 73.3657 135.459 73.3657C133.871 73.3657 132.585 74.5631 132.585 76.0402C132.585 77.5183 133.871 78.7156 135.459 78.7156C135.714 78.7156 136.571 78.7156 136.776 78.7156H144.535C144.695 78.7156 145.428 78.7156 145.654 78.7156C147.776 78.7156 149.496 77.1222 149.496 75.1554C149.496 73.4275 148.167 71.9894 146.403 71.666C146.404 71.6351 146.414 71.6061 146.414 71.5752Z" fill="white"/>
<g opacity="0.8" filter="url(#filter0_d_176_44979)">
<path fill-rule="evenodd" clip-rule="evenodd" d="M110.53 123.959H45.844C45.2905 123.959 44.7417 123.939 44.1985 123.9C29.5792 123.58 18.7742 112.06 18.7735 97.8967C18.7777 90.9935 21.8679 84.8171 26.3628 79.414C28.5114 76.8313 30.0675 75.1289 33.2095 73.5758C33.1536 72.8733 33.1251 72.1635 33.1251 71.4472C33.1298 64.1633 36.1369 57.1795 41.4851 52.0322C46.8333 46.8848 54.0845 43.9956 61.6434 44C71.3261 44.0114 79.7715 49.06 84.9091 56.1815C88.2917 55.3485 92.4742 55.0823 95.2104 55.0837C107.297 55.0977 117.224 63.9763 118.375 75.3304C129.956 77.7634 137.784 87.3227 137.773 99.2097C137.762 112.908 126.231 124.006 112.015 124C111.517 124 111.022 123.986 110.53 123.959Z" fill="url(#paint0_linear_176_44979)" shape-rendering="crispEdges"/>
</g>
<g filter="url(#filter1_d_176_44979)">
<path fill-rule="evenodd" clip-rule="evenodd" d="M93.7727 32H49.5461C46.7847 32 44.5461 34.2386 44.5461 37V107C44.5461 109.761 46.7847 112 49.5461 112H104.546C107.308 112 109.546 109.761 109.546 107V47.7734L93.7727 32Z" fill="white"/>
<path opacity="0.4" fill-rule="evenodd" clip-rule="evenodd" d="M93.7727 32L109.773 48H98.7727C96.0113 48 93.7727 45.7614 93.7727 43V32Z" fill="#00ACE3"/>
</g>
<rect x="62.5461" y="53" width="30" height="3" rx="1.5" fill="#2FC6F6"/>
<rect x="51.5461" y="98" width="24" height="3" rx="1.5" fill="black" fill-opacity="0.05"/>
<path d="M51.5461 65.5C51.5461 64.6716 52.2177 64 53.0461 64H101.046C101.875 64 102.546 64.6716 102.546 65.5C102.546 66.3284 101.875 67 101.046 67H53.0461C52.2177 67 51.5461 66.3284 51.5461 65.5Z" fill="black" fill-opacity="0.05"/>
<path d="M51.5461 71.5C51.5461 70.6716 52.2177 70 53.0461 70H101.046C101.875 70 102.546 70.6716 102.546 71.5C102.546 72.3284 101.875 73 101.046 73H53.0461C52.2177 73 51.5461 72.3284 51.5461 71.5Z" fill="black" fill-opacity="0.05"/>
<path d="M51.5461 77.5C51.5461 76.6716 52.2177 76 53.0461 76H101.046C101.875 76 102.546 76.6716 102.546 77.5C102.546 78.3284 101.875 79 101.046 79H53.0461C52.2177 79 51.5461 78.3284 51.5461 77.5Z" fill="black" fill-opacity="0.05"/>
<path d="M51.5461 83.5C51.5461 82.6716 52.2177 82 53.0461 82H71.0461C71.8746 82 72.5461 82.6716 72.5461 83.5C72.5461 84.3284 71.8746 85 71.0461 85H53.0461C52.2177 85 51.5461 84.3284 51.5461 83.5Z" fill="black" fill-opacity="0.05"/>
<circle cx="112.273" cy="98.5" r="15.5" fill="#FF5752"/>
<path fill-rule="evenodd" clip-rule="evenodd" d="M114.232 98.5004L118.303 102.571C118.537 102.805 118.537 103.185 118.303 103.419L117.419 104.303C117.185 104.537 116.805 104.537 116.571 104.303L112.5 100.233L108.43 104.303C108.195 104.537 107.815 104.537 107.581 104.303L106.697 103.419C106.463 103.185 106.463 102.805 106.697 102.571L110.768 98.5004L106.697 94.4299C106.463 94.1956 106.463 93.8157 106.697 93.5814L107.581 92.6977C107.815 92.4634 108.195 92.4634 108.43 92.6977L112.5 96.7682L116.571 92.6977C116.805 92.4634 117.185 92.4634 117.419 92.6977L118.303 93.5814C118.537 93.8157 118.537 94.1956 118.303 94.4299L114.232 98.5004Z" fill="white"/>
</g>
<defs>
<filter id="filter0_d_176_44979" x="14.7735" y="42" width="127" height="88" filterUnits="userSpaceOnUse" color-interpolation-filters="sRGB">
<feFlood flood-opacity="0" result="BackgroundImageFix"/>
<feColorMatrix in="SourceAlpha" type="matrix" values="0 0 0 0 0 0 0 0 0 0 0 0 0 0 0 0 0 0 127 0" result="hardAlpha"/>
<feOffset dy="2"/>
<feGaussianBlur stdDeviation="2"/>
<feComposite in2="hardAlpha" operator="out"/>
<feColorMatrix type="matrix" values="0 0 0 0 0.025382 0 0 0 0 0.275095 0 0 0 0 0.358333 0 0 0 0.06 0"/>
<feBlend mode="normal" in2="BackgroundImageFix" result="effect1_dropShadow_176_44979"/>
<feBlend mode="normal" in="SourceGraphic" in2="effect1_dropShadow_176_44979" result="shape"/>
</filter>
<filter id="filter1_d_176_44979" x="37.4717" y="27.2837" width="79.3754" height="94.1488" filterUnits="userSpaceOnUse" color-interpolation-filters="sRGB">
<feFlood flood-opacity="0" result="BackgroundImageFix"/>
<feColorMatrix in="SourceAlpha" type="matrix" values="0 0 0 0 0 0 0 0 0 0 0 0 0 0 0 0 0 0 127 0" result="hardAlpha"/>
<feOffset dy="2.35813"/>
<feGaussianBlur stdDeviation="3.5372"/>
<feComposite in2="hardAlpha" operator="out"/>
<feColorMatrix type="matrix" values="0 0 0 0 0.423529 0 0 0 0 0.423529 0 0 0 0 0.423529 0 0 0 0.12 0"/>
<feBlend mode="normal" in2="BackgroundImageFix" result="effect1_dropShadow_176_44979"/>
<feBlend mode="normal" in="SourceGraphic" in2="effect1_dropShadow_176_44979" result="shape"/>
</filter>
<linearGradient id="paint0_linear_176_44979" x1="77.8021" y1="59.1254" x2="77.8021" y2="124" gradientUnits="userSpaceOnUse">
<stop stop-color="white" stop-opacity="0.4"/>
<stop offset="1" stop-color="white" stop-opacity="0.8"/>
</linearGradient>
<clipPath id="clip0_176_44979">
<path d="M0.772705 0H150.773C159.609 0 166.773 7.16344 166.773 16V139C166.773 147.837 159.609 155 150.773 155H16.7727C7.93615 999 0.772705 147.837 0.772705 139V0Z" fill="white"/>
</clipPath>
</defs>
</svg>
