<svg width="24" height="24" viewBox="0 0 24 24" fill="none" xmlns="http://www.w3.org/2000/svg">
<circle cx="12" cy="12" r="9" fill="#424A54"/>
<circle cx="12.0999" cy="12.1" r="7.1" fill="#C48300"/>
<path fill-rule="evenodd" clip-rule="evenodd" d="M12.5157 9.04786C12.596 9.2156 12.6004 9.52249 12.5828 9.79972C12.5707 9.99019 12.799 10.1057 12.9276 9.96466C13.3005 9.5555 13.769 8.94641 13.6095 8.61294C13.4634 8.30765 13.0442 8.13884 12.6861 7.99464C12.4191 7.88714 12.1861 7.79333 12.1256 7.66685C12.034 7.47527 11.7737 6.87125 11.6014 6.46864C11.5356 6.315 11.3265 6.30701 11.2571 6.45907C11.0552 6.90178 10.7793 7.62791 10.9496 7.98398C11.09 8.27737 11.4989 8.46249 11.8666 8.6289C12.1667 8.76477 12.4393 8.88817 12.5157 9.04786ZM10.5562 9.3832C10.6234 9.52365 10.6801 9.78212 10.7213 10.016C10.7526 10.1935 10.9766 10.2486 11.0671 10.0926C11.2542 9.77017 11.4481 9.33646 11.3253 9.07981C11.2029 8.82399 10.9184 8.67158 10.6754 8.54139C10.4942 8.44434 10.3361 8.35964 10.2854 8.25366C10.2203 8.11746 10.0932 7.73348 9.99172 7.41478C9.93686 7.24241 9.70819 7.22734 9.64495 7.39682C9.51144 7.75461 9.37996 8.23138 9.50307 8.48874C9.62066 8.73458 9.8848 8.89061 10.1222 9.03087C10.3161 9.14538 10.4922 9.24939 10.5562 9.3832ZM7.53261 11.5051C7.46094 10.9575 7.90294 10.5106 8.45522 10.5106H14.6175C14.6603 10.5106 14.7025 10.5133 14.7438 10.5185C14.792 10.5155 14.8407 10.5139 14.8896 10.5139C16.137 10.5139 17.1483 11.5251 17.1483 12.7725C17.1483 14.0199 16.137 15.0311 14.8896 15.0311C14.662 15.0311 14.4422 14.9975 14.235 14.9348C13.6343 15.6601 12.7726 16.1803 11.5364 16.1803C8.54349 16.1803 7.74542 13.1312 7.53261 11.5051ZM15.5143 11.689C15.4136 12.363 15.2144 13.2293 14.8207 14.021C14.8436 14.0222 14.8665 14.0228 14.8897 14.0228C15.5803 14.0228 16.1401 13.463 16.1401 12.7725C16.1401 12.3094 15.8884 11.9051 15.5143 11.689Z" fill="white"/>
</svg>
