<svg width="24" height="24" viewBox="0 0 24 24" fill="none" xmlns="http://www.w3.org/2000/svg">
<circle cx="12" cy="12" r="9" fill="#424A54"/>
<path fill-rule="evenodd" clip-rule="evenodd" d="M12.1001 5C8.23449 5 5 8.1556 5 12.1001C5 16.0446 8.1556 19.2002 12.1001 19.2002C15.9657 19.2002 19.2002 16.0446 19.2002 12.1001C19.2002 8.1556 15.9657 5 12.1001 5ZM12.1 7.05119C12.9677 7.05119 13.8355 7.28786 14.5455 7.68231L7.76101 14.4668C7.36656 13.7568 7.12989 12.8891 7.12989 12.0213C7.051 9.26011 9.33881 7.05119 12.1 7.05119ZM12.1 17.0703C11.1533 17.0703 10.3644 16.8336 9.57554 16.3603L16.3601 9.57575C16.7545 10.2858 17.0701 11.1536 17.0701 12.1002C17.0701 14.7825 14.8612 17.0703 12.1 17.0703Z" fill="#EC5961"/>
</svg>
