<svg xmlns:xlink="http://www.w3.org/1999/xlink" id="svg_wrapper" xmlns="http://www.w3.org/2000/svg"  viewBox="0 0 1200 100%" preserveAspectRatio="xMinYMin meet" style="width: 100%; height: 1200px">
    <svg height="1200px">
        <rect fill="#EEF2F4" width="100%" height="1200"/>
        <rect fill="#fff"    width="100%" height="511" x="20" y="73"/>
        <rect fill="#EEF2F4" width="20" height="1200" x="100%" transform="translate(-20, 0)"/>
    </svg>

    <svg id="title" x="0" y="0">
        <rect fill="#DEE2E6" rx="2" ry="2" width="318" height="13" x="28" y="31"/>
    </svg>

    <svg id="post" x="0" y="0">
        <rect fill="#ECEDEF" rx="2" ry="2" width="400" height="9" x="40" y="99"/>

        <rect fill="#ECEDEF" rx="2" ry="2" width="100%" height="1" x="40" y="131"/>

        <rect fill="#ECEDEF" rx="2" ry="2" width="598" height="9" x="40" y="158"/>
        <rect fill="#ECEDEF" rx="2" ry="2" width="598" height="9" x="40" y="176"/>
        <rect fill="#ECEDEF" rx="2" ry="2" width="598" height="9" x="40" y="194"/>
        <rect fill="#ECEDEF" rx="2" ry="2" width="598" height="9" x="40" y="212"/>
        <rect fill="#ECEDEF" rx="2" ry="2" width="350" height="9" x="40" y="230"/>

        <rect fill="#ECEDEF" rx="2" ry="2" width="19" height="19" x="40" y="455"/>
        <rect fill="#ECEDEF" rx="2" ry="2" width="19" height="19" x="78" y="455"/>
        <rect fill="#ECEDEF" rx="2" ry="2" width="19" height="19" x="116" y="455"/>
        <rect fill="#ECEDEF" rx="2" ry="2" width="19" height="19" x="154" y="455"/>
        <rect fill="#ECEDEF" rx="2" ry="2" width="19" height="19" x="192" y="455"/>
        <rect fill="#ECEDEF" rx="2" ry="2" width="90" height="9" x="235" y="460"/>
        <rect fill="#ECEDEF" rx="2" ry="2" width="19" height="19" x="100%" y="455" transform="translate(-60, 0)"/>

        <rect fill="#ECEDEF" rx="2" ry="2" width="100%" height="1" x="40" y="490"/>
        <rect fill="#ECEDEF" rx="2" ry="2" width="131" height="47" x="40" y="512"/>
        <rect fill="#ECEDEF" rx="2" ry="2" width="131" height="12" x="198" y="530"/>

    </svg>

    <rect fill="#fff" width="20" height="511" x="100%" y="73" transform="translate(-40, 0)"/>
    <rect fill="#EEF2F4" width="20" height="1200" x="100%" transform="translate(-20, 0)"/>

    <rect id="msk1" width="100%" fill="url(#msk_gd)" mask="url(#mask)" height="1200"/>

    <mask id="mask" fill="white">
        <use xlink:href="#post"/>
        <use xlink:href="#title"/>
    </mask>

    <linearGradient x1="66.6%" y1="50%" x2="33.3%" y2="50%" id="msk_gd">
        <stop stop-color="#000" stop-opacity="0" offset="0%"/>
        <stop stop-color="#000" stop-opacity="0.07" offset="50%"/>
        <stop stop-color="#000" stop-opacity="0" offset="100%"/>
    </linearGradient>

    <animate xlink:href="#msk1" attributeName="x" from="-100%" to="100%" dur="1s" begin="0s" repeatCount="indefinite"/>
</svg>
