<svg width="28" height="28" viewBox="0 0 28 28" fill="none" xmlns="http://www.w3.org/2000/svg">
<path fill-rule="evenodd" clip-rule="evenodd" d="M23.7908 23.6646H4.21794V9.09448H23.7908V23.6646ZM22.0202 4.40477V3.48763H24.0599C25.9227 3.60502 27.3657 5.22102 27.3321 7.15617V25.4989C27.3321 26.5114 26.5406 27.3332 25.5615 27.3332H2.44729C1.46989 27.3332 0.676641 26.5114 0.676641 25.4989V7.15617C0.669558 7.06079 0.666016 6.96724 0.666016 6.87369C0.669558 4.99907 2.1392 3.48396 3.94879 3.48763H5.98858V4.40477C5.98858 5.92354 7.17669 7.15617 8.64455 7.15617C10.1124 7.15617 11.3005 5.92354 11.3005 4.40477V3.48763H16.7082V4.40477C16.7082 5.92354 17.8981 7.15617 19.3642 7.15617C20.8303 7.15617 22.0202 5.92354 22.0202 4.40477ZM9.94598 2.02388V4.04158C9.94598 4.78629 9.36343 5.38977 8.64455 5.38977C7.92567 5.38977 7.34313 4.78629 7.34313 4.04158V2.02388V2.00554C7.34667 1.26266 7.93452 0.662854 8.6534 0.666521C9.37229 0.672025 9.94952 1.27917 9.94598 2.02388ZM20.593 2.07341V3.98655C20.593 4.68908 20.0424 5.25954 19.3624 5.25954C18.6825 5.2577 18.1354 4.68724 18.1354 3.98472V2.07341C18.1354 1.36905 18.686 0.800422 19.3642 0.800422C20.0424 0.800422 20.593 1.36905 20.593 2.07341ZM7.88992 12.3787C7.61378 12.3787 7.38992 12.6025 7.38992 12.8787V15.2064C7.38992 15.4826 7.61378 15.7064 7.88992 15.7064H10.2397C10.5158 15.7064 10.7397 15.4826 10.7397 15.2064V12.8787C10.7397 12.6025 10.5158 12.3787 10.2397 12.3787H7.88992ZM7.88992 17.3703C7.61378 17.3703 7.38992 17.5942 7.38992 17.8703V20.1981C7.38992 20.4742 7.61378 20.6981 7.88992 20.6981H10.2397C10.5158 20.6981 10.7397 20.4742 10.7397 20.1981V17.8703C10.7397 17.5942 10.5158 17.3703 10.2397 17.3703H7.88992ZM12.4146 12.8787C12.4146 12.6025 12.6384 12.3787 12.9146 12.3787H15.2644C15.5405 12.3787 15.7644 12.6025 15.7644 12.8787V15.2064C15.7644 15.4826 15.5405 15.7064 15.2644 15.7064H12.9146C12.6384 15.7064 12.4146 15.4826 12.4146 15.2064V12.8787ZM12.9146 17.3703C12.6384 17.3703 12.4146 17.5942 12.4146 17.8703V20.1981C12.4146 20.4742 12.6384 20.6981 12.9146 20.6981H15.2644C15.5405 20.6981 15.7644 20.4742 15.7644 20.1981V17.8703C15.7644 17.5942 15.5405 17.3703 15.2644 17.3703H12.9146ZM17.4392 12.8787C17.4392 12.6025 17.6631 12.3787 17.9392 12.3787H20.289C20.5652 12.3787 20.789 12.6025 20.789 12.8787V15.2064C20.789 15.4826 20.5652 15.7064 20.289 15.7064H17.9392C17.6631 15.7064 17.4392 15.4826 17.4392 15.2064V12.8787Z" fill="white"/>
</svg>
