<svg width="44" height="45" viewBox="0 0 44 45" fill="none" xmlns="http://www.w3.org/2000/svg">
<g filter="url(#filter0_d_4401_183147)">
<path d="M41 10C41 7.23858 38.7614 5 36 5H8C5.23857 5 3 7.23858 3 10V36C3 38.7614 5.23857 41 8 41H36C38.7614 41 41 38.7614 41 36L41 10Z" fill="#C4C4C4"/>
<path d="M41 10C41 7.23858 38.7614 5 36 5H8C5.23857 5 3 7.23858 3 10V36C3 38.7614 5.23857 41 8 41H36C38.7614 41 41 38.7614 41 36L41 10Z" fill="white" fill-opacity="0.5"/>
<rect x="40" y="40" width="36" height="35" rx="4" transform="rotate(180 40 40)" fill="white"/>
<path d="M41 8.32977C41 4.83394 38.1661 2 34.6702 2H9.32978C5.83394 2 3 4.83394 3 8.32977V11H41V8.32977Z" fill="#BDC1C6"/>
<ellipse opacity="0.5" rx="1.89235" ry="1.90268" transform="matrix(-1 0 0 1 27.592 6.90268)" fill="white"/>
<ellipse opacity="0.5" rx="1.89235" ry="1.90268" transform="matrix(-1 0 0 1 15.8069 6.90268)" fill="white"/>
<rect opacity="0.161457" width="36" height="1" transform="matrix(-1 0 0 1 40 11)" fill="#0092C0"/>
</g>
<defs>
<filter id="filter0_d_4401_183147" x="0" y="0" width="44" height="45" filterUnits="userSpaceOnUse" color-interpolation-filters="sRGB">
<feFlood flood-opacity="0" result="BackgroundImageFix"/>
<feColorMatrix in="SourceAlpha" type="matrix" values="0 0 0 0 0 0 0 0 0 0 0 0 0 0 0 0 0 0 127 0" result="hardAlpha"/>
<feOffset dy="1"/>
<feGaussianBlur stdDeviation="1.5"/>
<feComposite in2="hardAlpha" operator="out"/>
<feColorMatrix type="matrix" values="0 0 0 0 0 0 0 0 0 0 0 0 0 0 0 0 0 0 0.05 0"/>
<feBlend mode="normal" in2="BackgroundImageFix" result="effect1_dropShadow_4401_183147"/>
<feBlend mode="normal" in="SourceGraphic" in2="effect1_dropShadow_4401_183147" result="shape"/>
</filter>
</defs>
</svg>
