<svg width="24" height="24" viewBox="0 0 24 24" fill="none" xmlns="http://www.w3.org/2000/svg">
<path fill-rule="evenodd" clip-rule="evenodd" d="M21.854 10.9055L17.4738 15.2843C15.0562 17.7032 11.1344 17.7032 8.71644 15.2843C8.33557 14.9045 8.03762 14.4766 7.77596 14.0352L9.8112 12.0002C9.90795 11.9026 10.0274 11.8467 10.1416 11.7808C10.2823 12.2616 10.5279 12.7167 10.906 13.0948C12.1133 14.3031 14.0779 14.3014 15.2845 13.0948L19.6633 8.7161C20.8716 7.50796 20.8716 5.54385 19.6633 4.33662C18.4567 3.12939 16.4926 3.12939 15.2845 4.33662L13.7274 5.89541C12.4638 5.4034 11.1024 5.27112 9.77715 5.46533L13.0952 2.14736C15.5142 -0.271127 19.435 -0.271127 21.854 2.14736C24.2718 4.56575 24.2718 8.48718 21.854 10.9055ZM10.2746 18.1057L8.71639 19.6645C7.50915 20.8711 5.54448 20.8711 4.33704 19.6645C3.1297 18.4562 3.1297 16.4921 4.33704 15.2843L8.71639 10.9055C9.92459 9.69747 11.8879 9.69747 13.0952 10.9055C13.4724 11.2828 13.7182 11.7378 13.8603 12.2179C13.9751 12.1512 14.0931 12.097 14.1898 12.0001L16.2249 9.96586C15.9649 9.52281 15.6654 9.09641 15.2844 8.71621C12.8671 6.29772 8.94486 6.29772 6.52636 8.71621L2.14767 13.095C-0.270577 15.5142 -0.270577 19.4345 2.14767 21.8535C4.56617 24.2713 8.48746 24.2713 10.9059 21.8535L14.2249 18.5349C12.8989 18.7302 11.5371 18.5968 10.2746 18.1057Z" fill="white"/>
</svg>
