<svg width="15" height="15" viewBox="0 0 15 15" fill="none" xmlns="http://www.w3.org/2000/svg">
<path fill-rule="evenodd" clip-rule="evenodd" d="M13.659 6.81601L10.9213 9.55274C9.41039 11.0646 6.95923 11.0646 5.44802 9.55274C5.20998 9.31537 5.02376 9.04791 4.86022 8.77209L6.13224 7.50017C6.19271 7.43919 6.26738 7.40425 6.33873 7.36309C6.42667 7.66354 6.58018 7.94798 6.81647 8.18429C7.57105 8.93948 8.79891 8.93843 9.55305 8.18429L12.2898 5.44763C13.045 4.69253 13.045 3.46497 12.2898 2.71045C11.5357 1.95593 10.3081 1.95593 9.55305 2.71045L8.57986 3.68469C7.79011 3.37719 6.93925 3.29451 6.11096 3.41589L8.18476 1.34216C9.69661 -0.169393 12.1471 -0.169393 13.659 1.34216C15.1701 2.85366 15.1701 5.30455 13.659 6.81601ZM6.42188 11.3161L5.44799 12.2904C4.69347 13.0445 3.46554 13.0445 2.71089 12.2904C1.95631 11.5352 1.95631 10.3076 2.71089 9.55274L5.44799 6.81601C6.20311 6.06098 7.43021 6.06098 8.18473 6.81601C8.42047 7.05181 8.57415 7.33619 8.66292 7.63626C8.73468 7.59455 8.80842 7.56067 8.86886 7.50013L10.1408 6.22872C9.9783 5.95182 9.79113 5.68532 9.55299 5.44769C8.04216 3.93613 5.59078 3.93613 4.07922 5.44769L1.34254 8.18445C-0.168867 9.69646 -0.168867 12.1466 1.34254 13.6585C2.8541 15.1696 5.30491 15.1696 6.81644 13.6585L8.89078 11.5843C8.06204 11.7064 7.21096 11.6231 6.42188 11.3161Z" fill="#11A9D9"/>
</svg>
