<svg width="16" height="16" viewBox="0 0 16 16" fill="none" xmlns="http://www.w3.org/2000/svg">
<path fill-rule="evenodd" clip-rule="evenodd" d="M13.8749 13.7989H2.13115V5.05679H13.8749V13.7989ZM12.8125 2.24296V1.69268H14.0364C15.154 1.76311 16.0198 2.73271 15.9997 3.8938V14.8994C15.9997 15.5069 15.5248 16 14.9373 16H1.06876C0.482325 16 0.00637515 15.5069 0.00637515 14.8994V3.8938C0.00212562 3.83657 0 3.78044 0 3.72431C0.00212562 2.59954 0.883908 1.69047 1.96967 1.69268H3.19354V2.24296C3.19354 3.15422 3.9064 3.8938 4.78712 3.8938C5.66784 3.8938 6.3807 3.15422 6.3807 2.24296V1.69268H9.62533V2.24296C9.62533 3.15422 10.3392 3.8938 11.2189 3.8938C12.0986 3.8938 12.8125 3.15422 12.8125 2.24296ZM5.56798 0.814427V2.02505C5.56798 2.47187 5.21845 2.83396 4.78712 2.83396C4.35579 2.83396 4.00627 2.47187 4.00627 2.02505V0.814427V0.803421C4.00839 0.357693 4.3611 -0.00218997 4.79243 1.00331e-05C5.22376 0.00331243 5.5701 0.367599 5.56798 0.814427ZM11.9562 0.844142V1.99203C11.9562 2.41354 11.6258 2.75582 11.2178 2.75582C10.8099 2.75472 10.4816 2.41244 10.4816 1.99093V0.844142C10.4816 0.421527 10.812 0.0803508 11.2189 0.0803508C11.6258 0.0803508 11.9562 0.421527 11.9562 0.844142ZM4.53434 7.02729C4.2582 7.02729 4.03434 7.25115 4.03434 7.52729V8.52396C4.03434 8.8001 4.2582 9.02396 4.53434 9.02396H5.54421C5.82035 9.02396 6.04421 8.8001 6.04421 8.52396V7.52729C6.04421 7.25115 5.82035 7.02729 5.54421 7.02729H4.53434ZM4.53434 10.0223C4.2582 10.0223 4.03434 10.2461 4.03434 10.5223V11.519C4.03434 11.7951 4.2582 12.019 4.53434 12.019H5.54421C5.82035 12.019 6.04421 11.7951 6.04421 11.519V10.5223C6.04421 10.2461 5.82035 10.0223 5.54421 10.0223H4.53434ZM7.04914 7.52729C7.04914 7.25115 7.273 7.02729 7.54914 7.02729H8.559C8.83514 7.02729 9.059 7.25115 9.059 7.52729V8.52396C9.059 8.8001 8.83514 9.02396 8.559 9.02396H7.54914C7.273 9.02396 7.04914 8.8001 7.04914 8.52396V7.52729ZM7.54914 10.0223C7.273 10.0223 7.04914 10.2461 7.04914 10.5223V11.519C7.04914 11.7951 7.273 12.019 7.54914 12.019H8.559C8.83514 12.019 9.059 11.7951 9.059 11.519V10.5223C9.059 10.2461 8.83514 10.0223 8.559 10.0223H7.54914ZM10.0639 7.52729C10.0639 7.25115 10.2878 7.02729 10.5639 7.02729H11.5738C11.8499 7.02729 12.0738 7.25115 12.0738 7.52729V8.52396C12.0738 8.8001 11.8499 9.02396 11.5738 9.02396H10.5639C10.2878 9.02396 10.0639 8.8001 10.0639 8.52396V7.52729Z" fill="#BDC1C6"/>
</svg>
