<svg width="25" height="24" viewBox="0 0 25 24" fill="none" xmlns="http://www.w3.org/2000/svg">
<path fill-rule="evenodd" clip-rule="evenodd" d="M15.2788 16.3873C14.2762 17.0457 13.0766 17.4286 11.7875 17.4286C8.27 17.4286 5.41846 14.5771 5.41846 11.0595C5.41846 7.54197 8.27 4.69043 11.7875 4.69043C15.3051 4.69043 18.1566 7.54197 18.1566 11.0595C18.1566 12.3486 17.7737 13.5482 17.1153 14.5508L20.4257 17.8612C20.8163 18.2517 20.8163 18.8849 20.4257 19.2754L20.0034 19.6977C19.6129 20.0882 18.9797 20.0882 18.5892 19.6977L15.2788 16.3873ZM16.3369 11.0595C16.3369 13.5721 14.3001 15.6089 11.7875 15.6089C9.27501 15.6089 7.2382 13.5721 7.2382 11.0595C7.2382 8.54698 9.27501 6.51017 11.7875 6.51017C14.3001 6.51017 16.3369 8.54698 16.3369 11.0595Z" fill="#BDC1C6"/>
</svg>
