<svg width="16" height="16" viewBox="0 0 16 16" fill="none" xmlns="http://www.w3.org/2000/svg">
<path fill-rule="evenodd" clip-rule="evenodd" d="M10.0498 11.8868C9.04722 12.5452 7.8476 12.9281 6.55855 12.9281C3.04099 12.9281 0.189453 10.0766 0.189453 6.55903C0.189453 3.04148 3.04099 0.189941 6.55855 0.189941C10.0761 0.189941 12.9276 3.04148 12.9276 6.55903C12.9276 7.84809 12.5447 9.0477 11.8863 10.0503L15.1967 13.3607C15.5873 13.7512 15.5873 14.3844 15.1967 14.7749L14.7744 15.1972C14.3839 15.5877 13.7507 15.5877 13.3602 15.1972L10.0498 11.8868ZM11.1079 6.55903C11.1079 9.07157 9.07108 11.1084 6.55855 11.1084C4.04601 11.1084 2.00919 9.07157 2.00919 6.55903C2.00919 4.0465 4.04601 2.00968 6.55855 2.00968C9.07108 2.00968 11.1079 4.0465 11.1079 6.55903Z" fill="#A8ADB4"/>
</svg>
