<svg width="18" height="18" viewBox="0 0 18 18" fill="none" xmlns="http://www.w3.org/2000/svg">
<path fill-rule="evenodd" clip-rule="evenodd" d="M9.51867 11.8084V13.1182H8.48128V11.8084C8.29458 11.6563 8.17506 11.4239 8.17506 11.1632C8.17506 10.7049 8.54441 10.3333 8.99999 10.3333C9.45554 10.3333 9.82489 10.7049 9.82489 11.1632C9.82489 11.4239 9.7054 11.6563 9.51867 11.8084ZM6.74158 6.48753C6.74158 5.23255 7.75273 4.21518 9.00003 4.21518C10.2474 4.21518 11.2585 5.23255 11.2585 6.48753V8.40843H6.74158V6.48753ZM12.452 8.40814V6.48724C12.452 4.569 10.9065 3.01401 8.99998 3.01401C7.09352 3.01401 5.54799 4.569 5.54799 6.48724V8.40814H5C4.72386 8.40814 4.5 8.632 4.5 8.90814V14.486C4.5 14.7621 4.72386 14.986 5 14.986H13C13.2761 14.986 13.5 14.7621 13.5 14.486V8.90814C13.5 8.632 13.2761 8.40814 13 8.40814H12.452Z" fill="#7FA800"/>
</svg>
