<svg xmlns:xlink="http://www.w3.org/1999/xlink" xmlns="http://www.w3.org/2000/svg" viewBox="0 0 100% 118"
    preserveAspectRatio="xMinYMin meet" style="width: 100%; height: 118px" fill="none">

    <svg height="118px">
        <path
                d="M308 110C308 114.418 304.418 118 300 118L8 118C3.58172 118 -5.01128e-08 114.418 -1.1193e-07 110L-1.53904e-06 8.00003C-1.60086e-06 3.58175 3.58172 3.84978e-05 8 3.60843e-05L300 -0.000123421C304.418 -0.000125835 308 3.58159 308 7.99987L308 110Z"
                fill="white" />  
                <path
        d="M296 92C296 97.5228 291.523 102 286 102L22 102C16.4772 102 12 97.523 12 92.0001L12 52C12 46.4772 16.4772 42 22 42L286 41.9999C291.523 41.9999 296 46.477 296 51.9999L296 92Z"
        fill="#F5F7F8" />
        <g opacity="0.2">
            <path fill-rule="evenodd" clip-rule="evenodd"
                d="M47.4004 79.6431L49.2867 81.5294L49.7752 81.9999L49.2867 82.4708L47.4004 84.3571L48.066 85.0227L51.0886 82.0001L48.066 78.9775L47.4004 79.6431Z"
                fill="#A8ADB4" />
        </g>
    </svg>

    <svg height="118px" id="animated-elements">
        <rect x="14" y="16" width="127" height="8" rx="2" fill="#eeeff0" />
        <rect x="22" y="52.5" width="127" height="8" rx="2" fill="#e5e9ea" />
        <circle cx="31" cy="82" r="9" fill="#e5e9ea" />    
        <circle cx="67" cy="82" r="9" fill="#e5e9ea" />
        <rect x="85" y="78" width="77" height="8" rx="2" fill="#e5e9ea" />
    </svg>


    <defs>
        <filter id="filter0_i_3005_70593" x="44" y="433" width="90%" height="1" filterUnits="userSpaceOnUse"
                color-interpolation-filters="sRGB">
            <feFlood flood-opacity="0" result="BackgroundImageFix"/>
            <feBlend mode="normal" in="SourceGraphic" in2="BackgroundImageFix" result="shape"/>
            <feColorMatrix in="SourceAlpha" type="matrix" values="0 0 0 0 0 0 0 0 0 0 0 0 0 0 0 0 0 0 127 0"
                        result="hardAlpha"/>
            <feOffset dy="-1"/>
            <feComposite in2="hardAlpha" operator="arithmetic" k2="-1" k3="1"/>
            <feColorMatrix type="matrix" values="0 0 0 0 0 0 0 0 0 0 0 0 0 0 0 0 0 0 0.1 0"/>
            <feBlend mode="normal" in2="shape" result="effect1_innerShadow_3005_70593"/>
        </filter>
    </defs>

    <rect id="msk1" width="100%" fill="url(#msk_gd)" mask="url(#headerMsk)" height="1270"/>

    <mask id="headerMsk" fill="white">
        <use xlink:href="#animated-elements"/>
    </mask>

    <linearGradient x1="66.6%" y1="50%" x2="33.3%" y2="50%" id="msk_gd">
        <stop stop-color="#000000" stop-opacity="0" offset="0%"/>
        <stop stop-color="#000000" stop-opacity="0.07" offset="50%"/>
        <stop stop-color="#000000" stop-opacity="0" offset="100%"/>
    </linearGradient>

    <animate xlink:href="#msk1" attributeName="x" from="-100%" to="100%" dur="1s" begin="0s" repeatCount="indefinite"/>

</svg>