<svg width="442" height="182" viewBox="0 0 442 182" fill="none" xmlns="http://www.w3.org/2000/svg">
	<path opacity="0.117164" fill-rule="evenodd" clip-rule="evenodd" d="M433.447 141.987H413.407C413.236 141.987 413.066 141.98 412.897 141.968C408.368 141.863 404.729 138.11 404.729 133.497C404.73 131.248 405.613 129.092 407.183 127.502C407.988 126.688 408.94 126.056 409.975 125.635C409.958 125.406 409.949 125.175 409.949 124.941C409.95 122.568 410.882 120.293 412.539 118.617C414.196 116.94 416.442 115.999 418.784 116C421.784 116.004 424.432 117.524 426.024 119.844C426.78 119.572 427.594 119.425 428.441 119.425C432.186 119.43 435.261 122.322 435.618 126.021C439.206 126.813 441.891 130.052 441.888 133.924C441.884 138.387 438.312 142.002 433.908 142C433.753 142 433.6 141.995 433.447 141.987V141.987Z" fill="#2FC6F6"/>
	<path opacity="0.117164" fill-rule="evenodd" clip-rule="evenodd" d="M83.587 40.9845H60.297C60.0977 40.9845 59.9002 40.9771 59.7046 40.9626C54.4409 40.842 50.2112 36.512 50.2109 31.1884C50.2125 28.5936 51.2386 26.1058 53.0635 24.2721C53.9989 23.3321 55.105 22.6036 56.3084 22.1168C56.2882 21.8528 56.278 21.586 56.278 21.3168C56.2796 18.5789 57.3624 15.9539 59.288 14.0191C61.2136 12.0843 63.8243 10.9983 66.5459 11C70.0321 11.0043 73.11 12.7581 74.9598 15.4349C75.8382 15.1218 76.7838 14.9516 77.769 14.9521C82.1208 14.9574 85.695 18.2946 86.1094 22.5624C90.2792 23.4769 93.3996 27.2139 93.3959 31.6819C93.3916 36.8309 89.2401 41.0021 84.1217 41C83.9422 40.9999 83.764 40.9947 83.587 40.9845V40.9845Z" fill="#2FC6F6"/>
	<path opacity="0.302432" fill-rule="evenodd" clip-rule="evenodd" d="M77.8426 180.964H24.2214C23.7626 180.964 23.3077 180.947 22.8574 180.914C10.7389 180.637 1.00061 170.678 1 158.433C1.00352 152.465 3.36594 146.743 7.56754 142.526C9.72123 140.364 12.2677 138.688 15.0382 137.569C14.9919 136.961 14.9683 136.348 14.9683 135.729C14.9721 129.432 17.4649 123.394 21.8983 118.944C26.3316 114.494 32.3424 111.996 38.6083 112C46.6347 112.01 53.7212 116.044 57.98 122.2C60.0024 121.48 62.1795 121.089 64.4475 121.09C74.4668 121.102 82.696 128.778 83.6499 138.593C93.2501 140.697 100.434 149.292 100.426 159.568C100.416 171.411 90.8578 181.005 79.0736 181C78.6604 181 78.25 180.988 77.8426 180.964V180.964Z" stroke="#2FC6F6"/>
	<path opacity="0.302432" fill-rule="evenodd" clip-rule="evenodd" d="M385.834 21.9892H369.586C369.447 21.9892 369.309 21.984 369.172 21.9738C365.5 21.8894 362.549 18.8584 362.549 15.1319C362.55 13.3155 363.266 11.574 364.539 10.2904C365.192 9.6325 365.963 9.1225 366.803 8.78179C366.789 8.59697 366.782 8.4102 366.782 8.22174C366.783 6.30525 367.538 4.46771 368.882 3.11337C370.225 1.75904 372.047 0.998833 373.945 1C376.378 1.00299 378.525 2.23064 379.815 4.10441C380.428 3.88525 381.088 3.76613 381.775 3.76649C384.811 3.77018 387.305 6.10624 387.594 9.09367C390.503 9.73381 392.68 12.3497 392.678 15.4773C392.675 19.0816 389.778 22.0015 386.208 22C386.082 21.9999 385.958 21.9963 385.834 21.9892V21.9892Z" stroke="#2FC6F6"/>
</svg>