<svg width="250" height="250" viewBox="0 0 250 250" fill="none" xmlns="http://www.w3.org/2000/svg">
	<path opacity="0.211609" fill-rule="evenodd" clip-rule="evenodd" d="M249.109 125C249.109 192.932 193.579 248 125.078 248C56.5775 248 1.04688 192.932 1.04688 125C1.04688 57.0689 56.5765 2 125.078 2C193.579 2 249.109 57.0689 249.109 125ZM205.925 125C205.925 169.183 169.729 205 125.078 205C80.4285 205 44.2324 169.183 44.2324 125C44.2324 80.8172 80.4279 45 125.078 45C169.729 45 205.925 80.8172 205.925 125Z" fill="#F9E900"/>
	<path fill-rule="evenodd" clip-rule="evenodd" d="M219.587 83.8699C203.641 47.4546 167.167 22 124.721 22C82.677 22 46.4914 46.9754 30.3125 82.8398L29.8296 83.924L29.8333 84.0169C29.9152 85.2724 30.9638 86.2655 32.2454 86.2655C33.0124 86.2655 33.696 85.9098 34.1369 85.3541C49.458 50.6968 84.2517 26.5 124.721 26.5C165.303 26.5 200.177 50.8309 215.432 85.642L215.578 85.981L215.688 86.0734L215.808 86.1634C216.897 86.9258 218.401 86.6574 219.166 85.5638C219.526 85.0504 219.659 84.4463 219.587 83.8699ZM220.398 164.227C220.4 164.168 220.399 164.108 220.396 164.048C220.326 162.721 219.189 161.701 217.856 161.771C217.198 161.806 216.615 162.099 216.203 162.549C201.377 198.323 166.003 223.5 124.721 223.5C83.4934 223.5 48.1562 198.387 33.2963 162.687C33.2985 162.69 33.3007 162.692 33.3029 162.695L32.8922 161.701C33.0252 162.03 33.1599 162.359 33.2963 162.687C33.2332 162.608 33.1643 162.533 33.0899 162.461C32.1337 161.537 30.6067 161.567 29.6794 162.528C29.2475 162.975 29.0218 163.545 29 164.12C44.4682 201.605 81.499 228 124.721 228C167.903 228 204.904 201.655 220.398 164.227Z" fill="#FFA900" fill-opacity="0.321487"/>
	<path fill-rule="evenodd" clip-rule="evenodd" d="M79.8953 85.257L81.055 85.3656C89.3275 86.1971 104.631 88.9271 121.258 97.8399L121.258 167.001C109.502 159.829 95.3782 155.298 78.8743 153.408C76.5438 153.143 74.7499 151.549 74.6365 149.581L74.6309 149.383V89.3255C74.6309 86.9136 77.0606 85.0125 79.8953 85.257ZM175.519 88.8917L175.525 89.0811V148.876C175.525 150.886 173.819 152.605 171.471 152.904L170.519 153.03C161.683 154.233 142.933 157.705 128.897 166.643L128.897 97.8249C140.085 90.952 153.802 86.6872 170.045 85.0308C172.793 84.7506 175.255 86.4151 175.504 88.6999L175.519 88.8917ZM83.1142 125.746C82.7654 127.739 84.3905 129.595 86.744 129.89C95.2168 130.954 102.366 132.775 108.199 135.329C110.313 136.254 112.912 135.554 114.004 133.763C115.097 131.973 114.27 129.772 112.156 128.846C105.422 125.897 97.3698 123.847 88.0074 122.671C85.6538 122.376 83.4631 123.752 83.1142 125.746ZM167.772 125.746C167.423 123.752 165.232 122.376 162.879 122.671C153.516 123.847 145.465 125.897 138.73 128.846C136.617 129.772 135.789 131.973 136.882 133.763C137.975 135.554 140.574 136.254 142.687 135.329C148.52 132.775 155.669 130.954 164.142 129.89C166.496 129.595 168.121 127.739 167.772 125.746ZM83.1142 110.007C82.7654 112.001 84.3905 113.856 86.744 114.152C95.2168 115.216 102.366 117.036 108.199 119.59C110.313 120.516 112.912 119.815 114.004 118.025C115.097 116.235 114.27 114.033 112.156 113.108C105.422 110.159 97.3698 108.108 88.0074 106.933C85.6538 106.637 83.4631 108.014 83.1142 110.007ZM167.772 110.007C167.423 108.014 165.232 106.637 162.879 106.933C153.516 108.108 145.465 110.159 138.73 113.108C136.617 114.033 135.789 116.235 136.882 118.025C137.975 119.815 140.574 120.516 142.687 119.59C148.52 117.036 155.669 115.216 164.142 114.152C166.496 113.856 168.121 112.001 167.772 110.007Z" fill="#2FC6F6"/>
	<g filter="url(#filter0_d_4604_294566)">
		<circle cx="164.432" cy="152.432" r="19.5" fill="#FF5752"/>
		<circle cx="164.432" cy="152.432" r="22" stroke="white" stroke-width="5"/>
	</g>
	<path fill-rule="evenodd" clip-rule="evenodd" d="M165.478 159.893H163.383V157.283C163.006 156.98 162.765 156.517 162.765 155.997C162.765 155.084 163.511 154.343 164.431 154.343C165.351 154.343 166.097 155.084 166.097 155.997C166.097 156.517 165.855 156.98 165.478 157.283V159.893ZM159.869 146.192C159.869 143.691 161.911 141.664 164.431 141.664C166.95 141.664 168.992 143.691 168.992 146.192V149.468H159.869V146.192ZM171.403 149.468V146.192C171.403 142.369 168.281 139.271 164.431 139.271C160.58 139.271 157.458 142.369 157.458 146.192V149.468H155.342V163.616H173.519V149.468H171.403Z" fill="white"/>
	<defs>
		<filter id="filter0_d_4604_294566" x="134.932" y="124.932" width="59" height="59" filterUnits="userSpaceOnUse" color-interpolation-filters="sRGB">
			<feFlood flood-opacity="0" result="BackgroundImageFix"/>
			<feColorMatrix in="SourceAlpha" type="matrix" values="0 0 0 0 0 0 0 0 0 0 0 0 0 0 0 0 0 0 127 0" result="hardAlpha"/>
			<feOffset dy="2"/>
			<feGaussianBlur stdDeviation="2.5"/>
			<feColorMatrix type="matrix" values="0 0 0 0 0 0 0 0 0 0 0 0 0 0 0 0 0 0 0.0989674 0"/>
			<feBlend mode="normal" in2="BackgroundImageFix" result="effect1_dropShadow_4604_294566"/>
			<feBlend mode="normal" in="SourceGraphic" in2="effect1_dropShadow_4604_294566" result="shape"/>
		</filter>
	</defs>
</svg>