<svg width="250" height="250" viewBox="0 0 250 250" fill="none" xmlns="http://www.w3.org/2000/svg">
	<g clip-path="url(#clip0_4603_294567)">
		<path opacity="0.0938416" fill-rule="evenodd" clip-rule="evenodd" d="M248.594 123.943C248.594 191.875 193.063 246.943 124.562 246.943C56.0619 246.943 0.53125 191.875 0.53125 123.943C0.53125 56.0123 56.0609 0.943359 124.562 0.943359C193.063 0.943359 248.594 56.0123 248.594 123.943ZM205.409 123.943C205.409 168.127 169.213 203.943 124.563 203.943C79.9129 203.943 43.7168 168.127 43.7168 123.943C43.7168 79.7605 79.9122 43.9434 124.563 43.9434C169.213 43.9434 205.409 79.7605 205.409 123.943Z" fill="#FF5752"/>
		<path opacity="0.304385" fill-rule="evenodd" clip-rule="evenodd" d="M185.989 40.9869C153.971 17.4234 109.656 13.6164 72.8972 34.839C36.4857 55.8612 17.6357 95.5834 21.5566 134.732L21.6805 135.913L21.7301 135.991C22.4288 137.038 23.8335 137.373 24.9433 136.733C25.6076 136.349 26.0217 135.699 26.1258 134.998C22.0656 97.3229 40.0993 58.971 75.1472 38.7361C110.291 18.4455 152.659 22.0797 183.276 44.5993L183.571 44.8201L183.713 44.845L183.862 44.8627C185.187 44.9785 186.354 43.9943 186.471 42.6644C186.525 42.04 186.339 41.4504 185.989 40.9869ZM226.869 110.172C226.841 110.121 226.81 110.07 226.778 110.019C226.054 108.905 224.559 108.59 223.44 109.317C222.887 109.676 222.529 110.222 222.397 110.817C227.444 149.211 209.398 188.703 173.647 209.343C137.943 229.957 94.7835 225.878 64.0641 202.39C64.0674 202.391 64.0707 202.393 64.074 202.394L63.2212 201.738C63.5011 201.957 63.7821 202.174 64.0641 202.39C63.9701 202.353 63.8727 202.322 63.7723 202.297C62.4825 201.976 61.1751 202.765 60.8521 204.06C60.7017 204.664 60.7914 205.27 61.0601 205.779C93.1983 230.508 138.465 234.851 175.897 213.24C213.293 191.65 232.165 150.334 226.869 110.172Z" fill="#FF5752"/>
		<path fill-rule="evenodd" clip-rule="evenodd" d="M96.3212 84.1342V87.3893C96.3212 92.7796 100.51 97.1544 105.686 97.1544C110.574 97.1544 114.582 93.2522 115.012 88.2777L115.05 87.3893V84.1342H134.117V87.3893C134.117 92.7796 138.312 97.1544 143.481 97.1544C148.363 97.1544 152.377 93.2522 152.808 88.2777L152.846 87.3893V84.1342H160.038C166.307 84.532 171.228 89.7759 171.559 96.2253L171.575 97.1544V162.255C171.575 165.609 169.144 168.373 166.013 168.727L165.332 168.765H83.8352C80.6188 168.765 77.968 166.225 77.6288 162.964L77.5922 162.255V97.1544C77.5672 96.8159 77.5547 96.4839 77.5547 96.1519C77.5666 89.801 82.2885 84.6127 88.267 84.1655L89.1292 84.1342H96.3212ZM159.089 104.034H90.0782V155.745H159.089V104.034ZM110.12 133.406C111.751 133.406 113.073 134.728 113.073 136.358V142.264C113.073 143.895 111.751 145.217 110.12 145.217H104.215C102.584 145.217 101.262 143.895 101.262 142.264V136.358C101.262 134.728 102.584 133.406 104.215 133.406H110.12ZM127.836 133.406C129.467 133.406 130.789 134.728 130.789 136.358V142.264C130.789 143.895 129.467 145.217 127.836 145.217H121.931C120.3 145.217 118.978 143.895 118.978 142.264V136.358C118.978 134.728 120.3 133.406 121.931 133.406H127.836ZM110.12 115.69C111.751 115.69 113.073 117.012 113.073 118.642V124.548C113.073 126.178 111.751 127.5 110.12 127.5H104.215C102.584 127.5 101.262 126.178 101.262 124.548V118.642C101.262 117.012 102.584 115.69 104.215 115.69H110.12ZM127.836 115.69C129.467 115.69 130.789 117.012 130.789 118.642V124.548C130.789 126.178 129.467 127.5 127.836 127.5H121.931C120.3 127.5 118.978 126.178 118.978 124.548V118.642C118.978 117.012 120.3 115.69 121.931 115.69H127.836ZM145.552 115.69C147.183 115.69 148.505 117.012 148.505 118.642V124.548C148.505 126.178 147.183 127.5 145.552 127.5H139.647C138.016 127.5 136.694 126.178 136.694 124.548V118.642C136.694 117.012 138.016 115.69 139.647 115.69H145.552ZM105.717 74.1217C108.04 74.1397 109.944 75.9518 110.236 78.2896L110.274 78.9392V86.1003C110.274 88.7434 108.22 90.8852 105.686 90.8852C103.346 90.8852 101.416 89.0602 101.133 86.7006L101.097 86.1003V78.8741C101.11 76.2375 103.182 74.1087 105.717 74.1217ZM143.481 74.597C145.673 74.597 147.487 76.2928 147.774 78.501L147.814 79.115V85.905C147.814 88.3984 145.872 90.423 143.475 90.423C141.278 90.417 139.473 88.7153 139.188 86.5112L139.149 85.8985V79.115C139.149 76.6151 141.09 74.597 143.481 74.597Z" fill="#2FC6F6"/>
		<circle cx="163.918" cy="151.375" r="22" fill="#FF5752" stroke="white" stroke-width="5"/>
		<path fill-rule="evenodd" clip-rule="evenodd" d="M174.412 156.894L165.428 141.929C164.736 140.78 163.086 140.78 162.408 141.929L153.424 156.894C152.717 158.072 153.571 159.56 154.941 159.56H172.91C174.265 159.56 175.119 158.072 174.412 156.894ZM162.629 147.143C162.629 146.48 163.16 145.95 163.822 145.95H163.984C164.647 145.95 165.177 146.48 165.177 147.143V151.606C165.177 152.269 164.647 152.799 163.984 152.799H163.822C163.16 152.799 162.629 152.269 162.629 151.606V147.143ZM165.413 155.804C165.413 156.628 164.736 157.306 163.911 157.306C163.086 157.306 162.408 156.628 162.408 155.804C162.408 154.979 163.086 154.301 163.911 154.301C164.736 154.301 165.413 154.979 165.413 155.804Z" fill="white"/>
	</g>
	<defs>
		<clipPath id="clip0_4603_294567">
			<rect width="250" height="250" fill="white"/>
		</clipPath>
	</defs>
</svg>