<svg width="106" height="75" viewBox="0 0 106 75" fill="none" xmlns="http://www.w3.org/2000/svg">
<path opacity="0.2" d="M25.8226 73.9634H80.8036C81.231 73.9875 81.6614 73.9998 82.0946 74C94.7434 74.0053 104.99 63.6786 105 50.948C105.009 40.1506 97.6541 31.0735 87.7036 28.5529C86.3565 18.2961 77.652 10.3662 67.0915 10.3534L67.0908 10.3534C64.9144 10.3522 62.8142 10.6877 60.8396 11.3117C56.254 5.06771 48.8914 1.01022 40.5832 1.00001L40.5826 1C33.8867 0.995891 27.465 3.67325 22.7298 8.4405C17.9949 13.2075 15.334 19.6735 15.3299 26.4157V26.4163C15.3299 26.8349 15.34 27.2512 15.3599 27.6649C12.6512 28.8595 10.1597 30.5597 8.02808 32.7059C3.53093 37.2336 1.00377 43.375 1 49.7786V49.7792C1.00065 62.9071 11.4051 73.5991 24.3746 73.9106C24.8529 73.9456 25.3358 73.9634 25.8226 73.9634Z" stroke="white" stroke-width="2"/>
</svg>
