<svg width="24" height="24" viewBox="0 0 24 24" fill="none" xmlns="http://www.w3.org/2000/svg">
	<path fill-rule="evenodd" clip-rule="evenodd" d="M18.2421 6.22077C17.8558 5.83443 17.2294 5.83443 16.8431 6.22077L12.0429 11.0209L7.22132 6.19935C6.83498 5.81301 6.2086 5.81301 5.82226 6.19935C5.43592 6.58569 5.43592 7.21207 5.82226 7.59841L10.6439 12.42L6.22132 16.8425C5.83498 17.2289 5.83498 17.8552 6.22132 18.2416C6.60766 18.6279 7.23404 18.6279 7.62038 18.2416L12.0429 13.8191L16.444 18.2202C16.8304 18.6065 17.4567 18.6065 17.8431 18.2202C18.2294 17.8338 18.2294 17.2074 17.8431 16.8211L13.442 12.42L18.2421 7.61983C18.6285 7.23349 18.6285 6.60711 18.2421 6.22077Z" fill="#BDC1C6"/>
</svg>