<svg xmlns="http://www.w3.org/2000/svg" width="18" height="385" viewBox="0 0 18 385"><g fill="none" fill-rule="evenodd"><path fill="#535C69" d="M5.065 4.682L2.377 1.994 1.01 3.362 3.696 6.05.99 8.757l1.368 1.37 2.708-2.71 2.7 2.703 1.37-1.368L6.433 6.05l2.682-2.682L7.748 2 5.065 4.682z"/><g fill="#717A84" transform="translate(0 28)"><rect width="10" height="2" rx="1"/><rect width="10" height="2" y="4" rx="1"/><rect width="10" height="2" y="8" rx="1"/></g><path fill="#525C68" d="M.667 61.415L0 64l2.444-.765c-.152-.417-.376-.797-.66-1.12-.318-.325-.7-.563-1.117-.7zm5.407-5.963l-4.78 5.213c.397.208.765.474 1.094.792.27.343.496.725.67 1.135l4.777-5.21c-.185-.447-.437-.857-.746-1.213-.296-.306-.64-.548-1.018-.715l.002-.003zm2.733-1.057c-.242-.26-.57-.403-.91-.395-.338.008-.66.165-.892.435l-.287.313c.382.177.732.428 1.033.74.304.348.55.75.732 1.187l.288-.314c.248-.252.39-.604.398-.974.006-.37-.125-.728-.364-.99h.003z"/><path fill="#212121" d="M6 85v-4H4v4H0v2h4v4h2v-4h4v-2H6z"/><path fill="#535C68" d="M10.13 189.988l-2.57-2.76c-.186-.198-.454-.274-.705-.2-.252.072-.447.284-.514.553-.065.27.008.558.192.754l.525.562-4.13 3.292-.516-.554c-.283-.3-.74-.3-1.025 0-.282.308-.282.8 0 1.108l1.573 1.685-2.902 3.323c-.036.038-.056.09-.056.143 0 .053.02.105.056.142.073.07.185.07.258 0l3.102-3.125 1.573 1.685c.18.202.45.283.704.21.254-.07.452-.282.518-.554.067-.27-.008-.56-.197-.755l-.517-.553 3.073-4.424.532.57c.285.3.742.3 1.027 0 .137-.145.215-.343.215-.55 0-.207-.078-.405-.216-.55z"/><path fill="#535C69" d="M10.238 120.754v-1.27H8.885c-.085-.592-.34-1.1-.677-1.607l.76-.762-.845-.846-.846.76c-.423-.338-.93-.592-1.523-.676V115h-1.27v1.354c-.592.084-1.1.338-1.607.677l-.762-.76-.846.845.76.762c-.338.508-.592 1.015-.676 1.608H0v1.27h1.354c.084.59.338 1.1.677 1.522l-.76.846.93.93.762-.76c.423.338 1.015.592 1.607.676v1.353h1.268v-1.354c.593-.085 1.1-.34 1.608-.678l.762.762.93-.93-.93-.847c.338-.423.507-1.015.677-1.608h1.353v.084zm-7.446-.592c0-1.27 1.016-2.37 2.37-2.37 1.27 0 2.37 1.016 2.37 2.37 0 1.27-1.017 2.37-2.37 2.37-1.354-.086-2.37-1.1-2.37-2.37z"/><path fill="#212121" d="M10.238 155.754v-1.27H8.885c-.085-.592-.34-1.1-.677-1.607l.76-.762-.845-.846-.846.76c-.423-.338-.93-.592-1.523-.676V150h-1.27v1.354c-.592.084-1.1.338-1.607.677l-.762-.76-.846.845.76.762c-.338.508-.592 1.015-.676 1.608H0v1.27h1.354c.084.59.338 1.1.677 1.522l-.76.846.93.93.762-.76c.423.338 1.015.592 1.607.676v1.353h1.268v-1.354c.593-.085 1.1-.34 1.608-.678l.762.762.93-.93-.93-.847c.338-.423.507-1.015.677-1.608h1.353v.084zm-7.446-.592c0-1.27 1.016-2.37 2.37-2.37 1.27 0 2.37 1.016 2.37 2.37 0 1.27-1.017 2.37-2.37 2.37-1.354-.086-2.37-1.1-2.37-2.37z"/><path fill="#535C69" d="M11.506 244.5c.184 0 .36-.074.49-.205.13-.13.204-.307.204-.49v-1.043c0-.383-.31-.694-.694-.694-.383 0-.694.31-.694.694v1.042c0 .184.073.36.203.49.13.132.307.205.49.205zm-7 .07c.406 0 .735-.33.735-.735v-1.1c0-.406-.328-.735-.734-.735-.406 0-.735.33-.735.735v1.1c0 .406.33.735.736.735zm9.652-1.037h-1.152v.5c0 .828-.67 1.5-1.5 1.5-.828 0-1.5-.672-1.5-1.5v-.5h-4v.5c0 .828-.67 1.5-1.5 1.5-.828 0-1.5-.672-1.5-1.5v-.5H1.854c-.517 0-1.012.214-1.363.595-.35.38-.526.89-.484 1.405v10c0 .552.448 1 1 1h14c.552 0 1-.448 1-1v-10c.02-1.054-.795-1.936-1.848-2zm-.152 11h-12v-7h12v7zM5.34 251.34c-.402.347-.757.742-1.06 1.177-.173.285-.282.606-.32.938h3.296v-.873H5.39c.054-.093.118-.18.19-.26.08-.09.268-.27.565-.543.22-.194.426-.403.615-.627.155-.19.282-.4.377-.626.08-.2.12-.415.12-.63.007-.37-.145-.725-.417-.974-.314-.275-.723-.415-1.14-.39-.394-.015-.78.104-1.1.336-.322.28-.512.685-.525 1.113l.93.094c-.004-.214.067-.422.2-.59.268-.232.664-.235.935-.007.12.13.182.306.17.483-.007.207-.077.408-.2.575-.234.29-.492.56-.77.808v-.005zm4.706 2.115h.91v-.987h.61v-.822h-.61v-3.11h-.79L8.04 251.65v.822h2.006v.987-.005zm-1.127-1.813l1.126-1.676v1.68H8.92v-.004z"/><g transform="translate(0 276)"><circle cx="9" cy="9" r="9" fill="#5E6674"/><path fill="#FFF" d="M10.174 8.973l2.284-2.283c.165-.166.165-.434 0-.6l-.6-.6c-.166-.165-.434-.165-.6 0L8.975 7.772 6.69 5.49c-.166-.166-.434-.166-.6 0l-.6.6c-.165.165-.165.433 0 .6L7.773 8.97 5.49 11.255c-.165.166-.165.434 0 .6l.6.6c.166.165.434.165.6 0l2.283-2.283 2.283 2.283c.166.165.434.165.6 0l.6-.6c.165-.166.165-.434 0-.6l-2.282-2.282z"/></g><g transform="translate(0 312)"><circle cx="9" cy="9" r="9" fill="#5E6674" opacity=".501"/><path fill="#FFF" d="M10.174 8.973l2.284-2.283c.165-.166.165-.434 0-.6l-.6-.6c-.166-.165-.434-.165-.6 0L8.975 7.772 6.69 5.49c-.166-.166-.434-.166-.6 0l-.6.6c-.165.165-.165.433 0 .6L7.773 8.97 5.49 11.255c-.165.166-.165.434 0 .6l.6.6c.166.165.434.165.6 0l2.283-2.283 2.283 2.283c.166.165.434.165.6 0l.6-.6c.165-.166.165-.434 0-.6l-2.282-2.282z"/></g><rect width="13" height="13" x=".5" y=".5" fill="#FFF" stroke="#C6CDD3" rx="2" transform="translate(0 346)"/><g transform="translate(0 369)"><rect width="13" height="13" x=".5" y="1.125" fill="#FFF" stroke="#259EC6" rx="2"/><path fill="#259EC6" d="M7.53 8.487l-3.775-3.6-1.25 1.368 4.94 5.01.075-.074.286.335 8.694-10.4L15.094 0 7.53 8.487z"/></g><path fill="#535C6A" d="M16.178 227.438l-4.48-4.48c.59-.917.936-2.017.936-3.198 0-3.28-2.668-5.947-5.947-5.947-3.28 0-5.947 2.667-5.947 5.947 0 3.28 2.668 5.947 5.947 5.947 1.283 0 2.465-.407 3.442-1.1l4.44 4.44c.222.224.57.224.792 0l.835-.835c.204-.204.204-.55-.02-.774zm-14.5-7.658c0-2.77 2.24-5.01 5.01-5.01 2.77 0 5.01 2.24 5.01 5.01 0 2.77-2.24 5.01-5.01 5.01-2.77 0-5.01-2.24-5.01-5.01z"/></g></svg>