<svg width="50" height="50" viewBox="0 0 50 50" fill="none" xmlns="http://www.w3.org/2000/svg">
	<g opacity="0.86">
		<rect width="50" height="50" rx="8" fill="#FF5752" fill-opacity="0.15"/>
		<circle cx="25" cy="25" r="17" fill="#FF5752"/>
		<path fill-rule="evenodd" clip-rule="evenodd" d="M17.8798 28.9521L22.141 28.9513C22.2637 28.9513 22.3822 29.0222 22.4281 29.1349C22.62 29.6148 22.6125 30.1555 22.4022 30.6321C22.0492 31.6594 22.0091 32.7693 22.2862 33.82C22.5758 34.5427 22.6526 35.863 23.9887 35.9239C24.4068 35.8621 24.7715 35.6109 24.9818 35.2446C25.0193 35.1795 25.0352 35.1027 25.0352 35.0284C25.0352 35.0284 24.9738 33.7465 25.0352 32.8553C25.0966 31.9641 26.8019 29.694 27.886 28.2528C27.9544 28.161 28.0504 28.1009 28.1639 28.0834C28.5703 28.0225 29.3455 27.9194 29.625 27.8825C29.6904 27.8739 29.7286 27.7918 29.7286 27.7532C29.7286 25.9516 29.7286 23.2565 29.7286 19.668C29.7286 19.6383 29.6928 19.5735 29.629 19.5629C29.4101 19.5268 28.8625 19.4266 28.3099 19.2489C27.6156 19.0261 27.0372 18.4987 25.8797 18.1081C25.8188 18.0872 25.7512 18.0764 25.687 18.0764L20.2516 18.0764C19.5497 18.2016 19.0273 18.8016 18.9914 19.5218C18.9814 19.9232 19.0615 20.3205 19.2259 20.6852C19.2493 20.7377 19.2184 20.7928 19.1617 20.8037C18.4648 20.9305 17.5936 22.2533 18.6668 23.319C18.6952 23.3465 18.6902 23.3841 18.6518 23.3941C18.0601 23.5451 17.6069 24.0175 17.4684 24.6067C17.415 24.832 17.4342 25.0648 17.5009 25.286C17.5794 25.5497 17.7046 25.7967 17.8706 26.017C17.9124 26.0721 17.889 26.1439 17.8222 26.1656C17.233 26.3651 16.8275 26.9284 16.8316 27.5693C16.764 28.1977 17.2689 28.9513 17.8798 28.9521ZM31.3969 28.6116L34.4772 28.6116C34.6374 28.6116 34.7593 28.4698 34.7317 28.3154L32.9425 18.2633C32.9149 18.1089 32.7789 17.9963 32.6195 17.9963L31.4803 17.9963C31.3043 17.9963 31.1615 18.1356 31.1615 18.3076L31.1365 28.3563C31.1365 28.4973 31.2525 28.6116 31.3969 28.6116Z" fill="white"/>
	</g>
</svg>