<svg width="50" height="50" viewBox="0 0 50 50" fill="none" xmlns="http://www.w3.org/2000/svg">
	<g opacity="0.7">
		<rect width="50" height="50" rx="8" fill="#525C69" fill-opacity="0.07"/>
		<circle cx="25" cy="25" r="17" fill="#BDC1C6"/>
		<path fill-rule="evenodd" clip-rule="evenodd" d="M32.7633 22.0304L28.5021 22.0313C28.3794 22.0313 28.2609 21.9603 28.215 21.8477C28.0231 21.3678 28.0306 20.827 28.2409 20.3505C28.5939 19.3232 28.634 18.2133 28.3569 17.1626C28.0673 16.4399 27.9905 15.1196 26.6544 15.0587C26.2363 15.1204 25.8716 15.3716 25.6613 15.738C25.6238 15.8031 25.6079 15.8799 25.6079 15.9541C25.6079 15.9541 25.6693 17.2361 25.6079 18.1273C25.5465 19.0185 23.8412 21.2885 22.7571 22.7298C22.6887 22.8216 22.5927 22.8817 22.4792 22.8992C22.0728 22.9601 21.2975 23.0631 21.0181 23.1C20.9527 23.1087 20.9144 23.1908 20.9144 23.2294C20.9144 25.031 20.9144 27.7261 20.9144 31.3145C20.9144 31.3443 20.9503 31.4091 21.0141 31.4196C21.233 31.4558 21.7806 31.5559 22.3332 31.7337C23.0275 31.9565 23.6058 32.4839 24.7634 32.8745C24.8243 32.8953 24.8919 32.9062 24.9561 32.9062H30.3915C31.0933 32.781 31.6158 32.181 31.6517 31.4608C31.6617 31.0593 31.5816 30.6621 31.4171 30.2974C31.3938 30.2448 31.4247 30.1898 31.4814 30.1789C32.1782 30.0521 33.0495 28.7293 31.9763 27.6636C31.9479 27.6361 31.9529 27.5985 31.9913 27.5885C32.583 27.4374 33.0362 26.9651 33.1747 26.3759C33.2281 26.1506 33.2089 25.9177 33.1421 25.6966C33.0637 25.4329 32.9385 25.1858 32.7724 24.9655C32.7307 24.9104 32.7541 24.8387 32.8208 24.817C33.41 24.6175 33.8156 24.0542 33.8114 23.4133C33.879 22.7849 33.3741 22.0313 32.7633 22.0304ZM19.2462 22.3709H16.1659C16.0057 22.3709 15.8838 22.5128 15.9114 22.6672L17.7006 32.7192C17.7282 32.8736 17.8642 32.9863 18.0236 32.9863H19.1627C19.3388 32.9863 19.4815 32.8469 19.4815 32.675L19.5066 22.6263C19.5066 22.4853 19.3906 22.3709 19.2462 22.3709Z" fill="white"/>
	</g>
</svg>