<svg xmlns="http://www.w3.org/2000/svg" width="91" height="49" viewBox="0 0 91 49">
  <path fill="#2FC6F6" fill-rule="evenodd" d="M75.2039478,0.0184103379 C75.8272971,0.0184103379 76.4263602,0.239416022 76.8940341,0.63334044 L77.0449122,0.770987014 L89.8357174,13.4148748 C90.4363027,14.0071571 90.7941842,14.796157 90.8456891,15.6309464 L90.8521457,15.8405104 L90.8521457,45.4488557 C90.8521457,46.8125117 89.7737951,47.92945 88.416741,48.0133511 L88.2526079,48.0184103 L54.6025361,48.0184103 C53.2186991,48.0184103 52.0898962,46.9539204 52.0051123,45.6112599 L52,45.4488557 L51.9999969,32.1424103 L35.3159969,32.1420898 L35.3159969,27.389904 L51.9999969,27.3894103 L52,2.59096328 C52,1.22442426 53.0755784,0.107375088 54.4377503,0.0234697359 L54.6025361,0.0184103379 L75.2039478,0.0184103379 Z M23.5985836,2.59999639 C28.0412807,2.60547744 32.168949,4.49037544 35.0880194,7.67559713 L35.3500351,7.96872878 L35.394,8.02 L35.8584794,7.93132377 C36.3045012,7.85409295 36.7557558,7.79971448 37.2109251,7.76865687 L37.6673506,7.74539022 L38.126093,7.73777493 C41.0666845,7.74135127 43.7941176,8.71353538 46.0002927,10.3619373 L45.99982,18.0039784 C44.7682417,14.7923884 41.68514,12.5421069 38.1218958,12.5377728 C37.2672687,12.5373176 36.4323532,12.6644132 35.635094,12.9116448 L35.2957693,13.0249348 L33.5567643,13.6474299 L32.5097551,12.1257827 C30.5516398,9.28000002 27.3952153,7.5170442 23.9293432,7.40470015 L23.593,7.399 L23.2490065,7.40532235 C20.4929289,7.49209757 17.8659425,8.63592951 15.9054714,10.614206 C13.8585987,12.6796689 12.7063058,15.4854026 12.704541,18.4117963 L12.7126676,18.8423199 L12.7126676,18.8423199 L12.7369838,19.2702189 L12.8695532,21.0163961 L11.2471006,21.6754538 C9.97817976,22.1909031 8.82200497,22.9605141 7.84836556,23.9430275 C5.93178812,25.877073 4.85278157,28.5044785 4.85117188,31.2449025 C4.85117188,36.7598864 9.13011637,41.2698727 14.5156958,41.5417255 L14.7952309,41.5519907 L15.2119219,41.5744047 L15.5069155,41.579881 L45.6542773,41.579881 L45.9991723,41.5919935 L45.9999431,46.3957852 C45.9769779,46.3952275 45.9540122,46.3946145 45.931046,46.3939464 L45.5841723,46.3784103 L15.5069155,46.379881 L15.1907993,46.3759637 L15.1907993,46.3759637 L14.8755687,46.3642269 L14.627,46.348 L14.368812,46.3401424 C6.59727431,45.9984588 0.390234424,39.6970273 0.0646037486,31.8888062 L0.0544509629,31.5626036 L0.0511722888,31.2434931 C0.0535239165,27.2389483 1.63094999,23.3978799 4.43889094,20.5643468 C5.31948637,19.6757255 6.30260927,18.9049798 7.36417142,18.2666143 L7.76588702,18.033461 L7.911,17.954 L7.9255147,17.6016506 C8.11163782,13.9742513 9.53041193,10.5199241 11.9435308,7.82225973 L12.215735,7.52566272 L12.4960504,7.23547129 C15.4390143,4.2657788 19.4325076,2.59743931 23.5985836,2.59999639 Z M70.7334624,4.81871017 L57.5498782,4.81871017 C57.1980761,4.81871017 56.9092594,5.07821003 56.8635663,5.41245258 L56.8572678,5.50532395 L56.8569969,27.3894103 L62.6149969,27.3899969 L62.6159969,20.4159969 L71.1159969,29.7659969 L62.6159969,39.1159969 L62.6149969,32.1429969 L56.8569969,32.1424103 L56.8572678,42.5314967 C56.8572678,42.8805504 57.1167677,43.1666186 57.4556291,43.2118727 L57.5498782,43.2181105 L85.3052658,43.2181105 C85.6543194,43.2181105 85.9454265,42.9611301 85.9915204,42.624998 L85.9978762,42.5314967 L85.9978762,19.9062234 C85.9978762,19.5599182 85.7358569,19.2715596 85.398885,19.2259047 L85.3052658,19.2196097 L72.1216816,19.2196097 C71.7698794,19.2196097 71.4785433,18.9626292 71.4324304,18.6288066 L71.4260728,18.5359942 L71.4260728,5.50532395 C71.4260728,5.12753645 71.1172465,4.81871017 70.7334624,4.81871017 Z M76.5441939,7.17538454 C76.4208347,7.17538454 76.3173011,7.2612954 76.2902376,7.37269629 L76.2833406,7.43024118 L76.2833406,14.1614549 C76.2833406,14.2822441 76.3692515,14.3854105 76.4844287,14.4124216 L76.5441939,14.4193098 L83.3533637,14.4193098 C83.4253233,14.4193098 83.4882878,14.392325 83.5392592,14.344352 C83.6242114,14.2593998 83.6383701,14.1328043 83.5817353,14.0357062 L83.5392592,13.9815561 L76.727091,7.25034238 C76.679118,7.20236936 76.6131551,7.17538454 76.5441939,7.17538454 Z"/>
</svg>
