<svg xmlns="http://www.w3.org/2000/svg" width="85" height="49" viewBox="0 0 85 49">
  <path fill="#2FC6F6" fill-rule="evenodd" d="M23.3858805,0.0184103379 C24.0092299,0.0184103379 24.6082929,0.239416022 25.0759668,0.63334044 L25.226845,0.770987014 L38.0176501,13.4148748 C38.6182354,14.0071571 38.9761169,14.796157 39.0276219,15.6309464 L39.0340784,15.8405104 L39.0339327,24.8894103 L49.0309938,24.8899969 L49.0319938,17.9159969 L57.5319938,27.2659969 L49.0319938,36.6159969 L49.0309938,29.6429969 L39.0339327,29.6424103 L39.0340784,45.4488557 C39.0340784,46.8125117 37.9557279,47.92945 36.5986737,48.0133511 L36.4345406,48.0184103 L2.78446881,48.0184103 C1.40063183,48.0184103 0.271828914,46.9539204 0.187045017,45.6112599 L0.181932735,45.4488557 L0.181932735,2.59096328 C0.181932735,1.22442426 1.25751115,0.107375088 2.61968303,0.023469736 L2.78446881,0.0184103379 L23.3858805,0.0184103379 Z M47.5634073,2.59999887 C52.0061045,2.60547748 56.1337733,4.49037482 59.0528442,7.67559687 L59.3148599,7.96872855 L59.3589969,8.021 L59.8233044,7.93132377 C60.2693262,7.85409295 60.7205808,7.79971448 61.1757502,7.76865687 L61.6321756,7.74539022 L62.0909181,7.73777493 C68.1910245,7.74519388 73.3738389,11.9208592 74.8889366,17.6545905 L74.9652771,17.9577904 L75.0059969,18.14 L75.2838935,18.2401179 C80.6576603,20.2283228 84.4380309,25.3140772 84.7013183,31.2168491 L84.7124522,31.5518255 L84.7159961,31.8884551 C84.7094089,39.9017817 78.2662096,46.4033307 70.3111938,46.4000013 L69.8958839,46.393948 L69.8958839,46.393948 L69.5489327,46.3784103 L45.1521787,46.3789959 L45.1521787,41.5789959 L69.6191023,41.579881 L70.035122,41.5959635 L70.3121986,41.6000028 C75.606928,41.6022169 79.91158,37.2585819 79.9160078,31.8845126 C79.9196982,27.3756569 76.869716,23.4994371 72.634131,22.4376016 L72.3678801,22.3749211 L70.6632225,21.9994571 L70.4952613,20.2620396 C70.0733407,15.897624 66.4380367,12.5430654 62.0867208,12.5377728 C61.2320938,12.5373176 60.3971782,12.6644132 59.599919,12.9116448 L59.2605943,13.0249348 L57.5215893,13.6474299 L56.4745801,12.1257827 C54.5164646,9.2799998 51.3600405,7.51704466 47.8934153,7.4047002 L47.5569969,7.399 L47.21383,7.4053246 C45.5578876,7.45746093 43.9485468,7.89119591 42.5023757,8.6582446 L39.2911787,4.97271498 C41.7549423,3.43271378 44.6159843,2.59818771 47.5634073,2.59999887 Z M18.9153952,4.81871017 L5.73181093,4.81871017 C5.38000882,4.81871017 5.09119211,5.07821003 5.04549906,5.41245258 L5.03920052,5.50532395 L5.03920052,42.5314967 C5.03920052,42.8805504 5.29870039,43.1666186 5.63756186,43.2118727 L5.73181093,43.2181105 L33.4871985,43.2181105 C33.8362522,43.2181105 34.1273593,42.9611301 34.1734531,42.624998 L34.1798089,42.5314967 L34.1789327,29.6414103 L23.2319938,29.6420898 L23.2319938,24.889904 L34.1789327,24.8894103 L34.1798089,19.9062234 C34.1798089,19.5599182 33.9177896,19.2715596 33.5808177,19.2259047 L33.4871985,19.2196097 L20.3036143,19.2196097 C19.9518122,19.2196097 19.6604761,18.9626292 19.6143631,18.6288066 L19.6080056,18.5359942 L19.6080056,5.50532395 C19.6080056,5.12753645 19.2991793,4.81871017 18.9153952,4.81871017 Z M24.7261266,7.17538454 C24.6027674,7.17538454 24.4992338,7.2612954 24.4721704,7.37269629 L24.4652734,7.43024118 L24.4652734,14.1614549 C24.4652734,14.2822441 24.5511842,14.3854105 24.6663614,14.4124216 L24.7261266,14.4193098 L31.5352965,14.4193098 C31.607256,14.4193098 31.6702206,14.392325 31.7211919,14.344352 C31.8061441,14.2593998 31.8203028,14.1328043 31.763668,14.0357062 L31.7211919,13.9815561 L24.9090237,7.25034238 C24.8610507,7.20236936 24.7950878,7.17538454 24.7261266,7.17538454 Z"/>
</svg>