<svg xmlns="http://www.w3.org/2000/svg" width="81" height="45" viewBox="0 0 81 45">
  <path fill="#2FC6F6" fill-rule="evenodd" d="M43.5634086,0.599996392 C48.140733,0.605643537 52.3836465,2.6063375 55.3148601,5.96872878 L55.3148601,5.96872878 L55.359,6.021 L55.8233044,5.93132377 C56.4180002,5.82834934 57.0219986,5.76600132 57.6321756,5.74539022 L57.6321756,5.74539022 L58.0909181,5.73777493 C64.2980439,5.74532403 69.5554097,10.0686567 70.9652771,15.9577904 L70.9652771,15.9577904 L71.006,16.14 L71.2838932,16.2401178 C76.7590511,18.2658356 80.5801189,23.5070939 80.7124562,29.5518268 L80.7124562,29.5518268 L80.7160003,29.8884566 C80.709408,37.9017837 74.2662078,44.4033312 66.3111938,44.3999988 C66.0343639,44.3999988 65.7574145,44.3919013 65.4804392,44.3758719 L65.4804392,44.3758719 L65.572,44.379 L35.4717406,44.379881 C35.260724,44.379881 35.0502294,44.374653 34.8403937,44.3642269 L34.8403937,44.3642269 L34.592,44.348 L34.3336371,44.3401424 C26.4541613,43.9937132 20.1829435,37.5208379 20.019276,29.5626036 L20.019276,29.5626036 L20.0159973,29.2434931 C20.016248,28.8166796 20.0343911,28.3917231 20.0700096,27.9696457 L13.9882859,27.9698008 L13.9882859,23.217615 L21.261981,23.2173422 C22.004061,21.4980601 23.0637863,19.9164889 24.403716,18.5643468 C25.3943858,17.5646478 26.514817,16.7141352 27.7307121,16.033461 L27.7307121,16.033461 L27.876,15.954 L27.8903397,15.6016506 C28.0833563,11.8399032 29.6020222,8.26428547 32.18056,5.52566272 L32.18056,5.52566272 L32.4608754,5.23547129 C35.4038393,2.2657788 39.3973326,0.597439308 43.5634086,0.599996392 Z M20.3852271,4.54736569 C22.4353907,4.54989504 24.4067941,5.02243855 26.1782302,5.88637709 L23.1183058,9.80525983 C22.3595403,9.54447707 21.5581948,9.39019888 20.7337104,9.35483788 L20.379,9.347 L20.072795,9.35279197 C17.9213661,9.42995436 15.8722542,10.3271755 14.3403366,11.8730062 C12.7307554,13.497206 11.8243418,15.7042447 11.8229535,18.0062177 L11.8293521,18.3452604 L11.8293521,18.3452604 L11.8484963,18.6821656 L11.9810657,20.4283428 L10.3586132,21.0874005 C9.36495537,21.491035 8.45947172,22.0937728 7.69676274,22.8634332 C6.19461674,24.3792701 5.3486306,26.4392656 5.34736842,28.587902 C5.34736842,32.9012101 8.68433859,36.4284117 12.8872749,36.6562124 L13.1354867,36.6657879 L13.4850794,36.6844507 L13.7126307,36.6886738 L15.9953688,36.6883632 L19.6633688,41.4883632 L13.7126307,41.4886738 C13.6447661,41.4886738 13.5769624,41.4880432 13.5092259,41.4867833 L13.3062244,41.4811173 L12.976,41.462 L12.7154934,41.4536723 C6.13113536,41.1436163 0.874604876,35.8178854 0.562073885,29.2096574 L0.551058883,28.8989716 L0.547368835,28.5864926 C0.549372941,25.1737354 1.89377861,21.900077 4.28728812,19.4847526 C4.99897645,18.7665778 5.78926074,18.1386739 6.64063885,17.6115929 L7.00920459,17.3919047 L7.038,17.375 L7.04477285,17.243101 C7.21703445,14.207511 8.40376322,11.3182158 10.4118846,9.04851471 L10.6671639,8.76806336 L10.9309155,8.49427153 C13.4365881,5.96584195 16.8371984,4.54518788 20.3852271,4.54736569 Z M43.557,5.399 L43.2138316,5.40532235 C40.4577539,5.49209757 37.8307676,6.63592951 35.8702965,8.61420599 C33.8234237,10.6796689 32.6711309,13.4854026 32.669366,16.4117963 C32.6693662,16.6996262 32.6802225,16.9858885 32.7018088,17.2702189 L32.7018088,17.2702189 L32.8343782,19.0163961 L31.2119256,19.6754538 C29.9430048,20.1909031 28.78683,20.9605141 27.8131906,21.9430275 C27.4195025,22.3403037 27.0611549,22.7668357 26.7402266,23.2175935 L39.9432859,23.2177079 L39.9437079,16.2437079 L48.4437079,25.5937079 L39.9437079,34.9437079 L39.9432859,27.9707079 L24.8949017,27.9695726 C24.8428561,28.3904376 24.8162487,28.8162877 24.8159969,29.2449025 C24.8159969,34.8549723 29.2437632,39.4250907 34.760056,39.5519907 L34.760056,39.5519907 L35.1767469,39.5744047 L35.4717406,39.579881 L65.6191023,39.579881 L66.0351027,39.5959617 L66.3121995,39.6000003 C71.6069278,39.6022164 75.9115809,35.258582 75.916012,29.8845144 C75.919776,25.2817225 72.7413077,21.3382025 68.3678801,20.3749211 L68.3678801,20.3749211 L66.6632225,19.9994571 L66.4952613,18.2620396 C66.0733407,13.897624 62.4380367,10.5430654 58.0867208,10.5377728 C57.1100042,10.5372526 56.1590332,10.7033293 55.2605943,11.0249348 L55.2605943,11.0249348 L53.5215893,11.6474299 L52.4745801,10.1257827 C50.4532998,7.18820058 47.1551532,5.40443189 43.557,5.399 L43.557,5.399 Z"/>
</svg>
