<svg width="867" height="500" viewBox="0 0 867 500" fill="none" xmlns="http://www.w3.org/2000/svg">
<path fill-rule="evenodd" clip-rule="evenodd" d="M0 0L867 0L867 500L0 500L0 0Z"/>
<mask id="mask0" mask-type="alpha" maskUnits="userSpaceOnUse" x="0" y="0" width="867" height="500">
<path fill-rule="evenodd" clip-rule="evenodd" d="M0 0L867 0L867 500L0 500L0 0Z" fill="white"/>
</mask>
<g mask="url(#mask0)">
<g opacity="0.4">
<path fill-rule="evenodd" clip-rule="evenodd" d="M250.986 244.456C254.56 247.474 258.531 247.439 262.149 244.513C265.569 241.747 266.497 238.143 264.376 234.117C262.478 230.514 259.953 227.392 256.566 224.513C253.265 227.334 250.818 230.518 248.826 234.053C246.551 238.094 247.679 241.664 250.986 244.456V244.456ZM282.222 244.523C285.84 247.532 289.809 247.399 293.384 244.455C296.777 241.66 297.626 238.041 295.484 234.027C293.642 230.572 291.217 227.559 287.712 224.49C284.424 227.463 281.871 230.558 279.929 234.146C277.718 238.236 278.898 241.756 282.222 244.523V244.523ZM313.448 244.575C317.095 247.558 321.079 247.367 324.61 244.397C327.964 241.577 328.796 237.922 326.61 233.939C324.731 230.515 322.35 227.459 318.995 224.636C315.46 227.215 313.261 230.415 311.285 233.728C308.802 237.891 309.872 241.652 313.448 244.575V244.575ZM332.201 317.594H239.427C237.938 313.448 239.229 309.065 238.669 304.604C249.929 309.192 253.201 308.741 259.071 301.999C266.083 311.209 277.368 311.438 285.629 302.188C293.418 311.284 303.627 311.296 311.996 302.503C318.907 308.894 321.894 309.233 332.201 304.556V317.594ZM238.95 287.17H331.905V293.69C327.758 293.216 326.468 298.407 321.678 298.92C319.885 293.714 317.453 289.478 311.138 290.068C305.696 290.575 303.884 294.482 302.779 298.916C300.21 300.42 297.75 300.483 294.922 299.007C293.679 294.151 291.472 289.817 285.162 290.041C279.436 290.243 277.317 294.147 276.223 298.917C273.694 300.525 271.244 300.442 268.385 299.009C267.137 294.769 265.473 290.439 259.759 290.054C253.544 289.635 250.97 293.732 249.584 298.6C244.561 299.149 243.741 292.635 238.95 294.333V287.17ZM341.05 277.747H323.217V251.283C320.075 251.293 317.418 250.712 314.301 251.771V277.423H292.006V251.49C288.854 251.086 286.2 250.816 283.088 251.804V277.324H260.795V251.248C257.716 251.261 255.174 250.761 251.96 251.817V277.791H229.913C229.913 292.182 229.704 305.856 230.027 319.517C230.14 324.209 233.56 326.711 238.286 326.828C243.289 326.952 248.298 326.866 253.305 326.866C279.266 326.867 305.226 326.841 331.188 326.887C336.19 326.896 340.708 325.358 340.892 319.977C341.367 306.143 341.05 292.284 341.05 277.747V277.747Z" fill="white"/>
</g>
<g opacity="0.4">
<path fill-rule="evenodd" clip-rule="evenodd" d="M611.718 24.7874C625.675 36.5727 641.183 36.438 655.313 25.0089C668.666 14.2097 672.291 0.135084 664.006 -15.5859C656.596 -29.6562 646.738 -41.8498 633.511 -53.0922C620.62 -42.0757 611.062 -29.6431 603.286 -15.8379C594.401 -0.0560511 598.804 13.8839 611.718 24.7874V24.7874ZM733.701 25.0488C747.827 36.7994 763.326 36.2824 777.287 24.7838C790.54 13.8673 793.852 -0.2638 785.489 -15.937C778.296 -29.4295 768.825 -41.1975 755.138 -53.1826C742.298 -41.5711 732.327 -29.486 724.747 -15.4722C716.11 0.496402 720.718 14.2452 733.701 25.0488V25.0488ZM855.64 25.254C869.883 36.9003 885.44 36.1575 899.227 24.559C912.327 13.5469 915.574 -0.727544 907.038 -16.2835C899.701 -29.6544 890.403 -41.5874 877.303 -52.6125C863.498 -42.5387 854.91 -30.0453 847.195 -17.1045C837.498 -0.849178 841.675 13.8379 855.64 25.254V25.254ZM928.872 310.399H566.581C560.765 294.209 565.807 277.094 563.621 259.674C607.59 277.589 620.369 275.83 643.293 249.501C670.676 285.465 714.745 286.36 747.005 250.239C777.422 285.76 817.288 285.804 849.97 251.468C876.957 276.425 888.623 277.75 928.872 259.483V310.399ZM564.716 191.59H927.716V217.051C911.521 215.2 906.483 235.474 887.78 237.476C880.778 217.146 871.281 200.604 846.619 202.906C825.368 204.887 818.292 220.144 813.976 237.459C803.944 243.332 794.339 243.579 783.294 237.815C778.439 218.853 769.82 201.929 745.179 202.802C722.821 203.593 714.545 218.836 710.272 237.463C700.397 243.745 690.83 243.419 679.664 237.824C674.792 221.264 668.294 204.357 645.979 202.854C621.708 201.217 611.659 217.216 606.243 236.225C586.627 238.371 583.428 212.932 564.716 219.561V191.59ZM963.43 154.792H893.79V51.4477C881.52 51.4868 871.145 49.2192 858.97 53.3547V153.528H771.905V52.2557C759.596 50.6788 749.234 49.6232 737.081 53.4807V153.141H650.025V51.313C638.002 51.3608 628.075 49.4103 615.522 53.5328V154.966H529.426C529.426 211.164 528.609 264.561 529.874 317.91C530.313 336.233 543.67 346.002 562.125 346.459C581.662 346.945 601.222 346.606 620.777 346.606C722.155 346.611 823.533 346.511 924.916 346.689C944.449 346.724 962.092 340.72 962.813 319.704C964.665 265.682 963.43 211.559 963.43 154.792V154.792Z" fill="white"/>
</g>
</g>
</svg>
