<svg width="60" height="60" viewBox="0 0 60 60" xmlns="http://www.w3.org/2000/svg">
	<path
		d="M31.4157608,29.3558565 L31.4157608,31.0685202 L29.7702984,31.0685202 L29.7702984,29.4733896 C28.6450233,29.4230578 27.5534871,29.1207905 26.9152136,28.7513219 L27.4190847,26.7864462 C28.1242829,27.1730607 29.1151554,27.5253833 30.2069682,27.5253833 C31.1638253,27.5253833 31.8186917,27.1559147 31.8186917,26.4841789 C31.8186917,25.8459054 31.2816349,25.4429745 30.0391033,25.0231742 C28.2420924,24.4185566 27.0161538,23.5789283 27.0161538,21.9497545 C27.0161538,20.4719633 28.0570816,19.3133642 29.8543691,18.9604886 L29.8543691,17.3649707 L31.4998315,17.3649707 L31.4998315,18.8430385 C32.6251066,18.893149 33.3809131,19.1283257 33.9351159,19.3971583 L33.4481144,21.2946393 C33.011168,21.1103751 32.2387686,20.7238159 31.0296994,20.7238159 C29.9378867,20.7238159 29.5852876,21.1941416 29.5852876,21.6642184 C29.5852876,22.2185872 30.1732293,22.5711862 31.6007717,23.1086026 C33.5991097,23.8140773 34.4052481,24.7374998 34.4052481,26.2488363 C34.4052481,27.7438564 33.3471742,29.0201269 31.4157608,29.3558565 L31.4157608,29.3558565 Z M30.4768793,14.461656 C25.0097958,14.461656 20.5777773,18.8934256 20.5777773,24.3603708 C20.5777773,29.827648 25.0097958,34.2593346 30.4768793,34.2593346 C35.9436863,34.2593346 40.375373,29.827648 40.375373,24.3603708 C40.375373,18.8934256 35.9436863,14.461656 30.4768793,14.461656 L30.4768793,14.461656 Z M38.7595012,42.1379194 L22.1940086,42.1379194 C21.3050717,42.1379194 20.5777773,42.8649649 20.5777773,43.7543443 C20.5777773,44.642894 21.3050717,45.370216 22.1940086,45.370216 L38.7595012,45.370216 C39.6483275,45.370216 40.375373,44.642894 40.375373,43.7543443 C40.375373,42.8649649 39.6483275,42.1379194 38.7595012,42.1379194 L38.7595012,42.1379194 Z M38.7595012,37.2894744 L22.1940086,37.2894744 C21.3050717,37.2894744 20.5777773,38.0167965 20.5777773,38.9058993 C20.5777773,39.7947256 21.3050717,40.5217711 22.1940086,40.5217711 L38.7595012,40.5217711 C39.6483275,40.5217711 40.375373,39.7947256 40.375373,38.9058993 C40.375373,38.0167965 39.6483275,37.2894744 38.7595012,37.2894744 L38.7595012,37.2894744 Z M45.1461078,48.6525679 C45.1461078,48.7640169 45.0556766,48.8547247 44.943951,48.8547247 L15.989509,48.8547247 C15.877977,48.8547247 15.7874628,48.7640169 15.7874628,48.6525679 L15.7874628,11.3309908 C15.7874628,11.2194589 15.877977,11.1289446 15.989509,11.1289446 L44.943951,11.1289446 C45.0556766,11.1289446 45.1461078,11.2194589 45.1461078,11.3309908 L45.1461078,48.6525679 Z M45.5982334,8.05590439 L15.3357151,8.05590439 C14.0399975,8.05590439 12.9795492,9.13357346 12.9795492,10.4506357 L12.9795492,49.5331168 C12.9795492,50.8499307 14.0399975,51.9278756 15.3357151,51.9278756 L45.5982334,51.9278756 C46.8937067,51.9278756 47.9539108,50.8499307 47.9539108,49.5331168 L47.9539108,10.4506357 C47.9539108,9.13357346 46.8937067,8.05590439 45.5982334,8.05590439 L45.5982334,8.05590439 Z"
		fill="#A3B2C5" fill-rule="evenodd"/>
</svg>