<svg xmlns="http://www.w3.org/2000/svg" width="60" height="60" viewBox="0 0 60 60">
  <path fill="#A3B2C5" fill-rule="evenodd" d="M32.4376255,50.4602223 C33.0285088,50.4602223 33.5075143,50.9392279 33.5075143,51.5301112 C33.5075143,52.1209944 33.0285088,52.6 32.4376255,52.6 L28.667541,52.6 C28.0766577,52.6 27.5976521,52.1209944 27.5976521,51.5301112 C27.5976521,50.9392279 28.0766577,50.4602223 28.667541,50.4602223 L32.4376255,50.4602223 Z M34.5264561,45.6711961 C35.4268497,45.6711961 36.1567629,46.4011093 36.1567629,47.3015029 C36.1567629,48.2018965 35.4268497,48.9318097 34.5264561,48.9318097 L26.5787104,48.9318097 C25.6783168,48.9318097 24.9484036,48.2018965 24.9484036,47.3015029 C24.9484036,46.4011093 25.6783168,45.6711961 26.5787104,45.6711961 L34.5264561,45.6711961 Z M30.2467842,15.51052 C36.8308481,15.51052 42.1682864,20.8479583 42.1682864,27.4320222 C42.1682864,31.5922211 36.9988203,36.8162152 36.8074166,42.1510549 C36.7208742,44.5631822 32.9999722,44.0280451 30.5644191,43.9933975 L30.3400018,43.9917208 C27.9504167,43.9917208 23.9759398,44.6355087 23.7662182,42.2034652 C23.2926555,36.71178 18.3252821,31.6265009 18.3252821,27.4320222 C18.3252821,20.8479583 23.6627204,15.51052 30.2467842,15.51052 Z M11.7960827,21.5943442 L14.5519047,22.3327644 C15.3129039,22.5366736 15.7645147,23.3188864 15.5606056,24.0798856 C15.3566964,24.8408849 14.5744837,25.2924956 13.8134844,25.0885865 L11.0576624,24.3501662 C10.2966631,24.1462571 9.84505236,23.3640443 10.0489615,22.603045 C10.2528706,21.8420458 11.0350834,21.390435 11.7960827,21.5943442 Z M49.3606165,22.4284582 C49.5645256,23.1894575 49.1129149,23.9716703 48.3519156,24.1755794 L45.5960936,24.9139997 C44.8350943,25.1179088 44.0528816,24.6662981 43.8489724,23.9052988 C43.6450633,23.1442996 44.0966741,22.3620868 44.8576733,22.1581776 L47.6134953,21.4197574 C48.3744946,21.2158482 49.1567074,21.667459 49.3606165,22.4284582 Z M18.1444401,12.1421797 L20.1618418,14.1595815 C20.7189319,14.7166716 20.7189319,15.6198931 20.1618418,16.1769832 C19.6047517,16.7340734 18.7015302,16.7340734 18.1444401,16.1769832 L16.1270383,14.1595815 C15.5699482,13.6024914 15.5699482,12.6992699 16.1270383,12.1421797 C16.6841284,11.5850896 17.5873499,11.5850896 18.1444401,12.1421797 Z M43.7663275,11.812463 C44.35181,12.3396338 44.399081,13.2416175 43.8719102,13.8271 L41.9628558,15.9473196 C41.435685,16.5328021 40.5337013,16.580073 39.9482189,16.0529022 C39.3627364,15.5257314 39.3154654,14.6237477 39.8426362,14.0382653 L41.7516905,11.9180456 C42.2788613,11.3325632 43.180845,11.2852922 43.7663275,11.812463 Z M30.2467842,7.6 C31.0346286,7.6 31.6733027,8.23867407 31.6733027,9.02651846 L31.6733027,11.8795554 C31.6733027,12.6673998 31.0346286,13.3060738 30.2467842,13.3060738 C29.4589399,13.3060738 28.8202658,12.6673998 28.8202658,11.8795554 L28.8202658,9.02651846 C28.8202658,8.23867407 29.4589399,7.6 30.2467842,7.6 Z"/>
</svg>
