<?xml version="1.0" encoding="UTF-8"?>
<svg width="46px" height="32px" viewBox="0 0 46 32" version="1.1" xmlns="http://www.w3.org/2000/svg" xmlns:xlink="http://www.w3.org/1999/xlink">
    <title>Icon</title>
    <g id="Symbols" stroke="none" stroke-width="1" fill="none" fill-rule="evenodd">
        <g id="Icons-/-Type-1-/-Icon-/-f-01" transform="translate(-7.000000, -14.000000)" fill="#A3B2C5">
            <path d="M33.5915691,25.3603802 C33.4521693,25.2125319 33.2846079,25.0928452 33.0931092,25.0041362 C32.9058347,24.9182434 32.7072956,24.8717768 32.5031242,24.8717768 C32.2961366,24.8717768 32.1032298,24.9168353 31.9117311,25.0041362 C31.7188243,25.0928452 31.5568952,25.2097157 31.4146792,25.3603802 C31.2738713,25.5096365 31.161225,25.6842383 31.0781484,25.8771451 C30.9936636,26.07146 30.9528294,26.2657749 30.9528294,26.4727625 C30.9528294,26.6797501 30.9950717,26.8811053 31.0781484,27.0768283 C31.1598169,27.2725513 31.2738713,27.445745 31.4132711,27.5921852 C31.5554871,27.7386254 31.7188243,27.8540878 31.910323,27.9413887 C32.2947285,28.1159905 32.714336,28.1145824 33.0931092,27.9413887 C33.286016,27.8540878 33.4535774,27.7358092 33.5929772,27.5921852 C33.732377,27.447153 33.8450233,27.2725513 33.9281,27.0768283 C34.0097685,26.8811053 34.0520109,26.678342 34.0520109,26.4727625 C34.0520109,26.267183 34.0111766,26.07146 33.9281,25.8771451 C33.8450233,25.6842383 33.7309689,25.5096365 33.5915691,25.3603802 L33.5915691,25.3603802 Z M50.2843439,43.4260319 L19.196779,43.4260319 L19.196779,39.0074804 L41.6373317,39.0074804 C42.1977471,39.0074804 42.9398046,38.2668309 42.9398046,37.7050075 L42.9398046,23.5650796 L50.2843439,23.5650796 L50.2843439,43.4260319 Z M17.4606178,33.5596233 C16.1511045,33.517381 15.1372877,33.5089325 14.1262871,33.445569 C12.9420928,33.3695327 11.7564904,33.2667429 10.6187627,32.9062748 C10.4019185,32.840095 10.1977471,32.7373053 9.99075948,32.6443721 C9.81052539,32.5627035 9.7232245,32.4317522 9.75279416,32.2275807 C9.83587081,31.6713896 9.86825662,31.1053419 9.99779988,30.5604154 C10.1766259,29.802869 10.6722696,29.3015929 11.4481211,29.0326498 C12.464754,28.6834463 13.4673062,28.2962246 14.4698583,27.9118191 C15.0696999,27.6823022 15.4484731,27.159905 15.4329842,26.6163865 C15.4315762,26.5290856 15.39215,26.4234797 15.3330106,26.3601162 C14.6022177,25.5800405 14.1417759,24.67887 13.9868873,23.6354836 C13.8531198,22.732905 13.8446713,21.8275103 14.1375517,20.9474611 C14.499428,19.8547919 15.2654229,19.195811 16.4439849,18.9860072 C17.1691455,18.8550559 17.8774091,18.8958902 18.5631435,19.1493444 C19.5600634,19.518261 20.0937252,20.2659509 20.3345067,21.2361172 C20.517557,21.9767667 20.5091085,22.7188243 20.4203995,23.4721464 C20.3063452,24.411335 19.9599578,25.25055 19.3657485,25.9954237 C19.2911203,26.0911731 19.2207164,26.1953709 19.1291912,26.2714072 C18.9658541,26.4079908 18.9264279,26.5656957 18.9940157,26.7529702 C19.0728681,26.9726305 19.1545367,27.1908827 19.2474699,27.4035026 C19.3347707,27.5992256 19.4882513,27.7358092 19.6952389,27.8132535 C20.6485083,28.1737217 21.6003696,28.5313738 22.5508228,28.8974743 C22.8887618,29.0270175 23.2379653,29.1452961 23.5463346,29.3269383 C24.0701399,29.6367157 24.322186,30.1492564 24.4320162,30.7096717 C24.536214,31.2377013 24.5685998,31.7784036 24.6375957,32.3120655 C24.6516765,32.4303441 24.5981695,32.4965238 24.5024201,32.5627035 C24.1151985,32.8260143 23.6702455,32.964006 23.2182522,33.0470826 C22.4719704,33.1822582 21.7200563,33.3118015 20.9667341,33.3709408 C19.7036874,33.4709144 18.4350084,33.5103406 17.4606178,33.5596233 L17.4606178,33.5596233 Z M26.3582681,23.3637244 C26.7004312,22.5808325 27.1538326,22.1485523 27.7269207,21.5979935 L27.8761771,21.4543694 C28.518261,20.8362228 29.2800317,20.3433952 30.143184,19.9899674 C31.0063364,19.6351316 31.9539734,19.4563056 32.9593417,19.4563056 C33.8872657,19.4563056 34.7630907,19.6126023 35.5614714,19.9209716 C36.3640764,20.2293408 37.0695239,20.660213 37.6595089,21.1980991 C38.249494,21.7388014 38.7212004,22.3822934 39.0605474,23.1102702 C39.3984863,23.8424712 39.5702719,24.6309953 39.5702719,25.4589457 C39.5702719,26.1573528 39.481563,26.8050691 39.304145,27.3837895 C39.125319,27.9681422 38.8662325,28.4778668 38.5367421,28.9002904 C38.2044354,29.3241222 37.7989087,29.6592449 37.3300185,29.8943941 C36.8625363,30.1281352 36.3302825,30.2464138 35.7473379,30.2464138 C35.4164393,30.2464138 35.1151104,30.1591129 34.8517997,29.9873273 C34.6363636,29.8479275 34.4420488,29.6648772 34.2730793,29.4409927 C33.9281,29.7634428 33.590161,29.9718384 33.2691191,30.0633635 C32.4946757,30.28584 31.8328786,30.2661269 31.1006776,29.9380445 C30.6993752,29.7578104 30.3276423,29.500132 29.9953357,29.1748658 C29.6630291,28.8481915 29.3842295,28.4539294 29.1659773,28.0047523 C28.9435008,27.5485347 28.8308545,27.0388102 28.8308545,26.4896594 C28.8308545,25.9531814 28.9364604,25.4533134 29.1476723,25.0027282 C29.3588841,24.5521429 29.6362756,24.1621051 29.9742146,23.8452873 C30.3093373,23.5242454 30.7021913,23.2750154 31.1415119,23.0990055 C31.5780164,22.9229957 32.0328258,22.8342867 32.4862272,22.8342867 C32.9889114,22.8342867 33.4380885,22.9328522 33.8182698,23.1285752 C34.0815806,23.2637508 34.2984247,23.4327202 34.4673942,23.6298513 L34.5814486,22.9863592 L36.4119511,22.9863592 L36.393646,23.1440641 L35.8881457,27.3514037 C35.8543518,27.6118983 35.8374549,27.8780252 35.8374549,28.1469682 C35.8374549,28.2258206 35.8543518,28.2835519 35.8895538,28.3243862 C35.9261639,28.3708528 35.9585497,28.3778932 35.9838951,28.3778932 C36.2120039,28.3778932 36.4189915,28.303265 36.6161225,28.1526005 C36.8202939,27.9963038 37.000528,27.7836839 37.1540086,27.517557 C37.3103054,27.2486139 37.4328082,26.9360204 37.5201091,26.5910411 C37.60741,26.2474699 37.6510605,25.8841855 37.6510605,25.5096365 C37.6510605,24.8914899 37.5299657,24.321218 37.2920004,23.8114934 C37.054035,23.303177 36.7231365,22.8652645 36.3063452,22.5090205 C35.8881457,22.1499604 35.3882777,21.8683446 34.8236381,21.6726217 C34.2533662,21.4754906 33.6309953,21.375517 32.9762387,21.375517 C32.2186922,21.375517 31.5118367,21.5064684 30.8739769,21.7627387 C30.2361172,22.0190091 29.6771099,22.3724369 29.213852,22.8145736 C28.750594,23.2553023 28.3830855,23.7889642 28.1197747,24.3986623 C27.8592801,25.0125847 27.7255126,25.6757898 27.7255126,26.3713808 C27.7255126,27.1570888 27.8705448,27.8709848 28.1535686,28.4947637 C28.4380005,29.1143184 28.8252222,29.6437561 29.3081933,30.0675878 C29.7939805,30.4928276 30.3684766,30.82091 31.0190091,31.0447945 C31.6709496,31.2700871 32.374989,31.3841415 33.1114142,31.3841415 C33.5507348,31.3841415 33.9379565,31.3700607 34.2660389,31.3418991 C34.5927132,31.3151456 34.9053067,31.2630467 35.196779,31.1870105 C35.4910675,31.1081581 35.7712752,31.0025521 36.0303617,30.874417 C36.2993048,30.7434656 36.5992256,30.5702719 36.9202675,30.3590601 L37.0469946,30.2759835 L38.0523629,32.0853648 L37.9383085,32.1571768 C37.2441257,32.589457 36.5062924,32.9147232 35.7487459,33.1287512 C35.0207692,33.3286984 34.0660917,33.4441609 33.1283112,33.4441609 C31.9525653,33.4441609 30.8232861,33.249846 29.9516853,32.8950101 C29.0547391,32.5289096 28.2817038,32.0234093 27.6508844,31.39259 C26.946845,30.6899586 26.463874,29.7282408 26.1822582,29.0439145 C25.840095,28.2103318 25.6669013,27.3119775 25.6669013,26.3713808 C25.6669013,25.3139136 26.0400422,24.0902931 26.3582681,23.3637244 L26.3582681,23.3637244 Z M51.6896066,20.8503036 L42.9398046,20.8855056 L42.9398046,15.3024729 C42.9398046,14.7406495 42.1977471,14 41.6373317,14 L8.30388102,14 C7.74205756,14 7,14.7406495 7,15.3024729 L7,37.7050075 C7,38.2668309 7.74205756,39.0074804 8.30388102,39.0074804 L16.6298513,39.0074804 L16.6298513,44.696119 C16.6298513,45.2593505 17.3705007,46 17.9337323,46 L51.6896066,45.8606002 C52.2514301,45.8606002 52.9920796,45.3987503 52.9920796,44.5567192 L52.9920796,22.1541846 C52.9920796,21.8725689 52.2514301,20.8503036 51.6896066,20.8503036 L51.6896066,20.8503036 Z" id="Icon"></path>
        </g>
    </g>
</svg>