<?xml version="1.0" encoding="UTF-8"?>
<svg width="34px" height="38px" viewBox="0 0 34 38" version="1.1" xmlns="http://www.w3.org/2000/svg" xmlns:xlink="http://www.w3.org/1999/xlink">
    <title>Icon</title>
    <g id="Symbols" stroke="none" stroke-width="1" fill="none" fill-rule="evenodd">
        <g id="Icons-/-Type-1-/-Icon-/-f-02" transform="translate(-13.000000, -11.000000)" fill="#A3B2C5">
            <path d="M18.7319862,32.0664142 C18.8802689,31.1077155 19.6231503,30.3501526 20.5803809,30.1857204 C20.5803809,30.1857204 22.0397172,29.7893212 23.8969208,29.0831434 C23.899857,28.6735309 24.2008268,28.3285168 24.6045667,28.269791 L25.2285284,28.269791 L25.1375034,26.9367152 C24.2668933,26.5887648 23.6649538,25.7842213 23.5783333,24.850481 C23.4227099,23.7053278 23.3258123,22.5513658 23.2891087,21.3944674 C23.2788317,21.2652706 23.2758954,21.1360739 23.281768,21.005409 C23.3625159,19.2583163 24.8438744,18.0691187 26.5894989,18.1498667 L26.6687787,18.1498667 C26.8831279,18.1249082 27.0989453,18.1234401 27.3147626,18.1454623 C29.0280879,18.314299 30.2804157,19.6811421 30.1101109,21.3944674 C30.0939613,22.5543021 29.9970637,23.7082641 29.8208863,24.8519492 C29.7019665,25.7724761 29.1103041,26.5638064 28.2617162,26.9381834 L28.1706912,28.2712591 L28.7931847,28.2712591 C29.1939883,28.3123672 29.4993625,28.6500406 29.5022988,29.0523123 C31.4196963,29.7276591 32.6015531,30.0917591 32.6015531,30.0917591 C33.530889,30.3853881 34.2767067,31.2413167 34.6319978,32.1500985 C34.643743,32.1912066 34.6510837,32.2337828 34.65402,32.2778271 L34.65402,33.4259166 C34.633466,33.5888807 34.5644632,33.7445041 34.4572886,33.8707646 C34.3515821,33.9955569 34.1959587,34.067496 34.0315265,34.067496 C34.0315265,34.067496 31.5356798,35.159796 26.4705791,35.2273307 C21.4040104,35.2948654 19.336862,33.9089364 19.336862,33.9089364 C19.2869451,33.9074682 19.2384963,33.8986594 19.1915157,33.8825098 C19.0681915,33.8531469 18.9595487,33.7797396 18.8832052,33.6799057 C18.8230112,33.6079666 18.7819032,33.5242823 18.7569447,33.4361936 L18.7319862,33.2644207 L18.7319862,32.0664142 Z M45.9279063,15.5277595 C45.9279063,14.9434378 45.4478229,14.1711934 44.568404,14.1711934 L41.5807287,14.1711934 L41.5807287,16.9929684 L43.3909516,16.9929684 L43.3909516,46.3235715 L19.7450064,46.3235715 L19.7450064,44.6043735 L39.8879573,44.6043735 C40.5045783,44.6043735 41.3164625,43.9099409 41.3164625,43.3858131 L41.3164625,41.7899393 L37.6270139,41.7899393 C37.415601,41.7899393 37.243828,41.6181664 37.243828,41.4067535 L37.243828,37.7173048 C37.243828,37.5058919 37.415601,37.3341189 37.6270139,37.3341189 L41.3164625,37.3341189 L41.3164625,35.90855 L37.6270139,35.90855 C37.415601,35.90855 37.243828,35.736777 37.243828,35.5253641 L37.243828,31.8359155 C37.243828,31.6245026 37.415601,31.4527296 37.6270139,31.4527296 L41.3164625,31.4527296 L41.3164625,30.0271607 L37.6270139,30.0271607 C37.415601,30.0271607 37.243828,29.8553877 37.243828,29.645443 L37.243828,25.9545261 C37.243828,25.7431132 37.415601,25.5713403 37.6270139,25.5713403 L41.3164625,25.5713403 L41.3164625,24.1457714 L37.6270139,24.1457714 C37.415601,24.1457714 37.243828,23.9739984 37.243828,23.7640536 L37.243828,20.0731368 C37.243828,19.8617239 37.415601,19.6899509 37.6270139,19.6899509 L41.3164625,19.6899509 L41.3164625,18.2658502 L37.6270139,18.2658502 C37.415601,18.2658502 37.243828,18.092609 37.243828,17.8826643 L37.243828,14.1917475 C37.243828,13.9818027 37.415601,13.8085616 37.6270139,13.8085616 L41.3164625,13.8085616 L41.3164625,12.2185604 C41.3164625,11.6944326 40.5045783,11 39.8879573,11 L15.3523162,11 C14.7371634,11 13.9252791,11.6944326 13.9252791,12.2185604 L13.9252791,43.3858131 C13.9252791,43.586949 14.0647529,43.8042344 14.2453348,44.0068385 C14.8311247,44.8833211 17.6029827,49 18.1271105,49 L44.7152185,49 C45.3010084,49 46.0747209,48.2277557 46.0747209,47.6404976 L45.9279063,15.5277595 Z" id="Icon"></path>
        </g>
    </g>
</svg>