<svg xmlns="http://www.w3.org/2000/svg" width="89" height="72" viewBox="0 0 89 72">
  <path fill="#535C69" fill-rule="evenodd" d="M50.564,29.349 C50.564,29.349 49.88,31.492 49.772,31.778 C49.5238764,32.1473571 49.3147562,32.5414683 49.148,32.954 C49.288,32.954 50.748,33.632 50.748,33.632 L56.399,35.397 L56.317,38.075 C55.2482779,38.5006816 54.3073363,39.1946777 53.585,40.09 C53.3108675,40.6850691 52.9757404,41.2500934 52.585,41.776 C57.732,43.864 60.743,46.921 60.865,50.342 C60.949,50.951 64.072,62.158 64.251,64.682 L88.031,64.682 C88.051,64.577 87.314,50.082 87.307,49.97 C87.307,49.97 85.942,46.478 83.779,46.122 C81.616,45.766 78.836,45.006 77.673,44.122 C76.4270411,43.399783 75.1147024,42.7986991 73.754,42.327 C73.0574342,41.7163391 72.5159008,40.9489382 72.174,40.088 C71.4524283,39.1923548 70.5112073,38.4988417 69.442,38.075 L69.361,35.396 L75.012,33.631 C75.012,33.631 76.47,32.953 76.612,32.953 C76.385846,32.4801944 76.1258362,32.0243417 75.834,31.589 C75.727,31.304 75.195,29.351 75.195,29.351 C76.0198767,30.4069435 76.9870713,31.3435136 78.069,32.134 C77.1072209,30.3382041 76.2835088,28.4718144 75.605,26.551 C75.1520628,24.775988 74.8371232,22.9685956 74.663,21.145 C74.663,20.858 73.49,12.475 72.853,11.083 C72.216,9.691 71.353,7.801 69.863,6.872 C67.8392821,5.46950592 65.4781584,4.63206643 63.023,4.446 C62.977,4.446 62.931,4.446 62.883,4.44 C62.835,4.434 62.789,4.44 62.739,4.446 C60.2840258,4.63147752 57.9230745,5.46897829 55.9,6.872 C54.42,7.801 53.55,9.691 52.912,11.083 C52.274,12.475 51.101,20.858 51.101,21.145 C50.95095,23.0099573 50.6499643,24.8596818 50.201,26.676 C49.5215961,28.5631238 48.6829064,30.3890386 47.694,32.134 C48.7744255,31.3423474 49.7402328,30.4051442 50.564,29.349 L50.564,29.349 Z M62.939,72.969 C62.939,68.684 58.126,50.561 58.126,50.561 C58.126,47.912 54.661,44.886 47.833,43.123 C45.5205423,42.4782068 43.3220794,41.4786602 41.316,40.16 C40.878,39.91 40.944,37.597 40.944,37.597 L38.744,37.262 C38.744,37.074 38.556,34.3 38.556,34.3 C41.187,33.417 40.916,28.209 40.916,28.209 C42.586,29.134 43.674,25.017 43.674,25.017 C45.651,19.292 42.691,19.637 42.691,19.637 C43.631,15.352 42.691,9.092 42.691,9.092 C41.375,-2.508 21.562,0.644 23.911,4.432 C18.121,3.361 19.442,16.527 19.442,16.527 L20.698,19.927 C18.232,21.527 19.945,23.457 20.029,25.682 C20.15,28.966 22.158,28.282 22.158,28.282 C22.283,33.702 24.958,34.414 24.958,34.414 C25.458,37.814 25.148,37.239 25.148,37.239 L22.766,37.526 C22.798871,38.3000971 22.7360628,39.0752918 22.579,39.834 C19.773,41.081 19.179,41.812 16.394,43.029 C11.018,45.382 5.174,48.443 4.137,52.563 C3.1,56.683 0.016,72.963 0.016,72.963 L62.938,72.963 L62.938,72.963 L62.938,72.963 L62.939,72.969 Z" transform="translate(0 -1)" opacity=".1"/>
</svg>
