<svg width="16" height="16" fill="none" xmlns="http://www.w3.org/2000/svg"><circle cx="8" cy="8" r="8" fill="#FF5752"/><path fill-rule="evenodd" clip-rule="evenodd" d="M4.852 5.292c-.708.356-1.261 1.027-1.274 1.759-.003.165.008.33.019.494.012.195.056.315.155.596.1.282.385.733.65 1.058.193.236.412.45.642.656.286.256 2.086 1.554 2.737 2.022.14.1.327.1.467-.002.662-.486 2.53-1.86 2.78-2.087.242-.223.471-.457.667-.718.289-.387.605-1.023.666-1.265.06-.241.063-.405.061-.528-.001-.124-.006-.48-.075-.72-.151-.523-.613-.932-1.112-1.216a2.27 2.27 0 0 0-.905-.283 2.352 2.352 0 0 0-1.663.443c-.264.19-.478.422-.652.686L8 6.207c-.03-.038-.054-.075-.08-.11a2.55 2.55 0 0 0-.978-.826 2.308 2.308 0 0 0-1.011-.227c-.103 0-.205.006-.308.019-.272.033-.53.108-.77.229Z" fill="#fff"/></svg>