<svg width="19" height="18" viewBox="0 0 19 18" fill="none" xmlns="http://www.w3.org/2000/svg">
	<path d="M8.36518 4.48646H10.6152V7.86146H13.9902V10.1115H8.36518V4.48646Z" fill="#959CA4"/>
	<path fill-rule="evenodd" clip-rule="evenodd" d="M1.32304 12.6765C2.82341 16.013 6.20061 18.103 9.85597 17.9572C14.7054 17.858 18.5576 13.8489 18.4633 8.99938C18.4631 5.34112 16.24 2.05 12.8464 0.683926C9.45272 -0.682143 5.56948 0.150939 3.03482 2.78882C0.50016 5.4267 -0.177334 9.34009 1.32304 12.6765ZM3.40996 11.7381C4.52739 14.223 7.04261 15.7795 9.76501 15.671C13.3767 15.5971 16.2457 12.6113 16.1755 8.99948C16.1753 6.27493 14.5196 3.82381 11.9922 2.8064C9.46469 1.789 6.57257 2.40945 4.68484 4.37406C2.79711 6.33867 2.29253 9.25323 3.40996 11.7381Z" fill="#959CA4"/>
</svg>