<svg width="139" height="113" viewBox="0 0 139 113" fill="none" xmlns="http://www.w3.org/2000/svg">
	<path fill-rule="evenodd" clip-rule="evenodd" d="M99.7838 3.62936C100.621 3.62936 101.299 2.95091 101.299 2.114C101.299 1.27708 100.621 0.598633 99.7838 0.598633C98.9469 0.598633 98.2685 1.27708 98.2685 2.114C98.2685 2.95091 98.9469 3.62936 99.7838 3.62936ZM25.008 16.7198C26.8223 16.7198 28.2931 15.2491 28.2931 13.4348C28.2931 11.6205 26.8223 10.1497 25.008 10.1497C23.1937 10.1497 21.7229 11.6205 21.7229 13.4348C21.7229 15.2491 23.1937 16.7198 25.008 16.7198ZM25.0082 14.8882C25.8109 14.8882 26.4617 14.2375 26.4617 13.4348C26.4617 12.632 25.8109 11.9813 25.0082 11.9813C24.2055 11.9813 23.5548 12.632 23.5548 13.4348C23.5548 14.2375 24.2055 14.8882 25.0082 14.8882ZM8.31912 48.79C10.7627 48.79 12.7437 46.809 12.7437 44.3654C12.7437 41.9218 10.7627 39.9409 8.31912 39.9409C5.8755 39.9409 3.89456 41.9218 3.89456 44.3654C3.89456 46.809 5.8755 48.79 8.31912 48.79ZM8.31917 46.4808C9.48747 46.4808 10.4346 45.5337 10.4346 44.3654C10.4346 43.1971 9.48747 42.25 8.31917 42.25C7.15088 42.25 6.20379 43.1971 6.20379 44.3654C6.20379 45.5337 7.15088 46.4808 8.31917 46.4808ZM120.654 104.464C122.394 104.464 123.804 103.054 123.804 101.314C123.804 99.5743 122.394 98.164 120.654 98.164C118.914 98.164 117.504 99.5743 117.504 101.314C117.504 103.054 118.914 104.464 120.654 104.464ZM120.654 102.825C121.488 102.825 122.165 102.149 122.165 101.314C122.165 100.48 121.488 99.8036 120.654 99.8036C119.82 99.8036 119.143 100.48 119.143 101.314C119.143 102.149 119.82 102.825 120.654 102.825ZM70.2345 112.555C100.154 112.555 124.408 88.301 124.408 58.3816C124.408 28.4623 100.154 4.2078 70.2345 4.2078C40.3151 4.2078 16.0607 28.4623 16.0607 58.3816C16.0607 88.301 40.3151 112.555 70.2345 112.555ZM16.0347 108.769H5.5032C5.41308 108.769 5.32375 108.765 5.2353 108.759C2.85515 108.703 0.942503 106.703 0.942383 104.243C0.943075 103.045 1.40707 101.896 2.23228 101.048C2.65528 100.614 3.15543 100.278 3.69957 100.053C3.69047 99.9309 3.68583 99.8077 3.68583 99.6833C3.68658 98.4185 4.17618 97.2059 5.04692 96.3122C5.91765 95.4184 7.0982 94.9167 8.32886 94.9175C9.9053 94.9195 11.2971 95.7296 12.1336 96.9662C12.5308 96.8215 12.9584 96.7429 13.4038 96.7432C15.3717 96.7456 16.9879 98.2872 17.1753 100.259C19.0608 100.681 20.4718 102.407 20.4702 104.471C20.4682 106.85 18.5909 108.777 16.2765 108.776C16.1953 108.776 16.1147 108.773 16.0347 108.769ZM127.645 24.9906H135.119C135.176 24.9938 135.233 24.9954 135.291 24.9954C136.933 24.9961 138.265 23.6823 138.267 22.0606C138.268 20.6533 137.267 19.4763 135.928 19.1883C135.795 17.8441 134.648 16.793 133.252 16.7913C132.936 16.7911 132.632 16.8447 132.35 16.9433C131.757 16.1002 130.769 15.5479 129.65 15.5465C128.777 15.546 127.939 15.888 127.321 16.4974C126.703 17.1068 126.356 17.9336 126.355 18.7959C126.355 18.8807 126.359 18.9648 126.365 19.0479C125.979 19.2012 125.624 19.4307 125.324 19.7267C124.738 20.3043 124.409 21.0879 124.408 21.9051C124.408 23.5819 125.766 24.9457 127.455 24.9837C127.518 24.9882 127.581 24.9906 127.645 24.9906Z" fill="#EEF2F4"/>
	<g filter="url(#filter0_d_315_40760)">
		<rect x="35.9341" y="26.6216" width="67.635" height="24.652" rx="4.14229" fill="#DFE0E3"/>
	</g>
	<g filter="url(#filter1_d_315_40760)">
		<rect x="35.9341" y="42.4868" width="67.635" height="47.4076" rx="4.14229" fill="#D5D7DB"/>
	</g>
	<rect x="35.9341" y="41.0005" width="67.635" height="47.4076" rx="4.14229" fill="#DFE0E3"/>
	<rect x="35.9341" y="39.5142" width="67.635" height="47.4076" rx="4.14229" fill="white"/>
	<rect opacity="0.3" x="42.29" y="46.6133" width="7.43242" height="7.43242" rx="1.3916" fill="#BDC1C6"/>
	<rect opacity="0.3" x="42.29" y="59.248" width="7.43242" height="7.43242" rx="1.3916" fill="#BDC1C6"/>
	<rect opacity="0.3" x="42.29" y="71.8833" width="7.43242" height="7.43242" rx="1.3916" fill="#BDC1C6"/>
	<rect opacity="0.3" x="54.1475" y="46.6133" width="7.43242" height="7.43242" rx="1.3916" fill="#BDC1C6"/>
	<rect x="54.1475" y="59.248" width="7.43242" height="7.43242" rx="1.3916" fill="#C9CCD0"/>
	<rect opacity="0.3" x="54.1475" y="71.8833" width="7.43242" height="7.43242" rx="1.3916" fill="#BDC1C6"/>
	<rect opacity="0.3" x="66.0044" y="46.6133" width="7.43242" height="7.43242" rx="1.3916" fill="#BDC1C6"/>
	<rect opacity="0.3" x="66.0044" y="59.248" width="7.43242" height="7.43242" rx="1.3916" fill="#BDC1C6"/>
	<rect opacity="0.3" x="66.0044" y="71.8833" width="7.43242" height="7.43242" rx="1.3916" fill="#BDC1C6"/>
	<rect opacity="0.3" x="77.8613" y="46.6133" width="7.43242" height="7.43242" rx="1.3916" fill="#BDC1C6"/>
	<rect opacity="0.3" x="77.8613" y="59.248" width="7.43242" height="7.43242" rx="1.3916" fill="#BDC1C6"/>
	<rect opacity="0.3" x="89.7183" y="46.6133" width="7.43242" height="7.43242" rx="1.3916" fill="#BDC1C6"/>
	<rect opacity="0.3" x="89.7183" y="59.248" width="7.43242" height="7.43242" rx="1.3916" fill="#BDC1C6"/>
	<rect opacity="0.25" x="48.5693" y="22.1973" width="5.2027" height="13.3783" rx="2.60135" fill="#BDC1C6"/>
	<rect x="48.5693" y="20.7104" width="5.2027" height="13.3783" rx="2.60135" fill="#BDC1C6"/>
	<rect opacity="0.25" x="86.4746" y="22.1973" width="5.2027" height="13.3783" rx="2.60135" fill="#BDC1C6"/>
	<rect x="86.4746" y="20.7104" width="5.2027" height="13.3783" rx="2.60135" fill="#BDC1C6"/>
	<defs>
		<filter id="filter0_d_315_40760" x="34.1588" y="25.4381" width="71.1853" height="28.2024" filterUnits="userSpaceOnUse" color-interpolation-filters="sRGB">
			<feFlood flood-opacity="0" result="BackgroundImageFix"/>
			<feColorMatrix in="SourceAlpha" type="matrix" values="0 0 0 0 0 0 0 0 0 0 0 0 0 0 0 0 0 0 127 0" result="hardAlpha"/>
			<feOffset dy="0.591756"/>
			<feGaussianBlur stdDeviation="0.887634"/>
			<feComposite in2="hardAlpha" operator="out"/>
			<feColorMatrix type="matrix" values="0 0 0 0 0 0 0 0 0 0.294118 0 0 0 0 0.388235 0 0 0 0.09 0"/>
			<feBlend mode="normal" in2="BackgroundImageFix" result="effect1_dropShadow_315_40760"/>
			<feBlend mode="normal" in="SourceGraphic" in2="effect1_dropShadow_315_40760" result="shape"/>
		</filter>
		<filter id="filter1_d_315_40760" x="34.1588" y="41.3033" width="71.1853" height="50.9583" filterUnits="userSpaceOnUse" color-interpolation-filters="sRGB">
			<feFlood flood-opacity="0" result="BackgroundImageFix"/>
			<feColorMatrix in="SourceAlpha" type="matrix" values="0 0 0 0 0 0 0 0 0 0 0 0 0 0 0 0 0 0 127 0" result="hardAlpha"/>
			<feOffset dy="0.591756"/>
			<feGaussianBlur stdDeviation="0.887634"/>
			<feComposite in2="hardAlpha" operator="out"/>
			<feColorMatrix type="matrix" values="0 0 0 0 0 0 0 0 0 0.294118 0 0 0 0 0.388235 0 0 0 0.09 0"/>
			<feBlend mode="normal" in2="BackgroundImageFix" result="effect1_dropShadow_315_40760"/>
			<feBlend mode="normal" in="SourceGraphic" in2="effect1_dropShadow_315_40760" result="shape"/>
		</filter>
	</defs>
</svg>