<svg width="13" height="14" viewBox="0 0 13 14" fill="none" xmlns="http://www.w3.org/2000/svg">
	<path fill-rule="evenodd" clip-rule="evenodd" d="M10.9129 2.50938C13.3928 4.98934 13.3928 9.01014 10.9129 11.4901C8.43293 13.9701 4.41212 13.9701 1.93217 11.4901C1.8499 11.4078 1.77037 11.3239 1.69356 11.2383L3.07356 9.8585C3.14813 9.94568 3.22666 10.0306 3.30915 10.1131C5.02862 11.8326 7.81643 11.8326 9.5359 10.1131C11.2554 8.39364 11.2554 5.60583 9.5359 3.88637C7.81643 2.1669 5.02862 2.1669 3.30915 3.88637L3.23994 3.95793L5.08571 5.80443H0.227539V0.946258L1.86191 2.58073L1.93217 2.50938C4.41212 0.029425 8.43293 0.029425 10.9129 2.50938Z" fill="#828b95"/>
</svg>