<svg width="92" height="91" viewBox="0 0 92 91" fill="none" xmlns="http://www.w3.org/2000/svg">
	<path fill-rule="evenodd" clip-rule="evenodd" d="M18.0668 33.8238C19.0232 34.7802 19.8435 34.9163 20.6328 34.127C21.3035 33.4562 21.2068 32.5965 20.4141 31.8038L19.3696 30.7592L17.1859 32.9429L18.0668 33.8238ZM21.4972 29.9403C22.2523 30.6954 23.0896 30.6382 23.6551 30.0727C24.2472 29.4807 24.3301 28.6429 23.5246 27.8374L22.908 27.2208L20.8429 29.2859L21.4972 29.9403ZM22.6572 24.0234L25.2622 26.6284C27.0617 28.4279 26.7754 30.3251 25.6703 31.4302C24.9601 32.1404 23.9231 32.4978 22.9392 32.1981L22.9129 32.2243C23.631 33.4948 23.3428 34.8903 22.3695 35.8637C21.0539 37.1792 18.7833 37.4867 16.8201 35.5235L13.9886 32.692L22.6572 24.0234Z" fill="white"/>
	<path fill-rule="evenodd" clip-rule="evenodd" d="M20.6582 39.3613L22.357 41.0602L28.579 34.8382L26.8801 33.1393L20.6582 39.3613ZM28.6244 31.0426C29.19 30.477 30.0908 30.457 30.6824 31.0486C31.2612 31.6274 31.2675 32.502 30.6757 33.0939C30.0968 33.6727 29.1828 33.7058 28.604 33.1269C28.0125 32.5354 28.0324 31.6346 28.6244 31.0426Z" fill="white"/>
	<path fill-rule="evenodd" clip-rule="evenodd" d="M25.5988 41.0655L28.8215 37.8428L27.7267 36.7479L29.1079 35.3667L30.2028 36.4616L31.6629 35.0014L33.8874 36.1999L31.9142 38.1731L33.7138 39.9726L31.9425 40.9637L30.533 39.5543L27.7575 42.3298C27.1787 42.9086 27.1576 43.282 27.5477 43.6721C27.8749 43.9993 28.3206 44.2081 28.7049 44.2767L27.9855 45.9778C27.2294 45.8531 26.2781 45.2438 25.6867 44.6524C24.5541 43.5197 24.5071 42.1573 25.5988 41.0655Z" fill="white"/>
	<path fill-rule="evenodd" clip-rule="evenodd" d="M34.3177 40.5768L35.7524 42.0115L35.2834 42.8579C36.2735 42.8746 37.0805 43.0239 37.7223 43.6656C38.0118 43.9551 38.2721 44.3996 38.3389 44.8612L36.2742 45.743C36.1696 45.2437 35.9195 44.9148 35.756 44.7512C35.391 44.3862 34.9701 44.2283 34.1356 44.1568L29.7947 48.4977L28.0958 46.7988L34.3177 40.5768Z" fill="white"/>
	<path fill-rule="evenodd" clip-rule="evenodd" d="M32.5762 51.2793L34.2751 52.9782L40.497 46.7563L38.7981 45.0573L32.5762 51.2793ZM40.5424 42.9606C41.1079 42.395 42.0089 42.3751 42.6003 42.9665C43.1792 43.5454 43.1855 44.42 42.5936 45.0118C42.0147 45.5907 41.1008 45.6238 40.5219 45.0448C39.9305 44.4535 39.9503 43.5526 40.5424 42.9606Z" fill="white"/>
	<path fill-rule="evenodd" clip-rule="evenodd" d="M40.0861 52.5275L41.0003 47.2591L42.7622 49.021L42.2018 52.2492L45.4301 51.6889L47.1918 53.4506L41.8982 54.3397L40.995 59.6977L39.2333 57.936L39.8084 54.6175L36.4773 55.18L34.7155 53.4182L40.0861 52.5275Z" fill="white"/>
	<path fill-rule="evenodd" clip-rule="evenodd" d="M53.3424 58.2492C54.1734 57.4182 53.8096 56.4713 53.1122 55.7739C52.1778 54.8395 51.0901 54.3931 50.0435 54.0173L51.0859 51.9983C52.2601 52.4142 53.7846 53.0932 55.0956 54.4042C57.1457 56.4542 57.057 58.5233 55.5409 60.0394C52.8875 62.6928 48.6575 59.9497 46.0451 61.3904L50.2431 65.5883L48.552 67.2793L41.8717 60.599C46.9862 56.2376 51.4472 60.1445 53.3424 58.2492Z" fill="white"/>
	<path fill-rule="evenodd" clip-rule="evenodd" d="M55.3871 66.3287L56.2239 67.1655L57.259 66.1304C58.0025 65.387 58.9184 64.5825 59.1359 64.421L54.1859 65.215C54.3678 65.3677 55.0664 66.008 55.3871 66.3287ZM51.7745 63.3867L62.4997 61.8659L63.8666 63.2328L58.0789 69.0205L59.4456 70.3872L57.842 71.9908L56.4753 70.6241L54.1864 72.913L52.3315 71.058L54.6203 68.7691L50.5062 64.655L51.7745 63.3867Z" fill="white"/>
	<path fill-rule="evenodd" clip-rule="evenodd" d="M63.7257 74.3758C62.4028 73.0529 62.4551 70.8559 63.8424 69.4686C65.2298 68.0812 67.4267 68.029 68.7496 69.3519C70.0725 70.6748 70.0203 72.8717 68.6329 74.2591C67.2456 75.6464 65.0486 75.6987 63.7257 74.3758ZM69.4673 68.6342C67.7665 66.9335 64.9418 67.0006 63.1581 68.7843C61.3744 70.568 61.3072 73.3928 63.008 75.0935C64.7087 76.7943 67.5335 76.7271 69.3172 74.9434C71.1009 73.1597 71.168 70.335 69.4673 68.6342Z" fill="white"/>
	<path fill-rule="evenodd" clip-rule="evenodd" d="M66.2211 72.5655L65.5368 71.8812L66.2546 71.1634L67.3311 70.0869L68.0154 70.7712L66.9389 71.8477L67.9655 72.8742L67.2477 73.592L66.2211 72.5655Z" fill="white"/>
	<path d="M25.8602 18.1329L32.0314 11.9617L34.3455 14.2759C34.8196 14.75 35.129 15.2361 35.2736 15.7343C35.4202 16.2345 35.4212 16.7217 35.2766 17.1957C35.136 17.6698 34.8698 18.1027 34.4781 18.4944C34.0824 18.8902 33.6475 19.1584 33.1734 19.299C32.6993 19.4396 32.2111 19.4356 31.7089 19.2869C31.2087 19.1363 30.7206 18.8229 30.2445 18.3468L28.7108 16.8131L29.6298 15.894L31.0129 17.2771C31.2901 17.5543 31.5653 17.7331 31.8385 17.8135C32.1117 17.8938 32.3749 17.8918 32.628 17.8074C32.8831 17.7251 33.1201 17.5744 33.3391 17.3554C33.5581 17.1365 33.7077 16.9004 33.7881 16.6473C33.8704 16.3962 33.8684 16.1351 33.782 15.8639C33.6997 15.5927 33.5189 15.3175 33.2397 15.0383L32.2152 14.0138L26.9781 19.2508L25.8602 18.1329ZM33.1349 25.5884C32.683 25.1364 32.3907 24.6452 32.2581 24.1149C32.1255 23.5846 32.1466 23.0492 32.3214 22.5088C32.4982 21.9705 32.8256 21.4622 33.3037 20.9841C33.7818 20.506 34.291 20.1776 34.8314 19.9988C35.3738 19.822 35.9101 19.7999 36.4405 19.9325C36.9708 20.0651 37.462 20.3574 37.9139 20.8094C38.3659 21.2614 38.6582 21.7525 38.7908 22.2828C38.9234 22.8132 38.9003 23.3485 38.7215 23.8889C38.5447 24.4313 38.2173 24.9415 37.7392 25.4196C37.2611 25.8977 36.7518 26.2242 36.2115 26.3989C35.6731 26.5757 35.1388 26.5978 34.6084 26.4652C34.0781 26.3326 33.5869 26.0404 33.1349 25.5884ZM34.0148 24.7206C34.2599 24.9656 34.5321 25.1032 34.8314 25.1334C35.1327 25.1615 35.4381 25.1012 35.7474 24.9526C36.0588 24.8059 36.3551 24.592 36.6363 24.3108C36.9196 24.0275 37.1345 23.7302 37.2812 23.4188C37.4318 23.1075 37.4931 22.8011 37.465 22.4998C37.4369 22.1985 37.3003 21.9253 37.0552 21.6802C36.8041 21.4291 36.5269 21.2885 36.2235 21.2583C35.9222 21.2302 35.6148 21.2905 35.3015 21.4391C34.9921 21.5878 34.6958 21.8037 34.4126 22.087C34.1313 22.3682 33.9164 22.6635 33.7677 22.9729C33.6211 23.2842 33.5618 23.5906 33.5899 23.8919C33.6221 24.1932 33.7637 24.4695 34.0148 24.7206ZM37.1915 29.4641L40.5121 23.5281L41.624 24.6399L39.1833 28.7078L39.2255 28.75L43.3114 26.3274L44.4112 27.4272L42.0067 31.4951L42.0519 31.5403L46.0896 29.1056L47.2045 30.2205L41.2654 33.538L40.1294 32.4021L42.3894 28.4065L42.3261 28.3432L38.3305 30.6031L37.1915 29.4641ZM45.1638 37.6172C44.6998 37.1532 44.3954 36.656 44.2508 36.1257C44.1102 35.5953 44.1272 35.062 44.302 34.5256C44.4788 33.9873 44.8092 33.476 45.2934 32.9919C45.7695 32.5158 46.2777 32.1884 46.8181 32.0096C47.3625 31.8308 47.8988 31.8047 48.4271 31.9312C48.9575 32.0558 49.4436 32.339 49.8855 32.781C50.1708 33.0662 50.3938 33.3816 50.5545 33.7271C50.7192 34.0726 50.8036 34.4382 50.8076 34.8239C50.8136 35.2116 50.7252 35.6094 50.5424 36.0172C50.3616 36.423 50.0683 36.8288 49.6626 37.2345L49.3281 37.569L45.5344 33.7753L46.2697 33.0401L49.0177 35.7882C49.2246 35.5773 49.3653 35.3462 49.4396 35.0951C49.5159 34.842 49.5219 34.5889 49.4577 34.3358C49.3954 34.0847 49.2598 33.8547 49.0509 33.6458C48.8279 33.4228 48.5778 33.2812 48.3006 33.2209C48.0254 33.1586 47.7532 33.1677 47.484 33.248C47.2188 33.3284 46.9818 33.471 46.7729 33.6759L46.1311 34.3177C45.8619 34.5869 45.6801 34.8671 45.5857 35.1584C45.4932 35.4477 45.4842 35.7319 45.5585 36.0112C45.6349 36.2884 45.7916 36.5455 46.0286 36.7825C46.1873 36.9412 46.353 37.0628 46.5258 37.1472C46.7006 37.2295 46.8793 37.2737 47.0621 37.2797C47.2449 37.2858 47.4257 37.2476 47.6045 37.1652L48.5085 38.2982C48.175 38.5031 47.8175 38.6156 47.4358 38.6357C47.0581 38.6558 46.6744 38.5815 46.2847 38.4127C45.897 38.242 45.5234 37.9768 45.1638 37.6172ZM48.235 40.5077L52.8634 35.8793L53.921 36.937L53.1496 37.7084L53.1978 37.7566C53.5494 37.5738 53.8999 37.5125 54.2495 37.5728C54.603 37.633 54.9124 37.7958 55.1775 38.0609C55.2378 38.1212 55.3021 38.1915 55.3704 38.2718C55.4427 38.3522 55.499 38.4225 55.5391 38.4828L54.5357 39.4862C54.5056 39.4239 54.4463 39.3365 54.3579 39.224C54.2736 39.1115 54.1852 39.0091 54.0928 38.9167C53.8939 38.7178 53.6719 38.5822 53.4269 38.5099C53.1858 38.4376 52.9447 38.4315 52.7037 38.4918C52.4626 38.5521 52.2437 38.6806 52.0468 38.8775L49.3258 41.5985L48.235 40.5077ZM53.3673 45.8208C52.9033 45.3567 52.599 44.8595 52.4543 44.3292C52.3137 43.7989 52.3308 43.2655 52.5056 42.7292C52.6823 42.1908 53.0128 41.6796 53.4969 41.1954C53.973 40.7193 54.4812 40.3919 55.0216 40.2131C55.566 40.0343 56.1024 40.0082 56.6307 40.1348C57.161 40.2593 57.6471 40.5426 58.0891 40.9845C58.3743 41.2698 58.5973 41.5852 58.758 41.9307C58.9228 42.2762 59.0071 42.6418 59.0111 43.0275C59.0172 43.4152 58.9288 43.8129 58.746 44.2207C58.5652 44.6265 58.2719 45.0323 57.8661 45.4381L57.5316 45.7725L53.738 41.9789L54.4732 41.2437L57.2213 43.9917C57.4282 43.7808 57.5688 43.5498 57.6431 43.2987C57.7195 43.0456 57.7255 42.7925 57.6612 42.5393C57.5989 42.2882 57.4633 42.0582 57.2544 41.8493C57.0314 41.6263 56.7813 41.4847 56.5041 41.4244C56.2289 41.3622 55.9567 41.3712 55.6875 41.4516C55.4224 41.5319 55.1853 41.6745 54.9764 41.8794L54.3346 42.5213C54.0654 42.7904 53.8836 43.0707 53.7892 43.362C53.6968 43.6512 53.6878 43.9355 53.7621 44.2147C53.8384 44.4919 53.9951 44.7491 54.2321 44.9861C54.3908 45.1448 54.5566 45.2663 54.7293 45.3507C54.9041 45.4331 55.0829 45.4773 55.2657 45.4833C55.4485 45.4893 55.6293 45.4511 55.8081 45.3688L56.712 46.5018C56.3786 46.7067 56.021 46.8191 55.6393 46.8392C55.2617 46.8593 54.878 46.785 54.4883 46.6163C54.1006 46.4455 53.7269 46.1803 53.3673 45.8208ZM58.0748 50.5101C57.7112 50.1465 57.4792 49.7277 57.3787 49.2536C57.2783 48.7795 57.3225 48.2813 57.5113 47.759C57.7001 47.2367 58.0487 46.7215 58.5569 46.2132C59.0712 45.699 59.5894 45.3494 60.1117 45.1646C60.638 44.9798 61.1362 44.9416 61.6063 45.0501C62.0784 45.1566 62.4922 45.3876 62.8477 45.7432C63.1189 46.0144 63.2957 46.2835 63.3781 46.5507C63.4624 46.8159 63.4916 47.064 63.4655 47.295C63.4414 47.524 63.4012 47.7229 63.3449 47.8916L63.3901 47.9368L65.6983 45.6287L66.7921 46.7225L60.621 52.8936L59.5483 51.8209L60.2775 51.0917L60.2112 51.0254C60.0424 51.0816 59.8415 51.1198 59.6085 51.1399C59.3775 51.158 59.1304 51.1238 58.8673 51.0374C58.6041 50.9511 58.3399 50.7753 58.0748 50.5101ZM59.274 49.9195C59.5051 50.1505 59.7642 50.2851 60.0515 50.3233C60.3407 50.3595 60.64 50.3072 60.9494 50.1666C61.2588 50.026 61.5631 49.806 61.8624 49.5067C62.1617 49.2074 62.3797 48.9051 62.5163 48.5997C62.6549 48.2964 62.7041 48.0021 62.6639 47.7168C62.6258 47.4336 62.4892 47.1745 62.2541 46.9394C62.0111 46.6964 61.7449 46.5567 61.4556 46.5206C61.1664 46.4844 60.8691 46.5367 60.5637 46.6773C60.2584 46.8179 59.9621 47.0318 59.6748 47.3191C59.3855 47.6084 59.1686 47.9077 59.0239 48.217C58.8833 48.5264 58.8291 48.8277 58.8612 49.121C58.8974 49.4143 59.035 49.6805 59.274 49.9195ZM63.9363 56.2089L70.1074 50.0378L71.1982 51.1286L68.89 53.4367L68.9352 53.4819C69.104 53.4257 69.3029 53.3855 69.5319 53.3614C69.7629 53.3353 70.011 53.3644 70.2761 53.4488C70.5433 53.5311 70.8125 53.7079 71.0837 53.9791C71.4413 54.3367 71.6723 54.7505 71.7767 55.2206C71.8852 55.6906 71.846 56.1878 71.6592 56.7121C71.4764 57.2364 71.1279 57.7557 70.6136 58.27C70.1054 58.7782 69.5901 59.1267 69.0678 59.3156C68.5455 59.5044 68.0473 59.5486 67.5733 59.4481C67.0992 59.3477 66.6803 59.1157 66.3167 58.7521C66.0516 58.4869 65.8758 58.2228 65.7894 57.9596C65.703 57.6964 65.6689 57.4494 65.687 57.2183C65.7091 56.9873 65.7472 56.7864 65.8015 56.6157L65.7382 56.5524L65.009 57.2816L63.9363 56.2089ZM67.3201 54.9644C67.0208 55.2637 66.8009 55.5681 66.6602 55.8774C66.5216 56.1888 66.4694 56.4881 66.5036 56.7754C66.5417 57.0627 66.6763 57.3218 66.9073 57.5528C67.1484 57.7939 67.4146 57.9315 67.7058 57.9656C67.9991 57.9978 68.2994 57.9425 68.6068 57.7999C68.9182 57.6573 69.2185 57.4413 69.5078 57.152C69.795 56.8648 70.009 56.5685 70.1496 56.2631C70.2902 55.9578 70.3424 55.6605 70.3063 55.3712C70.2701 55.082 70.1305 54.8158 69.8874 54.5727C69.6544 54.3397 69.3953 54.2031 69.11 54.1629C68.8248 54.1227 68.5295 54.1709 68.2241 54.3075C67.9208 54.4462 67.6195 54.6651 67.3201 54.9644ZM68.0177 63.7616C67.8691 63.6129 67.7435 63.4633 67.6411 63.3126C67.5386 63.166 67.4653 63.0404 67.4211 62.936L68.5239 62.3393C68.6364 62.5442 68.756 62.708 68.8825 62.8305C69.0091 62.953 69.1577 63.0233 69.3285 63.0414C69.4992 63.0635 69.7051 63.0203 69.9462 62.9119L70.2897 62.7552L73.3361 56.352L74.4932 57.5091L72.0645 62.0712L72.1127 62.1194L76.6778 59.6937L77.8379 60.8538L70.7959 64.1895C70.4645 64.3482 70.14 64.4436 69.8226 64.4757C69.5032 64.5099 69.1939 64.4697 68.8946 64.3552C68.5952 64.2447 68.303 64.0468 68.0177 63.7616Z" fill="white"/>
</svg>