<svg width="98" height="38" viewBox="0 0 98 38" fill="none" xmlns="http://www.w3.org/2000/svg">
	<path fill-rule="evenodd" clip-rule="evenodd" d="M73.8458 21.8555C73.8458 20.7356 72.9194 20.3427 71.9336 20.3427C70.6128 20.3427 69.5285 20.7749 68.5232 21.2268L67.833 19.1641C68.9568 18.6532 70.5143 18.0835 72.3674 18.0835C75.2651 18.0835 76.6648 19.5373 76.6648 21.5803C76.6648 25.1559 71.7365 26.1577 70.9084 28.8886H76.8423V31.1674H67.3994C67.9317 24.7827 73.8458 24.4094 73.8458 21.8555Z" fill="white"/>
	<path fill-rule="evenodd" clip-rule="evenodd" d="M81.0018 25.9223H82.1846V24.5274C82.1846 23.5256 82.2634 22.3664 82.303 22.1111L79.3656 25.9812C79.6021 25.9615 80.5485 25.9223 81.0018 25.9223ZM76.3691 26.3741L82.8746 18.123H84.8067V25.9223H86.7385V28.0832H84.8067V31.1676H82.1846V28.0832H76.3691V26.3741Z" fill="white"/>
	<path fill-rule="evenodd" clip-rule="evenodd" d="M7.52091 29.1825C9.19299 29.1825 9.88676 28.6507 9.88676 27.5341C9.88676 26.8959 9.63776 26.4527 9.22865 26.2045C8.78389 25.9386 8.14349 25.8677 7.41418 25.8677H6.61368V29.1825H7.52091ZM4.17676 19.4863H11.879L11.2742 21.454H6.61368V23.9002H7.41418C8.67715 23.9002 9.79786 24.0597 10.6694 24.5206C11.7012 25.0523 12.3238 26.0096 12.3238 27.4985C12.3238 29.5901 11.0608 31.1678 7.46755 31.1678H4.17676V19.4863Z" fill="white"/>
	<path fill-rule="evenodd" clip-rule="evenodd" d="M13.6406 22.7832H15.9709V26.1334C15.9709 26.8247 15.9531 27.4983 15.8997 27.9769H15.9531C16.1487 27.6402 16.558 26.9311 17.0381 26.2398L19.4397 22.7832H21.7877V31.1676H19.4397V27.8174C19.4397 27.1261 19.4752 26.4525 19.5286 25.9739H19.4752C19.2796 26.3107 18.8526 27.0197 18.3901 27.711L15.9886 31.1676H13.6406V22.7832Z" fill="white"/>
	<path fill-rule="evenodd" clip-rule="evenodd" d="M25.2562 24.7685H22.748V22.7832H30.6816L30.0591 24.7685H27.6575V31.1676H25.2562V24.7685Z" fill="white"/>
	<path fill-rule="evenodd" clip-rule="evenodd" d="M34.8443 29.3771C36.2852 29.3771 36.9967 28.4377 36.9967 26.9665C36.9967 25.3356 36.1073 24.538 34.6308 24.538C34.3284 24.538 34.0794 24.5557 33.8125 24.6443V29.1998C34.1327 29.3062 34.4352 29.3771 34.8443 29.3771ZM31.4111 23.1198C32.3362 22.8007 33.4746 22.5703 34.7376 22.5703C37.8683 22.5703 39.4514 24.3252 39.4514 26.9665C39.4514 29.4835 37.7438 31.3448 35.0222 31.3448C34.613 31.3448 34.2039 31.2915 33.8125 31.1852V35.3684H31.4111V23.1198Z" fill="white"/>
	<path fill-rule="evenodd" clip-rule="evenodd" d="M40.5898 22.7832H42.9202V26.1334C42.9202 26.8247 42.9023 27.4983 42.849 27.9769H42.9023C43.098 27.6402 43.5072 26.9311 43.9874 26.2398L46.3889 22.7832H48.7369V31.1676H46.3889V27.8174C46.3889 27.1261 46.4244 26.4525 46.4778 25.9739H46.4244C46.2288 26.3107 45.8018 27.0197 45.3394 27.711L42.9379 31.1676H40.5898V22.7832Z" fill="white"/>
	<path fill-rule="evenodd" clip-rule="evenodd" d="M50.2842 22.783H52.6857V25.9915H53.575C54.5891 25.9915 54.5534 24.2897 55.3005 23.2971C55.6207 22.854 56.1187 22.5703 56.8837 22.5703C57.1327 22.5703 57.5774 22.6057 57.8443 22.6944V24.733C57.7019 24.6797 57.5241 24.6443 57.3462 24.6443C57.0793 24.6443 56.9014 24.733 56.7591 24.9102C56.3322 25.442 56.2611 26.5233 55.6384 26.9132V26.9486C56.0477 27.1082 56.3499 27.4095 56.599 27.9413L58.111 31.1674H55.5139L54.5177 28.5439C54.3044 28.0299 54.0909 27.7995 53.8596 27.7995H52.6857V31.1674H50.2842V22.783Z" fill="white"/>
	<path fill-rule="evenodd" clip-rule="evenodd" d="M58.5029 27.0196C58.5029 24.3606 60.5663 22.5703 63.039 22.5703C64.1774 22.5703 64.9244 22.8894 65.3692 23.1731V25.1761C64.7643 24.7153 64.1239 24.467 63.3057 24.467C61.8293 24.467 60.9577 25.5837 60.9577 27.0019C60.9577 28.5795 61.8471 29.4304 63.1991 29.4304C63.9461 29.4304 64.5154 29.2175 65.138 28.8631L65.8139 30.4939C65.12 30.9901 64.0351 31.3448 62.8611 31.3448C60.0683 31.3448 58.5029 29.4835 58.5029 27.0196Z" fill="white"/>
	<path fill-rule="evenodd" clip-rule="evenodd" d="M92.5464 25.742C90.6765 25.742 89.1606 24.2264 89.1606 22.3569C89.1606 20.4875 90.6765 18.972 92.5464 18.972C94.4163 18.972 95.9322 20.4875 95.9322 22.3569C95.9322 24.2264 94.4163 25.742 92.5464 25.742ZM92.5464 18.0049C90.1423 18.0049 88.1934 19.9533 88.1934 22.3569C88.1934 24.7606 90.1423 26.7091 92.5464 26.7091C94.9505 26.7091 96.8995 24.7606 96.8995 22.3569C96.8995 19.9533 94.9505 18.0049 92.5464 18.0049Z" fill="white"/>
	<path fill-rule="evenodd" clip-rule="evenodd" d="M93.0298 20.4229V21.8735H94.4808V22.8407L92.0625 22.8407V21.8735V20.4229H93.0298Z" fill="white"/>
	<path d="M18.0913 14.1193C17.4776 14.1193 16.9322 14.0142 16.4549 13.804C15.9805 13.5937 15.6055 13.3011 15.3299 12.9261C15.0543 12.5511 14.908 12.1179 14.891 11.6264H16.4933C16.5075 11.8622 16.5856 12.0682 16.7276 12.2443C16.8697 12.4176 17.0586 12.5526 17.2944 12.6491C17.5302 12.7457 17.7944 12.794 18.087 12.794C18.3995 12.794 18.6765 12.7401 18.918 12.6321C19.1594 12.5213 19.3484 12.3679 19.4847 12.1719C19.6211 11.9759 19.6879 11.75 19.685 11.4943C19.6879 11.2301 19.6197 10.9972 19.4805 10.7955C19.3413 10.5937 19.1396 10.4361 18.8754 10.3224C18.614 10.2088 18.2987 10.152 17.9293 10.152H17.158V8.93324H17.9293C18.2333 8.93324 18.4989 8.88068 18.7262 8.77557C18.9563 8.67045 19.1367 8.52273 19.2674 8.33239C19.3981 8.1392 19.462 7.91619 19.4592 7.66335C19.462 7.41619 19.4066 7.2017 19.293 7.01989C19.1822 6.83523 19.0245 6.69176 18.82 6.58949C18.6183 6.48722 18.381 6.43608 18.1083 6.43608C17.8413 6.43608 17.5941 6.48437 17.3668 6.58097C17.1396 6.67756 16.9563 6.81534 16.8171 6.99432C16.6779 7.17045 16.604 7.38068 16.5955 7.625H15.0742C15.0856 7.13636 15.2262 6.70739 15.4961 6.33807C15.7688 5.96591 16.1325 5.67614 16.587 5.46875C17.0415 5.25852 17.5515 5.15341 18.1168 5.15341C18.6992 5.15341 19.2049 5.26278 19.6339 5.48153C20.0657 5.69744 20.3995 5.98864 20.6353 6.35511C20.8711 6.72159 20.989 7.12642 20.989 7.5696C20.9918 8.06108 20.8469 8.47301 20.5543 8.8054C20.2646 9.13778 19.8839 9.35511 19.4123 9.45739V9.52557C20.0259 9.6108 20.4961 9.83807 20.8228 10.2074C21.1523 10.5739 21.3157 11.0298 21.3129 11.5753C21.3129 12.0639 21.1737 12.5014 20.8952 12.8878C20.6197 13.2713 20.239 13.5724 19.7532 13.7912C19.2702 14.0099 18.7163 14.1193 18.0913 14.1193ZM24.6761 14.1321C24.2614 14.1321 23.8878 14.0582 23.5554 13.9105C23.2259 13.7599 22.9645 13.5384 22.7713 13.2457C22.581 12.9531 22.4858 12.5923 22.4858 12.1634C22.4858 11.794 22.554 11.4886 22.6903 11.2472C22.8267 11.0057 23.0128 10.8125 23.2486 10.6676C23.4844 10.5227 23.75 10.4134 24.0455 10.3395C24.3438 10.2628 24.652 10.2074 24.9702 10.1733C25.3537 10.1335 25.6648 10.098 25.9034 10.0668C26.142 10.0327 26.3153 9.98153 26.4233 9.91335C26.5341 9.84233 26.5895 9.73295 26.5895 9.58523V9.55966C26.5895 9.23864 26.4943 8.99006 26.304 8.81392C26.1136 8.63778 25.8395 8.54972 25.4815 8.54972C25.1037 8.54972 24.804 8.6321 24.5824 8.79688C24.3636 8.96165 24.2159 9.15625 24.1392 9.38068L22.6989 9.17614C22.8125 8.77841 23 8.44602 23.2614 8.17898C23.5227 7.90909 23.8423 7.70739 24.2202 7.57386C24.598 7.4375 25.0156 7.36932 25.473 7.36932C25.7884 7.36932 26.1023 7.40625 26.4148 7.48011C26.7273 7.55398 27.0128 7.67614 27.2713 7.84659C27.5298 8.0142 27.7372 8.2429 27.8935 8.53267C28.0526 8.82244 28.1321 9.18466 28.1321 9.61932V14H26.6491V13.1009H26.598C26.5043 13.2827 26.3722 13.4531 26.2017 13.6122C26.0341 13.7685 25.8224 13.8949 25.5668 13.9915C25.3139 14.0852 25.017 14.1321 24.6761 14.1321ZM25.0767 12.9986C25.3864 12.9986 25.6548 12.9375 25.8821 12.8153C26.1094 12.6903 26.2841 12.5256 26.4062 12.321C26.5312 12.1165 26.5938 11.8935 26.5938 11.652V10.8807C26.5455 10.9205 26.4631 10.9574 26.3466 10.9915C26.233 11.0256 26.1051 11.0554 25.9631 11.081C25.821 11.1065 25.6804 11.1293 25.5412 11.1491C25.402 11.169 25.2813 11.1861 25.179 11.2003C24.9489 11.2315 24.7429 11.2827 24.5611 11.3537C24.3793 11.4247 24.2358 11.5241 24.1307 11.652C24.0256 11.777 23.973 11.9389 23.973 12.1378C23.973 12.4219 24.0767 12.6364 24.2841 12.7812C24.4915 12.9261 24.7557 12.9986 25.0767 12.9986ZM29.6832 16.4545V7.45455H31.2003V8.53693H31.2898C31.3693 8.37784 31.4815 8.20881 31.6264 8.02983C31.7713 7.84801 31.9673 7.69318 32.2145 7.56534C32.4616 7.43466 32.777 7.36932 33.1605 7.36932C33.6662 7.36932 34.1222 7.49858 34.5284 7.7571C34.9375 8.01278 35.2614 8.39205 35.5 8.89489C35.7415 9.39489 35.8622 10.0085 35.8622 10.7358C35.8622 11.4545 35.7443 12.0653 35.5085 12.5682C35.2727 13.071 34.9517 13.4545 34.5455 13.7188C34.1392 13.983 33.679 14.1151 33.1648 14.1151C32.7898 14.1151 32.4787 14.0526 32.2315 13.9276C31.9844 13.8026 31.7855 13.652 31.6349 13.4759C31.4872 13.2969 31.3722 13.1278 31.2898 12.9688H31.2259V16.4545H29.6832ZM31.196 10.7273C31.196 11.1506 31.2557 11.5213 31.375 11.8395C31.4972 12.1577 31.6719 12.4062 31.8991 12.5852C32.1293 12.7614 32.4077 12.8494 32.7344 12.8494C33.0753 12.8494 33.3608 12.7585 33.5909 12.5767C33.821 12.392 33.9943 12.1406 34.1108 11.8224C34.2301 11.5014 34.2898 11.1364 34.2898 10.7273C34.2898 10.321 34.2315 9.96023 34.1151 9.64489C33.9986 9.32955 33.8253 9.08239 33.5952 8.90341C33.3651 8.72443 33.0781 8.63494 32.7344 8.63494C32.4048 8.63494 32.125 8.72159 31.8949 8.89489C31.6648 9.06818 31.4901 9.31108 31.3707 9.62358C31.2543 9.93608 31.196 10.304 31.196 10.7273ZM41.0526 14V8.70739H39.6548C39.2997 8.70739 39.027 8.78977 38.8366 8.95455C38.6463 9.11932 38.5526 9.32386 38.5554 9.56818C38.5526 9.8125 38.642 10.0142 38.8239 10.1733C39.0057 10.3324 39.2656 10.4119 39.6037 10.4119H41.5384V11.5369H39.6037C39.081 11.5369 38.6293 11.4545 38.2486 11.2898C37.8679 11.125 37.5753 10.892 37.3707 10.5909C37.1662 10.2898 37.0639 9.9375 37.0639 9.53409C37.0639 9.11364 37.1676 8.74858 37.375 8.43892C37.5852 8.12642 37.8835 7.88494 38.2699 7.71449C38.6591 7.54119 39.1207 7.45455 39.6548 7.45455H42.4972V14H41.0526ZM36.8253 14L38.6534 10.642H40.1747L38.3423 14H36.8253ZM43.6243 14L46.0405 10.6207L43.6456 7.45455H45.4268L47.2891 10.0923H47.6555V7.45455H49.1982V10.0923H49.5561L51.4183 7.45455H53.1996L50.8175 10.6207L53.2209 14H51.4013L49.5391 11.358H49.1982V14H47.6555V11.358H47.3146L45.4439 14H43.6243ZM57.0263 14.1278C56.37 14.1278 55.8033 13.9915 55.326 13.7188C54.8516 13.4432 54.4865 13.054 54.2308 12.5511C53.9751 12.0455 53.8473 11.4503 53.8473 10.7656C53.8473 10.0923 53.9751 9.50142 54.2308 8.9929C54.4893 8.48153 54.8501 8.08381 55.3132 7.79972C55.7763 7.51278 56.3203 7.36932 56.9453 7.36932C57.3487 7.36932 57.7294 7.43466 58.0874 7.56534C58.4482 7.69318 58.7663 7.89205 59.0419 8.16193C59.3203 8.43182 59.5391 8.77557 59.6982 9.19318C59.8572 9.60795 59.9368 10.1023 59.9368 10.6761V11.1491H54.5717V10.1094H58.4581C58.4553 9.81392 58.3913 9.55114 58.2663 9.32102C58.1413 9.08807 57.9666 8.90483 57.7422 8.77131C57.5206 8.63778 57.2621 8.57102 56.9666 8.57102C56.6513 8.57102 56.3743 8.64773 56.1357 8.80114C55.897 8.9517 55.7109 9.15057 55.5774 9.39773C55.4467 9.64205 55.38 9.91051 55.3771 10.2031V11.1108C55.3771 11.4915 55.4467 11.8182 55.5859 12.0909C55.7251 12.3608 55.9197 12.5682 56.1697 12.7131C56.4197 12.8551 56.7124 12.9261 57.0476 12.9261C57.272 12.9261 57.4751 12.8949 57.657 12.8324C57.8388 12.767 57.9964 12.6719 58.13 12.5469C58.2635 12.4219 58.3643 12.267 58.4325 12.0824L59.8729 12.2443C59.782 12.625 59.6087 12.9574 59.353 13.2415C59.1001 13.5227 58.7763 13.7415 58.3814 13.8977C57.9865 14.0511 57.5348 14.1278 57.0263 14.1278ZM65.7376 10.0881V11.3537H62.2518V10.0881H65.7376ZM62.729 7.45455V14H61.2418V7.45455H62.729ZM66.7475 7.45455V14H65.2646V7.45455H66.7475ZM71.1634 14.1278C70.5241 14.1278 69.9702 13.9872 69.5014 13.706C69.0327 13.4247 68.669 13.0312 68.4105 12.5256C68.1548 12.0199 68.027 11.429 68.027 10.7528C68.027 10.0767 68.1548 9.48437 68.4105 8.97585C68.669 8.46733 69.0327 8.07244 69.5014 7.79119C69.9702 7.50994 70.5241 7.36932 71.1634 7.36932C71.8026 7.36932 72.3565 7.50994 72.8253 7.79119C73.294 8.07244 73.6563 8.46733 73.9119 8.97585C74.1705 9.48437 74.2997 10.0767 74.2997 10.7528C74.2997 11.429 74.1705 12.0199 73.9119 12.5256C73.6563 13.0312 73.294 13.4247 72.8253 13.706C72.3565 13.9872 71.8026 14.1278 71.1634 14.1278ZM71.1719 12.892C71.5185 12.892 71.8082 12.7969 72.0412 12.6065C72.2741 12.4134 72.4474 12.1548 72.5611 11.831C72.6776 11.5071 72.7358 11.1463 72.7358 10.7486C72.7358 10.348 72.6776 9.9858 72.5611 9.66193C72.4474 9.33523 72.2741 9.07528 72.0412 8.8821C71.8082 8.68892 71.5185 8.59233 71.1719 8.59233C70.8168 8.59233 70.5213 8.68892 70.2855 8.8821C70.0526 9.07528 69.8778 9.33523 69.7614 9.66193C69.6477 9.9858 69.5909 10.348 69.5909 10.7486C69.5909 11.1463 69.6477 11.5071 69.7614 11.831C69.8778 12.1548 70.0526 12.4134 70.2855 12.6065C70.5213 12.7969 70.8168 12.892 71.1719 12.892Z" fill="white"/>
</svg>