<svg width="20" height="20" viewBox="0 0 20 20" fill="none" xmlns="http://www.w3.org/2000/svg">
	<g opacity="0.5">
		<path d="M5.05387 4.13818C4.1334 4.13818 3.38721 4.88438 3.38721 5.80485V9.97152C3.38721 10.892 4.1334 11.6382 5.05387 11.6382H5.26849V12.9311C5.26849 13.3765 5.80706 13.5996 6.12204 13.2846L7.12754 12.2791V9.10657C7.12754 7.72586 8.24683 6.60657 9.62754 6.60657H13.3872V5.80485C13.3872 4.88438 12.641 4.13818 11.7205 4.13818H5.05387Z" fill="#00ACE3"/>
		<path d="M8.37698 9.37314C8.37698 8.45267 9.12318 7.70648 10.0437 7.70648H15.6551C16.5756 7.70648 17.3218 8.45267 17.3218 9.37314V12.6559C17.3218 13.5753 16.5774 14.3208 15.6585 14.3226V15.3945C15.6585 15.8674 15.0627 16.076 14.7677 15.7064L13.6634 14.3226H10.0437C9.12318 14.3226 8.37698 13.5764 8.37698 12.6559V9.37314Z" fill="#00ACE3"/>
	</g>
</svg>