<svg width="20" height="20" viewBox="0 0 20 20" fill="none" xmlns="http://www.w3.org/2000/svg">
	<g opacity="0.5">
		<path d="M14.1622 14.6322C14.342 14.6002 14.46 14.4277 14.4228 14.2489C14.2224 13.2855 13.8615 11.9584 13.8615 11.9584C13.8615 11.5867 13.3634 11.162 12.382 10.9146C12.0486 10.8238 11.7323 10.6834 11.4447 10.4986C11.3986 10.3841 11.3804 10.2611 11.3914 10.1389L11.0768 10.0919C11.0768 10.0655 11.0499 9.67608 11.0499 9.67608C11.4279 9.55221 11.3891 8.82124 11.3891 8.82124C11.6291 8.95105 11.7855 8.3734 11.7855 8.3734C12.0695 7.57017 11.6441 7.61849 11.6441 7.61849C11.7185 7.12781 11.7185 6.62945 11.6441 6.13877C11.455 4.51146 8.60737 4.95272 8.94516 5.48468C8.11298 5.33445 8.30292 7.18207 8.30292 7.18207L8.48343 7.65978C8.23342 7.81769 8.28239 7.99932 8.33711 8.20228C8.35995 8.287 8.38379 8.37543 8.38731 8.4674C8.40478 8.92865 8.69337 8.83288 8.69337 8.83288C8.71131 9.5935 9.09555 9.69344 9.09555 9.69344C9.16775 10.1712 9.12291 10.0888 9.12291 10.0888L8.78075 10.1292C8.78543 10.2378 8.77639 10.3465 8.75385 10.453C8.55511 10.5395 8.43347 10.6082 8.31337 10.676C8.18972 10.7458 8.06771 10.8147 7.86486 10.9012C7.09224 11.2307 6.25247 11.661 6.10346 12.2391C6.01235 12.5926 5.81067 13.5844 5.66771 14.3019C5.63123 14.4849 5.75246 14.6621 5.93675 14.6918C7.17452 14.8918 8.49818 15 9.87375 15C11.3804 15 12.8248 14.8702 14.1622 14.6322Z" fill="#00ACE3"/>
		<path d="M17.8897 13.1243C18.1506 13.055 18.3211 12.8095 18.2555 12.5476C18.1339 12.0628 17.8832 11.4469 17.5838 11.2655C17.1745 11.0174 17.211 11.0689 16.9545 10.9296C16.7851 10.8338 16.6064 10.7538 16.4208 10.6909C16.3257 10.6092 16.252 10.5073 16.2057 10.3934C16.1082 10.2748 15.9799 10.1825 15.8336 10.1257L15.8227 9.76969L16.5922 9.53495C16.5922 9.53495 16.7907 9.44485 16.8101 9.44485C16.7793 9.38208 16.7439 9.32151 16.704 9.26359C16.6894 9.22572 16.6169 8.96601 16.6169 8.96601C16.729 9.10606 16.861 9.23058 17.009 9.33601C16.8779 9.09692 16.7658 8.8488 16.6735 8.59372C16.6118 8.35757 16.5689 8.11729 16.5452 7.87494C16.4923 7.42459 16.41 6.97783 16.2988 6.53728C16.2197 6.31838 16.0789 6.12459 15.8918 5.97729C15.6175 5.79138 15.2957 5.67991 14.9604 5.65473H14.9219C14.5866 5.67982 14.2647 5.7913 13.9905 5.97729C13.8037 6.12477 13.663 6.3185 13.5837 6.53728C13.4722 6.97779 13.3899 7.42456 13.3371 7.87494C13.3168 8.12272 13.2759 8.36856 13.2149 8.61016C13.1225 8.86073 13.0083 9.10346 12.8735 9.3358C13.0207 9.22985 13.1518 9.10499 13.2632 8.96476C13.2632 8.96476 13.1702 9.24965 13.1554 9.28773C13.1215 9.33692 13.093 9.38929 13.0702 9.44401C13.0894 9.44401 13.2881 9.53412 13.2881 9.53412L14.0574 9.76969L14.0463 10.1257C13.9 10.1828 13.7718 10.275 13.6741 10.3936C13.6371 10.4725 13.5917 10.5476 13.5386 10.6177C14.2395 10.8953 14.6497 11.3017 14.6663 11.7564C14.6695 11.7796 14.7065 11.9178 14.7583 12.1113C14.8876 12.5949 15.1093 13.4234 15.1273 13.663H15.1905C16.1669 13.5227 17.0738 13.3408 17.8897 13.1243Z" fill="#00ACE3"/>
		<path d="M4.8757 13.6608H4.59654C3.7074 13.5335 2.87573 13.3718 2.11766 13.1808C1.85302 13.1142 1.6756 12.8667 1.73297 12.5999C1.8365 12.1184 2.06256 11.5058 2.44279 11.2563C2.68924 11.0945 2.79157 11.0666 3.04803 10.9274C3.21745 10.8315 3.39621 10.7516 3.5818 10.6887C3.67692 10.607 3.75059 10.505 3.79683 10.3911C3.8944 10.2725 4.02266 10.1803 4.16895 10.1235L4.18006 9.76744L3.41056 9.5327C3.41056 9.5327 3.21208 9.44259 3.19269 9.44259C3.22341 9.37984 3.2588 9.31927 3.29857 9.26134C3.31317 9.22347 3.38572 8.96376 3.38572 8.96376C3.27354 9.10382 3.14156 9.22834 2.99356 9.33376C3.12463 9.09467 3.23678 8.84655 3.32908 8.59147C3.39079 8.35532 3.43369 8.11504 3.4574 7.87269C3.51028 7.42234 3.59258 6.97558 3.7038 6.53503C3.78289 6.31613 3.92372 6.12234 4.11078 5.97503C4.38503 5.78913 4.70689 5.67766 5.04215 5.65248H5.08072C5.416 5.67757 5.73788 5.78904 6.01209 5.97503C6.1989 6.12252 6.33962 6.31625 6.41885 6.53503C6.53033 6.97554 6.6127 7.42231 6.66547 7.87269C6.68579 8.12047 6.72666 8.36631 6.78769 8.60791C6.88007 8.85847 6.99427 9.1012 7.12909 9.33355C6.9821 9.22766 6.8511 9.10291 6.7398 8.96283C6.74189 8.96922 6.83296 9.24804 6.84761 9.28569C6.88148 9.33488 6.91003 9.38725 6.93279 9.44197C6.91362 9.44197 6.71493 9.53208 6.71493 9.53208L5.94542 9.76744L5.95653 10.1235C6.10275 10.1805 6.23097 10.2728 6.32865 10.3913C6.36566 10.4703 6.41107 10.5454 6.46416 10.6154C5.76329 10.893 5.35305 11.2995 5.33671 11.7542C5.33343 11.7771 5.29696 11.9135 5.2458 12.1047C5.11661 12.5876 4.89381 13.4205 4.8757 13.6608Z" fill="#00ACE3"/>
	</g>
</svg>
