<svg width="20" height="20" viewBox="0 0 20 20" fill="none" xmlns="http://www.w3.org/2000/svg">
	<g opacity="0.5">
		<path fill-rule="evenodd" clip-rule="evenodd" d="M11.972 2.62732C11.86 2.59733 11.742 2.64046 11.6708 2.73743L5.73153 10.8168L5.72624 10.8241C5.59102 11.0161 5.62385 11.2891 5.8016 11.4382C5.8746 11.4993 5.96471 11.5326 6.0575 11.5326H9.26823L7.82784 16.9849L7.82591 16.9926C7.78678 17.1562 7.87686 17.3242 8.02996 17.3704C8.14268 17.4043 8.26351 17.3632 8.33705 17.2659L14.412 9.22525L14.4174 9.21789C14.555 9.02791 14.5255 8.75444 14.3497 8.60293C14.276 8.53943 14.1842 8.5048 14.0895 8.5048H10.8934L12.1846 3.00631L12.1863 2.99859C12.221 2.83377 12.1263 2.66864 11.972 2.62732Z" fill="#00ACE3"/>
	</g>
</svg>
