<svg width="18" height="19" viewBox="0 0 18 19" fill="none" xmlns="http://www.w3.org/2000/svg">
	<rect y="0.5" width="18" height="18" rx="4" fill="#00ACE3"/>
	<path d="M11.4972 12.2793C11.6051 12.2601 11.6759 12.1566 11.6536 12.0494C11.5333 11.4713 11.3168 10.675 11.3168 10.675C11.3168 10.452 11.0179 10.1972 10.4291 10.0488C10.2291 9.99427 10.0393 9.91004 9.86672 9.79918C9.83906 9.73048 9.82812 9.65666 9.83471 9.58332L9.64597 9.55512C9.64597 9.5393 9.62983 9.30565 9.62983 9.30565C9.85665 9.23132 9.83333 8.79275 9.83333 8.79275C9.97737 8.87063 10.0712 8.52404 10.0712 8.52404C10.2416 8.0421 9.98634 8.0711 9.98634 8.0711C10.031 7.77669 10.031 7.47767 9.98634 7.18326C9.87293 6.20687 8.16432 6.47163 8.367 6.79081C7.86769 6.70067 7.98165 7.80924 7.98165 7.80924L8.08996 8.09587C7.93996 8.19061 7.96934 8.29959 8.00217 8.42137C8.01587 8.4722 8.03017 8.52526 8.03229 8.58044C8.04277 8.85719 8.21592 8.79973 8.21592 8.79973C8.22669 9.2561 8.45723 9.31606 8.45723 9.31606C8.50055 9.60269 8.47365 9.55327 8.47365 9.55327L8.26835 9.57752C8.27116 9.64266 8.26574 9.70788 8.25221 9.77177C8.13297 9.82372 8.05998 9.86492 7.98792 9.9056C7.91374 9.94747 7.84053 9.9888 7.71882 10.0407C7.25525 10.2384 6.75138 10.4966 6.66198 10.8434C6.60731 11.0555 6.48631 11.6507 6.40053 12.0811C6.37864 12.191 6.45138 12.2972 6.56195 12.3151C7.30461 12.4351 8.09881 12.5 8.92415 12.5C9.82815 12.5 10.6948 12.4221 11.4972 12.2793Z" fill="white"/>
	<path d="M13.7337 11.3746C13.8903 11.333 13.9926 11.1857 13.9532 11.0286C13.8803 10.7377 13.7298 10.3682 13.5502 10.2593C13.3046 10.1104 13.3265 10.1413 13.1726 10.0578C13.071 10.0003 12.9637 9.95229 12.8524 9.91457C12.7953 9.86554 12.7511 9.80438 12.7233 9.73602C12.6648 9.66486 12.5879 9.60951 12.5001 9.57545L12.4935 9.36181L12.9552 9.22097C12.9552 9.22097 13.0743 9.16691 13.086 9.16691C13.0675 9.12925 13.0462 9.09291 13.0223 9.05816C13.0135 9.03543 12.97 8.87961 12.97 8.87961C13.0373 8.96364 13.1165 9.03835 13.2053 9.10161C13.1267 8.95815 13.0594 8.80928 13.004 8.65623C12.967 8.51454 12.9412 8.37037 12.927 8.22497C12.8953 7.95475 12.8459 7.6867 12.7792 7.42237C12.7317 7.29103 12.6472 7.17475 12.535 7.08637C12.3704 6.97483 12.1773 6.90795 11.9762 6.89284H11.953C11.7518 6.90789 11.5587 6.97478 11.3942 7.08637C11.2821 7.17486 11.1977 7.2911 11.1501 7.42237C11.0833 7.68667 11.0338 7.95474 11.0022 8.22497C10.99 8.37363 10.9654 8.52114 10.9288 8.6661C10.8734 8.81644 10.8049 8.96208 10.724 9.10148C10.8123 9.03791 10.891 8.96299 10.9579 8.87886C10.9579 8.87886 10.902 9.04979 10.8931 9.07264C10.8728 9.10215 10.8557 9.13357 10.842 9.16641C10.8535 9.16641 10.9728 9.22047 10.9728 9.22047L11.4343 9.36181L11.4277 9.57545C11.3399 9.60965 11.263 9.66502 11.2044 9.73614C11.1822 9.78351 11.1549 9.82857 11.1231 9.87062C11.5436 10.0372 11.7898 10.281 11.7997 10.5538C11.8016 10.5677 11.8238 10.6507 11.8549 10.7668C11.9325 11.0569 12.0655 11.5541 12.0763 11.6978H12.1142C12.7001 11.6136 13.2442 11.5045 13.7337 11.3746Z" fill="white"/>
	<path d="M5.92532 11.6965H5.75783C5.22434 11.6201 4.72534 11.5231 4.2705 11.4085C4.11171 11.3685 4.00526 11.22 4.03968 11.06C4.1018 10.7711 4.23744 10.4035 4.46558 10.2538C4.61345 10.1567 4.67484 10.14 4.82872 10.0564C4.93037 9.99891 5.03763 9.95094 5.14898 9.91322C5.20606 9.86419 5.25025 9.80303 5.278 9.73467C5.33654 9.66351 5.4135 9.60817 5.50127 9.5741L5.50794 9.36046L5.04624 9.21962C5.04624 9.21962 4.92715 9.16556 4.91552 9.16556C4.93395 9.1279 4.95518 9.09156 4.97905 9.0568C4.98781 9.03408 5.03133 8.87825 5.03133 8.87825C4.96403 8.96229 4.88484 9.037 4.79604 9.10026C4.87468 8.9568 4.94197 8.80793 4.99735 8.65488C5.03438 8.51319 5.06012 8.36902 5.07434 8.22362C5.10607 7.9534 5.15545 7.68535 5.22219 7.42102C5.26963 7.28968 5.35413 7.1734 5.46637 7.08502C5.63092 6.97348 5.82404 6.9066 6.02519 6.89149H6.04833C6.2495 6.90654 6.44263 6.97343 6.60716 7.08502C6.71924 7.17351 6.80368 7.28975 6.85121 7.42102C6.9181 7.68532 6.96752 7.95338 6.99918 8.22362C7.01138 8.37228 7.0359 8.51979 7.07252 8.66474C7.12794 8.81508 7.19646 8.96072 7.27736 9.10013C7.18916 9.0366 7.11056 8.96175 7.04378 8.8777C7.04503 8.88153 7.09968 9.04883 7.10847 9.07141C7.12879 9.10093 7.14592 9.13235 7.15958 9.16518C7.14807 9.16518 7.02886 9.21925 7.02886 9.21925L6.56716 9.36046L6.57382 9.5741C6.66155 9.6083 6.73848 9.66367 6.79709 9.73479C6.8193 9.78216 6.84655 9.82722 6.8784 9.86927C6.45788 10.0358 6.21173 10.2797 6.20193 10.5525C6.19996 10.5663 6.17808 10.6481 6.14738 10.7628C6.06987 11.0526 5.93619 11.5523 5.92532 11.6965Z" fill="white"/>
</svg>
