<svg width="20" height="20" viewBox="0 0 20 20" fill="none" xmlns="http://www.w3.org/2000/svg">
<path fill-rule="evenodd" clip-rule="evenodd" d="M5.92685 5.85508C3.63766 8.14427 3.63766 11.8558 5.92685 14.145C8.21604 16.4342 11.9276 16.4342 14.2167 14.145C14.2927 14.069 14.3661 13.9915 14.437 13.9126L13.1632 12.6389C13.0943 12.7193 13.0218 12.7978 12.9457 12.8739C11.3585 14.4611 8.78512 14.4611 7.19792 12.8739C5.61072 11.2867 5.61072 8.71334 7.19792 7.12614C8.78512 5.53894 11.3585 5.53894 12.9457 7.12614L13.0096 7.1922L11.3058 8.89666H15.7903V4.41219L14.2816 5.92094L14.2167 5.85508C11.9276 3.56589 8.21604 3.56589 5.92685 5.85508Z" fill="white"/>
</svg>
