<svg width="17" height="14" viewBox="0 0 17 14" fill="none" xmlns="http://www.w3.org/2000/svg">
<path fill-rule="evenodd" clip-rule="evenodd" d="M10.3447 6.87886L12.7769 6.87726C12.7769 4.4458 10.8053 2.46361 8.3738 2.46361C7.28555 2.46361 6.28917 2.8587 5.52082 3.51341L4.27159 2.26493C5.36123 1.29338 6.79864 0.702637 8.3737 0.702637C11.7783 0.702637 14.5386 3.47432 14.5386 6.87886H16.5547L13.4233 9.9996L10.3447 6.87886ZM2.20906 6.87851L0.132812 6.87841L3.20464 3.79753L6.27436 6.87764H3.97082C3.97082 9.3091 5.94242 11.2695 8.3739 11.2695C9.417 11.2695 10.3749 10.9076 11.129 10.3018L12.3797 11.5532C11.302 12.4751 9.9031 13.032 8.3739 13.032C4.96937 13.032 2.20906 10.2831 2.20906 6.87851Z" fill="#2FC6F6"/>
</svg>
