<svg xmlns="http://www.w3.org/2000/svg" width="63" height="701" viewBox="0 0 63 701"><g fill="none" fill-rule="evenodd"><path fill="#3BC8F5" d="M4.428 7.052L18.86 17.958c.328.246.656.41 1.066.41h.656c.41-.082.738-.164 1.066-.41L36.08 7.052c.246-.164.41-.41.574-.656v7.216h4.018V4.346C40.672 1.968 38.704 0 36.326 0H4.346C1.968 0 0 1.968 0 4.346v20.09c0 2.378 1.968 4.346 4.346 4.346h16.318v-4.018H5.33c-.738 0-1.312-.574-1.312-1.312V6.478c.082.246.246.41.41.574zm28.044-3.034l-12.218 9.266L8.036 4.018h24.436zm13.53 21.648l-6.724-6.642c-.246-.246-.656-.246-.984-.082-.328.164-.492.492-.492.82v3.772H27.634c-.492 0-.902.41-.902.902v3.936c0 .492.41.902.902.902h10.168v3.772c0 .328.164.656.492.82.328.164.656.164.984-.082l6.724-6.642c.246-.164.41-.492.41-.738s-.164-.574-.41-.738zM31.44 45.382H7.835c-.466 0-.84-.374-.84-.84V41.09c0-.466.374-.84.84-.84H31.44c.466 0 .84.374.84.84v3.452c.092.466-.374.84-.84.84m0 10.448H7.835c-.466 0-.84-.373-.84-.84v-3.45c0-.468.374-.84.84-.84H31.44c.466 0 .84.372.84.84v3.45c.092.467-.374.84-.84.84M35.17 34H4.106C1.865 34 0 35.866 0 38.105v20.99c0 2.24 1.866 4.105 4.105 4.105H22.95c.28 0 .466.093.653.28l5.784 6.25c.56.56 1.492.187 1.492-.56v-5.13c0-.467.373-.84.84-.84h3.544c2.24 0 4.105-1.866 4.105-4.105v-20.99c-.094-2.24-1.96-4.105-4.2-4.105M21.118 88.402c.248.247.598.362.943.308l11.182-.076c.41-.063.748-.35.876-.743.13-.392.025-.824-.267-1.116L30.73 83.65l8.47-8.47c.43-.43.43-1.124 0-1.552l-3.306-3.307c-.428-.427-1.123-.427-1.55 0l-8.472 8.472-3.124-3.123c-.292-.293-.724-.396-1.117-.268-.394.128-.68.467-.744.876l-.076 11.18c-.054.346.06.697.308.944zM28.164 97c-1.21-1.196-2.72-1.196-3.924 0-.917.91-1.835 1.818-2.736 2.743-.247.255-.455.31-.756.14-.593-.325-1.226-.587-1.796-.94-2.66-1.674-4.887-3.825-6.86-6.246-.98-1.202-1.85-2.49-2.46-3.94-.123-.292-.1-.484.14-.723.916-.887 1.81-1.797 2.712-2.706 1.257-1.264 1.257-2.744-.007-4.016-.717-.725-1.434-1.434-2.15-2.16-.74-.74-1.474-1.487-2.22-2.22-1.212-1.178-2.723-1.178-3.925.01-.925.908-1.812 1.84-2.752 2.735-.87.825-1.31 1.835-1.403 3.014-.147 1.92.324 3.732.987 5.498 1.356 3.654 3.422 6.9 5.928 9.875 3.384 4.024 7.423 7.207 12.15 9.505 2.126 1.033 4.33 1.827 6.728 1.958 1.65.092 3.084-.324 4.233-1.61.786-.88 1.672-1.682 2.505-2.522 1.233-1.25 1.24-2.76.015-3.993-1.464-1.472-2.937-2.936-4.41-4.4zM32.606 110H2.394C1.127 110 0 111.056 0 112.394v8.24c0 1.267 1.056 2.394 2.394 2.394h30.212c1.267 0 2.394-1.056 2.394-2.394v-8.24c0-1.338-1.056-2.394-2.394-2.394zm-1.057 8.732c0 .423-.353.775-.775.775H4.295c-.422 0-.774-.352-.774-.775v-4.507c0-.422.353-.774.776-.774h26.48c.42 0 .773.353.773.775v4.507zm1.056 8.45H2.394c-1.267 0-2.394 1.057-2.394 2.395v8.24c0 1.268 1.056 2.394 2.394 2.394h30.212c1.267 0 2.394-1.055 2.394-2.393v-8.24c0-1.338-1.056-2.394-2.394-2.394zm-1.057 8.733c0 .423-.353.775-.775.775H4.295c-.422 0-.774-.352-.774-.775v-4.507c0-.422.353-.774.776-.774h26.48c.42 0 .773.352.773.774v4.507zM31.9 175H3.998C1.81 175 0 176.81 0 178.997v20.74c0 2.187 1.81 3.997 3.997 3.997H31.9c2.188 0 3.998-1.81 3.998-3.998v-20.74c0-2.186-1.81-3.996-3.997-3.996zm.303 23.832c0 .678-.528 1.206-1.207 1.206H4.902c-.68 0-1.207-.528-1.207-1.206v-18.93c0-.68.528-1.207 1.207-1.207h26.094c.68 0 1.207.528 1.207 1.207v18.93zm-4.224-7.165H8.446c-.528 0-1.056.452-1.056 1.056v2.49c0 .526.453 1.054 1.057 1.054H27.98c.527 0 1.055-.452 1.055-1.055v-2.49c-.075-.527-.528-1.055-1.056-1.055zm0-8.673H8.446c-.528 0-1.056.453-1.056 1.056v2.49c0 .527.453 1.054 1.057 1.054H27.98c.527 0 1.055-.452 1.055-1.055v-2.49c-.075-.603-.528-1.056-1.056-1.056zM.085 214.07h4.182v19.034h3.84v-22.96H0v3.927h.085zm20.4 4.183c0-5.718 4.607-10.327 10.326-10.327 5.548 0 10.157 4.438 10.328 9.986h3.84C44.81 210.23 38.493 204 30.726 204c-7.852 0-14.253 6.4-14.253 14.253 0 7.852 6.4 14.253 14.253 14.253h29.19v-3.84h-29.19c-5.633-.086-10.24-4.694-10.24-10.413zm-17.156-9.986h6.485v24.922h3.84v-28.763H3.33v3.84zm22.616 9.986c0-2.646 2.22-4.865 4.865-4.865 2.56 0 4.695 1.963 4.866 4.524h3.84c-.17-4.694-4.01-8.364-8.705-8.364-4.78 0-8.705 3.926-8.705 8.705 0 4.78 3.926 8.706 8.706 8.706H60v-3.842H30.81c-2.645 0-4.864-2.22-4.864-4.865z"/><g fill="#535C69" opacity=".5"><path d="M53 3v1.375h5.183c1.382 0 2.505 1.13 2.505 2.52 0 1.39-1.124 2.522-2.505 2.522h-1.565c-.378 0-.684.307-.684.687 0 .38.306.687.684.687h1.565c2.135 0 3.872-1.746 3.872-3.894S60.318 3 58.183 3H53z"/><path d="M53.457 0v6.915L50 3.458"/></g><path fill="#80868E" opacity=".5" d="M58 109v-5h-3v5h-5v3h5v5h3v-5h5v-3"/><path fill="#2D333A" opacity=".5" d="M58 124v-5h-3v5h-5v3h5v5h3v-5h5v-3"/><g fill="#535C69" opacity=".5"><path d="M60 19v-1.375h-5.183c-1.382 0-2.505-1.13-2.505-2.52 0-1.39 1.124-2.522 2.505-2.522h1.565c.378 0 .684-.307.684-.687 0-.38-.306-.687-.684-.687h-1.565c-2.135 0-3.872 1.746-3.872 3.894S52.682 19 54.817 19H60z"/><path d="M59.543 22v-6.915L63 18.542"/></g><path fill="#535C69" opacity=".5" d="M58.243 28.364l-3.182-3.182-1.06 1.06 3.713 3.713.53.53 4.243-4.242-1.06-1.06"/><path fill="#000" opacity=".5" d="M58.243 36.364l-3.182-3.182-1.06 1.06 3.713 3.713.53.53 4.243-4.242-1.06-1.06"/><path fill="#80868E" d="M50.43 41.842l5.416 3.126c.18.105.417.156.654.156.237 0 .472-.05.654-.156l5.417-3.126c.354-.203.688-.842.04-.842H50.39c-.647 0-.314.64.04.842zm12.29 1.552c-.4.225-5.32 2.99-5.566 3.126-.245.137-.417.155-.654.155-.237 0-.41-.018-.654-.155-.246-.137-5.166-2.9-5.566-3.126-.282-.158-.28.027-.28.17v5.692c0 .325.403.744.716.744h11.568c.313 0 .716-.42.716-.744v-5.692c0-.143.003-.328-.28-.17z" opacity=".5"/><path fill="#3BC8F5" d="M50.43 52.842l5.416 3.126c.18.105.417.156.654.156.237 0 .472-.05.654-.156l5.417-3.126c.354-.203.688-.842.04-.842H50.39c-.647 0-.314.64.04.842zm12.29 1.552c-.4.225-5.32 2.99-5.566 3.126-.245.137-.417.155-.654.155-.237 0-.41-.018-.654-.155-.246-.137-5.166-2.9-5.566-3.126-.282-.158-.28.027-.28.17v5.692c0 .325.403.744.716.744h11.568c.313 0 .716-.42.716-.744v-5.692c0-.143.003-.328-.28-.17z"/><path fill="#F16C09" d="M55.29 78c-2.528-.927-4.23-3.308-4.29-6 0-4.54 4.49-8.787 7-10-.48 4.19 5 5.287 5 10.75 0 3.877-4.29 5.25-4.29 5.25h-3.42z"/><path fill="#FFF" d="M56 78c-1.182-1.007-1.904-2.45-2-4 .133-2.054 1.25-3.916 3-5 1.48 3.148 3 2.8 3 5-.003 1.573-.743 3.054-2 4h-2z"/><path fill="#80868E" d="M55.29 98c-2.528-.927-4.23-3.308-4.29-6 0-4.54 4.49-8.787 7-10-.48 4.19 5 5.287 5 10.75 0 3.877-4.29 5.25-4.29 5.25h-3.42z"/><path fill="#FFF" d="M56 98c-1.182-1.007-1.904-2.45-2-4 .133-2.054 1.25-3.916 3-5 1.48 3.148 3 2.8 3 5-.003 1.573-.743 3.054-2 4h-2z"/><g opacity=".5"><path fill="#535C69" d="M59.228 140.247c-.274.27-.547.542-.816.818-.074.076-.136.092-.226.04-.177-.095-.365-.173-.535-.28-.792-.498-1.456-1.14-2.045-1.86-.292-.36-.55-.743-.733-1.176-.037-.088-.03-.145.04-.217.275-.264.542-.535.81-.806.375-.377.375-.82-.002-1.198-.214-.217-.427-.428-.64-.645-.222-.22-.44-.443-.663-.662-.36-.35-.812-.35-1.17.003-.276.27-.54.55-.82.816-.26.246-.39.547-.42.898-.043.573.098 1.113.295 1.64.405 1.09 1.02 2.057 1.768 2.944 1.01 1.2 2.213 2.15 3.622 2.834.635.308 1.292.545 2.007.584.49.027.918-.097 1.26-.48.235-.263.5-.502.748-.752.368-.373.37-.823.004-1.19-.436-.44-.875-.877-1.314-1.313-.36-.357-.812-.357-1.17 0z"/><path fill="#2D333A" d="M60.228 151.247c-.274.27-.547.542-.816.818-.074.076-.136.092-.226.04-.177-.095-.365-.173-.535-.28-.792-.498-1.456-1.14-2.045-1.86-.292-.36-.55-.743-.733-1.176-.037-.088-.03-.145.04-.217.275-.264.542-.535.81-.806.375-.377.375-.82-.002-1.198-.214-.217-.427-.428-.64-.645-.222-.22-.44-.443-.663-.662-.36-.35-.812-.35-1.17.003-.276.27-.54.55-.82.816-.26.246-.39.547-.42.898-.043.573.098 1.113.295 1.64.405 1.09 1.02 2.057 1.768 2.944 1.01 1.2 2.213 2.15 3.622 2.834.635.308 1.292.545 2.007.584.49.027.918-.097 1.26-.48.235-.263.5-.502.748-.752.368-.373.37-.823.004-1.19-.436-.44-.875-.877-1.314-1.313-.36-.357-.812-.357-1.17 0z"/></g><path fill="#535C69" opacity=".3" d="M61.9 161.268l.1-.1L57.833 157l-.833.833 3.434 3.435L57 164.702l.833.834L62 161.37M51.1 161.268l-.1-.1L55.167 157l.833.833-3.434 3.435L56 164.702l-.833.834L51 161.37"/><path fill="#000" opacity=".3" d="M61.9 172.268l.1-.1L57.833 168l-.833.833 3.434 3.435L57 175.702l.833.834L62 172.37M51.1 172.268l-.1-.1L55.167 168l.833.833-3.434 3.435L56 175.702l-.833.834L51 172.37"/><path fill="#3BC8F5" d="M39.592 234H7.755c-2.367 0-4.326 1.982-4.326 4.377v13.874h4v-11.643c.162.165.243.33.488.495l14.368 10.984c.326.248.653.413 1.06.413H24c.408-.084.735-.166 1.06-.414l14.37-10.984c.243-.165.407-.413.57-.66v17.26c0 .743-.57 1.32-1.306 1.32H23.837v4.047h15.836c2.368 0 4.327-1.983 4.327-4.377V238.46c-.082-2.478-2.04-4.46-4.408-4.46zm-16 13.38l-12.163-9.333h24.325l-12.163 9.332zm-4.408 12.47l-6.694-6.69c-.245-.248-.653-.248-.98-.083-.326.165-.49.495-.49.826v3.8H.898c-.49 0-.898.41-.898.907v3.964c0 .495.408.908.898.908H11.02v3.8c0 .33.164.66.49.825.327.165.653.165.98-.082l6.694-6.69c.245-.165.408-.495.408-.743 0-.33-.163-.578-.408-.743zM30.477 297.546c0 .672-.55 1.195-1.26 1.195H5.67c-.71 0-1.26-.522-1.26-1.194v-22.342c0-.672.55-1.195 1.26-1.195h16.223l4.49-4.26H4.172C1.89 269.75 0 271.543 0 273.71v25.33c0 2.167 1.89 3.96 4.174 3.96H30.87c2.284 0 4.174-1.793 4.174-3.96v-9.788l-4.488 4.26v4.034h-.08zm7.087-22.342l-2.047-1.942c-.55-.523-1.418-.523-1.89 0l-14.254 13.45-6.38-6.053c-.55-.524-1.417-.524-1.89 0L9.057 282.6c-.55.523-.55 1.345 0 1.793l9.45 8.966c.316.3.788.45 1.26.375.237-.075.473-.15.71-.374L37.72 277c.394-.45.394-1.27-.158-1.794zM35 325.567c0-.304-.15-.59-.4-.77l-7.125-6.834c-.298-.212-.694-.244-1.024-.08-.33.162-.537.49-.537.85v3.845h-10.72c-.542 0-.982.427-.982.955v4.07c0 .526.44.954.983.954h10.72v3.844c0 .36.208.69.538.853.33.163.727.13 1.025-.082l7.124-6.833c.25-.18.4-.466.4-.77zm-23.252 7.13c-1.156-.004-2.312-.008-3.468.006-.317.005-.483-.09-.566-.38-.17-.564-.404-1.114-.54-1.684-.625-2.667-.674-5.36-.39-8.065.14-1.343.404-2.67.935-3.938.107-.256.243-.36.546-.36 1.14.02 2.282.01 3.43.005 1.594-.005 2.53-.916 2.535-2.477.006-.887 0-1.764.006-2.652 0-.91.01-1.82 0-2.732-.02-1.47-.976-2.4-2.488-2.41-1.16-.008-2.312.02-3.473-.008-1.073-.03-1.99.322-2.795.99-1.307 1.092-2.156 2.496-2.853 3.99-1.454 3.084-2.2 6.353-2.498 9.726-.405 4.558.136 9.003 1.673 13.325.692 1.945 1.585 3.79 3.02 5.346.984 1.07 2.155 1.698 3.696 1.612 1.053-.057 2.12-.004 3.18-.01 1.57-.01 2.53-.934 2.536-2.447.005-1.807 0-3.615-.005-5.422-.01-1.48-.965-2.41-2.482-2.415z"/><path fill="#535C69" d="M9.85 353.234l-5.165-5.096c-.217-.16-.504-.182-.743-.06-.24.12-.39.366-.39.634v2.867H.712c-.393 0-.712.318-.712.71v3.036c0 .393.32.712.712.712h2.84v2.867c0 .27.15.514.39.636.24.122.526.098.743-.06l5.166-5.097c.184-.134.292-.347.292-.574 0-.228-.108-.442-.29-.576zm1.3 1.15l5.165 5.096c.217.158.504.182.743.06.24-.12.39-.366.39-.635v-2.867h2.84c.393 0 .712-.318.712-.712v-3.035c0-.392-.32-.71-.712-.71h-2.84v-2.868c0-.268-.15-.514-.39-.635-.24-.12-.526-.098-.743.06l-5.166 5.097c-.184.134-.292.348-.292.575 0 .226.108.44.29.573z"/><path fill="#3BC8F5" d="M19.96 155.606L9.493 145.28c-.44-.322-1.02-.37-1.505-.124-.485.246-.79.743-.79 1.287v5.81H1.442c-.797 0-1.443.645-1.443 1.442v6.15c0 .796.646 1.442 1.443 1.442h5.753v5.81c0 .544.306 1.04.79 1.287.486.246 1.068.198 1.506-.123l10.47-10.326c.37-.272.59-.705.59-1.164 0-.46-.22-.892-.59-1.164zm2.63 2.328l10.47 10.327c.437.322 1.02.37 1.504.124.485-.246.79-.743.79-1.287v-5.81h5.754c.797 0 1.443-.646 1.443-1.442v-6.15c0-.797-.645-1.443-1.442-1.443h-5.753v-5.81c0-.543-.306-1.04-.79-1.286-.486-.246-1.068-.198-1.506.123l-10.47 10.326c-.37.272-.59.704-.59 1.164 0 .46.22.892.59 1.164zM26.05 368.99H2.46c-1.307 0-2.363 1.056-2.363 2.362v26.004c0 1.307 1.056 2.362 2.362 2.362h23.59c1.308 0 2.363-1.055 2.363-2.362v-26.004c0-1.306-1.055-2.362-2.362-2.362zm-11.585 26.532c-6.303 0-11.406-5.102-11.406-11.405 0-6.303 5.102-11.406 11.405-11.406 6.303 0 11.405 5.104 11.405 11.407s-5.102 11.405-11.405 11.405zm1.662-11.38c.88-.655 1.482-1.86 1.482-3.217 0-2.086-1.383-3.77-3.116-3.77-1.71 0-3.116 1.684-3.116 3.77 0 1.356.603 2.537 1.483 3.216-2.914.327-5.074 1.66-5.074 5.428 0 .678 6.658.577 6.658.577s6.733.05 6.733-.577c0-3.77-2.136-5.126-5.05-5.427zm20.722-6.367h12.29c1.314 0 2.376-1.062 2.376-2.375s-1.062-2.374-2.375-2.374H36.85c-1.314 0-2.375 1.06-2.375 2.374 0 1.313 1.06 2.375 2.374 2.375zm12.29 3.073H36.85c-1.314 0-2.375 1.062-2.375 2.375s1.06 2.374 2.374 2.374h12.29c1.314 0 2.376-1.06 2.376-2.374 0-1.313-1.062-2.375-2.375-2.375zm-2.975 7.543h-9.798c-1.046 0-1.892 1.063-1.892 2.376s.846 2.374 1.892 2.374h9.798c1.047 0 1.893-1.06 1.893-2.374 0-1.313-.846-2.375-1.893-2.375zM37.36 410.908H4.14c-2.333 0-4.26 1.925-4.26 4.26v29.572c0 2.337 1.927 4.26 4.26 4.26h33.22c2.334 0 4.26-1.924 4.26-4.26v-29.57c0-2.335-1.926-4.26-4.26-4.26v-.002zm-.533 32.03c0 .82-.655 1.476-1.475 1.476H6.148c-.82 0-1.475-.656-1.475-1.475v-25.93c0-.818.656-1.473 1.475-1.473h29.204c.82 0 1.475.655 1.475 1.474v25.93-.002zm-5.284-13.598H21.508c-.82 0-1.516.697-1.516 1.516v1.474c0 .82.697 1.516 1.516 1.516h10.035c.82 0 1.516-.696 1.516-1.516v-1.474c.04-.82-.658-1.516-1.518-1.516zm-9.503-8.888l-1.024-1.024c-.573-.573-1.556-.573-2.17 0l-5.858 5.857-2.007-2.007c-.57-.573-1.554-.573-2.17 0l-1.023 1.024c-.573.574-.573 1.557 0 2.17l3.072 3.073 1.023 1.024c.574.572 1.557.572 2.17 0l7.988-7.99c.575-.573.575-1.515 0-2.13v.002zm9.503 15.852H21.508c-.82 0-1.516.696-1.516 1.515v1.473c0 .82.697 1.515 1.516 1.515h10.035c.82 0 1.516-.697 1.516-1.516v-1.472c.04-.82-.658-1.516-1.518-1.516z"/><path fill="#3CC7F6" d="M9.726 475.66v15.262c0 1.105.896 2 2 2s2-.895 2-2V475.66c0-.043.035-.078.078-.078h4.247c.045 0 .08.035.08.078v12.65c0 2.248 1.83 4.078 4.078 4.078h4.247c2.25 0 4.078-1.83 4.078-4.078v-20.54h4.392c.544 0 .816-.656.43-1.04l-6.55-6.55c-.238-.24-.624-.24-.863 0l-6.55 6.55c-.384.385-.112 1.042.432 1.042h4.71v20.538c0 .043-.035.078-.078.078H22.21c-.044 0-.08-.035-.08-.078v-12.65c0-2.25-1.83-4.078-4.08-4.078h-4.245c-2.248 0-4.078 1.83-4.078 4.078zm26.86-4.79v23.884c0 1.044-.85 1.893-1.894 1.893H6.072c-1.045 0-1.894-.85-1.894-1.893v-25.58c0-1.044.85-1.893 1.893-1.893h10.694v-4.176H6.07c-3.345 0-6.07 2.723-6.07 6.07v25.58c0 3.347 2.724 6.07 6.07 6.07h28.622c3.347 0 6.07-2.723 6.07-6.07V470.87h-4.177z"/><path fill="#3BC8F5" d="M12.375 539.11c1.598.004 2.605.987 2.615 2.552.005 1.91.01 3.82.005 5.732-.005 1.6-1.017 2.578-2.67 2.588-1.116.005-2.24-.05-3.35.01-1.625.09-2.858-.572-3.896-1.705-1.51-1.645-2.453-3.596-3.18-5.652-1.62-4.57-2.19-9.268-1.765-14.087.314-3.566 1.1-7.02 2.63-10.28.736-1.58 1.63-3.065 3.007-4.218.848-.707 1.814-1.078 2.945-1.048 1.223.03 2.435 0 3.658.01 1.593.01 2.6.993 2.62 2.547.01.96 0 1.924 0 2.887-.005.938 0 1.865-.005 2.803-.005 1.65-.99 2.614-2.67 2.62-1.21.004-2.41.014-3.613-.006-.32 0-.463.11-.576.38-.56 1.34-.835 2.744-.984 4.164-.298 2.858-.247 5.707.41 8.525.144.602.39 1.183.57 1.78.088.306.263.406.597.4 1.218-.014 2.435-.01 3.653-.004zM20 522.004c0-1.106.89-2.004 2-2.004h13c1.105 0 2 .894 2 2.005v.99c0 1.107-.89 2.005-2 2.005H22c-1.105 0-2-.894-2-2.005v-.99zm0 8c0-1.107.89-2.005 2-2.005h13c1.105 0 2 .893 2 2.004v.99c0 1.108-.89 2.006-2 2.006H22c-1.105 0-2-.894-2-2.005v-.99zm0 7c0-1.107.89-2.005 2-2.005h13c1.105 0 2 .893 2 2.004v.99c0 1.108-.89 2.006-2 2.006H22c-1.105 0-2-.894-2-2.005v-.99zM6.495 566.933v-4.163c0-.216.218-.65.435-.87 7.616-6.526 14.143 0 14.143 0 .218.22.218.436.218.87v4.163h1.34c1.087 0 1.957.87 2.175 1.74l2.393 17.19c.218 1.305-.652 2.393-1.958 2.393H2.175C.87 588.256 0 587.168 0 585.863l2.393-17.19c.218-1.087 1.088-1.74 2.176-1.74h1.924zm2.176 0h10.446v-3.51c-1.088-1.087-5.44-3.915-10.444 0v3.51zm-2.09 2.604c-.704.36-1.185 1.093-1.185 1.938 0 1.2.974 2.175 2.176 2.175 1.2 0 2.176-.974 2.176-2.175 0-.822-.456-1.538-1.13-1.908-.135.33-.515.602-1.032.602-.485 0-.85-.24-1.005-.634zm12.606-.036c-.744.348-1.26 1.1-1.26 1.976 0 1.2.975 2.175 2.177 2.175 1.203 0 2.177-.973 2.177-2.174 0-.807-.44-1.51-1.09-1.887-.167.36-.52.58-.984.58-.5 0-.873-.255-1.02-.668zm15.938.507c-1.27 0-2.3-1.028-2.3-2.3 0-1.27 1.03-2.297 2.3-2.297H47.02c1.27 0 2.298 1.026 2.298 2.297 0 1.27-1.028 2.3-2.3 2.3H35.123zm11.896 2.973c1.27 0 2.298 1.028 2.298 2.298s-1.028 2.3-2.3 2.3H35.123c-1.27 0-2.3-1.03-2.3-2.3 0-1.27 1.03-2.298 2.3-2.298H47.02zm-2.882 7.3c1.013 0 1.832 1.028 1.832 2.3 0 1.27-.82 2.298-1.832 2.298h-9.483c-1.013 0-1.832-1.028-1.832-2.3 0-1.27.82-2.297 1.832-2.297h9.483z"/><g fill="#3AC8F5"><path d="M25.636 647.168c-.83 0-1.5-.672-1.5-1.5 0-.83.67-1.5 1.5-1.5.828 0 1.5.67 1.5 1.5 0 .828-.672 1.5-1.5 1.5zm-1.296-38.995h5v-1h-5v1zm-3 0h1v-1h-1v1zM36 605H15c-1.1 0-2 .9-2 2v6h2.776v-2.036c0-.548.444-.993.993-.993h17.674c.547 0 .992.448.992.996v30.532c0 .548-.445.993-.992.993H16.77c-.55 0-.994-.445-.994-.993V634H13v13c0 1.1.9 2 2 2h21c1.1 0 2-.9 2-2v-40c0-1.1-.9-2-2-2z"/><path d="M13.8 625.4c-1.2 0-2.3-1-2.3-2.2 0-1.2 1-2.2 2.3-2.2 1.2 0 2.3 1 2.3 2.2 0 1.2-1.1 2.2-2.3 2.2zm-6.4 0c-1.2 0-2.3-1-2.3-2.2 0-1.2 1-2.2 2.3-2.2 1.2 0 2.3 1 2.3 2.2 0 1.2-1.1 2.2-2.3 2.2zm12.8-4.4c1.2 0 2.3 1 2.3 2.2 0 1.2-1 2.2-2.3 2.2-1.2 0-2.3-1-2.3-2.2 0-1.2 1-2.2 2.3-2.2zm2.8 14.3V632h2c1.1 0 2-.9 2-2v-13c0-1.1-.9-2-2-2H2c-1.1 0-2 .9-2 2v13c0 1.1.9 2 2 2h15.6l5.4 3.3z"/></g><g fill="#3BC8F5"><path d="M8 657h23.704c4.418 0 8 3.582 8 8v21.057c0 4.418-3.582 8-8 8H8c-4.418 0-8-3.582-8-8V665c0-4.418 3.582-8 8-8zm-.233 4.863c-1.657 0-3 1.344-3 3v21.33c0 1.657 1.343 3 3 3h24.17c1.656 0 3-1.343 3-3v-21.33c0-1.656-1.344-3-3-3H7.766z"/><path d="M27.568 675.322c0-.345-.17-.67-.455-.873l-8.08-7.753c-.34-.242-.788-.277-1.163-.093-.374.185-.61.558-.61.966v4.36H5.1c-.616 0-1.114.486-1.114 1.084v4.616c0 .6.498 1.084 1.113 1.084h12.16v4.36c0 .41.236.782.61.967.375.185.824.15 1.162-.092l8.08-7.752c.287-.204.456-.53.456-.874"/></g></g></svg>