<svg width="41" height="17" viewBox="0 0 41 17" fill="none" xmlns="http://www.w3.org/2000/svg">
    <path d="M7.49147 2.19172C7.01095 2.76594 6.24211 3.21884 5.47327 3.15414C5.37717 2.37774 5.75358 1.55281 6.19406 1.04329C6.67458 0.452901 7.5155 0.0323501 8.19624 0C8.27633 0.808753 7.96399 1.60133 7.49147 2.19172ZM8.18823 3.3078C7.07502 3.2431 6.12198 3.94672 5.59341 3.94672C5.05682 3.94672 4.24794 3.34015 3.36698 3.35633C2.22173 3.3725 1.15657 4.02759 0.571931 5.07088C-0.629378 7.15747 0.259591 10.2469 1.42086 11.9453C1.98948 12.7864 2.67022 13.7084 3.5672 13.676C4.41612 13.6437 4.75249 13.118 5.77761 13.118C6.81073 13.118 7.10706 13.676 8.00403 13.6598C8.93305 13.6437 9.51768 12.8187 10.0863 11.9776C10.735 11.0233 10.9993 10.0932 11.0153 10.0447C10.9993 10.0285 9.22136 9.3411 9.20534 7.27069C9.18933 5.53996 10.6069 4.71503 10.6709 4.66651C9.87007 3.46955 8.6207 3.34015 8.18823 3.3078ZM14.6192 0.962417V13.5709H16.5574V9.26023H19.2403C21.691 9.26023 23.4128 7.56185 23.4128 5.10324C23.4128 2.64462 21.723 0.962417 19.3043 0.962417H14.6192ZM16.5574 2.61227H18.7918C20.4736 2.61227 21.4347 3.51808 21.4347 5.11132C21.4347 6.70457 20.4736 7.61846 18.7838 7.61846H16.5574V2.61227ZM26.9527 13.6679C28.17 13.6679 29.2992 13.0452 29.8118 12.0585H29.8518V13.5709H31.6458V7.29496C31.6458 5.47526 30.2042 4.30257 27.9858 4.30257C25.9276 4.30257 24.4059 5.49144 24.3499 7.12512H26.0958C26.2399 6.34871 26.9527 5.8392 27.9298 5.8392C29.115 5.8392 29.7798 6.39724 29.7798 7.42436V8.11988L27.3611 8.26546C25.1107 8.40295 23.8934 9.33301 23.8934 10.9505C23.8934 12.5842 25.1507 13.6679 26.9527 13.6679ZM27.4733 12.1717C26.4401 12.1717 25.7834 11.6703 25.7834 10.902C25.7834 10.1094 26.4161 9.64843 27.6254 9.57564L29.7798 9.43815V10.1499C29.7798 11.3306 28.7867 12.1717 27.4733 12.1717ZM34.0404 17C35.9305 17 36.8194 16.2721 37.5963 14.0642L41 4.42388H39.0299L36.7474 11.8725H36.7073L34.4248 4.42388H32.3986L35.6822 13.6032L35.506 14.1613C35.2097 15.1075 34.7292 15.4715 33.8722 15.4715C33.7201 15.4715 33.4237 15.4553 33.3036 15.4391V16.9515C33.4157 16.9838 33.8963 17 34.0404 17Z" fill="black"/>
</svg>
