<svg width="14" height="15" viewBox="0 0 14 15" fill="none" xmlns="http://www.w3.org/2000/svg">
	<circle cx="7" cy="7.5" r="7" fill="#9D56A9"/>
	<path fill-rule="evenodd" clip-rule="evenodd" d="M9.42218 5.4591L9.84615 4.03519C9.88309 3.91139 9.85193 3.77706 9.76441 3.6828C9.67689 3.58854 9.5463 3.54867 9.42183 3.57821C9.29737 3.60775 9.19794 3.70221 9.161 3.82601L8.79785 5.04834C7.66886 4.45228 6.32277 4.4537 5.19501 5.05214L4.83007 3.82601C4.77297 3.63463 4.5733 3.52631 4.3841 3.58408C4.1949 3.64184 4.08782 3.84381 4.14492 4.03519L4.57068 5.46471C3.61457 6.23773 3.05932 7.40973 3.06264 8.64782C3.06264 10.8822 4.8247 10.3339 7.00001 10.3339C9.17531 10.3339 10.9374 10.8822 10.9374 8.64782C10.9412 7.40641 10.3829 6.23154 9.42218 5.4591ZM6.99647 8.34418C5.44371 8.34418 4.18432 8.50703 4.18432 7.84131C4.18432 7.17559 5.44371 6.63509 6.99647 6.63509C8.54924 6.63509 9.81042 7.17505 9.81042 7.84131C9.81042 8.50758 8.55103 8.34418 6.99647 8.34418ZM5.71025 7.13379C5.48856 7.17475 5.33673 7.38324 5.36378 7.60955C5.39084 7.83586 5.58742 8.00173 5.81237 7.98806C6.03733 7.97439 6.21286 7.7859 6.21294 7.55794C6.18782 7.30152 5.96415 7.11279 5.71025 7.13379ZM7.93558 7.61068C7.96313 7.83695 8.15999 8.00246 8.38495 7.98851C8.60991 7.97456 8.7853 7.78595 8.78532 7.55797C8.76022 7.30078 8.53541 7.11177 8.28085 7.13382C8.05927 7.17551 7.90802 7.38441 7.93558 7.61068Z" fill="white"/>
</svg>