<svg width="14" height="15" viewBox="0 0 14 15" fill="none" xmlns="http://www.w3.org/2000/svg">
	<circle cx="7" cy="7.5" r="7" fill="#688800"/>
	<path fill-rule="evenodd" clip-rule="evenodd" d="M10.2413 6.92853C10.2413 6.91313 10.2424 6.89773 10.2424 6.88233C10.2424 5.84651 9.43673 5.00586 8.4433 5.00586C8.23951 5.00583 8.03732 5.04182 7.84606 5.11216C7.57716 4.39856 6.898 3.92302 6.13546 3.91443C5.11463 3.91443 4.28788 4.77798 4.28788 5.84255C4.28788 5.85414 4.28788 5.86559 4.2887 5.87717C3.37489 6.23269 2.77706 7.11731 2.78799 8.09778C2.78799 9.39991 3.80009 10.4556 5.0488 10.4556C5.07402 10.4556 5.09896 10.4544 5.12404 10.4536V10.4556H9.8009C10.7674 10.429 11.5312 9.62743 11.5114 8.6608C11.5219 7.86469 11.0037 7.15796 10.2413 6.92853ZM7.10338 9.3108C6.42259 9.33794 5.79361 8.94869 5.51417 8.32729C5.23474 7.7059 5.36091 6.97705 5.83298 6.48576C6.30505 5.99447 7.02828 5.83932 7.66032 6.09374C8.29237 6.34816 8.70641 6.96111 8.70645 7.64245C8.72401 8.54564 8.00656 9.29232 7.10338 9.3108ZM7.77201 7.64394H7.11917V6.83982C7.12391 6.76618 7.08731 6.69602 7.02421 6.65776C6.96111 6.6195 6.88198 6.6195 6.81888 6.65776C6.75578 6.69602 6.71918 6.76618 6.72392 6.83982V7.84934C6.72171 7.96085 6.81031 8.05304 6.92182 8.05527H7.77201C7.88056 8.04828 7.96498 7.95813 7.96484 7.84935C7.96469 7.74058 7.88003 7.65065 7.77146 7.64394H7.77201Z" fill="white"/>
</svg>