<svg width="14" height="15" viewBox="0 0 14 15" fill="none" xmlns="http://www.w3.org/2000/svg">
	<circle cx="7" cy="7.5" r="7" fill="#0B66C3"/>
	<path fill-rule="evenodd" clip-rule="evenodd" d="M4.85388 5.73058C5.29125 5.73058 5.70231 5.9049 5.70231 6.40178C5.70231 6.84922 5.29319 7.14581 4.7835 7.51531C4.00235 8.08162 2.98497 8.81918 2.84204 10.5335H7.03185V9.5224H4.39898C4.55843 8.99656 5.06053 8.6152 5.57783 8.22228C6.25254 7.70982 6.95312 7.17769 6.95312 6.2797C6.95312 5.3732 6.33208 4.72815 5.04633 4.72815C4.2241 4.72815 3.53307 4.98093 3.03444 5.20761L3.34067 6.12285C3.78673 5.92232 4.26784 5.73058 4.85388 5.73058ZM9.40235 8.20614H8.87751C8.67638 8.20614 8.25647 8.22355 8.15154 8.23229L9.45487 6.51509C9.43729 6.62838 9.40235 7.14272 9.40235 7.58724V8.20614ZM9.70847 4.74562L6.82199 8.40663V9.16496H9.40234V10.5335H10.5657V9.16496H11.4229V8.20616H10.5657V4.74562H9.70847Z" fill="white"/>
</svg>