<svg width="95" height="50" viewBox="0 0 95 50" fill="none" xmlns="http://www.w3.org/2000/svg">
	<path fill-rule="evenodd" clip-rule="evenodd" d="M94.458 0.500001C94.486 1.163 94.5 1.83 94.5 2.5C94.5 28.457 73.457 49.5 47.5 49.5C21.543 49.5 0.5 28.457 0.500001 2.5C0.500001 1.83 0.514001 1.163 0.542001 0.5L94.458 0.500001Z" fill="#525C69"/>
	<path fill-rule="evenodd" clip-rule="evenodd" d="M46.715 17.833L55.962 27.08C56.1495 27.2675 56.4038 27.3728 56.669 27.3728C56.9342 27.3728 57.1885 27.2675 57.376 27.08L59.086 25.37C59.2735 25.1825 59.3788 24.9282 59.3788 24.663C59.3788 24.3978 59.2735 24.1435 59.086 23.956L47.468 12.338C47.3698 12.2395 47.2521 12.1626 47.1224 12.1123C46.9927 12.0621 46.8539 12.0395 46.715 12.046C46.5761 12.0395 46.4373 12.0621 46.3076 12.1123C46.1779 12.1626 46.0602 12.2395 45.962 12.338L34.344 23.956C34.1565 24.1435 34.0512 24.3978 34.0512 24.663C34.0512 24.9282 34.1565 25.1825 34.344 25.37L36.054 27.08C36.2415 27.2675 36.4958 27.3728 36.761 27.3728C37.0262 27.3728 37.2805 27.2675 37.468 27.08L46.715 17.833Z" fill="white"/>
</svg>