<svg width="95" height="50" viewBox="0 0 95 50" fill="none" xmlns="http://www.w3.org/2000/svg">
	<path fill-rule="evenodd" clip-rule="evenodd" d="M0.541998 49.5C0.513998 48.837 0.499998 48.17 0.499998 47.5C0.499999 21.543 21.543 0.499997 47.5 0.499998C73.457 0.499999 94.5 21.543 94.5 47.5C94.5 48.17 94.486 48.837 94.458 49.5L0.541998 49.5Z" fill="#525C69"/>
	<path fill-rule="evenodd" clip-rule="evenodd" d="M48.285 32.167L39.038 22.92C38.8505 22.7325 38.5962 22.6272 38.331 22.6272C38.0658 22.6272 37.8115 22.7325 37.624 22.92L35.914 24.63C35.7265 24.8175 35.6212 25.0718 35.6212 25.337C35.6212 25.6022 35.7265 25.8565 35.914 26.044L47.532 37.662C47.6302 37.7605 47.7479 37.8374 47.8776 37.8877C48.0073 37.9379 48.1461 37.9605 48.285 37.954C48.4239 37.9605 48.5627 37.9379 48.6924 37.8877C48.8221 37.8374 48.9398 37.7605 49.038 37.662L60.656 26.044C60.8435 25.8565 60.9488 25.6022 60.9488 25.337C60.9488 25.0718 60.8435 24.8175 60.656 24.63L58.946 22.92C58.7585 22.7325 58.5042 22.6272 58.239 22.6272C57.9738 22.6272 57.7195 22.7325 57.532 22.92L48.285 32.167Z" fill="white"/>
</svg>