<svg width="42" height="42" viewBox="0 0 42 42" fill="none" xmlns="http://www.w3.org/2000/svg">
	<path d="M10.4971 7C8.56569 7 7 8.56911 7 10.5047V26.2998C7 28.2354 8.56569 29.8045 10.4971 29.8045H16.2596V25.8567H10.9383V10.946H25.8164V16.7631H29.7548V10.5047C29.7548 8.56911 28.1891 7 26.2578 7H10.4971Z" fill="#959CA4"/>
	<path fill-rule="evenodd" clip-rule="evenodd" d="M19.3676 22.8382C19.3676 20.9026 20.9333 19.3335 22.8647 19.3335H31.5029C33.4343 19.3335 35 20.9026 35 22.8382V31.4953C35 33.4309 33.4343 35 31.5029 35H22.8647C20.9333 35 19.3676 33.4309 19.3676 31.4953V22.8382ZM22.7716 22.7458H31.5953V31.5887H22.7716V22.7458Z" fill="#959CA4"/>
</svg>