<svg width="42" height="42" viewBox="0 0 42 42" fill="none" xmlns="http://www.w3.org/2000/svg">
	<path fill-rule="evenodd" clip-rule="evenodd" d="M21 24.5234C21 22.5775 22.5775 21 24.5234 21H33.2266C35.1725 21 36.75 22.5775 36.75 24.5234V33.2266C36.75 35.1725 35.1725 36.75 33.2266 36.75H24.5234C22.5775 36.75 21 35.1725 21 33.2266V24.5234ZM24.4296 24.4305H33.3197V33.3206H24.4296V24.4305Z" fill="#959CA4"/>
	<path fill-rule="evenodd" clip-rule="evenodd" d="M17.5 31.5V22.75C17.5 20.266 19.2251 18.1849 21.5427 17.6395C21.72 16.9846 21.6819 16.3025 21.6819 16.3025C22.4102 16.6781 22.8845 15.0054 22.8845 15.0054C23.7459 12.6815 22.4556 12.822 22.4556 12.822C22.6813 11.4033 22.6813 9.96146 22.4556 8.54276C21.8819 3.83653 13.2444 5.11415 14.2686 6.65119C11.7442 6.21883 12.3203 11.5595 12.3203 11.5595L12.8678 12.9426C12.1089 13.4003 12.2579 13.9256 12.4244 14.5123C12.4938 14.757 12.5662 15.0123 12.5772 15.2778C12.6301 16.6106 13.5072 16.3344 13.5072 16.3344C13.5612 18.534 14.7278 18.8205 14.7278 18.8205C14.9469 20.2019 14.8103 19.9668 14.8103 19.9668L13.7722 20.0835C13.7863 20.3976 13.7588 20.7122 13.6903 21.0201C13.0871 21.2701 12.7179 21.469 12.3523 21.6659L12.3522 21.6659C11.9779 21.8675 11.6075 22.067 10.9938 22.3172C8.65022 23.2722 6.10317 24.5141 5.65038 26.1863C5.518 26.6751 5.38835 27.3323 5.27115 28.0176C5.14833 28.7358 5.56983 29.4388 6.29123 29.6885C9.43904 30.7778 12.9916 31.4234 16.7601 31.5H17.5Z" fill="#959CA4"/>
</svg>