<svg width="28" height="30" viewBox="0 0 28 30" fill="none" xmlns="http://www.w3.org/2000/svg">
	<g filter="url(#filter0_d_653_107868)">
		<circle cx="14" cy="13.5" r="10" fill="white"/>
	</g>
	<rect x="4" y="3.5" width="20" height="20" rx="10" fill="white" fill-opacity="0.01"/>
	<path d="M17 10.2692C17 11.7986 15.6569 13.0385 14 13.0385C12.3431 13.0385 11 11.7986 11 10.2692C11 8.73983 12.3431 7.5 14 7.5C15.6569 7.5 17 8.73983 17 10.2692Z" fill="#6A737F"/>
	<path d="M13 12.1154H15L16.6894 18.353C16.8472 18.9356 16.3698 19.5 15.7192 19.5H12.2808C11.6302 19.5 11.1528 18.9356 11.3106 18.353L13 12.1154Z" fill="#6A737F"/>
	<defs>
		<filter id="filter0_d_653_107868" x="0" y="1.5" width="28" height="28" filterUnits="userSpaceOnUse" color-interpolation-filters="sRGB">
			<feFlood flood-opacity="0" result="BackgroundImageFix"/>
			<feColorMatrix in="SourceAlpha" type="matrix" values="0 0 0 0 0 0 0 0 0 0 0 0 0 0 0 0 0 0 127 0" result="hardAlpha"/>
			<feOffset dy="2"/>
			<feGaussianBlur stdDeviation="2"/>
			<feComposite in2="hardAlpha" operator="out"/>
			<feColorMatrix type="matrix" values="0 0 0 0 0 0 0 0 0 0 0 0 0 0 0 0 0 0 0.12 0"/>
			<feBlend mode="normal" in2="BackgroundImageFix" result="effect1_dropShadow_653_107868"/>
			<feBlend mode="normal" in="SourceGraphic" in2="effect1_dropShadow_653_107868" result="shape"/>
		</filter>
	</defs>
</svg>