<svg width="186" height="172" viewBox="0 0 186 172" fill="none" xmlns="http://www.w3.org/2000/svg">
<path fill-rule="evenodd" clip-rule="evenodd" d="M133.818 20.2207C134.946 20.2207 135.86 19.3064 135.86 18.1787C135.86 17.0509 134.946 16.1367 133.818 16.1367C132.69 16.1367 131.776 17.0509 131.776 18.1787C131.776 19.3064 132.69 20.2207 133.818 20.2207ZM33.0568 37.86C35.5016 37.86 37.4835 35.8782 37.4835 33.4334C37.4835 30.9886 35.5016 29.0067 33.0568 29.0067C30.612 29.0067 28.6301 30.9886 28.6301 33.4334C28.6301 35.8782 30.612 37.86 33.0568 37.86ZM33.0568 35.3919C34.1385 35.3919 35.0153 34.515 35.0153 33.4334C35.0153 32.3517 34.1385 31.4748 33.0568 31.4748C31.9751 31.4748 31.0982 32.3517 31.0982 33.4334C31.0982 34.515 31.9751 35.3919 33.0568 35.3919ZM10.568 81.0751C13.8608 81.0751 16.5301 78.4058 16.5301 75.113C16.5301 71.8202 13.8608 69.1508 10.568 69.1508C7.27517 69.1508 4.60582 71.8202 4.60582 75.113C4.60582 78.4058 7.27517 81.0751 10.568 81.0751ZM10.568 77.9635C12.1423 77.9635 13.4185 76.6872 13.4185 75.113C13.4185 73.5387 12.1423 72.2624 10.568 72.2624C8.99368 72.2624 7.71747 73.5387 7.71747 75.113C7.71747 76.6872 8.99368 77.9635 10.568 77.9635ZM161.941 156.097C164.285 156.097 166.185 154.196 166.185 151.852C166.185 149.508 164.285 147.607 161.941 147.607C159.596 147.607 157.696 149.508 157.696 151.852C157.696 154.196 159.596 156.097 161.941 156.097ZM161.94 153.888C163.065 153.888 163.976 152.976 163.976 151.852C163.976 150.728 163.065 149.816 161.94 149.816C160.816 149.816 159.905 150.728 159.905 151.852C159.905 152.976 160.816 153.888 161.94 153.888ZM94 167C134.317 167 167 134.317 167 93.9999C167 53.6831 134.317 20.9999 94 20.9999C53.6832 20.9999 21 53.6831 21 93.9999C21 134.317 53.6832 167 94 167ZM20.965 161.897H6.77369C6.65226 161.897 6.53188 161.893 6.4127 161.884C3.20541 161.809 0.628092 159.113 0.62793 155.799C0.628862 154.184 1.2541 152.636 2.36609 151.494C2.93608 150.909 3.61004 150.455 4.34328 150.152C4.33101 149.988 4.32477 149.822 4.32477 149.654C4.32578 147.95 4.98551 146.316 6.15884 145.112C7.33217 143.907 8.92298 143.231 10.5813 143.232C12.7056 143.235 14.5811 144.327 15.7082 145.993C16.2435 145.798 16.8196 145.692 17.4199 145.693C20.0716 145.696 22.2495 147.773 22.502 150.43C25.0428 150.999 26.9441 153.325 26.9419 156.107C26.9393 159.312 24.4096 161.908 21.2908 161.907C21.1815 161.907 21.0729 161.904 20.965 161.897ZM171.362 49.005H181.433C181.509 49.0093 181.586 49.0115 181.664 49.0115C183.877 49.0125 185.673 47.2421 185.674 45.0568C185.676 43.1605 184.327 41.5744 182.524 41.1863C182.344 39.375 180.799 37.9586 178.917 37.9563C178.491 37.9561 178.082 38.0283 177.702 38.1612C176.902 37.0251 175.571 36.2808 174.064 36.279C172.887 36.2783 171.758 36.7392 170.925 37.5604C170.093 38.3815 169.624 39.4956 169.624 40.6576C169.624 40.7719 169.628 40.8851 169.637 40.9972C169.116 41.2038 168.638 41.513 168.234 41.9119C167.444 42.6901 167.001 43.746 167 44.8473C167 47.1068 168.829 48.9445 171.105 48.9957C171.19 49.0018 171.275 49.005 171.362 49.005Z" fill="#E5F9FF"/>
<g opacity="0.6">
<g filter="url(#filter0_d_9150_871935)">
<path fill-rule="evenodd" clip-rule="evenodd" d="M78.5469 90.812C75.2332 90.812 72.5469 93.4983 72.5469 96.812V128.73C72.5469 132.043 75.2332 134.73 78.5469 134.73L114.002 134.73L122.394 143.122C124.284 145.011 127.516 143.673 127.516 141V134.73H138.407C141.72 134.73 144.407 132.043 144.407 128.73V96.812C144.407 93.4983 141.72 90.812 138.407 90.812H78.5469Z" fill="white"/>
</g>
<rect opacity="0.8" x="75.9961" y="98.4131" width="47.296" height="3.37829" rx="1.68914" fill="#E5F9FF"/>
<rect opacity="0.8" x="75.9961" y="106.014" width="56.5863" height="3.37829" rx="1.68914" fill="#E5F9FF"/>
<rect opacity="0.8" x="75.9961" y="113.615" width="48.9851" height="3.37829" rx="1.68914" fill="#E5F9FF"/>
<rect x="82.752" y="121.217" width="24.4926" height="3.37829" rx="1.68914" fill="#E5F9FF"/>
</g>
<g filter="url(#filter1_d_9150_871935)">
<path fill-rule="evenodd" clip-rule="evenodd" d="M51 56C47.6863 56 45 58.6863 45 62V110C45 113.314 47.6863 116 51 116H61V123C61 125.638 64.159 126.991 66.069 125.172L75.7 116L129 116C132.314 116 135 113.314 135 110V62C135 58.6863 132.314 56 129 56H51Z" fill="white"/>
</g>
<rect x="54" y="65" width="67" height="4" rx="2" fill="#C3F0FF"/>
<rect x="54" y="74" width="67" height="4" rx="2" fill="#C3F0FF"/>
<rect x="54" y="83" width="31" height="4" rx="2" fill="#C3F0FF"/>
<rect x="53" y="96" width="22" height="12" rx="6" fill="#7FDEFC"/>
<path fill-rule="evenodd" clip-rule="evenodd" d="M63.9429 100.649L61.9908 100.649C61.9346 100.649 61.8803 100.62 61.8592 100.573C61.7713 100.373 61.7747 100.148 61.8711 99.9493C62.0328 99.5214 62.0512 99.0592 61.9242 98.6216C61.7916 98.3206 61.7564 97.7707 61.1443 97.7454C60.9527 97.7711 60.7857 97.8757 60.6893 98.0283C60.6721 98.0554 60.6648 98.0874 60.6648 98.1183C60.6648 98.1183 60.693 98.6522 60.6648 99.0234C60.6367 99.3945 59.8555 100.34 59.3588 100.94C59.3275 100.978 59.2835 101.003 59.2315 101.011C59.0453 101.036 58.6902 101.079 58.5621 101.094C58.5322 101.098 58.5146 101.132 58.5146 101.148C58.5146 101.899 58.5146 103.021 58.5146 104.516C58.5146 104.528 58.5311 104.555 58.5603 104.559C58.6606 104.574 58.9114 104.616 59.1646 104.69C59.4827 104.783 59.7476 105.003 60.2779 105.165C60.3058 105.174 60.3368 105.178 60.3663 105.178H62.8563C63.1779 105.126 63.4172 104.876 63.4337 104.576C63.4382 104.409 63.4015 104.244 63.3262 104.092C63.3155 104.07 63.3297 104.047 63.3557 104.043C63.6749 103.99 64.074 103.439 63.5824 102.995C63.5694 102.984 63.5717 102.968 63.5893 102.964C63.8603 102.901 64.0679 102.704 64.1314 102.459C64.1559 102.365 64.1471 102.268 64.1165 102.176C64.0805 102.066 64.0232 101.963 63.9471 101.871C63.928 101.848 63.9387 101.819 63.9693 101.809C64.2392 101.726 64.425 101.492 64.4231 101.225C64.4541 100.963 64.2228 100.649 63.9429 100.649ZM57.7512 100.791H56.3401C56.2667 100.791 56.2108 100.85 56.2235 100.914L57.0432 105.1C57.0558 105.165 57.1181 105.212 57.1911 105.212H57.713C57.7937 105.212 57.8591 105.154 57.8591 105.082L57.8705 100.897C57.8705 100.838 57.8174 100.791 57.7512 100.791Z" fill="white"/>
<rect x="82" y="96" width="22" height="12" rx="6" fill="#7FDEFC"/>
<path fill-rule="evenodd" clip-rule="evenodd" d="M86.9924 99.4672C86.4057 99.7797 85.9484 100.368 85.9379 101.009C85.9356 101.154 85.9441 101.298 85.9531 101.443C85.9634 101.613 85.9998 101.718 86.0821 101.965C86.1643 102.212 86.4004 102.608 86.6197 102.893C86.7796 103.099 86.9604 103.287 87.1507 103.468C87.4412 103.743 89.61 105.388 89.61 105.388C89.61 105.388 91.851 103.652 92.1028 103.409C92.3038 103.213 92.4935 103.008 92.6552 102.78C92.8947 102.44 93.1566 102.064 93.2158 101.656C93.2369 101.51 93.2483 101.363 93.2537 101.216C93.2619 101.001 93.2524 100.786 93.1955 100.577C93.0702 100.118 92.6875 99.7591 92.275 99.51C92.045 99.371 91.7941 99.2914 91.526 99.2624C91.3575 99.2441 91.1891 99.2456 91.0215 99.2718C90.6974 99.3226 90.4077 99.4515 90.1495 99.6505C89.9314 99.8173 89.7542 100.02 89.6096 100.252C89.6053 100.258 89.6014 100.264 89.5971 100.27C89.5727 100.236 89.5527 100.204 89.5313 100.173C89.3219 99.866 89.0578 99.6184 88.7221 99.4485C88.5195 99.346 88.3045 99.2828 88.078 99.2596C88.0136 99.253 87.9493 99.25 87.8851 99.25C87.8001 99.25 87.7153 99.2554 87.6306 99.2664C87.4052 99.2952 87.1919 99.3609 86.9924 99.4672Z" fill="white"/>
<defs>
<filter id="filter0_d_9150_871935" x="66.5469" y="86.812" width="83.8594" height="65.1943" filterUnits="userSpaceOnUse" color-interpolation-filters="sRGB">
<feFlood flood-opacity="0" result="BackgroundImageFix"/>
<feColorMatrix in="SourceAlpha" type="matrix" values="0 0 0 0 0 0 0 0 0 0 0 0 0 0 0 0 0 0 127 0" result="hardAlpha"/>
<feOffset dy="2"/>
<feGaussianBlur stdDeviation="3"/>
<feComposite in2="hardAlpha" operator="out"/>
<feColorMatrix type="matrix" values="0 0 0 0 0.050625 0 0 0 0 0.524397 0 0 0 0 0.675 0 0 0 0.2 0"/>
<feBlend mode="normal" in2="BackgroundImageFix" result="effect1_dropShadow_9150_871935"/>
<feBlend mode="normal" in="SourceGraphic" in2="effect1_dropShadow_9150_871935" result="shape"/>
</filter>
<filter id="filter1_d_9150_871935" x="39" y="52" width="102" height="82.0059" filterUnits="userSpaceOnUse" color-interpolation-filters="sRGB">
<feFlood flood-opacity="0" result="BackgroundImageFix"/>
<feColorMatrix in="SourceAlpha" type="matrix" values="0 0 0 0 0 0 0 0 0 0 0 0 0 0 0 0 0 0 127 0" result="hardAlpha"/>
<feOffset dy="2"/>
<feGaussianBlur stdDeviation="3"/>
<feComposite in2="hardAlpha" operator="out"/>
<feColorMatrix type="matrix" values="0 0 0 0 0.0465104 0 0 0 0 0.45701 0 0 0 0 0.5875 0 0 0 0.13 0"/>
<feBlend mode="normal" in2="BackgroundImageFix" result="effect1_dropShadow_9150_871935"/>
<feBlend mode="normal" in="SourceGraphic" in2="effect1_dropShadow_9150_871935" result="shape"/>
</filter>
</defs>
</svg>
