<svg xmlns="http://www.w3.org/2000/svg" xmlns:xlink="http://www.w3.org/1999/xlink" width="25" height="25" viewBox="0 0 24 24">
  <defs>
    <path id="angle-right-a" d="M6.45591671,5.04196137 C6.85383224,5.42495181 6.86593141,6.05800118 6.48294097,6.45591671 C6.09995053,6.85383224 5.46690117,6.86593141 5.06898564,6.48294097 L0.597305951,2.1789859 C0.199390421,1.79599546 0.187291244,1.16294609 0.570281683,0.76503056 C0.953272122,0.367115031 1.58632149,0.355015854 1.98423702,0.738006292 L6.45591671,5.04196137 Z"/>
    <path id="angle-right-c" d="M4.58578644,6 L0.292893219,1.70710678 C-0.0976310729,1.31658249 -0.0976310729,0.683417511 0.292893219,0.292893219 C0.683417511,-0.0976310729 1.31658249,-0.0976310729 1.70710678,0.292893219 L6.70710678,5.29289322 C7.09763107,5.68341751 7.09763107,6.31658249 6.70710678,6.70710678 L1.70710678,11.7071068 C1.31658249,12.0976311 0.683417511,12.0976311 0.292893219,11.7071068 C-0.0976310729,11.3165825 -0.0976310729,10.6834175 0.292893219,10.2928932 L4.58578644,6 Z"/>
  </defs>
  <g transform="translate(8 6)">
    <g transform="translate(1)">
      <mask id="angle-right-d" fill="#fff">
        <use xlink:href="#angle-right-c"/>
      </mask>
      <use fill="#000" fill-rule="nonzero" xlink:href="#angle-right-c"/>
      <g fill="#525C69" mask="url(#angle-right-d)">
        <rect width="25" height="25" transform="translate(-9 -6)"/>
      </g>
    </g>
  </g>
</svg>
