<svg width="42" height="42" viewBox="0 0 42 42" fill="none" xmlns="http://www.w3.org/2000/svg">
<path fill-rule="evenodd" clip-rule="evenodd" d="M11.0544 15.5428C11.0581 15.5417 11.0618 15.5408 11.0656 15.54L33.7329 10.7467C34.3858 10.6087 35.0001 11.1067 35.0001 11.774V28.2048C35.0001 28.8938 34.3479 29.396 33.6818 29.22L24.9866 26.9216V29.7045C24.9866 30.671 24.2031 31.4545 23.2366 31.4545H15.0569C14.0904 31.4545 13.3069 30.671 13.3069 29.7045V23.8343L11.0571 23.2397L11.0477 23.2369C11 23.2724 10.9457 23.3002 10.8864 23.3181L7.7338 24.2728C7.39667 24.3749 7.05664 24.1226 7.05664 23.7703V15.0042C7.05664 14.652 7.39667 14.3997 7.7338 14.5018L10.8864 15.4564C10.9485 15.4752 11.0051 15.5048 11.0544 15.5428ZM22.6854 26.3133L15.6081 24.4426V28.8734C15.6081 29.1633 15.8432 29.3984 16.1331 29.3984H22.1604C22.4504 29.3984 22.6854 29.1633 22.6854 28.8734V26.3133Z" fill="#2FC6F6"/>
</svg>
