<svg width="24" height="24" viewBox="0 0 24 24" fill="none" xmlns="http://www.w3.org/2000/svg">
<path fill-rule="evenodd" clip-rule="evenodd" d="M18.4061 7.53497C18.6844 7.25673 18.6844 6.80462 18.4061 6.52637C18.1279 6.24813 17.6758 6.24813 17.3975 6.52637L16.578 7.3459C15.5203 6.47998 14.2122 5.91195 12.7799 5.76835L12.779 5.39851H13.7207C14.1149 5.39851 14.4341 5.07927 14.4341 4.6851C14.4341 4.29092 14.1149 3.97168 13.7207 3.97168H10.4104C10.0163 3.97168 9.69702 4.29092 9.69702 4.6851C9.69702 5.07927 10.0163 5.39851 10.4104 5.39851H11.3521V5.76835C7.75196 6.12684 4.9314 9.17312 4.9314 12.866C4.9314 16.7995 8.13207 20.0002 12.0656 20.0002C15.9991 20.0002 19.1997 16.7995 19.1997 12.866C19.1997 11.1556 18.5933 9.58427 17.5865 8.35446L18.4061 7.53497ZM15.1413 13.8077H12.0656C11.6714 13.8077 11.3522 13.4885 11.3522 13.0943V9.20969C11.3522 8.81552 11.6714 8.49627 12.0656 8.49627C12.4598 8.49627 12.779 8.81552 12.779 9.20969V12.3809H15.1413C15.5355 12.3809 15.8548 12.7002 15.8548 13.0943C15.8548 13.4885 15.5355 13.8077 15.1413 13.8077Z" fill="#525C69"/>
</svg>
