<svg width="375" height="271" viewBox="0 0 375 271" fill="none" xmlns="http://www.w3.org/2000/svg">
    <rect width="375" height="271" fill="#F7F7F7"/>
    <path opacity="0.1" fill-rule="evenodd" clip-rule="evenodd" d="M235.187 105.385H211.344C209.641 98.6922 207.937 92 201.125 92H173.875C167.063 92 165.359 98.6922 163.656 105.385H139.812C136.066 105.385 133 108.396 133 112.077V172.308C133 175.988 136.066 179 139.812 179H235.187C238.934 179 242 175.988 242 172.308V112.077C242 108.396 238.934 105.385 235.187 105.385ZM169.142 142.408C169.142 152.46 177.437 160.609 187.669 160.609C197.902 160.609 206.197 152.46 206.197 142.408C206.197 132.356 197.902 124.207 187.67 124.207C177.437 124.207 169.142 132.356 169.142 142.408ZM187.67 167.259C173.698 167.259 162.372 156.133 162.372 142.408C162.372 128.683 173.698 117.556 187.67 117.556C201.641 117.556 212.967 128.683 212.967 142.408C212.967 156.133 201.641 167.259 187.67 167.259ZM232.782 120.007H223.427V113.783H232.782V120.007Z" fill="#525C69"/>
</svg>
