<?xml version="1.0" encoding="UTF-8"?>
<svg xmlns="http://www.w3.org/2000/svg" xmlns:xlink="http://www.w3.org/1999/xlink" width="80px" height="80px" viewBox="0 0 80 80" version="1.1">
<g id="surface1">
<path style=" stroke:none;fill-rule:nonzero;fill:rgb(100%,100%,100%);fill-opacity:1;" d="M 56.625 58.832031 C 57.742188 58.402344 58.363281 57.15625 58.132812 55.914062 L 57.339844 51.632812 C 57.339844 49.847656 55.097656 47.804688 50.679688 46.617188 C 49.183594 46.179688 47.761719 45.507812 46.464844 44.617188 C 46.179688 44.449219 46.222656 42.886719 46.222656 42.886719 L 44.800781 42.664062 C 44.800781 42.535156 44.679688 40.664062 44.679688 40.664062 C 46.382812 40.070312 46.207031 36.554688 46.207031 36.554688 C 47.289062 37.179688 47.992188 34.398438 47.992188 34.398438 C 49.269531 30.535156 47.355469 30.769531 47.355469 30.769531 C 47.691406 28.410156 47.691406 26.015625 47.355469 23.65625 C 46.503906 15.832031 33.683594 17.957031 35.203125 20.511719 C 31.457031 19.792969 32.3125 28.671875 32.3125 28.671875 L 33.125 30.96875 C 31.996094 31.730469 32.21875 32.605469 32.464844 33.578125 C 32.570312 33.984375 32.675781 34.410156 32.691406 34.851562 C 32.773438 37.066406 34.074219 36.609375 34.074219 36.609375 C 34.152344 40.265625 35.886719 40.742188 35.886719 40.742188 C 36.210938 43.035156 36.007812 42.644531 36.007812 42.644531 L 34.46875 42.839844 C 34.488281 43.363281 34.445312 43.886719 34.34375 44.398438 C 33.449219 44.8125 32.902344 45.144531 32.359375 45.472656 C 31.804688 45.804688 31.253906 46.136719 30.34375 46.554688 C 26.863281 48.140625 23.085938 50.207031 22.414062 52.984375 C 22.214844 53.796875 22.023438 54.890625 21.847656 56.03125 C 21.667969 57.222656 22.292969 58.390625 23.363281 58.808594 C 28.035156 60.617188 33.308594 61.691406 38.902344 61.820312 L 41.152344 61.820312 C 46.71875 61.691406 51.96875 60.628906 56.625 58.832031 Z M 56.625 58.832031 "/>
</g>
</svg>
