<svg xmlns="http://www.w3.org/2000/svg" fill="none" width="45" height="45" viewBox="0 0 45 45">
<path style=" stroke:none;fill-rule:nonzero;fill:rgb(100%,100%,100%);fill-opacity:1;" d="M 31.851562 33.09375 C 32.480469 32.851562 32.828125 32.148438 32.699219 31.453125 L 32.253906 29.042969 C 32.253906 28.039062 30.992188 26.890625 28.507812 26.222656 C 27.667969 25.976562 26.867188 25.597656 26.136719 25.097656 C 25.976562 25.003906 26 24.125 26 24.125 L 25.199219 23.996094 C 25.199219 23.925781 25.132812 22.875 25.132812 22.875 C 26.089844 22.539062 25.992188 20.5625 25.992188 20.5625 C 26.597656 20.914062 26.996094 19.347656 26.996094 19.347656 C 27.714844 17.175781 26.636719 17.308594 26.636719 17.308594 C 26.824219 15.980469 26.824219 14.632812 26.636719 13.304688 C 26.15625 8.90625 18.945312 10.101562 19.800781 11.539062 C 17.695312 11.132812 18.175781 16.128906 18.175781 16.128906 L 18.632812 17.421875 C 18 17.847656 18.125 18.339844 18.261719 18.886719 C 18.320312 19.117188 18.378906 19.355469 18.390625 19.605469 C 18.433594 20.851562 19.167969 20.59375 19.167969 20.59375 C 19.210938 22.648438 20.183594 22.917969 20.183594 22.917969 C 20.367188 24.207031 20.253906 23.988281 20.253906 23.988281 L 19.386719 24.097656 C 19.398438 24.390625 19.375 24.6875 19.320312 24.972656 C 18.816406 25.207031 18.507812 25.394531 18.203125 25.578125 C 17.890625 25.765625 17.582031 25.953125 17.066406 26.1875 C 15.113281 27.078125 12.984375 28.242188 12.605469 29.804688 C 12.496094 30.261719 12.386719 30.875 12.289062 31.515625 C 12.1875 32.1875 12.539062 32.84375 13.140625 33.078125 C 15.769531 34.097656 18.734375 34.703125 21.882812 34.773438 L 23.148438 34.773438 C 26.28125 34.703125 29.234375 34.101562 31.851562 33.09375 Z M 31.851562 33.09375 " fill="white"/>
</svg>
