<svg width="101" height="101" viewBox="0 0 101 101" fill="none" xmlns="http://www.w3.org/2000/svg">
<path opacity="0.1" fill-rule="evenodd" clip-rule="evenodd" d="M65.0906 77.2139C58.4721 81.5598 50.5532 84.0877 42.0439 84.0877C18.8237 84.0877 0 65.264 0 42.0439C0 18.8237 18.8237 0 42.0439 0C65.264 0 84.0877 18.8237 84.0877 42.0439C84.0877 50.5532 81.5598 58.4722 77.2139 65.0906L99.0665 86.9433C101.644 89.5212 101.644 93.7009 99.0665 96.2788L96.2788 99.0665C93.7009 101.644 89.5212 101.644 86.9433 99.0665L65.0906 77.2139ZM72.0752 42.0439C72.0752 58.6297 58.6297 72.0752 42.0439 72.0752C25.458 72.0752 12.0125 58.6297 12.0125 42.0439C12.0125 25.458 25.458 12.0125 42.0439 12.0125C58.6297 12.0125 72.0752 25.458 72.0752 42.0439Z" fill="#525C69"/>
</svg>
