<svg width="19" height="19" fill="none" xmlns="http://www.w3.org/2000/svg"><path d="M12.43 11.985a.96.96 0 00-.959-.96H6.504a.96.96 0 000 1.92h4.967c.53 0 .96-.43.96-.96zM12.43 9.009a.96.96 0 00-.959-.96H6.504a.96.96 0 000 1.92h4.967c.53 0 .96-.43.96-.96zM12.43 6.033a.96.96 0 00-.959-.96H6.504a.96.96 0 000 1.92h4.967c.53 0 .96-.43.96-.96z" fill="#ACB2B8"/><path fill-rule="evenodd" clip-rule="evenodd" d="M8.988 17.52c1.799 0 3.468-.558 4.843-1.51l2.205 2.204a1.525 1.525 0 102.157-2.157l-2.205-2.205a8.512 8.512 0 10-7 3.668zm0-2.403a6.108 6.108 0 100-12.216 6.108 6.108 0 000 12.216z" fill="#ACB2B8"/></svg>