<svg width="23" height="23" viewBox="0 0 23 23" fill="none" xmlns="http://www.w3.org/2000/svg">
<path d="M14.4317 13.9851C14.4317 13.455 14.0019 13.0253 13.4719 13.0253H8.5047C7.97463 13.0253 7.54492 13.455 7.54492 13.9851C7.54492 14.5151 7.97463 14.9449 8.5047 14.9449H13.4719C14.0019 14.9449 14.4317 14.5151 14.4317 13.9851Z" fill="#ABB1B8"/>
<path d="M14.4317 11.009C14.4317 10.4789 14.0019 10.0492 13.4719 10.0492H8.5047C7.97463 10.0492 7.54492 10.4789 7.54492 11.009C7.54492 11.539 7.97463 11.9687 8.5047 11.9687H13.4719C14.0019 11.9687 14.4317 11.539 14.4317 11.009Z" fill="#ABB1B8"/>
<path d="M14.4317 8.03284C14.4317 7.50277 14.0019 7.07306 13.4719 7.07306H8.5047C7.97463 7.07306 7.54492 7.50277 7.54492 8.03284C7.54492 8.56291 7.97463 8.99262 8.5047 8.99262H13.4719C14.0019 8.99262 14.4317 8.56291 14.4317 8.03284Z" fill="#ABB1B8"/>
<path fill-rule="evenodd" clip-rule="evenodd" d="M10.9883 19.5206C12.7878 19.5206 14.4568 18.9622 15.8316 18.0093L18.0366 20.2142C18.6322 20.8099 19.598 20.8099 20.1936 20.2142C20.7893 19.6186 20.7893 18.6529 20.1936 18.0572L17.9886 15.8522C18.9416 14.4774 19.5 12.8084 19.5 11.0089C19.5 6.30802 15.6892 2.49719 10.9883 2.49719C6.28739 2.49719 2.47656 6.30802 2.47656 11.0089C2.47656 15.7098 6.28739 19.5206 10.9883 19.5206ZM10.9883 17.1166C14.3615 17.1166 17.0959 14.3821 17.0959 11.0089C17.0959 7.63575 14.3615 4.90126 10.9883 4.90126C7.61512 4.90126 4.88063 7.63575 4.88063 11.0089C4.88063 14.3821 7.61512 17.1166 10.9883 17.1166Z" fill="#ABB1B8"/>
</svg>
