<svg width="8" height="7" viewBox="0 0 8 7" fill="none" xmlns="http://www.w3.org/2000/svg">
<path d="M6.10591 0.276316L4.07959 2.30263L2.05327 0.276316C1.68485 -0.0921053 1.22433 -0.0921053 0.855906 0.276316C0.487485 0.644737 0.487485 1.10526 0.855906 1.47368L2.88222 3.5L0.855906 5.52632C0.487485 5.89474 0.487485 6.35526 0.855906 6.72368C1.22433 7.09211 1.68485 7.09211 2.05327 6.72368L4.07959 4.69737L6.10591 6.72368C6.47433 7.09211 6.93485 7.09211 7.30327 6.72368C7.6717 6.35526 7.6717 5.89474 7.30327 5.52632L5.27696 3.5L7.30327 1.47368C7.6717 1.10526 7.6717 0.644737 7.30327 0.276316C6.93485 0 6.38222 0 6.10591 0.276316Z" fill="black"/>
</svg>
