<svg width="91" height="16" viewBox="0 0 91 16" fill="none" xmlns="http://www.w3.org/2000/svg">
<path fill-rule="evenodd" clip-rule="evenodd" d="M86.2997 11.4627V8.55025H84.9787V8.65842C84.9554 9.84039 84.7623 10.6902 84.5229 11.4627H86.2997ZM88.6482 11.4627H89.5211L89.4671 14.6995H87.304V13.3476H83.7658L83.7272 14.6995H81.5487V11.4627H82.3058C82.6844 10.3735 82.8696 9.3151 82.8696 7.0129V6.68852H88.6482V11.4627ZM44.7923 6.27905C43.2086 6.27905 42.4592 5.60694 42.2737 4.44041L44.0583 4.18555C44.1434 4.62588 44.3596 4.90396 44.7923 4.90396C45.225 4.90396 45.4412 4.62588 45.5261 4.18555L47.3107 4.44041C47.1254 5.60694 46.3682 6.27905 44.7923 6.27905ZM36.7658 11.509C37.6156 11.509 38.1563 10.8439 38.1563 10.0258C38.1563 9.22306 37.5615 8.54249 36.7426 8.54249C35.8929 8.54249 35.3522 9.20776 35.3522 10.0258C35.3522 10.8286 35.9392 11.509 36.7658 11.509ZM36.7658 6.54172C38.8901 6.54172 40.4275 8.10994 40.4275 10.0258C40.4275 11.9185 38.8824 13.5098 36.7426 13.5098C34.6104 13.5098 33.073 11.9417 33.073 10.0258C33.073 8.13316 34.626 6.54172 36.7658 6.54172ZM77.0448 11.54C77.7943 11.54 78.3967 10.9141 78.3967 10.0104C78.3967 9.12972 77.7943 8.49626 77.0448 8.49626C76.2801 8.49626 75.6775 9.11415 75.6775 10.0335C75.6775 10.9141 76.2801 11.54 77.0448 11.54ZM78.3506 6.68848H80.6835V13.3476H78.3506V12.4593C77.8946 13.0154 77.3307 13.4944 76.3342 13.4944C74.7428 13.4944 73.3755 12.1811 73.3755 10.0258C73.3755 7.8628 74.7428 6.54166 76.3188 6.54166C77.3307 6.54166 77.9179 6.99756 78.3506 7.49963V6.68848ZM43.6721 10.0413L45.897 6.68848H48.0524V13.3476H45.7887V11.1768C45.7887 10.7597 45.7887 10.3734 45.7965 9.99482L43.5717 13.3476H41.4163V6.68848H43.6799V8.82842C43.6799 9.16058 43.6799 9.63957 43.6721 10.0413ZM66.6777 7.97086L66.6931 6.68851H72.4253V13.3476H70.0846V8.55024H68.7403V8.75893C68.6708 12.7837 67.7747 13.4326 66.361 13.4326C66.137 13.4326 65.6965 13.3939 65.403 13.3476H62.6297L60.7912 10.5047V13.3476H58.4582V6.68851H60.7912V9.25321L62.5757 6.68851H65.2716L62.8924 9.71677L65.3335 13.2703L65.4417 11.2231C65.6965 11.2541 65.7584 11.2541 65.8201 11.2541C66.2374 11.2541 66.6699 10.9528 66.6777 7.97086ZM54.1398 11.2618C54.9587 11.2618 55.5227 10.9065 55.9937 10.2267L57.7938 11.5399C56.9363 12.6987 55.8547 13.5098 53.9697 13.5098C51.4668 13.5098 49.5511 11.6481 49.5511 9.02151C49.5511 6.57262 51.4515 4.55642 54.0857 4.55642C55.7156 4.55642 56.9053 5.26705 57.7474 6.47223L55.9783 7.76224C55.5071 7.10569 54.9431 6.79661 54.1937 6.79661C52.9347 6.79661 52.0617 7.78545 52.0617 9.02151C52.0617 10.3812 52.9732 11.2618 54.1398 11.2618ZM29.4113 4.70316H30.9487L32.6019 13.3476H30.2612L29.5041 9.1296L27.3951 13.6335H27.1247L25.008 9.16838L24.2511 13.3476H21.9258L23.579 4.70316H25.1084C25.1084 4.70316 26.4372 7.56138 26.7 8.10989C26.9626 8.65839 27.2638 9.36137 27.2638 9.36137C27.2638 9.36137 27.65 8.45762 27.8431 8.07137C28.0364 7.68512 29.4113 4.70316 29.4113 4.70316Z" fill="#2855AF"/>
<path fill-rule="evenodd" clip-rule="evenodd" d="M3.94336 14.0517C6.05096 14.0517 7.6444 11.3076 9.07291 8.31186C9.76046 6.85947 10.4016 5.33769 11.0427 4.04755C11.7467 2.61649 12.4689 1.60645 13.3525 1.60645C14.1015 1.60645 14.8064 2.21132 15.5079 3.15909C16.9623 5.12685 18.2194 8.45922 18.2194 10.6448C18.2194 12.4757 17.277 14.0517 15.3456 14.0517H3.94336Z" fill="#64CDFF"/>
<path fill-rule="evenodd" clip-rule="evenodd" d="M9.07221 8.31199C7.62451 5.39337 6.96904 3.25195 5.68857 3.25195C4.89285 3.25195 3.99675 4.08632 3.1856 5.45363C2.3166 6.90455 1.63281 8.95189 1.63281 11.1549C1.63281 12.8945 2.48423 14.0518 3.94266 14.0518C6.04972 14.0518 7.64371 11.3078 9.07221 8.31199Z" fill="#2855AF"/>
</svg>
