<svg xmlns="http://www.w3.org/2000/svg" width="16" height="16" fill="none"><path fill="#828B95" d="M7.848 6.671h1.096a.4.4 0 0 1 .4.4v1.097a.4.4 0 0 1-.4.4H7.848a.4.4 0 0 1-.4-.4V7.07a.4.4 0 0 1 .4-.4ZM6.101 6.672H5.005a.4.4 0 0 0-.4.4v1.096c0 .22.179.4.4.4H6.1a.4.4 0 0 0 .4-.4V7.072a.4.4 0 0 0-.4-.4ZM6.1 9.516H5.004a.4.4 0 0 0-.4.4v1.096c0 .22.179.4.4.4H6.1a.4.4 0 0 0 .4-.4V9.916a.4.4 0 0 0-.4-.4ZM8.944 9.516H7.848a.4.4 0 0 0-.4.4v1.096c0 .22.18.4.4.4h1.096a.4.4 0 0 0 .4-.4V9.916a.4.4 0 0 0-.4-.4ZM10.692 6.671h1.097a.4.4 0 0 1 .4.4v1.097a.4.4 0 0 1-.4.4h-1.097a.4.4 0 0 1-.4-.4V7.07a.4.4 0 0 1 .4-.4Z"/><path fill="#828B95" fill-rule="evenodd" d="M12.886 2.128v-.522h1.154c1.055.066 1.871.987 1.852 2.09v10.451c0 .577-.448 1.046-1.002 1.046H1.806c-.553 0-1.002-.469-1.002-1.046V3.696a2.18 2.18 0 0 1-.006-.161c.002-1.068.834-1.932 1.858-1.93h1.155v.523c0 .865.672 1.568 1.503 1.568.831 0 1.504-.703 1.504-1.568v-.522h3.06v.522c0 .865.674 1.568 1.504 1.568s1.504-.703 1.504-1.568Zm1.002 10.974H2.808V4.8h11.08v8.302Z" clip-rule="evenodd"/><path fill="#828B95" d="M6.05.771v1.15c0 .424-.329.768-.736.768s-.736-.344-.736-.768V.771l.005-.1a.75.75 0 0 1 .736-.673c.407.003.734.35.732.773ZM12.078.8v1.09c0 .4-.312.725-.697.725-.385-.001-.694-.326-.694-.726V.799c0-.4.311-.725.695-.725.384 0 .696.324.696.726Z"/></svg>