<svg xmlns="http://www.w3.org/2000/svg" width="16" height="15" fill="none"><path fill="#828B95" fill-rule="evenodd" d="m8.915 9.954 1.127-1.73v1.734H8.915v-.004Zm1.127 1.87h.909v-1.018h.61v-.848h-.61v-3.21h-.789L8.036 9.963v.848h2.006v1.017-.004ZM5.337 9.642c-.4.357-.756.763-1.058 1.213a2.391 2.391 0 0 0-.32.967h3.294v-.9H5.387c.055-.095.119-.186.192-.269.079-.092.267-.278.564-.56.22-.198.425-.415.614-.645.155-.196.282-.414.377-.646a1.83 1.83 0 0 0 .12-.65 1.344 1.344 0 0 0-.417-1.005 1.56 1.56 0 0 0-1.14-.403 1.725 1.725 0 0 0-1.099.347 1.606 1.606 0 0 0-.525 1.15l.931.097a.955.955 0 0 1 .2-.608.699.699 0 0 1 .934-.008.69.69 0 0 1 .17.498 1.1 1.1 0 0 1-.2.593c-.234.3-.492.578-.771.834v-.005Zm-3.332 3.293H14V5.714H2.006v7.222Zm12.147-11.35h-1.151v.517c0 .854-.672 1.547-1.5 1.547-.827 0-1.499-.693-1.499-1.547v-.516H6.004v.516c0 .854-.671 1.547-1.5 1.547-.828 0-1.5-.693-1.5-1.547v-.516h-1.15C.831 1.585.001 2.437 0 3.492c0 .052.002.105.006.158v10.318c0 .57.448 1.032 1 1.032H15c.553 0 1-.462 1-1.032V3.65c.019-1.088-.796-1.997-1.848-2.063Zm-9.648 1.07c.406 0 .735-.339.735-.758V.764A.748.748 0 0 0 4.509 0a.747.747 0 0 0-.74.753v1.145c0 .42.33.759.735.759Zm6.998-.072c.382 0 .693-.321.693-.716V.79a.705.705 0 0 0-.694-.716.705.705 0 0 0-.693.716v1.075c0 .396.309.717.693.718Z" clip-rule="evenodd" opacity=".5"/><mask id="a" width="16" height="15" x="0" y="0" maskUnits="userSpaceOnUse" style="mask-type:luminance"><path fill="#fff" fill-rule="evenodd" d="m8.915 9.954 1.127-1.73v1.734H8.915v-.004Zm1.127 1.87h.909v-1.018h.61v-.848h-.61v-3.21h-.789L8.036 9.963v.848h2.006v1.017-.004ZM5.337 9.642c-.4.357-.756.763-1.058 1.213a2.391 2.391 0 0 0-.32.967h3.294v-.9H5.387c.055-.095.119-.186.192-.269.079-.092.267-.278.564-.56.22-.198.425-.415.614-.645.155-.196.282-.414.377-.646a1.83 1.83 0 0 0 .12-.65 1.344 1.344 0 0 0-.417-1.005 1.56 1.56 0 0 0-1.14-.403 1.725 1.725 0 0 0-1.099.347 1.606 1.606 0 0 0-.525 1.15l.931.097a.955.955 0 0 1 .2-.608.699.699 0 0 1 .934-.008.69.69 0 0 1 .17.498 1.1 1.1 0 0 1-.2.593c-.234.3-.492.578-.771.834v-.005Zm-3.332 3.293H14V5.714H2.006v7.222Zm12.147-11.35h-1.151v.517c0 .854-.672 1.547-1.5 1.547-.827 0-1.499-.693-1.499-1.547v-.516H6.004v.516c0 .854-.671 1.547-1.5 1.547-.828 0-1.5-.693-1.5-1.547v-.516h-1.15C.831 1.585.001 2.437 0 3.492c0 .052.002.105.006.158v10.318c0 .57.448 1.032 1 1.032H15c.553 0 1-.462 1-1.032V3.65c.019-1.088-.796-1.997-1.848-2.063Zm-9.648 1.07c.406 0 .735-.339.735-.758V.764A.748.748 0 0 0 4.509 0a.747.747 0 0 0-.74.753v1.145c0 .42.33.759.735.759Zm6.998-.072c.382 0 .693-.321.693-.716V.79a.705.705 0 0 0-.694-.716.705.705 0 0 0-.693.716v1.075c0 .396.309.717.693.718Z" clip-rule="evenodd"/></mask></svg>