<svg xmlns="http://www.w3.org/2000/svg" width="16" height="16" viewBox="0 0 16 16">
  <path fill="#535C68" fill-rule="evenodd" d="M201.005208,1024.93991 L213.000465,1024.93991 L213.000465,1016.79553 L201.005208,1016.79553 L201.005208,1024.93991 Z M212.00086,1012.69268 L212.00086,1013.24296 C212.00086,1014.15422 211.329126,1014.8938 210.501452,1014.8938 C209.67378,1014.8938 209.002046,1014.15422 209.002046,1013.24296 L209.002046,1012.69268 L205.003627,1012.69268 L205.003627,1013.24296 C205.003627,1014.15422 204.332891,1014.8938 203.504219,1014.8938 C202.675547,1014.8938 202.004813,1014.15422 202.004813,1013.24296 L202.004813,1012.69268 L200.853267,1012.69268 C199.831672,1012.69048 199.002,1013.59954 199,1014.72432 C199,1014.78045 199.002,1014.83657 199.005998,1014.8938 L199.005998,1025.89944 C199.005998,1026.50695 199.453821,1027 200.005603,1027 L214.00007,1027 C214.552851,1027 214.999675,1026.50695 214.999675,1025.89944 L214.999675,1014.8938 C215.018667,1013.73271 214.203988,1012.76311 213.152404,1012.69268 L212.00086,1012.69268 Z M203.504219,1013.83396 C203.910059,1013.83396 204.238929,1013.47188 204.238929,1013.02505 L204.238929,1011.81443 C204.240928,1011.3676 203.915057,1011.00331 203.509217,1011.00001 C203.103377,1010.99781 202.771509,1011.35769 202.76951,1011.80342 L202.76951,1011.81443 L202.76951,1013.02505 C202.76951,1013.47188 203.098379,1013.83396 203.504219,1013.83396 Z M210.501452,1013.75582 C210.8843,1013.75582 211.195179,1013.41355 211.195179,1012.99203 L211.195179,1012.99093 L211.195179,1011.84414 C211.195179,1011.42153 210.8843,1011.08035 210.501452,1011.08035 C210.118604,1011.08035 209.807728,1011.42153 209.807728,1011.84414 L209.807728,1012.99093 C209.807728,1013.41245 210.116604,1013.75472 210.500452,1013.75582 L210.501452,1013.75582 Z M207.998075,1021.58103 L209.12463,1019.73648 L209.12463,1021.58543 L207.998075,1021.58543 L207.998075,1021.58103 Z M209.12463,1023.57525 L209.12463,1023.57965 L209.12463,1022.4945 L207.118422,1022.4945 L207.118422,1021.58983 L209.244582,1018.16268 L210.03327,1018.16268 L210.03327,1021.58543 L210.64303,1021.58543 L210.64303,1022.49009 L210.03327,1022.49009 L210.03327,1023.57525 L209.12463,1023.57525 Z M204.419489,1021.24976 L204.419489,1021.25526 C204.698379,1020.98232 204.956278,1020.68627 205.190185,1020.36601 C205.312137,1020.18221 205.382108,1019.961 205.390105,1019.73318 C205.401102,1019.53838 205.340126,1019.34578 205.220172,1019.20161 C204.94928,1018.94958 204.553437,1018.95398 204.286542,1019.21041 C204.152595,1019.39421 204.081624,1019.62313 204.086622,1019.85865 L203.15599,1019.75519 C203.167985,1019.28415 203.35791,1018.83953 203.680782,1018.52917 C203.999656,1018.27384 204.386502,1018.14287 204.780347,1018.15828 C205.196182,1018.13186 205.60602,1018.28594 205.919897,1018.5886 C206.191788,1018.86264 206.343729,1019.25334 206.335732,1019.65945 C206.335732,1019.89717 206.295748,1020.13269 206.216779,1020.3539 C206.121817,1020.60153 205.994867,1020.83375 205.839928,1021.04285 C205.651003,1021.28828 205.445084,1021.5194 205.225171,1021.73181 C204.928289,1022.03116 204.740363,1022.23036 204.661395,1022.32831 C204.588424,1022.41636 204.524448,1022.51321 204.46947,1022.61446 L206.335732,1022.61446 L206.335732,1023.57525 L203.042035,1023.57525 C203.078021,1023.20986 203.187977,1022.85768 203.361909,1022.54402 C203.663789,1022.06417 204.018648,1021.63055 204.419489,1021.24976 Z" transform="translate(-199 -1011)"/>
</svg>
