<svg xmlns="http://www.w3.org/2000/svg" width="16" height="21" viewBox="0 0 8 21"><path fill="#525C69" fill-rule="evenodd" d="M2.034 6.253V4.415c0-1.139.931-2.07 2.07-2.07 1.138 0 2.07.931 2.07 2.07v1.838a2.07 2.07 0 01-1.163 1.85v-.567a.91.91 0 00-.907-.908c-.5 0-.908.41-.908.908v.567a2.07 2.07 0 01-1.162-1.85zm4.14 8.894v1.838c0 1.139-.932 2.07-2.07 2.07a2.075 2.075 0 01-2.07-2.07v-1.838c0-.812.478-1.512 1.162-1.85v.901c0 .5.408.908.908.908a.91.91 0 00.907-.908v-.9a2.069 2.069 0 011.163 1.849zM.403 15.03v2.072c0 2.036 1.665 3.701 3.7 3.701 2.036 0 3.701-1.665 3.701-3.7V15.03c0-1.721-1.194-3.164-2.793-3.574V9.944C6.61 9.534 7.804 8.09 7.804 6.37V4.297c0-2.035-1.665-3.7-3.7-3.7a3.712 3.712 0 00-3.701 3.7V6.37c0 1.72 1.195 3.164 2.793 3.574v1.512c-1.598.41-2.793 1.853-2.793 3.574z"/></svg>