<svg version="1.1" xmlns="http://www.w3.org/2000/svg" xmlns:xlink="http://www.w3.org/1999/xlink" width="512px" height="512px" viewBox="0 0 512 512" xml:space="preserve"><path fill="#535C68" d="M256,0C114.609,0,0,114.625,0,256s114.609,256,256,256c141.375,0,256-114.625,256-256S397.375,0,256,0z M256,448 c-105.875,0-192-86.125-192-192S150.125,64,256,64s192,86.125,192,192S361.875,448,256,448z M416,256c0,17.688-14.313,32-32,32H256 c-17.672,0-32-14.313-32-32V128c0-17.688,14.328-32,32-32s32,14.313,32,32v96h96C401.688,224,416,238.313,416,256z"/></svg>
