
<svg width="8px" height="8px" viewBox="0 0 8 8" version="1.1" xmlns="http://www.w3.org/2000/svg" xmlns:xlink="http://www.w3.org/1999/xlink">
<path fill="535C68" d="M40.3157895,0.315789474 L38,2.63157895 L35.6842105,0.315789474 C35.2631579,-0.105263158 34.7368421,-0.105263158 34.3157895,0.315789474 C33.8947368,0.736842105 33.8947368,1.26315789 34.3157895,1.68421053 L36.6315789,4 L34.3157895,6.31578947 C33.8947368,6.73684211 33.8947368,7.26315789 34.3157895,7.68421053 C34.7368421,8.10526316 35.2631579,8.10526316 35.6842105,7.68421053 L38,5.36842105 L40.3157895,7.68421053 C40.7368421,8.10526316 41.2631579,8.10526316 41.6842105,7.68421053 C42.1052632,7.26315789 42.1052632,6.73684211 41.6842105,6.31578947 L39.3684211,4 L41.6842105,1.68421053 C42.1052632,1.26315789 42.1052632,0.736842105 41.6842105,0.315789474 C41.2631579,2.99175889e-14 40.6315789,2.99175889e-14 40.3157895,0.315789474 Z"></path>
</svg>