<svg width="17" height="18" viewBox="0 0 17 18" fill="none" xmlns="http://www.w3.org/2000/svg">
<path opacity="0.5" fill-rule="evenodd" clip-rule="evenodd" d="M8.5 17.5C13.1944 17.5 17 13.6944 17 9C17 4.30558 13.1944 0.5 8.5 0.5C3.80558 0.5 0 4.30558 0 9C0 13.6944 3.80558 17.5 8.5 17.5ZM8.42979 7.64485L10.6169 5.45771C10.9152 5.15947 11.5117 5.15947 11.9093 5.45771C12.307 5.85537 12.307 6.35245 11.9093 6.75011L9.72219 8.93724L11.9093 11.1244C12.307 11.522 12.307 12.0191 11.9093 12.4168C11.5117 12.8144 11.0146 12.8144 10.6169 12.4168L8.42979 10.2296L6.24266 12.4168C5.845 12.8144 5.34792 12.8144 4.95026 12.4168C4.5526 12.0191 4.5526 11.522 4.95026 11.1244L7.13739 8.93724L4.95026 6.75011C4.5526 6.35245 4.5526 5.85537 4.95026 5.45771C5.34792 5.06005 5.845 5.06005 6.24266 5.45771L8.42979 7.64485Z" fill="#828B95"/>
</svg>
