<?xml version="1.0" encoding="UTF-8"?>
<svg width="13px" height="16px" viewBox="0 0 13 16" version="1.1" xmlns="http://www.w3.org/2000/svg" xmlns:xlink="http://www.w3.org/1999/xlink">
    <g id="Page-1" stroke="none" stroke-width="1" fill="none" fill-rule="evenodd" opacity="0.5">
        <path d="M12.2677869,10.4033858 L9.22499404,7.36079093 C9.22499404,7.36079093 8.91831917,7.09787019 8.91831917,7.4922513 C8.91831917,7.88643444 8.96227128,9.50038768 8.96227128,9.46395891 L5.63200784,9.46395891 L5.63200784,8.49998217 L2.74007764,8.49998217 L2.74007764,10.6033481 C2.74007764,10.6033481 2.74007764,12.312135 4.44886449,12.312135 L8.96227128,12.312135 L8.96227128,14.1086281 C8.96227128,14.5469613 9.32299537,14.098333 9.32299537,14.098333 L12.2990681,11.1224582 C12.2990681,11.1224582 12.4675512,11.0414834 12.4675512,10.7785626 C12.4675512,10.5154439 12.2677869,10.4033858 12.2677869,10.4033858 L12.2677869,10.4033858 Z M8.36099846,5.7048654 L3.2809658,5.7048654 C2.98953557,5.7048654 2.75096667,5.9434343 2.75096667,6.23486452 L2.75096667,6.29584313 C2.75096667,6.58727335 2.98953557,6.82584225 3.2809658,6.82584225 L8.36099846,6.82584225 C8.65262667,6.82584225 8.89099758,6.58727335 8.89099758,6.29584313 L8.89099758,6.23486452 C8.89099758,5.9434343 8.65262667,5.7048654 8.36099846,5.7048654 L8.36099846,5.7048654 Z M8.89099758,4.20297024 C8.89099758,3.91134204 8.65262667,3.67297112 8.36099846,3.67297112 L3.2809658,3.67297112 C2.98953557,3.67297112 2.75096667,3.91134204 2.75096667,4.20297024 L2.75096667,4.26375087 C2.75096667,4.55537907 2.98953557,4.79374999 3.2809658,4.79374999 L8.36099846,4.79374999 C8.65262667,4.79374999 8.89099758,4.55537907 8.89099758,4.26375087 L8.89099758,4.20297024 Z M1.08969562,14.098531 L1.08969562,1.15562378 C1.08969562,1.1170172 1.12117483,1.08573597 1.15978142,1.08573597 L10.2370805,1.08573597 C10.2756871,1.08573597 10.3071663,1.1170172 10.3071663,1.15562378 L10.3071663,6.7472432 L11.3968619,6.7472432 L11.3968619,0.832714346 C11.3968619,0.37478085 11.0220811,0 10.5641476,0 L0.832714346,0 C0.37478085,0 0,0.37478085 0,0.832714346 L0,14.4214404 C0,14.8793739 0.37478085,15.2541548 0.832714346,15.2541548 L7.64766756,15.2541548 L7.64766756,14.1686168 L1.15978142,14.1686168 C1.12117483,14.1686168 1.08969562,14.1371376 1.08969562,14.098531 L1.08969562,14.098531 Z" id="Icon" fill="#525C69" />
    </g>
</svg>