<?xml version="1.0" encoding="UTF-8"?>
<svg width="19px" height="13px" viewBox="0 0 19 13" version="1.1" xmlns="http://www.w3.org/2000/svg" xmlns:xlink="http://www.w3.org/1999/xlink">
    <g id="Page-1" stroke="none" stroke-width="1" fill="none" fill-rule="evenodd" opacity="0.5">
        <path d="M10.72271,4.58092795 C10.6664988,4.52131002 10.5989318,4.47304789 10.5217124,4.43727713 C10.4461964,4.40264196 10.366138,4.38390489 10.2838085,4.38390489 C10.2003434,4.38390489 10.1225562,4.40207417 10.0453368,4.43727713 C9.96754959,4.47304789 9.90225377,4.52017444 9.844907,4.58092795 C9.78812802,4.64111366 9.74270484,4.7115196 9.70920524,4.7893068 C9.67513786,4.86766179 9.65867195,4.94601678 9.65867195,5.02948187 C9.65867195,5.11294697 9.67570565,5.19414091 9.70920524,5.27306369 C9.74213705,5.35198647 9.78812802,5.42182461 9.84433921,5.48087475 C9.90168598,5.53992489 9.96754959,5.58648365 10.044769,5.62168661 C10.1997756,5.69209255 10.368977,5.69152476 10.5217124,5.62168661 C10.5994996,5.58648365 10.6670666,5.53878931 10.7232778,5.48087475 C10.779489,5.4223924 10.8249122,5.35198647 10.8584118,5.27306369 C10.8913436,5.19414091 10.9083773,5.11237918 10.9083773,5.02948187 C10.9083773,4.94658457 10.8919114,4.86766179 10.8584118,4.7893068 C10.8249122,4.7115196 10.7789212,4.64111366 10.72271,4.58092795 L10.72271,4.58092795 Z M17.4538578,11.8656708 L4.91819508,11.8656708 L4.91819508,10.0839465 L13.9670608,10.0839465 C14.1930411,10.0839465 14.4922664,9.78528907 14.4922664,9.55874095 L14.4922664,3.85699598 L17.4538578,3.85699598 L17.4538578,11.8656708 Z M4.21811028,7.88716784 C3.69006578,7.87013414 3.28125714,7.86672741 2.87358408,7.84117687 C2.39607287,7.81051622 1.91799388,7.76906756 1.45921974,7.62371338 C1.37178011,7.59702726 1.28945059,7.55557861 1.20598549,7.51810448 C1.1333084,7.48517267 1.09810544,7.43236822 1.11002902,7.35003871 C1.14352862,7.12576174 1.15658778,6.89751025 1.20882444,6.67777561 C1.28093374,6.3723047 1.48079575,6.17017154 1.79364792,6.06172369 C2.20359214,5.92091183 2.60785846,5.76476964 3.01212478,5.60976303 C3.25400323,5.51721329 3.40673868,5.30656329 3.40049299,5.08739643 C3.3999252,5.05219346 3.38402709,5.00960923 3.36017992,4.98405869 C3.06549702,4.66950315 2.87982977,4.30611769 2.81737289,3.88538547 C2.76343286,3.52143222 2.76002612,3.15634339 2.8781264,2.80147478 C3.02404837,2.36086991 3.33292601,2.09514429 3.80816606,2.01054361 C4.10057779,1.95773916 4.38617605,1.97420507 4.66268968,2.07640723 C5.06468484,2.22516815 5.27987717,2.52666452 5.37696922,2.91787168 C5.45078189,3.21652911 5.44737515,3.51575432 5.4116044,3.81952185 C5.36561342,4.19823764 5.22593714,4.53664034 4.98632985,4.83700114 C4.95623699,4.87561084 4.9278475,4.91762729 4.89094117,4.94828793 C4.82507755,5.00336354 4.80917944,5.066956 4.83643335,5.14247204 C4.86822958,5.23104725 4.90116138,5.31905466 4.93863551,5.40479092 C4.97383848,5.4837137 5.03572756,5.53878931 5.11919266,5.57001774 C5.50358634,5.71537193 5.88741223,5.85959053 6.27067033,6.00721588 C6.40693988,6.05945253 6.54775175,6.10714688 6.67209771,6.18039176 C6.88331551,6.30530551 6.98494988,6.51198099 7.02923748,6.73796132 C7.07125392,6.95088249 7.08431309,7.16891377 7.11213479,7.38410609 C7.11781269,7.43180043 7.09623667,7.45848655 7.05762697,7.48517267 C6.90148478,7.59134936 6.72206321,7.64699276 6.53980269,7.68049236 C6.23887411,7.73500018 5.93567436,7.78723684 5.63190683,7.81108401 C5.1225994,7.85139708 4.61102081,7.8672952 4.21811028,7.88716784 L4.21811028,7.88716784 Z M7.8059739,3.77580204 C7.94394682,3.46011092 8.12677512,3.28579946 8.35786557,3.06379365 L8.41805128,3.0058791 C8.67696342,2.75661938 8.98413769,2.55789296 9.33219283,2.41537773 C9.68024796,2.2722947 10.0623705,2.2001854 10.4677724,2.2001854 C10.8419459,2.2001854 11.1951111,2.26321006 11.5170479,2.38755603 C11.8406881,2.51190199 12.1251508,2.68564566 12.3630547,2.90254136 C12.6009586,3.12057263 12.7911682,3.38005256 12.9280055,3.67359988 C13.0642751,3.96885056 13.1335454,4.28681284 13.1335454,4.62067323 C13.1335454,4.90229696 13.0977747,5.16348026 13.0262331,5.39684186 C12.9541238,5.63247462 12.8496505,5.83801452 12.7167877,6.00835145 C12.5827893,6.17925618 12.4192659,6.31439015 12.2301919,6.40921104 C12.0416857,6.50346414 11.8270611,6.55115848 11.5919962,6.55115848 C11.4585656,6.55115848 11.3370585,6.51595552 11.2308819,6.44668517 C11.14401,6.39047398 11.065655,6.31666131 10.9975203,6.22638273 C10.8584118,6.35640659 10.7221422,6.44043948 10.5926861,6.47734581 C10.2804018,6.5670566 10.0135406,6.55910754 9.71828988,6.42681252 C9.55646979,6.35413543 9.40657329,6.2502299 9.2725749,6.11907046 C9.13857651,5.98734323 9.02615414,5.82836209 8.93814672,5.64723715 C8.84843594,5.46327327 8.80301275,5.25773337 8.80301275,5.03629535 C8.80301275,4.81996744 8.84559699,4.61840207 8.93076545,4.43670934 C9.01593392,4.25501661 9.12778851,4.09773884 9.26405805,3.96998614 C9.39919202,3.84053007 9.55760537,3.74003128 9.73475578,3.66905756 C9.91077061,3.59808384 10.0941667,3.56231308 10.276995,3.56231308 C10.479696,3.56231308 10.6608209,3.60205837 10.8141242,3.68098115 C10.9203008,3.73548896 11.0077405,3.80362374 11.0758752,3.88311431 L11.1218662,3.62363438 L11.8599929,3.62363438 L11.8526117,3.68722683 L11.6487751,5.3837827 C11.6351482,5.48882381 11.6283347,5.59613607 11.6283347,5.70458392 C11.6283347,5.73638015 11.6351482,5.75965953 11.6493429,5.77612543 C11.6641055,5.7948625 11.6771646,5.79770145 11.6873848,5.79770145 C11.7793668,5.79770145 11.8628319,5.76760859 11.9423224,5.70685508 C12.024652,5.64383042 12.0973291,5.55809416 12.1592181,5.45078189 C12.2222428,5.34233404 12.2716405,5.21628471 12.3068435,5.07717622 C12.3420465,4.93863551 12.3596479,4.79214575 12.3596479,4.64111366 C12.3596479,4.39185395 12.310818,4.16189909 12.2148615,3.95635919 C12.1189051,3.75138708 11.9854745,3.57480446 11.8174087,3.43115364 C11.6487751,3.28636725 11.4472098,3.17280929 11.2195261,3.09388651 C10.9895712,3.01439594 10.7386081,2.97408287 10.4745859,2.97408287 C10.169115,2.97408287 9.88408449,3.02688732 9.62687572,3.13022506 C9.36966695,3.2335628 9.14425441,3.37607803 8.95745157,3.55436402 C8.77064874,3.73208223 8.6224556,3.94727455 8.51627891,4.19312753 C8.4112378,4.44068387 8.35729778,4.70811286 8.35729778,4.98860101 C8.35729778,5.30542771 8.41578012,5.59329713 8.52990587,5.844828 C8.6445994,6.0946555 8.80074159,6.30814446 8.99549349,6.47904918 C9.19138096,6.6505217 9.42303919,6.78281671 9.68535807,6.87309529 C9.94824474,6.96394165 10.2321396,7.00993263 10.5290937,7.00993263 C10.7062441,7.00993263 10.8623863,7.00425473 10.9946813,6.99289893 C11.1264085,6.98211093 11.2524579,6.96110271 11.3699903,6.93044206 C11.4886584,6.89864583 11.6016486,6.8560616 11.7061219,6.80439273 C11.8145697,6.75158828 11.935509,6.68175013 12.064965,6.59658167 L12.1160661,6.56308207 L12.521468,7.29269194 L12.4754771,7.32164922 C12.1955567,7.49596068 11.8980348,7.62712012 11.5925639,7.71342416 C11.2990166,7.79405031 10.9140552,7.84060908 10.5359072,7.84060908 C10.0618027,7.84060908 9.60643529,7.76225409 9.25497342,7.61917106 C8.89329133,7.47154572 8.58157474,7.26770919 8.32720492,7.01333937 C8.04331003,6.73001227 7.84855813,6.34221185 7.73500018,6.06626601 C7.59702726,5.73013446 7.52718912,5.36788458 7.52718912,4.98860101 C7.52718912,4.56219088 7.67765341,4.06878157 7.8059739,3.77580204 L7.8059739,3.77580204 Z M18.020512,2.76229728 L14.4922664,2.77649203 L14.4922664,0.525205547 C14.4922664,0.298657424 14.1930411,0 13.9670608,0 L0.525773337,0 C0.299225214,0 0,0.298657424 0,0.525205547 L0,9.55874095 C0,9.78528907 0.299225214,10.0839465 0.525773337,10.0839465 L3.88311431,10.0839465 L3.88311431,12.3778172 C3.88311431,12.6049331 4.18177173,12.9035905 4.40888764,12.9035905 L18.020512,12.8473794 C18.2470602,12.8473794 18.5457176,12.6611443 18.5457176,12.321606 L18.5457176,3.28807062 C18.5457176,3.17451266 18.2470602,2.76229728 18.020512,2.76229728 L18.020512,2.76229728 Z" id="Icon" fill="#525C69" />
    </g>
</svg>