<?xml version="1.0" encoding="UTF-8"?>
<svg width="16px" height="16px" viewBox="0 0 16 16" version="1.1" xmlns="http://www.w3.org/2000/svg" xmlns:xlink="http://www.w3.org/1999/xlink">
    <title>Icon</title>
    <g id="Page-1" stroke="none" stroke-width="1" fill="none" fill-rule="evenodd" opacity="0.5">
        <path d="M10.1994922,12.2969036 C10.1754716,12.3489461 10.1430283,12.3981745 10.1020814,12.4425854 L9.95209349,12.6052631 L9.67361219,12.9523642 C9.62453973,13.0127846 9.56552781,13.0603737 9.50084514,13.0946897 L9.4044068,13.1992873 C9.19370835,13.4278042 8.83770696,13.4422549 8.60931254,13.2315565 L5.03374577,9.93477785 C4.80529011,9.7240794 4.79083942,9.36807801 5.00153787,9.13968358 L5.55262361,8.52957043 C5.76332206,8.30111477 6.11920099,8.28666408 6.34771788,8.4973013 L8.79079722,10.5649304 L14.1104647,4.36944864 C14.3063451,4.12831802 14.6607545,4.09157897 14.9020076,4.2875818 L15.5053852,4.78986584 C15.7465771,4.98580743 15.7832549,5.3402168 15.5873745,5.58140866 L10.1994922,12.2969036 L10.1994922,12.2969036 Z M10.0841037,3.06159359 C10.4222867,3.06159359 10.6964212,3.33572813 10.6964212,3.67391108 L10.6964212,3.69307662 C10.6964212,4.03119834 10.4222867,4.30533288 10.0841037,4.30533288 L5.51082682,4.30533288 C5.1727051,4.30533288 4.89850933,4.03119834 4.89850933,3.69307662 L4.89850933,3.67391108 C4.89850933,3.33572813 5.1727051,3.06159359 5.51082682,3.06159359 L10.0841037,3.06159359 Z M3.67390496,3.06159359 C4.01208791,3.06159359 4.28622245,3.33572813 4.28622245,3.67391108 C4.28622245,4.01209403 4.01208791,4.28622857 3.67390496,4.28622857 L3.31037206,4.28622857 C2.97218911,4.28622857 2.69799334,4.01209403 2.69799334,3.67391108 C2.69799334,3.33572813 2.97218911,3.06159359 3.31037206,3.06159359 L3.67390496,3.06159359 Z M10.0841037,5.51086356 C10.4222867,5.51086356 10.6964212,5.7849981 10.6964212,6.12318105 L10.6964212,6.14234659 C10.6964212,6.48046831 10.4222867,6.75460285 10.0841037,6.75460285 L5.51082682,6.75460285 C5.1727051,6.75460285 4.89850933,6.48046831 4.89850933,6.14234659 L4.89850933,6.12318105 C4.89850933,5.7849981 5.1727051,5.51086356 5.51082682,5.51086356 L10.0841037,5.51086356 Z M3.67390496,5.51086356 C4.01208791,5.51086356 4.28622245,5.7849981 4.28622245,6.12318105 C4.28622245,6.461364 4.01208791,6.73549855 3.67390496,6.73549855 L3.31037206,6.73549855 C2.97218911,6.73549855 2.69799334,6.461364 2.69799334,6.12318105 C2.69799334,5.7849981 2.97218911,5.51086356 3.31037206,5.51086356 L3.67390496,5.51086356 Z M12.2463499,12.5335268 L13.4709848,11.0005287 L13.4709848,14.6956198 C13.4709848,15.3719857 12.9227158,15.9202548 12.2463499,15.9202548 L1.22463499,15.9202548 C0.548269083,15.9202548 0,15.3719857 0,14.6956198 L0,1.22463499 C0,0.548269083 0.548269083,0 1.22463499,0 L12.2463499,0 C12.9227158,0 13.4709848,0.548269083 13.4709848,1.22463499 L13.4709848,2.21064984 L12.2463499,3.74364792 L12.2463499,1.22463499 L1.22463499,1.22463499 L1.22463499,14.6956198 L12.2463499,14.6956198 L12.2463499,12.5335268 Z" id="Icon" fill="#525C69" />
    </g>
</svg>