<svg width="13" height="17" viewBox="0 0 13 17" fill="none" xmlns="http://www.w3.org/2000/svg">
<path fill-rule="evenodd" clip-rule="evenodd" d="M6.5001 0.376587C3.33629 0.376587 0.793945 2.91794 0.793945 6.08274C0.793945 9.44217 4.22288 14.139 5.7646 16.081C6.14464 16.5597 6.85196 16.5562 7.22857 16.0748C8.76687 14.1084 12.2062 9.34695 12.2062 6.08274C12.2062 2.91794 9.6639 0.376587 6.5001 0.376587ZM6.5001 8.67563C5.04804 8.67563 3.90621 7.5348 3.90621 6.08174C3.90621 4.62968 5.04704 3.48786 6.5001 3.48786C7.95215 3.48786 9.09398 4.62869 9.09398 6.08174C9.09398 7.53477 7.95218 8.67563 6.5001 8.67563Z" fill="#828B95"/>
</svg>
