<svg xmlns="http://www.w3.org/2000/svg" width="16" height="11">
  <path fill="#535C68" fill-rule="evenodd" d="M1.708 0C.7423.0306-.0178.7684.0017 1.6564v7.6872C-.039 10.2105.6838 10.9474 1.6262 11h12.667c.9656-.0306 1.7256-.768 1.7064-1.6558V1.6876C16.0068.7877 15.24.043 14.262 0H1.708zm6.2474 5.061L3.1616 1.5297h9.5922L7.9554 5.061zm6.3244 4.2559c-.097.094-.2311.1483-.3721.1503H2.0717c-.1378-.0052-.2674-.0611-.3598-.1552-.0923-.094-.1395-.2183-.131-.3447V2.5002c.0557.0695.1205.1324.1931.1872l5.6654 4.156c.1149.0959.263.1514.418.1567h.2578a.9791.9791 0 0 0 .4188-.1567l5.6646-4.156a.8514.8514 0 0 0 .2237-.252v6.5313c.0061.13-.0455.2561-.1425.3502z"/>
</svg>
