<svg xmlns="http://www.w3.org/2000/svg" width="14" height="14">
  <path fill="#535C68" fill-rule="evenodd" d="M3.231.16c.0095.2982 1.4935 3.5893 1.5036 3.887A6.133 6.133 0 0 1 3.418 5.6735c-.297.297 1.9539 2.8534 1.9967 2.902.0427.0488 2.599 2.2985 2.896 2.0003a6.1062 6.1062 0 0 1 1.6237-1.3182c.2976.01 3.5822 1.4958 3.881 1.5047.2988.009.186 1.7151-.3837 2.2848-.4866.4866-2.9977 2.2646-7.297-.8132a13.3339 13.3339 0 0 1-2.3466-2.0187l-.0083-.0083A13.3247 13.3247 0 0 1 1.7654 7.856C-1.3096 3.548.4644 1.0315.9509.545c.5697-.5697 2.2706-.6832 2.28-.385z"/>
</svg>
