<svg xmlns="http://www.w3.org/2000/svg" width="13" height="13" viewBox="0 0 13 13">
  <path fill="#B1B7C5" d="M12.9779759,6.48914487 C12.9779759,10.072672 10.0727505,12.9778974 6.48909256,12.9778974 C2.90525151,12.9778974 0,10.072672 0,6.48914487 C0,2.90506841 2.90525151,7.84708249e-05 6.48909256,7.84708249e-05 C10.0727505,7.84708249e-05 12.9779759,2.90506841 12.9779759,6.48914487 Z M3.9824624,4.78956902 C3.9824624,4.94331928 4.04677787,5.08618678 4.17543163,5.21819435 C4.30403976,5.35024754 4.46194234,5.41620569 4.6491622,5.41620569 C4.96663286,5.41620569 5.18221176,5.22743442 5.29585325,4.84973217 C5.41617953,4.48879894 5.56319937,4.21558936 5.737004,4.03010345 C5.91074019,3.84461754 6.18144012,3.75187458 6.54912658,3.75187458 C6.86322063,3.75187458 7.11975244,3.84384183 7.31863076,4.0275938 C7.51744063,4.21143704 7.61691401,4.4370089 7.61691401,4.70435501 C7.61691401,4.84142751 7.58431138,4.96839296 7.51915175,5.08534263 C7.45396931,5.20238355 7.3737746,5.30842765 7.27852199,5.40368026 C7.18326939,5.49893287 7.02865216,5.64015769 6.81480721,5.82728628 C6.57082365,6.04119968 6.37694181,6.22581862 6.2332986,6.38123437 C6.08956413,6.53660449 5.97427996,6.71707111 5.88740045,6.92263422 C5.80045251,7.1281517 5.75705838,7.37129111 5.75705838,7.65202963 C5.75705838,7.87595881 5.81635456,8.04474415 5.93501535,8.15834001 C6.0536077,8.27200432 6.19985182,8.32879084 6.37365645,8.32879084 C6.70780488,8.32879084 6.9066832,8.15503184 6.97020014,7.80742256 C7.00693229,7.64370215 7.0344928,7.52917088 7.0529045,7.46403406 C7.07122494,7.39885162 7.09716559,7.33369199 7.13061238,7.26850955 C7.16399072,7.20337274 7.21498223,7.13152832 7.28351848,7.05297629 C7.35196346,6.97446989 7.44308656,6.88336961 7.55672805,6.7797439 C7.96778582,6.41212588 8.25267667,6.15059758 8.41144623,5.99518183 C8.57014734,5.83981171 8.70721983,5.65516996 8.82252682,5.44125656 C8.93783381,5.22743442 8.9954873,4.97840874 8.9954873,4.69431642 C8.9954873,4.33338319 8.89437124,3.99923476 8.69220756,3.69171144 C8.48995263,3.38427937 8.20344191,3.14113996 7.83247009,2.96231603 C7.46149826,2.78358335 7.03367146,2.69412575 6.54912658,2.69412575 C6.02778112,2.69412575 5.57159528,2.80110527 5.18056908,3.01495022 C4.78956568,3.22886362 4.49205814,3.49871939 4.28825178,3.82456316 C4.08437698,4.15040692 3.9824624,4.47209836 3.9824624,4.78956902 Z M6.42882311,10.2838763 C6.62599031,10.2838763 6.79974931,10.2170055 6.95014576,10.0833553 C7.10054221,9.94970502 7.17574044,9.7658846 7.17574044,9.53191682 C7.17574044,9.32135722 7.10382757,9.14426723 6.96018436,9.00053276 C6.81644989,8.85686673 6.63935989,8.78497668 6.4288003,8.78497668 C6.2148869,8.78497668 6.03442028,8.85686673 5.88740045,9.00053276 C5.74028936,9.14426723 5.66682508,9.32135722 5.66682508,9.53191682 C5.66682508,9.7692384 5.74282183,9.95388016 5.8949294,10.0858421 C6.04696853,10.2178268 6.2249255,10.2838763 6.42882311,10.2838763 Z" opacity=".738"/>
</svg>
