<svg xmlns="http://www.w3.org/2000/svg" width="18" height="21"><path fill="#525C69" fill-rule="evenodd" d="M10.444 13.097v-1.975a3.709 3.709 0 012.629 3.548v2.118a3.707 3.707 0 11-7.415 0V14.67a3.709 3.709 0 012.666-3.559v1.961c-.521.34-.866.93-.866 1.598v2.118a1.907 1.907 0 003.815 0V14.67c0-.599-.276-1.133-.707-1.483l-.122-.09zm-2.12-5.57V9.49a3.709 3.709 0 01-2.666-3.56V3.812a3.707 3.707 0 017.415 0V5.93a3.709 3.709 0 01-2.629 3.548V7.503c.5-.344.829-.92.829-1.573V3.81a1.907 1.907 0 00-3.815 0V5.93c0 .613.29 1.158.739 1.507l.127.09zM.897 10.483c0-.439.355-.794.794-.794h2.382a.794.794 0 110 1.588H1.691a.794.794 0 01-.794-.794zm15.895 4.261a.794.794 0 01-1.085.29l-2.063-1.19a.794.794 0 11.794-1.376l2.063 1.191c.38.22.51.705.291 1.085zm-15.043 0a.794.794 0 01.29-1.085l2.064-1.19a.794.794 0 11.794 1.374l-2.063 1.192a.794.794 0 01-1.085-.291zm15.043-8.338c.22.38.09.865-.29 1.085l-2.064 1.19a.794.794 0 01-.794-1.375l2.063-1.19a.794.794 0 011.085.29zm-15.043 0a.794.794 0 011.085-.29l2.063 1.19a.794.794 0 01-.794 1.376L2.04 7.49a.794.794 0 01-.291-1.085zm15.747 4.077a.794.794 0 01-.794.794H14.32a.794.794 0 110-1.588h2.382c.438 0 .794.355.794.794z"/></svg>