<svg width="44" height="44" viewBox="0 0 44 44" fill="none" xmlns="http://www.w3.org/2000/svg">
	<g clip-path="url(#clip0_9_10)">
		<g filter="url(#filter0_d_9_10)">
			<path fill-rule="evenodd" clip-rule="evenodd" d="M36.2916 10.7135L25.5292 4.97732C23.3476 3.81458 20.6524 3.81458 18.4708 4.97732L7.70841 10.7135C5.53275 11.8731 4.22222 13.9962 4.22222 16.2638V27.7362C4.22222 30.0038 5.53275 32.1269 7.70841 33.2865L18.4708 39.0227C20.6524 40.1854 23.3476 40.1854 25.5292 39.0227L36.2916 33.2865C38.4672 32.1269 39.7778 30.0038 39.7778 27.7362V16.2638C39.7778 13.9962 38.4672 11.8731 36.2916 10.7135ZM26.6188 3.14249C23.7607 1.61917 20.2393 1.61917 17.3812 3.14249L6.6188 8.87865C3.76068 10.402 2 13.2172 2 16.2638V27.7362C2 30.7828 3.76068 33.598 6.6188 35.1214L17.3812 40.8575C20.2393 42.3808 23.7607 42.3808 26.6188 40.8575L37.3812 35.1214C40.2393 33.598 42 30.7828 42 27.7362V16.2638C42 13.2172 40.2393 10.402 37.3812 8.87865L26.6188 3.14249Z" fill="url(#paint0_linear_9_10)"/>
		</g>
		<g filter="url(#filter1_d_9_10)">
			<path fill-rule="evenodd" clip-rule="evenodd" d="M28.4357 25.5126C28.134 25.306 27.7907 25.171 27.459 25.0243C26.5257 24.6076 25.5907 24.201 24.6557 23.791C24.454 23.7026 24.3024 23.5476 24.219 23.326C24.1257 23.0826 24.0457 22.8343 23.9674 22.586C23.9024 22.3726 23.9407 22.1926 24.099 22.0376C24.1907 21.9493 24.259 21.8326 24.334 21.7243C24.9174 20.876 25.2574 19.9226 25.3674 18.8526C25.4557 17.996 25.464 17.151 25.2824 16.311C25.0474 15.206 24.524 14.3543 23.5457 13.936C22.8724 13.6476 22.1774 13.601 21.4674 13.7476C20.3107 13.9876 19.559 14.7376 19.2024 15.9826C18.9157 16.9826 18.9257 18.011 19.0557 19.0393C19.2074 20.226 19.659 21.251 20.3757 22.1376C20.434 22.211 20.4724 22.3293 20.4757 22.4293C20.489 23.0476 20.1174 23.6426 19.529 23.9043C18.544 24.341 17.5624 24.7826 16.564 25.1793C15.8024 25.4843 15.3157 26.056 15.1407 26.916C15.014 27.536 14.9824 28.181 14.9007 28.8126C14.8707 29.046 14.9557 29.1943 15.134 29.2876C15.3374 29.3926 15.539 29.5076 15.7507 29.586C16.8674 29.9943 18.029 30.1143 19.1907 30.1993C20.184 30.2693 21.179 30.2793 22.4624 30.3293C23.419 30.271 24.664 30.226 25.9024 30.1143C26.644 30.0476 27.3807 29.8976 28.114 29.7443C28.5574 29.651 28.9924 29.4926 29.3724 29.1943C29.4674 29.1193 29.519 29.0443 29.5057 28.9093C29.439 28.301 29.4074 27.686 29.304 27.086C29.1974 26.4493 28.9507 25.866 28.4357 25.5126M16.779 22.3083C16.8407 22.12 16.879 21.8916 16.8124 21.82C16.0107 20.9333 16.209 20.75 16.1057 18.72C16.0407 17.4166 16.1574 16.3433 16.3857 15.5516C15.8024 15.345 15.204 15.305 14.589 15.4183C13.5457 15.6116 12.869 16.2133 12.549 17.215C12.289 18.0183 12.2974 18.845 12.4174 19.6716C12.5524 20.625 12.9607 21.45 13.6057 22.1616C13.659 22.22 13.6924 22.3166 13.694 22.3966C13.709 22.8933 13.3724 23.3716 12.844 23.5816C11.9557 23.9333 11.069 24.2883 10.1707 24.6083C9.4857 24.8516 9.0457 25.31 8.88737 26.0033C8.77404 26.5016 8.7457 27.02 8.67237 27.5283C8.64404 27.715 8.72237 27.835 8.88237 27.9083C9.0657 27.9933 9.2457 28.0866 9.43737 28.15C9.97904 28.325 10.5324 28.43 11.089 28.5033C10.999 28.415 10.9424 28.305 10.9674 28.1466C11.0574 27.515 11.094 26.87 11.2357 26.25C11.4324 25.39 11.9774 24.8183 12.8307 24.5133C13.949 24.1166 15.0524 23.675 16.1557 23.2383C16.8124 22.9783 16.7157 22.4983 16.779 22.3083M35.4523 26.0033C35.2939 25.31 34.8573 24.8516 34.1689 24.6083C33.2706 24.2883 32.3856 23.9333 31.4989 23.5816C30.9689 23.3716 30.6323 22.8933 30.6456 22.3966C30.6489 22.3166 30.6839 22.22 30.7356 22.1616C31.3823 21.45 31.7889 20.625 31.9256 19.6716C32.0423 18.845 32.0506 18.0183 31.7939 17.215C31.4723 16.2133 30.7939 15.6116 29.7523 15.4183C29.1389 15.305 28.5389 15.345 27.9556 15.5516C28.1856 16.3433 28.3023 17.4166 28.2356 18.72C28.1323 20.75 28.3323 20.9333 27.5273 21.82C27.4623 21.8916 27.4989 22.12 27.5639 22.3083C27.6273 22.4983 27.5273 22.9783 28.1873 23.2383C29.2906 23.675 30.3923 24.1166 31.5106 24.5133C32.3623 24.8183 32.9089 25.39 33.1056 26.25C33.2473 26.87 33.2839 27.515 33.3756 28.1466C33.3989 28.305 33.3406 28.415 33.2523 28.5033C33.8106 28.43 34.3639 28.325 34.9039 28.15C35.0939 28.0866 35.2756 27.9933 35.4589 27.9083C35.6189 27.835 35.6956 27.715 35.6689 27.5283C35.5956 27.02 35.5656 26.5016 35.4523 26.0033" fill="url(#paint1_linear_9_10)"/>
		</g>
	</g>
	<defs>
		<filter id="filter0_d_9_10" x="-9.3" y="-9.3" width="62.6" height="62.6" filterUnits="userSpaceOnUse" color-interpolation-filters="sRGB">
			<feFlood flood-opacity="0" result="BackgroundImageFix"/>
			<feColorMatrix in="SourceAlpha" type="matrix" values="0 0 0 0 0 0 0 0 0 0 0 0 0 0 0 0 0 0 127 0" result="hardAlpha"/>
			<feOffset/>
			<feGaussianBlur stdDeviation="5.65"/>
			<feComposite in2="hardAlpha" operator="out"/>
			<feColorMatrix type="matrix" values="0 0 0 0 0 0 0 0 0 0 0 0 0 0 0 0 0 0 0.05 0"/>
			<feBlend mode="normal" in2="BackgroundImageFix" result="effect1_dropShadow_9_10"/>
			<feBlend mode="normal" in="SourceGraphic" in2="effect1_dropShadow_9_10" result="shape"/>
		</filter>
		<filter id="filter1_d_9_10" x="-9.3" y="-9.3" width="62.6" height="62.6" filterUnits="userSpaceOnUse" color-interpolation-filters="sRGB">
			<feFlood flood-opacity="0" result="BackgroundImageFix"/>
			<feColorMatrix in="SourceAlpha" type="matrix" values="0 0 0 0 0 0 0 0 0 0 0 0 0 0 0 0 0 0 127 0" result="hardAlpha"/>
			<feOffset/>
			<feGaussianBlur stdDeviation="5.65"/>
			<feComposite in2="hardAlpha" operator="out"/>
			<feColorMatrix type="matrix" values="0 0 0 0 0 0 0 0 0 0 0 0 0 0 0 0 0 0 0.05 0"/>
			<feBlend mode="normal" in2="BackgroundImageFix" result="effect1_dropShadow_9_10"/>
			<feBlend mode="normal" in="SourceGraphic" in2="effect1_dropShadow_9_10" result="shape"/>
		</filter>
		<linearGradient id="paint0_linear_9_10" x1="6.70588" y1="7.55556" x2="30.5838" y2="34.3507" gradientUnits="userSpaceOnUse">
			<stop stop-color="#1BCE42"/>
			<stop offset="0.54" stop-color="#00B65F"/>
			<stop offset="1" stop-color="#26D357"/>
		</linearGradient>
		<linearGradient id="paint1_linear_9_10" x1="11.844" y1="15.9809" x2="20.2985" y2="31.3585" gradientUnits="userSpaceOnUse">
			<stop stop-color="#1BCE42"/>
			<stop offset="0.54" stop-color="#00B65F"/>
			<stop offset="1" stop-color="#26D357"/>
		</linearGradient>
		<clipPath id="clip0_9_10">
			<rect width="44" height="44" fill="white"/>
		</clipPath>
	</defs>
</svg>
