<svg width="32" height="32" fill="none" xmlns="http://www.w3.org/2000/svg"><path fill-rule="evenodd" clip-rule="evenodd" d="M16 0c8.837 0 16 7.163 16 16s-7.163 16-16 16S0 24.837 0 16 7.163 0 16 0z" opacity="0.4" fill="#525C69"/><path fill-rule="evenodd" clip-rule="evenodd" d="M23.365 23.447c0-.99-1.165-5.174-1.165-5.174 0-.611-.838-1.31-2.492-1.717a5.748 5.748 0 01-1.577-.684c-.105-.058-.09-.592-.09-.592l-.533-.079c0-.043-.045-.684-.045-.684.637-.203.571-1.406.571-1.406.405.214.668-.736.668-.736.478-1.322-.238-1.242-.238-1.242a7.926 7.926 0 000-2.435c-.319-2.678-5.114-1.95-4.546-1.077-1.402-.248-1.082 2.793-1.082 2.793l.304.786c-.598.368-.183.814-.162 1.33.029.758.515.6.515.6.03 1.252.677 1.417.677 1.417.122.786.046.652.046.652l-.576.066c.008.179-.008.358-.046.532-.679.288-.823.457-1.497.738-1.3.544-2.715 1.25-2.968 2.202-.252.951-.995 4.71-.995 4.71h15.23z" fill="#fff"/></svg>