<?xml version="1.0" encoding="UTF-8"?>
<svg width="32px" height="32px" viewBox="0 0 32 32" version="1.1" xmlns="http://www.w3.org/2000/svg" xmlns:xlink="http://www.w3.org/1999/xlink">
    <title>search-hashtag</title>
    <g id="Page-1" stroke="none" stroke-width="1" fill="none" fill-rule="evenodd">
        <g id="00_Детали" transform="translate(-635.000000, -4835.000000)">
            <g id="search-hashtag" transform="translate(635.000000, 4835.000000)">
                <rect id="Rectangle" fill="#828B95" fill-rule="nonzero" opacity="0.5" x="0" y="0" width="32" height="32" rx="16"></rect>
                <g id="Group-22" transform="translate(8.000000, 8.000000)" fill="#FFFFFF">
                    <path d="M7.44539725,-1.32943633 L9.27157129,-1.32943633 C9.43725671,-1.32943633 9.57157129,-1.19512176 9.57157129,-1.02943633 L9.57157129,12.2272179 C9.57157129,12.3929033 9.43725671,12.5272179 9.27157129,12.5272179 L7.44539725,12.5272179 C7.27971183,12.5272179 7.14539725,12.3929033 7.14539725,12.2272179 L7.14539725,-1.02943633 C7.14539725,-1.19512176 7.27971183,-1.32943633 7.44539725,-1.32943633 Z" id="Rectangle" transform="translate(8.358484, 5.598891) rotate(-270.000000) translate(-8.358484, -5.598891) "></path>
                    <path d="M6.77763157,3.38027335 L8.6038056,3.38027335 C8.76949102,3.38027335 8.9038056,3.51458792 8.9038056,3.68027335 L8.9038056,16.9369276 C8.9038056,17.102613 8.76949102,17.2369276 8.6038056,17.2369276 L6.77763157,17.2369276 C6.61194614,17.2369276 6.47763157,17.102613 6.47763157,16.9369276 L6.47763157,3.68027335 C6.47763157,3.51458792 6.61194614,3.38027335 6.77763157,3.38027335 Z" id="Rectangle" transform="translate(7.690719, 10.308600) rotate(-270.000000) translate(-7.690719, -10.308600) "></path>
                    <path d="M5.2646342,0.7067741 L7.0818021,0.7067741 C7.24748752,0.7067741 7.3818021,0.841088675 7.3818021,1.0067741 C7.3818021,1.02400383 7.38031778,1.04120152 7.37736562,1.05817645 L4.94445162,15.047432 C4.91946093,15.1911285 4.79474148,15.2960296 4.64888809,15.2960296 L2.83172019,15.2960296 C2.66603477,15.2960296 2.53172019,15.1617151 2.53172019,14.9960296 C2.53172019,14.9787999 2.5332045,14.9616022 2.53615666,14.9446273 L4.96907067,0.955371748 C4.99406136,0.811675275 5.11878081,0.7067741 5.2646342,0.7067741 Z" id="Rectangle"></path>
                    <path d="M11.163768,0.7067741 L12.9809359,0.7067741 C13.1466213,0.7067741 13.2809359,0.841088675 13.2809359,1.0067741 C13.2809359,1.02400383 13.2794515,1.04120152 13.2764994,1.05817645 L10.8435854,15.047432 C10.8185947,15.1911285 10.6938752,15.2960296 10.5480218,15.2960296 L8.73085395,15.2960296 C8.56516852,15.2960296 8.43085395,15.1617151 8.43085395,14.9960296 C8.43085395,14.9787999 8.43233826,14.9616022 8.43529042,14.9446273 L10.8682044,0.955371748 C10.8931951,0.811675275 11.0179146,0.7067741 11.163768,0.7067741 Z" id="Rectangle"></path>
                </g>
            </g>
        </g>
    </g>
</svg>