<svg width="28" height="28" fill="none" xmlns="http://www.w3.org/2000/svg"><path fill-rule="evenodd" clip-rule="evenodd" d="M14 0c7.732 0 14 6.268 14 14s-6.268 14-14 14S0 21.732 0 14 6.268 0 14 0z" fill="#F7A704"/><path fill-rule="evenodd" clip-rule="evenodd" d="M11.669 14.586v3.18H5.986s.585-2.96.784-3.71c.198-.748 1.312-1.305 2.337-1.732.268-.113.43-.202.593-.292.16-.088.321-.178.587-.29a1.65 1.65 0 0 0 .034-.419l.455-.052s.06.105-.036-.514c0 0-.51-.13-.534-1.115 0 0-.382.124-.406-.473a1.517 1.517 0 0 0-.067-.344c-.072-.263-.137-.499.195-.703l-.24-.619s-.251-2.394.853-2.2c-.448-.687 3.329-1.26 3.579.85a6.243 6.243 0 0 1 0 1.916s.564-.063.188.978c0 0-.207.749-.526.58 0 0 .052.946-.45 1.107 0 0 .035.505.035.539l.42.062s-.011.42.07.466c.384.24.803.421 1.243.538.54.133.971.306 1.289.497h-2.97a1.75 1.75 0 0 0-1.75 1.75zm2.585-.163 4.182 2.88 4.183-2.88h-8.365zm9.126.72v.148l-4.944 3.654-4.943-3.654v5.586c0 .344.319.623.712.623h8.464c.393 0 .711-.28.711-.623v-5.735z" fill="#fff"/></svg>