<svg width="32" height="32" fill="none" xmlns="http://www.w3.org/2000/svg"><path fill-rule="evenodd" clip-rule="evenodd" d="M16 0c8.837 0 16 7.163 16 16s-7.163 16-16 16S0 24.837 0 16 7.163 0 16 0z" fill="#F7A704"/><path fill-rule="evenodd" clip-rule="evenodd" d="M13.336 16.67v3.634H6.841s.669-3.383.896-4.24c.227-.855 1.5-1.491 2.671-1.98.306-.128.491-.23.678-.333.182-.101.367-.203.67-.331.034-.158.047-.318.04-.479l.519-.06s.068.12-.041-.587c0 0-.583-.148-.61-1.274 0 0-.437.141-.464-.541a1.734 1.734 0 00-.076-.393c-.083-.301-.157-.57.222-.804l-.274-.707s-.287-2.736.975-2.514c-.512-.786 3.804-1.44 4.09.97a7.136 7.136 0 010 2.191s.645-.072.215 1.118c0 0-.237.855-.601.662 0 0 .059 1.082-.514 1.266 0 0 .04.576.04.615l.48.071s-.013.48.08.533c.438.274.917.481 1.42.615.618.152 1.11.35 1.473.568h-3.394a2 2 0 00-2 2zm2.954-.187l4.78 3.292 4.78-3.292h-9.56zm10.43.823v.169l-5.65 4.177-5.649-4.177v6.384c0 .394.364.713.813.713h9.673c.45 0 .813-.32.813-.713v-6.554z" fill="#fff"/></svg>