<svg width="32" height="32" fill="none" xmlns="http://www.w3.org/2000/svg"><path fill-rule="evenodd" clip-rule="evenodd" d="M16 0c8.837 0 16 7.163 16 16s-7.163 16-16 16S0 24.837 0 16 7.163 0 16 0z" fill="#858d95"/><path fill-rule="evenodd" clip-rule="evenodd" d="M14.557 19.312c0 .55.064 1.084.186 1.596H7.305s.67-3.383.896-4.239c.227-.856 1.5-1.492 2.671-1.98.306-.128.491-.23.678-.334.182-.1.367-.202.67-.33.034-.158.047-.319.04-.48l.52-.06s.067.121-.042-.586c0 0-.583-.148-.61-1.275 0 0-.437.142-.463-.54-.006-.137-.042-.268-.077-.394-.083-.3-.157-.57.222-.803l-.273-.708s-.288-2.736.974-2.513c-.512-.786 3.804-1.44 4.09.97a7.136 7.136 0 010 2.19s.645-.071.215 1.119c0 0-.237.855-.601.662 0 0 .059 1.082-.514 1.265 0 0 .04.577.04.616l.48.07s-.013.481.081.533c.132.083.269.16.408.231a6.84 6.84 0 00-2.153 4.99zm11.683-4.498a.534.534 0 010 .754l-.614.614a5.313 5.313 0 011.207 3.375 5.344 5.344 0 01-5.338 5.339 5.345 5.345 0 01-5.338-5.339 5.345 5.345 0 014.804-5.31v-.277h-.704a.534.534 0 110-1.068h2.477a.534.534 0 110 1.068h-.705v.276a5.317 5.317 0 012.843 1.18l.613-.612a.534.534 0 01.755 0zm-4.745 5.448h2.302a.534.534 0 100-1.068h-1.768v-2.372a.534.534 0 10-1.067 0v2.906c0 .295.238.534.533.534z" fill="#fff"/></svg>