<svg width="17" height="17" fill="none" xmlns="http://www.w3.org/2000/svg"><path fill-rule="evenodd" clip-rule="evenodd" d="M8.447 0a8.447 8.447 0 100 16.894A8.447 8.447 0 008.447 0zM2.785 13.289c-.02.018-.116.09-.234.177a7.704 7.704 0 01-1.846-5.02c0-.36.025-.717.073-1.068.442.572.927 1.346 1.094 1.578.272.379.575.751.84 1.136.444.648.91 1.535.673 2.34-.102.346-.328.627-.6.857zm8.92-6.27s.402 1.575 2.122 1.445c.544-.041.509 1.413.162 2.014-.43.744-.318 1.627-.725 2.37-.256.467-.69.814-1.035 1.214-.43.5-.913.984-1.631.921-.474-.04-.67-.565-.763-.939-.23-.928-.39-2.828-.39-2.828s-.668-1.443-2.177-1.003c-1.509.44-1.816-.728-1.859-1.84C5.307 5.63 7.614 5.34 7.881 5.389c.383.069 1.507.262 1.79.418.956.528 1.935-.2 1.858-.585-.077-.385-2.453-.939-3.296-.999-.842-.06-.92.24-1.151-.014-.187-.205-.015-.53.116-.703.93-1.225 2.48-1.522 3.791-2.16.02-.01.051-.08.087-.184a7.72 7.72 0 012.846 1.81 7.719 7.719 0 011.894 3.091c-.28.165.277-.057-1.185.284-1.462.34-2.926.672-2.926.672z" fill="#ACB2B8"/></svg>