<svg width="28" height="28" fill="none" xmlns="http://www.w3.org/2000/svg"><path fill-rule="evenodd" clip-rule="evenodd" d="M14 0c7.732 0 14 6.268 14 14s-6.268 14-14 14S0 21.732 0 14 6.268 0 14 0z" fill="#858D95"/><path fill-rule="evenodd" clip-rule="evenodd" d="M12.738 16.898c0 .481.056.948.162 1.396H6.392s.586-2.96.784-3.709c.199-.749 1.313-1.305 2.337-1.732a5.3 5.3 0 0 0 .594-.292c.159-.088.32-.177.586-.29.03-.137.04-.278.035-.42l.455-.052s.058.106-.037-.512c0 0-.51-.13-.534-1.116 0 0-.382.124-.405-.472a1.547 1.547 0 0 0-.067-.345c-.073-.263-.138-.499.194-.703l-.239-.62s-.252-2.393.852-2.198c-.448-.688 3.329-1.26 3.58.849a6.244 6.244 0 0 1 0 1.916s.564-.062.187.979c0 0-.207.748-.526.58 0 0 .052.946-.45 1.106 0 0 .036.505.036.539l.42.061s-.012.421.07.467c.116.072.236.14.357.202a5.984 5.984 0 0 0-1.883 4.366zm10.222-3.936a.467.467 0 0 1 0 .66l-.537.537a4.65 4.65 0 0 1 1.056 2.953 4.676 4.676 0 0 1-4.67 4.672 4.677 4.677 0 0 1-4.671-4.672 4.677 4.677 0 0 1 4.203-4.646v-.242h-.616a.467.467 0 1 1 0-.935h2.167a.467.467 0 1 1 0 .935h-.616v.241c.913.092 1.778.45 2.487 1.033l.537-.536a.467.467 0 0 1 .66 0zm-4.152 4.767h2.015a.467.467 0 0 0 0-.934h-1.547v-2.076a.467.467 0 1 0-.934 0v2.543c0 .258.208.467.466.467z" fill="#fff"/></svg>