<svg width="23" height="23" viewBox="0 0 23 23" fill="none" xmlns="http://www.w3.org/2000/svg">
<path fill-rule="evenodd" clip-rule="evenodd" d="M11.4465 2.98389C6.78185 2.98389 3 6.76574 3 11.4304C3 16.0951 6.78185 19.877 11.4465 19.877C16.1119 19.877 19.8931 16.0958 19.8931 11.4304C19.8931 6.76574 16.1119 2.98389 11.4465 2.98389ZM5.78536 16.2727C5.76425 16.2912 5.66922 16.3631 5.55111 16.4496C5.03771 15.8477 4.62199 15.176 4.31251 14.4442C3.90866 13.49 3.70474 12.4765 3.70474 11.4305C3.70474 11.0702 3.72982 10.7132 3.77799 10.3614C4.22012 10.9342 4.70513 11.7083 4.87209 11.9399C5.14397 12.3187 5.44684 12.6908 5.71147 13.0756C6.15623 13.7236 6.62145 14.6105 6.38522 15.4161C6.28292 15.762 6.05658 16.0431 5.78536 16.2727ZM14.7053 10.003C14.7053 10.003 15.1069 11.5782 16.8272 11.4475C17.3709 11.4066 17.3358 12.8612 16.9887 13.4617C16.5591 14.2054 16.6706 15.089 16.2641 15.8313C16.0081 16.2992 15.5733 16.6463 15.2294 17.0455C14.7985 17.5464 14.3155 18.0294 13.5975 17.9674C13.1244 17.9264 12.9271 17.4018 12.8347 17.0283C12.6051 16.0999 12.4447 14.2001 12.4447 14.2001C12.4447 14.2001 11.7773 12.7566 10.2684 13.1971C8.75947 13.6376 8.45171 12.4686 8.40948 11.3566C8.3072 8.61484 10.6135 8.32512 10.8808 8.37327C11.2635 8.44189 12.388 8.63524 12.6704 8.79098C13.6266 9.31889 14.6059 8.59103 14.5287 8.20567C14.4521 7.82096 12.0758 7.26731 11.2332 7.20725C10.3905 7.1472 10.3126 7.4468 10.0817 7.19274C9.89491 6.98752 10.0671 6.66219 10.1985 6.48995C11.1282 5.26455 12.6784 4.96826 13.9894 4.33017C14.0099 4.32027 14.0402 4.24967 14.0759 4.14607C14.2046 4.19292 14.3339 4.24242 14.4606 4.29653C15.3824 4.68652 16.2105 5.24478 16.9219 5.95613C17.6333 6.66748 18.1915 7.49565 18.5815 8.41745C18.6693 8.62466 18.7471 8.83451 18.8158 9.04699C18.5366 9.21196 19.0931 8.9903 17.6308 9.33038C16.1686 9.67047 14.7053 10.003 14.7053 10.003Z" fill="#ABB1B8"/>
</svg>
