<svg width="28" height="28" fill="none" xmlns="http://www.w3.org/2000/svg"><path fill-rule="evenodd" clip-rule="evenodd" d="M14 0c7.732 0 14 6.268 14 14s-6.268 14-14 14S0 21.732 0 14 6.268 0 14 0z" fill="#858D95"/><path fill-rule="evenodd" clip-rule="evenodd" d="M17.279 12.4s-.016.316-.032.357a1.018 1.018 0 0 0-.09.174c.02 0 .23.1.23.1l.813.26-.012.394c-.154.062-.48.302-.537.379.742.307 1.422.92 1.439 1.424.011.089.46 1.737.486 2.108h3.173a453.07 453.07 0 0 0-.104-2.164s-.196-.512-.507-.565a2.4 2.4 0 0 1-.878-.294 3.205 3.205 0 0 0-.564-.263.864.864 0 0 1-.228-.33.959.959 0 0 0-.392-.296l-.012-.394.814-.259s.209-.1.229-.1a1.594 1.594 0 0 0-.112-.2c-.015-.042-.092-.329-.092-.329.119.155.258.293.414.409a5.987 5.987 0 0 1-.355-.82 5.342 5.342 0 0 1-.135-.795 12.01 12.01 0 0 0-.26-1.48 1.39 1.39 0 0 0-.43-.619 1.966 1.966 0 0 0-.983-.357h-.041a1.964 1.964 0 0 0-.984.357 1.395 1.395 0 0 0-.43.62c-.117.487-.204.98-.26 1.479a5.208 5.208 0 0 1-.129.813 5.362 5.362 0 0 1-.36.802c.155-.117.329-.41.329-.41zm1.78 7.065c0-.702-.772-3.675-.772-3.675s-.556-.93-1.651-1.219a3.694 3.694 0 0 1-1.047-.486.949.949 0 0 1-.06-.42l-.35-.055c0-.032-.03-.487-.03-.487.422-.144.378-.998.378-.998.268.151.443-.524.443-.524.316-.938-.158-.882-.158-.882a6.034 6.034 0 0 0 0-1.73c-.212-1.902-3.391-1.385-3.014-.764-.928-.175-.717 1.984-.717 1.984l.202.558c-.396.262-.121.58-.107.944.019.539.341.427.341.427.02.889.449 1.006.449 1.006.08.558.03.461.03.461l-.381.048c.005.127-.005.253-.03.378-.45.205-.547.324-.993.525-.863.385-1.8.887-1.966 1.562-.166.677-.662 3.347-.662 3.347H19.059zm-8.27-6.71c.036.055.066.114.09.174-.02 0-.23.1-.23.1l-.818.263.011.396a.966.966 0 0 1 .396.298c.039.087.087.171.144.25-.745.308-1.43.76-1.447 1.267-.012.09-.464 1.748-.49 2.122H5.25c-.003-.016.103-2.161.105-2.178 0 0 .197-.516.51-.568.312-.04.612-.141.884-.296.18-.107.37-.196.568-.266a.866.866 0 0 0 .228-.331.963.963 0 0 1 .396-.298l.012-.397-.818-.26s-.211-.101-.232-.101c.032-.07.07-.137.113-.201.015-.043.093-.332.093-.332-.12.156-.26.294-.418.411a5.85 5.85 0 0 0 .357-.826c.066-.262.111-.53.137-.8.056-.5.143-.997.261-1.488a1.4 1.4 0 0 1 .433-.624c.291-.207.634-.33.99-.359h.041c.356.028.698.153.99.36.198.164.348.379.433.623.118.49.206.987.262 1.488.021.276.065.55.13.82.098.278.219.548.363.807a2.128 2.128 0 0 1-.415-.414s.1.318.116.36z" fill="#fff"/></svg>
