<svg width="32" height="32" fill="none" xmlns="http://www.w3.org/2000/svg"><path fill-rule="evenodd" clip-rule="evenodd" d="M16 0c8.837 0 16 7.163 16 16s-7.163 16-16 16S0 24.837 0 16 7.163 0 16 0z" fill="#9DCF00"/><path fill-rule="evenodd" clip-rule="evenodd" d="M19.747 14.172s-.018.36-.036.408c-.041.063-.075.129-.103.198.023 0 .263.114.263.114l.929.298-.014.45c-.176.071-.549.345-.613.433.847.351 1.624 1.052 1.644 1.627.013.102.525 1.986.556 2.41h3.626c.003-.018-.118-2.454-.119-2.473 0 0-.224-.586-.58-.646a2.744 2.744 0 01-1.003-.336 3.666 3.666 0 00-.645-.301.986.986 0 01-.26-.376 1.096 1.096 0 00-.448-.339l-.014-.45.93-.296s.239-.114.262-.114a1.82 1.82 0 00-.128-.23c-.017-.047-.105-.375-.105-.375.136.177.295.334.473.467a6.836 6.836 0 01-.405-.938 6.1 6.1 0 01-.155-.908 13.733 13.733 0 00-.297-1.69 1.588 1.588 0 00-.491-.708 2.247 2.247 0 00-1.124-.408h-.047a2.244 2.244 0 00-1.124.408 1.594 1.594 0 00-.491.708 13.656 13.656 0 00-.298 1.69 5.945 5.945 0 01-.147.93c-.112.316-.25.623-.412.916.177-.134.376-.469.376-.469zm2.035 8.074c0-.803-.883-4.2-.883-4.2s-.635-1.063-1.887-1.393a4.218 4.218 0 01-1.196-.556 1.082 1.082 0 01-.068-.48l-.401-.063c0-.036-.035-.556-.035-.556.483-.165.433-1.141.433-1.141.306.173.506-.599.506-.599.362-1.072-.18-1.008-.18-1.008a6.895 6.895 0 000-1.976C17.828 8.1 14.195 8.69 14.626 9.4c-1.061-.2-.819 2.267-.819 2.267l.23.638c-.452.3-.138.662-.122 1.079.022.616.39.488.39.488.023 1.016.513 1.15.513 1.15.092.637.035.527.035.527l-.436.054c.006.145-.006.29-.035.433-.514.234-.624.37-1.134.599-.986.44-2.057 1.014-2.247 1.786-.19.773-.757 3.825-.757 3.825h11.537zm-9.451-7.668c.04.062.075.129.103.198-.023 0-.264.115-.264.115l-.935.3.013.452c.178.073.334.19.452.341.045.1.1.196.165.285-.852.353-1.634.87-1.654 1.449-.014.102-.53 1.998-.56 2.425h-3.65c-.003-.018.118-2.47.12-2.489 0 0 .225-.59.583-.65.356-.046.699-.161 1.01-.338.206-.122.423-.224.649-.304a.99.99 0 00.261-.378c.119-.151.274-.268.452-.34l.014-.454-.935-.298s-.241-.115-.265-.115c.037-.08.08-.157.129-.23.017-.049.106-.379.106-.379a2.424 2.424 0 01-.477.47c.16-.303.296-.619.408-.944.075-.3.127-.606.156-.914.064-.573.164-1.14.299-1.701a1.6 1.6 0 01.494-.713 2.261 2.261 0 011.132-.41h.047c.407.032.798.174 1.132.41.226.188.397.434.494.713.135.56.235 1.128.3 1.701.024.315.074.628.148.936.112.318.25.627.415.923a2.432 2.432 0 01-.474-.473s.114.363.132.412z" fill="#fff"/></svg>