<svg width="17" height="17" fill="none" xmlns="http://www.w3.org/2000/svg"><path d="M8.17.21a.7.7 0 01.7 0l3.02 1.744a.7.7 0 01.35.606v3.488a.7.7 0 01-.35.606L8.87 8.398a.7.7 0 01-.7 0L5.148 6.654a.7.7 0 01-.35-.606V2.56a.7.7 0 01.35-.606L8.169.21zM3.403 8.38a.7.7 0 01.7 0l3.02 1.745a.7.7 0 01.35.606v3.488a.7.7 0 01-.35.606l-3.02 1.744a.7.7 0 01-.7 0l-3.02-1.744a.7.7 0 01-.35-.606V10.73a.7.7 0 01.35-.606l3.02-1.744zM16.829 10.73a.7.7 0 00-.35-.605l-3.02-1.744a.7.7 0 00-.7 0l-3.021 1.744a.7.7 0 00-.35.606v3.488a.7.7 0 00.35.606l3.02 1.744a.7.7 0 00.7 0l3.021-1.744a.7.7 0 00.35-.606V10.73z" fill="#ACB2B8"/></svg>