<svg width="23" height="23" viewBox="0 0 23 23" fill="none" xmlns="http://www.w3.org/2000/svg">
<path d="M11.934 2.21254C12.1565 2.0841 12.4306 2.0841 12.653 2.21254L15.7556 4.00381C15.9781 4.13225 16.1151 4.36962 16.1151 4.6265V8.20903C16.1151 8.46591 15.9781 8.70328 15.7556 8.83172L12.653 10.623C12.4306 10.7514 12.1565 10.7514 11.934 10.623L8.83144 8.83172C8.60898 8.70328 8.47193 8.46591 8.47193 8.20903V4.6265C8.47193 4.36962 8.60898 4.13225 8.83144 4.00381L11.934 2.21254Z" fill="#ABB1B8"/>
<path d="M7.03788 10.6053C7.26034 10.4768 7.53443 10.4768 7.7569 10.6053L10.8595 12.3966C11.0819 12.525 11.219 12.7624 11.219 13.0192V16.6018C11.219 16.8587 11.0819 17.096 10.8595 17.2245L7.7569 19.0157C7.53443 19.1442 7.26034 19.1442 7.03788 19.0157L3.93532 17.2245C3.71285 17.096 3.57581 16.8587 3.57581 16.6018V13.0192C3.57581 12.7624 3.71285 12.525 3.93532 12.3966L7.03788 10.6053Z" fill="#ABB1B8"/>
<path d="M20.829 13.0192C20.829 12.7624 20.692 12.525 20.4695 12.3966L17.3669 10.6053C17.1445 10.4768 16.8704 10.4768 16.6479 10.6053L13.5453 12.3966C13.3229 12.525 13.1858 12.7624 13.1858 13.0192V16.6018C13.1858 16.8587 13.3229 17.096 13.5453 17.2245L16.6479 19.0157C16.8704 19.1442 17.1445 19.1442 17.3669 19.0157L20.4695 17.2245C20.692 17.096 20.829 16.8587 20.829 16.6018V13.0192Z" fill="#ABB1B8"/>
</svg>
