<svg width="24" height="21" viewBox="0 0 24 21" fill="none" xmlns="http://www.w3.org/2000/svg">
	<path fill-rule="evenodd" clip-rule="evenodd" d="M16.2949 17.9069V8.98447C16.2949 8.91423 16.3035 8.84426 16.3206 8.77611C16.4356 8.31582 16.9021 8.03596 17.3624 8.15103L21.3715 9.15331C21.7539 9.24891 22.0222 9.59254 22.0222 9.98675V17.9069H23.454V20.7705H0.544922V17.9069H1.97674V4.03727C1.97674 3.33515 2.48585 2.73662 3.17887 2.62399L13.2016 0.995105C13.2775 0.982763 13.3544 0.976562 13.4313 0.976562C14.2221 0.976563 14.8631 1.61761 14.8631 2.40838V17.9069H16.2949ZM6.2722 17.9069H10.5677V13.6114H6.2722V17.9069ZM20.5904 12.4311H17.7267V15.2947H20.5904V12.4311ZM11.9995 5.02053H9.13583V7.88417H11.9995V5.02053ZM7.70401 5.02053H4.84038V7.88417H7.70401V5.02053ZM11.9995 9.31599H9.13583V12.1796H11.9995V9.31599ZM7.70401 9.31599H4.84038V12.1796H7.70401V9.31599Z" fill="white"/>
</svg>