<svg width="24" height="24" viewBox="0 0 24 24" fill="none" xmlns="http://www.w3.org/2000/svg">
<path fill-rule="evenodd" clip-rule="evenodd" d="M19 5.83755L19 18.1625C19 18.6232 18.6365 19 18.1919 19L5.80813 19C5.36355 19 5 18.6232 5 18.1625L5 5.83754C5 5.37678 5.36355 5 5.80813 5L18.1919 5C18.6365 5 19 5.37678 19 5.83755ZM15.5831 7.14001C15.086 7.14001 14.6831 7.54296 14.6831 8.04001L14.6831 15.0992C14.6831 15.5963 15.086 15.9992 15.5831 15.9992C16.0802 15.9992 16.4831 15.5963 16.4831 15.0992L16.4831 8.04001C16.4831 7.54296 16.0802 7.14001 15.5831 7.14001ZM11.1001 8.04001C11.1001 7.54296 11.503 7.14001 12.0001 7.14001C12.4972 7.14001 12.9001 7.54296 12.9001 8.04001L12.9001 11.1C12.9001 11.5971 12.4972 12 12.0001 12C11.503 12 11.1001 11.5971 11.1001 11.1L11.1001 8.04001ZM8.41758 7.14001C7.92052 7.14001 7.51758 7.54296 7.51758 8.04001L7.51758 12.744C7.51758 13.241 7.92052 13.644 8.41758 13.644C8.91463 13.644 9.31758 13.241 9.31758 12.744L9.31758 8.04001C9.31758 7.54296 8.91463 7.14001 8.41758 7.14001Z" fill="#525C69"/>
</svg>
