<svg width="14" height="14" viewBox="0 0 14 14" fill="none" xmlns="http://www.w3.org/2000/svg">
<path fill-rule="evenodd" clip-rule="evenodd" d="M9.77922 3.09643C9.77922 3.5019 9.43686 3.83307 9.01767 3.83307H2.90079C2.48216 3.83307 2.13924 3.5019 2.13924 3.09643V3.05873C2.13924 2.65326 2.48216 2.32209 2.90079 2.32209H9.01767C9.43686 2.32209 9.77922 2.65326 9.77922 3.05873V3.09643ZM8.44945 6.38129C8.44945 6.78677 8.10709 7.11794 7.68846 7.11794H2.90039C2.48176 7.11794 2.13829 6.78677 2.13829 6.38129V6.34306C2.13829 5.93759 2.48176 5.60642 2.90039 5.60642H7.68846C8.10709 5.60642 8.44945 5.93759 8.44945 6.34306V6.38129ZM8.44935 9.66496C8.44935 10.0704 8.10699 10.4016 7.68836 10.4016H2.90029C2.48166 10.4016 2.13818 10.0704 2.13818 9.66496V9.62727C2.13818 9.22179 2.48166 8.89062 2.90029 8.89062H7.68836C8.10699 8.89062 8.44935 9.22179 8.44935 9.62727V9.66496ZM13.1625 0H0.837545C0.376783 0 0 0.363549 0 0.808127V13.1919C0 13.6365 0.376783 14 0.837545 14H13.1625C13.6232 14 14 13.6365 14 13.1919V0.808127C14 0.363549 13.6232 0 13.1625 0Z" fill="#525C69"/>
</svg>
