<svg width="16" height="16" viewBox="0 0 16 16" fill="none" xmlns="http://www.w3.org/2000/svg">
<path d="M7.49071 7.31234H8.61332C8.83943 7.31234 9.02272 7.49443 9.02272 7.71905V8.83429C9.02272 9.05891 8.83943 9.241 8.61332 9.241H7.49071C7.2646 9.241 7.08131 9.05891 7.08131 8.83429V7.71905C7.08131 7.49443 7.2646 7.31234 7.49071 7.31234Z" fill="#525C69"/>
<path d="M5.70208 7.31256H4.57947C4.35336 7.31256 4.17007 7.49465 4.17007 7.71927V8.83451C4.17007 9.05913 4.35336 9.24122 4.57947 9.24122H5.70208C5.92818 9.24122 6.11148 9.05913 6.11148 8.83451V7.71927C6.11148 7.49465 5.92818 7.31256 5.70208 7.31256Z" fill="#525C69"/>
<path d="M5.70113 10.2054H4.57852C4.35242 10.2054 4.16912 10.3874 4.16912 10.6121V11.7273C4.16912 11.9519 4.35242 12.134 4.57852 12.134H5.70113C5.92724 12.134 6.11054 11.9519 6.11054 11.7273V10.6121C6.11054 10.3874 5.92724 10.2054 5.70113 10.2054Z" fill="#525C69"/>
<path d="M8.61332 10.2054H7.49071C7.2646 10.2054 7.08131 10.3874 7.08131 10.6121V11.7273C7.08131 11.9519 7.2646 12.134 7.49071 12.134H8.61332C8.83943 12.134 9.02272 11.9519 9.02272 11.7273V10.6121C9.02272 10.3874 8.83943 10.2054 8.61332 10.2054Z" fill="#525C69"/>
<path d="M10.4029 7.31234H11.5255C11.7516 7.31234 11.9349 7.49443 11.9349 7.71905V8.83429C11.9349 9.05891 11.7516 9.241 11.5255 9.241H10.4029C10.1768 9.241 9.99349 9.05891 9.99349 8.83429V7.71905C9.99349 7.49443 10.1768 7.31234 10.4029 7.31234Z" fill="#525C69"/>
<path fill-rule="evenodd" clip-rule="evenodd" d="M12.6486 2.691V2.15946H13.8308C14.9103 2.2275 15.7467 3.16407 15.7272 4.28562V14.9164C15.7272 15.5032 15.2685 15.9795 14.701 15.9795H1.30482C0.738359 15.9795 0.278619 15.5032 0.278619 14.9164V4.28562C0.274514 4.23034 0.272461 4.17612 0.272461 4.12191C0.274514 3.03544 1.12627 2.15734 2.17505 2.15946H3.35724V2.691C3.35724 3.57123 4.04582 4.28562 4.89654 4.28562C5.74727 4.28562 6.43585 3.57123 6.43585 2.691V2.15946H9.56997V2.691C9.56997 3.57123 10.2596 4.28562 11.1093 4.28562C11.959 4.28562 12.6486 3.57123 12.6486 2.691ZM13.6748 13.8533H2.33106V5.40898H13.6748V13.8533Z" fill="#525C69"/>
<path d="M5.65071 1.31111V2.4805C5.65071 2.91211 5.31308 3.26186 4.89644 3.26186C4.4798 3.26186 4.14218 2.91211 4.14218 2.4805V1.31111L4.14771 1.20959C4.19329 0.822058 4.51469 0.522459 4.90157 0.524424C5.31821 0.527623 5.65275 0.879503 5.65071 1.31111Z" fill="#525C69"/>
<path d="M11.8215 1.33979V2.44858C11.8215 2.85574 11.5024 3.18636 11.1083 3.18636C10.7142 3.1853 10.3971 2.85468 10.3971 2.44752V1.33979C10.3971 0.931569 10.7163 0.602013 11.1093 0.602013C11.5024 0.602013 11.8215 0.931569 11.8215 1.33979Z" fill="#525C69"/>
</svg>
