<svg width="62" height="62" viewBox="0 0 62 62" fill="none" xmlns="http://www.w3.org/2000/svg">
	<g clip-path="url(#clip0_5747_591848)">
		<g filter="url(#filter0_d_5747_591848)">
			<rect x="1" y="1" width="60" height="60" rx="16" fill="white"/>
		</g>
		<g filter="url(#filter1_d_5747_591848)">
			<path fill-rule="evenodd" clip-rule="evenodd" d="M45.2916 18.5848L34.5292 12.2751C32.3476 10.996 29.6524 10.996 27.4708 12.2751L16.7084 18.5848C14.5328 19.8604 13.2222 22.1958 13.2222 24.6902V37.3098C13.2222 39.8042 14.5328 42.1396 16.7084 43.4152L27.4708 49.7249C29.6524 51.004 32.3476 51.004 34.5292 49.7249L45.2916 43.4152C47.4672 42.1396 48.7778 39.8042 48.7778 37.3098V24.6902C48.7778 22.1958 47.4672 19.8604 45.2916 18.5848ZM35.6188 10.2567C32.7607 8.58109 29.2393 8.58109 26.3812 10.2567L15.6188 16.5665C12.7607 18.2422 11 21.3389 11 24.6902V37.3098C11 40.6611 12.7607 43.7578 15.6188 45.4335L26.3812 51.7433C29.2393 53.4189 32.7607 53.4189 35.6188 51.7433L46.3812 45.4335C49.2393 43.7578 51 40.6611 51 37.3098V24.6902C51 21.3389 49.2393 18.2422 46.3812 16.5665L35.6188 10.2567Z" fill="url(#paint0_linear_5747_591848)"/>
		</g>
		<g filter="url(#filter2_d_5747_591848)">
			<path fill-rule="evenodd" clip-rule="evenodd" d="M37.4355 34.5126C37.1339 34.3059 36.7905 34.1709 36.4589 34.0243C35.5255 33.6076 34.5905 33.2009 33.6555 32.7909C33.4539 32.7026 33.3022 32.5476 33.2189 32.3259C33.1255 32.0826 33.0455 31.8343 32.9672 31.5859C32.9022 31.3726 32.9405 31.1926 33.0989 31.0376C33.1905 30.9493 33.2589 30.8326 33.3339 30.7243C33.9172 29.8759 34.2572 28.9226 34.3672 27.8526C34.4555 26.9959 34.4639 26.1509 34.2822 25.3109C34.0472 24.2059 33.5239 23.3543 32.5455 22.9359C31.8722 22.6476 31.1772 22.6009 30.4672 22.7476C29.3105 22.9876 28.5589 23.7376 28.2022 24.9826C27.9155 25.9826 27.9255 27.0109 28.0555 28.0393C28.2072 29.2259 28.6589 30.2509 29.3755 31.1376C29.4339 31.2109 29.4722 31.3293 29.4755 31.4293C29.4889 32.0476 29.1172 32.6426 28.5289 32.9043C27.5439 33.3409 26.5622 33.7826 25.5639 34.1793C24.8022 34.4843 24.3155 35.0559 24.1405 35.9159C24.0139 36.5359 23.9822 37.1809 23.9005 37.8126C23.8705 38.0459 23.9555 38.1943 24.1339 38.2876C24.3372 38.3926 24.5389 38.5076 24.7505 38.5859C25.8672 38.9943 27.0289 39.1143 28.1905 39.1993C29.1839 39.2693 30.1789 39.2793 31.4622 39.3293C32.4189 39.2709 33.6639 39.2259 34.9022 39.1143C35.6439 39.0476 36.3805 38.8976 37.1139 38.7443C37.5572 38.6509 37.9922 38.4926 38.3722 38.1943C38.4672 38.1193 38.5189 38.0443 38.5055 37.9093C38.4389 37.3009 38.4072 36.6859 38.3039 36.0859C38.1972 35.4493 37.9505 34.8659 37.4355 34.5126ZM25.7789 31.3082C25.8405 31.1199 25.8789 30.8916 25.8122 30.8199C25.0105 29.9332 25.2089 29.7499 25.1055 27.7199C25.0405 26.4166 25.1572 25.3432 25.3855 24.5516C24.8022 24.3449 24.2039 24.3049 23.5889 24.4182C22.5455 24.6116 21.8689 25.2132 21.5489 26.2149C21.2889 27.0182 21.2972 27.8449 21.4172 28.6716C21.5522 29.6249 21.9605 30.4499 22.6055 31.1616C22.6589 31.2199 22.6922 31.3166 22.6939 31.3966C22.7089 31.8932 22.3722 32.3716 21.8439 32.5816C20.9555 32.9332 20.0689 33.2882 19.1705 33.6082C18.4855 33.8516 18.0455 34.3099 17.8872 35.0032C17.7739 35.5016 17.7455 36.0199 17.6722 36.5282C17.6439 36.7149 17.7222 36.8349 17.8822 36.9082C18.0655 36.9932 18.2455 37.0866 18.4372 37.1499C18.9789 37.3249 19.5322 37.4299 20.0889 37.5032C19.9989 37.4149 19.9422 37.3049 19.9672 37.1466C20.0572 36.5149 20.0939 35.8699 20.2355 35.2499C20.4322 34.3899 20.9772 33.8182 21.8305 33.5132C22.9489 33.1166 24.0522 32.6749 25.1555 32.2382C25.8122 31.9782 25.7155 31.4982 25.7789 31.3082ZM44.4521 35.0032C44.2938 34.3099 43.8571 33.8516 43.1688 33.6082C42.2704 33.2882 41.3854 32.9332 40.4988 32.5816C39.9688 32.3716 39.6321 31.8932 39.6454 31.3966C39.6488 31.3166 39.6838 31.2199 39.7354 31.1616C40.3821 30.4499 40.7888 29.6249 40.9254 28.6716C41.0421 27.8449 41.0504 27.0182 40.7938 26.2149C40.4721 25.2132 39.7938 24.6116 38.7521 24.4182C38.1388 24.3049 37.5388 24.3449 36.9554 24.5516C37.1854 25.3432 37.3021 26.4166 37.2354 27.7199C37.1321 29.7499 37.3321 29.9332 36.5271 30.8199C36.4621 30.8916 36.4988 31.1199 36.5638 31.3082C36.6271 31.4982 36.5271 31.9782 37.1871 32.2382C38.2904 32.6749 39.3921 33.1166 40.5104 33.5132C41.3621 33.8182 41.9088 34.3899 42.1054 35.2499C42.2471 35.8699 42.2838 36.5149 42.3754 37.1466C42.3988 37.3049 42.3404 37.4149 42.2521 37.5032C42.8104 37.4299 43.3638 37.3249 43.9038 37.1499C44.0938 37.0866 44.2754 36.9932 44.4588 36.9082C44.6188 36.8349 44.6954 36.7149 44.6688 36.5282C44.5954 36.0199 44.5654 35.5016 44.4521 35.0032Z" fill="url(#paint1_linear_5747_591848)"/>
		</g>
	</g>
	<defs>
		<filter id="filter0_d_5747_591848" x="-1" y="0" width="64" height="64" filterUnits="userSpaceOnUse" color-interpolation-filters="sRGB">
			<feFlood flood-opacity="0" result="BackgroundImageFix"/>
			<feColorMatrix in="SourceAlpha" type="matrix" values="0 0 0 0 0 0 0 0 0 0 0 0 0 0 0 0 0 0 127 0" result="hardAlpha"/>
			<feOffset dy="1"/>
			<feGaussianBlur stdDeviation="1"/>
			<feComposite in2="hardAlpha" operator="out"/>
			<feColorMatrix type="matrix" values="0 0 0 0 0 0 0 0 0 0 0 0 0 0 0 0 0 0 0.05 0"/>
			<feBlend mode="normal" in2="BackgroundImageFix" result="effect1_dropShadow_5747_591848"/>
			<feBlend mode="normal" in="SourceGraphic" in2="effect1_dropShadow_5747_591848" result="shape"/>
		</filter>
		<filter id="filter1_d_5747_591848" x="-0.3" y="-2.3" width="62.6" height="66.6" filterUnits="userSpaceOnUse" color-interpolation-filters="sRGB">
			<feFlood flood-opacity="0" result="BackgroundImageFix"/>
			<feColorMatrix in="SourceAlpha" type="matrix" values="0 0 0 0 0 0 0 0 0 0 0 0 0 0 0 0 0 0 127 0" result="hardAlpha"/>
			<feOffset/>
			<feGaussianBlur stdDeviation="5.65"/>
			<feComposite in2="hardAlpha" operator="out"/>
			<feColorMatrix type="matrix" values="0 0 0 0 0 0 0 0 0 0 0 0 0 0 0 0 0 0 0.05 0"/>
			<feBlend mode="normal" in2="BackgroundImageFix" result="effect1_dropShadow_5747_591848"/>
			<feBlend mode="normal" in="SourceGraphic" in2="effect1_dropShadow_5747_591848" result="shape"/>
		</filter>
		<filter id="filter2_d_5747_591848" x="-0.3" y="-0.3" width="62.6" height="62.6" filterUnits="userSpaceOnUse" color-interpolation-filters="sRGB">
			<feFlood flood-opacity="0" result="BackgroundImageFix"/>
			<feColorMatrix in="SourceAlpha" type="matrix" values="0 0 0 0 0 0 0 0 0 0 0 0 0 0 0 0 0 0 127 0" result="hardAlpha"/>
			<feOffset/>
			<feGaussianBlur stdDeviation="5.65"/>
			<feComposite in2="hardAlpha" operator="out"/>
			<feColorMatrix type="matrix" values="0 0 0 0 0 0 0 0 0 0 0 0 0 0 0 0 0 0 0.05 0"/>
			<feBlend mode="normal" in2="BackgroundImageFix" result="effect1_dropShadow_5747_591848"/>
			<feBlend mode="normal" in="SourceGraphic" in2="effect1_dropShadow_5747_591848" result="shape"/>
		</filter>
		<linearGradient id="paint0_linear_5747_591848" x1="15.7059" y1="15.1111" x2="42.141" y2="42.0791" gradientUnits="userSpaceOnUse">
			<stop stop-color="#1BCE42"/>
			<stop offset="0.54" stop-color="#BBED21"/>
			<stop offset="1" stop-color="#26D357"/>
		</linearGradient>
		<linearGradient id="paint1_linear_5747_591848" x1="20.8439" y1="24.9809" x2="29.2983" y2="40.3584" gradientUnits="userSpaceOnUse">
			<stop stop-color="#1BCE42"/>
			<stop offset="0.54" stop-color="#00B65F"/>
			<stop offset="1" stop-color="#26D357"/>
		</linearGradient>
		<clipPath id="clip0_5747_591848">
			<rect width="62" height="62" fill="white"/>
		</clipPath>
	</defs>
</svg>
