<svg xmlns="http://www.w3.org/2000/svg" viewBox="0 0 40 40"><path fill="#fff" fill-rule="nonzero" d="M25.0815454,31.520732 L16.089845,31.520732 C15.8897842,33.3304236 14.355534,34.7379795 12.4925316,34.7379795 C10.6295291,34.7379795 9.09527894,33.3304236 8.89522021,31.5207509 L7,31.520732 C5.8954305,31.520732 5,30.6253015 5,29.520732 L5,11 C5,9.8954305 5.8954305,9 7,9 L21.4991727,9 C22.6037422,9 23.4991727,9.8954305 23.4991727,11 L23.4991727,13.7476641 L27.4705201,13.7328229 C28.8163383,13.7277936 30.0744723,14.3998818 30.8185394,15.5213166 L35.5638506,22.6733016 L35.5638506,29.520732 C35.5638506,30.6253015 34.6684201,31.520732 33.5638506,31.520732 L32.2761723,31.520732 C32.0761115,33.3304236 30.5418613,34.7379795 28.6788589,34.7379795 C26.8158564,34.7379795 25.2816063,33.3304236 25.0815475,31.5207509 L25.0815454,31.520732 Z M28.6788589,32.8156741 C29.6161402,32.8156741 30.3759569,32.0558575 30.3759569,31.1185761 C30.3759569,30.1812948 29.6161402,29.4214781 28.6788589,29.4214781 C27.7415775,29.4214781 26.9817609,30.1812948 26.9817609,31.1185761 C26.9817609,32.0558575 27.7415775,32.8156741 28.6788589,32.8156741 Z M12.4925316,32.8159745 C13.4299788,32.8159745 14.1899299,32.0560233 14.1899299,31.1185761 C14.1899299,30.1811289 13.4299788,29.4211778 12.4925316,29.4211778 C11.5550843,29.4211778 10.7951332,30.1811289 10.7951332,31.1185761 C10.7951332,32.0560233 11.5550843,32.8159745 12.4925316,32.8159745 Z M25.1077965,17.0431186 L25.1077965,21.8689897 L31.6719485,21.8689897 L28.5832361,17.0431186 L25.1077965,17.0431186 Z"/></svg>
