<svg xmlns="http://www.w3.org/2000/svg" viewBox="0 0 47 47"><path fill="#fff" fill-rule="nonzero" d="M42.7439841,24.4917387 C44.1802351,25.8090681 44.1802351,28.2012878 42.7439841,29.5186172 L30.7759918,41.4866096 C30.0578663,42.204735 29.0995996,42.5637978 28.2625524,42.5637978 C27.4255054,42.5637978 26.4672387,42.204735 25.7491132,41.4866096 L7.79597572,23.533472 C7.07785022,22.9342681 6.71878747,21.9782995 6.71878747,21.0200328 L6.71878747,9.05204043 C6.71878747,7.01658551 8.27396006,5.46141293 10.309415,5.46141293 L22.2774073,5.46141293 C23.235674,5.46141293 24.1916427,5.82047568 24.7908466,6.53860118 L42.7439841,24.4917387 Z M15.6706527,17.4541088 C17.3435473,17.4541088 18.7114834,16.0861728 18.7114834,14.4132782 C18.7114834,12.7403836 17.3435473,11.3724475 15.6706527,11.3724475 C13.9977581,11.3724475 12.6298221,12.7403836 12.6298221,14.4132782 C12.6298221,16.0861728 13.9977581,17.4541088 15.6706527,17.4541088 Z M29.4018435,33.6951737 L30.8959053,33.3372978 L27.5237648,20.7207604 L26.0224821,21.0858571 L29.4018435,33.6951737 Z M20.5145002,30.0212113 C20.8225917,30.3293028 21.1715963,30.557961 21.5615246,30.7071928 C21.9514528,30.8564246 22.3534099,30.9262255 22.7674078,30.9165977 C23.1814058,30.9069698 23.5881766,30.8179134 23.9877328,30.6494259 C24.3872889,30.4809384 24.7507351,30.2330248 25.0780823,29.9056776 C25.4006156,29.5831443 25.6461223,29.2221051 25.8146098,28.8225489 C25.9830973,28.4229928 26.0721536,28.0162219 26.0817816,27.602224 C26.0914094,27.1882261 26.0228119,26.7850655 25.8759871,26.3927303 C25.7291622,26.0003951 25.5017075,25.650187 25.193616,25.3420955 C24.8903385,25.038818 24.5425374,24.8137701 24.1502021,24.6669453 C23.7578669,24.5201205 23.3571133,24.4539299 22.9479293,24.4683717 C22.5387453,24.4828136 22.1343813,24.5742768 21.7348252,24.7427643 C21.335269,24.9112518 20.9742298,25.1567585 20.6516965,25.4792918 C20.3243493,25.806639 20.0764357,26.1700852 19.9079482,26.5696413 C19.7394607,26.9691975 19.6479974,27.3735614 19.6335556,27.7827454 C19.6191138,28.1919294 19.6865078,28.5914795 19.8357396,28.9814078 C19.9849714,29.371336 20.2112227,29.7179338 20.5145002,30.0212113 Z M21.8575797,28.6781318 C21.6842783,28.5048303 21.5470834,28.3170899 21.4459909,28.1149049 C21.3448983,27.9127199 21.2835217,27.7093344 21.261859,27.5047424 C21.2401964,27.3001504 21.2558414,27.1039857 21.3087946,26.9162425 C21.3617478,26.7284993 21.4580249,26.5648281 21.5976289,26.4252242 C21.7324189,26.2904342 21.8936832,26.196564 22.0814264,26.1436107 C22.2691696,26.0906574 22.4653343,26.0750125 22.6699262,26.0966752 C22.8745182,26.1183378 23.0791072,26.178511 23.2836992,26.2771966 C23.4882912,26.3758821 23.677235,26.5118735 23.8505365,26.685175 C24.023838,26.8584765 24.1598294,27.0474204 24.258515,27.2520124 C24.3572005,27.4566043 24.4173737,27.6611933 24.4390364,27.8657853 C24.4606991,28.0703773 24.445054,28.266542 24.3921008,28.4542852 C24.3391476,28.6420284 24.2452774,28.8032926 24.1104873,28.9380827 C23.9708835,29.0776866 23.8072123,29.1739637 23.619469,29.226917 C23.4317258,29.2798701 23.2355612,29.2955152 23.0309692,29.2738525 C22.8263772,29.2521898 22.6229917,29.1908132 22.4208066,29.0897207 C22.2186216,28.9886282 22.0308812,28.8514332 21.8575797,28.6781318 Z M31.4863028,28.1910147 C31.7895804,28.4942922 32.1349746,28.7217469 32.5224959,28.8733857 C32.9100172,29.0250244 33.3095673,29.0972323 33.7211583,29.0900114 C34.1327492,29.0827906 34.5383167,28.9949377 34.9378727,28.8264501 C35.3374289,28.6579626 35.7008751,28.4100489 36.0282223,28.0827017 C36.3507555,27.7601685 36.5962622,27.3991292 36.7647497,26.9995731 C36.9332373,26.600017 37.0222937,26.1932461 37.0319215,25.7792482 C37.0415494,25.3652502 36.9717485,24.9632932 36.8225166,24.5733649 C36.6732848,24.1834366 36.4470335,23.8368389 36.143756,23.5335614 C35.8356645,23.2254699 35.4866599,22.9968117 35.0967317,22.8475799 C34.7068033,22.6983481 34.3048463,22.6285471 33.8908484,22.6381751 C33.4768505,22.6478029 33.0700795,22.7368592 32.6705235,22.9053468 C32.2709673,23.0738343 31.9099281,23.319341 31.5873948,23.6418743 C31.2600476,23.9692215 31.012134,24.3326677 30.8436465,24.7322238 C30.6751589,25.1317799 30.587306,25.5373474 30.5800851,25.9489383 C30.5728643,26.3605293 30.6450721,26.7600794 30.7967108,27.1476007 C30.9483497,27.535122 31.1782114,27.8829231 31.4863028,28.1910147 Z M32.8293823,26.8479351 C32.6560808,26.6746336 32.5176825,26.4856897 32.414183,26.2810977 C32.3106835,26.0765057 32.2468999,25.8731203 32.2228303,25.6709353 C32.1987606,25.4687503 32.2119987,25.2749925 32.262545,25.0896562 C32.3130912,24.90432 32.408165,24.7418523 32.5477688,24.6022483 C32.6873728,24.4626444 32.8510439,24.3663673 33.0387872,24.313414 C33.2265304,24.2604608 33.4226951,24.2448158 33.6272871,24.2664785 C33.8318791,24.2881412 34.036468,24.3507213 34.24106,24.4542207 C34.445652,24.5577202 34.6345959,24.6961186 34.8078974,24.8694201 C34.9763849,25.0379076 35.1111729,25.2232411 35.2122654,25.4254261 C35.3133579,25.6276111 35.3747346,25.8309966 35.3963972,26.0355886 C35.4180599,26.2401806 35.4024149,26.4363453 35.3494617,26.6240885 C35.2965084,26.8118317 35.2002313,26.9755028 35.0606274,27.1151068 C34.9210234,27.2547108 34.7585558,27.3497844 34.5732195,27.4003307 C34.3878832,27.4508769 34.1941255,27.464115 33.9919404,27.4400454 C33.7897554,27.4159758 33.5875733,27.3533956 33.3853884,27.2523031 C33.1832034,27.1512106 32.9978698,27.0164226 32.8293823,26.8479351 Z"/></svg>
