<svg xmlns:xlink="http://www.w3.org/1999/xlink" viewBox="0 0 28 35" version="1.1" xmlns="http://www.w3.org/2000/svg"><g stroke="none" stroke-width="1" fill="none" fill-rule="evenodd"><path fill="#fff" d="M15.1326956,26.9224441 L15.1326956,24.5371551 C15.6957462,24.0784103 16.056037,23.3775124 16.056037,22.5917012 C16.056037,21.2095605 14.9423496,20.0891308 13.5687409,20.0891308 C12.1950359,20.0891308 11.0813485,21.2095605 11.0813485,22.5917012 C11.0813485,23.3775124 11.4417355,24.0784103 12.0046899,24.5371551 L12.0046899,26.9224441 C12.0046899,27.786219 12.7049179,28.4864469 13.5686928,28.4864469 C14.4324677,28.4864469 15.1326956,27.786219 15.1326956,26.9224441 Z M7.75882097,9.97270571 L7.75882097,13.2843333 L19.3785646,13.2843333 L19.3785646,9.97270571 C19.3785646,6.18859309 17.3296612,4.12096676 13.5686446,4.12096676 C9.80772429,4.12096676 7.75882097,6.18859309 7.75882097,9.97270571 Z M22.977431,13.2843333 L25.897184,13.2843333 C26.5821284,13.2843333 27.1373855,13.8395904 27.1373855,14.5245348 L27.1373855,32.878118 C27.1373855,33.5630624 26.5821284,34.1183195 25.897184,34.1183195 L1.24020151,34.1183195 C0.55525713,34.1183195 -2.35794172e-15,33.5630624 0,32.878118 L1.37690027e-16,14.5245348 C5.16337602e-17,13.8395904 0.55525713,13.2843333 1.24020151,13.2843333 L4.1599545,13.2843333 L4.1599545,9.97270571 C4.1599545,4.18872496 7.82015843,0.5 13.5686446,0.5 C19.3172271,0.5 22.977431,4.18872496 22.977431,9.97270571 L22.977431,13.2843333 Z"/></g></svg>