<?xml version="1.0" encoding="UTF-8"?>
<svg width="39px" height="39px" viewBox="0 0 39 39" version="1.1" xmlns="http://www.w3.org/2000/svg" xmlns:xlink="http://www.w3.org/1999/xlink">
    <g id="03-Финал-(Разное)" stroke="none" stroke-width="1" fill="none" fill-rule="evenodd">
        <g id="Заголовок-и-кнопка-01" transform="translate(-38.000000, -105.000000)">
            <rect id="Rectangle" fill="#FFFFFF" x="0" y="0" width="580" height="975"></rect>
            <g id="Group-5" transform="translate(20.000000, 86.000000)" fill="#2FC6F6" opacity="0.0999348958">
                <g id="Parts-/-Banners-/-Banner-no-icon">
                    <path d="M535,0 C537.761424,-5.07265313e-16 540,2.23857625 540,5 L540,150 C540,152.761424 537.761424,155 535,155 L5,155 C2.23857625,155 3.38176876e-16,152.761424 0,150 L0,5 C-3.38176876e-16,2.23857625 2.23857625,5.07265313e-16 5,0 L535,0 Z" id="Combined-Shape"></path>
                </g>
            </g>
            <g id="Icon-Round" transform="translate(38.000000, 105.000000)">
                <circle id="Oval" fill="#2FC6F6" cx="19.5" cy="19.5" r="19.5"></circle>
                <path d="M22.5076342,24.6722926 C22.5076342,23.9419264 21.599891,23.1076418 19.812335,22.6214654 C19.2067174,22.4438019 18.6310053,22.1682996 18.1057777,21.8048065 C17.9909133,21.7357724 18.0083699,21.0979412 18.0083699,21.0979412 L17.4326512,21.0057734 C17.4326512,20.9539978 17.3834236,20.1891145 17.3834236,20.1891145 C18.0722611,19.9456591 18.0013873,18.5095292 18.0013873,18.5095292 C18.4388497,18.7647351 18.7237414,17.6282427 18.7237414,17.6282427 C19.2411551,16.049271 18.466082,16.1447437 18.466082,16.1447437 C18.601678,15.1808198 18.601678,14.2011565 18.466082,13.2372325 C18.1214887,10.0396312 12.9333869,10.9076984 13.5485575,11.952023 C12.0322771,11.6582608 12.378267,15.2869581 12.378267,15.2869581 L12.7071493,16.2266299 C12.0612551,16.6672732 12.5102389,17.2000843 12.5325833,17.8133129 C12.5643543,18.7188348 13.0911945,18.5311942 13.0911945,18.5311942 C13.1236638,20.0257093 13.8243718,20.2203267 13.8243718,20.2203267 C13.9559946,21.1588969 13.8739485,20.9991637 13.8739485,20.9991637 L13.2503987,21.0784795 C13.2588398,21.2919204 13.2423067,21.5056434 13.2011711,21.7148418 C12.4679939,22.0585436 12.3101862,22.2601379 11.5815477,22.5961284 C10.1738474,23.2449756 8.64395087,24.0888074 8.37197703,25.2249327 C8.10000319,26.3610579 8,28 8,28 L23,28 L22.5076342,24.6722926 Z" id="Shape_2_copy_4" fill="#FFFFFF"></path>
                <g id="Group" stroke-width="1" transform="translate(21.000000, 9.000000)" fill="#FFFFFF">
                    <rect id="Rectangle" x="1" y="2" width="10" height="2" rx="1"></rect>
                    <rect id="Rectangle" x="1" y="6" width="10" height="2" rx="1"></rect>
                    <rect id="Rectangle" x="1" y="10" width="10" height="2" rx="1"></rect>
                </g>
            </g>
            <g id="Icons-/-·-Set-2-/-Icon-12" transform="translate(46.000000, 117.000000)"></g>
        </g>
        <g id="Group-14" transform="translate(-42.000000, -3696.000000)"></g>
    </g>
</svg>