<svg width="867" height="500" viewBox="0 0 867 500" fill="none" xmlns="http://www.w3.org/2000/svg">
<path fill-rule="evenodd" clip-rule="evenodd" d="M0 0L867 0L867 500L0 500L0 0Z"/>
<mask id="mask0" mask-type="alpha" maskUnits="userSpaceOnUse" x="0" y="0" width="867" height="500">
<path fill-rule="evenodd" clip-rule="evenodd" d="M0 0L867 0L867 500L0 500L0 0Z" fill="white"/>
</mask>
<g mask="url(#mask0)">
<g opacity="0.4">
<path fill-rule="evenodd" clip-rule="evenodd" d="M285.598 250.186C283.354 247.834 281.362 245.454 279.065 243.417C276.767 241.377 274.329 239.391 271.667 237.887C263.757 233.417 255.582 234.528 249.366 240.779C242.184 248.006 243.51 256.416 247.005 264.505C255.466 284.081 270.272 298.687 285.551 313.121C296.635 303.37 306.167 293.011 314.457 281.544C319.562 274.486 324.064 267.09 326.087 258.42C327.936 250.492 326.242 243.838 319.573 238.872C312.911 233.909 305.975 234.207 298.927 238.134C293.592 241.106 289.773 245.759 285.598 250.186M285.525 325.664C266.533 308.666 248.431 291.344 238.211 267.637C233.796 257.397 233.126 246.979 239.959 237.27C247.211 226.965 260.744 223.15 272.478 227.883C277.196 229.785 281.311 232.623 285.383 236.217C289.133 233.572 292.643 230.611 296.821 228.672C307.34 223.789 317.199 224.982 326.162 232.118C334.866 239.048 337.594 248.315 335.444 259.064C333.151 270.526 327.107 280.171 320.301 289.389C310.378 302.829 298.668 314.553 285.525 325.664" fill="white"/>
</g>
<g opacity="0.4">
<path fill-rule="evenodd" clip-rule="evenodd" d="M746.884 47.1628C738.121 37.9784 730.342 28.6853 721.37 20.7294C712.398 12.7645 702.877 5.00817 692.481 -0.866909C661.592 -18.3199 629.669 -13.9816 605.393 10.4299C577.348 38.6493 582.523 71.4927 596.171 103.08C629.215 179.529 687.034 236.566 746.698 292.932C789.984 254.853 827.205 214.398 859.582 169.619C879.517 142.057 897.098 113.176 904.995 79.317C912.216 48.3595 905.603 22.375 879.558 2.98181C853.545 -16.3978 826.457 -15.2373 798.933 0.098671C778.1 11.7038 763.186 29.8775 746.884 47.1628M746.598 341.915C672.432 275.535 601.741 207.89 561.83 115.312C544.589 75.3244 541.972 34.6385 568.657 -3.27293C596.979 -43.5145 649.826 -58.4152 695.647 -39.9332C714.072 -32.5033 730.142 -21.4195 746.045 -7.38458C760.686 -17.7158 774.394 -29.2801 790.709 -36.8506C831.786 -55.9174 870.286 -51.2618 905.289 -23.3914C939.281 3.66746 949.931 39.8563 941.535 81.8341C932.582 126.595 908.982 164.257 882.402 200.256C843.652 252.742 797.921 298.523 746.598 341.915" fill="white"/>
</g>
</g>
</svg>
