<svg xmlns="http://www.w3.org/2000/svg" width="277" height="191" fill="none"><path fill="#FFF5E3" fill-rule="evenodd" d="M199.51 5.566a2.783 2.783 0 1 0 0-5.566 2.783 2.783 0 0 0 0 5.566ZM77.771 42.696a6.034 6.034 0 1 0 0-12.067 6.034 6.034 0 0 0 0 12.067Zm0-3.364a2.67 2.67 0 1 0 0-5.34 2.67 2.67 0 0 0 0 5.34ZM13.344 70.686a8.127 8.127 0 1 0 0-16.253 8.127 8.127 0 0 0 0 16.253Zm0-4.242a3.885 3.885 0 1 0 0-7.77 3.885 3.885 0 0 0 0 7.77Zm224.498 124.324a5.786 5.786 0 1 0-.002-11.572 5.786 5.786 0 0 0 .002 11.572Zm0-3.011a2.775 2.775 0 1 0-.002-5.55 2.775 2.775 0 0 0 .002 5.55Zm-229.465.917H27.72c.147.008.295.013.444.013 4.25.001 7.699-3.538 7.702-7.906.003-3.791-2.588-6.962-6.051-7.738-.345-3.621-3.313-6.452-6.927-6.457-.819 0-1.604.144-2.333.41-1.537-2.271-4.093-3.759-6.988-3.763a8.408 8.408 0 0 0-6.028 2.562 8.88 8.88 0 0 0-2.475 6.87 8.055 8.055 0 0 0-2.695 1.829A8.418 8.418 0 0 0 0 180.362c0 4.517 3.513 8.191 7.885 8.293.162.012.326.019.492.019ZM264.41 44.8h-13.728c-.117 0-.234-.004-.349-.013-3.102-.07-5.595-2.574-5.596-5.654a5.623 5.623 0 0 1 1.682-4.001 5.734 5.734 0 0 1 1.912-1.247 5.91 5.91 0 0 1 1.757-4.684 6.086 6.086 0 0 1 4.277-1.747 6.062 6.062 0 0 1 4.96 2.566 4.994 4.994 0 0 1 1.655-.28c2.565.004 4.672 1.934 4.916 4.403 2.458.529 4.297 2.69 4.295 5.275-.003 2.98-2.449 5.392-5.466 5.39a5.56 5.56 0 0 1-.315-.008ZM70.09 58.629c-30.376 0-55 24.624-55 55 0 30.375 24.625 55 55 55h151.295c30.376 0 55-24.625 55-55 0-30.376-24.624-55-55-55H70.09Z" clip-rule="evenodd"/><g filter="url(#a)" opacity=".5"><rect width="153" height="49" x="79.836" y="103.501" fill="#fff" rx="24.5" shape-rendering="crispEdges"/><ellipse cx="104.889" cy="128.001" fill="#E5F9FF" rx="17.895" ry="17.5"/><path fill="#7FDEFC" d="M113.256 136.564a.881.881 0 0 0 .562-1.007l-.449-2.212c0-.821-1.131-1.758-3.358-2.305a7.77 7.77 0 0 1-2.127-.918c-.143-.077-.121-.794-.121-.794l-.718-.104c0-.058-.061-.918-.061-.918.858-.273.77-1.887.77-1.887.545.286.9-.991.9-.991.645-1.775-.321-1.667-.321-1.667a10.596 10.596 0 0 0 0-3.268c-.429-3.594-6.894-2.618-6.128-1.444-1.889-.331-1.458 3.748-1.458 3.748l.41 1.056c-.568.349-.457.75-.332 1.199.052.186.106.381.114.584.04 1.018.697.807.697.807.04 1.68.913 1.898.913 1.898.164 1.055.062.876.062.876l-.777.089c.01.24-.01.48-.061.715-.452.191-.728.343-1.002.493-.28.154-.557.307-1.017.498-1.754.729-3.379 1.636-3.718 2.913a18.285 18.285 0 0 0-.322 1.632.872.872 0 0 0 .566.958c2.414.883 4.875 1.448 7.79 1.509h1.136c2.906-.06 5.641-.582 8.05-1.46Z"/><path fill="#E6E7E9" d="M129.047 114.347c0-1.157.964-2.096 2.153-2.096h70.643c1.189 0 2.154.939 2.154 2.096 0 1.158-.965 2.096-2.154 2.096H131.2c-1.189 0-2.153-.938-2.153-2.096ZM129.047 124.847c0-1.157.964-2.096 2.153-2.096h52.748c1.19 0 2.154.939 2.154 2.096 0 1.158-.964 2.096-2.154 2.096H131.2c-1.189 0-2.153-.938-2.153-2.096Z"/><rect width="38.533" height="8.909" x="131.969" y="135.797" fill="#E6E7E9" rx="4.455"/></g><g filter="url(#b)"><rect width="171" height="56" x="58.836" y="83.501" fill="#fff" rx="28" shape-rendering="crispEdges"/><circle cx="86.836" cy="111.501" r="20" fill="#F1FBD0"/><path fill="url(#c)" d="m83.427 102.99 12.436 12.436c-4.91 1.931-11.762 5.24-16.858 7.787-2.115 1.057-4.43-1.276-3.36-3.385 2.574-5.078 5.904-11.912 7.782-16.838Z"/><ellipse cx="89.647" cy="109.208" fill="url(#d)" rx="2.25" ry="8.793" transform="rotate(-45 89.647 109.208)"/><mask id="f" width="21" height="22" x="75" y="102" maskUnits="userSpaceOnUse" style="mask-type:alpha"><path fill="url(#e)" d="m83.427 102.99 12.436 12.436c-4.91 1.931-11.762 5.24-16.858 7.787-2.115 1.057-4.43-1.276-3.36-3.385 2.574-5.078 5.904-11.912 7.782-16.838Z"/></mask><g fill-rule="evenodd" clip-rule="evenodd" mask="url(#f)"><path fill="url(#g)" d="M84.4 114.33c-2.921-2.895-4.69-6.105-5.233-7.413l1.8-.747c.453 1.091 2.084 4.078 4.805 6.776 2.728 2.705 5.92 4.565 7.131 5.136l-.832 1.763c-1.373-.648-4.759-2.626-7.672-5.515Z"/><path fill="url(#h)" d="M80.514 118.223c-2.92-2.896-4.691-6.103-5.234-7.41l1.8-.749c.453 1.091 2.086 4.076 4.807 6.775 2.728 2.705 5.92 4.566 7.13 5.138l-.834 1.763c-1.372-.649-4.756-2.628-7.67-5.517Z"/><path fill="url(#i)" d="M77.031 121.515c-2.92-2.896-4.686-6.11-5.227-7.421l1.803-.743c.45 1.092 2.077 4.083 4.797 6.78 2.728 2.704 5.924 4.559 7.136 5.129l-.829 1.765c-1.375-.646-4.766-2.62-7.68-5.51Z"/></g><path fill="#3D93EC" d="m88.316 100.294 1.33.356-.357 1.33-1.33-.357z"/><path fill="#FF4A45" d="M77.406 110.848h1.376v1.376h-1.376zM90.922 101.006l1.33-.356.355 1.329-1.329.356z"/><path fill="#3D93EC" d="m89.647 103.384.973.973-.973.973-.973-.973zM91.994 117.171h1.376v1.376h-1.376z"/><path fill="#FFC34D" d="m96.973 116.076.688 1.192-1.192.688-.688-1.192z"/><path fill="#FF5F5A" d="m95.863 118.87-.356 1.33-1.329-.356.356-1.33z"/><mask id="k" width="17" height="17" x="82" y="99" maskUnits="userSpaceOnUse" style="mask-type:alpha"><path fill="url(#j)" d="M82.948 99.13h15.41l-.134 16.211H95.54s-2.866-.011-7.695-4.763c-3.556-3.5-4.734-6.625-4.734-6.625l-.163-4.824Z"/></mask><g fill-rule="evenodd" clip-rule="evenodd" mask="url(#k)"><path fill="#FF4A45" d="M84.764 99.138c.512.61 1.865 2.223 2.137 4.09.152 1.041-.072 2.254-.38 3.295-.311 1.055-.735 2.024-1.06 2.611l-1.204-.666c.273-.495.66-1.37.944-2.335.29-.978.447-1.961.338-2.706-.212-1.455-1.309-2.776-1.84-3.416l-.104-.126 1.064-.873.105.126Z"/><path fill="#FF5F5A" d="M97.7 108.07c-2.368-.018-5.662.959-8.758 3.722l.916 1.027c2.858-2.551 5.827-3.388 7.832-3.372l.01-1.377Z"/></g><path fill="#398CE2" fill-rule="evenodd" d="M98.25 101.812c.17.584.184 1.626-.788 2.219-.594.363-1.178.288-1.531.238a3.393 3.393 0 0 1-.06-.009l-.111-.016.01.03.065.19c.062.19.145.468.133.768a1.322 1.322 0 0 1-.445.944c-.331.303-.71.369-1.063.308-.267-.047-.535-.173-.729-.264a1.802 1.802 0 0 1-.051-.024c-.452-.211-.792-.342-1.225-.204-.376.121-.56.412-.623.85-.065.46.036.949.126 1.166l-1.131.467c-.166-.402-.305-1.112-.206-1.805.102-.715.483-1.53 1.462-1.843.922-.295 1.657.047 2.114.26.258.121.38.175.473.191.017.003.02.005.02.005.002-.001 0-.004.008-.01.044-.041.046-.06.047-.091.003-.064-.015-.162-.072-.334a5.528 5.528 0 0 0-.032-.093c-.048-.137-.115-.331-.146-.496-.043-.232-.058-.62.253-.933.246-.246.54-.313.78-.321a2.97 2.97 0 0 1 .52.044l.056.008c.33.047.524.05.72-.07a.558.558 0 0 0 .271-.359.958.958 0 0 0-.02-.476l1.175-.34Z" clip-rule="evenodd"/><path fill="#3D93EC" fill-rule="evenodd" d="M94.763 113.728c.374.268.902.447 1.5.191.454-.195.64-.621.728-.923.085-.296.122-.637.151-.911l.005-.044a7.59 7.59 0 0 1 .061-.469c.095.165.195.374.312.622l.007.013c.141.297.318.669.527.94.106.139.259.302.467.405a.939.939 0 0 0 .785.03c.442-.18.639-.557.733-.862.082-.264.114-.568.14-.803l.007-.068c.031-.28.059-.476.113-.62.046-.123.083-.138.105-.147.168-.067.409-.028.732.213.314.234.549.552.617.683l1.088-.559c-.155-.302-.515-.762-.973-1.104-.448-.336-1.156-.673-1.917-.37-.442.177-.675.526-.798.856-.115.309-.154.655-.183.914l-.004.032c-.021.196-.038.348-.062.472a8.133 8.133 0 0 1-.303-.601c-.135-.287-.3-.633-.486-.9-.167-.238-.551-.702-1.153-.589-.533.1-.763.534-.863.836-.098.295-.136.649-.166.927l-.002.017c-.034.315-.061.559-.116.747a.61.61 0 0 1-.058.148c-.083.029-.156.019-.28-.07-.162-.117-.32-.315-.474-.537l-1.004.701c.158.226.417.58.764.83Zm4.06-1.264.006-.006c-.004.003-.006.005-.005.006Zm-1.81-1.162s.003.004.01.008l-.01-.008Z" clip-rule="evenodd"/><path fill="#F8D701" d="m97.695 113.46.973.973-.973.973-.973-.973z"/><path fill="#E6E7E9" d="M113.836 95.897a2.401 2.401 0 0 1 2.407-2.396h78.953a2.4 2.4 0 0 1 2.407 2.396 2.4 2.4 0 0 1-2.407 2.395h-78.953a2.401 2.401 0 0 1-2.407-2.395ZM113.836 107.897a2.402 2.402 0 0 1 2.407-2.396h58.953a2.401 2.401 0 0 1 2.407 2.396 2.4 2.4 0 0 1-2.407 2.395h-58.953a2.401 2.401 0 0 1-2.407-2.395Z"/><rect width="50" height="12" x="113.836" y="119.501" fill="#D3F4FF" rx="6"/></g><defs><linearGradient id="d" x1="89.883" x2="89.162" y1="100.584" y2="118.461" gradientUnits="userSpaceOnUse"><stop stop-color="#DFB02E"/><stop offset=".475" stop-color="#F0C21E"/><stop offset="1" stop-color="#D5A527"/></linearGradient><linearGradient id="g" x1="81.032" x2="90.85" y1="108.547" y2="118.365" gradientUnits="userSpaceOnUse"><stop stop-color="#B095DC"/><stop offset=".969" stop-color="#8E52EC"/></linearGradient><linearGradient id="h" x1="78.636" x2="84.958" y1="113.93" y2="120.991" gradientUnits="userSpaceOnUse"><stop stop-color="#BE95FE"/><stop offset=".969" stop-color="#8E52EC"/></linearGradient><linearGradient id="i" x1="76.281" x2="80.681" y1="118.343" y2="122.993" gradientUnits="userSpaceOnUse"><stop stop-color="#BE95FE"/><stop offset=".969" stop-color="#8E52EC"/></linearGradient><linearGradient id="j" x1="83.392" x2="95.523" y1="102.858" y2="116.008" gradientUnits="userSpaceOnUse"><stop stop-color="#DFB02E"/><stop offset=".475" stop-color="#F0C21E"/><stop offset="1" stop-color="#D5A527"/></linearGradient><radialGradient id="c" cx="0" cy="0" r="1" gradientTransform="matrix(7.958 8.78174 -11.51212 10.43226 81.06 109.515)" gradientUnits="userSpaceOnUse"><stop stop-color="#FFEDAE"/><stop offset=".545" stop-color="#FFE279"/><stop offset="1" stop-color="#FECD20"/></radialGradient><radialGradient id="e" cx="0" cy="0" r="1" gradientTransform="matrix(7.958 8.78174 -11.51212 10.43226 81.06 109.515)" gradientUnits="userSpaceOnUse"><stop stop-color="#FFEDAE"/><stop offset=".545" stop-color="#FFE279"/><stop offset="1" stop-color="#FECD20"/></radialGradient><filter id="a" width="176.08" height="72.08" x="68.296" y="94.231" color-interpolation-filters="sRGB" filterUnits="userSpaceOnUse"><feFlood flood-opacity="0" result="BackgroundImageFix"/><feColorMatrix in="SourceAlpha" result="hardAlpha" values="0 0 0 0 0 0 0 0 0 0 0 0 0 0 0 0 0 0 127 0"/><feOffset dy="2.27"/><feGaussianBlur stdDeviation="5.77"/><feComposite in2="hardAlpha" operator="out"/><feColorMatrix values="0 0 0 0 0.392157 0 0 0 0 0.427451 0 0 0 0 0.482353 0 0 0 0.16 0"/><feBlend in2="BackgroundImageFix" result="effect1_dropShadow_3065_90747"/><feBlend in="SourceGraphic" in2="effect1_dropShadow_3065_90747" result="shape"/></filter><filter id="b" width="194.08" height="79.08" x="47.296" y="74.231" color-interpolation-filters="sRGB" filterUnits="userSpaceOnUse"><feFlood flood-opacity="0" result="BackgroundImageFix"/><feColorMatrix in="SourceAlpha" result="hardAlpha" values="0 0 0 0 0 0 0 0 0 0 0 0 0 0 0 0 0 0 127 0"/><feOffset dy="2.27"/><feGaussianBlur stdDeviation="5.77"/><feComposite in2="hardAlpha" operator="out"/><feColorMatrix values="0 0 0 0 0.392157 0 0 0 0 0.427451 0 0 0 0 0.482353 0 0 0 0.16 0"/><feBlend in2="BackgroundImageFix" result="effect1_dropShadow_3065_90747"/><feBlend in="SourceGraphic" in2="effect1_dropShadow_3065_90747" result="shape"/></filter></defs></svg>