<svg width="40" height="40" viewBox="0 0 40 40" fill="none" xmlns="http://www.w3.org/2000/svg">
<path fill-rule="evenodd" clip-rule="evenodd" d="M29.8441 9.90508C27.6991 7.76016 24.8244 6.5755 21.7629 6.60503C21.2144 6.63963 20.7771 7.07696 20.7721 7.59585C20.7961 8.1438 21.2251 8.57276 21.7439 8.56776C24.3137 8.51351 26.6721 9.47326 28.4741 11.2753C30.2761 13.0773 31.2357 15.4355 31.1804 18.0066C31.1777 18.2952 31.2906 18.5242 31.4622 18.6961C31.6344 18.8681 31.8929 18.9514 32.1532 18.9771C32.7017 18.9424 33.1391 18.5051 33.1441 17.9862C33.1751 14.9261 31.9889 12.05 29.8441 9.90508ZM27.0121 23.6751L30.2736 26.1187C31.2589 26.8674 31.3354 28.3469 30.4261 29.1907C27.0162 32.4492 21.3347 33.7142 13.8553 25.8067C6.37574 17.8991 7.86326 12.2383 11.2731 8.97971C12.1813 8.13618 13.6282 8.27575 14.3195 9.30315L16.6004 12.6391C17.3994 13.8637 16.8947 15.5321 15.6691 16.3501L14.2999 17.2641C13.9852 17.4644 13.8976 17.8844 14.0664 18.2062C15.8371 21.3142 18.3954 24.0379 21.3874 25.9896C21.6857 26.1619 22.1142 26.0729 22.3224 25.7889L23.2892 24.4184C24.1346 23.2239 25.8539 22.8047 27.0121 23.6751ZM22.3254 10.7904C24.1156 10.772 25.7839 11.4496 27.0419 12.7076C28.2999 13.9656 28.9774 15.6339 28.9602 17.4252C28.9552 17.9442 28.5179 18.3816 27.9694 18.4161C27.7526 18.3947 27.5367 18.3317 27.3714 18.2119L27.2782 18.1327C27.1062 17.9606 26.9934 17.7316 26.9961 17.4429C27.0084 16.1727 26.5279 14.9931 25.6421 14.1072C24.7551 13.2202 23.5766 12.7409 22.3064 12.7531C21.7876 12.7581 21.3586 12.3292 21.3346 11.7812C21.3396 11.2623 21.7769 10.825 22.3254 10.7904Z" fill="white"/>
</svg>
