<svg width="40" height="40" viewBox="0 0 40 40" fill="none" xmlns="http://www.w3.org/2000/svg">
<path fill-rule="evenodd" clip-rule="evenodd" d="M21.1526 24.5432V27.4538H18.8473V24.5432C18.4324 24.2051 18.1668 23.6885 18.1668 23.1094C18.1668 22.0908 18.9876 21.265 20 21.265C21.0123 21.265 21.8331 22.0908 21.8331 23.1094C21.8331 23.6885 21.5676 24.2051 21.1526 24.5432V24.5432ZM14.9811 12.7183C14.9811 9.92943 17.2281 7.66862 19.9999 7.66862C22.7717 7.66862 25.0187 9.92943 25.0187 12.7183V16.987H14.9811V12.7183ZM27.6711 16.987V12.7183C27.6711 8.45555 24.2366 5 20 5C15.7634 5 12.3289 8.45555 12.3289 12.7183V16.987H10.5C10.2239 16.987 10 17.2108 10 17.487V31.1044C10 31.3806 10.2239 31.6044 10.5 31.6044H29.5C29.7761 31.6044 30 31.3806 30 31.1044V17.487C30 17.2108 29.7761 16.987 29.5 16.987H27.6711Z" fill="white"/>
</svg>
