<svg width="40" height="40" viewBox="0 0 40 40" fill="none" xmlns="http://www.w3.org/2000/svg">
<path d="M31.8296 30.9945C32.0941 30.8891 32.2428 30.609 32.1879 30.3296L31.4937 26.7943C31.4937 25.6751 30.0032 24.3966 27.068 23.6516C26.0736 23.3794 25.1283 22.9572 24.2659 22.4002C24.0773 22.2944 24.1059 21.3169 24.1059 21.3169L23.1606 21.1757C23.1606 21.0964 23.0798 19.9243 23.0798 19.9243C24.2109 19.5512 24.0945 17.3504 24.0945 17.3504C24.8128 17.7415 25.2806 15.9999 25.2806 15.9999C26.1302 13.5803 24.8575 13.7266 24.8575 13.7266C25.0802 12.2495 25.0802 10.7483 24.8575 9.27113C24.2917 4.3711 15.7728 5.70133 16.783 7.30166C14.2932 6.8515 14.8613 12.4121 14.8613 12.4121L15.4014 13.8521C14.6529 14.3287 14.7998 14.8756 14.964 15.4865C15.0325 15.7412 15.1039 16.0071 15.1147 16.2836C15.1669 17.6712 16.032 17.3836 16.032 17.3836C16.0853 19.6738 17.2358 19.9721 17.2358 19.9721C17.452 21.4104 17.3172 21.1656 17.3172 21.1656L16.2934 21.2871C16.3072 21.6142 16.2801 21.9417 16.2125 22.2623C15.6177 22.5225 15.2535 22.7296 14.8929 22.9347C14.5237 23.1446 14.1584 23.3523 13.5531 23.6128C11.2417 24.6071 8.72961 25.9002 8.28303 27.6412C8.10315 28.3424 7.92838 29.3764 7.78379 30.3612C7.74418 30.631 7.89311 30.8932 8.14642 30.9942C11.4365 32.3055 15.2133 33.0873 19.2402 33.1737H20.7367C24.7632 33.0873 28.5397 32.3057 31.8296 30.9945Z" fill="white"/>
</svg>
