<svg height="13" viewBox="0 0 12 13" width="12" xmlns="http://www.w3.org/2000/svg"><path d="m11.4503822 10.219823c0-.53703402-.7060225-1.15047857-2.09634383-1.50796122-.47103591-.13063489-.91881205-.33321011-1.32732235-.60048446-.08933901-.05076037-.07576165-.51975385-.07576165-.51975385l-.44778121-.06777051c0-.03807028-.03828815-.60048445-.03828815-.60048445.53576248-.17901133.48063842-1.23498917.48063842-1.23498917.34024855.1876514.561831-.6480048.561831-.6480048.40243284-1.16100862-.20040178-1.0908081-.20040178-1.0908081.10546354-.7087676.10546354-1.42910826 0-2.13787586-.26801701-2.35117745-4.30320731-1.71289271-3.82474127-.94500701-1.17932917-.2160016-.91022597 2.45215819-.91022597 2.45215819l.25579739.69093513c-.50236218.3240024-.15315258.71577531-.13577356 1.16667866.02471079.66582494.4344754.52785391.4344754.52785391.02525388 1.09890816.57024897 1.24200922.57024897 1.24200922.10237326.69012512.03855969.57267425.03855969.57267425l-.48498317.05832043c.00656529.15694183-.00629383.31409107-.03828814.46791347-.57024897.25272188-.69298827.40095298-1.25970712.64800481-1.09487802.47709354-2.28479752 1.09755814-2.49633274 1.93294436-.21153521.8353862-.28931546 2.0404907-.28931546 2.0404907h11.66666663z" fill="#b4b4b4" fill-rule="evenodd"/></svg>