<svg width="24" height="24" viewBox="0 0 24 24" fill="none" xmlns="http://www.w3.org/2000/svg">
<path d="M15.6649 7.62127C15.4696 7.42601 15.153 7.42601 14.9578 7.62127L12.0002 10.5788L9.04245 7.62106C8.84719 7.42579 8.5306 7.42579 8.33534 7.62106L7.62176 8.33464C7.4265 8.5299 7.4265 8.84648 7.62176 9.04174L10.5795 11.9995L7.62154 14.9575C7.42628 15.1528 7.42628 15.4693 7.62154 15.6646L8.33512 16.3782C8.53039 16.5735 8.84697 16.5735 9.04223 16.3782L12.0002 13.4202L14.958 16.378C15.1533 16.5732 15.4698 16.5732 15.6651 16.378L16.3787 15.6644C16.5739 15.4691 16.5739 15.1526 16.3787 14.9573L13.4209 11.9995L16.3785 9.04196C16.5737 8.8467 16.5737 8.53012 16.3785 8.33485L15.6649 7.62127Z" fill="#BDC1C6"/>
</svg>
