<svg width="156" height="96" viewBox="0 0 156 96" fill="none" xmlns="http://www.w3.org/2000/svg">
	<path fill-rule="evenodd" clip-rule="evenodd" d="M19.266 44H22H30.0005H86C90.4183 44 94 40.4183 94 36V22C94 17.5817 90.4183 14 86 14H22C18.6863 14 16 16.6817 16 19.9954V35.813C15.8612 38.1867 14.1764 40.3969 12.6657 41.921C11.9761 42.6168 12.4615 44 13.4412 44H19.266Z" fill="white"/>
	<rect x="24" y="22" width="26" height="4" rx="2" fill="#525C69" fill-opacity="0.2"/>
	<path d="M24 33C24 31.8954 24.8954 31 26 31H78C79.1046 31 80 31.8954 80 33V33C80 34.1046 79.1046 35 78 35H26C24.8954 35 24 34.1046 24 33V33Z" fill="#525C69" fill-opacity="0.1"/>
	<path fill-rule="evenodd" clip-rule="evenodd" d="M136.734 82H134H126H56C51.5817 82 48 78.4183 48 74V60C48 55.5817 51.5817 52 56 52H134C137.314 52 140 54.6817 140 57.9954V73.813C140.139 76.1867 141.824 78.3969 143.334 79.921C144.024 80.6168 143.539 82 142.559 82H136.734Z" fill="#E9FECB"/>
	<rect x="56" y="69" width="30" height="4" rx="2" fill="#525C69" fill-opacity="0.12"/>
	<path d="M56 62C56 60.8954 56.8954 60 58 60H112C113.105 60 114 60.8954 114 62V62C114 63.1046 113.105 64 112 64H58C56.8954 64 56 63.1046 56 62V62Z" fill="#525C69" fill-opacity="0.12"/>
</svg>
