<svg width="16" height="16" viewBox="0 0 16 16" fill="none" xmlns="http://www.w3.org/2000/svg">
	<path fill-rule="evenodd" clip-rule="evenodd" d="M0 8C0 3.58172 3.58172 0 8 0C12.4183 0 16 3.58172 16 8C16 12.4183 12.4183 16 8 16C3.58172 16 0 12.4183 0 8Z" fill="#00ACE3"/>
	<path fill-rule="evenodd" clip-rule="evenodd" d="M7.12265 11.4866C6.91238 11.4907 6.70142 11.4144 6.53872 11.2573L4.1461 8.94673C3.8247 8.63635 3.81361 8.11048 4.13116 7.78164C4.45093 7.45052 4.97026 7.44129 5.29606 7.75591L7.08778 9.48615L10.9213 5.51643C11.2419 5.18448 11.7617 5.17968 12.0905 5.49723C12.4216 5.817 12.429 6.33824 12.1121 6.66639L7.70243 11.2327C7.54304 11.3978 7.33439 11.482 7.12446 11.4859L7.12265 11.4866Z" fill="white"/>
</svg>