<svg width="150" height="92" viewBox="0 0 150 92" fill="none" xmlns="http://www.w3.org/2000/svg">
	<path fill-rule="evenodd" clip-rule="evenodd" d="M17.266 42H20H28.0005H84C88.4183 42 92 38.4183 92 34V20C92 15.5817 88.4183 12 84 12H20C16.6863 12 14 14.6817 14 17.9954V33.813C13.8612 36.1867 12.1764 38.3969 10.6657 39.921C9.97606 40.6168 10.4615 42 11.4412 42H17.266Z" fill="white"/>
	<rect x="22" y="20" width="26" height="4" rx="2" fill="#525C69" fill-opacity="0.2"/>
	<path d="M22 31C22 29.8954 22.8954 29 24 29H76C77.1046 29 78 29.8954 78 31V31C78 32.1046 77.1046 33 76 33H24C22.8954 33 22 32.1046 22 31V31Z" fill="#525C69" fill-opacity="0.1"/>
	<path fill-rule="evenodd" clip-rule="evenodd" d="M17.266 80H20H28.0005H98C102.418 80 106 76.4183 106 72V58C106 53.5817 102.418 50 98 50H20C16.6863 50 14 52.6817 14 55.9954V71.813C13.8612 74.1867 12.1764 76.3969 10.6657 77.921C9.97606 78.6168 10.4615 80 11.4412 80H17.266Z" fill="#E9FECB"/>
	<rect x="22" y="67" width="30" height="4" rx="2" fill="#525C69" fill-opacity="0.12"/>
	<path d="M22 60C22 58.8954 22.8954 58 24 58H78C79.1046 58 80 58.8954 80 60V60C80 61.1046 79.1046 62 78 62H24C22.8954 62 22 61.1046 22 60V60Z" fill="#525C69" fill-opacity="0.12"/>
</svg>