<svg width="23" height="23" viewBox="0 0 23 23" fill="none" xmlns="http://www.w3.org/2000/svg">
<path fill-rule="evenodd" clip-rule="evenodd" d="M19.6411 4.78577C20.1029 4.11525 19.4963 2.86136 18.4283 3.57301C16.298 4.99265 11.9778 8.45733 9.85763 11.2064C9.56223 11.5894 9.7435 11.6597 10.0891 11.7939C10.3376 11.8904 10.6711 12.0199 10.9735 12.3222C11.2646 12.6133 11.4102 12.9836 11.5256 13.277C11.6968 13.7122 11.8014 13.9781 12.2153 13.5641C14.8545 10.925 19.1793 5.45629 19.6411 4.78577ZM5.84431 14.9758C5.70138 15.3729 5.57063 15.7362 5.35957 15.992C4.92803 16.515 4.12972 16.9152 3.55848 17.2016C3.25869 17.3519 3.02144 17.4708 2.93256 17.5597C2.67431 17.8179 5.90157 18.9224 7.67562 18.1558C9.44968 17.3893 10.3503 16.4693 10.7056 15.2678C11.0609 14.0662 9.69343 12.0441 7.79426 12.698C6.50423 13.1422 6.14698 14.1348 5.84431 14.9758Z" fill="#525C69" fill-opacity="0.4"/>
</svg>
