<svg width="23" height="23" viewBox="0 0 23 23" fill="none" xmlns="http://www.w3.org/2000/svg">
	<path fill-rule="evenodd" clip-rule="evenodd" d="M19.6411 4.78568C20.1029 4.11515 19.4963 2.86127 18.4283 3.57292C16.298 4.99255 11.9778 8.45724 9.85763 11.2063C9.56223 11.5893 9.7435 11.6597 10.0891 11.7938C10.3376 11.8903 10.6711 12.0198 10.9735 12.3222C11.2646 12.6132 11.4102 12.9835 11.5256 13.2769C11.6968 13.7122 11.8014 13.978 12.2153 13.564C14.8545 10.9249 19.1793 5.4562 19.6411 4.78568ZM5.84431 14.9757C5.70138 15.3728 5.57063 15.7361 5.35957 15.9919C4.92803 16.5149 4.12973 16.9151 3.55848 17.2015C3.2587 17.3518 3.02144 17.4707 2.93256 17.5596C2.67431 17.8178 5.90157 18.9223 7.67562 18.1557C9.44968 17.3892 10.3503 16.4692 10.7056 15.2677C11.0609 14.0661 9.69343 12.044 7.79426 12.6979C6.50423 13.1421 6.14698 14.1347 5.84431 14.9757Z" fill="#2FC6F6"/>
</svg>