<svg width="66" height="66" viewBox="0 0 66 66" fill="none" xmlns="http://www.w3.org/2000/svg">
	<circle cx="33" cy="33" r="33" fill="#2FC6F6"/>
	<path fill-rule="evenodd" clip-rule="evenodd" d="M45.3093 24.4673H39.1546C38.715 22.7366 38.2754 21.006 36.5169 21.006H29.483C27.7246 21.006 27.2849 22.7366 26.8453 24.4673H20.6906C19.7235 24.4673 18.9322 25.246 18.9322 26.1979V41.7736C18.9322 42.7254 19.7235 43.5042 20.6906 43.5042H45.3093C46.2765 43.5042 47.0678 42.7254 47.0678 41.7736V26.1979C47.0678 25.246 46.2765 24.4673 45.3093 24.4673V24.4673ZM28.4882 33.7129C28.4882 36.1653 30.5081 38.1532 32.9999 38.1532C35.4917 38.1532 37.5118 36.1653 37.5118 33.7129C37.5118 31.2606 35.4918 29.2726 33 29.2726C30.5082 29.2726 28.4882 31.2606 28.4882 33.7129V33.7129ZM33 39.7757C29.5977 39.7757 26.8396 37.0613 26.8396 33.7129C26.8396 30.3645 29.5977 27.6501 33 27.6501C36.4023 27.6501 39.1603 30.3645 39.1603 33.7129C39.1603 37.0613 36.4023 39.7757 33 39.7757V39.7757ZM44.0265 28.7358H41.7486V27.2174H44.0265V28.7358V28.7358Z" fill="white"/>
</svg>