<svg width="60" height="60" viewBox="0 0 60 60" fill="none" xmlns="http://www.w3.org/2000/svg">
	<circle cx="30" cy="30" r="30" fill="#2FC6F6"/>
	<path fill-rule="evenodd" clip-rule="evenodd" d="M39.3786 23.4989H34.6893C34.3544 22.1803 34.0195 20.8617 32.6796 20.8617H27.3205C25.9807 20.8617 25.6457 22.1803 25.3108 23.4989H20.6215C19.8846 23.4989 19.2817 24.0922 19.2817 24.8174V36.6846C19.2817 37.4098 19.8846 38.0032 20.6215 38.0032H39.3786C40.1155 38.0032 40.7184 37.4098 40.7184 36.6846V24.8174C40.7184 24.0922 40.1155 23.4989 39.3786 23.4989ZM26.5625 30.5432C26.5625 32.4116 28.1015 33.9263 30 33.9263C31.8986 33.9263 33.4376 32.4116 33.4376 30.5432C33.4376 28.6747 31.8986 27.1601 30.0001 27.1601C28.1016 27.1601 26.5625 28.6747 26.5625 30.5432ZM30.0001 35.1624C27.4079 35.1624 25.3065 33.0943 25.3065 30.5432C25.3065 27.992 27.4078 25.9239 30.0001 25.9239C32.5923 25.9239 34.6937 27.992 34.6937 30.5432C34.6936 33.0943 32.5923 35.1624 30.0001 35.1624ZM38.4013 26.7511H36.6657V25.5942H38.4013V26.7511Z" fill="white" fill-opacity="0.94"/>
</svg>
