<svg width="22" height="22" viewBox="0 0 22 22" fill="none" xmlns="http://www.w3.org/2000/svg">
	<path fill-rule="evenodd" clip-rule="evenodd" d="M13.604 7.06097C11.9359 6.659 10.2675 6.45801 8.59868 6.45801C6.92316 6.45801 5.21395 6.66062 3.47104 7.06585C3.09672 7.15288 2.83105 7.49399 2.83105 7.88751V14.6174C2.83105 14.9982 3.08018 15.3316 3.43877 15.4308C5.10415 15.8914 6.77009 16.1217 8.43658 16.1217C10.1123 16.1217 11.8399 15.8888 13.6193 15.4231C13.9832 15.3279 14.2378 14.9919 14.2378 14.6068V7.8811C14.2378 7.49006 13.9753 7.15042 13.604 7.06097ZM19.3701 7.34946C19.3701 7.31882 19.3646 7.28844 19.354 7.2598C19.3057 7.12929 19.1634 7.06363 19.0361 7.11315L15.3161 8.56025C15.2203 8.59749 15.157 8.69156 15.157 8.79655V13.3644C15.157 13.4694 15.2203 13.5634 15.3161 13.6007L19.0361 15.0478C19.064 15.0586 19.0937 15.0642 19.1236 15.0642C19.2597 15.0642 19.3701 14.9511 19.3701 14.8115V7.34946ZM8.47004 12.0536C8.91568 12.0536 9.27694 11.6923 9.27694 11.2467C9.27694 10.8011 8.91568 10.4398 8.47004 10.4398C8.0244 10.4398 7.66313 10.8011 7.66313 11.2467C7.66313 11.6923 8.0244 12.0536 8.47004 12.0536ZM5.86644 12.0536C6.31208 12.0536 6.67334 11.6924 6.67334 11.2467C6.67334 10.8011 6.31208 10.4398 5.86644 10.4398C5.4208 10.4398 5.05954 10.8011 5.05954 11.2467C5.05954 11.6924 5.4208 12.0536 5.86644 12.0536ZM11.8819 11.2467C11.8819 11.6923 11.5207 12.0536 11.075 12.0536C10.6294 12.0536 10.2681 11.6923 10.2681 11.2467C10.2681 10.8011 10.6294 10.4398 11.075 10.4398C11.5207 10.4398 11.8819 10.8011 11.8819 11.2467Z" fill="#525C69" />
</svg>