<svg width="22" height="22" viewBox="0 0 22 22" fill="none" xmlns="http://www.w3.org/2000/svg">
	<path fill-rule="evenodd" clip-rule="evenodd" d="M11.6339 14.4326V16.0334H10.366V14.4326C10.1378 14.2466 9.99174 13.9625 9.99174 13.644C9.99174 13.0838 10.4432 12.6296 11 12.6296C11.5568 12.6296 12.0082 13.0838 12.0082 13.644C12.0082 13.9625 11.8622 14.2466 11.6339 14.4326ZM8.23971 7.92925C8.23971 6.39538 9.47556 5.15194 11 5.15194C12.5245 5.15194 13.7604 6.39538 13.7604 7.92925V10.277H8.23971V7.92925ZM15.2191 10.2767V7.9289C15.2191 5.58439 13.3301 3.68384 11 3.68384C8.66986 3.68384 6.78087 5.58439 6.78087 7.9289V10.2767H6C5.72386 10.2767 5.5 10.5005 5.5 10.7767V17.8163C5.5 18.0924 5.72386 18.3163 6 18.3163H16C16.2761 18.3163 16.5 18.0924 16.5 17.8163V10.7767C16.5 10.5005 16.2761 10.2767 16 10.2767H15.2191Z" fill="#525C69" />
</svg>