<svg width="23" height="23" viewBox="0 0 23 23" fill="none" xmlns="http://www.w3.org/2000/svg">
	<path fill-rule="evenodd" clip-rule="evenodd" d="M13.663 18.3125C13.706 18.1486 13.8335 18.0214 13.9948 17.9691C14.2806 17.8765 14.5572 17.7636 14.8231 17.6322C14.9729 17.5581 15.1503 17.5591 15.2947 17.6434L16.2456 18.1988C16.4064 18.2927 16.6082 18.2851 16.7559 18.1717C17.2875 17.7637 17.7638 17.2873 18.1718 16.7558C18.2852 16.608 18.2928 16.4063 18.1989 16.2454L17.6435 15.2944C17.5592 15.1501 17.5582 14.9727 17.6323 14.8229C17.7637 14.5571 17.8765 14.2804 17.9692 13.9946C18.0214 13.8334 18.1487 13.7059 18.3126 13.6629L19.3566 13.3887C19.5381 13.341 19.6759 13.191 19.6993 13.0048C19.7859 12.3155 19.7819 11.6411 19.6976 10.9919C19.6736 10.8068 19.5362 10.6583 19.3557 10.6109L18.2997 10.3336C18.1375 10.291 18.0111 10.1656 17.9579 10.0066C17.8645 9.72761 17.7521 9.45734 17.6222 9.19734C17.5472 9.04724 17.5479 8.86909 17.6325 8.72419L18.1829 7.78184C18.2769 7.62071 18.2691 7.41861 18.1553 7.27074C17.7437 6.73591 17.264 6.25621 16.7291 5.84464C16.5813 5.73084 16.3792 5.72301 16.2181 5.8171L15.2758 6.36739C15.1309 6.452 14.9527 6.45271 14.8026 6.37771C14.5426 6.24779 14.2723 6.13537 13.9933 6.04202C13.8343 5.98881 13.709 5.86239 13.6664 5.70021L13.3891 4.64434C13.3416 4.46383 13.1932 4.32645 13.0081 4.30244C12.3588 4.21818 11.6843 4.21423 10.9951 4.30086C10.8088 4.32427 10.6589 4.46202 10.6112 4.64358L10.3342 5.69827C10.2921 5.85872 10.1688 5.98404 10.0126 6.03998C9.7514 6.13353 9.49248 6.25015 9.23898 6.38672C9.08649 6.46887 8.90193 6.47112 8.75236 6.38377L7.85689 5.86083C7.69248 5.76482 7.48592 5.77525 7.33716 5.89407C6.80687 6.31761 6.31774 6.80675 5.89421 7.33705C5.7754 7.48581 5.76497 7.69237 5.86098 7.85677L6.38389 8.75218C6.47124 8.90176 6.46899 9.08632 6.38683 9.23882C6.25024 9.49233 6.13359 9.75128 6.04003 10.0125C5.98409 10.1687 5.85877 10.292 5.69833 10.3341L4.6438 10.6111C4.46223 10.6587 4.32448 10.8087 4.30107 10.9949C4.21446 11.6842 4.21844 12.3587 4.30271 13.008C4.32673 13.1931 4.46411 13.3415 4.64461 13.389L5.70022 13.6662C5.8624 13.7088 5.98882 13.8341 6.04203 13.9932C6.13539 14.2722 6.24783 14.5425 6.37777 14.8026C6.45277 14.9527 6.45207 15.1309 6.36745 15.2758L5.81733 16.2178C5.72324 16.3789 5.73107 16.581 5.84486 16.7289C6.25645 17.2637 6.73617 17.7435 7.27102 18.1551C7.4189 18.2689 7.62099 18.2767 7.78212 18.1826L8.72419 17.6325C8.86909 17.5479 9.04724 17.5471 9.19734 17.6221C9.4574 17.7521 9.72772 17.8645 10.0068 17.9579C10.1658 18.0111 10.2911 18.1375 10.3337 18.2997L10.611 19.3555C10.6584 19.536 10.8069 19.6733 10.992 19.6974C11.6412 19.7816 12.3156 19.7856 13.0049 19.6991C13.1912 19.6757 13.3411 19.5379 13.3888 19.3563L13.663 18.3125ZM12.7748 15.45C10.2235 15.9926 8.00717 13.7757 8.54987 11.2249C8.80651 10.0188 10.0186 8.80664 11.2247 8.54994C13.7755 8.00702 15.9927 10.2235 15.45 12.7749C15.1653 14.1131 14.1129 15.1654 12.7748 15.45Z" fill="#2FC6F6"/>
</svg>