<svg width="23" height="23" viewBox="0 0 23 23" fill="none" xmlns="http://www.w3.org/2000/svg">
<path fill-rule="evenodd" clip-rule="evenodd" d="M13.663 18.3127C13.706 18.1487 13.8335 18.0215 13.9948 17.9693C14.2806 17.8766 14.5572 17.7637 14.8231 17.6323C14.9729 17.5582 15.1503 17.5593 15.2947 17.6436L16.2456 18.1989C16.4064 18.2928 16.6082 18.2852 16.7559 18.1718C17.2875 17.7638 17.7638 17.2875 18.1718 16.7559C18.2852 16.6081 18.2928 16.4064 18.1989 16.2456L17.6435 15.2946C17.5592 15.1502 17.5582 14.9729 17.6323 14.823C17.7637 14.5572 17.8765 14.2805 17.9692 13.9948C18.0214 13.8335 18.1487 13.706 18.3126 13.663L19.3566 13.3888C19.5381 13.3411 19.6759 13.1911 19.6993 13.0049C19.7859 12.3156 19.7819 11.6412 19.6976 10.992C19.6736 10.8069 19.5362 10.6584 19.3557 10.611L18.2997 10.3337C18.1375 10.2911 18.0111 10.1657 17.9579 10.0067C17.8645 9.72773 17.7521 9.45747 17.6222 9.19746C17.5472 9.04736 17.5479 8.86921 17.6325 8.72432L18.1828 7.78196C18.2769 7.62083 18.2691 7.41874 18.1553 7.27086C17.7437 6.73604 17.264 6.25633 16.7291 5.84476C16.5813 5.73096 16.3792 5.72313 16.2181 5.81723L15.2758 6.36751C15.1309 6.45213 14.9527 6.45283 14.8026 6.37783C14.5426 6.24791 14.2723 6.13549 13.9933 6.04214C13.8343 5.98893 13.709 5.86251 13.6664 5.70033L13.3891 4.64446C13.3416 4.46395 13.1932 4.32658 13.0081 4.30256C12.3588 4.2183 11.6843 4.21435 10.9951 4.30098C10.8088 4.32439 10.6589 4.46215 10.6112 4.6437L10.3342 5.6984C10.2921 5.85885 10.1688 5.98417 10.0126 6.0401C9.7514 6.13365 9.49248 6.25028 9.23898 6.38684C9.08649 6.46899 8.90193 6.47124 8.75236 6.38389L7.85689 5.86095C7.69248 5.76494 7.48592 5.77537 7.33716 5.89419C6.80687 6.31773 6.31774 6.80687 5.89421 7.33717C5.7754 7.48593 5.76497 7.69249 5.86098 7.85689L6.38389 8.75231C6.47124 8.90189 6.46899 9.08644 6.38683 9.23894C6.25024 9.49246 6.13359 9.7514 6.04003 10.0126C5.98409 10.1688 5.85877 10.2921 5.69833 10.3342L4.6438 10.6112C4.46223 10.6589 4.32448 10.8088 4.30107 10.9951C4.21446 11.6844 4.21844 12.3588 4.30271 13.0081C4.32673 13.1932 4.46411 13.3417 4.64461 13.3891L5.70022 13.6663C5.8624 13.7089 5.98882 13.8343 6.04203 13.9933C6.13539 14.2723 6.24783 14.5427 6.37777 14.8027C6.45277 14.9528 6.45207 15.131 6.36745 15.2759L5.81733 16.2179C5.72324 16.379 5.73107 16.5811 5.84486 16.729C6.25645 17.2638 6.73617 17.7436 7.27102 18.1552C7.4189 18.269 7.62099 18.2768 7.78212 18.1827L8.72419 17.6326C8.86909 17.548 9.04724 17.5473 9.19734 17.6223C9.4574 17.7522 9.72772 17.8646 10.0068 17.958C10.1658 18.0112 10.2911 18.1376 10.3337 18.2998L10.611 19.3556C10.6584 19.5361 10.8069 19.6735 10.992 19.6975C11.6412 19.7818 12.3156 19.7858 13.0049 19.6992C13.1912 19.6758 13.3411 19.538 13.3888 19.3565L13.663 18.3127ZM12.7748 15.4501C10.2235 15.9927 8.00717 13.7758 8.54987 11.225C8.80651 10.0189 10.0186 8.80676 11.2247 8.55007C13.7755 8.00715 15.9927 10.2236 15.45 12.775C15.1653 14.1132 14.1129 15.1656 12.7748 15.4501Z" fill="#525C69" fill-opacity="0.4"/>
</svg>
