<svg xmlns="http://www.w3.org/2000/svg" width="31" height="42" viewBox="0 0 31 42">
  <g fill="none" fill-rule="evenodd" transform="translate(2 2)">
    <path fill="#FFFFFF" d="M14,19 C10.6411979,19 8,16.3611058 8,13 C8,9.64119793 10.6388942,7 14,7 C17.3588021,7 20,9.63889422 20,13 C20,16.3610482 17.3588597,19 14,19 Z"/>
    <path fill="#00A5D9" stroke="#FFFFFF" stroke-width="1.5" d="M13.5,-0.75 C17.4488281,-0.75 21.0086263,0.802956433 23.5818622,3.31919416 C26.1608281,5.84103493 27.75,9.33055718 27.75,13.2009697 C27.75,19.6171517 23.4907376,27.901465 14.8217849,38.0193528 C14.3432211,38.4583197 13.8848975,38.6137634 13.4621113,38.6156854 C12.9685116,38.6179294 12.5079164,38.4135478 12.173037,38.0298093 L12.173037,38.0298093 L11.7360386,37.526223 C3.36482156,27.821472 -0.75,19.7017441 -0.75,13.2009697 C-0.75,9.33055718 0.83917189,5.84103493 3.41813778,3.31919416 C5.99137369,0.802956433 9.55117187,-0.75 13.5,-0.75 Z M13.5,7.94780596 C11.9894596,7.94780596 10.6389005,8.52418336 9.66737944,9.47418482 C8.70160929,10.4185628 8.11320796,11.7306289 8.11320796,13.1986656 C8.11320796,14.6671881 8.70169589,15.9788532 9.66712696,16.9228996 C10.6389888,17.8732343 11.9899604,18.4495253 13.5,18.4495253 C15.0100521,18.4495253 16.3610134,17.8732321 17.3328667,16.9229057 C18.2983063,15.9788511 18.886792,14.667176 18.886792,13.1986656 C18.886792,11.7301431 18.2983041,10.4184781 17.332873,9.4744317 C16.3610112,8.52409697 15.0100396,7.94780596 13.5,7.94780596 Z"/>
  </g>
</svg>
