<svg width="24" height="24" viewBox="0 0 24 24" fill="none" xmlns="http://www.w3.org/2000/svg">
<path fill-rule="evenodd" clip-rule="evenodd" d="M15.0472 2.21022C15.1846 1.99725 15.4685 1.93595 15.6815 2.07329C15.8945 2.21063 15.9558 2.49461 15.8184 2.70758L15.2338 3.61417C17.4749 4.92011 17.5702 7.48853 17.5702 7.48853H6.7107C6.7107 7.48853 6.78034 4.82411 9.128 3.54295L8.58927 2.70758C8.45193 2.49461 8.51324 2.21063 8.72621 2.07329C8.93917 1.93595 9.22315 1.99725 9.3605 2.21022L9.98407 3.17715C10.5856 2.98251 11.2976 2.86792 12.1403 2.87055C13.0279 2.87328 13.7705 3.00662 14.3919 3.22641L15.0472 2.21022ZM10.3596 4.86939C10.4992 5.20236 10.3424 5.58542 10.0094 5.72498C9.67644 5.86454 9.29338 5.70774 9.15382 5.37477C9.01426 5.0418 9.17105 4.65874 9.50403 4.51918C9.837 4.37962 10.2201 4.53642 10.3596 4.86939ZM15.1601 5.27163C15.2425 4.92012 15.0243 4.56838 14.6728 4.486C14.3213 4.40362 13.9696 4.62179 13.8872 4.9733C13.8048 5.32481 14.023 5.67655 14.3745 5.75893C14.726 5.84131 15.0778 5.62314 15.1601 5.27163ZM5.74049 14.9827C5.95894 14.7643 6.08172 14.4681 6.08182 14.1592V8.92589C6.08129 8.61729 5.95832 8.32151 5.73992 8.10349C5.52152 7.88546 5.22553 7.76301 4.91693 7.76301C4.6084 7.76312 4.31251 7.88562 4.0942 8.10363C3.87589 8.32164 3.75298 8.61736 3.75244 8.92589V14.1592C3.75244 14.4681 3.87513 14.7643 4.09351 14.9826C4.3119 15.201 4.60809 15.3237 4.91693 15.3237C5.22581 15.3237 5.52204 15.201 5.74049 14.9827ZM20.4404 14.6049C20.499 14.4636 20.5291 14.3122 20.5291 14.1592V8.92589C20.5286 8.61729 20.4056 8.32151 20.1872 8.10349C19.9688 7.88546 19.6728 7.76301 19.3642 7.76301C19.0557 7.76312 18.7598 7.88562 18.5415 8.10363C18.3232 8.32164 18.2003 8.61736 18.1997 8.92589V14.1592C18.1997 14.4681 18.3224 14.7643 18.5408 14.9826C18.7592 15.201 19.0554 15.3237 19.3642 15.3237C19.5172 15.3238 19.6687 15.2937 19.81 15.2352C19.9513 15.1767 20.0797 15.0909 20.1879 14.9828C20.2961 14.8746 20.3819 14.7463 20.4404 14.6049ZM17.6163 8.13411H6.66553V12.6415H6.67603V17.3693C6.67603 17.5429 6.74498 17.7093 6.86773 17.8321C6.99048 17.9548 7.15696 18.0238 7.33055 18.0238H8.72808V20.9337C8.72808 21.2426 8.85077 21.5388 9.06915 21.7572C9.28754 21.9755 9.58373 22.0982 9.89257 22.0982C10.2015 22.0982 10.4977 21.9756 10.7161 21.7572C10.9346 21.5388 11.0574 21.2426 11.0575 20.9337V18.0238H13.2233V20.9337C13.2233 21.2426 13.346 21.5388 13.5644 21.7572C13.7828 21.9755 14.079 22.0982 14.3878 22.0982C14.6967 22.0982 14.9929 21.9756 15.2114 21.7572C15.4298 21.5388 15.5526 21.2426 15.5527 20.9337V18.0238H16.9513C17.1249 18.0238 17.2914 17.9548 17.4141 17.8321C17.5369 17.7093 17.6058 17.5429 17.6058 17.3693V12.6415H17.6163V8.13411Z" fill="#525C69"/>
</svg>
