<svg width="24" height="24" viewBox="0 0 24 24" fill="none" xmlns="http://www.w3.org/2000/svg">
<path d="M19.6647 15.8068C19.3774 16.4706 19.0374 17.0816 18.6434 17.6434C18.1064 18.4092 17.6667 18.9393 17.3279 19.2337C16.8026 19.7169 16.2398 19.9644 15.6371 19.9784C15.2045 19.9784 14.6827 19.8553 14.0753 19.6055C13.466 19.3568 12.906 19.2337 12.394 19.2337C11.857 19.2337 11.281 19.3568 10.665 19.6055C10.048 19.8553 9.55099 19.9855 9.17098 19.9984C8.59305 20.023 8.017 19.7685 7.442 19.2337C7.07501 18.9135 6.61598 18.3647 6.06607 17.5871C5.47607 16.7567 4.991 15.7939 4.61099 14.6961C4.20402 13.5104 4 12.3622 4 11.2507C4 9.97735 4.27507 8.87913 4.82603 7.95883C5.25904 7.21961 5.83509 6.6365 6.55606 6.20842C7.27703 5.78035 8.05605 5.56221 8.89497 5.54825C9.35401 5.54825 9.95597 5.69028 10.704 5.96941C11.45 6.24947 11.9289 6.3915 12.1389 6.3915C12.2959 6.3915 12.828 6.22543 13.73 5.89435C14.583 5.58731 15.3029 5.46017 15.8927 5.51025C17.4908 5.63926 18.6915 6.26941 19.49 7.40468C18.0607 8.27092 17.3537 9.48418 17.3677 11.0406C17.3806 12.2529 17.8203 13.2618 18.6844 14.0628C19.0761 14.4346 19.5134 14.7219 20 14.926C19.8945 15.2321 19.7831 15.5253 19.6647 15.8068ZM15.9994 1.38011C15.9994 2.33032 15.6524 3.21754 14.9606 4.03874C14.1258 5.01498 13.116 5.5791 12.021 5.49008C12.007 5.37608 11.9989 5.25611 11.9989 5.13003C11.9989 4.21782 12.396 3.24158 13.101 2.44337C13.453 2.03922 13.9006 1.70318 14.4435 1.43511C14.9852 1.17104 15.4976 1.025 15.9795 1C15.9936 1.12703 15.9994 1.25408 15.9994 1.38011Z" fill="#525C69"/>
</svg>
