<svg width="24" height="24" viewBox="0 0 24 24" fill="none" xmlns="http://www.w3.org/2000/svg">
<path fill-rule="evenodd" clip-rule="evenodd" d="M7.88414 10.9714C9.77769 10.9714 11.3127 9.43638 11.3127 7.54283C11.3127 5.64928 9.77769 4.11426 7.88414 4.11426C5.99059 4.11426 4.45557 5.64928 4.45557 7.54283C4.45557 9.43638 5.99059 10.9714 7.88414 10.9714ZM15.4277 19.8859C17.6999 19.8859 19.542 18.0439 19.542 15.7716C19.542 13.4994 17.6999 11.6573 15.4277 11.6573C13.1554 11.6573 11.3134 13.4994 11.3134 15.7716C11.3134 18.0439 13.1554 19.8859 15.4277 19.8859ZM18.1703 7.54266C18.1703 9.0575 16.9423 10.2855 15.4274 10.2855C13.9126 10.2855 12.6846 9.0575 12.6846 7.54266C12.6846 6.02782 13.9126 4.7998 15.4274 4.7998C16.9423 4.7998 18.1703 6.02782 18.1703 7.54266ZM7.88624 17.8282C9.02237 17.8282 9.94339 16.9071 9.94339 15.771C9.94339 14.6349 9.02237 13.7139 7.88624 13.7139C6.75012 13.7139 5.8291 14.6349 5.8291 15.771C5.8291 16.9071 6.75012 17.8282 7.88624 17.8282Z" fill="#525C69"/>
</svg>
