<svg width="24" height="24" viewBox="0 0 24 24" fill="none" xmlns="http://www.w3.org/2000/svg">
<path fill-rule="evenodd" clip-rule="evenodd" d="M18.9997 9.31156C18.9997 7.22845 17.3111 5.54004 15.2283 5.54004C13.1454 5.54004 11.4568 7.22845 11.4568 9.31156C11.4568 10.0132 11.6484 10.6701 11.9822 11.2328C12.1213 11.4673 11.6625 12.74 11.6625 12.74C11.6625 12.74 12.9086 12.3007 13.1622 12.4671C13.7556 12.8565 14.4655 13.0829 15.2283 13.0829C17.3111 13.0829 18.9997 11.3943 18.9997 9.31156ZM15.1725 7.8195C15.4876 7.8195 15.743 7.56653 15.743 7.25448C15.743 6.94242 15.4876 6.68945 15.1725 6.68945C14.8575 6.68945 14.602 6.94242 14.602 7.25448C14.602 7.56653 14.8575 7.8195 15.1725 7.8195ZM15.3726 8.3457H14.0393V8.85394H14.7058V10.8545H14.0393V11.3548H14.7058V11.3555H15.7405V11.3548H16.3096V10.8545H15.7405V8.34668H15.3726V8.3457ZM13.2548 15.743C13.7227 15.2536 14.3105 15.2536 14.7814 15.743C15.0654 16.0403 15.3715 16.2756 15.6774 16.5108C15.9886 16.75 16.2995 16.989 16.5869 17.293C17.0637 17.7981 17.0607 18.4168 16.5809 18.9283C16.4698 19.0462 16.3564 19.1623 16.2428 19.2784C16.0251 19.5011 15.8072 19.724 15.6061 19.9606C15.1593 20.4878 14.6014 20.6582 13.9596 20.6204C13.0269 20.5667 12.1691 20.2415 11.3414 19.8185C9.5029 18.8778 7.93135 17.574 6.61473 15.9261C5.64001 14.7075 4.83624 13.3784 4.3084 11.8821C4.05047 11.1591 3.86752 10.4173 3.92451 9.6312C3.9605 9.14819 4.13145 8.73464 4.47035 8.39685C4.68985 8.17717 4.90179 7.9518 5.11395 7.72621C5.25545 7.57575 5.39705 7.42519 5.54104 7.27615C6.00891 6.78999 6.59674 6.78999 7.0676 7.27299C7.258 7.46928 7.40019 7.70097 7.53945 7.92789C7.61297 8.04768 7.68566 8.16614 7.76421 8.27736C7.80455 8.33447 7.84621 8.39435 7.88903 8.45589C8.08755 8.74119 8.31074 9.06193 8.54017 9.30604C9.03203 9.82692 9.03203 10.433 8.54317 10.9508C8.46683 11.0318 8.40142 11.1015 8.34212 11.1647C8.12886 11.3919 7.99466 11.5349 7.71541 11.8189C7.62244 11.9168 7.61344 11.9957 7.66143 12.1157C7.89836 12.7092 8.23726 13.2364 8.61815 13.7288C9.38593 14.7201 10.2527 15.6009 11.2874 16.2859C11.4214 16.3736 11.5641 16.4475 11.707 16.5214C11.8008 16.57 11.8947 16.6185 11.9862 16.6711C12.1031 16.7405 12.1841 16.7184 12.2801 16.6143C12.4608 16.4192 12.6192 16.2928 12.7791 16.1652C12.9297 16.0449 13.0817 15.9237 13.2548 15.743Z" fill="#525C69"/>
</svg>
