<svg width="24" height="24" viewBox="0 0 24 24" fill="none" xmlns="http://www.w3.org/2000/svg">
<path fill-rule="evenodd" clip-rule="evenodd" d="M17.6085 5.54986C16.1021 4.01174 14.0197 3.17676 11.8931 3.17676C7.3739 3.17676 3.74084 6.8243 3.78514 11.2629C3.78514 12.6692 4.18389 14.0315 4.84848 15.262L3.69653 19.4369L7.99417 18.3382C9.0021 18.8937 10.1044 19.1995 11.2215 19.282C10.4885 18.8468 9.87618 18.2295 9.44691 17.4925C9.11224 17.363 8.78883 17.2054 8.48153 17.0199L8.2157 16.888L5.64598 17.5472L6.31056 15.0423L6.13334 14.7786C4.18389 11.6584 5.11431 7.52745 8.30431 5.59381C11.4943 3.66017 15.6147 4.58304 17.5642 7.74718C17.6592 7.90136 17.7473 8.05773 17.8287 8.21593C18.4893 8.34844 19.1029 8.61114 19.6414 8.97612C19.2691 7.68639 18.5758 6.50939 17.6085 5.54986ZM11.1145 9.87902C10.5622 9.87902 10.1145 10.3267 10.1145 10.879V16.3093C10.1145 16.8616 10.5622 17.3093 11.1145 17.3093H12.4946C12.4928 17.3268 12.4918 17.3445 12.4918 17.3625V18.1008C12.4918 18.3769 12.7157 18.6008 12.9918 18.6008H17.3027C17.5788 18.6008 17.8027 18.3769 17.8027 18.1008V17.3625C17.8027 17.3445 17.8018 17.3268 17.7999 17.3093H19.0043C19.5566 17.3093 20.0043 16.8616 20.0043 16.3093V10.879C20.0043 10.3267 19.5566 9.87902 19.0043 9.87902H11.1145ZM18.6441 11.1251H11.4729V16.0641H18.6441V11.1251Z" fill="#525C69"/>
</svg>
