<svg width="24" height="24" viewBox="0 0 24 24" fill="none" xmlns="http://www.w3.org/2000/svg">
<path fill-rule="evenodd" clip-rule="evenodd" d="M10.6532 3.08594C12.6167 3.08594 14.5392 3.86312 15.9299 5.29477C16.0167 5.38153 16.101 5.4702 16.183 5.56069C15.8581 5.5168 15.5264 5.49414 15.1894 5.49414C14.868 5.49414 14.5514 5.51476 14.2409 5.55475C12.2708 4.13322 9.56113 3.97832 7.33999 5.33568C4.39488 7.13547 3.53589 10.9805 5.33568 13.8847L5.4993 14.1301L4.88573 16.4617L7.25818 15.8481L7.50361 15.9708C7.92268 16.2259 8.37421 16.4242 8.84374 16.5656C9.1688 17.1192 9.56424 17.6265 10.0178 18.0752C8.99168 17.9967 7.97955 17.7123 7.05366 17.1979L3.08594 18.2206L4.14945 14.3346C3.53589 13.1893 3.16775 11.9213 3.16775 10.6123C3.12684 6.481 6.481 3.08594 10.6532 3.08594ZM11.2158 8.64346C12.3058 7.52142 13.8125 6.91231 15.3513 6.91231C18.6213 6.91231 21.2501 9.57316 21.218 12.8111C21.218 13.8369 20.9295 14.8308 20.4486 15.7284L21.2822 18.7739L18.1725 17.9725C17.3069 18.4534 16.3451 18.6778 15.3834 18.6778C12.1455 18.6778 9.51669 16.0169 9.51669 12.779C9.51669 11.2081 10.1258 9.73345 11.2158 8.64346ZM14.2885 11.6034C14.2885 11.1822 13.9401 11.0344 13.5693 11.0344C13.0725 11.0344 12.6646 11.1969 12.2865 11.3669L12.0269 10.591C12.4496 10.3989 13.0354 10.1846 13.7324 10.1846C14.8224 10.1846 15.3489 10.7314 15.3489 11.4999C15.3489 12.2612 14.755 12.7123 14.183 13.1467C13.7445 13.4798 13.3188 13.8031 13.1836 14.2489H15.4156V15.106H11.8638C11.9849 13.6527 12.8474 13.0274 13.5096 12.5474C13.9417 12.2341 14.2885 11.9827 14.2885 11.6034ZM16.9803 13.1319H17.4252V12.6073C17.4252 12.2304 17.4548 11.7944 17.4697 11.6984L16.3648 13.1541C16.4538 13.1467 16.8097 13.1319 16.9803 13.1319ZM15.238 13.3017L17.685 10.1981H18.4117V13.1318H19.1384V13.9446H18.4117V15.1048H17.4254V13.9446H15.238V13.3017Z" fill="#525C69"/>
</svg>
