<svg width="24" height="24" viewBox="0 0 24 24" fill="none" xmlns="http://www.w3.org/2000/svg">
<path fill-rule="evenodd" clip-rule="evenodd" d="M18.7378 11.3091C18.7378 11.4091 18.733 11.5077 18.7254 11.6058C18.9788 11.5427 21.4899 12.1926 21.4899 14.771C21.4899 16.7618 20.0295 18.0332 18.2277 18.0332H7.34506C4.80722 18.0332 2.75 15.976 2.75 13.4381C2.75 11.2512 4.27813 9.42257 6.32457 8.95819C6.51009 7.0178 8.14426 5.5 10.1334 5.5C11.6697 5.5 12.9938 6.40571 13.6028 7.71186C14.011 7.56347 14.4515 7.48229 14.9111 7.48229C17.0246 7.48229 18.7378 9.1956 18.7378 11.3091ZM7.12684 15.1912L7.19539 14.1076L6.30695 14.7152L5.93951 14.0544L6.8965 13.5785L5.93951 13.1025L6.30695 12.4417L7.19539 13.0493L7.12684 11.9657H7.86446L7.79317 13.0493L8.6816 12.4417L9.04904 13.1025L8.0948 13.5785L9.04904 14.0544L8.6816 14.7152L7.79317 14.1076L7.86446 15.1912H7.12684ZM11.4854 15.1912L11.5539 14.1076L10.6655 14.7152L10.2981 14.0544L11.2551 13.5785L10.2981 13.1025L10.6655 12.4417L11.5539 13.0493L11.4854 11.9657H12.223L12.1517 13.0493L13.0402 12.4417L13.4076 13.1025L12.4534 13.5785L13.4076 14.0544L13.0402 14.7152L12.1517 14.1076L12.223 15.1912H11.4854ZM15.9125 14.1076L15.844 15.1912H16.5816L16.5103 14.1076L17.3987 14.7152L17.7662 14.0544L16.8119 13.5785L17.7662 13.1025L17.3987 12.4417L16.5103 13.0493L16.5816 11.9657H15.844L15.9125 13.0493L15.0241 12.4417L14.6566 13.1025L15.6136 13.5785L14.6566 14.0544L15.0241 14.7152L15.9125 14.1076Z" fill="#525C69"/>
</svg>
