<svg width="24" height="24" viewBox="0 0 24 24" fill="none" xmlns="http://www.w3.org/2000/svg">
<path fill-rule="evenodd" clip-rule="evenodd" d="M2.53909 8.92915C4.1367 8.18671 5.31588 8.11095 6.06142 8.73975C7.37755 9.86099 6.80696 11.4368 6.30486 12.8232C5.90927 13.9293 5.47564 14.6036 5.04961 15.0127C4.3497 15.6794 3.80196 15.7021 3.37593 15.6794C2.47062 15.6339 1.74791 15.1112 0.941499 13.9596C0.256813 12.9672 -0.321365 11.9217 0.20356 10.7322C0.287244 10.5428 0.606763 9.82312 2.53909 8.92915ZM3.40396 14.0131C3.76053 14.0433 4.19294 14.08 4.80616 12.3611C5.36913 10.8004 5.36913 10.3459 4.95831 10.0428C4.76812 9.90646 4.32689 9.82312 3.21618 10.3534C2.23479 10.8231 1.8468 11.0883 1.73269 11.361C1.57293 11.7398 1.52729 12.0277 2.19675 12.9899C2.65321 13.649 3.06402 13.9823 3.39876 14.0126L3.40396 14.0131ZM15.3516 9.08789H14.8952C14.8191 9.08789 14.7658 9.1485 14.7658 9.21668V10.6258C14.4235 10.3076 13.9823 10.141 13.5106 10.141C12.4607 10.141 11.6011 11.0273 11.6011 12.1259C11.6011 13.2168 12.4607 14.1108 13.5106 14.1108C13.9823 14.1108 14.4387 13.9365 14.7887 13.6032L14.8115 13.8456C14.8191 13.9138 14.8799 13.9592 14.9408 13.9592H15.3516C15.4277 13.9592 15.481 13.8987 15.481 13.8305V9.22426C15.481 9.15607 15.4201 9.08789 15.3516 9.08789ZM14.705 12.1259C14.705 12.8077 14.1724 13.3608 13.5106 13.3608C12.8487 13.3608 12.3086 12.8077 12.3086 12.1259C12.3086 11.444 12.8411 10.891 13.503 10.891C14.1648 10.891 14.705 11.4364 14.705 12.1259ZM19.413 10.8159C19.3217 10.6795 19.2151 10.5583 19.0934 10.4674C18.9716 10.3689 18.8348 10.2932 18.6827 10.2401C18.4164 10.1416 18.1196 10.1265 17.8154 10.1795C17.3741 10.2553 17.0546 10.4826 16.8644 10.6492L16.8416 10.3992C16.8339 10.331 16.7731 10.2856 16.7123 10.2856H16.2709C16.1949 10.2856 16.1416 10.3462 16.1416 10.4144V13.8311C16.1416 13.9069 16.2026 13.9599 16.2709 13.9599H16.758C16.8339 13.9599 16.8873 13.8993 16.8873 13.8311V11.3993C17.2448 11.1492 17.5643 10.975 17.9295 10.9068C18.0816 10.8765 18.2718 10.8992 18.4392 10.9598C18.5837 11.0129 18.713 11.1038 18.7892 11.2401C18.9489 11.4826 18.9489 11.7856 18.9489 12.0584V13.8236C18.9489 13.8993 19.0098 13.9524 19.0783 13.9524H19.5726C19.6488 13.9524 19.7019 13.8917 19.7019 13.8236V12.4144V12.2326C19.7096 11.9068 19.7096 11.5583 19.6108 11.2326C19.5575 11.0886 19.4967 10.9371 19.413 10.8159ZM23.407 10.2772H23.8636C23.9395 10.2772 24.0004 10.3378 24.0004 10.4288V13.8379C24.0004 13.9061 23.9472 13.9667 23.8711 13.9667H23.4603C23.3995 13.9667 23.3385 13.9213 23.331 13.8531L23.3082 13.6107C22.9581 13.944 22.5017 14.1183 22.03 14.1183C20.9802 14.1183 20.1206 13.2243 20.1206 12.1333C20.1206 11.0348 20.9802 10.1484 22.03 10.1484C22.4941 10.1484 22.9354 10.3151 23.2777 10.6333V10.406C23.2777 10.3378 23.331 10.2772 23.407 10.2772ZM22.03 13.3607C22.692 13.3607 23.2244 12.8076 23.2244 12.1258C23.2244 11.4364 22.692 10.8909 22.03 10.8909C21.3682 10.8909 20.8356 11.4439 20.8356 12.1258C20.8356 12.8076 21.3682 13.3607 22.03 13.3607ZM11.2955 11.7394C11.1586 10.8379 10.4435 10.1484 9.51534 10.1484H9.49251C8.44266 10.1484 7.58301 11.0348 7.58301 12.1333C7.58301 13.2243 8.43506 14.1107 9.49251 14.1183H9.53055C10.1696 14.1183 10.7173 13.8531 11.1205 13.4061C11.1662 13.3531 11.1662 13.2849 11.1205 13.2319L10.8315 12.9137C10.801 12.8834 10.7706 12.8682 10.7326 12.8682C10.6945 12.8682 10.6565 12.8909 10.6336 12.9212C10.3826 13.2394 10.0479 13.3758 9.53815 13.3758H9.49251C8.91433 13.3758 8.43506 12.9516 8.32094 12.3909H11.0216C11.189 12.3909 11.326 12.2546 11.326 12.0803C11.3227 12.077 11.3208 12.0456 11.3179 11.997C11.3141 11.9327 11.3085 11.8385 11.2955 11.7394ZM8.3894 11.6485C8.56438 11.2015 8.99041 10.8909 9.4849 10.8909H9.52294C10.0174 10.8909 10.4359 11.1939 10.588 11.6485H10.5804H8.3894Z" fill="#525C69"/>
</svg>
