<svg width="24" height="24" viewBox="0 0 24 24" fill="none" xmlns="http://www.w3.org/2000/svg">
<path fill-rule="evenodd" clip-rule="evenodd" d="M3.48096 9.66967H4.72984V7.9464C4.72984 7.94004 4.72982 7.93295 4.72979 7.92516C4.72842 7.54698 4.72107 5.52148 7.35849 5.52148H9.25951V7.71617H7.86152C7.58481 7.71617 7.30535 8.00553 7.30535 8.2208V9.66219H9.25693C9.17833 10.7674 9.01702 11.7781 9.01702 11.7781H7.2952V18.0417H4.72984V11.7774H3.48096V9.66967ZM12.7911 8.372C11.9627 8.372 11.2911 9.04358 11.2911 9.872V13.4364C11.2911 14.2648 11.9627 14.9364 12.7911 14.9364H13.342V17.4611L15.9056 14.9364H19.0201C19.8485 14.9364 20.5201 14.2648 20.5201 13.4364V9.872C20.5201 9.04358 19.8485 8.372 19.0201 8.372H12.7911Z" fill="#525C69"/>
</svg>
