<svg width="24" height="24" viewBox="0 0 24 24" fill="none" xmlns="http://www.w3.org/2000/svg">
<path fill-rule="evenodd" clip-rule="evenodd" d="M12.0004 4.75977C8.94195 4.75977 6.38285 6.63228 5.25935 9.31621V9.37863C4.94726 10.19 4.76001 11.0639 4.76001 12.0001C4.76001 15.9948 8.0057 19.2405 12.0004 19.2405C15.9951 19.2405 19.2408 15.9948 19.2408 12.0001C19.2408 8.00545 15.9951 4.75977 12.0004 4.75977ZM17.9299 13.5608H15.4332C15.4956 13.0614 15.4956 12.5621 15.4956 12.0628C15.4956 11.3762 15.4332 10.6896 15.3708 10.0654H17.9299C18.1172 10.6896 18.242 11.3762 18.242 12.0628C18.242 12.5621 18.1796 13.1239 18.0547 13.6232C18.0547 13.5608 17.9923 13.5608 17.9299 13.5608ZM12.0015 18.367C11.0652 18.367 10.0666 16.869 9.62964 14.5596H14.4357C13.9364 16.869 12.9377 18.367 12.0015 18.367ZM9.44178 13.5608C9.37936 13.0614 9.37936 12.5621 9.37936 12.0628C9.37936 11.3762 9.44178 10.6896 9.50419 10.0654H14.4351C14.4976 10.6896 14.56 11.3762 14.56 12.0628C14.56 12.5621 14.56 13.1239 14.4976 13.5608H9.44178ZM5.69479 12.0628C5.69479 11.3762 5.81962 10.6896 6.00687 10.0654H8.56597C8.50355 10.6896 8.44114 11.3762 8.44114 12.0628C8.44114 12.5621 8.44114 13.0614 8.50355 13.5608H5.88204C5.7572 13.0614 5.69479 12.5621 5.69479 12.0628ZM12.0001 5.69613C12.874 5.69613 13.8102 6.94447 14.3095 9.00423H9.7531C10.19 7.00689 11.1263 5.69613 12.0001 5.69613ZM17.5547 9.00383H15.2452C14.9956 7.81791 14.5587 6.75682 14.0593 6.00781C15.5573 6.56957 16.8057 7.63066 17.5547 9.00383ZM9.9407 6.07045C9.44137 6.81946 9.00445 7.81813 8.75478 9.06647H6.44535C7.19435 7.63088 8.44269 6.56979 9.9407 6.07045ZM6.19507 14.5596H8.62933C8.879 15.9952 9.31592 17.1811 9.94009 17.9925C8.25483 17.4308 6.88166 16.1824 6.19507 14.5596ZM13.9988 17.9925C14.6229 17.1811 15.0599 15.9327 15.3095 14.5596H17.7438C17.0572 16.1824 15.684 17.4308 13.9988 17.9925Z" fill="#525C69"/>
</svg>
