<svg width="24" height="24" viewBox="0 0 24 24" fill="none" xmlns="http://www.w3.org/2000/svg">
<path fill-rule="evenodd" clip-rule="evenodd" d="M10.9232 4.58269C12.1525 3.88173 13.7245 4.29771 14.4343 5.5118L19.6426 14.4207C20.3524 15.6348 19.9312 17.1873 18.7018 17.8882C17.4725 18.5892 15.9005 18.1732 15.1907 16.9591L9.98236 8.05019C9.27258 6.8361 9.6938 5.28365 10.9232 4.58269ZM10.1976 15.2765C10.0404 14.3439 9.47764 13.4855 8.58386 12.9759C7.68219 12.4618 6.63769 12.4133 5.73584 12.7549L8.97523 7.21387C8.97276 7.77907 9.11723 8.35242 9.42403 8.87721L11.6814 12.7385L10.1976 15.2765ZM9.04616 17.1879C9.75594 15.9738 9.33473 14.4213 8.10535 13.7204C6.87598 13.0194 5.30398 13.4354 4.5942 14.6495L4.59186 14.6535C3.88208 15.8676 4.30329 17.42 5.53267 18.121C6.76204 18.822 8.33404 18.406 9.04382 17.1919L9.04616 17.1879Z" fill="#525C69"/>
</svg>
