<svg width="24" height="24" viewBox="0 0 24 24" fill="none" xmlns="http://www.w3.org/2000/svg">
<path fill-rule="evenodd" clip-rule="evenodd" d="M8.82419 4.45703C6.41901 4.45703 4.45728 6.41873 4.45728 8.82395V15.1758C4.45728 17.581 6.41897 19.5427 8.82419 19.5427H15.1761C17.5813 19.5427 19.543 17.581 19.543 15.1758V8.82395C19.543 6.41877 17.5813 4.45703 15.1761 4.45703H8.82419ZM8.82372 6.04504H15.1756C16.7287 6.04504 17.9545 7.27091 17.9545 8.82398V15.1759C17.9545 16.7289 16.7287 17.9548 15.1756 17.9548H8.82372C7.27065 17.9548 6.04477 16.7289 6.04477 15.1759V8.82398C6.04477 7.27091 7.27065 6.04504 8.82372 6.04504ZM15.1765 8.03031C15.1765 7.59146 15.5316 7.23633 15.9705 7.23633C16.4094 7.23633 16.7645 7.59146 16.7645 8.03031C16.7645 8.46917 16.4094 8.8243 15.9705 8.8243C15.5316 8.8243 15.1765 8.46917 15.1765 8.03031ZM11.9997 7.83105C9.70689 7.83105 7.8313 9.70669 7.8313 11.9995C7.8313 14.2923 9.70693 16.1679 11.9997 16.1679C14.2925 16.1679 16.1681 14.2923 16.1681 11.9995C16.1681 9.70669 14.2925 7.83105 11.9997 7.83105ZM14.5806 11.9994C14.5806 10.5649 13.4346 9.41895 12.0001 9.41895C10.5657 9.41895 9.41968 10.5649 9.41968 11.9994C9.41968 13.4338 10.5657 14.5798 12.0001 14.5798C13.4346 14.5798 14.5806 13.4338 14.5806 11.9994Z" fill="#525C69"/>
</svg>
