<svg width="24" height="24" viewBox="0 0 24 24" fill="none" xmlns="http://www.w3.org/2000/svg">
<path d="M8.5523 4.4082C6.45543 4.4082 4.54443 6.31916 4.54443 8.41607V15.0958C4.54443 17.1927 6.45539 19.1037 8.5523 19.1037H14.4323C14.1701 18.7122 13.8291 18.3734 13.4255 18.1115L12.8957 17.7677H8.70937C7.11788 17.7677 5.88029 16.5301 5.88029 14.9386V8.57321C5.88029 6.98172 7.11788 5.74413 8.70937 5.74413H15.0748C16.6663 5.74413 17.9039 6.98172 17.9039 8.57321V10.642L19.2399 10.3279V8.41607C19.2399 6.3192 17.329 4.4082 15.2321 4.4082H8.5523Z" fill="#525C69"/>
<path d="M11.892 7.74805C13.8819 7.74805 15.545 9.21747 15.8499 11.1249L14.5449 11.4317C14.3869 10.1016 13.2676 9.084 11.8921 9.084C10.4068 9.084 9.22023 10.2706 9.22023 11.7559C9.22023 12.4772 9.50009 13.1281 9.95812 13.6069C9.79975 14.0273 9.75711 14.4967 9.86 14.9677C9.88127 15.0651 9.90846 15.1606 9.94123 15.2537C8.71638 14.5659 7.88415 13.2535 7.88415 11.7559C7.88415 9.55144 9.6875 7.74805 11.892 7.74805Z" fill="#525C69"/>
<path d="M15.2321 7.74806C15.2321 7.37885 15.5308 7.08008 15.9 7.08008C16.2692 7.08008 16.568 7.37885 16.568 7.74806C16.568 8.11726 16.2692 8.41603 15.9 8.41603C15.5308 8.41603 15.2321 8.11726 15.2321 7.74806Z" fill="#525C69"/>
<path fill-rule="evenodd" clip-rule="evenodd" d="M21.7789 13.4277C22.2798 12.6039 21.552 11.5807 20.6095 11.7836L12.8987 13.4434C11.8697 13.665 11.7117 15.0673 12.6655 15.5122L15.3101 16.7459L15.7529 19.6076C15.9096 20.6199 17.2444 20.8854 17.7765 20.0102L21.7789 13.4277ZM13.8148 14.5942L20.3876 13.1793L16.9632 18.8113L16.5944 16.4285C16.5384 16.0664 16.3055 15.7561 15.9734 15.6012L13.8148 14.5942Z" fill="#525C69"/>
</svg>
