<svg width="24" height="24" viewBox="0 0 24 24" fill="none" xmlns="http://www.w3.org/2000/svg">
<path fill-rule="evenodd" clip-rule="evenodd" d="M8.25613 4.7998C6.26861 4.7998 4.45728 6.61111 4.45728 8.59866V14.9301C4.45728 16.9176 6.26858 18.7289 8.25613 18.7289H12.5038V17.463H8.40542C6.89693 17.463 5.72388 16.2899 5.72388 14.7814V8.74795C5.72388 7.23946 6.89693 6.06641 8.40542 6.06641H14.4389C15.9474 6.06641 17.1204 7.23946 17.1204 8.74795V10.9317H18.3864V8.59866C18.3864 6.61114 16.5751 4.7998 14.5876 4.7998H8.25613ZM11.4217 7.96582C13.2333 7.96582 14.7592 9.25076 15.133 10.9544C14.6943 11.0084 14.285 11.1572 13.9261 11.3795C13.7431 10.1569 12.699 9.23145 11.422 9.23145C10.0141 9.23145 8.8894 10.3562 8.8894 11.764C8.8894 13.1719 10.0141 14.2966 11.422 14.2966C11.81 14.2966 12.1764 14.2112 12.5038 14.0579V15.4056C12.1605 15.5083 11.7972 15.5635 11.4217 15.5635C9.33214 15.5635 7.6228 13.8542 7.6228 11.7647C7.6228 9.67516 9.33211 7.96582 11.4217 7.96582ZM14.5876 7.96517C14.5876 7.61522 14.8708 7.33203 15.2208 7.33203C15.5707 7.33203 15.8539 7.61522 15.8539 7.96517C15.8539 8.31513 15.5707 8.59832 15.2208 8.59832C14.8708 8.59832 14.5876 8.31513 14.5876 7.96517ZM13.806 15.9265H14.7223V14.5128C14.6971 14.2161 14.6521 12.6279 16.5548 12.6279H17.9293V14.5128H17.013H16.5548V15.9265H17.9293V17.3402H16.5548V21.2525H14.7223V17.3402H13.806V15.9265Z" fill="#525C69"/>
</svg>
