<svg width="24" height="24" viewBox="0 0 24 24" fill="none" xmlns="http://www.w3.org/2000/svg">
<path fill-rule="evenodd" clip-rule="evenodd" d="M17.1772 12.0302L18.5711 10.794C18.8034 10.5663 18.9694 10.3061 18.9694 9.98076C18.9694 9.55785 18.6707 9.16747 18.2061 9.16747C17.9074 9.16747 17.6751 9.33012 17.4427 9.59038L15.2524 11.77V7.73608C15.2524 7.21557 14.8541 6.8252 14.3563 6.8252C13.8585 6.8252 13.4602 7.24811 13.4602 7.73608V14.8605C13.4602 15.381 13.8585 15.7714 14.3563 15.7714C14.8541 15.7714 15.2524 15.3485 15.2524 14.8605V13.8195L15.9493 13.1688L17.4759 15.381C17.6751 15.6738 17.9074 15.8039 18.2393 15.8039C18.6707 15.8039 19.0689 15.4786 19.0689 14.9581C19.0689 14.7629 19.0026 14.5677 18.8366 14.3725L17.1772 12.0302ZM11.2159 9.29791C10.7181 9.29791 10.3198 9.72082 10.3198 10.2088V14.8608C10.3198 15.3813 10.7181 15.7717 11.2159 15.7717C11.7137 15.7717 12.112 15.3488 12.112 14.8608V10.2088C12.0788 9.68829 11.6805 9.29791 11.2159 9.29791ZM7.4558 12.0305L8.84969 10.7943C9.082 10.5666 9.24794 10.3063 9.24794 9.98103C9.24794 9.55812 8.94925 9.16775 8.48462 9.16775C8.18593 9.16775 7.95362 9.3304 7.7213 9.59066L5.53091 11.7703V7.73636C5.53091 7.21585 5.13266 6.82547 4.63484 6.82547C4.13702 6.82547 3.73877 7.24838 3.73877 7.73636V14.8608C3.73877 15.3813 4.13702 15.7717 4.63484 15.7717C5.13266 15.7717 5.53091 15.3487 5.53091 14.8608V13.8198L6.22785 13.1691L7.75449 15.3813C7.95362 15.6741 8.18593 15.8042 8.51781 15.8042C8.94925 15.8042 9.34751 15.4789 9.34751 14.9584C9.34751 14.7632 9.28113 14.568 9.11519 14.3728L7.4558 12.0305ZM19.9541 11.542C19.3899 11.542 18.9585 11.965 18.9585 12.518C18.9585 13.071 19.3899 13.4939 19.9541 13.4939C20.5183 13.4939 20.9498 13.071 20.9498 12.518C20.9498 11.965 20.5183 11.542 19.9541 11.542Z" fill="#525C69"/>
</svg>
