<svg width="24" height="24" viewBox="0 0 24 24" fill="none" xmlns="http://www.w3.org/2000/svg">
<path fill-rule="evenodd" clip-rule="evenodd" d="M7.32402 19.8383C7.32402 19.8033 7.32402 19.7822 7.32402 19.7612C7.32402 18.7167 7.32402 17.6651 7.32402 16.6206C7.32402 16.5785 7.31029 16.5505 7.28283 16.5224C6.91207 16.1789 6.57564 15.7933 6.28728 15.3727C5.95771 14.896 5.69681 14.3843 5.50457 13.8304C5.36038 13.4168 5.26426 12.9962 5.20933 12.5686C5.16127 12.19 5.14068 11.8044 5.16127 11.4189C5.18874 10.8791 5.27799 10.3463 5.44277 9.82752C5.66935 9.09143 6.01951 8.42545 6.47952 7.81555C6.87774 7.28977 7.33775 6.84111 7.85956 6.45554C8.47749 5.99987 9.15721 5.65636 9.88499 5.42502C10.2832 5.29883 10.6883 5.2147 11.1002 5.15862C11.3955 5.11656 11.6907 5.10254 11.9928 5.10254C12.3018 5.10254 12.6107 5.12357 12.9128 5.15862C13.2836 5.20769 13.6544 5.28481 14.0114 5.38996C14.5126 5.53718 14.9932 5.74048 15.4463 5.99987C16.0574 6.34337 16.5998 6.76399 17.0804 7.27575C17.4855 7.70338 17.8288 8.18009 18.1103 8.70586C18.3987 9.24566 18.6046 9.8135 18.7351 10.4094C18.8038 10.7178 18.8449 11.0333 18.8655 11.3558C18.8861 11.7203 18.8793 12.0778 18.8381 12.4354C18.7694 13.0523 18.6184 13.6412 18.3781 14.216C18.0828 14.9241 17.6777 15.555 17.1628 16.1228C16.4831 16.8729 15.6798 17.4338 14.7598 17.8263C14.2379 18.0507 13.6955 18.2049 13.1394 18.289C12.6863 18.3661 12.2263 18.3942 11.7662 18.3731C11.32 18.3591 10.8805 18.289 10.4411 18.1909C10.3519 18.1698 10.2626 18.1488 10.1802 18.1278C10.1459 18.1208 10.1253 18.1208 10.091 18.1418C9.50737 18.4993 8.93063 18.8569 8.34704 19.2144C8.02434 19.4177 7.69478 19.614 7.36522 19.8173C7.36522 19.8173 7.35149 19.8243 7.32402 19.8383ZM7.71314 13.9075C7.71314 13.9145 7.72001 13.9145 7.72001 13.9215C7.74747 13.9075 7.77494 13.8935 7.79554 13.8794C8.82542 13.2976 9.8553 12.7157 10.8783 12.1268C10.9195 12.1058 10.9401 12.1058 10.9744 12.1409C11.5512 12.7297 12.121 13.3116 12.6978 13.9005C12.7321 13.9355 12.7458 13.9355 12.7802 13.9005C13.2127 13.4168 13.6384 12.933 14.0709 12.4493C14.7781 11.6501 15.4922 10.858 16.1994 10.0588C16.2406 10.0097 16.2817 9.96765 16.3229 9.91858C16.2886 9.91858 16.2611 9.9326 16.2406 9.95363C15.2107 10.5355 14.1808 11.1174 13.1578 11.7062C13.1166 11.7273 13.096 11.7273 13.0617 11.6922C12.4849 11.1033 11.9151 10.5215 11.3383 9.9326C11.304 9.89755 11.2903 9.89755 11.2559 9.9326C10.8234 10.4163 10.3977 10.9 9.96515 11.3837C9.25796 12.1829 8.54391 12.9751 7.83673 13.7743C7.79554 13.8163 7.75434 13.8584 7.71314 13.9075Z" fill="#525C69"/>
</svg>
