<svg width="24" height="24" viewBox="0 0 24 24" fill="none" xmlns="http://www.w3.org/2000/svg">
<path fill-rule="evenodd" clip-rule="evenodd" d="M12.0524 2.8252C9.47549 2.8252 7.38655 4.9142 7.38655 7.49103C7.38655 10.0679 9.47549 12.1571 12.0524 12.1571C14.6293 12.1571 16.7182 10.0679 16.7182 7.49103C16.7182 4.9142 14.6293 2.8252 12.0524 2.8252ZM12.0527 9.41998C10.9875 9.41998 10.124 8.55636 10.124 7.49116C10.124 6.42596 10.9875 5.56241 12.0527 5.56241C13.1179 5.56241 13.9815 6.42596 13.9815 7.49116C13.9815 8.55636 13.1179 9.41998 12.0527 9.41998ZM16.7471 14.5573C16.6879 14.6048 15.5685 15.4894 13.7006 15.8699L16.5201 18.6644C17.016 19.1594 17.0166 19.9627 16.5215 20.4585C16.0265 20.9543 15.2234 20.9551 14.7274 20.4599L11.99 17.7943L9.50381 20.4427C9.25489 20.701 8.92283 20.8308 8.59045 20.8308C8.27342 20.8308 7.95612 20.7128 7.70994 20.4755C7.20555 19.9891 7.19092 19.186 7.67728 18.6816L10.3535 15.8847C8.43327 15.5131 7.26771 14.6055 7.20768 14.5573C6.66109 14.119 6.57329 13.3205 7.01164 12.7739C7.44993 12.2273 8.24831 12.1395 8.79503 12.5778C8.80659 12.5871 10.0257 13.503 11.99 13.5043C13.9543 13.503 15.1482 12.5871 15.1597 12.5778C15.7065 12.1395 16.5048 12.2273 16.9431 12.7739C17.3815 13.3205 17.2937 14.119 16.7471 14.5573Z" fill="#525C69"/>
</svg>
