<svg width="24" height="24" viewBox="0 0 24 24" fill="none" xmlns="http://www.w3.org/2000/svg">
<path fill-rule="evenodd" clip-rule="evenodd" d="M12.0661 3.72523C14.1928 3.72523 16.2752 4.56021 17.7816 6.09833C19.288 7.59251 20.1298 9.61404 20.1298 11.7674C20.1298 16.206 16.4967 19.8535 12.0218 19.8535C10.6927 19.8535 9.3635 19.5459 8.16725 18.8867L3.86961 19.9854L5.02155 15.8105C4.35697 14.58 3.95822 13.2176 3.95822 11.8114C3.91391 7.37277 7.54697 3.72523 12.0661 3.72523ZM8.65461 17.5683C9.67364 18.1836 10.8699 18.4912 12.0661 18.4912C13.3067 18.4912 14.5473 18.1396 15.5663 17.4804C18.7563 15.5468 19.6867 11.4598 17.7373 8.29565C15.7878 5.13151 11.6674 4.20864 8.47739 6.14228C5.28739 8.07592 4.35697 12.2069 6.30642 15.3271L6.48364 15.5907L5.81905 18.0957L8.38878 17.4365L8.65461 17.5683ZM12.6063 7.08538C12.6496 7.00939 12.5813 6.91838 12.4963 6.93861L9.00378 7.76926C8.94788 7.78255 8.91466 7.8401 8.93109 7.89515L9.96963 11.3741C9.99481 11.4584 10.1088 11.4715 10.1523 11.395L11.0714 9.78235L13.7747 11.3569L13.8698 11.4159C14.5785 11.8889 14.8274 12.8177 14.4501 13.5816L14.3973 13.6803L14.3382 13.7753C13.8653 14.4841 12.9365 14.733 12.1726 14.3556L12.0739 14.3028L9.75348 12.9631L9.08493 14.1201L9.21139 14.2173C9.29777 14.2801 9.38831 14.339 9.48289 14.3936L11.5057 15.5615L11.6313 15.6302C13.0651 16.3718 14.8429 15.8613 15.6584 14.4488L15.7026 14.3723L15.7713 14.2467C16.5128 12.8129 16.0023 11.0351 14.5899 10.2196L11.76 8.57179L12.6063 7.08538Z" fill="#525C69"/>
</svg>
