<svg width="24" height="24" viewBox="0 0 24 24" fill="none" xmlns="http://www.w3.org/2000/svg">
<path fill-rule="evenodd" clip-rule="evenodd" d="M11.5629 10.4991C11.6979 10.4937 11.8329 10.4991 11.9678 10.4991C12.1028 10.4991 12.2378 10.4991 12.3727 10.4991C12.4321 10.4991 12.4537 10.4774 12.4537 10.4177C12.4537 10.152 12.4537 9.88619 12.4537 9.62042C12.4537 9.56076 12.4375 9.53906 12.3781 9.53906C12.1028 9.54449 11.8275 9.53906 11.5575 9.53906C11.5035 9.53906 11.4819 9.56076 11.4819 9.615C11.4819 9.88619 11.4819 10.152 11.4819 10.4232C11.4819 10.4882 11.5035 10.4991 11.5629 10.4991ZM18.2676 8.11197C18.2568 7.87874 18.2136 7.65094 18.1381 7.43398C17.9329 6.83193 17.5604 6.3492 17.0313 5.99665C16.54 5.67121 15.9893 5.53561 15.4063 5.53561C13.1981 5.53019 10.9954 5.53561 8.7873 5.53561C8.54436 5.53561 8.30141 5.54646 8.05846 5.57358C7.73993 5.60612 7.443 5.70918 7.16226 5.8502C6.70876 6.08343 6.34704 6.42513 6.0771 6.85905C5.80716 7.29296 5.66679 7.76484 5.66679 8.27469C5.66139 10.3195 5.66139 12.3643 5.66679 14.4037C5.66679 14.8322 5.64519 15.2607 5.68298 15.6892C5.70998 16.0417 5.80176 16.378 5.96372 16.6926C6.16348 17.0777 6.43342 17.4085 6.77894 17.6689C7.24324 18.0106 7.76153 18.2004 8.3338 18.2113C9.11663 18.2221 9.89946 18.2167 10.6877 18.2113C10.7417 18.2113 10.7903 18.2113 10.8227 18.2655C10.9468 18.4662 11.071 18.6723 11.1952 18.873C11.4327 19.2581 11.6757 19.6432 11.9132 20.0337C11.9456 20.0825 11.9672 20.0988 12.005 20.0337C12.1076 19.8656 12.2156 19.6974 12.3181 19.5293C12.5719 19.1171 12.831 18.7103 13.0848 18.2981C13.1226 18.2384 13.1603 18.2113 13.2305 18.2113C13.9594 18.2167 14.6936 18.2113 15.4224 18.2167C15.6438 18.2167 15.8598 18.2004 16.0811 18.157C16.7722 18.016 17.3282 17.6472 17.7493 17.0831C18.1273 16.5733 18.2838 15.9875 18.2892 15.3583C18.2946 14.1922 18.2892 13.026 18.2892 11.6104C18.2676 10.607 18.3162 9.35947 18.2676 8.11197ZM9.43604 10.5856C9.43604 10.5151 9.45763 10.4934 9.52782 10.4934C9.80855 10.4988 10.0893 10.4934 10.37 10.4988C10.4456 10.4988 10.4726 10.4826 10.4726 10.4012C10.4672 10.1463 10.4672 9.89136 10.4726 9.63643C10.4726 9.5605 10.451 9.5388 10.3754 9.54423C10.2351 9.54965 10.0893 9.54423 9.94892 9.54423C9.80315 9.54423 9.65739 9.54423 9.51162 9.54423C9.45763 9.54423 9.43604 9.52796 9.43604 9.46829C9.43604 9.16998 9.44143 8.87709 9.43604 8.57877C9.43604 8.50284 9.47383 8.50284 9.52782 8.50284C9.80315 8.50284 10.0839 8.50284 10.3592 8.50284C10.4402 8.50284 10.4672 8.47572 10.4672 8.39436C10.4618 8.11774 10.4672 7.84112 10.4618 7.5645C10.4618 7.49399 10.4726 7.45602 10.559 7.46145C10.8343 7.46687 11.1097 7.46687 11.385 7.46145C11.4606 7.46145 11.4822 7.48314 11.4822 7.55908C11.4768 7.8357 11.4822 8.11232 11.4768 8.38894C11.4768 8.48114 11.5092 8.50826 11.5956 8.50826C11.8493 8.50284 12.0977 8.50284 12.3514 8.50826C12.427 8.50826 12.454 8.49199 12.454 8.41063C12.4486 8.13401 12.454 7.85739 12.4486 7.58077C12.4486 7.49399 12.4756 7.46687 12.562 7.46687C12.8373 7.4723 13.1126 7.4723 13.388 7.46687C13.469 7.46687 13.4851 7.49399 13.4851 7.56993C13.4797 7.85197 13.4851 8.13401 13.4797 8.41606C13.4797 8.48657 13.5013 8.50826 13.5715 8.50826C13.8577 8.50284 14.1384 8.50826 14.4245 8.50826C14.4947 8.50826 14.5163 8.52453 14.5163 8.59504C14.5109 8.87709 14.5109 9.15913 14.5163 9.44117C14.5163 9.52253 14.4893 9.54423 14.4137 9.54423C14.1384 9.5388 13.8577 9.54423 13.5823 9.5388C13.5121 9.5388 13.4851 9.55508 13.4851 9.63101C13.4905 9.89136 13.4905 10.1517 13.4851 10.4066C13.4851 10.4771 13.5067 10.4988 13.5769 10.4934C13.8523 10.488 14.133 10.4934 14.4083 10.488C14.4893 10.488 14.5217 10.5097 14.5163 10.5965C14.5109 10.8785 14.5109 11.1606 14.5163 11.4426C14.5163 11.5077 14.4947 11.5294 14.4299 11.5294C14.1546 11.524 13.8739 11.5294 13.5985 11.524C13.5067 11.524 13.4797 11.5565 13.4797 11.6433C13.4851 11.9199 13.4797 12.1965 13.4851 12.4731C13.4851 12.5436 13.469 12.5653 13.3988 12.5653C13.1126 12.5599 12.8319 12.5599 12.5458 12.5653C12.4702 12.5653 12.454 12.5382 12.454 12.4677C12.4594 12.1857 12.454 11.9036 12.4594 11.6216C12.4594 11.5456 12.4378 11.524 12.3622 11.524C12.1031 11.5294 11.8439 11.5294 11.5902 11.524C11.5038 11.524 11.4822 11.5565 11.4822 11.6379C11.4876 11.9145 11.4822 12.1965 11.4876 12.4731C11.4876 12.5436 11.4714 12.5653 11.4012 12.5653C11.1259 12.5599 10.8451 12.5599 10.5698 12.5653C10.4942 12.5653 10.478 12.5382 10.478 12.4677C10.4834 12.1911 10.478 11.9145 10.4834 11.6379C10.4834 11.5511 10.4564 11.524 10.37 11.524C10.0947 11.5294 9.81935 11.524 9.54401 11.5294C9.47383 11.5294 9.44143 11.5185 9.44683 11.4372C9.44143 11.1606 9.44143 10.8731 9.43604 10.5856ZM16.7538 13.6449C16.6566 13.8673 16.5054 14.0571 16.3597 14.247C16.2031 14.4477 16.0249 14.6266 15.8414 14.8056C15.5175 15.1256 15.1557 15.3914 14.7616 15.6084C14.3459 15.8416 13.9032 16.0206 13.4335 16.1291C13.142 16.1996 12.845 16.243 12.5427 16.2647C12.3538 16.2809 12.1648 16.2701 11.9812 16.2809C11.4791 16.2918 10.9825 16.243 10.4966 16.1236C9.77852 15.9446 9.13066 15.6246 8.54219 15.1745C8.28305 14.9738 8.0509 14.7568 7.82955 14.5127C7.6028 14.2687 7.39764 14.0083 7.24108 13.71C7.1493 13.5364 7.08991 13.3466 7.17629 13.1513C7.29506 12.8801 7.592 12.75 7.88354 12.8368C8.09949 12.9018 8.24526 13.0537 8.36943 13.2327C8.73655 13.7751 9.22784 14.1819 9.78932 14.5073C10.2374 14.7677 10.7125 14.9304 11.2146 15.028C11.4306 15.0714 11.6465 15.0931 11.8679 15.0985C12.4131 15.1148 12.9368 15.0172 13.4497 14.8382C13.9572 14.6592 14.4215 14.388 14.8426 14.0463C15.1719 13.7805 15.4365 13.4659 15.674 13.1188C15.8306 12.8856 16.1383 12.7608 16.3759 12.8205C16.8078 12.929 16.9158 13.2869 16.7538 13.6449Z" fill="#525C69"/>
</svg>
