<svg width="24" height="24" viewBox="0 0 24 24" fill="none" xmlns="http://www.w3.org/2000/svg">
<path fill-rule="evenodd" clip-rule="evenodd" d="M19.5963 11.9993C19.5963 12.403 19.5642 12.7984 19.5031 13.185C19.9362 13.8854 20.1867 14.7103 20.1865 15.5953C20.1865 18.1306 18.1315 20.186 15.5957 20.186C14.711 20.186 13.886 19.9348 13.1856 19.5028C12.7994 19.5637 12.4027 19.5948 11.9998 19.5948C7.80527 19.5948 4.40448 16.1951 4.40448 11.9995C4.40448 11.5958 4.43744 11.2016 4.49732 10.8144C4.06463 10.1134 3.81396 9.28843 3.81396 8.40372C3.81396 5.86837 5.86917 3.81348 8.40431 3.81348C9.28922 3.81348 10.1149 4.06398 10.8145 4.49686C11.2008 4.43645 11.5974 4.40329 12 4.40329C16.1955 4.40329 19.5963 7.80401 19.5963 11.9993ZM14.1965 16.5381C14.8133 16.2782 15.2854 15.9167 15.6067 15.4541C15.9288 14.9922 16.0905 14.4704 16.0897 13.8902C16.0897 13.4084 15.9967 12.999 15.8098 12.6637C15.6243 12.329 15.3644 12.0519 15.0318 11.8345C14.7019 11.6165 14.3026 11.4336 13.8346 11.2818C13.3658 11.1309 12.844 10.9924 12.2688 10.8684C11.8101 10.7605 11.4801 10.679 11.2812 10.6226C11.0846 10.5676 10.889 10.4912 10.6967 10.3925C10.5044 10.2952 10.3549 10.1798 10.2474 10.0467C10.1415 9.91474 10.0889 9.76047 10.0884 9.57749C10.0891 9.28549 10.2428 9.03628 10.5642 8.82148C10.8837 8.61007 11.307 8.50197 11.8361 8.50197C12.4078 8.50075 12.8188 8.60128 13.0678 8.79438C13.3236 8.99114 13.5436 9.26623 13.7273 9.61932C13.8726 9.87238 14.0069 10.0539 14.1348 10.168C14.2661 10.2859 14.4555 10.3416 14.6969 10.3416C14.9647 10.3424 15.194 10.2461 15.3733 10.0572C15.5526 9.86857 15.6446 9.65331 15.6446 9.41598C15.6446 9.16072 15.5732 8.89913 15.4314 8.63131C15.2895 8.36428 15.0654 8.10982 14.7609 7.86857C14.4545 7.62678 14.0712 7.43409 13.6115 7.28808C13.1505 7.14313 12.6058 7.07027 11.9762 7.07027C11.1888 7.07027 10.5016 7.1799 9.91778 7.39904C9.33195 7.61825 8.88266 7.93297 8.57212 8.34415C8.26143 8.75418 8.10623 9.22531 8.10623 9.75213C8.10623 10.3046 8.25324 10.7711 8.54806 11.1463C8.84227 11.518 9.23922 11.8122 9.73765 12.0274C10.2354 12.2418 10.8501 12.4285 11.5851 12.5889C12.1324 12.7042 12.5692 12.8137 12.8945 12.9168C13.2186 13.019 13.4797 13.1654 13.6819 13.3576C13.8823 13.5474 13.98 13.7907 13.98 14.0972C13.98 14.4814 13.7988 14.7994 13.4215 15.0608C13.0461 15.3198 12.5555 15.4511 11.9486 15.4511C11.5051 15.4511 11.1506 15.3866 10.8843 15.2576C10.6151 15.129 10.4072 14.9647 10.2594 14.7678C10.1108 14.5685 9.97107 14.3187 9.84245 14.0199C9.73514 13.762 9.60393 13.5665 9.44751 13.4321C9.28992 13.2976 9.09636 13.2297 8.87101 13.2297C8.59591 13.2297 8.36283 13.3161 8.18187 13.4884C8.00277 13.6595 7.91076 13.8693 7.91076 14.1106C7.91076 14.5195 8.05956 14.939 8.35305 15.3673C8.64593 15.7952 9.02689 16.1384 9.49529 16.3943C10.1561 16.7515 10.9932 16.9285 12.0043 16.9285C12.8479 16.9285 13.5784 16.7988 14.1965 16.5381Z" fill="#525C69"/>
</svg>
