<svg width="24" height="24" viewBox="0 0 24 24" fill="none" xmlns="http://www.w3.org/2000/svg">
<path fill-rule="evenodd" clip-rule="evenodd" d="M19.0013 12.394C18.7251 11.7757 17.9995 11.4982 17.3812 11.7744L16.791 12.039L15.2782 8.65761L15.8684 8.3939C16.4867 8.11683 16.7638 7.39164 16.4872 6.77381C16.211 6.15508 15.4858 5.87757 14.8671 6.15464L14.2773 6.41879L14.0131 5.82812C13.7365 5.20984 13.0113 4.93322 12.3931 5.20984C11.7748 5.48602 11.4982 6.21076 11.7743 6.82993L12.0385 7.42015L8.65708 8.93245L8.39338 8.34223C8.11676 7.72306 7.39157 7.44732 6.77329 7.72306C6.155 7.99968 5.87838 8.72487 6.15456 9.34315L6.41826 9.93292L5.82849 10.1975C5.21021 10.4741 4.93314 11.1984 5.20977 11.8172C5.48594 12.4354 6.21158 12.7125 6.82986 12.4363L7.42008 12.1717L8.93193 15.5536L8.34171 15.8173C7.72343 16.0939 7.4468 16.8195 7.72298 17.4374C7.9996 18.0561 8.72479 18.3332 9.34307 18.057L9.93285 17.7928L10.197 18.3831C10.4736 19.0018 11.1988 19.2784 11.8171 19.0018C12.4349 18.7256 12.712 18.0004 12.4354 17.3821L12.1721 16.7915L15.5535 15.2796L15.8172 15.8681C16.0938 16.4877 16.8186 16.7648 17.4373 16.4881C18.0556 16.2124 18.3327 15.4868 18.056 14.868L17.7923 14.2783L18.3817 14.0137C19.0008 13.737 19.2779 13.0123 19.0013 12.394ZM11.171 14.5523L9.65869 11.1701L13.0401 9.6582L14.5524 13.0396L11.171 14.5523Z" fill="#525C69"/>
</svg>
