<svg width="24" height="24" viewBox="0 0 24 24" fill="none" xmlns="http://www.w3.org/2000/svg">
<path d="M12.9076 15.945C12.9076 16.3249 13.1282 16.6617 13.3697 16.9549C13.6222 17.2615 13.7738 17.6543 13.7738 18.0825C13.7738 19.0627 12.9791 19.8574 11.9988 19.8574C11.0186 19.8574 10.2239 19.0627 10.2239 18.0825C10.2239 17.6543 10.3755 17.2615 10.628 16.9549C10.8695 16.6617 11.0901 16.3249 11.0901 15.945V15.4429C11.3802 15.5193 11.6848 15.56 11.9989 15.56C12.3129 15.56 12.6175 15.5193 12.9076 15.4429V15.945Z" fill="#525C69"/>
<path d="M13.7906 15.0769C14.3219 14.7668 14.7657 14.323 15.0758 13.7917L15.4311 14.1469C15.6997 14.4155 16.0938 14.4977 16.4719 14.5343C16.8672 14.5726 17.2522 14.7431 17.5549 15.0459C18.2481 15.739 18.2481 16.8629 17.5549 17.556C16.8618 18.2492 15.7379 18.2492 15.0448 17.556C14.742 17.2532 14.5715 16.8683 14.5332 16.473C14.4966 16.0949 14.4144 15.7007 14.1458 15.4321L13.7906 15.0769Z" fill="#525C69"/>
<path d="M15.4418 12.9087C15.5182 12.6186 15.5589 12.314 15.5589 11.9999C15.5589 11.6858 15.5182 11.3813 15.4418 11.0912H15.9439C16.3238 11.0912 16.6606 10.8705 16.9539 10.6291C17.2604 10.3766 17.6532 10.225 18.0814 10.225C19.0617 10.225 19.8563 11.0197 19.8563 11.9999C19.8563 12.9802 19.0617 13.7749 18.0814 13.7749C17.6532 13.7749 17.2604 13.6233 16.9539 13.3708C16.6606 13.1293 16.3238 12.9087 15.9439 12.9087H15.4418Z" fill="#525C69"/>
<path d="M15.0758 10.2082C14.7657 9.67684 14.3219 9.23307 13.7906 8.92299L14.1458 8.56774C14.4144 8.29913 14.4966 7.90498 14.5332 7.52686C14.5715 7.13155 14.742 6.74661 15.0448 6.44384C15.7379 5.75068 16.8618 5.75068 17.5549 6.44384C18.2481 7.137 18.2481 8.26085 17.5549 8.954C17.2522 9.25677 16.8672 9.42729 16.4719 9.46558C16.0938 9.50218 15.6997 9.58433 15.4311 9.85295L15.0758 10.2082Z" fill="#525C69"/>
<path d="M12.9076 8.55694C12.6175 8.48057 12.3129 8.4399 11.9989 8.4399C11.6848 8.4399 11.3802 8.48057 11.0901 8.55694V8.05484C11.0901 7.67498 10.8695 7.33817 10.628 7.04493C10.3755 6.73833 10.2239 6.34557 10.2239 5.91739C10.2239 4.93712 11.0186 4.14244 11.9988 4.14244C12.9791 4.14244 13.7738 4.93712 13.7738 5.91739C13.7738 6.34557 13.6222 6.73833 13.3697 7.04493C13.1282 7.33817 12.9076 7.67498 12.9076 8.05484V8.55694Z" fill="#525C69"/>
<path d="M10.2071 8.92298C9.67576 9.23306 9.23198 9.67684 8.9219 10.2082L8.56665 9.85293C8.29805 9.58433 7.9039 9.50217 7.52578 9.46558C7.13046 9.42729 6.74555 9.25677 6.44278 8.954C5.7496 8.26085 5.7496 7.137 6.44278 6.44384C7.13592 5.75068 8.25977 5.75068 8.95292 6.44384C9.25569 6.74661 9.42619 7.13155 9.46449 7.52686C9.5011 7.90496 9.58325 8.29913 9.85185 8.56773L10.2071 8.92298Z" fill="#525C69"/>
<path d="M8.55586 11.0912C8.4795 11.3813 8.43882 11.6858 8.43882 11.9999C8.43882 12.314 8.4795 12.6186 8.55586 12.9087H8.05374C7.6739 12.9087 7.33708 13.1293 7.04385 13.3708C6.73725 13.6233 6.34449 13.7749 5.91631 13.7749C4.93604 13.7749 4.14136 12.9802 4.14136 11.9999C4.14136 11.0197 4.93604 10.225 5.91631 10.225C6.34449 10.225 6.73725 10.3766 7.04385 10.6291C7.33708 10.8705 7.6739 11.0912 8.05374 11.0912H8.55586Z" fill="#525C69"/>
<path d="M8.92191 13.7917L8.56665 14.1469C8.29805 14.4155 7.90387 14.4977 7.52578 14.5343C7.13046 14.5726 6.74555 14.7431 6.44278 15.0459C5.7496 15.739 5.7496 16.8629 6.44278 17.556C7.13592 18.2492 8.25977 18.2492 8.95292 17.556C9.25569 17.2532 9.42619 16.8683 9.46449 16.473C9.50108 16.0949 9.58325 15.7007 9.85185 15.4321L10.2071 15.0769C9.67577 14.7668 9.23199 14.323 8.92191 13.7917Z" fill="#525C69"/>
<path d="M15.1965 11.9999C15.1965 10.2339 13.7649 8.80224 11.9988 8.80224C10.2328 8.80224 8.80116 10.2339 8.80116 11.9999C8.80116 13.766 10.2328 15.1976 11.9988 15.1976C13.7649 15.1976 15.1965 13.766 15.1965 11.9999Z" fill="#525C69"/>
</svg>
