<svg width="24" height="24" viewBox="0 0 24 24" fill="none" xmlns="http://www.w3.org/2000/svg">
<path fill-rule="evenodd" clip-rule="evenodd" d="M20 12C20 16.4183 16.4183 20 12 20C7.58172 20 4 16.4183 4 12C4 7.58172 7.58172 4 12 4C16.4183 4 20 7.58172 20 12ZM10.4042 13.0532L13.9193 9.80074C13.9852 9.74018 13.9063 9.63715 13.8299 9.68385L9.57062 12.2951C9.40732 12.3953 9.33049 12.5916 9.38311 12.7754L9.84363 14.3861C9.87647 14.5002 10.0428 14.4885 10.0587 14.3706L10.1785 13.4873C10.201 13.321 10.2806 13.1676 10.4042 13.0532ZM6.68106 11.4378L15.625 8.00318C15.8146 7.93018 16.0103 8.09554 15.969 8.29373L14.3639 15.9791C14.3261 16.1604 14.1124 16.2426 13.9615 16.1336L11.7704 14.55C11.6374 14.454 11.4559 14.4591 11.3287 14.5624L10.1139 15.5481C9.97286 15.6629 9.76043 15.5989 9.70646 15.4261L8.86289 12.7257L6.68354 11.916C6.46217 11.8336 6.46026 11.5224 6.68106 11.4378Z" fill="#525C69"/>
</svg>
