<svg width="24" height="24" viewBox="0 0 24 24" fill="none" xmlns="http://www.w3.org/2000/svg">
<path fill-rule="evenodd" clip-rule="evenodd" d="M15.165 8.59552L9.80482 13.5553C9.61636 13.7297 9.49497 13.9637 9.46051 14.2171L9.27788 15.5641C9.25373 15.744 9.00002 15.7617 8.94994 15.5877L8.2477 13.1315C8.16746 12.8514 8.28461 12.552 8.53363 12.3992L15.0286 8.41726C15.1451 8.34605 15.2654 8.50317 15.165 8.59552ZM17.7662 5.85495L4.12743 11.0924C3.79073 11.2215 3.79365 11.6959 4.13121 11.8217L7.45453 13.0563L8.74088 17.1742C8.82318 17.4377 9.14712 17.5354 9.3622 17.3603L11.2146 15.8572C11.4087 15.6996 11.6854 15.6919 11.8882 15.8383L15.2294 18.2531C15.4595 18.4193 15.7854 18.294 15.8431 18.0174L18.2906 6.29801C18.3537 5.99578 18.0552 5.74363 17.7662 5.85495Z" fill="#525C69"/>
</svg>
