<svg width="24" height="24" viewBox="0 0 24 24" fill="none" xmlns="http://www.w3.org/2000/svg">
	<path fill-rule="evenodd" clip-rule="evenodd" d="M20 12C20 16.4183 16.4183 20 12 20C7.58172 20 4 16.4183 4 12C4 7.58172 7.58172 4 12 4C16.4183 4 20 7.58172 20 12ZM7.37621 12.3545L9.36359 12.9968C9.39709 13.0026 9.43148 13.0005 9.46402 12.9907L9.46537 12.9899C9.92419 12.7025 14.0126 10.1417 14.2486 10.0556C14.2858 10.0444 14.3135 10.057 14.3062 10.0825C14.2115 10.4118 10.6538 13.5484 10.6538 13.5484C10.6538 13.5484 10.6192 13.5875 10.6255 13.6191C10.627 13.6312 10.631 13.6429 10.6374 13.6533C10.6438 13.6638 10.6524 13.6727 10.6626 13.6796C11.1141 13.9792 13.1572 15.3411 13.7484 15.8454C13.8015 15.8966 13.8645 15.9366 13.9336 15.9631C14.0027 15.9896 14.0764 16.0021 14.1504 15.9997C14.4517 15.9885 14.5358 15.6603 14.5358 15.6603C14.5358 15.6603 15.941 10.0515 15.988 9.30002C15.9898 9.27154 15.9918 9.24706 15.9937 9.2248C15.9966 9.18958 15.9991 9.15995 15.9995 9.12892C16.0019 9.07041 15.9961 9.01185 15.9822 8.95493C15.9752 8.9227 15.9596 8.89291 15.9371 8.86861C15.9146 8.84431 15.8861 8.82636 15.8543 8.81661C15.7259 8.76821 15.5082 8.84098 15.5082 8.84098C15.5082 8.84098 7.79803 11.5897 7.35768 11.8941C7.26268 11.9595 7.23092 11.9975 7.21517 12.0422C7.13869 12.2589 7.37621 12.3545 7.37621 12.3545Z" fill="#525C69"/>
</svg>
