<svg width="24" height="24" viewBox="0 0 24 24" fill="none" xmlns="http://www.w3.org/2000/svg">
<path fill-rule="evenodd" clip-rule="evenodd" d="M19.201 8.23049L19.2055 8.2487C19.6555 10.3269 19.6555 12.4345 19.2055 14.5128L19.201 14.531C18.8371 16.0192 17.1963 17.616 15.6896 17.9483L15.6726 17.9518C14.4543 18.1869 13.2269 18.3042 12.0001 18.3042C11.639 18.3042 11.2779 18.2929 10.917 18.2724L9.25305 20.0219C8.84111 20.4558 8.11672 20.1605 8.11672 19.5593V17.8981C6.66619 17.4791 5.14762 15.9556 4.79872 14.531L4.79472 14.5128C4.34479 12.4345 4.34479 10.3269 4.79472 8.2487L4.79872 8.23049C5.16317 6.74235 6.80392 5.14548 8.31019 4.81327L8.32769 4.80973C10.7643 4.33947 13.2354 4.33947 15.6726 4.80973L15.6896 4.81327C17.1963 5.14548 18.8371 6.74235 19.201 8.23049ZM15.3749 16.3629C16.3545 16.1465 17.5874 14.975 17.8278 14.0327C18.229 12.2095 18.229 10.3612 17.8278 8.53792C17.5874 7.59563 16.355 6.42415 15.3749 6.20772C13.1357 5.78516 10.8648 5.78516 8.62506 6.20772C7.64547 6.42415 6.41306 7.59563 6.17212 8.53792C5.77138 10.3611 5.77138 12.2094 6.17212 14.0326C6.41306 14.9749 7.64547 16.1464 8.62506 16.3628L8.62581 16.363C8.66949 16.3715 8.70125 16.409 8.70125 16.4531V19.124C8.70125 19.2575 8.86551 19.3232 8.95902 19.2266L11.4403 16.7002C11.4582 16.6819 11.4829 16.672 11.5086 16.6727C12.7999 16.7082 14.0924 16.6048 15.3749 16.3629ZM13.7882 15.4071C13.6868 15.3791 13.5892 15.352 13.4965 15.3134C12.0785 14.7226 10.7734 13.9605 9.73969 12.7922C9.15183 12.1278 8.69173 11.3777 8.30278 10.5839C8.13741 10.2464 7.99535 9.89704 7.85354 9.54827L7.80448 9.42771C7.66001 9.07331 7.8728 8.70718 8.09686 8.44016C8.3071 8.18956 8.57764 7.99777 8.87063 7.85643C9.09931 7.7461 9.3249 7.80971 9.49191 8.00435C9.85297 8.42516 10.1846 8.8675 10.4532 9.35528C10.6183 9.65531 10.573 10.0221 10.2737 10.2262C10.2153 10.2661 10.161 10.3115 10.1068 10.3569L10.0669 10.3902C10.0075 10.4393 9.95156 10.4889 9.91083 10.5554C9.83636 10.6771 9.8328 10.8207 9.88075 10.953C10.2498 11.9715 10.8719 12.7635 11.8928 13.1901L11.9365 13.2085C12.0856 13.2717 12.237 13.3358 12.4085 13.3158C12.6124 13.2918 12.7271 13.138 12.8425 12.9833C12.9054 12.8989 12.9686 12.8143 13.0466 12.7502C13.2624 12.573 13.5383 12.5706 13.7708 12.7184C14.0034 12.8662 14.2289 13.0249 14.453 13.1853L14.4984 13.2177C14.7031 13.364 14.906 13.509 15.095 13.6761C15.2901 13.8487 15.3573 14.075 15.2474 14.3092C15.0463 14.7381 14.7536 15.0949 14.3314 15.3226C14.2498 15.3666 14.1574 15.3902 14.0642 15.414C14.0211 15.425 13.9778 15.4361 13.9353 15.4492C13.8855 15.4341 13.8363 15.4204 13.7882 15.4071ZM15.6795 10.4225C15.3821 8.60023 13.9943 7.37697 12.3047 7.32533C12.2953 7.32529 12.2858 7.32512 12.2763 7.32495C12.253 7.32454 12.2298 7.32414 12.2067 7.32553C12.0869 7.33255 11.9807 7.44184 12.0032 7.57909C12.0284 7.73373 12.1709 7.74941 12.2884 7.76233L12.3087 7.7646C12.3681 7.7714 12.4277 7.77701 12.4873 7.78263C12.6193 7.79507 12.7513 7.80751 12.8811 7.8328C14.1339 8.07656 15.1376 9.21254 15.3125 10.5856C15.3389 10.7931 15.3519 11.0027 15.365 11.2122C15.3683 11.2653 15.3716 11.3184 15.3751 11.3715C15.3839 11.504 15.4448 11.6276 15.5802 11.6258C15.7114 11.6241 15.7802 11.4982 15.7707 11.3656L15.7625 11.2491C15.7432 10.9724 15.7239 10.6948 15.6795 10.4225ZM14.6973 10.8443C14.6967 10.85 14.6961 10.8577 14.6954 10.8668C14.6934 10.8935 14.6905 10.9326 14.682 10.9699C14.6408 11.1513 14.3485 11.2286 14.294 11.0455C14.2779 10.9912 14.2755 10.9294 14.2754 10.8709C14.2748 10.4883 14.2033 10.106 14.0372 9.7731C13.8666 9.43093 13.6058 9.14328 13.3 8.96922C13.115 8.86399 12.915 8.79858 12.7123 8.75959C12.6572 8.749 12.6017 8.74099 12.5462 8.73298C12.5125 8.72813 12.4788 8.72327 12.4452 8.71783C12.3373 8.70042 12.2797 8.62051 12.2848 8.49697C12.2896 8.3812 12.3624 8.29793 12.471 8.30506C12.8277 8.32861 13.1723 8.41821 13.4895 8.61339C14.1344 9.01033 14.5585 9.58232 14.666 10.419C14.6678 10.4325 14.6699 10.446 14.672 10.4596C14.6758 10.4838 14.6796 10.508 14.6812 10.5325C14.6855 10.5985 14.6886 10.6646 14.6923 10.7411L14.6973 10.8443ZM13.3654 10.8784C13.3849 11.0481 13.4858 11.1505 13.6745 11.1472C13.7604 11.1415 13.8485 11.083 13.8761 10.9664C13.8917 10.9004 13.8853 10.8277 13.8791 10.7585L13.8785 10.7517C13.7894 9.74219 13.1644 9.29885 12.29 9.23695C12.1501 9.22701 12.0255 9.32502 12.0041 9.45059C11.9805 9.58857 12.0635 9.70766 12.2134 9.7437C12.2781 9.75925 12.3441 9.76515 12.4101 9.77106C12.4851 9.77776 12.5601 9.78448 12.6337 9.8053C12.7426 9.83613 12.8466 9.88393 12.9384 9.94953C13.1329 10.0884 13.2557 10.2985 13.3124 10.5252C13.3372 10.6242 13.3485 10.7268 13.3599 10.8289C13.3617 10.8454 13.3635 10.8619 13.3654 10.8784Z" fill="#525C69"/>
</svg>
