<svg width="24" height="24" viewBox="0 0 24 24" fill="none" xmlns="http://www.w3.org/2000/svg">
<path fill-rule="evenodd" clip-rule="evenodd" d="M14.6786 7.93956C14.6786 8.31141 14.3646 8.61511 13.9802 8.61511H8.37058C7.98667 8.61511 7.67218 8.31141 7.67218 7.93956V7.90499C7.67218 7.53314 7.98667 7.22944 8.37058 7.22944H13.9802C14.3646 7.22944 14.6786 7.53314 14.6786 7.90499V7.93956ZM13.4588 10.952C13.4588 11.3238 13.1449 11.6275 12.7609 11.6275H8.36995C7.98604 11.6275 7.67105 11.3238 7.67105 10.952V10.9169C7.67105 10.5451 7.98604 10.2414 8.36995 10.2414H12.7609C13.1449 10.2414 13.4588 10.5451 13.4588 10.9169V10.952ZM15.5 11C13.6766 11 12.0605 11.8873 11.0598 13.2537H8.36995C7.98604 13.2537 7.67105 13.5574 7.67105 13.9292V13.9638C7.67105 14.3356 7.98604 14.6393 8.36995 14.6393H10.3227C10.1138 15.2205 10 15.8469 10 16.5C10 17.0827 10.0906 17.6441 10.2585 18.1711H6.59186C6.17171 18.1711 5.82812 17.8388 5.82812 17.4324V5.88134C5.82812 5.47492 6.17171 5.14258 6.59186 5.14258H17.4072C17.8274 5.14258 18.171 5.47492 18.171 5.88134V11.691C17.3801 11.2508 16.4693 11 15.5 11ZM11.9531 13.9111C12.0256 17.4542 13.8907 19.5863 16.9638 19.5863H17.142V17.5594C18.2607 17.6728 19.0959 18.508 19.4366 19.5863H21.0498C20.612 17.9732 19.477 17.0813 18.7715 16.7406C19.477 16.3191 20.4741 15.2975 20.7091 13.9111H19.242C18.9335 15.038 18.0176 16.0596 17.142 16.1567V13.9111H15.6499V17.8434C14.7422 17.6183 13.5581 16.5138 13.5096 13.9111H11.9531Z" fill="#525C69"/>
</svg>
