<svg width="24" height="24" viewBox="0 0 24 24" fill="none" xmlns="http://www.w3.org/2000/svg">
<path fill-rule="evenodd" clip-rule="evenodd" d="M8.20656 8.53839C8.20656 8.26395 8.33361 8.01919 8.5321 7.8597V8.51021C8.5321 8.82589 8.788 9.08179 9.10368 9.08179C9.41936 9.08179 9.67527 8.82589 9.67527 8.51021V7.90678C9.84255 8.06536 9.94689 8.28969 9.94689 8.53839C9.94689 9.01897 9.5573 9.40855 9.07673 9.40855C8.59615 9.40855 8.20656 9.01897 8.20656 8.53839ZM14.4025 6.213C14.4002 6.24172 14.3978 6.26311 14.3962 6.27591H9.66626C9.66466 6.26311 9.66225 6.24172 9.65995 6.213C9.65524 6.15413 9.6511 6.06612 9.65481 5.95909C9.66235 5.74155 9.7016 5.46548 9.81792 5.19883C9.93123 4.93906 10.1186 4.68441 10.4386 4.48939C10.7625 4.29201 11.2608 4.13243 12.0312 4.13243C12.8017 4.13243 13.3 4.29201 13.6239 4.48939C13.9439 4.68441 14.1313 4.93906 14.2446 5.19883C14.3609 5.46548 14.4001 5.74155 14.4077 5.95909C14.4114 6.06612 14.4073 6.15413 14.4025 6.213ZM16.8824 6.27591H15.5442C15.5507 6.18344 15.5551 6.06171 15.5502 5.91951C15.5394 5.6085 15.4835 5.17984 15.2924 4.74177C15.0983 4.29681 14.766 3.84673 14.2188 3.51321C13.6754 3.18204 12.9587 2.98926 12.0312 2.98926C11.1038 2.98926 10.3871 3.18204 9.84372 3.51321C9.29645 3.84673 8.96418 4.29681 8.77009 4.74177C8.579 5.17984 8.5231 5.6085 8.51232 5.91951C8.5074 6.06171 8.51177 6.18344 8.51829 6.27591H7.11679C6.60203 6.27591 6.17136 6.66669 6.1215 7.17904L5.15812 17.0772C5.10091 17.665 5.56285 18.1741 6.15341 18.1741H17.8458C18.4363 18.1741 18.8983 17.665 18.8411 17.0772L17.8777 7.17903C17.8278 6.66669 17.3972 6.27591 16.8824 6.27591ZM14.3872 8.51021V7.85281C14.1839 8.01209 14.0532 8.25989 14.0532 8.5382C14.0532 9.01878 14.4428 9.40837 14.9234 9.40837C15.404 9.40837 15.7936 9.01878 15.7936 8.5382C15.7936 8.29372 15.6927 8.07279 15.5304 7.91472V8.51021C15.5304 8.82589 15.2745 9.08179 14.9588 9.08179C14.6431 9.08179 14.3872 8.82589 14.3872 8.51021ZM7.60549 10.8739C7.67557 14.2985 9.47826 16.3594 12.4487 16.3594H12.621V14.4002C13.7023 14.5098 14.5096 15.3171 14.8389 16.3594H16.3982C15.975 14.8002 14.8779 13.9381 14.196 13.6087C14.8779 13.2014 15.8417 12.2139 16.0688 10.8739H14.6508C14.3525 11.9631 13.4673 12.9506 12.621 13.0444V10.8739H11.1787V14.6748C10.3014 14.4571 9.15683 13.3895 9.10993 10.8739H7.60549Z" fill="#525C69"/>
</svg>
