<svg width="24" height="24" viewBox="0 0 24 24" fill="none" xmlns="http://www.w3.org/2000/svg">
<path fill-rule="evenodd" clip-rule="evenodd" d="M12.0836 4.00277C14.1832 4.00277 16.2391 4.82714 17.7264 6.34571C19.2136 7.8209 20.0447 9.81675 20.0447 11.9428C20.0447 16.3249 16.4578 19.9261 12.0398 19.9261C10.7276 19.9261 9.41528 19.6224 8.23423 18.9716L3.9912 20.0563L5.12851 15.9344C4.47237 14.7196 4.07868 13.3746 4.07868 11.9861C4.03494 7.60396 7.62184 4.00277 12.0836 4.00277ZM8.7154 17.67C9.72148 18.2774 10.9025 18.5811 12.0836 18.5811C13.3084 18.5811 14.5332 18.234 15.5392 17.5832C18.6887 15.6741 19.6073 11.639 17.6826 8.51511C15.758 5.39118 11.6899 4.48003 8.54043 6.3891C5.39096 8.29817 4.47237 12.3766 6.39704 15.4572L6.57201 15.7175L5.91587 18.1906L8.45294 17.5398L8.7154 17.67ZM13.5213 13.4541C13.7857 13.1141 13.9746 12.9252 14.088 12.9252C14.1635 12.9252 14.5035 13.0763 15.108 13.3785C15.7125 13.6808 16.0147 13.8697 16.0525 13.9452C16.0525 13.9609 16.059 13.9765 16.0666 13.9948C16.0773 14.0208 16.0903 14.0521 16.0903 14.0963C16.0903 14.323 16.0147 14.5875 15.9014 14.8897C15.788 15.1542 15.5236 15.3808 15.1458 15.5697C14.768 15.7586 14.3902 15.8342 14.088 15.8342C13.6724 15.8342 13.0301 15.6075 12.0856 15.1919C11.4056 14.8897 10.8011 14.4741 10.31 13.9452C9.81887 13.4163 9.28996 12.7741 8.76104 11.9807C8.26991 11.2251 8.00545 10.5451 8.00545 9.94058L8.00545 9.86502C8.04323 9.22277 8.26991 8.65608 8.79882 8.20272C8.94994 8.0516 9.13884 7.97604 9.36552 7.97604L9.55442 7.97604L9.74331 7.97604C9.89443 7.97604 9.96999 8.01382 10.0078 8.0516C10.0456 8.08938 10.1211 8.20272 10.1589 8.35384C10.1746 8.41668 10.2099 8.50566 10.2567 8.62348C10.3224 8.78899 10.4106 9.01143 10.4989 9.29833C10.6878 9.78946 10.7634 10.0539 10.7634 10.0917C10.7634 10.2428 10.65 10.4317 10.3856 10.6962C10.3359 10.7542 10.2898 10.8067 10.2482 10.8542C10.0999 11.0233 10.0078 11.1283 10.0078 11.1873C10.0078 11.2251 10.0078 11.3006 10.0456 11.3384C10.2722 11.8673 10.65 12.3207 11.1034 12.7741C11.4812 13.1518 12.0101 13.4919 12.6901 13.8319C12.7657 13.8697 12.8412 13.9074 12.9168 13.9074C13.0679 13.9452 13.2568 13.7941 13.5213 13.4541Z" fill="#525C69"/>
</svg>
