<svg width="24" height="24" viewBox="0 0 24 24" fill="none" xmlns="http://www.w3.org/2000/svg">
<path fill-rule="evenodd" clip-rule="evenodd" d="M15.0827 11.9883C14.4602 11.9883 13.9622 12.4996 13.9622 13.1388C13.9622 13.7779 14.4602 14.2893 15.0827 14.2893C15.7052 14.2893 16.2032 13.7779 16.2032 13.1388C16.2032 12.4996 15.6429 11.9883 15.0827 11.9883ZM12.0314 11.9883C11.4089 11.9883 10.9109 12.4996 10.9109 13.1388C10.9109 13.7779 11.4089 14.2893 12.0314 14.2893C12.6539 14.2893 13.1519 13.7779 13.1519 13.1388C13.1519 12.4996 12.6539 11.9883 12.0314 11.9883ZM9.04509 11.9883C8.42257 11.9883 7.92456 12.4996 7.92456 13.1388C7.92456 13.7779 8.42257 14.2893 9.04509 14.2893C9.6676 14.2893 10.1656 13.7779 10.1656 13.1388C10.1656 12.4996 9.6676 11.9883 9.04509 11.9883ZM18.5054 6.10742H5.49486C5.43261 6.10742 5.37036 6.17134 5.37036 6.23525V17.7401C5.37036 17.804 5.43261 17.8679 5.49486 17.8679H18.5054C18.5677 17.8679 18.6299 17.804 18.6299 17.7401V6.23525C18.6299 6.17134 18.5677 6.10742 18.5054 6.10742ZM16.6387 7.32184C16.6387 7.19401 16.701 7.13009 16.8255 7.13009H17.448C17.5725 7.13009 17.6347 7.19401 17.6347 7.32184V7.961C17.6347 8.08883 17.5725 8.15274 17.448 8.15274H16.8255C16.701 8.15274 16.6387 8.08883 16.6387 7.961V7.32184ZM15.0197 7.32184C15.0197 7.19401 15.0819 7.13009 15.2064 7.13009H15.8289C15.9534 7.13009 16.0157 7.19401 16.0157 7.32184V7.961C16.0157 8.08883 15.9534 8.15274 15.8289 8.15274H15.2064C15.0819 8.15274 15.0197 8.08883 15.0197 7.961V7.32184ZM6.42901 7.32184C6.42901 7.19401 6.49126 7.13009 6.61576 7.13009H12.9032C13.0277 7.13009 13.0899 7.19401 13.0899 7.32184V7.961C13.0899 8.08883 13.0277 8.15274 12.9032 8.15274H6.61576C6.49126 8.15274 6.42901 8.08883 6.42901 7.961V7.32184ZM17.8842 16.9732C17.8842 17.101 17.8219 17.1649 17.6974 17.1649H6.24312C6.11862 17.1649 6.05637 17.101 6.05637 16.9732V9.55893C6.05637 9.4311 6.11862 9.36718 6.24312 9.36718H17.6974C17.8219 9.36718 17.8842 9.4311 17.8842 9.55893V16.9732Z" fill="#525C69"/>
</svg>
