<svg width="24" height="24" viewBox="0 0 24 24" fill="none" xmlns="http://www.w3.org/2000/svg">
	<path fill-rule="evenodd" clip-rule="evenodd" d="M12.7563 7.47363C14.3078 7.47363 15.5656 8.73139 15.5656 10.2829V15.4418C15.5656 16.0342 15.0854 16.5144 14.493 16.5144H6.78022C5.2287 16.5144 3.97095 15.2566 3.97095 13.7051V8.54626C3.97095 7.95387 4.45118 7.47363 5.04358 7.47363H12.7563ZM19.868 7.75916C19.9599 7.86933 20.0102 8.00823 20.0102 8.15168V15.8061C20.0102 16.1446 19.7358 16.419 19.3973 16.419C19.2559 16.419 19.1189 16.3702 19.0095 16.2807L16.6348 14.3403C16.3142 14.0783 16.1283 13.6863 16.1283 13.2724V10.725C16.1283 10.3159 16.31 9.92783 16.6242 9.66581L19.0048 7.68092C19.2648 7.46413 19.6513 7.49916 19.868 7.75916Z" fill="#525C69"/>
</svg>
