<svg width="24" height="24" viewBox="0 0 24 24" fill="none" xmlns="http://www.w3.org/2000/svg">
	<rect width="24" height="24" />
	<path fill-rule="evenodd" clip-rule="evenodd" d="M19.8228 12.0703C19.8228 16.3826 16.327 19.8784 12.0147 19.8784C7.7024 19.8784 4.2066 16.3826 4.2066 12.0703C4.2066 7.75803 7.7024 4.26224 12.0147 4.26224C16.327 4.26224 19.8228 7.75803 19.8228 12.0703ZM17.407 12.0703C17.407 15.0484 14.9928 17.4626 12.0147 17.4626C10.9648 17.4626 9.98498 17.1626 9.15632 16.6436L16.5879 9.21196C17.107 10.0406 17.407 11.0204 17.407 12.0703ZM7.3789 14.8263L14.7707 7.43453C13.9642 6.95401 13.0217 6.67799 12.0147 6.67799C9.03658 6.67799 6.62235 9.09221 6.62235 12.0703C6.62235 13.0773 6.89838 14.0198 7.3789 14.8263Z" fill="#525C69"/>
</svg>
