<svg width="24" height="24" viewBox="0 0 24 24" fill="none" xmlns="http://www.w3.org/2000/svg">
	<path fill-rule="evenodd" clip-rule="evenodd" d="M12.8152 6.06389C13.1846 6.06389 13.5388 6.20989 13.8 6.46979L15.2493 7.91185H5.03552V6.98787C5.03552 6.47757 5.45124 6.06389 5.96404 6.06389H12.8152ZM18.9634 8.83583C19.4762 8.83583 19.8919 9.24951 19.8919 9.75981V18.0756C19.8919 18.5859 19.4762 18.9996 18.9634 18.9996H5.96405C5.45124 18.9996 5.03552 18.5859 5.03552 18.0756V8.83583H18.9634ZM10.9822 11.106C10.9822 10.983 11.1317 10.9214 11.2191 11.0084L14.1357 13.9108C14.1899 13.9647 14.1899 14.0521 14.1357 14.106L11.2191 17.0084C11.1317 17.0954 10.9822 17.0338 10.9822 16.9108V15.0119H7.13064C7.05401 15.0119 6.9919 14.9501 6.9919 14.8739V13.1421C6.9919 13.0659 7.05401 13.004 7.13064 13.004H10.9822V11.106Z" fill="#525C69"/>
</svg>
