<svg width="16" height="16" viewBox="0 0 16 16" fill="none" xmlns="http://www.w3.org/2000/svg">
<path d="M10.4063 8C10.4063 9.32686 9.32686 10.4063 8 10.4063C6.67314 10.4063 5.59371 9.32686 5.59371 8C5.59371 6.67314 6.67314 5.59371 8 5.59371C9.32686 5.59371 10.4063 6.67314 10.4063 8ZM8 0C3.58857 0 0 3.58857 0 8C0 12.4114 3.58857 16 8 16C9.616 16 11.1743 15.5189 12.5063 14.6086L12.5291 14.5926L11.4514 13.34L11.4331 13.3514C10.408 14.0114 9.22057 14.36 8 14.36C4.49314 14.36 1.64 11.5069 1.64 8C1.64 4.49314 4.49314 1.64 8 1.64C11.5069 1.64 14.36 4.49314 14.36 8C14.36 8.45429 14.3091 8.91429 14.2103 9.36686C14.0091 10.1926 13.4309 10.4451 12.9971 10.412C12.5606 10.3766 12.0497 10.0657 12.0463 9.30457V8.72457V8C12.0463 5.76857 10.2314 3.95371 8 3.95371C5.76857 3.95371 3.95371 5.76857 3.95371 8C3.95371 10.2314 5.76857 12.0463 8 12.0463C9.084 12.0463 10.1006 11.6229 10.8669 10.852C11.3126 11.5457 12.0389 11.9806 12.8657 12.0469C12.9366 12.0526 13.0091 12.0554 13.0806 12.0554C13.6629 12.0554 14.2394 11.8606 14.7046 11.508C15.184 11.1434 15.5423 10.6171 15.74 9.98457C15.7714 9.88229 15.8297 9.64857 15.8297 9.64686L15.8314 9.63829C15.948 9.13086 16 8.62514 16 8C16 3.58857 12.4114 0 8 0Z" fill="#FF9E00"/>
</svg>
