<svg width="20" height="20" viewBox="0 0 20 20" fill="none" xmlns="http://www.w3.org/2000/svg">
<path d="M1.9997 0.662476H18.0003C18.8838 0.662476 19.6 1.35909 19.6 2.21838V17.7808C19.6 18.6402 18.8838 19.3367 18.0003 19.3367H1.9997C1.1162 19.3367 0.399994 18.6401 0.399994 17.7808V2.21838C0.399994 1.35909 1.11622 0.662476 1.9997 0.662476Z" fill="url(#paint0_linear_181_31168)"/>
<path d="M5.40489 7.18863C5.79916 6.3716 6.43556 5.68787 7.23239 5.22529C8.11482 4.73391 9.11955 4.48895 10.136 4.51735C11.078 4.49748 12.0075 4.72975 12.8231 5.18877C13.5899 5.63353 14.2074 6.28519 14.6008 7.06469C15.0292 7.92362 15.2427 8.8689 15.224 9.8234C15.2447 10.8209 15.025 11.8093 14.5825 12.7094C14.1797 13.5168 13.5426 14.1917 12.7498 14.6507C11.9028 15.1238 10.9387 15.3622 9.96228 15.34C9.00012 15.3625 8.05008 15.1276 7.21581 14.6609C6.44238 14.2155 5.81707 13.5631 5.4145 12.7816C4.98354 11.935 4.76748 11.0004 4.78439 10.056C4.76644 9.06692 4.97856 8.08673 5.40489 7.18863ZM7.35281 11.7978C7.56302 12.3143 7.91951 12.7623 8.38088 13.0897C8.85082 13.4092 9.41354 13.574 9.98669 13.56C10.5971 13.5834 11.1987 13.413 11.7007 13.0744C12.1563 12.748 12.5034 12.2988 12.6991 11.7825C12.9179 11.2059 13.0259 10.595 13.0177 9.98043C13.0244 9.35996 12.9229 8.74288 12.7174 8.15544C12.536 7.62508 12.2 7.1574 11.7505 6.8092C11.2611 6.45459 10.661 6.27473 10.0513 6.2999C9.4657 6.28515 8.89038 6.45126 8.40793 6.7744C7.93875 7.10322 7.57551 7.55515 7.36066 8.07735C6.88406 9.27433 6.88158 10.6008 7.35367 11.7995L7.35281 11.7978Z" fill="white"/>
<defs>
<linearGradient id="paint0_linear_181_31168" x1="3.73542" y1="-0.553276" x2="15.7501" y2="20.8414" gradientUnits="userSpaceOnUse">
<stop stop-color="#1784D9"/>
<stop offset="0.5" stop-color="#107AD5"/>
<stop offset="1" stop-color="#0A63C9"/>
</linearGradient>
</defs>
</svg>
