<svg width="24" height="22" viewBox="0 0 24 22" fill="none" xmlns="http://www.w3.org/2000/svg">
<path d="M1.63354 21.525H5.45038V9.21509L0 5.13123L0 19.9071C0 20.8024 0.738236 21.525 1.63354 21.525Z" fill="#4285F4"/>
<path d="M18.5496 21.5248H22.3665C23.2775 21.5248 24 20.7865 24 19.8912V5.11694L18.5496 9.20081V21.5248Z" fill="#34A853"/>
<path d="M18.5496 2.11581V9.19974L24 5.11588V2.93259C24 0.906362 21.6911 -0.240261 20.0732 0.969191L18.5496 2.11581Z" fill="#FBBC04"/>
<path d="M5.45056 9.21516V2.13123L12.0004 7.04757L18.5503 2.13123V9.21516L12.0004 14.1158L5.45056 9.21516Z" fill="#EA4335"/>
<path d="M0 2.93248V5.11577L5.45038 9.19963V2.1157L3.92679 0.969081C2.30895 -0.24037 0 0.92196 0 2.93248Z" fill="#C5221E"/>
</svg>
