<svg width="30" height="18" viewBox="0 0 30 18" fill="none" xmlns="http://www.w3.org/2000/svg">
<path d="M17.1143 0.400027C15.7276 0.402691 14.3666 0.756346 13.1712 1.42467C11.9757 2.093 10.9888 3.05192 10.3118 4.20295C9.72907 3.93307 9.08959 3.7924 8.44146 3.79153C7.42561 3.79407 6.44374 4.13972 5.67097 4.76684C4.89819 5.39395 4.38476 6.26175 4.22223 7.21546C3.14919 7.64278 2.23286 8.36219 1.58838 9.2833C0.943911 10.2044 0.600039 11.2861 0.599976 12.3925C0.601489 13.8807 1.22432 15.3074 2.33155 16.3589C3.43877 17.4104 4.93973 18.0007 6.50444 18C6.75206 17.9979 6.99929 17.981 7.24467 17.9493H23.6507C23.7368 17.9552 23.8231 17.9592 23.9095 17.9612C23.9918 17.959 24.074 17.955 24.1561 17.9493H24.549V17.9215C25.8848 17.7713 27.1165 17.1579 28.0106 16.1977C28.9047 15.2375 29.399 13.9972 29.4 12.7119V12.7018C29.3969 11.4811 28.9487 10.2996 28.1325 9.36059C27.3163 8.42156 26.1832 7.78371 24.9281 7.55676C24.8536 5.63372 23.9975 3.81318 22.5401 2.47833C21.0827 1.14348 19.1377 0.398437 17.1143 0.400027Z" fill="url(#paint0_linear_181_19974)"/>
<defs>
<linearGradient id="paint0_linear_181_19974" x1="29.4874" y1="12.7261" x2="0.589918" y2="12.307" gradientUnits="userSpaceOnUse">
<stop stop-color="#3E82F4"/>
<stop offset="1" stop-color="#93DCF7"/>
</linearGradient>
</defs>
</svg>
