<svg width="24" height="18" viewBox="0 0 24 18" fill="none" xmlns="http://www.w3.org/2000/svg">
<path fill-rule="evenodd" clip-rule="evenodd" d="M9.86091 9.04946C11.3601 10.3776 12.5528 10.3054 14.1539 9.04963C17.4813 11.9252 20.6723 14.862 23.9997 17.7375C23.9997 17.7895 23.9997 17.9036 23.9997 17.9556C15.9998 17.957 7.99991 17.9583 0 17.9596C0 17.9136 0 17.8099 0 17.7638C3.32653 14.8757 6.53438 11.9376 9.86091 9.04944V9.04946Z" fill="#F2C102"/>
<path fill-rule="evenodd" clip-rule="evenodd" d="M9.97964 9.15615C11.4117 10.3945 12.4129 10.5682 14.0176 9.17218C17.345 6.15821 20.6723 3.14425 23.9997 0.130288C23.9997 0.100282 23.9997 0.0702828 23.9997 0.0402832C15.9998 0.0402832 7.99991 0.0402832 0 0.0402832C0 0.0754474 0 0.110612 0 0.1458C3.32653 3.14926 6.65311 6.15269 9.97964 9.15615Z" fill="#EE0000"/>
<path fill-rule="evenodd" clip-rule="evenodd" d="M9.97966 9.15539L0 17.8198V0.14502L9.97966 9.15539Z" fill="#FFCC01"/>
<path fill-rule="evenodd" clip-rule="evenodd" d="M14.0184 9.17043L24.0005 0.12854V17.797L14.0184 9.17043Z" fill="#FFCC01"/>
</svg>
