<svg xmlns="http://www.w3.org/2000/svg" width="1089" height="518"><path fill="#FFF" fill-rule="evenodd" d="M115.7 100.954H46.128c-.596 0-1.186-.023-1.77-.066C28.636 100.526 16 87.536 16 71.565c.005-7.784 3.07-15.248 8.521-20.749a29.023 29.023 0 019.693-6.465c-.06-.793-.09-1.593-.09-2.4.004-8.214 3.238-16.09 8.99-21.894 5.753-5.804 13.551-9.062 21.68-9.057 10.415.013 19.61 5.274 25.135 13.305a24.81 24.81 0 018.391-1.449c13 .016 23.676 10.028 24.914 22.831C135.69 48.431 145.011 59.642 145 73.046c-.013 15.447-12.414 27.96-27.703 27.954a27.64 27.64 0 01-1.598-.046zm508.858 260.013H576.02c-.415 0-.827-.015-1.235-.046-10.97-.253-19.785-9.346-19.785-20.525a20.689 20.689 0 015.945-14.525 20.244 20.244 0 016.762-4.526 22.266 22.266 0 01-.063-1.68c.004-5.75 2.26-11.262 6.273-15.325a21.24 21.24 0 0115.126-6.34c7.265.009 13.68 3.692 17.535 9.313a17.257 17.257 0 015.855-1.014c9.069.012 16.518 7.02 17.382 15.982 8.69 1.92 15.193 9.768 15.185 19.151-.009 10.813-8.661 19.572-19.328 19.568-.374 0-.745-.011-1.114-.033z" opacity=".06"/></svg>