<svg width="24" height="24" viewBox="0 0 24 24" fill="none" xmlns="http://www.w3.org/2000/svg">
<path fill-rule="evenodd" clip-rule="evenodd" d="M13.663 12.0003L17.5537 15.891C17.788 16.1253 17.788 16.5052 17.5537 16.7395L16.7393 17.5539C16.5049 17.7882 16.125 17.7882 15.8907 17.5539L12.0001 13.6632L8.1094 17.5539C7.87509 17.7882 7.49519 17.7882 7.26087 17.5539L6.44648 16.7395C6.21217 16.5052 6.21217 16.1253 6.44648 15.891L10.3371 12.0003L6.44648 8.10964C6.21217 7.87533 6.21217 7.49543 6.44648 7.26112L7.26087 6.44673C7.49519 6.21241 7.87509 6.21241 8.1094 6.44673L12.0001 10.3374L15.8907 6.44673C16.125 6.21241 16.5049 6.21241 16.7393 6.44673L17.5537 7.26112C17.788 7.49543 17.788 7.87533 17.5537 8.10964L13.663 12.0003Z" fill="#525C69"/>
</svg>
