<svg xmlns="http://www.w3.org/2000/svg" width="45" height="59" viewBox="0 0 45 59">
  <path fill="#9DCF00" fill-rule="nonzero" d="M20.6766623,0.0973368481 C31.5554218,0.0973368481 40.3732918,8.91289353 40.3732918,19.788799 L40.3732918,21.9715149 L44.3968488,29.2165297 C45.4537285,31.2366665 44.7264542,32.8884174 42.4466212,32.8884174 L40.3732918,32.8884174 L40.3732918,39.2156502 C40.3732918,41.4948852 38.5062949,43.3911215 36.2266329,43.3612212 C35.596179,43.3529521 33.6956271,43.0529679 30.524977,42.4612685 L30.524977,45.4144162 C30.524977,45.4797771 30.521168,45.5450825 30.5135692,45.6100003 C30.4055227,46.5330643 29.5694462,47.1937895 28.64614,47.0857714 L8.68758733,44.7508088 C7.83945009,44.6515848 7.20002116,43.9331543 7.20002116,43.0794536 L7.20002116,34.1423203 C3.37327707,30.5517377 0.980032929,25.4506126 0.980032929,19.788799 C0.980032929,8.91289353 9.79790292,0.0973368481 20.6766623,0.0973368481 Z M21.8991999,7.23370048 L20.6038362,7.23370048 C20.137418,7.23370048 19.737909,7.57129139 19.663709,8.03138412 L19.3073999,10.1616841 C19.3029817,10.1880059 19.2833635,10.2090896 19.2574908,10.2155678 C18.4667817,10.413735 17.7240908,10.726495 17.0437453,11.1354023 C17.0208181,11.1491841 16.9920181,11.1481678 16.9702362,11.1326096 L15.2482908,9.90369503 C14.8694726,9.63303867 14.3491271,9.67536412 14.0185271,10.0052714 L13.1033999,10.921075 C12.7734908,11.2516805 12.7311635,11.7720387 13.0025453,12.1508768 L14.2343453,13.8762696 C14.2498726,13.8980205 14.2509453,13.9268187 14.2371999,13.9497441 C13.8322726,14.6248332 13.5227635,15.3631078 13.3247999,16.1466296 C13.3182544,16.1725078 13.2971817,16.1920678 13.2708908,16.1964496 L11.128909,16.5541405 C10.6695271,16.6299968 10.3312726,17.0282023 10.3312726,17.4955987 L10.3312726,18.7899841 C10.3312726,19.2573478 10.6695271,19.6555859 11.128909,19.7314423 L13.2708181,20.0891023 C13.2971453,20.093515 13.3182544,20.1131078 13.3247635,20.1390169 C13.4857999,20.7787005 13.7151817,21.3906005 14.0167271,21.9602078 C14.0292908,21.9839587 14.0266362,22.0128204 14.0097453,22.033746 L12.6602726,23.7051278 C12.3670181,24.0673605 12.3793271,24.5893696 12.6895817,24.9389623 L13.5484908,25.9064259 C13.8600908,26.2566241 14.3770726,26.3292095 14.7712362,26.0808423 L16.609109,24.9262932 C16.6316362,24.9121314 16.6603453,24.9127042 16.6823817,24.9276278 C17.3687476,25.3914701 18.1320379,25.7483224 18.9475387,25.9862093 L19.3001635,26.0808423 L19.6637453,28.254135 C19.7379453,28.7142586 20.137418,29.0518823 20.6038362,29.0518823 L21.8991999,29.0518823 C22.3665817,29.0518823 22.764709,28.7142913 22.8405999,28.2541677 L23.1955453,26.1242478 C23.1999635,26.0978932 23.219618,26.0767786 23.2455271,26.0703005 C24.026018,25.8748642 24.7590544,25.5676278 25.4329817,25.1659295 C25.455909,25.152275 25.4845999,25.153355 25.5062908,25.1688496 L27.3016181,26.4511077 C27.6797817,26.7227495 28.2004907,26.6801368 28.5307453,26.3491823 L29.4462726,25.4336659 C29.7757817,25.104075 29.8203999,24.5840023 29.5467635,24.2044659 L28.268709,22.4125205 C28.2531816,22.3907696 28.2521271,22.3620023 28.2658726,22.3391078 C28.6719999,21.6617351 28.9831635,20.9220313 29.1800363,20.1349841 C29.1865089,20.109075 29.207618,20.0894205 29.2339453,20.0850059 L31.3518181,19.7313805 C31.8125636,19.6554914 32.1494544,19.2572841 32.1494544,18.7899205 L32.1494544,17.495535 C32.1487635,17.0282023 31.8118726,16.6299968 31.3510907,16.5541078 L29.1898362,16.1935278 C29.0362907,15.5657823 28.8139999,14.9650914 28.5254726,14.4035823 C28.5133453,14.3799587 28.5161636,14.3515387 28.5328362,14.3308696 L29.8889998,12.6492932 C30.1832726,12.2867132 30.1699089,11.7650532 29.8596726,11.4151423 L29.0000908,10.4477096 C28.6885089,10.0981478 28.1718181,10.0242278 27.7776908,10.2732296 L25.9293816,11.4351459 C25.1281089,10.8753187 24.2219817,10.459775 23.2449271,10.2149332 C23.219018,10.2084241 23.1993635,10.1872768 23.1949453,10.1608896 L22.8405999,8.03138412 C22.764709,7.57129139 22.3665635,7.23370048 21.8991999,7.23370048 Z M25.4375053,19.0855822 C25.0911899,20.7135264 23.8109439,21.9937646 22.1830071,22.3399674 C19.0792518,23.0000518 16.3830299,20.303046 17.0432469,17.1999623 C17.3554675,15.732629 18.8299681,14.2580244 20.2973058,13.9457433 C23.400469,13.2852597 26.0977414,15.9816658 25.4375053,19.0855822 Z"/>
  <ellipse cx="20.881" cy="56.025" fill="#000" opacity=".023" rx="20.186" ry="1.927"/>
</svg>
