<svg width="12" height="13" viewBox="0 0 12 13" fill="none" xmlns="http://www.w3.org/2000/svg">
<mask id="path-1-outside-1_1062_45676" maskUnits="userSpaceOnUse" x="-0.186523" y="0.25" width="12" height="12" fill="black">
<rect fill="white" x="-0.186523" y="0.25" width="12" height="12"/>
<path fill-rule="evenodd" clip-rule="evenodd" d="M10.8135 11.25C10.8135 5.72715 6.33632 1.25 0.813477 1.25V4.25C4.67947 4.25 7.81348 7.38401 7.81348 11.25H10.8135Z"/>
</mask>
<path fill-rule="evenodd" clip-rule="evenodd" d="M10.8135 11.25C10.8135 5.72715 6.33632 1.25 0.813477 1.25V4.25C4.67947 4.25 7.81348 7.38401 7.81348 11.25H10.8135Z" fill="#FF5752"/>
<path d="M10.8135 11.25V12.05H11.6135V11.25H10.8135ZM0.813477 1.25V0.45H0.0134766V1.25H0.813477ZM0.813477 4.25H0.0134766V5.05H0.813477V4.25ZM7.81348 11.25H7.01348V12.05H7.81348V11.25ZM11.6135 11.25C11.6135 5.28532 6.77815 0.45 0.813477 0.45V2.05C5.8945 2.05 10.0135 6.16898 10.0135 11.25H11.6135ZM0.0134766 1.25V4.25H1.61348V1.25H0.0134766ZM8.61348 11.25C8.61348 6.94218 5.1213 3.45 0.813477 3.45V5.05C4.23764 5.05 7.01348 7.82583 7.01348 11.25H8.61348ZM7.81348 12.05H10.8135V10.45H7.81348V12.05Z" fill="white" mask="url(#path-1-outside-1_1062_45676)"/>
</svg>
