<svg width="22" height="22" viewBox="0 0 22 22" fill="none" xmlns="http://www.w3.org/2000/svg">
<rect width="22" height="22" rx="11" fill="#11A9D9"/>
<path d="M14.1056 15.3241C12.768 15.6208 11.3224 15.7827 9.81417 15.7827C8.0349 15.7827 6.34293 15.5574 4.8125 15.1513C4.96194 14.4168 5.16551 13.4382 5.25993 13.0831C5.41864 12.4863 6.30791 12.0428 7.12583 11.7019C7.33965 11.6128 7.46864 11.5417 7.599 11.4698C7.72667 11.3995 7.85565 11.3284 8.06691 11.239C8.09075 11.1292 8.10034 11.0171 8.09545 10.9052L8.45787 10.8635C8.45787 10.8635 8.50551 10.9473 8.4289 10.4542C8.4289 10.4542 8.02213 10.3509 8.00325 9.56566C8.00325 9.56566 7.69768 9.66433 7.67924 9.18848C7.67549 9.09331 7.65022 9.00186 7.62603 8.9143C7.56808 8.70456 7.51628 8.51709 7.7811 8.35402L7.5899 7.86085C7.5899 7.86085 7.38926 5.95327 8.2704 6.10848C7.91303 5.56045 10.9279 5.10441 11.1281 6.7846C11.2069 7.29108 11.2069 7.80582 11.1281 8.3123C11.1281 8.3123 11.5785 8.26223 11.2778 9.09168C11.2778 9.09168 11.1123 9.68791 10.8581 9.55335C10.8581 9.55335 10.8994 10.3079 10.499 10.4358C10.499 10.4358 10.5275 10.8376 10.5275 10.8649L10.8623 10.9144C10.8623 10.9144 10.853 11.2494 10.9189 11.2857C11.224 11.4767 11.5586 11.6214 11.9105 11.7148C12.9499 11.9702 13.4767 12.4085 13.4767 12.7923C13.4767 12.7923 13.9039 14.3239 14.1056 15.3241Z" fill="white"/>
<path d="M17.7762 13.9605C16.8451 14.2124 15.8143 14.3524 14.7298 14.3524C14.6984 14.3524 14.667 14.3523 14.6356 14.3521C14.6012 14.0638 14.3818 13.2485 14.2522 12.7668C14.1985 12.5674 14.1602 12.4251 14.1569 12.4012C14.1394 11.9273 13.4809 11.5041 12.7478 11.2149C12.8032 11.142 12.8507 11.0637 12.8895 10.9813C12.9923 10.8573 13.1264 10.7611 13.2787 10.7021L13.2904 10.3312L12.4856 10.0867C12.4856 10.0867 12.2786 9.99272 12.2581 9.99272C12.2819 9.93564 12.3117 9.8811 12.3471 9.82997C12.3625 9.79009 12.4599 9.49252 12.4599 9.49252C12.3427 9.63887 12.2052 9.7688 12.0514 9.87864C12.1922 9.63687 12.3116 9.38394 12.4083 9.12256C12.4721 8.87097 12.5149 8.61479 12.5361 8.35651C12.5912 7.88715 12.6773 7.4217 12.7938 6.96303C12.8774 6.73414 13.0247 6.53222 13.2193 6.37967C13.5069 6.18569 13.8426 6.06969 14.1918 6.04361H14.2329C14.5827 6.06947 14.9191 6.18548 15.2073 6.37967C15.4021 6.53193 15.5495 6.73376 15.6331 6.96263C15.7494 7.42134 15.8355 7.88678 15.8909 8.35611C15.9157 8.60866 15.9606 8.85897 16.0251 9.10481C16.1218 9.3708 16.2391 9.62928 16.3761 9.87804C16.2219 9.76849 16.0842 9.63875 15.9667 9.49252C15.9667 9.49252 16.0426 9.76256 16.0578 9.80245C16.0994 9.86272 16.1365 9.92584 16.1687 9.99132C16.1488 9.99132 15.9413 10.0853 15.9413 10.0853L15.1364 10.3298L15.1479 10.7009C15.3003 10.7598 15.4344 10.856 15.5371 10.9801C15.5858 11.0993 15.6629 11.2056 15.7621 11.2903C15.9563 11.3559 16.1435 11.4395 16.3212 11.54C16.5903 11.6853 16.8855 11.7792 17.191 11.8168C17.4992 11.8661 17.6936 12.3497 17.6936 12.3497C17.6936 12.3544 17.7041 12.5581 17.7184 12.8349C17.7362 13.1774 17.7597 13.6318 17.7762 13.9605Z" fill="white"/>
</svg>
