<svg width="24" height="24" viewBox="0 0 24 24" fill="none" xmlns="http://www.w3.org/2000/svg">
<g opacity="0.5">
<g opacity="0.3">
<path d="M19 12C19 15.866 15.866 19 12 19V20.5C16.6944 20.5 20.5 16.6944 20.5 12H19ZM12 19C8.13401 19 5 15.866 5 12H3.5C3.5 16.6944 7.30558 20.5 12 20.5V19ZM5 12C5 8.13401 8.13401 5 12 5V3.5C7.30558 3.5 3.5 7.30558 3.5 12H5ZM12 5C15.866 5 19 8.13401 19 12H20.5C20.5 7.30558 16.6944 3.5 12 3.5V5Z" fill="#525C69"/>
<path fill-rule="evenodd" clip-rule="evenodd" d="M13.2345 7.88373H10.7645V11.9997H7.47168L12 16.1163L16.5283 11.9997H13.2345V7.88373Z" fill="#525C69"/>
</g>
</g>
</svg>
