<svg width="24" height="25" viewBox="0 0 24 25" fill="none" xmlns="http://www.w3.org/2000/svg">
<g opacity="0.3">
<path d="M19 12.5C19 16.366 15.866 19.5 12 19.5V21C16.6944 21 20.5 17.1944 20.5 12.5H19ZM12 19.5C8.13401 19.5 5 16.366 5 12.5H3.5C3.5 17.1944 7.30558 21 12 21V19.5ZM5 12.5C5 8.63401 8.13401 5.5 12 5.5V4C7.30558 4 3.5 7.80558 3.5 12.5H5ZM12 5.5C15.866 5.5 19 8.63401 19 12.5H20.5C20.5 7.80558 16.6944 4 12 4V5.5Z" fill="#525C69"/>
<path fill-rule="evenodd" clip-rule="evenodd" d="M13.2345 8.38373H10.7645V12.4997H7.47168L12 16.6163L16.5283 12.4997H13.2345V8.38373Z" fill="#525C69"/>
</g>
</svg>
