<svg width="24" height="24" viewBox="0 0 24 24" fill="none" xmlns="http://www.w3.org/2000/svg">
	<path fill-rule="evenodd" clip-rule="evenodd" d="M15.94 6.76973H18.57V6.77973C18.9 6.77973 19.17 7.04973 19.17 7.37973C19.17 7.70973 18.9 7.97973 18.57 7.97973H5.6C5.27 7.97973 5 7.70973 5 7.37973C5 7.04973 5.27 6.77973 5.6 6.77973H8.21L8.55 5.05973C8.79 3.83973 9.86 2.96973 11.1 2.96973H13.01C14.23 2.96973 15.29 3.81973 15.55 5.00973L15.94 6.76973ZM9.73 5.28973L9.46 6.63973V6.64973H14.68L14.38 5.26973C14.24 4.62973 13.67 4.16973 13.01 4.16973H11.1C10.44 4.16973 9.86 4.63973 9.73 5.28973Z" fill="white"/>
	<path d="M10.3598 17.6703C10.6898 17.6703 10.9598 17.4003 10.9598 17.0703V12.6703C10.9598 12.3403 10.6898 12.0703 10.3598 12.0703C10.0298 12.0703 9.75977 12.3403 9.75977 12.6703V17.0703C9.75977 17.4003 10.0298 17.6703 10.3598 17.6703Z" fill="white"/>
	<path d="M14.1902 17.0703C14.1902 17.4003 13.9202 17.6703 13.5902 17.6703C13.2602 17.6703 12.9902 17.4003 12.9902 17.0703V12.6703C12.9902 12.3403 13.2602 12.0703 13.5902 12.0703C13.9202 12.0703 14.1902 12.3403 14.1902 12.6703V17.0703Z" fill="white"/>
	<path fill-rule="evenodd" clip-rule="evenodd" d="M6.45023 9H17.4602C18.0702 9 18.5402 9.54 18.4502 10.14L17.1302 19.17C16.9902 20.15 16.1402 20.88 15.1502 20.88H8.65023C7.65023 20.88 6.80023 20.14 6.67023 19.15L5.46023 10.13C5.38023 9.53 5.84023 9 6.45023 9ZM15.1502 19.68C15.5502 19.68 15.8802 19.39 15.9402 19H15.9502L17.2302 10.2H6.68023L7.86023 18.99C7.91023 19.38 8.25023 19.68 8.65023 19.68H15.1502Z" fill="white"/>
</svg>
