<svg width="16" height="4" viewBox="0 0 16 4" fill="none" xmlns="http://www.w3.org/2000/svg">
	<path d="M2.49984 3.83335C3.51236 3.83335 4.33317 3.01254 4.33317 2.00002C4.33317 0.987498 3.51236 0.166687 2.49984 0.166687C1.48732 0.166687 0.666504 0.987498 0.666504 2.00002C0.666504 3.01254 1.48732 3.83335 2.49984 3.83335Z" fill="#525C69"/>
	<path d="M7.99984 3.83335C9.01236 3.83335 9.83317 3.01254 9.83317 2.00002C9.83317 0.987498 9.01236 0.166687 7.99984 0.166687C6.98731 0.166687 6.1665 0.987498 6.1665 2.00002C6.1665 3.01254 6.98731 3.83335 7.99984 3.83335Z" fill="#525C69"/>
	<path d="M15.3332 2.00002C15.3332 3.01254 14.5124 3.83335 13.4998 3.83335C12.4873 3.83335 11.6665 3.01254 11.6665 2.00002C11.6665 0.987498 12.4873 0.166687 13.4998 0.166687C14.5124 0.166687 15.3332 0.987498 15.3332 2.00002Z" fill="#525C69"/>
</svg>
