<svg width="145" height="70" viewBox="0 0 145 70" fill="none" xmlns="http://www.w3.org/2000/svg">
	<g opacity="0.3">
		<path opacity="0.7" fill-rule="evenodd" clip-rule="evenodd"
			  d="M88.3078 1.45117C88.3078 0.864369 87.8321 0.388672 87.2453 0.388672H80.8408C80.254 0.388672 79.7783 0.864369 79.7783 1.45117V59.4363C79.7783 60.0231 80.254 60.4988 80.8408 60.4988H87.2453C87.8321 60.4988 88.3078 60.0231 88.3078 59.4363V1.45117ZM103.591 9.4061C104.178 9.4061 104.654 9.8818 104.654 10.4686V59.4372C104.654 60.024 104.178 60.4997 103.591 60.4997H97.1868C96.6 60.4997 96.1243 60.024 96.1243 59.4372V10.4686C96.1243 9.8818 96.6 9.4061 97.1868 9.4061H103.591ZM119.939 15.4154C120.526 15.4154 121.002 15.8911 121.002 16.4779V59.4355C121.002 60.0223 120.526 60.498 119.939 60.498H113.535C112.948 60.498 112.473 60.0223 112.473 59.4355V16.4779C112.473 15.8911 112.948 15.4154 113.535 15.4154H119.939ZM70.8954 15.4154C71.4822 15.4154 71.9579 15.8911 71.9579 16.4779V59.4355C71.9579 60.0223 71.4822 60.498 70.8954 60.498H64.491C63.9042 60.498 63.4285 60.0223 63.4285 59.4355V16.4779C63.4285 15.8911 63.9042 15.4154 64.491 15.4154H70.8954ZM55.6097 22.9331C55.6097 22.3463 55.134 21.8706 54.5472 21.8706H48.1428C47.556 21.8706 47.0803 22.3463 47.0803 22.9331V59.4382C47.0803 60.025 47.556 60.5007 48.1428 60.5007H54.5472C55.134 60.5007 55.6097 60.025 55.6097 59.4382V22.9331ZM38.1998 26.3679C38.7866 26.3679 39.2623 26.8436 39.2623 27.4304V59.4357C39.2623 60.0225 38.7866 60.4982 38.1998 60.4982H31.7954C31.2086 60.4982 30.7329 60.0225 30.7329 59.4357V27.4304C30.7329 26.8436 31.2086 26.3679 31.7954 26.3679H38.1998Z"
			  fill="url(#paint0_linear_2939_122627)"/>
		<mask id="mask0_2939_122627" style="mask-type:alpha" maskUnits="userSpaceOnUse" x="5" y="23" width="139"
			  height="39">
			<rect x="5.9541" y="23.998" width="137.469" height="37.5942" fill="url(#paint1_linear_2939_122627)"/>
		</mask>
		<g mask="url(#mask0_2939_122627)">
			<g opacity="0.8">
				<path
					d="M55.612 35.3841L-2.51172 64.507H148.432V25.4785L119.144 42.9573L105.719 31.2133L81.076 51.0245L55.612 35.3841Z"
					fill="url(#paint2_linear_2939_122627)"/>
				<path opacity="0.89"
					  d="M148.432 25.4785L119.144 42.9573L105.718 31.2133L81.0759 51.0245L55.6119 35.3841L8.45215 58.4242"
					  stroke="#BBDE4D" stroke-width="1.0625" stroke-linecap="round" stroke-linejoin="round"/>
			</g>
		</g>
	</g>
	<defs>
		<linearGradient id="paint0_linear_2939_122627" x1="84.0166" y1="0.388672" x2="84.0166" y2="60.5006"
						gradientUnits="userSpaceOnUse">
			<stop stop-color="#91B7FB" stop-opacity="0.8"/>
			<stop offset="1" stop-color="#91B7FB" stop-opacity="0"/>
		</linearGradient>
		<linearGradient id="paint1_linear_2939_122627" x1="143.423" y1="58.7803" x2="2.9663" y2="59.2116"
						gradientUnits="userSpaceOnUse">
			<stop offset="0.03" stop-color="#D9D9D9" stop-opacity="0"/>
			<stop offset="0.12" stop-color="#D9D9D9"/>
			<stop offset="0.84" stop-color="#D9D9D9"/>
			<stop offset="1" stop-color="#D9D9D9" stop-opacity="0"/>
		</linearGradient>
		<linearGradient id="paint2_linear_2939_122627" x1="87.2643" y1="41.6889" x2="87.1983" y2="62.0136"
						gradientUnits="userSpaceOnUse">
			<stop stop-color="#BBED21" stop-opacity="0.4"/>
			<stop offset="1" stop-color="#BBED21" stop-opacity="0"/>
		</linearGradient>
	</defs>
</svg>
