<svg xmlns="http://www.w3.org/2000/svg" width="218" height="178" fill="none"><path fill="#F1FBD0" fill-rule="evenodd" d="M156.909 5.083a2.406 2.406 0 1 0 0-4.812 2.406 2.406 0 0 0 0 4.812ZM38.204 25.863a5.215 5.215 0 1 0 0-10.43 5.215 5.215 0 0 0 0 10.43Zm0-2.907a2.307 2.307 0 1 0 0-4.615 2.307 2.307 0 0 0 0 4.615ZM11.71 76.774a7.024 7.024 0 1 0 0-14.048 7.024 7.024 0 0 0 0 14.048Zm0-3.665a3.358 3.358 0 1 0 0-6.717 3.358 3.358 0 0 0 0 6.717Zm178.329 92.047a5.001 5.001 0 1 0 0-10.002 5.001 5.001 0 0 0 0 10.002Zm0-2.602a2.399 2.399 0 1 0 0-4.798 2.399 2.399 0 0 0 0 4.798ZM110 178.001c47.496 0 86-38.504 86-86 0-47.497-38.504-86-86-86S24 44.504 24 92c0 47.496 38.504 86 86 86Zm-86.041-6.012H7.24c-.143 0-.285-.005-.425-.016C3.036 171.885 0 168.71 0 164.806a7.275 7.275 0 0 1 2.048-5.072 6.96 6.96 0 0 1 2.329-1.581 7.678 7.678 0 0 1 2.139-5.938 7.267 7.267 0 0 1 5.21-2.214c2.502.003 4.712 1.289 6.04 3.252.63-.23 1.31-.354 2.016-.354 3.124.004 5.69 2.451 5.987 5.581 2.994.67 5.234 3.411 5.231 6.687-.003 3.776-2.983 6.835-6.657 6.834-.13 0-.257-.004-.384-.012ZM201.138 38.993h11.865c.09.005.181.008.272.008 2.608 0 4.723-2.085 4.725-4.66.002-2.233-1.588-4.102-3.712-4.56-.211-2.133-2.032-3.802-4.249-3.804-.502 0-.984.085-1.431.241a5.237 5.237 0 0 0-4.286-2.217 5.262 5.262 0 0 0-3.698 1.51 5.129 5.129 0 0 0-1.518 4.048 4.962 4.962 0 0 0-1.653 1.078A4.864 4.864 0 0 0 196 34.095c0 2.662 2.155 4.827 4.836 4.887.1.007.201.011.302.011Z" clip-rule="evenodd"/></svg>