<?xml version="1.0" encoding="UTF-8"?>
<svg width="26px" height="23px" viewBox="0 0 26 23" version="1.1" xmlns="http://www.w3.org/2000/svg" xmlns:xlink="http://www.w3.org/1999/xlink">
    <g stroke="none" stroke-width="1" fill-rule="evenodd" transform="translate(-5, -7)" fill="#2FC6F6">
        <path d="M27.6226664,7 C29.0061231,7 30.1276363,8.12151321 30.1276363,9.50496987 L30.1276363,26.8276523 C30.1276363,28.2111089 29.0061231,29.3326221 27.6226664,29.3326221 L7.58730305,29.3326221 C6.20384639,29.3326221 5.08233318,28.2111089 5.08233318,26.8276523 L5.08213477,25.061 L8.21313477,25.061 L8.21354552,26.2140233 L27.0260466,26.2140233 L27.0260466,13.2624247 L8.21354552,13.2624247 L8.21313477,14.414 L5.08213477,14.414 L5.08233318,9.50496987 C5.08233318,8.12151321 6.20384639,7 7.58730305,7 L27.6226664,7 Z M16.7663574,14.60671 L21.6225586,19.4629112 L16.7663574,24.3191124 L16.766,20.78671 L5,20.7873741 L5,18.1384483 L16.766,18.13771 L16.7663574,14.60671 Z M9.77915169,8.56560617 C8.91449128,8.56560617 8.21354552,9.26655193 8.21354552,10.1312123 C8.21354552,10.9958728 8.91449128,11.6968185 9.77915169,11.6968185 C10.6438121,11.6968185 11.3447579,10.9958728 11.3447579,10.1312123 C11.3447579,9.26655193 10.6438121,8.56560617 9.77915169,8.56560617 Z M14.4759702,8.56560617 C13.6113098,8.56560617 12.910364,9.26655193 12.910364,10.1312123 C12.910364,10.9958728 13.6113098,11.6968185 14.4759702,11.6968185 C15.3406306,11.6968185 16.0415764,10.9958728 16.0415764,10.1312123 C16.0415764,9.26655193 15.3406306,8.56560617 14.4759702,8.56560617 Z" id="Combined-Shape"></path>
    </g>
</svg>