<?xml version="1.0" encoding="UTF-8"?>
<svg width="34px" height="29px" viewBox="0 0 34 29" version="1.1" xmlns="http://www.w3.org/2000/svg" xmlns:xlink="http://www.w3.org/1999/xlink">
    <!-- Generator: Sketch 61 (89581) - https://sketch.com -->
    <title>Icons / Type 02 / Icon 01</title>
    <desc>Created with Sketch.</desc>
    <g stroke="none" stroke-width="1" fill-rule="evenodd" transform="translate(0, -5)" fill="#2FC6F6">
            <path d="M14.1494142,27.4600963 C15.9562318,27.4600963 17.4202051,28.9240265 17.4202051,30.7308872 C17.4202051,32.5360268 15.9562749,34 14.1494142,34 C12.3442746,34 10.8803014,32.5360698 10.8803014,30.7308872 C10.8803014,28.9240695 12.3442316,27.4600963 14.1494142,27.4600963 Z M25.6812584,27.4600963 C27.488076,27.4600963 28.9520493,28.9240265 28.9520493,30.7308872 C28.9520493,32.5360268 27.488119,34 25.6812584,34 C23.8761188,34 22.4121455,32.5360698 22.4121455,30.7308872 C22.4121455,28.9240695 23.8760758,27.4600963 25.6812584,27.4600963 Z M6.02387293,5 C6.57636043,5.00311643 7.05927729,5.35549588 7.23714154,5.86876378 L7.27266482,5.98998049 L8.2189292,10.0776086 L31.920403,10.0337203 C32.315397,10.0353984 32.6868548,10.2185887 32.9288854,10.52785 C33.1421316,10.7999408 33.2357036,11.1427867 33.1949608,11.4809696 L33.1692336,11.6253997 L30.758996,25.0078637 C30.6310225,25.544757 30.1769737,25.9352701 29.6377266,25.9910097 L29.5118822,25.9978442 L10.4125225,25.9978442 C9.86159325,25.9947277 9.37733707,25.6423483 9.20062054,25.1290804 L9.16540873,25.0078637 L4.99206956,7.58165983 L1,7.58165983 C0.487164161,7.58165983 0.0644928393,7.19561964 0.00672773133,6.69828095 L1.79056769e-12,6.58165983 L1.79056769e-12,6 C1.79050489e-12,5.48716416 0.38604019,5.06449284 0.883378875,5.00672773 L1,5 L6.02387293,5 Z M26.2945054,19.1321795 L13.4018634,19.1321795 C12.8495786,19.1321795 12.4018634,19.5798948 12.4018634,20.1321795 L12.4018634,20.1321795 L12.4018634,20.3342358 C12.4018634,20.8865205 12.8495786,21.3342358 13.4018634,21.3342358 L13.4018634,21.3342358 L26.2945054,21.3342358 C26.8467902,21.3342358 27.2945054,20.8865205 27.2945054,20.3342358 L27.2945054,20.3342358 L27.2945054,20.1321795 C27.2945054,19.5798948 26.8467902,19.1321795 26.2945054,19.1321795 L26.2945054,19.1321795 Z M26.2945054,14.2587322 L13.4018634,14.2587322 C12.8495786,14.2587322 12.4018634,14.7064475 12.4018634,15.2587322 L12.4018634,15.2587322 L12.4018634,15.4607885 C12.4018634,16.0130733 12.8495786,16.4607885 13.4018634,16.4607885 L13.4018634,16.4607885 L26.2945054,16.4607885 C26.8467902,16.4607885 27.2945054,16.0130733 27.2945054,15.4607885 L27.2945054,15.4607885 L27.2945054,15.2587322 C27.2945054,14.7064475 26.8467902,14.2587322 26.2945054,14.2587322 L26.2945054,14.2587322 Z" id="Combined-Shape"></path>
    </g>
</svg>