<svg width="13" height="10" viewBox="0 0 13 10" fill="none" xmlns="http://www.w3.org/2000/svg">
<path fill-rule="evenodd" clip-rule="evenodd" d="M1.86747 0.426025C1.23628 0.426025 0.724609 0.937698 0.724609 1.56888V7.86512C0.724609 8.49632 1.23629 9.00798 1.86747 9.00798H11.0262C11.6574 9.00798 12.1691 8.49632 12.1691 7.86512V1.56888C12.1691 0.937698 11.6574 0.426025 11.0262 0.426025H1.86747ZM2.72666 1.57544C2.41107 1.57544 2.15523 1.83128 2.15523 2.14687C2.15523 2.46246 2.41107 2.7183 2.72666 2.7183H7.83113C8.14673 2.7183 8.40256 2.46246 8.40256 2.14687C8.40256 1.83128 8.14673 1.57544 7.83113 1.57544H2.72666ZM2.1552 6.69952C2.1552 6.38398 2.41104 6.12809 2.72663 6.12809H5.31426C5.62984 6.12809 5.88568 6.38398 5.88568 6.69952C5.88568 7.01512 5.62984 7.27095 5.31426 7.27095H2.72663C2.41104 7.27095 2.1552 7.01512 2.1552 6.69952ZM2.72663 3.8288C2.41104 3.8288 2.1552 4.08463 2.1552 4.40023C2.1552 4.71582 2.41104 4.97166 2.72663 4.97166H7.83107C8.14667 4.97166 8.4025 4.71582 8.4025 4.40023C8.4025 4.08463 8.14667 3.8288 7.83107 3.8288H2.72663Z" fill="#2FC6F6"/>
</svg>
