<?xml version="1.0" encoding="UTF-8"?>
<svg width="25px" height="24px" viewBox="0 0 25 24" version="1.1" xmlns="http://www.w3.org/2000/svg" xmlns:xlink="http://www.w3.org/1999/xlink">
    <g stroke="none" stroke-width="1" fill-rule="evenodd" transform="translate(-6, -7)" fill="#2FC6F6">
            <path d="M27.8046875,7 C29.4615417,7 30.8046875,8.34314575 30.8046875,10 L30.8046875,23.6375657 C30.8046875,25.29442 29.4615417,26.6375657 27.8046875,26.6375657 L24.89,26.637 L24.8900987,30.158673 C24.8900987,30.5234438 24.5843375,30.819149 24.2071619,30.819149 C24.0260358,30.819149 23.8523282,30.7495633 23.7242527,30.6257 L19.6,26.637 L9,26.6375657 C7.34314575,26.6375657 6,25.29442 6,23.6375657 L6,10 C6,8.34314575 7.34314575,7 9,7 L27.8046875,7 Z M25.9909341,17.3090569 L14.5922852,17.3090569 C14.0400004,17.3090569 13.5922852,17.7567722 13.5922852,18.3090569 L13.5922852,18.3090569 L13.5922852,19.4090569 C13.5922852,19.9613417 14.0400004,20.4090569 14.5922852,20.4090569 L14.5922852,20.4090569 L25.9909341,20.4090569 C26.5432189,20.4090569 26.9909341,19.9613417 26.9909341,19.4090569 L26.9909341,19.4090569 L26.9909341,18.3090569 C26.9909341,17.7567722 26.5432189,17.3090569 25.9909341,17.3090569 L25.9909341,17.3090569 Z M23.2294922,11.4853313 L10.5958275,11.4853313 C10.0435428,11.4853313 9.59582751,11.9330465 9.59582751,12.4853313 L9.59582751,12.4853313 L9.59582751,13.5853313 C9.59582751,14.137616 10.0435428,14.5853313 10.5958275,14.5853313 L10.5958275,14.5853313 L23.2294922,14.5853313 C23.7817769,14.5853313 24.2294922,14.137616 24.2294922,13.5853313 L24.2294922,13.5853313 L24.2294922,12.4853313 C24.2294922,11.9330465 23.7817769,11.4853313 23.2294922,11.4853313 L23.2294922,11.4853313 Z" id="Combined-Shape"></path>
    </g>
</svg>