<?xml version="1.0" encoding="UTF-8"?>
<svg width="34px" height="23px" viewBox="0 0 34 23" version="1.1" xmlns="http://www.w3.org/2000/svg" xmlns:xlink="http://www.w3.org/1999/xlink">
    <g stroke="none" stroke-width="1" fill-rule="evenodd" transform="translate(-2, -8)" fill="#2FC6F6">
            <path d="M27.4005365,14.4191217 C31.8439083,14.4191217 35.4459728,18.0211862 35.4459728,22.464558 C35.4459728,26.9079298 31.8439083,30.5099943 27.4005365,30.5099943 C22.9571647,30.5099943 19.3551002,26.9079298 19.3551002,22.464558 C19.3551002,18.0211862 22.9571647,14.4191217 27.4005365,14.4191217 Z M16.4762556,24.5349348 C16.7823353,26.1599163 17.4420202,27.6600512 18.3723248,28.9523537 L18.2992628,28.972888 C18.2185376,28.9906832 18.135004,29 18.0497886,29 L13.1113197,29 C12.6126503,29 12.1700131,28.6806817 12.0127187,28.2074697 L11.2980585,26.0574514 C11.0963796,25.4507109 11.424747,24.7953574 12.0314875,24.5936785 C12.1492568,24.5545323 12.2725545,24.5345772 12.3966595,24.5345772 L16.4762556,24.5349348 Z M23.6487653,24.0480549 L22.9913224,26.4869222 C22.9706852,26.5650249 22.9927965,26.6475484 23.0488118,26.7050203 C23.1063012,26.7624921 23.1888501,26.7845966 23.2669767,26.7624921 L25.706591,26.1052505 L23.6487653,24.0480549 Z M29.5555401,18.0280087 L29.4686266,18.1016439 L24.2171328,23.3321502 L26.39952,25.5375131 L31.6542216,20.3038118 C31.9001804,20.058836 31.926072,19.6763354 31.7310057,19.4024177 L31.6577987,19.315471 L30.4601691,18.1052326 L30.4585741,18.103626 C30.2130369,17.8571036 29.8294794,17.8317326 29.5555401,18.0280087 Z M18.1788388,16.2543259 C17.291239,17.569754 16.677676,19.0853444 16.4200316,20.7192152 L8.00191349,20.7197621 C7.51185003,20.7197621 7.07487646,20.4112001 6.91092278,19.9493761 L6.14763759,17.7993578 C5.93372872,17.1968203 6.2487745,16.5349597 6.85131203,16.3210509 C6.97567171,16.2769015 7.10666431,16.2543393 7.2386283,16.2543393 L18.1788388,16.2543259 Z M27.9332092,8 C28.5725905,8 29.0909115,8.51832097 29.0909115,9.1577023 C29.0909115,9.28729968 29.0691511,9.41597723 29.026538,9.53836841 L28.3808005,11.3904584 C28.0578067,11.3622392 27.730854,11.3478326 27.4005365,11.3478326 C25.6561896,11.3478326 24.0056784,11.7495907 22.5364879,12.4656216 L3.90053666,12.4654228 C3.40681595,12.4654228 2.96742231,12.1523106 2.8062541,11.6856363 L2.06373503,9.535618 C1.85501795,8.93126243 2.17574632,8.27213682 2.78010189,8.06341973 C2.90167622,8.02143346 3.02939737,8 3.1580176,8 L27.9332092,8 Z" id="Combined-Shape"></path>
    </g>
</svg>