<svg width="13" height="12" viewBox="0 0 13 12" fill="none" xmlns="http://www.w3.org/2000/svg">
<path fill-rule="evenodd" clip-rule="evenodd" d="M4.06803 0.253914C4.07375 0.250939 4.07929 0.248057 4.08465 0.24643L4.08467 0.246468C4.10523 0.240561 4.12276 0.245202 4.14513 0.256594L7.4198 1.55277C7.50386 1.5916 7.53529 1.66586 7.53346 1.79244V5.90716C7.53409 6.00041 7.48632 6.0903 7.4222 6.11647L4.1669 7.40247C4.12367 7.4143 4.07137 7.41681 4.03147 7.3991L0.805083 6.12321C0.740986 6.09836 0.692314 6.01013 0.691406 5.91733V1.76544C0.693829 1.66756 0.723454 1.58444 0.805083 1.54604L4.06288 0.256557C4.06461 0.255688 4.06633 0.254797 4.06803 0.253914ZM6.80797 1.76202L4.104 0.688618L1.39763 1.75865L4.104 2.82867L6.80797 1.76202ZM4.00752 8.45538L1.50049 7.46401V8.15607H1.50322C1.50141 8.17801 1.50049 8.20018 1.50049 8.22258V10.218C1.50049 10.6588 1.85784 11.0161 2.29865 11.0161L2.64741 11.0162C2.64453 10.9761 2.64307 10.9357 2.64307 10.895C2.64307 9.97658 3.38755 9.23213 4.30591 9.23213C5.22428 9.23213 5.96877 9.97658 5.96877 10.895C5.96877 10.9357 5.96729 10.9761 5.96443 11.0162H8.28923C8.28637 10.9761 8.28489 10.9357 8.28489 10.895C8.28489 9.97658 9.0294 9.23213 9.94774 9.23213C10.8661 9.23213 11.6106 9.97658 11.6106 10.895C11.6106 10.9357 11.6091 10.9761 11.6063 11.0162L12.1427 11.0161C12.5835 11.0161 12.9409 10.6588 12.9409 10.218V8.22258C12.9409 8.07333 12.8999 7.93367 12.8288 7.81418C12.766 7.62241 12.6776 7.43893 12.565 7.26893L11.4587 5.59807C11.1137 5.07712 10.5306 4.76385 9.9058 4.76385H8.5454V6.52218C8.5462 6.64298 8.48432 6.75944 8.40123 6.79338L4.18302 8.45978C4.127 8.4751 4.05923 8.47836 4.00752 8.45538ZM5.38197 10.895C5.38197 10.3007 4.9002 9.81893 4.30591 9.81893C3.71162 9.81893 3.22985 10.3007 3.22985 10.895C3.22985 11.4893 3.71162 11.971 4.30591 11.971C4.9002 11.971 5.38197 11.4893 5.38197 10.895ZM11.0238 10.895C11.0238 10.3007 10.542 9.81893 9.94774 9.81893C9.35346 9.81893 8.87169 10.3007 8.87169 10.895C8.87169 11.4893 9.35346 11.971 9.94774 11.971C10.542 11.971 11.0238 11.4893 11.0238 10.895ZM9.08306 5.56201H10.026C10.2933 5.56201 10.5429 5.69584 10.6908 5.91853L11.6911 7.42441H9.08306V5.56201Z" fill="#2FC6F6"/>
</svg>
