<svg width="14" height="11" viewBox="0 0 14 11" fill="none" xmlns="http://www.w3.org/2000/svg">
<path fill-rule="evenodd" clip-rule="evenodd" d="M0.191406 1.29679C0.191406 1.0927 0.356858 0.927246 0.560954 0.927246H7.8709C8.07502 0.927246 8.24044 1.0927 8.24044 1.29679V5.71063C8.24044 5.91471 8.07502 6.08018 7.8709 6.08018H0.560954C0.356858 6.08018 0.191406 5.91471 0.191406 5.71063V1.29679ZM1.00414 2.87519V5.05959C1.00414 5.16163 1.08686 5.24437 1.18891 5.24437H7.24542C7.34747 5.24437 7.43022 5.16163 7.43022 5.05959V2.8739C6.80907 2.84488 6.31444 2.33214 6.31444 1.70387C6.31444 1.69436 6.31456 1.68487 6.31479 1.67541H2.17415C2.17438 1.68487 2.17448 1.69436 2.17448 1.70387C2.17448 2.35045 1.65059 2.87467 1.00414 2.87519ZM4.23351 4.62642C4.8561 4.62642 5.36082 4.1217 5.36082 3.49911C5.36082 2.87651 4.8561 2.3718 4.23351 2.3718C3.61091 2.3718 3.10619 2.87651 3.10619 3.49911C3.10619 4.1217 3.61091 4.62642 4.23351 4.62642ZM2.07136 8.50362V7.02157H8.55182C8.86742 7.02157 9.12324 6.76574 9.12324 6.45014V3.04946H10.4767C11.1015 3.04946 11.6846 3.36273 12.0295 3.88366L13.1359 5.55454C13.2484 5.72455 13.3369 5.90804 13.3996 6.09978C13.4708 6.21928 13.5118 6.35895 13.5118 6.50818V8.50362C13.5118 8.94442 13.1544 9.30174 12.7136 9.30174L12.1771 9.30179C12.18 9.26174 12.1815 9.22134 12.1815 9.18059C12.1815 8.26219 11.437 7.51774 10.5186 7.51774C9.60027 7.51774 8.85576 8.26219 8.85576 9.18059C8.85576 9.22134 8.85724 9.26174 8.8601 9.30179H6.5353C6.53816 9.26174 6.53964 9.22134 6.53964 9.18059C6.53964 8.26219 5.79515 7.51774 4.87678 7.51774C3.95842 7.51774 3.21394 8.26219 3.21394 9.18059C3.21394 9.22134 3.2154 9.26174 3.21828 9.30179L2.86952 9.30174C2.42871 9.30174 2.07136 8.94442 2.07136 8.50362ZM5.95284 9.18059C5.95284 8.58631 5.47107 8.10454 4.87678 8.10454C4.28249 8.10454 3.80072 8.58631 3.80072 9.18059C3.80072 9.77488 4.28249 10.2567 4.87678 10.2567C5.47107 10.2567 5.95284 9.77488 5.95284 9.18059ZM11.5947 9.18059C11.5947 8.58631 11.1129 8.10454 10.5186 8.10454C9.92433 8.10454 9.44256 8.58631 9.44256 9.18059C9.44256 9.77488 9.92433 10.2567 10.5186 10.2567C11.1129 10.2567 11.5947 9.77488 11.5947 9.18059ZM9.65393 3.84762H10.5968C10.8642 3.84762 11.1138 3.98146 11.2617 4.20414L12.2619 5.71001H9.65393V3.84762Z" fill="#2FC6F6"/>
</svg>
