<svg width="30" height="30" viewBox="0 0 60 60" xmlns="http://www.w3.org/2000/svg"><path d="M9.96835938,41.0515625 C13.5029818,41.0515625 16.3683594,43.9169401 16.3683594,47.4515625 C16.3683594,50.9861849 13.5029818,53.8515625 9.96835938,53.8515625 C6.43373698,53.8515625 3.56835938,50.9861849 3.56835938,47.4515625 C3.56835938,43.9169401 6.43373698,41.0515625 9.96835938,41.0515625 Z M54.3945931,42.0802225 C55.4991626,42.0802225 56.3945931,42.975653 56.3945931,44.0802225 L56.3945931,50.9857931 C56.3945931,52.0903626 55.4991626,52.9857931 54.3945931,52.9857931 L37.422797,52.9857931 C36.3182275,52.9857931 35.422797,52.0903626 35.422797,50.9857931 L35.422797,44.0802225 C35.422797,42.975653 36.3182275,42.0802225 37.422797,42.0802225 L54.3945931,42.0802225 Z M25.4163095,42.6962526 L30.2331944,47.5131375 L25.4163095,52.3300224 L25.4159766,48.7412526 L20.7759766,48.7414551 L20.7759766,46.2126465 L25.4159766,46.2122526 L25.4163095,42.6962526 Z M47.408695,46.0329752 L39.408695,46.0329752 C38.8958592,46.0329752 38.4731879,46.4190154 38.4154228,46.9163541 L38.408695,47.0329752 L38.408695,48.0330404 C38.408695,48.5458762 38.7947352,48.9685475 39.2920739,49.0263126 L39.408695,49.0330404 L47.408695,49.0330404 C47.9215309,49.0330404 48.3442022,48.6470002 48.4019673,48.1496615 L48.408695,48.0330404 L48.408695,47.0329752 C48.408695,46.4806905 47.9609798,46.0329752 47.408695,46.0329752 Z M9.96835938,24.1209961 C13.5029818,24.1209961 16.3683594,26.9863737 16.3683594,30.5209961 C16.3683594,34.0556185 13.5029818,36.9209961 9.96835938,36.9209961 C6.43373698,36.9209961 3.56835938,34.0556185 3.56835938,30.5209961 C3.56835938,26.9863737 6.43373698,24.1209961 9.96835938,24.1209961 Z M54.3758974,25.0899444 C55.4804669,25.0899444 56.3758974,25.9853749 56.3758974,27.0899444 L56.3758974,33.9760712 C56.3758974,35.0806407 55.4804669,35.9760712 54.3758974,35.9760712 L37.4414926,35.9760712 C36.3369231,35.9760712 35.4414926,35.0806407 35.4414926,33.9760712 L35.4414926,27.0899444 C35.4414926,25.9853749 36.3369231,25.0899444 37.4414926,25.0899444 L54.3758974,25.0899444 Z M25.4163095,25.6962526 L30.2331944,30.5131375 L25.4163095,35.3300224 L25.4159766,31.7412526 L20.7759766,31.7414551 L20.7759766,29.2126465 L25.4159766,29.2122526 L25.4163095,25.6962526 Z M47.408695,29.0329752 L39.408695,29.0329752 C38.8958592,29.0329752 38.4731879,29.4190154 38.4154228,29.9163541 L38.408695,30.0329752 L38.408695,31.0330404 C38.408695,31.5458762 38.7947352,31.9685475 39.2920739,32.0263126 L39.408695,32.0330404 L47.408695,32.0330404 C47.9215309,32.0330404 48.3442022,31.6470002 48.4019673,31.1496615 L48.408695,31.0330404 L48.408695,30.0329752 C48.408695,29.4806905 47.9609798,29.0329752 47.408695,29.0329752 Z M9.96835938,7.28125 C13.5029818,7.28125 16.3683594,10.1466276 16.3683594,13.68125 C16.3683594,17.2158724 13.5029818,20.08125 9.96835938,20.08125 C6.43373698,20.08125 3.56835938,17.2158724 3.56835938,13.68125 C3.56835938,10.1466276 6.43373698,7.28125 9.96835938,7.28125 Z M54.4665203,8.04281949 C55.5710898,8.04281949 56.4665203,8.93824999 56.4665203,10.0428195 L56.4665203,17.0231961 C56.4665203,18.1277656 55.5710898,19.0231961 54.4665203,19.0231961 L37.3508697,19.0231961 C36.2463002,19.0231961 35.3508697,18.1277656 35.3508697,17.0231961 L35.3508697,10.0428195 C35.3508697,8.93824999 36.2463002,8.04281949 37.3508697,8.04281949 L54.4665203,8.04281949 Z M25.4163095,8.69625256 L30.2331944,13.5131375 L25.4163095,18.3300224 L25.4159766,14.7412526 L20.7759766,14.7414551 L20.7759766,12.2126465 L25.4159766,12.2122526 L25.4163095,8.69625256 Z M47.408695,12.0329752 L39.408695,12.0329752 C38.8958592,12.0329752 38.4731879,12.4190154 38.4154228,12.9163541 L38.408695,13.0329752 L38.408695,14.0330404 C38.408695,14.5458762 38.7947352,14.9685475 39.2920739,15.0263126 L39.408695,15.0330404 L47.408695,15.0330404 C47.9215309,15.0330404 48.3442022,14.6470002 48.4019673,14.1496615 L48.408695,14.0330404 L48.408695,13.0329752 C48.408695,12.4806905 47.9609798,12.0329752 47.408695,12.0329752 Z" fill="#2FC6F6" fill-rule="evenodd"/></svg>