<svg width="30" height="30" viewBox="0 0 60 60" xmlns="http://www.w3.org/2000/svg"><path d="M7.96835938,41.0515625 C11.5029818,41.0515625 14.3683594,43.9169401 14.3683594,47.4515625 C14.3683594,50.9861849 11.5029818,53.8515625 7.96835938,53.8515625 C4.43373698,53.8515625 1.56835938,50.9861849 1.56835938,47.4515625 C1.56835938,43.9169401 4.43373698,41.0515625 7.96835938,41.0515625 Z M21.0196938,38.3857308 L27.5996809,40.148833 L25.8365787,46.7288202 L24.0419055,43.6210208 L20.0236488,45.9411962 L18.7592445,43.7511837 L22.7774055,41.4308426 L21.0196938,38.3857308 Z M56.4058594,23.0786133 C57.5104289,23.0786133 58.4058594,23.9740438 58.4058594,25.0786133 L58.4058594,35.9874023 C58.4058594,37.0919718 57.5104289,37.9874023 56.4058594,37.9874023 L35.4115307,37.9874023 C34.3069612,37.9874023 33.4115307,37.0919718 33.4115307,35.9874023 L33.4115307,25.0786133 C33.4115307,23.9740438 34.3069612,23.0786133 35.4115307,23.0786133 L56.4058594,23.0786133 Z M7.96835938,24.1209961 C11.5029818,24.1209961 14.3683594,26.9863737 14.3683594,30.5209961 C14.3683594,34.0556185 11.5029818,36.9209961 7.96835938,36.9209961 C4.43373698,36.9209961 1.56835938,34.0556185 1.56835938,30.5209961 C1.56835938,26.9863737 4.43373698,24.1209961 7.96835938,24.1209961 Z M23.4163095,25.6962526 L28.2331944,30.5131375 L23.4163095,35.3300224 L23.4159766,31.7412526 L18.7759766,31.7414551 L18.7759766,29.2126465 L23.4159766,29.2122526 L23.4163095,25.6962526 Z M47.408695,29.0329752 L39.408695,29.0329752 C38.8958592,29.0329752 38.4731879,29.4190154 38.4154228,29.9163541 L38.408695,30.0329752 L38.408695,31.0330404 C38.408695,31.5458762 38.7947352,31.9685475 39.2920739,32.0263126 L39.408695,32.0330404 L47.408695,32.0330404 C47.9215309,32.0330404 48.3442022,31.6470002 48.4019673,31.1496615 L48.408695,31.0330404 L48.408695,30.0329752 C48.408695,29.4806905 47.9609798,29.0329752 47.408695,29.0329752 Z M25.8365787,14.2974548 L27.5996809,20.8774419 L21.0196938,22.6405442 L22.8137904,19.5324119 L18.7953312,17.2125873 L20.0597355,15.0225748 L24.0782904,17.3422336 L25.8365787,14.2974548 Z M7.96835938,7.28125 C11.5029818,7.28125 14.3683594,10.1466276 14.3683594,13.68125 C14.3683594,17.2158724 11.5029818,20.08125 7.96835938,20.08125 C4.43373698,20.08125 1.56835938,17.2158724 1.56835938,13.68125 C1.56835938,10.1466276 4.43373698,7.28125 7.96835938,7.28125 Z" fill="#2FC6F6" fill-rule="evenodd"/></svg>