<svg width="14" height="14" viewBox="0 0 14 14" fill="none" xmlns="http://www.w3.org/2000/svg">
<path fill-rule="evenodd" clip-rule="evenodd" d="M10.111 4.24057V5.10418C10.1991 5.0991 10.2879 5.09653 10.3774 5.09653C10.7847 5.09653 11.1796 5.14991 11.5554 5.25007V3.45002C11.5691 2.66078 10.9805 2.0017 10.2208 1.95382H9.38892V2.32787C9.38892 2.9473 8.90361 3.45002 8.30566 3.45002C7.70772 3.45002 7.22246 2.9473 7.22246 2.32787V1.95382H5.01694V2.32787C5.01694 2.9473 4.53237 3.45002 3.93371 3.45002C3.33505 3.45002 2.85048 2.9473 2.85048 2.32787V1.95382H2.01856C1.28052 1.95233 0.681133 2.57026 0.679688 3.33482C0.679688 3.37297 0.681133 3.41113 0.684021 3.45002V10.931C0.684021 11.344 1.00754 11.6791 1.40618 11.6791H6.28578C6.05812 11.219 5.90578 10.7149 5.84493 10.183H2.1283V4.24057H10.111ZM8.33126 5.57997C8.04206 5.72532 7.77052 5.90052 7.52052 6.10153V5.86569C7.52052 5.70789 7.64846 5.57997 7.80623 5.57997H8.33126ZM5.75697 7.61583H6.29698C6.08652 8.03537 5.93886 8.49189 5.86635 8.97303H5.75697C5.59918 8.97303 5.47126 8.84509 5.47126 8.68731V7.90154C5.47126 7.74371 5.59918 7.61583 5.75697 7.61583ZM4.46446 1.35682V2.17974C4.46446 2.48347 4.22687 2.72959 3.93368 2.72959C3.64049 2.72959 3.4029 2.48347 3.4029 2.17974V1.35682V1.34934C3.40434 1.04636 3.6441 0.801734 3.93729 0.803229C4.23049 0.805474 4.46591 1.0531 4.46446 1.35682ZM8.80681 1.37705V2.15731C8.80681 2.44384 8.58223 2.6765 8.30492 2.6765C8.02761 2.67575 7.80446 2.44309 7.80446 2.15657V1.37705C7.80446 1.08978 8.02909 0.857863 8.30566 0.857863C8.58223 0.857863 8.80681 1.08978 8.80681 1.37705ZM5.47126 5.86569C5.47126 5.70789 5.59918 5.57997 5.75697 5.57997H6.55172C6.70955 5.57997 6.83743 5.70789 6.83743 5.86569V6.65148C6.83743 6.80926 6.70955 6.9372 6.55172 6.9372H5.75697C5.59918 6.9372 5.47126 6.80926 5.47126 6.65148V5.86569ZM3.70773 5.57997C3.54993 5.57997 3.42202 5.70789 3.42202 5.86569V6.65148C3.42202 6.80926 3.54993 6.9372 3.70773 6.9372H4.5025C4.66029 6.9372 4.78821 6.80926 4.78821 6.65148V5.86569C4.78821 5.70789 4.66029 5.57997 4.5025 5.57997H3.70773ZM3.7077 7.61583C3.5499 7.61583 3.42198 7.74371 3.42198 7.90154V8.68731C3.42198 8.84509 3.5499 8.97303 3.7077 8.97303H4.50246C4.66026 8.97303 4.78818 8.84509 4.78818 8.68731V7.90154C4.78818 7.74371 4.66026 7.61583 4.50246 7.61583H3.7077ZM9.21589 9.30943L9.98726 10.0808L11.8365 8.2316L12.3818 8.77691L9.98783 11.1709L9.95812 11.1413L9.95761 11.1418L8.67058 9.85474L9.21589 9.30943ZM6.93315 9.65874C6.93315 11.5609 8.47521 13.103 10.3774 13.103C12.2795 13.103 13.8215 11.5609 13.8215 9.65874C13.8215 7.75657 12.2795 6.21457 10.3774 6.21457C8.47521 6.21457 6.93315 7.75657 6.93315 9.65874Z" fill="#2FC6F6"/>
</svg>
