<?xml version="1.0" encoding="UTF-8"?>
<svg width="23px" height="26px" viewBox="0 0 23 26" version="1.1" xmlns="http://www.w3.org/2000/svg" xmlns:xlink="http://www.w3.org/1999/xlink">
    <g stroke="none" stroke-width="1" fill-rule="evenodd" transform="translate(-7, -5)" fill="#2FC6F6">
        <path d="M27.7390231,5 C28.4915567,5 29.1069336,5.64054866 29.1069336,6.42386447 L29.1069336,6.42386447 L29.1069336,28.6869754 C29.1069336,29.4702912 28.4915567,30.1108398 27.7390231,30.1108398 L27.7390231,30.1108398 L21.783,30.11 L21.7834216,21.3563783 L24.1815252,21.3563783 C24.1815252,21.3563783 24.4061978,19.9271056 24.5156597,18.3640538 L21.7975535,18.3640538 L21.7975535,16.3256434 C21.7975535,16.0211975 22.1867783,15.6119907 22.5721707,15.6119907 L24.5192526,15.6119907 L24.5192526,12.5082656 L21.8715661,12.5082656 C18.3781677,12.5082656 18.2163079,15.098983 18.2104761,15.8127925 L18.2104581,18.3746283 L16.4710425,18.3746283 L16.4710425,21.3553946 L18.2104581,21.3553946 L18.21,30.11 L8.36791052,30.1108398 C7.65964354,30.1108398 7.07287187,29.5434334 7.00629066,28.8236242 L7,28.6869754 L7,6.42386447 C7,5.64054866 7.61537686,5 8.36791052,5 L8.36791052,5 Z M14.4023438,12.5058594 L10.9213867,12.5058594 C10.369102,12.5058594 9.92138672,12.9535746 9.92138672,13.5058594 C9.92138672,14.0581441 10.369102,14.5058594 10.9213867,14.5058594 L10.9213867,14.5058594 L14.4023438,14.5058594 C14.9546285,14.5058594 15.4023438,14.0581441 15.4023438,13.5058594 C15.4023438,12.9535746 14.9546285,12.5058594 14.4023438,12.5058594 L14.4023438,12.5058594 Z M22.4475098,8.48925781 L10.9213867,8.48925781 C10.369102,8.48925781 9.92138672,8.93697306 9.92138672,9.48925781 C9.92138672,10.0415426 10.369102,10.4892578 10.9213867,10.4892578 L10.9213867,10.4892578 L22.4475098,10.4892578 C22.9997945,10.4892578 23.4475098,10.0415426 23.4475098,9.48925781 C23.4475098,8.93697306 22.9997945,8.48925781 22.4475098,8.48925781 L22.4475098,8.48925781 Z" id="Combined-Shape"></path>
    </g>
</svg>