<svg width="13" height="10" viewBox="0 0 13 10" fill="none" xmlns="http://www.w3.org/2000/svg">
<path fill-rule="evenodd" clip-rule="evenodd" d="M0.724609 1.56888C0.724609 0.937698 1.23628 0.426025 1.86747 0.426025H11.0262C11.6574 0.426025 12.1691 0.937698 12.1691 1.56888V7.86512C12.1691 8.49632 11.6574 9.00798 11.0262 9.00798H1.86747C1.23629 9.00798 0.724609 8.49632 0.724609 7.86512V1.56888ZM2.15523 2.14687C2.15523 1.83128 2.41107 1.57544 2.72666 1.57544H4.44095C4.75654 1.57544 5.01238 1.83128 5.01238 2.14687C5.01238 2.46246 4.75654 2.7183 4.44095 2.7183H2.72666C2.41107 2.7183 2.15523 2.46246 2.15523 2.14687ZM2.72663 6.12809C2.41104 6.12809 2.1552 6.38398 2.1552 6.69952C2.1552 7.01512 2.41104 7.27095 2.72663 7.27095H4.44092C4.75651 7.27095 5.01235 7.01512 5.01235 6.69952C5.01235 6.38398 4.75651 6.12809 4.44092 6.12809H2.72663ZM2.1552 4.40023C2.1552 4.08463 2.41104 3.8288 2.72663 3.8288H4.44092C4.75651 3.8288 5.01235 4.08463 5.01235 4.40023C5.01235 4.71582 4.75651 4.97166 4.44092 4.97166H2.72663C2.41104 4.97166 2.1552 4.71582 2.1552 4.40023ZM8.57793 1.5822C8.6265 1.57064 8.66553 1.62265 8.64079 1.66607L8.05267 2.69906L9.97782 3.8201C10.9387 4.37488 11.286 5.58432 10.7815 6.55975L10.7348 6.64518L10.7048 6.69723C10.15 7.65815 8.94056 8.00541 7.96513 7.50095L7.87964 7.45421L7.12245 7.01706L7.58153 6.20261L8.26622 6.59792L8.3333 6.63381C8.85302 6.89055 9.4849 6.72123 9.80662 6.23906L9.84679 6.17438L9.88273 6.10729C10.1394 5.58758 9.9701 4.95568 9.48793 4.63395L9.4233 4.59378L7.58416 3.52261L6.94633 4.64185C6.92142 4.68554 6.85633 4.67809 6.84193 4.6299L6.12482 2.2277C6.11543 2.19624 6.13442 2.16336 6.16636 2.15576L8.57793 1.5822Z" fill="#2FC6F6"/>
</svg>
