<svg width="13" height="11" viewBox="0 0 13 11" fill="none" xmlns="http://www.w3.org/2000/svg">
<path fill-rule="evenodd" clip-rule="evenodd" d="M1.86747 0.993164C1.23628 0.993164 0.724609 1.50484 0.724609 2.13602V8.86509C0.724609 9.49623 1.23628 10.0079 1.86747 10.0079H11.5147C12.1459 10.0079 12.6576 9.49623 12.6576 8.86509V2.13602C12.6576 1.50484 12.1459 0.993164 11.5147 0.993164H1.86747ZM4.95146 2.49533C4.73201 2.49533 4.55411 2.23949 4.55411 1.9239C4.55411 1.60831 4.73201 1.35247 4.95146 1.35247H5.17474H6.31759H6.54084C6.76033 1.35247 6.93822 1.60831 6.93822 1.9239C6.93822 2.23949 6.76033 2.49533 6.54084 2.49533H6.31759V8.2096H6.38908C6.6085 8.2096 6.78644 8.46543 6.78644 8.78103C6.78644 9.09663 6.6085 9.35246 6.38908 9.35246H6.31759H5.17474H4.79968C4.58023 9.35246 4.40232 9.09663 4.40232 8.78103C4.40232 8.46543 4.58023 8.2096 4.79968 8.2096H5.17474V2.49533H4.95146ZM4.60331 3.06675H3.46045C3.14486 3.06675 2.88902 3.32259 2.88902 3.63818V7.06674C2.88902 7.38234 3.14486 7.63817 3.46045 7.63817H4.60331V6.49533H4.03188V4.20961H4.60331V3.06675ZM6.88902 6.49533H9.74616V4.20961H6.88902V3.06675H10.3176C10.6332 3.06675 10.889 3.32259 10.889 3.63818V7.06674C10.889 7.38234 10.6332 7.63817 10.3176 7.63817H6.88902V6.49533Z" fill="#2FC6F6"/>
</svg>
