<?xml version="1.0" encoding="UTF-8"?>
<svg width="26px" height="23px" viewBox="0 0 26 23" version="1.1" xmlns="http://www.w3.org/2000/svg" xmlns:xlink="http://www.w3.org/1999/xlink">
    <g stroke="none" stroke-width="1" fill="none" fill-rule="evenodd">
        <path d="M23.0194053,0 C24.432266,0 25.5776158,1.14534985 25.5776158,2.55821049 L25.5776158,20.2490691 C25.5776158,21.6619297 24.432266,22.8072795 23.0194053,22.8072795 L2.55821049,22.8072795 C1.14534985,22.8072795 0,21.6619297 0,20.2490691 L0,2.55821049 C0,1.14534985 1.14534985,0 2.55821049,0 L23.0194053,0 Z M22.634433,6.27875818 L2.97414048,6.27875818 L2.97414048,19.8140248 L22.634433,19.8140248 L22.634433,6.27875818 Z M12.8068623,8.72870807 L14.4779908,9.11360932 L12.594745,16.5661038 L10.9329602,16.2036706 L12.8068623,8.72870807 Z M16.7634304,8.8715797 L20.6016497,12.709799 L16.7634304,16.5480183 L15.5136497,15.2985797 L18.1022445,12.709799 L15.5146497,10.1205797 L16.7634304,8.8715797 Z M8.68454915,8.8715797 L9.93332986,10.1205797 L7.34573504,12.709799 L9.93432986,15.2985797 L8.68454915,16.5480183 L4.84632986,12.709799 L8.68454915,8.8715797 Z M4.47563434,1.63960974 C3.64638218,1.63960974 2.97414048,2.31185144 2.97414048,3.1411036 C2.97414048,3.97035576 3.64638218,4.64259746 4.47563434,4.64259746 C5.3048865,4.64259746 5.9771282,3.97035576 5.9771282,3.1411036 C5.9771282,2.31185144 5.3048865,1.63960974 4.47563434,1.63960974 Z M8.98011593,1.63960974 C8.15086376,1.63960974 7.47862206,2.31185144 7.47862206,3.1411036 C7.47862206,3.97035576 8.15086376,4.64259746 8.98011593,4.64259746 C9.80936809,4.64259746 10.4816098,3.97035576 10.4816098,3.1411036 C10.4816098,2.31185144 9.80936809,1.63960974 8.98011593,1.63960974 Z" id="Combined-Shape" fill="#2FC6F6"></path>
    </g>
</svg>