<svg width="22" height="22" viewBox="0 0 22 22" fill="none" xmlns="http://www.w3.org/2000/svg">
<path fill-rule="evenodd" clip-rule="evenodd" d="M7.81514 0.439697C7.26286 0.439697 6.81514 0.887412 6.81514 1.4397V2.11419H10.7423C11.5937 2.11419 12.4049 2.47591 12.9739 3.10919L14.8606 5.20909H17.3049C17.7411 5.20909 18.0947 5.56268 18.0947 5.99885V6.31092C18.0947 6.74709 17.7411 7.10068 17.3049 7.10068H16.5291C16.8749 7.59784 17.0639 8.19073 17.0663 8.80196H17.3054C17.7416 8.80196 18.0952 9.15554 18.0952 9.59171V9.90378C18.0952 10.34 17.7416 10.6935 17.3054 10.6935H17.0663V18.4033H20.2132C20.7655 18.4033 21.2132 17.9556 21.2132 17.4033V6.27359C21.2132 5.7714 21.0243 5.28759 20.684 4.91829L17.1511 1.08439C16.7724 0.673468 16.2391 0.439697 15.6803 0.439697H7.81514ZM0.787109 4.59653C0.787109 4.04424 1.23482 3.59653 1.78711 3.59653H9.65226C10.2111 3.59653 10.7444 3.8303 11.123 4.24122L14.656 8.07512C14.9963 8.44442 15.1852 8.92823 15.1852 9.43042V20.5601C15.1852 21.1124 14.7375 21.5601 14.1852 21.5601H1.78711C1.23482 21.5601 0.787109 21.1124 0.787109 20.5601V4.59653ZM3.20704 9.15577C3.20704 8.7196 3.56063 8.36601 3.9968 8.36601H11.276C11.7122 8.36601 12.0658 8.7196 12.0658 9.15577V9.46784C12.0658 9.90401 11.7122 10.2576 11.276 10.2576H3.9968C3.56063 10.2576 3.20704 9.90401 3.20704 9.46784V9.15577ZM3.20705 12.7485C3.20705 12.3123 3.56064 11.9587 3.99681 11.9587H11.276C11.7122 11.9587 12.0658 12.3123 12.0658 12.7485V13.0605C12.0658 13.4967 11.7122 13.8503 11.276 13.8503H3.99681C3.56064 13.8503 3.20705 13.4967 3.20705 13.0605V12.7485ZM3.99681 15.503C3.56064 15.503 3.20705 15.8566 3.20705 16.2927V16.6048C3.20705 17.041 3.56064 17.3946 3.99681 17.3946H9.23524C9.67141 17.3946 10.025 17.041 10.025 16.6048V16.2927C10.025 15.8566 9.67141 15.503 9.23524 15.503H3.99681Z" fill="#2FC6F6"/>
</svg>
