<svg width="13" height="10" viewBox="0 0 13 10" fill="none" xmlns="http://www.w3.org/2000/svg">
<path fill-rule="evenodd" clip-rule="evenodd" d="M0.724609 1.56888C0.724609 0.937698 1.23628 0.426025 1.86747 0.426025H11.0262C11.6574 0.426025 12.1691 0.937698 12.1691 1.56888V7.86512C12.1691 8.49632 11.6574 9.00798 11.0262 9.00798H1.86747C1.23629 9.00798 0.724609 8.49632 0.724609 7.86512V1.56888ZM2.15523 2.14687C2.15523 1.83128 2.41107 1.57544 2.72666 1.57544H4.44095C4.75654 1.57544 5.01238 1.83128 5.01238 2.14687C5.01238 2.46246 4.75654 2.7183 4.44095 2.7183H2.72666C2.41107 2.7183 2.15523 2.46246 2.15523 2.14687ZM2.72663 6.12809C2.41104 6.12809 2.1552 6.38398 2.1552 6.69952C2.1552 7.01512 2.41104 7.27095 2.72663 7.27095H4.44092C4.75651 7.27095 5.01235 7.01512 5.01235 6.69952C5.01235 6.38398 4.75651 6.12809 4.44092 6.12809H2.72663ZM2.1552 4.40023C2.1552 4.08463 2.41104 3.8288 2.72663 3.8288H4.44092C4.75651 3.8288 5.01235 4.08463 5.01235 4.40023C5.01235 4.71582 4.75651 4.97166 4.44092 4.97166H2.72663C2.41104 4.97166 2.1552 4.71582 2.1552 4.40023ZM8.41393 1.36157C9.67684 1.36157 10.6917 2.37602 10.6917 3.63934C10.6917 4.64986 10.0724 5.92998 8.83382 7.47963C8.80959 7.50998 8.7821 7.53763 8.75199 7.56215C8.53736 7.73632 8.22993 7.71946 8.03547 7.53301L7.9893 7.48283L7.84953 7.30826C6.7073 5.86255 6.13616 4.63958 6.13616 3.63934C6.13616 2.37602 7.15102 1.36157 8.41393 1.36157ZM8.41387 2.60353C7.83387 2.60353 7.37845 3.05932 7.37845 3.63895C7.37845 4.21898 7.83427 4.67438 8.41387 4.67438C8.99353 4.67438 9.4493 4.21897 9.4493 3.63895C9.4493 3.05893 8.99353 2.60353 8.41387 2.60353Z" fill="#2FC6F6"/>
</svg>
