<svg width="13" height="12" viewBox="0 0 13 12" fill="none" xmlns="http://www.w3.org/2000/svg">
<path fill-rule="evenodd" clip-rule="evenodd" d="M3.84961 1.86114C3.84961 1.26015 4.33681 0.772949 4.9378 0.772949H7.95587C8.5569 0.772949 9.0441 1.26015 9.0441 1.86114C9.0441 2.46213 8.5569 2.94933 7.95587 2.94933H4.9378C4.3368 2.94933 3.84961 2.46213 3.84961 1.86114ZM2.85514 2.61521C2.85514 2.59971 2.85536 2.58426 2.8558 2.56886H1.86747C1.23628 2.56886 0.724609 3.08054 0.724609 3.71172V10.0079C0.724609 10.6391 1.23629 11.1508 1.86747 11.1508H11.0262C11.6574 11.1508 12.1691 10.6391 12.1691 10.0079V3.71171C12.1691 3.08053 11.6574 2.56886 11.0262 2.56886H10.0851C10.0855 2.58426 10.0858 2.59971 10.0858 2.61521C10.0858 3.50116 9.36759 4.21937 8.48159 4.21937H4.4593C3.57335 4.21937 2.85514 3.50116 2.85514 2.61521ZM6.86319 4.78459C6.54765 4.78459 6.29178 5.04043 6.29178 5.35602C6.29178 5.67162 6.54765 5.92745 6.86319 5.92745H9.8673C10.1829 5.92745 10.4387 5.67162 10.4387 5.35602C10.4387 5.04043 10.1829 4.78459 9.8673 4.78459H6.86319ZM6.86319 7.03794C6.54765 7.03794 6.29178 7.29377 6.29178 7.60937C6.29178 7.92497 6.54765 8.1808 6.86319 8.1808H9.04547C9.36107 8.1808 9.6169 7.92497 9.6169 7.60937C9.6169 7.29377 9.36107 7.03794 9.04547 7.03794H6.86319ZM4.68606 7.73617C5.13683 7.85783 5.36574 8.06669 5.36574 8.24949L5.4899 9.08251H1.70731C1.70731 9.08251 1.73253 8.67223 1.80111 8.38783C1.8697 8.10343 2.2555 7.89223 2.61048 7.72983C2.70343 7.68726 2.75954 7.65331 2.81623 7.61903C2.87161 7.58554 2.92754 7.55171 3.0189 7.5092C3.02928 7.45686 3.03344 7.40331 3.03132 7.34989L3.18856 7.33006C3.18856 7.33006 3.20925 7.37006 3.17606 7.13509C3.17606 7.13509 2.99936 7.0864 2.99117 6.71229C2.99117 6.71229 2.85831 6.75926 2.8503 6.53257C2.84864 6.48743 2.83767 6.444 2.82716 6.4024C2.80195 6.30257 2.77937 6.21326 2.89432 6.13537L2.81139 5.90018C2.81139 5.90018 2.72414 4.99185 3.1065 5.06538C2.95138 4.80397 4.25967 4.58668 4.34657 5.3871C4.38076 5.62838 4.38076 5.87361 4.34657 6.11491C4.34657 6.11491 4.54202 6.09103 4.41154 6.48623C4.41154 6.48623 4.3397 6.77074 4.22939 6.70686C4.22939 6.70686 4.24726 7.06634 4.07355 7.12726C4.07355 7.12726 4.08596 7.31874 4.08596 7.33171L4.23115 7.3548C4.23115 7.3548 4.22674 7.51446 4.25571 7.53171C4.38816 7.62269 4.53334 7.69166 4.68606 7.73617Z" fill="#2FC6F6"/>
</svg>
