<svg xmlns="http://www.w3.org/2000/svg" width="36" height="36" viewBox="0 0 36 36">
  <path fill="#2FC6F6" fill-rule="evenodd" d="M13.7537703,27.3762584 C15.5100659,27.3762584 16.9331038,28.7992544 16.9331038,30.5555919 C16.9331038,32.3102564 15.5101078,33.7332942 13.7537703,33.7332942 C11.9991057,33.7332942 10.5760679,32.3102982 10.5760679,30.5555919 C10.5760679,28.7992962 11.9990639,27.3762584 13.7537703,27.3762584 Z M25.4830763,27.3762584 C27.239372,27.3762584 28.6624098,28.7992544 28.6624098,30.5555919 C28.6624098,32.3102564 27.2394139,33.7332942 25.4830763,33.7332942 C23.7284118,33.7332942 22.305374,32.3102982 22.305374,30.5555919 C22.305374,28.7992962 23.72837,27.3762584 25.4830763,27.3762584 Z M5.85543425,5.54418814 C6.38929542,5.54719951 6.85632922,5.88570201 7.03167745,6.37981964 L7.06930759,6.50648694 L7.98911267,10.4798173 L8.027,10.4791881 L8.503,12.6391881 L8.4717538,12.6396394 L10.8962723,23.6704687 L29.634448,23.6704687 L31.4244852,12.6396394 L30.534,12.6391881 L30.564,10.4391881 L32.519801,10.4371563 C32.9037502,10.4387875 33.2648214,10.6168554 33.5000844,10.9174692 C33.7073679,11.1819519 33.7983234,11.5152111 33.7587199,11.8439377 L33.733712,11.9843293 L31.3908691,24.9925948 C31.2672101,25.5113875 30.8303333,25.8895719 30.3102485,25.9472542 L30.178627,25.9548936 L10.121369,25.9548936 C9.58901356,25.9518822 9.12070216,25.6133797 8.94643471,25.1192621 L8.90912686,24.9925948 L4.85248201,8.05365996 L1,8.05365996 C0.487164161,8.05365996 0.0644928393,7.66761977 0.00672773133,7.17028109 L1.74793513e-12,7.05365996 L1.74793513e-12,6.54418814 C1.74787233e-12,6.0313523 0.38604019,5.60868098 0.883378875,5.55091587 L1,5.54418814 L5.85543425,5.54418814 Z M25.5166161,5 C27.1734704,5 28.5166161,6.34314575 28.5166161,8 L28.5166161,18.3262726 C28.5166161,19.9831269 27.1734704,21.3262726 25.5166161,21.3262726 L14.6591797,21.3262726 C13.0023254,21.3262726 11.6591797,19.9831269 11.6591797,18.3262726 L11.6591797,8 C11.6591797,6.34314575 13.0023254,5 14.6591797,5 L25.5166161,5 Z M15.2261181,7.79265123 L14.8869702,7.79215685 L14.8869702,10.2996764 L15.1411411,10.2991534 C15.4651307,10.2982382 15.4651307,10.2982382 16.144685,10.2957213 C17.2125561,10.2917662 17.2125561,10.2917662 18.573103,10.2917662 C18.5869458,11.3576598 18.5869458,11.3576598 18.5886761,12.0510962 L18.5889233,13.9620787 C18.5889233,15.4729186 18.5889233,15.4729186 18.5770581,16.6673522 C18.5665112,17.7290709 18.5665112,17.7290709 18.5590893,18.2532897 L18.5572827,18.3759459 L21.610603,18.3759459 C21.6026928,17.822235 21.6026928,17.822235 21.5947827,16.55661 C21.5868725,15.290985 21.5868725,15.290985 21.5868725,13.9383483 C21.5868725,12.8467467 21.5868725,12.8467467 21.5947827,12.1427428 C21.6004328,11.6398829 21.6004328,11.6398829 21.6020471,10.9110185 L21.6026928,10.2917662 C22.9315991,10.2917662 22.9315991,10.2917662 23.9282788,10.2957213 C24.5927319,10.298358 24.5927319,10.298358 24.9794506,10.2992369 L25.2967358,10.2996764 L25.2967358,7.79215685 L24.9829125,7.79280258 C24.4526091,7.79441689 24.4526091,7.79441689 23.232185,7.80006701 C21.5235913,7.80797716 21.5235913,7.80797716 20.0760327,7.80797716 C18.5414624,7.80797716 18.5414624,7.80797716 16.9910717,7.80006701 C15.8282788,7.79413439 15.8282788,7.79413439 15.2261181,7.79265123 Z"/>
</svg>
