<?xml version="1.0" encoding="UTF-8"?>
<svg width="26px" height="26px" viewBox="0 0 26 26" version="1.1" xmlns="http://www.w3.org/2000/svg" xmlns:xlink="http://www.w3.org/1999/xlink">
    <g stroke="none" stroke-width="1" fill-rule="evenodd" transform="translate(-7, -7)" fill="#2FC6F6">
            <path d="M18.5325274,20.4472285 C20.450088,18.5296763 23.5598952,18.5296763 25.4765248,20.4472285 C25.7786243,20.748679 26.0160778,21.0867634 26.2222001,21.4380441 L26.2222001,21.4380441 L24.6086415,23.050948 C24.5319731,23.1277375 24.4384247,23.1707267 24.347386,23.2236333 C24.2347717,22.8429645 24.0398218,22.4822116 23.7407582,22.1830685 C22.7835769,21.2252436 21.2268922,21.2252436 20.2689417,22.1830685 L20.2689417,22.1830685 L16.7966798,25.6548698 C15.8394175,26.6124923 15.8394175,28.1697774 16.7966798,29.1278046 C17.7540231,30.084496 19.3117603,30.084496 20.2689417,29.1278046 L20.2689417,29.1278046 L21.5044205,27.8918859 C22.5054413,28.2812578 23.5851141,28.3870306 24.636451,28.2321562 L24.636451,28.2321562 L22.0049512,30.8634422 C20.087431,32.7803872 16.9783524,32.7803872 15.0607918,30.8634422 C13.1434336,28.9454852 13.1434336,25.8371893 15.0607918,23.9190703 L15.0607918,23.9190703 Z M30.6853629,15.23898 C32.6023568,17.1564512 32.6023568,20.2656377 30.6853629,22.1830685 L27.2124129,25.6548698 C25.2956214,27.5727864 22.1860975,27.5727864 20.2689821,25.6548698 C19.9670041,25.3537432 19.730765,25.0144444 19.5233069,24.66454 L21.1369869,23.0509884 C21.2136958,22.9736322 21.3084181,22.9293072 21.3989306,22.8770887 C21.5104925,23.2582432 21.70524,23.6190771 22.0049916,23.9188679 C22.962254,24.8768952 24.5199102,24.8755594 25.4766058,23.9188679 L28.9484628,20.4471475 C29.9064538,19.4892417 29.9064538,17.9319566 28.9484628,16.9747794 C27.9917267,16.0176023 26.4344753,16.0176023 25.4766058,16.9747794 L24.2420175,18.2106981 C23.2401466,17.8205976 22.1607573,17.7157154 21.109987,17.8696992 L23.7407987,15.23898 C25.6587237,13.3214277 28.7674379,13.3214277 30.6853629,15.23898 Z M22.9101901,7 C23.4490176,7 23.8961856,7.39779665 23.9534132,7.90486423 L23.959599,8.01508893 L23.9597152,11.25661 C23.8480987,11.3378283 23.7397349,11.4255368 23.6351436,11.5197355 L23.4811511,11.665901 L16.9193523,18.2270173 C16.8392447,18.1918833 16.7533478,18.1671174 16.6635169,18.1545107 L16.5260518,18.1449437 L10.4926518,18.1449437 C10.0028208,18.1449437 9.59464373,18.5047578 9.53883186,18.9652447 L9.53233042,19.0731801 L9.53233042,19.1206775 C9.53233042,19.5951192 9.90551953,19.988822 10.3811866,20.0426447 L10.4926518,20.0489139 L15.098,20.048 L10.99019,24.1568621 C10.7609098,24.3861423 10.5652827,24.6363318 10.4033087,24.9012927 L8.04940895,24.901799 C7.51058141,24.901799 7.06341348,24.5040024 7.00618588,23.9969348 L7,23.8867101 L7,8.01508893 C7,7.49388329 7.4112461,7.0613396 7.93545756,7.00598358 L8.04940895,7 L22.9101901,7 Z M16.5260518,14.0058778 L10.4926518,14.0058778 C10.0028208,14.0058778 9.59464373,14.365692 9.53883186,14.8261789 L9.53233042,14.9341142 L9.53233042,14.9822902 C9.53233042,15.4567319 9.90551953,15.8504347 10.3811866,15.9042574 L10.4926518,15.9105266 L16.5260518,15.9105266 C17.0158829,15.9105266 17.4228503,15.5507125 17.4784893,15.0902256 L17.4849703,14.9822902 L17.4849703,14.9341142 C17.4849703,14.4231771 17.0535622,14.0058778 16.5260518,14.0058778 Z M18.2004764,9.86749053 L10.4926518,9.86749053 C10.0028208,9.86749053 9.59524857,10.2273047 9.53952311,10.6877916 L9.5330319,10.7957269 L9.5330319,10.8432244 C9.5330319,11.317666 9.90561617,11.7113689 10.3811968,11.7651915 L10.4926518,11.7714608 L18.2004764,11.7714608 C18.6909588,11.7714608 19.0979727,11.4116467 19.1536151,10.9511598 L19.1600964,10.8432244 L19.1600964,10.7957269 C19.1600964,10.2847898 18.7286883,9.86749053 18.2004764,9.86749053 Z" id="Combined-Shape"></path>
    </g>
</svg>