<?xml version="1.0" encoding="UTF-8"?>
<svg width="25px" height="26px" viewBox="0 0 25 26" version="1.1" xmlns="http://www.w3.org/2000/svg" xmlns:xlink="http://www.w3.org/1999/xlink">
    <g stroke="none" stroke-width="1" fill="none" fill-rule="evenodd">
        <path d="M2.8139115,2.37921131 C3.62309906,1.51897412 4.63977062,1.51897412 5.45414532,2.37362431 C5.95729389,2.90429036 6.26577085,3.58119719 6.65895297,4.15079648 C7.05218692,4.72039732 7.51861096,5.44590069 8.00101128,5.97098128 C8.85169564,6.89266311 8.85169564,7.96516766 8.00619842,8.88126403 C7.3993077,9.54040634 7.19182371,9.77501705 6.57455888,10.4174014 C6.41375867,10.590566 6.39819741,10.7302147 6.48119101,10.942482 C6.89097185,11.9926417 7.47711416,12.925496 8.1358758,13.7969056 C9.46377334,15.5508958 10.9628452,17.1093766 12.7523947,18.3215299 C13.13624,18.5784839 13.5615822,18.7684064 13.960989,19.0030155 C14.1632858,19.1259079 14.3033375,19.0868051 14.4693247,18.9024696 C15.0762154,18.2321549 15.5378673,18.0198875 16.1551321,17.3607452 C16.9643197,16.4949226 17.9809913,16.4949226 18.7953658,17.3607452 C19.786102,18.4220773 20.9324509,19.0365313 21.918,20.1034489 C22.7427488,20.9972019 22.7375616,22.0920498 21.9076257,22.9969753 C21.3474189,23.6058439 20.7509025,24.1867836 20.2218184,24.8235826 C19.4489405,25.7564369 18.4841398,26.0580792 17.3741005,25.9910476 C15.7609126,25.8960856 14.2774019,25.3207328 12.8457624,24.572214 C9.66607035,22.9076003 6.94803006,20.6005991 4.67089314,17.6847309 C2.98508578,15.5285509 1.59494306,13.1768646 0.682013496,10.5291213 C0.235922915,9.24993645 -0.0804901797,7.93723729 0.0180647237,6.54633405 C0.0803099211,5.6916823 0.375974601,4.95992291 0.962116884,4.36222523 C1.59494306,3.71425383 2.19145952,3.03835362 2.8139115,2.37921131 Z M12.1724248,5.91996117 C12.2400342,5.42707792 12.7115148,5.10360666 13.1834416,5.22594142 C14.6053684,5.59446302 15.8943567,6.3436704 16.9513222,7.42430416 C17.9410748,8.4403244 18.6530046,9.67197427 19.034918,11.0319902 C19.1689469,11.5092652 18.8646059,11.9994116 18.3858389,12.0829771 L18.3858389,12.0829771 L18.1664557,12.121289 C17.7592632,12.1923883 17.3611415,11.9424512 17.2461462,11.5367821 C16.9499839,10.4924334 16.4038058,9.54533308 15.642755,8.76724109 C14.8318398,7.93811689 13.8433263,7.36247832 12.7543903,7.0741262 C12.3490318,6.96679271 12.0831548,6.5711579 12.1412967,6.14719602 L12.1412967,6.14719602 Z M12.1744324,0.760960277 C12.2429601,0.259403919 12.7086767,-0.0833336858 13.1922813,0.0176956683 C15.9405305,0.591866595 18.4270813,1.96522106 20.4331566,4.02356634 C22.3217337,5.96611523 23.6278784,8.36013355 24.242645,11.0013195 C24.3584744,11.4990768 24.0436334,11.9944256 23.5519973,12.0805776 L23.5519973,12.0805776 L23.3231027,12.1206579 C22.874857,12.1991581 22.447107,11.9053836 22.3414472,11.4515594 C21.8119488,9.17686823 20.6845811,7.1122617 19.0563462,5.44160199 C17.32871,3.67376566 15.1868832,2.48700385 12.8211684,1.98662492 C12.376469,1.89260649 12.0787337,1.46173759 12.1417333,1.00036733 L12.1417333,1.00036733 Z" id="Icon" fill="#2FC6F6"></path>
    </g>
</svg>