<?xml version="1.0" encoding="UTF-8"?>
<svg width="28px" height="26px" viewBox="0 0 28 26" version="1.1" xmlns="http://www.w3.org/2000/svg" xmlns:xlink="http://www.w3.org/1999/xlink">
    <g stroke="none" stroke-width="1" fill-rule="evenodd" transform="translate(-5, -6)" fill="#2FC6F6">
            <path d="M7.88830702,7.23851728 C8.71888826,6.35553672 9.76243906,6.35553672 10.5983446,7.23278256 C11.1147956,7.77747861 11.4314283,8.47228183 11.8350055,9.05694044 C12.238636,9.64160066 12.7173915,10.3862852 13.2125458,10.9252482 C14.0857209,11.8712978 14.0857209,12.9721578 13.2178701,13.9124743 C12.5949341,14.5890433 12.3819645,14.8298568 11.7483802,15.4892249 C11.5833286,15.6669676 11.567356,15.8103084 11.6525438,16.0281878 C12.0731586,17.106112 12.6747976,18.0636296 13.3509759,18.958078 C14.713981,20.758441 16.2526861,22.3581256 18.0895485,23.6023264 C18.4835421,23.8660739 18.9201297,24.0610176 19.3300962,24.3018295 C19.5377414,24.4279709 19.6814959,24.3878343 19.8518715,24.1986253 C20.4748075,23.5105884 20.9486648,23.2927091 21.5822491,22.61614 C22.4128304,21.7274264 23.4563812,21.7274264 24.2922866,22.61614 L24.6804881,23.0049638 C25.6008015,23.8704636 26.6123236,24.473122 27.4974784,25.4313566 C28.3440323,26.3487391 28.338708,27.4725331 27.4868298,28.4013834 C26.911812,29.0263495 26.2995246,29.6226485 25.7564523,30.2762834 C24.9631407,31.2338009 23.9728322,31.5434182 22.8334452,31.4746144 C21.177607,31.3771417 19.6548746,30.7865775 18.1853847,30.018269 C14.9216265,28.3096455 12.1317254,25.9416507 9.79438442,22.9486914 C8.06400689,20.7355053 6.63711091,18.321644 5.70004489,15.6038985 C5.24216036,14.2908939 4.91738178,12.943489 5.01854233,11.5158124 C5.08243319,10.6385649 5.38591479,9.88745895 5.98755378,9.27395905 C6.63711091,8.60885628 7.24939836,7.9150863 7.88830702,7.23851728 Z M31.6680599,16.9140854 C32.2203447,16.9140854 32.6680599,17.3618007 32.6680599,17.9140854 L32.6680599,18.6101824 C32.6680599,19.1624672 32.2203447,19.6101824 31.6680599,19.6101824 L25.9239193,19.6101824 C25.3716345,19.6101824 24.9239193,19.1624672 24.9239193,18.6101824 L24.9239193,17.9140854 C24.9239193,17.3618007 25.3716345,16.9140854 25.9239193,16.9140854 L31.6680599,16.9140854 Z M31.6680599,11.4570427 C32.2203447,11.4570427 32.6680599,11.904758 32.6680599,12.4570427 L32.6680599,13.1531397 C32.6680599,13.7054245 32.2203447,14.1531397 31.6680599,14.1531397 L18.5726562,14.1531397 C18.0203715,14.1531397 17.5726562,13.7054245 17.5726562,13.1531397 L17.5726562,12.4570427 C17.5726562,11.904758 18.0203715,11.4570427 18.5726562,11.4570427 L31.6680599,11.4570427 Z M31.6680599,6 C32.2203447,6 32.6680599,6.44771525 32.6680599,7 L32.6680599,7.69609699 C32.6680599,8.24838174 32.2203447,8.69609699 31.6680599,8.69609699 L18.5726562,8.69609699 C18.0203715,8.69609699 17.5726562,8.24838174 17.5726562,7.69609699 L17.5726562,7 C17.5726562,6.44771525 18.0203715,6 18.5726562,6 L31.6680599,6 Z" id="Combined-Shape"></path>
    </g>
</svg>