<svg width="13" height="10" viewBox="0 0 13 10" fill="none" xmlns="http://www.w3.org/2000/svg">
<path fill-rule="evenodd" clip-rule="evenodd" d="M0.724609 1.56888C0.724609 0.937698 1.23628 0.426025 1.86747 0.426025H11.0262C11.6574 0.426025 12.1691 0.937698 12.1691 1.56888V7.86512C12.1691 8.49632 11.6574 9.00798 11.0262 9.00798H1.86747C1.23629 9.00798 0.724609 8.49632 0.724609 7.86512V1.56888ZM2.15523 2.14687C2.15523 1.83128 2.41107 1.57544 2.72666 1.57544H4.44095C4.75654 1.57544 5.01238 1.83128 5.01238 2.14687C5.01238 2.46246 4.75654 2.7183 4.44095 2.7183H2.72666C2.41107 2.7183 2.15523 2.46246 2.15523 2.14687ZM2.72663 6.12809C2.41104 6.12809 2.1552 6.38398 2.1552 6.69952C2.1552 7.01512 2.41104 7.27095 2.72663 7.27095H4.44092C4.75651 7.27095 5.01235 7.01512 5.01235 6.69952C5.01235 6.38398 4.75651 6.12809 4.44092 6.12809H2.72663ZM2.1552 4.40023C2.1552 4.08463 2.41104 3.8288 2.72663 3.8288H4.44092C4.75651 3.8288 5.01235 4.08463 5.01235 4.40023C5.01235 4.71582 4.75651 4.97166 4.44092 4.97166H2.72663C2.41104 4.97166 2.1552 4.71582 2.1552 4.40023ZM7.49964 4.06257C7.1169 4.73341 7.54267 5.55842 8.31136 5.63501C8.71456 5.67518 9.10622 5.47299 9.30696 5.12105C9.68982 4.45003 9.26376 3.62507 8.49519 3.54863C8.13176 3.51248 7.68067 3.74537 7.49964 4.06257ZM10.3696 4.26367C10.395 4.41525 10.4021 4.57101 10.3912 4.72797L10.8658 4.97152C10.9671 5.02322 11.0157 5.1405 10.9813 5.24894L10.8855 5.54914C10.851 5.65752 10.7434 5.72495 10.6308 5.70849L10.1135 5.63375C10.1071 5.63283 10.1007 5.63581 10.0973 5.64135C9.99342 5.80935 9.8665 5.95786 9.72216 6.08489C9.7173 6.08918 9.71542 6.09598 9.71742 6.10215L9.88124 6.61232C9.91662 6.72061 9.86776 6.83792 9.76696 6.88998L9.4869 7.03455C9.38582 7.08689 9.26187 7.05821 9.19427 6.96723L8.87279 6.53701C8.8689 6.53181 8.86233 6.52941 8.85599 6.53089C8.66999 6.57421 8.47724 6.59118 8.28176 6.57878C8.27525 6.57838 8.26913 6.58181 8.26616 6.58758L8.02622 7.05529C7.97456 7.15643 7.85724 7.20523 7.74885 7.17066L7.44844 7.07478C7.34027 7.04026 7.27262 6.93243 7.28942 6.82021L7.36593 6.28929C7.16319 6.16512 6.98684 6.00912 6.84416 5.82809C6.8401 5.82301 6.83353 5.82078 6.82724 5.82238L6.31555 5.95415C6.20576 5.98261 6.09123 5.92752 6.04487 5.82323L5.91726 5.53528C5.87118 5.43124 5.90695 5.30926 6.00176 5.24695L6.43844 4.95917C6.44387 4.95557 6.44662 4.94907 6.44547 4.94264C6.4177 4.78821 6.40978 4.62933 6.41976 4.46905C6.42017 4.46256 6.41672 4.45645 6.41094 4.45348L5.94064 4.21203C5.83972 4.16045 5.79074 4.04306 5.82532 3.93466L5.9211 3.63446C5.95568 3.52606 6.0636 3.45874 6.17576 3.47514L6.69902 3.55068C6.70542 3.55161 6.71176 3.54863 6.71519 3.54311C6.81907 3.37605 6.94547 3.22772 7.08936 3.10111C7.09427 3.09682 7.09616 3.09006 7.09416 3.08386L6.93616 2.59255C6.90124 2.48461 6.94953 2.36706 7.0505 2.3148L7.33056 2.17011C7.43164 2.11806 7.55542 2.14675 7.62325 2.23756L7.9317 2.64999C7.93559 2.65521 7.94222 2.65758 7.94856 2.65608C8.13656 2.61158 8.33199 2.594 8.53005 2.60655C8.5365 2.60697 8.54262 2.60353 8.54559 2.59775L8.78587 2.13005C8.83713 2.02883 8.95473 1.9801 9.0629 2.01461L9.36336 2.11046C9.47176 2.14505 9.53913 2.2528 9.52267 2.36513L9.44724 2.88524C9.44633 2.89168 9.44936 2.89804 9.45484 2.90147C9.66336 3.03055 9.84273 3.19398 9.98719 3.38311L10.5018 3.2504C10.6116 3.22181 10.726 3.27719 10.7724 3.38132L10.9002 3.6693C10.9462 3.77341 10.9107 3.89538 10.8156 3.9577L10.3767 4.24735C10.3713 4.25091 10.3686 4.25729 10.3696 4.26367Z" fill="#2FC6F6"/>
</svg>
