<?xml version="1.0" encoding="UTF-8"?>
<svg width="32px" height="30px" viewBox="0 0 32 30" version="1.1" xmlns="http://www.w3.org/2000/svg" xmlns:xlink="http://www.w3.org/1999/xlink">
    <g stroke="none" stroke-width="1" fill-rule="evenodd"  transform="translate(-2, -3)" fill="#2FC6F6">
            <path d="M29.4297372,21.156394 C31.5145447,19.4845268 32.4786309,20.1053175 32.8758565,20.2989195 C33.2730822,20.4925216 33.2178362,21.1728233 32.8047148,22.0969744 C32.5293005,22.7130752 30.3390336,25.1220921 26.233914,29.3240252 C24.6800483,31.0818587 21.9885363,31.1762383 21.9885363,31.1762383 L21.9885363,31.1762383 L11.3799535,31.1762383 C10.8086365,31.1762383 9.83367384,31.4700163 9.83367384,31.4700163 L9.83367384,31.4700163 L9.10089016,31.9930746 C8.3335003,32.5408346 7.28777787,32.4782666 6.59117928,31.8429095 C4.9763869,30.3700946 3.53378241,28.8820003 2.26336581,27.3786266 C1.82821731,26.8636847 2.02630053,26.4453774 2.19255551,26.2777991 C3.74261181,24.7154049 4.97678353,23.6664174 5.89507069,23.1308365 C8.75438697,21.4631717 11.1103178,21.0557388 12.3591582,21.0557388 C13.5514947,21.0557388 19.6783495,21.1094594 20.7821511,21.1094594 C21.8859526,21.1094594 22.7116972,21.3361966 22.7116972,22.6794329 C22.7116972,24.0226693 21.4079532,24.3695585 20.8630479,24.3695585 L20.8630479,24.3695585 L16.2091892,24.3695585 C15.3682076,24.3695585 15.3682076,25.1886224 15.3682076,25.1886224 C15.3682076,25.8745453 16.1535753,26.0060036 16.1535753,26.0060036 L16.1535753,26.0060036 L22.4281468,26.0060036 C23.0888169,26.0060036 23.3921778,25.7228648 23.3921778,25.7228648 L23.3921778,25.7228648 Z M25.8957718,3 C26.451904,3 26.9139156,3.33608346 26.9770799,3.76572954 L26.9844374,3.86642912 L26.9844374,17.4136508 C26.9844374,17.8562561 26.5621495,18.2239542 26.0223005,18.2742243 L25.8957718,18.2800799 L10.4790737,18.2800799 C9.92294152,18.2800799 9.46092993,17.9439965 9.39776569,17.5143504 L9.39040815,17.4136508 L9.39040815,3.86642912 C9.39040815,3.42382383 9.81269601,3.05612571 10.352545,3.00585559 L10.4790737,3 L25.8957718,3 Z M13.342025,10.3305693 C12.6116551,10.3305693 12.0195733,10.9226511 12.0195733,11.653021 C12.0195733,12.383391 12.6116551,12.9754728 13.342025,12.9754728 C14.072395,12.9754728 14.6644768,12.383391 14.6644768,11.653021 C14.6644768,10.9226511 14.072395,10.3305693 13.342025,10.3305693 Z M22.7564948,10.7144236 L16.7787883,10.7144236 C16.4011538,10.7144236 16.0865614,11.058945 16.0403971,11.5013286 L16.0345671,11.6138205 L16.0345671,11.6598423 C16.0345671,12.1168234 16.3201107,12.4964972 16.6858119,12.5522045 L16.7787883,12.5592393 L22.7564948,12.5592393 C23.1346314,12.5592393 23.4487989,12.2147179 23.4948949,11.7723343 L23.5007159,11.6598423 L23.5007159,11.6138205 C23.5007159,11.1187577 23.1661428,10.7144236 22.7564948,10.7144236 Z M13.342025,5.90919443 C12.6116551,5.90919443 12.0195733,6.50127625 12.0195733,7.23164618 C12.0195733,7.96201611 12.6116551,8.55409793 13.342025,8.55409793 C14.072395,8.55409793 14.6644768,7.96201611 14.6644768,7.23164618 C14.6644768,6.50127625 14.072395,5.90919443 13.342025,5.90919443 Z M22.7564948,6.29304873 L16.7787883,6.29304873 C16.4011538,6.29304873 16.0865614,6.63757015 16.0403971,7.07995375 L16.0345671,7.1924457 L16.0345671,7.23846747 C16.0345671,7.69544852 16.3201107,8.07512233 16.6858119,8.13082966 L16.7787883,8.13786444 L22.7564948,8.13786444 C23.1346314,8.13786444 23.4487989,7.79334302 23.4948949,7.35095943 L23.5007159,7.23846747 L23.5007159,7.1924457 C23.5007159,6.69738289 23.1661428,6.29304873 22.7564948,6.29304873 Z" id="Combined-Shape"></path>
    </g>
</svg>