<svg xmlns="http://www.w3.org/2000/svg" viewBox="0 0 100 100"><path fill="#fff" d="M82.6426666,57.7726975 C82.7027309,51.9370762 78.8793265,46.7716509 73.2806666,45.1246209 C73.2806666,45.0116202 73.2886666,44.9006196 73.2886666,44.7866189 C73.4083913,37.3428638 67.4733102,31.2103417 60.0296666,31.086536 C58.5289387,31.086284 57.0397669,31.3489216 55.6296666,31.8625407 C53.6223894,26.6385971 48.6257282,23.1726381 43.0296666,23.1224878 C35.380953,23.2479365 29.2819343,29.5498017 29.4066666,37.198573 C29.4066666,37.2835735 29.4066666,37.366574 29.4126666,37.4515745 C22.7049407,40.017559 18.2975765,46.4811211 18.3586666,53.6626726 C18.3586666,63.1697301 25.8176666,70.8777768 35.0176666,70.8777768 C35.2036666,70.8777768 35.3876666,70.8697767 35.5716666,70.8627767 L35.5716666,70.8777768 L70.0356666,70.8777768 C77.125922,70.7176168 82.7571786,64.8638804 82.6426666,57.7726975 Z"/></svg>
