<svg xmlns="http://www.w3.org/2000/svg" viewBox="0 0 100 100"><path fill="#fff" d="M72.1686666,29.2384989 C74.1286666,31.1955107 74.4546666,37.1045465 73.4186666,37.1495467 C72.3826666,37.194547 60.8886666,42.474579 59.8526666,42.5205792 C58.8166666,42.5665795 55.2836666,39.0395582 54.2526666,38.0075519 C53.2216666,36.9755457 44.2596666,44.9075937 44.0906666,45.0565946 C43.9386666,45.2255956 36.0006666,54.1786498 37.0256666,55.1956559 C38.0506666,56.2126621 41.5916666,59.7536835 41.5466666,60.7876898 C41.5016666,61.821696 36.2116666,73.2957655 36.1666666,74.3337718 C36.1216666,75.3717781 30.2006666,75.0427761 28.2406666,73.0857642 C26.5656666,71.4137541 20.4846666,62.7527017 31.3406666,47.6936105 C32.2926666,46.0426006 34.4746666,43.4265847 38.4456666,39.4605607 L38.4526666,39.4535607 L38.4616666,39.4445606 L38.4706666,39.4355606 L38.4776666,39.4285605 C42.4506666,35.4645365 45.0716666,33.2865234 46.7256666,32.3365176 C61.8166666,21.495452 70.4936666,27.5664887 72.1686666,29.2384989 Z"/></svg>
