<svg viewBox="0 0 39 39" xmlns="http://www.w3.org/2000/svg"><g fill="none" fill-rule="evenodd"><path d="M14.366 16.619c.323 0 .596.248.57.57v2.33a.56.56 0 0 1-.57.57h-2.33a.561.561 0 0 1-.57-.57V17.19a.56.56 0 0 1 .57-.57h2.33v-.001zm5.083 0a.56.56 0 0 1 .57.57v2.33a.56.56 0 0 1-.57.57h-2.33a.561.561 0 0 1-.57-.57V17.19c0-.297.247-.57.57-.57h2.33v-.001zM6.977 25.173c-.322 0-.595-.248-.57-.57v-2.33a.56.56 0 0 1 .57-.571h2.33a.56.56 0 0 1 .57.57v2.33a.56.56 0 0 1-.57.571h-2.33zm7.39-3.497c.322 0 .595.273.57.57v2.331a.56.56 0 0 1-.57.57h-2.332a.561.561 0 0 1-.57-.57v-2.33a.56.56 0 0 1 .57-.57h2.33l.002-.001zm5.082 0c.323 0 .57.273.57.57v2.331a.56.56 0 0 1-.57.57h-2.33a.561.561 0 0 1-.57-.57v-2.33a.56.56 0 0 1 .57-.57h2.33v-.001zm-12.472 8.58c-.322 0-.595-.273-.57-.57v-2.33c0-.298.247-.571.57-.571h2.33a.56.56 0 0 1 .57.57v2.33a.576.576 0 0 1-.57.571h-2.33zm7.39-3.497c.322 0 .595.248.57.57v2.331c0 .298-.248.57-.57.57h-2.332a.561.561 0 0 1-.57-.57v-2.33c0-.297.247-.57.57-.57h2.33l.002-.001zm5.082 0a.56.56 0 0 1 .57.57v2.331c0 .298-.247.57-.57.57h-2.33a.561.561 0 0 1-.57-.57v-2.33c0-.297.247-.57.57-.57h2.33v-.001zM9.307 20.115h-2.33c-.322 0-.595-.273-.57-.595v-2.33c0-.298.248-.571.57-.571h2.331a.56.56 0 0 1 .57.57v2.356c0 .322-.248.57-.57.57h-.001z" fill="#FFF" fill-rule="nonzero"/><path fill="#55D0E0" fill-rule="nonzero" d="M16 12h10v14H16z"/><g fill="#fff" font-family="OpenSans-Bold, Open Sans" font-size="17" font-weight="bold"><text transform="translate(15 5)"><tspan x=".54" y="18.448">1</tspan></text><text transform="translate(15 5)"><tspan x="9.194" y="18.448">0</tspan></text></g></g></svg>