<svg viewBox="0 0 39 39" version="1.1" xmlns="http://www.w3.org/2000/svg" xmlns:xlink="http://www.w3.org/1999/xlink">
    <g id="Page-1" stroke="none" stroke-width="1" fill="none" fill-rule="evenodd">
        <g id="ui-package-numbers-five" transform="translate(10.000000, 4.000000)">
            <path d="M8.366,11.619 C8.689,11.619 8.962,11.867 8.936,12.189 L8.936,14.519 C8.936,14.842 8.689,15.089 8.366,15.089 L6.036,15.089 C5.88408661,15.0914573 5.73767276,15.0321933 5.63023972,14.9247603 C5.52280668,14.8173272 5.46354269,14.6709134 5.466,14.519 L5.466,12.19 C5.466,11.868 5.713,11.62 6.036,11.62 L8.366,11.62 L8.366,11.619 Z M13.449,11.619 C13.772,11.619 14.019,11.867 14.019,12.189 L14.019,14.519 C14.019,14.842 13.772,15.089 13.449,15.089 L11.119,15.089 C10.9670866,15.0914573 10.8206728,15.0321933 10.7132397,14.9247603 C10.6058067,14.8173272 10.5465427,14.6709134 10.549,14.519 L10.549,12.19 C10.549,11.893 10.796,11.62 11.119,11.62 L13.449,11.62 L13.449,11.619 Z M0.977,20.173 C0.655,20.173 0.382,19.925 0.407,19.603 L0.407,17.273 C0.407,16.95 0.654,16.702 0.977,16.702 L3.307,16.702 C3.63,16.702 3.877,16.95 3.877,17.272 L3.877,19.602 C3.877,19.925 3.63,20.173 3.307,20.173 L0.977,20.173 Z M8.367,16.676 C8.689,16.676 8.962,16.949 8.937,17.246 L8.937,19.577 C8.937,19.9 8.689,20.147 8.367,20.147 L6.035,20.147 C5.88308661,20.1494573 5.73667276,20.0901933 5.62923972,19.9827603 C5.52180668,19.8753272 5.46254269,19.7289134 5.465,19.577 L5.465,17.247 C5.465,16.924 5.712,16.677 6.035,16.677 L8.365,16.677 L8.367,16.676 Z M13.449,16.676 C13.772,16.676 14.019,16.949 14.019,17.246 L14.019,19.577 C14.019,19.9 13.772,20.147 13.449,20.147 L11.119,20.147 C10.9670866,20.1494573 10.8206728,20.0901933 10.7132397,19.9827603 C10.6058067,19.8753272 10.5465427,19.7289134 10.549,19.577 L10.549,17.247 C10.549,16.924 10.796,16.677 11.119,16.677 L13.449,16.677 L13.449,16.676 Z M0.977,25.256 C0.655,25.256 0.382,24.983 0.407,24.686 L0.407,22.356 C0.407,22.058 0.654,21.785 0.977,21.785 L3.307,21.785 C3.63,21.785 3.877,22.033 3.877,22.355 L3.877,24.685 C3.877,24.983 3.63,25.256 3.307,25.256 L0.977,25.256 L0.977,25.256 Z M8.367,21.759 C8.689,21.759 8.962,22.007 8.937,22.329 L8.937,24.66 C8.937,24.958 8.689,25.23 8.367,25.23 L6.035,25.23 C5.88308661,25.2324573 5.73667276,25.1731933 5.62923972,25.0657603 C5.52180668,24.9583272 5.46254269,24.8119134 5.465,24.66 L5.465,22.33 C5.465,22.033 5.712,21.76 6.035,21.76 L8.365,21.76 L8.367,21.759 Z M13.449,21.759 C13.772,21.759 14.019,22.007 14.019,22.329 L14.019,24.66 C14.019,24.958 13.772,25.23 13.449,25.23 L11.119,25.23 C10.9670866,25.2324573 10.8206728,25.1731933 10.7132397,25.0657603 C10.6058067,24.9583272 10.5465427,24.8119134 10.549,24.66 L10.549,22.33 C10.549,22.033 10.796,21.76 11.119,21.76 L13.449,21.76 L13.449,21.759 Z M3.307,15.115 L0.977,15.115 C0.655,15.115 0.382,14.842 0.407,14.52 L0.407,12.19 C0.407,11.892 0.655,11.619 0.977,11.619 L3.308,11.619 C3.631,11.619 3.878,11.867 3.878,12.189 L3.878,14.545 C3.878,14.867 3.63,15.115 3.308,15.115 L3.307,15.115 Z" id="Shape" fill="#FFFFFF" fill-rule="nonzero"></path>
            <polygon id="Path" fill="#FFA900" fill-rule="nonzero" points="10 7 20 7 20 21 10 21"></polygon>
            <g id="Group" transform="translate(10.000000, 0.000000)" fill="#FFFFFF" font-family="OpenSans-Bold, Open Sans" font-size="17" font-weight="bold">
                <text id="5">
                    <tspan x="0.558" y="18.867">5</tspan>
                </text>
            </g>
        </g>
    </g>
</svg>