<?xml version="1.0" encoding="UTF-8"?>
<svg width="20px" height="20px" viewBox="0 0 20 20" version="1.1" xmlns="http://www.w3.org/2000/svg" xmlns:xlink="http://www.w3.org/1999/xlink">
    <title>ui-package-numbers-five</title>
    <g id="Page-1" stroke="none" stroke-width="1" fill="none" fill-rule="evenodd">
        <g id="ui-package-numbers-five" fill="#FFFFFF">
            <g id="5">
                <path d="M3.3072799,15.7846806 C3.59756517,15.7846806 3.82743682,15.9855238 3.8705083,16.2608234 L3.87777356,16.3551743 L3.87777356,18.6855496 C3.87777356,18.953162 3.67693044,19.201172 3.40163075,19.2480979 L3.3072799,19.2560433 L0.976904549,19.2560433 C0.687489605,19.2560433 0.437308159,19.0347945 0.407818203,18.7737788 L0.406410889,16.3551743 C0.406410889,16.087562 0.607254015,15.839552 0.882553705,15.7926261 L0.976904549,15.7846806 L3.3072799,15.7846806 Z M8.36619591,15.7593893 C8.65648118,15.7593893 8.90675046,15.9602324 8.9355436,16.2355321 L8.93668957,18.6602583 C8.93668957,18.9278706 8.73584645,19.1758806 8.46054676,19.2228065 L8.36619591,19.2307519 L6.03582056,19.2307519 C5.74553529,19.2307519 5.51566364,19.0299088 5.47259216,18.7546091 L5.4653269,18.6602583 L5.4653269,16.3298829 C5.4653269,16.0622706 5.66617002,15.8142606 5.94146971,15.7673347 L6.03582056,15.7593893 L8.36619591,15.7593893 Z M13.4492627,15.7593893 C13.7395479,15.7593893 13.9694196,15.9602324 14.0124911,16.2355321 L14.0197563,16.3298829 L14.0197563,18.6602583 C14.0197563,18.9278706 13.8189132,19.1758806 13.5436135,19.2228065 L13.4492627,19.2307519 L11.1188873,19.2307519 C10.8286021,19.2307519 10.5987304,19.0299088 10.5556589,18.7546091 L10.5483937,18.6602583 L10.5483937,16.3298829 C10.5483937,16.0622706 10.7492368,15.8142606 11.0245365,15.7673347 L11.1188873,15.7593893 L13.4492627,15.7593893 Z M3.3072799,10.7016139 C3.59756517,10.7016139 3.82743682,10.902457 3.8705083,11.1777567 L3.87777356,11.2721075 L3.87777356,13.6024829 C3.87777356,13.8927681 3.67693044,14.1226398 3.40163075,14.1657113 L3.3072799,14.1729765 L0.976904549,14.1729765 C0.687489605,14.1729765 0.437308159,13.9721334 0.407818203,13.6968337 L0.406410889,11.2721075 C0.406410889,10.9818223 0.607254015,10.7519506 0.882553705,10.7088791 L0.976904549,10.7016139 L3.3072799,10.7016139 Z M8.36619591,10.6763225 C8.65648118,10.6763225 8.90675046,10.8975713 8.9355436,11.158587 L8.93668957,13.5771915 C8.93668957,13.8674768 8.73584645,14.0973484 8.46054676,14.1404199 L8.36619591,14.1476852 L6.03582056,14.1476852 C5.74553529,14.1476852 5.51566364,13.946842 5.47259216,13.6715424 L5.4653269,13.5771915 L5.4653269,11.2468162 C5.4653269,10.9565309 5.66617002,10.7266592 5.94146971,10.6835878 L6.03582056,10.6763225 L8.36619591,10.6763225 Z M18.6679884,0.731576664 L18.6679884,2.90638135 L14.3349806,2.90638135 L14.1108595,5.28870557 L14.5768562,5.1950912 C14.8804496,5.14128984 15.2397658,5.11438916 15.6548048,5.11438916 C16.8279819,5.11438916 17.7618198,5.44365349 18.4563185,6.10218213 C19.1508172,6.76071078 19.4980666,7.66272901 19.4980666,8.80823682 C19.4980666,10.1640311 19.0802606,11.2071626 18.2446486,11.9376314 C17.4090366,12.6681001 16.2137241,13.0333345 14.6587111,13.0333345 C13.4209724,13.0333345 12.4017825,12.8496605 11.6011414,12.4823125 L11.3882033,12.3775728 L11.3882033,10.1612642 L11.6591408,10.2955708 C12.0319012,10.4677843 12.4507033,10.61255 12.915547,10.7298677 C13.4966017,10.8765148 14.0472202,10.9498384 14.5674025,10.9498384 C16.1334832,10.9498384 16.9165236,10.3079113 16.9165236,9.02405713 C16.9165236,7.80107536 16.105814,7.18958448 14.4843947,7.18958448 C14.1911004,7.18958448 13.8673699,7.21863721 13.5132033,7.27674268 C13.2298699,7.32322705 12.9890366,7.37236768 12.7907033,7.42416455 L12.649922,7.46351026 L11.6289259,6.9156587 L12.0854689,0.731576664 L18.6679884,0.731576664 Z M3.30824841,5.61864626 C3.59853368,5.61864626 3.82840533,5.81948939 3.87147681,6.09478908 L3.87874207,6.18913992 L3.87777356,8.54470745 C3.87777356,8.83499272 3.67693044,9.06486437 3.40163075,9.10793585 L3.3072799,9.11520111 L0.976906037,9.11520111 C0.684567709,9.11520111 0.43225866,8.88946008 0.407720109,8.60608779 L0.407379399,6.18913992 C0.407379399,5.92152762 0.608222526,5.6735176 0.883522216,5.62659172 L0.97787306,5.61864626 L3.30824841,5.61864626 Z M8.36619591,5.61854708 C8.65648118,5.61854708 8.90675046,5.81939021 8.9355436,6.0946899 L8.93668957,8.5194161 C8.93668957,8.80970136 8.73584645,9.03957301 8.46054676,9.08264449 L8.36619591,9.08990976 L6.03582056,9.08990976 C5.74553529,9.08990976 5.51566364,8.88906663 5.47259216,8.61376694 L5.4653269,8.5194161 L5.4653269,6.18904074 C5.4653269,5.89875548 5.66617002,5.66888383 5.94146971,5.62581235 L6.03582056,5.61854708 L8.36619591,5.61854708 Z" id="Shape"></path>
            </g>
        </g>
    </g>
</svg>