<svg xmlns="http://www.w3.org/2000/svg" viewBox="0 0 100 100"><path fill="#fff" d="M30.6863138 36.9052041C30.6863138 34.4589481 31.4716026 31.9801692 33.0425317 29.4693947 34.6129334 26.9586203 36.9053367 24.8792588 39.9181593 23.2309587 42.9311577 21.583186 46.4462347 20.7588602 50.4633901 20.7588602 54.1969837 20.7588602 57.493544 21.4481717 60.3520162 22.8253883 63.2104883 24.2033081 65.4181571 26.0768078 66.9766045 28.4457118 68.5343488 30.8153189 69.3134846 33.3900846 69.3134846 36.1712394 69.3134846 38.3603 68.8692436 40.2791562 67.9807615 41.926753 67.0922795 43.5750531 66.0360863 44.9978019 64.8132368 46.1949994 63.58986 47.3925484 61.3946729 49.4077429 58.227324 52.2404071 57.3516752 53.0388903 56.6495388 53.7408594 56.1221454 54.345787 55.5940488 54.9510661 55.2011407 55.50466 54.9439486 56.0065688 54.686229 56.5088292 54.4863469 57.0109138 54.3451813 57.5131742 54.2033124 58.0150829 53.9909487 58.8975985 53.7079142 60.1591388 53.2184932 62.8376264 51.6860638 64.1765186 49.1113293 64.1765186 47.7721017 64.1765186 46.6452378 63.7389526 45.7314408 62.8631174 44.8171165 61.9878096 44.360218 60.6872418 44.360218 58.9617655 44.360218 56.7985475 44.6945854 54.9250477 45.3645508 53.341442 46.0339888 51.7574847 46.9222951 50.3669073 48.0298212 49.1697098 49.1366441 47.9721608 50.6305738 46.5495878 52.5105555 44.9012877 54.1583082 43.4593768 55.3496899 42.3711752 56.0836457 41.6372106 56.8176015 40.9032459 57.4355307 40.0861279 57.937785 39.1842743 58.4398635 38.2831238 58.6910786 37.3047973 58.6910786 36.2485913 58.6910786 34.1885679 57.9246002 32.450434 56.3926982 31.0338383 54.8602688 29.6179457 52.8835984 28.9092962 50.4633901 28.9092962 47.6302328 28.9092962 45.544392 29.6239229 44.2056918 31.0531762 42.8664641 32.4824296 41.7336231 34.5876337 40.8064656 37.3687885 39.9308167 40.2791562 38.2697034 41.7337247 35.823477 41.7337247 34.3808803 41.7337247 33.1641838 41.2254872 32.1732116 40.2079572 31.1818878 39.1907788 30.6863138 38.0899197 30.6863138 36.9052041zM49.5364083 79.2413414C47.9653034 79.2413414 46.5940806 78.7324006 45.4225641 77.715398 44.2505202 76.6985713 43.6649377 75.2758225 43.6649377 73.4471517 43.6649377 71.8246942 44.2310066 70.4601352 45.3645508 69.3525957 46.4973918 68.2455836 47.8879524 67.6916381 49.5362325 67.6916381 51.1586704 67.6916381 52.5232129 68.2455836 53.630739 69.3525957 54.7375619 70.4601352 55.2916766 71.8246942 55.2916766 73.4471517 55.2916766 75.2499799 54.7122471 76.6663999 53.553388 77.6962358 52.3945289 78.7260718 51.0556529 79.2413414 49.5364083 79.2413414z"/></svg>