<svg viewBox="0 0 50 50" xmlns="http://www.w3.org/2000/svg"><path d="M25.001 13.644a13.5 13.5 0 010 3.954s1.11-.13.369 2.018c0 0-.408 1.544-1.034 1.195 0 0 .101 1.954-.885 2.285 0 0 .059.874.069 1.074l.001.037.825.128s-.023.867.14.96a8.7 8.7 0 002.443 1.112c2.56.66 3.859 1.795 3.859 2.79 0 0 1.131 4.261 1.602 6.833-3.063 1-6.61 1.57-10.39 1.57-4.703 0-9.045-.883-12.545-2.376.367-1.892.858-4.368 1.087-5.275.391-1.545 2.582-2.693 4.598-3.576 1.042-.456 1.266-.73 2.318-1.198a3.54 3.54 0 00.073-.647l-.002-.217.893-.108s.117.217-.072-1.06c0 0-1.002-.267-1.049-2.3 0 0-.752.256-.798-.976-.03-.795-.611-1.49.124-2.07l.127-.09-.471-1.277s-.494-4.938 1.677-4.537c-.88-1.418 6.548-2.599 7.041 1.75zm7.995-1.871c.92.07 1.806.384 2.565.91.513.412.9.959 1.12 1.578.307 1.242.533 2.503.68 3.774.065.683.183 1.361.352 2.027.255.72.564 1.42.924 2.094a5.443 5.443 0 01-1.077-1.044s.2.731.24.84c.109.162.207.333.291.51-.046 0-.483.202-.58.246l-.018.009-2.119.662.03 1.005c.402.16.755.42 1.025.756.128.323.331.61.592.84a8.454 8.454 0 011.472.676 6.356 6.356 0 002.29.75c.81.133 1.322 1.443 1.322 1.443 0 .025.106 2.106.186 3.705-2.316.776-5.034 1.396-8.027 1.812h-.804c-.067-.946-1.238-5.15-1.269-5.378-.046-1.283-1.175-2.43-3.105-3.212.146-.198.271-.41.374-.633.231-.287.524-.52.855-.681l.169-.075.03-1.004-2.118-.662s-.545-.255-.599-.255c.063-.154.142-.302.235-.44.04-.108.297-.914.297-.914-.309.396-.67.748-1.076 1.045l.001-.001.215-.395c.209-.4.397-.81.564-1.23l.16-.42c.168-.682.28-1.376.336-2.075.145-1.271.372-2.532.678-3.774.22-.62.608-1.166 1.12-1.58a5.188 5.188 0 012.286-.88l.275-.03h.108z" fill="#FFF" fill-rule="evenodd"/></svg>
