<svg xmlns="http://www.w3.org/2000/svg" viewBox="0 0 100 100"><path fill="#fff" d="M61.5836818,43.1293985 C61.5836818,43.1293985 61.1566782,44.4984068 61.0886776,44.6814079 C60.9331466,44.9177963 60.8021341,45.1694338 60.6976743,45.4324124 C60.7856751,45.4324124 61.6976828,45.865415 61.6976828,45.865415 L65.2287127,46.9974219 L65.1777123,48.7084322 C64.5065871,48.9823899 63.9180603,49.4258506 63.4696978,49.99544 C63.2997541,50.3747763 63.091327,50.7356695 62.8476925,51.0724466 C66.0647198,52.4064546 67.9477358,54.3594664 68.0237364,56.5444797 C68.0757369,56.933482 70.0237534,64.0945254 70.1397544,65.7065351 L85.0013333,65.7065351 C85.0128806,65.6395347 84.5528766,56.3764787 84.5478766,56.3064782 C84.5478766,56.3064782 83.6948694,54.0754647 82.3428579,53.8484634 C81.0000711,53.6742833 79.7039892,53.2405587 78.5268255,52.5714556 C77.7492012,52.1107238 76.9286778,51.7265855 76.0768048,51.4244487 C75.6402151,51.0317733 75.302108,50.5419133 75.0897964,49.99444 C74.6419897,49.4245226 74.0532736,48.9812629 73.3817819,48.7084322 L73.3317815,46.9974219 L76.8638114,45.8694151 C76.8638114,45.8694151 77.7748192,45.4364124 77.8638199,45.4364124 C77.7225226,45.1348056 77.5597701,44.8437229 77.3768158,44.5654072 C77.3098152,44.3834061 76.9768124,43.1353985 76.9768124,43.1353985 C77.4917521,43.8084176 78.0975254,44.4067862 78.7768277,44.9134093 C78.1751986,43.7644973 77.6604224,42.5721581 77.2368146,41.3463877 C76.9535133,40.2115788 76.7566146,39.0569318 76.6478096,37.8923668 C76.405074,35.7282197 76.0273347,33.5813557 75.5168,31.4643279 C75.1538611,30.4123955 74.5074202,29.4811489 73.6487842,28.7733116 C72.3899519,27.8799542 70.9126136,27.344312 69.3737479,27.2233022 C69.3447477,27.2233022 69.3167474,27.2233022 69.2867472,27.2233022 C69.2567469,27.2233022 69.2287467,27.2233022 69.1967464,27.2233022 C67.6577848,27.343869 66.1803319,27.8795522 64.9217101,28.7733116 C64.064248,29.4820199 63.4183323,30.4130085 63.0546943,31.4643279 C62.5429857,33.5811597 62.164903,35.7280767 61.9226847,37.8923668 C61.829374,39.083019 61.6417843,40.2643961 61.3616799,41.4253882 C60.9377236,42.6294835 60.4135496,43.7959105 59.7946666,44.9124093 C60.4702263,44.4032442 61.0722493,43.8032426 61.5836818,43.1293985 Z"/><path fill="#fff" d="M68.0006666,68.997555 C68.0006666,66.2605385 66.3106666,56.6794805 66.3106666,56.6794805 C66.3106666,54.9874702 64.1446666,53.0534585 59.8766666,51.9274517 C58.4271875,51.5144372 57.0517066,50.8759614 55.8006666,50.0354403 C55.6001878,49.5140771 55.5208555,48.9539607 55.5686666,48.3974304 L54.2006666,48.1834291 C54.2006666,48.0634283 54.0836666,46.2904176 54.0836666,46.2904176 C55.7276666,45.7264142 55.5586666,42.3983941 55.5586666,42.3983941 C56.6026666,42.9893976 57.2826666,40.3593817 57.2826666,40.3593817 C58.5176666,36.7023596 56.6676666,36.9223609 56.6676666,36.9223609 C56.9912321,34.6883364 56.9912321,32.4193447 56.6676666,30.1853201 C55.8456666,22.7762753 43.4616666,24.7852875 44.9306666,27.2073021 C41.3116666,26.523298 42.1376666,34.9353489 42.1376666,34.9353489 L42.9226666,37.1103621 C41.3816666,38.1293682 42.4526666,39.3653757 42.5046666,40.7873843 C42.5806666,42.887397 43.8356666,42.4513944 43.8356666,42.4513944 C43.9136666,45.9144153 45.5846666,46.3694181 45.5846666,46.3694181 C45.8986666,48.5444313 45.7036666,48.169429 45.7036666,48.169429 L44.2156666,48.3534301 C44.2360011,48.8476821 44.1967181,49.3425841 44.0986666,49.827439 C42.3446666,50.6274439 41.9716666,51.0914467 40.2326666,51.8684514 C36.8666666,53.3764605 33.6486666,55.3654725 33.0006666,57.9974885 C32.3526666,60.6295044 32.0006666,68.997555 32.0006666,68.997555 L68.0006666,68.997555 Z"/><path fill="#fff" d="M38.4176515,43.1293985 C38.4176515,43.1293985 38.8446551,44.4984068 38.9126557,44.6814079 C39.0681627,44.9178103 39.1991739,45.1694458 39.303659,45.4324124 C39.2156582,45.4324124 38.3036505,45.865415 38.3036505,45.865415 L34.7726206,46.9974219 L34.823621,48.7084322 C35.4947462,48.9823899 36.083273,49.4258506 36.5316355,49.99544 C36.7015289,50.3748013 36.9099589,50.7356995 37.1536408,51.0724466 C33.9366135,52.4064546 32.0535975,54.3594664 31.9785969,56.5444797 C31.9255964,56.933482 29.9785799,64.0945254 29.8625789,65.7065351 L15,65.7065351 C14.9884527,65.6395347 15.4484566,56.3764787 15.4524567,56.3064782 C15.4524567,56.3064782 16.3054639,54.0754647 17.6574754,53.8484634 C19.0002622,53.6742833 20.2963441,53.2405587 21.4735078,52.5714556 C22.2511438,52.1107458 23.0716651,51.7266085 23.9235285,51.4244487 C24.3601465,51.0317983 24.6982586,50.5419313 24.9105369,49.99444 C25.3583761,49.4245556 25.9470826,48.9813039 26.6185514,48.7084322 L26.6695518,46.9974219 L23.1375219,45.8694151 C23.1375219,45.8694151 22.2265141,45.4364124 22.1375134,45.4364124 C22.2785188,45.1348496 22.4409354,44.8437709 22.6235175,44.5654072 C22.6905181,44.3834061 23.0235209,43.1353985 23.0235209,43.1353985 C22.5086006,43.8084346 21.9028248,44.4068052 21.2235056,44.9134093 C21.8251212,43.7644903 22.3398969,42.5721521 22.7635187,41.3463877 C23.0468049,40.2115748 23.2437035,39.0569298 23.3525237,37.8923668 C23.5952592,35.7282197 23.9729986,33.5813557 24.4835333,31.4643279 C24.8465189,30.4124195 25.4929516,29.4811849 26.3515491,28.7733116 C27.6103814,27.8799542 29.0877197,27.344312 30.6265854,27.2233022 C30.6555856,27.2233022 30.6835859,27.2233022 30.7135861,27.2233022 C30.7435864,27.2233022 30.7715866,27.2233022 30.8035869,27.2233022 C32.3425484,27.343869 33.8200014,27.8795522 35.0786232,28.7733116 C35.9360853,29.4820199 36.582001,30.4130085 36.945639,31.4643279 C37.4573476,33.5811597 37.8354303,35.7280767 38.0776486,37.8923668 C38.1709092,39.083025 38.3584995,40.2644061 38.6386534,41.4253882 C39.0626577,42.6294645 39.5868299,43.7958875 40.2056666,44.9124093 C39.5304603,44.4031732 38.9287771,43.8031746 38.4176515,43.1293985 Z"/></svg>
