<svg xmlns="http://www.w3.org/2000/svg" viewBox="0 0 100 100"><path fill="#fff" d="M55.0296666,42.7047907 C55.0296666,42.7047907 54.5556666,44.1967998 54.4806666,44.396801 C54.3086439,44.6531815 54.1635418,44.9266312 54.0476666,45.2128059 C54.1476666,45.2128059 55.1546666,45.6838088 55.1546666,45.6838088 L59.0716666,46.9098162 L59.0146666,48.7698274 C58.2734081,49.0657902 57.6210495,49.5480011 57.1206666,50.1698359 C56.9318072,50.5829964 56.7005678,50.9754358 56.4306666,51.340843 C59.9986666,52.7908518 62.0856666,54.9128646 62.1706666,57.288879 C62.2286666,57.7118815 64.3936666,65.4949287 64.5176666,67.2479393 L81.0006666,67.2479393 C81.0146666,67.1749388 80.5006666,57.1058779 80.5006666,57.0308774 C80.5006666,57.0308774 79.5546666,54.6058628 78.0546666,54.3588613 C76.5680083,54.1706141 75.1311412,53.6994623 73.8216666,52.9708529 C72.9568717,52.4673068 72.0456825,52.0480433 71.1006666,51.7188453 C70.6179557,51.2942847 70.2427065,50.7613935 70.0056666,50.1638359 C69.5060129,49.5412421 68.8534371,49.0588702 68.1116666,48.7638274 L68.0556666,46.9028161 L71.9726666,45.6768087 C71.9726666,45.6768087 72.9826666,45.2058059 73.0796666,45.2058059 C72.9227737,44.8775099 72.7423013,44.561013 72.5396666,44.2588001 C72.4656666,44.0587989 72.0966666,42.7047907 72.0966666,42.7047907 C72.668255,43.4379912 73.3386218,44.0885061 74.0886666,44.6378024 C73.4220756,43.3905299 72.8511027,42.094467 72.3806666,40.760779 C72.0666927,39.5281125 71.8483771,38.2730409 71.7276666,37.0067562 C71.4580539,34.653466 71.0388725,32.3197299 70.4726666,30.019714 C70.0662822,28.872155 69.3489137,27.8601469 68.4006666,27.0966963 C66.9981152,26.1230364 65.3611178,25.5413499 63.6586666,25.4116861 C63.6266666,25.4116861 63.5956666,25.4116861 63.5586666,25.4116861 C63.5216666,25.4116861 63.4936666,25.4116861 63.4586666,25.4116861 C61.7592244,25.5424449 60.1254089,26.1241044 58.7256666,27.0966963 C57.7783348,27.8616209 57.0614812,28.874083 56.6546666,30.021714 C56.0878648,32.3215539 55.6690067,34.655349 55.4006666,37.0087563 C55.2971984,38.3037691 55.0891873,39.5882959 54.7786666,40.8497795 C54.3080065,42.1603384 53.7269194,43.4285681 53.0416666,44.6408024 C53.7903085,44.0900741 54.4592964,43.4385802 55.0296666,42.7047907 Z"/><path fill="#fff" d="M60.2716666,57.4338799 C60.2716666,55.5938687 57.8716666,53.492856 53.1366666,52.2688486 C51.5335769,51.8211909 50.0097462,51.1272487 48.6196666,50.2118362 C48.3196666,50.0378351 48.3616666,48.4318254 48.3616666,48.4318254 L46.8366666,48.196824 C46.8366666,48.0658232 46.7066666,46.1398115 46.7066666,46.1398115 C48.5306666,45.5268078 48.3426666,41.9097859 48.3426666,41.9097859 C49.5006666,42.5547898 50.2546666,39.6967725 50.2546666,39.6967725 C51.6246666,35.7207485 49.5726666,35.9607499 49.5726666,35.9607499 C49.93162,33.5329312 49.93162,31.0655243 49.5726666,28.6377056 C48.6606666,20.5836569 34.9266666,22.7696701 36.5546666,25.396686 C32.5406666,24.6526815 33.4546666,33.7967368 33.4546666,33.7967368 L34.3256666,36.1607511 C32.6156666,37.2687578 33.8036666,38.611766 33.8616666,40.1607753 C33.9456666,42.4417891 35.3376666,41.9687863 35.3376666,41.9687863 C35.4236666,45.7328091 37.2766666,46.227812 37.2766666,46.227812 C37.6256666,48.5918264 37.4086666,48.1898239 37.4086666,48.1898239 L35.7576666,48.3898251 C35.7799472,48.9264714 35.7362876,49.4638246 35.6276666,49.9898348 C33.6826666,50.8558401 33.2686666,51.3638431 31.3406666,52.2088482 C27.6146666,53.8428581 23.5636666,55.968871 22.8406666,58.8298883 C22.1176666,61.6909056 21.0006666,70.9969619 21.0006666,70.9969619 L63.0006666,70.9969619 L60.2716666,57.4338799 Z"/></svg>
