<svg viewBox="0 0 50 50" xmlns="http://www.w3.org/2000/svg"><path d="M21.645 11.713c-1.054-1.67 7.832-3.057 8.422 2.054.232 1.54.232 3.107 0 4.647 0 0 1.328-.152.442 2.372 0 0-.488 1.816-1.238 1.408 0 0 .122 2.296-1.058 2.685 0 0 .084 1.223.084 1.306l.986.147s-.03 1.02.167 1.13c.9.58 1.886 1.021 2.923 1.305 3.062.777 4.616 2.11 4.616 3.278l.823 4.189c-3.544 1.485-7.657 2.373-12.055 2.466H24.22c-4.389-.093-8.493-.977-12.03-2.456.161-1.159.371-2.47.588-3.315.466-1.816 3.087-3.165 5.498-4.202 1.248-.537 1.518-.86 2.774-1.409.07-.334.098-.676.084-1.017l1.068-.127s.14.255-.085-1.245c0 0-1.2-.311-1.256-2.7 0 0-.902.3-.956-1.147-.039-.98-.808-1.832.299-2.537l-.564-1.502s-.592-5.8 2.005-5.33z" fill="#FFF" fill-rule="evenodd"/></svg>
