<svg xmlns="http://www.w3.org/2000/svg" viewBox="0 0 100 100"><path fill="#fff" d="M72.7856666,62.2540935 C72.7856666,59.9430795 69.7566666,57.3030635 63.7856666,55.7650542 C61.7635193,55.2035354 59.8406739,54.3318402 58.0856666,53.1810386 C57.7026666,52.9630373 57.7606666,50.945025 57.7606666,50.945025 L55.8386666,50.6530233 C55.8386666,50.4890223 55.6746666,48.0690076 55.6746666,48.0690076 C57.9746666,47.299003 57.7376666,42.7549755 57.7376666,42.7549755 C59.1976666,43.5619804 60.1486666,39.9709586 60.1486666,39.9709586 C61.8766666,34.9769284 59.2886666,35.2779302 59.2886666,35.2779302 C60.1106666,31.5399076 59.2886666,26.0778745 59.2886666,26.0778745 C58.1386666,15.9618133 40.8186666,18.7078299 42.8716666,22.0128499 C37.8096666,21.0788443 38.9646666,32.5639138 38.9646666,32.5639138 L40.0646666,35.5329318 C37.9086666,36.9249402 39.4066666,38.6119504 39.4796666,40.5529621 C39.5856666,43.4179795 41.3406666,42.8249759 41.3406666,42.8249759 C41.4496666,47.5530045 43.7866666,48.1750083 43.7866666,48.1750083 C44.2266666,51.1440262 43.9526666,50.6390232 43.9526666,50.6390232 L41.8706666,50.8890247 C41.8989236,51.5642186 41.8438415,52.240321 41.7066666,52.9020369 C39.2576666,53.9950435 38.7356666,54.6290473 36.3006666,55.6950538 C31.6006666,57.7480662 26.4926666,60.4180824 25.5856666,64.0121041 C24.6786666,67.6061259 23.0006666,75.9951766 23.0006666,75.9951766 L76.0006666,75.9951766 L72.7856666,62.2540935 Z"/></svg>
