<svg xmlns="http://www.w3.org/2000/svg" viewBox="0 0 50 50">
  <path fill="#FFF" fill-rule="evenodd" transform="translate(12, -57)" d="M28,84.4719777 L28,93.942473 C28,94.5266185 27.4861663,95 26.849407,95 L13.1505537,95 C12.5153293,95 12,94.5273228 12,93.942473 L12,84.4719777 L20,90.6688613 L28,84.4719777 Z M13.2925066,68.5927365 C13.4537949,69.7096424 13.4537949,70.8447611 13.2925066,71.961667 C13.2925066,71.961667 14.2145302,71.8512555 13.5989492,73.6804059 C13.5989492,73.6804059 13.2601549,74.9952227 12.7398317,74.6984918 C12.7398317,74.6984918 12.8243056,76.362485 12.0047291,76.6444943 C12.0047291,76.6444943 12.0530041,77.3767689 12.0617814,77.5551886 L12.0631419,77.5908128 L12.7483689,77.6998441 C12.7483689,77.6998441 12.7294971,78.438681 12.8642959,78.5187293 C13.4888993,78.9398603 14.173601,79.2591052 14.893916,79.4650478 C15.7776521,79.6989436 16.4803678,80.0024504 16.99997,80.3380487 L11.2870968,80.3382147 C10.232735,80.3382147 9.36893168,81.1540925 9.29258254,82.1889523 L9.2870968,82.3382147 L9.287,88.999 L6.28537222e-10,89 L0.00811828122,88.95591 C0.0987079873,88.4643363 0.923164609,84.0012764 1.25253822,82.6009834 L1.28103764,82.4825018 C1.60590267,81.1663048 3.42613538,80.1882431 5.1003361,79.4365248 C5.96664285,79.0477844 6.15266516,78.8140801 7.02661051,78.4156786 C7.05914823,78.2543529 7.07871304,78.0907081 7.08517463,77.9263866 L7.08502331,77.679602 L7.82686587,77.5875925 C7.82686587,77.5875925 7.92437031,77.7725317 7.76755441,76.6849785 C7.76755441,76.6849785 6.93494735,76.4572548 6.89630503,74.7256346 C6.89630503,74.7256346 6.27083874,74.9432373 6.23309509,73.8938681 C6.208567,73.2231724 5.73427434,72.6364251 6.31914095,72.144749 L6.44158385,72.0536766 L6.05021809,70.9661234 L6.04668483,70.9265489 C6.01051279,70.500214 5.74259446,66.7790043 7.44313871,67.1017213 C6.71163072,65.8931756 12.8827184,64.8875109 13.2925066,68.5927365 Z M26.7692308,83 L20,87.8833191 L13.2307692,83 L26.7692308,83 Z"/>
</svg>
