<svg viewBox="0 0 50 50" xmlns="http://www.w3.org/2000/svg"><g fill="#9CA2AA" fill-rule="evenodd"><path d="M35.178 15.54c.671.052 1.315.285 1.864.675.374.308.656.714.814 1.173.223.923.387 1.859.493 2.802.048.508.134 1.011.257 1.506.185.534.41 1.054.671 1.555a3.996 3.996 0 01-.784-.775s.145.544.174.623c.08.122.15.248.212.38-.038 0-.436.189-.436.189l-1.54.491.023.746c.292.12.549.312.744.56.093.24.24.453.43.624.372.132.73.3 1.068.5.514.292 1.079.481 1.664.557.59.099.961 1.072.961 1.072.002.018.077 1.529.134 2.71-1.854.569-3.975 1.04-6.292 1.388h-.123c-.05-.703-.9-3.825-.922-3.995-.033-.952-.854-1.804-2.257-2.385.107-.147.197-.304.271-.47.196-.248.453-.441.745-.56l.022-.747-1.539-.493s-.398-.189-.436-.189c.046-.114.103-.224.17-.327.03-.08.216-.677.216-.677a4.006 4.006 0 01-.78.777c.27-.486.499-.995.684-1.52a9.847 9.847 0 00.244-1.54c.106-.943.27-1.88.494-2.802.158-.458.44-.864.813-1.173a3.72 3.72 0 011.864-.676z"/><path d="M23.142 15.183c-.676-1.114 5.022-2.039 5.4 1.37a10.813 10.813 0 010 3.1s.852-.101.283 1.581c0 0-.312 1.21-.793.939 0 0 .078 1.53-.678 1.79 0 0 .053.816.053.871l.63.099c-.022.256.014.514.107.753a6.612 6.612 0 001.875.872c1.964.518 2.96 1.408 2.96 2.186 0 0 .903 3.475 1.25 5.476-2.855.578-5.97.896-9.229.896-3.002 0-5.881-.27-8.548-.764.277-1.467.791-4.155 1.004-5.02.298-1.21 1.978-2.112 3.524-2.802.8-.358.972-.571 1.78-.94.044-.222.062-.45.053-.677l.685-.085s.09.172-.055-.828c0 0-.769-.21-.805-1.803 0 0-.577.2-.612-.766-.024-.654-.517-1.223.192-1.692l-.361-1s-.38-3.87 1.285-3.556z"/><path d="M15.41 15.534a3.72 3.72 0 011.864.676c.374.31.655.715.814 1.173.223.923.388 1.859.493 2.802.04.52.123 1.035.245 1.54a9.96 9.96 0 00.683 1.52 4.006 4.006 0 01-.78-.777s.187.598.217.678c.067.103.125.212.17.327-.038 0-.436.189-.436.189l-1.54.493.023.746c.292.119.549.312.744.56.074.166.165.323.271.47-1.402.582-2.223 1.433-2.256 2.386-.023.17-.871 3.291-.922 3.994h-.556c-2.14-.32-4.115-.746-5.866-1.256l.14-2.842s.372-.973.961-1.072a4.551 4.551 0 001.664-.556c.339-.201.697-.369 1.068-.5.19-.172.338-.385.43-.624.195-.248.452-.441.745-.56l.022-.746-1.54-.492s-.397-.189-.436-.189a3.04 3.04 0 01.212-.38c.03-.079.175-.623.175-.623a3.995 3.995 0 01-.785.775c.262-.5.487-1.02.671-1.555.124-.494.21-.998.257-1.506.106-.943.27-1.879.493-2.802.158-.458.44-.864.814-1.173a3.725 3.725 0 011.864-.676h.077z"/></g></svg>
