<svg xmlns="http://www.w3.org/2000/svg" width="66" height="14" viewBox="0 0 66 14">
  <path fill="#FFFFFF" fill-rule="evenodd" d="M63.5140875,7.21483859 C61.9674256,7.21483859 60.713617,5.96103002 60.713617,4.41436812 C60.713617,2.8677339 61.9674256,1.61389766 63.5140875,1.61389766 C65.0607494,1.61389766 66.3145579,2.8677339 66.3145579,4.41436812 C66.3145579,5.96103002 65.0607494,7.21483859 63.5140875,7.21483859 L63.5140875,7.21483859 Z M63.5001104,0.894177605 C61.5584661,0.894177605 59.984459,2.46818466 59.984459,4.40982905 C59.984459,6.35150112 61.5584661,7.92550817 63.5001104,7.92550817 C65.4417272,7.92550817 67.0157619,6.35150112 67.0157619,4.40982905 C67.0157619,2.46821233 65.4417272,0.894177605 63.5001104,0.894177605 L63.5001104,0.894177605 Z M63.8231597,2.72478074 L63.0916768,2.72478074 L63.0916768,4.73268455 L65.0329614,4.73268455 L65.0329614,4.0330582 L63.8231597,4.0330582 L63.8231597,2.72478074 Z M54.6067354,6.51302574 L54.6067354,7.55842437 L53.7203981,7.55842437 C53.3806041,7.55842437 52.6715398,7.587873 52.4942668,7.60259731 L54.6953857,4.70196276 C54.665854,4.89335117 54.6067354,5.76208571 54.6067354,6.51302574 L54.6067354,6.51302574 Z M56.5714903,1.71295465 L55.1237747,1.71295465 L50.2488365,7.8970836 L50.2488365,9.17807126 L54.6067354,9.17807126 L54.6067354,11.4897609 L56.5714903,11.4897609 L56.5714903,9.17807126 L58.0192336,9.17807126 L58.0192336,7.55842437 L56.5714903,7.55842437 L56.5714903,1.71295465 Z M50.3149576,4.30440628 C50.3149576,2.77310528 49.2660993,1.68350602 47.0945397,1.68350602 C45.7059151,1.68350602 44.5388748,2.11051113 43.6968488,2.4933433 L44.2138881,4.03936862 C44.9672914,3.7007094 45.7797581,3.37677448 46.769553,3.37677448 C47.5081767,3.37677448 48.2024613,3.67126077 48.2024613,4.51054668 C48.2024613,6.42465218 43.7706918,6.70444182 43.3718622,11.4897609 L50.4479192,11.4897609 L50.4479192,9.78176814 L46.0013701,9.78176814 C46.621784,7.73511614 50.3149576,6.98417612 50.3149576,4.30440628 L50.3149576,4.30440628 Z M26.3164565,11.4903698 L28.2440685,11.4903698 L28.2440685,4.75872887 L26.3164565,4.75872887 L26.3164565,11.4903698 Z M33.8983712,8.10319632 L33.8983712,8.0747164 C34.3981399,7.76163098 34.4552382,6.89350534 34.7979383,6.4665279 C34.9121624,6.32421132 35.0549495,6.25305302 35.269144,6.25305302 C35.4119311,6.25305302 35.5547182,6.28150527 35.6689424,6.32421132 L35.6689424,4.6875429 C35.4547755,4.61638461 35.097794,4.58793236 34.8979086,4.58793236 C34.2839158,4.58793236 33.8841174,4.81563336 33.6271062,5.17142483 C33.0273948,5.96841985 33.0559578,7.33465354 32.2420796,7.33465354 L31.5281441,7.33465354 L31.5281441,4.75872887 L29.6005044,4.75872887 L29.6005044,11.4903698 L31.5281441,11.4903698 L31.5281441,8.78629933 L32.4705279,8.78629933 C32.6561595,8.78629933 32.8274818,8.97132196 32.9988319,9.3840456 L33.7984286,11.4903698 L35.8831092,11.4903698 L34.6694603,8.90016367 C34.4695473,8.47321391 34.2268176,8.23128678 33.8983712,8.10319632 L33.8983712,8.10319632 Z M27.2874032,1.57077645 C26.6163122,1.57077645 26.1165435,2.0688845 26.1165435,2.68088457 C26.1165435,3.32128153 26.6163122,3.81938958 27.2874032,3.81938958 C27.9442128,3.81938958 28.4439815,3.30708308 28.4439815,2.68088457 C28.4439815,2.04043226 27.9442128,1.57077645 27.2874032,1.57077645 L27.2874032,1.57077645 Z M40.1094855,10.0956285 C39.024287,10.0956285 38.3103515,9.41249784 38.3103515,8.14587469 C38.3103515,7.007342 39.0100055,6.11073644 40.1951744,6.11073644 C40.8519563,6.11073644 41.3660065,6.30998519 41.851466,6.68000278 L41.851466,5.07181429 C41.4945121,4.84411329 40.8948008,4.58793236 39.9809522,4.58793236 C37.9962143,4.58793236 36.339895,6.02532434 36.339895,8.16010081 C36.339895,10.1383346 37.596416,11.6326587 39.8381651,11.6326587 C40.7805766,11.6326587 41.6515807,11.3480532 42.2084476,10.949528 L41.6658345,9.64022652 C41.1661212,9.92485969 40.7091969,10.0956285 40.1094855,10.0956285 L40.1094855,10.0956285 Z M3.89910323,9.89640745 L3.17088625,9.89640745 L3.17088625,7.235043 L3.81341436,7.235043 C4.39884424,7.235043 4.91289441,7.29197517 5.26984832,7.50545005 C5.59826695,7.70469881 5.79815228,8.06049027 5.79815228,8.57282445 C5.79815228,9.46943001 5.24128536,9.89640745 3.89910323,9.89640745 L3.89910323,9.89640745 Z M6.42642659,6.15341481 C5.72677257,5.78339722 4.82720554,5.65530676 3.81341436,5.65530676 L3.17088625,5.65530676 L3.17088625,3.6913268 L6.91188613,3.6913268 L7.39737334,2.11159055 L1.21471129,2.11159055 L1.21471129,11.4903698 L3.8562588,11.4903698 C6.74056375,11.4903698 7.75435493,10.223719 7.75435493,8.5443722 C7.75435493,7.34890734 7.25458624,6.58039224 6.42642659,6.15341481 L6.42642659,6.15341481 Z M8.92515933,11.4903698 L10.8527713,11.4903698 L10.8527713,4.75872887 L8.92515933,4.75872887 L8.92515933,11.4903698 Z M21.5902561,10.0529502 C21.2618374,10.0529502 21.0191077,9.99601799 20.7620964,9.91060589 L20.7620964,6.25305302 C20.9762632,6.18189473 21.1761763,6.16766861 21.418906,6.16766861 C22.6040473,6.16766861 23.3179828,6.80809325 23.3179828,8.11739477 C23.3179828,9.29866118 22.7468344,10.0529502 21.5902561,10.0529502 L21.5902561,10.0529502 Z M21.5045949,4.58793236 C20.4908037,4.58793236 19.5769552,4.77292732 18.8344567,5.02910824 L18.8344567,14.8633172 L20.7620964,14.8633172 L20.7620964,11.5045959 C21.0762059,11.5899804 21.4046245,11.6326587 21.7330432,11.6326587 C23.9176941,11.6326587 25.2884392,10.1383346 25.2884392,8.11739477 C25.2884392,5.9968721 24.0176368,4.58793236 21.5045949,4.58793236 L21.5045949,4.58793236 Z M11.7380015,6.35269124 L13.7513024,6.35269124 L13.7513024,11.4903698 L15.6789421,11.4903698 L15.6789421,6.35269124 L17.6065541,6.35269124 L18.1063228,4.75872887 L11.7380015,4.75872887 L11.7380015,6.35269124 Z M9.89610607,1.57077645 C9.22501501,1.57077645 8.72524632,2.0688845 8.72524632,2.68088457 C8.72524632,3.32128153 9.22501501,3.81938958 9.89610607,3.81938958 C10.5529157,3.81938958 11.0526843,3.30708308 11.0526843,2.68088457 C11.0526843,2.04043226 10.5529157,1.57077645 9.89610607,1.57077645 L9.89610607,1.57077645 Z" transform="translate(-1)" opacity=".699"/>
</svg>
