<svg xmlns="http://www.w3.org/2000/svg" width="74" height="14" viewBox="0 0 74 14">
  <path fill="#FFFFFF" fill-rule="evenodd" d="M71.7083213,2.85826104 L70.9768384,2.85826104 L70.9768384,4.86616485 L72.918123,4.86619253 L72.918123,4.16656618 L71.7083213,4.16656618 L71.7083213,2.85826104 Z M71.3992491,7.34831889 C69.8525872,7.34831889 68.5987787,6.09451032 68.5987787,4.54784843 C68.5987787,3.00121421 69.8525872,1.74737796 71.3992491,1.74737796 C72.945911,1.74737796 74.1997196,3.00121421 74.1997196,4.54784843 C74.1997196,6.094538 72.945911,7.34831889 71.3992491,7.34831889 L71.3992491,7.34831889 Z M71.3852721,1.02765791 C69.4436277,1.02765791 67.8696207,2.60166496 67.8696207,4.54333703 C67.8696207,6.48498142 69.4436277,8.05898847 71.3852721,8.05898847 C73.3268888,8.05898847 74.9009235,6.48498142 74.9009235,4.54333703 C74.9009235,2.60166496 73.3268888,1.02765791 71.3852721,1.02765791 L71.3852721,1.02765791 Z M62.491897,6.64650604 L62.491897,7.69190468 L61.6055597,7.69190468 C61.2657657,7.69190468 60.5567014,7.7213533 60.3794284,7.73607762 L62.5805473,4.83544307 C62.5510157,5.02685915 62.491897,5.89556602 62.491897,6.64650604 L62.491897,6.64650604 Z M64.4566519,1.84643495 L63.0089363,1.84643495 L58.1339982,8.0305639 L58.1339982,9.31155156 L62.491897,9.31155156 L62.491897,11.6232689 L64.4566519,11.6232689 L64.4566519,9.31155156 L65.9043952,9.31155156 L65.9043952,7.69190468 L64.4566519,7.69190468 L64.4566519,1.84643495 Z M58.2001192,4.43788658 C58.2001192,2.9065579 57.1512609,1.81698633 54.9797013,1.81698633 C53.5910767,1.81698633 52.4240364,2.24399144 51.5820105,2.62682361 L52.0990498,4.17284893 C52.8524531,3.8341897 53.6649197,3.51025479 54.6547147,3.51025479 C55.3933383,3.51025479 56.087623,3.80474107 56.087623,4.64402698 C56.087623,6.55816016 51.6558535,6.83792213 51.2570238,11.6232689 L58.3330809,11.6232689 L58.3330809,9.91527613 L53.8865317,9.91527613 C54.5069457,7.86859645 58.2001192,7.1176841 58.2001192,4.43788658 L58.2001192,4.43788658 Z M48.262757,10.2285276 C47.1775585,10.2285276 46.463623,9.54539692 46.463623,8.27877377 C46.463623,7.1402134 47.163277,6.24360784 48.3484182,6.24360784 C49.0052278,6.24360784 49.519278,6.44288427 50.0047375,6.81290186 L50.0047375,5.20468569 C49.6477836,4.97698469 49.0480722,4.72083144 48.1342237,4.72083144 C46.1494858,4.72083144 44.4931942,6.15822343 44.4931942,8.29299989 C44.4931942,10.2712337 45.7496875,11.7655578 47.9914366,11.7655578 C48.9338481,11.7655578 49.8048245,11.4809523 50.3616914,11.0824548 L49.819106,9.7731256 C49.319365,10.0577588 48.8624684,10.2285276 48.262757,10.2285276 L48.262757,10.2285276 Z M42.2177341,8.2360954 L42.2177341,8.20761548 C42.7175028,7.89453006 42.774601,7.02637674 43.1173011,6.59942698 C43.2315253,6.45708272 43.3743124,6.3859521 43.5884792,6.3859521 C43.7312663,6.3859521 43.8740811,6.41440435 43.9883052,6.45708272 L43.9883052,4.82044198 C43.7741107,4.74928369 43.4171568,4.72083144 43.2172438,4.72083144 C42.6032786,4.72083144 42.2034526,4.94850477 41.9464414,5.30432391 C41.34673,6.10131893 41.375293,7.46755262 40.5614148,7.46755262 L39.8474793,7.46755262 L39.8474793,4.89160027 L37.9198673,4.89160027 L37.9198673,11.6232689 L39.8474793,11.6232689 L39.8474793,8.91919841 L40.7898631,8.91919841 C40.9754946,8.91919841 41.1468447,9.10422104 41.3181947,9.51694468 L42.1177914,11.6232689 L44.202472,11.6232689 L42.9887955,9.03306275 C42.7889102,8.60611299 42.5461527,8.36418586 42.2177341,8.2360954 L42.2177341,8.2360954 Z M32.7778434,7.66680138 C32.3923265,8.2218416 32.0639079,8.79110795 31.9068393,9.06154267 L31.8639949,9.06154267 C31.9068393,8.67727128 31.9211208,8.13645719 31.9211208,7.58141696 L31.9211208,4.89160027 L30.050607,4.89160027 L30.050607,11.6232689 L31.9354023,11.6232689 L33.863042,8.84804012 C34.2342773,8.29299989 34.5769498,7.72373355 34.7340184,7.4533265 L34.7768628,7.4533265 C34.7340184,7.83759789 34.7054554,8.37838431 34.7054554,8.93345221 L34.7054554,11.6232689 L36.5902783,11.6232689 L36.5902783,4.89160027 L34.7054554,4.89160027 L32.7778434,7.66680138 Z M25.5814455,10.1858492 C25.2530269,10.1858492 25.0102971,10.1289171 24.7532859,10.043505 L24.7532859,6.3859521 C24.9674527,6.31479381 25.1673657,6.30054001 25.4100955,6.30054001 C26.5952367,6.30054001 27.3091722,6.94099233 27.3091722,8.25029385 C27.3091722,9.43156026 26.7380238,10.1858492 25.5814455,10.1858492 L25.5814455,10.1858492 Z M25.4957843,4.72083144 C24.4819932,4.72083144 23.5681446,4.9058264 22.8256462,5.16197964 L22.8256462,14.9962163 L24.7532859,14.9962163 L24.7532859,11.637495 C25.067423,11.7228794 25.395814,11.7655578 25.7242326,11.7655578 C27.9088835,11.7655578 29.2796286,10.2712337 29.2796286,8.25029385 C29.2796286,6.12977118 28.0088262,4.72083144 25.4957843,4.72083144 L25.4957843,4.72083144 Z M15.8570047,6.48556264 L17.8702779,6.48556264 L17.8702779,11.6232689 L19.7979176,11.6232689 L19.7979176,6.48556264 L21.7255296,6.48556264 L22.2252983,4.89160027 L15.8570047,4.89160027 L15.8570047,6.48556264 Z M11.180651,7.66680138 C10.7951342,8.2218416 10.4667155,8.79110795 10.3096746,9.06154267 L10.2668302,9.06154267 C10.3096746,8.67727128 10.3239284,8.13645719 10.3239284,7.58141696 L10.3239284,4.89160027 L8.45344233,4.89160027 L8.45344233,11.6232689 L10.3382099,11.6232689 L12.2658496,8.84804012 C12.637085,8.29299989 12.9797851,7.72373355 13.1368537,7.4533265 L13.1796704,7.4533265 C13.1368537,7.83759789 13.1082907,8.37838431 13.1082907,8.93345221 L13.1082907,11.6232689 L14.9930583,11.6232689 L14.9930583,4.89160027 L13.1082907,4.89160027 L11.180651,7.66680138 Z M3.68439748,10.0293065 L2.9561805,10.0293065 L2.9561805,7.36791441 L3.59870861,7.36791441 C4.18413849,7.36791441 4.69818866,7.42487425 5.05514257,7.63834913 C5.3835612,7.83759789 5.58344653,8.19338936 5.58344653,8.70572353 C5.58344653,9.60232909 5.02657961,10.0293065 3.68439748,10.0293065 L3.68439748,10.0293065 Z M6.21172084,6.28631389 C5.51206682,5.91626862 4.61249979,5.78820584 3.59870861,5.78820584 L2.9561805,5.78820584 L2.9561805,3.8241982 L6.69720806,3.8241982 L7.18266759,2.24446195 L1.00000554,2.24446195 L1.00000554,11.6232689 L3.64155305,11.6232689 C6.525858,11.6232689 7.53964918,10.3566181 7.53964918,8.67727128 C7.53964918,7.48180642 7.03988049,6.71326365 6.21172084,6.28631389 L6.21172084,6.28631389 Z" transform="translate(-1 -1)" opacity=".7"/>
</svg>
