<svg version="1.1" id="Layer_1" xmlns="http://www.w3.org/2000/svg" x="0" y="0" viewBox="0 0 675.42 603.43" style="enable-background:new 0 0 675.42 603.43" xml:space="preserve"><style>.st0{fill:#cfedfc}.st1{fill:#fff}.st2,.st4{fill:#fff;stroke:#cfedfc;stroke-width:3;stroke-linecap:round;stroke-linejoin:round;stroke-miterlimit:10}.st4{fill:none;stroke:#e6e6e6}.st5{fill:#faff88}.st9{fill:#87d3f8}</style><path class="st0" d="M507.56 424.17c-.23.71-.44 1.41-.67 2.1-5.6 16.78-8.08 33.31-8.72 50.93-.02.71-.02 1.41-.02 2.1-.23 18.03 4.92 36.05 4.83 54.1H177.89c-.69-6.6-2.12-13.07-3.76-19.48-2.94-11.51-6.26-22.86-7.33-34.62-.08-.69-.13-1.39-.17-2.1-.21-2.88-.27-5.78-.15-8.72.59-14.2 4.16-28.07 5.15-42.21.04-.69.08-1.41.13-2.1.08-1.53.13-3.07.13-4.62.02-15.86-5.65-30.5-9.1-45.69-.04-.21-.08-.4-.13-.61-.17-.69-.32-1.39-.46-2.1-2.56-12.96-2.16-25.5.95-38.49 1.01-4.2 2.18-8.32 3.42-12.44.23-.69.44-1.41.65-2.1 2.65-8.59 5.44-17.14 7.27-26.01 1.72-8.38 1.85-16.68 1.09-24.94-.08-.69-.15-1.41-.23-2.1-1.87-17.02-7.29-33.89-9.98-50.93-.13-.69-.23-1.39-.32-2.1-.65-4.41-1.11-8.84-1.24-13.3-.42-13.76 2.29-26.2 7.65-37.63.32-.69.65-1.41.99-2.1 3.91-7.82 9.08-15.17 15.29-22.16 10.48-11.79 25.97-20.55 41.3-28.76 1.3-.71 2.61-1.41 3.91-2.1 9.1-4.85 17.98-9.6 25.57-14.75 9.87-6.7 19.12-13.38 28.72-19.22 1.16-.71 2.33-1.43 3.51-2.1 9.71-5.65 19.92-10.4 31.64-13.4 31.05-7.98 63.51-3.93 91.16 13.24.08.06.19.11.27.17 1.11.69 2.23 1.39 3.32 2.1 11.22 7.14 22.06 14.77 33.91 20.8 8.09 4.12 16.39 8.07 23.95 13.17 1.01.67 2.02 1.37 2.98 2.1 1.95 1.45 3.87 2.98 5.67 4.62 13.26 12.02 19.08 28.78 20.44 46.3.06.69.1 1.39.15 2.1.57 9.52-.15 19.22-1.64 28.47-1.22 7.54-2.84 15.02-4.62 22.46-.15.69-.31 1.39-.5 2.1-2.1 8.74-4.43 17.44-6.6 26.11-2.08 8.36-3.95 16.55-4.9 24.81-.06.69-.15 1.39-.21 2.1-.71 7.58-.59 15.25.9 23.21 1.83 9.73 5.19 18.78 8.87 27.73.29.69.57 1.41.88 2.1 2.04 4.9 4.16 9.79 6.13 14.75 4.64 11.6 8.11 23.74 9.9 36.18.13.69.21 1.41.29 2.1.21 1.51.38 3.03.53 4.54 1.66 17.34-1.13 31.94-5.71 46.39z"/><path class="st1" d="M477.98 108.1H229.05c1.3-.71 2.61-1.41 3.91-2.1H475c1.01.67 2.01 1.36 2.98 2.1zM417.14 72.03h-129.9c1.16-.71 2.33-1.43 3.51-2.1h123.07c1.11.69 2.23 1.38 3.32 2.1zM504.24 161.12H171.46c.32-.69.65-1.41.99-2.1h331.64c.07.7.11 1.39.15 2.1zM497.98 212.05c-.15.69-.31 1.39-.5 2.1H165.37c-.13-.69-.23-1.39-.32-2.1h332.93zM485.98 265.08c-.06.69-.15 1.39-.21 2.1H175.58c-.08-.69-.15-1.41-.23-2.1h310.63zM496.43 320.22H166.57c.23-.69.44-1.41.65-2.1h328.32c.3.7.57 1.41.89 2.1zM512.75 373.25H162.66c-.17-.69-.32-1.39-.46-2.1h350.26c.12.69.21 1.41.29 2.1zM507.56 424.17c-.23.71-.44 1.41-.67 2.1H171.63c.04-.69.08-1.41.13-2.1h335.8zM498.17 477.2c-.02.71-.02 1.41-.02 2.1H166.8c-.08-.69-.13-1.39-.17-2.1h331.54z"/><path class="st1" d="M431.17 504.25H245.79v-364.6c0-10.97 8.89-19.86 19.86-19.86h145.66c10.97 0 19.86 8.89 19.86 19.86v364.6z"/><path class="st2" d="M325.93 308.77h-48.34c-2.92 0-5.28-2.36-5.28-5.28V150.45c0-2.92 2.36-5.28 5.28-5.28h48.34c2.92 0 5.28 2.36 5.28 5.28v153.03c0 2.92-2.36 5.29-5.28 5.29zM398.5 308.77h-48.34c-2.92 0-5.28-2.36-5.28-5.28V150.45c0-2.92 2.36-5.28 5.28-5.28h48.34c2.92 0 5.28 2.36 5.28 5.28v153.03a5.277 5.277 0 0 1-5.28 5.29zM322.59 491.39h-41.67a8.62 8.62 0 0 1-8.62-8.62V379.62a8.62 8.62 0 0 1 8.62-8.62h41.67a8.62 8.62 0 0 1 8.62 8.62v103.15c0 4.77-3.86 8.62-8.62 8.62zM395.17 491.39H353.5a8.62 8.62 0 0 1-8.62-8.62V379.62a8.62 8.62 0 0 1 8.62-8.62h41.67a8.62 8.62 0 0 1 8.62 8.62v103.15c0 4.77-3.86 8.62-8.62 8.62zM397.29 355.91H278.8a6.49 6.49 0 0 1-6.49-6.49v-14.96a6.49 6.49 0 0 1 6.49-6.49h118.5a6.49 6.49 0 0 1 6.49 6.49v14.96c0 3.58-2.91 6.49-6.5 6.49z"/><path style="fill:none;stroke:#cfedfc;stroke-width:3;stroke-linecap:round;stroke-linejoin:round;stroke-miterlimit:10" d="M262.43 319.61h29.35"/><path class="st0" d="M269.34 319.76c0 2.94-2.38 5.31-5.31 5.31s-5.31-2.38-5.31-5.31c0-2.94 2.38-5.31 5.31-5.31s5.31 2.37 5.31 5.31z"/><g><path class="st1" d="M245.79 504.37h185.38v12.61H245.79z"/><path class="st1" d="M442.83 519.08v14.18h-208.7v-14.18c0-1.16.95-2.1 2.1-2.1h204.5c1.16-.01 2.1.94 2.1 2.1z"/></g><path class="st4" d="M71.04 533.4h533.34"/><circle transform="rotate(-80.781 119.572 122.99)" class="st5" cx="119.57" cy="122.99" r="41.52"/><path class="st2" d="M112.08 188.47h74.35v0h.05c9.64 0 17.46-7.81 17.46-17.45 0-8.21-5.67-15.09-13.31-16.96.5-1.96.76-4.01.76-6.13 0-13.77-11.16-24.94-24.94-24.94-10.23 0-19.01 6.16-22.86 14.97a20.342 20.342 0 0 0-10.76-3.06c-10.69 0-19.46 8.21-20.35 18.67-.11 0-.21-.01-.32-.01-9.64 0-17.46 7.81-17.46 17.46.01 9.61 7.78 17.4 17.38 17.45z"/><path d="M521.31 240.52h32.33v0h.02c4.19 0 7.59-3.4 7.59-7.59 0-3.57-2.47-6.56-5.79-7.37.22-.85.33-1.75.33-2.67 0-5.99-4.85-10.84-10.84-10.84-4.45 0-8.27 2.68-9.94 6.51a8.872 8.872 0 0 0-4.68-1.33c-4.65 0-8.46 3.57-8.85 8.12h-.14c-4.19 0-7.59 3.4-7.59 7.59.01 4.17 3.39 7.56 7.56 7.58z" style="fill:#fff;stroke:#cfedfc;stroke-width:2.7;stroke-linecap:round;stroke-linejoin:round;stroke-miterlimit:10"/><g><path class="st1" d="M346.77 98.8h-17.83c-5.4 0-9.78-4.38-9.78-9.78 0-5.4 4.38-9.78 9.78-9.78h17.83c5.4 0 9.78 4.38 9.78 9.78 0 5.4-4.38 9.78-9.78 9.78z"/><text transform="translate(328.085 94.535)" class="st0" style="font-size:16.3225px;font-family:'CirceRoundedAlt-ExtraBold'">24</text></g><g><path class="st4" d="M247.3 516.97h182.22M271.61 517.7v15.55M304.91 517.7v15.55M405.4 517.7v15.55M247.3 503.18h182.22"/></g><g><path class="st5" d="M451.12 562.48H223.97c-1.72 0-2.71-1.3-1.7-2.25l4.18-4.7 1.26-1.41 4.29-4.81 1.26-1.41.63-.71 3.66-4.09 1.26-1.41 3-3.38c.4-.35 1.03-.58 1.7-.58h188.07c.67 0 1.3.23 1.7.58l3 3.38 1.26 1.41 3.66 4.09 1.89 2.12 4.29 4.81 1.26 1.41 4.18 4.7c1.01.95.02 2.25-1.7 2.25z"/></g><g><path class="st9" d="M403.1 515.09c.09-3.83-2.64-7.28-6.43-7.8-4.45-.6-8.35 2.82-8.47 7.2-.05 1.73-.77 15.82-11.7 18.03V513c0-11.26-8.58-20.52-19.56-21.6v.2c0-8.57-6.94-15.51-15.51-15.51h-9.85c-8.57 0-15.51 6.94-15.51 15.51v42.88c0 7.3 5.92 13.23 13.23 13.23h44.62c.23.02.45.03.67.03.39 0 .76-.02 1.13-.03h.76v-.02c21.22-1.16 26.34-21.46 26.62-32.6z"/><path class="st9" d="m356.45 455.9.02 22.73-4 1.47-15.21-13.32 13.3-13.32c2.17-2.18 5.88-.64 5.89 2.44zM321.94 453.48l13.32 13.3-15.19 13.34-4-1.46-.02-22.73c-.01-3.08 3.71-4.62 5.89-2.45z"/><path class="st9" d="m341.63 462.57-10.36.01c-8.41.01-15.22 6.83-15.21 15.23l.01 19.89c.01 8.41 6.83 15.22 15.23 15.21l10.36-.01c8.41-.01 15.22-6.83 15.21-15.23l-.01-19.89c0-8.41-6.82-15.22-15.23-15.21z"/><g><path class="st9" d="M302.37 486.93a1.501 1.501 0 0 1-.59-2.88c.17-.07.63-.27 17.61-2.95 2.88-.45 5.28-.83 7.29-1.14-2.16-.36-4.51-.74-6.86-1.13-8.32-1.38-16.64-2.77-16.64-2.77-.82-.14-1.37-.91-1.23-1.73.14-.82.9-1.37 1.73-1.23 12.77 2.14 32.13 5.36 33.15 5.46v.02c.29 0 .39.05.51.1l1.21.54-.38 1.27c-.24.79-.69 1.04-1.43 1.04h-.02v.03c-1.44.07-31.91 4.85-33.89 5.32-.16.02-.31.05-.46.05z"/></g><g><path class="st9" d="M372.65 486.25c-.07 0-.15 0-.22-.02-13.63-2.05-34.29-5.13-35.36-5.22v-.04c-.32.01-.43-.04-.54-.09l-1.2-.53.36-1.26c.23-.79.67-1.04 1.43-1.05v-.03c1.32-.08 20.4-3.43 32.9-5.67.81-.14 1.59.4 1.74 1.21.15.82-.4 1.59-1.21 1.74-11.01 1.96-18.39 3.27-23.37 4.12 2.47.37 5.21.77 7.94 1.18 8.87 1.32 17.75 2.65 17.75 2.65.82.12 1.38.89 1.26 1.71-.11.76-.75 1.3-1.48 1.3z"/></g></g></svg>