<svg width="13" height="13" viewBox="0 0 13 13" fill="none" xmlns="http://www.w3.org/2000/svg">
	<path fill-rule="evenodd" clip-rule="evenodd" d="M6.72015 12.0339C4.46207 12.1239 2.37583 10.8327 1.44898 8.77149C0.522136 6.71024 0.940654 4.29256 2.50642 2.66288C4.0722 1.0332 6.47105 0.518523 8.56745 1.36248C10.6638 2.20643 12.0372 4.23968 12.0373 6.49975C12.0955 9.49578 9.71586 11.9726 6.72015 12.0339ZM6.67006 10.7757C4.92535 10.8453 3.31342 9.84764 2.59729 8.25502C1.88116 6.6624 2.20453 4.79438 3.41432 3.53521C4.62412 2.27604 6.47759 1.87837 8.09737 2.53045C9.71716 3.18254 10.7782 4.75353 10.7783 6.49977C10.8234 8.81465 8.98469 10.7284 6.67006 10.7757ZM5.54524 4.19485C5.54524 3.81509 5.8531 3.50723 6.23286 3.50723C6.61262 3.50723 6.92048 3.81509 6.92048 4.19485V6.25765H8.29557C8.67533 6.25765 8.98319 6.56551 8.98319 6.94527C8.98319 7.32503 8.67533 7.63289 8.29557 7.63289H6.24167L6.23286 7.63295C6.14825 7.63295 6.06721 7.61767 5.99234 7.58971C5.73112 7.49223 5.54509 7.24048 5.54509 6.94527L5.54524 6.93085V4.19485Z" fill="#525C69" fill-opacity="0.4"/>
</svg>