<?xml version="1.0" encoding="UTF-8"?>
<svg width="6px" height="14px" viewBox="0 0 6 14" version="1.1" xmlns="http://www.w3.org/2000/svg" xmlns:xlink="http://www.w3.org/1999/xlink">
    <!-- Generator: Sketch 63.1 (92452) - https://sketch.com -->
    <title>touch</title>
    <desc>Created with Sketch.</desc>
    <g id="Symbols" stroke="none" stroke-width="1" fill="none" fill-rule="evenodd">
        <g id="Parts-/-Panel-/-Panel-01" fill="#525C69">
            <g id="Icons-/-Icon-small-/-Icon-01-touch">
                <path d="M2,12 L2,14 L0,14 L0,12 L2,12 Z M6,12 L6,14 L4,14 L4,12 L6,12 Z M2,8 L2,10 L0,10 L0,8 L2,8 Z M6,8 L6,10 L4,10 L4,8 L6,8 Z M2,4 L2,6 L0,6 L0,4 L2,4 Z M6,4 L6,6 L4,6 L4,4 L6,4 Z M2,0 L2,2 L0,2 L0,0 L2,0 Z M6,0 L6,2 L4,2 L4,0 L6,0 Z" id="Combined-Shape"></path>
            </g>
        </g>
    </g>
</svg>