<svg width="16" height="16" viewBox="0 0 16 16" fill="none" xmlns="http://www.w3.org/2000/svg">
	<path fill-rule="evenodd" clip-rule="evenodd" d="M11.9165 11.8659H4.08739V6.03788H11.9165V11.8659ZM11.2083 4.16199V3.79514H12.0242C12.7693 3.84209 13.3465 4.48849 13.3331 5.26255V12.5996C13.3331 13.0046 13.0165 13.3333 12.6248 13.3333H3.37913C2.98818 13.3333 2.67088 13.0046 2.67088 12.5996V5.26255C2.66804 5.2244 2.66663 5.18698 2.66663 5.14956C2.66804 4.39971 3.2559 3.79367 3.97974 3.79514H4.79565V4.16199C4.79565 4.7695 5.27089 5.26255 5.85804 5.26255C6.44519 5.26255 6.92043 4.7695 6.92043 4.16199V3.79514H9.08351V4.16199C9.08351 4.7695 9.55946 5.26255 10.1459 5.26255C10.7323 5.26255 11.2083 4.7695 11.2083 4.16199ZM6.37861 3.20964V4.01672C6.37861 4.3146 6.14559 4.55599 5.85804 4.55599C5.57049 4.55599 5.33747 4.3146 5.33747 4.01672V3.20964V3.2023C5.33889 2.90515 5.57403 2.66523 5.86158 2.66669C6.14914 2.6689 6.38003 2.91175 6.37861 3.20964ZM10.6374 3.22945V3.99471C10.6374 4.27572 10.4172 4.5039 10.1452 4.5039C9.87322 4.50317 9.65437 4.27498 9.65437 3.99397V3.22945C9.65437 2.9477 9.87463 2.72025 10.1459 2.72025C10.4172 2.72025 10.6374 2.9477 10.6374 3.22945ZM5.85619 7.35155C5.58005 7.35155 5.35619 7.57541 5.35619 7.85155V8.18266C5.35619 8.4588 5.58005 8.68266 5.85619 8.68266H6.1961C6.47224 8.68266 6.6961 8.4588 6.6961 8.18266V7.85155C6.6961 7.5754 6.47224 7.35155 6.1961 7.35155H5.85619ZM5.85619 9.34821C5.58005 9.34821 5.35619 9.57207 5.35619 9.84821V10.1793C5.35619 10.4555 5.58005 10.6793 5.85619 10.6793H6.1961C6.47224 10.6793 6.6961 10.4555 6.6961 10.1793V9.84821C6.6961 9.57207 6.47224 9.34821 6.1961 9.34821H5.85619ZM7.36605 7.85155C7.36605 7.57541 7.58991 7.35155 7.86605 7.35155H8.20596C8.4821 7.35155 8.70596 7.57541 8.70596 7.85155V8.18266C8.70596 8.4588 8.4821 8.68266 8.20596 8.68266H7.86605C7.58991 8.68266 7.36605 8.4588 7.36605 8.18266V7.85155ZM7.86605 9.34821C7.58991 9.34821 7.36605 9.57207 7.36605 9.84821V10.1793C7.36605 10.4555 7.58991 10.6793 7.86605 10.6793H8.20596C8.4821 10.6793 8.70596 10.4555 8.70596 10.1793V9.84821C8.70596 9.57207 8.4821 9.34821 8.20596 9.34821H7.86605ZM9.37592 7.85155C9.37592 7.57541 9.59977 7.35155 9.87592 7.35155H10.2158C10.492 7.35155 10.7158 7.57541 10.7158 7.85155V8.18266C10.7158 8.4588 10.492 8.68266 10.2158 8.68266H9.87592C9.59977 8.68266 9.37592 8.4588 9.37592 8.18266V7.85155Z" fill="#00ACE3"/>
</svg>