<svg width="16" height="16" viewBox="0 0 16 16" fill="none" xmlns="http://www.w3.org/2000/svg">
	<path fill-rule="evenodd" clip-rule="evenodd" d="M3.20666 4C2.54422 4 2.0072 4.53702 2.0072 5.19946V9.88771C2.0072 10.5502 2.54422 11.0872 3.20666 11.0872H11.0882C11.7506 11.0872 12.2876 10.5502 12.2876 9.88771V5.19946C12.2876 4.53702 11.7506 4 11.0882 4H3.20666ZM7.15453 9.16183C7.18744 9.3294 7.09845 9.49839 6.93714 9.55446C6.439 9.72761 5.88172 9.82993 5.2922 9.84259H5.04348C4.44965 9.82984 3.88853 9.72611 3.38761 9.55064C3.23327 9.49658 3.14311 9.33813 3.17073 9.17694C3.18706 9.08163 3.20458 8.99254 3.2224 8.92307C3.29662 8.63372 3.71413 8.41881 4.09829 8.25355C4.19888 8.21027 4.2596 8.17574 4.32095 8.14085C4.38088 8.10677 4.44141 8.07236 4.54028 8.0291C4.55151 7.97582 4.55602 7.92139 4.55372 7.86703L4.72388 7.84683C4.72388 7.84683 4.74627 7.88751 4.71035 7.64847C4.71035 7.64847 4.51913 7.5989 4.51027 7.21827C4.51027 7.21827 4.3665 7.26606 4.35783 7.03543C4.35603 6.98948 4.34416 6.9453 4.33278 6.90297C4.30549 6.80143 4.28106 6.71053 4.40546 6.63133L4.31571 6.39201C4.31571 6.39201 4.22129 5.46783 4.63508 5.54264C4.4672 5.27667 5.88304 5.05558 5.97708 5.86997C6.01408 6.11547 6.01408 6.36497 5.97708 6.61047C5.97708 6.61047 6.18859 6.58616 6.04739 6.9883C6.04739 6.9883 5.96965 7.27775 5.85026 7.21275C5.85026 7.21275 5.8696 7.57851 5.68162 7.64052C5.68162 7.64052 5.69505 7.83533 5.69505 7.84851L5.85217 7.87199C5.85217 7.87199 5.8474 8.03443 5.87875 8.05201C6.02209 8.14459 6.1792 8.21476 6.34447 8.26001C6.83229 8.38383 7.08002 8.59631 7.08002 8.78233L7.15453 9.16183ZM7.51394 6.26146C7.51394 6.01827 7.71108 5.82112 7.95428 5.82112H10.0929C10.3361 5.82112 10.5332 6.01827 10.5332 6.26146C10.5332 6.50465 10.3361 6.70179 10.0929 6.70179H7.95428C7.71108 6.70179 7.51394 6.50465 7.51394 6.26146ZM7.51394 7.79661C7.51394 7.55342 7.71108 7.35628 7.95428 7.35628H9.46388C9.70707 7.35628 9.90421 7.55342 9.90421 7.79661C9.90421 8.0398 9.70707 8.23695 9.46388 8.23695H7.95428C7.71109 8.23695 7.51394 8.0398 7.51394 7.79661Z" fill="#00ACE3"/>
	<path d="M3.70376 11.5462C3.75854 12.1579 4.27248 12.6373 4.8984 12.6373H12.7799C13.4423 12.6373 13.9793 12.1003 13.9793 11.4378V6.74959C13.9793 6.1258 13.5032 5.61322 12.8945 5.55553V6.54363C13.0392 6.65311 13.1328 6.82677 13.1328 7.02228V11.1653C13.1328 11.4966 12.8643 11.7651 12.5331 11.7651H5.14552C4.95892 11.7651 4.79223 11.6799 4.68223 11.5462H3.70376Z" fill="#00ACE3"/>
</svg>