<svg xmlns="http://www.w3.org/2000/svg" width="19" height="19" viewBox="0 0 19 19">
  <g fill="none" fill-rule="evenodd">
    <circle cx="9.5" cy="9.5" r="9.5" fill="#A8ADB4" fill-rule="nonzero" opacity=".5"/>
	  <path
		  d="M12.1253351,8.67969423 C13.7581528,8.67969423 15.0818131,10.0033545 15.0818131,11.6361722 C15.0818131,12.2594939 14.8889161,12.8377621 14.5595606,13.314538 L15.5878177,14.3441148 C15.7729255,14.5292226 15.7886052,14.8214505 15.6477458,15.0261632 L15.587611,15.0984481 C15.3792505,15.3068085 15.0394239,15.3048009 14.8332777,15.0986548 L13.8037009,14.0703978 C13.326925,14.3997532 12.7486568,14.5926502 12.1253351,14.5926502 C10.4925174,14.5926502 9.16885712,13.26899 9.16885712,11.6361722 C9.16885712,10.0033545 10.4925174,8.67969423 12.1253351,8.67969423 Z M11.3337199,4.03883634 C11.4271998,4.65901487 11.4271998,5.28931995 11.3337199,5.90949848 L11.3914674,5.91195643 C11.5106949,5.93008798 11.7571088,6.04503044 11.5604753,6.71234864 L11.4810932,6.96079603 C11.4151007,7.15376219 11.245349,7.55728187 11.0133592,7.43097665 L11.0137834,7.57090917 C11.0119288,7.63477102 11.0070538,7.71571359 10.9956709,7.80343569 C9.31803665,8.27264091 8.08829057,9.81227943 8.08829057,11.6391405 C8.08829057,12.556733 8.39853503,13.4018639 8.91985034,14.0753598 L4.01306503,14.0744725 L4.09373319,13.4109041 C4.16216882,12.886552 4.26628917,12.1747904 4.37484114,11.7515966 C4.53890262,11.111997 5.36692348,10.6163796 6.22150363,10.2228024 L6.58752003,10.0602516 C7.08984363,9.84407882 7.19863629,9.71437517 7.70408888,9.49324108 C7.72299479,9.40351035 7.73436251,9.31248583 7.73811611,9.22108383 L7.73802641,9.08381225 L8.16790181,9.0327813 L8.17699897,9.03907132 C8.1881985,9.03382275 8.19853842,8.96301876 8.13372358,8.53168577 L8.088996,8.51379193 C7.96876891,8.45532762 7.64645826,8.22617934 7.62827099,7.44491565 L7.5851699,7.45343786 C7.49709199,7.46336674 7.30072913,7.44479701 7.25282499,7.09741698 L7.24316425,6.98303835 C7.22894493,6.61884315 6.96410999,6.29873385 7.2736748,6.02865671 L7.36351011,5.9621832 L7.13677852,5.35760826 L7.12469541,5.19820567 C7.09331691,4.67512116 7.06550489,3.05318309 7.94357713,3.21194603 C7.51947834,2.54003859 11.0961572,1.98153325 11.3337199,4.03883634 Z M12.1253351,9.70065198 C11.0563768,9.70065198 10.1898149,10.5672139 10.1898149,11.6361722 C10.1898149,12.7051306 11.0563768,13.5716925 12.1253351,13.5716925 C13.1942934,13.5716925 14.0608554,12.7051306 14.0608554,11.6361722 C14.0608554,10.5672139 13.1942934,9.70065198 12.1253351,9.70065198 Z"
		  transform="translate(0, 0)" fill="#FFF" fill-rule="evenodd"/>
  </g>
</svg>
