<svg width="100%" height="100%" viewBox="0 0 100% 100%" fill="none" xmlns="http://www.w3.org/2000/svg"
	 xmlns:xlink="http://www.w3.org/1999/xlink">

	<svg y="0" height="100%" width="100%">
		<rect opacity="0.8" width="100%" height="60" rx="10" fill="white" />
	</svg>

	<svg width="100%" height="100%" id="animated-elements">
		<defs>
			<g id="block-animated-1">
				<rect x="6" y="6" width="48" height="48" rx="8" fill="#bdc1c6" />
				<rect x="85" y="28" width="50" height="6" rx="2" fill="#bdc1c6" />
				<rect x="257" y="28" width="76" height="6" rx="2" fill="#bdc1c6" />
				<rect x="167" y="28" width="50" height="6" rx="2" fill="#bdc1c6" />
				<rect x="373" y="28" width="50" height="6" rx="2" fill="#bdc1c6" />
				<rect x="463" y="28" width="50" height="6" rx="2" fill="#bdc1c6" />
			</g>

			<g id="block-animated-2">
				<rect x="10" y="76" width="193" height="39" rx="19.5" fill="#bdc1c6" />
				<rect x="214" y="76" width="212" height="39" rx="19.5" fill="#edeef0" />
				<rect x="100%" y="79" width="38" height="33" rx="16.5" fill="#edeef0" transform="translate(-50, 0)" />
			</g>
			<g id="block-animated-3">
				<rect x="22" y="145" width="76" height="6" rx="2" fill="#edeef0" />
				<rect x="100%" y="145" width="138" height="6" rx="2" fill="#edeef0" transform="translate(-292, 0)" />
				<rect x="100%" y="131" width="127" height="32" rx="16" fill="#edeef0" transform="translate(-139, 0)"  />
			</g>
		</defs>
		<use xlink:href="#block-animated-1"></use>
		<use xlink:href="#block-animated-2"></use>
		<use xlink:href="#block-animated-3"></use>
	</svg>


	<svg viewBox="0 0 652 350" x="0" y="188" preserveAspectRatio="xMinYMin meet">
		<defs>
			<svg id="a" viewBox="0 0 182 182" xmlns="http://www.w3.org/2000/svg" xmlns:xlink="http://www.w3.org/1999/xlink"
				 preserveAspectRatio="xMinYMin meet">
				<rect width="182" height="182" rx="10" fill="white"/>
			</svg>

			<g id="b">
				<use xlink:href="#a" width="100" height="100" />
				<use xlink:href="#a" width="100" height="100" x="110" />
				<use xlink:href="#a" width="100" height="100" x="220" />
				<use xlink:href="#a" width="100" height="100" x="330" />
				<use xlink:href="#a" width="100" height="100" x="440" />
				<use xlink:href="#a" width="100" height="100" x="550" />

			</g>
		</defs>

		<use xlink:href="#b" />
		<use xlink:href="#b" y="110" />
		<use xlink:href="#b" y="220" />
		<use xlink:href="#b" y="330" />
	</svg>

	<svg viewBox="0 0 652 350" x="0" y="188" id="animated-elements-2" preserveAspectRatio="xMinYMin meet">
		<defs>
			<svg id="c" viewBox="0 0 182 182" xmlns="http://www.w3.org/2000/svg" xmlns:xlink="http://www.w3.org/1999/xlink"
				 preserveAspectRatio="xMinYMin meet">
				<rect x="17" y="160" width="120" height="6" rx="2" fill="#e5e5e5"/>
				<path d="M37 40H91.5L100.5 49.2069H145V129H37V40Z" fill="#e5e5e5"/>
				<circle cx="20" cy="18" r="10" fill="#e5e5e5"/>
			</svg>

			<g id="e">
				<use xlink:href="#c" width="100" height="100" />
				<use xlink:href="#c" width="100" height="100" x="110" />
				<use xlink:href="#c" width="100" height="100" x="220" />
				<use xlink:href="#c" width="100" height="100" x="330" />
				<use xlink:href="#c" width="100" height="100" x="440" />
				<use xlink:href="#c" width="100" height="100" x="550" />

			</g>
		</defs>

		<use xlink:href="#e" />
		<use xlink:href="#e" y="110" />
		<use xlink:href="#e" y="220" />
		<use xlink:href="#e" y="330" />
	</svg>


	<rect id="msk1" width="100%" fill="url(#msk_gd)" mask="url(#headerMsk)" height="100%"/>

	<mask id="headerMsk" fill="white">
		<use xlink:href="#animated-elements"/>
		<use xlink:href="#animated-elements-2"/>
	</mask>

	<linearGradient x1="66.6%" y1="50%" x2="33.3%" y2="50%" id="msk_gd">
		<stop stop-color="#000000" stop-opacity="0" offset="0%"/>
		<stop stop-color="#000000" stop-opacity="0.07" offset="50%"/>
		<stop stop-color="#000000" stop-opacity="0" offset="100%"/>
	</linearGradient>

	<animate xlink:href="#msk1" attributeName="x" from="-100%" to="100%" dur="1s" begin="0s" repeatCount="indefinite"/>
</svg>