<svg width="100%" height="100%" viewBox="0 0 100% 100%" fill="none" xmlns="http://www.w3.org/2000/svg"
	 xmlns:xlink="http://www.w3.org/1999/xlink">
	<svg y="0" height="100%" width="100%">
		<defs>
			<g id="block-1">
				<rect opacity="0.2" x="1" y="3" width="100%" height="94" rx="6" fill="white" />
				<rect width="100%" height="93" rx="6" fill="white" />

				<rect width="100%" height="1" x="10" y="52" fill="#e5e5e5" />
				<rect width="10" height="3" x="100%" y="51" fill="white" transform="translate(-10, 0)" />
			</g>
			<g id="block-2">
				<rect width="100%" height="93" rx="6" fill="white" />

				<rect width="100%" height="1" x="10" y="52" fill="#e5e5e5" />
				<rect width="10" height="3" x="100%" y="51" fill="white" transform="translate(-10, 0)" />
			</g>
		</defs>
		<use xlink:href="#block-1" ></use>
		<use xlink:href="#block-2" y="105" ></use>
		<use xlink:href="#block-2" y="208" ></use>
		<use xlink:href="#block-1" y="310" ></use>
	</svg>

	<svg width="100%" height="100%" id="animated-elements">
		<defs>
			<g id="block-animated-1">
				<circle cx="25" cy="72" r="10" fill="#e5e5e5" />
				<rect x="15" y="18" width="106" height="6" rx="2" fill="#e5e5e5" />
				<rect x="42" y="70" width="106" height="6" rx="2" fill="#e5e5e5" />
				<rect x="100%" y="63" width="26" height="19" rx="9.5" fill="#e5e5e5" transform="translate(-40, 0)"  />
			</g>
		</defs>

		<use xlink:href="#block-animated-1"></use>
		<use xlink:href="#block-animated-1" y="105" ></use>
		<use xlink:href="#block-animated-1" y="208" ></use>
		<use xlink:href="#block-animated-1" y="310" ></use>
	</svg>

	<rect id="msk1" width="100%" fill="url(#msk_gd)" mask="url(#headerMsk)" height="100%"/>

	<mask id="headerMsk" fill="white">
		<use xlink:href="#animated-elements"/>
	</mask>

	<linearGradient x1="66.6%" y1="50%" x2="33.3%" y2="50%" id="msk_gd">
		<stop stop-color="#000000" stop-opacity="0" offset="0%"/>
		<stop stop-color="#000000" stop-opacity="0.07" offset="50%"/>
		<stop stop-color="#000000" stop-opacity="0" offset="100%"/>
	</linearGradient>

	<animate xlink:href="#msk1" attributeName="x" from="-100%" to="100%" dur="1s" begin="0s" repeatCount="indefinite"/>
</svg>