<svg width="20" height="20" viewBox="0 0 20 20" fill="none" xmlns="http://www.w3.org/2000/svg">
<path fill-rule="evenodd" clip-rule="evenodd" d="M15.3383 6.27898C15.5702 6.04711 15.5702 5.67035 15.3383 5.43848C15.1064 5.20661 14.7297 5.20661 14.4978 5.43848L13.8149 6.12142C12.9335 5.39982 11.8434 4.92646 10.6498 4.80679L10.649 4.4986H11.4338C11.7623 4.4986 12.0283 4.23256 12.0283 3.90408C12.0283 3.57561 11.7623 3.30957 11.4338 3.30957H8.67524C8.34676 3.30957 8.08073 3.57561 8.08073 3.90408C8.08073 4.23256 8.34676 4.4986 8.67524 4.4986H9.46V4.80679C6.45984 5.10554 4.10938 7.6441 4.10938 10.7215C4.10938 13.9994 6.7766 16.6666 10.0545 16.6666C13.3324 16.6666 15.9997 13.9994 15.9997 10.7215C15.9997 9.29614 15.4943 7.98673 14.6553 6.96188L15.3383 6.27898ZM12.6177 11.5063H10.0546C9.72608 11.5063 9.46004 11.2403 9.46004 10.9118V7.67458C9.46004 7.3461 9.72608 7.08006 10.0546 7.08006C10.383 7.08006 10.6491 7.3461 10.6491 7.67458V10.3173H12.6177C12.9461 10.3173 13.2122 10.5833 13.2122 10.9118C13.2122 11.2403 12.9461 11.5063 12.6177 11.5063Z" fill="#008DBA"/>
</svg>
