<svg width="24" height="24" viewBox="0 0 24 24" fill="none" xmlns="http://www.w3.org/2000/svg">
<path fill-rule="evenodd" clip-rule="evenodd" d="M12 20C16.4183 20 20 16.4183 20 12C20 7.58172 16.4183 4 12 4C7.58172 4 4 7.58172 4 12C4 16.4183 7.58172 20 12 20ZM11.1892 8C10.9803 8 10.811 8.18522 10.811 8.41371V11.9549H8.22735C8.01996 11.9549 7.92127 12.2342 8.07472 12.3868L11.4913 15.7848C11.7797 16.0717 12.2203 16.0717 12.5087 15.7848L15.9253 12.3868C16.0787 12.2342 15.98 11.9549 15.7727 11.9549H13.189V8.41371C13.189 8.18522 13.0197 8 12.8108 8H11.1892Z" fill="#525C69"/>
</svg>
