<svg width="24" height="24" viewBox="0 0 24 24" fill="none" xmlns="http://www.w3.org/2000/svg">
<path fill-rule="evenodd" clip-rule="evenodd" d="M20.495 4.99343C20.9769 4.29375 20.3439 2.98535 19.2295 3.72794C17.0065 5.2093 12.4986 8.82462 10.2862 11.6932C9.97794 12.0928 10.1671 12.1663 10.5277 12.3063C10.7871 12.407 11.135 12.542 11.4506 12.8576C11.7543 13.1613 11.9063 13.5477 12.0267 13.8538C12.2053 14.308 12.3144 14.5854 12.7464 14.1534C15.5003 11.3995 20.0131 5.6931 20.495 4.99343ZM6.09832 15.6267C5.94918 16.0411 5.81274 16.4202 5.59251 16.6871C5.14221 17.2329 4.30919 17.6505 3.71311 17.9493C3.40029 18.1061 3.15272 18.2302 3.05997 18.323C2.79049 18.5925 6.15807 19.745 8.00926 18.9451C9.86045 18.1452 10.8002 17.1852 11.171 15.9314C11.5418 14.6777 10.1148 12.5676 8.13305 13.2499C6.78693 13.7134 6.41415 14.7492 6.09832 15.6267Z" fill="#525C69"/>
</svg>
