<svg width="24" height="24" viewBox="0 0 24 24" fill="none" xmlns="http://www.w3.org/2000/svg">
<path fill-rule="evenodd" clip-rule="evenodd" d="M10.294 7V8.819L7.572 8.81928C6.03035 8.81928 4.78059 10.069 4.78059 11.6107C4.78059 13.0952 5.93949 14.3091 7.40196 14.397L7.572 14.4021L10.294 14.402V16.221L7.61069 16.2214C5.06427 16.2214 3 14.1571 3 11.6107C3 9.06427 5.06427 7 7.61069 7H10.294ZM16.1138 7C18.6602 7 20.7245 9.06427 20.7245 11.6107C20.7245 14.1571 18.6602 16.2214 16.1138 16.2214L13.43 16.221V14.402L16.1525 14.4021C17.6941 14.4021 18.9439 13.1523 18.9439 11.6107C18.9439 10.069 17.6941 8.81928 16.1525 8.81928L13.43 8.819V7H16.1138ZM8.26418 10.6689H15.4601C15.9805 10.6689 16.4023 11.0908 16.4023 11.6111C16.4023 12.1314 15.9805 12.5533 15.4601 12.5533H8.26418C7.74384 12.5533 7.32202 12.1314 7.32202 11.6111C7.32202 11.0908 7.74384 10.6689 8.26418 10.6689Z" fill="#525C69"/>
</svg>
