<svg width="24" height="24" viewBox="0 0 24 24" fill="none" xmlns="http://www.w3.org/2000/svg">
<path fill-rule="evenodd" clip-rule="evenodd" d="M12 20C16.4183 20 20 16.4183 20 12C20 7.58172 16.4183 4 12 4C7.58172 4 4 7.58172 4 12C4 16.4183 7.58172 20 12 20ZM15.4032 9.45514C14.1427 8.8787 12.6729 8.78643 11.2908 9.31487C8.98638 10.196 7.65158 12.5253 7.89005 14.9124L9.60649 14.8466C9.40306 13.1903 10.3169 11.5577 11.9148 10.9467C12.8558 10.5869 13.8565 10.6493 14.7149 11.0412L14.064 12.5398L17.2675 11.315L16.0165 8.043L15.4032 9.45514Z" fill="#525C69"/>
</svg>
