<svg width="24" height="24" viewBox="0 0 24 24" fill="none" xmlns="http://www.w3.org/2000/svg">
	<path d="M7.77089 5.79683H15.7537C16.8582 5.79683 17.7537 6.69226 17.7537 7.79683V16.0345H17.9674C19.072 16.0345 19.9674 15.1391 19.9674 14.0345V6.04102C19.9674 4.93645 19.072 4.04102 17.9675 4.04102H9.75616C8.73326 4.04102 7.89114 4.80851 7.77089 5.79683Z" fill="#525C69"/>
	<path fill-rule="evenodd" clip-rule="evenodd" d="M4.02295 9.95065C4.02295 8.84608 4.91838 7.95065 6.02295 7.95065H14.0283C15.1329 7.95065 16.0283 8.84608 16.0283 9.95065V17.956C16.0283 19.0606 15.1329 19.956 14.0283 19.956H6.02295C4.91838 19.956 4.02295 19.0606 4.02295 17.956V9.95065ZM13.9505 10.0287H6.10085V17.8784H13.9505V10.0287Z" fill="#525C69"/>
</svg>