<svg width="24" height="24" viewBox="0 0 24 24" fill="none" xmlns="http://www.w3.org/2000/svg">
<path d="M15.6648 7.62127C15.4695 7.42601 15.1529 7.42601 14.9577 7.62127L12.0001 10.5788L9.04233 7.62106C8.84706 7.42579 8.53048 7.42579 8.33522 7.62106L7.62164 8.33464C7.42638 8.5299 7.42638 8.84648 7.62164 9.04174L10.5794 11.9995L7.62142 14.9575C7.42616 15.1528 7.42616 15.4693 7.62142 15.6646L8.335 16.3782C8.53027 16.5735 8.84685 16.5735 9.04211 16.3782L12.0001 13.4202L14.9579 16.378C15.1531 16.5732 15.4697 16.5732 15.665 16.378L16.3786 15.6644C16.5738 15.4691 16.5738 15.1526 16.3786 14.9573L13.4208 11.9995L16.3783 9.04196C16.5736 8.8467 16.5736 8.53011 16.3783 8.33485L15.6648 7.62127Z" fill="#525C69"/>
</svg>
