<svg width="24" height="24" viewBox="0 0 24 24" fill="none" xmlns="http://www.w3.org/2000/svg">
<path fill-rule="evenodd" clip-rule="evenodd" d="M5.92765 7.20047C5.65428 7.47384 5.65428 7.91706 5.92765 8.19042L9.73728 12.0001L5.92766 15.8097C5.65429 16.083 5.65429 16.5263 5.92766 16.7996L7.20045 18.0724C7.47382 18.3458 7.91704 18.3458 8.1904 18.0724L12 14.2628L15.8096 18.0724C16.083 18.3458 16.5262 18.3458 16.7996 18.0724L18.0724 16.7996C18.3457 16.5263 18.3457 16.083 18.0724 15.8097L14.2628 12.0001L18.0724 8.19042C18.3458 7.91706 18.3458 7.47384 18.0724 7.20047L16.7996 5.92768C16.5262 5.65431 16.083 5.65431 15.8097 5.92768L12 9.73731L8.19039 5.92768C7.91703 5.65431 7.47381 5.65431 7.20044 5.92768L5.92765 7.20047Z" fill="#525C69"/>
</svg>
