<svg width="24" height="24" viewBox="0 0 24 24" fill="none" xmlns="http://www.w3.org/2000/svg">
<path d="M15.3005 6.7489L12 10.0494L8.69945 6.7489C8.09936 6.1488 7.34924 6.1488 6.74914 6.7489C6.14905 7.34899 6.14905 8.09911 6.74914 8.69921L10.0497 11.9997L6.74914 15.3003C6.14905 15.9003 6.14905 16.6505 6.74914 17.2506C7.34924 17.8507 8.09936 17.8507 8.69945 17.2506L12 13.95L15.3005 17.2506C15.9006 17.8507 16.6507 17.8507 17.2508 17.2506C17.8509 16.6505 17.8509 15.9003 17.2508 15.3003L13.9503 11.9997L17.2508 8.69921C17.8509 8.09911 17.8509 7.34899 17.2508 6.7489C16.6507 6.29883 15.7506 6.29883 15.3005 6.7489Z" fill="#525C69"/>
</svg>
