<svg width="24" height="24" viewBox="0 0 24 24" fill="none" xmlns="http://www.w3.org/2000/svg">
<path fill-rule="evenodd" clip-rule="evenodd" d="M11.8622 8.74905C14.6237 8.74905 16.8622 10.9876 16.8622 13.7491C16.8622 16.5105 14.6237 18.7491 11.8622 18.7491C9.10081 18.7491 6.86223 16.5105 6.86223 13.7491C6.86223 10.9876 9.10081 8.74905 11.8622 8.74905ZM13.9662 10.5928L11.8622 12.6967L9.75828 10.5928L8.7063 11.6448L10.8103 13.7487L8.7063 15.8527L9.75828 16.9047L11.8622 14.8007L13.9662 16.9047L15.0182 15.8527L12.9142 13.7487L15.0182 11.6448L13.9662 10.5928ZM10.294 5V6.819L7.572 6.81928C6.03035 6.81928 4.78059 8.06903 4.78059 9.61069C4.78059 10.604 5.29945 11.4762 6.08093 11.9709C5.9077 12.5319 5.81457 13.1296 5.81457 13.7491L5.81699 13.8595C4.16162 13.1598 3 11.5209 3 9.61069C3 7.06427 5.06427 5 7.61069 5H10.294ZM16.1138 5C18.6602 5 20.7245 7.06427 20.7245 9.61069C20.7245 11.5209 19.5628 13.1598 17.9075 13.8595L17.9099 13.7491C17.9099 13.1296 17.8168 12.5319 17.6437 11.9692C18.4253 11.4757 18.9439 10.6038 18.9439 9.61069C18.9439 8.06903 17.6941 6.81928 16.1525 6.81928L13.43 6.819V5H16.1138Z" fill="#525C69"/>
</svg>
