<svg width="24" height="24" viewBox="0 0 24 24" fill="none" xmlns="http://www.w3.org/2000/svg">
	<path d="M10.5814 3.41563C10.5814 3.19471 10.7605 3.01562 10.9814 3.01562H13.016C13.2369 3.01562 13.416 3.19471 13.416 3.41562V9.84546H16.1266C16.3998 9.84546 16.5308 10.1809 16.3299 10.3661L12.2139 14.1591C12.099 14.265 11.9221 14.265 11.8073 14.1591L7.6913 10.3661C7.49038 10.1809 7.62138 9.84546 7.8946 9.84546H10.5814V3.41563Z" fill="#8DBB00"/>
	<path d="M3.94299 12.1218C3.94299 11.9009 4.12208 11.7218 4.34299 11.7218H6.16309C6.38401 11.7218 6.56309 11.9009 6.56309 12.1218V15.3898C6.56309 15.942 7.01081 16.3898 7.56309 16.3898H16.4369C16.9892 16.3898 17.4369 15.942 17.4369 15.3898V12.1218C17.4369 11.9009 17.616 11.7218 17.8369 11.7218H19.657C19.8779 11.7218 20.057 11.9009 20.057 12.1218V16.665C20.057 17.9353 19.0273 18.965 17.757 18.965H6.24299C4.97274 18.965 3.94299 17.9353 3.94299 16.665V12.1218Z" fill="#8DBB00"/>
</svg>