<svg width="24" height="24" viewBox="0 0 24 24" fill="none" xmlns="http://www.w3.org/2000/svg">
	<path d="M7.94499 4.5C7.94499 4.22386 8.16885 4 8.44499 4H10.5891C10.8653 4 11.0891 4.22386 11.0891 4.5V9.24026H14.5054C14.7796 9.24026 14.9101 9.57779 14.7072 9.76224L10.1897 13.869C9.80832 14.2158 9.22582 14.2158 8.8444 13.869L4.32696 9.76224C4.12406 9.57779 4.25455 9.24026 4.52876 9.24026H7.94499V4.5Z" fill="#8DBB00"/>
	<path d="M4 17.5117C4 17.2356 4.22386 17.0117 4.5 17.0117H19.5052C19.7814 17.0117 20.0052 17.2356 20.0052 17.5117V18.5117C20.0052 18.7879 19.7814 19.0117 19.5052 19.0117H4.5C4.22386 19.0117 4 18.7879 4 18.5117V17.5117Z" fill="#8DBB00"/>
	<path d="M13.4414 13.869L12.754 13.2441L16.7578 9.24026H19.1024C19.3766 9.24026 19.5071 9.57779 19.3042 9.76224L14.7867 13.869C14.4053 14.2158 13.8228 14.2158 13.4414 13.869Z" fill="#8DBB00"/>
	<path d="M13 7.99805H15.6861V4.5C15.6861 4.22386 15.4623 4 15.1861 4H13.042C12.9427 4 12.8503 4.0289 12.7725 4.07875C12.9095 4.16794 13 4.32242 13 4.49805V7.99805Z" fill="#8DBB00"/>
</svg>