<svg width="24" height="24" viewBox="0 0 24 24" fill="none" xmlns="http://www.w3.org/2000/svg">
<path d="M9.94499 4.50195C9.94499 4.22581 10.1688 4.00195 10.445 4.00195H12.5891C12.8653 4.00195 13.0891 4.22581 13.0891 4.50195V9.24222H16.5054C16.7796 9.24222 16.9101 9.57974 16.7072 9.7642L12.1897 13.871C11.8083 14.2177 11.2258 14.2177 10.8444 13.871L6.32696 9.7642C6.12406 9.57974 6.25455 9.24222 6.52876 9.24222H9.94499V4.50195Z" fill="#525C69"/>
<path d="M6 17.5134C6 17.2373 6.22386 17.0134 6.5 17.0134H16.5052C16.7814 17.0134 17.0052 17.2373 17.0052 17.5134V18.5134C17.0052 18.7896 16.7814 19.0134 16.5052 19.0134H6.5C6.22386 19.0134 6 18.7896 6 18.5134V17.5134Z" fill="#525C69"/>
</svg>
