<svg width="24" height="24" viewBox="0 0 24 24" fill="none" xmlns="http://www.w3.org/2000/svg">
<path fill-rule="evenodd" clip-rule="evenodd" d="M10.7586 5.28594C10.7586 5.02617 11.0663 4.88918 11.2593 5.063L18.0098 11.1415C18.1863 11.3004 18.1863 11.5771 18.0098 11.736L11.2593 17.8145C11.0663 17.9883 10.7586 17.8513 10.7586 17.5915V13.7843C7.37176 14.2667 4.52546 16.6215 3.27923 17.808C3.06585 18.0111 2.71485 17.834 2.77917 17.5465C3.28834 15.2706 5.11049 9.61904 10.7586 8.74667V5.28594ZM14.8085 17.5929V16.0857L19.6376 11.7374C19.8141 11.5785 19.8141 11.3017 19.6376 11.1429L14.8085 6.79448V5.28732C14.8085 5.02755 15.1162 4.89055 15.3093 5.06438L22.0597 11.1429C22.2362 11.3017 22.2362 11.5785 22.0597 11.7374L15.3093 17.8158C15.1162 17.9897 14.8085 17.8527 14.8085 17.5929Z" fill="#525C69"/>
</svg>
