<svg width="24" height="24" viewBox="0 0 24 24" fill="none" xmlns="http://www.w3.org/2000/svg">
<path d="M11.9187 6.61314C11.7101 6.90203 11.2563 6.79445 11.1996 6.44263L11.0014 5.21406C10.6122 5.26052 10.2218 5.3437 9.83431 5.4658C6.87362 6.39877 5.07427 9.29255 5.41605 12.2657C5.44475 12.5154 5.25645 12.7449 5.00512 12.7449L4.05808 12.7448C3.86017 12.7448 3.69091 12.6 3.6698 12.4032C3.26563 8.63503 5.55474 4.97969 9.30826 3.79689C9.77783 3.64891 10.2508 3.54579 10.7226 3.4851L10.5086 2.15822C10.4518 1.80641 10.8488 1.56162 11.1377 1.77026L13.6254 3.56697C13.8045 3.69631 13.8448 3.94635 13.7155 4.12544L11.9187 6.61314Z" fill="#95C500"/>
<path fill-rule="evenodd" clip-rule="evenodd" d="M7.4884 18.5155L7.49177 12.5039C7.69888 10.2882 9.00178 7.94201 12.0544 7.57265L18.44 7.57623C19.246 7.57668 19.899 8.23044 19.8985 9.03644L19.8932 18.5225C19.8928 19.3285 19.239 19.9815 18.433 19.981L8.94697 19.9757C8.14097 19.9753 7.48795 19.3215 7.4884 18.5155ZM8.98575 18.1544C8.98565 18.3334 9.13068 18.4786 9.30967 18.4787L18.1148 18.4836C18.2938 18.4837 18.439 18.3387 18.4391 18.1597L18.4392 17.8776C18.4393 17.7996 18.4112 17.7242 18.3602 17.6653L16.165 15.1291C16.0358 14.9799 15.8045 14.9798 15.6751 15.1288L14.9038 16.0178C14.7745 16.1669 14.5431 16.1667 14.414 16.0176L11.7543 12.9452C11.6251 12.796 11.3938 12.7959 11.2645 12.9449L9.06643 15.4783C9.01533 15.5372 8.98718 15.6125 8.98713 15.6905L8.98575 18.1544ZM16.2964 12.389C16.97 12.3893 17.5164 11.8436 17.5167 11.17C17.5171 10.4964 16.9713 9.94999 16.2977 9.94962C15.6241 9.94924 15.0778 10.495 15.0774 11.1686C15.077 11.8422 15.6228 12.3886 16.2964 12.389Z" fill="#95C500"/>
</svg>
