<svg width="24" height="24" viewBox="0 0 24 24" fill="none" xmlns="http://www.w3.org/2000/svg">
<path d="M12.0863 6.61314C12.2949 6.90203 12.7487 6.79445 12.8055 6.44263L13.0036 5.21404C13.3928 5.2605 13.7832 5.34368 14.1706 5.46577C17.1313 6.39873 18.9307 9.29251 18.5889 12.2657C18.5602 12.5154 18.7485 12.7448 18.9998 12.7448L19.9469 12.7448C20.1448 12.7447 20.314 12.6 20.3351 12.4032C20.7393 8.635 18.4502 4.97965 14.6967 3.79685C14.2271 3.64889 13.7542 3.54577 13.2825 3.48508L13.4965 2.15822C13.5532 1.80641 13.1563 1.56162 12.8674 1.77026L10.3797 3.56697C10.2006 3.69631 10.1602 3.94635 10.2896 4.12544L12.0863 6.61314Z" fill="#95C500"/>
<path fill-rule="evenodd" clip-rule="evenodd" d="M16.5109 18.5225L16.5145 12.5038L16.5132 12.5038C16.3064 10.2923 15.0082 7.95083 11.9678 7.57482L5.57247 7.57097C4.76651 7.57049 4.11275 8.22346 4.11226 9.02943L4.10657 18.5151C4.10608 19.3211 4.75906 19.9748 5.56502 19.9753L15.0507 19.981C15.8566 19.9815 16.5104 19.3285 16.5109 18.5225ZM5.60388 18.154C5.60377 18.333 5.74879 18.4782 5.92778 18.4783L14.7327 18.4836C14.9117 18.4837 15.0569 18.3387 15.057 18.1597L15.0571 17.8776C15.0572 17.7996 15.0291 17.7243 14.9781 17.6653L12.7831 15.1292C12.6539 14.98 12.4225 14.9799 12.2932 15.1289L11.5219 16.0178C11.3925 16.1669 11.1612 16.1667 11.032 16.0176L8.37256 12.9453C8.24341 12.7961 8.01205 12.796 7.88273 12.945L5.68467 15.4781C5.63356 15.537 5.6054 15.6123 5.60536 15.6903L5.60388 18.154ZM12.9144 12.3889C13.588 12.3893 14.1344 11.8436 14.1348 11.17C14.1352 10.4964 13.5895 9.95007 12.9159 9.94967C12.2423 9.94926 11.6959 10.495 11.6955 11.1686C11.6951 11.8421 12.2409 12.3885 12.9144 12.3889Z" fill="#95C500"/>
</svg>
