<svg width="28" height="28" viewBox="0 0 28 28" fill="none" xmlns="http://www.w3.org/2000/svg">
<path opacity="0.9" fill-rule="evenodd" clip-rule="evenodd" d="M22.7125 17.3316V20.0994H19.8659V17.3316H22.7125ZM22.6778 15.5467H19.8119V12.7788H22.6778V15.5467ZM17.9348 12.7788V15.5467H15.0241V12.7788H17.9348ZM8.29712 8.22609V10.9329H5.38635V8.22609H8.29712ZM17.9248 17.3297V20.0975H10.2386V17.3297H17.9248ZM8.29739 17.3297V20.0975H5.38662V17.3297H8.29739ZM13.0831 12.7769V15.5448H10.2365V12.7769H13.0831ZM8.29531 12.7769V15.5448H5.38454V12.7769H8.29531ZM22.7081 8.22421V10.931H19.8616V8.22421H22.7081ZM17.9305 8.22421V10.931H15.0197V8.22421H17.9305ZM13.0785 8.22421V10.931H10.2319V8.22421H13.0785ZM25.5485 7.25877C25.5485 6.1542 24.6531 5.25877 23.5485 5.25877L4.45143 5.25885C3.34686 5.25885 2.45143 6.15428 2.45143 7.25885V20.7415C2.45143 21.846 3.34687 22.7415 4.45144 22.7415L23.5485 22.7414C24.6531 22.7414 25.5485 21.8459 25.5485 20.7414V7.25877Z" fill="#525C69"/>
</svg>
