<svg width="24" height="24" viewBox="0 0 24 24" fill="none" xmlns="http://www.w3.org/2000/svg">
<path fill-rule="evenodd" clip-rule="evenodd" d="M8.93968 5.19922L8.95675 8.02922L11.0944 8.02976C13.4729 8.02976 15.4139 9.90282 15.5229 12.2544L15.5277 12.4631V12.5919C15.5277 14.9704 13.6547 16.9114 11.3031 17.0204L11.0944 17.0252H7.68808C7.52881 17.0252 7.37151 17.0168 7.21658 17.0004L6.98604 16.9699L6.98675 15.0212L10.8942 15.0212L11.0573 15.016C12.2972 14.9355 13.2888 13.9439 13.3693 12.7039L13.3746 12.5408L13.3693 12.3777C13.2888 11.1378 12.2972 10.1462 11.0573 10.0657L10.8942 10.0604L8.96975 10.0602L8.98683 13.1082L4.77838 9.13142L8.93968 5.19922ZM18.9823 7.08691V16.7485H16.9739V7.08691H18.9823Z" fill="#525C69"/>
</svg>
