<svg width="24" height="24" viewBox="0 0 24 24" fill="none" xmlns="http://www.w3.org/2000/svg">
<path fill-rule="evenodd" clip-rule="evenodd" d="M20.0314 12.0002C20.0314 16.4359 16.4356 20.0317 12 20.0317C7.56431 20.0317 3.96851 16.4359 3.96851 12.0002C3.96851 7.56456 7.56431 3.96875 12 3.96875C16.4356 3.96875 20.0314 7.56456 20.0314 12.0002ZM18.2784 12.0002C18.2784 15.4677 15.4675 18.2787 12 18.2787C8.53246 18.2787 5.7215 15.4677 5.7215 12.0002C5.7215 8.53271 8.53246 5.72175 12 5.72175C15.4675 5.72175 18.2784 8.53271 18.2784 12.0002ZM11 11.0002V11H13V11.0002H16V13.0002H14V13H9.99997V13.0002H7.99996V11.0002H11ZM11 16V16.0002H13V16H11Z" fill="#525C69"/>
</svg>
