<svg width="24" height="24" viewBox="0 0 24 24" fill="none" xmlns="http://www.w3.org/2000/svg">
	<path fill-rule="evenodd" clip-rule="evenodd" d="M8.50001 6.75001C8.50001 7.71651 7.71651 8.50001 6.75001 8.50001C5.7835 8.50001 5 7.71651 5 6.75001C5 5.7835 5.7835 5 6.75001 5C7.71651 5 8.50001 5.7835 8.50001 6.75001ZM8.50001 12C8.50001 12.9665 7.71651 13.75 6.75001 13.75C5.7835 13.75 5 12.9665 5 12C5 11.0335 5.7835 10.25 6.75001 10.25C7.71651 10.25 8.50001 11.0335 8.50001 12ZM6.75001 19C7.71651 19 8.50001 18.2165 8.50001 17.25C8.50001 16.2835 7.71651 15.5 6.75001 15.5C5.7835 15.5 5 16.2835 5 17.25C5 18.2165 5.7835 19 6.75001 19ZM13.75 6.75001C13.75 7.71651 12.9665 8.50001 12 8.50001C11.0335 8.50001 10.25 7.71651 10.25 6.75001C10.25 5.7835 11.0335 5 12 5C12.9665 5 13.75 5.7835 13.75 6.75001ZM12 13.75C12.9665 13.75 13.75 12.9665 13.75 12C13.75 11.0335 12.9665 10.25 12 10.25C11.0335 10.25 10.25 11.0335 10.25 12C10.25 12.9665 11.0335 13.75 12 13.75ZM13.75 17.25C13.75 18.2165 12.9665 19 12 19C11.0335 19 10.25 18.2165 10.25 17.25C10.25 16.2835 11.0335 15.5 12 15.5C12.9665 15.5 13.75 16.2835 13.75 17.25ZM17.25 8.50001C18.2165 8.50001 19 7.71651 19 6.75001C19 5.7835 18.2165 5 17.25 5C16.2835 5 15.5 5.7835 15.5 6.75001C15.5 7.71651 16.2835 8.50001 17.25 8.50001ZM19 12C19 12.9665 18.2165 13.75 17.25 13.75C16.2835 13.75 15.5 12.9665 15.5 12C15.5 11.0335 16.2835 10.25 17.25 10.25C18.2165 10.25 19 11.0335 19 12ZM17.25 19C18.2165 19 19 18.2165 19 17.25C19 16.2835 18.2165 15.5 17.25 15.5C16.2835 15.5 15.5 16.2835 15.5 17.25C15.5 18.2165 16.2835 19 17.25 19Z" fill="#525C69"/>
</svg>
