<svg width="24" height="24" viewBox="0 0 24 24" fill="none" xmlns="http://www.w3.org/2000/svg">
	<path fill-rule="evenodd" clip-rule="evenodd" d="M6.7945 4.55629L13.3872 11.3653C13.5266 11.5076 13.6101 11.7452 13.6101 11.9994C13.6101 12.2536 13.5266 12.4911 13.3872 12.6335L6.7945 19.4425C6.63919 19.6063 6.4363 19.6253 6.2688 19.4917C6.1013 19.358 5.99726 19.0942 5.99923 18.8081V5.19071C5.99789 4.90498 6.10202 4.64192 6.26928 4.50849C6.43653 4.37506 6.63906 4.3935 6.7945 4.55629ZM16.0484 11.3653L12.0429 7.22838V5.19071C12.0416 4.90498 12.1457 4.64192 12.313 4.50849C12.4802 4.37507 12.6827 4.3935 12.8382 4.55629L19.4309 11.3653C19.5702 11.5076 19.6538 11.7452 19.6538 11.9994C19.6538 12.2536 19.5702 12.4911 19.4309 12.6335L12.8382 19.4425C12.6829 19.6063 12.48 19.6253 12.3125 19.4917C12.145 19.358 12.0409 19.0942 12.0429 18.8081V16.7704L16.0484 12.6335C16.1878 12.4911 16.2713 12.2536 16.2713 11.9994C16.2713 11.7452 16.1878 11.5076 16.0484 11.3653Z" fill="#8DBB00"/>
</svg>