<svg width="24" height="24" viewBox="0 0 24 24" fill="none" xmlns="http://www.w3.org/2000/svg">
<path d="M7.93726 4.9375H10.0055V7.18574H8.1855C7.63321 7.18574 7.1855 7.63346 7.1855 8.18574V15.8122C7.1855 16.3645 7.63321 16.8122 8.1855 16.8122H15.812C16.3643 16.8122 16.812 16.3645 16.812 15.8122V14.5903H19.0624V16.0627C19.0624 17.7195 17.7193 19.0627 16.0624 19.0627H7.93725C6.2804 19.0627 4.93726 17.7195 4.93726 16.0627V7.9375C4.93726 6.28064 6.2804 4.9375 7.93726 4.9375Z" fill="#525C69"/>
<path d="M12.988 5.66387C12.799 5.47488 12.9329 5.15174 13.2001 5.15174H17.8782C18.4305 5.15174 18.8782 5.59945 18.8782 6.15174V10.8298C18.8782 11.0971 18.5551 11.2309 18.3661 11.042L16.3898 9.06566L11.8936 13.5619C11.6983 13.7572 11.3817 13.7572 11.1864 13.5619L10.3441 12.7196C10.1489 12.5243 10.1489 12.2077 10.3441 12.0125L14.8404 7.51625L12.988 5.66387Z" fill="#525C69"/>
</svg>
