<svg width="24" height="24" viewBox="0 0 24 24" fill="none" xmlns="http://www.w3.org/2000/svg">
<path d="M10 5H7C5.89543 5 5 5.89543 5 7V15C5 16.1046 5.89543 17 7 17H7.94978V19.6906C7.94978 20.2252 8.59607 20.4929 8.97405 20.1149L12.0889 17H17C18.1046 17 19 16.1046 19 15V14H16.8019C16.7164 14.4655 16.3086 14.8183 15.8183 14.8183H8.18168C7.6294 14.8183 7.18168 14.3706 7.18168 13.8183V8.18168C7.18168 7.6294 7.6294 7.18168 8.18168 7.18168H10V5Z" fill="#525C69"/>
<path d="M19.0001 5.4C19.0001 5.17909 18.821 5 18.6001 5H12.3127C12.0455 5 11.9116 5.3232 12.1007 5.51217L14.45 7.86067L11.2181 11.0935C11.1009 11.2107 11.1009 11.4006 11.2181 11.5177L12.5408 12.8405C12.658 12.9576 12.8479 12.9576 12.9651 12.8404L16.1965 9.60833L18.4879 11.8997C18.6769 12.0886 19.0001 11.9548 19.0001 11.6875V5.4Z" fill="#525C69"/>
</svg>
