<svg width="24" height="24" viewBox="0 0 24 24" fill="none" xmlns="http://www.w3.org/2000/svg">
<path fill-rule="evenodd" clip-rule="evenodd" d="M9.94083 5V7.46983L8.63725 7.47059C8.03895 7.47059 7.54583 7.92097 7.47844 8.5012L7.47059 8.63725V15.3627C7.47059 15.9611 7.92097 16.4542 8.5012 16.5216L8.63725 16.5294H15.3627C15.9611 16.5294 16.4542 16.079 16.5216 15.4988L16.5294 15.3627L16.529 14.058H19V16.6667C19 17.9553 17.9553 19 16.6667 19H7.33333C6.04467 19 5 17.9553 5 16.6667V7.33333C5 6.04467 6.04467 5 7.33333 5H9.94083ZM18.6 5C18.8209 5 19 5.17909 19 5.4V11.6875C19 11.9548 18.6769 12.0886 18.4879 11.8997L16.1964 9.60833L12.965 12.8404C12.8479 12.9576 12.6579 12.9576 12.5408 12.8405L11.218 11.5177C11.1009 11.4006 11.1009 11.2107 11.218 11.0935L14.4499 7.86067L12.1006 5.51217C11.9116 5.3232 12.0454 5 12.3127 5H18.6Z" fill="#525C69"/>
</svg>
