<svg width="24" height="24" viewBox="0 0 24 24" fill="none" xmlns="http://www.w3.org/2000/svg">
<path d="M10.0364 5.78516C10.0364 5.50901 9.81256 5.28516 9.53641 5.28516H7.07605C6.79991 5.28516 6.57605 5.50901 6.57605 5.78516V18.2148C6.57605 18.491 6.79991 18.7148 7.07605 18.7148H9.53641C9.81256 18.7148 10.0364 18.491 10.0364 18.2148V5.78516Z" fill="#525C69"/>
<path d="M17.4515 5.78516C17.4515 5.50901 17.2276 5.28516 16.9515 5.28516H14.4911C14.215 5.28516 13.9911 5.50901 13.9911 5.78516V18.2148C13.9911 18.491 14.215 18.7148 14.4911 18.7148H16.9515C17.2276 18.7148 17.4515 18.491 17.4515 18.2148V5.78516Z" fill="#525C69"/>
</svg>
