<svg width="24" height="24" viewBox="0 0 24 24" fill="none" xmlns="http://www.w3.org/2000/svg">
	<path d="M16.2619 3.92923C16.5707 3.71775 16.9818 3.76314 17.2465 4.0278L19.2414 6.02274C19.5061 6.2874 19.5514 6.6985 19.34 7.00731C19.1412 7.29756 18.8627 7.69334 18.5146 8.1612L19.2226 8.86923C19.9009 9.54745 19.9483 10.6315 19.3318 11.3664L15.5875 15.8299C15.3568 16.1049 14.9468 16.1408 14.6718 15.9101C14.3967 15.6794 14.3608 15.2694 14.5915 14.9944L18.3359 10.5309C18.5191 10.3124 18.505 9.9901 18.3034 9.78847L17.715 9.20009C17.091 9.98427 16.3393 10.8689 15.4893 11.757C15.2219 12.0363 14.7781 12.036 14.5047 11.7626L11.5066 8.7645C11.2332 8.49113 11.2329 8.04725 11.5122 7.77993C13.4451 5.92982 15.3614 4.54588 16.2619 3.92923Z" fill="#8DBB00"/>
	<path d="M6.07268 18.6675C7.87551 17.9771 9.57667 17.0379 11.0318 15.7692C11.8017 15.0981 12.7112 14.2728 13.6642 13.3399C13.8998 13.1093 13.9259 12.7566 13.7248 12.5555L10.7143 9.54501C10.5132 9.34388 10.1605 9.37004 9.92986 9.60564C9.00092 10.5544 8.17844 11.46 7.50855 12.2275C6.23337 13.6883 5.28974 15.3969 4.5971 17.2081L4.01039 18.7423C3.87647 19.0938 4.17598 19.3933 4.52745 19.2593L6.07268 18.6675Z" fill="#8DBB00"/>
</svg>