<svg width="24" height="24" viewBox="0 0 24 24" fill="none" xmlns="http://www.w3.org/2000/svg">
<path fill-rule="evenodd" clip-rule="evenodd" d="M14.8299 4.20224C14.5643 3.93386 14.1312 3.93241 13.8638 4.19901L5.39243 12.6458L7.85614 15.1355L16.3312 6.68501C16.5971 6.41983 16.5986 5.98952 16.3344 5.72257L14.8299 4.20224ZM4.07348 16.4536C4.01025 16.3888 3.98528 16.2956 4.00858 16.2074L4.75077 13.4542L7.07387 15.7766L4.31977 16.5185C4.23157 16.5435 4.13838 16.5185 4.07348 16.4536ZM5.57593 18.7481L4.87915 17.9937C4.96845 18.0007 5.05871 18.0042 5.14981 18.0042C6.61392 18.0042 7.86399 17.0877 8.35761 15.7972L8.60264 15.6233C9.13845 15.2433 9.86416 15.2765 10.3629 15.7041L11.8792 17.0037L13.387 15.8548C14.1129 15.3018 15.1455 15.4184 15.7296 16.1194L16.2787 16.7783L18.5329 15.6189C19.0352 15.3606 19.6519 15.5584 19.9102 16.0607C20.1685 16.563 19.9708 17.1797 19.4684 17.438L16.9712 18.7223C16.2613 19.0874 15.3932 18.9109 14.8821 18.2976L14.3671 17.6797L12.7242 18.9314C12.1872 19.3406 11.4372 19.319 10.9246 18.8796L9.39542 17.5689L7.45624 18.9445C6.86919 19.3609 6.06427 19.2768 5.57593 18.7481Z" fill="#525C69"/>
</svg>
