<svg width="24" height="24" viewBox="0 0 24 24" fill="none" xmlns="http://www.w3.org/2000/svg">
	<path d="M6.01904 3.9834C4.91447 3.9834 4.01904 4.87883 4.01904 5.9834V14.9971C4.01904 16.1016 4.91447 16.9971 6.01904 16.9971H9.3147V14.7442H6.27138V6.23526H14.7803V9.55485H17.0327V5.9834C17.0327 4.87883 16.1373 3.9834 15.0327 3.9834H6.01904Z" fill="#525C69"/>
	<path fill-rule="evenodd" clip-rule="evenodd" d="M11.0922 13.0216C11.0922 11.9171 11.9876 11.0216 13.0922 11.0216H18.0325C19.137 11.0216 20.0325 11.9171 20.0325 13.0216V17.962C20.0325 19.0665 19.137 19.962 18.0325 19.962H13.0922C11.9876 19.962 11.0922 19.0665 11.0922 17.962V13.0216ZM13.0389 12.9689H18.0853V18.0153H13.0389V12.9689Z" fill="#525C69"/>
</svg>