<svg width="24" height="24" viewBox="0 0 24 24" fill="none" xmlns="http://www.w3.org/2000/svg">
<path fill-rule="evenodd" clip-rule="evenodd" d="M12 20.0317C16.4356 20.0317 20.0315 16.4359 20.0315 12.0002C20.0315 7.56456 16.4356 3.96875 12 3.96875C7.56434 3.96875 3.96854 7.56456 3.96854 12.0002C3.96854 16.4359 7.56434 20.0317 12 20.0317ZM12 18.2787C15.4675 18.2787 18.2785 15.4677 18.2785 12.0002C18.2785 8.53271 15.4675 5.72175 12 5.72175C8.5325 5.72175 5.72153 8.53271 5.72153 12.0002C5.72153 15.4677 8.5325 18.2787 12 18.2787ZM11 11.0002V8.00021H13V11.0002H16V13.0002H13V16.0002H11V13.0002H7.99999V11.0002H11Z" fill="#525C69"/>
</svg>
