<svg width="24" height="24" viewBox="0 0 24 24" fill="none" xmlns="http://www.w3.org/2000/svg">
<path fill-rule="evenodd" clip-rule="evenodd" d="M20 11.9567V6.08705L18.3131 7.7744C16.9398 6.08359 14.8491 5 12.5002 5C8.35791 5 5 8.35791 5 12.5002C5 16.6426 8.35791 20 12.5002 20C14.2671 20 15.8878 19.3849 17.1698 18.363L15.2692 16.0309C14.506 16.6302 13.5458 16.9911 12.5002 16.9911C10.0201 16.9911 8.00938 14.9804 8.00938 12.5002C8.00938 10.0201 10.0201 8.00889 12.5002 8.00889C14.0178 8.00889 15.3586 8.76321 16.1711 9.91591L14.1303 11.9567H20Z" fill="#525C69"/>
</svg>
