<svg width="24" height="24" viewBox="0 0 24 24" fill="none" xmlns="http://www.w3.org/2000/svg">
<path fill-rule="evenodd" clip-rule="evenodd" d="M6.70486 6.61184C3.72891 9.58779 3.72891 14.4128 6.70486 17.3887C9.68081 20.3647 14.5058 20.3647 17.4817 17.3887C17.5804 17.29 17.6759 17.1892 17.7681 17.0866L16.1121 15.4308C16.0226 15.5354 15.9283 15.6373 15.8293 15.7363C13.766 17.7997 10.4206 17.7997 8.35724 15.7363C6.29388 13.673 6.29388 10.3276 8.35724 8.26423C10.4206 6.20086 13.766 6.20086 15.8293 8.26423L15.9124 8.3501L13.6975 10.5659H19.5273V4.7361L17.566 6.69746L17.4817 6.61184V6.61184C14.5058 3.6359 9.68081 3.6359 6.70486 6.61184Z" fill="#525C69"/>
</svg>
