<svg width="24" height="24" viewBox="0 0 24 24" fill="none" xmlns="http://www.w3.org/2000/svg">
<path fill-rule="evenodd" clip-rule="evenodd" d="M8.55355 11.5893C8.74255 11.7783 8.60866 12.1015 8.34137 12.1014L6.6503 12.1012C6.64171 13.5161 7.17718 14.9336 8.25671 16.0132C9.75968 17.5161 11.9179 17.9645 13.8118 17.3584C13.9623 17.3102 14.1279 17.3777 14.1934 17.5215L15.0105 19.3171C15.0813 19.4728 15.0081 19.6565 14.8471 19.714C12.0094 20.7272 8.71657 20.0977 6.44439 17.8255C4.86472 16.2458 4.07901 14.1728 4.08726 12.1024L2.5221 12.1018C2.25489 12.1017 2.12114 11.7786 2.31009 11.5897L5.21987 8.67991C5.33703 8.56275 5.52698 8.56275 5.64414 8.67991L8.55355 11.5893ZM17.826 6.44432C19.3937 8.01203 20.1795 10.0656 20.1832 12.1203L21.7414 12.1205C22.0087 12.1205 22.1425 12.4437 21.9535 12.6326L19.0439 15.5422C18.9268 15.6594 18.7368 15.6594 18.6197 15.5422L15.7102 12.6328C15.5212 12.4438 15.6551 12.1207 15.9224 12.1207L17.6202 12.1209C17.6166 10.7219 17.0811 9.32402 16.0137 8.25664C14.2811 6.52399 11.6776 6.19286 9.61214 7.26325C9.45743 7.34342 9.26366 7.28756 9.18554 7.13181L8.30674 5.37971C8.23504 5.23676 8.28791 5.06209 8.42986 4.98845C11.461 3.41583 15.2828 3.90113 17.826 6.44432Z" fill="#525C69"/>
</svg>
