<svg width="24" height="24" viewBox="0 0 24 24" fill="none" xmlns="http://www.w3.org/2000/svg">
<path fill-rule="evenodd" clip-rule="evenodd" d="M6.30788 10.8896L9.62125 14.203L7.32451 14.2027L7.32534 15.6468C7.32534 16.1056 7.66868 16.4843 8.11245 16.5398L8.22534 16.5468H15.5197C15.9785 16.5468 16.3572 16.2035 16.4127 15.7597L16.4197 15.6468L16.4196 15.1427L18.6686 15.3387L18.6694 15.5965C18.6694 17.3638 17.2367 18.7965 15.4694 18.7965H8.27564C6.50833 18.7965 5.07564 17.3638 5.07564 15.5965L5.07551 14.2027L2.99451 14.203L6.30788 10.8896ZM15.4694 5.20312C17.2367 5.20312 18.6694 6.63581 18.6694 8.40313L18.6685 9.82412L20.8806 9.82496L17.5672 13.1383L14.2539 9.82496L16.4195 9.82412L16.4197 8.35283C16.4197 7.85577 16.0168 7.45283 15.5197 7.45283H8.22534C7.76652 7.45283 7.38789 7.79616 7.33236 8.23993L7.32534 8.35283L7.32464 8.73113L5.07564 8.53413V8.40313C5.07564 6.63581 6.50833 5.20312 8.27564 5.20312H15.4694Z" fill="#525C69"/>
</svg>
