<svg width="24" height="25" viewBox="0 0 24 25" fill="none" xmlns="http://www.w3.org/2000/svg">
	<path d="M5.47893 8.87589C5.3791 8.85101 5.31379 8.75418 5.33439 8.65338C5.64177 7.14919 6.97249 6.01758 8.56752 6.01758H15.4324C17.2549 6.01758 18.7324 7.49504 18.7324 9.31758V10.9412H20.6024C20.8696 10.9412 21.0035 11.2643 20.8145 11.4533L18.1327 14.1351C18.0156 14.2522 17.8256 14.2522 17.7085 14.1351L15.0267 11.4533C14.8377 11.2643 14.9716 10.9412 15.2388 10.9412H16.9809V9.76841C16.9809 8.66384 16.0854 7.76841 14.9809 7.76841H9.019C8.15456 7.76841 7.4182 8.31683 7.1389 9.08473C7.10126 9.18823 6.99392 9.25352 6.88706 9.22689L5.47893 8.87589Z" fill="#8DBB00"/>
	<path d="M5.26752 14.5598H3.32709C3.05982 14.5598 2.92597 14.2367 3.11496 14.0477L5.79672 11.3659C5.91388 11.2487 6.10383 11.2487 6.22099 11.3659L8.90275 14.0477C9.09174 14.2366 8.95789 14.5598 8.69062 14.5598H7.019V15.7303C7.019 16.8348 7.91443 17.7303 9.019 17.7303H14.9809C15.8453 17.7303 16.5816 17.1819 16.8609 16.4141C16.8986 16.3106 17.0059 16.2453 17.1128 16.2719L18.5212 16.623C18.621 16.6479 18.6863 16.7447 18.6657 16.8455C18.3588 18.3502 17.0278 19.4824 15.4324 19.4824H8.56752C6.74498 19.4824 5.26752 18.005 5.26752 16.1824V14.5598Z" fill="#8DBB00"/>
</svg>