<svg width="24" height="24" viewBox="0 0 24 24" fill="none" xmlns="http://www.w3.org/2000/svg">
<path d="M18.3904 7.34987C18.5471 7.19415 18.5471 6.94167 18.3904 6.78594L15.4952 3.90861C15.2424 3.6574 14.8103 3.83532 14.8103 4.19057V6.22604H8.62279C6.41864 6.22604 4.63184 8.01285 4.63184 10.217V12.6359H6.11208V10.4148C6.11208 8.92361 7.32091 7.71478 8.81207 7.71478H14.8103V9.94524C14.8103 10.3005 15.2424 10.4784 15.4952 10.2272L18.3904 7.34987Z" fill="#525C69"/>
<path d="M5.49558 16.7473C5.33889 16.9031 5.33889 17.1556 5.49558 17.3113L8.50447 20.3016C8.75723 20.5528 9.18942 20.3749 9.18942 20.0196L9.18942 17.8054H15.377C17.5811 17.8054 19.3679 16.0186 19.3679 13.8145V11.3955H17.9132V13.5187C17.9132 15.0099 16.7043 16.2187 15.2132 16.2187H9.18942V14.039C9.18942 13.6838 8.75723 13.5059 8.50447 13.7571L5.49558 16.7473Z" fill="#525C69"/>
</svg>
