<svg width="24" height="24" viewBox="0 0 24 24" fill="none" xmlns="http://www.w3.org/2000/svg">
<path fill-rule="evenodd" clip-rule="evenodd" d="M5.38898 18.599C5.3108 18.6772 5.18405 18.6772 5.10587 18.599C5.06833 18.5614 5.04724 18.5105 5.04724 18.4574V14.2019C5.04724 14.0913 5.13687 14.0017 5.24743 14.0017H9.50295C9.61351 14.0017 9.70314 14.0913 9.70314 14.2019C9.70314 14.255 9.68205 14.3059 9.64451 14.3434L8.28401 15.7039C9.23875 16.6691 10.5639 17.2671 12.0288 17.2671C14.3177 17.2671 16.2656 15.8071 16.9921 13.7676L19.0621 14.6301C17.9963 17.4788 15.2494 19.5069 12.0288 19.5069C9.94544 19.5069 8.0603 18.6582 6.70022 17.2877L5.38898 18.599ZM12.0288 6.73296C9.7548 6.73296 7.8174 8.17394 7.07987 10.1926L5.01038 9.33029C6.08675 6.50244 8.82311 4.49316 12.0288 4.49316C14.0469 4.49316 15.879 5.28951 17.228 6.5851L18.5528 5.26031C18.631 5.18213 18.7578 5.18213 18.8359 5.26031C18.8735 5.29785 18.8946 5.34877 18.8946 5.40186V9.65738C18.8946 9.76794 18.8049 9.85757 18.6944 9.85757H14.4389C14.3283 9.85757 14.2387 9.76794 14.2387 9.65738C14.2387 9.60429 14.2598 9.55337 14.2973 9.51583L15.6438 8.16934C14.7005 7.27885 13.4284 6.73296 12.0288 6.73296Z" fill="#525C69"/>
</svg>
