<svg width="24" height="24" viewBox="0 0 24 24" fill="none" xmlns="http://www.w3.org/2000/svg">
<path fill-rule="evenodd" clip-rule="evenodd" d="M13.7882 5.50721C13.6274 5.25001 13.4102 5.03277 13.153 4.87193C12.2164 4.28626 10.9825 4.57069 10.3968 5.50721L8.695 8.2285L10.601 9.32893L12.0924 6.94451L13.6277 9.39959L11.6942 10.5159L16.2729 11.7428L17.4998 7.16401L15.5341 8.29894L13.7882 5.50721ZM4.54071 14.8715L5.94459 12.6266L4 11.5039L8.57877 10.277L9.80565 14.8558L7.85025 13.7268L6.59639 15.7315H9.65253V17.9319H6.23643C5.13186 17.9319 4.23643 17.0365 4.23643 15.9319C4.23643 15.5569 4.34187 15.1895 4.54071 14.8715ZM14.9116 15.7315V13.6654L11.5597 17.0173L14.9116 20.3692V17.9319H17.9486C18.3236 17.9319 18.6911 17.8265 19.009 17.6277C19.9456 17.042 20.23 15.808 19.6443 14.8715L18.2474 12.6378L16.341 13.7384L17.5874 15.7315H14.9116Z" fill="#525C69"/>
</svg>
