<svg width="24" height="24" viewBox="0 0 24 24" fill="none" xmlns="http://www.w3.org/2000/svg">
<path fill-rule="evenodd" clip-rule="evenodd" d="M9.81059 14.1475L8.10235 15.8552C9.09674 16.8618 10.4777 17.4855 12.0044 17.4855C14.2299 17.4855 16.1457 16.1602 17.0058 14.2557L19.4102 15.1561C18.183 18.0324 15.3292 20.0485 12.0044 20.0485C9.77044 20.0485 7.74904 19.1383 6.29088 17.6684L4.67166 19.2864V14.1475H9.81059ZM12.0045 3.95215C14.2216 3.95215 16.2292 4.84865 17.6848 6.29891L19.2989 4.68524V9.82417H14.1599L15.8729 8.1116C14.8811 7.12493 13.514 6.51515 12.0045 6.51515C9.44123 6.51515 7.28864 8.27342 6.68701 10.6497L4.24954 9.84057C5.19322 6.44454 8.30779 3.95215 12.0045 3.95215Z" fill="#525C69"/>
</svg>
