<svg width="24" height="25" viewBox="0 0 24 25" fill="none" xmlns="http://www.w3.org/2000/svg">
	<path fill-rule="evenodd" clip-rule="evenodd" d="M6.68913 20.9536C7.14262 21.2688 7.76579 21.1567 8.08101 20.7032L18.14 6.23162C18.4552 5.77813 18.3431 5.15497 17.8896 4.83975L17.4672 4.54615C17.0137 4.23094 16.3905 4.34303 16.0753 4.79653L6.01636 19.2681C5.70115 19.7216 5.81324 20.3448 6.26674 20.66L6.68913 20.9536ZM7.28962 14.7348L5.96572 16.6394C5.12907 15.4433 4.63835 13.9874 4.63835 12.4149L2.14685 12.4147L5.83305 8.71768L9.15509 12.051L8.90288 12.4138H6.75246C6.75246 13.2475 6.94562 14.0351 7.28962 14.7348ZM17.3197 12.4134L15.4742 12.4146L15.0304 13.0531L18.0955 16.1602L21.8531 12.4153H19.4338C19.4338 10.9406 19.0022 9.56494 18.2585 8.40888L16.905 10.3562C17.172 10.9891 17.3197 11.6844 17.3197 12.4134ZM10.4582 19.631L11.8146 17.6795C11.8881 17.6826 11.9619 17.6841 12.0361 17.6841C13.2878 17.6841 14.4374 17.2497 15.3423 16.5228L16.8431 18.0245C15.5499 19.1308 13.8712 19.7991 12.0362 19.7991C11.4946 19.7991 10.9667 19.7411 10.4582 19.631ZM12.5663 7.1434L13.89 5.239C13.2975 5.0855 12.6762 5.00382 12.0359 5.00382C10.1458 5.00382 8.42095 5.71271 7.11338 6.87857L8.61246 8.37674C9.53448 7.59109 10.7301 7.11698 12.036 7.11698C12.215 7.11698 12.3919 7.12593 12.5663 7.1434Z" fill="#8DBB00"/>
</svg>