<svg width="24" height="24" viewBox="0 0 24 24" fill="none" xmlns="http://www.w3.org/2000/svg">
<path fill-rule="evenodd" clip-rule="evenodd" d="M14.8139 11.8548L17.7324 11.8529C17.7324 8.93516 15.3665 6.55653 12.4488 6.55653C11.1429 6.55653 9.9472 7.03063 9.02518 7.81628L7.5261 6.31811C8.83367 5.15226 10.5586 4.44336 12.4487 4.44336C16.5341 4.44336 19.8465 7.76938 19.8465 11.8548H22.2658L18.5082 15.5997L14.8139 11.8548ZM5.05107 11.8544L2.55957 11.8543L6.24577 8.15723L9.92943 11.8534H7.16518C7.16518 14.7711 9.5311 17.1236 12.4488 17.1236C13.7005 17.1236 14.8501 16.6893 15.755 15.9623L17.2559 17.4641C15.9626 18.5703 14.2839 19.2386 12.4489 19.2386C8.36344 19.2386 5.05107 15.9399 5.05107 11.8544Z" fill="#525C69"/>
</svg>
