<svg width="24" height="24" viewBox="0 0 24 24" fill="none" xmlns="http://www.w3.org/2000/svg">
	<path fill-rule="evenodd" clip-rule="evenodd" d="M14.2049 5.28594C14.2049 5.02617 13.8972 4.88918 13.7042 5.063L6.95366 11.1415C6.77721 11.3004 6.77721 11.5771 6.95366 11.736L13.7042 17.8145C13.8972 17.9883 14.2049 17.8513 14.2049 17.5915V13.7843C17.5917 14.2667 20.438 16.6215 21.6843 17.808C21.8977 18.0111 22.2486 17.834 22.1843 17.5465C21.6752 15.2706 19.853 9.61904 14.2049 8.74667V5.28594ZM10.155 17.5929V16.0857L5.32587 11.7374C5.14942 11.5785 5.14942 11.3017 5.32587 11.1429L10.155 6.79448V5.28732C10.155 5.02755 9.84729 4.89055 9.65425 5.06438L2.90376 11.1429C2.7273 11.3017 2.7273 11.5785 2.90375 11.7374L9.65424 17.8158C9.84728 17.9897 10.155 17.8527 10.155 17.5929Z" fill="#8DBB00"/>
</svg>