<svg width="24" height="24" viewBox="0 0 24 24" fill="none" xmlns="http://www.w3.org/2000/svg">
<path fill-rule="evenodd" clip-rule="evenodd" d="M20 13.4427V11.5547H18.1723C18.0307 10.6667 17.6909 9.84813 17.1902 9.14543L18.4722 7.86486L17.1375 6.53024L15.8555 7.81081C15.1579 7.30373 14.3444 6.95882 13.4576 6.80695V5H11.572V6.8018C10.6762 6.94723 9.85499 7.28829 9.14965 7.79279L7.87541 6.51866L6.53939 7.85457L7.81363 9.12613C7.30264 9.83398 6.96027 10.6577 6.81354 11.5547H5V13.4427H6.81483C6.96542 14.3308 7.31037 15.148 7.8162 15.8494L6.52909 17.1338L7.86382 18.4685L9.15094 17.1815C9.85885 17.6834 10.68 18.0206 11.5707 18.166V20H13.4563V18.1596C14.3419 18.0129 15.1527 17.668 15.8504 17.166L17.1439 18.4607L18.4825 17.1248L17.1825 15.8275C17.6819 15.1326 18.023 14.3218 18.171 13.4414H19.9987L20 13.4427ZM12.4975 15.9987C10.5665 15.9987 9 14.4316 9 12.5C9 10.5646 10.5665 9 12.4987 9C14.4348 9 16 10.5671 16 12.5013C16 14.4329 14.4335 16 12.5 16L12.4975 15.9987Z" fill="#525C69"/>
</svg>
