<svg width="24" height="24" viewBox="0 0 24 24" fill="none" xmlns="http://www.w3.org/2000/svg">
<path fill-rule="evenodd" clip-rule="evenodd" d="M13.6681 4.66027L13.8349 6.51408C14.06 6.58937 14.2789 6.67812 14.4907 6.77938L15.8982 5.56227C16.8978 6.16902 17.745 7.002 18.3686 7.99009L17.1763 9.41855C17.2813 9.62873 17.374 9.84619 17.4532 10.07L19.3095 10.2036C19.5471 11.1728 19.5968 12.2156 19.4179 13.2913L19.3462 13.6671L17.497 13.8344C17.4226 14.0642 17.334 14.2877 17.2323 14.5037L18.4552 15.9183C17.8527 16.9196 17.0204 17.7664 16.0308 18.3862L14.5948 17.1884C14.3801 17.2942 14.1578 17.387 13.9289 17.4656L13.7945 19.3156L13.6507 19.3498C12.4957 19.5954 11.373 19.5756 10.3321 19.3399L10.1645 17.4859C9.93974 17.4106 9.72111 17.322 9.50958 17.2209L8.10187 18.4379C7.10195 17.831 6.25457 16.9977 5.6309 16.0092L6.82363 14.5813C6.71864 14.3713 6.62606 14.1539 6.54685 13.9303L4.69035 13.796C4.4529 12.8269 4.40324 11.7841 4.58219 10.7087L4.65379 10.3331L6.51422 10.1648C6.59149 9.94993 6.68571 9.73671 6.79483 9.52725L5.59916 8.14559C6.22503 7.18236 7.08198 6.31325 8.03799 5.67031L9.44084 6.84082C9.64738 6.72865 9.85789 6.63083 10.0704 6.54937L10.2045 4.68461L10.3486 4.65055C11.5038 4.40468 12.6268 4.42446 13.6681 4.66027ZM11.1742 8.32431C9.8893 8.59777 8.59809 9.88908 8.32468 11.174C7.74653 13.8914 10.1076 16.2531 12.8255 15.6751C14.2511 15.3719 15.3722 14.2508 15.6755 12.8252C16.2536 10.1072 13.8917 7.74593 11.1742 8.32431Z" fill="#525C69"/>
</svg>
