<svg width="24" height="24" viewBox="0 0 24 24" fill="none" xmlns="http://www.w3.org/2000/svg">
<path fill-rule="evenodd" clip-rule="evenodd" d="M13.663 18.3123C13.706 18.1484 13.8335 18.0212 13.9948 17.9689C14.2806 17.8762 14.5572 17.7634 14.8231 17.6319C14.9729 17.5579 15.1503 17.5589 15.2947 17.6432L16.2456 18.1985C16.4064 18.2925 16.6082 18.2848 16.7559 18.1714C17.2875 17.7634 17.7638 17.2871 18.1718 16.7555C18.2852 16.6078 18.2928 16.4061 18.1989 16.2452L17.6435 15.2942C17.5592 15.1499 17.5582 14.9725 17.6323 14.8226C17.7637 14.5568 17.8765 14.2802 17.9692 13.9944C18.0214 13.8332 18.1487 13.7057 18.3126 13.6626L19.3566 13.3884C19.5381 13.3407 19.6759 13.1908 19.6993 13.0045C19.7859 12.3153 19.7819 11.6409 19.6976 10.9916C19.6736 10.8065 19.5362 10.6581 19.3557 10.6107L18.2997 10.3333C18.1375 10.2907 18.0111 10.1654 17.9579 10.0063C17.8645 9.72736 17.7521 9.4571 17.6222 9.1971C17.5472 9.047 17.5479 8.86885 17.6325 8.72395L18.1829 7.7816C18.2769 7.62046 18.2691 7.41837 18.1553 7.2705C17.7437 6.73567 17.264 6.25597 16.7291 5.84439C16.5813 5.7306 16.3792 5.72276 16.2181 5.81686L15.2758 6.36714C15.1309 6.45176 14.9527 6.45246 14.8026 6.37746C14.5426 6.24754 14.2723 6.13513 13.9933 6.04177C13.8343 5.98856 13.709 5.86215 13.6664 5.69997L13.3891 4.64409C13.3416 4.46359 13.1932 4.32621 13.0081 4.30219C12.3588 4.21794 11.6843 4.21398 10.9951 4.30062C10.8088 4.32403 10.6589 4.46178 10.6112 4.64334L10.3342 5.69803C10.2921 5.85848 10.1688 5.9838 10.0126 6.03973C9.7514 6.13328 9.49248 6.24991 9.23898 6.38647C9.08649 6.46863 8.90193 6.47088 8.75236 6.38353L7.85689 5.86059C7.69248 5.76458 7.48592 5.77501 7.33716 5.89383C6.80687 6.31736 6.31774 6.80651 5.89421 7.3368C5.7754 7.48557 5.76497 7.69212 5.86098 7.85653L6.38389 8.75194C6.47124 8.90152 6.46899 9.08608 6.38683 9.23857C6.25024 9.49209 6.13359 9.75103 6.04003 10.0123C5.98409 10.1684 5.85877 10.2917 5.69833 10.3339L4.6438 10.6108C4.46223 10.6585 4.32448 10.8084 4.30107 10.9947C4.21446 11.684 4.21844 12.3584 4.30271 13.0078C4.32673 13.1928 4.46411 13.3413 4.64461 13.3887L5.70022 13.666C5.8624 13.7085 5.98882 13.8339 6.04203 13.9929C6.13539 14.272 6.24783 14.5423 6.37777 14.8024C6.45277 14.9525 6.45207 15.1306 6.36745 15.2755L5.81733 16.2175C5.72324 16.3787 5.73107 16.5807 5.84486 16.7286C6.25645 17.2635 6.73617 17.7432 7.27102 18.1548C7.4189 18.2686 7.62099 18.2765 7.78212 18.1824L8.72419 17.6322C8.86909 17.5476 9.04724 17.5469 9.19734 17.6219C9.4574 17.7518 9.72772 17.8643 10.0068 17.9576C10.1658 18.0108 10.2911 18.1372 10.3337 18.2994L10.611 19.3552C10.6584 19.5357 10.8069 19.6731 10.992 19.6971C11.6412 19.7814 12.3156 19.7854 13.0049 19.6988C13.1912 19.6754 13.3411 19.5377 13.3888 19.3561L13.663 18.3123ZM12.7748 15.4498C10.2235 15.9924 8.00717 13.7754 8.54987 11.2247C8.80651 10.0185 10.0186 8.80639 11.2247 8.5497C13.7755 8.00678 15.9927 10.2232 15.45 12.7747C15.1653 14.1128 14.1129 15.1652 12.7748 15.4498Z" fill="#525C69"/>
</svg>
