<svg width="24" height="24" viewBox="0 0 24 24" fill="none" xmlns="http://www.w3.org/2000/svg">
<path fill-rule="evenodd" clip-rule="evenodd" d="M15.8008 11.9691C15.4858 12.2841 14.9473 12.061 14.9473 11.6156L14.9473 9.11466L6.13086 9.11466C5.85472 9.11466 5.63086 8.8908 5.63086 8.61466L5.63086 7.8559C5.63086 7.57976 5.85472 7.3559 6.13086 7.3559L14.9473 7.3559L14.9473 5.08596C14.9473 4.64051 15.4858 4.41743 15.8008 4.73241L19.0656 7.99721C19.2609 8.19247 19.2609 8.50905 19.0656 8.70431L15.8008 11.9691ZM19.0581 15.8822C19.0581 15.6061 18.8343 15.3822 18.5581 15.3822L9.03565 15.3822L9.03565 13.0278C9.03565 12.5824 8.49708 12.3593 8.1821 12.6743L4.9173 15.9391C4.72203 16.1343 4.72203 16.4509 4.9173 16.6462L8.18209 19.911C8.49708 20.2259 9.03565 20.0029 9.03565 19.5574L9.03565 17.141L18.5581 17.141C18.8343 17.141 19.0581 16.9171 19.0581 16.641L19.0581 15.8822Z" fill="#525C69"/>
</svg>
