<svg width="24" height="24" viewBox="0 0 24 24" fill="none" xmlns="http://www.w3.org/2000/svg">
<path d="M16.7474 8.77594C15.7888 7.43363 14.2205 6.55653 12.4488 6.55653C11.1429 6.55653 9.9472 7.03063 9.02518 7.81628L7.5261 6.31811C8.83367 5.15226 10.5586 4.44336 12.4487 4.44336C15.6895 4.44336 18.4439 6.53637 19.4443 9.44117C18.6224 9.04794 17.7103 8.81303 16.7474 8.77594Z" fill="#525C69"/>
<path d="M22.2177 11.8548H22.2658L22.2368 11.8838C22.2304 11.8741 22.224 11.8645 22.2177 11.8548Z" fill="#525C69"/>
<path d="M9.62744 16.3118C9.71819 17.2664 10.004 18.1642 10.4445 18.9648C7.33281 18.0941 5.05107 15.2452 5.05107 11.8544L2.55957 11.8543L6.24577 8.15723L9.92943 11.8534H7.16518C7.16518 13.7337 8.14778 15.3793 9.62744 16.3118Z" fill="#525C69"/>
<path fill-rule="evenodd" clip-rule="evenodd" d="M17.7233 19.9621C17.7529 19.8491 17.8408 19.7615 17.9518 19.7255C18.1488 19.6616 18.3394 19.5839 18.5225 19.4934C18.6257 19.4423 18.7479 19.443 18.8474 19.5011L19.5025 19.8837C19.6133 19.9484 19.7523 19.9431 19.8541 19.865C20.2202 19.5839 20.5484 19.2558 20.8295 18.8896C20.9076 18.7878 20.9129 18.6488 20.8481 18.538L20.4655 17.8829C20.4075 17.7834 20.4068 17.6612 20.4578 17.558C20.5483 17.3749 20.626 17.1843 20.6899 16.9874C20.7259 16.8763 20.8135 16.7885 20.9265 16.7588L21.6457 16.5699C21.7708 16.5371 21.8657 16.4338 21.8818 16.3055C21.9414 15.8306 21.9387 15.366 21.8806 14.9188C21.8641 14.7913 21.7694 14.689 21.6451 14.6563L20.9176 14.4652C20.8058 14.4359 20.7187 14.3495 20.6821 14.24C20.6178 14.0478 20.5403 13.8616 20.4508 13.6825C20.3992 13.5791 20.3997 13.4563 20.458 13.3565L20.8371 12.7073C20.9019 12.5963 20.8965 12.4571 20.8181 12.3552C20.5345 11.9868 20.2041 11.6563 19.8356 11.3728C19.7337 11.2944 19.5945 11.289 19.4835 11.3538L18.8344 11.7329C18.7345 11.7912 18.6118 11.7917 18.5084 11.74C18.3293 11.6505 18.1431 11.5731 17.9509 11.5087C17.8413 11.4721 17.755 11.385 17.7256 11.2733L17.5346 10.5459C17.5019 10.4215 17.3996 10.3269 17.2721 10.3103C16.8248 10.2523 16.3602 10.2496 15.8853 10.3092C15.757 10.3254 15.6537 10.4203 15.6209 10.5453L15.4301 11.2719C15.401 11.3825 15.3161 11.4688 15.2085 11.5073C15.0286 11.5718 14.8502 11.6521 14.6755 11.7462C14.5705 11.8028 14.4433 11.8044 14.3403 11.7442L13.7234 11.3839C13.6101 11.3178 13.4678 11.325 13.3654 11.4068C13 11.6986 12.6631 12.0356 12.3713 12.4009C12.2894 12.5034 12.2823 12.6457 12.3484 12.759L12.7086 13.3758C12.7688 13.4789 12.7673 13.606 12.7107 13.7111C12.6166 13.8857 12.5362 14.0641 12.4717 14.2441C12.4332 14.3516 12.3469 14.4366 12.2363 14.4656L11.5099 14.6564C11.3848 14.6893 11.2899 14.7926 11.2738 14.9209C11.2141 15.3957 11.2168 15.8604 11.2749 16.3077C11.2914 16.4352 11.3861 16.5375 11.5104 16.5701L12.2376 16.7611C12.3494 16.7905 12.4365 16.8768 12.4731 16.9864C12.5374 17.1786 12.6149 17.3649 12.7044 17.544C12.7561 17.6474 12.7556 17.7702 12.6973 17.87L12.3183 18.5189C12.2535 18.6299 12.2589 18.7692 12.3373 18.871C12.6208 19.2395 12.9513 19.57 13.3198 19.8536C13.4217 19.932 13.5609 19.9374 13.6719 19.8726L14.3209 19.4935C14.4207 19.4353 14.5435 19.4348 14.6469 19.4864C14.826 19.5759 15.0122 19.6534 15.2045 19.7177C15.314 19.7544 15.4004 19.8415 15.4297 19.9532L15.6208 20.6805C15.6534 20.8049 15.7557 20.8995 15.8832 20.9161C16.3305 20.9741 16.7951 20.9769 17.2699 20.9172C17.3983 20.9011 17.5016 20.8062 17.5344 20.6811L17.7233 19.9621ZM17.1114 17.99C15.3538 18.3638 13.8269 16.8365 14.2008 15.0793C14.3776 14.2484 15.2126 13.4133 16.0435 13.2365C17.8008 12.8625 19.3282 14.3894 18.9544 16.1471C18.7582 17.069 18.0333 17.794 17.1114 17.99Z" fill="#525C69"/>
</svg>
