<svg width="24" height="24" viewBox="0 0 24 24" fill="none" xmlns="http://www.w3.org/2000/svg">
<path fill-rule="evenodd" clip-rule="evenodd" d="M17.2953 6.61184C20.2713 9.58779 20.2713 14.4128 17.2953 17.3887C14.3194 20.3647 9.4944 20.3647 6.51846 17.3887C6.41974 17.29 6.32429 17.1892 6.23212 17.0866L7.88812 15.4308C7.97761 15.5354 8.07185 15.6373 8.17084 15.7363C10.2342 17.7997 13.5796 17.7997 15.6429 15.7363C17.7063 13.673 17.7063 10.3276 15.6429 8.26423C13.5796 6.20086 10.2342 6.20086 8.17084 8.26423L8.08778 8.3501L10.3027 10.5659H4.4729V4.7361L6.43415 6.69746L6.51846 6.61184C9.4944 3.6359 14.3194 3.6359 17.2953 6.61184Z" fill="#525C69"/>
</svg>
