<svg width="24" height="24" viewBox="0 0 24 24" fill="none" xmlns="http://www.w3.org/2000/svg">
	<path d="M13.4397 13.4471C13.4397 13.668 13.2606 13.8471 13.0397 13.8471H11.0051C10.7842 13.8471 10.6051 13.668 10.6051 13.4471L10.6051 7.01705L7.89457 7.01705C7.62135 7.01705 7.49036 6.68159 7.69127 6.49644L11.8072 2.70341C11.9221 2.59756 12.099 2.59756 12.2138 2.70341L16.3298 6.49644C16.5307 6.68159 16.3997 7.01705 16.1265 7.01705L13.4397 7.01705L13.4397 13.4471Z" fill="#8DBB00"/>
	<path d="M7.95944 8.81587C8.18035 8.81587 8.35944 8.99495 8.35944 9.21587V11.0008C8.35944 11.2217 8.18035 11.4008 7.95944 11.4008H7.56311C7.01083 11.4008 6.56311 11.8485 6.56311 12.4008V15.39C6.56311 15.9423 7.01083 16.39 7.56311 16.39H16.4369C16.9892 16.39 17.4369 15.9423 17.4369 15.39V12.4008C17.4369 11.8485 16.9892 11.4008 16.4369 11.4008H16.0406C15.8196 11.4008 15.6406 11.2217 15.6406 11.0008V9.21587C15.6406 8.99495 15.8196 8.81587 16.0406 8.81587H17.7C18.9703 8.81587 20 9.84561 20 11.1159V16.7004C20 17.9707 18.9703 19.0004 17.7 19.0004H6.3C5.02975 19.0004 4 17.9707 4 16.7004V11.1159C4 9.84561 5.02975 8.81587 6.3 8.81587H7.95944Z" fill="#8DBB00"/>
</svg>