<svg width="24" height="24" viewBox="0 0 24 24" fill="none" xmlns="http://www.w3.org/2000/svg">
<path fill-rule="evenodd" clip-rule="evenodd" d="M14.3001 15.7137C13.2497 16.4773 11.957 16.9276 10.559 16.9276C7.04148 16.9276 4.18994 14.0761 4.18994 10.5585C4.18994 7.04099 7.04148 4.18945 10.559 4.18945C14.0766 4.18945 16.9281 7.04099 16.9281 10.5585C16.9281 11.9564 16.4778 13.2491 15.7143 14.2995L19.3396 17.9248C19.5349 18.1201 19.5349 18.4366 19.3396 18.6319L18.6325 19.339C18.4373 19.5342 18.1207 19.5342 17.9254 19.339L14.3001 15.7137ZM15.2203 10.5581C15.2203 13.1324 13.1334 15.2193 10.5591 15.2193C7.98482 15.2193 5.89794 13.1324 5.89794 10.5581C5.89794 7.98384 7.98482 5.89696 10.5591 5.89696C13.1334 5.89696 15.2203 7.98384 15.2203 10.5581Z" fill="#95C500"/>
<path fill-rule="evenodd" clip-rule="evenodd" d="M10.2993 7.52344C10.0231 7.52344 9.79927 7.7473 9.79927 8.02344V9.79791H8.02478C7.74864 9.79791 7.52478 10.0218 7.52478 10.2979V10.8142C7.52478 11.0904 7.74864 11.3142 8.02478 11.3142H9.79927V13.0887C9.79927 13.3649 10.0231 13.5887 10.2993 13.5887H10.8156C11.0917 13.5887 11.3156 13.3649 11.3156 13.0887V11.3142H13.0901C13.3662 11.3142 13.5901 11.0904 13.5901 10.8142V10.2979C13.5901 10.0218 13.3662 9.79791 13.0901 9.79791H11.3156V8.02344C11.3156 7.7473 11.0917 7.52344 10.8156 7.52344H10.2993Z" fill="#95C500"/>
</svg>
