<svg width="25" height="24" viewBox="0 0 25 24" fill="none" xmlns="http://www.w3.org/2000/svg">
<path fill-rule="evenodd" clip-rule="evenodd" d="M11.1087 16.9276C12.5067 16.9276 13.7994 16.4773 14.8498 15.7137L18.4751 19.339C18.6704 19.5342 18.987 19.5342 19.1822 19.339L19.8893 18.6319C20.0845 18.4366 20.0845 18.1201 19.8893 17.9248L16.264 14.2995C17.0275 13.2491 17.4778 11.9564 17.4778 10.5585C17.4778 7.04099 14.6263 4.18945 11.1087 4.18945C7.59116 4.18945 4.73962 7.04099 4.73962 10.5585C4.73962 14.0761 7.59116 16.9276 11.1087 16.9276ZM11.1088 15.2193C13.6831 15.2193 15.77 13.1324 15.77 10.5581C15.77 7.98384 13.6831 5.89696 11.1088 5.89696C8.5345 5.89696 6.44762 7.98384 6.44762 10.5581C6.44762 13.1324 8.5345 15.2193 11.1088 15.2193ZM8.57446 9.79883C8.29832 9.79883 8.07446 10.0227 8.07446 10.2988V10.8152C8.07446 11.0913 8.29832 11.3152 8.57446 11.3152H13.6398C13.9159 11.3152 14.1398 11.0913 14.1398 10.8152V10.2988C14.1398 10.0227 13.9159 9.79883 13.6398 9.79883H8.57446Z" fill="#95C500"/>
</svg>
