<?xml version="1.0" encoding="UTF-8"?>
<svg width="16px" height="16px" viewBox="0 0 16 16" version="1.1" xmlns="http://www.w3.org/2000/svg" xmlns:xlink="http://www.w3.org/1999/xlink">
    <g id="Symbols" stroke="none" stroke-width="1" fill="none" fill-rule="evenodd">
        <g id="Parts-/-Important-/-Icon" transform="translate(-1.000000, 0.000000)" fill="#2FC6F6">
            <path d="M9.01068115,0 C13.4230601,0 17,3.57693989 17,7.98931885 C17,12.4016978 13.4230601,15.9786377 9.01068115,15.9786377 C4.59830219,15.9786377 1.0213623,12.4016978 1.0213623,7.98931885 C1.0213623,3.57693989 4.59830219,0 9.01068115,0 Z M10.0613042,7.00055804 L7.97394849,7.00055804 L7.97394849,7.00785236 L6.98724566,7.00785236 L6.98724566,7.98493304 L7.97394849,7.98493304 L7.97324566,12.009907 L6.98724566,12.0107621 L6.98724566,12.9849729 L7.99152042,12.9849729 L7.99124566,12.983907 L9.99924566,12.983907 L10.0000699,12.9849729 L11.0043447,12.9849729 L11.0043447,12.0107621 L10.0612457,12.009907 L10.0613042,7.00055804 Z M8.96065131,2.85490701 C8.19412678,2.85490701 7.57273587,3.47629792 7.57273587,4.24282246 C7.57273587,5.00934699 8.19412678,5.6307379 8.96065131,5.6307379 C9.72717585,5.6307379 10.3485668,5.00934699 10.3485668,4.24282246 C10.3485668,3.47629792 9.72717585,2.85490701 8.96065131,2.85490701 Z" id="Combined-Shape"></path>
        </g>
    </g>
</svg>