<?xml version="1.0" encoding="UTF-8"?>
<svg width="12px" height="12px" viewBox="0 0 12 12" version="1.1" xmlns="http://www.w3.org/2000/svg" xmlns:xlink="http://www.w3.org/1999/xlink">
    <g id="Symbols" stroke="none" stroke-width="1" fill="none" fill-rule="evenodd" opacity="0.300000012">
        <g id="Menu-/-Parts-/-Bottom-01" transform="translate(-3.000000, -27.000000)" fill="#525C69">
            <g id="Icons-/-·-Set-2-/-Icon-4" transform="translate(0.000000, 24.000000)">
                <path d="M11.308428,9.51853495 C11.1179545,10.4139043 10.4138192,11.1180353 9.51845396,11.3084468 C7.81138856,11.6714932 6.3284665,10.18814 6.69158585,8.48144401 C6.86330721,7.67441071 7.67428251,6.86337813 8.48131829,6.69162356 C10.188058,6.32835757 11.6715579,7.81138092 11.308428,9.51853495 M14.5609,8.126224 L13.37221,7.927905 L13.37221,7.927905 C13.28776,7.582645 13.1655,7.252265 13.00681,6.943435 C13.00014,6.930442 13.00169,6.914811 13.01086,6.903443 L13.75675,5.978576 C13.9186,5.779157 13.91125,5.492244 13.74062,5.299793 L13.26785,4.767705 C13.09648,4.575446 12.8123,4.53479 12.59553,4.671741 L11.57896,5.310795 L11.57896,5.310795 C11.13826,5.00289 10.63989,4.774341 10.10251,4.639678 C10.08826,4.636098 10.07745,4.624467 10.07502,4.609954 L9.88013,3.438726 C9.83839,3.185675 9.61941,3 9.36236,3 L8.64991,3 C8.39338,3 8.17365,3.185675 8.13284,3.438726 L7.93687,4.610391 C7.93444,4.624868 7.92365,4.636464 7.90942,4.640027 C7.47453,4.749019 7.06605,4.921037 6.69186,5.145936 C6.67925,5.153516 6.66341,5.152957 6.65143,5.1444 L5.70436,4.468497 C5.49601,4.319636 5.20982,4.342915 5.02799,4.524364 L4.52467,5.028056 C4.34322,5.209889 4.31994,5.496086 4.4692,5.704447 L5.14669,6.653413 C5.15523,6.665376 5.15582,6.681215 5.14826,6.693824 C4.92555,7.065123 4.75532,7.471174 4.64644,7.902111 C4.64284,7.916344 4.63125,7.927102 4.61679,7.929512 L3.4387,8.126242 C3.18604,8.167963 3,8.386976 3,8.644044 L3,9.355956 C3,9.613006 3.18604,9.832037 3.4387,9.873758 L4.61675,10.070471 C4.63123,10.072898 4.64284,10.083674 4.64642,10.097924 C4.73499,10.44975 4.86115,10.786295 5.027,11.099579 C5.03391,11.112642 5.03245,11.128516 5.02316,11.140025 L4.28095,12.059285 C4.11966,12.258513 4.12643,12.545618 4.29707,12.737894 L4.76947,13.269999 C4.94085,13.462608 5.22519,13.50253 5.44198,13.365928 L6.45281,12.730926 C6.4652,12.723137 6.48099,12.723452 6.49311,12.73166 C6.92454,13.023218 7.41123,13.237918 7.93289,13.365928 L7.93289,13.365928 L8.13286,14.561239 C8.17367,14.814307 8.39338,15 8.64991,15 L9.36236,15 C9.61942,15 9.83839,14.814325 9.88013,14.561257 L10.07535,13.389801 C10.07778,13.375306 10.08859,13.363693 10.10284,13.36013 C10.53211,13.25264 10.93528,13.08366 11.30594,12.862726 C11.31855,12.855216 11.33433,12.85581 11.34626,12.864332 L12.33369,13.569574 C12.54168,13.718977 12.82807,13.69554 13.00971,13.513515 L13.51325,13.009981 C13.69448,12.828706 13.71902,12.542666 13.56852,12.333921 L12.86559,11.348351 C12.85705,11.336388 12.85647,11.320566 12.86403,11.307974 C13.0874,10.935419 13.25854,10.528582 13.36682,10.095706 C13.37038,10.081456 13.38199,10.070646 13.39647,10.068218 L14.5613,9.873724 C14.81471,9.831985 15,9.612971 15,9.355921 L15,8.644009 C14.99962,8.386976 14.81433,8.167963 14.5609,8.126224" id="Icon"></path>
            </g>
        </g>
    </g>
</svg>