<svg xmlns:xlink="http://www.w3.org/1999/xlink" xmlns="http://www.w3.org/2000/svg" viewBox="0 0 100% 100%"
	 preserveAspectRatio="xMinYMin meet" style="width: 100%; height: 100%" fill="none" >

	<svg height="100%">
		<defs>
			<g id="chat-block-1">
				<path d="M4 7.99308C4 3.57481 7.58172 0 12 0H228C232.418 0 236 3.58172 236 8V52C236 56.4183 232.418 60 228 60H4C4 60 4 25.7436 4 7.99308Z" fill="white"/>
				<path fill-rule="evenodd" clip-rule="evenodd" d="M17.4487 60H7.26555H1.4407C0.460983 60 -0.0244284 58.6168 0.665252 57.921C2.2421 56.3301 4.00871 53.9917 4.00871 51.5V48H17.4487V60Z" fill="white"/>
			</g>

			<g id="chat-block-2">
				<path d="M232 7.99308C232 3.57481 228.418 0 224 0H8C3.58173 0 0 3.58172 0 8V52C0 56.4183 3.58173 60 8 60H232C232 60 232 25.7436 232 7.99308Z" fill="white"/>
				<path fill-rule="evenodd" clip-rule="evenodd" d="M218.551 60H228.734H234.559C235.539 60 236.024 58.6168 235.335 57.921C233.758 56.3301 231.991 53.9917 231.991 51.5V48H218.551V60Z" fill="white"/>
			</g>
		</defs>

		<rect width="81" height="100%" fill="#414a54"/>
		<rect width="399" height="100%" rx="8" fill="white" x="74" />
		<!-- <rect width="370" height="100%" fill="green" x="98" /> -->

		<g clip-path="url(#clip2_211_49577)">

			<rect width="calc(100% - 473px)" height="100%" fill="#EAECF1" x="473" y="1" />
			<rect width="calc(100% - 473px)" height="100%" fill="#EAECF1" x="473" y="1" />

			<g opacity="0.35" clip-path="url(#clip3_211_49577)">
				<rect width="100%" height="calc(100% - 2px)" fill="white" x="473" y="1" />
				<path fill-rule="evenodd" clip-rule="evenodd"
					  d="M1623.41 -279.383V-337.677H1514.79C1551.83 -318.704 1588.06 -299.251 1623.41 -279.383ZM-54.6484 55.0181V1028.24H1623.41V909.449C1401.44 879.994 1150.08 811.015 892.704 702.223C478.918 527.313 139.324 287.419 -54.6484 55.0181Z"
					  fill="url(#paint5_linear_211_49577)" />
				<ellipse opacity="0.3" rx="882.012" ry="222.922"
						 transform="matrix(-0.831804 -0.55507 0.434757 -0.900548 979.82 629.994)"
						 fill="url(#paint7_linear_211_49577)" />
				<ellipse opacity="0.5" rx="954.969" ry="373.018"
						 transform="matrix(0.971784 -0.235874 0.167776 0.985825 1247.57 772.952)"
						 fill="url(#paint9_linear_211_49577)" />

				<ellipse opacity="0.5" rx="954.969" ry="373.018"
						 transform="matrix(0.971784 -0.235874 0.167776 0.985825 1247.57 772.952)"
						 fill="url(#paint9_linear_211_49577)" />
			</g>
		</g>

		<rect width="100%" height="64" fill="white" x="473"/>
		<rect width="calc(100% - 602px)" height="46" rx="8" fill="white" x="507" y="100%"  transform="translate(0, -58)"/>
		<rect x="473" y="1" width="1" height="100%" fill="#EDEEF0"/>
		<rect x="74" y="64" width="100%" height="1" fill="#EDEEF0"/>
		<use xlink:href="#chat-block-1" x="564" y="100%" transform="translate(0, -219)"></use>
		<use xlink:href="#chat-block-2" x="100%" y="100%" transform="translate(-308, -154)"></use>
	</svg>

	<svg height="100%" id="animated-elements">
		<defs>
			<g id="navigation-item--animat">
				<path fill-rule="evenodd" clip-rule="evenodd" d="M16.5 0C11.8056 0 8 3.806 8 8.5C8 13.194 11.8056 17 16.5 17C21.1944 17 25 13.194 25 8.5C25 3.806 21.1944 0 16.5 0ZM2.5 23C1.1193 23 0 24.119 0 25.5C0 26.881 1.1193 28 2.5 28H30.5C31.8807 28 33 26.881 33 25.5C33 24.119 31.8807 23 30.5 23H2.5Z" fill="#606871"/>
			</g>

			<g id="navigation-item-2--animat">
				<path fill-rule="evenodd" clip-rule="evenodd" d="M13.5 0C8.8056 0 5 3.806 5 8.5C5 13.194 8.8056 17 13.5 17C18.1944 17 22 13.194 22 8.5C22 3.806 18.1944 0 13.5 0ZM2.5 23C1.1193 23 0 24.119 0 25.5C0 26.881 1.1193 28 2.5 28H24.5C25.8807 28 27 26.881 27 25.5C27 24.119 25.8807 23 24.5 23H2.5Z" fill="#606871"/>
			</g>

			<g id="navigation-item-3--animat">
				<path fill-rule="evenodd" clip-rule="evenodd" d="M19.5 0C14.8056 0 11 3.806 11 8.5C11 13.194 14.8056 17 19.5 17C24.1944 17 28 13.194 28 8.5C28 3.806 24.1944 0 19.5 0ZM2.5 23C1.1193 23 0 24.119 0 25.5C0 26.881 1.1193 28 2.5 28H36.5C37.8807 28 39 26.881 39 25.5C39 24.119 37.8807 23 36.5 23H2.5Z" fill="#606871"/>
			</g>



			<g id="messenger-recent-item--animat">
				<path fill-rule="evenodd" clip-rule="evenodd"
					  d="M108 83.0098C121.255 83.0098 132 93.7549 132 107.01C132 120.265 121.255 131.01 108 131.01C94.7452 131.01 84 120.265 84 107.01C84 93.7549 94.7452 83.0098 108 83.0098Z"
					  fill="#DFE0E3" />

				<rect width="376" height="1" x="80" y="142" fill="#f2f2f3"/>
				<rect x="144" y="87.0098" width="241" height="7" rx="3.5" fill="#DFE0E3" />
				<rect x="144" y="106.01" width="189" height="7" rx="3.5" fill="#DFE0E3" />
				<rect x="144" y="122.01" width="189" height="7" rx="3.5" fill="#DFE0E3" />
			</g>

			<g id="messenger-recent-item-2--animat">
				<path fill-rule="evenodd" clip-rule="evenodd"
					  d="M108 83.0098C121.255 83.0098 132 93.7549 132 107.01C132 120.265 121.255 131.01 108 131.01C94.7452 131.01 84 120.265 84 107.01C84 93.7549 94.7452 83.0098 108 83.0098Z"
					  fill="#DFE0E3" />
				<rect width="376" height="1" x="80" y="142" fill="#f2f2f3"/>
				<rect x="144" y="87.0098" width="241" height="7" rx="3.5" fill="#DFE0E3" />
				<rect x="144" y="106.01" width="189" height="7" rx="3.5" fill="#DFE0E3" />
			</g>
		</defs>

		<!-- <rect x="19" y="19" width="32" height="8" rx="4" fill="#606871" /> -->
		<!-- <rect x="19" y="51" width="32" height="32" rx="16" fill="#606871" /> -->

		<rect x="21" y="21" width="32" height="32" rx="16" fill="#606871" />

		<use xlink:href="#navigation-item--animat" x="21px" y="81px"></use>
		<use xlink:href="#navigation-item-2--animat" x="24px" y="147px"></use>
		<use xlink:href="#navigation-item--animat" x="21px" y="212px"></use>
		<use xlink:href="#navigation-item-3--animat" x="18px" y="278px"></use>
		<use xlink:href="#navigation-item--animat" x="21px" y="343px"></use>
		<use xlink:href="#navigation-item-2--animat" x="24px" y="409px"></use>
		<use xlink:href="#navigation-item--animat" x="21px" y="474px"></use>

		<rect x="87" y="19" width="30" height="30" rx="15" fill="#DFE0E3" />
		<rect x="125" y="16" width="266" height="34" rx="17" fill="#DFE0E3"/>
		<rect x="417" y="16" width="44" height="34" rx="17" fill="#DFE0E3"/>

		<use xlink:href="#messenger-recent-item--animat" x="4" y="-1"></use>
		<use xlink:href="#messenger-recent-item--animat" x="4" y="69"></use>
		<use xlink:href="#messenger-recent-item-2--animat" x="4" y="139"></use>
		<use xlink:href="#messenger-recent-item--animat" x="4" y="209"></use>
		<use xlink:href="#messenger-recent-item-2--animat" x="4" y="279"></use>
		<use xlink:href="#messenger-recent-item--animat" x="4" y="349"></use>
		<use xlink:href="#messenger-recent-item--animat" x="4" y="419"></use>

		<rect x="541" y="20" width="166" height="7" rx="3.5" fill="#DFE0E3" />
		<rect x="541" y="39" width="150" height="7" rx="3.5" fill="#DFE0E3" />
		<circle cx="510" cy="32" r="21" fill="#DFE0E3"/>

		<rect x="100%" y="20" width="119" height="26" rx="13" fill="#DFE0E3" transform="translate(-246)" />
		<circle cx="100%" cy="33" r="11" fill="#DFE0E3" transform="translate(-97)" />
		<circle cx="100%" cy="33" r="11" fill="#DFE0E3" transform="translate(-62)" />
		<circle cx="100%" cy="33" r="11" fill="#DFE0E3" transform="translate(-27)" />

		<circle cx="532" cy="100%" r="24" fill="#D5D7DB" transform="translate(0, -183)"/>
		<rect x="579" y="100%" width="166" height="7" rx="3.5" fill="#DFE0E3" transform="translate(0, -204)" />
		<rect x="579" y="100%" width="150" height="7" rx="3.5" fill="#DFE0E3" transform="translate(0, -187)"/>
		<circle cx="100%" cy="100%" r="24" fill="#D5D7DB" transform="translate(-40, -118)"/>
		<rect x="100%" y="100%" width="181" height="7" rx="3.5" fill="#DFE0E3" transform="translate(-296, -139)" />
		<rect x="100%" y="100%" width="108" height="7" rx="3.5" fill="#DFE0E3" transform="translate(-296, -122)"/>
		<circle cx="535" cy="100%" r="11" fill="#DFE0E3" transform="translate(0, -35)" />
		<rect x="556" y="100%" width="106" height="7" rx="3.5" fill="#DFE0E3" transform="translate(0, -39)" />
	</svg>

	<defs>
		<linearGradient id="paint5_linear_211_49577" x1="784.379" y1="-337.677" x2="784.379" y2="1028.24"
						gradientUnits="userSpaceOnUse">
			<stop stop-color="#8593AE" />
			<stop offset="1" stop-color="white" stop-opacity="0" />
		</linearGradient>

		<linearGradient id="paint7_linear_211_49577" x1="882.012" y1="0" x2="882.012" y2="445.844"
						gradientUnits="userSpaceOnUse">
			<stop stop-color="#DADDE2" />
			<stop offset="1" stop-color="white" stop-opacity="0" />
		</linearGradient>
		<linearGradient id="paint9_linear_211_49577" x1="954.969" y1="0" x2="954.969" y2="746.037"
						gradientUnits="userSpaceOnUse">
			<stop stop-color="#DADDE2" />
			<stop offset="1" stop-color="white" stop-opacity="0" />
		</linearGradient>

		<clipPath id="clip2_211_49577">
			<rect x="473" y="1" width="100%" height="100%" rx="10" fill="white" />
		</clipPath>
	</defs>

	<defs>
		<filter id="filter0_i_3005_70593" x="44" y="433" width="90%" height="1" filterUnits="userSpaceOnUse"
				color-interpolation-filters="sRGB">
			<feFlood flood-opacity="0" result="BackgroundImageFix"/>
			<feBlend mode="normal" in="SourceGraphic" in2="BackgroundImageFix" result="shape"/>
			<feColorMatrix in="SourceAlpha" type="matrix" values="0 0 0 0 0 0 0 0 0 0 0 0 0 0 0 0 0 0 127 0"
						   result="hardAlpha"/>
			<feOffset dy="-1"/>
			<feComposite in2="hardAlpha" operator="arithmetic" k2="-1" k3="1"/>
			<feColorMatrix type="matrix" values="0 0 0 0 0 0 0 0 0 0 0 0 0 0 0 0 0 0 0.1 0"/>
			<feBlend mode="normal" in2="shape" result="effect1_innerShadow_3005_70593"/>
		</filter>
	</defs>

	<rect id="msk1" width="100%" fill="url(#msk_gd)" mask="url(#headerMsk)" height="1270"/>

	<mask id="headerMsk" fill="white">
		<use xlink:href="#animated-elements"/>
	</mask>

	<linearGradient x1="66.6%" y1="50%" x2="33.3%" y2="50%" id="msk_gd">
		<stop stop-color="#000000" stop-opacity="0" offset="0%"/>
		<stop stop-color="#000000" stop-opacity="0.07" offset="50%"/>
		<stop stop-color="#000000" stop-opacity="0" offset="100%"/>
	</linearGradient>

	<animate xlink:href="#msk1" attributeName="x" from="-100%" to="100%" dur="1s" begin="0s" repeatCount="indefinite"/>

</svg>