<svg xmlns:xlink="http://www.w3.org/1999/xlink" xmlns="http://www.w3.org/2000/svg" viewBox="0 0 100% 100%"
     preserveAspectRatio="xMinYMin meet" style="width: 100%; height: 100%;" fill="none">

    <svg height="100%">
        <rect width="50" height="100%" x="28" fill="#414a54"/>
        <rect width="78" height="100%" rx="10" fill="#414a54"/>

        <rect width="calc(100% - 70px)" height="calc(100% - 2px)" rx="8" fill="white" x="68" y="1" />

        <rect x="36.5%" y="1" width="1" height="100%" fill="#EDEEF0" />
    </svg>

    <svg height="100%" id="animated-elements">
        <defs>
            <g id="navigation-item--animat">
                <path fill-rule="evenodd" clip-rule="evenodd"
                d="M35.5 111C30.8056 111 27 114.806 27 119.5C27 124.194 30.8056 128 35.5 128C40.1944 128 44 124.194 44 119.5C44 114.806 40.1944 111 35.5 111ZM21.5 134C20.1193 134 19 135.119 19 136.5C19 137.881 20.1193 139 21.5 139H49.5C50.8807 139 52 137.881 52 136.5C52 135.119 50.8807 134 49.5 134H21.5Z"
                fill="#606871" />
            </g>

            <g id="navigation-item-2--animat">
                <path fill-rule="evenodd" clip-rule="evenodd"
                d="M35.5 173C30.8056 173 27 176.806 27 181.5C27 186.194 30.8056 190 35.5 190C40.1944 190 44 186.194 44 181.5C44 176.806 40.1944 173 35.5 173ZM24.5 196C23.1193 196 22 197.119 22 198.5C22 199.881 23.1193 201 24.5 201H46.5C47.8807 201 49 199.881 49 198.5C49 197.119 47.8807 196 46.5 196H24.5Z"
                fill="#606871" />
            </g>

            <g id="navigation-item-3--animat">
                <path fill-rule="evenodd" clip-rule="evenodd"
                d="M35.5 294C30.8056 294 27 297.806 27 302.5C27 307.194 30.8056 311 35.5 311C40.1944 311 44 307.194 44 302.5C44 297.806 40.1944 294 35.5 294ZM18.5 317C17.1193 317 16 318.119 16 319.5C16 320.881 17.1193 322 18.5 322H52.5C53.8807 322 55 320.881 55 319.5C55 318.119 53.8807 317 52.5 317H18.5Z"
                fill="#606871" />
            </g>

            <g id="messenger-recent-item--animat">
                <path fill-rule="evenodd" clip-rule="evenodd"
                d="M108 83.0098C121.255 83.0098 132 93.7549 132 107.01C132 120.265 121.255 131.01 108 131.01C94.7452 131.01 84 120.265 84 107.01C84 93.7549 94.7452 83.0098 108 83.0098Z"
                fill="#DFE0E3" />

                <rect width="29%" height="1" x="80" y="142" fill="#f2f2f3"/>
                <rect x="144" y="87.0098" width="19%" height="7" rx="3.5" fill="#DFE0E3" />
                <rect x="144" y="106.01" width="15%" height="7" rx="3.5" fill="#DFE0E3" />
                <rect x="144" y="122.01" width="15%" height="7" rx="3.5" fill="#DFE0E3" />
               
            </g>

            <g id="messenger-recent-item-2--animat">
                <path fill-rule="evenodd" clip-rule="evenodd"
                d="M108 83.0098C121.255 83.0098 132 93.7549 132 107.01C132 120.265 121.255 131.01 108 131.01C94.7452 131.01 84 120.265 84 107.01C84 93.7549 94.7452 83.0098 108 83.0098Z"
                fill="#DFE0E3" />
                <rect width="29%" height="1" x="80" y="142" fill="#f2f2f3"/>
                <rect x="144" y="87.0098" width="19%" height="7" rx="3.5" fill="#DFE0E3" />
                <rect x="144" y="106.01" width="15%" height="7" rx="3.5" fill="#DFE0E3" />
            </g>

            <g id="header-chat--animat">
                <rect x="42%" y="30" width="13%" height="7" rx="3.5" fill="#DFE0E3"/>
                <circle cx="40%" cy="33" r="21" fill="#DFE0E3" transform="translate(-9)"/>
                <circle cx="100%" cy="33" r="14" fill="#DFE0E3" transform="translate(-37)"/>
            </g>

            <g id="chat--animat">
                <circle cx="40%" cy="31" r="21" fill="#DFE0E3" transform="translate(-9)"/>
                <rect x="42%" y="34" width="48%" height="7" rx="3.5" fill="#DFE0E3" />
                <rect x="42%" y="56" width="44%" height="7" rx="3.5" fill="#DFE0E3" />
                <rect x="42%" y="14" width="11%" height="7" rx="3.5" fill="#DFE0E3" />
                <rect x="42%" y="81" width="8%" height="7" rx="3.5" fill="#DFE0E3" />
                <rect x="100%" y="14" width="35" height="7" rx="3.5" fill="#DFE0E3" transform="translate(-53)"/>
                <rect width="56.3%" height="1" x="42%" y="110" fill="#f2f2f3" />
            </g>
        </defs>

        <rect x="19" y="19" width="32" height="8" rx="4" fill="#606871" />
        <rect x="19" y="51" width="32" height="32" rx="16" fill="#606871" />

        <use xlink:href="#navigation-item--animat"></use>
        <use xlink:href="#navigation-item-2--animat"></use>
        <use xlink:href="#navigation-item--animat" y="122px"></use>
        <use xlink:href="#navigation-item-3--animat"></use>
        <use xlink:href="#navigation-item--animat" y="244px"></use>
        <use xlink:href="#navigation-item-2--animat" y="243px"></use>
        <use xlink:href="#navigation-item--animat" y="366px"></use>

        <rect x="35.5%" y="17" width="44" height="34" rx="17" fill="#DFE0E3" transform="translate(-44, 0)"/>
        <rect x="131" y="17" width="19%" height="34" rx="17" fill="#DFE0E3" />
        <rect x="81" y="19" width="30" height="30" rx="15" fill="#DFE0E3" />
        <use xlink:href="#messenger-recent-item--animat"></use>
        <use xlink:href="#messenger-recent-item--animat" y="70"></use>
        <use xlink:href="#messenger-recent-item-2--animat" y="140"></use>
        <use xlink:href="#messenger-recent-item--animat" y="210"></use>
        <use xlink:href="#messenger-recent-item-2--animat" y="280"></use>
        <use xlink:href="#messenger-recent-item--animat" y="350"></use>
        <use xlink:href="#messenger-recent-item--animat" y="420"></use>

        <use xlink:href="#header-chat--animat"></use>
        <use xlink:href="#chat--animat" y="74" ></use>
        
        <use xlink:href="#chat--animat" y="189" ></use>
        <use xlink:href="#chat--animat" y="304" ></use>
        <use xlink:href="#chat--animat" y="419" ></use>
    </svg>


    
    <defs>
        <filter id="filter0_i_3005_70593" x="44" y="433" width="90%" height="1" filterUnits="userSpaceOnUse"
                color-interpolation-filters="sRGB">
            <feFlood flood-opacity="0" result="BackgroundImageFix"/>
            <feBlend mode="normal" in="SourceGraphic" in2="BackgroundImageFix" result="shape"/>
            <feColorMatrix in="SourceAlpha" type="matrix" values="0 0 0 0 0 0 0 0 0 0 0 0 0 0 0 0 0 0 127 0"
                        result="hardAlpha"/>
            <feOffset dy="-1"/>
            <feComposite in2="hardAlpha" operator="arithmetic" k2="-1" k3="1"/>
            <feColorMatrix type="matrix" values="0 0 0 0 0 0 0 0 0 0 0 0 0 0 0 0 0 0 0.1 0"/>
            <feBlend mode="normal" in2="shape" result="effect1_innerShadow_3005_70593"/>
        </filter>
    </defs>

    <rect id="msk1" width="100%" fill="url(#msk_gd)" mask="url(#headerMsk)" height="1270"/>

    <mask id="headerMsk" fill="white">
        <use xlink:href="#animated-elements"/>
    </mask>

    <linearGradient x1="66.6%" y1="50%" x2="33.3%" y2="50%" id="msk_gd">
        <stop stop-color="#000000" stop-opacity="0" offset="0%"/>
        <stop stop-color="#000000" stop-opacity="0.07" offset="50%"/>
        <stop stop-color="#000000" stop-opacity="0" offset="100%"/>
    </linearGradient>

    <animate xlink:href="#msk1" attributeName="x" from="-100%" to="100%" dur="1s" begin="0s" repeatCount="indefinite"/>


</svg>