<svg xmlns="http://www.w3.org/2000/svg" width="188" height="212" fill="none"><g fill="#D5D7DB" clip-path="url(#a)"><path d="M0 7a1 1 0 0 1 2 0v3a1 1 0 1 1-2 0V7ZM3 7a1 1 0 0 1 2 0v3a1 1 0 1 1-2 0V7ZM6 7a1 1 0 0 1 2 0v3a1 1 0 1 1-2 0V7ZM9 5a1 1 0 0 1 2 0v7a1 1 0 1 1-2 0V5ZM12 2.5a1 1 0 1 1 2 0v12a1 1 0 1 1-2 0v-12ZM15 5a1 1 0 1 1 2 0v7a1 1 0 1 1-2 0V5ZM18 4.5a1 1 0 1 1 2 0v8a1 1 0 1 1-2 0v-8ZM21 5a1 1 0 1 1 2 0v7a1 1 0 1 1-2 0V5ZM24 7a1 1 0 1 1 2 0v3a1 1 0 1 1-2 0V7ZM27 7a1 1 0 1 1 2 0v3a1 1 0 1 1-2 0V7ZM30 2a1 1 0 1 1 2 0v13a1 1 0 1 1-2 0V2ZM33 4.5a1 1 0 1 1 2 0v8a1 1 0 1 1-2 0v-8ZM36 5a1 1 0 1 1 2 0v7a1 1 0 1 1-2 0V5ZM39 2.5a1 1 0 1 1 2 0v12a1 1 0 1 1-2 0v-12ZM42 7a1 1 0 1 1 2 0v3a1 1 0 1 1-2 0V7ZM45 6a1 1 0 1 1 2 0v5a1 1 0 1 1-2 0V6ZM48 5a1 1 0 1 1 2 0v7a1 1 0 1 1-2 0V5ZM51 6a1 1 0 1 1 2 0v5a1 1 0 1 1-2 0V6ZM54 4a1 1 0 1 1 2 0v9a1 1 0 1 1-2 0V4ZM57 8a1 1 0 1 1 2 0v1a1 1 0 1 1-2 0V8ZM60 7a1 1 0 1 1 2 0v3a1 1 0 1 1-2 0V7ZM63 5a1 1 0 1 1 2 0v7a1 1 0 1 1-2 0V5ZM66 7a1 1 0 1 1 2 0v3a1 1 0 1 1-2 0V7ZM69 6a1 1 0 1 1 2 0v5a1 1 0 1 1-2 0V6ZM72 7a1 1 0 1 1 2 0v3a1 1 0 1 1-2 0V7ZM75 5a1 1 0 1 1 2 0v7a1 1 0 1 1-2 0V5ZM78 4.5a1 1 0 1 1 2 0v8a1 1 0 1 1-2 0v-8ZM81 8a1 1 0 1 1 2 0v1a1 1 0 1 1-2 0V8ZM84 6.5a1 1 0 1 1 2 0v4a1 1 0 1 1-2 0v-4ZM87 5a1 1 0 1 1 2 0v7a1 1 0 1 1-2 0V5ZM90 1a1 1 0 1 1 2 0v15a1 1 0 1 1-2 0V1ZM93 1a1 1 0 1 1 2 0v15a1 1 0 1 1-2 0V1ZM96 7a1 1 0 1 1 2 0v3a1 1 0 1 1-2 0V7ZM99 7a1 1 0 1 1 2 0v3a1 1 0 0 1-2 0V7ZM102 5a1 1 0 0 1 2 0v7a1 1 0 0 1-2 0V5ZM105 5a1 1 0 0 1 2 0v7a1 1 0 0 1-2 0V5ZM108 7a1 1 0 0 1 2 0v3a1 1 0 0 1-2 0V7ZM111 2.5a1 1 0 0 1 2 0v12a1 1 0 0 1-2 0v-12ZM114 2.5a1 1 0 0 1 2 0v12a1 1 0 0 1-2 0v-12ZM117 3a1 1 0 0 1 2 0v11a1 1 0 0 1-2 0V3ZM120 3a1 1 0 0 1 2 0v11a1 1 0 0 1-2 0V3ZM123 7a1 1 0 0 1 2 0v3a1 1 0 0 1-2 0V7ZM126 2.5a1 1 0 0 1 2 0v12a1 1 0 0 1-2 0v-12ZM129 4.5a1 1 0 0 1 2 0v8a1 1 0 0 1-2 0v-8ZM132 2.5a1 1 0 0 1 2 0v12a1 1 0 0 1-2 0v-12ZM135 5a1 1 0 0 1 2 0v7a1 1 0 0 1-2 0V5ZM138 8a1 1 0 0 1 2 0v1a1 1 0 0 1-2 0V8ZM141 5a1 1 0 0 1 2 0v7a1 1 0 0 1-2 0V5ZM144 6.5a1 1 0 0 1 2 0v4a1 1 0 0 1-2 0v-4ZM147 3a1 1 0 0 1 2 0v11a1 1 0 0 1-2 0V3ZM150 1a1 1 0 0 1 2 0v15a1 1 0 0 1-2 0V1ZM153 5a1 1 0 0 1 2 0v7a1 1 0 0 1-2 0V5ZM156 4.5a1 1 0 0 1 2 0v8a1 1 0 0 1-2 0v-8ZM159 5a1 1 0 0 1 2 0v7a1 1 0 0 1-2 0V5ZM162 7a1 1 0 0 1 2 0v3a1 1 0 0 1-2 0V7ZM165 4a1 1 0 0 1 2 0v9a1 1 0 0 1-2 0V4ZM168 8a1 1 0 0 1 2 0v1a1 1 0 0 1-2 0V8ZM171 5a1 1 0 0 1 2 0v7a1 1 0 0 1-2 0V5ZM174 5a1 1 0 0 1 2 0v7a1 1 0 0 1-2 0V5ZM177 8a1 1 0 0 1 2 0v1a1 1 0 0 1-2 0V8ZM180 5a1 1 0 0 1 2 0v7a1 1 0 0 1-2 0V5ZM183 6.5a1 1 0 0 1 2 0v4a1 1 0 0 1-2 0v-4ZM186 3a1 1 0 0 1 2 0v11a1 1 0 0 1-2 0V3Z"/></g><g fill="#2FC6F6" clip-path="url(#b)"><path d="M0 26a1 1 0 1 1 2 0v3a1 1 0 1 1-2 0v-3ZM3 26a1 1 0 1 1 2 0v3a1 1 0 1 1-2 0v-3ZM6 26a1 1 0 1 1 2 0v3a1 1 0 1 1-2 0v-3ZM9 24a1 1 0 1 1 2 0v7a1 1 0 1 1-2 0v-7ZM12 21.5a1 1 0 1 1 2 0v12a1 1 0 1 1-2 0v-12ZM15 24a1 1 0 1 1 2 0v7a1 1 0 1 1-2 0v-7ZM18 23.5a1 1 0 1 1 2 0v8a1 1 0 1 1-2 0v-8ZM21 24a1 1 0 1 1 2 0v7a1 1 0 1 1-2 0v-7ZM24 26a1 1 0 1 1 2 0v3a1 1 0 1 1-2 0v-3ZM27 26a1 1 0 1 1 2 0v3a1 1 0 1 1-2 0v-3ZM30 21a1 1 0 1 1 2 0v13a1 1 0 1 1-2 0V21ZM33 23.5a1 1 0 1 1 2 0v8a1 1 0 1 1-2 0v-8ZM36 24a1 1 0 1 1 2 0v7a1 1 0 1 1-2 0v-7ZM39 21.5a1 1 0 1 1 2 0v12a1 1 0 1 1-2 0v-12ZM42 26a1 1 0 1 1 2 0v3a1 1 0 1 1-2 0v-3ZM45 25a1 1 0 1 1 2 0v5a1 1 0 1 1-2 0v-5ZM48 24a1 1 0 1 1 2 0v7a1 1 0 1 1-2 0v-7ZM51 25a1 1 0 1 1 2 0v5a1 1 0 1 1-2 0v-5ZM54 23a1 1 0 1 1 2 0v9a1 1 0 1 1-2 0v-9ZM57 27a1 1 0 1 1 2 0v1a1 1 0 1 1-2 0v-1ZM60 26a1 1 0 1 1 2 0v3a1 1 0 1 1-2 0v-3ZM63 24a1 1 0 1 1 2 0v7a1 1 0 1 1-2 0v-7ZM66 26a1 1 0 1 1 2 0v3a1 1 0 1 1-2 0v-3ZM69 25a1 1 0 1 1 2 0v5a1 1 0 1 1-2 0v-5ZM72 26a1 1 0 1 1 2 0v3a1 1 0 1 1-2 0v-3ZM75 24a1 1 0 1 1 2 0v7a1 1 0 1 1-2 0v-7ZM78 23.5a1 1 0 1 1 2 0v8a1 1 0 1 1-2 0v-8ZM81 27a1 1 0 1 1 2 0v1a1 1 0 1 1-2 0v-1ZM84 25.5a1 1 0 1 1 2 0v4a1 1 0 1 1-2 0v-4ZM87 24a1 1 0 1 1 2 0v7a1 1 0 1 1-2 0v-7ZM90 20a1 1 0 1 1 2 0v15a1 1 0 1 1-2 0V20ZM93 20a1 1 0 1 1 2 0v15a1 1 0 1 1-2 0V20ZM96 26a1 1 0 1 1 2 0v3a1 1 0 1 1-2 0v-3ZM99 26a1 1 0 1 1 2 0v3a1 1 0 0 1-2 0v-3ZM102 24a1 1 0 0 1 2 0v7a1 1 0 0 1-2 0v-7ZM105 24a1 1 0 0 1 2 0v7a1 1 0 0 1-2 0v-7ZM108 26a1 1 0 0 1 2 0v3a1 1 0 0 1-2 0v-3ZM111 21.5a1 1 0 0 1 2 0v12a1 1 0 0 1-2 0v-12ZM114 21.5a1 1 0 0 1 2 0v12a1 1 0 0 1-2 0v-12ZM117 22a1 1 0 0 1 2 0v11a1 1 0 0 1-2 0V22ZM120 22a1 1 0 0 1 2 0v11a1 1 0 0 1-2 0V22ZM123 26a1 1 0 0 1 2 0v3a1 1 0 0 1-2 0v-3ZM126 21.5a1 1 0 0 1 2 0v12a1 1 0 0 1-2 0v-12ZM129 23.5a1 1 0 0 1 2 0v8a1 1 0 0 1-2 0v-8ZM132 21.5a1 1 0 0 1 2 0v12a1 1 0 0 1-2 0v-12ZM135 24a1 1 0 0 1 2 0v7a1 1 0 0 1-2 0v-7ZM138 27a1 1 0 0 1 2 0v1a1 1 0 0 1-2 0v-1ZM141 24a1 1 0 0 1 2 0v7a1 1 0 0 1-2 0v-7ZM144 25.5a1 1 0 0 1 2 0v4a1 1 0 0 1-2 0v-4ZM147 22a1 1 0 0 1 2 0v11a1 1 0 0 1-2 0V22ZM150 20a1 1 0 0 1 2 0v15a1 1 0 0 1-2 0V20ZM153 24a1 1 0 0 1 2 0v7a1 1 0 0 1-2 0v-7ZM156 23.5a1 1 0 0 1 2 0v8a1 1 0 0 1-2 0v-8ZM159 24a1 1 0 0 1 2 0v7a1 1 0 0 1-2 0v-7ZM162 26a1 1 0 0 1 2 0v3a1 1 0 0 1-2 0v-3ZM165 23a1 1 0 0 1 2 0v9a1 1 0 0 1-2 0v-9ZM168 27a1 1 0 0 1 2 0v1a1 1 0 0 1-2 0v-1ZM171 24a1 1 0 0 1 2 0v7a1 1 0 0 1-2 0v-7ZM174 24a1 1 0 0 1 2 0v7a1 1 0 0 1-2 0v-7ZM177 27a1 1 0 0 1 2 0v1a1 1 0 0 1-2 0v-1ZM180 24a1 1 0 0 1 2 0v7a1 1 0 0 1-2 0v-7ZM183 25.5a1 1 0 0 1 2 0v4a1 1 0 0 1-2 0v-4ZM186 22a1 1 0 0 1 2 0v11a1 1 0 0 1-2 0V22Z"/></g><g fill="#D5D7DB" clip-path="url(#c)"><path d="M0 51a1 1 0 1 1 2 0v3a1 1 0 1 1-2 0v-3ZM3 51a1 1 0 1 1 2 0v3a1 1 0 1 1-2 0v-3ZM6 49a1 1 0 1 1 2 0v7a1 1 0 1 1-2 0v-7ZM9 49a1 1 0 1 1 2 0v7a1 1 0 1 1-2 0v-7ZM12 48.5a1 1 0 1 1 2 0v8a1 1 0 1 1-2 0v-8ZM15 49a1 1 0 1 1 2 0v7a1 1 0 1 1-2 0v-7ZM18 46.5a1 1 0 1 1 2 0v12a1 1 0 1 1-2 0v-12ZM21 48.5a1 1 0 1 1 2 0v8a1 1 0 1 1-2 0v-8ZM24 51a1 1 0 1 1 2 0v3a1 1 0 1 1-2 0v-3ZM27 51a1 1 0 1 1 2 0v3a1 1 0 1 1-2 0v-3ZM30 49a1 1 0 1 1 2 0v7a1 1 0 1 1-2 0v-7ZM33 45a1 1 0 1 1 2 0v15a1 1 0 1 1-2 0V45ZM36 45a1 1 0 1 1 2 0v15a1 1 0 1 1-2 0V45ZM39 51a1 1 0 1 1 2 0v3a1 1 0 1 1-2 0v-3ZM42 50a1 1 0 1 1 2 0v5a1 1 0 1 1-2 0v-5ZM45 49a1 1 0 1 1 2 0v7a1 1 0 1 1-2 0v-7ZM48 50a1 1 0 1 1 2 0v5a1 1 0 1 1-2 0v-5ZM51 46.5a1 1 0 1 1 2 0v12a1 1 0 1 1-2 0v-12ZM54 52a1 1 0 1 1 2 0v1a1 1 0 1 1-2 0v-1ZM57 51a1 1 0 1 1 2 0v3a1 1 0 1 1-2 0v-3ZM60 46a1 1 0 1 1 2 0v13a1 1 0 1 1-2 0V46ZM63 51a1 1 0 1 1 2 0v3a1 1 0 1 1-2 0v-3ZM66 49a1 1 0 1 1 2 0v7a1 1 0 1 1-2 0v-7ZM69 51a1 1 0 1 1 2 0v3a1 1 0 1 1-2 0v-3ZM72 50a1 1 0 1 1 2 0v5a1 1 0 1 1-2 0v-5ZM75 51a1 1 0 1 1 2 0v3a1 1 0 1 1-2 0v-3ZM78 49a1 1 0 1 1 2 0v7a1 1 0 1 1-2 0v-7ZM81 48.5a1 1 0 1 1 2 0v8a1 1 0 1 1-2 0v-8ZM84 52a1 1 0 1 1 2 0v1a1 1 0 1 1-2 0v-1ZM87 50.5a1 1 0 1 1 2 0v4a1 1 0 1 1-2 0v-4ZM90 48a1 1 0 1 1 2 0v9a1 1 0 1 1-2 0v-9ZM93 49a1 1 0 1 1 2 0v7a1 1 0 1 1-2 0v-7ZM96 51a1 1 0 1 1 2 0v3a1 1 0 1 1-2 0v-3ZM99 51a1 1 0 1 1 2 0v3a1 1 0 0 1-2 0v-3ZM102 47a1 1 0 0 1 2 0v11a1 1 0 0 1-2 0V47ZM105 46.5a1 1 0 0 1 2 0v12a1 1 0 0 1-2 0v-12ZM108 46.5a1 1 0 0 1 2 0v12a1 1 0 0 1-2 0v-12ZM111 49a1 1 0 0 1 2 0v7a1 1 0 0 1-2 0v-7ZM114 51a1 1 0 0 1 2 0v3a1 1 0 0 1-2 0v-3ZM117 49a1 1 0 0 1 2 0v7a1 1 0 0 1-2 0v-7ZM120 51a1 1 0 0 1 2 0v3a1 1 0 0 1-2 0v-3ZM123 46.5a1 1 0 0 1 2 0v12a1 1 0 0 1-2 0v-12ZM126 51a1 1 0 0 1 2 0v3a1 1 0 0 1-2 0v-3ZM129 47a1 1 0 0 1 2 0v11a1 1 0 0 1-2 0V47ZM132 45a1 1 0 0 1 2 0v15a1 1 0 0 1-2 0V45ZM135 46.5a1 1 0 0 1 2 0v12a1 1 0 0 1-2 0v-12ZM138 48.5a1 1 0 0 1 2 0v8a1 1 0 0 1-2 0v-8ZM141 49a1 1 0 0 1 2 0v7a1 1 0 0 1-2 0v-7ZM144 52a1 1 0 0 1 2 0v1a1 1 0 0 1-2 0v-1ZM147 49a1 1 0 0 1 2 0v7a1 1 0 0 1-2 0v-7ZM150 50.5a1 1 0 0 1 2 0v4a1 1 0 0 1-2 0v-4ZM153 49a1 1 0 0 1 2 0v7a1 1 0 0 1-2 0v-7ZM156 47a1 1 0 0 1 2 0v11a1 1 0 0 1-2 0V47ZM159 49a1 1 0 0 1 2 0v7a1 1 0 0 1-2 0v-7ZM162 48.5a1 1 0 0 1 2 0v8a1 1 0 0 1-2 0v-8ZM165 49a1 1 0 0 1 2 0v7a1 1 0 0 1-2 0v-7ZM168 47a1 1 0 0 1 2 0v11a1 1 0 0 1-2 0V47ZM171 48a1 1 0 0 1 2 0v9a1 1 0 0 1-2 0v-9ZM174 52a1 1 0 0 1 2 0v1a1 1 0 0 1-2 0v-1ZM177 49a1 1 0 0 1 2 0v7a1 1 0 0 1-2 0v-7ZM180 49a1 1 0 0 1 2 0v7a1 1 0 0 1-2 0v-7ZM183 52a1 1 0 0 1 2 0v1a1 1 0 0 1-2 0v-1ZM186 50.5a1 1 0 0 1 2 0v4a1 1 0 0 1-2 0v-4Z"/></g><g fill="#2FC6F6" clip-path="url(#d)"><path d="M0 70a1 1 0 1 1 2 0v3a1 1 0 1 1-2 0v-3ZM3 70a1 1 0 1 1 2 0v3a1 1 0 1 1-2 0v-3ZM6 68a1 1 0 1 1 2 0v7a1 1 0 1 1-2 0v-7ZM9 68a1 1 0 1 1 2 0v7a1 1 0 1 1-2 0v-7ZM12 67.5a1 1 0 1 1 2 0v8a1 1 0 1 1-2 0v-8ZM15 68a1 1 0 1 1 2 0v7a1 1 0 1 1-2 0v-7ZM18 65.5a1 1 0 1 1 2 0v12a1 1 0 1 1-2 0v-12ZM21 67.5a1 1 0 1 1 2 0v8a1 1 0 1 1-2 0v-8ZM24 70a1 1 0 1 1 2 0v3a1 1 0 1 1-2 0v-3ZM27 70a1 1 0 1 1 2 0v3a1 1 0 1 1-2 0v-3ZM30 68a1 1 0 1 1 2 0v7a1 1 0 1 1-2 0v-7ZM33 64a1 1 0 1 1 2 0v15a1 1 0 1 1-2 0V64ZM36 64a1 1 0 1 1 2 0v15a1 1 0 1 1-2 0V64ZM39 70a1 1 0 1 1 2 0v3a1 1 0 1 1-2 0v-3ZM42 69a1 1 0 1 1 2 0v5a1 1 0 1 1-2 0v-5ZM45 68a1 1 0 1 1 2 0v7a1 1 0 1 1-2 0v-7ZM48 69a1 1 0 1 1 2 0v5a1 1 0 1 1-2 0v-5ZM51 65.5a1 1 0 1 1 2 0v12a1 1 0 1 1-2 0v-12ZM54 71a1 1 0 1 1 2 0v1a1 1 0 1 1-2 0v-1ZM57 70a1 1 0 1 1 2 0v3a1 1 0 1 1-2 0v-3ZM60 65a1 1 0 1 1 2 0v13a1 1 0 1 1-2 0V65ZM63 70a1 1 0 1 1 2 0v3a1 1 0 1 1-2 0v-3ZM66 68a1 1 0 1 1 2 0v7a1 1 0 1 1-2 0v-7ZM69 70a1 1 0 1 1 2 0v3a1 1 0 1 1-2 0v-3ZM72 69a1 1 0 1 1 2 0v5a1 1 0 1 1-2 0v-5ZM75 70a1 1 0 1 1 2 0v3a1 1 0 1 1-2 0v-3ZM78 68a1 1 0 1 1 2 0v7a1 1 0 1 1-2 0v-7ZM81 67.5a1 1 0 1 1 2 0v8a1 1 0 1 1-2 0v-8ZM84 71a1 1 0 1 1 2 0v1a1 1 0 1 1-2 0v-1ZM87 69.5a1 1 0 1 1 2 0v4a1 1 0 1 1-2 0v-4ZM90 67a1 1 0 1 1 2 0v9a1 1 0 1 1-2 0v-9ZM93 68a1 1 0 1 1 2 0v7a1 1 0 1 1-2 0v-7ZM96 70a1 1 0 1 1 2 0v3a1 1 0 1 1-2 0v-3ZM99 70a1 1 0 1 1 2 0v3a1 1 0 0 1-2 0v-3ZM102 66a1 1 0 0 1 2 0v11a1 1 0 0 1-2 0V66ZM105 65.5a1 1 0 0 1 2 0v12a1 1 0 0 1-2 0v-12ZM108 65.5a1 1 0 0 1 2 0v12a1 1 0 0 1-2 0v-12ZM111 68a1 1 0 0 1 2 0v7a1 1 0 0 1-2 0v-7ZM114 70a1 1 0 0 1 2 0v3a1 1 0 0 1-2 0v-3ZM117 68a1 1 0 0 1 2 0v7a1 1 0 0 1-2 0v-7ZM120 70a1 1 0 0 1 2 0v3a1 1 0 0 1-2 0v-3ZM123 65.5a1 1 0 0 1 2 0v12a1 1 0 0 1-2 0v-12ZM126 70a1 1 0 0 1 2 0v3a1 1 0 0 1-2 0v-3ZM129 66a1 1 0 0 1 2 0v11a1 1 0 0 1-2 0V66ZM132 64a1 1 0 0 1 2 0v15a1 1 0 0 1-2 0V64ZM135 65.5a1 1 0 0 1 2 0v12a1 1 0 0 1-2 0v-12ZM138 67.5a1 1 0 0 1 2 0v8a1 1 0 0 1-2 0v-8ZM141 68a1 1 0 0 1 2 0v7a1 1 0 0 1-2 0v-7ZM144 71a1 1 0 0 1 2 0v1a1 1 0 0 1-2 0v-1ZM147 68a1 1 0 0 1 2 0v7a1 1 0 0 1-2 0v-7ZM150 69.5a1 1 0 0 1 2 0v4a1 1 0 0 1-2 0v-4ZM153 68a1 1 0 0 1 2 0v7a1 1 0 0 1-2 0v-7ZM156 66a1 1 0 0 1 2 0v11a1 1 0 0 1-2 0V66ZM159 68a1 1 0 0 1 2 0v7a1 1 0 0 1-2 0v-7ZM162 67.5a1 1 0 0 1 2 0v8a1 1 0 0 1-2 0v-8ZM165 68a1 1 0 0 1 2 0v7a1 1 0 0 1-2 0v-7ZM168 66a1 1 0 0 1 2 0v11a1 1 0 0 1-2 0V66ZM171 67a1 1 0 0 1 2 0v9a1 1 0 0 1-2 0v-9ZM174 71a1 1 0 0 1 2 0v1a1 1 0 0 1-2 0v-1ZM177 68a1 1 0 0 1 2 0v7a1 1 0 0 1-2 0v-7ZM180 68a1 1 0 0 1 2 0v7a1 1 0 0 1-2 0v-7ZM183 71a1 1 0 0 1 2 0v1a1 1 0 0 1-2 0v-1ZM186 69.5a1 1 0 0 1 2 0v4a1 1 0 0 1-2 0v-4Z"/></g><g fill="#D5D7DB" clip-path="url(#e)"><path d="M0 95a1 1 0 1 1 2 0v3a1 1 0 1 1-2 0v-3ZM3 95a1 1 0 1 1 2 0v3a1 1 0 1 1-2 0v-3ZM6 93a1 1 0 1 1 2 0v7a1 1 0 0 1-2 0v-7ZM9 93a1 1 0 1 1 2 0v7a1 1 0 0 1-2 0v-7ZM12 95a1 1 0 1 1 2 0v3a1 1 0 1 1-2 0v-3ZM15 95a1 1 0 1 1 2 0v3a1 1 0 1 1-2 0v-3ZM18 93a1 1 0 1 1 2 0v7a1 1 0 0 1-2 0v-7ZM21 89a1 1 0 1 1 2 0v15a1 1 0 0 1-2 0V89ZM24 95a1 1 0 1 1 2 0v3a1 1 0 1 1-2 0v-3ZM27 90.5a1 1 0 1 1 2 0v12a1 1 0 0 1-2 0v-12ZM30 94a1 1 0 1 1 2 0v5a1 1 0 1 1-2 0v-5ZM33 93a1 1 0 1 1 2 0v7a1 1 0 0 1-2 0v-7ZM36 94a1 1 0 1 1 2 0v5a1 1 0 1 1-2 0v-5ZM39 96a1 1 0 1 1 2 0v1a1 1 0 1 1-2 0v-1ZM42 89a1 1 0 1 1 2 0v15a1 1 0 0 1-2 0V89ZM45 95a1 1 0 1 1 2 0v3a1 1 0 1 1-2 0v-3ZM48 92.5a1 1 0 1 1 2 0v8a1 1 0 0 1-2 0v-8ZM51 93a1 1 0 1 1 2 0v7a1 1 0 0 1-2 0v-7ZM54 92.5a1 1 0 1 1 2 0v8a1 1 0 0 1-2 0v-8ZM57 90a1 1 0 1 1 2 0v13a1 1 0 0 1-2 0V90ZM60 95a1 1 0 1 1 2 0v3a1 1 0 1 1-2 0v-3ZM63 93a1 1 0 1 1 2 0v7a1 1 0 0 1-2 0v-7ZM66 95a1 1 0 1 1 2 0v3a1 1 0 1 1-2 0v-3ZM69 90.5a1 1 0 1 1 2 0v12a1 1 0 0 1-2 0v-12ZM72 94a1 1 0 1 1 2 0v5a1 1 0 1 1-2 0v-5ZM75 95a1 1 0 1 1 2 0v3a1 1 0 1 1-2 0v-3ZM78 93a1 1 0 1 1 2 0v7a1 1 0 0 1-2 0v-7ZM81 92.5a1 1 0 1 1 2 0v8a1 1 0 0 1-2 0v-8ZM84 90.5a1 1 0 1 1 2 0v12a1 1 0 0 1-2 0v-12ZM87 91a1 1 0 1 1 2 0v11a1 1 0 0 1-2 0V91ZM90 96a1 1 0 1 1 2 0v1a1 1 0 1 1-2 0v-1ZM93 94.5a1 1 0 1 1 2 0v4a1 1 0 1 1-2 0v-4ZM96 92a1 1 0 1 1 2 0v9a1 1 0 0 1-2 0v-9ZM99 93a1 1 0 1 1 2 0v7a1 1 0 0 1-2 0v-7ZM102 95a1 1 0 0 1 2 0v3a1 1 0 0 1-2 0v-3ZM105 95a1 1 0 0 1 2 0v3a1 1 0 0 1-2 0v-3ZM108 91a1 1 0 0 1 2 0v11a1 1 0 0 1-2 0V91ZM111 93a1 1 0 0 1 2 0v7a1 1 0 0 1-2 0v-7ZM114 92.5a1 1 0 0 1 2 0v8a1 1 0 0 1-2 0v-8ZM117 90.5a1 1 0 0 1 2 0v12a1 1 0 0 1-2 0v-12ZM120 93a1 1 0 0 1 2 0v7a1 1 0 0 1-2 0v-7ZM123 92a1 1 0 0 1 2 0v9a1 1 0 0 1-2 0v-9ZM126 95a1 1 0 0 1 2 0v3a1 1 0 0 1-2 0v-3ZM129 90.5a1 1 0 0 1 2 0v12a1 1 0 0 1-2 0v-12ZM132 93a1 1 0 0 1 2 0v7a1 1 0 0 1-2 0v-7ZM135 95a1 1 0 0 1 2 0v3a1 1 0 0 1-2 0v-3ZM138 89a1 1 0 0 1 2 0v15a1 1 0 0 1-2 0V89ZM141 95a1 1 0 0 1 2 0v3a1 1 0 0 1-2 0v-3ZM144 91a1 1 0 0 1 2 0v11a1 1 0 0 1-2 0V91ZM147 93a1 1 0 0 1 2 0v7a1 1 0 0 1-2 0v-7ZM150 90.5a1 1 0 0 1 2 0v12a1 1 0 0 1-2 0v-12ZM153 92.5a1 1 0 0 1 2 0v8a1 1 0 0 1-2 0v-8ZM156 96a1 1 0 0 1 2 0v1a1 1 0 0 1-2 0v-1ZM159 93a1 1 0 0 1 2 0v7a1 1 0 0 1-2 0v-7ZM162 94.5a1 1 0 0 1 2 0v4a1 1 0 0 1-2 0v-4ZM165 93a1 1 0 0 1 2 0v7a1 1 0 0 1-2 0v-7ZM168 93a1 1 0 0 1 2 0v7a1 1 0 0 1-2 0v-7ZM171 96a1 1 0 0 1 2 0v1a1 1 0 0 1-2 0v-1ZM174 91a1 1 0 0 1 2 0v11a1 1 0 0 1-2 0V91ZM177 93a1 1 0 0 1 2 0v7a1 1 0 0 1-2 0v-7ZM180 93a1 1 0 0 1 2 0v7a1 1 0 0 1-2 0v-7ZM183 96a1 1 0 0 1 2 0v1a1 1 0 0 1-2 0v-1ZM186 94.5a1 1 0 0 1 2 0v4a1 1 0 0 1-2 0v-4Z"/></g><g fill="#2FC6F6" clip-path="url(#f)"><path d="M0 114a1 1 0 0 1 2 0v3a1 1 0 0 1-2 0v-3ZM3 114a1 1 0 0 1 2 0v3a1 1 0 0 1-2 0v-3ZM6 112a1 1 0 0 1 2 0v7a1 1 0 0 1-2 0v-7ZM9 112a1 1 0 0 1 2 0v7a1 1 0 0 1-2 0v-7ZM12 114a1 1 0 0 1 2 0v3a1 1 0 0 1-2 0v-3ZM15 114a1 1 0 0 1 2 0v3a1 1 0 0 1-2 0v-3ZM18 112a1 1 0 0 1 2 0v7a1 1 0 0 1-2 0v-7ZM21 108a1 1 0 0 1 2 0v15a1 1 0 0 1-2 0v-15ZM24 114a1 1 0 0 1 2 0v3a1 1 0 0 1-2 0v-3ZM27 109.5a1 1 0 0 1 2 0v12a1 1 0 0 1-2 0v-12ZM30 113a1 1 0 0 1 2 0v5a1 1 0 0 1-2 0v-5ZM33 112a1 1 0 0 1 2 0v7a1 1 0 0 1-2 0v-7ZM36 113a1 1 0 0 1 2 0v5a1 1 0 0 1-2 0v-5ZM39 115a1 1 0 0 1 2 0v1a1 1 0 0 1-2 0v-1ZM42 108a1 1 0 0 1 2 0v15a1 1 0 0 1-2 0v-15ZM45 114a1 1 0 0 1 2 0v3a1 1 0 0 1-2 0v-3ZM48 111.5a1 1 0 0 1 2 0v8a1 1 0 0 1-2 0v-8ZM51 112a1 1 0 0 1 2 0v7a1 1 0 0 1-2 0v-7ZM54 111.5a1 1 0 0 1 2 0v8a1 1 0 0 1-2 0v-8ZM57 109a1 1 0 0 1 2 0v13a1 1 0 0 1-2 0v-13ZM60 114a1 1 0 0 1 2 0v3a1 1 0 0 1-2 0v-3ZM63 112a1 1 0 0 1 2 0v7a1 1 0 0 1-2 0v-7ZM66 114a1 1 0 0 1 2 0v3a1 1 0 0 1-2 0v-3ZM69 109.5a1 1 0 0 1 2 0v12a1 1 0 0 1-2 0v-12ZM72 113a1 1 0 0 1 2 0v5a1 1 0 0 1-2 0v-5ZM75 114a1 1 0 0 1 2 0v3a1 1 0 0 1-2 0v-3ZM78 112a1 1 0 0 1 2 0v7a1 1 0 0 1-2 0v-7ZM81 111.5a1 1 0 0 1 2 0v8a1 1 0 0 1-2 0v-8ZM84 109.5a1 1 0 0 1 2 0v12a1 1 0 0 1-2 0v-12ZM87 110a1 1 0 0 1 2 0v11a1 1 0 0 1-2 0v-11ZM90 115a1 1 0 0 1 2 0v1a1 1 0 0 1-2 0v-1ZM93 113.5a1 1 0 0 1 2 0v4a1 1 0 0 1-2 0v-4ZM96 111a1 1 0 0 1 2 0v9a1 1 0 0 1-2 0v-9ZM99 112a1 1 0 0 1 2 0v7a1 1 0 0 1-2 0v-7ZM102 114a1 1 0 0 1 2 0v3a1 1 0 0 1-2 0v-3ZM105 114a1 1 0 0 1 2 0v3a1 1 0 0 1-2 0v-3ZM108 110a1 1 0 0 1 2 0v11a1 1 0 0 1-2 0v-11ZM111 112a1 1 0 0 1 2 0v7a1 1 0 0 1-2 0v-7ZM114 111.5a1 1 0 0 1 2 0v8a1 1 0 0 1-2 0v-8ZM117 109.5a1 1 0 0 1 2 0v12a1 1 0 0 1-2 0v-12ZM120 112a1 1 0 0 1 2 0v7a1 1 0 0 1-2 0v-7ZM123 111a1 1 0 0 1 2 0v9a1 1 0 0 1-2 0v-9ZM126 114a1 1 0 0 1 2 0v3a1 1 0 0 1-2 0v-3ZM129 109.5a1 1 0 0 1 2 0v12a1 1 0 0 1-2 0v-12ZM132 112a1 1 0 0 1 2 0v7a1 1 0 0 1-2 0v-7ZM135 114a1 1 0 0 1 2 0v3a1 1 0 0 1-2 0v-3ZM138 108a1 1 0 0 1 2 0v15a1 1 0 0 1-2 0v-15ZM141 114a1 1 0 0 1 2 0v3a1 1 0 0 1-2 0v-3ZM144 110a1 1 0 0 1 2 0v11a1 1 0 0 1-2 0v-11ZM147 112a1 1 0 0 1 2 0v7a1 1 0 0 1-2 0v-7ZM150 109.5a1 1 0 0 1 2 0v12a1 1 0 0 1-2 0v-12ZM153 111.5a1 1 0 0 1 2 0v8a1 1 0 0 1-2 0v-8ZM156 115a1 1 0 0 1 2 0v1a1 1 0 0 1-2 0v-1ZM159 112a1 1 0 0 1 2 0v7a1 1 0 0 1-2 0v-7ZM162 113.5a1 1 0 0 1 2 0v4a1 1 0 0 1-2 0v-4ZM165 112a1 1 0 0 1 2 0v7a1 1 0 0 1-2 0v-7ZM168 112a1 1 0 0 1 2 0v7a1 1 0 0 1-2 0v-7ZM171 115a1 1 0 0 1 2 0v1a1 1 0 0 1-2 0v-1ZM174 110a1 1 0 0 1 2 0v11a1 1 0 0 1-2 0v-11ZM177 112a1 1 0 0 1 2 0v7a1 1 0 0 1-2 0v-7ZM180 112a1 1 0 0 1 2 0v7a1 1 0 0 1-2 0v-7ZM183 115a1 1 0 0 1 2 0v1a1 1 0 0 1-2 0v-1ZM186 113.5a1 1 0 0 1 2 0v4a1 1 0 0 1-2 0v-4Z"/></g><g fill="#D5D7DB" clip-path="url(#g)"><path d="M0 139a1 1 0 0 1 2 0v3a1 1 0 0 1-2 0v-3ZM3 137a1 1 0 0 1 2 0v7a1 1 0 0 1-2 0v-7ZM6 139a1 1 0 0 1 2 0v3a1 1 0 0 1-2 0v-3ZM9 137a1 1 0 0 1 2 0v7a1 1 0 0 1-2 0v-7ZM12 137a1 1 0 0 1 2 0v7a1 1 0 0 1-2 0v-7ZM15 139a1 1 0 0 1 2 0v3a1 1 0 0 1-2 0v-3ZM18 139a1 1 0 0 1 2 0v3a1 1 0 0 1-2 0v-3ZM21 133a1 1 0 0 1 2 0v15a1 1 0 0 1-2 0v-15ZM24 139a1 1 0 0 1 2 0v3a1 1 0 0 1-2 0v-3ZM27 134.5a1 1 0 0 1 2 0v12a1 1 0 0 1-2 0v-12ZM30 139a1 1 0 0 1 2 0v3a1 1 0 0 1-2 0v-3ZM33 138a1 1 0 0 1 2 0v5a1 1 0 0 1-2 0v-5ZM36 137a1 1 0 0 1 2 0v7a1 1 0 0 1-2 0v-7ZM39 138a1 1 0 0 1 2 0v5a1 1 0 0 1-2 0v-5ZM42 140a1 1 0 0 1 2 0v1a1 1 0 0 1-2 0v-1ZM45 133a1 1 0 0 1 2 0v15a1 1 0 0 1-2 0v-15ZM48 136.5a1 1 0 0 1 2 0v8a1 1 0 0 1-2 0v-8ZM51 134.5a1 1 0 0 1 2 0v12a1 1 0 0 1-2 0v-12ZM54 136.5a1 1 0 0 1 2 0v8a1 1 0 0 1-2 0v-8ZM57 134a1 1 0 0 1 2 0v13a1 1 0 0 1-2 0v-13ZM60 139a1 1 0 0 1 2 0v3a1 1 0 0 1-2 0v-3ZM63 137a1 1 0 0 1 2 0v7a1 1 0 0 1-2 0v-7ZM66 139a1 1 0 0 1 2 0v3a1 1 0 0 1-2 0v-3ZM69 138a1 1 0 0 1 2 0v5a1 1 0 0 1-2 0v-5ZM72 137a1 1 0 0 1 2 0v7a1 1 0 0 1-2 0v-7ZM75 136.5a1 1 0 0 1 2 0v8a1 1 0 0 1-2 0v-8ZM78 134.5a1 1 0 0 1 2 0v12a1 1 0 0 1-2 0v-12ZM81 135a1 1 0 0 1 2 0v11a1 1 0 0 1-2 0v-11ZM84 139a1 1 0 0 1 2 0v3a1 1 0 0 1-2 0v-3ZM87 137a1 1 0 0 1 2 0v7a1 1 0 0 1-2 0v-7ZM90 140a1 1 0 0 1 2 0v1a1 1 0 0 1-2 0v-1ZM93 138.5a1 1 0 0 1 2 0v4a1 1 0 0 1-2 0v-4ZM96 136a1 1 0 0 1 2 0v9a1 1 0 0 1-2 0v-9ZM99 139a1 1 0 0 1 2 0v3a1 1 0 0 1-2 0v-3ZM102 135a1 1 0 0 1 2 0v11a1 1 0 0 1-2 0v-11ZM105 137a1 1 0 0 1 2 0v7a1 1 0 0 1-2 0v-7ZM108 139a1 1 0 0 1 2 0v3a1 1 0 0 1-2 0v-3ZM111 136.5a1 1 0 0 1 2 0v8a1 1 0 0 1-2 0v-8ZM114 134.5a1 1 0 0 1 2 0v12a1 1 0 0 1-2 0v-12ZM117 137a1 1 0 0 1 2 0v7a1 1 0 0 1-2 0v-7ZM120 136a1 1 0 0 1 2 0v9a1 1 0 0 1-2 0v-9ZM123 134.5a1 1 0 0 1 2 0v12a1 1 0 0 1-2 0v-12ZM126 137a1 1 0 0 1 2 0v7a1 1 0 0 1-2 0v-7ZM129 139a1 1 0 0 1 2 0v3a1 1 0 0 1-2 0v-3ZM132 137a1 1 0 0 1 2 0v7a1 1 0 0 1-2 0v-7ZM135 133a1 1 0 0 1 2 0v15a1 1 0 0 1-2 0v-15ZM138 139a1 1 0 0 1 2 0v3a1 1 0 0 1-2 0v-3ZM141 137a1 1 0 0 1 2 0v7a1 1 0 0 1-2 0v-7ZM144 134.5a1 1 0 0 1 2 0v12a1 1 0 0 1-2 0v-12ZM147 136.5a1 1 0 0 1 2 0v8a1 1 0 0 1-2 0v-8ZM150 140a1 1 0 0 1 2 0v1a1 1 0 0 1-2 0v-1ZM153 137a1 1 0 0 1 2 0v7a1 1 0 0 1-2 0v-7ZM156 135a1 1 0 0 1 2 0v11a1 1 0 0 1-2 0v-11ZM159 138.5a1 1 0 0 1 2 0v4a1 1 0 0 1-2 0v-4ZM162 139a1 1 0 0 1 2 0v3a1 1 0 0 1-2 0v-3ZM165 137a1 1 0 0 1 2 0v7a1 1 0 0 1-2 0v-7ZM168 137a1 1 0 0 1 2 0v7a1 1 0 0 1-2 0v-7ZM171 140a1 1 0 0 1 2 0v1a1 1 0 0 1-2 0v-1ZM174 137a1 1 0 0 1 2 0v7a1 1 0 0 1-2 0v-7ZM177 135a1 1 0 0 1 2 0v11a1 1 0 0 1-2 0v-11ZM180 137a1 1 0 0 1 2 0v7a1 1 0 0 1-2 0v-7ZM183 140a1 1 0 0 1 2 0v1a1 1 0 0 1-2 0v-1ZM186 138.5a1 1 0 0 1 2 0v4a1 1 0 0 1-2 0v-4Z"/></g><g fill="#2FC6F6" clip-path="url(#h)"><path d="M0 158a1 1 0 0 1 2 0v3a1 1 0 0 1-2 0v-3ZM3 156a1 1 0 0 1 2 0v7a1 1 0 0 1-2 0v-7ZM6 158a1 1 0 0 1 2 0v3a1 1 0 0 1-2 0v-3ZM9 156a1 1 0 0 1 2 0v7a1 1 0 0 1-2 0v-7ZM12 156a1 1 0 0 1 2 0v7a1 1 0 0 1-2 0v-7ZM15 158a1 1 0 0 1 2 0v3a1 1 0 0 1-2 0v-3ZM18 158a1 1 0 0 1 2 0v3a1 1 0 0 1-2 0v-3ZM21 152a1 1 0 0 1 2 0v15a1 1 0 0 1-2 0v-15ZM24 158a1 1 0 0 1 2 0v3a1 1 0 0 1-2 0v-3ZM27 153.5a1 1 0 0 1 2 0v12a1 1 0 0 1-2 0v-12ZM30 158a1 1 0 0 1 2 0v3a1 1 0 0 1-2 0v-3ZM33 157a1 1 0 0 1 2 0v5a1 1 0 0 1-2 0v-5ZM36 156a1 1 0 0 1 2 0v7a1 1 0 0 1-2 0v-7ZM39 157a1 1 0 0 1 2 0v5a1 1 0 0 1-2 0v-5ZM42 159a1 1 0 0 1 2 0v1a1 1 0 0 1-2 0v-1ZM45 152a1 1 0 0 1 2 0v15a1 1 0 0 1-2 0v-15ZM48 155.5a1 1 0 0 1 2 0v8a1 1 0 0 1-2 0v-8ZM51 153.5a1 1 0 0 1 2 0v12a1 1 0 0 1-2 0v-12ZM54 155.5a1 1 0 0 1 2 0v8a1 1 0 0 1-2 0v-8ZM57 153a1 1 0 0 1 2 0v13a1 1 0 0 1-2 0v-13ZM60 158a1 1 0 0 1 2 0v3a1 1 0 0 1-2 0v-3ZM63 156a1 1 0 0 1 2 0v7a1 1 0 0 1-2 0v-7ZM66 158a1 1 0 0 1 2 0v3a1 1 0 0 1-2 0v-3ZM69 157a1 1 0 0 1 2 0v5a1 1 0 0 1-2 0v-5ZM72 156a1 1 0 0 1 2 0v7a1 1 0 0 1-2 0v-7ZM75 155.5a1 1 0 0 1 2 0v8a1 1 0 0 1-2 0v-8ZM78 153.5a1 1 0 0 1 2 0v12a1 1 0 0 1-2 0v-12ZM81 154a1 1 0 0 1 2 0v11a1 1 0 0 1-2 0v-11ZM84 158a1 1 0 0 1 2 0v3a1 1 0 0 1-2 0v-3ZM87 156a1 1 0 0 1 2 0v7a1 1 0 0 1-2 0v-7ZM90 159a1 1 0 0 1 2 0v1a1 1 0 0 1-2 0v-1ZM93 157.5a1 1 0 0 1 2 0v4a1 1 0 0 1-2 0v-4ZM96 155a1 1 0 0 1 2 0v9a1 1 0 0 1-2 0v-9ZM99 158a1 1 0 0 1 2 0v3a1 1 0 0 1-2 0v-3ZM102 154a1 1 0 0 1 2 0v11a1 1 0 0 1-2 0v-11ZM105 156a1 1 0 0 1 2 0v7a1 1 0 0 1-2 0v-7ZM108 158a1 1 0 0 1 2 0v3a1 1 0 0 1-2 0v-3ZM111 155.5a1 1 0 0 1 2 0v8a1 1 0 0 1-2 0v-8ZM114 153.5a1 1 0 0 1 2 0v12a1 1 0 0 1-2 0v-12ZM117 156a1 1 0 0 1 2 0v7a1 1 0 0 1-2 0v-7ZM120 155a1 1 0 0 1 2 0v9a1 1 0 0 1-2 0v-9ZM123 153.5a1 1 0 0 1 2 0v12a1 1 0 0 1-2 0v-12ZM126 156a1 1 0 0 1 2 0v7a1 1 0 0 1-2 0v-7ZM129 158a1 1 0 0 1 2 0v3a1 1 0 0 1-2 0v-3ZM132 156a1 1 0 0 1 2 0v7a1 1 0 0 1-2 0v-7ZM135 152a1 1 0 0 1 2 0v15a1 1 0 0 1-2 0v-15ZM138 158a1 1 0 0 1 2 0v3a1 1 0 0 1-2 0v-3ZM141 156a1 1 0 0 1 2 0v7a1 1 0 0 1-2 0v-7ZM144 153.5a1 1 0 0 1 2 0v12a1 1 0 0 1-2 0v-12ZM147 155.5a1 1 0 0 1 2 0v8a1 1 0 0 1-2 0v-8ZM150 159a1 1 0 0 1 2 0v1a1 1 0 0 1-2 0v-1ZM153 156a1 1 0 0 1 2 0v7a1 1 0 0 1-2 0v-7ZM156 154a1 1 0 0 1 2 0v11a1 1 0 0 1-2 0v-11ZM159 157.5a1 1 0 0 1 2 0v4a1 1 0 0 1-2 0v-4ZM162 158a1 1 0 0 1 2 0v3a1 1 0 0 1-2 0v-3ZM165 156a1 1 0 0 1 2 0v7a1 1 0 0 1-2 0v-7ZM168 156a1 1 0 0 1 2 0v7a1 1 0 0 1-2 0v-7ZM171 159a1 1 0 0 1 2 0v1a1 1 0 0 1-2 0v-1ZM174 156a1 1 0 0 1 2 0v7a1 1 0 0 1-2 0v-7ZM177 154a1 1 0 0 1 2 0v11a1 1 0 0 1-2 0v-11ZM180 156a1 1 0 0 1 2 0v7a1 1 0 0 1-2 0v-7ZM183 159a1 1 0 0 1 2 0v1a1 1 0 0 1-2 0v-1ZM186 157.5a1 1 0 0 1 2 0v4a1 1 0 0 1-2 0v-4Z"/></g><g fill="#D5D7DB" clip-path="url(#i)"><path d="M0 183a1 1 0 0 1 2 0v3a1 1 0 0 1-2 0v-3ZM3 183a1 1 0 0 1 2 0v3a1 1 0 0 1-2 0v-3ZM6 181a1 1 0 0 1 2 0v7a1 1 0 0 1-2 0v-7ZM9 181a1 1 0 0 1 2 0v7a1 1 0 0 1-2 0v-7ZM12 183a1 1 0 0 1 2 0v3a1 1 0 0 1-2 0v-3ZM15 183a1 1 0 0 1 2 0v3a1 1 0 0 1-2 0v-3ZM18 181a1 1 0 0 1 2 0v7a1 1 0 0 1-2 0v-7ZM21 177a1 1 0 0 1 2 0v15a1 1 0 0 1-2 0v-15ZM24 183a1 1 0 0 1 2 0v3a1 1 0 0 1-2 0v-3ZM27 178.5a1 1 0 0 1 2 0v12a1 1 0 0 1-2 0v-12ZM30 182a1 1 0 0 1 2 0v5a1 1 0 0 1-2 0v-5ZM33 181a1 1 0 0 1 2 0v7a1 1 0 0 1-2 0v-7ZM36 182a1 1 0 0 1 2 0v5a1 1 0 0 1-2 0v-5ZM39 184a1 1 0 0 1 2 0v1a1 1 0 0 1-2 0v-1ZM42 177a1 1 0 0 1 2 0v15a1 1 0 0 1-2 0v-15ZM45 183a1 1 0 0 1 2 0v3a1 1 0 0 1-2 0v-3ZM48 180.5a1 1 0 0 1 2 0v8a1 1 0 0 1-2 0v-8ZM51 181a1 1 0 0 1 2 0v7a1 1 0 0 1-2 0v-7ZM54 180.5a1 1 0 0 1 2 0v8a1 1 0 0 1-2 0v-8ZM57 181a1 1 0 0 1 2 0v7a1 1 0 0 1-2 0v-7ZM60 178a1 1 0 0 1 2 0v13a1 1 0 0 1-2 0v-13ZM63 178.5a1 1 0 0 1 2 0v12a1 1 0 0 1-2 0v-12ZM66 183a1 1 0 0 1 2 0v3a1 1 0 0 1-2 0v-3ZM69 181a1 1 0 0 1 2 0v7a1 1 0 0 1-2 0v-7ZM72 183a1 1 0 0 1 2 0v3a1 1 0 0 1-2 0v-3ZM75 183a1 1 0 0 1 2 0v3a1 1 0 0 1-2 0v-3ZM78 181a1 1 0 0 1 2 0v7a1 1 0 0 1-2 0v-7ZM81 178.5a1 1 0 0 1 2 0v12a1 1 0 0 1-2 0v-12ZM84 177a1 1 0 0 1 2 0v15a1 1 0 0 1-2 0v-15ZM87 182a1 1 0 0 1 2 0v5a1 1 0 0 1-2 0v-5ZM90 183a1 1 0 0 1 2 0v3a1 1 0 0 1-2 0v-3ZM93 181a1 1 0 0 1 2 0v7a1 1 0 0 1-2 0v-7ZM96 181a1 1 0 0 1 2 0v7a1 1 0 0 1-2 0v-7ZM99 180.5a1 1 0 0 1 2 0v8a1 1 0 0 1-2 0v-8ZM102 178.5a1 1 0 0 1 2 0v12a1 1 0 0 1-2 0v-12ZM105 179a1 1 0 0 1 2 0v11a1 1 0 0 1-2 0v-11ZM108 184a1 1 0 0 1 2 0v1a1 1 0 0 1-2 0v-1ZM111 182.5a1 1 0 0 1 2 0v4a1 1 0 0 1-2 0v-4ZM114 180a1 1 0 0 1 2 0v9a1 1 0 0 1-2 0v-9ZM117 184a1 1 0 0 1 2 0v1a1 1 0 0 1-2 0v-1ZM120 181a1 1 0 0 1 2 0v7a1 1 0 0 1-2 0v-7ZM123 183a1 1 0 0 1 2 0v3a1 1 0 0 1-2 0v-3ZM126 183a1 1 0 0 1 2 0v3a1 1 0 0 1-2 0v-3ZM129 179a1 1 0 0 1 2 0v11a1 1 0 0 1-2 0v-11ZM132 180.5a1 1 0 0 1 2 0v8a1 1 0 0 1-2 0v-8ZM135 181a1 1 0 0 1 2 0v7a1 1 0 0 1-2 0v-7ZM138 180a1 1 0 0 1 2 0v9a1 1 0 0 1-2 0v-9ZM141 178.5a1 1 0 0 1 2 0v12a1 1 0 0 1-2 0v-12ZM144 183a1 1 0 0 1 2 0v3a1 1 0 0 1-2 0v-3ZM147 183a1 1 0 0 1 2 0v3a1 1 0 0 1-2 0v-3ZM150 179a1 1 0 0 1 2 0v11a1 1 0 0 1-2 0v-11ZM153 178.5a1 1 0 0 1 2 0v12a1 1 0 0 1-2 0v-12ZM156 180.5a1 1 0 0 1 2 0v8a1 1 0 0 1-2 0v-8ZM159 184a1 1 0 0 1 2 0v1a1 1 0 0 1-2 0v-1ZM162 181a1 1 0 0 1 2 0v7a1 1 0 0 1-2 0v-7ZM165 182.5a1 1 0 0 1 2 0v4a1 1 0 0 1-2 0v-4ZM168 181a1 1 0 0 1 2 0v7a1 1 0 0 1-2 0v-7ZM171 181a1 1 0 0 1 2 0v7a1 1 0 0 1-2 0v-7ZM174 179a1 1 0 0 1 2 0v11a1 1 0 0 1-2 0v-11ZM177 181a1 1 0 0 1 2 0v7a1 1 0 0 1-2 0v-7ZM180 181a1 1 0 0 1 2 0v7a1 1 0 0 1-2 0v-7ZM183 184a1 1 0 0 1 2 0v1a1 1 0 0 1-2 0v-1ZM186 182.5a1 1 0 0 1 2 0v4a1 1 0 0 1-2 0v-4Z"/></g><g fill="#2FC6F6" clip-path="url(#j)"><path d="M0 202a1 1 0 0 1 2 0v3a1 1 0 0 1-2 0v-3ZM3 202a1 1 0 0 1 2 0v3a1 1 0 0 1-2 0v-3ZM6 200a1 1 0 0 1 2 0v7a1 1 0 0 1-2 0v-7ZM9 200a1 1 0 0 1 2 0v7a1 1 0 0 1-2 0v-7ZM12 202a1 1 0 0 1 2 0v3a1 1 0 0 1-2 0v-3ZM15 202a1 1 0 0 1 2 0v3a1 1 0 0 1-2 0v-3ZM18 200a1 1 0 0 1 2 0v7a1 1 0 0 1-2 0v-7ZM21 196a1 1 0 0 1 2 0v15a1 1 0 0 1-2 0v-15ZM24 202a1 1 0 0 1 2 0v3a1 1 0 0 1-2 0v-3ZM27 197.5a1 1 0 0 1 2 0v12a1 1 0 0 1-2 0v-12ZM30 201a1 1 0 0 1 2 0v5a1 1 0 0 1-2 0v-5ZM33 200a1 1 0 0 1 2 0v7a1 1 0 0 1-2 0v-7ZM36 201a1 1 0 0 1 2 0v5a1 1 0 0 1-2 0v-5ZM39 203a1 1 0 0 1 2 0v1a1 1 0 0 1-2 0v-1ZM42 196a1 1 0 0 1 2 0v15a1 1 0 0 1-2 0v-15ZM45 202a1 1 0 0 1 2 0v3a1 1 0 0 1-2 0v-3ZM48 199.5a1 1 0 0 1 2 0v8a1 1 0 0 1-2 0v-8ZM51 200a1 1 0 0 1 2 0v7a1 1 0 0 1-2 0v-7ZM54 199.5a1 1 0 0 1 2 0v8a1 1 0 0 1-2 0v-8ZM57 200a1 1 0 0 1 2 0v7a1 1 0 0 1-2 0v-7ZM60 197a1 1 0 0 1 2 0v13a1 1 0 0 1-2 0v-13ZM63 197.5a1 1 0 0 1 2 0v12a1 1 0 0 1-2 0v-12ZM66 202a1 1 0 0 1 2 0v3a1 1 0 0 1-2 0v-3ZM69 200a1 1 0 0 1 2 0v7a1 1 0 0 1-2 0v-7ZM72 202a1 1 0 0 1 2 0v3a1 1 0 0 1-2 0v-3ZM75 202a1 1 0 0 1 2 0v3a1 1 0 0 1-2 0v-3ZM78 200a1 1 0 0 1 2 0v7a1 1 0 0 1-2 0v-7ZM81 197.5a1 1 0 0 1 2 0v12a1 1 0 0 1-2 0v-12ZM84 196a1 1 0 0 1 2 0v15a1 1 0 0 1-2 0v-15ZM87 201a1 1 0 0 1 2 0v5a1 1 0 0 1-2 0v-5ZM90 202a1 1 0 0 1 2 0v3a1 1 0 0 1-2 0v-3ZM93 200a1 1 0 0 1 2 0v7a1 1 0 0 1-2 0v-7ZM96 200a1 1 0 0 1 2 0v7a1 1 0 0 1-2 0v-7ZM99 199.5a1 1 0 0 1 2 0v8a1 1 0 0 1-2 0v-8ZM102 197.5a1 1 0 0 1 2 0v12a1 1 0 0 1-2 0v-12ZM105 198a1 1 0 0 1 2 0v11a1 1 0 0 1-2 0v-11ZM108 203a1 1 0 0 1 2 0v1a1 1 0 0 1-2 0v-1ZM111 201.5a1 1 0 0 1 2 0v4a1 1 0 0 1-2 0v-4ZM114 199a1 1 0 0 1 2 0v9a1 1 0 0 1-2 0v-9ZM117 203a1 1 0 0 1 2 0v1a1 1 0 0 1-2 0v-1ZM120 200a1 1 0 0 1 2 0v7a1 1 0 0 1-2 0v-7ZM123 202a1 1 0 0 1 2 0v3a1 1 0 0 1-2 0v-3ZM126 202a1 1 0 0 1 2 0v3a1 1 0 0 1-2 0v-3ZM129 198a1 1 0 0 1 2 0v11a1 1 0 0 1-2 0v-11ZM132 199.5a1 1 0 0 1 2 0v8a1 1 0 0 1-2 0v-8ZM135 200a1 1 0 0 1 2 0v7a1 1 0 0 1-2 0v-7ZM138 199a1 1 0 0 1 2 0v9a1 1 0 0 1-2 0v-9ZM141 197.5a1 1 0 0 1 2 0v12a1 1 0 0 1-2 0v-12ZM144 202a1 1 0 0 1 2 0v3a1 1 0 0 1-2 0v-3ZM147 202a1 1 0 0 1 2 0v3a1 1 0 0 1-2 0v-3ZM150 198a1 1 0 0 1 2 0v11a1 1 0 0 1-2 0v-11ZM153 197.5a1 1 0 0 1 2 0v12a1 1 0 0 1-2 0v-12ZM156 199.5a1 1 0 0 1 2 0v8a1 1 0 0 1-2 0v-8ZM159 203a1 1 0 0 1 2 0v1a1 1 0 0 1-2 0v-1ZM162 200a1 1 0 0 1 2 0v7a1 1 0 0 1-2 0v-7ZM165 201.5a1 1 0 0 1 2 0v4a1 1 0 0 1-2 0v-4ZM168 200a1 1 0 0 1 2 0v7a1 1 0 0 1-2 0v-7ZM171 200a1 1 0 0 1 2 0v7a1 1 0 0 1-2 0v-7ZM174 198a1 1 0 0 1 2 0v11a1 1 0 0 1-2 0v-11ZM177 200a1 1 0 0 1 2 0v7a1 1 0 0 1-2 0v-7ZM180 200a1 1 0 0 1 2 0v7a1 1 0 0 1-2 0v-7ZM183 203a1 1 0 0 1 2 0v1a1 1 0 0 1-2 0v-1ZM186 201.5a1 1 0 0 1 2 0v4a1 1 0 0 1-2 0v-4Z"/></g><defs><clipPath id="a"><path fill="#fff" d="M0 0h188v17H0z"/></clipPath><clipPath id="b"><path fill="#fff" d="M0 19h188v17H0z"/></clipPath><clipPath id="c"><path fill="#fff" d="M0 44h188v17H0z"/></clipPath><clipPath id="d"><path fill="#fff" d="M0 63h188v17H0z"/></clipPath><clipPath id="e"><path fill="#fff" d="M0 88h188v17H0z"/></clipPath><clipPath id="f"><path fill="#fff" d="M0 107h188v17H0z"/></clipPath><clipPath id="g"><path fill="#fff" d="M0 132h188v17H0z"/></clipPath><clipPath id="h"><path fill="#fff" d="M0 151h188v17H0z"/></clipPath><clipPath id="i"><path fill="#fff" d="M0 176h188v17H0z"/></clipPath><clipPath id="j"><path fill="#fff" d="M0 195h188v17H0z"/></clipPath></defs></svg>