<svg width="39" height="38" viewBox="0 0 39 38" fill="none" xmlns="http://www.w3.org/2000/svg">
	<path fill-rule="evenodd" clip-rule="evenodd" d="M22.6564 9.46963C22.6873 9.8713 22.7707 10.9559 21.752 12.146C21.014 12.9947 20.1178 13.4914 19.1351 13.4172C19.0523 12.3943 19.4401 11.4863 20.099 10.7525C20.6977 10.0668 21.7482 9.51087 22.6556 9.45898L22.6564 9.46963ZM25.6819 15.0991C24.4336 15.8611 23.8169 16.8957 23.8243 18.2666C23.8243 18.2685 23.8242 18.2721 23.8241 18.2772C23.8191 18.4582 23.7607 20.5839 26.1165 21.6992C25.6633 23.0738 24.1104 26.1292 22.3048 26.1553C21.799 26.1553 21.3943 25.9983 20.9771 25.8365C20.5334 25.6643 20.0754 25.4867 19.4665 25.4867C18.8073 25.4867 18.3111 25.6758 17.8464 25.853C17.452 26.0033 17.0802 26.145 16.6504 26.1553C14.8597 26.2113 13.1433 22.8496 12.6678 21.4788C12.3111 20.4367 12.1328 19.4245 12.1328 18.4458C12.1328 15.1327 14.3359 13.5042 16.4089 13.4706C16.9836 13.4706 17.6486 13.7121 18.2165 13.9184C18.6399 14.0722 19.0093 14.2064 19.2473 14.2064C19.4397 14.2064 19.7537 14.0896 20.139 13.9463C20.8101 13.6968 21.6973 13.3668 22.5351 13.4332C23.9283 13.5415 24.9834 14.0943 25.6819 15.0991Z" fill="#333333"/>
</svg>