<svg width="39" height="38" viewBox="0 0 39 38" fill="none" xmlns="http://www.w3.org/2000/svg">
	<path fill-rule="evenodd" clip-rule="evenodd" d="M21.2684 12.3527C19.0643 12.8863 16.8706 13.4175 14.6676 13.9509V14.0997C14.6677 17.1023 14.6673 20.105 14.6696 23.1076C14.6696 23.1896 14.6489 23.2314 14.5708 23.262C13.7146 23.5976 12.8596 23.9367 12.0044 24.275C11.7711 24.3674 11.5379 24.4603 11.3047 24.553C11.3055 24.5594 11.3062 24.5658 11.307 24.5723C14.6249 25.035 17.9428 25.4978 21.2684 25.9616V12.3527ZM26.8567 18.951C26.8567 21.5378 26.8562 24.1246 26.8586 26.7115C26.8588 26.8105 26.8359 26.8523 26.7343 26.8808C24.9546 27.3787 23.1767 27.8829 21.3974 28.3823C21.3402 28.3983 21.2677 28.3936 21.2116 28.3726C18.1787 27.2335 15.1469 26.0916 12.1149 24.95C11.8767 24.8604 11.6394 24.7681 11.4 24.682C11.3302 24.6569 11.3092 24.6193 11.3092 24.5444C11.3101 20.8099 11.3091 17.0754 11.3059 13.3408C11.3058 13.2596 11.3325 13.2265 11.4041 13.1992C14.6687 11.9518 17.9324 10.7021 21.1976 9.45618C21.2617 9.43171 21.3466 9.43061 21.413 9.44997C23.1906 9.96818 24.9669 10.4912 26.7443 11.0101C26.8339 11.0363 26.859 11.0758 26.859 11.1694C26.8562 13.7633 26.8567 16.3571 26.8567 18.951V18.951Z" fill="#FF0000"/>
</svg>