<svg width="24" height="24" viewBox="0 0 24 24" fill="none" xmlns="http://www.w3.org/2000/svg">
	<path d="M12.9219 6.99021C12.3515 6.66088 11.6488 6.66088 11.0784 6.99021L8.12273 8.69663C7.55232 9.02596 7.20094 9.63458 7.20094 10.2932V13.7061C7.20094 14.3647 7.55232 14.9734 8.12273 15.3027L11.0784 17.0091C11.6488 17.3384 12.3515 17.3384 12.9219 17.0091L15.8776 15.3027C16.448 14.9734 16.7994 14.3647 16.7994 13.7061V10.2932C16.7994 9.63458 16.448 9.02596 15.8776 8.69664L12.9219 6.99021Z" fill="#47505C"/>
	<path fill-rule="evenodd" clip-rule="evenodd" d="M10.1529 3.82992C11.296 3.16997 12.7043 3.16997 13.8474 3.82992L18.1516 6.31498C19.2947 6.97493 19.9988 8.19456 19.9988 9.51445V14.4846C19.9988 15.8045 19.2947 17.0241 18.1516 17.684L13.8474 20.1691C12.7043 20.8291 11.296 20.8291 10.1529 20.1691L5.84868 17.684C4.70562 17.0241 4.00146 15.8045 4.00146 14.4846V9.51445C4.00146 8.19456 4.70562 6.97493 5.84868 6.31498L10.1529 3.82992ZM13.0474 5.21556L17.3516 7.70062C17.9996 8.07476 18.3988 8.76619 18.3988 9.51445V14.4846C18.3988 15.2328 17.9996 15.9243 17.3516 16.2984L13.0474 18.7835C12.3993 19.1576 11.601 19.1576 10.9529 18.7835L6.64868 16.2984C6.00066 15.9243 5.60146 15.2328 5.60146 14.4846V9.51445C5.60146 8.76619 6.00066 8.07476 6.64868 7.70062L10.9529 5.21556C11.601 4.84143 12.3993 4.84143 13.0474 5.21556Z" fill="#47505C"/>
</svg>
