<svg width="30" height="30" viewBox="0 0 30 30" fill="none" xmlns="http://www.w3.org/2000/svg">
<circle cx="15" cy="15" r="15" fill="#2FC6F6"/>
<path fill-rule="evenodd" clip-rule="evenodd" d="M14.9352 23.0003C19.3177 23.0003 22.8704 19.4476 22.8704 15.0651C22.8704 10.6826 19.3177 7.12988 14.9352 7.12988C10.5527 7.12988 7 10.6826 7 15.0651C7 19.4476 10.5527 23.0003 14.9352 23.0003ZM16.1086 14.1855H14.0535V14.1863H13.1718V15.0265H14.0535V18.5918H13.1718V19.4735H14.0535V19.4732H15.8169V19.4735H16.6986V18.5918H16.1086V14.1855ZM16.1754 11.5499C16.1754 12.2349 15.6201 12.7901 14.9352 12.7901C14.2503 12.7901 13.695 12.2349 13.695 11.5499C13.695 10.865 14.2503 10.3097 14.9352 10.3097C15.6201 10.3097 16.1754 10.865 16.1754 11.5499Z" fill="white"/>
</svg>
