<svg width="30" height="30" viewBox="0 0 30 30" fill="none" xmlns="http://www.w3.org/2000/svg">
<circle cx="15" cy="15" r="15" fill="#F4433E"/>
<path fill-rule="evenodd" clip-rule="evenodd" d="M23.0157 18.9123L16.1366 7.45464C15.6065 6.57502 14.3435 6.57502 13.8247 7.45464L6.94561 18.9123C6.4043 19.8145 7.05838 20.9535 8.10716 20.9535H21.8654C22.9029 20.9535 23.557 19.8145 23.0157 18.9123ZM13.9939 11.4468C13.9939 10.9393 14.3999 10.5333 14.9073 10.5333H15.0314C15.5389 10.5333 15.9448 10.9393 15.9448 11.4468V14.8638C15.9448 15.3713 15.5389 15.7772 15.0314 15.7772H14.9073C14.3999 15.7772 13.9939 15.3713 13.9939 14.8638V11.4468ZM16.1253 18.0778C16.1253 18.7093 15.6065 19.2281 14.975 19.2281C14.3435 19.2281 13.8247 18.7093 13.8247 18.0778C13.8247 17.4463 14.3435 16.9275 14.975 16.9275C15.6065 16.9275 16.1253 17.4463 16.1253 18.0778Z" fill="white"/>
</svg>
