<svg xmlns="http://www.w3.org/2000/svg" width="409" height="186" viewBox="0 0 409 186">
  <g fill="none" fill-rule="evenodd">
    <g opacity=".15">
      <path fill="#2FC6F6" d="M398.576908 88.0079613L375.38663 88.0079613C375.188198 88.0079613 374.991476 88.0005611 374.796721 87.986019 369.555646 87.8654502 365.344015 83.5354542 365.34375 78.211824 365.345274 75.6170632 366.366979 73.1291886 368.184101 71.2955045 369.115535 70.3555816 370.216851 69.6270102 371.415057 69.1402864 371.395011 68.8762496 371.384803 68.6094313 371.384803 68.3402052 371.386454 65.6023604 372.46454 62.9773132 374.381895 61.0425441 376.299251 59.1077751 378.898815 58.0217707 381.608713 58.0234394 385.080017 58.027716 388.144782 59.7814969 389.986636 62.4583144 390.861296 62.1452209 391.802842 61.9750482 392.783752 61.9755707 397.116918 61.9808407 400.675887 65.3180673 401.088464 69.5858231 405.240379 70.5003146 408.347417 74.2373129 408.343747 78.7053469 408.339517 83.8543462 404.205729 88.0255712 399.109286 88.0234367 398.930594 88.0233618 398.753089 88.0181574 398.576908 88.0079613zM19.3813747 17.1979085L6.16496177 17.1979085C6.05187296 17.1979085 5.93975914 17.1936911 5.82876599 17.1854033 2.84181543 17.1166898.441557162 14.648974.44140625 11.6149744.442274651 10.1361896 1.02455629 8.7183206 2.06015579 7.67328244 2.59099083 7.13760926 3.2186442 6.72238787 3.90151549 6.4449982 3.89009126 6.29452052 3.88427376 6.14245766 3.88427365 5.98902252 3.88521441 4.42869249 4.49962853 2.93264712 5.59235185 1.82999946 6.68507518.727351802 8.16659746.108425053 9.71100055.109376094 11.6893374.111813354 13.4359829 1.11131377 14.4856774 2.63686364 14.9841562 2.45842794 15.5207544 2.36144452 16.0797867 2.36174229 18.549309 2.36474572 20.5776077 4.26667048 20.8127398 6.69891482 23.1789651 7.22009429 24.9497028 9.34985366 24.9476112 11.8962389 24.9452008 14.8307143 22.589306 17.2079446 19.6847832 17.2067281 19.5829443 17.2066855 19.4817822 17.2037194 19.3813747 17.1979085z"/>
      <path stroke="#2FC6F6" d="M110.338277 104.143503L64.404147 104.143503C64.0111027 104.143503 63.621447 104.128845 63.2356862 104.10004 52.8544294 103.861224 44.5122432 95.2845867 44.5117188 84.7398092 44.5147369 79.6002382 46.5384782 74.6723821 50.1377425 71.0403134 51.9826792 69.1785615 54.1641116 67.7354443 56.537456 66.7713663 56.4977507 66.2483755 56.4775317 65.7198755 56.4775314 65.186606 56.480801 59.7636214 58.6162199 54.5640606 62.4140201 50.731768 66.2118203 46.8994754 71.3609057 44.7483726 76.7285356 44.751678 83.6043183 44.7601488 89.674849 48.2339494 93.3231012 53.5360542 95.0555825 52.9158943 96.9205493 52.5788249 98.8634865 52.5798598 107.446403 52.5902983 114.49583 59.200508 115.31304 67.6538629 123.536943 69.4652413 129.691207 76.8672985 129.683938 85.7173545 129.67556 95.9162319 121.487561 104.178383 111.392785 104.174155 111.03884 104.174007 110.687247 104.163699 110.338277 104.143503zM298.887017 29.3938513L282.741881 29.3938513C282.603732 29.3938513 282.466774 29.3886992 282.331185 29.3785749 278.682334 29.2946346 275.750184 26.2800794 275.75 22.5737533 275.751061 20.7672736 276.462375 19.0352084 277.72746 17.7585925 278.375927 17.1042155 279.142667 16.5969821 279.976861 16.2581236 279.962905 16.0743005 279.955798 15.8885408 279.955798 15.7011049 279.956947 13.7950097 280.707514 11.9674445 282.042382 10.620453 283.37725 9.27346143 285.187074 8.5173821 287.073713 8.51854389 289.490444 8.52152124 291.624141 9.74250838 292.906446 11.6061162 293.515386 11.3881396 294.170893 11.2696649 294.853805 11.2700287 297.870568 11.2736976 300.348332 13.597084 300.635569 16.5683075 303.526144 17.204979 305.689272 19.8066876 305.686717 22.9173453 305.683773 26.5020929 302.805817 29.4061113 299.25766 29.4046253 299.133254 29.4045732 299.009674 29.4009498 298.887017 29.3938513z"/>
    </g>
    <path fill="#525C69" fill-rule="nonzero" d="M44.4935125,0.0769382847 C68.5934778,0.0769382847 88.1301896,2.10256552 88.1301896,4.60140408 C88.1301896,7.10017194 68.5934778,9.12583452 44.4935125,9.12583452 C20.3935471,9.12583452 0.857176274,7.10017194 0.857176274,4.60140408 C0.857176274,2.10256552 20.393888,0.0769382847 44.4935125,0.0769382847 Z" transform="translate(171 176)" opacity=".059"/>
    <g fill-rule="nonzero" transform="translate(158.5 24.095)">
      <path fill="#828B95" fill-opacity=".495" d="M56.794094,-7.10542736e-15 C25.5205111,-7.10542736e-15 -7.10542736e-15,25.5102235 -7.10542736e-15,56.9936829 C-7.10542736e-15,88.4771424 25.5102231,113.987366 56.993682,113.987366 C88.2672649,113.987366 113.987364,88.4771424 113.987364,56.9936829 C113.995401,25.5102235 88.2754953,-7.10542736e-15 56.7920364,-7.10542736e-15 L56.794094,-7.10542736e-15 Z M56.9936829,111.781159 C27.0183817,111.781159 2.57390826,87.17152 2.57390826,56.9936829 C2.57390826,26.8158459 27.0183817,2.20620708 56.9936829,2.20620708 C86.9689842,2.20620708 111.413458,26.8158459 111.413458,56.9936829 C111.405155,87.17152 86.9604818,111.781159 56.9936829,111.781159 Z" opacity=".418" transform="matrix(-1 0 0 1 113.987 0)"/>
      <path fill="#2FC6F6" d="M56.8182275,7.27390409 C29.326119,7.27390409 6.89144426,29.5283472 6.89144426,56.9936829 C6.89144426,84.4590187 29.317075,106.713462 56.9936821,106.713462 C84.4857906,106.713462 107.09592,84.4590187 107.09592,56.9936829 C107.102985,29.5283472 84.4930259,7.27390409 56.8164187,7.27390409 L56.8182275,7.27390409 Z M56.8415791,100.932286 C32.4533089,100.932286 12.5649875,81.1957836 12.5649875,56.9936829 C12.5649875,32.7915823 32.4533089,13.0550798 56.8415791,13.0550798 C81.2298494,13.0550798 101.118171,32.7915823 101.118171,56.9936829 C101.111416,81.1957836 81.2229317,100.932286 56.8415791,100.932286 Z" transform="matrix(-1 0 0 1 113.987 0)"/>
    </g>
      <g>
          <path stroke="#333" stroke-width="4.5" d="M0.55,-8.17124146e-14 L0.55,32.9936833" transform="translate(215 81)" stroke-linecap="round" stroke-linejoin="round"/>
          <animateTransform xmlns="http://www.w3.org/2000/svg" attributeType="xml" attributeName="transform" type="rotate" from="0 215 81" to="360 215 81" dur="1s" repeatCount="indefinite"/>
      </g>
      <g>
          <path stroke="#333" stroke-width="4.5" d="M0.55,20 L0.55,-3.55271368e-15" transform="translate(215 81)" stroke-linecap="round" stroke-linejoin="round"/>
          <animateTransform xmlns="http://www.w3.org/2000/svg" attributeType="xml" attributeName="transform" type="rotate" from="0 215 81" to="360 215 81" dur="12s" begin="0.5s" repeatCount="indefinite"/>
      </g>
    <path fill="#000000" fill-rule="nonzero" d="M38.078896,72.8057127 L38.078896,64.1240085 C38.078896,63.5220517 37.5913966,63.0387955 36.9936829,63.0387955 C36.3959693,63.0387955 35.9084699,63.5220517 35.9084699,64.1240085 L35.9084699,72.8057127 C35.9084699,73.4076695 36.3959693,73.8909258 36.9936829,73.8909258 C37.5913966,73.8909258 38.078896,73.4076695 38.078896,72.8057127 Z M38.078896,10.7561386 L38.078896,2.07443436 C38.078896,1.47247755 37.5913966,0.98922134 36.9936829,0.98922134 C36.3959693,0.98922134 35.9084699,1.47247755 35.9084699,2.07443436 L35.9084699,10.7561386 C35.9084699,11.3580954 36.3959693,11.8413516 36.9936829,11.8413516 C37.5913966,11.8413516 38.078896,11.3580954 38.078896,10.7561386 Z M17.9774951,6.62074084 L22.3650114,14.1112067 C22.6659844,14.6283758 23.3315238,14.8021835 23.8487146,14.4969674 C24.3658838,14.1959944 24.5396915,13.5304549 24.2344753,13.0132641 L19.8469591,5.52279827 C19.5459861,5.00562915 18.8804466,4.83182143 18.3632558,5.13703759 C17.850319,5.44225375 17.6765222,6.10355002 17.9774951,6.62074084 Z M5.52684611,19.8505728 L13.017312,24.2380891 C13.5344811,24.539062 14.1999771,24.3652652 14.5010152,23.8523284 C14.8019882,23.3351593 14.6281913,22.6696632 14.1152545,22.3686251 L6.62478868,17.9811089 C6.10761956,17.6801359 5.44212353,17.8539328 5.14108544,18.3668696 C4.83586927,18.8840387 5.00967699,19.5495347 5.52684611,19.8505728 Z M6.6205238,56.0098708 L14.1109896,51.6223545 C14.6281588,51.3213815 14.8019665,50.6558421 14.4967503,50.1386513 C14.1957773,49.6214821 13.5302379,49.4476744 13.0130471,49.7528906 L5.52258122,54.1404068 C5.0054121,54.4413798 4.83160439,55.1069193 5.13682055,55.6241101 C5.44203671,56.1370469 6.10333297,56.3108437 6.6205238,56.0098708 Z M19.8503558,68.4605198 L24.237872,60.9700539 C24.538845,60.4528848 24.3650481,59.7873888 23.8521113,59.4863507 C23.3349422,59.1853777 22.6694462,59.3591746 22.3684081,59.8721114 L17.9808918,67.3625772 C17.6799189,67.8797463 17.8537157,68.5452424 18.3666525,68.8462805 C18.8838216,69.1514966 19.5493177,68.9776889 19.8503558,68.4605198 Z M56.0096537,67.3668421 L51.6221375,59.8763762 C51.3211645,59.3592071 50.655625,59.1853994 50.1384342,59.4906156 C49.6212651,59.7915885 49.4474574,60.457128 49.7526735,60.9743188 L54.1401898,68.4647847 C54.4411628,68.9819538 55.1067022,69.1557615 55.623893,68.8505453 C56.1368298,68.5453292 56.3106267,67.8840329 56.0096537,67.3668421 Z M68.4603027,54.1370101 L60.9698369,49.7494939 C60.4526678,49.4485209 59.7871717,49.6223178 59.4861336,50.1352545 C59.1851607,50.6524237 59.3589575,51.3179197 59.8718943,51.6189578 L67.3623602,56.006474 C67.8795293,56.307447 68.5450253,56.1336502 68.8460634,55.6207134 C69.1512796,55.1035443 68.9774719,54.4380482 68.4603027,54.1370101 Z M67.3666251,17.9777122 L59.8761592,22.3652284 C59.3589901,22.6662014 59.1851824,23.3317409 59.4903985,23.8489317 C59.7913715,24.3661008 60.4569109,24.5399085 60.9741018,24.2346923 L68.4645676,19.8471761 C68.9817367,19.5462031 69.1555445,18.8806637 68.8503283,18.3634728 C68.5451121,17.8505361 67.8838159,17.6767392 67.3666251,17.9777122 Z M54.1367931,5.52706315 L49.7492768,13.017529 C49.4483038,13.5346981 49.6221007,14.2001942 50.1350375,14.5012323 C50.6522066,14.8022052 51.3177027,14.6284084 51.6187407,14.1154716 L56.006257,6.62500573 C56.30723,6.10783661 56.1334331,5.44234057 55.6204963,5.14130248 C55.1033272,4.83608632 54.4378312,5.00989403 54.1367931,5.52706315 Z M10.9485704,36.9939 C10.9485704,36.3961864 10.461071,35.908687 9.86335735,35.908687 L1.18165316,35.908687 C0.583939534,35.908687 0.0964401395,36.3961864 0.0964401395,36.9939 C0.0964401395,37.5916136 0.583939534,38.079113 1.18165316,38.079113 L9.86335735,38.079113 C10.461071,38.079113 10.9485704,37.5916136 10.9485704,36.9939 Z M73.8909258,36.9939 C73.8909258,36.3961864 73.4034264,35.908687 72.8057127,35.908687 L64.1240085,35.908687 C63.5262949,35.908687 63.0387955,36.3961864 63.0387955,36.9939 C63.0387955,37.5916136 63.5262949,38.079113 64.1240085,38.079113 L72.8057127,38.079113 C73.4034264,38.079113 73.8909258,37.5916136 73.8909258,36.9939 Z" transform="matrix(-1 0 0 1 252.487 44.095)" opacity=".3"/>
    <path fill="#9DCF00" fill-rule="nonzero" d="M5.90787431,0.90505666 C2.68224458,0.90505666 0.05,3.51615479 0.05,6.73864328 C0.05,9.96113178 2.68118345,12.5722299 5.92846027,12.5722299 C9.15408999,12.5722299 11.8069205,9.96113178 11.8069205,6.73864328 C11.8077495,3.51615479 9.1549389,0.90505666 5.90766208,0.90505666 L5.90787431,0.90505666 Z" transform="translate(209.5 74.495)" />
  </g>
</svg>

