<svg xmlns="http://www.w3.org/2000/svg" width="387" height="186" viewBox="0 0 387 186">
  <g fill="none" fill-rule="evenodd" transform="translate(-.127 -1)">
    <g transform="translate(150.5 35.59)">
      <circle cx="53.875" cy="53.875" r="53.875" fill="#F8E90B" fill-rule="nonzero"/>
      <path fill="#525C69" fill-rule="nonzero" d="M53.9935125,142.093202 C78.0934778,142.093202 97.6301896,144.118829 97.6301896,146.617668 C97.6301896,149.116436 78.0934778,151.142098 53.9935125,151.142098 C29.8935471,151.142098 10.3571763,149.116436 10.3571763,146.617668 C10.3571763,144.118829 29.893888,142.093202 53.9935125,142.093202 Z" opacity=".059"/>
      <path fill="#333333" d="M70.7778824 81.8145798C70.3176514 81.8145798 69.8516131 81.6886049 69.4450999 81.4259339 54.3532983 71.6803021 39.0640473 81.3281023 38.9101531 81.4259339 37.8546706 82.1067344 36.4028379 81.8708665 35.6667587 80.8965713 34.9292276 79.9236163 35.186202 78.5834579 36.2402326 77.9039976 36.418808 77.788744 54.3823349 66.4550245 72.1150204 77.9039976 73.169051 78.5834579 73.4260254 79.9236163 72.6884943 80.8965713 72.2355225 81.494282 71.5125098 81.8145798 70.7778824 81.8145798M41.504228 55.3389707C39.4935129 55.3389707 37.8635062 49.4709467 37.8635062 42.2323723 37.8635062 34.993798 39.4935129 29.125774 41.504228 29.125774 43.5149431 29.125774 45.1449497 34.993798 45.1449497 42.2323723 45.1449497 49.4709467 43.5149431 55.3389707 41.504228 55.3389707zM64.8048472 55.3389707C62.7941321 55.3389707 61.1641255 49.4709467 61.1641255 42.2323723 61.1641255 34.993798 62.7941321 29.125774 64.8048472 29.125774 66.8155623 29.125774 68.445569 34.993798 68.445569 42.2323723 68.445569 49.4709467 66.8155623 55.3389707 64.8048472 55.3389707z" opacity=".565"/>
    </g>
    <g opacity=".15">
      <path fill="#2FC6F6" d="M376.411496 82.2153911L353.221217 82.2153911C353.022785 82.2153911 352.826064 82.2079909 352.631309 82.1934487 347.390234 82.07288 343.178602 77.742884 343.178338 72.4192538 343.179861 69.824493 344.201566 67.3366184 346.018689 65.5029343 346.950122 64.5630114 348.051439 63.83444 349.249644 63.3477162 349.229599 63.0836794 349.219391 62.8168611 349.219391 62.547635 349.221041 59.8097902 350.299128 57.1847429 352.216483 55.2499739 354.133838 53.3152049 356.733402 52.2292004 359.443301 52.2308692 362.914605 52.2351457 365.979369 53.9889267 367.821224 56.6657442 368.695883 56.3526507 369.637429 56.182478 370.618339 56.1830005 374.951505 56.1882705 378.510475 59.525497 378.923051 63.7932529 383.074966 64.7077443 386.182004 68.4447426 386.178334 72.9127767 386.174105 78.061776 382.040316 82.233001 376.943874 82.2308665 376.765181 82.2307916 376.587676 82.2255872 376.411496 82.2153911zM19.2168993 18.0649847L6.00048638 18.0649847C5.88739758 18.0649847 5.77528376 18.0607673 5.66429061 18.0524795 2.67734004 17.983766.277081777 15.5160502.276930865 12.4820506.277799266 11.0032658.860080903 9.5853968 1.89568041 8.54035864 2.42651545 8.00468546 3.05416881 7.58946407 3.73704011 7.3120744 3.72561587 7.16159672 3.71979838 7.00953386 3.71979826 6.85609872 3.72073902 5.29576869 4.33515314 3.79972332 5.42787647 2.69707566 6.52059979 1.594428 8.00212207.975501254 9.54652517.976452295 11.524862.978889555 13.2715075 1.97838997 14.321202 3.50393984 14.8196808 3.32550414 15.356279 3.22852072 15.9153113 3.22881849 18.3848336 3.23182192 20.4131323 5.13374668 20.6482644 7.56599102 23.0144898 8.08717049 24.7852274 10.2169299 24.7831358 12.7633151 24.7807254 15.6977905 22.4248306 18.0750208 19.5203078 18.0738043 19.4184689 18.0737617 19.3173068 18.0707956 19.2168993 18.0649847z"/>
      <path stroke="#2FC6F6" d="M90.7098918 100.473839L44.7757614 100.473839C44.3827171 100.473839 43.9930613 100.459181 43.6073006 100.430377 33.2260437 100.19156 24.8838576 91.6149233 24.8833331 81.0701459 24.8863513 75.9305749 26.9100926 71.0027187 30.5093568 67.3706501 32.3542936 65.5088982 34.535726 64.0657809 36.9090704 63.1017029 36.869365 62.5787122 36.8491461 62.0502121 36.8491457 61.5169426 36.8524153 56.093958 38.9878343 50.8943972 42.7856345 47.0621046 46.5834347 43.229812 51.73252 41.0787093 57.1001499 41.0820146 63.9759327 41.0904854 70.0464634 44.564286 73.6947155 49.8663908 75.4271969 49.246231 77.2921636 48.9091615 79.2351009 48.9101964 87.818017 48.9206349 94.8674439 55.5308446 95.6846541 63.9841995 103.908558 65.795578 110.062822 73.1976352 110.055552 82.0476911 110.047175 92.2465685 101.859175 100.50872 91.7643994 100.504492 91.4104544 100.504344 91.0588618 100.494035 90.7098918 100.473839zM277.363579 27.74932L261.218443 27.74932C261.080294 27.74932 260.943336 27.744168 260.807747 27.7340437 257.158896 27.6501034 254.226747 24.6355481 254.226562 20.929222 254.227623 19.1227423 254.938937 17.3906772 256.204023 16.1140612 256.85249 15.4596842 257.619229 14.9524509 258.453423 14.6135924 258.439467 14.4297692 258.432361 14.2440096 258.43236 14.0565736 258.43351 12.1504785 259.184076 10.3229133 260.518944 8.97592173 261.853812 7.62893018 263.663636 6.87285085 265.550275 6.87401264 267.967006 6.87698999 270.100704 8.09797713 271.383008 9.96158493 271.991949 9.74360835 272.647456 9.62513365 273.330368 9.6254974 276.34713 9.62916639 278.824895 11.9525528 279.112131 14.9237762 282.002706 15.5604477 284.165835 18.1621563 284.16328 21.272814 284.160335 24.8575617 281.28238 27.7615801 277.734222 27.760094 277.609816 27.7600419 277.486237 27.7564186 277.363579 27.74932z"/>
    </g>
  </g>
</svg>
