<svg width="20" height="20" viewBox="0 0 20 20" fill="none" xmlns="http://www.w3.org/2000/svg">
<path fill-rule="evenodd" clip-rule="evenodd" d="M10 16.6929C13.6964 16.6929 16.6929 13.6964 16.6929 10C16.6929 6.30363 13.6964 3.30713 10 3.30713C6.30363 3.30713 3.30713 6.30363 3.30713 10C3.30713 13.6964 6.30363 16.6929 10 16.6929ZM10 15.2321C12.8896 15.2321 15.2321 12.8896 15.2321 10C15.2321 7.11043 12.8896 4.76796 10 4.76796C7.11043 4.76796 4.76796 7.11043 4.76796 10C4.76796 12.8896 7.11043 15.2321 10 15.2321ZM9.16668 9.16668V6.66668H10.8333V9.16668H13.3333V10.8333H10.8333V13.3333H9.16668V10.8333H6.66668V9.16668H9.16668Z" fill="#525C69"/>
</svg>
