<svg width="20" height="20" viewBox="0 0 20 20" fill="none" xmlns="http://www.w3.org/2000/svg">
	<path fill-rule="evenodd" clip-rule="evenodd" d="M17.0792 4.16103C17.4808 3.57796 16.9532 2.48762 16.0246 3.10645C14.1721 4.34092 10.4155 7.35369 8.57181 9.74415C8.31495 10.0772 8.47257 10.1384 8.77312 10.2551C8.98922 10.339 9.27921 10.4515 9.54214 10.7145C9.79524 10.9676 9.9219 11.2896 10.0222 11.5447C10.1711 11.9232 10.262 12.1543 10.622 11.7943C12.9169 9.49946 16.6776 4.74409 17.0792 4.16103ZM5.08193 13.0221C4.95765 13.3674 4.84395 13.6833 4.66042 13.9058C4.28517 14.3606 3.59099 14.7086 3.09426 14.9576C2.83357 15.0883 2.62727 15.1917 2.54998 15.269C2.32541 15.4936 5.13172 16.454 6.67438 15.7874C8.21704 15.1208 9.00019 14.3208 9.30916 13.276C9.61814 12.2312 8.429 10.4728 6.77754 11.0414C5.65578 11.4277 5.34513 12.2908 5.08193 13.0221Z" fill="#525C69"/>
</svg>