<svg width="20" height="20" viewBox="0 0 20 20" fill="none" xmlns="http://www.w3.org/2000/svg">
<path fill-rule="evenodd" clip-rule="evenodd" d="M14.922 4.95254C13.8495 3.88008 12.4122 3.28775 10.8814 3.30252C10.6072 3.31982 10.3885 3.53848 10.386 3.79792C10.398 4.0719 10.6125 4.28638 10.8719 4.28388C12.1569 4.25676 13.336 4.73663 14.237 5.63764C15.138 6.53865 15.6179 7.71773 15.5902 9.00329C15.5889 9.14762 15.6453 9.26212 15.7311 9.34804C15.8172 9.43404 15.9464 9.47571 16.0766 9.48854C16.3509 9.47121 16.5695 9.25254 16.572 8.99312C16.5875 7.46307 15.9944 6.02499 14.922 4.95254ZM13.506 11.8375L15.1368 13.0594C15.6294 13.4337 15.6677 14.1735 15.213 14.5954C13.5081 16.2246 10.6674 16.8571 6.92765 12.9034C3.18786 8.94954 3.93162 6.11917 5.63652 4.48986C6.09064 4.06809 6.81408 4.13787 7.15972 4.65157L8.30019 6.31956C8.69969 6.93184 8.44736 7.76605 7.83453 8.17506L7.14992 8.63204C6.99261 8.73221 6.94878 8.94221 7.03319 9.10312C7.91852 10.6571 9.19769 12.019 10.6937 12.9948C10.8429 13.081 11.0571 13.0365 11.1612 12.8945L11.6446 12.2092C12.0673 11.612 12.9269 11.4024 13.506 11.8375ZM11.1627 5.3952C12.0578 5.38601 12.8919 5.72479 13.5209 6.35379C14.1499 6.98279 14.4887 7.81695 14.4801 8.71262C14.4776 8.97212 14.2589 9.19079 13.9847 9.20804C13.8763 9.19737 13.7684 9.16587 13.6857 9.10596L13.6391 9.06637C13.5531 8.98029 13.4967 8.86579 13.498 8.72146C13.5042 8.08637 13.2639 7.49653 12.821 7.05359C12.3775 6.61008 11.7883 6.37044 11.1532 6.37657C10.8938 6.37907 10.6793 6.16458 10.6673 5.89062C10.6698 5.63117 10.8884 5.41251 11.1627 5.3952Z" fill="white"/>
</svg>
