<svg width="14" height="11" viewBox="0 0 14 11" fill="none" xmlns="http://www.w3.org/2000/svg">
<path fill-rule="evenodd" clip-rule="evenodd" d="M12.8333 1.83342H9.91663C9.7083 1.00007 9.49998 0.166748 8.66663 0.166748H5.33331C4.49998 0.166748 4.29163 1.00007 4.08331 1.83342H1.16664C0.708313 1.83342 0.333313 2.20842 0.333313 2.66675V10.1668C0.333313 10.6251 0.708313 11.0001 1.16664 11.0001H12.8333C13.2916 11.0001 13.6666 10.6251 13.6666 10.1668V2.66675C13.6666 2.20842 13.2916 1.83342 12.8333 1.83342ZM4.75432 6.44357C4.75432 7.69527 5.76901 8.70996 7.0207 8.70996C8.2724 8.70996 9.28711 7.69527 9.28711 6.44357C9.28711 5.19187 8.27242 4.17718 7.02072 4.17718C5.76903 4.17718 4.75432 5.19187 4.75432 6.44357ZM7.02072 9.53808C5.31168 9.53808 3.92622 8.15264 3.92622 6.44357C3.92622 4.73452 5.31166 3.34906 7.02072 3.34906C8.72979 3.34906 10.1152 4.7345 10.1152 6.44357C10.1152 8.15264 8.72981 9.53808 7.02072 9.53808ZM12.539 3.65425H11.3947V2.87925H12.539V3.65425Z" fill="#A8ADB4"/>
</svg>
