<svg width="22" height="22" viewBox="0 0 22 22" fill="none" xmlns="http://www.w3.org/2000/svg">
<g opacity="0.9">
<path d="M5.5591 4.552C4.54658 4.552 3.72577 5.37281 3.72577 6.38534V10.9687C3.72577 11.9812 4.54658 12.802 5.5591 12.802H5.79518V14.2242C5.79518 14.7142 6.38761 14.9596 6.73409 14.6131L7.84014 13.507V10.0172C7.84014 8.49845 9.07136 7.26723 10.5901 7.26723H14.7258V6.38534C14.7258 5.37281 13.905 4.552 12.8924 4.552H5.5591Z" fill="white"/>
<path d="M9.21452 10.3105C9.21452 9.29794 10.0353 8.47712 11.0479 8.47712H17.2205C18.233 8.47712 19.0538 9.29794 19.0538 10.3105V13.9215C19.0538 14.9328 18.235 15.7528 17.2242 15.7548V16.9339C17.2242 17.4542 16.5688 17.6836 16.2443 17.277L15.0295 15.7548H11.0479C10.0353 15.7548 9.21452 14.934 9.21452 13.9215V10.3105Z" fill="white"/>
</g>
</svg>
