<svg width="20" height="20" viewBox="0 0 20 20" fill="none" xmlns="http://www.w3.org/2000/svg">
<path fill-rule="evenodd" clip-rule="evenodd" d="M15.3384 6.27898C15.5703 6.04711 15.5703 5.67035 15.3384 5.43848C15.1066 5.20661 14.7298 5.20661 14.4979 5.43848L13.815 6.12142C12.9336 5.39982 11.8435 4.92646 10.6499 4.80679L10.6491 4.4986H11.4339C11.7624 4.4986 12.0284 4.23256 12.0284 3.90408C12.0284 3.57561 11.7624 3.30957 11.4339 3.30957H8.67536C8.34689 3.30957 8.08085 3.57561 8.08085 3.90408C8.08085 4.23256 8.34689 4.4986 8.67536 4.4986H9.46012V4.80679C6.45997 5.10554 4.1095 7.6441 4.1095 10.7215C4.1095 13.9994 6.77672 16.6666 10.0546 16.6666C13.3325 16.6666 15.9998 13.9994 15.9998 10.7215C15.9998 9.29614 15.4944 7.98673 14.6554 6.96188L15.3384 6.27898ZM12.6178 11.5063H10.0547C9.7262 11.5063 9.46016 11.2403 9.46016 10.9118V7.67458C9.46016 7.3461 9.7262 7.08006 10.0547 7.08006C10.3832 7.08006 10.6492 7.3461 10.6492 7.67458V10.3173H12.6178C12.9463 10.3173 13.2123 10.5833 13.2123 10.9118C13.2123 11.2403 12.9463 11.5063 12.6178 11.5063Z" fill="#525C69"/>
</svg>
