<svg width="20" height="20" viewBox="0 0 20 20" fill="none" xmlns="http://www.w3.org/2000/svg">
<path fill-rule="evenodd" clip-rule="evenodd" d="M10.5763 12.2716V13.7269H9.42365V12.2716C9.2162 12.1026 9.0834 11.8443 9.0834 11.5547C9.0834 11.0454 9.49379 10.6325 9.99999 10.6325C10.5062 10.6325 10.9165 11.0454 10.9165 11.5547C10.9165 11.8443 10.7838 12.1026 10.5763 12.2716ZM7.49056 6.35914C7.49056 4.96472 8.61407 3.83431 9.99995 3.83431C11.3859 3.83431 12.5094 4.96472 12.5094 6.35914V8.49348H7.49056V6.35914ZM13.8356 8.49348V6.35914C13.8356 4.22777 12.1183 2.5 9.99998 2.5C7.88169 2.5 6.16443 4.22777 6.16443 6.35914V8.49348H5.5C5.22386 8.49348 5 8.71734 5 8.99348V15.3022C5 15.5784 5.22386 15.8022 5.5 15.8022H14.5C14.7761 15.8022 15 15.5784 15 15.3022V8.99348C15 8.71734 14.7761 8.49348 14.5 8.49348H13.8356Z" fill="white"/>
</svg>
