<svg width="20" height="20" viewBox="0 0 20 20" fill="none" xmlns="http://www.w3.org/2000/svg">
<path fill-rule="evenodd" clip-rule="evenodd" d="M5.14223 14.1667H4.16665C3.70641 14.1667 3.33331 13.7936 3.33331 13.3333C3.33331 12.8731 3.70641 12.5 4.16665 12.5H5.14223C5.48543 11.529 6.41146 10.8333 7.49998 10.8333C8.5885 10.8333 9.51453 11.529 9.85772 12.5H15C15.4602 12.5 15.8333 12.8731 15.8333 13.3333C15.8333 13.7936 15.4602 14.1667 15 14.1667H9.85772C9.51453 15.1377 8.5885 15.8333 7.49998 15.8333C6.41146 15.8333 5.48543 15.1377 5.14223 14.1667ZM9.3089 8.33333H4.16665C3.70641 8.33333 3.33331 7.96024 3.33331 7.5C3.33331 7.03976 3.70641 6.66667 4.16665 6.66667H9.3089C9.6521 5.69567 10.5781 5 11.6666 5C12.7552 5 13.6812 5.69567 14.0244 6.66667H15C15.4602 6.66667 15.8333 7.03976 15.8333 7.5C15.8333 7.96024 15.4602 8.33333 15 8.33333H14.0244C13.6812 9.30433 12.7552 10 11.6666 10C10.5781 10 9.6521 9.30433 9.3089 8.33333ZM11.6666 8.33333C12.1269 8.33333 12.5 7.96024 12.5 7.5C12.5 7.03976 12.1269 6.66667 11.6666 6.66667C11.2064 6.66667 10.8333 7.03976 10.8333 7.5C10.8333 7.96024 11.2064 8.33333 11.6666 8.33333ZM7.49998 14.1667C7.96022 14.1667 8.33331 13.7936 8.33331 13.3333C8.33331 12.8731 7.96022 12.5 7.49998 12.5C7.03974 12.5 6.66665 12.8731 6.66665 13.3333C6.66665 13.7936 7.03974 14.1667 7.49998 14.1667Z" fill="#525C69"/>
</svg>
