<svg width="20" height="20" viewBox="0 0 20 20" fill="none" xmlns="http://www.w3.org/2000/svg">
<path fill-rule="evenodd" clip-rule="evenodd" d="M16.8333 10C17.2015 10 17.5 10.2985 17.5 10.6667V14C17.5 14.5523 17.0523 15 16.5 15H4.33331C3.78103 15 3.33331 14.5523 3.33331 14V10.6667C3.33331 10.2985 3.63179 10 3.99998 10H16.8333ZM12.8333 11.6667H7.99998C7.75145 11.6667 7.54527 11.848 7.50652 12.0856L7.49998 12.1667V12.8333C7.49998 13.0819 7.6813 13.288 7.91888 13.3268L7.99998 13.3333H12.8333C13.0818 13.3333 13.288 13.152 13.3268 12.9144L13.3333 12.8333V12.1667C13.3333 11.8905 13.1095 11.6667 12.8333 11.6667ZM5.83331 11.6667C5.37308 11.6667 4.99998 12.0398 4.99998 12.5C4.99998 12.9602 5.37308 13.3333 5.83331 13.3333C6.29355 13.3333 6.66665 12.9602 6.66665 12.5C6.66665 12.0398 6.29355 11.6667 5.83331 11.6667ZM14.6791 5C14.9901 5 15.2751 5.17312 15.4185 5.44903L17.0833 8.65213H3.83331L5.4183 5.4625C5.5591 5.17916 5.84819 5 6.16458 5H14.6791Z" fill="#525C69"/>
</svg>
