<svg width="20" height="20" viewBox="0 0 20 20" fill="none" xmlns="http://www.w3.org/2000/svg">
	<path fill-rule="evenodd" clip-rule="evenodd" d="M15.2531 4.27637H4.74706C4.18581 4.27637 3.73083 4.73134 3.73083 5.29259L3.73084 13.95C3.73084 14.5113 4.18581 14.9663 4.74706 14.9663H6.51716V17.6441C6.51716 17.941 6.87618 18.0897 7.08618 17.8798L10.0001 14.9663H15.2531C15.8143 14.9663 16.2693 14.5113 16.2693 13.95V5.29259C16.2693 4.73134 15.8143 4.27637 15.2531 4.27637ZM8.33153 12.4532L10.0001 11.5607L11.6686 12.4532C11.8884 12.5707 12.1473 12.3846 12.1059 12.1388L11.7859 10.2405L13.1462 8.89139C13.3216 8.71738 13.2232 8.41775 12.9788 8.38161L11.1038 8.10439L10.27 6.38541C10.1606 6.15997 9.83948 6.15997 9.73013 6.38541L8.89633 8.10439L7.02131 8.38161C6.77686 8.41775 6.67849 8.71738 6.85394 8.89139L8.2142 10.2405L7.8942 12.1388C7.85277 12.3846 8.11175 12.5707 8.33153 12.4532Z" fill="#525C69"/>
</svg>