<svg width="20" height="20" viewBox="0 0 20 20" fill="none" xmlns="http://www.w3.org/2000/svg">
	<path fill-rule="evenodd" clip-rule="evenodd" d="M16.6666 10.0002C16.6666 13.6821 13.6819 16.6668 9.99998 16.6668C6.31808 16.6668 3.33331 13.6821 3.33331 10.0002C3.33331 6.31826 6.31808 3.3335 9.99998 3.3335C13.6819 3.3335 16.6666 6.31826 16.6666 10.0002ZM9.16075 12.1909V13.6967H10.6959V12.1909H9.16075ZM9.02379 8.96459H7.58646C7.59298 8.61259 7.65327 8.28993 7.76735 7.99659C7.88142 7.70326 8.04113 7.44904 8.24646 7.23392C8.45179 7.01881 8.6995 6.85096 8.98957 6.73037C9.27965 6.60978 9.60394 6.54948 9.96246 6.54948C10.4253 6.54948 10.8115 6.61303 11.1211 6.74015C11.4308 6.86726 11.6801 7.02533 11.8691 7.21437C12.0582 7.40341 12.1934 7.60711 12.2749 7.82548C12.3564 8.04385 12.3971 8.24755 12.3971 8.43659C12.3971 8.74948 12.3564 9.00696 12.2749 9.20903C12.1934 9.41111 12.0924 9.58385 11.9718 9.72726C11.8512 9.87067 11.7176 9.99289 11.5709 10.0939C11.4242 10.195 11.2857 10.296 11.1553 10.397C11.025 10.4981 10.9093 10.6138 10.8082 10.7441C10.7072 10.8745 10.6436 11.0375 10.6176 11.233V11.6046H9.29757V11.1646C9.31713 10.8843 9.3709 10.6496 9.4589 10.4606C9.5469 10.2716 9.64957 10.1102 9.7669 9.97659C9.88424 9.84296 10.0081 9.72726 10.1385 9.62948C10.2688 9.5317 10.3894 9.43392 10.5002 9.33615C10.6111 9.23837 10.7007 9.13081 10.7691 9.01348C10.8376 8.89615 10.8685 8.74948 10.862 8.57348C10.862 8.27363 10.7887 8.052 10.642 7.90859C10.4953 7.76518 10.2916 7.69348 10.0309 7.69348C9.8549 7.69348 9.70335 7.7277 9.57624 7.79615C9.44913 7.86459 9.34483 7.95585 9.26335 8.06992C9.18187 8.184 9.12157 8.31763 9.08246 8.47081C9.04335 8.624 9.02379 8.78859 9.02379 8.96459Z" fill="#525C69"/>
</svg>