<svg width="20" height="20" viewBox="0 0 20 20" fill="none" xmlns="http://www.w3.org/2000/svg">
<path fill-rule="evenodd" clip-rule="evenodd" d="M5.00002 4.16675H8.33335C8.79359 4.16675 9.16669 4.53984 9.16669 5.00008V8.33342C9.16669 8.79365 8.79359 9.16675 8.33335 9.16675H5.00002C4.53978 9.16675 4.16669 8.79365 4.16669 8.33342V5.00008C4.16669 4.53984 4.53978 4.16675 5.00002 4.16675ZM5.00002 10.8334H8.33335C8.79359 10.8334 9.16669 11.2065 9.16669 11.6667V15.0001C9.16669 15.4603 8.79359 15.8334 8.33335 15.8334H5.00002C4.53978 15.8334 4.16669 15.4603 4.16669 15.0001V11.6667C4.16669 11.2065 4.53978 10.8334 5.00002 10.8334ZM12.0834 5.41675V7.91675H14.5834V5.41675H12.0834ZM11.6667 4.16675H15C15.4603 4.16675 15.8334 4.53984 15.8334 5.00008V8.33342C15.8334 8.79365 15.4603 9.16675 15 9.16675H11.6667C11.2064 9.16675 10.8334 8.79365 10.8334 8.33342V5.00008C10.8334 4.53984 11.2064 4.16675 11.6667 4.16675ZM11.6667 10.8334H15C15.4603 10.8334 15.8334 11.2065 15.8334 11.6667V15.0001C15.8334 15.4603 15.4603 15.8334 15 15.8334H11.6667C11.2064 15.8334 10.8334 15.4603 10.8334 15.0001V11.6667C10.8334 11.2065 11.2064 10.8334 11.6667 10.8334Z" fill="white"/>
</svg>
