<svg width="20" height="20" viewBox="0 0 20 20" fill="none" xmlns="http://www.w3.org/2000/svg">
<path fill-rule="evenodd" clip-rule="evenodd" d="M8.35504 15.1535C8.35504 15.1628 8.35251 15.1712 8.35251 15.1796C8.35251 16.0954 9.09554 16.8384 10.0113 16.8384C10.927 16.8384 11.67 16.0954 11.67 15.1796C11.67 15.1712 11.6675 15.1628 11.6675 15.1535H8.35504ZM14.1434 8.08461C14.1434 6.63561 13.0196 4.58006 10.788 4.19254V4.15547C10.788 3.70308 10.4173 3.33325 9.9649 3.33325C9.51251 3.33325 9.14268 3.70308 9.14268 4.15547V4.19422C6.91527 4.58427 5.79399 6.6373 5.79399 8.08461C5.79399 9.69114 5.80999 10.836 5.80999 11.5731C5.80999 12.1387 4.80545 12.8837 4.33769 13.1999C4.19333 13.2975 4.10321 13.4587 4.10321 13.6329V13.7588C4.10321 14.035 4.32707 14.2588 4.60321 14.2588H15.3333C15.6095 14.2588 15.8333 14.035 15.8333 13.7588V13.6328C15.8333 13.4586 15.7433 13.2975 15.599 13.1999C15.1317 12.8836 14.1282 12.1386 14.1282 11.5731C14.1282 10.836 14.1434 9.69114 14.1434 8.08461Z" fill="white"/>
</svg>
