<svg width="20" height="20" viewBox="0 0 20 20" fill="none" xmlns="http://www.w3.org/2000/svg">
<path fill-rule="evenodd" clip-rule="evenodd" d="M15.4268 13.9569C17.4138 11.1954 16.9712 7.37266 14.3952 5.05701C11.8341 2.75997 7.94443 2.75847 5.45349 5.05371C2.94842 7.36726 2.62227 11.1897 4.69379 13.9524C6.74244 16.7049 10.5641 17.4813 13.4835 15.7384C13.51 15.7579 13.538 15.7745 13.5681 15.7877L15.3844 16.2695C15.5412 16.3106 15.7067 16.2662 15.8183 16.1525C15.9305 16.0376 15.972 15.8723 15.9284 15.7168L15.4268 13.9569ZM12.0061 11.2729C11.8965 11.1513 11.7252 11.1019 11.5671 11.146C11.4064 11.1967 11.2863 11.3276 11.2531 11.4895C11.2134 11.6552 11.2605 11.8304 11.3792 11.9583L11.6112 12.2027H7.41582C7.20586 12.2144 7.04678 12.388 7.05866 12.5927L7.06171 12.7823C7.05594 12.987 7.22079 13.161 7.43142 13.172H11.6299L11.4057 13.4171C11.2914 13.5446 11.2497 13.7196 11.2944 13.8855C11.3328 14.0474 11.4566 14.1783 11.6197 14.2291C11.7788 14.2735 11.9484 14.2237 12.0546 14.1022L13.0368 13.0311C13.2095 12.8344 13.2047 12.5423 13.026 12.3456L12.0061 11.2729ZM8.1298 8.87692C8.25157 8.87692 8.36723 8.8255 8.44593 8.73602C8.61823 8.5397 8.61349 8.24755 8.43507 8.05089L8.20341 7.80615H12.4022C12.6125 7.79513 12.7719 7.62151 12.7594 7.41651L12.7563 7.22753C12.7624 7.02253 12.5973 6.84824 12.3866 6.83789H8.18814L8.41269 6.59282C8.58432 6.39683 8.57923 6.10501 8.40014 5.90969C8.31907 5.81988 8.20239 5.76812 8.08028 5.76779C7.95817 5.76712 7.84285 5.81821 7.76348 5.90769L6.78119 6.98112C6.60854 7.17711 6.61329 7.4696 6.79204 7.66559L7.80859 8.73602C7.89034 8.8255 8.00736 8.87692 8.1298 8.87692ZM7.51584 9.54902L7.51482 9.54968C7.30453 9.56037 7.14511 9.73432 7.15732 9.93933L7.16037 10.1316C7.15461 10.3366 7.31979 10.5103 7.53009 10.5213H12.6054C12.8157 10.5103 12.9751 10.3366 12.9629 10.1316L12.9595 9.94133C12.9663 9.73532 12.8014 9.56037 12.5901 9.54902H7.51584Z" fill="white"/>
</svg>
