<svg width="20" height="20" viewBox="0 0 20 20" fill="none" xmlns="http://www.w3.org/2000/svg">
<path fill-rule="evenodd" clip-rule="evenodd" d="M10.3369 3.54861C10.5905 3.54625 10.8118 3.70582 10.8887 3.93568L10.9089 4.01478L11.0425 4.76002C11.8539 4.91164 12.6092 5.24288 13.2566 5.71538L13.8976 5.31205C14.1076 5.17926 14.3774 5.19673 14.568 5.34613L14.6355 5.4083L15.1591 5.97525C15.327 6.15754 15.3543 6.42134 15.2351 6.62938L15.1835 6.70451L14.702 7.3011C14.9876 7.78246 15.1992 8.31504 15.3198 8.8861L16.0865 9.00417C16.3369 9.04221 16.5282 9.23511 16.5661 9.47467L16.573 9.5561L16.5801 10.3211C16.5824 10.5697 16.4199 10.7868 16.1852 10.8623L16.1044 10.882L15.3401 11.0145C15.2089 11.693 14.9435 12.332 14.5686 12.8994L15.0409 13.5359C15.1893 13.7339 15.1869 13.999 15.0462 14.1936L14.987 14.263L14.4401 14.8092C14.2648 14.9847 13.9975 15.0265 13.779 14.9223L13.6997 14.8764L13.0391 14.4229C12.684 14.656 12.2976 14.8494 11.8855 14.9959C11.6376 15.084 11.3894 15.1541 11.1422 15.207L11.0203 15.9671C10.9814 16.2122 10.7846 16.4002 10.5402 16.4372L10.4571 16.4439L9.67619 16.4511C9.42312 16.4535 9.20124 16.2939 9.12494 16.064L9.10504 15.9849L8.97122 15.2425C8.17455 15.0962 7.43162 14.7769 6.79111 14.3208L6.14356 14.7279C5.93355 14.8604 5.66365 14.8435 5.47297 14.694L5.40545 14.6317L4.88232 14.0647C4.71434 13.8826 4.68754 13.6187 4.80643 13.4107L4.85785 13.3357L5.3281 12.7537C5.02567 12.258 4.80223 11.7065 4.67697 11.1135L3.91276 10.9957C3.66313 10.9577 3.47122 10.7648 3.43345 10.5252L3.42671 10.4437L3.41958 9.67872C3.41726 9.4301 3.58043 9.21306 3.81467 9.13757L3.89526 9.1178L4.66813 8.98387C4.81073 8.36012 5.09888 7.73198 5.48637 7.15904L5.00056 6.50481C4.85327 6.30714 4.8548 6.04198 4.99537 5.84696L5.05458 5.77738L5.60123 5.23097C5.77678 5.056 6.04396 5.01449 6.26261 5.11828L6.34206 5.16403L6.98417 5.60445C7.34215 5.34779 7.72202 5.14193 8.11071 5.00372C8.36461 4.91342 8.61876 4.84207 8.87189 4.78871L8.99364 4.03263C9.03161 3.78751 9.229 3.59957 9.47307 3.56252L9.55601 3.55589L10.3369 3.54861ZM9.71053 13.211C8.56838 13.1313 7.30284 12.1899 6.91762 11.1335C6.10303 8.89959 7.86975 6.61947 10.2856 6.78788C11.5528 6.8762 12.6516 7.69351 13.0789 8.86549C13.8936 11.1 12.126 13.3798 9.71053 13.211Z" fill="#525C69"/>
</svg>
