<svg xmlns="http://www.w3.org/2000/svg" width="26" height="25" fill="none"><path fill="#9DCF00" fill-rule="evenodd" d="M11.908 23.334c.89 0 1.757-.104 2.587-.3a7.05 7.05 0 0 1-1.036-3.69c0-.342.024-.678.07-1.007H9.41v-1.249h1.25v-5.05H9.41v-1.19h1.25v-.002h2.91v6.242h.255a7.086 7.086 0 0 1 9.306-4.34c.012-.217.019-.436.019-.656C23.15 5.884 18.117.851 11.908.851 5.7.85.667 5.884.667 12.092c0 6.209 5.033 11.242 11.241 11.242Zm1.757-16.222a1.757 1.757 0 1 1-3.514 0 1.757 1.757 0 0 1 3.514 0Zm5.463 7.97c0-.39.317-.708.708-.708h1.417c.391 0 .708.317.708.708v2.892h2.835c.391 0 .708.317.708.708V20.1a.708.708 0 0 1-.708.708H21.96V23.7a.708.708 0 0 1-.708.708h-1.417a.708.708 0 0 1-.708-.708v-2.892h-2.834a.708.708 0 0 1-.709-.708v-1.417c0-.391.317-.708.709-.708h2.834v-2.892Z" clip-rule="evenodd"/></svg>