<svg xmlns="http://www.w3.org/2000/svg" width="33" height="32" fill="none"><path fill="#11A9D9" fill-rule="evenodd" d="m20.927 17.843 3.072.002c.551 0 1.046.34 1.244.854l2.556 6.64a1.333 1.333 0 0 1-1.244 1.812H6.445a1.333 1.333 0 0 1-1.241-1.82l2.603-6.64c.2-.51.693-.846 1.241-.846l2.761-.003a44.413 44.413 0 0 0 2.205 3.113l.508.649.41.512.129.142a1.867 1.867 0 0 0 2.778-.153 50.557 50.557 0 0 0 3.088-4.262ZM16.394 4a5.585 5.585 0 0 1 5.602 5.601c0 2.485-1.523 5.633-4.57 9.444a1.333 1.333 0 0 1-1.963.131l-.113-.123-.344-.429c-2.809-3.555-4.213-6.563-4.213-9.023A5.585 5.585 0 0 1 16.394 4Zm0 3.055A2.522 2.522 0 0 0 13.848 9.6a2.522 2.522 0 0 0 2.546 2.546 2.522 2.522 0 0 0 2.547-2.546 2.522 2.522 0 0 0-2.547-2.546Z" clip-rule="evenodd"/></svg>