<svg width="15" height="20" viewBox="0 0 15 20" fill="none" xmlns="http://www.w3.org/2000/svg">
	<path fill-rule="evenodd" clip-rule="evenodd" d="M7.62526 0.5C3.81324 0.5 0.75 3.56204 0.75 7.37526C0.75 11.4001 4.83485 17.0181 6.70732 19.382C7.18173 19.9809 8.06418 19.9766 8.53434 19.3744C10.4027 16.9811 14.5005 11.2862 14.5005 7.37526C14.5005 3.56204 11.4373 0.5 7.62526 0.5ZM7.62526 10.4994C5.8757 10.4994 4.49992 9.12483 4.49992 7.37406C4.49992 5.6245 5.8745 4.24872 7.62526 4.24872C9.37483 4.24872 10.7506 5.6233 10.7506 7.37406C10.7506 9.1248 9.37486 10.4994 7.62526 10.4994Z" fill="#DFE0E3"/>
</svg>