<svg width="17" height="23" viewBox="0 0 17 23" fill="none" xmlns="http://www.w3.org/2000/svg">
	<path fill-rule="evenodd" clip-rule="evenodd" d="M8.70847 0.666992C4.38817 0.666992 0.916504 4.1373 0.916504 8.45896C0.916504 13.0204 5.546 19.3875 7.66813 22.0665C8.20579 22.7453 9.20591 22.7405 9.73875 22.058C11.8563 19.3456 16.5004 12.8914 16.5004 8.45896C16.5004 4.1373 13.0288 0.666992 8.70847 0.666992ZM8.70847 11.9996C6.72563 11.9996 5.16642 10.4418 5.16642 8.4576C5.16642 6.47476 6.72427 4.91555 8.70847 4.91555C10.6913 4.91555 12.2505 6.4734 12.2505 8.4576C12.2505 10.4418 10.6913 11.9996 8.70847 11.9996Z" fill="#FF5752"/>
</svg>