<svg width="17" height="16" viewBox="0 0 17 16" fill="none" xmlns="http://www.w3.org/2000/svg">
	<path fill-rule="evenodd" clip-rule="evenodd" d="M10.7788 12.3873C9.77622 13.0457 8.57661 13.4286 7.28755 13.4286C3.77 13.4286 0.918457 10.5771 0.918457 7.05952C0.918457 3.54197 3.77 0.69043 7.28755 0.69043C10.8051 0.69043 13.6566 3.54197 13.6566 7.05952C13.6566 8.34858 13.2737 9.54819 12.6153 10.5508L15.9257 13.8612C16.3163 14.2517 16.3163 14.8849 15.9257 15.2754L15.5034 15.6977C15.1129 16.0882 14.4797 16.0882 14.0892 15.6977L10.7788 12.3873ZM11.8369 7.05952C11.8369 9.57206 9.80009 11.6089 7.28755 11.6089C4.77501 11.6089 2.7382 9.57206 2.7382 7.05952C2.7382 4.54698 4.77501 2.51017 7.28755 2.51017C9.80009 2.51017 11.8369 4.54698 11.8369 7.05952Z" fill="#BDC1C6"/>
</svg>
