<svg xmlns:xlink="http://www.w3.org/1999/xlink" xmlns="http://www.w3.org/2000/svg" viewBox="0 0 100% 92"
	 preserveAspectRatio="xMinYMin meet" style="width: 100%; height: 92px" fill="none">
	<svg height="100px">
		<path d="M0 12C0 5.37259 5.37258 0 12 0H327C333.627 0 339 5.37258 339 12V80C339 86.6274 333.627 92 327 92H12C5.37259 92 0 86.6274 0 80V12Z" fill="white"/>
		<path fill-rule="evenodd" clip-rule="evenodd" d="M24.5418 19.3335C21.2381 19.3335 18.5833 21.9873 18.5833 25.2921C18.5833 28.7802 22.1235 33.6492 23.7463 35.6979C24.1574 36.2169 24.9222 36.2133 25.3297 35.6913C26.949 33.6171 30.5004 28.6816 30.5004 25.2921C30.5004 21.9873 27.8456 19.3335 24.5418 19.3335ZM24.5418 27.9996C23.0255 27.9996 21.8332 26.8083 21.8332 25.291C21.8332 23.7747 23.0245 22.5824 24.5418 22.5824C26.0581 22.5824 27.2504 23.7737 27.2504 25.291C27.2504 26.8083 26.0581 27.9996 24.5418 27.9996Z" fill="#DFE0E3"/>
		<path fill-rule="evenodd" clip-rule="evenodd" d="M306.908 43.3337C307.798 43.3337 308.665 43.2302 309.495 43.0346C308.837 41.9597 308.458 40.6958 308.458 39.3435C308.458 39.0019 308.483 38.666 308.529 38.3374H308.157V38.3369H305.659V38.3374H304.41V37.0884H305.659V32.0374H304.41V30.8472H305.659V30.8461H308.571V37.0884H308.825C309.767 34.282 312.418 32.2601 315.542 32.2601C316.456 32.2601 317.329 32.4332 318.131 32.7483C318.143 32.5311 318.15 32.3124 318.15 32.0921C318.15 25.8836 313.117 20.8506 306.908 20.8506C300.7 20.8506 295.667 25.8836 295.667 32.0921C295.667 38.3006 300.7 43.3337 306.908 43.3337ZM308.665 27.1123C308.665 28.0826 307.879 28.8693 306.908 28.8693C305.938 28.8693 305.151 28.0826 305.151 27.1123C305.151 26.142 305.938 25.3554 306.908 25.3554C307.879 25.3554 308.665 26.142 308.665 27.1123ZM314.128 35.0824C314.128 34.6912 314.445 34.3741 314.836 34.3741H316.253C316.644 34.3741 316.961 34.6912 316.961 35.0824V37.9738H319.796C320.187 37.9738 320.504 38.291 320.504 38.6822V40.0988C320.504 40.49 320.187 40.8072 319.796 40.8072H316.961V43.6986C316.961 44.0898 316.644 44.4069 316.253 44.4069H314.836C314.445 44.4069 314.128 44.0898 314.128 43.6986V40.8072H311.294C310.903 40.8072 310.585 40.49 310.585 40.0988V38.6822C310.585 38.291 310.903 37.9738 311.294 37.9738H314.128V35.0824Z" fill="#DFE0E3"/>
	</svg>

	<svg height="100px" id="animated-elements">
		<defs>
			<g id="lines">
				<rect x="38" y="21" width="82" height="5" rx="2.5" fill="#eef2f4"/>
				<rect x="38" y="39" width="192" height="5" rx="2.5" fill="#eef2f4"/>
				<rect x="38" y="57" width="192" height="5" rx="2.5" fill="#eef2f4"/>
			</g>
		</defs>

		<use xlink:href="#lines"></use>
	</svg>

	<rect id="msk1" width="100%" fill="url(#msk_gd)" mask="url(#headerMsk)" height="100"/>

	<mask id="headerMsk" fill="white">
		<use xlink:href="#animated-elements"/>
	</mask>

	<linearGradient x1="66.6%" y1="50%" x2="33.3%" y2="50%" id="msk_gd">
		<stop stop-color="#000000" stop-opacity="0" offset="0%"/>
		<stop stop-color="#000000" stop-opacity="0.07" offset="50%"/>
		<stop stop-color="#000000" stop-opacity="0" offset="100%"/>
	</linearGradient>

	<animate xlink:href="#msk1" attributeName="x" from="-100%" to="100%" dur="1s" begin="0s" repeatCount="indefinite"/>
</svg>
