<svg width="93" height="13" viewBox="0 0 93 13" fill="none" xmlns="http://www.w3.org/2000/svg">
	<path d="M17.8077 1.92578H19.0621V8.29283C19.0621 9.97962 18.324 11.1437 16.5945 11.1437C16.083 11.1515 15.574 11.0711 15.0898 10.9062V9.68661C15.5029 9.84674 15.9425 9.92735 16.3854 9.92419C17.445 9.92419 17.8109 9.29065 17.8109 8.37677L17.8077 1.92578Z" fill="#253858"/>
	<path d="M21.3475 1.43559C21.4594 1.42758 21.5717 1.44373 21.6768 1.48292C21.7819 1.52212 21.8773 1.58345 21.9566 1.66276C22.036 1.74207 22.0973 1.83751 22.1365 1.9426C22.1757 2.04769 22.1918 2.15998 22.1838 2.27186C22.1838 2.49365 22.0957 2.70636 21.9389 2.86319C21.782 3.02002 21.5693 3.10813 21.3475 3.10813C21.1258 3.10813 20.913 3.02002 20.7562 2.86319C20.5994 2.70636 20.5113 2.49365 20.5113 2.27186C20.5033 2.15998 20.5194 2.04769 20.5586 1.9426C20.5978 1.83751 20.6591 1.74207 20.7384 1.66276C20.8178 1.58345 20.9132 1.52212 21.0183 1.48292C21.1234 1.44373 21.2357 1.42758 21.3475 1.43559ZM20.7346 4.11228H21.9336V11.0812H20.7346V4.11228Z" fill="#253858"/>
	<path d="M23.7441 4.11206H24.9146V5.33795C25.3185 4.51594 26.0233 3.92991 27.3822 4.01386V5.18432C25.8491 5.02593 24.9146 5.49158 24.9146 6.96772V11.0857H23.7441V4.11206Z" fill="#253858"/>
	<path d="M32.9982 9.82556C32.5516 10.7458 31.7153 11.2193 30.643 11.2193C28.7899 11.2193 27.8555 9.64501 27.8555 7.59551C27.8555 5.62996 28.8311 3.97168 30.7824 3.97168C31.7992 3.97168 32.5801 4.43099 32.9998 5.33695V4.11106H34.1988V11.08H32.9998L32.9982 9.82556ZM30.963 10.1043C32.0368 10.1043 32.9982 9.42168 32.9982 7.87427V7.31042C32.9982 5.76301 32.1208 5.08037 31.0976 5.08037C29.745 5.08037 29.0481 5.97207 29.0481 7.58918C29.0544 9.26805 29.7228 10.1043 30.9646 10.1043H30.963Z" fill="#253858"/>
	<path d="M41.2917 11.2201C39.5209 11.2201 38.6989 10.8717 37.9878 10.509V9.22763C38.8383 9.67428 40.1482 9.99421 41.3598 9.99421C42.7393 9.99421 43.2604 9.45096 43.2604 8.64161C43.2604 7.83227 42.7583 7.40146 41.0161 6.98333C38.9571 6.48125 38.0337 5.7701 38.0337 4.26545C38.0337 2.84 39.1202 1.78516 41.2537 1.78516C42.5778 1.78516 43.4283 2.10192 44.0555 2.45354V3.70794C43.1836 3.22749 42.1998 2.98701 41.2046 3.01105C40.0056 3.01105 39.2945 3.42919 39.2945 4.26545C39.2945 5.01778 39.8805 5.39473 41.496 5.79861C43.433 6.28644 44.5211 6.9073 44.5211 8.55767C44.5116 10.1463 43.5645 11.2201 41.2917 11.2201Z" fill="#253858"/>
	<path d="M45.5713 7.58126C45.5713 5.49059 46.7972 3.97168 48.8879 3.97168C50.9785 3.97168 52.1775 5.49059 52.1775 7.58126C52.1775 9.67193 50.9643 11.2241 48.8879 11.2241C46.8114 11.2241 45.5713 9.67193 45.5713 7.58126ZM46.7417 7.58126C46.7417 8.90535 47.3975 10.1043 48.8879 10.1043C50.3783 10.1043 51.007 8.90535 51.007 7.58126C51.007 6.25717 50.3656 5.09304 48.8879 5.09304C47.4101 5.09304 46.7481 6.25717 46.7481 7.58126H46.7417Z" fill="#253858"/>
	<path d="M55.2293 4.11069H57.027V5.21938H55.2293V11.0796H54.0588V5.21938H52.9248V4.11069H54.0541V3.35044C54.0541 2.05486 54.7795 1.17583 56.2715 1.17583C56.5446 1.1743 56.8166 1.21163 57.0792 1.28669V2.39539C56.8312 2.34823 56.5793 2.32489 56.3269 2.3257C55.5888 2.3257 55.2182 2.75808 55.2182 3.38529L55.2293 4.11069Z" fill="#253858"/>
	<path d="M61.0831 9.91094C61.3365 9.90338 61.5886 9.87048 61.8354 9.81274V10.9689C61.5728 11.0441 61.3008 11.0814 61.0277 11.0798C59.5357 11.0798 58.8103 10.2024 58.8103 8.9052V5.22752H57.6763V4.11883H58.8056V2.63477H59.976V4.11249H61.8291V5.22118H59.976V8.87986C59.9823 9.4928 60.345 9.91094 61.0831 9.91094Z" fill="#253858"/>
	<path d="M62.1714 4.11133H63.4955L65.5022 10.0206L67.5359 4.11133H68.6794L70.7146 10.0206L72.7229 4.11133H74.047L71.4828 11.0802H69.9496L68.7507 7.70823L68.1171 5.56213L67.4836 7.70823L66.2688 11.0802H64.7356L62.1714 4.11133Z" fill="#253858"/>
	<path d="M79.5221 9.82556C79.0755 10.7458 78.2392 11.2193 77.167 11.2193C75.3139 11.2193 74.3794 9.64501 74.3794 7.59551C74.3794 5.62996 75.355 3.97168 77.3063 3.97168C78.3232 3.97168 79.104 4.43099 79.5237 5.33695V4.11106H80.7227V11.08H79.5237L79.5221 9.82556ZM77.4869 10.1043C78.5607 10.1043 79.5221 9.42168 79.5221 7.87427V7.31042C79.5221 5.76301 78.6447 5.08037 77.6215 5.08037C76.2753 5.09304 75.5736 5.97841 75.5736 7.59551C75.5736 9.26805 76.2467 10.1043 77.4885 10.1043H77.4869Z" fill="#253858"/>
	<path d="M82.5332 4.11206H83.7037V5.33795C84.1075 4.51594 84.8123 3.92991 86.1713 4.01386V5.18432C84.6381 5.02593 83.7037 5.49158 83.7037 6.96772V11.0857H82.5332V4.11206Z" fill="#253858"/>
	<path d="M90.394 11.2202C87.787 11.2202 86.645 9.71554 86.645 7.57735C86.645 5.47242 87.8155 3.96777 89.9347 3.96777C92.0808 3.96777 92.944 5.45975 92.944 7.57735V8.12061H87.8582C88.0261 9.30533 88.7927 10.0719 90.4367 10.0719C91.1598 10.0712 91.877 9.94366 92.5559 9.69495V10.8036C91.9841 11.1125 91.1051 11.2202 90.394 11.2202ZM87.844 7.1022H91.7292C91.6595 5.80662 91.0734 5.06696 89.8761 5.06696C88.6106 5.06063 87.9691 5.88581 87.844 7.09428V7.1022Z" fill="#253858"/>
	<path d="M11.9666 6.16382L6.80328 1.00049L6.30278 0.5L2.41603 4.38675L0.63896 6.16382C0.549979 6.25291 0.5 6.37368 0.5 6.4996C0.5 6.62551 0.549979 6.74628 0.63896 6.83537L4.18994 10.3863L6.30278 12.4992L10.1895 8.61244L10.2497 8.55226L11.9666 6.83537C12.0556 6.74628 12.1056 6.62551 12.1056 6.4996C12.1056 6.37368 12.0556 6.25291 11.9666 6.16382V6.16382ZM6.30278 8.2735L4.52888 6.4996L6.30278 4.72569L8.07669 6.4996L6.30278 8.2735Z" fill="#2684FF"/>
	<path d="M6.30287 4.72511C5.74496 4.16713 5.43047 3.41106 5.4281 2.622C5.42573 1.83295 5.73565 1.075 6.2902 0.513672L2.4082 4.39409L4.52105 6.50693L6.30287 4.72511Z" fill="url(#paint0_linear_371_166185)"/>
	<path d="M8.08139 6.49609L6.30273 8.27475C6.5803 8.55215 6.80049 8.88153 6.95072 9.24406C7.10095 9.60659 7.17827 9.99517 7.17827 10.3876C7.17827 10.78 7.10095 11.1686 6.95072 11.5311C6.80049 11.8937 6.5803 12.223 6.30273 12.5004V12.5004L10.1942 8.60894L8.08139 6.49609Z" fill="url(#paint1_linear_371_166185)"/>
	<defs>
		<linearGradient id="paint0_linear_371_166185" x1="5.9861" y1="2.93062" x2="3.50897" y2="5.40775" gradientUnits="userSpaceOnUse">
			<stop offset="0.18" stop-color="#0052CC"/>
			<stop offset="1" stop-color="#2684FF"/>
		</linearGradient>
		<linearGradient id="paint1_linear_371_166185" x1="157.215" y1="368.438" x2="242.77" y2="312.989" gradientUnits="userSpaceOnUse">
			<stop offset="0.18" stop-color="#0052CC"/>
			<stop offset="1" stop-color="#2684FF"/>
		</linearGradient>
	</defs>
</svg>