<svg width="24" height="24" viewBox="0 0 24 24" fill="none" xmlns="http://www.w3.org/2000/svg">
<circle cx="12" cy="12" r="9" fill="white"/>
<path fill-rule="evenodd" clip-rule="evenodd" d="M17.9035 9.09085C18.0207 8.97369 18.0207 8.78375 17.9035 8.66659L15.4994 6.26243C15.3822 6.14527 15.1923 6.14527 15.0751 6.26242L14.0851 7.25237C13.968 7.36953 13.968 7.55948 14.0851 7.67664L16.4893 10.0808C16.6065 10.198 16.7964 10.198 16.9136 10.0808L17.9035 9.09085ZM12.6113 8.72625C12.7284 8.60909 12.9184 8.60909 13.0355 8.72625L15.4397 11.1304C15.5569 11.2476 15.5569 11.4375 15.4397 11.5547L9.92246 17.0719C9.8653 17.1291 9.78749 17.1608 9.70667 17.1598L7.33147 17.1308C7.16864 17.1288 7.03713 16.9973 7.03515 16.8345L7.00618 14.4593C7.0052 14.3785 7.03687 14.3007 7.09403 14.2435L12.6113 8.72625ZM8.23287 14.6109C8.23287 14.4452 8.36718 14.3109 8.53287 14.3109L9.55502 14.3109C9.72071 14.3109 9.85502 14.4452 9.85502 14.6109L9.85502 15.6331C9.85502 15.7988 9.72071 15.9331 9.55502 15.9331L8.53287 15.9331C8.36718 15.9331 8.23287 15.7988 8.23287 15.6331L8.23287 14.6109Z" fill="#BDC1C6"/>
</svg>
