<svg width="42" height="42" viewBox="0 0 42 42" fill="none" xmlns="http://www.w3.org/2000/svg">
	<path fill-rule="evenodd" clip-rule="evenodd" d="M29.75 10.15H12.25C11.0902 10.15 10.15 11.0902 10.15 12.25V29.75C10.15 30.9098 11.0902 31.85 12.25 31.85H29.75C30.9098 31.85 31.85 30.9098 31.85 29.75V12.25C31.85 11.0902 30.9098 10.15 29.75 10.15ZM12.25 7C9.35051 7 7 9.35051 7 12.25V29.75C7 32.6495 9.35051 35 12.25 35H29.75C32.6495 35 35 32.6495 35 29.75V12.25C35 9.35051 32.6495 7 29.75 7H12.25Z" fill="#2FC6F6"/>
	<path fill-rule="evenodd" clip-rule="evenodd" d="M29.4203 21.1733C28.7353 22.1304 25.2262 26.7251 21.0004 26.7251C16.7746 26.7251 13.2656 22.1304 12.5805 21.1733C12.5044 21.067 12.5044 20.933 12.5805 20.8267C13.2656 19.8696 16.7746 15.2749 21.0004 15.2749C25.2262 15.2749 28.7353 19.8696 29.4203 20.8267C29.4964 20.933 29.4964 21.067 29.4203 21.1733ZM23.9879 21C23.9879 22.6129 22.6503 23.9204 21.0003 23.9204C19.3503 23.9204 18.0127 22.6129 18.0127 21C18.0127 19.3871 19.3503 18.0796 21.0003 18.0796C22.6503 18.0796 23.9879 19.3871 23.9879 21Z" fill="#2FC6F6"/>
</svg>