<svg xmlns="http://www.w3.org/2000/svg" xmlns:xlink="http://www.w3.org/1999/xlink" viewBox="0 0 42 42"><path fill="#121212" fill-rule="nonzero" d="M16.368 10C12.861 10 10 12.86 10 16.368v9.264C10 29.139 12.86 32 16.368 32h9.264C29.139 32 32 29.14 32 25.632v-9.264C32 12.861 29.14 10 25.632 10h-9.264zm0 2.316h9.264a4.019 4.019 0 0 1 4.052 4.052v9.264a4.019 4.019 0 0 1-4.052 4.052h-9.264a4.019 4.019 0 0 1-4.052-4.052v-9.264a4.019 4.019 0 0 1 4.052-4.052zm10.421 1.737a1.157 1.157 0 1 0 0 2.314 1.157 1.157 0 0 0 0-2.314zM21 14.92c-3.344 0-6.079 2.735-6.079 6.079s2.735 6.079 6.079 6.079 6.079-2.735 6.079-6.079-2.735-6.079-6.079-6.079zm0 2.316A3.746 3.746 0 0 1 24.763 21 3.746 3.746 0 0 1 21 24.763 3.746 3.746 0 0 1 17.237 21 3.746 3.746 0 0 1 21 17.237z"/></svg>