<svg xmlns="http://www.w3.org/2000/svg" width="26" height="26"  viewBox="-4 -5 26 26"><path fill="#535C69" fill-rule="evenodd" d="M17.5 12.84L10.223.72c-.561-.93-1.897-.93-2.446 0L.5 12.84C-.073 13.795.62 15 1.729 15h14.554c1.098 0 1.79-1.205 1.217-2.16zM7.956 4.943c0-.537.43-.967.966-.967h.132c.536 0 .966.43.966.967v3.614c0 .537-.43.967-.966.967h-.132a.962.962 0 01-.966-.967V4.943zm2.255 7.014c0 .669-.549 1.217-1.217 1.217a1.222 1.222 0 01-1.217-1.217c0-.668.549-1.216 1.217-1.216s1.217.548 1.217 1.216z"/></svg>
