<svg xmlns="http://www.w3.org/2000/svg" width="26" height="26"><path fill="#525C69" fill-rule="evenodd" d="m17.434 12.507-1.971 1.97a2.786 2.786 0 0 1-3.94 0 2.784 2.784 0 0 1-.424-.561l.916-.916c.043-.044.097-.07.148-.099.064.217.174.421.344.592a1.395 1.395 0 0 0 1.97 0l1.971-1.97a1.394 1.394 0 0 0-1.97-1.972l-.701.702a3.496 3.496 0 0 0-1.778-.194l1.494-1.493a2.787 2.787 0 0 1 3.941 3.941Zm-5.21 3.24-.702.702a1.396 1.396 0 0 1-1.97 0 1.396 1.396 0 0 1 0-1.971l1.97-1.97a1.394 1.394 0 0 1 1.97 0c.17.17.28.374.345.59.052-.03.105-.054.148-.098l.916-.915a2.739 2.739 0 0 0-.423-.563 2.787 2.787 0 0 0-3.941 0l-1.97 1.97a2.787 2.787 0 0 0 3.94 3.942l1.494-1.493a3.494 3.494 0 0 1-1.778-.194Z"/></svg>