<svg xmlns="http://www.w3.org/2000/svg" width="24" height="19" viewBox="0 0 24 19"><g fill="#535C69" fill-rule="evenodd"><path d="M11.884 15.978h-3.36c-2.457 0-4.467-2.01-4.467-4.47v-.642H.884l4.32-4.32 4.318 4.32h-3.7v.743c0 1.425 1.167 2.592 2.593 2.592h3.47v1.776zM8.414 1.776c-.95 0-1.778.526-2.228 1.295l-1.76-.37c.69-1.584 2.27-2.7 4.1-2.7h7.042c2.457 0 4.467 2.01 4.467 4.468v.56h3.22l-4.32 4.32-4.318-4.32h3.653v-.66c0-1.426-1.166-2.592-2.592-2.592H8.415zM15 10h1.96v5.876H15z"/><rect width="1.96" height="2" x="15" y="17" rx=".98"/></g></svg>