<svg xmlns="http://www.w3.org/2000/svg" width="26" height="26" viewBox="0 0 26 26"><path fill-rule="evenodd" fill="#535C69" d="M16.678 19.202H9.415a2.602 2.602 0 0 1-2.594-2.593v-.744h3.702l-4.32-4.32-4.318 4.32h3.173v.643a4.481 4.481 0 0 0 4.468 4.468h7.042a4.482 4.482 0 0 0 4.124-2.76l-1.75-.37A2.59 2.59 0 0 1 16.68 19.2M9.415 6.776h7.263a2.6 2.6 0 0 1 2.592 2.593v.66h-3.653l4.318 4.32 4.32-4.32h-3.22v-.562A4.48 4.48 0 0 0 16.568 5H9.526c-1.83 0-3.41 1.116-4.1 2.7l1.76.37a2.589 2.589 0 0 1 2.23-1.294"/></svg>