<svg xmlns="http://www.w3.org/2000/svg" width="26" height="26"  viewBox="-2 -6 26 26">
	<path fill="#535C69" fill-rule="evenodd"
		  d="M18.231.954a2 2 0 012 2v1.799a1.01 1.01 0 01.116-.007H21a1 1 0 011 1V8.24a1 1 0 01-1 1h-.653l-.116-.006v1.798a2 2 0 01-2 2H2.778a2 2 0 01-2-2V2.954a2 2 0 012-2H18.23zm-.402 1.544H3.18a1 1 0 00-.993.884l-.006.116v6.991a1 1 0 00.883.993l.117.007h14.65a1 1 0 00.993-.883l.006-.117v-6.99a1 1 0 00-1-1zM7.261 3.84v6.309H3.724V3.839h3.537zm4.943 0v6.309H8.666V3.839h3.538zm4.942 0v6.309h-3.537V3.839h3.537z"/>
</svg>
