<svg xmlns="http://www.w3.org/2000/svg" width="26" height="26" viewBox="0 0 26 26">
	<path fill="#535C69" fill-rule="evenodd" d="M4.68393 6H19.3163C19.6939 6 20 6.32087 20 6.71667C20 6.7969 19.9871 6.87656 19.962 6.95232L19.5199 8.28329C19.4242 8.5713 19.1651 8.76431 18.8741 8.76431H5.12246C4.83087 8.76431 4.57136 8.57048 4.47618 8.28158L4.03764 6.95062C3.91437 6.5765 4.1038 6.16847 4.46073 6.03926C4.53253 6.01327 4.60797 6 4.68393 6ZM7.09395 11.1098H16.9062C17.2839 11.1098 17.59 11.4307 17.59 11.8265C17.59 11.9124 17.5752 11.9977 17.5464 12.0781L17.0703 13.4091C16.9703 13.6888 16.7151 13.8741 16.4301 13.8741H7.54475C7.25532 13.8741 6.99724 13.6831 6.90041 13.3972L6.44961 12.0663C6.32328 11.6933 6.50934 11.2835 6.8652 11.1511C6.93865 11.1238 7.01602 11.1098 7.09395 11.1098ZM10.1403 16.2357H13.8599C14.2375 16.2357 14.5436 16.5566 14.5436 16.9524C14.5436 17.0221 14.5339 17.0914 14.5148 17.1582L14.134 18.4892C14.0473 18.7924 13.781 19 13.4791 19H10.5624C10.2679 19 10.0065 18.8023 9.91355 18.5094L9.49147 17.1784C9.37236 16.8028 9.56629 16.3971 9.92464 16.2723C9.99419 16.248 10.067 16.2357 10.1403 16.2357Z"/>
</svg>
