<svg xmlns="http://www.w3.org/2000/svg" width="26" height="26" viewBox="0 0 26 26"><path fill-rule="evenodd" fill="#535C69" d="M12.12 20.978H9.524a4.48 4.48 0 0 1-4.468-4.47v-.642H1.884l4.32-4.32 4.318 4.32h-3.7v.743a2.6 2.6 0 0 0 2.593 2.592h2.704v1.776l.001.001zM9.414 6.776c-.952 0-1.78.526-2.23 1.295L5.428 7.7c.69-1.584 2.27-2.7 4.1-2.7h7.04a4.48 4.48 0 0 1 4.468 4.468v.56h3.22l-4.32 4.32-4.318-4.32h3.653v-.66a2.6 2.6 0 0 0-2.592-2.592H9.414zM18.4 20.223l-2.528-2.527-1.263 1.264 2.526 2.525L18.4 22.75l5.766-5.77-1.263-1.262-4.503 4.505z"/></svg>