<svg width="24" height="24" viewBox="0 0 24 24" fill="none" xmlns="http://www.w3.org/2000/svg">
<path d="M9 3C8.44772 3 8 3.44772 8 4V6H17V4C17 3.44772 16.5523 3 16 3H9Z" fill="#525C69"/>
<path fill-rule="evenodd" clip-rule="evenodd" d="M5 9C5 7.89543 5.89543 7 7 7H18C19.1046 7 20 7.89543 20 9V13C20 14.1046 19.1046 15 18 15V14C18 13.4477 17.5523 13 17 13H8C7.44772 13 7 13.4477 7 14L7 15C5.89543 15 5 14.1046 5 13V9ZM18 10C18 10.5523 17.5523 11 17 11C16.4477 11 16 10.5523 16 10C16 9.44771 16.4477 9 17 9C17.5523 9 18 9.44771 18 10ZM12 10.0078C12 9.77982 12.1848 9.595 12.4128 9.595H14.5872C14.8152 9.595 15 9.77982 15 10.0078C15 10.2358 14.8152 10.4206 14.5872 10.4206H12.4128C12.1848 10.4206 12 10.2358 12 10.0078Z" fill="#525C69"/>
<path fill-rule="evenodd" clip-rule="evenodd" d="M8 14.5C8 14.2239 8.22386 14 8.5 14H16.5C16.7761 14 17 14.2239 17 14.5V19.5C17 19.7761 16.7761 20 16.5 20H8.5C8.22386 20 8 19.7761 8 19.5V14.5ZM9 16.5C9 16.2239 9.22386 16 9.5 16H15.5C15.7761 16 16 16.2239 16 16.5C16 16.7761 15.7761 17 15.5 17H9.5C9.22386 17 9 16.7761 9 16.5ZM9.5 18C9.22386 18 9 18.2239 9 18.5C9 18.7761 9.22386 19 9.5 19H15.5C15.7761 19 16 18.7761 16 18.5C16 18.2239 15.7761 18 15.5 18H9.5Z" fill="#525C69"/>
</svg>
