<svg xmlns="http://www.w3.org/2000/svg" width="26" height="26" viewBox="0 0 26 26"><path fill-rule="evenodd" fill="#fff" d="M12.12,20.978 L9.524,20.978 C7.066,20.978 5.056,18.968 5.056,16.508 L5.056,15.866 L1.884,15.866 L6.204,11.546 L10.522,15.866 L6.822,15.866 L6.822,16.609 C6.822,18.034 7.989,19.201 9.415,19.201 L12.119,19.201 L12.119,20.977 L12.12,20.978 Z M9.414,6.776 C8.462,6.776 7.634,7.302 7.184,8.071 L5.428,7.7 C6.118,6.116 7.698,5 9.528,5 L16.568,5 C19.026,5 21.036,7.01 21.036,9.468 L21.036,10.028 L24.256,10.028 L19.936,14.348 L15.618,10.028 L19.271,10.028 L19.271,9.368 C19.271,7.942 18.105,6.776 16.679,6.776 L9.415,6.776 L9.414,6.776 Z M18.4,20.223 L15.872,17.696 L14.609,18.96 L17.135,21.485 L18.4,22.75 L24.166,16.98 L22.903,15.718 L18.4,20.223 Z"/></svg>
