<svg xmlns="http://www.w3.org/2000/svg" width="24" height="16" viewBox="0 0 24 16"><path fill="#fff" fill-rule="evenodd" d="M15.678 14.202H8.415c-1.426 0-2.594-1.167-2.594-2.593v-.744h3.702l-4.32-4.32-4.318 4.32h3.173v.643c0 2.457 2.01 4.468 4.468 4.468h7.042c1.852 0 3.45-1.144 4.124-2.76l-1.75-.37c-.444.802-1.287 1.354-2.262 1.354M8.415 1.776h7.263c1.426 0 2.592 1.166 2.592 2.593v.66h-3.653l4.318 4.32 4.32-4.32h-3.22v-.562C20.035 2.01 18.025 0 15.568 0H8.526c-1.83 0-3.41 1.116-4.1 2.7l1.76.37c.45-.768 1.277-1.294 2.23-1.294"/></svg>