<svg xmlns="http://www.w3.org/2000/svg" width="24" height="18" viewBox="0 0 24 18"><g fill="#fff" fill-rule="evenodd"><path d="M11.12 15.978H8.524c-2.458 0-4.468-2.01-4.468-4.47v-.642H.884l4.32-4.32 4.318 4.32h-3.7v.743c0 1.425 1.167 2.592 2.593 2.592h2.704v1.776zM8.414 1.776c-.952 0-1.78.526-2.23 1.295L4.428 2.7c.69-1.584 2.27-2.7 4.1-2.7h7.04c2.458 0 4.468 2.01 4.468 4.468v.56h3.22l-4.32 4.32-4.318-4.32h3.653v-.66c0-1.426-1.166-2.592-2.592-2.592H8.415zM17.4 15.223l-2.528-2.527-1.263 1.264 2.526 2.525L17.4 17.75l5.766-5.77-1.263-1.262"/></g></svg>