<svg xmlns="http://www.w3.org/2000/svg" width="26" height="26" viewBox="0 0 26 26"><path  fill-rule="evenodd" fill="#535C69" d="M12.884,20.978 L9.524,20.978 C7.067,20.978 5.057,18.968 5.057,16.508 L5.057,15.866 L1.884,15.866 L6.204,11.546 L10.522,15.866 L6.822,15.866 L6.822,16.609 C6.822,18.034 7.989,19.201 9.415,19.201 L12.885,19.201 L12.885,20.977 L12.884,20.978 Z M9.414,6.776 C8.464,6.776 7.636,7.302 7.186,8.071 L5.426,7.701 C6.116,6.117 7.696,5.001 9.526,5.001 L16.568,5.001 C19.025,5.001 21.035,7.011 21.035,9.469 L21.035,10.029 L24.255,10.029 L19.935,14.349 L15.617,10.029 L19.27,10.029 L19.27,9.369 C19.27,7.943 18.104,6.777 16.678,6.777 L9.415,6.777 L9.414,6.776 Z M16,15 L17.96,15 L17.96,20.876 L16,20.876 L16,15 Z"/><rect width="1.96" height="2" x="16" y="22" fill="#535C69" rx=".98"/></svg>
