<svg xmlns="http://www.w3.org/2000/svg" width="26" height="26" viewBox="0 0 26 26"><path fill-rule="evenodd" fill="#535C69" d="M12.884 20.978h-3.36a4.48 4.48 0 0 1-4.467-4.47v-.642H1.884l4.32-4.32 4.318 4.32h-3.7v.743a2.6 2.6 0 0 0 2.593 2.592h3.47v1.776l-.001.001zM9.414 6.776c-.95 0-1.778.526-2.228 1.295l-1.76-.37c.69-1.584 2.27-2.7 4.1-2.7h7.042a4.48 4.48 0 0 1 4.467 4.468v.56h3.22l-4.32 4.32-4.318-4.32h3.653v-.66a2.6 2.6 0 0 0-2.592-2.592H9.415l-.001-.001zM16 15h1.96v5.876H16V15z"/><rect width="1.96" height="2" x="16" y="22" fill="#535C69" rx=".98"/></svg>