<svg xmlns="http://www.w3.org/2000/svg" width="26" height="26" viewBox="0 1 26 26"><path fill="#535C69" fill-rule="evenodd" d="M14.897 13.685h-1.694v-1.84a.09.09 0 0 0-.089-.09h-.602a.09.09 0 0 0-.089.09v2.53c0 .047.04.086.087.086h2.387a.087.087 0 0 0 .086-.086v-.604a.087.087 0 0 0-.086-.086m-1.95 3.182a3.212 3.212 0 0 1-3.22-3.204 3.212 3.212 0 0 1 3.22-3.204 3.212 3.212 0 0 1 3.22 3.204 3.212 3.212 0 0 1-3.22 3.204m5.798-5.166a3.442 3.442 0 0 0-3.432-3.095c-.402 0-.787.069-1.146.195A4.216 4.216 0 0 0 10.706 7C8.378 7 6.49 8.878 6.49 11.194c0 .109.004.217.012.324A3.976 3.976 0 0 0 4 15.206c0 2.163 1.737 3.923 3.899 3.973.08.006.16.01.241.01h9.564c.074.003.148.006.223.006 2.105 0 3.81-1.697 3.81-3.791a3.797 3.797 0 0 0-2.992-3.703"/></svg>