<svg xmlns="http://www.w3.org/2000/svg" width="26" height="26" viewBox="0 0 26 26"><path fill="#535C69" fill-rule="evenodd" d="M10.8967722,6.68482757 L9.20310674,6.68482757 L9.20310674,4.84453553 C9.20310674,4.79575671 9.16299625,4.75584676 9.11397232,4.75584676 L8.51231497,4.75584676 C8.46329104,4.75584676 8.42318055,4.79575671 8.42318055,4.84453553 L8.42318055,7.37478188 C8.42318055,7.42211951 8.46211001,7.46085434 8.50968551,7.46085434 L9.11397232,7.46085434 L10.8967722,7.46085434 C10.94437,7.46085434 10.9832771,7.42211951 10.9832771,7.37478188 L10.9832771,6.77087785 C10.9832771,6.72354022 10.94437,6.68482757 10.8967722,6.68482757 M8.94684528,9.8665373 C7.16850215,9.8665373 5.7268643,8.43210726 5.7268643,6.66265538 C5.7268643,4.8932035 7.16850215,3.45877346 8.94684528,3.45877346 C10.7251884,3.45877346 12.1668263,4.8932035 12.1668263,6.66265538 C12.1668263,8.43210726 10.7251884,9.8665373 8.94684528,9.8665373 M14.7451508,4.70068234 C14.5749932,2.96386793 13.1033616,1.60646409 11.3129631,1.60646409 C10.9112788,1.60646409 10.5257947,1.67499834 10.1673183,1.80058164 C9.40584298,0.712370397 8.13948797,0 6.70571624,0 C4.37774798,0 2.49054944,1.87754132 2.49054944,4.19362646 C2.49054944,4.30289102 2.49478332,4.41118002 2.50302826,4.51833823 C1.03576426,5.10641131 0,6.53580826 0,8.20608392 C0,10.3691588 1.73691791,12.1285666 3.89885102,12.1792966 C3.97858176,12.1850835 4.05907014,12.1881433 4.1402716,12.1881433 L13.7041276,12.1881433 C13.7780423,12.1924004 13.8524696,12.194795 13.9274539,12.194795 C16.031873,12.194795 17.7378836,10.4975357 17.7378836,8.40383771 C17.7378836,6.5894428 16.4565763,5.07304216 14.7451508,4.70068234" transform="translate(4 7)"/></svg>