<svg width="24" height="24" viewBox="0 0 24 24" fill="none" xmlns="http://www.w3.org/2000/svg">
	<path fill-rule="evenodd" clip-rule="evenodd" d="M18.5122 16.7483C20.8966 13.4345 20.3655 8.84729 17.2742 6.06851C14.201 3.31206 9.53334 3.31026 6.54422 6.06455C3.53813 8.84081 3.14675 13.4277 5.63257 16.7429C8.09095 20.0459 12.677 20.9777 16.1802 18.8862C16.212 18.9096 16.2456 18.9294 16.2817 18.9453L18.4613 19.5235C18.6494 19.5728 18.848 19.5195 18.982 19.3831C19.1166 19.2452 19.1665 19.0468 19.1141 18.8603L18.5122 16.7483ZM14.4073 13.5275C14.2758 13.3817 14.0703 13.3224 13.8806 13.3753C13.6877 13.4362 13.5436 13.5932 13.5037 13.7876C13.4561 13.9863 13.5126 14.1966 13.6551 14.3501L13.9335 14.6434H8.89901C8.64706 14.6574 8.45616 14.8657 8.47041 15.1113L8.47407 15.3389C8.46715 15.5845 8.66497 15.7933 8.91773 15.8065H13.9559L13.6869 16.1006C13.5497 16.2536 13.4996 16.4636 13.5534 16.6627C13.5993 16.857 13.7479 17.0141 13.9437 17.075C14.1346 17.1283 14.3381 17.0686 14.4655 16.9227L15.6442 15.6374C15.8514 15.4014 15.8457 15.0508 15.6312 14.8149L14.4073 13.5275ZM9.75587 10.6528C9.90199 10.6528 10.0408 10.5911 10.1352 10.4838C10.342 10.2482 10.3363 9.89759 10.1222 9.6616L9.84419 9.36792H14.8828C15.1351 9.3547 15.3264 9.14635 15.3114 8.90035L15.3077 8.67357C15.315 8.42757 15.1168 8.21842 14.864 8.206H9.82588L10.0953 7.91192C10.3013 7.67673 10.2952 7.32655 10.0803 7.09216C9.98299 6.98439 9.84297 6.92228 9.69644 6.92188C9.54992 6.92108 9.41153 6.98238 9.31628 7.08976L8.13754 8.37788C7.93036 8.61307 7.93606 8.96405 8.15056 9.19924L9.37042 10.4838C9.46851 10.5911 9.60893 10.6528 9.75587 10.6528ZM9.01904 11.4589L9.01781 11.4597C8.76546 11.4725 8.57416 11.6813 8.58881 11.9273L8.59247 12.1581C8.58555 12.4041 8.78377 12.6124 9.03613 12.6256H15.1265C15.3788 12.6124 15.5701 12.4041 15.5555 12.1581L15.5514 11.9297C15.5595 11.6825 15.3617 11.4725 15.1081 11.4589H9.01904Z" fill="#fff"/>
</svg>
