<svg xmlns="http://www.w3.org/2000/svg" width="24" height="24" viewBox="0 0 24 24"><path fill="#525C69" d="M13.745 13.63v-.004H9.589c-.863.984-1.945 2.2-2.234 2.438-.495.412-.733.42-.733.155v-2.593H5.505C4.677 13.626 4 12.96 4 12.148v-4.67C4 6.665 4.677 6 5.505 6h8.24c.828 0 1.505.665 1.505 1.478v4.674c0 .813-.677 1.478-1.505 1.478zM16.314 9h1.528c.813 0 1.474.665 1.47 1.477v4.675c0 .812-.661 1.477-1.47 1.477h-1.091v2.592c0 .26-.228.257-.716-.155-.279-.237-1.339-1.454-2.183-2.437H9.793c-.29 0-.565-.09-.793-.237l1.525-1.597h3.626c1.192 0 2.163-.98 2.163-2.173V9z"/></svg>