<svg xmlns="http://www.w3.org/2000/svg" width="26" height="26"  viewBox="-7 -6 26 26"><path fill="#FFF" fill-rule="evenodd" d="M.62 0A.627.627 0 000 .64v7.948c0 .356.276.64.62.64H5.63v.84l-2.161 2.25a.657.657 0 000 .923.61.61 0 00.895 0l1.907-1.966 1.907 1.966a.63.63 0 00.46.19c.16 0 .32-.071.435-.19a.657.657 0 000-.923L6.914 10.09v-.863h5.007c.345 0 .62-.284.62-.64V.64a.627.627 0 00-.62-.64H.62zm2.104 5.807c-.254 0-.485-.185-.485-.432 0-.226.208-.432.485-.432h6.198c.254 0 .484.185.484.432 0 .226-.207.432-.46.432H2.723zm-.485-3.12c0 .248.23.432.485.432h6.221c.254 0 .46-.205.46-.432 0-.247-.23-.431-.483-.431H2.724c-.277 0-.485.205-.485.431z"/></svg>
