<svg width="26px" height="26px" viewBox="0 0 26 26" version="1.1" xmlns="http://www.w3.org/2000/svg" xmlns:xlink="http://www.w3.org/1999/xlink"><path d="M5.75,9.91666667 C7.1767356,9.91666667 8.33333333,11.0732644 8.33333333,12.5 C8.33333333,13.9267356 7.1767356,15.0833333 5.75,15.0833333 C4.3232644,15.0833333 3.16666667,13.9267356 3.16666667,12.5 C3.16666667,11.0732644 4.3232644,9.91666667 5.75,9.91666667 Z M13.5,9.91666667 C14.9267356,9.91666667 16.0833333,11.0732644 16.0833333,12.5 C16.0833333,13.9267356 14.9267356,15.0833333 13.5,15.0833333 C12.0732644,15.0833333 10.9166667,13.9267356 10.9166667,12.5 C10.9166667,11.0732644 12.0732644,9.91666667 13.5,9.91666667 Z M21.25,9.91666667 C22.6767356,9.91666667 23.8333333,11.0732644 23.8333333,12.5 C23.8333333,13.9267356 22.6767356,15.0833333 21.25,15.0833333 C19.8232644,15.0833333 18.6666667,13.9267356 18.6666667,12.5 C18.6666667,11.0732644 19.8232644,9.91666667 21.25,9.91666667 Z" fill="#535C69" /></svg>