<svg width="26" height="26" viewBox="0 0 26 26" fill="none" xmlns="http://www.w3.org/2000/svg"><path fill-rule="evenodd" clip-rule="evenodd" d="M20.4496 13.1514C19.8435 13.9872 16.7388 18 13 18C9.26122 18 6.15661 13.9872 5.55051 13.1514C5.48316 13.0585 5.48316 12.9415 5.55051 12.8486C6.15661 12.0128 9.26122 8 13 8C16.7388 8 19.8435 12.0128 20.4496 12.8486C20.5168 12.9415 20.5168 13.0585 20.4496 13.1514ZM15.6432 13C15.6432 14.4086 14.4598 15.5505 12.9999 15.5505C11.54 15.5505 10.3566 14.4086 10.3566 13C10.3566 11.5913 11.54 10.4495 12.9999 10.4495C14.4598 10.4495 15.6432 11.5913 15.6432 13Z" fill="#535C69"/></svg>