<svg width="26" height="26" viewBox="0 0 26 26" fill="none" xmlns="http://www.w3.org/2000/svg"><path fill-rule="evenodd" clip-rule="evenodd" d="M7.03483 7L18.483 18.017L17.4614 19L15.7641 17.3665L15.695 17.3972C14.826 17.7673 13.9277 17.9523 13 17.9523C10.2569 17.9523 7.77011 16.3344 5.53971 13.0988C5.4956 13.0347 5.48823 12.9547 5.51765 12.8854L5.53971 12.8453L5.69214 12.6271C6.45513 11.551 7.24781 10.6623 8.07018 9.96087L6.01321 7.98312L7.03483 7ZM13 7.99164C15.7431 7.99164 18.2298 9.60948 20.4603 12.8452C20.5044 12.9092 20.5118 12.9892 20.4823 13.0585L20.4603 13.0987L20.3078 13.3168C19.5616 14.3693 18.7869 15.2426 17.9839 15.9366L15.5582 13.6017C15.6116 13.4004 15.6399 13.1893 15.6399 12.972C15.6399 11.5689 14.458 10.4315 13 10.4315C12.7739 10.4315 12.5545 10.4588 12.345 10.5103L10.3042 8.54706C11.1735 8.17678 12.072 7.99164 13 7.99164ZM10.3601 12.972C10.3601 14.3751 11.542 15.5125 13 15.5125C13.2545 15.5125 13.5006 15.4778 13.7335 15.4131L10.4633 12.266C10.3961 12.4902 10.3601 12.7271 10.3601 12.972Z" fill="#535C69"/></svg>