<svg xmlns="http://www.w3.org/2000/svg" width="26" height="26" viewBox="0 0 26 26"><path fill="#fff" d="M17.61 12.109c.168.874.327 1.7.659 2.393.24.501.702.964 1.149 1.411.321.322.653.655.782.893.34.63.34 1.057.236 1.23-.093.155-.323.188-.5.189l-13.737.063c-.373.002-.634-.075-.717-.21-.105-.17-.075-.606.227-1.195.153-.3.486-.623.838-.965.433-.42.924-.896 1.218-1.478.364-.724.524-1.565.693-2.456.302-1.596.577-3.045 1.917-3.819.638-.368 1.516-.583 2.753-.589 3.607-.017 4.032 2.193 4.482 4.533m-3.324 8.203a1.44 1.44 0 0 1-1.417 1.438 1.369 1.369 0 0 1-.98-.403 1.408 1.408 0 0 1-.413-1.011c.002-.422.189-.799.478-1.062l1.875-.009c.014.013.03.023.044.036.268.268.415.627.413 1.011m-1.84-14.843c.004-.644.208-.91.398-.95l.532-.003c.174.015.348.31.345.938-.002.402.007.606.006 1.038l-1.28.007c.003-.326-.004-.444-.001-1.03" fill-rule="evenodd"/></svg>