<svg xmlns="http://www.w3.org/2000/svg" width="26" height="26" viewBox="0 0 26 26"><g fill="none" fill-rule="evenodd" transform="translate(-.5)"><path fill="#fff" d="M18.3718669,15.4707703 C18.0801537,16.3119763 17.8048438,17.1068166 17.7454368,17.8733959 C17.7024336,18.426693 17.8713435,19.058591 18.0349335,19.6692932 C18.1524169,20.1086633 18.2738901,20.5630469 18.2659103,20.8341758 C18.2450737,21.5499736 18.0313872,21.9191328 17.8544968,22.0176046 C17.6975573,22.1050371 17.4812101,22.0184878 17.3273734,21.9301722 L5.39949393,15.1170664 C5.07586073,14.9324868 4.88788742,14.7351015 4.88389745,14.5756919 C4.87813411,14.3760987 5.12152404,14.0144464 5.67746388,13.6550019 C5.96119712,13.4713055 6.41073696,13.3582616 6.88643348,13.238594 C7.47119,13.0915485 8.13397313,12.9246321 8.67971631,12.5669539 C9.35757277,12.122285 9.91617261,11.473607 10.5075791,10.7869533 C11.5680322,9.55539254 12.5305085,8.43820039 14.0777414,8.43820039 C14.8141176,8.43820039 15.6826078,8.69078298 16.756804,9.3045763 C19.8885094,11.0934084 19.1516901,13.2196062 18.3718669,15.4707703 M11.3915855,20.9132183 C10.9934723,21.5950146 10.1201059,21.835233 9.44535276,21.450177 C9.12393615,21.2664806 8.89428957,20.9688571 8.79808629,20.611179 C8.69966629,20.2455525 8.75197964,19.8609381 8.94571623,19.5288715 C9.15895952,19.1641281 9.50874939,18.9318581 9.89090263,18.8483999 L11.5192655,19.778363 C11.5250288,19.7964677 11.5343388,19.8128061 11.5392155,19.8309108 C11.6376354,20.1969788 11.5853221,20.5815933 11.3915855,20.9132183 M17.2192005,7.13863654 C17.544607,6.58268994 17.8544968,6.45374924 18.0389234,6.51557012 L18.5013199,6.77875059 C18.6445169,6.87810557 18.6471768,7.22077004 18.3310801,7.76302775 C18.1280333,8.11054959 18.0340471,8.2915965 17.817257,8.66561305 L16.7049339,8.03062396 C16.8707403,7.75066358 16.9239404,7.64512644 17.2192005,7.13863654" transform="rotate(-30 11.967 14.278)"/></g></svg>
