<svg xmlns="http://www.w3.org/2000/svg" width="17" height="18" viewBox="0 0 17 18"><path fill="#fff" fill-rule="evenodd" d="M17.4120866,11.8990608 C17.1203734,12.7402668 16.8450635,13.5351071 16.7856565,14.3016864 C16.7426533,14.8549835 16.9115632,15.4868815 17.0751532,16.0975837 C17.1926366,16.5369538 17.3141098,16.9913374 17.30613,17.2624663 C17.2852934,17.9782641 17.0716069,18.3474233 16.8947165,18.4458951 C16.737777,18.5333276 16.5214298,18.4467783 16.3675931,18.3584627 L4.43971364,11.5453569 C4.11608044,11.3607773 3.92810713,11.163392 3.92411716,11.0039824 C3.91835382,10.8043892 4.16174375,10.4427369 4.71768359,10.0832924 C5.00141683,9.89959601 5.45095667,9.78655207 5.92665319,9.66688446 C6.51140971,9.51983901 7.17419284,9.35292257 7.71993602,8.99524441 C8.39779248,8.55057546 8.95639232,7.90189747 9.54779882,7.21524381 C10.6082519,5.983683 11.5707282,4.86649085 13.1179611,4.86649085 C13.8543373,4.86649085 14.7228275,5.11907344 15.7970237,5.73286676 C18.9287291,7.5216989 18.1919098,9.64789663 17.4120866,11.8990608 M10.4318052,17.3415088 C10.033692,18.0233051 9.16032558,18.2635235 8.48557247,17.8784675 C8.16415586,17.6947711 7.93450928,17.3971476 7.838306,17.0394695 C7.739886,16.673843 7.79219935,16.2892286 7.98593594,15.957162 C8.19917923,15.5924186 8.5489691,15.3601486 8.93112234,15.2766904 L10.5594852,16.2066535 C10.5652485,16.2247582 10.5745585,16.2410966 10.5794352,16.2592013 C10.6778551,16.6252693 10.6255418,17.0098838 10.4318052,17.3415088 M16.2594202,3.566927 C16.5848267,3.0109804 16.8947165,2.8820397 17.0791431,2.94386058 L17.5415396,3.20704105 C17.6847366,3.30639603 17.6873965,3.6490605 17.3712998,4.19131821 C17.168253,4.53884005 17.0742668,4.71988696 16.8574767,5.09390351 L15.7451536,4.45891442 C15.91096,4.17895404 15.9641601,4.0734169 16.2594202,3.566927" transform="rotate(-30 8.188 18.031)"/></svg>
