<svg width="26" height="26" viewBox="0 0 26 26" fill="none" xmlns="http://www.w3.org/2000/svg"><path fill-rule="evenodd" clip-rule="evenodd" d="M20.9729 12.9866C20.9729 8.57545 17.3972 5.00008 12.9866 5.00008C8.57569 5.00008 5 8.57545 5 12.9866C5 17.3971 8.57569 20.9728 12.9866 20.9728C17.3972 20.9728 20.9729 17.3971 20.9729 12.9866ZM9.90149 10.8948C9.90149 10.5041 10.0269 10.1082 10.2778 9.70713C10.5287 9.3061 10.8949 8.97397 11.3761 8.71069C11.8573 8.44749 12.4188 8.31583 13.0605 8.31583C13.6568 8.31583 14.1834 8.42593 14.64 8.64591C15.0965 8.866 15.4492 9.16525 15.6981 9.54362C15.9469 9.92211 16.0714 10.3334 16.0714 10.7776C16.0714 11.1273 16.0004 11.4337 15.8585 11.6969C15.7166 11.9602 15.5479 12.1874 15.3525 12.3787C15.1571 12.5699 14.8065 12.8918 14.3006 13.3443C14.1607 13.4718 14.0486 13.5839 13.9643 13.6806C13.88 13.7772 13.8172 13.8657 13.7761 13.9458C13.735 14.0261 13.703 14.1063 13.6805 14.1865C13.6578 14.2667 13.6239 14.4076 13.5787 14.6091C13.5005 15.0369 13.2558 15.2508 12.8445 15.2508C12.6306 15.2508 12.4506 15.1809 12.3046 15.041C12.1586 14.9012 12.0856 14.6935 12.0856 14.4179C12.0856 14.0723 12.139 13.7731 12.246 13.5201C12.353 13.2671 12.4948 13.045 12.6718 12.8538C12.8485 12.6625 13.0872 12.4353 13.3875 12.172C13.6506 11.9417 13.8409 11.7679 13.9582 11.6507C14.0754 11.5334 14.1741 11.4029 14.2543 11.2589C14.3345 11.1149 14.3747 10.9587 14.3747 10.79C14.3747 10.4609 14.2522 10.1833 14.0075 9.95702C13.7628 9.73086 13.447 9.61767 13.0605 9.61767C12.6079 9.61767 12.2748 9.73182 12.0609 9.96011C11.847 10.1884 11.6661 10.5247 11.518 10.9689C11.3781 11.4337 11.1128 11.6661 10.722 11.6661C10.4916 11.6661 10.2973 11.5849 10.139 11.4224C9.98065 11.2599 9.90149 11.0841 9.90149 10.8948ZM12.2553 17.4133C12.4424 17.5758 12.6614 17.6571 12.9124 17.6571C13.1551 17.6571 13.3689 17.5748 13.554 17.4103C13.7391 17.2458 13.8317 17.0195 13.8317 16.7316C13.8317 16.4724 13.7432 16.2545 13.5664 16.0776C13.3895 15.9007 13.1715 15.8123 12.9124 15.8123C12.6491 15.8123 12.427 15.9007 12.246 16.0776C12.065 16.2545 11.9746 16.4724 11.9746 16.7316C11.9746 17.0237 12.0681 17.2509 12.2553 17.4133Z" fill="#FFF"/></svg>