<svg xmlns="http://www.w3.org/2000/svg" width="24" height="24" viewBox="0 0 24 24"><path fill="#525C69" fill-rule="evenodd" d="M17.1757063,6 L5.57800519,6 C4.685695,6.03035895 3.98348837,6.76243117 4.00150517,7.64355023 L4.00150517,15.2711533 C3.96400509,16.1313278 4.63170585,16.8625168 5.50234795,16.9147036 L17.204616,16.9147036 C18.0966819,16.8843463 18.7987919,16.1526452 18.781116,15.2717605 L18.781116,7.67451479 C18.7877592,6.78160411 18.0793025,6.04265175 17.1757063,6 L17.1757063,6 Z M15.7782002,7.51787055 L11.3494838,11.0217229 L6.9207674,7.51787055 L15.7825059,7.51787055 L15.7782002,7.51787055 Z M17.3245604,14.7291882 C17.3295425,14.8543404 17.2818468,14.9761409 17.1922528,15.067062 C17.1026588,15.157983 16.9787293,15.2103498 16.8484734,15.212327 L5.91384952,15.212327 C5.78662141,15.207315 5.6668516,15.1532619 5.58156042,15.062362 C5.49626925,14.9714622 5.45264204,14.8513734 5.46052119,14.7291882 L5.46052119,12.6966934 L5.46052119,12.6966934 L5.46052119,8.47913378 C5.5119408,8.54633421 5.57186106,8.60711995 5.63890004,8.66008909 L10.8727817,12.6765873 C10.9789597,12.7692418 11.115769,12.8228586 11.2590642,12.8279747 L11.4971077,12.8279747 C11.6370423,12.8088042 11.7699172,12.7568122 11.8840053,12.6765873 L17.1172718,8.66008909 C17.2021523,8.59272734 17.2723831,8.50993501 17.3239453,8.41644992 L17.3239453,14.7285968 L17.3245604,14.7291882 Z"/></svg>