<svg xmlns="http://www.w3.org/2000/svg" width="26" height="26"  viewBox="-3 -4 26 26"><path fill="#fff" fill-rule="evenodd" d="M18.567.395c.42.42.42 1.1 0 1.52l-1.04 1.038.704.001a2 2 0 012 2v1.799a1.01 1.01 0 01.116-.007H21a1 1 0 011 1v2.495a1 1 0 01-1 1h-.653l-.116-.006v1.798a2 2 0 01-2 2L5.45 15.032l-2.045 2.045a1.075 1.075 0 11-1.52-1.52L17.047.395c.42-.42 1.1-.42 1.52 0zm-2.583 4.102l-8.991 8.99 10.836.002a1 1 0 00.994-.883l.006-.117v-6.99a1 1 0 00-1-1l-1.845-.002zm-5.031-1.543L9.409 4.498h-6.23a1 1 0 00-.993.884l-.006.116-.001 6.23-1.4 1.398v-.046L.777 4.954a2 2 0 012-2h8.175z"/></svg>
