<svg xmlns="http://www.w3.org/2000/svg" width="26" height="26" viewBox="0 1 26 26"><path fill="#535C69" d="M22.8481,15.16722 C22.8481,16.02684 21.6505,17.39561 21.4184,17.17779 C21.1862,16.95997 17.5837,15.59658 17.3515,15.37966 C17.1469,14.65842 17.0678,13.90738 17.1176,13.15934 C17.1176,12.71115 13.49082,12.48078 13.4218,12.4763 C13.35278,12.47182 9.72694,12.70308 9.72784,13.15217 C9.77926,13.89972 9.70133,14.65054 9.49747,15.37159 C9.26531,15.58851 5.66636,16.94563 5.4342,17.16434 C5.20204,17.38306 4,16.01071 4,15.15108 C4,14.41695 4.553064,11.18104 10.11866,10.259562 C11.20309,10.0495235 12.3083,9.9664977 13.41194,10.012162 L13.42449,10.012162 C14.5284,9.9684738 15.6336,10.0536063 16.7178,10.265836 C22.2879,11.19627 22.8481,14.43309 22.8481,15.16722 Z"/></svg>
