<svg xmlns="http://www.w3.org/2000/svg" width="26" height="26" viewBox="0 0 26 26"><path fill="#535C69" fill-rule="nonzero" d="M19.6951586,9.76753152 L5.7734294,9.76753152 C5.34712973,9.76753152 5,10.1116251 5,10.5341962 L5,15.9008492 C5,16.3234203 5.34712973,16.6675139 5.7734294,16.6675139 L6.5468588,16.6675139 L6.5468588,19.7341728 C6.5468588,20.1567439 6.89398853,20.5008375 7.3202882,20.5008375 L18.1482998,20.5008375 C18.5745995,20.5008375 18.9217292,20.1567439 18.9217292,19.7341728 L18.9217292,16.6675139 L19.6951586,16.6675139 C20.1214583,16.6675139 20.468588,16.3234203 20.468588,15.9008492 L20.468588,10.5341962 C20.468588,10.1116251 20.1214583,9.76753152 19.6951586,9.76753152 Z M17.3748704,18.967508 L8.0937176,18.967508 L8.0937176,15.9008492 L17.3748704,15.9008492 L17.3748704,18.967508 Z M18.1482998,12.8341904 C17.7220001,12.8341904 17.3748704,12.4900968 17.3748704,12.0675257 C17.3748704,11.6449546 17.7220001,11.3008609 18.1482998,11.3008609 C18.5745995,11.3008609 18.9217292,11.6449546 18.9217292,12.0675257 C18.9217292,12.4900968 18.5745995,12.8341904 18.1482998,12.8341904 Z M7.51758496,8.18910417 C7.34860404,8.18910417 7.20979828,8.04928285 7.20979828,7.87528299 L7.20979828,5.34917781 C7.20979828,5.17517794 7.34860404,5.03224948 7.51758496,5.03224948 L17.6353176,5.03224948 C17.807316,5.03224948 17.9431042,5.17517794 17.9431042,5.34917781 L17.9431042,7.87217585 C17.9431042,8.04928285 17.8042985,8.18910417 17.6353176,8.18910417 L7.51758496,8.18910417 Z"/></svg>
