<svg xmlns="http://www.w3.org/2000/svg" width="26" height="26" viewBox="-2 -2 26 26"><path fill="#FFF" fill-rule="evenodd" d="M11.017.017c6.075 0 11 4.925 11 11s-4.925 11-11 11-11-4.925-11-11 4.925-11 11-11zm.48 8.346a1.1 1.1 0 01-.96 0l-2.156 3.443-2.756-1.19c-.1.114-.221.2-.358.253l1.41 5.148h8.68l1.41-5.148a.918.918 0 01-.359-.253l-2.756 1.19-2.156-3.443zm5.732.082c-.61 0-1.105.471-1.105 1.053 0 .58.495 1.052 1.105 1.052s1.106-.471 1.106-1.052c0-.582-.495-1.053-1.106-1.053zm-12.365 0c-.61 0-1.106.471-1.106 1.053 0 .58.495 1.052 1.106 1.052.61 0 1.105-.471 1.105-1.052 0-.582-.495-1.053-1.105-1.053zm6.153-2.428c-.61 0-1.106.471-1.106 1.052 0 .581.495 1.053 1.106 1.053.61 0 1.105-.472 1.105-1.053 0-.58-.495-1.052-1.105-1.052z"/></svg>