<svg width="26px" height="26px" viewBox="0 0 26 26" xmlns="http://www.w3.org/2000/svg"><path fill="#fff" d="M15.8434803,15.0158145 C16.4150588,15.6281215 17.076414,15.9826142 17.645,16.5981436 C18.1208166,17.1137703 18.117824,17.7454134 17.6390148,18.2674857 C17.3158186,18.6187561 16.9716745,18.9539136 16.6664337,19.3212976 C16.2205426,19.8594828 15.6639268,20.0335072 15.0235195,19.9948351 C14.0928342,19.9400494 13.2369627,19.6081151 12.4110168,19.1762773 C10.576579,18.2159232 9.00847888,16.884961 7.69474604,15.2027294 C6.72216488,13.9587794 5.92015946,12.6020373 5.39346932,11.0744931 C5.13610937,10.3365018 4.95356336,9.57917536 5.01042196,8.77673118 C5.04633265,8.28366286 5.21690842,7.86149399 5.55506743,7.5166684 C5.92015946,7.14283875 6.26430357,6.75289632 6.62341048,6.37262191 C7.09024946,5.87633122 7.67679074,5.87633122 8.1466223,6.36939864 C8.43690032,6.67555213 8.6148678,7.0660753 8.84170364,7.39469027 C9.06856938,7.72330614 9.33766017,8.14186578 9.61596805,8.44479689 C10.1067475,8.97653641 10.1067475,9.59528903 9.61896063,10.1238062 C9.26883137,10.5040806 9.14912907,10.6394329 8.79301474,11.0100393 C8.70024539,11.1099419 8.69126774,11.1905085 8.73914866,11.3129704 C8.97556068,11.9188317 9.31371971,12.4570169 9.6937745,12.9597532 C10.4598692,13.9716707 11.3247184,14.8707942 12.3571508,15.5701134 C12.5786,15.7183561 12.8239898,15.8279268 13.0544167,15.9632782 C13.1711264,16.0341776 13.2519255,16.0116183 13.3476873,15.9052709 C13.6978166,15.5185509 13.9641542,15.396089 14.3202685,15.0158145 C14.7871075,14.5163015 15.3736488,14.5163015 15.8434803,15.0158145 Z M15.4806475,11.9930514 C15.2457288,12.0340702 15.0160432,11.8898757 14.9496998,11.6558358 C14.7788368,11.0533269 14.4637341,10.5069229 14.0246663,10.0580237 C13.5568306,9.57968282 12.9865344,9.24758365 12.3583021,9.08122666 C12.1244414,9.01930348 11.9710509,8.79105264 12.0045943,8.54645924 L12.0225528,8.41536221 C12.0615582,8.13100649 12.3335663,7.94438846 12.6058317,8.0149662 C13.4261741,8.22757482 14.1698212,8.65980984 14.7796089,9.2832524 C15.3506201,9.86941792 15.7613488,10.5799852 15.9816835,11.3646097 C16.0590078,11.6399607 15.8834265,11.9227375 15.6072147,11.9709483 L15.4806475,11.9930514 Z M16.7883596,7.32128828 C17.8779233,8.44198956 18.6314683,9.82315397 18.9861413,11.3469151 C19.052966,11.6340828 18.871327,11.9198609 18.5876908,11.969564 L18.4556361,11.9926872 C18.1970329,12.0379758 17.9502541,11.8684906 17.8892965,11.6066689 C17.5838166,10.2943471 16.9334122,9.10322791 15.9940459,8.13938577 C14.9973327,7.11948019 13.7616634,6.43480992 12.3968279,6.14612976 C12.1402706,6.09188836 11.9685002,5.84331015 12.0048461,5.577135 L12.023711,5.43901554 C12.0632462,5.14965611 12.3319289,4.95192287 12.6109315,5.01020904 C14.1964599,5.3414615 15.6310085,6.13378138 16.7883596,7.32128828 Z"></path></svg>