<svg width="16px" height="16px" viewBox="0 0 16 16" version="1.1" xmlns="http://www.w3.org/2000/svg" xmlns:xlink="http://www.w3.org/1999/xlink"><path fill="#535C69" d="M14.6951586,4.76753152 L0.773429399,4.76753152 C0.34712973,4.76753152 0,5.11162513 0,5.53419623 L0,10.9008492 C0,11.3234203 0.34712973,11.6675139 0.773429399,11.6675139 L1.5468588,11.6675139 L1.5468588,14.7341728 C1.5468588,15.1567439 1.89398853,15.5008375 2.3202882,15.5008375 L13.1482998,15.5008375 C13.5745995,15.5008375 13.9217292,15.1567439 13.9217292,14.7341728 L13.9217292,11.6675139 L14.6951586,11.6675139 C15.1214583,11.6675139 15.468588,11.3234203 15.468588,10.9008492 L15.468588,5.53419623 C15.468588,5.11162513 15.1214583,4.76753152 14.6951586,4.76753152 Z M12.3748704,13.967508 L3.0937176,13.967508 L3.0937176,10.9008492 L12.3748704,10.9008492 L12.3748704,13.967508 Z M13.1482998,7.83419036 C12.7220001,7.83419036 12.3748704,7.49009675 12.3748704,7.06752565 C12.3748704,6.64495455 12.7220001,6.30086094 13.1482998,6.30086094 C13.5745995,6.30086094 13.9217292,6.64495455 13.9217292,7.06752565 C13.9217292,7.49009675 13.5745995,7.83419036 13.1482998,7.83419036 Z M2.51758496,3.18910417 C2.34860404,3.18910417 2.20979828,3.04928285 2.20979828,2.87528299 L2.20979828,0.349177806 C2.20979828,0.175177941 2.34860404,0.032249481 2.51758496,0.032249481 L12.6353176,0.032249481 C12.807316,0.032249481 12.9431042,0.175177941 12.9431042,0.349177806 L12.9431042,2.87217585 C12.9431042,3.04928285 12.8042985,3.18910417 12.6353176,3.18910417 L2.51758496,3.18910417 Z"/></svg>