<svg xmlns="http://www.w3.org/2000/svg" width="26" height="26"><path fill="#FFF" fill-rule="nonzero" d="M9.675 15.6c.677 0 1.225.548 1.225 1.225v2.45c0 .677-.548 1.225-1.225 1.225h-2.45A1.225 1.225 0 0 1 6 19.275v-2.45c0-.677.548-1.225 1.225-1.225h2.45Zm4.668 3.5c.225 0 .407.182.407.407v.236a.407.407 0 0 1-.407.407h-.236a.407.407 0 0 1-.407-.407v-.236c0-.225.182-.407.407-.407h.236Zm2.45 0c.225 0 .407.182.407.407v.236a.407.407 0 0 1-.407.407h-.236a.407.407 0 0 1-.407-.407v-.236c0-.225.182-.407.407-.407h.236Zm-7.118-2.275h-2.45v2.45h2.45v-2.45Zm6.068.875c.225 0 .407.182.407.407v.236a.407.407 0 0 1-.407.407h-.236a.407.407 0 0 1-.407-.407v-.236c0-.225.182-.407.407-.407h.236Zm2.1 0c.225 0 .407.182.407.407v.236a.407.407 0 0 1-.407.407h-.236a.407.407 0 0 1-.407-.407v-.236c0-.225.182-.407.407-.407h.236Zm-4.55 0c.225 0 .407.182.407.407v.236a.407.407 0 0 1-.407.407h-.236a.407.407 0 0 1-.407-.407v-.236c0-.225.182-.407.407-.407h.236Zm-4.23-.262v1.225H7.837v-1.226h1.226Zm5.28-.788c.225 0 .407.182.407.407v.236a.407.407 0 0 1-.407.407h-.236a.407.407 0 0 1-.407-.407v-.236c0-.225.182-.407.407-.407h.236Zm5.25 0c.225 0 .407.182.407.407v.236a.407.407 0 0 1-.407.407h-.236a.407.407 0 0 1-.407-.407v-.236c0-.225.182-.407.407-.407h.236Zm-2.8 0c.225 0 .407.182.407.407v.236a.407.407 0 0 1-.407.407h-.236a.407.407 0 0 1-.407-.407v-.236c0-.225.182-.407.407-.407h.236Zm-1.05-1.4c.225 0 .407.182.407.407v.236a.407.407 0 0 1-.407.407h-.236a.407.407 0 0 1-.407-.407v-.236c0-.225.182-.407.407-.407h.236Zm-2.45 0c.225 0 .407.182.407.407v.236a.407.407 0 0 1-.407.407h-.236a.407.407 0 0 1-.407-.407v-.236c0-.225.182-.407.407-.407h.236Zm4.55 0c.225 0 .407.182.407.407v.236a.407.407 0 0 1-.407.407h-.236a.407.407 0 0 1-.407-.407v-.236c0-.225.182-.407.407-.407h.236Zm-3.5-1.05c.225 0 .407.182.407.407v.236a.407.407 0 0 1-.407.407h-.236a.407.407 0 0 1-.407-.407v-.236c0-.225.182-.407.407-.407h.236Zm2.45 0c.225 0 .407.182.407.407v.236a.407.407 0 0 1-.407.407h-.236a.407.407 0 0 1-.407-.407v-.236c0-.225.182-.407.407-.407h.236Zm2.8 0c.225 0 .407.182.407.407v.236a.407.407 0 0 1-.407.407h-.236a.407.407 0 0 1-.407-.407v-.236c0-.225.182-.407.407-.407h.236Zm-6.3-1.05c.225 0 .407.182.407.407v.236a.407.407 0 0 1-.407.407h-.236a.407.407 0 0 1-.407-.407v-.236c0-.225.182-.407.407-.407h.236Zm-2.8 0c.225 0 .407.182.407.407v.236a.407.407 0 0 1-.407.407h-.236a.407.407 0 0 1-.407-.407v-.236c0-.225.182-.407.407-.407h.236Zm-2.1 0c.225 0 .407.182.407.407v.236a.407.407 0 0 1-.407.407h-.236a.407.407 0 0 1-.407-.407v-.236c0-.225.182-.407.407-.407h.236Zm7.35 0c.225 0 .407.182.407.407v.236a.407.407 0 0 1-.407.407h-.236a.407.407 0 0 1-.407-.407v-.236c0-.225.182-.407.407-.407h.236Zm2.1 0c.225 0 .407.182.407.407v.236a.407.407 0 0 1-.407.407h-.236a.407.407 0 0 1-.407-.407v-.236c0-.225.182-.407.407-.407h.236Zm-4.55-2.8c.225 0 .407.182.407.407v.236a.407.407 0 0 1-.407.407h-.236a.407.407 0 0 1-.407-.407v-.236c0-.225.182-.407.407-.407h.236ZM9.675 6.5c.677 0 1.225.548 1.225 1.225v2.45c0 .677-.548 1.225-1.225 1.225h-2.45A1.225 1.225 0 0 1 6 10.175v-2.45C6 7.048 6.548 6.5 7.225 6.5h2.45Zm9.1 0c.677 0 1.225.548 1.225 1.225v2.45c0 .677-.548 1.225-1.225 1.225h-2.45a1.225 1.225 0 0 1-1.225-1.225v-2.45c0-.677.548-1.225 1.225-1.225h2.45Zm-9.1 1.225h-2.45v2.45h2.45v-2.45Zm9.1 0h-2.45v2.45h2.45v-2.45Zm-9.712.613v1.225H7.837V8.337h1.226Zm9.1 0v1.225h-1.226V8.337h1.226Zm-4.87-.088c.225 0 .407.182.407.407v.236a.407.407 0 0 1-.407.407h-.236a.407.407 0 0 1-.407-.407v-.236c0-.225.182-.407.407-.407h.236Z"/></svg>