<svg width="24" height="25" viewBox="0 0 24 25" fill="none" xmlns="http://www.w3.org/2000/svg">
	<path fill-rule="evenodd" clip-rule="evenodd" d="M14.8139 12.3547L17.7324 12.3528C17.7324 9.43504 15.3665 7.0564 12.4488 7.0564C11.1429 7.0564 9.9472 7.53051 9.02518 8.31616L7.5261 6.81799C8.83367 5.65213 10.5586 4.94324 12.4487 4.94324C16.5341 4.94324 19.8465 8.26925 19.8465 12.3547H22.2658L18.5082 16.0996L14.8139 12.3547ZM5.05107 12.3543L2.55957 12.3542L6.24577 8.6571L9.92943 12.3532H7.16518C7.16518 15.271 9.5311 17.6235 12.4488 17.6235C13.7005 17.6235 14.8501 17.1891 15.755 16.4622L17.2559 17.964C15.9626 19.0702 14.2839 19.7385 12.4489 19.7385C8.36344 19.7385 5.05107 16.4397 5.05107 12.3543Z" fill="white"/>
</svg>
