<svg width="26" height="26" xmlns="http://www.w3.org/2000/svg"><path d="m17.943 10.335.865-2.906a.745.745 0 0 0-.166-.72.725.725 0 0 0-1.232.293l-.741 2.495a7.85 7.85 0 0 0-7.353.007l-.744-2.502a.729.729 0 0 0-.91-.494.74.74 0 0 0-.489.921l.87 2.917a8.324 8.324 0 0 0-3.078 6.496c0 4.56 3.596 3.441 8.035 3.441 4.44 0 8.035 1.12 8.035-3.44a8.316 8.316 0 0 0-3.092-6.508Zm-4.95 5.888c-3.17 0-5.74.332-5.74-1.026 0-1.359 2.57-2.462 5.74-2.462 3.169 0 5.742 1.102 5.742 2.462s-2.57 1.026-5.742 1.026Zm-2.625-2.47a.878.878 0 0 0-.707.97c.055.462.456.8.915.773a.875.875 0 0 0 .818-.878.956.956 0 0 0-1.026-.865Zm4.541.973c.056.462.458.8.917.771a.876.876 0 0 0 .817-.879.956.956 0 0 0-1.03-.865.88.88 0 0 0-.704.973Z" fill="#535C69" fill-rule="evenodd"/></svg>