<svg xmlns="http://www.w3.org/2000/svg" width="26" height="26"><path fill="#FFF" fill-rule="evenodd" d="M13.671 5.945a7.356 7.356 0 0 0-7.185 5.786H3.859l3.634 3.634a.377.377 0 0 0 .531 0l3.635-3.634H8.944a4.981 4.981 0 0 1 9.707 1.568 4.98 4.98 0 0 1-8.557 3.462l-1.706 1.652a7.354 7.354 0 1 0 5.283-12.468Zm.388 3.95h-.81a.21.21 0 0 0-.21.21v3.356a.19.19 0 0 0 .001.018.21.21 0 0 0 .06.169l2.374 2.373a.21.21 0 0 0 .296 0l.573-.573a.21.21 0 0 0 0-.296l-2.074-2.075v-2.973a.21.21 0 0 0-.21-.21Z"/></svg>