<svg width="16px" height="16px" viewBox="0 0 16 16" xmlns="http://www.w3.org/2000/svg"><path transform="translate(-12, -11)" fill="#535c69" fill-rule="evenodd" d="M22.9549333,19.6581413 C22.7131867,20.7945707 21.8195067,21.6882747 20.68312,21.9299507 C18.5165333,22.39074 16.6344267,20.508024 17.0952933,18.3418347 C17.31324,17.317524 18.34252,16.2881373 19.3668,16.0701413 C21.5329733,15.6090733 23.4158133,17.4913707 22.9549333,19.6581413 M27.4145333,17.8349653 L25.8296133,17.57054 L25.8296133,17.57054 C25.7170133,17.1101933 25.554,16.6696867 25.3424133,16.2579133 C25.33352,16.2405893 25.3355867,16.219748 25.3478133,16.2045907 L26.3423333,14.9714347 C26.5581333,14.7055427 26.5483333,14.322992 26.3208267,14.0663907 L25.6904667,13.35694 C25.4619733,13.1005947 25.0830667,13.0463867 24.79404,13.228988 L23.4386133,14.08106 L23.4386133,14.08106 C22.8510133,13.67052 22.18652,13.365788 21.4700133,13.1862373 C21.4510133,13.181464 21.4366,13.165956 21.43336,13.1466053 L21.1735067,11.584968 C21.1178533,11.2475667 20.82588,11 20.4831467,11 L19.5332133,11 C19.1911733,11 18.8982,11.2475667 18.8437867,11.584968 L18.5824933,13.147188 C18.5792533,13.1664907 18.5648667,13.181952 18.5458933,13.1867027 C17.96604,13.3320253 17.4214,13.5613827 16.92248,13.861248 C16.9056667,13.8713547 16.8845467,13.8706093 16.8685733,13.8592 L15.6058133,12.957996 C15.3280133,12.7595147 14.9464267,12.7905533 14.7039867,13.0324853 L14.0328933,13.7040747 C13.79096,13.9465187 13.75992,14.3281147 13.9589333,14.6059293 L14.8622533,15.8712173 C14.87364,15.887168 14.8744267,15.9082867 14.8643467,15.9250987 C14.5674,16.420164 14.3404267,16.9615653 14.1952533,17.536148 C14.1904533,17.5551253 14.175,17.5694693 14.15572,17.5726827 L12.5849333,17.8349893 C12.2480533,17.8906173 12,18.1826347 12,18.525392 L12,19.474608 C12,19.8173413 12.2480533,20.1093827 12.5849333,20.1650107 L14.1556667,20.4272947 C14.1749733,20.4305307 14.1904533,20.4448987 14.1952267,20.4638987 C14.31332,20.933 14.4815333,21.3817267 14.7026667,21.7994387 C14.71188,21.816856 14.7099333,21.8380213 14.6975467,21.8533667 L13.7079333,23.0790467 C13.49288,23.344684 13.5019067,23.7274907 13.7294267,23.9838587 L14.3592933,24.693332 C14.5878,24.950144 14.96692,25.0033733 15.2559733,24.8212373 L16.6037467,23.974568 C16.6202667,23.9641827 16.64132,23.9646027 16.65748,23.9755467 C17.23272,24.3642907 17.88164,24.6505573 18.5771867,24.8212373 L18.5771867,24.8212373 L18.8438133,26.4149853 C18.8982267,26.7524093 19.1911733,27 19.5332133,27 L20.4831467,27 C20.8258933,27 21.1178533,26.7524333 21.1735067,26.4150093 L21.4338,24.853068 C21.43704,24.8337413 21.4514533,24.8182573 21.4704533,24.8135067 C22.0428133,24.6701867 22.5803733,24.44488 23.0745867,24.1503013 C23.0914,24.140288 23.11244,24.14108 23.1283467,24.1524427 L24.44492,25.0927653 C24.72224,25.2919693 25.1040933,25.26072 25.34628,25.01802 L26.0176667,24.3466413 C26.2593067,24.1049413 26.2920267,23.7235547 26.09136,23.445228 L25.15412,22.1311347 C25.1427333,22.115184 25.14196,22.094088 25.15204,22.0772987 C25.4498667,21.5805587 25.6780533,21.0381093 25.8224267,20.4609413 C25.8271733,20.4419413 25.8426533,20.427528 25.86196,20.4242907 L27.4150667,20.1649653 C27.7529467,20.1093133 28,19.8172947 28,19.4745613 L28,18.5253453 C27.9994933,18.1826347 27.75244,17.8906173 27.4145333,17.8349653"/></svg>