<svg xmlns="http://www.w3.org/2000/svg" width="26" height="26" viewBox="0 0 26 26"><path fill="#fff" d="M15.9549333,13.6581413 C15.7131867,14.7945707 14.8195067,15.6882747 13.68312,15.9299507 C11.5165333,16.39074 9.6344267,14.508024 10.0952933,12.3418347 C10.31324,11.317524 11.34252,10.2881373 12.3668,10.0701413 C14.5329733,9.6090733 16.4158133,11.4913707 15.9549333,13.6581413 M20.4145333,11.8349653 L18.8296133,11.57054 C18.7170133,11.1101933 18.554,10.6696867 18.3424133,10.2579133 C18.33352,10.2405893 18.3355867,10.219748 18.3478133,10.2045907 L19.3423333,8.9714347 C19.5581333,8.7055427 19.5483333,8.322992 19.3208267,8.0663907 L18.6904667,7.35694 C18.4619733,7.1005947 18.0830667,7.0463867 17.79404,7.228988 L16.4386133,8.08106 C15.8510133,7.67052 15.18652,7.365788 14.4700133,7.1862373 C14.4510133,7.181464 14.4366,7.165956 14.43336,7.1466053 L14.1735067,5.584968 C14.1178533,5.2475667 13.82588,5 13.4831467,5 L12.5332133,5 C12.1911733,5 11.8982,5.2475667 11.8437867,5.584968 L11.5824933,7.147188 C11.5792533,7.1664907 11.5648667,7.181952 11.5458933,7.1867027 C10.96604,7.3320253 10.4214,7.5613827 9.92248,7.861248 C9.9056667,7.8713547 9.8845467,7.8706093 9.8685733,7.8592 L8.6058133,6.957996 C8.3280133,6.7595147 7.9464267,6.7905533 7.7039867,7.0324853 L7.0328933,7.7040747 C6.79096,7.9465187 6.75992,8.3281147 6.9589333,8.6059293 L7.8622533,9.8712173 C7.87364,9.887168 7.8744267,9.9082867 7.8643467,9.9250987 C7.5674,10.420164 7.3404267,10.9615653 7.1952533,11.536148 C7.1904533,11.5551253 7.175,11.5694693 7.15572,11.5726827 L5.5849333,11.8349893 C5.2480533,11.8906173 5,12.1826347 5,12.525392 L5,13.474608 C5,13.8173413 5.2480533,14.1093827 5.5849333,14.1650107 L7.1556667,14.4272947 C7.1749733,14.4305307 7.1904533,14.4448987 7.1952267,14.4638987 C7.31332,14.933 7.4815333,15.3817267 7.7026667,15.7994387 C7.71188,15.816856 7.7099333,15.8380213 7.6975467,15.8533667 L6.7079333,17.0790467 C6.49288,17.344684 6.5019067,17.7274907 6.7294267,17.9838587 L7.3592933,18.693332 C7.5878,18.950144 7.96692,19.0033733 8.2559733,18.8212373 L9.6037467,17.974568 C9.6202667,17.9641827 9.64132,17.9646027 9.65748,17.9755467 C10.23272,18.3642907 10.88164,18.6505573 11.5771867,18.8212373 L11.8438133,20.4149853 C11.8982267,20.7524093 12.1911733,21 12.5332133,21 L13.4831467,21 C13.8258933,21 14.1178533,20.7524333 14.1735067,20.4150093 L14.4338,18.853068 C14.43704,18.8337413 14.4514533,18.8182573 14.4704533,18.8135067 C15.0428133,18.6701867 15.5803733,18.44488 16.0745867,18.1503013 C16.0914,18.140288 16.11244,18.14108 16.1283467,18.1524427 L17.44492,19.0927653 C17.72224,19.2919693 18.1040933,19.26072 18.34628,19.01802 L19.0176667,18.3466413 C19.2593067,18.1049413 19.2920267,17.7235547 19.09136,17.445228 L18.15412,16.1311347 C18.1427333,16.115184 18.14196,16.094088 18.15204,16.0772987 C18.4498667,15.5805587 18.6780533,15.0381093 18.8224267,14.4609413 C18.8271733,14.4419413 18.8426533,14.427528 18.86196,14.4242907 L20.4150667,14.1649653 C20.7529467,14.1093133 21,13.8172947 21,13.4745613 L21,12.5253453 C20.9994933,12.1826347 20.75244,11.8906173 20.4145333,11.8349653"/></svg>
