<svg xmlns="http://www.w3.org/2000/svg" width="26" height="26" viewBox="0 1 26 27"><path fill="#535C69" d="M18.896054,16.7747337 L21.8474034,19.7260831 C22.2413242,20.1200039 22.247652,20.752348 21.8542912,21.1457088 L21.1457088,21.8542912 C20.755592,22.244408 20.1200735,22.2413938 19.7260831,21.8474034 L16.7747337,18.896054 C15.6855772,19.5947944 14.390109,20 13,20 C9.1340068,20 6,16.8659932 6,13 C6,9.1340068 9.1340068,6 13,6 C16.8659932,6 20,9.1340068 20,13 C20,14.390109 19.5947944,15.6855772 18.896054,16.7747337 Z M13,18 C15.7614237,18 18,15.7614237 18,13 C18,10.2385763 15.7614237,8 13,8 C10.2385763,8 8,10.2385763 8,13 C8,15.7614237 10.2385763,18 13,18 Z"/></svg>
