<svg width="17px" height="17px" viewBox="0 0 17 17" xmlns="http://www.w3.org/2000/svg"><path transform="translate(-8, -8)" fill="#535C69" fill-rule="evenodd" d="M20.896054,18.7747337 L23.8474034,21.7260831 C24.2413242,22.1200039 24.247652,22.752348 23.8542912,23.1457088 L23.1457088,23.8542912 C22.755592,24.244408 22.1200735,24.2413938 21.7260831,23.8474034 L18.7747337,20.896054 C17.6855772,21.5947944 16.390109,22 15,22 C11.1340068,22 8,18.8659932 8,15 C8,11.1340068 11.1340068,8 15,8 C18.8659932,8 22,11.1340068 22,15 C22,16.390109 21.5947944,17.6855772 20.896054,18.7747337 Z M15,20 C17.7614237,20 20,17.7614237 20,15 C20,12.2385763 17.7614237,10 15,10 C12.2385763,10 10,12.2385763 10,15 C10,17.7614237 12.2385763,20 15,20 Z"/></svg>