<svg xmlns="http://www.w3.org/2000/svg" width="26" height="26" viewBox="0 0 26 26"><path fill="#FFFFFF" d="M8.891509,6.91639476 C8.293384,6.91639476 7.752789,7.16688674 7.369109,7.5677751 L4.189009,5.97801505 C4.2070556,5.86716193 4.2169391,5.75243698 4.2169391,5.63428018 C4.2169391,5.51612338 4.20705626,5.4018274 4.18858,5.2905453 L7.36912,3.70078525 C7.752833,4.10209159 8.293373,4.35259457 8.89152,4.35259457 C10.05598,4.35259457 11,3.40731816 11,2.24376736 C11,1.07979857 10.05598,0.134500167 8.89152,0.134500167 C7.7275,0.134500167 6.78392,1.07977657 6.78392,2.24376736 C6.78392,2.36192416 6.79380284,2.47277728 6.81142,2.58750223 L3.63132,4.17770227 C3.247178,3.77639592 2.707067,3.52589295 2.10848,3.52589295 C0.94402,3.52589295 0,4.47116935 0,5.63472016 C0,6.79868894 0.94402,7.74398735 2.10848,7.74398735 C2.707034,7.74398735 3.2472,7.49306639 3.63132,7.09217803 L6.81098,8.68193808 C6.7933624,8.79666303 6.78348,8.910948 6.78348,9.02567296 C6.78348,10.1892018 7.727071,11.1345002 8.89108,11.1345002 C10.05554,11.1345002 10.99956,10.1892238 10.99956,9.02567296 C10.99956,7.86170417 10.055969,6.91640576 8.89152,6.91640576 L8.891509,6.91639476 Z" transform="translate(7 7)"/></svg>