<svg xmlns="http://www.w3.org/2000/svg" width="26" height="26" viewBox="-4 -3 26 26">
	<path fill="#535C69" fill-rule="evenodd"
		  d="M17.862.767c.904.756.446 8.387-2.858 12.312-.27.32-.54.615-.81.884.053 1.39-.34 3.71-3.092 5.37a49.767 49.767 0 01-1.29-3.03c-1.44.13-2.78-.373-3.915-1.323-1.133-.948-1.863-2.172-1.986-3.607a50.21 50.21 0 01-3.208-.737C1.86 7.659 4.07 6.864 5.453 6.67c.222-.316.468-.636.741-.96C9.498 1.785 16.958.01 17.862.767zM3.684 14.064c.343.638.839 1.208 1.453 1.7a5.874 5.874 0 002.007 1.071c-2.332 1.365-4.282 2.112-4.588 1.867-.306-.246.126-2.21 1.128-4.638zm7.208-5.017a2.358 2.358 0 00-3.314.289 2.34 2.34 0 00.29 3.304c.995.832 2.479.703 3.314-.29a2.34 2.34 0 00-.29-3.303zm.853-2.973a1.256 1.256 0 00.156 1.774 1.266 1.266 0 001.78-.155 1.256 1.256 0 00-.156-1.774 1.266 1.266 0 00-1.78.155z"/>
</svg>
