<svg xmlns="http://www.w3.org/2000/svg" width="26" height="26" viewBox="0 0 26 26"><g fill="none" fill-rule="evenodd" transform="translate(-.5)"><path fill="#fff" d="M18.205,12.513 C18.352,13.328 18.501,14.097 18.809,14.745 C19.044,15.239 19.505,15.693 19.951,16.131 C20.272,16.446 20.604,16.772 20.731,17.008 C21.065,17.63 21.058,18.055 20.95,18.229 C20.854,18.384 20.62,18.421 20.44,18.424 L10.082,18.634 L18.205,12.513 Z M7.944,15.202 C8.022,15.088 8.095,14.972 8.159,14.849 C8.54,14.123 8.715,13.283 8.901,12.394 C9.233,10.799 9.535,9.352 10.906,8.561 C11.558,8.184 12.452,7.955 13.706,7.931 C15.066,7.903 15.975,8.188 16.602,8.678 L7.944,15.202 Z M14.77,20.559 C14.7443987,21.3534911 14.1045898,21.9906706 13.31,22.013 C12.9384078,22.0253242 12.5782684,21.8833966 12.31499,21.6208758 C12.0517116,21.3583551 11.9087468,20.9986262 11.92,20.627 C11.93,20.207 12.125,19.829 12.422,19.563 L14.323,19.524 C14.338,19.537 14.353,19.546 14.367,19.559 C14.635,19.821 14.778,20.177 14.77,20.559 Z M12.908,5.948 C12.922,5.306 13.133,5.038 13.327,4.996 L13.867,4.984 C14.042,4.996 14.213,5.287 14.201,5.912 C14.192,6.313 14.198,6.516 14.191,6.946 L12.891,6.973 C12.901,6.649 12.896,6.531 12.908,5.948 Z M20.902,7.062 L21.71,8.134 L6.098,19.898 L5.29,18.826 L20.902,7.062 Z"/></g></svg>
