<svg xmlns="http://www.w3.org/2000/svg" viewBox="0 0 17 18"  width="17" height="18"><path fill="#fff" fill-rule="evenodd" d="M13.205 8.513c.147.815.296 1.584.604 2.232.235.494.696.948 1.142 1.386.321.315.653.641.78.877.334.622.327 1.047.219 1.221-.096.155-.33.192-.51.195l-10.358.21 8.123-6.121zM2.944 11.202c.078-.114.151-.23.215-.353.381-.726.556-1.566.742-2.455.332-1.595.634-3.042 2.005-3.833.652-.377 1.546-.606 2.8-.63 1.36-.028 2.269.257 2.896.747l-8.658 6.524zm6.826 5.357a1.503 1.503 0 0 1-1.46 1.454 1.346 1.346 0 0 1-1.39-1.386c.01-.42.205-.798.502-1.064l1.901-.039c.015.013.03.022.044.035.268.262.411.618.403 1zM7.908 1.948c.014-.642.225-.91.419-.952l.54-.012c.175.012.346.303.334.928-.009.401-.003.604-.01 1.034l-1.3.027c.01-.324.005-.442.017-1.025zm7.994 1.114l.808 1.072L1.098 15.898.29 14.826 15.902 3.062z"/></svg>