<svg xmlns:xlink="http://www.w3.org/1999/xlink" class="defs-only" xmlns="http://www.w3.org/2000/svg" style="width:100%;height:1200px"><svg height="1200"><rect fill="#EBF1F4" width="100%" height="1200"/><rect fill="#FFF" width="100%" height="507" x="20" y="68"/></svg><svg height="1200" id="f"><rect fill="#DEE2E6" rx="2" ry="2" width="175" height="12" x="40" y="26"/><rect fill="#A6F434" rx="2" ry="2" width="195" height="39" x="100%" y="12" transform="translate(-215)"/><rect fill="#A4E44C" rx="2" ry="2" width="175" height="14" x="100%" y="25" transform="translate(-205)"/><defs><g id="a"><rect fill="transparent" stroke="#DEE2E6" rx="2" ry="2" width="14" height="14" x="19" y="21"/><svg width="12" height="12" viewBox="0 0 12 12" xmlns="http://www.w3.org/2000/svg" xmlns:xlink="http://www.w3.org/1999/xlink" x="49" y="22"><path fill="#A8ADB4" d="M8.227 6.502A2.22 2.22 0 0 1 6.52 8.208a2.258 2.258 0 0 1-2.695-2.694c.164-.77.937-1.543 1.706-1.706a2.258 2.258 0 0 1 2.695 2.694m3.349-1.37l-1.19-.198a4.489 4.489 0 0 0-.366-.985.037.037 0 0 1 .004-.04l.747-.927a.525.525 0 0 0-.016-.68l-.474-.532a.526.526 0 0 0-.673-.096l-1.018.64a4.477 4.477 0 0 0-1.478-.672.037.037 0 0 1-.028-.03L6.89.439A.525.525 0 0 0 6.371 0h-.714a.524.524 0 0 0-.517.44l-.197 1.172a.037.037 0 0 1-.027.03c-.436.11-.845.282-1.22.507a.037.037 0 0 1-.04-.002l-.948-.677a.526.526 0 0 0-.677.056l-.504.505a.526.526 0 0 0-.056.677l.678.95c.009.012.01.028.002.04a4.487 4.487 0 0 0-.502 1.21.037.037 0 0 1-.03.028l-1.18.197A.525.525 0 0 0 0 5.65v.713c0 .258.186.477.44.519l1.179.197a.037.037 0 0 1 .03.027c.088.352.215.69.38 1.003a.037.037 0 0 1-.003.04l-.743.921a.526.526 0 0 0 .016.68l.473.532a.526.526 0 0 0 .673.096l1.012-.635a.037.037 0 0 1 .04 0c.433.292.92.507 1.442.635l.2 1.197c.041.254.261.44.518.44h.714a.525.525 0 0 0 .518-.44l.196-1.173a.037.037 0 0 1 .027-.03 4.47 4.47 0 0 0 1.205-.497.037.037 0 0 1 .04.001l.989.706c.208.15.495.126.677-.056l.504-.504a.524.524 0 0 0 .055-.677l-.704-.987a.037.037 0 0 1-.001-.04c.224-.373.395-.78.503-1.214a.037.037 0 0 1 .03-.028l1.166-.194a.525.525 0 0 0 .44-.519v-.713a.525.525 0 0 0-.44-.518"/></svg><rect fill="#DEE2E6" rx="2" ry="2" width="96" height="8" x="90" y="24"/><rect fill="#DEE2E6" rx="2" ry="2" width="105" height="8" x="300" y="24"/><rect fill="#DEE2E6" rx="2" ry="2" width="105" height="8" x="100%" y="24" transform="translate(-610)"/><rect fill="#DEE2E6" rx="2" ry="2" width="105" height="8" x="100%" y="24" transform="translate(-410)"/><rect fill="#DEE2E6" rx="2" ry="2" width="105" height="8" x="100%" y="24" transform="translate(-220)"/><line stroke="#DEE2E6" y1="53" x2="100%" y2="53"/></g><g id="c"><rect fill="#DEE2E6" rx="2" ry="2" width="96" height="8" x="20" y="24"/><rect fill="#DEE2E6" rx="2" ry="2" width="105" height="8" x="150" y="24"/><rect fill="#DEE2E6" rx="2" ry="2" width="105" height="8" x="290" y="24"/><rect fill="#DEE2E6" rx="2" ry="2" width="105" height="8" x="450" y="24"/><rect fill="transparent" stroke="#868D95" opacity=".2" rx="2" ry="2" width="90" height="39" x="100%" y="11" transform="translate(-150)"/><rect fill="#DEE2E6" rx="2" ry="2" width="65" height="12" x="100%" y="25" transform="translate(-140)"/></g><g id="b"><rect fill="transparent" stroke="#DEE2E6" rx="2" ry="2" width="14" height="14" x="19" y="21"/><rect fill="#DEE2E6" rx="2" ry="2" width="12" height="2" x="50" y="23"/><rect fill="#DEE2E6" rx="2" ry="2" width="12" height="2" x="50" y="27"/><rect fill="#DEE2E6" rx="2" ry="2" width="12" height="2" x="50" y="31"/><rect fill="#DEE2E6" rx="2" ry="2" width="160" height="8" x="90" y="24"/><rect fill="#DEE2E6" rx="2" ry="2" width="105" height="8" x="300" y="24"/><circle fill="#DEE2E6" r="10" cx="100%" cy="28" transform="translate(-600)"/><rect fill="#DEE2E6" rx="2" ry="2" width="105" height="8" x="100%" y="24" transform="translate(-580)"/><circle fill="#DEE2E6" r="10" cx="100%" cy="28" transform="translate(-400)"/><rect fill="#DEE2E6" rx="2" ry="2" width="105" height="8" x="100%" y="24" transform="translate(-380)"/><rect fill="#DEE2E6" rx="2" ry="2" width="105" height="8" x="100%" y="24" transform="translate(-220)"/><line stroke="#DEE2E6" y1="53" x2="100%" y2="53"/></g></defs><use xlink:href="#a" y="69" x="20" width="100%" height="400"/><use xlink:href="#b" y="119" x="20" width="100%" height="400"/><use xlink:href="#b" y="169" x="20" width="100%" height="400"/><use xlink:href="#b" y="219" x="20" width="100%" height="400"/><use xlink:href="#b" y="269" x="20" width="100%" height="400"/><use xlink:href="#b" y="319" x="20" width="100%" height="400"/><use xlink:href="#b" y="369" x="20" width="100%" height="400"/><use xlink:href="#b" y="419" x="20" width="100%" height="400"/><use xlink:href="#b" y="469" x="20" width="100%" height="400"/><use xlink:href="#c" y="519" x="20" width="100%" height="400"/></svg><rect id="g" width="100%" fill="url(#d)" mask="url(#e)" height="1200"/><mask id="e" fill="#fff"><use xlink:href="#f"/></mask><linearGradient x1="66.6%" y1="50%" x2="33.3%" y2="50%" id="d"><stop stop-opacity="0" offset="0%"/><stop stop-opacity=".07" offset="50%"/><stop stop-opacity="0" offset="100%"/></linearGradient><animate xlink:href="#g" attributeName="x" from="-100%" to="100%" dur="1s" begin="0s" repeatCount="indefinite"/><svg viewBox="0 0 100% 1200" height="1200"><rect fill="#EBF1F4" width="20" height="1200" x="100%" transform="translate(-20)"/></svg></svg>