<svg width="18" height="17" viewBox="0 0 18 17" fill="none" xmlns="http://www.w3.org/2000/svg">
	<path fill-rule="evenodd" clip-rule="evenodd" d="M17.0871 8.37841C17.0871 13.0057 13.2815 16.7568 8.5871 16.7568C3.89268 16.7568 0.0870972 13.0057 0.0870972 8.37841C0.0870972 3.75114 3.89268 0 8.5871 0C13.2815 0 17.0871 3.75114 17.0871 8.37841ZM15.0301 8.37841C15.0301 11.8859 12.1455 14.7292 8.5871 14.7292C5.02874 14.7292 2.14412 11.8859 2.14412 8.37841C2.14412 4.87095 5.02874 2.02759 8.5871 2.02759C12.1455 2.02759 15.0301 4.87095 15.0301 8.37841ZM7.81437 7.61674V4.57004H9.35982V7.61674H12.4507V9.14009H9.35982V12.1868H7.81437V9.14009H4.72346V7.61674H7.81437Z" fill="#A8ADB4"/>
</svg>
