<svg xmlns="http://www.w3.org/2000/svg" width="167" height="34" viewBox="0 0 167 34">
<path fill="#1297C1" fill-rule="evenodd" d="M0,9 L2,9 L2,27 L0,27 L0,9 Z M78,9 L80,9 L80,27 L78,27 L78,9 Z M6,6 L8,6 L8,29 L6,29 L6,6 Z M84,6 L86,6 L86,29 L84,29 L84,6 Z M36,6 L38,6 L38,29 L36,29 L36,6 Z M144,6 L146,6 L146,29 L144,29 L144,6 Z M66,6 L68,6 L68,29 L66,29 L66,6 Z M114,6 L116,6 L116,29 L114,29 L114,6 Z M9,9 L11,9 L11,27 L9,27 L9,9 Z M87,9 L89,9 L89,27 L87,27 L87,9 Z M39,9 L41,9 L41,27 L39,27 L39,9 Z M147,9 L149,9 L149,27 L147,27 L147,9 Z M69,9 L71,9 L71,27 L69,27 L69,9 Z M117,9 L119,9 L119,27 L117,27 L117,9 Z M12,12 L14,12 L14,23 L12,23 L12,12 Z M90,10 L92,10 L92,26 L90,26 L90,10 Z M42,12 L44,12 L44,23 L42,23 L42,12 Z M150,12 L152,12 L152,23 L150,23 L150,12 Z M51,12 L53,12 L53,23 L51,23 L51,12 Z M159,12 L161,12 L161,23 L159,23 L159,12 Z M72,12 L74,12 L74,23 L72,23 L72,12 Z M120,12 L122,12 L122,23 L120,23 L120,12 Z M3,0 L5,0 L5,34 L3,34 L3,0 Z M81,2 L83,2 L83,32 L81,32 L81,2 Z M33,0 L35,0 L35,34 L33,34 L33,0 Z M141,0 L143,0 L143,34 L141,34 L141,0 Z M63,0 L65,0 L65,34 L63,34 L63,0 Z M111,0 L113,0 L113,34 L111,34 L111,0 Z M15,10 L17,10 L17,25 L15,25 L15,10 Z M93,3 L95,3 L95,31 L93,31 L93,3 Z M45,10 L47,10 L47,25 L45,25 L45,10 Z M153,10 L155,10 L155,25 L153,25 L153,10 Z M75,10 L77,10 L77,25 L75,25 L75,10 Z M123,10 L125,10 L125,25 L123,25 L123,10 Z M21,12 L23,12 L23,23 L21,23 L21,12 Z M129,12 L131,12 L131,23 L129,23 L129,12 Z M99,9 L101,9 L101,27 L99,27 L99,9 Z M24,6 L26,6 L26,29 L24,29 L24,6 Z M132,6 L134,6 L134,29 L132,29 L132,6 Z M54,6 L56,6 L56,29 L54,29 L54,6 Z M162,6 L164,6 L164,29 L162,29 L162,6 Z M102,6 L104,6 L104,29 L102,29 L102,6 Z M27,13 L29,13 L29,22 L27,22 L27,13 Z M135,9 L137,9 L137,27 L135,27 L135,9 Z M57,9 L59,9 L59,27 L57,27 L57,9 Z M165,9 L167,9 L167,27 L165,27 L165,9 Z M105,9 L107,9 L107,27 L105,27 L105,9 Z M30,9 L32,9 L32,27 L30,27 L30,9 Z M138,9 L140,9 L140,27 L138,27 L138,9 Z M60,11 L62,11 L62,25 L60,25 L60,11 Z M108,11 L110,11 L110,25 L108,25 L108,11 Z M18,14 L20,14 L20,20 L18,20 L18,14 Z M126,14 L128,14 L128,20 L126,20 L126,14 Z M96,13 L98,13 L98,22 L96,22 L96,13 Z M48,14 L50,14 L50,20 L48,20 L48,14 Z M156,14 L158,14 L158,20 L156,20 L156,14 Z"/>
</svg>