<?xml version="1.0" encoding="UTF-8" standalone="no"?>
<svg width="25px" height="410px" viewBox="0 0 25 410" version="1.1" xmlns="http://www.w3.org/2000/svg" xmlns:xlink="http://www.w3.org/1999/xlink">
    <!-- Generator: Sketch 3.8.2 (29753) - http://www.bohemiancoding.com/sketch -->
    <title>crm-webform-edit-sprite</title>
    <desc>Created with Sketch.</desc>
    <defs>
        <circle id="path-1" cx="8" cy="8" r="8"></circle>
        <circle id="path-3" cx="8" cy="8" r="8"></circle>
    </defs>
    <g id="Page-1" stroke="none" stroke-width="1" fill="none" fill-rule="evenodd">
        <g id="crm-webform-edit-sprite">
            <g id="crm-webform-edit-search" opacity="0.533640392" fill="#535C69">
                <g id="Shape">
                    <g id="Page-1">
                        <g id="Создание-формы-04">
                            <g id="Попап">
                                <path d="M10.030274,8.6880621 C11.54358,6.53585196 11.343823,3.53737246 9.421094,1.61429028 C7.269238,-0.53809676 3.766677,-0.53809676 1.61429,1.61429028 C-0.538097,3.76650038 -0.538097,7.26870745 1.61429,9.4210945 C3.537196,11.3445305 6.535498,11.5435799 8.687885,10.0297432 L11.361956,12.7186769 C11.7367,13.0930666 12.343579,13.0930666 12.7185,12.7186769 C13.093774,12.3437564 13.093774,11.7372309 12.718854,11.3623103 L10.030274,8.6880621 L10.030274,8.6880621 Z M5.47974,9.3236045 C3.353362,9.3236045 1.62933,7.60010251 1.62933,5.47390152 C1.62933,3.34716974 3.353362,1.62349078 5.47974,1.62349078 C7.60541,1.62349078 9.329443,3.34716974 9.329443,5.47390152 C9.329443,7.60010251 7.60541,9.3236045 5.47974,9.3236045 L5.47974,9.3236045 L5.47974,9.3236045 Z" id="Shape"></path>
                            </g>
                        </g>
                    </g>
                </g>
            </g>
            <g id="crm-webform-edit-search-hover" transform="translate(0.000000, 15.000000)" opacity="0.533640392" fill="#010101">
                <g id="Shape">
                    <g id="Page-1">
                        <g id="Создание-формы-04">
                            <g id="Попап">
                                <path d="M10.030274,8.6880621 C11.54358,6.53585196 11.343823,3.53737246 9.421094,1.61429028 C7.269238,-0.53809676 3.766677,-0.53809676 1.61429,1.61429028 C-0.538097,3.76650038 -0.538097,7.26870745 1.61429,9.4210945 C3.537196,11.3445305 6.535498,11.5435799 8.687885,10.0297432 L11.361956,12.7186769 C11.7367,13.0930666 12.343579,13.0930666 12.7185,12.7186769 C13.093774,12.3437564 13.093774,11.7372309 12.718854,11.3623103 L10.030274,8.6880621 L10.030274,8.6880621 Z M5.47974,9.3236045 C3.353362,9.3236045 1.62933,7.60010251 1.62933,5.47390152 C1.62933,3.34716974 3.353362,1.62349078 5.47974,1.62349078 C7.60541,1.62349078 9.329443,3.34716974 9.329443,5.47390152 C9.329443,7.60010251 7.60541,9.3236045 5.47974,9.3236045 L5.47974,9.3236045 L5.47974,9.3236045 Z" id="Shape"></path>
                            </g>
                        </g>
                    </g>
                </g>
            </g>
            <g id="crm-webform-edit-hamburger" transform="translate(0.000000, 35.000000)" opacity="0.4" fill="#80868E">
                <g id="Combined-Shape">
                    <g id="Page-1">
                        <g id="Создание-формы-04">
                            <g id="Элементы">
                                <g id="Group-8">
                                    <path d="M0,0 L13,0 L13,2 L0,2 L0,0 L0,0 Z M0,4 L13,4 L13,6 L0,6 L0,4 L0,4 Z M0,8 L13,8 L13,10 L0,10 L0,8 L0,8 Z" id="Combined-Shape"></path>
                                </g>
                            </g>
                        </g>
                    </g>
                </g>
            </g>
            <g id="crm-webform-edit-hamburger-hover" transform="translate(0.000000, 52.000000)" opacity="0.4" fill="#000000">
                <g id="Combined-Shape">
                    <g id="Page-1">
                        <g id="Создание-формы-04">
                            <g id="Элементы">
                                <g id="Group-8">
                                    <path d="M0,0 L13,0 L13,2 L0,2 L0,0 L0,0 Z M0,4 L13,4 L13,6 L0,6 L0,4 L0,4 Z M0,8 L13,8 L13,10 L0,10 L0,8 L0,8 Z" id="Combined-Shape"></path>
                                </g>
                            </g>
                        </g>
                    </g>
                </g>
            </g>
            <g id="crm-webform-edit-cogwheel" transform="translate(0.000000, 69.000000)" opacity="0.4" fill="#535C69">
                <g id="Page-1">
                    <g id="Создание-формы-04">
                        <g>
                            <g id="Элементы">
                                <g id="Group-8">
                                    <path d="M6.144236,8.42163062 C4.876015,8.42163062 3.847427,7.39285188 3.847427,6.12482227 C3.847427,4.85660126 4.876015,3.82801392 6.144236,3.82801392 C7.412238,3.82801392 8.441017,4.85660126 8.441017,6.12482227 C8.441017,7.39285188 7.412238,8.42163062 6.144236,8.42163062 M11.801767,5.23286768 L10.5883,5.03043411 C10.500105,4.66986254 10.371512,4.3251909 10.204036,4.00371976 L10.980863,3.04053677 C11.146083,2.83698213 11.138577,2.54409805 10.964389,2.34763891 L10.481772,1.80448475 C10.306832,1.60823068 10.016723,1.56672407 9.795436,1.70652861 L8.757689,2.35887686 C8.301253,2.03997596 7.784225,1.80448475 7.226484,1.66783832 L7.023462,0.44786396 C6.980862,0.18954137 6.75732,0 6.494909,0 L5.767614,0 C5.505737,0 5.281442,0.18954137 5.239785,0.44786396 L5.035657,1.66822112 C4.574531,1.78112019 4.142184,1.963361 3.747626,2.20337747 L2.760709,1.49905025 C2.548008,1.34709177 2.255862,1.3708528 2.070245,1.55607399 L1.556429,2.07025828 C1.371208,2.25587595 1.347447,2.54802176 1.499802,2.76072262 L2.20577,3.74952596 C1.968009,4.14110444 1.787641,4.57099041 1.674756,5.02801425 L0.447837,5.23288136 C0.189911,5.27548168 0,5.4990377 0,5.76146172 L0,6.48818282 C0,6.7505795 0.189911,6.97416286 0.447837,7.01676319 L1.674756,7.22163029 C1.767462,7.59770531 1.902044,7.95693708 2.080922,8.2900153 L1.307636,9.247757 C1.142977,9.4511203 1.149894,9.7441958 1.324083,9.9404772 L1.80633,10.483645 C1.981284,10.6802682 2.271543,10.7210229 2.492857,10.5815738 L3.545561,9.9202844 C3.990992,10.2249533 4.494909,10.4488784 5.035657,10.5815738 L5.239785,11.8017532 C5.281456,12.0600895 5.505737,12.2496309 5.767614,12.2496309 L6.494909,12.2496309 C6.75732,12.2496309 6.980862,12.0601032 7.023462,11.8017669 L7.226825,10.5815875 C7.682195,10.4702059 8.10906,10.2911369 8.500105,10.0552356 L9.528145,10.7894623 C9.740463,10.9419676 10.032828,10.9180426 10.218254,10.7322335 L10.732275,10.2182269 C10.917277,10.0331698 10.942337,9.741188 10.788697,9.5281044 L10.05678,8.50193689 C10.295225,8.10904594 10.47655,7.67839438 10.588724,7.21933348 L11.802177,7.01672217 C12.060855,6.97412184 12.25,6.75055216 12.25,6.48814181 L12.25,5.76142071 C12.249617,5.4990377 12.060472,5.27548168 11.801767,5.23286768" id="Page-1"></path>
                                </g>
                            </g>
                        </g>
                    </g>
                </g>
            </g>
            <g id="crm-webform-edit-cogwheel-hover" transform="translate(0.000000, 82.000000)" opacity="0.4" fill="#000000">
                <g id="Page-1">
                    <g id="Создание-формы-04">
                        <g>
                            <g id="Элементы">
                                <g id="Group-8">
                                    <path d="M6.144236,8.42163062 C4.876015,8.42163062 3.847427,7.39285188 3.847427,6.12482227 C3.847427,4.85660126 4.876015,3.82801392 6.144236,3.82801392 C7.412238,3.82801392 8.441017,4.85660126 8.441017,6.12482227 C8.441017,7.39285188 7.412238,8.42163062 6.144236,8.42163062 M11.801767,5.23286768 L10.5883,5.03043411 C10.500105,4.66986254 10.371512,4.3251909 10.204036,4.00371976 L10.980863,3.04053677 C11.146083,2.83698213 11.138577,2.54409805 10.964389,2.34763891 L10.481772,1.80448475 C10.306832,1.60823068 10.016723,1.56672407 9.795436,1.70652861 L8.757689,2.35887686 C8.301253,2.03997596 7.784225,1.80448475 7.226484,1.66783832 L7.023462,0.44786396 C6.980862,0.18954137 6.75732,0 6.494909,0 L5.767614,0 C5.505737,0 5.281442,0.18954137 5.239785,0.44786396 L5.035657,1.66822112 C4.574531,1.78112019 4.142184,1.963361 3.747626,2.20337747 L2.760709,1.49905025 C2.548008,1.34709177 2.255862,1.3708528 2.070245,1.55607399 L1.556429,2.07025828 C1.371208,2.25587595 1.347447,2.54802176 1.499802,2.76072262 L2.20577,3.74952596 C1.968009,4.14110444 1.787641,4.57099041 1.674756,5.02801425 L0.447837,5.23288136 C0.189911,5.27548168 0,5.4990377 0,5.76146172 L0,6.48818282 C0,6.7505795 0.189911,6.97416286 0.447837,7.01676319 L1.674756,7.22163029 C1.767462,7.59770531 1.902044,7.95693708 2.080922,8.2900153 L1.307636,9.247757 C1.142977,9.4511203 1.149894,9.7441958 1.324083,9.9404772 L1.80633,10.483645 C1.981284,10.6802682 2.271543,10.7210229 2.492857,10.5815738 L3.545561,9.9202844 C3.990992,10.2249533 4.494909,10.4488784 5.035657,10.5815738 L5.239785,11.8017532 C5.281456,12.0600895 5.505737,12.2496309 5.767614,12.2496309 L6.494909,12.2496309 C6.75732,12.2496309 6.980862,12.0601032 7.023462,11.8017669 L7.226825,10.5815875 C7.682195,10.4702059 8.10906,10.2911369 8.500105,10.0552356 L9.528145,10.7894623 C9.740463,10.9419676 10.032828,10.9180426 10.218254,10.7322335 L10.732275,10.2182269 C10.917277,10.0331698 10.942337,9.741188 10.788697,9.5281044 L10.05678,8.50193689 C10.295225,8.10904594 10.47655,7.67839438 10.588724,7.21933348 L11.802177,7.01672217 C12.060855,6.97412184 12.25,6.75055216 12.25,6.48814181 L12.25,5.76142071 C12.249617,5.4990377 12.060472,5.27548168 11.801767,5.23286768" id="Page-1"></path>
                                </g>
                            </g>
                        </g>
                    </g>
                </g>
            </g>
            <g id="crm-webform-edit-close" transform="translate(0.000000, 99.000000)" opacity="0.4" fill="#535C69">
                <g id="Combined-Shape-Copy-2">
                    <g id="Page-1">
                        <g id="Создание-формы-04">
                            <g id="Элементы">
                                <g id="Group-8">
                                    <polygon id="Combined-Shape-Copy-2" transform="translate(6.290896, 6.290895) rotate(45.000000) translate(-6.290896, -6.290895) " points="7.03228531 5.5495062 7.03228531 1.84256044 5.54950693 1.84256044 5.54950693 5.5495062 1.84256099 5.5495062 1.84256099 7.0322845 5.54950693 7.0322845 5.54950693 10.7392302 7.03228531 10.7392302 7.03228531 7.0322845 10.7392304 7.0322845 10.7392304 5.5495062"></polygon>
                                </g>
                            </g>
                        </g>
                    </g>
                </g>
            </g>
            <g id="crm-webform-edit-close-hover" transform="translate(0.000000, 112.000000)" opacity="0.4" fill="#000000">
                <g id="Combined-Shape-Copy-2">
                    <g id="Page-1">
                        <g id="Создание-формы-04">
                            <g id="Элементы">
                                <g id="Group-8">
                                    <polygon id="Combined-Shape-Copy-2" transform="translate(6.290896, 6.290895) rotate(45.000000) translate(-6.290896, -6.290895) " points="7.03228531 5.5495062 7.03228531 1.84256044 5.54950693 1.84256044 5.54950693 5.5495062 1.84256099 5.5495062 1.84256099 7.0322845 5.54950693 7.0322845 5.54950693 10.7392302 7.03228531 10.7392302 7.03228531 7.0322845 10.7392304 7.0322845 10.7392304 5.5495062"></polygon>
                                </g>
                            </g>
                        </g>
                    </g>
                </g>
            </g>
            <g id="crm-webform-edit-lock" transform="translate(0.000000, 125.000000)" fill="#535C69">
                <g id="Shape">
                    <g id="Page-1">
                        <g id="Создание-формы-04">
                            <path d="M7.29424,4.39666 L7.29424,3.02909 C7.294695,1.35856 5.81644,0 4.001395,0 C2.184966,0 0.707641,1.35856 0.707641,3.02909 L0.707641,4.3971 L0,4.3971 L0,10 L8,10 L8,4.39666 L7.29424,4.39666 L7.29424,4.39666 L7.29424,4.39666 Z M1.947997,3.02909 C1.947997,1.9885 2.868819,1.14272 4.000941,1.14272 C5.131203,1.14272 6.051549,1.98894 6.051549,3.02909 L6.051549,4.3971 L1.947997,4.3971 L1.947997,3.02909 L1.947997,3.02909 L1.947997,3.02909 Z M4.566764,8.46377 L3.436502,8.46377 L3.605827,6.92798 C3.396841,6.80827 3.255975,6.59457 3.255975,6.34955 C3.255975,5.97236 3.589046,5.66598 4.001395,5.66598 C4.41143,5.66598 4.74355,5.97238 4.74355,6.34955 C4.74355,6.59457 4.604997,6.80785 4.394151,6.92798 L4.566764,8.46377 L4.566764,8.46377 L4.566764,8.46377 Z" id="Shape"></path>
                        </g>
                    </g>
                </g>
            </g>
            <g id="crm-webform-edit-plus" transform="translate(0.000000, 139.000000)">
                <g id="(+)2">
                    <g id="Symbols">
                        <g id="(+)2">
                            <g id="Oval-6-Copy-3-Clipped">
                                <mask id="mask-2" fill="white">
                                    <use xlink:href="#path-1"></use>
                                </mask>
                                <g id="path-1"></g>
                                <g id="Oval-6-Copy-3" mask="url(#mask-2)" stroke-width="2" stroke="#3BC8F5">
                                    <circle id="path-1" cx="8" cy="8" r="8"></circle>
                                </g>
                            </g>
                            <polygon id="Combined-Shape-Copy-4" fill="#3BC8F5" points="9 7 9 4 7 4 7 7 4 7 4 9 7 9 7 12 9 12 9 9 12 9 12 7"></polygon>
                        </g>
                    </g>
                </g>
            </g>
            <g id="crm-webform-edit-plus-hover" transform="translate(0.000000, 159.000000)">
                <g id="(+)">
                    <g id="Symbols">
                        <g id="(+)">
                            <circle id="Oval-6-Copy" fill="#3BC8F5" cx="8" cy="8" r="8"></circle>
                            <polygon id="Combined-Shape-Copy" fill="#FFFFFF" points="9 7 9 4 7 4 7 7 4 7 4 9 7 9 7 12 9 12 9 9 12 9 12 7"></polygon>
                        </g>
                    </g>
                </g>
            </g>
            <g id="crm-webform-edit-minus" transform="translate(0.000000, 179.000000)">
                <g id="(-)2">
                    <g id="Symbols">
                        <g id="(-)2">
                            <g id="Oval-6-Copy-4-Clipped">
                                <mask id="mask-4" fill="white">
                                    <use xlink:href="#path-3"></use>
                                </mask>
                                <g id="path-1"></g>
                                <g id="Oval-6-Copy-4" mask="url(#mask-4)" stroke-width="2" stroke="#3BC8F5">
                                    <circle id="path-1" cx="8" cy="8" r="8"></circle>
                                </g>
                            </g>
                            <rect id="Combined-Shape-Copy-5" fill="#3BC8F5" transform="translate(8.000000, 8.000000) rotate(-270.000000) translate(-8.000000, -8.000000) " x="7" y="4" width="2" height="8"></rect>
                        </g>
                    </g>
                </g>
            </g>
            <g id="crm-webform-edit-minus-hover" transform="translate(0.000000, 199.000000)">
                <g id="(-)">
                    <g id="Symbols">
                        <g id="(-)">
                            <circle id="Oval-6-Copy-2" fill="#3BC8F5" cx="8" cy="8" r="8"></circle>
                            <rect id="Combined-Shape-Copy-3" fill="#FFFFFF" transform="translate(8.000000, 8.000000) rotate(-270.000000) translate(-8.000000, -8.000000) " x="7" y="4" width="2" height="8"></rect>
                        </g>
                    </g>
                </g>
            </g>
            <g id="crm-webform-edit-needle" transform="translate(0.000000, 219.000000)" fill="#AEAFAF">
                <g id="Shape_3_copy_7">
                    <g id="Page-1">
                        <path d="M13.72,4.76 L10.24,1.27 C9.98991409,1.02170041 9.62635892,0.925681383 9.28628222,1.01811234 C8.94620551,1.11054331 8.68127301,1.3773818 8.59128222,1.71811234 C8.50129143,2.05884289 8.59991409,2.42170042 8.85,2.67 L9.56,3.38 L3.97,7.54 L3.27,6.84 C2.88456095,6.46004728 2.26543905,6.46004728 1.88,6.84 C1.49885712,7.22884351 1.49885712,7.85115649 1.88,8.24 L4.01,10.37 L0.08,14.57 C0.0318755058,14.6175334 0.00478920102,14.6823583 0.00478920102,14.75 C0.00478920102,14.8176417 0.0318755058,14.8824666 0.08,14.93 C0.179380853,15.0198149 0.330619147,15.0198149 0.43,14.93 L4.63,10.98 L6.76,13.11 C7.0069584,13.3648513 7.37210781,13.466808 7.71536943,13.3767574 C8.05863105,13.2867068 8.32670685,13.0186311 8.41675744,12.6753694 C8.50680804,12.3321078 8.40485133,11.9669584 8.15,11.72 L7.45,11.02 L11.61,5.43 L12.33,6.15 C12.7154391,6.52995272 13.3345609,6.52995272 13.72,6.15 C13.9070376,5.96712602 14.0124715,5.71658359 14.0124715,5.455 C14.0124715,5.19341641 13.9070376,4.94287398 13.72,4.76 L13.72,4.76 L13.72,4.76 Z" id="Shape_3_copy_7"></path>
                    </g>
                </g>
            </g>
            <g id="crm-webform-edit-needle-hover" transform="translate(0.000000, 238.000000)" fill="#535C68">
                <g id="Shape_3_copy_7">
                    <g id="Page-1">
                        <path d="M13.72,4.76 L10.24,1.27 C9.98991409,1.02170041 9.62635892,0.925681383 9.28628222,1.01811234 C8.94620551,1.11054331 8.68127301,1.3773818 8.59128222,1.71811234 C8.50129143,2.05884289 8.59991409,2.42170042 8.85,2.67 L9.56,3.38 L3.97,7.54 L3.27,6.84 C2.88456095,6.46004728 2.26543905,6.46004728 1.88,6.84 C1.49885712,7.22884351 1.49885712,7.85115649 1.88,8.24 L4.01,10.37 L0.08,14.57 C0.0318755058,14.6175334 0.00478920102,14.6823583 0.00478920102,14.75 C0.00478920102,14.8176417 0.0318755058,14.8824666 0.08,14.93 C0.179380853,15.0198149 0.330619147,15.0198149 0.43,14.93 L4.63,10.98 L6.76,13.11 C7.0069584,13.3648513 7.37210781,13.466808 7.71536943,13.3767574 C8.05863105,13.2867068 8.32670685,13.0186311 8.41675744,12.6753694 C8.50680804,12.3321078 8.40485133,11.9669584 8.15,11.72 L7.45,11.02 L11.61,5.43 L12.33,6.15 C12.7154391,6.52995272 13.3345609,6.52995272 13.72,6.15 C13.9070376,5.96712602 14.0124715,5.71658359 14.0124715,5.455 C14.0124715,5.19341641 13.9070376,4.94287398 13.72,4.76 L13.72,4.76 L13.72,4.76 Z" id="Shape_3_copy_7"></path>
                    </g>
                </g>
            </g>
            <g id="crm-webform-edit-arrow-down" transform="translate(0.000000, 265.000000)" fill="#535C69">
                <g id="Path">
                    <g id="Page-1">
                        <g id="Создание-формы-04">
                            <g id="Group-3">
                                <polygon id="Path" transform="translate(5.485282, 5.485281) rotate(-45.000000) translate(-5.485282, -5.485281) " points="3.54594221 7.4246205 3.54594221 1.6066015 1.60660221 1.6066015 1.60660221 8.3942905 1.60660221 9.3639605 9.36396121 9.3639605 9.36396121 7.4246205"></polygon>
                            </g>
                        </g>
                    </g>
                </g>
            </g>
            <g id="crm-webform-edit-pencil" transform="translate(0.000000, 289.000000)" opacity="0.5" fill="#737B86">
                <g id="Shape">
                    <g id="Page-1">
                        <g id="Создание-формы-04">
                            <g id="лицензия">
                                <g id="pencil-edit">
                                    <path d="M8.59473614,3.43675418 L6.51336109,1.38159639 L7.91862495,0 L10,2.05515778 L8.59473614,3.43675418 L8.59473614,3.43675418 Z M0.000671411307,10 L0.835235665,6.99615487 L2.91661072,9.05131265 L4.4408921e-16,9.99668523 L0.000671411307,10 L0.000671411307,10 Z M3.53565194,8.43145054 L1.45427689,6.37629276 L5.82919296,2.06178732 L7.91056801,4.11694511 L3.53565194,8.43145054 L3.53565194,8.43145054 Z" id="Shape"></path>
                                </g>
                            </g>
                        </g>
                    </g>
                </g>
            </g>
            <g id="crm-webform-edit-pencil-hover" transform="translate(0.000000, 299.000000)" opacity="0.5" fill="#000000">
                <g id="Shape">
                    <g id="Page-1">
                        <g id="Создание-формы-04">
                            <g id="лицензия">
                                <g id="pencil-edit">
                                    <path d="M8.59473614,3.43675418 L6.51336109,1.38159639 L7.91862495,0 L10,2.05515778 L8.59473614,3.43675418 L8.59473614,3.43675418 Z M0.000671411307,10 L0.835235665,6.99615487 L2.91661072,9.05131265 L4.4408921e-16,9.99668523 L0.000671411307,10 L0.000671411307,10 Z M3.53565194,8.43145054 L1.45427689,6.37629276 L5.82919296,2.06178732 L7.91056801,4.11694511 L3.53565194,8.43145054 L3.53565194,8.43145054 Z" id="Shape"></path>
                                </g>
                            </g>
                        </g>
                    </g>
                </g>
            </g>
            <g id="crm-webform-edit-header" transform="translate(0.000000, 313.000000)" fill="#535C69">
                <g id="01">
                    <g id="Page-1">
                        <g id="Создание-формы-04">
                            <g id="добавить-иконки">
                                <g id="01">
                                    <rect id="Rectangle-423" opacity="0.5" x="0" y="5" width="10" height="2"></rect>
                                    <rect id="Rectangle-423" opacity="0.5" x="0" y="9" width="10" height="2"></rect>
                                    <rect id="Rectangle-423" x="0" y="0" width="16" height="3"></rect>
                                </g>
                            </g>
                        </g>
                    </g>
                </g>
            </g>
            <g id="crm-webform-edit-subtitle" transform="translate(0.000000, 326.000000)" fill="#535C69">
                <g id="02">
                    <g id="Page-1">
                        <g id="Создание-формы-04">
                            <g id="добавить-иконки">
                                <g id="02">
                                    <rect id="Rectangle-423" x="0" y="5" width="13" height="3"></rect>
                                    <rect id="Rectangle-423" opacity="0.4" x="0" y="10" width="10" height="2"></rect>
                                    <rect id="Rectangle-423" opacity="0.4" x="0" y="0" width="16" height="3"></rect>
                                </g>
                            </g>
                        </g>
                    </g>
                </g>
            </g>
            <g id="crm-webform-edit-description" transform="translate(0.000000, 340.000000)" opacity="0.7" fill="#535C69">
                <g id="04">
                    <g id="Page-1">
                        <g id="Создание-формы-04">
                            <g id="добавить-иконки">
                                <g id="04">
                                    <rect id="Rectangle-423" x="0" y="4" width="16" height="2"></rect>
                                    <rect id="Rectangle-423-Copy" x="0" y="0" width="16" height="2"></rect>
                                    <rect id="Rectangle-423" x="0" y="8" width="16" height="2"></rect>
                                </g>
                            </g>
                        </g>
                    </g>
                </g>
            </g>
            <g id="crm-webform-edit-separator" transform="translate(0.000000, 352.000000)" fill="#535C69">
                <g id="03">
                    <g id="Page-1">
                        <g id="Создание-формы-04">
                            <g id="добавить-иконки">
                                <g id="03">
                                    <rect id="Rectangle-423-Copy-2" x="0" y="0" width="4" height="4"></rect>
                                    <rect id="Rectangle-423-Copy-3" x="6" y="0" width="4" height="4"></rect>
                                    <rect id="Rectangle-423-Copy-4" x="12" y="0" width="4" height="4"></rect>
                                </g>
                            </g>
                        </g>
                    </g>
                </g>
            </g>
            <g id="crm-webform-edit-br" transform="translate(0.000000, 358.000000)" fill="#535C69">
                <g id="br">
                    <g id="Page-1">
                        <g id="Создание-формы-04">
                            <g id="добавить-иконки">
                                <g id="br">
                                    <polygon id="Path-Copy-4" opacity="0.7" transform="translate(20.242641, 7.242641) rotate(225.000000) translate(-20.242641, -7.242641) " points="18.742641 8.74264142 18.742641 4.24264142 17.242641 4.24264142 17.242641 9.49264142 17.242641 10.2426414 23.242641 10.2426414 23.242641 8.74264142"></polygon>
                                    <polygon id="Path-Copy-5" opacity="0.7" transform="translate(4.242641, 7.242641) rotate(45.000000) translate(-4.242641, -7.242641) " points="2.742641 8.74264056 2.742641 4.24264056 1.242641 4.24264056 1.242641 9.49264056 1.242641 10.2426406 7.242641 10.2426406 7.242641 8.74264056"></polygon>
                                    <g id="Group" transform="translate(7.000000, 0.000000)" font-size="11" font-family="HelveticaNeue-Bold, Helvetica Neue" font-weight="bold">
                                        <text id="br">
                                            <tspan x="0" y="11">br</tspan>
                                        </text>
                                    </g>
                                </g>
                            </g>
                        </g>
                    </g>
                </g>
            </g>
            <g id="crm-webform-edit-alert" transform="translate(2.000000, 371.000000)" fill="#EB314B">
                <g id="Forma_1_copy">
                    <g id="Page-1">
                        <g id="попапы">
                            <g id="Group">
                                <g id="фдуке">
                                    <path d="M20.580618,14.3196246 L13.0674704,1.22642038 C12.6346416,0.468091787 11.8284987,0 10.9553418,0 C10.0821849,0 9.27604205,0.468091787 8.84321326,1.22642038 L1.32942278,14.3196246 C0.888824939,15.0782273 0.888824939,16.0148325 1.32942278,16.7734352 C1.75918669,17.5352888 2.56781784,18.0046737 3.44251564,18.0000191 L18.4694537,18.0000191 C19.3437288,18.0043435 20.1518224,17.5349851 20.5812609,16.7734352 C21.02166,16.0147171 21.0214146,15.0781118 20.580618,14.3196246 L20.580618,14.3196246 L20.580618,14.3196246 Z M9.78050848,4.89460043 C9.78050848,4.24735559 10.3052041,3.72265998 10.9524489,3.72265998 C11.5996938,3.72265998 12.1243894,4.24735559 12.1243894,4.89460043 L12.1243894,9.12078615 C12.1243894,9.76803099 11.5996938,10.2927266 10.9524489,10.2927266 C10.3052041,10.2927266 9.78050848,9.76803099 9.78050848,9.12078615 L9.78050848,4.89460043 L9.78050848,4.89460043 L9.78050848,4.89460043 Z M10.9524489,15.4529932 C10.3887118,15.4563783 9.87861078,15.1193621 9.66058837,14.5994801 C9.44256596,14.0795982 9.5596886,13.4795438 9.95720828,13.0798075 C10.354728,12.6800711 10.9541218,12.5596136 11.475208,12.7747418 C11.9962943,12.9898699 12.3361418,13.498089 12.3358915,14.0618363 C12.3373198,14.8267312 11.7199048,15.4487451 10.9550204,15.4529932 L10.9524489,15.4529932 L10.9524489,15.4529932 Z" id="Forma_1_copy"></path>
                                </g>
                            </g>
                        </g>
                    </g>
                </g>
            </g>
            <g id="crm-webform-edit-data-input" transform="translate(8.000000, 390.000000)" opacity="0.5" fill="#737B86">
                <g id="Shape">
                    <g id="Page-1">
                        <g id="Создание-формы-06-финал">
                            <g id="er">
                                <path d="M5.2201899,1.59976867 C6.06506453,1.59976867 6.75267813,2.33542098 6.75267813,3.27468299 C6.75267813,4.21394499 5.85124064,5.04951878 5.00636601,5.04951878 L2.34277463,5.04951878 L2.2662194,3.27552802 L0,5.79354957 L2.32617229,8.37818545 L2.34277463,6.53604311 L5.00544366,6.53604311 C5.32817007,6.53604311 5.61946981,6.50455255 5.87874523,6.43950987 C6.89141216,6.18546891 8.09055,4.66959213 8.09055,3.26904639 C8.09055,1.27061659 6.97588733,0.0804496103 5.21926755,0.0804496103 L5.21926755,0 L5.2201899,1.59976867 L5.2201899,1.59976867 Z" id="Shape"></path>
                            </g>
                        </g>
                    </g>
                </g>
            </g>
            <g id="er" transform="translate(8.000000, 399.000000)" fill="#737B86">
                <path d="M5.2201899,1.59976867 C6.06506453,1.59976867 6.75267813,2.33542098 6.75267813,3.27468299 C6.75267813,4.21394499 5.85124064,5.04951878 5.00636601,5.04951878 L2.34277463,5.04951878 L2.2662194,3.27552802 L0,5.79354957 L2.32617229,8.37818545 L2.34277463,6.53604311 L5.00544366,6.53604311 C5.32817007,6.53604311 5.61946981,6.50455255 5.87874523,6.43950987 C6.89141216,6.18546891 8.09055,4.66959213 8.09055,3.26904639 C8.09055,1.27061659 6.97588733,0.0804496103 5.21926755,0.0804496103 L5.21926755,0 L5.2201899,1.59976867 L5.2201899,1.59976867 Z" id="Shape"></path>
            </g>
        </g>
    </g>
</svg>