<?xml version="1.0" encoding="UTF-8" standalone="no"?>
<svg width="118px" height="165px" viewBox="0 0 118 165" version="1.1" xmlns="http://www.w3.org/2000/svg" xmlns:xlink="http://www.w3.org/1999/xlink">
    <!-- Generator: Sketch 3.8.1 (29687) - http://www.bohemiancoding.com/sketch -->
    <title>crm-webform-list-sprite</title>
    <desc>Created with Sketch.</desc>
    <defs>
        <rect id="path-1" x="0" y="0" width="75" height="9"></rect>
        <rect id="path-3" x="0" y="0" width="75" height="9"></rect>
        <rect id="path-5" x="0" y="0" width="75" height="9"></rect>
    </defs>
    <g id="Page-1" stroke="none" stroke-width="1" fill="none" fill-rule="evenodd">
        <g id="crm-webform-list-sprite">
            <g id="webform-list-hamburger" transform="translate(3.000000, 1.000000)" opacity="0.3" fill="#535C69">
                <g id="Combined-Shape">
                    <g id="Page-1">
                        <g id="Artboard-2-Copy">
                            <g id="01">
                                <path d="M0,0 L12,0 L12,2 L0,2 L0,0 L0,0 Z M0,4 L12,4 L12,6 L0,6 L0,4 L0,4 Z M0,8 L5,8 L9,8 L12,8 L12,10 L0,10 L0,8 L0,8 Z" id="Combined-Shape"></path>
                            </g>
                        </g>
                    </g>
                </g>
            </g>
            <g id="webform-list-hamburger-hover" transform="translate(3.000000, 14.000000)" opacity="0.3" fill="#000000">
                <g id="Combined-Shape">
                    <g id="Page-1">
                        <g id="Artboard-2-Copy">
                            <g id="01">
                                <path d="M0,0 L12,0 L12,2 L0,2 L0,0 L0,0 Z M0,4 L12,4 L12,6 L0,6 L0,4 L0,4 Z M0,8 L5,8 L9,8 L12,8 L12,10 L0,10 L0,8 L0,8 Z" id="Combined-Shape"></path>
                            </g>
                        </g>
                    </g>
                </g>
            </g>
            <g id="webform-list-deal" transform="translate(0.000000, 62.000000)" opacity="0.6" fill="#80868E">
                <g id="Combined-Shape">
                    <g id="Page-1">
                        <g id="Artboard-2-Copy">
                            <g id="01">
                                <g id="иконки">
                                    <path d="M15.829776,4.3048482 L7.91523443,0 L0,4.3048482 L7.91523443,8.6104212 L15.829776,4.3048482 L15.829776,4.3048482 Z M7.91523443,9.9984587 L1.4713582,6.4950087 L0,7.2950833 L7.91523443,11.5986079 L15.829776,7.2950833 L14.3584178,6.4950087 L7.91523443,9.9984587 L7.91523443,9.9984587 Z M7.91523443,12.988032 L1.4713582,9.4838887 L0,10.2826083 L7.91523443,14.5881497 L15.829776,10.2826083 L14.3584178,9.4838887 L7.91523443,12.988032 L7.91523443,12.988032 Z" id="Combined-Shape"></path>
                                </g>
                            </g>
                        </g>
                    </g>
                </g>
            </g>
            <g id="webform-list-calendar" transform="translate(2.000000, 103.000000)" opacity="0.6" fill="#80868E">
                <g id="Group">
                    <g id="Page-1">
                        <g id="Artboard-2-Copy">
                            <g id="01">
                                <g id="иконки">
                                    <g id="Group">
                                        <path d="M12.7070961,1.81178479 L11.5834783,1.81178479 L11.5834783,1.03483253 C11.5834783,0.463315219 11.1261454,0 10.5620075,0 L10.5211487,0 C9.95701083,0 9.49967795,0.463315219 9.49967795,1.03483253 L9.49967795,1.81178479 L4.22888889,1.81178479 L4.22888889,1.03483253 C4.22888889,0.463315219 3.77155601,0 3.20741815,0 L3.16655932,0 C2.60242145,0 2.14508857,0.463315219 2.14508857,1.03483253 L2.14508857,1.81178479 L1.02147075,1.81178479 C0.457332883,1.81178479 0,2.27510001 0,2.84661732 L0,13.940022 C0,14.5116221 0.457332883,14.9748545 1.02147075,14.9748545 L12.7070961,14.9748545 C13.271234,14.9748545 13.7285668,14.5116221 13.7285668,13.940022 L13.7285668,2.84661732 C13.7285668,2.27510001 13.2711931,1.81178479 12.7070961,1.81178479 L12.7070961,1.81178479 L12.7070961,1.81178479 Z M12.012496,13.3398191 L1.71607086,13.3398191 L1.71607086,4.93697902 L12.012496,4.93697902 L12.012496,13.3398191 L12.012496,13.3398191 L12.012496,13.3398191 Z" id="Shape"></path>
                                        <path d="M3.16343532,9.13167222 L4.9407127,9.13167222 C5.03096986,9.13167222 5.10414802,9.05753682 5.10414802,8.96609902 L5.10414802,7.1655732 C5.10414802,7.0741354 5.03096986,7 4.9407127,7 L3.16343532,7 C3.07317816,7 3,7.0741354 3,7.1655732 L3,8.96609902 C3,9.05753682 3.07317816,9.13167222 3.16343532,9.13167222 L3.16343532,9.13167222 Z M6.02355341,9.13167222 L7.8008308,9.13167222 C7.89108795,9.13167222 7.96426611,9.05753682 7.96426611,8.96609902 L7.96426611,7.1655732 C7.96426611,7.0741354 7.89108795,7 7.8008308,7 L6.02355341,7 C5.93329626,7 5.86011809,7.0741354 5.86011809,7.1655732 L5.86011809,8.96609902 C5.86011809,9.05753682 5.93329626,9.13167222 6.02355341,9.13167222 L6.02355341,9.13167222 Z M8.88367151,9.13167222 L10.6609489,9.13167222 C10.751206,9.13167222 10.8243842,9.05753682 10.8243842,8.96609902 L10.8243842,7.1655732 C10.8243842,7.0741354 10.751206,7 10.6609489,7 L8.88367151,7 C8.79341435,7 8.72023619,7.0741354 8.72023619,7.1655732 L8.72023619,8.96609902 C8.72023619,9.05753682 8.79341435,9.13167222 8.88367151,9.13167222 L8.88367151,9.13167222 Z M3.16343532,12.0292033 L4.9407127,12.0292033 C5.03096986,12.0292033 5.10414802,11.9550679 5.10414802,11.8636301 L5.10414802,10.0631043 C5.10414802,9.97166648 5.03096986,9.89753108 4.9407127,9.89753108 L3.16343532,9.89753108 C3.07317816,9.89753108 3,9.97166648 3,10.0631043 L3,11.8636301 C3,11.9550679 3.07317816,12.0292033 3.16343532,12.0292033 L3.16343532,12.0292033 Z M6.02355341,12.0292033 L7.8008308,12.0292033 C7.89108795,12.0292033 7.96426611,11.9550679 7.96426611,11.8636301 L7.96426611,10.0631043 C7.96426611,9.97166648 7.89108795,9.89753108 7.8008308,9.89753108 L6.02355341,9.89753108 C5.93329626,9.89753108 5.86011809,9.97166648 5.86011809,10.0631043 L5.86011809,11.8636301 C5.86011809,11.9550679 5.93329626,12.0292033 6.02355341,12.0292033 L6.02355341,12.0292033 Z M8.88367151,12.0292033 L10.6609489,12.0292033 C10.751206,12.0292033 10.8243842,11.9550679 10.8243842,11.8636301 L10.8243842,10.0631043 C10.8243842,9.97166648 10.751206,9.89753108 10.6609489,9.89753108 L8.88367151,9.89753108 C8.79341435,9.89753108 8.72023619,9.97166648 8.72023619,10.0631043 L8.72023619,11.8636301 C8.72023619,11.9550679 8.79341435,12.0292033 8.88367151,12.0292033 L8.88367151,12.0292033 Z" id="Combined-Shape"></path>
                                    </g>
                                </g>
                            </g>
                        </g>
                    </g>
                </g>
            </g>
            <g id="webform-list-url" transform="translate(2.000000, 122.000000)" opacity="0.6" fill="#80868E">
                <g id="Shape">
                    <g id="Page-1">
                        <g id="Artboard-2-Copy">
                            <g id="01">
                                <g id="иконки">
                                    <path d="M12.9119961,6.3432392 L10.2838654,8.9705122 C8.83334674,10.4218886 6.48023618,10.4218886 5.02947247,8.9705122 C4.80095268,8.7426357 4.62218036,8.4858726 4.46518787,8.2210837 L5.68632902,7.0000345 C5.74437795,6.9414954 5.81605842,6.9079526 5.88455309,6.8684365 C5.96897675,7.1568738 6.11635058,7.4299335 6.34318557,7.6567991 C7.06758718,8.3817827 8.24633269,8.3807719 8.97030545,7.6567991 L11.5976091,5.0295873 C12.3225621,4.3046956 12.3225621,3.1262258 11.5976091,2.4018854 C10.8736057,1.6775451 9.6951665,1.6775451 8.97030545,2.4018854 L8.03603935,3.3371624 C7.27788052,3.0419553 6.46106012,2.962586 5.66589702,3.0791127 L7.65674551,1.0883255 C9.1081219,-0.3627752 11.4606198,-0.3627752 12.9119961,1.0883255 C14.362668,2.5393649 14.362668,4.8922304 12.9119961,6.3432392 L12.9119961,6.3432392 L12.9119961,6.3432392 Z M5.96438185,10.663366 L5.02944183,11.598643 C4.30510149,12.3226157 3.12629471,12.3226157 2.40183183,11.598643 C1.67743022,10.8736593 1.67743022,9.6951895 2.40183183,8.9705122 L5.02944183,6.3432392 C5.7543642,5.6184087 6.93237453,5.6184087 7.65671487,6.3432392 C7.88302911,6.5696147 8.0305561,6.8426131 8.11577621,7.1306828 C8.18466911,7.0906459 8.25546123,7.058114 8.31347953,7.0000038 L9.5345288,5.7794447 C9.3785472,5.5136143 9.1988559,5.2577702 8.97024418,5.0296486 C7.51984806,3.5785479 5.16652308,3.5785479 3.71542241,5.0296486 L1.08821063,7.6569523 C-0.362736877,9.1084818 -0.362736877,11.4606734 1.08821063,12.9120804 C2.5393113,14.3627216 4.8920849,14.3627216 6.34315494,12.9120804 L8.33452418,10.9208643 C7.53893222,11.0380649 6.72189739,10.9580217 5.96438185,10.663366 L5.96438185,10.663366 L5.96438185,10.663366 Z" id="Shape"></path>
                                </g>
                            </g>
                        </g>
                    </g>
                </g>
            </g>
            <g id="webform-list-close" transform="translate(0.000000, 26.000000)" opacity="0.3" fill="#535C69">
                <g id="Combined-Shape">
                    <g id="Page-1">
                        <g id="Artboard-2-Copy">
                            <g id="01">
                                <polygon id="Combined-Shape" transform="translate(8.485281, 8.485281) rotate(45.000000) translate(-8.485281, -8.485281) " points="9.61028072 7.36028128 9.61028072 2.48528128 7.36028072 2.48528128 7.36028072 7.36028128 2.48528072 7.36028128 2.48528072 9.61028128 7.36028072 9.61028128 7.36028072 14.4852813 9.61028072 14.4852813 9.61028072 9.61028128 14.4852807 9.61028128 14.4852807 7.36028128"></polygon>
                            </g>
                        </g>
                    </g>
                </g>
            </g>
            <g id="webform-list-close-hover" transform="translate(0.000000, 37.000000)" opacity="0.3" fill="#000000">
                <g id="Combined-Shape">
                    <g id="Page-1">
                        <g id="Artboard-2-Copy">
                            <g id="01">
                                <polygon id="Combined-Shape" transform="translate(8.485281, 8.485281) rotate(45.000000) translate(-8.485281, -8.485281) " points="9.61028072 7.36028128 9.61028072 2.48528128 7.36028072 2.48528128 7.36028072 7.36028128 2.48528072 7.36028128 2.48528072 9.61028128 7.36028072 9.61028128 7.36028072 14.4852813 9.61028072 14.4852813 9.61028072 9.61028128 14.4852807 9.61028128 14.4852807 7.36028128"></polygon>
                            </g>
                        </g>
                    </g>
                </g>
            </g>
            <g id="иконка" transform="translate(2.000000, 83.000000)" opacity="0.6" fill="#80868E">
                <g id="Page-1">
                    <g id="Artboard-2-Copy">
                        <g>
                            <g id="01">
                                <g id="иконки">
                                    <path d="M12.4525961,0.337761 L1.02362704,11.939525 L2.55017476,13.427871 L13.9791656,1.826129 L12.4525961,0.337761 L12.4525961,0.337761 Z M0.9604486,2.080266 L0.9604486,4.085195 L0.9604486,9.241462 L2.97576474,7.126968 L2.97576474,4.085195 L5.87488312,4.085195 L7.78578629,2.080266 L0.9604486,2.080266 L0.9604486,2.080266 Z M11.9496155,6.738425 L11.9496155,10.026941 L8.81534584,10.026941 L6.9265595,12.008665 L13.9416063,12.008665 L13.9416063,4.648404 L11.9496155,6.738425 L11.9496155,6.738425 Z" id="Page-1"></path>
                                </g>
                            </g>
                        </g>
                    </g>
                </g>
            </g>
            <g id="webform-list-form" transform="translate(19.000000, 1.000000)">
                <g id="Group-3">
                    <g id="Page-1">
                        <g id="Artboard-2-Copy">
                            <g id="01">
                                <g id="Group-3">
                                    <rect id="Rectangle-2049" fill="#FFFFFF" x="0" y="0" width="98" height="98" rx="2"></rect>
                                    <g id="Rectangle-2050-Clipped" transform="translate(12.000000, 28.000000)">
                                        <mask id="mask-2" fill="white">
                                            <use xlink:href="#path-1"></use>
                                        </mask>
                                        <g id="path-1"></g>
                                        <g id="Rectangle-2050" mask="url(#mask-2)" stroke="#EBEBEB" stroke-width="2" fill="#F7F7F7">
                                            <rect id="path-1" x="0" y="0" width="75" height="9"></rect>
                                        </g>
                                    </g>
                                    <polygon id="Rectangle-2050" fill="#ABAFB5" points="12 11 60 11 60 16 12 16"></polygon>
                                    <polygon id="Rectangle-2050" fill="#DCDCDC" points="12 24 33 24 33 26 12 26"></polygon>
                                    <rect id="Rectangle-2050" fill="#ABAFB5" x="90" y="6" width="2.72222222" height="2.72222222"></rect>
                                    <rect id="Rectangle-2050" fill="#DCDCDC" x="12" y="41" width="21" height="2"></rect>
                                    <rect id="Rectangle-2050" fill="#DCDCDC" x="12" y="59" width="21" height="2"></rect>
                                    <rect id="Rectangle-2050" fill="#BAEF00" x="36" y="79" width="26" height="11"></rect>
                                    <rect id="Rectangle-2050" fill="#9ECD0E" x="41" y="83" width="16" height="3"></rect>
                                    <g id="Rectangle-2050-Clipped" transform="translate(12.000000, 45.000000)">
                                        <mask id="mask-4" fill="white">
                                            <use xlink:href="#path-3"></use>
                                        </mask>
                                        <g id="path-3"></g>
                                        <g id="Rectangle-2050" mask="url(#mask-4)" stroke="#EBEBEB" stroke-width="2" fill="#F7F7F7">
                                            <rect id="path-3" x="0" y="0" width="75" height="9"></rect>
                                        </g>
                                    </g>
                                    <g id="Rectangle-2050-Clipped" transform="translate(12.000000, 63.000000)">
                                        <mask id="mask-6" fill="white">
                                            <use xlink:href="#path-5"></use>
                                        </mask>
                                        <g id="path-5"></g>
                                        <g id="Rectangle-2050" mask="url(#mask-6)" stroke="#EBEBEB" stroke-width="2" fill="#F7F7F7">
                                            <rect id="path-5" x="0" y="0" width="75" height="9"></rect>
                                        </g>
                                    </g>
                                </g>
                            </g>
                        </g>
                    </g>
                </g>
            </g>
            <g id="sett" transform="translate(2.000000, 138.000000)" fill="#FFFFFF">
                <g id="Layer_1">
                    <path d="M5.94222222,0.028 L8.05777778,0.028 C8.31288889,0.133777778 8.40622222,0.329777778 8.40311111,0.600444444 C8.39377778,1.10444444 8.40311111,1.60533333 8.39688889,2.10933333 C8.39688889,2.19644444 8.41866667,2.23688889 8.50266667,2.25866667 C8.77955556,2.33333333 9.04088889,2.44533333 9.29288889,2.58222222 C9.38622222,2.632 9.44222222,2.61333333 9.51377778,2.53866667 C9.87466667,2.16844444 10.2417778,1.80133333 10.612,1.43733333 C10.8328889,1.21955556 11.0817778,1.21022222 11.3026667,1.42488889 C11.732,1.84488889 12.1582222,2.268 12.5782222,2.70044444 C12.796,2.92133333 12.7835556,3.18888889 12.5657778,3.40666667 C12.2048889,3.77066667 11.844,4.13466667 11.4768889,4.49244444 C11.3991111,4.56711111 11.3773333,4.62311111 11.4364444,4.72577778 C11.5671111,4.94977778 11.6697778,5.18933333 11.7351111,5.44133333 C11.7693333,5.572 11.8346667,5.60933333 11.9715556,5.60933333 C12.5097778,5.60933333 13.048,5.58133333 13.5862222,5.62488889 C13.8164444,5.64355556 13.9502222,5.79288889 13.972,6.02622222 C13.972,6.67333333 13.972,7.31733333 13.9751111,7.96444444 C13.9533333,8.22266667 13.7697778,8.39377778 13.5084444,8.39377778 C12.9733333,8.39377778 12.4413333,8.39688889 11.9062222,8.39377778 C11.8222222,8.39377778 11.7817778,8.41244444 11.7568889,8.50266667 C11.676,8.77022222 11.5733333,9.03155556 11.4364444,9.27733333 C11.3835556,9.37066667 11.3897778,9.42355556 11.4675556,9.50133333 C11.8346667,9.85911111 12.1955556,10.2231111 12.5564444,10.5871111 C12.7928889,10.8266667 12.796,11.0817778 12.5626667,11.3182222 C12.152,11.7351111 11.7382222,12.1488889 11.3213333,12.5595556 C11.0786667,12.7991111 10.8235556,12.7928889 10.5808889,12.5502222 C10.2137778,12.1831111 9.84666667,11.8191111 9.48266667,11.4488889 C9.42355556,11.3897778 9.38,11.3711111 9.29911111,11.4177778 C9.05955556,11.5515556 8.80444444,11.6604444 8.54,11.732 C8.43733333,11.76 8.39688889,11.8066667 8.39688889,11.9217778 C8.40622222,12.4351111 8.4,12.9484444 8.4,13.4617778 C8.4,13.6422222 8.33466667,13.7884444 8.19466667,13.9035556 C8.12311111,13.9626667 8.02977778,13.9346667 7.96444444,13.9937778 L6.00444444,13.9937778 C5.70266667,13.9004444 5.6,13.6888889 5.60933333,13.384 C5.62177778,12.8955556 5.60933333,12.4102222 5.61555556,11.9217778 C5.61866667,11.8097778 5.58444444,11.7537778 5.47555556,11.7257778 C5.208,11.6573333 4.956,11.5453333 4.71644444,11.4115556 C4.63244444,11.3648889 4.58266667,11.3804444 4.51733333,11.4457778 C4.15333333,11.816 3.77688889,12.1706667 3.42222222,12.5502222 C3.22311111,12.7648889 2.87777778,12.768 2.67555556,12.5533333 C2.28044444,12.1364444 1.86666667,11.7351111 1.45911111,11.3306667 C1.204,11.0755556 1.204,10.8391111 1.456,10.584 C1.82622222,10.2137778 2.19644444,9.84355556 2.56666667,9.47333333 C2.62577778,9.41422222 2.64755556,9.37377778 2.60088889,9.29288889 C2.46088889,9.05644444 2.35511111,8.79822222 2.28044444,8.53688889 C2.24622222,8.41555556 2.19333333,8.38444444 2.06888889,8.38755556 C1.54933333,8.39688889 1.03288889,8.38444444 0.513333333,8.39377778 C0.239555556,8.4 0.0155555556,8.16666667 0.0217777778,7.90222222 C0.0373333333,7.29555556 0.0248888889,6.68888889 0.028,6.08222222 C0.028,6.02622222 0.0248888889,5.97333333 0.0497777778,5.91733333 C0.136888889,5.69955556 0.276888889,5.60622222 0.575555556,5.60622222 C1.08266667,5.60311111 1.59288889,5.60311111 2.1,5.60933333 C2.19955556,5.60933333 2.24311111,5.57822222 2.27111111,5.48177778 C2.34888889,5.21111111 2.46088889,4.956 2.59155556,4.70711111 C2.632,4.63244444 2.632,4.592 2.56666667,4.52977778 C2.20266667,4.17511111 1.84488889,3.81422222 1.48711111,3.45333333 C1.19777778,3.164 1.19466667,2.92444444 1.48711111,2.63511111 C1.87288889,2.24933333 2.25555556,1.86355556 2.64133333,1.48088889 C2.93066667,1.19155556 3.16711111,1.19466667 3.45955556,1.48711111 C3.82044444,1.84488889 4.17822222,2.20577778 4.536,2.56666667 C4.592,2.62266667 4.62933333,2.632 4.70088889,2.59155556 C4.956,2.45466667 5.22044444,2.33333333 5.50044444,2.26177778 C5.59377778,2.23688889 5.61244444,2.18711111 5.61244444,2.09688889 C5.60933333,1.60533333 5.61866667,1.11066667 5.60622222,0.619111111 C5.60311111,0.348444444 5.684,0.143111111 5.94222222,0.028 L5.94222222,0.028 Z M7.00622222,9.79688889 C8.50577778,9.82488889 9.80933333,8.57733333 9.81244444,7.01244444 C9.81555556,5.46311111 8.55866667,4.19066667 7.01555556,4.19688889 C5.46622222,4.20311111 4.20933333,5.41955556 4.20622222,7.00311111 C4.20622222,8.58977778 5.49733333,9.80933333 7.00622222,9.79688889 L7.00622222,9.79688889 Z" id="Shape"></path>
                </g>
            </g>
            <g id="crm-webform-list-copy" transform="translate(3.000000, 154.000000)" fill="#80868E">
                <g id="Group_1_copy">
                    <g id="Page-1">
                        <g id="Artboard-2-Copy">
                            <g id="01">
                                <g id="new-window">
                                    <g id="Group_1_copy">
                                        <polygon id="Shape_3_copy_3" transform="translate(4.500000, 4.500000) rotate(90.000000) translate(-4.500000, -4.500000) " points="7.438 7.375 1.719 7.375 1.719 1.719 4 1.719 4 0 0 0 0 9 9 9 9 5 7.438 5"></polygon>
                                        <path d="M3,7.908 L4.094,8.994 L5.381,7.708 L6.346,6.747 L7.361,5.737 L6.271,4.65 L3,7.908 L3,7.908 Z M8.975,3 L4.635,3.02 L6.271,4.65 L7.361,5.736 L7.37,5.726 L6.22,4.58 L7.37,5.726 L7.361,5.736 L8.994,7.365 L8.975,3 L8.975,3 Z" id="Shape_3_copy_3-2" transform="translate(5.997000, 5.997000) rotate(90.000000) translate(-5.997000, -5.997000) "></path>
                                    </g>
                                </g>
                            </g>
                        </g>
                    </g>
                </g>
            </g>
        </g>
    </g>
</svg>