<svg xmlns="http://www.w3.org/2000/svg" xmlns:xlink="http://www.w3.org/1999/xlink" viewBox="0 0 847 330">
  <defs>
    <path id="graph-a" d="M829.000281,-1.8189894e-12 L828.999776,305.536933 C826.019744,305.977668 823.132768,306.689729 820.439756,307.673103 L820.439756,307.673103 L820.043807,307.815941 C810.148393,311.339305 800.499021,311.292683 790.551313,307.669984 L790.551313,307.669984 L790.144977,307.52836 C780.170748,304.109544 768.066072,304.15798 758.439756,307.673103 L758.439756,307.673103 L758.043807,307.815941 C748.148393,311.339305 738.499021,311.292683 728.551313,307.669984 L728.551313,307.669984 L728.144977,307.52836 C718.170748,304.109544 706.066072,304.15798 696.439756,307.673103 L696.439756,307.673103 L696.043807,307.815941 C686.148393,311.339305 676.499021,311.292683 666.551313,307.669984 L666.551313,307.669984 L666.144977,307.52836 C656.170748,304.109544 644.066072,304.15798 634.439756,307.673103 L634.439756,307.673103 L634.043807,307.815941 C624.148393,311.339305 614.499021,311.292683 604.551313,307.669984 L604.551313,307.669984 L604.144977,307.52836 C594.170748,304.109544 582.066072,304.15798 572.439756,307.673103 L572.439756,307.673103 L572.043807,307.815941 C562.148393,311.339305 552.499021,311.292683 542.551313,307.669984 L542.551313,307.669984 L542.144977,307.52836 C532.170748,304.109544 520.066072,304.15798 510.439756,307.673103 L510.439756,307.673103 L510.043807,307.815941 C500.148393,311.339305 490.499021,311.292683 480.551313,307.669984 L480.551313,307.669984 L480.144977,307.52836 C470.170748,304.109544 458.066072,304.15798 448.439756,307.673103 L448.439756,307.673103 L448.043807,307.815941 C438.148393,311.339305 428.499021,311.292683 418.551313,307.669984 L418.551313,307.669984 L418.144977,307.52836 C408.170748,304.109544 396.066072,304.15798 386.439756,307.673103 L386.439756,307.673103 L386.043807,307.815941 C376.148393,311.339305 366.499021,311.292683 356.551313,307.669984 L356.551313,307.669984 L356.144977,307.52836 C346.170748,304.109544 334.066072,304.15798 324.439756,307.673103 L324.439756,307.673103 L324.043807,307.815941 C314.148393,311.339305 304.499021,311.292683 294.551313,307.669984 L294.551313,307.669984 L294.144977,307.52836 C284.170748,304.109544 272.066072,304.15798 262.439756,307.673103 L262.439756,307.673103 L262.043807,307.815941 C252.148393,311.339305 242.499021,311.292683 232.551313,307.669984 L232.551313,307.669984 L232.144977,307.52836 C222.170748,304.109544 210.066072,304.15798 200.439756,307.673103 L200.439756,307.673103 L200.043807,307.815941 C190.148393,311.339305 180.499021,311.292683 170.551313,307.669984 L170.551313,307.669984 L170.144977,307.52836 C160.170748,304.109544 148.066072,304.15798 138.439756,307.673103 L138.439756,307.673103 L138.043807,307.815941 C128.148393,311.339305 118.499021,311.292683 108.551313,307.669984 L108.551313,307.669984 L108.144977,307.52836 C98.1707479,304.109544 86.0660721,304.15798 76.4397563,307.673103 L76.4397563,307.673103 L76.0438072,307.815941 C66.1483931,311.339305 56.4990205,311.292683 46.551313,307.669984 L46.551313,307.669984 L46.1449765,307.52836 C36.1707479,304.109544 24.0660721,304.15798 14.4397563,307.673103 L14.4397563,307.673103 L14.0438072,307.815941 C9.32640266,309.495621 4.66491544,310.363958 0.000365312057,310.420291 L0.000281374275,-1.8189894e-12 L829.000281,-1.8189894e-12 Z"/>
    <filter id="graph-b" width="104%" height="111%" x="-2%" y="-3.1%" filterUnits="objectBoundingBox">
      <feMorphology in="SourceAlpha" operator="dilate" radius="2" result="shadowSpreadOuter1"/>
      <feOffset dy="8" in="shadowSpreadOuter1" result="shadowOffsetOuter1"/>
      <feGaussianBlur in="shadowOffsetOuter1" result="shadowBlurOuter1" stdDeviation="3.5"/>
      <feComposite in="shadowBlurOuter1" in2="SourceAlpha" operator="out" result="shadowBlurOuter1"/>
      <feColorMatrix in="shadowBlurOuter1" values="0 0 0 0 0   0 0 0 0 0   0 0 0 0 0  0 0 0 0.0930005054 0"/>
    </filter>
  </defs>
  <g fill="none" fill-rule="evenodd" transform="translate(9 2)">
    <mask id="graph-c" fill="#fff">
      <use xlink:href="#graph-a"/>
    </mask>
    <g stroke-linejoin="round">
      <use fill="#000" filter="url(#graph-b)" xlink:href="#graph-a"/>
      <path fill="#F4FCFF" stroke="#2FC6F6" stroke-opacity=".328" stroke-width="2" d="M830.000283,-1 L829.999775,306.407816 C827.051798,306.789435 824.184747,307.439287 821.51242,308.354397 L821.51242,308.354397 L820.775342,308.615113 C810.448041,312.294153 800.767926,312.314368 790.799637,308.820644 L790.799637,308.820644 L790.220865,308.61383 C780.24862,305.194982 768.669717,305.170994 759.344482,308.412317 L759.344482,308.412317 L758.775342,308.615113 C748.448041,312.294153 738.767926,312.314368 728.799637,308.820644 L728.799637,308.820644 L728.220865,308.61383 C718.24862,305.194982 706.669717,305.170994 697.344482,308.412317 L697.344482,308.412317 L696.775342,308.615113 C686.448041,312.294153 676.767926,312.314368 666.799637,308.820644 L666.799637,308.820644 L666.220865,308.61383 C656.24862,305.194982 644.669717,305.170994 635.344482,308.412317 L635.344482,308.412317 L634.775342,308.615113 C624.448041,312.294153 614.767926,312.314368 604.799637,308.820644 L604.799637,308.820644 L604.220865,308.61383 C594.24862,305.194982 582.669717,305.170994 573.344482,308.412317 L573.344482,308.412317 L572.775342,308.615113 C562.448041,312.294153 552.767926,312.314368 542.799637,308.820644 L542.799637,308.820644 L542.220865,308.61383 C532.24862,305.194982 520.669717,305.170994 511.344482,308.412317 L511.344482,308.412317 L510.775342,308.615113 C500.448041,312.294153 490.767926,312.314368 480.799637,308.820644 L480.799637,308.820644 L480.220865,308.61383 C470.24862,305.194982 458.669717,305.170994 449.344482,308.412317 L449.344482,308.412317 L448.775342,308.615113 C438.448041,312.294153 428.767926,312.314368 418.799637,308.820644 L418.799637,308.820644 L418.220865,308.61383 C408.24862,305.194982 396.669717,305.170994 387.344482,308.412317 L387.344482,308.412317 L386.775342,308.615113 C376.448041,312.294153 366.767926,312.314368 356.799637,308.820644 L356.799637,308.820644 L356.220865,308.61383 C346.24862,305.194982 334.669717,305.170994 325.344482,308.412317 L325.344482,308.412317 L324.775342,308.615113 C314.448041,312.294153 304.767926,312.314368 294.799637,308.820644 L294.799637,308.820644 L294.220865,308.61383 C284.24862,305.194982 272.669717,305.170994 263.344482,308.412317 L263.344482,308.412317 L262.775342,308.615113 C252.448041,312.294153 242.767926,312.314368 232.799637,308.820644 L232.799637,308.820644 L232.220865,308.61383 C222.24862,305.194982 210.669717,305.170994 201.344482,308.412317 L201.344482,308.412317 L200.775342,308.615113 C190.448041,312.294153 180.767926,312.314368 170.799637,308.820644 L170.799637,308.820644 L170.220865,308.61383 C160.24862,305.194982 148.669717,305.170994 139.344482,308.412317 L139.344482,308.412317 L138.775342,308.615113 C128.448041,312.294153 118.767926,312.314368 108.799637,308.820644 L108.799637,308.820644 L108.220865,308.61383 C98.2486205,305.194982 86.6697172,305.170994 77.3444824,308.412317 L77.3444824,308.412317 L76.7753417,308.615113 C66.4480409,312.294153 56.7679264,312.314368 46.7996369,308.820644 L46.7996369,308.820644 L46.2208645,308.61383 C36.2486205,305.194982 24.6697172,305.170994 15.3444824,308.412317 L15.3444824,308.412317 L14.7754915,308.615059 C9.17776329,310.61022 4.10921401,311.482808 -0.999634418,311.420087 L-0.999634418,311.420087 L-0.999718896,-1 L830.000283,-1 Z"/>
    </g>
    <g mask="url(#graph-c)">
      <g transform="translate(-8 -24)">
        <g transform="translate(23 64)">
          <rect width="1" height="230.381" x="25" y=".619" fill="#E0E0E0"/>
          <text fill="#808992" font-family="HelveticaNeue-Medium, Helvetica Neue" font-size="10" font-weight="400">
            <tspan x="0" y="139">100</tspan>
          </text>
          <text fill="#808992" font-family="HelveticaNeue-Medium, Helvetica Neue" font-size="10" font-weight="400">
            <tspan x="11" y="229">0</tspan>
          </text>
          <text fill="#808992" font-family="HelveticaNeue-Medium, Helvetica Neue" font-size="10" font-weight="400">
            <tspan x="0" y="49">200</tspan>
          </text>
          <rect width="763" height="11" x="25" y="231" fill="#525C69" fill-opacity=".118" rx="3"/>
        </g>
        <path fill="#9DCF00" d="M208,180 L251,180 C252.104569,180 253,180.895431 253,182 L253,295 L253,295 L206,295 L206,182 C206,180.895431 206.895431,180 208,180 Z"/>
        <path fill="#2FC6F6" d="M277,140 L320,140 C321.104569,140 322,140.895431 322,142 L322,295 L322,295 L275,295 L275,142 C275,140.895431 275.895431,140 277,140 Z"/>
        <path fill="#00B4AC" d="M346,205 L389,205 C390.104569,205 391,205.895431 391,207 L391,295 L391,295 L344,295 L344,207 C344,205.895431 344.895431,205 346,205 Z"/>
        <path fill="#F7CC00" d="M415,86 L458,86 C459.104569,86 460,86.8954305 460,88 L460,295 L460,295 L413,295 L413,88 C413,86.8954305 413.895431,86 415,86 Z"/>
        <path fill="#C8754D" d="M484,234 L527,234 C528.104569,234 529,234.895431 529,236 L529,295 L529,295 L482,295 L482,236 C482,234.895431 482.895431,234 484,234 Z"/>
        <path fill="#828B95" d="M553,197 L596,197 C597.104569,197 598,197.895431 598,199 L598,295 L598,295 L551,295 L551,199 C551,197.895431 551.895431,197 553,197 Z"/>
        <path fill="#2066B0" d="M622,211 L665,211 C666.104569,211 667,211.895431 667,213 L667,295 L667,295 L620,295 L620,213 C620,211.895431 620.895431,211 622,211 Z"/>
        <path fill="#FF5752" d="M691,244 L734,244 C735.104569,244 736,244.895431 736,246 L736,295 L736,295 L689,295 L689,246 C689,244.895431 689.895431,244 691,244 Z"/>
        <path fill="#2FC6F6" d="M70,70 L113,70 C114.104569,70 115,70.8954305 115,72 L115,295 L115,295 L68,295 L68,72 C68,70.8954305 68.8954305,70 70,70 Z"/>
        <path fill="#14CBC3" d="M139,135 L182,135 C183.104569,135 184,135.895431 184,137 L184,295 L184,295 L137,295 L137,137 C137,135.895431 137.895431,135 139,135 Z"/>
        <path fill="#9DCF00" d="M760,255 L803,255 C804.104569,255 805,255.895431 805,257 L805,295 L805,295 L758,295 L758,257 C758,255.895431 758.895431,255 760,255 Z"/>
      </g>
    </g>
  </g>
</svg>
