<svg width="22" height="18" viewBox="0 0 22 18" fill="none" xmlns="http://www.w3.org/2000/svg">
<path fill-rule="evenodd" clip-rule="evenodd" d="M7.77322 0.140747C6.66865 0.140747 5.77322 1.03618 5.77322 2.14075V3.20012H2.15999C1.36213 3.20012 0.715332 3.84692 0.715332 4.64478V7.60883L8.75756 8.91414V8.31617C8.75756 7.91724 9.08096 7.59384 9.47989 7.59384H12.5202C12.9191 7.59384 13.2425 7.91724 13.2425 8.31617V8.91423L21.2854 7.60882V4.64478C21.2854 3.84692 20.6386 3.20012 19.8407 3.20012H16.2277V2.14075C16.2277 1.03618 15.3323 0.140747 14.2277 0.140747H7.77322ZM8.75756 10.1997V11.3565C8.75756 11.7554 9.08096 12.0788 9.47989 12.0788H12.5202C12.9191 12.0788 13.2425 11.7554 13.2425 11.3565V10.1998L21.2854 8.8944V16.2362C21.2854 17.034 20.6386 17.6808 19.8407 17.6808H2.15999C1.36213 17.6808 0.715332 17.034 0.715332 16.2362V8.8944L8.75756 10.1997ZM7.86207 3.20012H14.139V2.42261C14.139 2.02367 13.8156 1.70028 13.4166 1.70028H8.58441C8.18547 1.70028 7.86207 2.02367 7.86207 2.42261V3.20012Z" fill="white"/>
</svg>
