<svg width="30" height="20" viewBox="0 0 30 20" fill="none" xmlns="http://www.w3.org/2000/svg">
<path d="M22.9511 18.2468C22.6518 16.5231 21.874 13.5288 21.874 13.5288C21.874 12.858 21.0152 12.0912 19.323 11.6448C18.7483 11.4808 18.2029 11.2274 17.7069 10.8938C17.6275 10.6871 17.596 10.465 17.615 10.2444L17.0726 10.1595C17.0726 10.112 17.0262 9.409 17.0262 9.409C17.678 9.18538 17.611 7.86589 17.611 7.86589C18.0249 8.10021 18.2945 7.05747 18.2945 7.05747C18.7842 5.60753 18.0507 5.69476 18.0507 5.69476C18.179 4.80901 18.179 3.90941 18.0507 3.02366C17.7248 0.0861309 12.8147 0.882662 13.3972 1.84294C11.9623 1.57175 12.2898 4.90695 12.2898 4.90695L12.601 5.7693C12.17 6.05434 12.2544 6.38222 12.3488 6.74859C12.3881 6.90151 12.4292 7.06114 12.4353 7.22716C12.4654 8.05977 12.963 7.88691 12.963 7.88691C12.994 9.25992 13.6565 9.44032 13.6565 9.44032C13.781 10.3027 13.7037 10.154 13.7037 10.154L13.1137 10.2269C13.1218 10.4229 13.1062 10.6191 13.0673 10.8114C12.7247 10.9676 12.5149 11.0916 12.3078 11.214C12.0947 11.34 11.8843 11.4643 11.5345 11.6206C10.2023 12.2153 8.75438 12.992 8.49746 14.0355C8.31404 14.7806 7.87074 17.0966 7.63211 18.3607C9.93026 18.7869 12.4109 19.0194 14.9982 19.0194C17.8071 19.0194 20.4906 18.7454 22.9511 18.2468Z" fill="white"/>
<path d="M5.89939 16.6019H6.3811C6.41232 16.1682 6.79648 14.6648 7.01923 13.793C7.10743 13.4478 7.17033 13.2017 7.17597 13.1602C7.20415 12.3395 7.91149 11.6058 9.11995 11.1047C9.02842 10.9782 8.95012 10.8426 8.8863 10.7001C8.71788 10.4862 8.4968 10.3196 8.24469 10.2167L8.22553 9.57393L9.55233 9.14908C9.55233 9.14908 9.89492 8.98642 9.92797 8.98642C9.88872 8.88764 9.83951 8.79311 9.78109 8.70431C9.75584 8.63635 9.59881 8.13305 9.59521 8.1215C9.78712 8.37437 10.013 8.59956 10.2664 8.79071C10.034 8.37129 9.83707 7.93313 9.67779 7.48082C9.57255 7.0447 9.50209 6.60092 9.46705 6.15366C9.37607 5.34065 9.23404 4.53417 9.04182 3.73899C8.90522 3.34407 8.66259 2.99434 8.34048 2.72812C7.86769 2.39238 7.31269 2.19116 6.73459 2.14587H6.6681C6.09003 2.19132 5.53507 2.39253 5.0622 2.72812C4.73967 2.99403 4.49684 3.34384 4.36049 3.73899C4.16871 4.53424 4.02681 5.3407 3.93563 6.15366C3.89475 6.59112 3.82079 7.02486 3.71437 7.45115C3.55524 7.9116 3.36187 8.3595 3.13588 8.79108C3.39106 8.60078 3.61862 8.37601 3.81204 8.12318C3.81204 8.12318 3.68695 8.59199 3.66178 8.66036C3.5932 8.76493 3.53219 8.87427 3.47922 8.98755C3.51265 8.98755 3.85487 9.1502 3.85487 9.1502L5.18166 9.57393L5.1625 10.2167C4.91026 10.3192 4.68912 10.4857 4.52089 10.6998C4.44115 10.9054 4.31414 11.0894 4.15013 11.2369C3.83013 11.3504 3.5219 11.4947 3.22979 11.6678C2.78759 11.9191 2.30073 12.0821 1.79631 12.1475C1.28844 12.2328 0.96801 13.0708 0.96801 13.0708C0.967059 13.0875 0.897463 14.488 0.847656 15.5201C2.35612 15.9596 4.05611 16.3257 5.89939 16.6019Z" fill="white"/>
<path d="M29.4688 13.0749C29.47 13.0909 29.5347 14.392 29.584 15.4101C27.9871 15.9002 26.1604 16.3057 24.1653 16.606H24.0565C24.0254 16.1735 23.6432 14.6779 23.4202 13.805C23.331 13.4557 23.2672 13.2061 23.2616 13.1643C23.2331 12.3435 22.5257 11.6099 21.3173 11.1088C21.4088 10.9822 21.4871 10.8467 21.5509 10.7042C21.7193 10.4902 21.9404 10.3236 22.1925 10.2207L22.2117 9.57799L20.8853 9.15276C20.8853 9.15276 20.5427 8.9901 20.5096 8.9901C20.5489 8.89131 20.5981 8.79679 20.6565 8.70799C20.682 8.63925 20.8424 8.12498 20.8424 8.12498C20.6503 8.37811 20.4242 8.6035 20.1704 8.79476C20.4029 8.37536 20.5998 7.93719 20.759 7.48488C20.8643 7.04876 20.9347 6.60498 20.9698 6.15771C21.0608 5.34471 21.2028 4.53823 21.395 3.74305C21.5316 3.34812 21.7743 2.9984 22.0964 2.73218C22.5691 2.39644 23.1241 2.19521 23.7022 2.14992H23.7687C24.3468 2.19538 24.9018 2.39659 25.3746 2.73218C25.6972 2.99807 25.94 3.34789 26.0763 3.74305C26.2681 4.5383 26.41 5.34476 26.5012 6.15771C26.5421 6.59518 26.616 7.02892 26.7225 7.4552C26.8816 7.91566 27.075 8.36356 27.301 8.79514C27.0458 8.60483 26.8182 8.38005 26.6248 8.12724C26.6248 8.12724 26.7499 8.59605 26.7751 8.66441C26.8438 8.76896 26.9049 8.87831 26.958 8.9916C26.9246 8.9916 26.5823 9.15426 26.5823 9.15426L25.2556 9.57799L25.2743 10.2207C25.5266 10.3232 25.7477 10.4897 25.9159 10.7038C25.9957 10.9095 26.1227 11.0935 26.2867 11.241C26.6067 11.3545 26.9149 11.4988 27.207 11.6719C27.6492 11.9232 28.1361 12.0861 28.6405 12.1516C29.1484 12.2368 29.4688 13.0749 29.4688 13.0749Z" fill="white"/>
</svg>
