<svg xmlns="http://www.w3.org/2000/svg" width="48" height="48" viewBox="0 0 48 48" fill="none">
	<path d="M15.7477 12.5C14.2302 12.5 13 13.7329 13 15.2537V27.6641C13 29.1849 14.2302 30.4178 15.7477 30.4178H20.2754V27.316H16.0944V15.6005H27.7843V20.171H30.8788V15.2537C30.8788 13.7329 29.6486 12.5 28.1311 12.5H15.7477Z" fill="white"/>
	<path fill-rule="evenodd" clip-rule="evenodd" d="M22.7174 24.9443C22.7174 23.4234 23.9476 22.1906 25.4651 22.1906H32.2523C33.7698 22.1906 35 23.4234 35 24.9443V31.7463C35 33.2671 33.7698 34.5 32.2523 34.5H25.4651C23.9476 34.5 22.7174 33.2671 22.7174 31.7463V24.9443ZM25.392 24.8717H32.3249V31.8197H25.392V24.8717Z" fill="white"/>
</svg>