<svg width="20" height="20" viewBox="0 0 20 20" fill="none" xmlns="http://www.w3.org/2000/svg">
<path fill-rule="evenodd" clip-rule="evenodd" d="M13.2868 13.0129V16.5736H6.71326V13.0129H3.42649V3.42651H16.5736V13.0129H13.2868ZM17.6693 0.6875H2.33101C1.42339 0.6875 0.687622 1.42327 0.687622 2.33088V17.6691C0.687622 18.5767 1.42339 19.3125 2.33101 19.3125H17.6693C18.5769 19.3125 19.3126 18.5767 19.3126 17.6691V2.33088C19.3126 1.42327 18.5769 0.6875 17.6693 0.6875ZM7.20208 8.8335L5.79719 7.43139L4.69336 8.78515L7.20208 11.2026L11.9456 6.63165L10.7143 5.40076L7.20208 8.8335ZM9.3045 10.1866L10.5276 9.008L10.8728 9.35251L14.3497 5.95425L15.5687 7.17278L10.8728 11.6978L9.3045 10.1866Z" fill="white"/>
</svg>
