<svg width="867" height="500" viewBox="0 0 867 500" fill="none" xmlns="http://www.w3.org/2000/svg">
<path fill-rule="evenodd" clip-rule="evenodd" d="M0 0L867 0L867 500L0 500L0 0Z"/>
<mask id="mask0" mask-type="alpha" maskUnits="userSpaceOnUse" x="0" y="0" width="867" height="500">
<path fill-rule="evenodd" clip-rule="evenodd" d="M0 0L867 0L867 500L0 500L0 0Z" fill="white"/>
</mask>
<g mask="url(#mask0)">
<g opacity="0.4">
<path fill-rule="evenodd" clip-rule="evenodd" d="M320.424 287.238C327.443 286.276 330.844 283.4 330.472 278.952C330.152 275.126 326.494 272.906 320.095 272.834C313.515 272.761 306.934 272.815 300.353 272.814C294.763 272.813 289.173 272.814 283.08 272.814C283.862 269.531 284.459 267.152 284.991 264.759C286.652 257.308 288.557 249.868 287.822 242.137C287.31 236.754 284.158 233.273 280.148 233.564C274.606 233.966 274.946 238.135 274.571 242.149C273.077 258.125 266.686 271.107 251.669 278.724C248.172 280.498 244.115 280.299 240.756 281.937V323.716C263.756 329.17 286.851 328.607 309.931 328.05C312.288 327.992 314.994 327.755 316.661 325.023C317.721 320.813 315.011 318.356 311.536 316.161C319.853 314.684 321.17 308.152 320.604 306.656C320.038 305.159 318.528 303.509 317.152 302.036C321.829 302.454 324.141 300.272 325.279 296.325C326.587 291.784 323.731 289.492 320.424 287.238M232.105 330.747V273.826C233.12 272.468 234.473 272.738 235.638 272.823C253.4 274.127 262.424 260.135 265.035 248.237C265.679 245.31 265.933 242.273 266.11 239.272C266.523 232.267 269.876 227.465 275.908 225.554C282.12 223.587 288.888 225.92 292.836 231.456C298.194 238.97 296.937 247.3 295.697 255.597C295.306 258.21 294.721 260.792 294.059 264.259C301.369 264.259 308.361 264.234 315.353 264.27C318.549 264.285 321.784 264.127 324.936 264.548C338.583 266.37 343.108 278.891 334.54 290.853C334.362 293.405 332.529 303.232 329.209 305.583C330.385 309.247 326.962 317.408 325.792 319.325C326.42 331.74 320.53 336.22 311.004 336.582C284.738 337.58 258.449 337.583 232.105 330.747" fill="white"/>
</g>
<g opacity="0.4">
<path fill-rule="evenodd" clip-rule="evenodd" d="M882.881 191.856C910.294 188.098 923.573 176.868 922.123 159.497C920.872 144.56 906.585 135.887 881.598 135.608C855.902 135.321 830.202 135.533 804.503 135.529C782.675 135.525 760.843 135.529 737.048 135.529C740.104 122.707 742.433 113.418 744.513 104.075C750.999 74.9782 758.438 45.9234 755.567 15.7313C753.57 -5.28809 741.258 -18.8845 725.599 -17.7473C703.959 -16.1769 705.284 0.10215 703.821 15.7772C697.986 78.169 673.028 128.864 614.385 158.61C600.731 165.538 584.888 164.759 571.772 171.157V334.305C661.587 355.604 751.778 353.409 841.906 351.23C851.109 351.005 861.679 350.08 868.189 339.412C872.328 322.971 861.746 313.378 848.175 304.805C880.651 299.036 885.795 273.53 883.586 267.685C881.377 261.841 875.479 255.397 870.107 249.644C888.371 251.277 897.398 242.755 901.841 227.342C906.951 209.609 895.798 200.657 882.881 191.856M537.985 361.765V139.482C541.949 134.179 547.234 135.233 551.785 135.566C621.145 140.656 656.385 86.0167 666.584 39.554C669.097 28.1237 670.089 16.2643 670.781 4.54243C672.394 -22.8128 685.485 -41.562 709.043 -49.0267C733.3 -56.708 759.729 -47.5979 775.147 -25.9787C796.07 3.36358 791.164 35.8925 786.321 68.2964C784.796 78.4979 782.507 88.5827 779.923 102.121C808.47 102.121 835.774 102.025 863.078 102.162C875.561 102.221 888.194 101.604 900.502 103.25C953.794 110.364 971.466 159.26 938.006 205.972C937.31 215.941 930.153 254.314 917.187 263.495C921.78 277.803 908.413 309.674 903.845 317.16C906.296 365.643 883.297 383.138 846.098 384.55C743.524 388.449 640.863 388.457 537.985 361.765" fill="white"/>
</g>
</g>
</svg>
