<?xml version="1.0" standalone="no"?>
<!DOCTYPE svg PUBLIC "-//W3C//DTD SVG 1.1//EN" "http://www.w3.org/Graphics/SVG/1.1/DTD/svg11.dtd" >
<svg>
<metadata>
Created by FontForge 20110222 at Mon Aug 19 02:31:46 2013
 By Orthosie Webhosting
Copyright (c) JT Types Ltd, 2006. All rights reserved.
</metadata>
<defs>
<font id="BlissProRegular" horiz-adv-x="525" >
  <font-face 
    font-family="BlissProRegular"
    font-weight="400"
    font-stretch="normal"
    units-per-em="1000"
    panose-1="2 0 5 6 5 0 0 2 0 4"
    ascent="800"
    descent="-200"
    x-height="473"
    cap-height="659"
    bbox="-179 -241 1147 953"
    underline-thickness="50"
    underline-position="-50"
    unicode-range="U+0020-FB02"
  />
<missing-glyph horiz-adv-x="550" 
d="M50 0v659h450v-659h-450zM101 48h348v563h-348v-563zM231 222q-29 29 -29 60q0 25 20.5 48.5t44.5 38.5t44.5 37.5t20.5 47.5q0 21 -15.5 34t-39.5 13q-41 0 -85 -39l-27 35q49 51 117 51q48 0 77 -25.5t29 -65.5q0 -31 -20.5 -59t-45.5 -45t-45.5 -35.5t-20.5 -32.5
q0 -16 17 -35zM255 107q-16 0 -27 11t-11 28t11 28.5t27 11.5t26.5 -11.5t10.5 -28.5t-10.5 -28t-26.5 -11z" />
    <glyph glyph-name="fi" unicode="fi" horiz-adv-x="545" 
d="M97 0v402h-65v71h65v77q0 81 41 119.5t104 38.5q44 0 81 -17l-18 -71q-28 11 -54 11q-66 0 -66 -78v-80h121l-23 -71h-98v-402h-88zM386 0v473h88v-473h-88zM430 570q-24 0 -40 16.5t-16 40.5t16 40t40 16q25 0 41.5 -16t16.5 -40t-16.5 -40.5t-41.5 -16.5z" />
    <glyph glyph-name="fl" unicode="fl" horiz-adv-x="571" 
d="M97 0v402h-65v71h65v77q0 81 41 119.5t104 38.5q44 0 81 -17l-18 -71q-28 11 -54 11q-66 0 -66 -78v-80h121l-23 -71h-98v-402h-88zM383 93v615h88v-590q0 -26 8 -36.5t27 -10.5q14 0 30 6l18 -69q-34 -14 -73 -14q-98 0 -98 99z" />
    <glyph glyph-name=".notdef" horiz-adv-x="550" 
d="M50 0v659h450v-659h-450zM101 48h348v563h-348v-563zM231 222q-29 29 -29 60q0 25 20.5 48.5t44.5 38.5t44.5 37.5t20.5 47.5q0 21 -15.5 34t-39.5 13q-41 0 -85 -39l-27 35q49 51 117 51q48 0 77 -25.5t29 -65.5q0 -31 -20.5 -59t-45.5 -45t-45.5 -35.5t-20.5 -32.5
q0 -16 17 -35zM255 107q-16 0 -27 11t-11 28t11 28.5t27 11.5t26.5 -11.5t10.5 -28.5t-10.5 -28t-26.5 -11z" />
    <glyph glyph-name=".null" horiz-adv-x="0" 
 />
    <glyph glyph-name="nonmarkingreturn" horiz-adv-x="333" 
 />
    <glyph glyph-name="space" unicode=" " horiz-adv-x="223" 
 />
    <glyph glyph-name="exclam" unicode="!" horiz-adv-x="267" 
d="M110 181q-14 86 -17 159t-3 269v50h88v-51q0 -190 -3.5 -264.5t-16.5 -162.5h-48zM134 -8q-22 0 -38 16.5t-16 39.5t16 39t38 16t37.5 -16t15.5 -39t-15.5 -39.5t-37.5 -16.5z" />
    <glyph glyph-name="quotedbl" unicode="&#x22;" horiz-adv-x="357" 
d="M71 484l-12 224h85l-9 -224h-64zM227 484l-12 224h86l-10 -224h-64z" />
    <glyph glyph-name="numbersign" unicode="#" horiz-adv-x="683" 
d="M125 0l36 175h-119v72h135l35 165h-119v71h134l37 175h84l-37 -175h125l37 175h84l-37 -175h120v-71h-136l-35 -165h120v-72h-135l-37 -175h-83l36 175h-125l-36 -175h-84zM260 247h126l35 165h-126z" />
    <glyph glyph-name="dollar" unicode="$" horiz-adv-x="530" 
d="M217 -82v100q-79 5 -146 48l35 66q65 -42 135 -42q47 0 80.5 20t33.5 65q0 37 -28 66.5t-67.5 51t-79 45t-67.5 62t-28 89.5q0 59 39.5 103.5t110.5 52.5v96h68v-94q67 -6 114 -30v-76q-68 35 -139 35q-46 0 -73.5 -20.5t-27.5 -60.5q0 -30 20 -54.5t50 -41t64.5 -37.5
t64.5 -42.5t50 -57t20 -79.5q0 -66 -42 -109.5t-118 -54.5v-101h-69z" />
    <glyph glyph-name="percent" unicode="%" horiz-adv-x="847" 
d="M209 316q-67 0 -109.5 45t-42.5 129t42.5 129.5t109.5 45.5q66 0 109 -45.5t43 -129.5t-43 -129t-109 -45zM209 374q38 0 58.5 31.5t20.5 84.5t-20.5 84.5t-58.5 31.5t-58.5 -31.5t-20.5 -84.5t20.5 -84.5t58.5 -31.5zM638 -10q-66 0 -109 45.5t-43 128.5q0 84 43 129.5
t109 45.5t109 -45.5t43 -129.5q0 -83 -43 -128.5t-109 -45.5zM638 48q38 0 58.5 31.5t20.5 84.5q0 54 -20.5 85.5t-58.5 31.5t-58.5 -31.5t-20.5 -85.5q0 -53 20.5 -84.5t58.5 -31.5zM179 0l412 659h76l-412 -659h-76z" />
    <glyph glyph-name="ampersand" unicode="&#x26;" horiz-adv-x="730" 
d="M486 73q-104 -83 -226 -83q-93 0 -148 53.5t-55 132.5q0 128 143 192q-30 34 -44 52.5t-25 45.5t-11 57q0 60 48.5 101t127.5 41q80 0 127.5 -40t47.5 -104q0 -102 -140 -173q75 -90 160 -169q66 71 93 152l76 -19q-39 -109 -112 -185q66 -60 116 -60q14 0 25 3l17 -68
q-20 -8 -55 -8q-73 0 -165 79zM272 63q78 0 154 61q-94 88 -179 189q-99 -46 -99 -130q0 -53 34 -86.5t90 -33.5zM280 403q100 48 100 118q0 29 -21 53t-63 24q-41 0 -63 -22t-22 -52q0 -44 69 -121z" />
    <glyph glyph-name="quotesingle" unicode="'" horiz-adv-x="201" 
d="M70 484l-12 224h86l-10 -224h-64z" />
    <glyph glyph-name="parenleft" unicode="(" horiz-adv-x="324" 
d="M239 -236q-91 104 -127 228.5t-36 275.5t36 275.5t127 229.5l60 -43q-71 -97 -101 -198t-30 -264t29.5 -264t100.5 -196z" />
    <glyph glyph-name="parenright" unicode=")" horiz-adv-x="324" 
d="M26 -192q71 95 100.5 196t29.5 264t-29.5 264t-100.5 198l59 43q91 -104 127 -229t36 -276t-36 -275.5t-126 -228.5z" />
    <glyph glyph-name="asterisk" unicode="*" horiz-adv-x="479" 
d="M205 335q-1 30 7.5 87t9.5 73q-6 -4 -54 -42t-76 -53l-34 58q27 17 84 40t64 26q-4 2 -62 25t-85 40l33 59q27 -15 73.5 -52t57.5 -44q0 4 -9 66.5t-8 94.5h67q1 -31 -7.5 -92.5t-9.5 -67.5q7 5 55.5 42t76.5 52l33 -58q-27 -16 -83 -38t-66 -27q8 -4 64.5 -26.5
t84.5 -39.5l-34 -58q-28 15 -76.5 53.5t-54.5 42.5q0 -4 9 -66.5t8 -94.5h-68z" />
    <glyph glyph-name="plus" unicode="+" horiz-adv-x="532" 
d="M224 0v215h-195v74h195v210h83v-210h195v-74h-195v-215h-83z" />
    <glyph glyph-name="comma" unicode="," horiz-adv-x="236" 
d="M37 -119q46 76 46 152q0 33 -6 66l85 16q7 -29 7 -63q0 -107 -85 -196z" />
    <glyph glyph-name="hyphen" unicode="-" horiz-adv-x="359" 
d="M53 210v76h254v-76h-254z" />
    <glyph glyph-name="period" unicode="." horiz-adv-x="236" 
d="M118 -8q-22 0 -38 16.5t-16 39.5t16 39t38 16t38 -16t16 -39t-16 -39.5t-38 -16.5z" />
    <glyph glyph-name="slash" unicode="/" horiz-adv-x="367" 
d="M16 -34l250 730h86l-250 -730h-86z" />
    <glyph glyph-name="zero" unicode="0" horiz-adv-x="558" 
d="M279 -10q-105 0 -166.5 88t-61.5 249t61.5 249.5t166.5 88.5t166.5 -88.5t61.5 -249.5t-61.5 -249t-166.5 -88zM279 66q65 0 100 68.5t35 192.5q0 125 -34.5 193.5t-100.5 68.5q-65 0 -99.5 -68.5t-34.5 -193.5t34.5 -193t99.5 -68z" />
    <glyph glyph-name="one" unicode="1" horiz-adv-x="421" 
d="M220 0v570l-155 -74l-30 70l202 98h70v-664h-87z" />
    <glyph glyph-name="two" unicode="2" horiz-adv-x="515" 
d="M36 0q6 70 27 127t50 94t63 67.5t66.5 53.5t59 44.5t43 48t16.5 57.5q0 49 -32 73t-81 24q-78 0 -164 -45l-25 69q96 52 199 52q96 0 146 -46t50 -120q0 -46 -20 -84.5t-50.5 -64t-68 -54.5t-70.5 -56t-60 -70t-36 -94h307v-76h-420z" />
    <glyph glyph-name="three" unicode="3" horiz-adv-x="536" 
d="M36 24l25 72q66 -30 144 -30q75 0 119.5 30.5t44.5 91.5q0 80 -86 101q-31 7 -84 7h-76v73h64q85 0 124.5 31.5t39.5 84.5q0 48 -29 76t-86 28q-77 0 -157 -45l-26 69q92 52 192 52q96 0 147 -49.5t51 -123.5q0 -108 -104 -149v-2q58 -12 90.5 -51t32.5 -100
q0 -88 -65 -144t-191 -56q-94 0 -170 34z" />
    <glyph glyph-name="four" unicode="4" horiz-adv-x="560" 
d="M45 171v62l318 431h63v-420h97v-73h-97v-171h-87v171h-294zM142 243q9 0 38.5 0.5t42.5 0.5h116v138q0 67 5 142z" />
    <glyph glyph-name="five" unicode="5" horiz-adv-x="513" 
d="M43 20l25 72q55 -26 124 -26q72 0 118 34.5t46 99.5q0 81 -75 110q-38 14 -117 14h-75v335h362l-22 -76h-253v-187h26q77 0 121 -16q126 -46 126 -177q0 -94 -64.5 -153.5t-192.5 -59.5q-87 0 -149 30z" />
    <glyph glyph-name="six" unicode="6" horiz-adv-x="544" 
d="M288 -10q-103 0 -170 79.5t-67 232.5q0 154 78 258.5t209 104.5q68 0 128 -28l-24 -71q-49 25 -101 25q-78 0 -132 -60t-65 -168q76 50 161 50q86 0 142 -54t56 -149q0 -101 -60 -160.5t-155 -59.5zM288 64q58 0 90 35.5t32 100.5t-34 102t-89 37q-76 0 -142 -51
q0 -102 40 -163t103 -61z" />
    <glyph glyph-name="seven" unicode="7" horiz-adv-x="478" 
d="M83 0q63 327 252 583h-291l-21 76h430v-35q-211 -267 -278 -624h-92z" />
    <glyph glyph-name="eight" unicode="8" horiz-adv-x="557" 
d="M274 -10q-105 0 -164 48.5t-59 131.5q0 61 35 105t90 64v2q-105 50 -105 149q0 77 57 126t152 49q94 0 148 -49.5t54 -119.5q0 -103 -105 -153v-2q128 -47 128 -164q0 -82 -62 -134.5t-169 -52.5zM278 62q56 0 95 29t39 80q0 30 -12.5 52.5t-39 38t-48 23.5t-59.5 20
q-45 -15 -76.5 -47t-31.5 -78q0 -58 38 -88t95 -30zM298 374q91 38 91 116q0 44 -30.5 73.5t-81.5 29.5q-49 0 -81 -26.5t-32 -70.5q0 -50 36 -77.5t98 -44.5z" />
    <glyph glyph-name="nine" unicode="9" horiz-adv-x="538" 
d="M203 -10q-77 0 -144 29l23 72q61 -27 121 -27q85 0 134.5 59.5t57.5 173.5h-2q-66 -56 -154 -56q-81 0 -139.5 51t-58.5 153q0 97 60 158.5t154 61.5q107 0 169 -79t62 -233q0 -171 -72.5 -267t-210.5 -96zM258 315q39 0 76.5 19.5t59.5 48.5q0 94 -38.5 151t-102.5 57
q-55 0 -87.5 -39t-32.5 -100q0 -64 32.5 -100.5t92.5 -36.5z" />
    <glyph glyph-name="colon" unicode=":" horiz-adv-x="236" 
d="M118 333q-22 0 -38 16.5t-16 39.5t15.5 39t38.5 16t38.5 -16t15.5 -39t-16 -39.5t-38 -16.5zM118 -8q-22 0 -38 16.5t-16 39.5t16 39t38 16t38 -16t16 -39t-16 -39.5t-38 -16.5z" />
    <glyph glyph-name="semicolon" unicode=";" horiz-adv-x="236" 
d="M114 333q-22 0 -38 16.5t-16 39.5t15.5 39t38.5 16q22 0 37.5 -16t15.5 -39t-15.5 -39.5t-37.5 -16.5zM37 -119q46 76 46 152q0 33 -6 66l85 16q7 -29 7 -63q0 -107 -85 -196z" />
    <glyph glyph-name="less" unicode="&#x3c;" horiz-adv-x="576" 
d="M62 223v74l421 184v-77l-340 -143v-2l340 -143v-77z" />
    <glyph glyph-name="equal" unicode="=" horiz-adv-x="532" 
d="M29 125v75h473v-75h-473zM29 305v74h473v-74h-473z" />
    <glyph glyph-name="greater" unicode="&#x3e;" horiz-adv-x="576" 
d="M93 39v77l341 143v2l-341 143v77l421 -184v-74z" />
    <glyph glyph-name="question" unicode="?" horiz-adv-x="464" 
d="M152 181q-36 39 -36 87q0 33 20 62t48 49.5t56.5 40t48.5 44t20 52.5q0 35 -22.5 54t-59.5 19q-67 0 -132 -57l-41 58q83 75 184 75q78 0 122 -39.5t44 -101.5q0 -39 -20.5 -72.5t-50 -56t-59 -42.5t-50 -42t-20.5 -45q0 -27 20 -50zM193 -8q-22 0 -38 16.5t-16 39.5
t16 39t38 16t37.5 -16t15.5 -39t-15.5 -39.5t-37.5 -16.5z" />
    <glyph glyph-name="at" unicode="@" horiz-adv-x="771" 
d="M479 -58l18 -55q-69 -27 -153 -27q-135 0 -221.5 90.5t-86.5 239.5q0 171 105.5 275.5t257.5 104.5q147 0 241 -87t94 -229q0 -109 -47 -167t-121 -58q-40 0 -66 22t-32 62h-2q-15 -32 -52.5 -57t-84.5 -25q-52 0 -90 37.5t-38 118.5q0 98 59 160.5t148 62.5
q75 0 141 -40l-21 -161q-4 -38 -4 -52q0 -68 50 -68q42 0 68 43.5t26 117.5q0 110 -70.5 186t-200.5 76q-125 0 -209.5 -86.5t-84.5 -230.5q0 -131 70.5 -204t178.5 -73q74 0 127 24zM462 253l10 79q-29 19 -65 19q-55 0 -92 -45t-37 -117q0 -97 67 -97q41 0 74 37.5
t43 123.5z" />
    <glyph glyph-name="A" unicode="A" horiz-adv-x="602" 
d="M14 0l251 661h66l256 -661h-96l-64 173h-256l-63 -173h-94zM198 246h201l-62 172q-19 56 -37 110h-2q-7 -25 -38 -111z" />
    <glyph glyph-name="B" unicode="B" horiz-adv-x="545" 
d="M84 0v659h166q100 0 151.5 -47.5t51.5 -119.5q0 -48 -22.5 -85.5t-62.5 -55.5v-2q57 -13 92 -56.5t35 -103.5q0 -84 -59 -136.5t-167 -52.5h-185zM173 74h91q140 0 140 114q0 51 -35.5 81t-94.5 30h-101v-225zM173 373h67q60 0 92 28.5t32 78.5q0 48 -30 76.5t-92 28.5
h-69v-212z" />
    <glyph glyph-name="C" unicode="C" horiz-adv-x="602" 
d="M541 109l25 -71q-91 -48 -193 -48q-149 0 -234.5 92t-85.5 240q0 146 93 244.5t241 98.5q102 0 166 -35v-83q-79 42 -164 42q-109 0 -175.5 -76t-66.5 -187q0 -117 64 -188.5t172 -71.5q79 0 158 43z" />
    <glyph glyph-name="D" unicode="D" horiz-adv-x="663" 
d="M84 0v659h173q171 0 262 -89t91 -237q0 -149 -93.5 -241t-265.5 -92h-167zM173 76h78q138 0 201.5 71.5t63.5 187.5q0 114 -67.5 181t-198.5 67h-77v-507z" />
    <glyph glyph-name="E" unicode="E" horiz-adv-x="479" 
d="M84 0v659h333l-27 -76h-217v-209h215v-76h-215v-222h248v-76h-337z" />
    <glyph glyph-name="F" unicode="F" horiz-adv-x="457" 
d="M84 0v659h334l-26 -76h-219v-209h214v-76h-214v-298h-89z" />
    <glyph glyph-name="G" unicode="G" horiz-adv-x="684" 
d="M608 314v-273q-100 -51 -223 -51q-151 0 -241.5 91.5t-90.5 237.5q0 153 96 249.5t252 96.5q97 0 183 -35v-83q-84 42 -178 42q-123 0 -191 -72t-68 -190q0 -120 66.5 -190.5t179.5 -70.5q77 0 127 24v224h88z" />
    <glyph glyph-name="H" unicode="H" horiz-adv-x="691" 
d="M84 0v659h89v-284h346v284h88v-659h-88v299h-346v-299h-89z" />
    <glyph glyph-name="I" unicode="I" horiz-adv-x="257" 
d="M84 0v659h89v-659h-89z" />
    <glyph glyph-name="J" unicode="J" horiz-adv-x="301" 
d="M-28 -172l17 74q22 -9 53 -9q50 0 68 27t18 79v660h89v-676q0 -77 -41.5 -121.5t-128.5 -44.5q-37 0 -75 11z" />
    <glyph glyph-name="K" unicode="K" horiz-adv-x="557" 
d="M84 0v659h89v-295h2l242 295h105l-271 -324l288 -335h-110l-254 297h-2v-297h-89z" />
    <glyph glyph-name="L" unicode="L" horiz-adv-x="436" 
d="M84 0v659h89v-583h241v-76h-330z" />
    <glyph glyph-name="M" unicode="M" horiz-adv-x="800" 
d="M84 0v659h82l180 -268q45 -67 60 -92h2q24 42 58 96l168 264h82v-659h-88v407q0 71 1 104h-1q-11 -20 -47 -78l-152 -242h-44l-167 247q-31 45 -45 71h-2q2 -29 2 -100v-409h-89z" />
    <glyph glyph-name="N" unicode="N" horiz-adv-x="727" 
d="M643 0h-77l-307 404q-22 28 -87 119h-2q3 -46 3 -110v-413h-89v659h86l295 -389q37 -48 89 -123h2q-2 70 -2 114v398h89v-659z" />
    <glyph glyph-name="O" unicode="O" horiz-adv-x="756" 
d="M378 -10q-142 0 -233.5 93t-91.5 244q0 149 91.5 243.5t233.5 94.5t233 -95t91 -243q0 -151 -92 -244t-232 -93zM378 66q104 0 167 71t63 190q0 116 -61.5 189t-168.5 73q-104 0 -167.5 -72t-63.5 -190q0 -119 63 -190t168 -71z" />
    <glyph glyph-name="P" unicode="P" horiz-adv-x="516" 
d="M84 0v659h135q91 0 145 -30q99 -54 99 -181q0 -134 -116 -186q-54 -24 -136 -24h-38v-238h-89zM173 311h44q56 0 90 18q63 32 63 119q0 82 -59 117q-36 21 -93 21h-45v-275z" />
    <glyph glyph-name="Q" unicode="Q" horiz-adv-x="756" 
d="M288 1q-106 27 -170.5 113.5t-64.5 212.5q0 149 91.5 243.5t233.5 94.5t233 -95t91 -243q0 -144 -83 -234.5t-214 -99.5q65 -77 154 -77q40 0 74 12l21 -70q-46 -18 -107 -18q-83 0 -143.5 42.5t-115.5 118.5zM378 66q104 0 167 71t63 190q0 116 -61.5 189t-168.5 73
q-104 0 -167.5 -72t-63.5 -190q0 -119 63 -190t168 -71z" />
    <glyph glyph-name="R" unicode="R" horiz-adv-x="556" 
d="M84 0v659h149q92 0 146 -32q84 -47 84 -150q0 -133 -132 -173v-2q25 -14 80 -106l117 -196h-104l-108 183q-46 83 -75 90h-68v-273h-89zM173 346h59q49 0 85 21q54 29 54 101q0 60 -42 91q-36 27 -96 27h-60v-240z" />
    <glyph glyph-name="S" unicode="S" horiz-adv-x="505" 
d="M51 42l37 69q67 -45 144 -45q55 0 90.5 23.5t35.5 73.5q0 41 -29.5 71.5t-72 52.5t-85 46t-72 64t-29.5 95q0 74 54 123.5t146 49.5q85 0 149 -32v-81q-69 37 -146 37q-46 0 -78 -21.5t-32 -66.5q0 -38 30 -67.5t72.5 -51t84.5 -46.5t72 -67t30 -99q0 -83 -61 -131.5
t-158 -48.5q-105 0 -182 52z" />
    <glyph glyph-name="T" unicode="T" horiz-adv-x="509" 
d="M208 0v583h-190v76h488l-27 -76h-182v-583h-89z" />
    <glyph glyph-name="U" unicode="U" horiz-adv-x="666" 
d="M333 -10q-183 0 -236 136q-18 48 -18 113v420h89v-413q0 -56 15 -90q36 -90 150 -90q115 0 151 90q14 35 14 93v410h89v-420q0 -69 -20 -115q-53 -134 -234 -134z" />
    <glyph glyph-name="V" unicode="V" horiz-adv-x="621" 
d="M276 -4l-263 663h96l150 -388q26 -67 51 -140h2q28 84 51 142l149 386h96l-263 -663h-69z" />
    <glyph glyph-name="W" unicode="W" horiz-adv-x="914" 
d="M239 -4l-226 663h100l125 -391q26 -79 40 -135h3q21 74 43 134l95 279l-39 113h93l131 -390q39 -119 43 -136h2q15 63 38 134l121 392h93l-219 -663h-73l-103 300q-33 94 -43 132h-3q-10 -37 -43 -132l-105 -300h-73z" />
    <glyph glyph-name="X" unicode="X" horiz-adv-x="603" 
d="M18 0l232 331l-217 328h103l170 -260l179 260h100l-227 -325l221 -334h-101l-176 266l-185 -266h-99z" />
    <glyph glyph-name="Y" unicode="Y" horiz-adv-x="552" 
d="M233 0v263l-220 396h98l166 -313h2l163 313h97l-218 -398v-261h-88z" />
    <glyph glyph-name="Z" unicode="Z" horiz-adv-x="554" 
d="M42 0l330 583h-300l-24 76h463l-326 -583h339v-76h-482z" />
    <glyph glyph-name="bracketleft" unicode="[" horiz-adv-x="285" 
d="M80 -233v1005h180v-69h-97v-868h97v-68h-180z" />
    <glyph glyph-name="backslash" unicode="\" horiz-adv-x="374" 
d="M268 -34l-250 730h87l250 -730h-87z" />
    <glyph glyph-name="bracketright" unicode="]" horiz-adv-x="285" 
d="M26 -233v68h98v868h-98v69h181v-1005h-181z" />
    <glyph glyph-name="asciicircum" unicode="^" horiz-adv-x="565" 
d="M86 287l158 372h76l159 -372h-77l-119 292h-2l-118 -292h-77z" />
    <glyph glyph-name="underscore" unicode="_" horiz-adv-x="446" 
d="M0 -120v54h446v-54h-446z" />
    <glyph glyph-name="grave" unicode="`" horiz-adv-x="368" 
d="M164 531l-89 147h100l58 -147h-69z" />
    <glyph glyph-name="a" unicode="a" horiz-adv-x="471" 
d="M344 0l-15 51q-65 -61 -141 -61q-66 0 -109 40.5t-43 107.5q0 90 80 128q43 21 119 24l88 3v25q0 48 -26.5 72t-71.5 24q-66 0 -129 -37l-31 61q78 47 171 47q83 0 129 -41t46 -124v-172q0 -112 9 -148h-76zM323 230l-77 -3q-52 -1 -83 -17q-37 -21 -37 -67
q0 -37 22.5 -59t59.5 -22q61 0 115 54v114z" />
    <glyph glyph-name="b" unicode="b" horiz-adv-x="511" 
d="M205 -10q-83 0 -138 30v688h88v-243q53 20 101 20q95 0 156 -61.5t61 -173.5q0 -120 -75 -190t-193 -70zM219 65q73 0 118 49.5t45 131.5q0 74 -36.5 119t-102.5 45q-43 0 -88 -21v-313q30 -11 64 -11z" />
    <glyph glyph-name="c" unicode="c" horiz-adv-x="432" 
d="M267 -10q-107 0 -168 68.5t-61 173.5q0 108 67 180.5t173 72.5q68 0 121 -30v-77q-52 34 -114 34q-71 0 -113.5 -49t-42.5 -126q0 -82 40.5 -128t109.5 -46q53 0 113 33l26 -62q-64 -44 -151 -44z" />
    <glyph glyph-name="d" unicode="d" horiz-adv-x="517" 
d="M292 -10q-110 0 -182 63.5t-72 177.5q0 112 71 183t178 71q44 0 75 -9v232h88v-685q-61 -33 -158 -33zM294 65q43 0 68 11v324q-35 11 -69 11q-71 0 -117.5 -47.5t-46.5 -130.5q0 -78 44 -123t121 -45z" />
    <glyph glyph-name="e" unicode="e" horiz-adv-x="473" 
d="M434 217h-305q1 -68 41 -111.5t108 -43.5q59 0 118 32l27 -61q-68 -43 -155 -43q-112 0 -170.5 71t-58.5 179q0 109 55 177t145 68q92 0 143.5 -66t51.5 -180v-22zM129 283h214q-1 54 -27.5 93t-76.5 39q-49 0 -79 -38t-31 -94z" />
    <glyph glyph-name="f" unicode="f" horiz-adv-x="316" 
d="M97 0v402h-65v71h65v77q0 81 41 119.5t104 38.5q44 0 81 -17l-18 -71q-28 11 -54 11q-66 0 -66 -78v-80h121l-23 -71h-98v-402h-88z" />
    <glyph glyph-name="g" unicode="g" horiz-adv-x="483" 
d="M229 -237q-97 0 -154 36.5t-57 100.5q0 79 87 119q-33 19 -33 59q0 48 53 92q-76 47 -76 144q0 72 49.5 121t130.5 49q53 0 91 -18q6 -4 11 1q39 39 103 39q14 0 29 -3l-20 -66q-13 3 -29 3q-26 0 -42 -11q49 -49 49 -119q0 -77 -52 -124.5t-135 -47.5q-34 0 -60 9
q-22 -25 -22 -48q0 -25 32 -37t78 -17.5t92 -15t78 -38.5t32 -78q0 -67 -62.5 -108.5t-172.5 -41.5zM238 -171q66 0 102.5 21t36.5 54q0 28 -24.5 44.5t-55 21.5t-75 11.5t-67.5 13.5q-56 -36 -56 -80q0 -40 38 -63t101 -23zM235 208q44 0 71.5 27t27.5 76q0 45 -27.5 74
t-72.5 29q-44 0 -71.5 -27.5t-27.5 -74.5q0 -45 27 -74.5t73 -29.5z" />
    <glyph glyph-name="h" unicode="h" horiz-adv-x="521" 
d="M67 0v708h88v-292q81 69 161 69q62 0 103 -40.5t41 -127.5v-317h-88v288q0 119 -82 119q-62 0 -135 -64v-343h-88z" />
    <glyph glyph-name="i" unicode="i" horiz-adv-x="229" 
d="M70 0v473h88v-473h-88zM114 570q-24 0 -40 16.5t-16 40.5t16 40t40 16q25 0 41.5 -16t16.5 -40t-16.5 -40.5t-41.5 -16.5z" />
    <glyph glyph-name="j" unicode="j" horiz-adv-x="241" 
d="M-53 -222l18 73q27 -11 49 -11q36 0 52.5 22.5t16.5 72.5v538h88v-553q0 -77 -40 -117t-106 -40q-47 0 -78 15zM126 570q-24 0 -40 16.5t-16 40.5t16 40t40 16q25 0 41.5 -16t16.5 -40t-16.5 -40.5t-41.5 -16.5z" />
    <glyph glyph-name="k" unicode="k" horiz-adv-x="457" 
d="M67 0v708h88v-406h2l171 171h104l-203 -202l223 -271h-105l-190 235h-2v-235h-88z" />
    <glyph glyph-name="l" unicode="l" horiz-adv-x="255" 
d="M67 93v615h88v-590q0 -26 8 -36.5t27 -10.5q14 0 30 6l18 -69q-34 -14 -73 -14q-98 0 -98 99z" />
    <glyph glyph-name="m" unicode="m" horiz-adv-x="812" 
d="M62 0v473h74l10 -58q86 70 163 70q89 0 123 -79q88 79 174 79q63 0 104 -41.5t41 -126.5v-317h-88v291q0 55 -17 85.5t-62 30.5q-60 0 -134 -63q0 -4 0.5 -12.5t0.5 -12.5v-319h-88v290q0 56 -17 86.5t-62 30.5q-60 0 -134 -63v-344h-88z" />
    <glyph glyph-name="n" unicode="n" horiz-adv-x="516" 
d="M62 0v473h74l11 -58q85 70 164 70q62 0 103 -40.5t41 -127.5v-317h-88v288q0 119 -81 119q-61 0 -136 -64v-343h-88z" />
    <glyph glyph-name="o" unicode="o" 
d="M262 -10q-100 0 -162 70.5t-62 176.5q0 107 62.5 177.5t162.5 70.5q99 0 161.5 -71t62.5 -177t-62.5 -176.5t-162.5 -70.5zM262 63q62 0 98 48.5t36 125.5q0 78 -36 126.5t-97 48.5q-62 0 -98 -48.5t-36 -126.5q0 -77 36 -125.5t97 -48.5z" />
    <glyph glyph-name="p" unicode="p" horiz-adv-x="509" 
d="M62 -237v693q82 29 163 29q117 0 181.5 -65t64.5 -181q0 -112 -67.5 -180.5t-173.5 -68.5q-42 0 -80 15v-242h-88zM150 82q35 -17 76 -17q74 0 114 47t40 128q0 85 -43 128t-115 43q-34 0 -72 -11v-318z" />
    <glyph glyph-name="q" unicode="q" horiz-adv-x="513" 
d="M244 -10q-85 0 -145.5 62t-60.5 172q0 122 74 191.5t187 69.5q86 0 154 -28v-694h-88v261q-52 -34 -121 -34zM262 65q54 0 103 36v297q-34 13 -71 13q-77 0 -121 -50.5t-44 -132.5q0 -73 37 -118t96 -45z" />
    <glyph glyph-name="r" unicode="r" horiz-adv-x="334" 
d="M62 0v473h74l10 -58q66 70 133 70q34 0 56 -14l-31 -78q-22 12 -46 12q-46 0 -108 -61v-344h-88z" />
    <glyph glyph-name="s" unicode="s" horiz-adv-x="392" 
d="M24 32l28 66q60 -36 122 -36q43 0 69.5 16.5t26.5 51.5q0 26 -23 44t-55.5 30.5t-65 28t-55.5 45.5t-23 73q0 58 44 96t122 38q64 0 124 -23v-76q-61 27 -120 27q-83 0 -83 -58q0 -26 23 -44t55.5 -30.5t65 -28t55.5 -46t23 -75.5q0 -69 -51 -105t-129 -36q-87 0 -153 42
z" />
    <glyph glyph-name="t" unicode="t" horiz-adv-x="360" 
d="M217 -10q-55 0 -85.5 30.5t-30.5 85.5v296h-81v71h81v108l88 28v-136h142l-24 -71h-118v-279q0 -60 48 -60q36 0 76 25l29 -61q-52 -37 -125 -37z" />
    <glyph glyph-name="u" unicode="u" horiz-adv-x="514" 
d="M207 -10q-41 0 -78 21t-54 69q-13 38 -13 90v303h88v-287q0 -46 9 -70q18 -49 76 -49q35 0 68 17.5t53 41.5v347h88v-327q0 -112 10 -146h-78l-15 53q-70 -63 -154 -63z" />
    <glyph glyph-name="v" unicode="v" horiz-adv-x="459" 
d="M195 -3l-187 476h92l131 -360h2l127 360h91l-185 -476h-71z" />
    <glyph glyph-name="w" unicode="w" horiz-adv-x="708" 
d="M170 -3l-161 476h92l108 -359h2l106 359h77l110 -360h2l106 360h89l-163 -476h-72l-109 360h-2l-110 -360h-75z" />
    <glyph glyph-name="x" unicode="x" horiz-adv-x="460" 
d="M9 0l173 237l-166 236h97l120 -174l123 174h94l-169 -234l168 -239h-95l-124 177l-125 -177h-96z" />
    <glyph glyph-name="y" unicode="y" horiz-adv-x="483" 
d="M474 473l-178 -503q-23 -65 -49.5 -108t-55.5 -63.5t-54.5 -28t-59.5 -7.5q-52 0 -91 18l21 71q33 -15 68 -15q47 0 82 37.5t62 124.5l-210 474h95l155 -367h2l121 367h92z" />
    <glyph glyph-name="z" unicode="z" horiz-adv-x="393" 
d="M19 0l234 402h-201l-19 71h350l-231 -402h228v-71h-361z" />
    <glyph glyph-name="braceleft" unicode="{" horiz-adv-x="328" 
d="M278 -224q-89 11 -125 54.5t-36 119.5v217q0 70 -67 73v66q67 3 67 73v217q0 76 36 119.5t125 54.5l17 -80q-50 -7 -71.5 -32t-21.5 -73v-191q0 -108 -70 -120v-2q70 -12 70 -120v-191q0 -48 21.5 -73t71.5 -32z" />
    <glyph glyph-name="bar" unicode="|" horiz-adv-x="256" 
d="M86 -237v1017h84v-1017h-84z" />
    <glyph glyph-name="braceright" unicode="}" horiz-adv-x="328" 
d="M35 -144q49 7 70.5 32t21.5 73v191q0 108 71 120v2q-71 12 -71 120v191q0 48 -21.5 73t-70.5 32l16 80q90 -11 126 -54.5t36 -119.5v-217q0 -70 67 -73v-66q-67 -3 -67 -73v-217q0 -76 -36 -119.5t-126 -54.5z" />
    <glyph glyph-name="asciitilde" unicode="~" horiz-adv-x="532" 
d="M72 207l-46 54q67 67 136 67q38 0 109.5 -30t100.5 -30q24 0 42.5 9.5t45.5 33.5l46 -54q-67 -67 -137 -67q-37 0 -109 30t-100 30q-41 0 -88 -43z" />
    <glyph glyph-name="exclamdown" unicode="&#xa1;" horiz-adv-x="267" 
d="M134 373q-22 0 -38 16.5t-16 39.5t15.5 39t38.5 16q22 0 37.5 -16t15.5 -39t-15.5 -39.5t-37.5 -16.5zM90 -181v50q0 196 3 268.5t17 158.5h48q13 -86 16 -159t3 -269v-49h-87z" />
    <glyph glyph-name="cent" unicode="&#xa2;" horiz-adv-x="530" 
d="M248 0v106q-80 14 -125.5 75.5t-45.5 145.5q0 83 47.5 147.5t124.5 80.5v104h69v-96q62 -3 105 -28v-72q-48 30 -115 30q-62 0 -103.5 -44.5t-41.5 -115.5q0 -74 39.5 -117t102.5 -43q59 0 112 29l24 -64q-54 -32 -125 -35v-103h-68z" />
    <glyph glyph-name="sterling" unicode="&#xa3;" horiz-adv-x="530" 
d="M66 0v60q91 39 91 240h-76v73h76v79q0 63 20 108t52.5 66t63 30t63.5 9q59 0 117 -22l-19 -72q-41 18 -87 18q-54 0 -88.5 -34.5t-34.5 -111.5v-70h190l-24 -73h-166q0 -166 -65 -231v-2q48 6 106 6h186v-73h-405z" />
    <glyph glyph-name="currency" unicode="&#xa4;" horiz-adv-x="530" 
d="M459 78l-65 66q-58 -42 -129 -42q-72 0 -130 42l-65 -66l-55 54l66 66q-42 58 -42 130t41 130l-66 65l55 54l65 -66q59 43 131 43t131 -43l64 65l54 -54l-65 -64q42 -60 42 -130t-43 -131l65 -64zM265 170q64 0 108.5 46t44.5 112t-44.5 112.5t-108.5 46.5
q-65 0 -109.5 -46.5t-44.5 -112.5t44.5 -112t109.5 -46z" />
    <glyph glyph-name="yen" unicode="&#xa5;" horiz-adv-x="530" 
d="M221 0v119h-156v62h156v81h-156v61h128l-161 336h95l137 -312h2l137 312h94l-160 -336h127v-61h-155v-81h155v-62h-155v-119h-88z" />
    <glyph glyph-name="brokenbar" unicode="&#xa6;" horiz-adv-x="256" 
d="M86 -237v358h84v-358h-84zM86 423v357h84v-357h-84z" />
    <glyph glyph-name="section" unicode="&#xa7;" horiz-adv-x="536" 
d="M57 -113l36 65q66 -43 142 -43q53 0 88.5 21t35.5 70q0 28 -16 50t-42 37t-57 29t-62 30t-57 35.5t-42 49.5t-16 69q0 90 83 144q-51 44 -51 116t51.5 117.5t135.5 45.5q92 0 156 -32l-1 -78q-68 37 -147 37q-45 0 -76 -21.5t-31 -61.5q0 -38 30.5 -66t73.5 -47
t86.5 -40.5t74 -61t30.5 -95.5q0 -89 -82 -141q48 -46 48 -110q0 -84 -59.5 -127.5t-152.5 -43.5q-106 0 -179 52zM352 151q49 37 49 92q0 26 -12 47.5t-35 38t-45.5 28t-56.5 27.5t-54 27q-51 -32 -51 -90q0 -26 12.5 -47.5t36 -38t46.5 -28.5t56.5 -28t53.5 -28z" />
    <glyph glyph-name="dieresis" unicode="&#xa8;" horiz-adv-x="368" 
d="M93 555q-20 0 -34.5 14.5t-14.5 35.5q0 20 14.5 34.5t34.5 14.5t34.5 -14.5t14.5 -34.5q0 -21 -14.5 -35.5t-34.5 -14.5zM275 555q-21 0 -35.5 14.5t-14.5 35.5q0 20 14.5 34.5t35.5 14.5q20 0 34.5 -14.5t14.5 -34.5q0 -21 -14.5 -35.5t-34.5 -14.5z" />
    <glyph glyph-name="copyright" unicode="&#xa9;" horiz-adv-x="776" 
d="M388 -10q-144 0 -238 96.5t-94 240.5t94 240.5t238 96.5t238 -96.5t94 -240.5t-94 -240.5t-238 -96.5zM388 39q118 0 196 81.5t78 206.5q0 124 -77.5 205.5t-196.5 81.5t-196.5 -81.5t-77.5 -205.5q0 -125 78 -206.5t196 -81.5zM490 204l19 -45q-54 -32 -115 -32
q-83 0 -131.5 55t-48.5 140q0 86 51 145.5t137 59.5q53 0 95 -23v-55q-42 25 -94 25q-58 0 -94 -41t-36 -106q0 -69 34.5 -109t91.5 -40q45 0 91 26z" />
    <glyph glyph-name="ordfeminine" unicode="&#xaa;" horiz-adv-x="357" 
d="M27 137v58h301v-58h-301zM250 270l-10 32q-45 -39 -98 -39q-48 0 -79 28.5t-31 77.5q0 52 38 79.5t110 29.5l53 2v13q0 29 -18.5 43.5t-48.5 14.5q-45 0 -90 -24l-27 48q55 36 125 36q129 0 129 -122v-113q0 -73 10 -106h-63zM233 357v69l-51 -2q-77 -2 -77 -51
q0 -22 14 -36t38 -14q39 0 76 34z" />
    <glyph glyph-name="guillemotleft" unicode="&#xab;" horiz-adv-x="569" 
d="M275 411l-131 -170l131 -170l-64 -38l-167 208l167 208zM496 411l-131 -170l131 -170l-63 -38l-167 208l167 208z" />
    <glyph glyph-name="logicalnot" unicode="&#xac;" horiz-adv-x="532" 
d="M419 24v214h-390v75h473v-289h-83z" />
    <glyph glyph-name="registered" unicode="&#xae;" horiz-adv-x="578" 
d="M287 180q-104 0 -171 69t-67 173t67.5 173.5t170.5 69.5t171.5 -70t68.5 -173t-68.5 -172.5t-171.5 -69.5zM287 220q85 0 139.5 58t54.5 144q0 87 -54.5 144.5t-139.5 57.5t-139 -58t-54 -144t54.5 -144t138.5 -58zM209 297v260h69q27 0 46 -7q47 -15 47 -64
q0 -56 -62 -69v-1q19 -14 77 -119h-48q-56 104 -71 109h-17v-109h-41zM250 439h18q58 0 58 44q0 27 -22 35q-11 5 -36 5h-18v-84z" />
    <glyph glyph-name="macron" unicode="&#xaf;" horiz-adv-x="368" 
d="M54 572v70h260v-70h-260z" />
    <glyph glyph-name="degree" unicode="&#xb0;" horiz-adv-x="386" 
d="M192 353q-66 0 -109.5 43.5t-43.5 109.5t43.5 109.5t110.5 43.5t110.5 -43.5t43.5 -109.5t-44 -109.5t-111 -43.5zM193 413q37 0 62.5 26.5t25.5 66.5t-25.5 66.5t-62.5 26.5t-62.5 -26.5t-25.5 -66.5t25.5 -66.5t62.5 -26.5z" />
    <glyph glyph-name="plusminus" unicode="&#xb1;" horiz-adv-x="532" 
d="M224 129v151h-195v75h195v151h83v-151h195v-75h-195v-151h-83zM29 0v74h473v-74h-473z" />
    <glyph glyph-name="twosuperior" unicode="&#xb2;" horiz-adv-x="334" 
d="M27 404q2 52 22.5 93t48 65t54.5 43.5t45.5 39t18.5 41.5q0 21 -15.5 33.5t-41.5 12.5q-39 0 -97 -30l-22 56q69 37 131 37q58 0 90 -28.5t32 -74.5q0 -37 -24.5 -68t-55 -49.5t-60 -47t-36.5 -60.5h177v-63h-267z" />
    <glyph glyph-name="threesuperior" unicode="&#xb3;" horiz-adv-x="336" 
d="M19 420l20 56q42 -19 87 -19q84 0 84 58q0 36 -37 48q-20 8 -60 8h-43v56h36q34 0 57 9q34 15 34 49q0 24 -16.5 36t-42.5 12q-38 0 -89 -22l-20 56q63 28 122 28q56 0 89.5 -28t33.5 -72q0 -65 -68 -90v-2q39 -7 60 -31t21 -62q0 -49 -40.5 -81t-117.5 -32
q-64 0 -110 23z" />
    <glyph glyph-name="acute" unicode="&#xb4;" horiz-adv-x="368" 
d="M135 531l58 147h98l-89 -147h-67z" />
    <glyph glyph-name="mu" unicode="&#xb5;" horiz-adv-x="546" 
d="M359 203v270h88v-322q0 -47 9.5 -62.5t31.5 -15.5q13 0 29 6l18 -71q-30 -14 -66 -14q-40 0 -62.5 24t-27.5 64h-2q-41 -92 -134 -92q-60 0 -92 43h-2q4 -53 4 -131v-139h-88v710h88v-303q0 -47 24.5 -75t68.5 -28t78.5 34.5t34.5 101.5z" />
    <glyph glyph-name="paragraph" unicode="&#xb6;" horiz-adv-x="616" 
d="M265 -160v375q-91 4 -147 65.5t-56 156.5q0 97 61.5 159.5t165.5 62.5h231v-819h-76v755h-103v-755h-76z" />
    <glyph glyph-name="periodcentered" unicode="&#xb7;" horiz-adv-x="236" 
d="M118 197q-22 0 -38 16.5t-16 39.5t16 39t38 16t38 -16t16 -39t-16 -39.5t-38 -16.5z" />
    <glyph glyph-name="cedilla" unicode="&#xb8;" horiz-adv-x="368" 
d="M87 -201l15 48q23 -10 49 -10q23 0 37.5 9.5t14.5 27.5q0 23 -21 29.5t-63 6.5l27 90h69l-17 -52q82 -7 82 -73q0 -40 -32.5 -63.5t-90.5 -23.5q-35 0 -70 11z" />
    <glyph glyph-name="onesuperior" unicode="&#xb9;" horiz-adv-x="332" 
d="M176 404v313l-118 -45l-26 56l158 65h58v-389h-72z" />
    <glyph glyph-name="ordmasculine" unicode="&#xba;" horiz-adv-x="380" 
d="M33 137v58h315v-58h-315zM190 263q-72 0 -117 49.5t-45 124.5t45 124.5t117 49.5t117 -49.5t45 -124.5t-45 -124.5t-117 -49.5zM190 324q41 0 65.5 31.5t24.5 81.5t-24.5 81.5t-65.5 31.5t-65 -31.5t-24 -81.5t24 -81.5t65 -31.5z" />
    <glyph glyph-name="guillemotright" unicode="&#xbb;" horiz-adv-x="569" 
d="M72 71l132 170l-132 170l64 38l167 -208l-167 -208zM294 71l131 170l-131 170l63 38l168 -208l-168 -208z" />
    <glyph glyph-name="onequarter" unicode="&#xbc;" horiz-adv-x="887" 
d="M183 0l413 659h76l-413 -659h-76zM199 270v313l-118 -45l-26 56l158 65h58v-389h-72zM482 86v46l192 257h66v-246h53v-57h-53v-86h-71v86h-187zM561 142q7 0 31.5 0.5t38.5 0.5h38v36q0 68 3 112z" />
    <glyph glyph-name="onehalf" unicode="&#xbd;" horiz-adv-x="887" 
d="M173 0l413 659h76l-413 -659h-76zM191 270v313l-118 -45l-26 56l158 65h58v-389h-72zM543 0q2 52 22.5 93t48 65t54.5 43.5t45.5 39t18.5 41.5q0 21 -15.5 33.5t-41.5 12.5q-39 0 -97 -30l-22 56q69 37 131 37q58 0 90 -28.5t32 -74.5q0 -37 -24.5 -68t-55 -49.5t-60 -47
t-36.5 -60.5h177v-63h-267z" />
    <glyph glyph-name="threequarters" unicode="&#xbe;" horiz-adv-x="887" 
d="M214 0l413 659h76l-413 -659h-76zM501 86v46l192 257h66v-246h53v-57h-53v-86h-71v86h-187zM580 142q7 0 31.5 0.5t38.5 0.5h38v36q0 68 3 112zM55 286l20 56q42 -19 87 -19q84 0 84 58q0 36 -37 48q-20 8 -60 8h-43v56h36q34 0 57 9q34 15 34 49q0 24 -16.5 36t-42.5 12
q-38 0 -89 -22l-20 56q63 28 122 28q56 0 89.5 -28t33.5 -72q0 -65 -68 -90v-2q39 -7 60 -31t21 -62q0 -49 -40.5 -81t-117.5 -32q-64 0 -110 23z" />
    <glyph glyph-name="questiondown" unicode="&#xbf;" horiz-adv-x="459" 
d="M266 374q-23 0 -38.5 16t-15.5 39t16 39.5t38 16.5t37.5 -16.5t15.5 -39.5t-15.5 -39t-37.5 -16zM363 -55l41 -58q-81 -75 -184 -75q-78 0 -122 39.5t-44 101.5q0 48 31.5 88t69 62.5t69 51t31.5 56.5q0 27 -20 50l72 35q36 -39 36 -87q0 -33 -20 -62t-48.5 -49.5
t-56.5 -40t-48 -44t-20 -52.5q0 -35 22.5 -54t59.5 -19q68 0 131 57z" />
    <glyph glyph-name="Agrave" unicode="&#xc0;" horiz-adv-x="602" 
d="M14 0l251 661h66l256 -661h-96l-64 173h-256l-63 -173h-94zM198 246h201l-62 172q-19 56 -37 110h-2q-7 -25 -38 -111zM279 696l-89 147h100l58 -147h-69z" />
    <glyph glyph-name="Aacute" unicode="&#xc1;" horiz-adv-x="602" 
d="M14 0l251 661h66l256 -661h-96l-64 173h-256l-63 -173h-94zM198 246h201l-62 172q-19 56 -37 110h-2q-7 -25 -38 -111zM250 696l58 147h98l-89 -147h-67z" />
    <glyph glyph-name="Acircumflex" unicode="&#xc2;" horiz-adv-x="602" 
d="M14 0l251 661h66l256 -661h-96l-64 173h-256l-63 -173h-94zM198 246h201l-62 172q-19 56 -37 110h-2q-7 -25 -38 -111zM161 696l99 147h78l99 -147h-73l-65 93l-65 -93h-73z" />
    <glyph glyph-name="Atilde" unicode="&#xc3;" horiz-adv-x="602" 
d="M14 0l251 661h66l256 -661h-96l-64 173h-256l-63 -173h-94zM198 246h201l-62 172q-19 56 -37 110h-2q-7 -25 -38 -111zM154 724v28q0 36 21.5 57t53.5 21q30 0 72 -23t56 -23q25 0 25 40h61v-27q0 -37 -21 -58t-53 -21q-30 0 -72.5 23.5t-56.5 23.5q-25 0 -25 -41h-61z
" />
    <glyph glyph-name="Adieresis" unicode="&#xc4;" horiz-adv-x="602" 
d="M14 0l251 661h66l256 -661h-96l-64 173h-256l-63 -173h-94zM198 246h201l-62 172q-19 56 -37 110h-2q-7 -25 -38 -111zM208 704q-20 0 -34.5 14.5t-14.5 35.5q0 20 14.5 34.5t34.5 14.5t34.5 -14.5t14.5 -34.5q0 -21 -14.5 -35.5t-34.5 -14.5zM390 704q-21 0 -35.5 14.5
t-14.5 35.5q0 20 14.5 34.5t35.5 14.5q20 0 34.5 -14.5t14.5 -34.5q0 -21 -14.5 -35.5t-34.5 -14.5z" />
    <glyph glyph-name="Aring" unicode="&#xc5;" horiz-adv-x="602" 
d="M14 0l248 654q-33 8 -52.5 32t-19.5 59q0 44 29.5 70t77.5 26t78 -26t30 -70q0 -35 -19.5 -58.5t-52.5 -31.5l254 -655h-96l-64 173h-256l-63 -173h-94zM198 246h201l-62 173q-28 82 -37 113h-2q-8 -30 -38 -113zM297 694q21 0 34 13.5t13 37.5t-13 38t-34 14t-33.5 -14
t-12.5 -38t12.5 -37.5t33.5 -13.5z" />
    <glyph glyph-name="AE" unicode="&#xc6;" horiz-adv-x="810" 
d="M13 0l347 659h388l-26 -76h-268l37 -209h228v-76h-215l38 -222h211v-76h-288l-30 173h-236l-91 -173h-95zM238 246h185l-30 183q-2 14 -4.5 30.5t-5.5 37t-5 31.5h-1q-11 -26 -54 -112z" />
    <glyph glyph-name="Ccedilla" unicode="&#xc7;" horiz-adv-x="602" 
d="M246 -201l14 48q23 -10 50 -10q51 0 51 37q0 23 -21.5 30t-62.5 6l26 86q-118 21 -184 109t-66 217q0 146 93 244.5t241 98.5q102 0 166 -35v-83q-79 42 -164 42q-109 0 -175.5 -76t-66.5 -187q0 -117 64 -188.5t172 -71.5q79 0 158 43l25 -71q-94 -52 -196 -47l-13 -43
q82 -7 82 -73q0 -40 -33 -63.5t-91 -23.5q-34 0 -69 11z" />
    <glyph glyph-name="Egrave" unicode="&#xc8;" horiz-adv-x="479" 
d="M84 0v659h333l-27 -76h-217v-209h215v-76h-215v-222h248v-76h-337zM221 696l-89 147h100l58 -147h-69z" />
    <glyph glyph-name="Eacute" unicode="&#xc9;" horiz-adv-x="479" 
d="M84 0v659h333l-27 -76h-217v-209h215v-76h-215v-222h248v-76h-337zM198 696l58 147h98l-89 -147h-67z" />
    <glyph glyph-name="Ecircumflex" unicode="&#xca;" horiz-adv-x="479" 
d="M84 0v659h333l-27 -76h-217v-209h215v-76h-215v-222h248v-76h-337zM107 696l99 147h78l99 -147h-73l-65 93l-65 -93h-73z" />
    <glyph glyph-name="Edieresis" unicode="&#xcb;" horiz-adv-x="479" 
d="M84 0v659h333l-27 -76h-217v-209h215v-76h-215v-222h248v-76h-337zM157 704q-20 0 -34.5 14.5t-14.5 35.5q0 20 14.5 34.5t34.5 14.5t34.5 -14.5t14.5 -34.5q0 -21 -14.5 -35.5t-34.5 -14.5zM339 704q-21 0 -35.5 14.5t-14.5 35.5q0 20 14.5 34.5t35.5 14.5
q20 0 34.5 -14.5t14.5 -34.5q0 -21 -14.5 -35.5t-34.5 -14.5z" />
    <glyph glyph-name="Igrave" unicode="&#xcc;" horiz-adv-x="257" 
d="M84 0v659h89v-659h-89zM108 696l-89 147h100l58 -147h-69z" />
    <glyph glyph-name="Iacute" unicode="&#xcd;" horiz-adv-x="257" 
d="M84 0v659h89v-659h-89zM78 696l58 147h98l-89 -147h-67z" />
    <glyph glyph-name="Icircumflex" unicode="&#xce;" horiz-adv-x="257" 
d="M84 0v659h89v-659h-89zM-11 696l99 147h78l99 -147h-73l-65 93l-65 -93h-73z" />
    <glyph glyph-name="Idieresis" unicode="&#xcf;" horiz-adv-x="257" 
d="M84 0v659h89v-659h-89zM37 704q-20 0 -34.5 14.5t-14.5 35.5q0 20 14.5 34.5t34.5 14.5t34.5 -14.5t14.5 -34.5q0 -21 -14.5 -35.5t-34.5 -14.5zM219 704q-21 0 -35.5 14.5t-14.5 35.5q0 20 14.5 34.5t35.5 14.5q20 0 34.5 -14.5t14.5 -34.5q0 -21 -14.5 -35.5
t-34.5 -14.5z" />
    <glyph glyph-name="Eth" unicode="&#xd0;" horiz-adv-x="663" 
d="M84 0v297h-75v73h75v289h173q171 0 262 -89t91 -237q0 -149 -93.5 -241t-265.5 -92h-167zM173 76h78q138 0 201.5 71.5t63.5 187.5q0 114 -67.5 181t-198.5 67h-77v-213h159v-73h-159v-221z" />
    <glyph glyph-name="Ntilde" unicode="&#xd1;" horiz-adv-x="727" 
d="M643 0h-77l-307 404q-22 28 -87 119h-2q3 -46 3 -110v-413h-89v659h86l295 -389q37 -48 89 -123h2q-2 70 -2 114v398h89v-659zM221 724v28q0 36 21.5 57t53.5 21q30 0 72 -23t56 -23q25 0 25 40h61v-27q0 -37 -21 -58t-53 -21q-30 0 -72.5 23.5t-56.5 23.5q-25 0 -25 -41
h-61z" />
    <glyph glyph-name="Ograve" unicode="&#xd2;" horiz-adv-x="756" 
d="M378 -10q-142 0 -233.5 93t-91.5 244q0 149 91.5 243.5t233.5 94.5t233 -95t91 -243q0 -151 -92 -244t-232 -93zM378 66q104 0 167 71t63 190q0 116 -61.5 189t-168.5 73q-104 0 -167.5 -72t-63.5 -190q0 -119 63 -190t168 -71zM355 696l-89 147h100l58 -147h-69z" />
    <glyph glyph-name="Oacute" unicode="&#xd3;" horiz-adv-x="756" 
d="M378 -10q-142 0 -233.5 93t-91.5 244q0 149 91.5 243.5t233.5 94.5t233 -95t91 -243q0 -151 -92 -244t-232 -93zM378 66q104 0 167 71t63 190q0 116 -61.5 189t-168.5 73q-104 0 -167.5 -72t-63.5 -190q0 -119 63 -190t168 -71zM337 696l58 147h98l-89 -147h-67z" />
    <glyph glyph-name="Ocircumflex" unicode="&#xd4;" horiz-adv-x="756" 
d="M378 -10q-142 0 -233.5 93t-91.5 244q0 149 91.5 243.5t233.5 94.5t233 -95t91 -243q0 -151 -92 -244t-232 -93zM378 66q104 0 167 71t63 190q0 116 -61.5 189t-168.5 73q-104 0 -167.5 -72t-63.5 -190q0 -119 63 -190t168 -71zM240 696l99 147h78l99 -147h-73l-65 93
l-65 -93h-73z" />
    <glyph glyph-name="Otilde" unicode="&#xd5;" horiz-adv-x="756" 
d="M378 -10q-142 0 -233.5 93t-91.5 244q0 149 91.5 243.5t233.5 94.5t233 -95t91 -243q0 -151 -92 -244t-232 -93zM378 66q104 0 167 71t63 190q0 116 -61.5 189t-168.5 73q-104 0 -167.5 -72t-63.5 -190q0 -119 63 -190t168 -71zM235 724v28q0 36 21.5 57t53.5 21
q30 0 72 -23t56 -23q25 0 25 40h61v-27q0 -37 -21 -58t-53 -21q-30 0 -72.5 23.5t-56.5 23.5q-25 0 -25 -41h-61z" />
    <glyph glyph-name="Odieresis" unicode="&#xd6;" horiz-adv-x="756" 
d="M378 -10q-142 0 -233.5 93t-91.5 244q0 149 91.5 243.5t233.5 94.5t233 -95t91 -243q0 -151 -92 -244t-232 -93zM378 66q104 0 167 71t63 190q0 116 -61.5 189t-168.5 73q-104 0 -167.5 -72t-63.5 -190q0 -119 63 -190t168 -71zM290 704q-20 0 -34.5 14.5t-14.5 35.5
q0 20 14.5 34.5t34.5 14.5t34.5 -14.5t14.5 -34.5q0 -21 -14.5 -35.5t-34.5 -14.5zM472 704q-21 0 -35.5 14.5t-14.5 35.5q0 20 14.5 34.5t35.5 14.5q20 0 34.5 -14.5t14.5 -34.5q0 -21 -14.5 -35.5t-34.5 -14.5z" />
    <glyph glyph-name="multiply" unicode="&#xd7;" horiz-adv-x="555" 
d="M95 13l-55 55l183 183l-183 183l54 55l184 -183l183 183l54 -55l-183 -183l183 -183l-55 -54l-182 183z" />
    <glyph glyph-name="Oslash" unicode="&#xd8;" horiz-adv-x="759" 
d="M123 -21l-56 45l65 74q-77 91 -77 229q0 149 91.5 243.5t233.5 94.5q106 0 188 -61l65 76l57 -45l-68 -77q82 -93 82 -231q0 -151 -92 -244t-232 -93q-112 0 -194 62zM567 491l-330 -377q60 -49 143 -49q104 0 167.5 71.5t63.5 190.5q0 97 -44 164zM189 168l329 375
q-57 46 -138 46q-104 0 -168 -72t-64 -190q0 -97 41 -159z" />
    <glyph glyph-name="Ugrave" unicode="&#xd9;" horiz-adv-x="666" 
d="M333 -10q-183 0 -236 136q-18 48 -18 113v420h89v-413q0 -56 15 -90q36 -90 150 -90q115 0 151 90q14 35 14 93v410h89v-420q0 -69 -20 -115q-53 -134 -234 -134zM311 696l-89 147h100l58 -147h-69z" />
    <glyph glyph-name="Uacute" unicode="&#xda;" horiz-adv-x="666" 
d="M333 -10q-183 0 -236 136q-18 48 -18 113v420h89v-413q0 -56 15 -90q36 -90 150 -90q115 0 151 90q14 35 14 93v410h89v-420q0 -69 -20 -115q-53 -134 -234 -134zM293 696l58 147h98l-89 -147h-67z" />
    <glyph glyph-name="Ucircumflex" unicode="&#xdb;" horiz-adv-x="666" 
d="M333 -10q-183 0 -236 136q-18 48 -18 113v420h89v-413q0 -56 15 -90q36 -90 150 -90q115 0 151 90q14 35 14 93v410h89v-420q0 -69 -20 -115q-53 -134 -234 -134zM198 696l99 147h78l99 -147h-73l-65 93l-65 -93h-73z" />
    <glyph glyph-name="Udieresis" unicode="&#xdc;" horiz-adv-x="666" 
d="M333 -10q-183 0 -236 136q-18 48 -18 113v420h89v-413q0 -56 15 -90q36 -90 150 -90q115 0 151 90q14 35 14 93v410h89v-420q0 -69 -20 -115q-53 -134 -234 -134zM246 704q-20 0 -34.5 14.5t-14.5 35.5q0 20 14.5 34.5t34.5 14.5t34.5 -14.5t14.5 -34.5
q0 -21 -14.5 -35.5t-34.5 -14.5zM428 704q-21 0 -35.5 14.5t-14.5 35.5q0 20 14.5 34.5t35.5 14.5q20 0 34.5 -14.5t14.5 -34.5q0 -21 -14.5 -35.5t-34.5 -14.5z" />
    <glyph glyph-name="Yacute" unicode="&#xdd;" horiz-adv-x="552" 
d="M233 0v263l-220 396h98l166 -313h2l163 313h97l-218 -398v-261h-88zM230 696l58 147h98l-89 -147h-67z" />
    <glyph glyph-name="Thorn" unicode="&#xde;" horiz-adv-x="516" 
d="M84 0v659h89v-111h46q91 0 145 -30q99 -54 99 -181q0 -134 -116 -186q-54 -24 -136 -24h-38v-127h-89zM173 200h44q56 0 90 18q63 31 63 119q0 82 -59 117q-34 20 -93 20h-45v-274z" />
    <glyph glyph-name="germandbls" unicode="&#xdf;" horiz-adv-x="583" 
d="M62 -141v627q0 64 19.5 110t52.5 69t66.5 33t69.5 10q87 0 145.5 -53t58.5 -163v-24q-99 -20 -99 -76q0 -20 12.5 -38t32 -31t41.5 -31t41.5 -36t32 -48t12.5 -67q0 -75 -51 -113t-127 -38q-84 0 -145 39l28 67q57 -34 113 -34q95 0 95 76q0 35 -27 64.5t-59 48t-59 52.5
t-27 78q0 92 100 126q-2 60 -32 94t-86 34q-53 0 -86.5 -34t-33.5 -107v-635h-88z" />
    <glyph glyph-name="agrave" unicode="&#xe0;" horiz-adv-x="471" 
d="M344 0l-15 51q-65 -61 -141 -61q-66 0 -109 40.5t-43 107.5q0 90 80 128q43 21 119 24l88 3v25q0 48 -26.5 72t-71.5 24q-66 0 -129 -37l-31 61q78 47 171 47q83 0 129 -41t46 -124v-172q0 -112 9 -148h-76zM323 230l-77 -3q-52 -1 -83 -17q-37 -21 -37 -67
q0 -37 22.5 -59t59.5 -22q61 0 115 54v114zM215 531l-89 147h100l58 -147h-69z" />
    <glyph glyph-name="aacute" unicode="&#xe1;" horiz-adv-x="471" 
d="M344 0l-15 51q-65 -61 -141 -61q-66 0 -109 40.5t-43 107.5q0 90 80 128q43 21 119 24l88 3v25q0 48 -26.5 72t-71.5 24q-66 0 -129 -37l-31 61q78 47 171 47q83 0 129 -41t46 -124v-172q0 -112 9 -148h-76zM323 230l-77 -3q-52 -1 -83 -17q-37 -21 -37 -67
q0 -37 22.5 -59t59.5 -22q61 0 115 54v114zM186 531l58 147h98l-89 -147h-67z" />
    <glyph glyph-name="acircumflex" unicode="&#xe2;" horiz-adv-x="471" 
d="M344 0l-15 51q-65 -61 -141 -61q-66 0 -109 40.5t-43 107.5q0 90 80 128q43 21 119 24l88 3v25q0 48 -26.5 72t-71.5 24q-66 0 -129 -37l-31 61q78 47 171 47q83 0 129 -41t46 -124v-172q0 -112 9 -148h-76zM323 230l-77 -3q-52 -1 -83 -17q-37 -21 -37 -67
q0 -37 22.5 -59t59.5 -22q61 0 115 54v114zM96 531l99 147h78l99 -147h-73l-65 93l-65 -93h-73z" />
    <glyph glyph-name="atilde" unicode="&#xe3;" horiz-adv-x="471" 
d="M344 0l-15 51q-65 -61 -141 -61q-66 0 -109 40.5t-43 107.5q0 90 80 128q43 21 119 24l88 3v25q0 48 -26.5 72t-71.5 24q-66 0 -129 -37l-31 61q78 47 171 47q83 0 129 -41t46 -124v-172q0 -112 9 -148h-76zM323 230l-77 -3q-52 -1 -83 -17q-37 -21 -37 -67
q0 -37 22.5 -59t59.5 -22q61 0 115 54v114zM90 552v27q0 37 21 58t54 21q30 0 72 -23.5t56 -23.5q25 0 25 41h61v-28q0 -36 -21 -57t-53 -21q-30 0 -72.5 23t-56.5 23q-25 0 -25 -40h-61z" />
    <glyph glyph-name="adieresis" unicode="&#xe4;" horiz-adv-x="471" 
d="M344 0l-15 51q-65 -61 -141 -61q-66 0 -109 40.5t-43 107.5q0 90 80 128q43 21 119 24l88 3v25q0 48 -26.5 72t-71.5 24q-66 0 -129 -37l-31 61q78 47 171 47q83 0 129 -41t46 -124v-172q0 -112 9 -148h-76zM323 230l-77 -3q-52 -1 -83 -17q-37 -21 -37 -67
q0 -37 22.5 -59t59.5 -22q61 0 115 54v114zM144 555q-20 0 -34.5 14.5t-14.5 35.5q0 20 14.5 34.5t34.5 14.5t34.5 -14.5t14.5 -34.5q0 -21 -14.5 -35.5t-34.5 -14.5zM326 555q-21 0 -35.5 14.5t-14.5 35.5q0 20 14.5 34.5t35.5 14.5q20 0 34.5 -14.5t14.5 -34.5
q0 -21 -14.5 -35.5t-34.5 -14.5z" />
    <glyph glyph-name="aring" unicode="&#xe5;" horiz-adv-x="471" 
d="M344 0l-15 51q-65 -61 -141 -61q-66 0 -109 40.5t-43 107.5q0 90 80 128q43 21 119 24l88 3v25q0 48 -26.5 72t-71.5 24q-66 0 -129 -37l-31 61q78 47 171 47q83 0 129 -41t46 -124v-172q0 -112 9 -148h-76zM323 230l-77 -3q-52 -1 -83 -17q-37 -21 -37 -67
q0 -37 22.5 -59t59.5 -22q61 0 115 54v114zM235 523q-48 0 -77.5 26.5t-29.5 69.5t29.5 69.5t77.5 26.5t77.5 -26.5t29.5 -69.5t-29.5 -69.5t-77.5 -26.5zM235 567q21 0 33.5 14t12.5 38t-12.5 38t-33.5 14t-34 -14t-13 -38t13 -38t34 -14z" />
    <glyph glyph-name="ae" unicode="&#xe6;" horiz-adv-x="758" 
d="M193 -10q-69 0 -113 40t-44 108q0 74 54 110.5t144 36.5h93v33q0 48 -28 72t-73 24q-64 0 -130 -37l-31 61q78 47 170 47q107 0 144 -78h2q53 78 147 78q89 0 140 -65.5t51 -180.5v-19h-305q2 -71 41.5 -114.5t107.5 -43.5q58 0 118 32l27 -61q-68 -43 -156 -43
q-120 0 -180 88q-74 -88 -179 -88zM209 62q39 0 74.5 21.5t58.5 51.5q-12 36 -14 85h-88q-114 0 -114 -79q0 -35 23 -57t60 -22zM415 285h213q-2 55 -28.5 92.5t-75.5 37.5t-78 -37.5t-31 -92.5z" />
    <glyph glyph-name="ccedilla" unicode="&#xe7;" horiz-adv-x="432" 
d="M148 -201l14 48q23 -10 49 -10q23 0 37.5 9.5t14.5 27.5q0 17 -14.5 25.5t-28.5 9.5t-41 1l26 87q-80 18 -123.5 82t-43.5 153q0 108 67 180.5t173 72.5q68 0 121 -30v-77q-52 34 -114 34q-71 0 -113.5 -49t-42.5 -126q0 -82 40.5 -128t109.5 -46q53 0 113 33l26 -62
q-62 -44 -143 -44h-3l-13 -42q82 -7 82 -73q0 -40 -33 -63.5t-91 -23.5q-34 0 -69 11z" />
    <glyph glyph-name="egrave" unicode="&#xe8;" horiz-adv-x="473" 
d="M434 217h-305q1 -68 41 -111.5t108 -43.5q59 0 118 32l27 -61q-68 -43 -155 -43q-112 0 -170.5 71t-58.5 179q0 109 55 177t145 68q92 0 143.5 -66t51.5 -180v-22zM129 283h214q-1 54 -27.5 93t-76.5 39q-49 0 -79 -38t-31 -94zM222 531l-89 147h100l58 -147h-69z" />
    <glyph glyph-name="eacute" unicode="&#xe9;" horiz-adv-x="473" 
d="M434 217h-305q1 -68 41 -111.5t108 -43.5q59 0 118 32l27 -61q-68 -43 -155 -43q-112 0 -170.5 71t-58.5 179q0 109 55 177t145 68q92 0 143.5 -66t51.5 -180v-22zM129 283h214q-1 54 -27.5 93t-76.5 39q-49 0 -79 -38t-31 -94zM193 531l58 147h98l-89 -147h-67z" />
    <glyph glyph-name="ecircumflex" unicode="&#xea;" horiz-adv-x="473" 
d="M434 217h-305q1 -68 41 -111.5t108 -43.5q59 0 118 32l27 -61q-68 -43 -155 -43q-112 0 -170.5 71t-58.5 179q0 109 55 177t145 68q92 0 143.5 -66t51.5 -180v-22zM129 283h214q-1 54 -27.5 93t-76.5 39q-49 0 -79 -38t-31 -94zM103 531l99 147h78l99 -147h-73l-65 93
l-65 -93h-73z" />
    <glyph glyph-name="edieresis" unicode="&#xeb;" horiz-adv-x="473" 
d="M434 217h-305q1 -68 41 -111.5t108 -43.5q59 0 118 32l27 -61q-68 -43 -155 -43q-112 0 -170.5 71t-58.5 179q0 109 55 177t145 68q92 0 143.5 -66t51.5 -180v-22zM129 283h214q-1 54 -27.5 93t-76.5 39q-49 0 -79 -38t-31 -94zM151 555q-20 0 -34.5 14.5t-14.5 35.5
q0 20 14.5 34.5t34.5 14.5t34.5 -14.5t14.5 -34.5q0 -21 -14.5 -35.5t-34.5 -14.5zM333 555q-21 0 -35.5 14.5t-14.5 35.5q0 20 14.5 34.5t35.5 14.5q20 0 34.5 -14.5t14.5 -34.5q0 -21 -14.5 -35.5t-34.5 -14.5z" />
    <glyph glyph-name="igrave" unicode="&#xec;" horiz-adv-x="229" 
d="M96 531l-89 147h100l58 -147h-69zM70 0v473h88v-473h-88z" />
    <glyph glyph-name="iacute" unicode="&#xed;" horiz-adv-x="229" 
d="M67 531l58 147h98l-89 -147h-67zM70 0v473h88v-473h-88z" />
    <glyph glyph-name="icircumflex" unicode="&#xee;" horiz-adv-x="229" 
d="M70 0v473h88v-473h-88zM-23 531l99 147h78l99 -147h-73l-65 93l-65 -93h-73z" />
    <glyph glyph-name="idieresis" unicode="&#xef;" horiz-adv-x="229" 
d="M25 555q-20 0 -34.5 14.5t-14.5 35.5q0 20 14.5 34.5t34.5 14.5t34.5 -14.5t14.5 -34.5q0 -21 -14.5 -35.5t-34.5 -14.5zM207 555q-21 0 -35.5 14.5t-14.5 35.5q0 20 14.5 34.5t35.5 14.5q20 0 34.5 -14.5t14.5 -34.5q0 -21 -14.5 -35.5t-34.5 -14.5zM70 0v473h88v-473
h-88z" />
    <glyph glyph-name="eth" unicode="&#xf0;" horiz-adv-x="541" 
d="M451 662l-93 -43q129 -107 129 -329q0 -151 -62.5 -225.5t-164.5 -74.5q-99 0 -160.5 69t-61.5 175q0 108 57.5 177.5t155.5 69.5q48 0 90 -23t66 -59h2q-23 119 -122 185l-133 -62l-23 47l94 42q-46 20 -123 25l15 72q116 -9 194 -55l117 55zM262 63q62 0 98 47.5
t36 127.5q0 76 -36.5 123t-97.5 47q-62 0 -97.5 -48t-35.5 -125q0 -78 36 -125t97 -47z" />
    <glyph glyph-name="ntilde" unicode="&#xf1;" horiz-adv-x="516" 
d="M62 0v473h74l11 -58q85 70 164 70q62 0 103 -40.5t41 -127.5v-317h-88v288q0 119 -81 119q-61 0 -136 -64v-343h-88zM104 552v27q0 37 21 58t54 21q30 0 72 -23.5t56 -23.5q25 0 25 41h61v-28q0 -36 -21 -57t-53 -21q-30 0 -72.5 23t-56.5 23q-25 0 -25 -40h-61z" />
    <glyph glyph-name="ograve" unicode="&#xf2;" 
d="M262 -10q-100 0 -162 70.5t-62 176.5q0 107 62.5 177.5t162.5 70.5q99 0 161.5 -71t62.5 -177t-62.5 -176.5t-162.5 -70.5zM262 63q62 0 98 48.5t36 125.5q0 78 -36 126.5t-97 48.5q-62 0 -98 -48.5t-36 -126.5q0 -77 36 -125.5t97 -48.5zM239 531l-89 147h100l58 -147
h-69z" />
    <glyph glyph-name="oacute" unicode="&#xf3;" 
d="M262 -10q-100 0 -162 70.5t-62 176.5q0 107 62.5 177.5t162.5 70.5q99 0 161.5 -71t62.5 -177t-62.5 -176.5t-162.5 -70.5zM262 63q62 0 98 48.5t36 125.5q0 78 -36 126.5t-97 48.5q-62 0 -98 -48.5t-36 -126.5q0 -77 36 -125.5t97 -48.5zM221 531l58 147h98l-89 -147
h-67z" />
    <glyph glyph-name="ocircumflex" unicode="&#xf4;" 
d="M262 -10q-100 0 -162 70.5t-62 176.5q0 107 62.5 177.5t162.5 70.5q99 0 161.5 -71t62.5 -177t-62.5 -176.5t-162.5 -70.5zM262 63q62 0 98 48.5t36 125.5q0 78 -36 126.5t-97 48.5q-62 0 -98 -48.5t-36 -126.5q0 -77 36 -125.5t97 -48.5zM124 531l99 147h78l99 -147h-73
l-65 93l-65 -93h-73z" />
    <glyph glyph-name="otilde" unicode="&#xf5;" 
d="M262 -10q-100 0 -162 70.5t-62 176.5q0 107 62.5 177.5t162.5 70.5q99 0 161.5 -71t62.5 -177t-62.5 -176.5t-162.5 -70.5zM262 63q62 0 98 48.5t36 125.5q0 78 -36 126.5t-97 48.5q-62 0 -98 -48.5t-36 -126.5q0 -77 36 -125.5t97 -48.5zM118 552v27q0 37 21 58t54 21
q30 0 72 -23.5t56 -23.5q25 0 25 41h61v-28q0 -36 -21 -57t-53 -21q-30 0 -72.5 23t-56.5 23q-25 0 -25 -40h-61z" />
    <glyph glyph-name="odieresis" unicode="&#xf6;" 
d="M262 -10q-100 0 -162 70.5t-62 176.5q0 107 62.5 177.5t162.5 70.5q99 0 161.5 -71t62.5 -177t-62.5 -176.5t-162.5 -70.5zM262 63q62 0 98 48.5t36 125.5q0 78 -36 126.5t-97 48.5q-62 0 -98 -48.5t-36 -126.5q0 -77 36 -125.5t97 -48.5zM172 555q-20 0 -34.5 14.5
t-14.5 35.5q0 20 14.5 34.5t34.5 14.5t34.5 -14.5t14.5 -34.5q0 -21 -14.5 -35.5t-34.5 -14.5zM354 555q-21 0 -35.5 14.5t-14.5 35.5q0 20 14.5 34.5t35.5 14.5q20 0 34.5 -14.5t14.5 -34.5q0 -21 -14.5 -35.5t-34.5 -14.5z" />
    <glyph glyph-name="divide" unicode="&#xf7;" horiz-adv-x="532" 
d="M267 370q-21 0 -35.5 15.5t-14.5 36.5q0 22 14.5 37.5t35.5 15.5t36 -15.5t15 -37.5q0 -21 -15 -36.5t-36 -15.5zM29 215v74h473v-74h-473zM267 29q-21 0 -35.5 15t-14.5 37t14.5 37t35.5 15t36 -15t15 -37t-15 -37t-36 -15z" />
    <glyph glyph-name="oslash" unicode="&#xf8;" 
d="M92 -22l-43 34l46 56q-57 70 -57 169q0 107 62.5 177.5t162.5 70.5q72 0 128 -43l40 51l43 -35l-43 -53q56 -69 56 -168q0 -106 -62.5 -176.5t-162.5 -70.5q-71 0 -128 42zM182 92q33 -30 80 -30q62 0 98.5 49t36.5 126q0 57 -20 99zM148 137l195 245q-33 31 -80 31
q-62 0 -98.5 -49t-36.5 -127q0 -58 20 -100z" />
    <glyph glyph-name="ugrave" unicode="&#xf9;" horiz-adv-x="514" 
d="M207 -10q-41 0 -78 21t-54 69q-13 38 -13 90v303h88v-287q0 -46 9 -70q18 -49 76 -49q35 0 68 17.5t53 41.5v347h88v-327q0 -112 10 -146h-78l-15 53q-70 -63 -154 -63zM232 531l-89 147h100l58 -147h-69z" />
    <glyph glyph-name="uacute" unicode="&#xfa;" horiz-adv-x="514" 
d="M207 -10q-41 0 -78 21t-54 69q-13 38 -13 90v303h88v-287q0 -46 9 -70q18 -49 76 -49q35 0 68 17.5t53 41.5v347h88v-327q0 -112 10 -146h-78l-15 53q-70 -63 -154 -63zM210 531l58 147h98l-89 -147h-67z" />
    <glyph glyph-name="ucircumflex" unicode="&#xfb;" horiz-adv-x="514" 
d="M207 -10q-41 0 -78 21t-54 69q-13 38 -13 90v303h88v-287q0 -46 9 -70q18 -49 76 -49q35 0 68 17.5t53 41.5v347h88v-327q0 -112 10 -146h-78l-15 53q-70 -63 -154 -63zM118 531l99 147h78l99 -147h-73l-65 93l-65 -93h-73z" />
    <glyph glyph-name="udieresis" unicode="&#xfc;" horiz-adv-x="514" 
d="M207 -10q-41 0 -78 21t-54 69q-13 38 -13 90v303h88v-287q0 -46 9 -70q18 -49 76 -49q35 0 68 17.5t53 41.5v347h88v-327q0 -112 10 -146h-78l-15 53q-70 -63 -154 -63zM166 555q-20 0 -34.5 14.5t-14.5 35.5q0 20 14.5 34.5t34.5 14.5t34.5 -14.5t14.5 -34.5
q0 -21 -14.5 -35.5t-34.5 -14.5zM348 555q-21 0 -35.5 14.5t-14.5 35.5q0 20 14.5 34.5t35.5 14.5q20 0 34.5 -14.5t14.5 -34.5q0 -21 -14.5 -35.5t-34.5 -14.5z" />
    <glyph glyph-name="yacute" unicode="&#xfd;" horiz-adv-x="483" 
d="M474 473l-178 -503q-23 -65 -49.5 -108t-55.5 -63.5t-54.5 -28t-59.5 -7.5q-52 0 -91 18l21 71q33 -15 68 -15q47 0 82 37.5t62 124.5l-210 474h95l155 -367h2l121 367h92zM199 531l58 147h98l-89 -147h-67z" />
    <glyph glyph-name="thorn" unicode="&#xfe;" horiz-adv-x="514" 
d="M67 -237v945h88v-233q40 10 82 10q112 0 175.5 -64.5t63.5 -178.5q0 -113 -67 -182.5t-175 -69.5q-41 0 -79 15v-242h-88zM155 82q35 -17 75 -17q74 0 114.5 47.5t40.5 128.5q0 84 -43.5 127t-114.5 43q-39 0 -72 -12v-317z" />
    <glyph glyph-name="ydieresis" unicode="&#xff;" horiz-adv-x="483" 
d="M474 473l-178 -503q-23 -65 -49.5 -108t-55.5 -63.5t-54.5 -28t-59.5 -7.5q-52 0 -91 18l21 71q33 -15 68 -15q47 0 82 37.5t62 124.5l-210 474h95l155 -367h2l121 367h92zM157 555q-20 0 -34.5 14.5t-14.5 35.5q0 20 14.5 34.5t34.5 14.5t34.5 -14.5t14.5 -34.5
q0 -21 -14.5 -35.5t-34.5 -14.5zM339 555q-21 0 -35.5 14.5t-14.5 35.5q0 20 14.5 34.5t35.5 14.5q20 0 34.5 -14.5t14.5 -34.5q0 -21 -14.5 -35.5t-34.5 -14.5z" />
    <glyph glyph-name="Amacron" unicode="&#x100;" horiz-adv-x="602" 
d="M14 0l251 661h66l256 -661h-96l-64 173h-256l-63 -173h-94zM198 246h201l-62 172q-19 56 -37 110h-2q-7 -25 -38 -111zM169 713v69h260v-69h-260z" />
    <glyph glyph-name="amacron" unicode="&#x101;" horiz-adv-x="471" 
d="M344 0l-15 51q-65 -61 -141 -61q-66 0 -109 40.5t-43 107.5q0 90 80 128q43 21 119 24l88 3v25q0 48 -26.5 72t-71.5 24q-66 0 -129 -37l-31 61q78 47 171 47q83 0 129 -41t46 -124v-172q0 -112 9 -148h-76zM323 230l-77 -3q-52 -1 -83 -17q-37 -21 -37 -67
q0 -37 22.5 -59t59.5 -22q61 0 115 54v114zM105 572v70h260v-70h-260z" />
    <glyph glyph-name="Abreve" unicode="&#x102;" horiz-adv-x="602" 
d="M14 0l251 661h66l256 -661h-96l-64 173h-256l-63 -173h-94zM198 246h201l-62 172q-19 56 -37 110h-2q-7 -25 -38 -111zM368 828h63q-4 -59 -39.5 -93.5t-93.5 -34.5t-92.5 34t-38.5 94h63q4 -31 21.5 -49.5t47.5 -18.5t47.5 18.5t21.5 49.5z" />
    <glyph glyph-name="abreve" unicode="&#x103;" horiz-adv-x="471" 
d="M344 0l-15 51q-65 -61 -141 -61q-66 0 -109 40.5t-43 107.5q0 90 80 128q43 21 119 24l88 3v25q0 48 -26.5 72t-71.5 24q-66 0 -129 -37l-31 61q78 47 171 47q83 0 129 -41t46 -124v-172q0 -112 9 -148h-76zM323 230l-77 -3q-52 -1 -83 -17q-37 -21 -37 -67
q0 -37 22.5 -59t59.5 -22q61 0 115 54v114zM304 671h63q-4 -59 -39.5 -93.5t-93.5 -34.5t-92.5 34t-38.5 94h63q4 -31 21.5 -49.5t47.5 -18.5t47.5 18.5t21.5 49.5z" />
    <glyph glyph-name="Aogonek" unicode="&#x104;" horiz-adv-x="602" 
d="M14 0l251 661h66l256 -661q-53 -20 -85.5 -52t-32.5 -65q0 -39 37 -39q17 0 38 7l11 -53q-33 -11 -67 -11q-45 0 -70 23t-25 58q0 72 97 138l-63 167h-256l-63 -173h-94zM198 246h201l-62 172q-19 56 -37 110h-2q-7 -25 -38 -111z" />
    <glyph glyph-name="aogonek" unicode="&#x105;" horiz-adv-x="471" 
d="M420 -3q-102 -50 -102 -114q0 -39 37 -39q18 0 38 7l11 -53q-33 -11 -67 -11q-45 0 -70 23t-25 58q0 76 100 139l-13 44q-65 -61 -141 -61q-66 0 -109 40.5t-43 107.5q0 90 80 128q43 21 119 24l88 3v25q0 48 -26.5 72t-71.5 24q-66 0 -129 -37l-31 61q78 47 171 47
q83 0 129 -41t46 -124v-173q0 -114 9 -150zM208 62q61 0 115 54v114l-77 -3q-52 -1 -83 -17q-37 -21 -37 -67q0 -37 22.5 -59t59.5 -22z" />
    <glyph glyph-name="Cacute" unicode="&#x106;" horiz-adv-x="602" 
d="M541 109l25 -71q-91 -48 -193 -48q-149 0 -234.5 92t-85.5 240q0 146 93 244.5t241 98.5q102 0 166 -35v-83q-79 42 -164 42q-109 0 -175.5 -76t-66.5 -187q0 -117 64 -188.5t172 -71.5q79 0 158 43zM291 696l58 147h98l-89 -147h-67z" />
    <glyph glyph-name="cacute" unicode="&#x107;" horiz-adv-x="432" 
d="M267 -10q-107 0 -168 68.5t-61 173.5q0 108 67 180.5t173 72.5q68 0 121 -30v-77q-52 34 -114 34q-71 0 -113.5 -49t-42.5 -126q0 -82 40.5 -128t109.5 -46q53 0 113 33l26 -62q-64 -44 -151 -44zM201 531l58 147h98l-89 -147h-67z" />
    <glyph glyph-name="Ccircumflex" unicode="&#x108;" horiz-adv-x="602" 
d="M541 109l25 -71q-91 -48 -193 -48q-149 0 -234.5 92t-85.5 240q0 146 93 244.5t241 98.5q102 0 166 -35v-83q-79 42 -164 42q-109 0 -175.5 -76t-66.5 -187q0 -117 64 -188.5t172 -71.5q79 0 158 43zM204 696l99 147h78l99 -147h-73l-65 93l-65 -93h-73z" />
    <glyph glyph-name="ccircumflex" unicode="&#x109;" horiz-adv-x="432" 
d="M267 -10q-107 0 -168 68.5t-61 173.5q0 108 67 180.5t173 72.5q68 0 121 -30v-77q-52 34 -114 34q-71 0 -113.5 -49t-42.5 -126q0 -82 40.5 -128t109.5 -46q53 0 113 33l26 -62q-64 -44 -151 -44zM111 531l99 147h78l99 -147h-73l-65 93l-65 -93h-73z" />
    <glyph glyph-name="Cdotaccent" unicode="&#x10a;" horiz-adv-x="602" 
d="M541 109l25 -71q-91 -48 -193 -48q-149 0 -234.5 92t-85.5 240q0 146 93 244.5t241 98.5q102 0 166 -35v-83q-79 42 -164 42q-109 0 -175.5 -76t-66.5 -187q0 -117 64 -188.5t172 -71.5q79 0 158 43zM350 714q-25 0 -40.5 16t-15.5 40t16 40.5t40 16.5q25 0 41 -16
t16 -41q0 -24 -16 -40t-41 -16z" />
    <glyph glyph-name="cdotaccent" unicode="&#x10b;" horiz-adv-x="432" 
d="M267 -10q-107 0 -168 68.5t-61 173.5q0 108 67 180.5t173 72.5q68 0 121 -30v-77q-52 34 -114 34q-71 0 -113.5 -49t-42.5 -126q0 -82 40.5 -128t109.5 -46q53 0 113 33l26 -62q-64 -44 -151 -44zM249 570q-24 0 -40 16.5t-16 40.5t16 40t40 16q25 0 41 -16t16 -40
t-16 -40.5t-41 -16.5z" />
    <glyph glyph-name="Ccaron" unicode="&#x10c;" horiz-adv-x="602" 
d="M541 109l25 -71q-91 -48 -193 -48q-149 0 -234.5 92t-85.5 240q0 146 93 244.5t241 98.5q102 0 166 -35v-83q-79 42 -164 42q-109 0 -175.5 -76t-66.5 -187q0 -117 64 -188.5t172 -71.5q79 0 158 43zM304 696l-100 147h74l66 -93l64 93h72l-98 -147h-78z" />
    <glyph glyph-name="ccaron" unicode="&#x10d;" horiz-adv-x="432" 
d="M267 -10q-107 0 -168 68.5t-61 173.5q0 108 67 180.5t173 72.5q68 0 121 -30v-77q-52 34 -114 34q-71 0 -113.5 -49t-42.5 -126q0 -82 40.5 -128t109.5 -46q53 0 113 33l26 -62q-64 -44 -151 -44zM211 532l-100 147h74l66 -93l64 93h72l-98 -147h-78z" />
    <glyph glyph-name="Dcaron" unicode="&#x10e;" horiz-adv-x="663" 
d="M84 0v659h173q171 0 262 -89t91 -237q0 -149 -93.5 -241t-265.5 -92h-167zM173 76h78q138 0 201.5 71.5t63.5 187.5q0 114 -67.5 181t-198.5 67h-77v-507zM252 696l-100 147h74l66 -93l64 93h72l-98 -147h-78z" />
    <glyph glyph-name="dcaron" unicode="&#x10f;" horiz-adv-x="520" 
d="M292 -10q-110 0 -182 63.5t-72 177.5q0 112 71 183t178 71q44 0 75 -9v232h88v-685q-61 -33 -158 -33zM294 65q43 0 68 11v324q-35 11 -69 11q-71 0 -117.5 -47.5t-46.5 -130.5q0 -78 44 -123t121 -45zM489 513l36 195h89l-58 -195h-67z" />
    <glyph glyph-name="Dcroat" unicode="&#x110;" horiz-adv-x="663" 
d="M84 0v297h-75v73h75v289h173q171 0 262 -89t91 -237q0 -149 -93.5 -241t-265.5 -92h-167zM173 76h78q138 0 201.5 71.5t63.5 187.5q0 114 -67.5 181t-198.5 67h-77v-213h159v-73h-159v-221z" />
    <glyph glyph-name="dcroat" unicode="&#x111;" horiz-adv-x="520" 
d="M286 -10q-107 0 -177.5 63.5t-70.5 178.5q0 112 71.5 182.5t179.5 70.5q35 0 73 -9v84h-133v69h133v79h88v-79h60v-69h-60v-535q-65 -35 -164 -35zM293 65q41 0 69 11v326q-35 11 -69 11q-71 0 -118 -47.5t-47 -129.5q0 -77 44.5 -124t120.5 -47z" />
    <glyph glyph-name="Emacron" unicode="&#x112;" horiz-adv-x="479" 
d="M84 0v659h333l-27 -76h-217v-209h215v-76h-215v-222h248v-76h-337zM118 713v69h260v-69h-260z" />
    <glyph glyph-name="emacron" unicode="&#x113;" horiz-adv-x="473" 
d="M434 217h-305q1 -68 41 -111.5t108 -43.5q59 0 118 32l27 -61q-68 -43 -155 -43q-112 0 -170.5 71t-58.5 179q0 109 55 177t145 68q92 0 143.5 -66t51.5 -180v-22zM129 283h214q-1 54 -27.5 93t-76.5 39q-49 0 -79 -38t-31 -94zM111 572v70h260v-70h-260z" />
    <glyph glyph-name="Ebreve" unicode="&#x114;" horiz-adv-x="479" 
d="M84 0v659h333l-27 -76h-217v-209h215v-76h-215v-222h248v-76h-337zM314 828h63q-4 -59 -39.5 -93.5t-93.5 -34.5t-92.5 34t-38.5 94h63q4 -31 21.5 -49.5t47.5 -18.5t47.5 18.5t21.5 49.5z" />
    <glyph glyph-name="ebreve" unicode="&#x115;" horiz-adv-x="473" 
d="M434 217h-305q1 -68 41 -111.5t108 -43.5q59 0 118 32l27 -61q-68 -43 -155 -43q-112 0 -170.5 71t-58.5 179q0 109 55 177t145 68q92 0 143.5 -66t51.5 -180v-22zM129 283h214q-1 54 -27.5 93t-76.5 39q-49 0 -79 -38t-31 -94zM311 671h63q-4 -59 -39.5 -93.5
t-93.5 -34.5t-92.5 34t-38.5 94h63q9 -68 69 -68t69 68z" />
    <glyph glyph-name="Edotaccent" unicode="&#x116;" horiz-adv-x="479" 
d="M84 0v659h333l-27 -76h-217v-209h215v-76h-215v-222h248v-76h-337zM243 714q-25 0 -40.5 16t-15.5 40t16 40.5t40 16.5q25 0 41 -16t16 -41q0 -24 -16 -40t-41 -16z" />
    <glyph glyph-name="edotaccent" unicode="&#x117;" horiz-adv-x="473" 
d="M434 217h-305q1 -68 41 -111.5t108 -43.5q59 0 118 32l27 -61q-68 -43 -155 -43q-112 0 -170.5 71t-58.5 179q0 109 55 177t145 68q92 0 143.5 -66t51.5 -180v-22zM129 283h214q-1 54 -27.5 93t-76.5 39q-49 0 -79 -38t-31 -94zM241 570q-24 0 -40 16.5t-16 40.5t16 40
t40 16q25 0 41 -16t16 -40t-16 -40.5t-41 -16.5z" />
    <glyph glyph-name="Eogonek" unicode="&#x118;" horiz-adv-x="479" 
d="M84 0v659h333l-27 -76h-217v-209h215v-76h-215v-222h248v-76h-17q-105 -52 -105 -117q0 -39 37 -39q17 0 38 7l11 -53q-33 -11 -67 -11q-45 0 -70 23t-25 58q0 72 88 132h-227z" />
    <glyph glyph-name="eogonek" unicode="&#x119;" horiz-adv-x="473" 
d="M205 -132q0 69 75 121v2q-2 0 -9 -0.5t-11 -0.5q-108 1 -165 72t-57 178q0 109 55 177t145 68q92 0 144 -66t52 -180v-22h-306q2 -69 41.5 -112t108.5 -43q58 0 117 32l28 -61q-142 -80 -142 -150q0 -39 37 -39q17 0 38 7l11 -53q-33 -11 -67 -11q-45 0 -70 23t-25 58z
M128 283h215q-2 55 -28.5 93.5t-76.5 38.5q-49 0 -79 -38t-31 -94z" />
    <glyph glyph-name="Ecaron" unicode="&#x11a;" horiz-adv-x="479" 
d="M84 0v659h333l-27 -76h-217v-209h215v-76h-215v-222h248v-76h-337zM208 696l-100 147h74l66 -93l64 93h72l-98 -147h-78z" />
    <glyph glyph-name="ecaron" unicode="&#x11b;" horiz-adv-x="473" 
d="M434 217h-305q1 -68 41 -111.5t108 -43.5q59 0 118 32l27 -61q-68 -43 -155 -43q-112 0 -170.5 71t-58.5 179q0 109 55 177t145 68q92 0 143.5 -66t51.5 -180v-22zM129 283h214q-1 54 -27.5 93t-76.5 39q-49 0 -79 -38t-31 -94zM203 532l-100 147h74l66 -93l64 93h72
l-98 -147h-78z" />
    <glyph glyph-name="Gcircumflex" unicode="&#x11c;" horiz-adv-x="684" 
d="M608 314v-273q-100 -51 -223 -51q-151 0 -241.5 91.5t-90.5 237.5q0 153 96 249.5t252 96.5q97 0 183 -35v-83q-84 42 -178 42q-123 0 -191 -72t-68 -190q0 -120 66.5 -190.5t179.5 -70.5q77 0 127 24v224h88zM228 696l99 147h78l99 -147h-73l-65 93l-65 -93h-73z" />
    <glyph glyph-name="gcircumflex" unicode="&#x11d;" horiz-adv-x="483" 
d="M229 -237q-97 0 -154 36.5t-57 100.5q0 79 87 119q-33 19 -33 59q0 48 53 92q-76 47 -76 144q0 72 49.5 121t130.5 49q53 0 91 -18q6 -4 11 1q39 39 103 39q14 0 29 -3l-20 -66q-13 3 -29 3q-26 0 -42 -11q49 -49 49 -119q0 -77 -52 -124.5t-135 -47.5q-34 0 -60 9
q-22 -25 -22 -48q0 -25 32 -37t78 -17.5t92 -15t78 -38.5t32 -78q0 -67 -62.5 -108.5t-172.5 -41.5zM238 -171q66 0 102.5 21t36.5 54q0 28 -24.5 44.5t-55 21.5t-75 11.5t-67.5 13.5q-56 -36 -56 -80q0 -40 38 -63t101 -23zM235 208q44 0 71.5 27t27.5 76q0 45 -27.5 74
t-72.5 29q-44 0 -71.5 -27.5t-27.5 -74.5q0 -45 27 -74.5t73 -29.5zM96 531l99 147h78l99 -147h-73l-65 93l-65 -93h-73z" />
    <glyph glyph-name="Gbreve" unicode="&#x11e;" horiz-adv-x="684" 
d="M608 314v-273q-100 -51 -223 -51q-151 0 -241.5 91.5t-90.5 237.5q0 153 96 249.5t252 96.5q97 0 183 -35v-83q-84 42 -178 42q-123 0 -191 -72t-68 -190q0 -120 66.5 -190.5t179.5 -70.5q77 0 127 24v224h88zM432 828h63q-4 -59 -39.5 -93.5t-93.5 -34.5t-92.5 34
t-38.5 94h63q4 -31 21.5 -49.5t47.5 -18.5t47.5 18.5t21.5 49.5z" />
    <glyph glyph-name="gbreve" unicode="&#x11f;" horiz-adv-x="483" 
d="M229 -237q-97 0 -154 36.5t-57 100.5q0 79 87 119q-33 19 -33 59q0 48 53 92q-76 47 -76 144q0 72 49.5 121t130.5 49q53 0 91 -18q6 -4 11 1q39 39 103 39q14 0 29 -3l-20 -66q-13 3 -29 3q-26 0 -42 -11q49 -49 49 -119q0 -77 -52 -124.5t-135 -47.5q-34 0 -60 9
q-22 -25 -22 -48q0 -25 32 -37t78 -17.5t92 -15t78 -38.5t32 -78q0 -67 -62.5 -108.5t-172.5 -41.5zM238 -171q66 0 102.5 21t36.5 54q0 28 -24.5 44.5t-55 21.5t-75 11.5t-67.5 13.5q-56 -36 -56 -80q0 -40 38 -63t101 -23zM235 208q44 0 71.5 27t27.5 76q0 45 -27.5 74
t-72.5 29q-44 0 -71.5 -27.5t-27.5 -74.5q0 -45 27 -74.5t73 -29.5zM304 671h63q-4 -59 -39.5 -93.5t-93.5 -34.5t-92.5 34t-38.5 94h63q4 -31 21.5 -49.5t47.5 -18.5t47.5 18.5t21.5 49.5z" />
    <glyph glyph-name="Gdotaccent" unicode="&#x120;" horiz-adv-x="684" 
d="M608 314v-273q-100 -51 -223 -51q-151 0 -241.5 91.5t-90.5 237.5q0 153 96 249.5t252 96.5q97 0 183 -35v-83q-84 42 -178 42q-123 0 -191 -72t-68 -190q0 -120 66.5 -190.5t179.5 -70.5q77 0 127 24v224h88zM366 714q-25 0 -40.5 16t-15.5 40t16 40.5t40 16.5
q25 0 41 -16t16 -41q0 -24 -16 -40t-41 -16z" />
    <glyph glyph-name="gdotaccent" unicode="&#x121;" horiz-adv-x="483" 
d="M229 -237q-97 0 -154 36.5t-57 100.5q0 79 87 119q-33 19 -33 59q0 48 53 92q-76 47 -76 144q0 72 49.5 121t130.5 49q53 0 91 -18q6 -4 11 1q39 39 103 39q14 0 29 -3l-20 -66q-13 3 -29 3q-26 0 -42 -11q49 -49 49 -119q0 -77 -52 -124.5t-135 -47.5q-34 0 -60 9
q-22 -25 -22 -48q0 -25 32 -37t78 -17.5t92 -15t78 -38.5t32 -78q0 -67 -62.5 -108.5t-172.5 -41.5zM238 -171q66 0 102.5 21t36.5 54q0 28 -24.5 44.5t-55 21.5t-75 11.5t-67.5 13.5q-56 -36 -56 -80q0 -40 38 -63t101 -23zM235 208q44 0 71.5 27t27.5 76q0 45 -27.5 74
t-72.5 29q-44 0 -71.5 -27.5t-27.5 -74.5q0 -45 27 -74.5t73 -29.5zM234 570q-24 0 -40 16.5t-16 40.5t16 40t40 16q25 0 41 -16t16 -40t-16 -40.5t-41 -16.5z" />
    <glyph glyph-name="Gcommaaccent" unicode="&#x122;" horiz-adv-x="682" 
d="M606 314v-273q-100 -51 -223 -51q-151 0 -241.5 91.5t-90.5 237.5q0 153 96 249.5t252 96.5q97 0 183 -35v-83q-84 42 -178 42q-123 0 -191 -72t-68 -190q0 -120 66.5 -190.5t179.5 -70.5q77 0 127 24v224h88zM300 -237l-23 56q72 18 72 67q0 27 -22 62h77q24 -32 24 -73
q0 -89 -128 -112z" />
    <glyph glyph-name="gcommaaccent" unicode="&#x123;" horiz-adv-x="483" 
d="M271 531h-77q-24 32 -24 73q0 89 128 112l23 -56q-72 -18 -72 -67q0 -27 22 -62zM229 -237q-97 0 -154 36.5t-57 100.5q0 79 87 119q-33 19 -33 59q0 48 53 92q-76 47 -76 144q0 72 49.5 121t130.5 49q53 0 91 -18q6 -4 11 1q39 39 103 39q14 0 29 -3l-20 -66
q-13 3 -29 3q-26 0 -42 -11q49 -49 49 -119q0 -77 -52 -124.5t-135 -47.5q-34 0 -60 9q-22 -25 -22 -48q0 -25 32 -37t78 -17.5t92 -15t78 -38.5t32 -78q0 -67 -62.5 -108.5t-172.5 -41.5zM238 -171q66 0 102.5 21t36.5 54q0 28 -24.5 44.5t-55 21.5t-75 11.5t-67.5 13.5
q-56 -36 -56 -80q0 -40 38 -63t101 -23zM235 208q44 0 71.5 27t27.5 76q0 45 -27.5 74t-72.5 29q-44 0 -71.5 -27.5t-27.5 -74.5q0 -45 27 -74.5t73 -29.5z" />
    <glyph glyph-name="Hcircumflex" unicode="&#x124;" horiz-adv-x="691" 
d="M84 0v659h89v-284h346v284h88v-659h-88v299h-346v-299h-89zM210 696l99 147h78l99 -147h-73l-65 93l-65 -93h-73z" />
    <glyph glyph-name="hcircumflex" unicode="&#x125;" horiz-adv-x="521" 
d="M67 0v708h88v-292q81 69 161 69q62 0 103 -40.5t41 -127.5v-317h-88v288q0 119 -82 119q-62 0 -135 -64v-343h-88zM-26 726l99 147h78l99 -147h-73l-65 93l-65 -93h-73z" />
    <glyph glyph-name="Hbar" unicode="&#x126;" horiz-adv-x="691" 
d="M84 0v478h-64v70h64v111h89v-111h346v111h88v-111h64v-70h-64v-478h-88v299h-346v-299h-89zM173 375h346v103h-346v-103z" />
    <glyph glyph-name="hbar" unicode="&#x127;" horiz-adv-x="516" 
d="M62 0v555h-61v69h61v84h88v-84h134v-69h-134v-139q81 69 161 69q62 0 103 -40.5t41 -127.5v-317h-88v288q0 119 -81 119q-61 0 -136 -64v-343h-88z" />
    <glyph glyph-name="Itilde" unicode="&#x128;" horiz-adv-x="257" 
d="M84 0v659h89v-659h-89zM-17 724v28q0 36 21.5 57t53.5 21q30 0 72 -23t56 -23q25 0 25 40h61v-27q0 -37 -21 -58t-53 -21q-30 0 -72.5 23.5t-56.5 23.5q-25 0 -25 -41h-61z" />
    <glyph glyph-name="itilde" unicode="&#x129;" horiz-adv-x="229" 
d="M-29 552v27q0 37 21.5 58t53.5 21q30 0 72 -23.5t56 -23.5q25 0 25 41h61v-28q0 -36 -21 -57t-53 -21q-30 0 -72.5 23t-56.5 23q-25 0 -25 -40h-61zM70 0v473h88v-473h-88z" />
    <glyph glyph-name="imacron" unicode="&#x12b;" horiz-adv-x="229" 
d="M-14 572v70h260v-70h-260zM70 0v473h88v-473h-88z" />
    <glyph glyph-name="Ibreve" unicode="&#x12c;" horiz-adv-x="257" 
d="M84 0v659h89v-659h-89zM197 828h63q-4 -59 -39.5 -93.5t-93.5 -34.5t-92.5 34t-38.5 94h63q9 -68 69 -68t69 68z" />
    <glyph glyph-name="Iogonek" unicode="&#x12e;" horiz-adv-x="257" 
d="M84 5v654h89v-659q-37 -22 -58.5 -52.5t-21.5 -60.5q0 -43 38 -43q17 0 37 7l11 -53q-36 -11 -66 -11q-46 0 -71 23.5t-25 64.5q0 70 67 130z" />
    <glyph glyph-name="iogonek" unicode="&#x12f;" horiz-adv-x="229" 
d="M4 -125q0 69 66 130v468h88v-473q-37 -22 -58 -52.5t-21 -60.5q0 -43 39 -43q16 0 36 7l12 -53q-38 -11 -66 -11q-46 0 -71 23.5t-25 64.5zM114 570q-24 0 -40 16.5t-16 40.5t16 40t40 16q25 0 41.5 -16t16.5 -40t-16.5 -40.5t-41.5 -16.5z" />
    <glyph glyph-name="Idotaccent" unicode="&#x130;" horiz-adv-x="257" 
d="M84 0v659h89v-659h-89zM129 714q-25 0 -40.5 16t-15.5 40t16 40.5t40 16.5q25 0 41 -16t16 -41q0 -24 -16 -40t-41 -16z" />
    <glyph glyph-name="dotlessi" unicode="&#x131;" horiz-adv-x="229" 
d="M70 0v473h88v-473h-88z" />
    <glyph glyph-name="IJ" unicode="&#x132;" horiz-adv-x="558" 
d="M84 0v659h89v-659h-89zM229 -172l17 74q22 -9 53 -9q50 0 68 27t18 79v660h89v-676q0 -77 -41.5 -121.5t-128.5 -44.5q-36 0 -75 11z" />
    <glyph glyph-name="ij" unicode="&#x133;" horiz-adv-x="470" 
d="M70 0v473h88v-473h-88zM114 570q-24 0 -40 16.5t-16 40.5t16 40t40 16q25 0 41.5 -16t16.5 -40t-16.5 -40.5t-41.5 -16.5zM176 -222l18 73q28 -11 49 -11q36 0 52.5 22.5t16.5 72.5v538h88v-553q0 -77 -40 -117t-106 -40q-47 0 -78 15zM355 570q-24 0 -40 16.5t-16 40.5
t16 40t40 16q25 0 41.5 -16t16.5 -40t-16.5 -40.5t-41.5 -16.5z" />
    <glyph glyph-name="Jcircumflex" unicode="&#x134;" horiz-adv-x="301" 
d="M-28 -172l17 74q22 -9 53 -9q50 0 68 27t18 79v660h89v-676q0 -77 -41.5 -121.5t-128.5 -44.5q-37 0 -75 11zM32 696l99 147h78l99 -147h-73l-65 93l-65 -93h-73z" />
    <glyph glyph-name="jcircumflex" unicode="&#x135;" horiz-adv-x="241" 
d="M-53 -220l18 67q29 -11 50 -11q37 0 52.5 24.5t15.5 74.5v538h88v-550q0 -81 -41 -120.5t-100 -39.5q-45 0 -83 17zM-17 531l98 147h78l99 -147h-73l-65 93l-65 -93h-72z" />
    <glyph glyph-name="Kcommaaccent" unicode="&#x136;" horiz-adv-x="557" 
d="M84 0v659h89v-295h2l242 295h105l-271 -324l288 -335h-110l-254 297h-2v-297h-89zM208 -237l-23 56q72 18 72 67q0 27 -22 62h77q24 -32 24 -73q0 -89 -128 -112z" />
    <glyph glyph-name="kcommaaccent" unicode="&#x137;" horiz-adv-x="457" 
d="M67 0v708h88v-406h2l171 171h104l-203 -202l223 -271h-105l-190 235h-2v-235h-88zM164 -237l-23 56q72 18 72 67q0 27 -22 62h77q24 -32 24 -73q0 -89 -128 -112z" />
    <glyph glyph-name="Lacute" unicode="&#x139;" horiz-adv-x="436" 
d="M84 0v659h89v-583h241v-76h-330zM88 696l58 147h98l-89 -147h-67z" />
    <glyph glyph-name="lacute" unicode="&#x13a;" horiz-adv-x="255" 
d="M69 732l50 127h96l-77 -127h-69zM67 93v615h88v-590q0 -26 8 -36.5t27 -10.5q14 0 30 6l18 -69q-34 -14 -73 -14q-98 0 -98 99z" />
    <glyph glyph-name="Lcommaaccent" unicode="&#x13b;" horiz-adv-x="436" 
d="M84 0v659h89v-583h241v-76h-330zM173 -237l-23 56q72 18 72 67q0 27 -22 62h77q24 -32 24 -73q0 -89 -128 -112z" />
    <glyph glyph-name="lcommaaccent" unicode="&#x13c;" horiz-adv-x="255" 
d="M64 93v615h88v-590q0 -26 8 -36.5t27 -10.5q14 0 30 6l18 -69q-34 -14 -73 -14q-98 0 -98 99zM78 -237l-23 56q72 18 72 67q0 27 -22 62h77q24 -32 24 -73q0 -89 -128 -112z" />
    <glyph glyph-name="Lcaron" unicode="&#x13d;" horiz-adv-x="436" 
d="M84 0v659h89v-583h241v-76h-330zM258 513l36 195h89l-58 -195h-67z" />
    <glyph glyph-name="lcaron" unicode="&#x13e;" horiz-adv-x="255" 
d="M67 93v615h88v-590q0 -26 8 -36.5t27 -10.5q14 0 30 6l18 -69q-34 -14 -73 -14q-98 0 -98 99zM193 513l36 195h89l-58 -195h-67z" />
    <glyph glyph-name="Ldot" unicode="&#x13f;" horiz-adv-x="436" 
d="M84 0v659h89v-583h241v-76h-330zM343 291q-22 0 -38 16.5t-16 39.5t16 39t38 16t38 -16t16 -39t-16 -39.5t-38 -16.5z" />
    <glyph glyph-name="ldot" unicode="&#x140;" horiz-adv-x="290" 
d="M67 93v615h88v-590q0 -26 8 -36.5t27 -10.5q14 0 30 6l18 -69q-34 -14 -73 -14q-98 0 -98 99zM256 284q-22 0 -38 16.5t-16 39.5t16 39t38 16t38 -16t16 -39t-16 -39.5t-38 -16.5z" />
    <glyph glyph-name="Lslash" unicode="&#x141;" horiz-adv-x="436" 
d="M25 201v84l59 35v339h89v-287l153 91v-83l-153 -91v-213h241v-76h-330v237z" />
    <glyph glyph-name="lslash" unicode="&#x142;" horiz-adv-x="285" 
d="M30 242v83l60 36v347h88v-294l70 40v-84l-70 -41v-209q0 -27 8.5 -37.5t27.5 -10.5q16 0 30 7l18 -71q-34 -14 -73 -14q-99 0 -99 99v184z" />
    <glyph glyph-name="Nacute" unicode="&#x143;" horiz-adv-x="727" 
d="M643 0h-77l-307 404q-22 28 -87 119h-2q3 -46 3 -110v-413h-89v659h86l295 -389q37 -48 89 -123h2q-2 70 -2 114v398h89v-659zM319 696l58 147h98l-89 -147h-67z" />
    <glyph glyph-name="nacute" unicode="&#x144;" horiz-adv-x="516" 
d="M62 0v473h74l11 -58q85 70 164 70q62 0 103 -40.5t41 -127.5v-317h-88v288q0 119 -81 119q-61 0 -136 -64v-343h-88zM200 531l58 147h98l-89 -147h-67z" />
    <glyph glyph-name="Ncommaaccent" unicode="&#x145;" horiz-adv-x="727" 
d="M643 0h-77l-307 404q-22 28 -87 119h-2q3 -46 3 -110v-413h-89v659h86l295 -389q37 -48 89 -123h2q-2 70 -2 114v398h89v-659zM300 -237l-23 56q72 18 72 67q0 27 -22 62h77q24 -32 24 -73q0 -89 -128 -112z" />
    <glyph glyph-name="ncommaaccent" unicode="&#x146;" horiz-adv-x="516" 
d="M62 0v473h74l11 -58q85 70 164 70q62 0 103 -40.5t41 -127.5v-317h-88v288q0 119 -81 119q-61 0 -136 -64v-343h-88zM185 -237l-23 56q72 18 72 67q0 27 -22 62h77q24 -32 24 -73q0 -89 -128 -112z" />
    <glyph glyph-name="Ncaron" unicode="&#x147;" horiz-adv-x="727" 
d="M643 0h-77l-307 404q-22 28 -87 119h-2q3 -46 3 -110v-413h-89v659h86l295 -389q37 -48 89 -123h2q-2 70 -2 114v398h89v-659zM327 696l-100 147h74l66 -93l64 93h72l-98 -147h-78z" />
    <glyph glyph-name="ncaron" unicode="&#x148;" horiz-adv-x="516" 
d="M62 0v473h74l11 -58q85 70 164 70q62 0 103 -40.5t41 -127.5v-317h-88v288q0 119 -81 119q-61 0 -136 -64v-343h-88zM207 532l-100 147h74l66 -93l64 93h72l-98 -147h-78z" />
    <glyph glyph-name="Eng" unicode="&#x14a;" horiz-adv-x="729" 
d="M84 0v659h86l298 -389q37 -48 89 -123h2q-2 35 -2 114v398h88v-692q0 -81 -41 -123t-112 -42q-46 0 -81 15l19 73q24 -12 53 -12q41 0 57.5 25t16.5 77v35l-298 389q-22 28 -87 119h-2q3 -46 3 -110v-413h-89z" />
    <glyph glyph-name="eng" unicode="&#x14b;" horiz-adv-x="516" 
d="M232 -180l17 73q27 -11 49 -11q37 0 53 22.5t16 72.5v311q0 119 -81 119q-61 0 -136 -64v-343h-88v473h74l11 -58q85 70 164 70q62 0 103 -40.5t41 -127.5v-355q0 -77 -39.5 -117t-105.5 -40q-47 0 -78 15z" />
    <glyph glyph-name="Omacron" unicode="&#x14c;" horiz-adv-x="756" 
d="M378 -10q-142 0 -233.5 93t-91.5 244q0 149 91.5 243.5t233.5 94.5t233 -95t91 -243q0 -151 -92 -244t-232 -93zM378 66q104 0 167 71t63 190q0 116 -61.5 189t-168.5 73q-104 0 -167.5 -72t-63.5 -190q0 -119 63 -190t168 -71zM251 713v69h260v-69h-260z" />
    <glyph glyph-name="omacron" unicode="&#x14d;" 
d="M262 -10q-100 0 -162 70.5t-62 176.5q0 107 62.5 177.5t162.5 70.5q99 0 161.5 -71t62.5 -177t-62.5 -176.5t-162.5 -70.5zM262 63q62 0 98 48.5t36 125.5q0 78 -36 126.5t-97 48.5q-62 0 -98 -48.5t-36 -126.5q0 -77 36 -125.5t97 -48.5zM133 572v70h260v-70h-260z" />
    <glyph glyph-name="Obreve" unicode="&#x14e;" horiz-adv-x="756" 
d="M378 -10q-142 0 -233.5 93t-91.5 244q0 149 91.5 243.5t233.5 94.5t233 -95t91 -243q0 -151 -92 -244t-232 -93zM378 66q104 0 167 71t63 190q0 116 -61.5 189t-168.5 73q-104 0 -167.5 -72t-63.5 -190q0 -119 63 -190t168 -71zM449 828h63q-4 -59 -39.5 -93.5
t-93.5 -34.5t-92.5 34t-38.5 94h63q9 -68 69 -68t69 68z" />
    <glyph glyph-name="obreve" unicode="&#x14f;" 
d="M262 -10q-100 0 -162 70.5t-62 176.5q0 107 62.5 177.5t162.5 70.5q99 0 161.5 -71t62.5 -177t-62.5 -176.5t-162.5 -70.5zM262 63q62 0 98 48.5t36 125.5q0 78 -36 126.5t-97 48.5q-62 0 -98 -48.5t-36 -126.5q0 -77 36 -125.5t97 -48.5zM332 671h63q-4 -59 -39.5 -93.5
t-93.5 -34.5t-92.5 34t-38.5 94h63q4 -31 21.5 -49.5t47.5 -18.5t47.5 18.5t21.5 49.5z" />
    <glyph glyph-name="Ohungarumlaut" unicode="&#x150;" horiz-adv-x="756" 
d="M378 -10q-142 0 -233.5 93t-91.5 244q0 149 91.5 243.5t233.5 94.5t233 -95t91 -243q0 -151 -92 -244t-232 -93zM378 66q104 0 167 71t63 190q0 116 -61.5 189t-168.5 73q-104 0 -167.5 -72t-63.5 -190q0 -119 63 -190t168 -71zM270 696l58 147h101l-90 -147h-69z
M435 696l58 147h100l-89 -147h-69z" />
    <glyph glyph-name="ohungarumlaut" unicode="&#x151;" 
d="M262 -10q-100 0 -162 70.5t-62 176.5q0 107 62.5 177.5t162.5 70.5q99 0 161.5 -71t62.5 -177t-62.5 -176.5t-162.5 -70.5zM262 63q62 0 98 48.5t36 125.5q0 78 -36 126.5t-97 48.5q-62 0 -98 -48.5t-36 -126.5q0 -77 36 -125.5t97 -48.5zM152 531l58 147h101l-90 -147
h-69zM317 531l58 147h100l-89 -147h-69z" />
    <glyph glyph-name="OE" unicode="&#x152;" horiz-adv-x="883" 
d="M825 0h-225q-52 0 -124 -5t-92 -5q-112 0 -191 53q-65 41 -101.5 113.5t-36.5 168.5q0 93 37.5 167.5t104.5 118.5q79 54 195 54q23 0 90 -3t112 -3h227l-27 -76h-218v-209h216v-76h-216v-222h249v-76zM390 66q56 0 98 8v506q-43 9 -99 9q-84 0 -141 -43
q-99 -68 -99 -220q0 -157 107 -224q56 -36 134 -36z" />
    <glyph glyph-name="oe" unicode="&#x153;" horiz-adv-x="828" 
d="M261 -10q-99 0 -161 70.5t-62 176.5t61.5 177t159.5 71q60 0 105.5 -27t69.5 -74h2q23 47 64.5 74t94.5 27q90 0 142.5 -66.5t52.5 -179.5v-22h-306q2 -68 42 -111.5t108 -43.5q58 0 117 32l28 -61q-68 -43 -156 -43q-127 0 -185 104h-2q-55 -104 -175 -104zM262 63
q62 0 97 48t35 126t-35 127t-96 49q-62 0 -98 -49t-36 -127q0 -77 36 -125.5t97 -48.5zM484 283h215q-2 55 -28.5 93.5t-76.5 38.5q-49 0 -79 -38t-31 -94z" />
    <glyph glyph-name="Racute" unicode="&#x154;" horiz-adv-x="556" 
d="M84 0v659h149q92 0 146 -32q84 -47 84 -150q0 -133 -132 -173v-2q25 -14 80 -106l117 -196h-104l-108 183q-46 83 -75 90h-68v-273h-89zM173 346h59q49 0 85 21q54 29 54 101q0 60 -42 91q-36 27 -96 27h-60v-240zM199 696l58 147h98l-89 -147h-67z" />
    <glyph glyph-name="racute" unicode="&#x155;" horiz-adv-x="334" 
d="M62 0v473h74l10 -58q66 70 133 70q34 0 56 -14l-31 -78q-22 12 -46 12q-46 0 -108 -61v-344h-88zM129 531l58 147h98l-89 -147h-67z" />
    <glyph glyph-name="Rcommaaccent" unicode="&#x156;" horiz-adv-x="556" 
d="M84 0v659h149q92 0 146 -32q84 -47 84 -150q0 -133 -132 -173v-2q25 -14 80 -106l117 -196h-104l-108 183q-46 83 -75 90h-68v-273h-89zM173 346h59q49 0 85 21q54 29 54 101q0 60 -42 91q-36 27 -96 27h-60v-240zM214 -237l-23 56q72 18 72 67q0 27 -22 62h77
q24 -32 24 -73q0 -89 -128 -112z" />
    <glyph glyph-name="rcommaaccent" unicode="&#x157;" horiz-adv-x="334" 
d="M62 0v473h74l10 -58q66 70 133 70q34 0 56 -14l-31 -78q-22 12 -46 12q-46 0 -108 -61v-344h-88zM48 -237l-23 56q72 18 72 67q0 27 -22 62h77q24 -32 24 -73q0 -89 -128 -112z" />
    <glyph glyph-name="Rcaron" unicode="&#x158;" horiz-adv-x="556" 
d="M84 0v659h149q92 0 146 -32q84 -47 84 -150q0 -133 -132 -173v-2q25 -14 80 -106l117 -196h-104l-108 183q-46 83 -75 90h-68v-273h-89zM173 346h59q49 0 85 21q54 29 54 101q0 60 -42 91q-36 27 -96 27h-60v-240zM208 696l-100 147h74l66 -93l64 93h72l-98 -147h-78z
" />
    <glyph glyph-name="rcaron" unicode="&#x159;" horiz-adv-x="334" 
d="M57 0v473h74l10 -58q66 70 133 70q34 0 56 -14l-31 -78q-23 12 -46 12q-46 0 -108 -61v-344h-88zM137 532l-100 147h74l66 -93l64 93h72l-98 -147h-78z" />
    <glyph glyph-name="Sacute" unicode="&#x15a;" horiz-adv-x="503" 
d="M51 42l37 69q67 -45 144 -45q55 0 90.5 23.5t35.5 73.5q0 41 -29.5 71.5t-72 52.5t-85 46t-72 64t-29.5 95q0 74 54 123.5t146 49.5q85 0 149 -32v-81q-69 37 -146 37q-46 0 -78 -21.5t-32 -66.5q0 -38 30 -67.5t72.5 -51t84.5 -46.5t72 -67t30 -99q0 -83 -61 -131.5
t-158 -48.5q-105 0 -182 52zM220 696l58 147h98l-89 -147h-67z" />
    <glyph glyph-name="sacute" unicode="&#x15b;" horiz-adv-x="392" 
d="M24 32l28 66q60 -36 122 -36q43 0 69.5 16.5t26.5 51.5q0 26 -23 44t-55.5 30.5t-65 28t-55.5 45.5t-23 73q0 58 44 96t122 38q64 0 124 -23v-76q-61 27 -120 27q-83 0 -83 -58q0 -26 23 -44t55.5 -30.5t65 -28t55.5 -46t23 -75.5q0 -69 -51 -105t-129 -36q-87 0 -153 42
zM159 531l58 147h98l-89 -147h-67z" />
    <glyph glyph-name="Scircumflex" unicode="&#x15c;" horiz-adv-x="503" 
d="M51 42l37 69q67 -45 144 -45q55 0 90.5 23.5t35.5 73.5q0 41 -29.5 71.5t-72 52.5t-85 46t-72 64t-29.5 95q0 74 54 123.5t146 49.5q85 0 149 -32v-81q-69 37 -146 37q-46 0 -78 -21.5t-32 -66.5q0 -38 30 -67.5t72.5 -51t84.5 -46.5t72 -67t30 -99q0 -83 -61 -131.5
t-158 -48.5q-105 0 -182 52zM116 696l99 147h78l99 -147h-73l-65 93l-65 -93h-73z" />
    <glyph glyph-name="scircumflex" unicode="&#x15d;" horiz-adv-x="392" 
d="M24 32l28 66q60 -36 122 -36q43 0 69.5 16.5t26.5 51.5q0 26 -23 44t-55.5 30.5t-65 28t-55.5 45.5t-23 73q0 58 44 96t122 38q64 0 124 -23v-76q-61 27 -120 27q-83 0 -83 -58q0 -26 23 -44t55.5 -30.5t65 -28t55.5 -46t23 -75.5q0 -69 -51 -105t-129 -36q-87 0 -153 42
zM59 531l99 147h78l99 -147h-73l-65 93l-65 -93h-73z" />
    <glyph glyph-name="Scedilla" unicode="&#x15e;" horiz-adv-x="495" 
d="M142 -201l15 48q21 -10 49 -10q23 0 37.5 9.5t14.5 27.5q0 22 -21 29t-63 7l25 82q-86 7 -148 50l37 69q67 -45 144 -45q55 0 90.5 23.5t35.5 73.5q0 41 -29.5 71.5t-72 52.5t-85 46t-72 64t-29.5 95q0 74 54 123.5t146 49.5q85 0 149 -32v-81q-69 37 -146 37
q-46 0 -78 -21.5t-32 -66.5q0 -38 30 -67.5t72.5 -51t84.5 -46.5t72 -67t30 -99q0 -76 -50.5 -123t-134.5 -55l-14 -44q82 -7 82 -73q0 -40 -32.5 -63.5t-90.5 -23.5q-35 0 -70 11z" />
    <glyph glyph-name="scedilla" unicode="&#x15f;" horiz-adv-x="392" 
d="M87 -201l14 48q23 -10 49 -10q23 0 37.5 9.5t14.5 27.5q0 17 -14.5 25.5t-28.5 9.5t-41 1l25 82q-66 6 -119 40l28 66q60 -36 122 -36q43 0 69.5 16.5t26.5 51.5q0 26 -23 44t-55.5 30.5t-65 28t-55.5 45.5t-23 73q0 58 44 96t122 38q64 0 124 -23v-76q-61 27 -120 27
q-83 0 -83 -58q0 -26 23 -44t55.5 -30.5t65 -28t55.5 -46t23 -75.5q0 -61 -40 -96.5t-106 -42.5l-14 -44q83 -7 83 -73q0 -40 -33 -63.5t-91 -23.5q-36 0 -69 11z" />
    <glyph glyph-name="Scaron" unicode="&#x160;" horiz-adv-x="503" 
d="M51 42l37 69q67 -45 144 -45q55 0 90.5 23.5t35.5 73.5q0 41 -29.5 71.5t-72 52.5t-85 46t-72 64t-29.5 95q0 74 54 123.5t146 49.5q85 0 149 -32v-81q-69 37 -146 37q-46 0 -78 -21.5t-32 -66.5q0 -38 30 -67.5t72.5 -51t84.5 -46.5t72 -67t30 -99q0 -83 -61 -131.5
t-158 -48.5q-105 0 -182 52zM213 696l-100 147h74l66 -93l64 93h72l-98 -147h-78z" />
    <glyph glyph-name="scaron" unicode="&#x161;" horiz-adv-x="392" 
d="M24 32l28 66q60 -36 122 -36q43 0 69.5 16.5t26.5 51.5q0 26 -23 44t-55.5 30.5t-65 28t-55.5 45.5t-23 73q0 58 44 96t122 38q64 0 124 -23v-76q-61 27 -120 27q-83 0 -83 -58q0 -26 23 -44t55.5 -30.5t65 -28t55.5 -46t23 -75.5q0 -69 -51 -105t-129 -36q-87 0 -153 42
zM159 532l-100 147h74l66 -93l64 93h72l-98 -147h-78z" />
    <glyph glyph-name="Tcommaaccent" unicode="&#x162;" horiz-adv-x="509" 
d="M208 0v583h-190v76h488l-27 -76h-182v-583h-89zM185 -237l-23 56q72 18 72 67q0 27 -22 62h77q24 -32 24 -73q0 -89 -128 -112z" />
    <glyph glyph-name="tcommaaccent" unicode="&#x163;" horiz-adv-x="360" 
d="M217 -10q-55 0 -85.5 30.5t-30.5 85.5v296h-81v71h81v108l88 28v-136h142l-24 -71h-118v-279q0 -60 48 -60q36 0 76 25l29 -61q-52 -37 -125 -37zM120 -237l-23 56q72 18 72 67q0 27 -22 62h77q24 -32 24 -73q0 -89 -128 -112z" />
    <glyph glyph-name="Tcaron" unicode="&#x164;" horiz-adv-x="509" 
d="M208 0v583h-190v76h488l-27 -76h-182v-583h-89zM216 696l-100 147h74l66 -93l64 93h72l-98 -147h-78z" />
    <glyph glyph-name="tcaron" unicode="&#x165;" horiz-adv-x="360" 
d="M217 -10q-55 0 -85.5 30.5t-30.5 85.5v296h-81v71h81v108l88 28v-136h142l-24 -71h-118v-279q0 -60 48 -60q36 0 76 25l29 -61q-52 -37 -125 -37zM234 513l36 195h89l-58 -195h-67z" />
    <glyph glyph-name="Tbar" unicode="&#x166;" horiz-adv-x="509" 
d="M208 0v283h-117v74h117v226h-190v76h488l-27 -76h-182v-226h117v-74h-117v-283h-89z" />
    <glyph glyph-name="tbar" unicode="&#x167;" horiz-adv-x="360" 
d="M20 225v70h81v107h-81v71h81v108l88 28v-136h142l-24 -71h-118v-107h93v-70h-93v-102q0 -60 48 -60q36 0 78 29l27 -62q-58 -40 -126 -40q-55 0 -85 30.5t-30 85.5v119h-81z" />
    <glyph glyph-name="Utilde" unicode="&#x168;" horiz-adv-x="666" 
d="M333 -10q-183 0 -236 136q-18 48 -18 113v420h89v-413q0 -56 15 -90q36 -90 150 -90q115 0 151 90q14 35 14 93v410h89v-420q0 -69 -20 -115q-53 -134 -234 -134zM191 724v28q0 36 21.5 57t53.5 21q30 0 72 -23t56 -23q25 0 25 40h61v-27q0 -37 -21 -58t-53 -21
q-30 0 -72.5 23.5t-56.5 23.5q-25 0 -25 -41h-61z" />
    <glyph glyph-name="utilde" unicode="&#x169;" horiz-adv-x="514" 
d="M207 -10q-41 0 -78 21t-54 69q-13 38 -13 90v303h88v-287q0 -46 9 -70q18 -49 76 -49q35 0 68 17.5t53 41.5v347h88v-327q0 -112 10 -146h-78l-15 53q-70 -63 -154 -63zM112 552v27q0 37 21 58t54 21q30 0 72 -23.5t56 -23.5q25 0 25 41h61v-28q0 -36 -21 -57t-53 -21
q-30 0 -72.5 23t-56.5 23q-25 0 -25 -40h-61z" />
    <glyph glyph-name="Umacron" unicode="&#x16a;" horiz-adv-x="666" 
d="M333 -10q-183 0 -236 136q-18 48 -18 113v420h89v-413q0 -56 15 -90q36 -90 150 -90q115 0 151 90q14 35 14 93v410h89v-420q0 -69 -20 -115q-53 -134 -234 -134zM207 713v69h260v-69h-260z" />
    <glyph glyph-name="umacron" unicode="&#x16b;" horiz-adv-x="514" 
d="M207 -10q-41 0 -78 21t-54 69q-13 38 -13 90v303h88v-287q0 -46 9 -70q18 -49 76 -49q35 0 68 17.5t53 41.5v347h88v-327q0 -112 10 -146h-78l-15 53q-70 -63 -154 -63zM127 572v70h260v-70h-260z" />
    <glyph glyph-name="Ubreve" unicode="&#x16c;" horiz-adv-x="666" 
d="M333 -10q-183 0 -236 136q-18 48 -18 113v420h89v-413q0 -56 15 -90q36 -90 150 -90q115 0 151 90q14 35 14 93v410h89v-420q0 -69 -20 -115q-53 -134 -234 -134zM405 828h63q-4 -59 -39.5 -93.5t-93.5 -34.5t-92.5 34t-38.5 94h63q9 -68 69 -68t69 68z" />
    <glyph glyph-name="ubreve" unicode="&#x16d;" horiz-adv-x="514" 
d="M207 -10q-41 0 -78 21t-54 69q-13 38 -13 90v303h88v-287q0 -46 9 -70q18 -49 76 -49q35 0 68 17.5t53 41.5v347h88v-327q0 -112 10 -146h-78l-15 53q-70 -63 -154 -63zM324 671h63q-4 -59 -39.5 -93.5t-93.5 -34.5t-92.5 34t-38.5 94h63q4 -31 21.5 -49.5t47.5 -18.5
t47.5 18.5t21.5 49.5z" />
    <glyph glyph-name="Uring" unicode="&#x16e;" horiz-adv-x="666" 
d="M333 -10q-183 0 -236 136q-18 48 -18 113v420h89v-413q0 -56 15 -90q36 -90 150 -90q115 0 151 90q14 35 14 93v410h89v-420q0 -69 -20 -115q-53 -134 -234 -134zM337 653q-48 0 -77.5 26t-29.5 70q0 43 29.5 69.5t77.5 26.5t77.5 -26.5t29.5 -69.5q0 -44 -29.5 -70
t-77.5 -26zM337 697q21 0 33.5 14t12.5 38t-12.5 37.5t-33.5 13.5t-34 -13.5t-13 -37.5t13 -38t34 -14z" />
    <glyph glyph-name="uring" unicode="&#x16f;" horiz-adv-x="514" 
d="M207 -10q-41 0 -78 21t-54 69q-13 38 -13 90v303h88v-287q0 -46 9 -70q18 -49 76 -49q35 0 68 17.5t53 41.5v347h88v-327q0 -112 10 -146h-78l-15 53q-70 -63 -154 -63zM257 523q-48 0 -77.5 26.5t-29.5 69.5t29.5 69.5t77.5 26.5t77.5 -26.5t29.5 -69.5t-29.5 -69.5
t-77.5 -26.5zM257 567q21 0 33.5 14t12.5 38t-12.5 38t-33.5 14t-34 -14t-13 -38t13 -38t34 -14z" />
    <glyph glyph-name="Uhungarumlaut" unicode="&#x170;" horiz-adv-x="666" 
d="M333 -10q-183 0 -236 136q-18 48 -18 113v420h89v-413q0 -56 15 -90q36 -90 150 -90q115 0 151 90q14 35 14 93v410h89v-420q0 -69 -20 -115q-53 -134 -234 -134zM209 696l58 147h101l-90 -147h-69zM374 696l58 147h100l-89 -147h-69z" />
    <glyph glyph-name="uhungarumlaut" unicode="&#x171;" horiz-adv-x="514" 
d="M207 -10q-41 0 -78 21t-54 69q-13 38 -13 90v303h88v-287q0 -46 9 -70q18 -49 76 -49q35 0 68 17.5t53 41.5v347h88v-327q0 -112 10 -146h-78l-15 53q-70 -63 -154 -63zM136 531l58 147h101l-90 -147h-69zM301 531l58 147h100l-89 -147h-69z" />
    <glyph glyph-name="Uogonek" unicode="&#x172;" horiz-adv-x="666" 
d="M414 -149l11 -53q-33 -11 -67 -11q-45 0 -70 23t-25 58q0 64 72 120v2q-184 -1 -238 136q-18 48 -18 113v420h89v-413q0 -56 15 -90q36 -90 150 -90q115 0 151 90q14 35 14 93v410h89v-420q0 -69 -20 -115q-29 -78 -108 -112q-48 -21 -84 -57.5t-36 -71.5q0 -39 37 -39
q17 0 38 7z" />
    <glyph glyph-name="uogonek" unicode="&#x173;" horiz-adv-x="514" 
d="M375 7l-14 46q-70 -63 -154 -63q-41 0 -78 21t-54 69q-13 38 -13 90v303h88v-287q0 -46 9 -70q18 -49 76 -49q35 0 68 17.5t53 41.5v347h88v-322q0 -120 10 -154q-104 -50 -104 -114q0 -39 37 -39q17 0 38 7l11 -53q-33 -11 -67 -11q-45 0 -70 23t-25 58q0 77 101 139z
" />
    <glyph glyph-name="Wcircumflex" unicode="&#x174;" horiz-adv-x="914" 
d="M239 -4l-226 663h100l125 -391q26 -79 40 -135h3q21 74 43 134l95 279l-39 113h93l131 -390q39 -119 43 -136h2q15 63 38 134l121 392h93l-219 -663h-73l-103 300q-33 94 -43 132h-3q-10 -37 -43 -132l-105 -300h-73zM323 696l99 147h78l99 -147h-73l-65 93l-65 -93h-73z
" />
    <glyph glyph-name="wcircumflex" unicode="&#x175;" horiz-adv-x="708" 
d="M170 -3l-161 476h92l108 -359h2l106 359h77l110 -360h2l106 360h89l-163 -476h-72l-109 360h-2l-110 -360h-75zM217 531l99 147h78l99 -147h-73l-65 93l-65 -93h-73z" />
    <glyph glyph-name="Ycircumflex" unicode="&#x176;" horiz-adv-x="552" 
d="M233 0v263l-220 396h98l166 -313h2l163 313h97l-218 -398v-261h-88zM140 696l99 147h78l99 -147h-73l-65 93l-65 -93h-73z" />
    <glyph glyph-name="ycircumflex" unicode="&#x177;" horiz-adv-x="483" 
d="M474 473l-178 -503q-23 -65 -49.5 -108t-55.5 -63.5t-54.5 -28t-59.5 -7.5q-52 0 -91 18l21 71q33 -15 68 -15q47 0 82 37.5t62 124.5l-210 474h95l155 -367h2l121 367h92zM109 531l99 147h78l99 -147h-73l-65 93l-65 -93h-73z" />
    <glyph glyph-name="Ydieresis" unicode="&#x178;" horiz-adv-x="552" 
d="M233 0v263l-220 396h98l166 -313h2l163 313h97l-218 -398v-261h-88zM188 704q-20 0 -34.5 14.5t-14.5 35.5q0 20 14.5 34.5t34.5 14.5t34.5 -14.5t14.5 -34.5q0 -21 -14.5 -35.5t-34.5 -14.5zM370 704q-21 0 -35.5 14.5t-14.5 35.5q0 20 14.5 34.5t35.5 14.5
q20 0 34.5 -14.5t14.5 -34.5q0 -21 -14.5 -35.5t-34.5 -14.5z" />
    <glyph glyph-name="Zacute" unicode="&#x179;" horiz-adv-x="554" 
d="M42 0l330 583h-300l-24 76h463l-326 -583h339v-76h-482zM238 696l58 147h98l-89 -147h-67z" />
    <glyph glyph-name="zacute" unicode="&#x17a;" horiz-adv-x="393" 
d="M19 0l234 402h-201l-19 71h350l-231 -402h228v-71h-361zM158 531l58 147h98l-89 -147h-67z" />
    <glyph glyph-name="Zdotaccent" unicode="&#x17b;" horiz-adv-x="554" 
d="M42 0l330 583h-300l-24 76h463l-326 -583h339v-76h-482zM285 714q-25 0 -40.5 16t-15.5 40t16 40.5t40 16.5q25 0 41 -16t16 -41q0 -24 -16 -40t-41 -16z" />
    <glyph glyph-name="zdotaccent" unicode="&#x17c;" horiz-adv-x="393" 
d="M19 0l234 402h-201l-19 71h350l-231 -402h228v-71h-361zM206 570q-24 0 -40 16.5t-16 40.5t16 40t40 16q25 0 41 -16t16 -40t-16 -40.5t-41 -16.5z" />
    <glyph glyph-name="Zcaron" unicode="&#x17d;" horiz-adv-x="554" 
d="M42 0l330 583h-300l-24 76h463l-326 -583h339v-76h-482zM246 696l-100 147h74l66 -93l64 93h72l-98 -147h-78z" />
    <glyph glyph-name="zcaron" unicode="&#x17e;" horiz-adv-x="393" 
d="M19 0l234 402h-201l-19 71h350l-231 -402h228v-71h-361zM168 532l-100 147h74l66 -93l64 93h72l-98 -147h-78z" />
    <glyph glyph-name="florin" unicode="&#x192;" horiz-adv-x="530" 
d="M289 313l-26 -286q-9 -98 -46 -141q-48 -56 -135 -56q-60 0 -111 25l34 71q33 -18 71 -18q49 0 73 33q19 28 23 78l27 294h-98v71h104l11 125q7 86 37 128q47 71 144 71q61 0 112 -25l-34 -71q-30 18 -71 18q-50 0 -76 -39q-16 -26 -20 -74l-12 -133h125l-24 -71h-108z
" />
    <glyph glyph-name="Aringacute" unicode="&#x1fa;" horiz-adv-x="602" 
d="M14 0l248 654q-33 8 -52.5 32t-19.5 59q0 39 24.5 64.5t65.5 30.5l44 113h100l-77 -122q58 -23 58 -86q0 -35 -19.5 -58.5t-52.5 -31.5l254 -655h-96l-64 173h-256l-63 -173h-94zM198 246h201l-62 173q-28 82 -37 113h-2q-8 -30 -38 -113zM297 694q21 0 34 13.5t13 37.5
t-13 38t-34 14t-33.5 -14t-12.5 -38t12.5 -37.5t33.5 -13.5z" />
    <glyph glyph-name="aringacute" unicode="&#x1fb;" horiz-adv-x="471" 
d="M235 516q-48 0 -78 26.5t-30 69.5q0 38 23.5 63t62.5 30l52 135h100l-87 -140q64 -20 64 -88q0 -43 -30 -69.5t-77 -26.5zM235 560q21 0 33.5 14t12.5 38t-12.5 38t-33.5 14q-22 0 -34.5 -14t-12.5 -38t12.5 -38t34.5 -14zM188 -10q-66 0 -109 40.5t-43 107.5
q0 90 80 128q43 21 119 24l88 3v25q0 48 -26.5 72t-71.5 24q-66 0 -129 -37l-31 61q78 47 171 47q83 0 129 -41t46 -124v-173q0 -111 9 -147h-76l-15 51q-65 -61 -141 -61zM208 62q61 0 115 54v114l-77 -3q-52 -1 -83 -17q-37 -21 -37 -67q0 -37 22.5 -59t59.5 -22z" />
    <glyph glyph-name="AEacute" unicode="&#x1fc;" horiz-adv-x="810" 
d="M13 0l347 659h388l-26 -76h-268l37 -209h228v-76h-215l38 -222h211v-76h-288l-30 173h-236l-91 -173h-95zM238 246h185l-30 183q-2 14 -4.5 30.5t-5.5 37t-5 31.5h-1q-11 -26 -54 -112zM440 696l58 147h98l-89 -147h-67z" />
    <glyph glyph-name="aeacute" unicode="&#x1fd;" horiz-adv-x="757" 
d="M193 -10q-69 0 -113 40t-44 108q0 74 54 110.5t144 36.5h93v33q0 48 -28 72t-73 24q-64 0 -130 -37l-31 61q78 47 170 47q107 0 144 -78h2q53 78 147 78q89 0 140 -65.5t51 -180.5v-19h-305q2 -71 41.5 -114.5t107.5 -43.5q58 0 118 32l27 -61q-68 -43 -156 -43
q-120 0 -180 88q-74 -88 -179 -88zM209 62q39 0 74.5 21.5t58.5 51.5q-12 36 -14 85h-88q-114 0 -114 -79q0 -35 23 -57t60 -22zM415 285h213q-2 55 -28.5 92.5t-75.5 37.5t-78 -37.5t-31 -92.5zM345 531l58 147h98l-89 -147h-67z" />
    <glyph glyph-name="Oslashacute" unicode="&#x1fe;" horiz-adv-x="759" 
d="M123 -21l-56 45l65 74q-77 91 -77 229q0 149 91.5 243.5t233.5 94.5q106 0 188 -61l65 76l57 -45l-68 -77q82 -93 82 -231q0 -151 -92 -244t-232 -93q-112 0 -194 62zM567 491l-330 -377q60 -49 143 -49q104 0 167.5 71.5t63.5 190.5q0 97 -44 164zM189 168l329 375
q-57 46 -138 46q-104 0 -168 -72t-64 -190q0 -97 41 -159zM338 696l58 147h98l-89 -147h-67z" />
    <glyph glyph-name="oslashacute" unicode="&#x1ff;" 
d="M221 531l58 147h98l-89 -147h-67zM92 -22l-43 34l46 56q-57 70 -57 169q0 107 62.5 177.5t162.5 70.5q72 0 128 -43l40 51l43 -35l-43 -53q56 -69 56 -168q0 -106 -62.5 -176.5t-162.5 -70.5q-71 0 -128 42zM182 92q33 -30 80 -30q62 0 98.5 49t36.5 126q0 57 -20 99z
M148 137l195 245q-33 31 -80 31q-62 0 -98.5 -49t-36.5 -127q0 -58 20 -100z" />
    <glyph glyph-name="Scommaaccent" unicode="&#x218;" horiz-adv-x="503" 
d="M51 42l37 69q67 -45 144 -45q55 0 90.5 23.5t35.5 73.5q0 41 -29.5 71.5t-72 52.5t-85 46t-72 64t-29.5 95q0 74 54 123.5t146 49.5q85 0 149 -32v-81q-69 37 -146 37q-46 0 -78 -21.5t-32 -66.5q0 -38 30 -67.5t72.5 -51t84.5 -46.5t72 -67t30 -99q0 -83 -61 -131.5
t-158 -48.5q-105 0 -182 52zM174 -237l-23 56q72 18 72 67q0 27 -22 62h77q24 -32 24 -73q0 -89 -128 -112z" />
    <glyph glyph-name="scommaaccent" unicode="&#x219;" horiz-adv-x="392" 
d="M24 32l28 66q60 -36 122 -36q43 0 69.5 16.5t26.5 51.5q0 26 -23 44t-55.5 30.5t-65 28t-55.5 45.5t-23 73q0 58 44 96t122 38q64 0 124 -23v-76q-61 27 -120 27q-83 0 -83 -58q0 -26 23 -44t55.5 -30.5t65 -28t55.5 -46t23 -75.5q0 -69 -51 -105t-129 -36q-87 0 -153 42
zM127 -237l-23 56q72 18 72 67q0 27 -22 62h77q24 -32 24 -73q0 -89 -128 -112z" />
    <glyph glyph-name="circumflex" unicode="&#x2c6;" horiz-adv-x="368" 
d="M45 531l99 147h78l99 -147h-73l-65 93l-65 -93h-73z" />
    <glyph glyph-name="caron" unicode="&#x2c7;" horiz-adv-x="368" 
d="M145 532l-100 147h74l66 -93l64 93h72l-98 -147h-78z" />
    <glyph glyph-name="breve" unicode="&#x2d8;" horiz-adv-x="368" 
d="M253 671h63q-4 -59 -39.5 -93.5t-93.5 -34.5t-92.5 34t-38.5 94h63q9 -68 69 -68t69 68z" />
    <glyph glyph-name="dotaccent" unicode="&#x2d9;" horiz-adv-x="368" 
d="M183 570q-24 0 -40 16.5t-16 40.5t16 40t40 16q25 0 41 -16t16 -40t-16 -40.5t-41 -16.5z" />
    <glyph glyph-name="ring" unicode="&#x2da;" horiz-adv-x="368" 
d="M184 523q-48 0 -77.5 26.5t-29.5 69.5t29.5 69.5t77.5 26.5t77.5 -26.5t29.5 -69.5t-29.5 -69.5t-77.5 -26.5zM184 567q21 0 33.5 14t12.5 38t-12.5 38t-33.5 14t-34 -14t-13 -38t13 -38t34 -14z" />
    <glyph glyph-name="ogonek" unicode="&#x2db;" horiz-adv-x="368" 
d="M244 -149l11 -53q-33 -11 -67 -11q-45 0 -70 23t-25 58q0 33 19.5 63.5t38.5 46t49 35.5l74 -13q-105 -54 -105 -117q0 -39 37 -39q17 0 38 7z" />
    <glyph glyph-name="tilde" unicode="&#x2dc;" horiz-adv-x="368" 
d="M39 552v27q0 37 21.5 58t53.5 21q30 0 72 -23.5t56 -23.5q25 0 25 41h61v-28q0 -36 -21 -57t-53 -21q-30 0 -72.5 23t-56.5 23q-25 0 -25 -40h-61z" />
    <glyph glyph-name="hungarumlaut" unicode="&#x2dd;" horiz-adv-x="368" 
d="M78 531l58 147h101l-90 -147h-69zM243 531l58 147h100l-89 -147h-69z" />
    <glyph glyph-name="uni0315" unicode="&#x315;" horiz-adv-x="368" 
d="M119 513l36 195h89l-58 -195h-67z" />
    <glyph glyph-name="uni0326" unicode="&#x326;" horiz-adv-x="368" 
d="M131 -237l-23 56q72 18 72 67q0 27 -22 62h77q24 -32 24 -73q0 -89 -128 -112z" />
    <glyph glyph-name="Alphatonos" unicode="&#x386;" horiz-adv-x="607" 
d="M27 473l39 186h91l-57 -186h-73zM17 0l251 661h66l256 -661h-96l-65 173h-255l-64 -173h-93zM201 246h200l-61 172q-27 75 -37 110h-2q-7 -25 -38 -111z" />
    <glyph glyph-name="Epsilontonos" unicode="&#x388;" horiz-adv-x="583" 
d="M3 473l39 186h90l-57 -186h-72zM186 0v659h333l-27 -76h-218v-209h216v-76h-216v-222h249v-76h-337z" />
    <glyph glyph-name="Etatonos" unicode="&#x389;" horiz-adv-x="789" 
d="M3 473l39 186h90l-57 -186h-72zM179 0v659h89v-284h346v284h88v-659h-88v299h-346v-299h-89z" />
    <glyph glyph-name="Iotatonos" unicode="&#x38a;" horiz-adv-x="361" 
d="M186 0v659h88v-659h-88zM3 473l39 186h90l-57 -186h-72z" />
    <glyph glyph-name="Omicrontonos" unicode="&#x38c;" horiz-adv-x="826" 
d="M3 473l39 186h90l-57 -186h-72zM450 -10q-142 0 -233.5 93t-91.5 244q0 149 91.5 243.5t233.5 94.5t233 -95t91 -243q0 -151 -92 -244t-232 -93zM450 66q104 0 167 71t63 190q0 116 -61.5 189t-168.5 73q-104 0 -167 -71.5t-63 -190.5t63 -190t167 -71z" />
    <glyph glyph-name="Upsilontonos" unicode="&#x38e;" horiz-adv-x="726" 
d="M3 473l39 186h90l-57 -186h-72zM394 0v191q0 165 -230 468h101q53 -70 103.5 -156t68.5 -153h3q26 122 169 309h99q-114 -155 -170 -261t-56 -211v-187h-88z" />
    <glyph glyph-name="Omegatonos" unicode="&#x38f;" horiz-adv-x="813" 
d="M3 473l39 186h90l-57 -186h-72zM129 0v76h58q36 0 89 -8v2q-67 49 -107 120.5t-40 158.5q0 129 84 222.5t231 93.5q100 0 173.5 -46.5t108 -116.5t34.5 -153q0 -88 -40 -159.5t-108 -119.5l1 -2q53 8 88 8h59v-76h-258v60q164 110 164 285q0 103 -58.5 173.5t-163.5 70.5
t-163 -70.5t-58 -173.5q0 -175 164 -285v-60h-258z" />
    <glyph glyph-name="iotadieresistonos" unicode="&#x390;" horiz-adv-x="259" 
d="M171 -6q-50 0 -78 27t-28 79v373h88v-357q0 -45 40 -45q21 0 33 7l20 -70q-34 -14 -75 -14zM26 557q-19 0 -32.5 13.5t-13.5 33.5t13.5 33.5t32.5 13.5t32.5 -13.5t13.5 -33.5t-13.5 -33.5t-32.5 -13.5zM75 531l46 167h80l-70 -167h-56zM234 557q-19 0 -32.5 13.5
t-13.5 33.5t13.5 33.5t32.5 13.5t32.5 -13.5t13.5 -33.5t-13.5 -33.5t-32.5 -13.5z" />
    <glyph glyph-name="Alpha" unicode="&#x391;" horiz-adv-x="607" 
d="M17 0l251 661h66l256 -661h-96l-64 173h-256l-63 -173h-94zM201 246h201l-62 172q-19 56 -37 110h-2q-7 -25 -38 -111z" />
    <glyph glyph-name="Beta" unicode="&#x392;" horiz-adv-x="550" 
d="M87 0v659h166q100 0 151.5 -47.5t51.5 -119.5q0 -48 -22.5 -85.5t-62.5 -55.5v-2q57 -13 92 -56.5t35 -103.5q0 -84 -59 -136.5t-167 -52.5h-185zM176 74h91q140 0 140 114q0 51 -35.5 81t-94.5 30h-101v-225zM176 373h67q60 0 92 28.5t32 78.5q0 48 -30 76.5t-92 28.5
h-69v-212z" />
    <glyph glyph-name="Gamma" unicode="&#x393;" horiz-adv-x="436" 
d="M87 0v659h343l-27 -76h-228v-583h-88z" />
    <glyph glyph-name="Epsilon" unicode="&#x395;" horiz-adv-x="484" 
d="M87 0v659h333l-27 -76h-217v-209h215v-76h-215v-222h248v-76h-337z" />
    <glyph glyph-name="Zeta" unicode="&#x396;" horiz-adv-x="555" 
d="M45 0l330 583h-300l-24 76h463l-326 -583h339v-76h-482z" />
    <glyph glyph-name="Eta" unicode="&#x397;" horiz-adv-x="697" 
d="M87 0v659h89v-284h346v284h88v-659h-88v299h-346v-299h-89z" />
    <glyph glyph-name="Theta" unicode="&#x398;" horiz-adv-x="753" 
d="M376 -10q-141 0 -232.5 93t-91.5 244q0 149 91 243.5t233 94.5q143 0 234 -95t91 -243q0 -151 -92 -244t-233 -93zM376 66q105 0 168.5 71t63.5 190q0 116 -62.5 189t-169.5 73q-104 0 -167.5 -72t-63.5 -190q0 -119 63.5 -190t167.5 -71zM532 371v-73h-316v73h316z" />
    <glyph glyph-name="Iota" unicode="&#x399;" horiz-adv-x="262" 
d="M87 0v659h89v-659h-89z" />
    <glyph glyph-name="Kappa" unicode="&#x39a;" horiz-adv-x="556" 
d="M87 0v659h89v-295h2l242 295h105l-271 -324l288 -335h-110l-254 297h-2v-297h-89z" />
    <glyph glyph-name="Lambda" unicode="&#x39b;" horiz-adv-x="608" 
d="M17 0l252 661h67l256 -661h-97l-152 416q-8 22 -38 112h-2q-12 -41 -38 -111l-153 -417h-95z" />
    <glyph glyph-name="Mu" unicode="&#x39c;" horiz-adv-x="806" 
d="M87 0v659h82l180 -268q45 -67 60 -92h2q24 42 58 96l168 264h82v-659h-88v407q0 71 1 104h-1q-11 -20 -47 -78l-152 -242h-44l-167 247q-31 45 -45 71h-2q2 -29 2 -100v-409h-89z" />
    <glyph glyph-name="Nu" unicode="&#x39d;" horiz-adv-x="732" 
d="M646 0h-77l-307 404q-22 28 -87 119h-2q3 -46 3 -110v-413h-89v659h86l295 -389q37 -48 89 -123h2q-2 70 -2 114v398h89v-659z" />
    <glyph glyph-name="Xi" unicode="&#x39e;" horiz-adv-x="538" 
d="M41 0v76h455v-76h-455zM103 299v76h328v-76h-328zM56 583v76h436l-28 -76h-408z" />
    <glyph glyph-name="Omicron" unicode="&#x39f;" horiz-adv-x="753" 
d="M381 -10q-142 0 -233.5 93t-91.5 244q0 149 91.5 243.5t233.5 94.5t233 -95t91 -243q0 -151 -92 -244t-232 -93zM381 66q104 0 167 71t63 190q0 116 -61.5 189t-168.5 73q-104 0 -167.5 -72t-63.5 -190q0 -119 63 -190t168 -71z" />
    <glyph glyph-name="Pi" unicode="&#x3a0;" horiz-adv-x="669" 
d="M87 0v659h496v-659h-89v583h-319v-583h-88z" />
    <glyph glyph-name="Rho" unicode="&#x3a1;" horiz-adv-x="512" 
d="M87 0v659h135q91 0 145 -30q99 -54 99 -181q0 -134 -116 -186q-54 -24 -136 -24h-38v-238h-89zM176 311h44q56 0 90 18q63 32 63 119q0 82 -59 117q-36 21 -93 21h-45v-275z" />
    <glyph glyph-name="Sigma" unicode="&#x3a3;" horiz-adv-x="522" 
d="M25 0l200 349l-189 310h441l-26 -76h-268l138 -233l-154 -274h300v-76h-442z" />
    <glyph glyph-name="Tau" unicode="&#x3a4;" horiz-adv-x="514" 
d="M211 0v583h-190v76h488l-27 -76h-182v-583h-89z" />
    <glyph glyph-name="Upsilon" unicode="&#x3a5;" horiz-adv-x="580" 
d="M247 0v191q0 166 -229 468h101q53 -70 103.5 -156t68.5 -153h2q27 124 170 309h99q-114 -155 -170 -261t-56 -211v-187h-89z" />
    <glyph glyph-name="Phi" unicode="&#x3a6;" horiz-adv-x="765" 
d="M339 -20v62q-132 10 -209 85.5t-77 198.5q0 124 78 201t208 88v59h88v-59q130 -11 208 -88t78 -201q0 -123 -77 -198.5t-209 -85.5v-62h-88zM339 119v419q-92 -8 -143.5 -63t-51.5 -149q0 -91 50 -145.5t145 -61.5zM427 119q94 7 144 61.5t50 145.5q0 94 -51.5 149
t-142.5 63v-419z" />
    <glyph glyph-name="Chi" unicode="&#x3a7;" horiz-adv-x="600" 
d="M21 0l232 331l-217 328h103l170 -260l179 260h100l-227 -325l221 -334h-101l-176 266l-185 -266h-99z" />
    <glyph glyph-name="Psi" unicode="&#x3a8;" horiz-adv-x="742" 
d="M327 0v214q-130 9 -191.5 88.5t-61.5 251.5q0 31 4 105h88q-3 -53 -3 -98q0 -138 38.5 -200t125.5 -67v365h88v-365q87 5 125.5 67t38.5 200q0 63 -3 98h88q4 -49 4 -105q0 -172 -61.5 -251.5t-191.5 -88.5v-214h-88z" />
    <glyph glyph-name="uni03A9" unicode="&#x3a9;" horiz-adv-x="738" 
d="M427 0v60q163 110 163 285q0 103 -58 173.5t-163 70.5t-163.5 -70.5t-58.5 -173.5q0 -175 164 -285v-60h-258v76h59q35 0 88 -8l1 2q-68 48 -108 119.5t-40 159.5q0 129 84.5 222.5t231.5 93.5t231.5 -93.5t84.5 -222.5q0 -87 -40.5 -158.5t-107.5 -120.5v-2q56 8 89 8
h58v-76h-257z" />
    <glyph glyph-name="Iotadieresis" unicode="&#x3aa;" horiz-adv-x="262" 
d="M87 0v659h89v-659h-89zM40 704q-20 0 -34.5 14.5t-14.5 35.5q0 20 14.5 34.5t34.5 14.5t34.5 -14.5t14.5 -34.5q0 -21 -14.5 -35.5t-34.5 -14.5zM222 704q-21 0 -35.5 14.5t-14.5 35.5q0 20 14.5 34.5t35.5 14.5q20 0 34.5 -14.5t14.5 -34.5q0 -21 -14.5 -35.5
t-34.5 -14.5z" />
    <glyph glyph-name="Upsilondieresis" unicode="&#x3ab;" horiz-adv-x="580" 
d="M247 0v191q0 166 -229 468h101q53 -70 103.5 -156t68.5 -153h2q27 124 170 309h99q-114 -155 -170 -261t-56 -211v-187h-89zM201 704q-20 0 -34.5 14.5t-14.5 35.5q0 20 14.5 34.5t34.5 14.5t34.5 -14.5t14.5 -34.5q0 -21 -14.5 -35.5t-34.5 -14.5zM383 704
q-21 0 -35.5 14.5t-14.5 35.5q0 20 14.5 34.5t35.5 14.5q20 0 34.5 -14.5t14.5 -34.5q0 -21 -14.5 -35.5t-34.5 -14.5z" />
    <glyph glyph-name="alphatonos" unicode="&#x3ac;" horiz-adv-x="578" 
d="M222 -10q-81 0 -131 69t-50 178q0 107 49.5 177.5t131.5 70.5q116 0 161 -146h2q25 88 49 141l74 -31q-52 -108 -85 -211q15 -52 27 -90q14 -41 27 -58t35 -17q14 0 26 6l20 -74q-24 -10 -52 -10q-64 0 -93 64q-13 25 -28 83h-2q-18 -63 -58 -107.5t-103 -44.5zM227 64
q88 0 122 180q-21 78 -48 122.5t-69 44.5q-45 0 -73.5 -48.5t-28.5 -125.5q0 -73 27 -123t70 -50zM400 698l-112 -167h-72l76 167h108z" />
    <glyph glyph-name="epsilontonos" unicode="&#x3ad;" horiz-adv-x="442" 
d="M382 698l-112 -167h-72l76 167h108zM250 -10q-101 0 -153 41.5t-52 102.5q0 43 24 72.5t68 39.5v2q-39 12 -60.5 39.5t-21.5 64.5q0 59 49.5 96t133.5 37q86 0 151 -27v-75q-67 31 -144 31q-45 0 -73.5 -17.5t-28.5 -49.5q0 -29 28.5 -49.5t86.5 -20.5q48 0 70 2v-68
q-38 2 -65 2q-61 0 -95.5 -19t-34.5 -56q0 -38 33.5 -57.5t86.5 -19.5q76 0 147 38l29 -60q-86 -49 -179 -49z" />
    <glyph glyph-name="etatonos" unicode="&#x3ae;" horiz-adv-x="570" 
d="M110 0v344q0 37 -8.5 49.5t-26.5 12.5q-14 0 -27 -5l-19 70q29 14 65 14q77 0 93 -75h2q87 75 171 75q62 0 102.5 -40.5t40.5 -127.5v-554h-88v525q0 119 -81 119q-61 0 -136 -64v-343h-88zM457 698l-112 -167h-72l76 167h108z" />
    <glyph glyph-name="iotatonos" unicode="&#x3af;" horiz-adv-x="259" 
d="M171 -6q-50 0 -78 27t-28 79v373h88v-357q0 -45 40 -45q21 0 33 7l20 -70q-34 -14 -75 -14zM253 698l-112 -167h-72l76 167h108z" />
    <glyph glyph-name="upsilondieresistonos" unicode="&#x3b0;" horiz-adv-x="557" 
d="M20 471q34 14 67 14q99 0 99 -124q0 -20 -4.5 -68t-4.5 -75q0 -155 110 -155q62 0 94.5 52.5t32.5 144.5q0 51 -16 110.5t-45 102.5h93q58 -95 58 -216t-56 -194t-161 -73q-97 0 -148.5 55.5t-51.5 158.5q0 28 4.5 74.5t4.5 68.5q0 34 -8 46.5t-25 12.5q-12 0 -24 -5z
M168 557q-19 0 -32.5 13.5t-13.5 33.5t13.5 33.5t32.5 13.5t32.5 -13.5t13.5 -33.5t-13.5 -33.5t-32.5 -13.5zM217 531l46 167h80l-70 -167h-56zM376 557q-19 0 -32.5 13.5t-13.5 33.5t13.5 33.5t32.5 13.5t32.5 -13.5t13.5 -33.5t-13.5 -33.5t-32.5 -13.5z" />
    <glyph glyph-name="alpha" unicode="&#x3b1;" horiz-adv-x="578" 
d="M222 -10q-81 0 -131 69t-50 178q0 107 49.5 177.5t131.5 70.5q116 0 161 -146h2q25 88 49 141l74 -31q-52 -108 -85 -211q15 -52 27 -90q14 -41 27 -58t35 -17q14 0 26 6l20 -74q-24 -10 -52 -10q-64 0 -93 64q-13 25 -28 83h-2q-18 -63 -58 -107.5t-103 -44.5zM227 64
q88 0 122 180q-21 78 -48 122.5t-69 44.5q-45 0 -73.5 -48.5t-28.5 -125.5q0 -73 27 -123t70 -50z" />
    <glyph glyph-name="beta" unicode="&#x3b2;" horiz-adv-x="538" 
d="M76 -237v741q0 102 54 153t140 51q93 0 144.5 -55t51.5 -129q0 -62 -28.5 -103t-71.5 -56v-2q56 -11 92 -58t36 -112q0 -91 -57 -147t-147 -56q-74 0 -124 34h-2v-261h-88zM164 105q50 -41 118 -41q56 0 88.5 33.5t32.5 96.5q0 61 -38 96t-111 35q-15 0 -25 -1v73
q9 -1 24 -1q55 0 88.5 32t33.5 90q0 50 -28.5 83t-76.5 33q-49 0 -77.5 -34.5t-28.5 -99.5v-395z" />
    <glyph glyph-name="gamma" unicode="&#x3b3;" horiz-adv-x="540" 
d="M288 112h2q49 218 178 372q10 -10 31 -28.5t31 -28.5q-74 -93 -127 -203.5t-86 -271.5v-189h-94q0 91 9 193q-6 203 -48 328t-117 125q-14 0 -28 -4l-19 71q27 9 55 9q52 0 92.5 -30t65 -83t38.5 -118t17 -142z" />
    <glyph glyph-name="delta" unicode="&#x3b4;" horiz-adv-x="529" 
d="M216 436v2q-44 34 -67 65t-23 73q0 60 46 96t117 36q100 0 195 -43l-28 -70q-90 39 -160 40q-80 0 -80 -59q0 -28 28 -56t68 -55t79.5 -59.5t67.5 -82t28 -109.5q0 -93 -61.5 -158.5t-165.5 -65.5q-99 0 -159 61.5t-60 153.5q0 85 46.5 144t128.5 87zM397 211
q0 57 -30 97.5t-84 80.5q-73 -19 -112.5 -66t-39.5 -115q0 -64 34.5 -104.5t94.5 -40.5t98.5 40t38.5 108z" />
    <glyph glyph-name="epsilon" unicode="&#x3b5;" horiz-adv-x="442" 
d="M250 -10q-101 0 -153 41.5t-52 102.5q0 43 24 72.5t68 39.5v2q-39 12 -60.5 39.5t-21.5 64.5q0 59 49.5 96t133.5 37q86 0 151 -27v-75q-67 31 -144 31q-45 0 -73.5 -17.5t-28.5 -49.5q0 -29 28.5 -49.5t86.5 -20.5q48 0 70 2v-68q-38 2 -65 2q-61 0 -95.5 -19t-34.5 -56
q0 -38 33.5 -57.5t86.5 -19.5q76 0 147 38l29 -60q-86 -49 -179 -49z" />
    <glyph glyph-name="zeta" unicode="&#x3b6;" horiz-adv-x="446" 
d="M292 -146q45 66 45 94q0 24 -21.5 40.5t-53.5 24.5t-69.5 23.5t-69.5 35t-53.5 61t-21.5 99.5q0 131 73.5 236t185.5 168v3q-107 -26 -215 -29l-21 73q160 0 348 25l4 -54q-137 -81 -210.5 -186t-73.5 -226q0 -55 30 -89t72.5 -48.5t85 -27.5t72.5 -39t30 -70
q0 -61 -65 -152z" />
    <glyph glyph-name="eta" unicode="&#x3b7;" horiz-adv-x="570" 
d="M110 0v344q0 37 -8.5 49.5t-26.5 12.5q-14 0 -27 -5l-19 70q29 14 65 14q77 0 93 -75h2q87 75 171 75q62 0 102.5 -40.5t40.5 -127.5v-554h-88v525q0 119 -81 119q-61 0 -136 -64v-343h-88z" />
    <glyph glyph-name="theta" unicode="&#x3b8;" horiz-adv-x="532" 
d="M266 -10q-219 0 -219 359t219 359t219 -359q0 -176 -55 -267.5t-164 -91.5zM266 64q65 0 95 64.5t32 193.5h-255q2 -130 32.5 -194t95.5 -64zM138 393h254q-3 121 -33 181t-93 60t-93.5 -60t-34.5 -181z" />
    <glyph glyph-name="iota" unicode="&#x3b9;" horiz-adv-x="259" 
d="M171 -6q-50 0 -78 27t-28 79v373h88v-357q0 -45 40 -45q21 0 33 7l20 -70q-34 -14 -75 -14z" />
    <glyph glyph-name="kappa" unicode="&#x3ba;" horiz-adv-x="535" 
d="M161 0h-88v473h88v-223h2q60 75 148.5 138t161.5 94l31 -76q-104 -40 -217 -137l219 -269h-105l-176 218q-41 -41 -64 -73v-145z" />
    <glyph glyph-name="lambda" unicode="&#x3bb;" horiz-adv-x="483" 
d="M17 0l207 472q-34 98 -58.5 130t-61.5 32q-29 0 -57 -13l-23 68q45 19 86 19q73 0 113.5 -49t85.5 -179l167 -480h-93l-118 365h-2l-152 -365h-94z" />
    <glyph glyph-name="uni03BC" unicode="&#x3bc;" horiz-adv-x="551" 
d="M362 203v270h88v-322q0 -47 9.5 -62.5t31.5 -15.5q13 0 29 6l18 -71q-30 -14 -66 -14q-40 0 -62.5 24t-27.5 64h-2q-41 -92 -134 -92q-60 0 -92 43h-2q4 -53 4 -131v-139h-88v710h88v-303q0 -47 24.5 -75t68.5 -28t78.5 34.5t34.5 101.5z" />
    <glyph glyph-name="nu" unicode="&#x3bd;" horiz-adv-x="471" 
d="M175 -3l-164 476h91l125 -376h2q111 121 111 248q0 65 -26 128h95q23 -60 23 -124q0 -90 -49.5 -174.5t-145.5 -177.5h-62z" />
    <glyph glyph-name="xi" unicode="&#x3be;" horiz-adv-x="448" 
d="M298 -145q41 54 41 89q0 28 -29 45.5t-70.5 29t-83 27.5t-70.5 50.5t-29 88.5q0 60 36.5 100t93.5 57v2q-90 27 -90 109q0 110 172 181v3q-104 -20 -183 -23l-20 72q189 0 355 22l5 -54q-238 -84 -238 -188q0 -86 137 -86q32 0 48 2v-72q-19 3 -48 3q-73 0 -125 -28
t-52 -88q0 -38 29 -62t71 -36t83.5 -25.5t70.5 -41.5t29 -72q0 -56 -63 -144z" />
    <glyph glyph-name="omicron" unicode="&#x3bf;" horiz-adv-x="530" 
d="M265 -10q-100 0 -162 70.5t-62 176.5q0 107 62.5 177.5t162.5 70.5q99 0 161.5 -71t62.5 -177t-62.5 -176.5t-162.5 -70.5zM265 63q62 0 98 48.5t36 125.5q0 78 -36 126.5t-97 48.5q-62 0 -98 -48.5t-36 -126.5q0 -77 36 -125.5t97 -48.5z" />
    <glyph glyph-name="pi" unicode="&#x3c0;" horiz-adv-x="599" 
d="M111 0v402h-85v71h548l-23 -71h-87v-285q0 -44 35 -44q10 0 22 3l17 -71q-28 -11 -62 -11q-100 0 -100 102v306h-177v-402h-88z" />
    <glyph glyph-name="rho" unicode="&#x3c1;" horiz-adv-x="530" 
d="M68 -237v486q0 114 53 175t149 61q101 0 160 -65t59 -180q0 -111 -60 -180.5t-161 -69.5q-64 0 -110 33h-2v-260h-88zM156 102q47 -38 105 -38q68 0 102.5 49.5t34.5 128.5q0 82 -36.5 126t-89.5 44q-60 0 -88 -45t-28 -119v-146z" />
    <glyph glyph-name="sigmafinal" unicode="&#x3c2;" horiz-adv-x="427" 
d="M254 -144q45 60 45 93q0 25 -19 44.5t-48 32t-62 31t-62 40.5t-48 63t-19 96q0 103 59 166t162 63q72 0 125 -30v-77q-52 34 -119 34q-68 0 -102 -42.5t-34 -109.5q0 -51 26.5 -86t64 -53.5t75 -35.5t64 -46t26.5 -72q0 -63 -64 -151z" />
    <glyph glyph-name="sigma" unicode="&#x3c3;" horiz-adv-x="562" 
d="M403 403v-2q64 -76 64 -181q0 -97 -59 -163.5t-155 -66.5q-97 0 -154.5 65.5t-57.5 168.5q0 119 68 184t179 65h279l-25 -74h-59q-51 0 -80 4zM131 223q0 -73 31.5 -116.5t90.5 -43.5q58 0 91 45.5t33 117.5q0 101 -63 174h-16q-83 0 -125 -48t-42 -129z" />
    <glyph glyph-name="tau" unicode="&#x3c4;" horiz-adv-x="439" 
d="M291 -10q-61 0 -98.5 31.5t-37.5 91.5v289h-132v71h409l-24 -71h-165v-279q0 -30 17.5 -45t44.5 -15q40 0 70 22l30 -62q-48 -33 -114 -33z" />
    <glyph glyph-name="upsilon" unicode="&#x3c5;" horiz-adv-x="557" 
d="M20 471q34 14 67 14q99 0 99 -124q0 -20 -4.5 -68t-4.5 -75q0 -155 110 -155q62 0 94.5 52.5t32.5 144.5q0 51 -16 110.5t-45 102.5h93q58 -95 58 -216t-56 -194t-161 -73q-97 0 -148.5 55.5t-51.5 158.5q0 28 4.5 74.5t4.5 68.5q0 34 -8 46.5t-25 12.5q-12 0 -24 -5z
" />
    <glyph glyph-name="phi" unicode="&#x3c6;" horiz-adv-x="675" 
d="M294 -237v227q-114 10 -183.5 79.5t-69.5 168.5t69.5 168.5t183.5 79.5v222h87v-222q114 -10 184 -79.5t70 -168.5t-70 -168.5t-184 -79.5v-227h-87zM294 63v350q-72 -8 -118 -56t-46 -119t46 -119.5t118 -55.5zM381 63q72 7 118 55.5t46 119.5t-46 119.5t-118 55.5v-350
z" />
    <glyph glyph-name="chi" unicode="&#x3c7;" horiz-adv-x="486" 
d="M89 -237h-93l199 376q-23 79 -35 117t-29.5 79t-34 56.5t-36.5 15.5q-13 0 -27 -4l-19 70q26 10 58 10q61 0 98.5 -57.5t80.5 -203.5h2l128 251h93l-185 -348q56 -187 76 -230q29 -60 66 -60q12 0 26 4l20 -70q-28 -10 -58 -10q-64 0 -102 62t-84 220h-2z" />
    <glyph glyph-name="psi" unicode="&#x3c8;" horiz-adv-x="679" 
d="M378 -237h-87v228q-115 6 -177 64t-62 165q0 25 4.5 69.5t4.5 67.5q0 61 -22 116h87q24 -48 24 -116q0 -21 -4 -64t-4 -66q0 -154 149 -165v646h87v-645q80 6 125 59t45 144q0 126 -61 207h94q58 -87 58 -211q0 -119 -69 -191.5t-192 -79.5v-228z" />
    <glyph glyph-name="omega" unicode="&#x3c9;" horiz-adv-x="747" 
d="M374 125h-2q-14 -64 -54.5 -99.5t-100.5 -35.5q-81 0 -128.5 61t-47.5 152q0 157 116 277l87 -16q-115 -121 -115 -256q0 -66 25.5 -104.5t72.5 -38.5q52 0 78 53t26 132q0 62 -5 101h95q-5 -39 -5 -101q0 -80 25.5 -132.5t78.5 -52.5q47 0 72.5 38.5t25.5 104.5
q0 136 -116 256l88 16q116 -120 116 -277q0 -91 -47.5 -152t-128.5 -61q-60 0 -100.5 35.5t-55.5 99.5z" />
    <glyph glyph-name="iotadieresis" unicode="&#x3ca;" horiz-adv-x="259" 
d="M171 -6q-50 0 -78 27t-28 79v373h88v-357q0 -45 40 -45q21 0 33 7l20 -70q-34 -14 -75 -14zM22 555q-20 0 -34.5 14.5t-14.5 35.5q0 20 14.5 34.5t34.5 14.5t34.5 -14.5t14.5 -34.5q0 -21 -14.5 -35.5t-34.5 -14.5zM204 555q-21 0 -35.5 14.5t-14.5 35.5q0 20 14.5 34.5
t35.5 14.5q20 0 34.5 -14.5t14.5 -34.5q0 -21 -14.5 -35.5t-34.5 -14.5z" />
    <glyph glyph-name="upsilondieresis" unicode="&#x3cb;" horiz-adv-x="557" 
d="M20 471q34 14 67 14q99 0 99 -124q0 -20 -4.5 -68t-4.5 -75q0 -155 110 -155q62 0 94.5 52.5t32.5 144.5q0 51 -16 110.5t-45 102.5h93q58 -95 58 -216t-56 -194t-161 -73q-97 0 -148.5 55.5t-51.5 158.5q0 28 4.5 74.5t4.5 68.5q0 34 -8 46.5t-25 12.5q-12 0 -24 -5z
M176 555q-20 0 -34.5 14.5t-14.5 35.5q0 20 14.5 34.5t34.5 14.5t34.5 -14.5t14.5 -34.5q0 -21 -14.5 -35.5t-34.5 -14.5zM358 555q-21 0 -35.5 14.5t-14.5 35.5q0 20 14.5 34.5t35.5 14.5q20 0 34.5 -14.5t14.5 -34.5q0 -21 -14.5 -35.5t-34.5 -14.5z" />
    <glyph glyph-name="omicrontonos" unicode="&#x3cc;" horiz-adv-x="530" 
d="M265 -10q-100 0 -162 70.5t-62 176.5q0 107 62.5 177.5t162.5 70.5q99 0 161.5 -71t62.5 -177t-62.5 -176.5t-162.5 -70.5zM265 63q62 0 98 48.5t36 125.5q0 78 -36 126.5t-97 48.5q-62 0 -98 -48.5t-36 -126.5q0 -77 36 -125.5t97 -48.5zM411 698l-112 -167h-72l76 167
h108z" />
    <glyph glyph-name="upsilontonos" unicode="&#x3cd;" horiz-adv-x="557" 
d="M401 698l-112 -167h-72l76 167h108zM20 471q34 14 67 14q99 0 99 -124q0 -20 -4.5 -68t-4.5 -75q0 -155 110 -155q62 0 94.5 52.5t32.5 144.5q0 51 -16 110.5t-45 102.5h93q58 -95 58 -216t-56 -194t-161 -73q-97 0 -148.5 55.5t-51.5 158.5q0 28 4.5 74.5t4.5 68.5
q0 34 -8 46.5t-25 12.5q-12 0 -24 -5z" />
    <glyph glyph-name="omegatonos" unicode="&#x3ce;" horiz-adv-x="762" 
d="M381 125h-2q-14 -64 -54.5 -99.5t-100.5 -35.5q-81 0 -128.5 61t-47.5 152q0 157 116 277l87 -16q-115 -121 -115 -256q0 -66 25.5 -104.5t72.5 -38.5q52 0 78 53t26 132q0 62 -5 101h95q-5 -39 -5 -101q0 -80 25.5 -132.5t78.5 -52.5q47 0 72.5 38.5t25.5 104.5
q0 136 -116 256l88 16q116 -120 116 -277q0 -91 -47.5 -152t-128.5 -61q-60 0 -100.5 35.5t-55.5 99.5zM528 698l-112 -167h-72l76 167h108z" />
    <glyph glyph-name="uni0400" unicode="&#x400;" horiz-adv-x="484" 
d="M87 0v659h333l-27 -76h-217v-209h215v-76h-215v-222h248v-76h-337zM224 696l-89 147h100l58 -147h-69z" />
    <glyph glyph-name="afii10023" unicode="&#x401;" horiz-adv-x="484" 
d="M87 0v659h333l-27 -76h-217v-209h215v-76h-215v-222h248v-76h-337zM159 704q-20 0 -34.5 14.5t-14.5 35.5q0 20 14.5 34.5t34.5 14.5t34.5 -14.5t14.5 -34.5q0 -21 -14.5 -35.5t-34.5 -14.5zM341 704q-21 0 -35.5 14.5t-14.5 35.5q0 20 14.5 34.5t35.5 14.5
q20 0 34.5 -14.5t14.5 -34.5q0 -21 -14.5 -35.5t-34.5 -14.5z" />
    <glyph glyph-name="afii10051" unicode="&#x402;" horiz-adv-x="710" 
d="M211 0v586h-191v73h517l-26 -73h-212v-202q35 4 85 4q145 0 208 -53.5t63 -152.5q0 -81 -50.5 -134.5t-137.5 -53.5q-43 0 -80 13l21 71q26 -9 52 -9q47 0 75.5 31t28.5 86q0 71 -45.5 98.5t-137.5 27.5q-45 0 -82 -5v-307h-88z" />
    <glyph glyph-name="afii10052" unicode="&#x403;" horiz-adv-x="436" 
d="M87 0v659h343l-27 -76h-228v-583h-88zM213 696l58 147h98l-89 -147h-67z" />
    <glyph glyph-name="afii10053" unicode="&#x404;" horiz-adv-x="611" 
d="M368 -10q-151 0 -231.5 90t-80.5 242q0 151 87.5 247t237.5 96q106 0 170 -35v-82q-77 41 -169 41q-101 0 -162.5 -59.5t-69.5 -157.5h336v-73h-337q4 -108 63.5 -171t164.5 -63q83 0 162 43l25 -70q-89 -48 -196 -48z" />
    <glyph glyph-name="afii10054" unicode="&#x405;" horiz-adv-x="510" 
d="M54 42l37 69q67 -45 144 -45q55 0 90.5 23.5t35.5 73.5q0 41 -29.5 71.5t-72 52.5t-85 46t-72 64t-29.5 95q0 74 54 123.5t146 49.5q85 0 149 -32v-81q-69 37 -146 37q-46 0 -78 -21.5t-32 -66.5q0 -38 30 -67.5t72 -51t84.5 -46.5t72.5 -67t30 -99q0 -83 -60.5 -131.5
t-158.5 -48.5q-105 0 -182 52z" />
    <glyph glyph-name="afii10055" unicode="&#x406;" horiz-adv-x="262" 
d="M87 0v659h89v-659h-89z" />
    <glyph glyph-name="afii10056" unicode="&#x407;" horiz-adv-x="262" 
d="M87 0v659h89v-659h-89zM40 704q-20 0 -34.5 14.5t-14.5 35.5q0 20 14.5 34.5t34.5 14.5t34.5 -14.5t14.5 -34.5q0 -21 -14.5 -35.5t-34.5 -14.5zM222 704q-21 0 -35.5 14.5t-14.5 35.5q0 20 14.5 34.5t35.5 14.5q20 0 34.5 -14.5t14.5 -34.5q0 -21 -14.5 -35.5
t-34.5 -14.5z" />
    <glyph glyph-name="afii10057" unicode="&#x408;" horiz-adv-x="306" 
d="M-25 -172l17 74q22 -9 53 -9q50 0 68 27t18 79v660h89v-676q0 -77 -41.5 -121.5t-128.5 -44.5q-37 0 -75 11z" />
    <glyph glyph-name="afii10058" unicode="&#x409;" horiz-adv-x="893" 
d="M530 74h60q160 0 160 125q0 74 -53 103q-38 23 -120 23h-47v-251zM42 -6q-14 0 -28 3v83q9 -2 20 -2q49 0 78 49q42 71 73 229.5t43 302.5h302v-260h44q112 0 176 -34q91 -50 91 -163q0 -94 -61.5 -148t-192.5 -54h-146v586h-137q-11 -132 -44.5 -285.5t-79.5 -227.5
q-48 -79 -138 -79z" />
    <glyph glyph-name="afii10059" unicode="&#x40a;" horiz-adv-x="954" 
d="M87 0v659h88v-284h325v284h89v-260h47q111 0 175 -34q91 -49 91 -163q0 -95 -61 -148.5t-193 -53.5h-148v299h-325v-299h-88zM589 74h62q161 0 161 125q0 74 -54 103q-37 23 -119 23h-50v-251z" />
    <glyph glyph-name="afii10060" unicode="&#x40b;" horiz-adv-x="737" 
d="M211 0v586h-191v73h515l-26 -73h-210v-198q56 7 96 7q98 0 160 -27.5t87 -97.5q13 -35 13 -103v-167h-88v158q0 49 -10 82q-15 46 -55 62t-105 16q-39 0 -98 -7v-311h-88z" />
    <glyph glyph-name="afii10061" unicode="&#x40c;" horiz-adv-x="589" 
d="M262 696l58 147h98l-89 -147h-67zM87 0v659h88v-291h65q29 0 50.5 14t36 40t24 52.5t21.5 62.5t23 58q34 70 105 70q30 0 49 -8v-80q-16 6 -34 6q-32 0 -49 -31q-10 -18 -27 -69t-38 -90t-52 -57v-2q40 -14 84 -97l127 -237h-102l-110 215q-41 79 -75 79h-98v-294h-88z
" />
    <glyph glyph-name="uni040D" unicode="&#x40d;" horiz-adv-x="729" 
d="M87 0v659h88v-398q0 -79 -2 -114h2q52 75 89 123l293 389h86v-659h-89v413q0 48 2 110h-2q-36 -52 -86 -119l-305 -404h-76zM338 696l-89 147h100l58 -147h-69z" />
    <glyph glyph-name="afii10062" unicode="&#x40e;" horiz-adv-x="576" 
d="M138 -7q-26 0 -43 4v77q16 -4 35 -4q42 0 67 26.5t57 91.5l-233 471h99l179 -377h2l163 377h97l-230 -504q-39 -87 -85 -124.5t-108 -37.5zM290 696q-78 0 -120 41t-40 107h75q0 -36 20.5 -58.5t64.5 -22.5q43 0 63.5 22.5t20.5 58.5h76q2 -66 -41 -107t-119 -41z" />
    <glyph glyph-name="afii10145" unicode="&#x40f;" horiz-adv-x="671" 
d="M87 0v659h88v-581h320v581h89v-659h-205v-184h-87v184h-205z" />
    <glyph glyph-name="afii10017" unicode="&#x410;" horiz-adv-x="607" 
d="M17 0l251 661h66l256 -661h-96l-64 173h-256l-63 -173h-94zM201 246h201l-62 172q-19 56 -37 110h-2q-7 -25 -38 -111z" />
    <glyph glyph-name="afii10018" unicode="&#x411;" horiz-adv-x="550" 
d="M175 74h72q160 0 160 122q0 75 -54 103q-37 20 -119 20h-59v-245zM87 0v659h383l-26 -73h-269v-193h57q111 0 172 -30q94 -47 94 -164q0 -93 -61.5 -146t-192.5 -53h-157z" />
    <glyph glyph-name="afii10019" unicode="&#x412;" horiz-adv-x="550" 
d="M87 0v659h166q100 0 151.5 -47.5t51.5 -119.5q0 -48 -22.5 -85.5t-62.5 -55.5v-2q57 -13 92 -56.5t35 -103.5q0 -84 -59 -136.5t-167 -52.5h-185zM176 74h91q140 0 140 114q0 51 -35.5 81t-94.5 30h-101v-225zM176 373h67q60 0 92 28.5t32 78.5q0 48 -30 76.5t-92 28.5
h-69v-212z" />
    <glyph glyph-name="afii10020" unicode="&#x413;" horiz-adv-x="436" 
d="M87 0v659h343l-27 -76h-228v-583h-88z" />
    <glyph glyph-name="afii10021" unicode="&#x414;" horiz-adv-x="658" 
d="M20 -184v260h39q139 180 200 583h290v-583h79v-260h-86v184h-436v-184h-86zM460 76v510h-130q-46 -320 -170 -508v-2h300z" />
    <glyph glyph-name="afii10022" unicode="&#x415;" horiz-adv-x="484" 
d="M87 0v659h333l-27 -76h-217v-209h215v-76h-215v-222h248v-76h-337z" />
    <glyph glyph-name="afii10024" unicode="&#x416;" horiz-adv-x="884" 
d="M29 0l117 230q45 88 86 103v2q-31 18 -50.5 57t-34 90t-24.5 70q-18 32 -48 32q-16 0 -36 -7v80q20 8 48 8q70 0 104 -70q13 -26 27.5 -73t25 -77t34.5 -54.5t60 -24.5h61v293h86v-293h61q36 0 60 24.5t34.5 54.5t25 77t27.5 73q33 70 104 70q28 0 48 -8v-80q-20 7 -36 7
q-30 0 -48 -32q-10 -19 -24.5 -70t-34 -90t-50.5 -57v-2q41 -15 86 -103l117 -230h-100l-104 213q-38 80 -72 80h-94v-293h-86v293h-94q-34 0 -73 -80l-103 -213h-100z" />
    <glyph glyph-name="afii10025" unicode="&#x417;" horiz-adv-x="514" 
d="M219 -10q-87 0 -158 31v80q68 -35 154 -35q68 0 109.5 31t41.5 91q0 111 -165 111q-41 0 -61 -1v75q17 -1 49 -1q161 0 161 111q0 49 -32 77.5t-95 28.5q-72 0 -144 -37l-25 69q80 44 178 44q102 0 156 -50t54 -125q0 -110 -111 -150v-2q60 -11 94 -50.5t34 -101.5
q0 -86 -61 -141t-179 -55z" />
    <glyph glyph-name="afii10026" unicode="&#x418;" horiz-adv-x="729" 
d="M87 0v659h88v-398q0 -79 -2 -114h2q52 75 89 123l293 389h86v-659h-89v413q0 48 2 110h-2q-36 -52 -86 -119l-305 -404h-76z" />
    <glyph glyph-name="afii10027" unicode="&#x419;" horiz-adv-x="729" 
d="M87 0v659h88v-398q0 -79 -2 -114h2q52 75 89 123l293 389h86v-659h-89v413q0 48 2 110h-2q-36 -52 -86 -119l-305 -404h-76zM366 696q-78 0 -120 41t-40 107h75q0 -36 20.5 -58.5t64.5 -22.5q43 0 63.5 22.5t20.5 58.5h76q2 -66 -41 -107t-119 -41z" />
    <glyph glyph-name="afii10028" unicode="&#x41a;" horiz-adv-x="589" 
d="M87 0v659h88v-291h65q29 0 50.5 14t36 40t24 52.5t21.5 62.5t23 58q34 70 105 70q30 0 49 -8v-80q-16 6 -34 6q-32 0 -49 -31q-10 -18 -27 -69t-38 -90t-52 -57v-2q40 -14 84 -97l127 -237h-102l-110 215q-41 79 -75 79h-98v-294h-88z" />
    <glyph glyph-name="afii10029" unicode="&#x41b;" horiz-adv-x="628" 
d="M42 -6q-14 0 -28 3v83q9 -2 20 -2q49 0 78 49q42 71 73 229.5t43 302.5h314v-659h-89v586h-149q-11 -132 -44.5 -285.5t-79.5 -227.5q-48 -79 -138 -79z" />
    <glyph glyph-name="afii10030" unicode="&#x41c;" horiz-adv-x="806" 
d="M87 0v659h82l180 -268q45 -67 60 -92h2q24 42 58 96l168 264h82v-659h-88v407q0 71 1 104h-1q-11 -20 -47 -78l-152 -242h-44l-167 247q-31 45 -45 71h-2q2 -29 2 -100v-409h-89z" />
    <glyph glyph-name="afii10031" unicode="&#x41d;" horiz-adv-x="697" 
d="M87 0v659h89v-284h346v284h88v-659h-88v299h-346v-299h-89z" />
    <glyph glyph-name="afii10032" unicode="&#x41e;" horiz-adv-x="761" 
d="M381 -10q-142 0 -233.5 93t-91.5 244q0 149 91.5 243.5t233.5 94.5t233 -95t91 -243q0 -151 -92 -244t-232 -93zM381 66q104 0 167 71t63 190q0 116 -61.5 189t-168.5 73q-104 0 -167.5 -72t-63.5 -190q0 -119 63 -190t168 -71z" />
    <glyph glyph-name="afii10033" unicode="&#x41f;" horiz-adv-x="669" 
d="M87 0v659h496v-659h-89v583h-319v-583h-88z" />
    <glyph glyph-name="afii10034" unicode="&#x420;" horiz-adv-x="512" 
d="M87 0v659h135q91 0 145 -30q99 -54 99 -181q0 -134 -116 -186q-54 -24 -136 -24h-38v-238h-89zM176 311h44q56 0 90 18q63 32 63 119q0 82 -59 117q-36 21 -93 21h-45v-275z" />
    <glyph glyph-name="afii10035" unicode="&#x421;" horiz-adv-x="605" 
d="M550 109l25 -71q-91 -48 -193 -48q-149 0 -234.5 92t-85.5 240q0 146 93 244.5t241 98.5q102 0 166 -35v-83q-79 42 -164 42q-109 0 -175.5 -76t-66.5 -187q0 -117 64 -188.5t172 -71.5q79 0 158 43z" />
    <glyph glyph-name="afii10036" unicode="&#x422;" horiz-adv-x="514" 
d="M211 0v583h-190v76h488l-27 -76h-182v-583h-89z" />
    <glyph glyph-name="afii10037" unicode="&#x423;" horiz-adv-x="576" 
d="M138 -7q-26 0 -43 4v77q16 -4 35 -4q42 0 67 26.5t57 91.5l-233 471h99l179 -377h2l163 377h97l-230 -504q-39 -87 -85 -124.5t-108 -37.5z" />
    <glyph glyph-name="afii10038" unicode="&#x424;" horiz-adv-x="749" 
d="M331 -18v91q-131 8 -203 72.5t-72 182.5t73 186t202 76v84h89v-84q128 -9 200.5 -77t72.5 -185q0 -118 -72 -182.5t-201 -72.5v-91h-89zM331 150v364q-184 -14 -184 -186q0 -168 184 -178zM420 150q182 11 182 178q0 172 -182 185v-363z" />
    <glyph glyph-name="afii10039" unicode="&#x425;" horiz-adv-x="608" 
d="M21 0l232 331l-217 328h103l170 -260l179 260h100l-227 -325l221 -334h-101l-176 266l-185 -266h-99z" />
    <glyph glyph-name="afii10040" unicode="&#x426;" horiz-adv-x="687" 
d="M87 0v659h88v-583h313v583h89v-583h80v-260h-87v184h-483z" />
    <glyph glyph-name="afii10041" unicode="&#x427;" horiz-adv-x="606" 
d="M430 0v271q-56 -7 -96 -7q-99 0 -161 27.5t-87 97.5q-13 35 -13 103v167h88v-158q0 -49 10 -82q15 -46 55.5 -62t105.5 -16q40 0 98 7v311h89v-659h-89z" />
    <glyph glyph-name="afii10042" unicode="&#x428;" horiz-adv-x="901" 
d="M87 0v659h88v-583h231v583h89v-583h231v583h89v-659h-728z" />
    <glyph glyph-name="afii10043" unicode="&#x429;" horiz-adv-x="918" 
d="M87 0v659h88v-583h228v583h89v-583h227v583h89v-583h80v-260h-87v184h-714z" />
    <glyph glyph-name="afii10044" unicode="&#x42a;" horiz-adv-x="682" 
d="M227 0v586h-199l-25 73h313v-260h47q112 0 176 -34q91 -49 91 -163q0 -94 -61.5 -148t-192.5 -54h-149zM316 74h63q160 0 160 125q0 74 -53 103q-38 23 -120 23h-50v-251z" />
    <glyph glyph-name="afii10045" unicode="&#x42b;" horiz-adv-x="737" 
d="M87 0v659h88v-260h42q107 0 169 -31q97 -48 97 -166q0 -94 -61.5 -148t-192.5 -54h-142zM175 74h57q160 0 160 125q0 76 -56 105q-39 21 -116 21h-45v-251zM562 0v659h89v-659h-89z" />
    <glyph glyph-name="afii10046" unicode="&#x42c;" horiz-adv-x="550" 
d="M175 74h72q160 0 160 125q0 75 -54 104q-35 22 -120 22h-58v-251zM87 0v659h88v-260h55q110 0 171 -30q97 -49 97 -167q0 -94 -61.5 -148t-192.5 -54h-157z" />
    <glyph glyph-name="afii10047" unicode="&#x42d;" horiz-adv-x="597" 
d="M225 -10q-96 0 -168 31v80q72 -36 163 -36q104 0 163.5 60.5t64.5 173.5h-315v73h314q-7 96 -65.5 156.5t-159.5 60.5q-80 0 -150 -36l-26 69q86 43 183 43q148 0 230 -95.5t82 -241.5q0 -153 -82 -245.5t-234 -92.5z" />
    <glyph glyph-name="afii10048" unicode="&#x42e;" horiz-adv-x="984" 
d="M87 0v659h88v-284h150q14 129 95.5 209.5t204.5 80.5q136 0 219.5 -95.5t83.5 -242.5q0 -151 -84.5 -244t-218.5 -93q-128 0 -211 85t-90 224h-149v-299h-88zM625 66q97 0 153 71.5t56 189.5q0 115 -55 188.5t-154 73.5q-96 0 -152 -72t-56 -190t56 -189.5t152 -71.5z
" />
    <glyph glyph-name="afii10049" unicode="&#x42f;" horiz-adv-x="574" 
d="M29 0l108 210q39 74 70 91v2q-57 18 -86.5 61t-29.5 102q0 93 60 143t157 50h180v-659h-89v273h-100q-34 0 -73 -80l-94 -193h-103zM183 462q0 -58 37 -87t97 -29h82v240h-79q-62 0 -99.5 -32t-37.5 -92z" />
    <glyph glyph-name="afii10065" unicode="&#x430;" horiz-adv-x="476" 
d="M347 0l-15 51q-65 -61 -141 -61q-66 0 -109 40.5t-43 107.5q0 90 80 128q43 21 119 24l88 3v25q0 48 -26.5 72t-71.5 24q-66 0 -129 -37l-31 61q78 47 171 47q83 0 129 -41t46 -124v-172q0 -112 9 -148h-76zM326 230l-77 -3q-52 -1 -83 -17q-37 -21 -37 -67
q0 -37 22.5 -59t59.5 -22q61 0 115 54v114z" />
    <glyph glyph-name="afii10066" unicode="&#x431;" horiz-adv-x="514" 
d="M256 -10q-100 0 -157 75t-57 234q0 85 18.5 156.5t48.5 107.5q12 16 23.5 27.5t31 22.5t32 18t44.5 18t49.5 16t66.5 20t77 23v-84q-173 -52 -202 -65q-42 -18 -61 -48q-24 -36 -34 -101h2q71 42 141 42q97 0 145.5 -62t48.5 -162q0 -106 -56.5 -172t-160.5 -66zM259 63
q63 0 93 44t30 117q0 156 -117 156q-61 0 -132 -43q-1 -14 -1 -41q0 -233 127 -233z" />
    <glyph glyph-name="afii10067" unicode="&#x432;" horiz-adv-x="471" 
d="M66 0v473h172q95 0 138 -37t43 -90q0 -77 -79 -102v-2q40 -10 65.5 -37.5t25.5 -70.5q0 -57 -43.5 -95.5t-139.5 -38.5h-182zM151 66h99q93 0 93 71q0 35 -22.5 53.5t-63.5 18.5h-106v-143zM151 271h95q85 0 85 68t-93 68h-87v-136z" />
    <glyph glyph-name="afii10068" unicode="&#x433;" horiz-adv-x="399" 
d="M66 0v473h319l-27 -78h-204v-395h-88z" />
    <glyph glyph-name="afii10069" unicode="&#x434;" horiz-adv-x="547" 
d="M21 -164v236h29q52 67 83 155.5t57 245.5h256v-401h67v-236h-83v164h-326v-164h-83zM358 72v328h-103q-32 -204 -108 -326v-2h211z" />
    <glyph glyph-name="afii10070" unicode="&#x435;" horiz-adv-x="478" 
d="M437 217h-305q1 -68 41 -111.5t108 -43.5q59 0 118 32l27 -61q-68 -43 -155 -43q-112 0 -170.5 71t-58.5 179q0 109 55 177t145 68q92 0 143.5 -66t51.5 -180v-22zM132 283h214q-1 54 -27.5 93t-76.5 39q-49 0 -79 -38t-31 -94z" />
    <glyph glyph-name="afii10072" unicode="&#x436;" horiz-adv-x="694" 
d="M24 0l83 177q25 53 56 63v2q-21 11 -33 39.5t-21 61.5t-19 47q-11 17 -34 17q-13 0 -24 -4v77q14 5 39 5q53 0 78 -42q13 -21 26.5 -67.5t29 -74t44.5 -27.5h55v199h86v-199h55q29 0 44.5 27t28.5 74t26 68q27 42 79 42q25 0 39 -5v-77q-11 4 -24 4q-23 0 -34 -17
q-7 -10 -26.5 -71.5t-47.5 -76.5v-2q32 -10 57 -63l83 -177h-93l-67 156q-22 50 -47 50h-73v-206h-86v206h-74q-24 0 -46 -50l-67 -156h-93z" />
    <glyph glyph-name="afii10073" unicode="&#x437;" horiz-adv-x="425" 
d="M191 -10q-73 0 -137 31v71q66 -32 132 -32q106 0 106 77q0 74 -127 74q-31 0 -47 -2v67q19 -1 54 -1q59 0 84.5 20.5t25.5 51.5q0 33 -24.5 50.5t-67.5 17.5q-58 0 -114 -29l-25 64q68 35 146 35t125.5 -36.5t47.5 -93.5q0 -38 -22 -66.5t-61 -40.5v-3q94 -22 94 -111
q0 -58 -49 -101t-141 -43z" />
    <glyph glyph-name="afii10074" unicode="&#x438;" horiz-adv-x="541" 
d="M66 0v473h87v-251q0 -5 -3 -98h2q31 49 65 99l174 250h84v-473h-87v251q0 51 3 98h-2q-26 -45 -64 -99l-175 -250h-84z" />
    <glyph glyph-name="afii10075" unicode="&#x439;" horiz-adv-x="541" 
d="M66 0v473h87v-251q0 -5 -3 -98h2q31 49 65 99l174 250h84v-473h-87v251q0 51 3 98h-2q-26 -45 -64 -99l-175 -250h-84zM276 543q-75 0 -116 42t-39 108h75q0 -37 19.5 -60.5t60.5 -23.5t60 24t19 60h75q2 -66 -39.5 -108t-114.5 -42z" />
    <glyph glyph-name="afii10076" unicode="&#x43a;" horiz-adv-x="468" 
d="M66 0v473h88v-198h61q29 0 45 27t29.5 72.5t25.5 65.5q28 45 82 45q25 0 39 -5v-77q-13 5 -24 5q-21 0 -34 -18q-7 -10 -28 -71t-48 -77v-2q30 -8 57 -62l86 -178h-93l-71 157q-23 49 -46 49h-81v-206h-88z" />
    <glyph glyph-name="afii10077" unicode="&#x43b;" horiz-adv-x="507" 
d="M34 -8q-7 0 -23 2v80q5 -2 14 -2q30 0 54 37q30 45 57.5 144t41.5 220h263v-473h-88v396h-105q-14 -113 -43 -207.5t-64 -141.5q-40 -55 -107 -55z" />
    <glyph glyph-name="afii10078" unicode="&#x43c;" horiz-adv-x="603" 
d="M66 0v473h88l92 -152q38 -64 54 -100h2q18 37 56 100l90 152h89v-473h-87v249q0 60 3 90h-3q-18 -35 -45 -80l-84 -137h-40l-83 137q-32 54 -46 80h-2q2 -21 2 -96v-243h-86z" />
    <glyph glyph-name="afii10079" unicode="&#x43d;" horiz-adv-x="523" 
d="M66 0v473h88v-182h215v182h88v-473h-88v214h-215v-214h-88z" />
    <glyph glyph-name="afii10080" unicode="&#x43e;" horiz-adv-x="530" 
d="M265 -10q-100 0 -162 70.5t-62 176.5q0 107 62.5 177.5t162.5 70.5q99 0 161.5 -71t62.5 -177t-62.5 -176.5t-162.5 -70.5zM265 63q62 0 98 48.5t36 125.5q0 78 -36 126.5t-97 48.5q-62 0 -98 -48.5t-36 -126.5q0 -77 36 -125.5t97 -48.5z" />
    <glyph glyph-name="afii10081" unicode="&#x43f;" horiz-adv-x="517" 
d="M66 0v473h384v-473h-88v395h-208v-395h-88z" />
    <glyph glyph-name="afii10082" unicode="&#x440;" horiz-adv-x="514" 
d="M65 -237v693q82 29 163 29q117 0 181.5 -65t64.5 -181q0 -112 -67.5 -180.5t-173.5 -68.5q-42 0 -80 15v-242h-88zM153 82q35 -17 76 -17q74 0 114 47t40 128q0 85 -43 128t-115 43q-34 0 -72 -11v-318z" />
    <glyph glyph-name="afii10083" unicode="&#x441;" horiz-adv-x="437" 
d="M270 -10q-107 0 -168 68.5t-61 173.5q0 108 67 180.5t173 72.5q69 0 121 -30v-77q-52 34 -114 34q-71 0 -113.5 -49t-42.5 -126q0 -82 40.5 -128t109.5 -46q53 0 113 33l26 -62q-64 -44 -151 -44z" />
    <glyph glyph-name="afii10084" unicode="&#x442;" horiz-adv-x="445" 
d="M173 0v398h-149v75h410l-26 -75h-147v-398h-88z" />
    <glyph glyph-name="afii10085" unicode="&#x443;" horiz-adv-x="488" 
d="M477 473l-178 -503q-23 -65 -49.5 -108t-55.5 -63.5t-54.5 -28t-59.5 -7.5q-52 0 -91 18l21 71q33 -15 68 -15q47 0 82 37.5t62 124.5l-210 474h95l155 -367h2l121 367h92z" />
    <glyph glyph-name="afii10086" unicode="&#x444;" horiz-adv-x="651" 
d="M283 -237v228q-115 9 -178.5 77.5t-63.5 168.5q0 101 63 169.5t179 77.5v202h85v-202q115 -9 178.5 -77.5t63.5 -168.5q0 -101 -63.5 -169.5t-178.5 -77.5v-228h-85zM283 65v345q-73 -8 -113.5 -55t-40.5 -118q0 -70 41 -117.5t113 -54.5zM368 65q72 7 113 55t41 118
t-41 117.5t-113 54.5v-345z" />
    <glyph glyph-name="afii10087" unicode="&#x445;" horiz-adv-x="465" 
d="M12 0l173 237l-166 236h97l120 -174l123 174h94l-169 -234l168 -239h-95l-124 177l-125 -177h-96z" />
    <glyph glyph-name="afii10088" unicode="&#x446;" horiz-adv-x="541" 
d="M66 0v473h88v-397h198v397h88v-397h67v-240h-83v164h-358z" />
    <glyph glyph-name="afii10089" unicode="&#x447;" horiz-adv-x="488" 
d="M334 0v187q-51 -10 -97 -10q-90 0 -136 36.5t-46 104.5v155h88v-143q0 -40 23.5 -60.5t78.5 -20.5q39 0 89 9v215h88v-473h-88z" />
    <glyph glyph-name="afii10090" unicode="&#x448;" horiz-adv-x="703" 
d="M66 0v473h86v-398h156v398h86v-398h157v398h86v-473h-571z" />
    <glyph glyph-name="afii10091" unicode="&#x449;" horiz-adv-x="727" 
d="M66 0v473h86v-398h152v398h85v-398h152v398h86v-398h66v-239h-83v164h-544z" />
    <glyph glyph-name="afii10092" unicode="&#x44a;" horiz-adv-x="593" 
d="M200 0v399h-167l-23 74h278v-180q31 3 59 3q108 0 156 -40.5t48 -105.5q0 -66 -46.5 -108t-153.5 -42h-151zM288 70h60q65 0 89.5 20.5t24.5 57.5q0 38 -26 57.5t-91 19.5q-27 0 -57 -3v-152z" />
    <glyph glyph-name="afii10093" unicode="&#x44b;" horiz-adv-x="628" 
d="M66 0v473h88v-180q31 3 55 3q105 0 152.5 -40.5t47.5 -105.5q0 -66 -46 -108t-153 -42h-144zM154 70h54q64 0 88 20.5t24 57.5q0 38 -25 57.5t-87 19.5q-26 0 -54 -3v-152zM474 0v473h88v-473h-88z" />
    <glyph glyph-name="afii10094" unicode="&#x44c;" horiz-adv-x="465" 
d="M66 0v473h88v-180q31 3 58 3q113 0 162 -40.5t49 -106.5q0 -149 -204 -149h-153zM154 70h62q68 0 93 20.5t25 57.5q0 38 -27 57.5t-96 19.5q-29 0 -57 -3v-152z" />
    <glyph glyph-name="afii10095" unicode="&#x44d;" horiz-adv-x="451" 
d="M183 -10q-68 0 -126 29v71q58 -31 119 -31q68 0 105 39t41 112h-207v65h206q-6 63 -43.5 101.5t-101.5 38.5q-54 0 -101 -27l-25 65q61 32 134 32q105 0 165.5 -70.5t60.5 -176.5q0 -111 -58 -179.5t-169 -68.5z" />
    <glyph glyph-name="afii10096" unicode="&#x44e;" horiz-adv-x="719" 
d="M66 0v473h88v-190h102q12 90 67 146t142 56q98 0 155.5 -70t57.5 -178q0 -107 -57.5 -177t-155.5 -70q-90 0 -146.5 60t-64.5 156h-100v-206h-88zM465 63q60 0 91.5 47.5t31.5 126.5q0 80 -31 127.5t-92 47.5q-60 0 -91.5 -47.5t-31.5 -127.5q0 -79 31.5 -126.5
t91.5 -47.5z" />
    <glyph glyph-name="afii10097" unicode="&#x44f;" horiz-adv-x="481" 
d="M35 0l67 143q22 49 50 61v2q-40 15 -61 48t-21 75q0 62 42 103t127 41h176v-473h-88v180h-94q-27 0 -48 -50l-56 -130h-94zM158 323q0 -34 21.5 -54.5t61.5 -20.5h86v155h-80q-45 0 -67 -21.5t-22 -58.5z" />
    <glyph glyph-name="uni0450" unicode="&#x450;" horiz-adv-x="478" 
d="M437 217h-305q1 -68 41 -111.5t108 -43.5q59 0 118 32l27 -61q-68 -43 -155 -43q-112 0 -170.5 71t-58.5 179q0 109 55 177t145 68q92 0 143.5 -66t51.5 -180v-22zM132 283h214q-1 54 -27.5 93t-76.5 39q-49 0 -79 -38t-31 -94zM225 531l-89 147h100l58 -147h-69z" />
    <glyph glyph-name="afii10071" unicode="&#x451;" horiz-adv-x="478" 
d="M437 217h-305q1 -68 41 -111.5t108 -43.5q59 0 118 32l27 -61q-68 -43 -155 -43q-112 0 -170.5 71t-58.5 179q0 109 55 177t145 68q92 0 143.5 -66t51.5 -180v-22zM132 283h214q-1 54 -27.5 93t-76.5 39q-49 0 -79 -38t-31 -94zM154 555q-20 0 -34.5 14.5t-14.5 35.5
q0 20 14.5 34.5t34.5 14.5t34.5 -14.5t14.5 -34.5q0 -21 -14.5 -35.5t-34.5 -14.5zM336 555q-21 0 -35.5 14.5t-14.5 35.5q0 20 14.5 34.5t35.5 14.5q20 0 34.5 -14.5t14.5 -34.5q0 -21 -14.5 -35.5t-34.5 -14.5z" />
    <glyph glyph-name="afii10099" unicode="&#x452;" horiz-adv-x="523" 
d="M70 0v555h-61v69h61v84h88v-84h146v-69h-146v-157q72 69 149 69q78 0 126 -67.5t48 -198.5q0 -251 -191 -350l-41 65q77 42 109.5 111t32.5 170q0 91 -27 141.5t-80 50.5q-59 0 -126 -64v-325h-88z" />
    <glyph glyph-name="afii10100" unicode="&#x453;" horiz-adv-x="399" 
d="M187 531l58 147h98l-89 -147h-67zM66 0v473h319l-27 -78h-204v-395h-88z" />
    <glyph glyph-name="afii10101" unicode="&#x454;" horiz-adv-x="453" 
d="M265 -10q-108 0 -166 68t-58 174q0 110 63 181.5t171 71.5q71 0 124 -30v-74q-52 34 -118 34q-65 0 -104 -38t-47 -102h205v-65h-207q4 -72 42 -111t105 -39q59 0 117 32l27 -58q-64 -44 -154 -44z" />
    <glyph glyph-name="afii10102" unicode="&#x455;" horiz-adv-x="397" 
d="M27 32l28 66q60 -36 122 -36q43 0 69.5 16.5t26.5 51.5q0 26 -23 44t-55.5 30.5t-65 28t-55.5 45.5t-23 73q0 58 44 96t122 38q64 0 124 -23v-76q-61 27 -120 27q-83 0 -83 -58q0 -26 23 -44t55.5 -30.5t65 -28t55.5 -46t23 -75.5q0 -69 -51 -105t-129 -36q-87 0 -153 42
z" />
    <glyph glyph-name="afii10103" unicode="&#x456;" horiz-adv-x="229" 
d="M70 0v473h88v-473h-88zM114 570q-24 0 -40 16.5t-16 40.5t16 40t40 16q25 0 41.5 -16t16.5 -40t-16.5 -40.5t-41.5 -16.5z" />
    <glyph glyph-name="afii10104" unicode="&#x457;" horiz-adv-x="229" 
d="M25 555q-20 0 -34.5 14.5t-14.5 35.5q0 20 14.5 34.5t34.5 14.5t34.5 -14.5t14.5 -34.5q0 -21 -14.5 -35.5t-34.5 -14.5zM207 555q-21 0 -35.5 14.5t-14.5 35.5q0 20 14.5 34.5t35.5 14.5q20 0 34.5 -14.5t14.5 -34.5q0 -21 -14.5 -35.5t-34.5 -14.5zM70 0v473h88v-473
h-88z" />
    <glyph glyph-name="afii10105" unicode="&#x458;" horiz-adv-x="241" 
d="M-53 -222l18 73q27 -11 49 -11q36 0 52.5 22.5t16.5 72.5v538h88v-553q0 -77 -40 -117t-106 -40q-47 0 -78 15zM126 570q-24 0 -40 16.5t-16 40.5t16 40t40 16q25 0 41.5 -16t16.5 -40t-16.5 -40.5t-41.5 -16.5z" />
    <glyph glyph-name="afii10106" unicode="&#x459;" horiz-adv-x="737" 
d="M430 70h62q114 0 114 78q0 38 -26.5 57.5t-93.5 19.5q-28 0 -56 -3v-152zM34 -8q-7 0 -23 2v80q5 -2 14 -2q30 0 54 37q30 45 57.5 144t41.5 220h252v-180q30 3 58 3q110 0 158.5 -40.5t48.5 -105.5q0 -66 -46.5 -108t-154.5 -42h-151v396h-95q-14 -113 -43 -207.5
t-64 -141.5q-40 -55 -107 -55z" />
    <glyph glyph-name="afii10107" unicode="&#x45a;" horiz-adv-x="751" 
d="M66 0v473h88v-182h202v182h88v-180q30 3 58 3q111 0 159.5 -40.5t48.5 -105.5q0 -66 -46 -108t-155 -42h-153v214h-202v-214h-88zM444 70h63q65 0 89 20.5t24 57.5q0 38 -26.5 57.5t-92.5 19.5q-29 0 -57 -3v-152z" />
    <glyph glyph-name="afii10108" unicode="&#x45b;" horiz-adv-x="534" 
d="M70 0v555h-61v69h61v84h88v-84h137v-69h-137v-157q83 69 163 69q64 0 105.5 -40.5t41.5 -127.5v-299h-88v275q0 55 -18 84.5t-66 29.5q-63 0 -138 -64v-325h-88z" />
    <glyph glyph-name="afii10109" unicode="&#x45c;" horiz-adv-x="468" 
d="M199 531l58 147h98l-89 -147h-67zM66 0v473h88v-198h61q29 0 45 27t29.5 72.5t25.5 65.5q28 45 82 45q25 0 39 -5v-77q-13 5 -24 5q-21 0 -34 -18q-7 -10 -28 -71t-48 -77v-2q30 -8 57 -62l86 -178h-93l-71 157q-23 49 -46 49h-81v-206h-88z" />
    <glyph glyph-name="uni045D" unicode="&#x45d;" horiz-adv-x="541" 
d="M248 531l-89 147h100l58 -147h-69zM66 0v473h87v-251q0 -5 -3 -98h2q31 49 65 99l174 250h84v-473h-87v251q0 51 3 98h-2q-26 -45 -64 -99l-175 -250h-84z" />
    <glyph glyph-name="afii10110" unicode="&#x45e;" horiz-adv-x="488" 
d="M477 473l-178 -503q-23 -65 -49.5 -108t-55.5 -63.5t-54.5 -28t-59.5 -7.5q-52 0 -91 18l21 71q33 -15 68 -15q47 0 82 37.5t62 124.5l-210 474h95l155 -367h2l121 367h92zM250 543q-75 0 -116 42t-39 108h75q0 -37 19.5 -60.5t60.5 -23.5t60 24t19 60h75
q2 -66 -39.5 -108t-114.5 -42z" />
    <glyph glyph-name="afii10193" unicode="&#x45f;" horiz-adv-x="515" 
d="M215 -164v164h-149v473h88v-397h206v397h88v-473h-149v-164h-84z" />
    <glyph glyph-name="afii10146" unicode="&#x462;" horiz-adv-x="599" 
d="M136 0v508h-129v73h129v95h89v-95h168l-26 -73h-142v-118h56q107 0 167 -27q99 -47 99 -165q0 -93 -61.5 -145.5t-192.5 -52.5h-157zM225 74h71q160 0 160 121q0 73 -53 102q-35 19 -119 19h-59v-242z" />
    <glyph glyph-name="afii10194" unicode="&#x463;" horiz-adv-x="521" 
d="M123 0v405h-123v68h123v132h88v-132h170l-24 -68h-146v-117q30 3 58 3q211 0 211 -144q0 -147 -205 -147h-152zM211 69h62q67 0 92 20t25 57q0 38 -27 57t-95 19q-28 0 -57 -3v-150z" />
    <glyph glyph-name="afii10147" unicode="&#x472;" horiz-adv-x="757" 
d="M378 -10q-146 0 -234 90t-88 247q0 154 88 246t234 92q147 0 235 -92.5t88 -245.5q0 -157 -89 -247t-234 -90zM378 65q104 0 164 61.5t64 172.5h-455q5 -111 64.5 -172.5t162.5 -61.5zM152 375h452q-8 99 -66.5 156.5t-159.5 57.5q-98 0 -157 -56.5t-69 -157.5z" />
    <glyph glyph-name="afii10195" unicode="&#x473;" horiz-adv-x="526" 
d="M263 -10q-104 0 -163 68.5t-59 178.5q0 112 59 180t163 68q103 0 162.5 -68.5t59.5 -179.5q0 -110 -59 -178.5t-163 -68.5zM263 61q60 0 94 39.5t37 109.5h-263q3 -70 37 -109.5t95 -39.5zM131 275h263q-5 65 -39 102t-92 37t-92 -36.5t-40 -102.5z" />
    <glyph glyph-name="afii10148" unicode="&#x474;" horiz-adv-x="645" 
d="M265 -4l-250 663h97l140 -388q20 -55 48 -140h2q66 259 110 382q28 75 65 113.5t99 38.5q32 0 56 -8v-80q-17 7 -38 7q-38 0 -58.5 -26t-41.5 -80q-11 -29 -27.5 -78t-30 -93.5t-44 -143.5t-51.5 -167h-76z" />
    <glyph glyph-name="afii10196" unicode="&#x475;" horiz-adv-x="479" 
d="M192 -3l-181 476h91l125 -359h2q37 154 62 231q24 77 54 108.5t82 31.5q26 0 44 -6v-76q-13 5 -29 5q-25 0 -43 -23t-34 -74q-31 -89 -95 -314h-78z" />
    <glyph glyph-name="afii10050" unicode="&#x490;" horiz-adv-x="478" 
d="M87 0v659h284v159l81 21v-253h-277v-586h-88z" />
    <glyph glyph-name="afii10098" unicode="&#x491;" horiz-adv-x="409" 
d="M66 0v473h239v143l80 21v-242h-231v-395h-88z" />
    <glyph glyph-name="Wgrave" unicode="&#x1e80;" horiz-adv-x="914" 
d="M239 -4l-226 663h100l125 -391q26 -79 40 -135h3q21 74 43 134l95 279l-39 113h93l131 -390q39 -119 43 -136h2q15 63 38 134l121 392h93l-219 -663h-73l-103 300q-33 94 -43 132h-3q-10 -37 -43 -132l-105 -300h-73zM423 696l-89 147h100l58 -147h-69z" />
    <glyph glyph-name="wgrave" unicode="&#x1e81;" horiz-adv-x="708" 
d="M170 -3l-161 476h92l108 -359h2l106 359h77l110 -360h2l106 360h89l-163 -476h-72l-109 360h-2l-110 -360h-75zM336 531l-89 147h100l58 -147h-69z" />
    <glyph glyph-name="Wacute" unicode="&#x1e82;" horiz-adv-x="914" 
d="M239 -4l-226 663h100l125 -391q26 -79 40 -135h3q21 74 43 134l95 279l-39 113h93l131 -390q39 -119 43 -136h2q15 63 38 134l121 392h93l-219 -663h-73l-103 300q-33 94 -43 132h-3q-10 -37 -43 -132l-105 -300h-73zM413 696l58 147h98l-89 -147h-67z" />
    <glyph glyph-name="wacute" unicode="&#x1e83;" horiz-adv-x="708" 
d="M170 -3l-161 476h92l108 -359h2l106 359h77l110 -360h2l106 360h89l-163 -476h-72l-109 360h-2l-110 -360h-75zM307 531l58 147h98l-89 -147h-67z" />
    <glyph glyph-name="Wdieresis" unicode="&#x1e84;" horiz-adv-x="914" 
d="M239 -4l-226 663h100l125 -391q26 -79 40 -135h3q21 74 43 134l95 279l-39 113h93l131 -390q39 -119 43 -136h2q15 63 38 134l121 392h93l-219 -663h-73l-103 300q-33 94 -43 132h-3q-10 -37 -43 -132l-105 -300h-73zM371 704q-20 0 -34.5 14.5t-14.5 35.5
q0 20 14.5 34.5t34.5 14.5t34.5 -14.5t14.5 -34.5q0 -21 -14.5 -35.5t-34.5 -14.5zM553 704q-21 0 -35.5 14.5t-14.5 35.5q0 20 14.5 34.5t35.5 14.5q20 0 34.5 -14.5t14.5 -34.5q0 -21 -14.5 -35.5t-34.5 -14.5z" />
    <glyph glyph-name="wdieresis" unicode="&#x1e85;" horiz-adv-x="708" 
d="M170 -3l-161 476h92l108 -359h2l106 359h77l110 -360h2l106 360h89l-163 -476h-72l-109 360h-2l-110 -360h-75zM265 555q-20 0 -34.5 14.5t-14.5 35.5q0 20 14.5 34.5t34.5 14.5t34.5 -14.5t14.5 -34.5q0 -21 -14.5 -35.5t-34.5 -14.5zM447 555q-21 0 -35.5 14.5
t-14.5 35.5q0 20 14.5 34.5t35.5 14.5q20 0 34.5 -14.5t14.5 -34.5q0 -21 -14.5 -35.5t-34.5 -14.5z" />
    <glyph glyph-name="Ygrave" unicode="&#x1ef2;" horiz-adv-x="552" 
d="M233 0v263l-220 396h98l166 -313h2l163 313h97l-218 -398v-261h-88zM259 696l-89 147h100l58 -147h-69z" />
    <glyph glyph-name="ygrave" unicode="&#x1ef3;" horiz-adv-x="483" 
d="M474 473l-178 -503q-23 -65 -49.5 -108t-55.5 -63.5t-54.5 -28t-59.5 -7.5q-52 0 -91 18l21 71q33 -15 68 -15q47 0 82 37.5t62 124.5l-210 474h95l155 -367h2l121 367h92zM228 531l-89 147h100l58 -147h-69z" />
    <glyph glyph-name="endash" unicode="&#x2013;" horiz-adv-x="450" 
d="M0 219v68h450v-68h-450z" />
    <glyph glyph-name="emdash" unicode="&#x2014;" horiz-adv-x="800" 
d="M0 219v68h800v-68h-800z" />
    <glyph glyph-name="quoteleft" unicode="&#x2018;" horiz-adv-x="228" 
d="M91 448q-32 64 -32 127q0 69 39 143l52 -10q-14 -53 -14 -91q0 -60 33 -131z" />
    <glyph glyph-name="quoteright" unicode="&#x2019;" horiz-adv-x="228" 
d="M137 718q32 -67 32 -127q0 -69 -39 -143l-52 10q13 48 13 91q0 62 -32 131z" />
    <glyph glyph-name="quotesinglbase" unicode="&#x201a;" horiz-adv-x="228" 
d="M137 118q32 -67 32 -127q0 -69 -39 -143l-52 10q13 48 13 91q0 62 -32 131z" />
    <glyph glyph-name="quotedblleft" unicode="&#x201c;" horiz-adv-x="396" 
d="M91 448q-32 64 -32 127q0 69 39 143l52 -10q-14 -53 -14 -91q0 -60 33 -131zM259 448q-32 67 -32 127q0 69 39 143l52 -10q-13 -49 -13 -91q0 -62 32 -131z" />
    <glyph glyph-name="quotedblright" unicode="&#x201d;" horiz-adv-x="396" 
d="M305 718q32 -64 32 -127q0 -69 -39 -143l-52 10q14 51 14 91q0 60 -33 131zM137 718q32 -67 32 -127q0 -69 -39 -143l-52 10q13 48 13 91q0 62 -32 131z" />
    <glyph glyph-name="quotedblbase" unicode="&#x201e;" horiz-adv-x="396" 
d="M305 118q32 -64 32 -127q0 -69 -39 -143l-52 10q14 51 14 91q0 60 -33 131zM137 118q32 -67 32 -127q0 -69 -39 -143l-52 10q13 48 13 91q0 62 -32 131z" />
    <glyph glyph-name="dagger" unicode="&#x2020;" horiz-adv-x="516" 
d="M216 -47v154q0 97 3.5 188.5t3.5 109.5q-17 0 -73.5 -6t-80.5 -6v88q25 0 82 -6t72 -7q1 22 -4.5 79.5t-5.5 80.5h89q0 -23 -5 -80.5t-4 -79.5q14 1 71.5 7t81.5 6v-88q-24 0 -80 6t-73 6q0 -18 3.5 -109.5t3.5 -188.5v-154h-84z" />
    <glyph glyph-name="daggerdbl" unicode="&#x2021;" horiz-adv-x="516" 
d="M213 -47q0 23 5.5 80.5t4.5 79.5q-15 -1 -72 -7t-82 -6v88q24 0 80.5 -6t73.5 -6q0 12 -2.5 47.5t-2.5 61.5q0 29 2.5 69t2.5 51q-17 0 -73.5 -6t-80.5 -6v88q25 0 82 -6t72 -7q1 22 -4.5 79.5t-5.5 80.5h89q0 -23 -5 -80.5t-4 -79.5q14 1 71.5 7t81.5 6v-88q-24 0 -80 6
t-73 6q0 -11 2 -50.5t2 -69.5q0 -26 -2 -62t-2 -47q17 0 73 6t80 6v-88q-24 0 -81.5 6t-71.5 7q-1 -22 4 -79.5t5 -80.5h-89z" />
    <glyph glyph-name="bullet" unicode="&#x2022;" horiz-adv-x="307" 
d="M153 207q-45 0 -76 32.5t-31 78.5q0 47 31 79.5t76 32.5q46 0 77 -32.5t31 -79.5q0 -46 -31 -78.5t-77 -32.5z" />
    <glyph glyph-name="ellipsis" unicode="&#x2026;" horiz-adv-x="896" 
d="M166 -8q-22 0 -37.5 16.5t-15.5 39.5t15.5 39t37.5 16t38 -16t16 -39t-16 -39.5t-38 -16.5zM448 -8q-22 0 -37.5 16.5t-15.5 39.5t15.5 39t37.5 16t38 -16t16 -39t-16 -39.5t-38 -16.5zM730 -8q-22 0 -38 16.5t-16 39.5t16 39t38 16t38 -16t16 -39t-16 -39.5t-38 -16.5z
" />
    <glyph glyph-name="perthousand" unicode="&#x2030;" horiz-adv-x="1204" 
d="M209 316q-67 0 -109.5 45t-42.5 129t42.5 129.5t109.5 45.5q66 0 109 -45.5t43 -129.5t-43 -129t-109 -45zM209 374q38 0 58.5 31.5t20.5 84.5t-20.5 84.5t-58.5 31.5t-58.5 -31.5t-20.5 -84.5t20.5 -84.5t58.5 -31.5zM638 -10q-66 0 -109 45.5t-43 128.5q0 84 43 129.5
t109 45.5t109 -45.5t43 -129.5q0 -83 -43 -128.5t-109 -45.5zM638 48q38 0 58.5 31.5t20.5 84.5q0 54 -20.5 85.5t-58.5 31.5t-58.5 -31.5t-20.5 -85.5q0 -53 20.5 -84.5t58.5 -31.5zM995 -10q-66 0 -109 45.5t-43 128.5q0 84 43 129.5t109 45.5q67 0 109.5 -45.5
t42.5 -129.5q0 -83 -42.5 -128.5t-109.5 -45.5zM995 48q38 0 58.5 31.5t20.5 84.5q0 54 -20.5 85.5t-58.5 31.5t-58.5 -31.5t-20.5 -85.5q0 -53 20.5 -84.5t58.5 -31.5zM179 0l412 659h76l-412 -659h-76z" />
    <glyph glyph-name="guilsinglleft" unicode="&#x2039;" horiz-adv-x="347" 
d="M275 411l-131 -170l131 -170l-64 -38l-167 208l167 208z" />
    <glyph glyph-name="guilsinglright" unicode="&#x203a;" horiz-adv-x="347" 
d="M204 241l-132 170l64 38l167 -208l-167 -208l-64 38z" />
    <glyph glyph-name="fraction" unicode="&#x2044;" horiz-adv-x="131" 
d="M-179 0l413 659h76l-413 -659h-76z" />
    <glyph glyph-name="zerosuperior" unicode="&#x2070;" horiz-adv-x="374" 
d="M186 397q-65 0 -105 52t-40 147t40.5 147t106.5 52t106 -52.5t40 -148.5q0 -94 -40.5 -145.5t-107.5 -51.5zM188 457q36 0 53 38t17 98q0 66 -18.5 103.5t-53.5 37.5t-52 -38t-17 -97q0 -66 18.5 -104t52.5 -38z" />
    <glyph glyph-name="foursuperior" unicode="&#x2074;" horiz-adv-x="374" 
d="M32 490v46l192 257h66v-246h53v-57h-53v-86h-71v86h-187zM111 546q7 0 31.5 0.5t38.5 0.5h38v36q0 68 3 112z" />
    <glyph glyph-name="fivesuperior" unicode="&#x2075;" horiz-adv-x="340" 
d="M29 420l21 58q41 -21 85 -21q81 0 81 65q0 36 -33 51q-19 9 -67 9h-59v204h237l-16 -62h-149v-86h18q49 0 79 -12q67 -27 67 -103q0 -57 -40 -91.5t-116 -34.5q-65 0 -108 23z" />
    <glyph glyph-name="sixsuperior" unicode="&#x2076;" horiz-adv-x="354" 
d="M187 397q-63 0 -104.5 46t-41.5 137q0 92 49 153.5t130 61.5q45 0 84 -18l-19 -57q-28 14 -62 14q-39 0 -67.5 -27.5t-36.5 -77.5h2q39 21 79 21q54 0 88 -33t34 -90q0 -59 -38.5 -94.5t-96.5 -35.5zM189 456q27 0 43.5 17.5t16.5 49.5q0 31 -18 49t-47 18q-32 0 -66 -24
q-1 -49 18.5 -79.5t52.5 -30.5z" />
    <glyph glyph-name="sevensuperior" unicode="&#x2077;" horiz-adv-x="319" 
d="M57 404q42 181 148 320h-170l-16 62h281v-38q-120 -141 -162 -344h-81z" />
    <glyph glyph-name="eightsuperior" unicode="&#x2078;" horiz-adv-x="374" 
d="M183 397q-66 0 -104 28.5t-38 78.5q0 71 71 97v2q-58 28 -58 87q0 47 36 76t95 29q61 0 96.5 -29t35.5 -76q0 -61 -57 -85v-2q73 -25 73 -94q0 -51 -41.5 -81.5t-108.5 -30.5zM185 457q29 0 50 14t21 40q0 25 -21.5 40t-60.5 25q-58 -18 -58 -64q0 -26 20 -40.5t49 -14.5
zM194 628q49 20 49 60q0 20 -15.5 33.5t-41.5 13.5q-25 0 -41 -12.5t-16 -33.5q0 -42 65 -61z" />
    <glyph glyph-name="ninesuperior" unicode="&#x2079;" horiz-adv-x="354" 
d="M136 397q-54 0 -94 18l19 59q34 -17 73 -17q45 0 72.5 28t32.5 83h-2q-38 -27 -83 -27q-52 0 -87 30.5t-35 90.5q0 59 37.5 96t96.5 37q67 0 107 -48t40 -141q0 -97 -46.5 -153t-130.5 -56zM169 600q41 0 69 34q-1 48 -20.5 74.5t-51.5 26.5q-28 0 -44.5 -18.5
t-16.5 -48.5q0 -31 17 -49.5t47 -18.5z" />
    <glyph glyph-name="plussuperior" unicode="&#x207a;" horiz-adv-x="408" 
d="M172 434v132h-122v60h122v128h64v-128h123v-60h-123v-132h-64z" />
    <glyph glyph-name="minussuperior" unicode="&#x207b;" horiz-adv-x="408" 
d="M50 566v60h309v-60h-309z" />
    <glyph glyph-name="equalsuperior" unicode="&#x207c;" horiz-adv-x="408" 
d="M50 502v59h309v-59h-309zM50 631v59h309v-59h-309z" />
    <glyph glyph-name="parenleftsuperior" unicode="&#x207d;" horiz-adv-x="236" 
d="M154 357q-102 90 -102 239t102 239l45 -35q-76 -84 -76 -204q0 -122 76 -204z" />
    <glyph glyph-name="parenrightsuperior" unicode="&#x207e;" horiz-adv-x="236" 
d="M37 392q76 82 76 204q0 120 -76 204l45 35q102 -90 102 -239t-102 -239z" />
    <glyph glyph-name="n.superior" unicode="&#x207f;" horiz-adv-x="383" 
d="M50 270v332h60l6 -37q56 46 114 46q45 0 75 -30t30 -90v-221h-70v204q0 73 -53 73q-38 0 -92 -40v-237h-70z" />
    <glyph glyph-name="zeroinferior" unicode="&#x2080;" horiz-adv-x="374" 
d="M186 -187q-65 0 -105 52t-40 147t40.5 147t106.5 52t106 -52.5t40 -148.5q0 -94 -40.5 -145.5t-107.5 -51.5zM188 -127q36 0 53 38t17 98q0 66 -18.5 103.5t-53.5 37.5t-52 -38t-17 -97q0 -66 18.5 -104t52.5 -38z" />
    <glyph glyph-name="oneinferior" unicode="&#x2081;" horiz-adv-x="332" 
d="M176 -180v313l-118 -45l-26 56l158 65h58v-389h-72z" />
    <glyph glyph-name="twoinferior" unicode="&#x2082;" horiz-adv-x="334" 
d="M27 -180q2 52 22.5 93t48 65t54.5 43.5t45.5 39t18.5 41.5q0 21 -15.5 33.5t-41.5 12.5q-39 0 -97 -30l-22 56q69 37 131 37q58 0 90 -28.5t32 -74.5q0 -37 -24.5 -68t-55 -49.5t-60 -47t-36.5 -60.5h177v-63h-267z" />
    <glyph glyph-name="threeinferior" unicode="&#x2083;" horiz-adv-x="336" 
d="M19 -164l20 56q42 -19 87 -19q84 0 84 58q0 36 -37 48q-20 8 -60 8h-43v56h36q34 0 57 9q34 15 34 49q0 24 -16.5 36t-42.5 12q-38 0 -89 -22l-20 56q63 28 122 28q56 0 89.5 -28t33.5 -72q0 -65 -68 -90v-2q39 -7 60 -31t21 -62q0 -49 -40.5 -81t-117.5 -32
q-64 0 -110 23z" />
    <glyph glyph-name="fourinferior" unicode="&#x2084;" horiz-adv-x="374" 
d="M32 -94v46l192 257h66v-246h53v-57h-53v-86h-71v86h-187zM111 -38q7 0 31.5 0.5t38.5 0.5h38v36q0 68 3 112z" />
    <glyph glyph-name="fiveinferior" unicode="&#x2085;" horiz-adv-x="340" 
d="M29 -164l21 58q40 -21 85 -21q81 0 81 65q0 36 -33 51q-19 9 -67 9h-59v204h237l-16 -62h-149v-86h18q49 0 79 -12q67 -27 67 -103q0 -57 -40 -91.5t-116 -34.5q-65 0 -108 23z" />
    <glyph glyph-name="sixinferior" unicode="&#x2086;" horiz-adv-x="354" 
d="M187 -187q-63 0 -104.5 46t-41.5 137q0 92 49 153.5t130 61.5q45 0 84 -18l-19 -57q-28 14 -62 14q-39 0 -67.5 -27.5t-36.5 -77.5h2q39 21 79 21q54 0 88 -33t34 -90q0 -59 -38.5 -94.5t-96.5 -35.5zM189 -128q27 0 43.5 17.5t16.5 49.5q0 31 -18 49t-47 18
q-32 0 -66 -24q-1 -49 18.5 -79.5t52.5 -30.5z" />
    <glyph glyph-name="seveninferior" unicode="&#x2087;" horiz-adv-x="319" 
d="M57 -180q42 181 148 320h-170l-16 62h281v-38q-120 -141 -162 -344h-81z" />
    <glyph glyph-name="eightinferior" unicode="&#x2088;" horiz-adv-x="374" 
d="M183 -187q-66 0 -104 28.5t-38 78.5q0 71 71 97v2q-58 28 -58 87q0 47 36 76t95 29q61 0 96.5 -29t35.5 -76q0 -61 -57 -85v-2q73 -25 73 -94q0 -51 -41.5 -81.5t-108.5 -30.5zM185 -127q29 0 50 14t21 40q0 25 -21.5 40t-60.5 25q-58 -18 -58 -64q0 -26 20 -40.5
t49 -14.5zM194 44q49 20 49 60q0 20 -15.5 33.5t-41.5 13.5q-25 0 -41 -12.5t-16 -33.5q0 -42 65 -61z" />
    <glyph glyph-name="nineinferior" unicode="&#x2089;" horiz-adv-x="354" 
d="M136 -187q-54 0 -94 18l19 59q34 -17 73 -17q45 0 72.5 28t32.5 83h-2q-38 -27 -83 -27q-52 0 -87 30.5t-35 90.5q0 59 37.5 96t96.5 37q67 0 107 -48t40 -141q0 -97 -46.5 -153t-130.5 -56zM169 16q41 0 69 34q-1 48 -20.5 74.5t-51.5 26.5q-28 0 -44.5 -18.5
t-16.5 -48.5q0 -31 17 -49.5t47 -18.5z" />
    <glyph glyph-name="parenleftinferior" unicode="&#x208d;" horiz-adv-x="236" 
d="M154 -227q-102 90 -102 239t102 239l45 -35q-76 -84 -76 -204q0 -122 76 -204z" />
    <glyph glyph-name="parenrightinferior" unicode="&#x208e;" horiz-adv-x="236" 
d="M37 -192q76 82 76 204q0 120 -76 204l45 35q102 -90 102 -239t-102 -239z" />
    <glyph glyph-name="Euro" unicode="&#x20ac;" horiz-adv-x="530" 
d="M476 104l34 -71q-69 -43 -160 -43q-107 0 -171.5 60t-85.5 163h-70v62h62q-2 30 -2 47q0 30 3 58h-63v61h74q27 102 93.5 163t163.5 61q77 0 134 -33v-85q-67 38 -125 38q-63 0 -106.5 -38t-62.5 -106h261l-22 -61h-253q-3 -30 -3 -54t3 -51h246l-22 -62h-212
q18 -67 59.5 -106.5t104.5 -39.5q61 0 120 37z" />
    <glyph glyph-name="afii61289" unicode="&#x2113;" horiz-adv-x="481" 
d="M24 140l-21 76q43 10 88 26v142q0 144 52 212.5t132 68.5q68 0 103.5 -40.5t35.5 -104.5q0 -93 -62 -178.5t-172 -142.5q7 -130 96 -130q56 0 112 43l36 -66q-74 -56 -160 -56q-71 0 -116 44.5t-53 127.5q-30 -12 -71 -22zM178 377v-91q73 45 110 107.5t37 128.5
q0 70 -52 70q-41 0 -68 -53.5t-27 -161.5z" />
    <glyph glyph-name="afii61352" unicode="&#x2116;" horiz-adv-x="1051" 
d="M77 0v659h86l243 -367q45 -69 83 -134h3q-4 48 -4 117v384h89v-659h-77l-254 383q-45 66 -82 129h-2q3 -53 3 -112v-400h-88zM665 137v58h315v-58h-315zM822 263q-72 0 -116.5 49.5t-44.5 124.5t45 124.5t117 49.5t117 -49.5t45 -124.5t-45 -124.5t-118 -49.5zM822 324
q41 0 65.5 31.5t24.5 81.5t-24 81.5t-65 31.5t-65 -31.5t-24 -81.5t24 -81.5t64 -31.5z" />
    <glyph glyph-name="uni2117" unicode="&#x2117;" horiz-adv-x="776" 
d="M388 -10q-144 0 -238 96.5t-94 240.5t94 240.5t238 96.5t238 -96.5t94 -240.5t-94 -240.5t-238 -96.5zM388 39q118 0 196 81.5t78 206.5q0 124 -77.5 205.5t-196.5 81.5t-196.5 -81.5t-77.5 -205.5q0 -125 78 -206.5t196 -81.5zM287 132v389h107q66 0 103 -34t37 -93
q0 -58 -37.5 -92.5t-106.5 -34.5h-44v-135h-59zM346 319h47q81 0 81 74q0 34 -18.5 55t-58.5 21h-51v-150z" />
    <glyph glyph-name="trademark" unicode="&#x2122;" horiz-adv-x="842" 
d="M133 264v336h-110v59h301l-15 -59h-105v-336h-71zM359 264v395h62l95 -140q27 -40 43 -70h2q16 33 41 69l94 141h66v-395h-71v207q0 59 3 80h-2q-17 -33 -36 -60l-78 -117h-36l-78 117q-19 27 -36 60h-2q4 -28 4 -80v-207h-71z" />
    <glyph glyph-name="estimated" unicode="&#x212e;" horiz-adv-x="754" 
d="M590 119h90q-103 -129 -304 -129q-146 0 -248.5 84.5t-102.5 226.5q0 143 103 226.5t252 83.5q86 0 154.5 -28t110.5 -74.5t63.5 -104t19.5 -119.5h-556v-160q32 -46 88 -71.5t121 -25.5q134 0 209 91zM172 324h414v152q-68 97 -206 97q-139 0 -208 -97v-152z" />
    <glyph glyph-name="onethird" unicode="&#x2153;" horiz-adv-x="887" 
d="M182 0l413 659h76l-413 -659h-76zM196 270v313l-118 -45l-26 56l158 65h58v-389h-72zM554 15l20 56q42 -19 87 -19q84 0 84 58q0 36 -37 48q-20 8 -60 8h-43v56h36q34 0 57 9q34 15 34 49q0 24 -16.5 36t-42.5 12q-38 0 -89 -22l-20 56q63 28 122 28q56 0 89.5 -28
t33.5 -72q0 -65 -68 -90v-2q39 -7 60 -31t21 -62q0 -49 -40.5 -81t-117.5 -32q-64 0 -110 23z" />
    <glyph glyph-name="twothirds" unicode="&#x2154;" horiz-adv-x="887" 
d="M192 0l413 659h76l-413 -659h-76zM35 270q2 52 22.5 93t48 65t54.5 43.5t45.5 39t18.5 41.5q0 21 -15.5 33.5t-41.5 12.5q-39 0 -97 -30l-22 56q69 37 131 37q58 0 90 -28.5t32 -74.5q0 -37 -24.5 -68t-55 -49.5t-60 -47t-36.5 -60.5h177v-63h-267zM554 15l20 56
q42 -19 87 -19q84 0 84 58q0 36 -37 48q-20 8 -60 8h-43v56h36q34 0 57 9q34 15 34 49q0 24 -16.5 36t-42.5 12q-38 0 -89 -22l-20 56q63 28 122 28q56 0 89.5 -28t33.5 -72q0 -65 -68 -90v-2q39 -7 60 -31t21 -62q0 -49 -40.5 -81t-117.5 -32q-64 0 -110 23z" />
    <glyph glyph-name="oneeighth" unicode="&#x215b;" horiz-adv-x="887" 
d="M166 0l413 659h76l-413 -659h-76zM183 270v313l-118 -45l-26 56l158 65h58v-389h-72zM665 -8q-66 0 -104 28.5t-38 78.5q0 71 71 97v2q-58 28 -58 87q0 47 36 76t95 29q61 0 96.5 -29t35.5 -76q0 -61 -57 -85v-2q73 -25 73 -94q0 -51 -41.5 -81.5t-108.5 -30.5zM667 52
q29 0 50 14t21 40q0 25 -21.5 40t-60.5 25q-58 -18 -58 -64q0 -26 20 -40.5t49 -14.5zM676 223q49 20 49 60q0 20 -15.5 33.5t-41.5 13.5q-25 0 -41 -12.5t-16 -33.5q0 -42 65 -61z" />
    <glyph glyph-name="threeeighths" unicode="&#x215c;" horiz-adv-x="887" 
d="M190 0l413 659h76l-413 -659h-76zM680 -8q-66 0 -104 28.5t-38 78.5q0 71 71 97v2q-58 28 -58 87q0 47 36 76t95 29q61 0 96.5 -29t35.5 -76q0 -61 -57 -85v-2q73 -25 73 -94q0 -51 -41.5 -81.5t-108.5 -30.5zM682 52q29 0 50 14t21 40q0 25 -21.5 40t-60.5 25
q-58 -18 -58 -64q0 -26 20 -40.5t49 -14.5zM691 223q49 20 49 60q0 20 -15.5 33.5t-41.5 13.5q-25 0 -41 -12.5t-16 -33.5q0 -42 65 -61zM50 286l20 56q42 -19 87 -19q84 0 84 58q0 36 -37 48q-20 8 -60 8h-43v56h36q34 0 57 9q34 15 34 49q0 24 -16.5 36t-42.5 12
q-38 0 -89 -22l-20 56q63 28 122 28q56 0 89.5 -28t33.5 -72q0 -65 -68 -90v-2q39 -7 60 -31t21 -62q0 -49 -40.5 -81t-117.5 -32q-64 0 -110 23z" />
    <glyph glyph-name="fiveeighths" unicode="&#x215d;" horiz-adv-x="887" 
d="M180 0l413 659h76l-413 -659h-76zM44 286l21 58q41 -21 85 -21q81 0 81 65q0 36 -33 51q-19 9 -67 9h-59v204h237l-16 -62h-149v-86h18q49 0 79 -12q67 -27 67 -103q0 -57 -40 -91.5t-116 -34.5q-65 0 -108 23zM680 -8q-66 0 -104 28.5t-38 78.5q0 71 71 97v2
q-58 28 -58 87q0 47 36 76t95 29q61 0 96.5 -29t35.5 -76q0 -61 -57 -85v-2q73 -25 73 -94q0 -51 -41.5 -81.5t-108.5 -30.5zM682 52q29 0 50 14t21 40q0 25 -21.5 40t-60.5 25q-58 -18 -58 -64q0 -26 20 -40.5t49 -14.5zM691 223q49 20 49 60q0 20 -15.5 33.5t-41.5 13.5
q-25 0 -41 -12.5t-16 -33.5q0 -42 65 -61z" />
    <glyph glyph-name="seveneighths" unicode="&#x215e;" horiz-adv-x="887" 
d="M166 0l413 659h76l-413 -659h-76zM670 -8q-66 0 -104 28.5t-38 78.5q0 71 71 97v2q-58 28 -58 87q0 47 36 76t95 29q61 0 96.5 -29t35.5 -76q0 -61 -57 -85v-2q73 -25 73 -94q0 -51 -41.5 -81.5t-108.5 -30.5zM672 52q29 0 50 14t21 40q0 25 -21.5 40t-60.5 25
q-58 -18 -58 -64q0 -26 20 -40.5t49 -14.5zM681 223q49 20 49 60q0 20 -15.5 33.5t-41.5 13.5q-25 0 -41 -12.5t-16 -33.5q0 -42 65 -61zM131 270q42 181 148 320h-170l-16 62h281v-38q-120 -141 -162 -344h-81z" />
    <glyph glyph-name="partialdiff" unicode="&#x2202;" horiz-adv-x="516" 
d="M215 -10q-84 0 -134.5 53t-50.5 143q0 104 66 171.5t168 67.5q63 0 116 -27l1 1q-9 89 -52.5 141t-113.5 52q-65 0 -129 -33l-26 64q76 42 160 42q124 0 190 -86t66 -226q0 -165 -72.5 -264t-188.5 -99zM223 63q65 0 111.5 67.5t50.5 192.5q-51 29 -110 29
q-70 0 -112 -45t-42 -120q0 -59 28 -91.5t74 -32.5z" />
    <glyph glyph-name="Delta" unicode="&#x2206;" horiz-adv-x="621" 
d="M16 0l256 661h76l257 -661h-589zM283 462l-143 -386h340l-142 385q-16 44 -26 87h-1q-9 -35 -28 -86z" />
    <glyph glyph-name="product" unicode="&#x220f;" horiz-adv-x="652" 
d="M106 -180v763h-88v76h630l-25 -76h-88v-763h-88v763h-252v-763h-89z" />
    <glyph glyph-name="summation" unicode="&#x2211;" horiz-adv-x="585" 
d="M19 -180l269 429l-253 410h530l-26 -76h-350l204 -333l-219 -355h381v-75h-536z" />
    <glyph glyph-name="minus" unicode="&#x2212;" horiz-adv-x="532" 
d="M29 215v74h473v-74h-473z" />
    <glyph glyph-name="radical" unicode="&#x221a;" horiz-adv-x="669" 
d="M316 -122l-148 437l-91 -35l-25 69l174 67l99 -304q22 -72 36 -133h2q17 75 32 132l191 716h88l-262 -949h-96z" />
    <glyph glyph-name="infinity" unicode="&#x221e;" horiz-adv-x="768" 
d="M197 99q-76 0 -121.5 49t-45.5 120t45.5 120t121.5 49q55 0 98.5 -29.5t87.5 -81.5q42 52 86 81.5t102 29.5q76 0 121.5 -49t45.5 -120t-45.5 -120t-121.5 -49q-58 0 -102 29.5t-86 81.5q-46 -53 -88.5 -82t-97.5 -29zM205 178q37 0 67 23t65 67q-36 44 -65.5 67
t-66.5 23q-38 0 -62 -25t-24 -65t24 -65t62 -25zM563 178q38 0 62 25t24 65t-24 65t-62 25q-36 0 -66 -23t-68 -67q37 -44 67.5 -67t66.5 -23z" />
    <glyph glyph-name="integral" unicode="&#x222b;" horiz-adv-x="313" 
d="M-43 -220l18 72q33 -11 54 -11q66 0 66 79v630q0 81 41 119.5t103 38.5q46 0 81 -17l-18 -72q-33 11 -54 11q-65 0 -65 -79v-630q0 -81 -41 -119.5t-104 -38.5q-46 0 -81 17z" />
    <glyph glyph-name="approxequal" unicode="&#x2248;" horiz-adv-x="532" 
d="M72 108l-46 55q66 66 136 66q38 0 109.5 -29.5t100.5 -29.5q41 0 88 43l46 -55q-66 -66 -137 -66q-37 0 -109 30t-100 30q-25 0 -43.5 -10t-44.5 -34zM72 292l-46 55q66 66 136 66q38 0 109.5 -30t100.5 -30q40 0 88 44l46 -55q-66 -66 -137 -66q-37 0 -109 30t-100 30
q-25 0 -43.5 -10t-44.5 -34z" />
    <glyph glyph-name="notequal" unicode="&#x2260;" horiz-adv-x="532" 
d="M114 25l49 100h-134v75h170l51 105h-221v74h257l46 94h88l-46 -94h128v-74h-164l-51 -105h215v-75h-252l-48 -100h-88z" />
    <glyph glyph-name="lessequal" unicode="&#x2264;" horiz-adv-x="532" 
d="M52 274v79l421 152v-77l-332 -114v-2l332 -114v-76zM29 0v74h473v-74h-473z" />
    <glyph glyph-name="greaterequal" unicode="&#x2265;" horiz-adv-x="532" 
d="M60 122v76l331 114v2l-331 114v77l421 -152v-79zM30 0v74h473v-74h-473z" />
    <glyph glyph-name="lozenge" unicode="&#x25ca;" horiz-adv-x="474" 
d="M195 0l-139 289l139 289h84l139 -289l-139 -289h-84zM237 74h2l101 215l-102 215h-2l-102 -215z" />
    <glyph glyph-name="S.small" horiz-adv-x="431" 
d="M44 29l31 65q59 -33 120 -33q42 0 72 20t30 58q0 33 -24 56.5t-58.5 39t-69 33t-58.5 50t-24 79.5q0 62 45 102.5t124 40.5q72 0 130 -25v-75q-63 30 -124 30q-35 0 -60.5 -17t-25.5 -52q0 -30 24 -51.5t59 -35.5t69.5 -32t58.5 -52t24 -84q0 -73 -53 -114.5t-135 -41.5
q-88 0 -155 39z" />
    <glyph glyph-name="P.small" horiz-adv-x="462" 
d="M84 0v530h145q90 0 140 -45.5t50 -125.5q0 -79 -51.5 -127t-146.5 -48h-49v-184h-88zM172 254h53q54 0 80.5 28t26.5 76q0 47 -26.5 74.5t-79.5 27.5h-54v-206z" />
    <glyph glyph-name="C.small" horiz-adv-x="505" 
d="M450 98l26 -66q-74 -42 -163 -42q-121 0 -193.5 74t-72.5 193q0 126 78 204.5t197 78.5q73 0 133 -29v-74q-55 30 -123 30q-87 0 -140.5 -58t-53.5 -148q0 -91 50 -144.5t130 -53.5q74 0 132 35z" />
    <glyph glyph-name="N.small" horiz-adv-x="646" 
d="M474 131h2q-2 58 -2 119v280h88v-530h-78l-227 288q-54 69 -85 117h-2q2 -34 2 -116v-289h-88v530h83l220 -280q47 -60 87 -119z" />
    <glyph glyph-name="I.small" horiz-adv-x="256" 
d="M84 0v530h88v-530h-88z" />
    <glyph glyph-name="T.small" horiz-adv-x="443" 
d="M178 0v458h-164v72h429l-27 -72h-150v-458h-88z" />
    <glyph glyph-name="A.small" horiz-adv-x="513" 
d="M10 0l214 534h66l213 -534h-93l-46 122h-216l-45 -122h-93zM174 191h164l-48 131q-6 15 -18 49.5t-15 41.5h-2q-15 -47 -33 -92z" />
    <glyph glyph-name="L.small" horiz-adv-x="388" 
d="M84 0v530h88v-458h207v-72h-295z" />
    <glyph glyph-name="Imacron" horiz-adv-x="257" 
d="M84 0v659h89v-659h-89zM-2 713v69h260v-69h-260z" />
    <glyph glyph-name="O.small" horiz-adv-x="630" 
d="M315 63q78 0 127 55t49 147t-49 147t-127 55t-127.5 -55t-49.5 -147t49.5 -147t127.5 -55zM315 540q116 0 191.5 -77t75.5 -198q0 -120 -75.5 -197.5t-191.5 -77.5q-117 0 -192.5 77.5t-75.5 197.5q0 121 75.5 198t192.5 77z" />
    <glyph glyph-name="W.small" horiz-adv-x="747" 
d="M515 126h3q13 55 33 118l94 286h92l-185 -532h-67l-70 204q-21 61 -35 109h-2q-23 -70 -39 -111l-75 -202h-67l-187 532h93l98 -288q15 -46 34 -116h2q18 63 39 117l64 175l-37 112h86l93 -284q24 -77 33 -120z" />
    <glyph glyph-name="E.small" horiz-adv-x="451" 
d="M84 0v530h312l-27 -70h-197v-157h195v-70h-195v-163h216v-70h-304z" />
    <glyph glyph-name="R.small" horiz-adv-x="499" 
d="M323 234v-2q27 -19 67 -82l92 -150h-96l-83 136q-37 60 -61 69h-70v-205h-88v530h156q97 0 142 -44.5t45 -110.5q0 -49 -26 -86.5t-78 -54.5zM172 274h70q46 0 72 26t26 68q0 41 -26 66.5t-75 25.5h-67v-186z" />
    <glyph glyph-name="ibreve" horiz-adv-x="229" 
d="M185 671h63q-4 -59 -39.5 -93.5t-93.5 -34.5t-92.5 34t-38.5 94h63q9 -68 69 -68t69 68zM70 0v473h88v-473h-88z" />
    <glyph glyph-name="minusinferior" horiz-adv-x="408" 
d="M50 -18v60h309v-60h-309z" />
    <glyph glyph-name="Aringacute.small" horiz-adv-x="513" 
d="M10 0l213 532q-34 8 -54 32.5t-20 59.5q0 40 25.5 65t66.5 30l49 125h100l-84 -135q58 -22 58 -85q0 -35 -20 -59.5t-54 -32.5l213 -532h-93l-46 122h-216l-45 -122h-93zM174 191h164l-48 131q-6 15 -18 49.5t-15 41.5h-2q-15 -47 -33 -92zM210 624q0 -24 12.5 -38
t33.5 -14t34 14t13 38t-13 37.5t-34 13.5t-33.5 -13.5t-12.5 -37.5z" />
    <glyph glyph-name="Aring.small" horiz-adv-x="513" 
d="M103 0h-93l213 532q-34 8 -54 32.5t-20 59.5q0 43 30 69.5t77 26.5q48 0 78 -26.5t30 -69.5q0 -35 -20 -59.5t-54 -32.5l213 -532h-93l-46 122h-216zM257 413h-2q-15 -47 -33 -92l-48 -130h164l-48 131q-6 15 -18 49.5t-15 41.5zM256 572q21 0 34 14t13 38t-13 37.5
t-34 13.5t-33.5 -13.5t-12.5 -37.5t12.5 -38t33.5 -14z" />
    <glyph glyph-name="Abreve.small" horiz-adv-x="513" 
d="M325 706h63q-4 -59 -39.5 -93.5t-93.5 -34.5t-92.5 34t-38.5 94h63q9 -68 69 -68t69 68zM10 0l214 534h66l213 -534h-93l-46 122h-216l-45 -122h-93zM174 191h164l-48 131q-6 15 -18 49.5t-15 41.5h-2q-15 -47 -33 -92z" />
    <glyph glyph-name="Amacron.small" horiz-adv-x="513" 
d="M126 607v70h260v-70h-260zM10 0l214 534h66l213 -534h-93l-46 122h-216l-45 -122h-93zM174 191h164l-48 131q-6 15 -18 49.5t-15 41.5h-2q-15 -47 -33 -92z" />
    <glyph glyph-name="Adieresis.small" horiz-adv-x="513" 
d="M10 0l214 534h66l213 -534h-93l-46 122h-216l-45 -122h-93zM174 191h164l-48 131q-6 15 -18 49.5t-15 41.5h-2q-15 -47 -33 -92zM165 584q-20 0 -34.5 14.5t-14.5 35.5q0 20 14.5 34.5t34.5 14.5t34.5 -14.5t14.5 -34.5q0 -21 -14.5 -35.5t-34.5 -14.5zM347 584
q-21 0 -35.5 14.5t-14.5 35.5q0 20 14.5 34.5t35.5 14.5q20 0 34.5 -14.5t14.5 -34.5q0 -21 -14.5 -35.5t-34.5 -14.5z" />
    <glyph glyph-name="Atilde.small" horiz-adv-x="513" 
d="M112 587v27q0 36 21 57.5t54 21.5q30 0 72 -23.5t56 -23.5q25 0 25 41h61v-28q0 -36 -21 -57t-53 -21q-30 0 -72.5 23t-56.5 23q-25 0 -25 -40h-61zM10 0l214 534h66l213 -534h-93l-46 122h-216l-45 -122h-93zM174 191h164l-48 131q-6 15 -18 49.5t-15 41.5h-2
q-15 -47 -33 -92z" />
    <glyph glyph-name="Acircumflex.small" horiz-adv-x="513" 
d="M10 0l214 534h66l213 -534h-93l-46 122h-216l-45 -122h-93zM174 191h164l-48 131q-6 15 -18 49.5t-15 41.5h-2q-15 -47 -33 -92zM118 560l99 147h78l99 -147h-73l-65 93l-65 -93h-73z" />
    <glyph glyph-name="Aacute.small" horiz-adv-x="513" 
d="M218 566l58 147h98l-89 -147h-67zM10 0l214 534h66l213 -534h-93l-46 122h-216l-45 -122h-93zM174 191h164l-48 131q-6 15 -18 49.5t-15 41.5h-2q-15 -47 -33 -92z" />
    <glyph glyph-name="Agrave.small" horiz-adv-x="513" 
d="M226 566l-89 147h100l58 -147h-69zM10 0l214 534h66l213 -534h-93l-46 122h-216l-45 -122h-93zM174 191h164l-48 131q-6 15 -18 49.5t-15 41.5h-2q-15 -47 -33 -92z" />
    <glyph glyph-name="Z.small" horiz-adv-x="469" 
d="M34 0l270 458h-236l-26 72h397l-268 -458h269v-72h-406z" />
    <glyph glyph-name="Y.small" horiz-adv-x="463" 
d="M229 284h2q17 33 47 91l82 155h93l-179 -319v-211h-88v211l-176 319h93l80 -154q5 -11 14 -29l16.5 -33t15.5 -30z" />
    <glyph glyph-name="X.small" horiz-adv-x="513" 
d="M23 530h98l139 -199l140 199h97l-187 -261l192 -269h-97l-146 210l-152 -210h-96l198 270z" />
    <glyph glyph-name="V.small" horiz-adv-x="528" 
d="M263 113h2q35 95 46 121l115 296h92l-223 -532h-63l-222 532h91l116 -294q23 -61 46 -123z" />
    <glyph glyph-name="U.small" horiz-adv-x="600" 
d="M519 530v-331q0 -105 -60.5 -157.5t-160.5 -52.5q-99 0 -158 52t-59 157v332h88v-328q0 -71 34.5 -105.5t96.5 -34.5t96.5 35t34.5 105v328h88z" />
    <glyph glyph-name="Q.small" horiz-adv-x="630" 
d="M244 -1q-89 21 -143 93t-54 173q0 121 75.5 198t192.5 77q116 0 191.5 -77t75.5 -198q0 -111 -65 -186t-168 -86v-2q41 -54 124 -54q29 0 53 8l19 -67q-33 -12 -81 -12q-141 0 -220 133zM315 63q78 0 127 55t49 147t-49 147t-127 55t-127.5 -55t-49.5 -147t49.5 -147
t127.5 -55z" />
    <glyph glyph-name="K.small" horiz-adv-x="495" 
d="M84 0v530h88v-244h2l196 244h96l-216 -267l234 -263h-105l-205 231h-2v-231h-88z" />
    <glyph glyph-name="J.small" horiz-adv-x="275" 
d="M-33 -126l17 70q23 -7 43 -7q44 0 60 24.5t16 72.5v496h88v-511q0 -156 -157 -156q-39 0 -67 11z" />
    <glyph glyph-name="H.small" horiz-adv-x="615" 
d="M84 0v530h88v-225h271v225h88v-530h-88v232h-271v-232h-88z" />
    <glyph glyph-name="G.small" horiz-adv-x="572" 
d="M497 252v-229q-78 -33 -172 -33q-126 0 -202 73.5t-76 194.5q0 124 79 203t207 79q80 0 144 -29v-76q-60 32 -135 32q-99 0 -151.5 -59.5t-52.5 -143.5q0 -94 52 -147.5t135 -53.5q45 0 84 12v177h88z" />
    <glyph glyph-name="F.small" horiz-adv-x="435" 
d="M84 0v530h312l-27 -72h-197v-164h195v-69h-195v-225h-88z" />
    <glyph glyph-name="D.small" horiz-adv-x="577" 
d="M84 0v530h152q142 0 218 -70t76 -193q0 -122 -77.5 -194.5t-216.5 -72.5h-152zM172 73h68q103 0 151 53t48 141q0 90 -50 140t-153 50h-64v-384z" />
    <glyph glyph-name="B.small" horiz-adv-x="496" 
d="M346 279v-2q48 -12 76 -44t28 -81q0 -64 -47.5 -108t-147.5 -44h-171v530h174q76 0 119 -40.5t43 -97.5q0 -77 -74 -113zM172 67h77q111 0 111 86q0 40 -26 61.5t-74 21.5h-88v-169zM172 300h70q43 0 66.5 23t23.5 60q0 35 -23.5 57.5t-67.5 22.5h-69v-163z" />
    <glyph glyph-name="M.small" horiz-adv-x="707" 
d="M84 0v530h78l117 -176q53 -79 74 -115h2q9 17 73 115l116 176h79v-530h-88v280q0 75 3 111h-3q-12 -22 -62 -99l-98 -151h-42l-99 151q-50 77 -62 99h-3q3 -36 3 -111v-280h-88z" />
    <glyph glyph-name="plusinferior" horiz-adv-x="408" 
d="M172 -150v132h-122v60h122v128h64v-128h123v-60h-123v-132h-64z" />
    <glyph glyph-name="zero.OT" 
d="M262 -10q-97 0 -155.5 70.5t-58.5 182.5q0 111 58.5 181t155.5 70t155.5 -70t58.5 -181q0 -112 -58.5 -182.5t-155.5 -70.5zM262 63q62 0 92.5 49t30.5 131q0 81 -30.5 129.5t-92.5 48.5t-92.5 -48.5t-30.5 -129.5q0 -82 30.5 -131t92.5 -49z" />
    <glyph glyph-name="yen.OP" 
d="M219 0v86h-120v60h120v61h-120v61h88l-128 242h90l113 -224h1l113 224h89l-128 -242h88v-61h-120v-61h120v-60h-120v-86h-86z" />
    <glyph glyph-name="sterling.OP" 
d="M88 0v55q65 29 68 173h-59v64h59v60q0 74 47.5 120.5t130.5 46.5q59 0 109 -20l-17 -70q-41 18 -84 18q-42 0 -70.5 -25t-28.5 -80v-50h167l-23 -64h-144q-3 -110 -42 -162l1 -2q30 3 73 3h165v-67h-352z" />
    <glyph glyph-name="dollar.OP" 
d="M222 -64v79q-72 4 -131 36l28 64q55 -32 124 -32q42 0 71 15.5t29 49.5q0 28 -24.5 48t-59 33t-69 28.5t-59 45t-24.5 72.5q0 49 33.5 82.5t94.5 41.5v74h66v-72q49 -3 104 -21v-76q-61 29 -124 29q-36 0 -62 -12.5t-26 -41.5q0 -26 24.5 -44t59.5 -30.5t69.5 -28.5
t59 -46.5t24.5 -75.5q0 -58 -38.5 -93.5t-103.5 -44.5v-80h-66z" />
    <glyph glyph-name="Euro.OP" 
d="M447 92l27 -64q-62 -38 -139 -38q-83 0 -139.5 44t-77.5 125h-61v57h51q-1 12 -1 35q0 27 2 42h-52v57h63q24 81 82.5 125t136.5 44q69 0 121 -27v-75q-56 31 -115 31q-97 0 -134 -98h214l-21 -57h-207q-3 -21 -3 -40q0 -22 2 -37h206l-22 -57h-171q16 -48 50.5 -73
t80.5 -25q58 0 107 31z" />
    <glyph glyph-name="nine.OP" horiz-adv-x="543" 
d="M128 -131q83 30 156 92.5t95 151.5l-2 1q-63 -45 -136 -45q-81 0 -137 53t-56 149q0 101 61.5 162t157.5 61q97 0 159 -69t62 -193q0 -150 -86.5 -263t-246.5 -167zM262 141q67 0 131 52q4 15 4 44q0 87 -38 135.5t-93 48.5q-58 0 -92.5 -39t-34.5 -105q0 -63 33 -99.5
t90 -36.5z" />
    <glyph glyph-name="eight.OP" horiz-adv-x="551" 
d="M271 -10q-105 0 -163.5 48.5t-58.5 131.5q0 61 34.5 105t89.5 64v2q-105 50 -105 149q0 77 57.5 126t152.5 49q94 0 147.5 -49.5t53.5 -119.5q0 -103 -105 -153v-2q128 -47 128 -164q0 -82 -62 -134.5t-169 -52.5zM275 62q56 0 95 29t39 80q0 30 -12.5 52.5t-39 38
t-48 23.5t-59.5 20q-45 -15 -76.5 -47t-31.5 -78q0 -58 38 -88t95 -30zM295 374q91 38 91 116q0 44 -30.5 73.5t-81.5 29.5q-49 0 -81 -26.5t-32 -70.5q0 -50 36 -77.5t98 -44.5z" />
    <glyph glyph-name="seven.OP" horiz-adv-x="463" 
d="M83 -197q33 175 99 334t147 278h-293l-19 71h428v-34q-192 -261 -264 -616z" />
    <glyph glyph-name="six.OP" horiz-adv-x="543" 
d="M275 -10q-96 0 -158 69.5t-62 203.5q0 157 95 269.5t256 147.5l17 -70q-102 -24 -174 -87t-91 -160l1 -1q69 53 148 53q80 0 134.5 -52.5t54.5 -149.5q0 -101 -62 -162t-159 -61zM280 63q57 0 91 39t34 105q0 61 -31.5 97.5t-86.5 36.5q-74 0 -139 -59q-2 -8 -2 -28
q0 -92 38.5 -141.5t95.5 -49.5z" />
    <glyph glyph-name="five.OP" horiz-adv-x="475" 
d="M19 -175l20 71q49 -19 108 -19q85 0 134.5 41.5t49.5 109.5q0 65 -45 94q-43 27 -138 27h-67l31 337h338l-18 -71h-239l-18 -198h20q87 0 144 -30q83 -47 83 -153q0 -41 -14 -79t-43.5 -73t-85.5 -56t-131 -21q-78 0 -129 20z" />
    <glyph glyph-name="four.OP" 
d="M33 0v54l300 432h69v-415h93v-71h-93v-168l-87 -27v195h-282zM124 68q13 0 42 1t43 1h106v137q0 83 5 145z" />
    <glyph glyph-name="three.OP" horiz-adv-x="508" 
d="M32 -177l19 71q51 -17 115 -17q78 0 129.5 34.5t51.5 102.5q0 106 -157 106h-87v69h23q54 0 94 10q112 28 112 123q0 48 -30.5 74t-74.5 26q-65 0 -150 -46l-30 63q90 55 190 55q85 0 135.5 -46t50.5 -117q0 -59 -31.5 -99.5t-76.5 -58.5v-2q59 -10 91 -52t32 -101
q0 -37 -12.5 -71.5t-41 -68t-85 -53.5t-134.5 -20q-81 0 -133 18z" />
    <glyph glyph-name="two.OP" horiz-adv-x="488" 
d="M51 0q7 67 37 117.5t68.5 79t75.5 52t62.5 49.5t25.5 58q0 30 -24 48t-65 18q-70 0 -142 -46l-30 64q84 54 187 54q77 0 121 -36.5t44 -99.5q0 -39 -21.5 -70.5t-54 -54.5t-66 -45t-63 -52t-39.5 -65h254v-71h-370z" />
    <glyph glyph-name="one.OP" horiz-adv-x="416" 
d="M210 0v398l-136 -65l-28 67l180 86h71v-486h-87z" />
    <glyph glyph-name="zero.OP" horiz-adv-x="524" 
d="M262 -10q-97 0 -154.5 70t-57.5 183q0 112 57.5 181.5t154.5 69.5t154.5 -69.5t57.5 -181.5q0 -113 -57.5 -183t-154.5 -70zM262 63q62 0 91.5 48.5t29.5 131.5q0 82 -29.5 130t-91.5 48t-91.5 -48t-29.5 -130q0 -83 29.5 -131.5t91.5 -48.5z" />
    <glyph glyph-name="yen.LT" horiz-adv-x="530" 
d="M221 0v119h-156v62h156v81h-156v61h128l-161 336h95l137 -312h2l137 312h94l-160 -336h127v-61h-155v-81h155v-62h-155v-119h-88z" />
    <glyph glyph-name="sterling.LT" horiz-adv-x="530" 
d="M66 0v60q91 39 91 240h-76v73h76v79q0 63 20 108t52.5 66t63 30t63.5 9q59 0 117 -22l-19 -72q-41 18 -87 18q-54 0 -88.5 -34.5t-34.5 -111.5v-70h190l-24 -73h-166q0 -166 -65 -231v-2q48 6 106 6h186v-73h-405z" />
    <glyph glyph-name="dollar.LT" horiz-adv-x="530" 
d="M217 -82v100q-79 5 -146 48l35 66q65 -42 135 -42q47 0 80.5 20t33.5 65q0 37 -28 66.5t-67.5 51t-79 45t-67.5 62t-28 89.5q0 59 39.5 103.5t110.5 52.5v96h68v-94q67 -6 114 -30v-76q-68 35 -139 35q-46 0 -73.5 -20.5t-27.5 -60.5q0 -30 20 -54.5t50 -41t64.5 -37.5
t64.5 -42.5t50 -57t20 -79.5q0 -66 -42 -109.5t-118 -54.5v-101h-69z" />
    <glyph glyph-name="Euro.LT" horiz-adv-x="530" 
d="M476 104l34 -71q-69 -43 -160 -43q-107 0 -171.5 60t-85.5 163h-70v62h62q-2 30 -2 47q0 30 3 58h-63v61h74q27 102 93.5 163t163.5 61q77 0 134 -33v-85q-67 38 -125 38q-63 0 -106.5 -38t-62.5 -106h261l-22 -61h-253q-3 -30 -3 -54t3 -51h246l-22 -62h-212
q18 -67 59.5 -106.5t104.5 -39.5q61 0 120 37z" />
    <glyph glyph-name="nine.LT" horiz-adv-x="530" 
d="M207 -10q-76 0 -143 29l23 72q59 -27 120 -27q86 0 135 59.5t57 173.5h-1q-68 -56 -154 -56q-81 0 -139.5 51t-58.5 153q0 97 60 158.5t153 61.5q107 0 169.5 -79t62.5 -233q0 -171 -73 -267t-211 -96zM263 315q39 0 76.5 19.5t59.5 48.5q-1 94 -39.5 151t-102.5 57
q-54 0 -86.5 -39t-32.5 -100q0 -64 32.5 -100.5t92.5 -36.5z" />
    <glyph glyph-name="one.OT" 
d="M286 0v398l-166 -74l-28 66l210 96h71v-486h-87z" />
    <glyph glyph-name="two.OT" 
d="M71 0q7 67 37 117.5t68.5 79t75.5 52t62.5 49.5t25.5 58q0 30 -23.5 48t-64.5 18q-71 0 -143 -46l-30 64q84 54 188 54q76 0 120 -36.5t44 -99.5q0 -39 -21.5 -70.5t-54 -54.5t-66 -45t-63 -52t-39.5 -65h255v-71h-371z" />
    <glyph glyph-name="three.OT" 
d="M45 -177l20 71q50 -17 114 -17q78 0 130 34t52 103q0 106 -158 106h-87v69h24q54 0 93 10q113 29 113 123q0 48 -30.5 74t-74.5 26q-67 0 -150 -46l-31 63q90 55 191 55q85 0 135.5 -46t50.5 -117q0 -59 -31.5 -99.5t-77.5 -58.5v-2q60 -10 92 -52t32 -101
q0 -37 -12.5 -71.5t-41 -68t-85.5 -53.5t-135 -20q-79 0 -133 18z" />
    <glyph glyph-name="four.OT" 
d="M33 0v54l300 432h69v-415h93v-71h-93v-168l-87 -27v195h-282zM124 68q13 0 42 1t43 1h106v137q0 83 5 145z" />
    <glyph glyph-name="five.OT" 
d="M38 -175l20 71q51 -19 108 -19q85 0 134.5 41.5t49.5 109.5q0 66 -45 94q-42 27 -138 27h-67l31 337h338l-17 -71h-240l-18 -198h20q89 0 144 -30q83 -47 83 -153q0 -41 -14 -79t-43.5 -73t-85.5 -56t-131 -21q-78 0 -129 20z" />
    <glyph glyph-name="six.OT" 
d="M266 -10q-96 0 -158 69.5t-62 203.5q0 157 95 269.5t256 147.5l17 -70q-102 -24 -173.5 -87t-91.5 -160l1 -1q69 53 148 53q80 0 134.5 -52.5t54.5 -149.5q0 -101 -62 -162t-159 -61zM271 63q57 0 91 39t34 105q0 61 -31.5 97.5t-86.5 36.5q-74 0 -139 -59q-1 -4 -1 -28
q0 -92 38.5 -141.5t94.5 -49.5z" />
    <glyph glyph-name="seven.OT" 
d="M120 -197q33 172 102 330t152 282h-298l-19 71h433v-34q-202 -277 -271 -616z" />
    <glyph glyph-name="eight.OT" 
d="M260 -10q-104 0 -163 48.5t-59 131.5q0 61 35 105t90 64v2q-105 50 -105 149q0 77 57 126t152 49q94 0 148 -49.5t54 -119.5q0 -104 -106 -153v-2q129 -47 129 -164q0 -82 -62.5 -134.5t-169.5 -52.5zM265 62q56 0 95 29t39 80q0 30 -12.5 52.5t-39.5 38t-48 23.5t-59 20
q-45 -15 -77 -47t-32 -78q0 -58 38.5 -88t95.5 -30zM285 374q90 38 90 116q0 44 -30 73.5t-82 29.5q-49 0 -80.5 -26.5t-31.5 -70.5q0 -50 36 -77.5t98 -44.5z" />
    <glyph glyph-name="nine.OT" 
d="M118 -131q83 30 156 92.5t95 151.5l-2 1q-63 -45 -137 -45q-80 0 -136.5 53t-56.5 149q0 101 62 162t158 61q97 0 159 -69t62 -193q0 -150 -86.5 -263t-246.5 -167zM251 141q68 0 132 52q4 15 4 44q0 87 -38 135.5t-93 48.5q-58 0 -93 -39.5t-35 -104.5q0 -63 33 -99.5
t90 -36.5z" />
    <glyph glyph-name="Euro.OT" 
d="M447 92l27 -64q-62 -38 -139 -38q-83 0 -139.5 44t-77.5 125h-61v57h51q-1 12 -1 35q0 27 2 42h-52v57h63q24 81 82.5 125t136.5 44q69 0 121 -27v-75q-56 31 -115 31q-97 0 -134 -98h214l-21 -57h-207q-3 -21 -3 -40q0 -22 2 -37h206l-22 -57h-171q16 -48 50.5 -73
t80.5 -25q58 0 107 31z" />
    <glyph glyph-name="dollar.OT" 
d="M222 -64v79q-72 4 -131 36l28 64q55 -32 124 -32q42 0 71 15.5t29 49.5q0 28 -24.5 48t-59 33t-69 28.5t-59 45t-24.5 72.5q0 49 33.5 82.5t94.5 41.5v74h66v-72q49 -3 104 -21v-76q-61 29 -124 29q-36 0 -62 -12.5t-26 -41.5q0 -26 24.5 -44t59.5 -30.5t69.5 -28.5
t59 -46.5t24.5 -75.5q0 -58 -38.5 -93.5t-103.5 -44.5v-80h-66z" />
    <glyph glyph-name="sterling.OT" 
d="M88 0v55q65 29 68 173h-59v64h59v60q0 74 47.5 120.5t130.5 46.5q59 0 109 -20l-17 -70q-41 18 -84 18q-42 0 -70.5 -25t-28.5 -80v-50h167l-23 -64h-144q-3 -110 -42 -162l1 -2q30 3 73 3h165v-67h-352z" />
    <glyph glyph-name="yen.OT" 
d="M219 0v86h-120v60h120v61h-120v61h88l-128 242h90l113 -224h1l113 224h89l-128 -242h88v-61h-120v-61h120v-60h-120v-86h-86z" />
    <glyph glyph-name="zero.small" horiz-adv-x="480" 
d="M238 -10q-90 0 -142.5 72.5t-52.5 202.5t52.5 202.5t142.5 72.5t143 -72.5t53 -202.5t-53 -202.5t-143 -72.5zM238 63q51 0 78 53t27 149q0 97 -27 149.5t-78 52.5t-78 -52.5t-27 -149.5q0 -96 27 -149t78 -53z" />
    <glyph glyph-name="one.small" horiz-adv-x="361" 
d="M178 0v441l-126 -60l-30 69l177 84h66v-534h-87z" />
    <glyph glyph-name="two.small" horiz-adv-x="441" 
d="M386 0h-357q4 57 21 103t41 76t51.5 54.5t54.5 42.5t49 35t35.5 38t13.5 46q0 35 -24 53.5t-63 18.5q-66 0 -136 -38l-27 67q86 44 170 44q83 0 126.5 -39t43.5 -101q0 -44 -21.5 -77.5t-54.5 -58t-67 -48.5t-65 -61.5t-43 -84.5h252v-70z" />
    <glyph glyph-name="three.small" horiz-adv-x="445" 
d="M290 276v-2q46 -12 71 -44t25 -76q0 -72 -54 -118t-161 -46q-81 0 -150 30l25 68q57 -25 122 -25q63 0 95.5 24.5t32.5 65.5q0 81 -123 81h-78v70h68q117 0 117 86q0 34 -22 56t-65 22q-62 0 -132 -36l-27 65q82 43 167 43q83 0 126.5 -41.5t43.5 -100.5q0 -82 -81 -122z
" />
    <glyph glyph-name="four.small" horiz-adv-x="480" 
d="M39 131v57l259 346h67v-333h80v-70h-80v-131h-87v131h-239zM282 407l-153 -207q21 1 67 1h83v112q0 58 3 94z" />
    <glyph glyph-name="five.small" horiz-adv-x="437" 
d="M29 17l25 68q51 -22 108 -22t93 25.5t36 73.5q0 62 -60 81q-29 10 -87 10h-75v277h317l-21 -70h-210v-139h16q66 0 108 -15q102 -34 102 -142q0 -77 -55 -125.5t-163 -48.5q-73 0 -134 27z" />
    <glyph glyph-name="six.small" horiz-adv-x="463" 
d="M245 -10q-95 0 -148.5 69.5t-53.5 183.5q0 126 65.5 211.5t175.5 85.5q61 0 118 -24l-26 -66q-43 19 -88 19q-61 0 -104.5 -45.5t-50.5 -122.5q57 35 125 35q73 0 120.5 -45t47.5 -123q0 -81 -51 -129.5t-130 -48.5zM246 61q43 0 67.5 26.5t24.5 75.5q0 47 -26.5 75
t-68.5 28q-56 0 -111 -36q0 -69 28.5 -119t85.5 -50z" />
    <glyph glyph-name="seven.small" horiz-adv-x="409" 
d="M155 0h-89q49 245 206 458h-236l-21 72h373v-36q-177 -211 -233 -494z" />
    <glyph glyph-name="eight.small" horiz-adv-x="474" 
d="M326 276v-2q103 -38 103 -131q0 -66 -53.5 -109.5t-142.5 -43.5q-86 0 -137 41t-51 108q0 94 100 136v2q-84 38 -84 119q0 62 48.5 103t129.5 41t125.5 -41.5t44.5 -99.5q0 -78 -83 -123zM237 59q42 0 73 22t31 59q0 70 -122 103q-35 -13 -60.5 -38t-25.5 -60
q0 -41 29 -63.5t75 -22.5zM149 397q0 -66 100 -93q30 11 51 34.5t21 55.5t-23 54.5t-62 22.5q-37 0 -62 -20t-25 -54z" />
    <glyph glyph-name="nine.small" horiz-adv-x="458" 
d="M48 17l24 67q53 -23 101 -23q66 0 108 46.5t46 129.5q-56 -43 -124 -43q-67 0 -116 42t-49 123q0 80 50 130.5t129 50.5q90 0 144 -67t54 -191q0 -131 -61.5 -211.5t-178.5 -80.5q-69 0 -127 27zM221 264q64 0 105 49q-1 73 -31 114.5t-78 41.5q-42 0 -67 -29t-25 -74
q0 -48 25 -75t71 -27z" />
    <glyph glyph-name="Euro.small" horiz-adv-x="451" 
d="M406 90l29 -64q-63 -36 -140 -36q-83 0 -139 46.5t-76 130.5h-61v57h52q-5 39 0 79h-52v58h62q22 86 81 132.5t135 46.5q64 0 118 -25v-75q-54 27 -110 27q-45 0 -80.5 -27t-50.5 -79h207l-22 -58h-199q-5 -39 0 -79h196l-23 -57h-161q30 -104 127 -104q59 0 107 27z" />
    <glyph glyph-name="dollar.small" horiz-adv-x="452" 
d="M177 -67v82q-68 5 -121 40l33 63q53 -34 116 -34q86 0 86 63q0 28 -23 50t-55.5 38t-65 34t-55.5 49t-23 72q0 47 32 84t90 45v77h71v-76q56 -6 94 -24v-74q-65 30 -122 30q-34 0 -55.5 -15t-21.5 -43q0 -25 23 -46t56 -37.5t66 -35.5t56 -50.5t23 -72.5
q0 -56 -34.5 -91.5t-98.5 -44.5v-83h-71z" />
    <glyph glyph-name="sterling.small" horiz-adv-x="453" 
d="M50 0v59q76 31 76 176h-63v70h63v61q0 86 49 130t123 44q50 0 106 -20l-20 -68q-36 16 -77 16q-46 0 -70.5 -28t-24.5 -79v-56h159l-25 -70h-134q0 -110 -50 -165l1 -2q44 2 91 2h147v-70h-351z" />
    <glyph glyph-name="three.LT" horiz-adv-x="530" 
d="M44 24l25 72q64 -30 143 -30q75 0 120 30.5t45 91.5q0 80 -86 101q-31 7 -84 7h-77v73h64q165 0 165 116q0 48 -29 76t-86 28q-76 0 -158 -45l-25 69q91 52 192 52q96 0 147 -49.5t51 -123.5q0 -108 -105 -149v-2q59 -12 91.5 -51t32.5 -100q0 -88 -65 -144t-191 -56
q-94 0 -170 34z" />
    <glyph glyph-name="four.LT" horiz-adv-x="530" 
d="M44 171v62l306 431h64v-420h91v-73h-91v-171h-87v171h-283zM138 243q9 0 38.5 0.5t42.5 0.5h108v138q0 82 6 142z" />
    <glyph glyph-name="five.LT" horiz-adv-x="530" 
d="M57 20l25 72q55 -26 124 -26q72 0 118 34.5t46 99.5q0 81 -75 110q-38 14 -117 14h-75v335h362l-22 -76h-253v-187h26q77 0 121 -16q126 -46 126 -177q0 -94 -64.5 -153.5t-192.5 -59.5q-87 0 -149 30z" />
    <glyph glyph-name="six.LT" horiz-adv-x="530" 
d="M281 -10q-103 0 -169.5 79t-66.5 233t78 258.5t208 104.5q67 0 129 -28l-24 -71q-49 25 -101 25q-78 0 -132 -59.5t-66 -168.5q76 50 161 50q86 0 142 -54t56 -149q0 -101 -60 -160.5t-155 -59.5zM281 64q58 0 90 35t32 101q0 65 -34 102t-89 37q-77 0 -141 -51
q0 -102 39.5 -163t102.5 -61z" />
    <glyph glyph-name="seven.LT" horiz-adv-x="530" 
d="M133 0q63 327 252 583h-290l-22 76h431v-35q-213 -270 -278 -624h-93z" />
    <glyph glyph-name="eight.LT" horiz-adv-x="530" 
d="M269 -10q-105 0 -164 48.5t-59 131.5q0 61 35 105t90 64v2q-105 50 -105 149q0 77 57 126t152 49q94 0 148 -49.5t54 -119.5q0 -103 -105 -153v-2q128 -47 128 -164q0 -82 -62 -134.5t-169 -52.5zM273 62q56 0 95 29t39 80q0 30 -12.5 52.5t-39 38t-48 23.5t-59.5 20
q-45 -15 -76.5 -47t-31.5 -78q0 -58 38 -88t95 -30zM293 374q91 38 91 116q0 44 -30.5 73.5t-81.5 29.5q-49 0 -81 -26.5t-32 -70.5q0 -50 36 -77.5t98 -44.5z" />
    <glyph glyph-name="yen.small" horiz-adv-x="446" 
d="M221 291h2l103 239h93l-128 -263h103v-59h-130v-60h130v-59h-130v-89h-86v89h-128v59h128v60h-128v59h102l-127 263h91z" />
    <glyph glyph-name="two.LT" horiz-adv-x="530" 
d="M48 0q6 70 27 127t50.5 94t63 67.5t66.5 53.5t59.5 44.5t43 48t16.5 57.5q0 49 -32 73t-81 24q-78 0 -164 -45l-26 69q96 52 199 52q96 0 146.5 -46t50.5 -120q0 -46 -20 -84.5t-50.5 -64t-68 -54.5t-71 -56t-60.5 -70t-36 -94h307v-76h-420z" />
    <glyph glyph-name="one.LT" horiz-adv-x="530" 
d="M287 0v570l-183 -86l-31 70l231 110h70v-664h-87z" />
    <glyph glyph-name="zero.LT" horiz-adv-x="530" 
d="M263 -10q-103 0 -164 88.5t-61 249.5q0 162 61.5 249.5t165.5 87.5q103 0 165 -89t62 -251q0 -160 -62.5 -247.5t-166.5 -87.5zM266 66q68 0 100 69t32 187q0 129 -34.5 198t-100.5 69q-68 0 -100 -69t-32 -187q0 -129 34.5 -198t100.5 -69z" />
    <glyph glyph-name="Aogonek.small" horiz-adv-x="513" 
d="M10 0l214 534h66l213 -534q-52 -19 -85 -51.5t-33 -65.5q0 -39 37 -39q18 0 38 7l11 -53q-33 -11 -67 -11q-45 0 -70 23t-25 58q0 72 98 138l-43 116h-216l-45 -122h-93zM174 191h164l-48 131q-6 15 -18 49.5t-15 41.5h-2q-15 -47 -33 -92z" />
    <glyph glyph-name="Dcaron.small" horiz-adv-x="577" 
d="M234 567l-100 147h74l66 -93l64 93h72l-98 -147h-78zM84 0v530h152q142 0 218 -70t76 -193q0 -122 -77.5 -194.5t-216.5 -72.5h-152zM172 73h68q103 0 151 53t48 141q0 90 -50 140t-153 50h-64v-384z" />
    <glyph glyph-name="AE.small" horiz-adv-x="729" 
d="M10 0l286 530h378l-27 -70h-264l36 -157h226v-70h-211l38 -163h194v-70h-260l-27 122h-214l-63 -122h-92zM202 191h161l-29 131q-16 83 -17 92h-3q-27 -60 -45 -92z" />
    <glyph glyph-name="Dcroat.small" horiz-adv-x="577" 
d="M84 0v233h-67v69h67v228h152q142 0 218 -70t76 -193q0 -122 -77.5 -194.5t-216.5 -72.5h-152zM172 73h68q103 0 151 53t48 141q0 90 -50 140t-153 50h-64v-155h129v-69h-129v-160z" />
    <glyph glyph-name="Egrave.small" horiz-adv-x="451" 
d="M211 566l-89 147h100l58 -147h-69zM84 0v530h312l-27 -70h-197v-157h195v-70h-195v-163h216v-70h-304z" />
    <glyph glyph-name="Eacute.small" horiz-adv-x="451" 
d="M190 566l58 147h98l-89 -147h-67zM84 0v530h312l-27 -70h-197v-157h195v-70h-195v-163h216v-70h-304z" />
    <glyph glyph-name="Ecircumflex.small" horiz-adv-x="451" 
d="M84 0v530h312l-27 -70h-197v-157h195v-70h-195v-163h216v-70h-304zM98 566l99 147h78l99 -147h-73l-65 93l-65 -93h-73z" />
    <glyph glyph-name="Ecaron.small" horiz-adv-x="451" 
d="M194 567l-100 147h74l66 -93l64 93h72l-98 -147h-78zM84 0v530h312l-27 -70h-197v-157h195v-70h-195v-163h216v-70h-304z" />
    <glyph glyph-name="Edieresis.small" horiz-adv-x="451" 
d="M84 0v530h312l-27 -70h-197v-157h195v-70h-195v-163h216v-70h-304zM145 584q-20 0 -34.5 14.5t-14.5 35.5q0 20 14.5 34.5t34.5 14.5t34.5 -14.5t14.5 -34.5q0 -21 -14.5 -35.5t-34.5 -14.5zM327 584q-21 0 -35.5 14.5t-14.5 35.5q0 20 14.5 34.5t35.5 14.5
q20 0 34.5 -14.5t14.5 -34.5q0 -21 -14.5 -35.5t-34.5 -14.5z" />
    <glyph glyph-name="Emacron.small" horiz-adv-x="451" 
d="M106 607v70h260v-70h-260zM84 0v530h312l-27 -70h-197v-157h195v-70h-195v-163h216v-70h-304z" />
    <glyph glyph-name="Ebreve.small" horiz-adv-x="451" 
d="M305 706h63q-4 -59 -39.5 -93.5t-93.5 -34.5t-92.5 34t-38.5 94h63q9 -68 69 -68t69 68zM84 0v530h312l-27 -70h-197v-157h195v-70h-195v-163h216v-70h-304z" />
    <glyph glyph-name="Edotaccent.small" horiz-adv-x="451" 
d="M84 0v530h312l-27 -70h-197v-157h195v-70h-195v-163h216v-70h-304zM235 599q-24 0 -40 16.5t-16 40.5t16 40t40 16q25 0 41 -16t16 -40t-16 -40.5t-41 -16.5z" />
    <glyph glyph-name="Eogonek.small" horiz-adv-x="451" 
d="M388 0h-20q-105 -51 -105 -117q0 -39 37 -39q17 0 38 7l11 -53q-33 -11 -67 -11q-45 0 -70 23t-25 58q0 73 89 132h-192v530h312l-27 -70h-197v-157h195v-70h-195v-163h216v-70z" />
    <glyph glyph-name="Gcircumflex.small" horiz-adv-x="572" 
d="M497 252v-229q-78 -33 -172 -33q-126 0 -202 73.5t-76 194.5q0 124 79 203t207 79q80 0 144 -29v-76q-60 32 -135 32q-99 0 -151.5 -59.5t-52.5 -143.5q0 -94 52 -147.5t135 -53.5q45 0 84 12v177h88zM162 566l99 147h78l99 -147h-73l-65 93l-65 -93h-73z" />
    <glyph glyph-name="AEacute.small" horiz-adv-x="729" 
d="M369 566l58 147h98l-89 -147h-67zM10 0l286 530h378l-27 -70h-264l36 -157h226v-70h-211l38 -163h194v-70h-260l-27 122h-214l-63 -122h-92zM202 191h161l-29 131q-16 83 -17 92h-3q-27 -60 -45 -92z" />
    <glyph glyph-name="Gbreve.small" horiz-adv-x="572" 
d="M370 706h63q-4 -59 -39.5 -93.5t-93.5 -34.5t-92.5 34t-38.5 94h63q4 -31 21.5 -49.5t47.5 -18.5t47.5 18.5t21.5 49.5zM497 252v-229q-78 -33 -172 -33q-126 0 -202 73.5t-76 194.5q0 124 79 203t207 79q80 0 144 -29v-76q-60 32 -135 32q-99 0 -151.5 -59.5
t-52.5 -143.5q0 -94 52 -147.5t135 -53.5q45 0 84 12v177h88z" />
    <glyph glyph-name="Cacute.small" horiz-adv-x="505" 
d="M263 566l58 147h98l-89 -147h-67zM450 98l26 -66q-74 -42 -163 -42q-121 0 -193.5 74t-72.5 193q0 126 78 204.5t197 78.5q73 0 133 -29v-74q-55 30 -123 30q-87 0 -140.5 -58t-53.5 -148q0 -91 50 -144.5t130 -53.5q74 0 132 35z" />
    <glyph glyph-name="Ccircumflex.small" horiz-adv-x="505" 
d="M450 98l26 -66q-74 -42 -163 -42q-121 0 -193.5 74t-72.5 193q0 126 78 204.5t197 78.5q73 0 133 -29v-74q-55 30 -123 30q-87 0 -140.5 -58t-53.5 -148q0 -91 50 -144.5t130 -53.5q74 0 132 35zM159 566l99 147h78l99 -147h-73l-65 93l-65 -93h-73z" />
    <glyph glyph-name="Gdotaccent.small" horiz-adv-x="572" 
d="M497 252v-229q-78 -33 -172 -33q-126 0 -202 73.5t-76 194.5q0 124 79 203t207 79q80 0 144 -29v-76q-60 32 -135 32q-99 0 -151.5 -59.5t-52.5 -143.5q0 -94 52 -147.5t135 -53.5q45 0 84 12v177h88zM307 599q-24 0 -40 16.5t-16 40.5t16 40t40 16q25 0 41 -16t16 -40
t-16 -40.5t-41 -16.5z" />
    <glyph glyph-name="Gcommaaccent.small" horiz-adv-x="572" 
d="M497 252v-229q-78 -33 -172 -33q-126 0 -202 73.5t-76 194.5q0 124 79 203t207 79q80 0 144 -29v-76q-60 32 -135 32q-99 0 -151.5 -59.5t-52.5 -143.5q0 -94 52 -147.5t135 -53.5q45 0 84 12v177h88zM246 -237l-23 56q72 18 72 67q0 27 -22 62h77q24 -32 24 -73
q0 -89 -128 -112z" />
    <glyph glyph-name="Hcircumflex.small" horiz-adv-x="615" 
d="M84 0v530h88v-225h271v225h88v-530h-88v232h-271v-232h-88zM170 566l99 147h78l99 -147h-73l-65 93l-65 -93h-73z" />
    <glyph glyph-name="Hbar.small" horiz-adv-x="615" 
d="M84 0v387h-53v62h53v81h88v-81h271v81h88v-81h53v-62h-53v-387h-88v232h-271v-232h-88zM172 305h271v82h-271v-82z" />
    <glyph glyph-name="Igrave.small" horiz-adv-x="256" 
d="M106 566l-89 147h100l58 -147h-69zM84 0v530h88v-530h-88z" />
    <glyph glyph-name="Iacute.small" horiz-adv-x="256" 
d="M82 566l58 147h98l-89 -147h-67zM84 0v530h88v-530h-88z" />
    <glyph glyph-name="Icircumflex.small" horiz-adv-x="256" 
d="M84 0v530h88v-530h-88zM-11 566l99 147h78l99 -147h-73l-65 93l-65 -93h-73z" />
    <glyph glyph-name="Itilde.small" horiz-adv-x="256" 
d="M-17 587v27q0 36 21.5 57.5t53.5 21.5q30 0 72 -23.5t56 -23.5q25 0 25 41h61v-28q0 -36 -21 -57t-53 -21q-30 0 -72.5 23t-56.5 23q-25 0 -25 -40h-61zM84 0v530h88v-530h-88z" />
    <glyph glyph-name="Idieresis.small" horiz-adv-x="256" 
d="M84 0v530h88v-530h-88zM37 584q-20 0 -34.5 14.5t-14.5 35.5q0 20 14.5 34.5t34.5 14.5t34.5 -14.5t14.5 -34.5q0 -21 -14.5 -35.5t-34.5 -14.5zM219 584q-21 0 -35.5 14.5t-14.5 35.5q0 20 14.5 34.5t35.5 14.5q20 0 34.5 -14.5t14.5 -34.5q0 -21 -14.5 -35.5
t-34.5 -14.5z" />
    <glyph glyph-name="Imacron.small" horiz-adv-x="256" 
d="M-1 607v70h260v-70h-260zM84 0v530h88v-530h-88z" />
    <glyph glyph-name="Ibreve.small" horiz-adv-x="256" 
d="M196 706h63q-4 -59 -39.5 -93.5t-93.5 -34.5t-92.5 34t-38.5 94h63q4 -31 21.5 -49.5t47.5 -18.5t47.5 18.5t21.5 49.5zM84 0v530h88v-530h-88z" />
    <glyph glyph-name="Iogonek.small" horiz-adv-x="256" 
d="M84 5v525h88v-530q-37 -22 -58 -52.5t-21 -60.5q0 -43 38 -43q17 0 37 7l11 -53q-36 -11 -66 -11q-46 0 -71 23.5t-25 64.5q0 68 67 130z" />
    <glyph glyph-name="Ccaron.small" horiz-adv-x="505" 
d="M255 567l-100 147h74l66 -93l64 93h72l-98 -147h-78zM450 98l26 -66q-74 -42 -163 -42q-121 0 -193.5 74t-72.5 193q0 126 78 204.5t197 78.5q73 0 133 -29v-74q-55 30 -123 30q-87 0 -140.5 -58t-53.5 -148q0 -91 50 -144.5t130 -53.5q74 0 132 35z" />
    <glyph glyph-name="IJ.small" horiz-adv-x="531" 
d="M84 0v530h88v-530h-88zM223 -126l17 70q23 -7 43 -7q44 0 60 24.5t16 72.5v496h88v-511q0 -156 -157 -156q-39 0 -67 11z" />
    <glyph glyph-name="Jcircumflex.small" horiz-adv-x="275" 
d="M-33 -126l17 70q23 -7 43 -7q44 0 60 24.5t16 72.5v496h88v-511q0 -156 -157 -156q-39 0 -67 11zM8 566l99 147h78l99 -147h-73l-65 93l-65 -93h-73z" />
    <glyph glyph-name="Cdotaccent.small" horiz-adv-x="505" 
d="M450 98l26 -66q-74 -42 -163 -42q-121 0 -193.5 74t-72.5 193q0 126 78 204.5t197 78.5q73 0 133 -29v-74q-55 30 -123 30q-87 0 -140.5 -58t-53.5 -148q0 -91 50 -144.5t130 -53.5q74 0 132 35zM295 599q-24 0 -40 16.5t-16 40.5t16 40t40 16q25 0 41 -16t16 -40
t-16 -40.5t-41 -16.5z" />
    <glyph glyph-name="Kcommaaccent.small" horiz-adv-x="495" 
d="M84 0v530h88v-244h2l196 244h96l-216 -267l234 -263h-105l-205 231h-2v-231h-88zM197 -237l-23 56q72 18 72 67q0 27 -22 62h77q24 -32 24 -73q0 -89 -128 -112z" />
    <glyph glyph-name="Lacute.small" horiz-adv-x="388" 
d="M85 566l58 147h98l-89 -147h-67zM84 0v530h88v-458h207v-72h-295z" />
    <glyph glyph-name="Lcaron.small" horiz-adv-x="388" 
d="M84 0v530h88v-458h207v-72h-295zM240 378l36 195h89l-58 -195h-67z" />
    <glyph glyph-name="Lcommaaccent.small" horiz-adv-x="388" 
d="M84 0v530h88v-458h207v-72h-295zM166 -237l-23 56q72 18 72 67q0 27 -22 62h77q24 -32 24 -73q0 -89 -128 -112z" />
    <glyph glyph-name="Lslash.small" horiz-adv-x="387" 
d="M172 330l116 68v-80l-116 -68v-178h206v-72h-294v201l-52 -32v80l52 31v250h88v-200z" />
    <glyph glyph-name="Ldot.small" horiz-adv-x="388" 
d="M321 231q-22 0 -38 16.5t-16 39.5t16 39t38 16t38 -16t16 -39t-16 -39.5t-38 -16.5zM84 0v530h88v-458h207v-72h-295z" />
    <glyph glyph-name="Nacute.small" horiz-adv-x="646" 
d="M282 566l58 147h98l-89 -147h-67zM474 131h2q-2 58 -2 119v280h88v-530h-78l-227 288q-54 69 -85 117h-2q2 -34 2 -116v-289h-88v530h83l220 -280q47 -60 87 -119z" />
    <glyph glyph-name="Ncaron.small" horiz-adv-x="646" 
d="M281 567l-100 147h74l66 -93l64 93h72l-98 -147h-78zM474 131h2q-2 58 -2 119v280h88v-530h-78l-227 288q-54 69 -85 117h-2q2 -34 2 -116v-289h-88v530h83l220 -280q47 -60 87 -119z" />
    <glyph glyph-name="Ntilde.small" horiz-adv-x="646" 
d="M179 587v27q0 36 21.5 57.5t53.5 21.5q30 0 72 -23.5t56 -23.5q25 0 25 41h61v-28q0 -36 -21 -57t-53 -21q-30 0 -72.5 23t-56.5 23q-25 0 -25 -40h-61zM474 131h2q-2 58 -2 119v280h88v-530h-78l-227 288q-54 69 -85 117h-2q2 -34 2 -116v-289h-88v530h83l220 -280
q47 -60 87 -119z" />
    <glyph glyph-name="Ncommaaccent.small" horiz-adv-x="646" 
d="M474 131h2q-2 58 -2 119v280h88v-530h-78l-227 288q-54 69 -85 117h-2q2 -34 2 -116v-289h-88v530h83l220 -280q47 -60 87 -119zM257 -237l-23 56q72 18 72 67q0 27 -22 62h77q24 -32 24 -73q0 -89 -128 -112z" />
    <glyph glyph-name="Ograve.small" horiz-adv-x="630" 
d="M281 566l-89 147h100l58 -147h-69zM315 63q78 0 127 55t49 147t-49 147t-127 55t-127.5 -55t-49.5 -147t49.5 -147t127.5 -55zM315 540q116 0 191.5 -77t75.5 -198q0 -120 -75.5 -197.5t-191.5 -77.5q-117 0 -192.5 77.5t-75.5 197.5q0 121 75.5 198t192.5 77z" />
    <glyph glyph-name="Oacute.small" horiz-adv-x="630" 
d="M281 566l58 147h98l-89 -147h-67zM315 63q78 0 127 55t49 147t-49 147t-127 55t-127.5 -55t-49.5 -147t49.5 -147t127.5 -55zM315 540q116 0 191.5 -77t75.5 -198q0 -120 -75.5 -197.5t-191.5 -77.5q-117 0 -192.5 77.5t-75.5 197.5q0 121 75.5 198t192.5 77z" />
    <glyph glyph-name="Ccedilla.small" horiz-adv-x="505" 
d="M194 -201l15 48q21 -10 49 -10q23 0 37.5 9.5t14.5 27.5q0 23 -21 29.5t-63 6.5l26 86q-95 17 -150 87t-55 174q0 126 78 204.5t197 78.5q73 0 133 -29v-74q-55 30 -123 30q-87 0 -140.5 -58t-53.5 -148q0 -91 50 -144.5t130 -53.5q74 0 132 35l26 -66q-71 -41 -157 -42
l-14 -42q82 -7 82 -73q0 -40 -32.5 -63.5t-90.5 -23.5q-35 0 -70 11z" />
    <glyph glyph-name="Ocircumflex.small" horiz-adv-x="630" 
d="M315 63q78 0 127 55t49 147t-49 147t-127 55t-127.5 -55t-49.5 -147t49.5 -147t127.5 -55zM315 540q116 0 191.5 -77t75.5 -198q0 -120 -75.5 -197.5t-191.5 -77.5q-117 0 -192.5 77.5t-75.5 197.5q0 121 75.5 198t192.5 77zM175 566l99 147h78l99 -147h-73l-65 93
l-65 -93h-73z" />
    <glyph glyph-name="Otilde.small" horiz-adv-x="630" 
d="M168 587v27q0 36 21 57.5t54 21.5q30 0 72 -23.5t56 -23.5q25 0 25 41h61v-28q0 -36 -21 -57t-53 -21q-30 0 -72.5 23t-56.5 23q-25 0 -25 -40h-61zM315 63q78 0 127 55t49 147t-49 147t-127 55t-127.5 -55t-49.5 -147t49.5 -147t127.5 -55zM315 540q116 0 191.5 -77
t75.5 -198q0 -120 -75.5 -197.5t-191.5 -77.5q-117 0 -192.5 77.5t-75.5 197.5q0 121 75.5 198t192.5 77z" />
    <glyph glyph-name="Odieresis.small" horiz-adv-x="630" 
d="M315 63q78 0 127 55t49 147t-49 147t-127 55t-127.5 -55t-49.5 -147t49.5 -147t127.5 -55zM315 540q116 0 191.5 -77t75.5 -198q0 -120 -75.5 -197.5t-191.5 -77.5q-117 0 -192.5 77.5t-75.5 197.5q0 121 75.5 198t192.5 77zM222 584q-20 0 -34.5 14.5t-14.5 35.5
q0 20 14.5 34.5t34.5 14.5t34.5 -14.5t14.5 -34.5q0 -21 -14.5 -35.5t-34.5 -14.5zM404 584q-21 0 -35.5 14.5t-14.5 35.5q0 20 14.5 34.5t35.5 14.5q20 0 34.5 -14.5t14.5 -34.5q0 -21 -14.5 -35.5t-34.5 -14.5z" />
    <glyph glyph-name="Omacron.small" horiz-adv-x="630" 
d="M185 607v70h260v-70h-260zM315 63q78 0 127 55t49 147t-49 147t-127 55t-127.5 -55t-49.5 -147t49.5 -147t127.5 -55zM315 540q116 0 191.5 -77t75.5 -198q0 -120 -75.5 -197.5t-191.5 -77.5q-117 0 -192.5 77.5t-75.5 197.5q0 121 75.5 198t192.5 77z" />
    <glyph glyph-name="Obreve.small" horiz-adv-x="630" 
d="M381 706h63q-4 -59 -39.5 -93.5t-93.5 -34.5t-92.5 34t-38.5 94h63q9 -68 69 -68t69 68zM315 63q78 0 127 55t49 147t-49 147t-127 55t-127.5 -55t-49.5 -147t49.5 -147t127.5 -55zM315 540q116 0 191.5 -77t75.5 -198q0 -120 -75.5 -197.5t-191.5 -77.5
q-117 0 -192.5 77.5t-75.5 197.5q0 121 75.5 198t192.5 77z" />
    <glyph glyph-name="Ohungarumlaut.small" horiz-adv-x="630" 
d="M315 63q78 0 127 55t49 147t-49 147t-127 55t-127.5 -55t-49.5 -147t49.5 -147t127.5 -55zM315 540q116 0 191.5 -77t75.5 -198q0 -120 -75.5 -197.5t-191.5 -77.5q-117 0 -192.5 77.5t-75.5 197.5q0 121 75.5 198t192.5 77zM195 566l58 147h101l-90 -147h-69zM360 566
l58 147h100l-89 -147h-69z" />
    <glyph glyph-name="Oslash.small" horiz-adv-x="630" 
d="M66 11l51 62q-70 76 -70 192q0 121 75.5 198t192.5 77q84 0 151 -46l51 61l46 -36l-51 -62q70 -76 70 -192q0 -120 -75.5 -197.5t-191.5 -77.5q-87 0 -153 46l-49 -61zM138 265q0 -74 34 -125l245 293q-45 34 -102 34q-78 0 -127.5 -55t-49.5 -147zM315 63q77 0 127 55.5
t50 146.5q0 71 -35 124l-245 -293q43 -33 103 -33z" />
    <glyph glyph-name="Oslashacute.small" horiz-adv-x="630" 
d="M275 566l58 147h98l-89 -147h-67zM66 11l51 62q-70 76 -70 192q0 121 75.5 198t192.5 77q84 0 151 -46l51 61l46 -36l-51 -62q70 -76 70 -192q0 -120 -75.5 -197.5t-191.5 -77.5q-87 0 -153 46l-49 -61zM138 265q0 -74 34 -125l245 293q-45 34 -102 34q-78 0 -127.5 -55
t-49.5 -147zM315 63q77 0 127 55.5t50 146.5q0 71 -35 124l-245 -293q43 -33 103 -33z" />
    <glyph glyph-name="OE.small" horiz-adv-x="773" 
d="M710 0h-204q-42 0 -104 -3.5t-86 -3.5q-123 0 -196 76t-73 195t74.5 196t199.5 77q20 0 75 -3.5t98 -3.5h224l-27 -70h-197v-157h194v-70h-194v-163h216v-70zM406 75v380q-41 10 -83 10q-87 0 -136 -56t-49 -145q0 -91 47 -145t137 -54q36 0 84 10z" />
    <glyph glyph-name="Racute.small" horiz-adv-x="499" 
d="M191 566l58 147h98l-89 -147h-67zM323 234v-2q27 -19 67 -82l92 -150h-96l-83 136q-37 60 -61 69h-70v-205h-88v530h156q97 0 142 -44.5t45 -110.5q0 -49 -26 -86.5t-78 -54.5zM172 274h70q46 0 72 26t26 68q0 41 -26 66.5t-75 25.5h-67v-186z" />
    <glyph glyph-name="Rcaron.small" horiz-adv-x="499" 
d="M200 567l-100 147h74l66 -93l64 93h72l-98 -147h-78zM323 234v-2q27 -19 67 -82l92 -150h-96l-83 136q-37 60 -61 69h-70v-205h-88v530h156q97 0 142 -44.5t45 -110.5q0 -49 -26 -86.5t-78 -54.5zM172 274h70q46 0 72 26t26 68q0 41 -26 66.5t-75 25.5h-67v-186z" />
    <glyph glyph-name="Rcommaaccent.small" horiz-adv-x="499" 
d="M323 234v-2q27 -19 67 -82l92 -150h-96l-83 136q-37 60 -61 69h-70v-205h-88v530h156q97 0 142 -44.5t45 -110.5q0 -49 -26 -86.5t-78 -54.5zM172 274h70q46 0 72 26t26 68q0 41 -26 66.5t-75 25.5h-67v-186zM197 -237l-23 56q72 18 72 67q0 27 -22 62h77q24 -32 24 -73
q0 -89 -128 -112z" />
    <glyph glyph-name="Sacute.small" horiz-adv-x="431" 
d="M192 566l58 147h98l-89 -147h-67zM44 29l31 65q59 -33 120 -33q42 0 72 20t30 58q0 33 -24 56.5t-58.5 39t-69 33t-58.5 50t-24 79.5q0 62 45 102.5t124 40.5q72 0 130 -25v-75q-63 30 -124 30q-35 0 -60.5 -17t-25.5 -52q0 -30 24 -51.5t59 -35.5t69.5 -32t58.5 -52
t24 -84q0 -73 -53 -114.5t-135 -41.5q-88 0 -155 39z" />
    <glyph glyph-name="Scircumflex.small" horiz-adv-x="431" 
d="M44 29l31 65q59 -33 120 -33q42 0 72 20t30 58q0 33 -24 56.5t-58.5 39t-69 33t-58.5 50t-24 79.5q0 62 45 102.5t124 40.5q72 0 130 -25v-75q-63 30 -124 30q-35 0 -60.5 -17t-25.5 -52q0 -30 24 -51.5t59 -35.5t69.5 -32t58.5 -52t24 -84q0 -73 -53 -114.5t-135 -41.5
q-88 0 -155 39zM80 566l99 147h78l99 -147h-73l-65 93l-65 -93h-73z" />
    <glyph glyph-name="Scaron.small" horiz-adv-x="431" 
d="M185 567l-100 147h74l66 -93l64 93h72l-98 -147h-78zM44 29l31 65q59 -33 120 -33q42 0 72 20t30 58q0 33 -24 56.5t-58.5 39t-69 33t-58.5 50t-24 79.5q0 62 45 102.5t124 40.5q72 0 130 -25v-75q-63 30 -124 30q-35 0 -60.5 -17t-25.5 -52q0 -30 24 -51.5t59 -35.5
t69.5 -32t58.5 -52t24 -84q0 -73 -53 -114.5t-135 -41.5q-88 0 -155 39z" />
    <glyph glyph-name="Scedilla.small" horiz-adv-x="431" 
d="M107 -201l14 48q23 -10 50 -10q51 0 51 37q0 23 -21 29.5t-63 6.5l25 82q-69 8 -119 37l31 65q59 -33 120 -33q42 0 72 20t30 58q0 33 -24 56.5t-58.5 39t-69 33t-58.5 50t-24 79.5q0 62 45 102.5t124 40.5q72 0 130 -25v-75q-63 30 -124 30q-35 0 -60.5 -17t-25.5 -52
q0 -30 24 -51.5t59 -35.5t69.5 -32t58.5 -52t24 -84q0 -66 -43 -105.5t-112 -48.5l-14 -44q82 -7 82 -73q0 -40 -33 -63.5t-91 -23.5q-34 0 -69 11z" />
    <glyph glyph-name="Scommaaccent.small" horiz-adv-x="431" 
d="M44 29l31 65q59 -33 120 -33q42 0 72 20t30 58q0 33 -24 56.5t-58.5 39t-69 33t-58.5 50t-24 79.5q0 62 45 102.5t124 40.5q72 0 130 -25v-75q-63 30 -124 30q-35 0 -60.5 -17t-25.5 -52q0 -30 24 -51.5t59 -35.5t69.5 -32t58.5 -52t24 -84q0 -73 -53 -114.5t-135 -41.5
q-88 0 -155 39zM147 -237l-23 56q72 18 72 67q0 27 -22 62h77q24 -32 24 -73q0 -89 -128 -112z" />
    <glyph glyph-name="Tcaron.small" horiz-adv-x="443" 
d="M183 567l-100 147h74l66 -93l64 93h72l-98 -147h-78zM178 0v458h-164v72h429l-27 -72h-150v-458h-88z" />
    <glyph glyph-name="Tcommaaccent.small" horiz-adv-x="443" 
d="M178 0v458h-164v72h429l-27 -72h-150v-458h-88zM155 -237l-23 56q72 18 72 67q0 27 -22 62h77q24 -32 24 -73q0 -89 -128 -112z" />
    <glyph glyph-name="Tbar.small" horiz-adv-x="443" 
d="M86 220v70h92v168h-164v72h429l-27 -72h-150v-168h91v-70h-91v-220h-88v220h-92z" />
    <glyph glyph-name="Ugrave.small" horiz-adv-x="600" 
d="M273 566l-89 147h100l58 -147h-69zM519 530v-331q0 -105 -60.5 -157.5t-160.5 -52.5q-99 0 -158 52t-59 157v332h88v-328q0 -71 34.5 -105.5t96.5 -34.5t96.5 35t34.5 105v328h88z" />
    <glyph glyph-name="Uacute.small" horiz-adv-x="600" 
d="M262 566l58 147h98l-89 -147h-67zM519 530v-331q0 -105 -60.5 -157.5t-160.5 -52.5q-99 0 -158 52t-59 157v332h88v-328q0 -71 34.5 -105.5t96.5 -34.5t96.5 35t34.5 105v328h88z" />
    <glyph glyph-name="Ucircumflex.small" horiz-adv-x="600" 
d="M519 530v-331q0 -105 -60.5 -157.5t-160.5 -52.5q-99 0 -158 52t-59 157v332h88v-328q0 -71 34.5 -105.5t96.5 -34.5t96.5 35t34.5 105v328h88zM163 566l99 147h78l99 -147h-73l-65 93l-65 -93h-73z" />
    </font>
</defs>
</svg>
