<svg width="46" height="46" viewBox="0 0 46 46" fill="none" xmlns="http://www.w3.org/2000/svg">
	<path fill-rule="evenodd" clip-rule="evenodd" d="M28.7466 32.4841C27.0711 33.5111 25.1001 34.1032 22.9909 34.1032C16.8998 34.1032 11.962 29.1654 11.962 23.0744C11.962 20.9651 12.5541 18.9942 13.5812 17.3187L28.7466 32.4841ZM32.4006 28.8324L17.2352 13.667C18.9107 12.64 20.8817 12.0479 22.9909 12.0479C29.082 12.0479 34.0197 16.9856 34.0197 23.0767C34.0197 25.1859 33.4276 27.1569 32.4006 28.8324ZM22.9908 38.4387C31.4755 38.4387 38.3538 31.5605 38.3538 23.0758C38.3538 14.5911 31.4755 7.71289 22.9908 7.71289C14.5061 7.71289 7.62792 14.5911 7.62792 23.0758C7.62792 31.5605 14.5061 38.4387 22.9908 38.4387Z" fill="#D5D7DB"/>
</svg>