<svg width="52" height="52" viewBox="0 0 52 52" fill="none" xmlns="http://www.w3.org/2000/svg">
<path d="M36.8057 38.2416C37.5329 37.9612 37.9363 37.1504 37.7873 36.345L37.2721 33.5615C37.2721 32.4 35.8141 31.0732 32.943 30.3001C31.9703 30.0175 31.0456 29.5794 30.202 29.0013C30.0175 28.8916 30.0455 27.8772 30.0455 27.8772L29.1208 27.7306C29.1208 27.6483 29.0418 26.4319 29.0418 26.4319C30.1482 26.0447 30.0343 23.7608 30.0343 23.7608C30.737 24.1667 31.1945 22.3593 31.1945 22.3593C32.0256 19.8483 30.7807 20.0001 30.7807 20.0001C30.9985 18.4672 30.9985 16.9092 30.7807 15.3762C30.2272 10.2911 21.8943 11.6716 22.8823 13.3324C20.4469 12.8652 21.0027 18.6359 21.0027 18.6359L21.5309 20.1303C20.7987 20.6249 20.9425 21.1925 21.1031 21.8265C21.1701 22.0908 21.24 22.3667 21.2505 22.6536C21.3016 24.0937 22.1477 23.7953 22.1477 23.7953C22.1999 26.172 23.3253 26.4815 23.3253 26.4815C23.5368 27.9741 23.405 27.7201 23.405 27.7201L22.4035 27.8463C22.417 28.1857 22.3905 28.5256 22.3244 28.8583C21.7425 29.1284 21.3862 29.3433 21.0335 29.556C20.6724 29.7739 20.315 29.9895 19.723 30.2598C17.462 31.2917 15.0047 32.6336 14.5679 34.4404C14.4402 34.9686 14.3151 35.6787 14.202 36.4192C14.0836 37.1952 14.4902 37.9549 15.1862 38.2246C18.223 39.4017 21.6503 40.0992 25.286 40.182H26.7498C30.368 40.0996 33.7797 39.4084 36.8057 38.2416Z" fill="white"/>
</svg>
