<svg width="20" height="20" viewBox="0 0 20 20" fill="none" xmlns="http://www.w3.org/2000/svg">
<path fill-rule="evenodd" clip-rule="evenodd" d="M11.8849 3.99829V16.6603L7.53367 13.779L7.53436 13.5821C7.50497 13.586 7.47497 13.5881 7.44449 13.5881H4.83195C4.46389 13.5881 4.16553 13.2897 4.16553 12.9216V7.73694C4.16553 7.36888 4.46389 7.07052 4.83195 7.07052H7.44449C7.47497 7.07052 7.50497 7.07256 7.53436 7.07652L7.53367 6.95513L11.8849 3.99829ZM16.0633 5.31247C17.419 6.64222 18.1602 8.4226 18.1602 10.304C18.1602 12.1854 17.419 13.967 16.0633 15.2956C15.8336 15.521 15.45 15.521 15.1942 15.2956C15.0913 15.1701 15.0144 15.0202 15.0144 14.8693C15.0144 14.7186 15.0653 14.5687 15.1932 14.4433C16.345 13.3399 16.9584 11.8848 16.9584 10.3041C16.9584 8.72347 16.345 7.26825 15.1942 6.16499C14.9644 5.93961 14.9644 5.56333 15.1942 5.31247C15.424 5.08709 15.8076 5.08709 16.0633 5.31247ZM14.4744 7.39476C15.2676 8.17183 15.7021 9.20072 15.7021 10.3042C15.7021 11.4077 15.2676 12.4365 14.4744 13.2146C14.2446 13.44 13.861 13.44 13.6053 13.2146C13.5195 13.1101 13.4525 12.9879 13.4325 12.8627L13.4264 12.7872C13.4264 12.6363 13.4774 12.4863 13.6053 12.3609C14.1677 11.8092 14.4744 11.0811 14.4744 10.3041C14.4744 9.52603 14.1677 8.79895 13.6053 8.24727C13.3755 8.02189 13.3755 7.64561 13.6053 7.39476C13.835 7.16938 14.2186 7.16938 14.4744 7.39476Z" fill="#008DBA"/>
</svg>
