<svg width="24" height="24" viewBox="0 0 24 24" fill="none" xmlns="http://www.w3.org/2000/svg">
<path d="M 16.988281 17.648438 C 17.324219 17.519531 17.507812 17.144531 17.441406 16.773438 L 17.203125 15.488281 C 17.203125 14.953125 16.53125 14.339844 15.203125 13.984375 C 14.753906 13.851562 14.328125 13.652344 13.9375 13.386719 C 13.855469 13.335938 13.867188 12.867188 13.867188 12.867188 L 13.441406 12.800781 C 13.441406 12.761719 13.402344 12.199219 13.402344 12.199219 C 13.914062 12.019531 13.863281 10.964844 13.863281 10.964844 C 14.1875 11.152344 14.398438 10.320312 14.398438 10.320312 C 14.78125 9.160156 14.207031 9.230469 14.207031 9.230469 C 14.308594 8.523438 14.308594 7.804688 14.207031 7.097656 C 13.949219 4.75 10.105469 5.386719 10.5625 6.152344 C 9.4375 5.9375 9.691406 8.601562 9.691406 8.601562 L 9.9375 9.289062 C 9.597656 9.519531 9.664062 9.78125 9.738281 10.074219 C 9.769531 10.195312 9.804688 10.324219 9.808594 10.457031 C 9.832031 11.121094 10.222656 10.980469 10.222656 10.980469 C 10.246094 12.078125 10.765625 12.222656 10.765625 12.222656 C 10.863281 12.910156 10.800781 12.792969 10.800781 12.792969 L 10.339844 12.851562 C 10.347656 13.007812 10.335938 13.164062 10.304688 13.320312 C 10.035156 13.445312 9.871094 13.542969 9.707031 13.640625 C 9.511719 13.761719 9.3125 13.871094 9.101562 13.964844 C 8.058594 14.441406 6.925781 15.0625 6.722656 15.894531 C 6.65625 16.199219 6.597656 16.503906 6.554688 16.808594 C 6.5 17.167969 6.6875 17.519531 7.007812 17.640625 C 8.410156 18.183594 9.992188 18.507812 11.671875 18.546875 L 12.347656 18.546875 C 14.015625 18.507812 15.589844 18.1875 16.988281 17.648438 Z M 16.988281 17.648438 " fill="white"/>
</svg>
