<svg xmlns="http://www.w3.org/2000/svg" width="481" height="63" fill="none"><path fill="#6A737F" d="M65.27 15.611a.611.611 0 0 1 1.222 0v1.85c1.395.277 2.444 1.488 2.444 2.939v2.278c0 .399.324.722.723.722.398 0 .722.323.722.722V25.8h-3.889v.589a.611.611 0 0 1-1.222 0V25.8h-3.89v-1.678c0-.399.324-.722.723-.722a.722.722 0 0 0 .722-.722V20.4c0-1.451 1.05-2.662 2.445-2.94v-1.849Z"/><path fill="#6A737F" fill-rule="evenodd" d="M60.38 40a6 6 0 1 1 12 0 6 6 0 0 1-12 0Zm6-7a7 7 0 1 0 0 14 7 7 0 0 0 0-14Zm2.5 4.5h-5v5h5v-5Z" clip-rule="evenodd"/><path fill="#fff" fill-opacity=".01" d="M41.38 0h222v63h-222z"/><rect width="46" height="10" x="80" y="16" fill="#818994" rx="5"/><rect width="46" height="10" x="80" y="36" fill="#818994" rx="5"/><path fill="#fff" fill-opacity=".01" d="M283.381 0h197v63h-197z"/><path fill="#B3B9BE" fill-rule="evenodd" d="M318.881 12c10.769 0 19.5 8.73 19.5 19.5S329.65 51 318.881 51c-10.77 0-19.5-8.73-19.5-19.5s8.73-19.5 19.5-19.5Z" clip-rule="evenodd"/><path fill="#fff" d="M327.979 42.476c1.109-.372 1.717-1.552 1.492-2.719l-.316-1.64c-.159-1.027-1.329-2.178-3.945-2.855a8.885 8.885 0 0 1-2.498-1.136c-.168-.096-.142-.984-.142-.984l-.843-.128c0-.072-.072-1.136-.072-1.136 1.008-.34.904-2.337.904-2.337.641.355 1.058-1.227 1.058-1.227.757-2.197-.378-2.064-.378-2.064a13.784 13.784 0 0 0 0-4.046c-.504-4.45-8.097-3.242-7.197-1.788-2.219-.41-1.713 4.64-1.713 4.64l.482 1.308c-.668.433-.537.93-.39 1.484.061.231.125.473.134.724.047 1.26.818.999.818.999.047 2.08 1.073 2.35 1.073 2.35.192 1.306.072 1.084.072 1.084l-.912.11c.012.297-.012.595-.072.886-.531.236-.855.424-1.177.61-.329.19-.654.38-1.194.616-2.06.903-4.126 1.408-4.524 2.99a33.67 33.67 0 0 0-.351 1.65c-.215 1.117.39 2.222 1.451 2.582 2.588.877 5.461 1.394 8.494 1.46h1.333c3.001-.066 5.846-.573 8.413-1.433Z"/><path fill="#6A737F" fill-rule="evenodd" d="m353.381 33.5 4-4h-8l4 4Z" clip-rule="evenodd" opacity=".7"/><rect width="96" height="10" x="368.381" y="26.5" fill="#6A737F" fill-opacity=".6" rx="5"/><rect width="46" height="39" y="12" fill="#818994" rx="8"/></svg>