<svg width="62" height="727" viewBox="0 0 62 727" fill="none" xmlns="http://www.w3.org/2000/svg">
<g opacity="0.5">
<path d="M23 25H39V27H23V25Z" fill="white"/>
<path d="M23 30H39V32H23V30Z" fill="white"/>
<path d="M39 35H23V37H39V35Z" fill="white"/>
</g>
<rect x="9" y="63" width="44" height="298" rx="8" fill="white" fill-opacity="0.13"/>
<g opacity="0.4">
<path fill-rule="evenodd" clip-rule="evenodd" d="M27.5867 84.2714C29.3185 84.2714 30.7224 82.8675 30.7224 81.1357C30.7224 79.4039 29.3185 78 27.5867 78C25.8549 78 24.451 79.4039 24.451 81.1357C24.451 82.8675 25.8549 84.2714 27.5867 84.2714ZM31.8305 81.1358C31.8305 81.4107 31.8044 81.6795 31.7544 81.9399C32.7477 82.3003 33.5815 82.9934 34.121 83.8845C34.7972 83.4293 35.6116 83.1636 36.488 83.1636C36.5505 83.1636 36.6127 83.165 36.6745 83.1677C35.6781 81.082 33.7055 79.552 31.3481 79.1689C31.6562 79.7568 31.8305 80.4259 31.8305 81.1358ZM23.7772 83.0078C24.2006 83.8676 24.9064 84.5633 25.7736 84.9737C25.6545 85.3824 25.5907 85.8145 25.5907 86.2616C25.5907 86.6448 25.6376 87.017 25.7259 87.3728C24.8163 87.5257 24.0048 87.9679 23.3895 88.6017C23.1371 87.8682 23 87.0811 23 86.2619C23 85.0907 23.2802 83.9848 23.7772 83.0078ZM30.6781 91.5577C30.6781 91.3122 30.6572 91.0717 30.6172 90.8377C31.5245 90.7534 32.3553 90.4054 33.0322 89.871C33.5529 90.6001 34.2986 91.1575 35.1679 91.4418C33.8869 92.6741 32.1497 93.4357 30.2347 93.4482C30.5185 92.879 30.6781 92.237 30.6781 91.5577ZM39.6236 87.4073C39.6236 89.1391 38.2197 90.543 36.4879 90.543C34.7561 90.543 33.3522 89.1391 33.3522 87.4073C33.3522 85.6755 34.7561 84.2716 36.4879 84.2716C38.2197 84.2716 39.6236 85.6755 39.6236 87.4073ZM26.4342 94.6933C28.166 94.6933 29.5699 93.2894 29.5699 91.5576C29.5699 89.8258 28.166 88.4219 26.4342 88.4219C24.7024 88.4219 23.2985 89.8258 23.2985 91.5576C23.2985 93.2894 24.7024 94.6933 26.4342 94.6933Z" fill="white"/>
</g>
<path fill-rule="evenodd" clip-rule="evenodd" d="M38 128.859C38 129.488 37.483 130 36.8476 130H25.1524C24.517 130 24 129.488 24 128.859V116.141C24 115.512 24.517 115 25.1524 115H36.8476C37.483 115 38 115.512 38 116.141V128.859ZM26.6 121C26.2686 121 26 121.269 26 121.6V124.369C26 124.701 26.2686 124.969 26.6 124.969H34.4C34.7314 124.969 35 124.701 35 124.369V121.6C35 121.269 34.7314 121 34.4 121H26.6ZM29.7574 118C29.3391 118 29 118.339 29 118.757C29 119.176 29.3391 119.515 29.7574 119.515H34.2426C34.6609 119.515 35 119.176 35 118.757C35 118.339 34.6609 118 34.2426 118H29.7574ZM27 119.8C27.5523 119.8 28 119.352 28 118.8C28 118.248 27.5523 117.8 27 117.8C26.4477 117.8 26 118.248 26 118.8C26 119.352 26.4477 119.8 27 119.8Z" fill="white"/>
<path fill-rule="evenodd" clip-rule="evenodd" d="M23 152.6C23 151.716 23.7163 151 24.6 151H33.4C34.2837 151 35 151.716 35 152.6V158.407C35 159.29 34.2837 160.007 33.4 160.007H29L26.5122 162.496C26.3233 162.685 26 162.552 26 162.284V160.007H24.6C23.7163 160.007 23 159.29 23 158.407V152.6ZM29 162.008V162.41C29 163.293 29.7163 164.01 30.6 164.01H33.8571L35.4722 165.895C35.6534 166.107 36 165.979 36 165.7V164.01H37.4C38.2837 164.01 39 163.293 39 162.41V156.603C39 155.719 38.2837 155.003 37.4 155.003H37V159.908C37 161.068 36.0598 162.008 34.9 162.008H29Z" fill="white"/>
<path fill-rule="evenodd" clip-rule="evenodd" d="M36.8749 199.799H25.1312V191.057H36.8749V199.799ZM35.8125 188.243V187.693H37.0364C38.154 187.763 39.0198 188.733 38.9997 189.894V200.899C38.9997 201.507 38.5248 202 37.9373 202H24.0688C23.4823 202 23.0064 201.507 23.0064 200.899V189.894C23.0021 189.837 23 189.78 23 189.724C23.0021 188.6 23.8839 187.69 24.9697 187.693H26.1935V188.243C26.1935 189.154 26.9064 189.894 27.7871 189.894C28.6678 189.894 29.3807 189.154 29.3807 188.243V187.693H32.6253V188.243C32.6253 189.154 33.3392 189.894 34.2189 189.894C35.0986 189.894 35.8125 189.154 35.8125 188.243ZM28.568 186.814V188.025C28.568 188.472 28.2185 188.834 27.7871 188.834C27.3558 188.834 27.0063 188.472 27.0063 188.025V186.814V186.803C27.0084 186.358 27.3611 185.998 27.7924 186C28.2238 186.003 28.5701 186.368 28.568 186.814ZM34.9562 186.844V187.992C34.9562 188.414 34.6258 188.756 34.2178 188.756C33.8099 188.755 33.4816 188.412 33.4816 187.991V186.844C33.4816 186.422 33.812 186.08 34.2189 186.08C34.6258 186.08 34.9562 186.422 34.9562 186.844ZM27.5343 193.027C27.2582 193.027 27.0343 193.251 27.0343 193.527V194.524C27.0343 194.8 27.2582 195.024 27.5343 195.024H28.5442C28.8203 195.024 29.0442 194.8 29.0442 194.524V193.527C29.0442 193.251 28.8203 193.027 28.5442 193.027H27.5343ZM27.5343 196.022C27.2582 196.022 27.0343 196.246 27.0343 196.522V197.519C27.0343 197.795 27.2582 198.019 27.5343 198.019H28.5442C28.8203 198.019 29.0442 197.795 29.0442 197.519V196.522C29.0442 196.246 28.8203 196.022 28.5442 196.022H27.5343ZM30.0491 193.527C30.0491 193.251 30.273 193.027 30.5491 193.027H31.559C31.8351 193.027 32.059 193.251 32.059 193.527V194.524C32.059 194.8 31.8351 195.024 31.559 195.024H30.5491C30.273 195.024 30.0491 194.8 30.0491 194.524V193.527ZM30.5491 196.022C30.273 196.022 30.0491 196.246 30.0491 196.522V197.519C30.0491 197.795 30.273 198.019 30.5491 198.019H31.559C31.8351 198.019 32.059 197.795 32.059 197.519V196.522C32.059 196.246 31.8351 196.022 31.559 196.022H30.5491ZM33.0639 193.527C33.0639 193.251 33.2878 193.027 33.5639 193.027H34.5738C34.8499 193.027 35.0738 193.251 35.0738 193.527V194.524C35.0738 194.8 34.8499 195.024 34.5738 195.024H33.5639C33.2878 195.024 33.0639 194.8 33.0639 194.524V193.527Z" fill="white"/>
<path fill-rule="evenodd" clip-rule="evenodd" d="M27 222C26.4477 222 26 222.448 26 223V236C26 236.552 26.4477 237 27 237H37.0227C37.575 237 38.0227 236.552 38.0227 236V227C38.0227 226.498 37.8338 226.014 37.4935 225.645L34.7287 222.645C34.3501 222.234 33.8168 222 33.258 222H27ZM28.8116 225.982C28.3754 225.982 28.0219 226.336 28.0219 226.772C28.0219 227.208 28.3754 227.562 28.8116 227.562H34.6293C35.0655 227.562 35.4191 227.208 35.4191 226.772C35.4191 226.336 35.0655 225.982 34.6293 225.982H28.8116ZM28.8116 228.982C28.3754 228.982 28.0219 229.336 28.0219 229.772C28.0219 230.208 28.3754 230.562 28.8116 230.562H34.6293C35.0655 230.562 35.4191 230.208 35.4191 229.772C35.4191 229.336 35.0655 228.982 34.6293 228.982H28.8116ZM28.0219 232.732C28.0219 232.296 28.3754 231.942 28.8116 231.942H32.9252C33.3614 231.942 33.715 232.296 33.715 232.732C33.715 233.168 33.3614 233.522 32.9252 233.522H28.8116C28.3755 233.522 28.0219 233.168 28.0219 232.732Z" fill="white"/>
<path fill-rule="evenodd" clip-rule="evenodd" d="M22.8 266H38.2C38.6418 266 39 266.358 39 266.8V270.8C39 271.463 38.4627 272 37.8 272H23.2C22.5373 272 22 271.463 22 270.8V266.8C22 266.358 22.3582 266 22.8 266ZM27.6 268C27.2686 268 27 268.269 27 268.6V269.4C27 269.731 27.2686 270 27.6 270H33.4C33.7314 270 34 269.731 34 269.4V268.6C34 268.269 33.7314 268 33.4 268H27.6ZM25 270C25.5523 270 26 269.552 26 269C26 268.448 25.5523 268 25 268C24.4477 268 24 268.448 24 269C24 269.552 24.4477 270 25 270ZM25.3975 260H35.615C35.9881 260 36.3302 260.208 36.5023 260.539L38.5 264.383H22.6L24.502 260.555C24.6709 260.215 25.0179 260 25.3975 260Z" fill="white"/>
<path fill-rule="evenodd" clip-rule="evenodd" d="M31 301.069L25.0769 297H36.9231L31 301.069ZM38 298.227V298.017L38 298.227L38 298.227ZM38 298.227L31 303.391L24 298.227V306.119C24 306.606 24.4509 307 25.0067 307H36.9932C37.5504 307 38 306.606 38 306.119L38 298.227Z" fill="white"/>
<path fill-rule="evenodd" clip-rule="evenodd" d="M34.06 337.221C34.06 337.221 34.0426 337.568 34.0256 337.615C33.9867 337.674 33.954 337.738 33.9279 337.805C33.9499 337.805 34.1778 337.915 34.1778 337.915L35.06 338.201L35.0472 338.635C34.8795 338.704 34.5259 338.967 34.4651 339.053C35.2688 339.391 36.0071 340.067 36.0261 340.62C36.0391 340.719 36.5258 342.533 36.5548 342.941H39.9999C40.0029 342.925 39.888 340.578 39.8868 340.56C39.8868 340.56 39.6736 339.995 39.3358 339.937C39.0004 339.893 38.6765 339.783 38.3824 339.614C38.1881 339.497 37.9831 339.4 37.7703 339.323C37.6612 339.223 37.5768 339.099 37.5237 338.961C37.4118 338.816 37.2647 338.704 37.097 338.635L37.0845 338.201L37.9669 337.916C37.9669 337.916 38.1945 337.806 38.2168 337.806C38.1815 337.729 38.1408 337.656 38.0951 337.585C38.0784 337.539 37.9952 337.223 37.9952 337.223C38.1238 337.393 38.2752 337.545 38.4449 337.673C38.2946 337.382 38.166 337.08 38.0601 336.77C37.9893 336.482 37.9402 336.19 37.913 335.894C37.8523 335.346 37.7579 334.802 37.6304 334.266C37.5397 333.999 37.3782 333.763 37.1637 333.584C36.8492 333.358 36.4801 333.222 36.0956 333.191C36.0883 333.191 36.0813 333.191 36.0738 333.191C36.0663 333.191 36.0594 333.191 36.0514 333.191C35.6669 333.222 35.2977 333.358 34.9833 333.584C34.769 333.764 34.6076 333.999 34.5168 334.266C34.3889 334.802 34.2945 335.346 34.234 335.894C34.2107 336.196 34.1638 336.495 34.0938 336.79C33.9879 337.095 33.8569 337.39 33.7023 337.673C33.8711 337.544 34.06 337.221 34.06 337.221ZM35.993 345C35.993 344.226 35.1546 340.954 35.1546 340.954C35.1546 340.954 34.5509 339.929 33.3614 339.611C32.9574 339.494 32.574 339.313 32.2254 339.076C32.1695 338.928 32.1474 338.77 32.1607 338.613L31.7795 338.552C31.7795 338.518 31.7469 338.017 31.7469 338.017C32.2051 337.858 32.158 336.917 32.158 336.917C32.4489 337.084 32.6384 336.341 32.6384 336.341C32.9827 335.307 32.467 335.369 32.467 335.369C32.5572 334.738 32.5572 334.097 32.467 333.465C32.2379 331.371 28.7864 331.939 29.1959 332.624C28.1872 332.43 28.4174 334.808 28.4174 334.808L28.6362 335.423C28.2067 335.711 28.5052 336.06 28.5197 336.462C28.5409 337.055 28.8907 336.932 28.8907 336.932C28.9124 337.911 29.3781 338.039 29.3781 338.039C29.4656 338.654 29.4113 338.548 29.4113 338.548L28.9966 338.6C29.0022 338.74 28.9913 338.88 28.964 339.017C28.4751 339.243 28.3712 339.374 27.8865 339.594C26.95 340.018 25.9322 340.571 25.7516 341.315C25.571 342.059 25.032 345 25.032 345H35.993ZM27.0139 337.612C27.053 337.672 27.086 337.736 27.1122 337.803C27.0901 337.803 26.8607 337.914 26.8607 337.914L25.9725 338.202L25.9853 338.639C26.1541 338.708 26.3021 338.822 26.4149 338.967C26.4576 339.064 26.51 339.156 26.5713 339.241C25.7622 339.582 25.0191 340.08 25.0003 340.637C24.9869 340.736 24.4973 342.562 24.4681 342.974H21.0001C20.997 342.956 21.1127 340.594 21.1137 340.576C21.1137 340.576 21.3283 340.007 21.6683 339.949C22.006 339.905 22.3319 339.794 22.6279 339.624C22.8235 339.506 23.0299 339.408 23.2441 339.331C23.3539 339.231 23.4389 339.106 23.4923 338.967C23.6049 338.821 23.753 338.708 23.9219 338.639L23.9347 338.202L23.0464 337.915C23.0464 337.915 22.8173 337.804 22.7949 337.804C22.8304 337.727 22.8712 337.653 22.9172 337.582C22.934 337.536 23.0177 337.217 23.0177 337.217C22.8883 337.389 22.7359 337.542 22.5651 337.671C22.7164 337.378 22.8458 337.074 22.9524 336.761C23.0236 336.472 23.0731 336.177 23.1005 335.88C23.1615 335.328 23.2565 334.781 23.3849 334.241C23.4762 333.973 23.6388 333.735 23.8547 333.555C24.1713 333.327 24.5428 333.19 24.9298 333.159C24.9371 333.159 24.9442 333.159 24.9517 333.159C24.9592 333.159 24.9663 333.159 24.9743 333.159C25.3614 333.19 25.7329 333.327 26.0494 333.555C26.2651 333.735 26.4275 333.973 26.519 334.241C26.6477 334.781 26.7427 335.328 26.8037 335.88C26.8271 336.184 26.8743 336.485 26.9447 336.781C27.0514 337.088 27.1832 337.386 27.3388 337.67C27.169 337.541 27.0177 337.388 26.8892 337.216C26.8894 337.216 26.9968 337.565 27.0139 337.612Z" fill="white"/>
<path fill-rule="evenodd" clip-rule="evenodd" d="M23.6839 383H38.3163C38.6939 383 39 383.321 39 383.717C39 383.797 38.9871 383.877 38.962 383.952L38.5199 385.283C38.4242 385.571 38.1651 385.764 37.8741 385.764H24.1225C23.8309 385.764 23.5714 385.57 23.4762 385.282L23.0376 383.951C22.9144 383.576 23.1038 383.168 23.4607 383.039C23.5325 383.013 23.608 383 23.6839 383ZM26.094 388.11H35.9062C36.2839 388.11 36.59 388.431 36.59 388.827C36.59 388.912 36.5752 388.998 36.5464 389.078L36.0703 390.409C35.9703 390.689 35.7151 390.874 35.4301 390.874H26.5448C26.2553 390.874 25.9972 390.683 25.9004 390.397L25.4496 389.066C25.3233 388.693 25.5093 388.284 25.8652 388.151C25.9387 388.124 26.016 388.11 26.094 388.11ZM29.1403 393.236H32.8599C33.2375 393.236 33.5436 393.557 33.5436 393.952C33.5436 394.022 33.5339 394.091 33.5148 394.158L33.134 395.489C33.0473 395.792 32.781 396 32.4791 396H29.5624C29.2679 396 29.0065 395.802 28.9136 395.509L28.4915 394.178C28.3724 393.803 28.5663 393.397 28.9246 393.272C28.9942 393.248 29.067 393.236 29.1403 393.236Z" fill="white"/>
<path fill-rule="evenodd" clip-rule="evenodd" d="M25.7184 417.478L26.2022 419.451L39.3436 419.43C39.5455 419.431 39.7355 419.519 39.8592 419.669C39.9838 419.819 40.0285 420.013 39.9821 420.198L38.7498 426.659C38.6793 426.938 38.4155 427.135 38.1122 427.137H27.3237C27.0204 427.135 26.7565 426.938 26.6861 426.659L24.5523 418.246H22.6232C22.279 418.246 22 417.967 22 417.623C22 417.279 22.279 417 22.6232 417H25.0799C25.3841 417.002 25.647 417.199 25.7184 417.478ZM29.2343 431C28.3114 431 27.5629 430.293 27.5629 429.422C27.5629 428.55 28.3113 427.843 29.2343 427.843C30.1581 427.843 30.9066 428.55 30.9066 429.422C30.9066 430.293 30.1581 431 29.2343 431ZM36.1536 431C35.2307 431 34.4822 430.293 34.4822 429.422C34.4822 428.55 35.2307 427.843 36.1536 427.843C37.0774 427.843 37.8259 428.55 37.8259 429.422C37.8259 430.293 37.0774 431 36.1536 431Z" fill="white"/>
<path fill-rule="evenodd" clip-rule="evenodd" d="M30.4152 459.474L33.7686 456.154L33.3267 454.404L35.7543 452L36.4017 454.564L36.3836 454.582L36.3924 454.591L36.4105 454.573L39 455.214L36.5724 457.617L34.9083 457.206L31.5737 460.507C31.6308 460.671 31.6618 460.846 31.6618 461.029C31.6618 461.91 30.9403 462.625 30.0503 462.625C29.1602 462.625 28.4387 461.91 28.4387 461.029C28.4387 460.148 29.1602 459.433 30.0503 459.433C30.1758 459.433 30.298 459.448 30.4152 459.474ZM32.0628 453.309V454.739C31.4278 454.54 30.7517 454.433 30.0503 454.433C26.3711 454.433 23.3885 457.386 23.3885 461.029C23.3885 464.672 26.3711 467.625 30.0503 467.625C33.7295 467.625 36.712 464.672 36.712 461.029C36.712 460.282 36.5865 459.564 36.3553 458.894L37.5923 458.235C37.9208 459.105 38.1005 460.046 38.1005 461.029C38.1005 465.431 34.4963 469 30.0503 469C25.6042 469 22 465.431 22 461.029C22 456.627 25.6042 453.058 30.0503 453.058C30.7452 453.058 31.4196 453.145 32.0628 453.309ZM31.5481 456.123L30.279 457.379C30.2033 457.375 30.1271 457.372 30.0503 457.372C28.0107 457.372 26.3573 459.01 26.3573 461.029C26.3573 463.048 28.0107 464.686 30.0503 464.686C32.0898 464.686 33.7432 463.048 33.7432 461.029C33.7432 460.984 33.7424 460.939 33.7408 460.895L35.0276 459.621C35.1565 460.068 35.2255 460.541 35.2255 461.029C35.2255 463.859 32.9085 466.153 30.0503 466.153C27.1921 466.153 24.875 463.859 24.875 461.029C24.875 458.199 27.1921 455.905 30.0503 455.905C30.5711 455.905 31.074 455.981 31.5481 456.123Z" fill="white"/>
<path opacity="0.8" fill-rule="evenodd" clip-rule="evenodd" d="M30.5 504C26.3579 504 23 500.642 23 496.5C23 492.358 26.3579 489 30.5 489C34.6421 489 38 492.358 38 496.5C38 500.642 34.6421 504 30.5 504ZM34.385 495.587L33.4246 494.626L30.5433 497.507L27.6621 494.626L26.7017 495.587L29.5829 498.468L30.5433 499.428L31.5038 498.468L34.385 495.587Z" fill="white"/>
<path fill-rule="evenodd" clip-rule="evenodd" d="M39 550C39 554.418 35.4183 558 31 558C26.5817 558 23 554.418 23 550C23 545.582 26.5817 542 31 542C35.4183 542 39 545.582 39 550ZM29.9929 552.629V554.436H31.8351V552.629H29.9929ZM29.8286 548.757H28.1038C28.1116 548.335 28.184 547.948 28.3208 547.596C28.4577 547.244 28.6494 546.939 28.8958 546.681C29.1422 546.422 29.4394 546.221 29.7875 546.076C30.1356 545.932 30.5248 545.859 30.955 545.859C31.5104 545.859 31.9738 545.935 32.3454 546.088C32.7169 546.241 33.0161 546.43 33.243 546.657C33.4698 546.884 33.6321 547.128 33.7299 547.39C33.8277 547.652 33.8766 547.897 33.8766 548.124C33.8766 548.499 33.8277 548.808 33.7299 549.051C33.6321 549.293 33.5109 549.5 33.3662 549.673C33.2215 549.845 33.0611 549.991 32.8851 550.113C32.7091 550.234 32.5429 550.355 32.3864 550.476C32.23 550.597 32.0912 550.736 31.9699 550.893C31.8487 551.049 31.7724 551.245 31.7411 551.479V551.925H30.1571V551.397C30.1806 551.061 30.2451 550.779 30.3507 550.553C30.4563 550.326 30.5795 550.132 30.7203 549.972C30.8611 549.811 31.0097 549.673 31.1662 549.555C31.3226 549.438 31.4673 549.321 31.6003 549.203C31.7333 549.086 31.8408 548.957 31.923 548.816C32.0051 548.675 32.0423 548.499 32.0344 548.288C32.0344 547.928 31.9464 547.662 31.7704 547.49C31.5944 547.318 31.35 547.232 31.0371 547.232C30.8259 547.232 30.644 547.273 30.4915 547.355C30.339 547.437 30.2138 547.547 30.116 547.684C30.0183 547.821 29.9459 547.981 29.899 548.165C29.852 548.349 29.8286 548.546 29.8286 548.757Z" fill="white"/>
<path opacity="0.7" fill-rule="evenodd" clip-rule="evenodd" d="M30.5 580C29.1193 580 28 581.119 28 582.5C28 583.227 28.31 583.881 28.805 584.338L27.2091 587.102C26.9843 587.036 26.7463 587 26.5 587C25.1193 587 24 588.119 24 589.5C24 590.881 25.1193 592 26.5 592C27.8807 592 29 590.881 29 589.5C29 588.724 28.6467 588.031 28.0921 587.572L29.6607 584.856C29.923 584.949 30.2056 585 30.5 585C30.7528 585 30.9968 584.962 31.2267 584.893L32.8186 587.65C32.3157 588.107 32 588.767 32 589.5C32 590.881 33.1193 592 34.5 592C35.8807 592 37 590.881 37 589.5C37 588.119 35.8807 587 34.5 587C34.212 587 33.9354 587.049 33.6779 587.138L32.1061 584.416C32.6526 583.957 33 583.269 33 582.5C33 581.119 31.8807 580 30.5 580Z" fill="white"/>
<path opacity="0.7" fill-rule="evenodd" clip-rule="evenodd" d="M33.2162 622.494C33.0349 623.346 32.3646 624.016 31.5123 624.197C29.8874 624.543 28.4758 623.131 28.8215 621.506C28.9849 620.738 29.7569 619.966 30.5251 619.803C32.1497 619.457 33.5619 620.869 33.2162 622.494ZM36.5609 621.126L35.3722 620.928C35.2878 620.583 35.1655 620.252 35.0068 619.943C35.0001 619.93 35.0017 619.915 35.0109 619.903L35.7568 618.979C35.9186 618.779 35.9113 618.492 35.7406 618.3L35.2678 617.768C35.0965 617.575 34.8123 617.535 34.5955 617.672L33.579 618.311C33.1383 618.003 32.6399 617.774 32.1025 617.64C32.0883 617.636 32.0774 617.624 32.075 617.61L31.8801 616.439C31.8384 616.186 31.6194 616 31.3624 616H30.6499C30.3934 616 30.1737 616.186 30.1328 616.439L29.9369 617.61C29.9344 617.625 29.9236 617.636 29.9094 617.64C29.4745 617.749 29.0661 617.921 28.6919 618.146C28.6793 618.154 28.6634 618.153 28.6514 618.144L27.7044 617.468C27.496 617.32 27.2098 617.343 27.028 617.524L26.5247 618.028C26.3432 618.21 26.3199 618.496 26.4692 618.704L27.1467 619.653C27.1552 619.665 27.1558 619.681 27.1483 619.694C26.9256 620.065 26.7553 620.471 26.6464 620.902C26.6428 620.916 26.6313 620.927 26.6168 620.93L25.4387 621.126C25.186 621.168 25 621.387 25 621.644V622.356C25 622.613 25.186 622.832 25.4387 622.874L26.6168 623.07C26.6312 623.073 26.6428 623.084 26.6464 623.098C26.735 623.45 26.8611 623.786 27.027 624.1C27.0339 624.113 27.0324 624.129 27.0232 624.14L26.2809 625.059C26.1197 625.259 26.1264 625.546 26.2971 625.738L26.7695 626.27C26.9409 626.463 27.2252 626.503 27.442 626.366L28.4528 625.731C28.4652 625.723 28.481 625.723 28.4931 625.732C28.9245 626.023 29.4112 626.238 29.9329 626.366L30.1329 627.561C30.1737 627.814 30.3934 628 30.6499 628H31.3624C31.6194 628 31.8384 627.814 31.8801 627.561L32.0753 626.39C32.0778 626.375 32.0886 626.364 32.1028 626.36C32.5321 626.253 32.9353 626.084 33.3059 625.863C33.3186 625.855 33.3343 625.856 33.3463 625.864L34.3337 626.57C34.5417 626.719 34.8281 626.696 35.0097 626.514L35.5133 626.01C35.6945 625.829 35.719 625.543 35.5685 625.334L34.8656 624.348C34.857 624.336 34.8565 624.321 34.864 624.308C35.0874 623.935 35.2585 623.529 35.3668 623.096C35.3704 623.081 35.382 623.071 35.3965 623.068L36.5613 622.874C36.8147 622.832 37 622.613 37 622.356V621.644C36.9996 621.387 36.8143 621.168 36.5609 621.126Z" fill="white"/>
<rect width="62" height="40" transform="translate(0 662)" fill="#B800DA" fill-opacity="0.55"/>
<path fill-rule="evenodd" clip-rule="evenodd" d="M31 693C37.0751 693 42 688.075 42 682C42 675.925 37.0751 671 31 671C24.9249 671 20 675.925 20 682C20 688.075 24.9249 693 31 693ZM31 677C30.3898 677 29.8947 677.471 29.8947 678.053C29.8947 678.634 30.3898 679.105 31 679.105C31.6102 679.105 32.1052 678.634 32.1052 678.053C32.1052 677.471 31.6102 677 31 677ZM37.2126 679.428C36.6024 679.428 36.1073 679.9 36.1073 680.481C36.1073 681.062 36.6024 681.533 37.2126 681.533C37.8228 681.533 38.3179 681.062 38.3179 680.481C38.3179 679.9 37.8228 679.428 37.2126 679.428ZM23.7417 680.481C23.7417 679.9 24.2367 679.428 24.8469 679.428C25.4571 679.428 25.9522 679.9 25.9522 680.481C25.9522 681.062 25.4571 681.533 24.8469 681.533C24.2367 681.533 23.7417 681.062 23.7417 680.481ZM28.3648 682.789L25.6084 681.6C25.5079 681.714 25.3868 681.799 25.25 681.852L26.6596 687H35.3405L36.7502 681.852C36.6133 681.799 36.4922 681.714 36.3917 681.6L33.6354 682.789L31.4797 679.346C31.3314 679.418 31.1703 679.456 31.0001 679.456C30.83 679.456 30.6689 679.418 30.5205 679.346L28.3648 682.789Z" fill="white"/>
</svg>
