<svg width="63" height="727" viewBox="0 0 63 727" fill="none" xmlns="http://www.w3.org/2000/svg">
<path d="M23.3809 25H39.3809V27H23.3809V25Z" fill="#6A737F"/>
<path d="M23.3809 30H39.3809V32H23.3809V30Z" fill="#6A737F"/>
<path d="M39.3809 35H23.3809V37H39.3809V35Z" fill="#6A737F"/>
<rect x="9.38086" y="63" width="44" height="298" rx="8" fill="white" fill-opacity="0.13"/>
<path fill-rule="evenodd" clip-rule="evenodd" d="M27.9675 84.2714C29.6993 84.2714 31.1032 82.8675 31.1032 81.1357C31.1032 79.4039 29.6993 78 27.9675 78C26.2357 78 24.8318 79.4039 24.8318 81.1357C24.8318 82.8675 26.2357 84.2714 27.9675 84.2714ZM32.2114 81.1358C32.2114 81.4107 32.1852 81.6795 32.1353 81.9399C33.1286 82.3003 33.9623 82.9934 34.5019 83.8845C35.1781 83.4293 35.9924 83.1636 36.8689 83.1636C36.9314 83.1636 36.9936 83.165 37.0554 83.1677C36.0589 81.082 34.0864 79.552 31.729 79.1689C32.0371 79.7568 32.2114 80.4259 32.2114 81.1358ZM24.1581 83.0078C24.5814 83.8676 25.2872 84.5633 26.1544 84.9737C26.0354 85.3824 25.9715 85.8145 25.9715 86.2616C25.9715 86.6448 26.0184 87.017 26.1068 87.3728C25.1971 87.5257 24.3857 87.9679 23.7703 88.6017C23.5179 87.8682 23.3809 87.0811 23.3809 86.2619C23.3809 85.0907 23.6611 83.9848 24.1581 83.0078ZM31.0589 91.5577C31.0589 91.3122 31.0381 91.0717 30.9981 90.8377C31.9054 90.7534 32.7362 90.4054 33.4131 89.871C33.9338 90.6001 34.6795 91.1575 35.5488 91.4418C34.2677 92.6741 32.5306 93.4357 30.6156 93.4482C30.8993 92.879 31.0589 92.237 31.0589 91.5577ZM40.0044 87.4073C40.0044 89.1391 38.6005 90.543 36.8687 90.543C35.1369 90.543 33.733 89.1391 33.733 87.4073C33.733 85.6755 35.1369 84.2716 36.8687 84.2716C38.6005 84.2716 40.0044 85.6755 40.0044 87.4073ZM26.8151 94.6933C28.5469 94.6933 29.9508 93.2894 29.9508 91.5576C29.9508 89.8258 28.5469 88.4219 26.8151 88.4219C25.0833 88.4219 23.6794 89.8258 23.6794 91.5576C23.6794 93.2894 25.0833 94.6933 26.8151 94.6933Z" fill="#6A737F"/>
<path fill-rule="evenodd" clip-rule="evenodd" d="M38.3809 128.859C38.3809 129.488 37.8639 130 37.2284 130H25.5333C24.8979 130 24.3809 129.488 24.3809 128.859V116.141C24.3809 115.512 24.8979 115 25.5333 115H37.2284C37.8639 115 38.3809 115.512 38.3809 116.141V128.859ZM26.9809 121C26.6495 121 26.3809 121.269 26.3809 121.6V124.369C26.3809 124.701 26.6495 124.969 26.9809 124.969H34.7809C35.1122 124.969 35.3809 124.701 35.3809 124.369V121.6C35.3809 121.269 35.1122 121 34.7809 121H26.9809ZM30.1383 118C29.72 118 29.3809 118.339 29.3809 118.757C29.3809 119.176 29.72 119.515 30.1383 119.515H34.6234C35.0418 119.515 35.3809 119.176 35.3809 118.757C35.3809 118.339 35.0418 118 34.6234 118H30.1383ZM27.3809 119.8C27.9331 119.8 28.3809 119.352 28.3809 118.8C28.3809 118.248 27.9331 117.8 27.3809 117.8C26.8286 117.8 26.3809 118.248 26.3809 118.8C26.3809 119.352 26.8286 119.8 27.3809 119.8Z" fill="#6A737F"/>
<path fill-rule="evenodd" clip-rule="evenodd" d="M23.3809 152.6C23.3809 151.716 24.0972 151 24.9809 151H33.7809C34.6645 151 35.3809 151.716 35.3809 152.6V158.407C35.3809 159.29 34.6645 160.007 33.7809 160.007H29.3809L26.8931 162.496C26.7041 162.685 26.3809 162.552 26.3809 162.284V160.007H24.9809C24.0972 160.007 23.3809 159.29 23.3809 158.407V152.6ZM29.3809 162.008V162.41C29.3809 163.293 30.0972 164.01 30.9809 164.01H34.238L35.853 165.895C36.0342 166.107 36.3809 165.979 36.3809 165.7V164.01H37.7809C38.6645 164.01 39.3809 163.293 39.3809 162.41V156.603C39.3809 155.719 38.6645 155.003 37.7809 155.003H37.3809V159.908C37.3809 161.068 36.4407 162.008 35.2809 162.008H29.3809Z" fill="#6A737F"/>
<path fill-rule="evenodd" clip-rule="evenodd" d="M37.2557 199.799H25.512V191.057H37.2557V199.799ZM36.1933 188.243V187.693H37.4172C38.5349 187.763 39.4007 188.733 39.3805 189.894V200.899C39.3805 201.507 38.9056 202 38.3181 202H24.4496C23.8632 202 23.3872 201.507 23.3872 200.899V189.894C23.383 189.837 23.3809 189.78 23.3809 189.724C23.383 188.6 24.2648 187.69 25.3505 187.693H26.5744V188.243C26.5744 189.154 27.2873 189.894 28.168 189.894C29.0487 189.894 29.7616 189.154 29.7616 188.243V187.693H33.0062V188.243C33.0062 189.154 33.7201 189.894 34.5998 189.894C35.4794 189.894 36.1933 189.154 36.1933 188.243ZM28.9488 186.814V188.025C28.9488 188.472 28.5993 188.834 28.168 188.834C27.7367 188.834 27.3871 188.472 27.3871 188.025V186.814V186.803C27.3892 186.358 27.742 185.998 28.1733 186C28.6046 186.003 28.951 186.368 28.9488 186.814ZM35.3371 186.844V187.992C35.3371 188.414 35.0067 188.756 34.5987 188.756C34.1907 188.755 33.8625 188.412 33.8625 187.991V186.844C33.8625 186.422 34.1929 186.08 34.5998 186.08C35.0067 186.08 35.3371 186.422 35.3371 186.844ZM27.9152 193.027C27.6391 193.027 27.4152 193.251 27.4152 193.527V194.524C27.4152 194.8 27.6391 195.024 27.9152 195.024H28.9251C29.2012 195.024 29.4251 194.8 29.4251 194.524V193.527C29.4251 193.251 29.2012 193.027 28.9251 193.027H27.9152ZM27.9152 196.022C27.6391 196.022 27.4152 196.246 27.4152 196.522V197.519C27.4152 197.795 27.6391 198.019 27.9152 198.019H28.9251C29.2012 198.019 29.4251 197.795 29.4251 197.519V196.522C29.4251 196.246 29.2012 196.022 28.9251 196.022H27.9152ZM30.43 193.527C30.43 193.251 30.6539 193.027 30.93 193.027H31.9399C32.216 193.027 32.4399 193.251 32.4399 193.527V194.524C32.4399 194.8 32.216 195.024 31.9399 195.024H30.93C30.6539 195.024 30.43 194.8 30.43 194.524V193.527ZM30.93 196.022C30.6539 196.022 30.43 196.246 30.43 196.522V197.519C30.43 197.795 30.6539 198.019 30.93 198.019H31.9399C32.216 198.019 32.4399 197.795 32.4399 197.519V196.522C32.4399 196.246 32.216 196.022 31.9399 196.022H30.93ZM33.4448 193.527C33.4448 193.251 33.6687 193.027 33.9448 193.027H34.9547C35.2308 193.027 35.4547 193.251 35.4547 193.527V194.524C35.4547 194.8 35.2308 195.024 34.9547 195.024H33.9448C33.6687 195.024 33.4448 194.8 33.4448 194.524V193.527Z" fill="#6A737F"/>
<path fill-rule="evenodd" clip-rule="evenodd" d="M27.3809 222C26.8286 222 26.3809 222.448 26.3809 223V236C26.3809 236.552 26.8286 237 27.3809 237H37.4036C37.9558 237 38.4036 236.552 38.4036 236V227C38.4036 226.498 38.2146 226.014 37.8743 225.645L35.1096 222.645C34.7309 222.234 34.1976 222 33.6388 222H27.3809ZM29.1925 225.982C28.7563 225.982 28.4027 226.336 28.4027 226.772C28.4027 227.208 28.7563 227.562 29.1925 227.562H35.0102C35.4464 227.562 35.8 227.208 35.8 226.772C35.8 226.336 35.4464 225.982 35.0102 225.982H29.1925ZM29.1925 228.982C28.7563 228.982 28.4027 229.336 28.4027 229.772C28.4027 230.208 28.7563 230.562 29.1925 230.562H35.0102C35.4464 230.562 35.8 230.208 35.8 229.772C35.8 229.336 35.4464 228.982 35.0102 228.982H29.1925ZM28.4027 232.732C28.4027 232.296 28.7563 231.942 29.1925 231.942H33.3061C33.7423 231.942 34.0959 232.296 34.0959 232.732C34.0959 233.168 33.7423 233.522 33.3061 233.522H29.1925C28.7563 233.522 28.4027 233.168 28.4027 232.732Z" fill="#6A737F"/>
<path fill-rule="evenodd" clip-rule="evenodd" d="M23.1809 266H38.5809C39.0227 266 39.3809 266.358 39.3809 266.8V270.8C39.3809 271.463 38.8436 272 38.1809 272H23.5809C22.9181 272 22.3809 271.463 22.3809 270.8V266.8C22.3809 266.358 22.739 266 23.1809 266ZM27.9809 268C27.6495 268 27.3809 268.269 27.3809 268.6V269.4C27.3809 269.731 27.6495 270 27.9809 270H33.7809C34.1122 270 34.3809 269.731 34.3809 269.4V268.6C34.3809 268.269 34.1122 268 33.7809 268H27.9809ZM25.3809 270C25.9331 270 26.3809 269.552 26.3809 269C26.3809 268.448 25.9331 268 25.3809 268C24.8286 268 24.3809 268.448 24.3809 269C24.3809 269.552 24.8286 270 25.3809 270ZM25.7784 260H35.9958C36.369 260 36.7111 260.208 36.8831 260.539L38.8809 264.383H22.9809L24.8828 260.555C25.0518 260.215 25.3987 260 25.7784 260Z" fill="#6A737F"/>
<path fill-rule="evenodd" clip-rule="evenodd" d="M31.3809 301.069L25.4578 297H37.3039L31.3809 301.069ZM38.3808 298.227V298.017L38.3809 298.227L38.3808 298.227ZM38.3808 298.227L31.3809 303.391L24.3809 298.227V306.119C24.3809 306.606 24.8318 307 25.3876 307H37.3741C37.9313 307 38.3808 306.606 38.3808 306.119L38.3808 298.227Z" fill="#6A737F"/>
<path fill-rule="evenodd" clip-rule="evenodd" d="M34.4409 337.221C34.4409 337.221 34.4234 337.568 34.4065 337.615C34.3676 337.674 34.3349 337.738 34.3088 337.805C34.3308 337.805 34.5586 337.915 34.5586 337.915L35.4408 338.201L35.4281 338.635C35.2604 338.704 34.9068 338.967 34.8459 339.053C35.6497 339.391 36.388 340.067 36.4069 340.62C36.4199 340.719 36.9066 342.533 36.9356 342.941H40.3808C40.3838 342.925 40.2689 340.578 40.2676 340.56C40.2676 340.56 40.0545 339.995 39.7167 339.937C39.3812 339.893 39.0574 339.783 38.7633 339.614C38.569 339.497 38.364 339.4 38.1512 339.323C38.0421 339.223 37.9576 339.099 37.9046 338.961C37.7927 338.816 37.6456 338.704 37.4778 338.635L37.4653 338.201L38.3478 337.916C38.3478 337.916 38.5754 337.806 38.5976 337.806C38.5623 337.729 38.5217 337.656 38.476 337.585C38.4592 337.539 38.376 337.223 38.376 337.223C38.5047 337.393 38.656 337.545 38.8258 337.673C38.6754 337.382 38.5468 337.08 38.441 336.77C38.3702 336.482 38.321 336.19 38.2938 335.894C38.2332 335.346 38.1388 334.802 38.0113 334.266C37.9206 333.999 37.7591 333.763 37.5445 333.584C37.23 333.358 36.8609 333.222 36.4764 333.191C36.4692 333.191 36.4622 333.191 36.4547 333.191C36.4472 333.191 36.4402 333.191 36.4322 333.191C36.0477 333.222 35.6786 333.358 35.3641 333.584C35.1499 333.764 34.9885 333.999 34.8977 334.266C34.7698 334.802 34.6753 335.346 34.6148 335.894C34.5915 336.196 34.5446 336.495 34.4747 336.79C34.3687 337.095 34.2378 337.39 34.0832 337.673C34.2519 337.544 34.4409 337.221 34.4409 337.221ZM36.3738 345C36.3738 344.226 35.5355 340.954 35.5355 340.954C35.5355 340.954 34.9318 339.929 33.7423 339.611C33.3383 339.494 32.9549 339.313 32.6063 339.076C32.5504 338.928 32.5283 338.77 32.5416 338.613L32.1603 338.552C32.1603 338.518 32.1277 338.017 32.1277 338.017C32.5859 337.858 32.5388 336.917 32.5388 336.917C32.8298 337.084 33.0193 336.341 33.0193 336.341C33.3635 335.307 32.8479 335.369 32.8479 335.369C32.9381 334.738 32.9381 334.097 32.8479 333.465C32.6188 331.371 29.1673 331.939 29.5767 332.624C28.5681 332.43 28.7983 334.808 28.7983 334.808L29.0171 335.423C28.5876 335.711 28.8861 336.06 28.9006 336.462C28.9218 337.055 29.2715 336.932 29.2715 336.932C29.2933 337.911 29.759 338.039 29.759 338.039C29.8465 338.654 29.7922 338.548 29.7922 338.548L29.3774 338.6C29.3831 338.74 29.3722 338.88 29.3448 339.017C28.856 339.243 28.752 339.374 28.2673 339.594C27.3309 340.018 26.313 340.571 26.1324 341.315C25.9518 342.059 25.4128 345 25.4128 345H36.3738ZM27.3948 337.612C27.4339 337.672 27.4668 337.736 27.4931 337.803C27.471 337.803 27.2416 337.914 27.2416 337.914L26.3533 338.202L26.3662 338.639C26.535 338.708 26.683 338.822 26.7957 338.967C26.8384 339.064 26.8909 339.156 26.9521 339.241C26.1431 339.582 25.4 340.08 25.3811 340.637C25.3678 340.736 24.8782 342.562 24.849 342.974H21.3809C21.3779 342.956 21.4936 340.594 21.4946 340.576C21.4946 340.576 21.7091 340.007 22.0491 339.949C22.3868 339.905 22.7128 339.794 23.0088 339.624C23.2044 339.506 23.4107 339.408 23.6249 339.331C23.7348 339.231 23.8198 339.106 23.8732 338.967C23.9858 338.821 24.1338 338.708 24.3027 338.639L24.3155 338.202L23.4273 337.915C23.4273 337.915 23.1982 337.804 23.1758 337.804C23.2113 337.727 23.2521 337.653 23.298 337.582C23.3149 337.536 23.3986 337.217 23.3986 337.217C23.2691 337.389 23.1168 337.542 22.9459 337.671C23.0972 337.378 23.2267 337.074 23.3332 336.761C23.4045 336.472 23.454 336.177 23.4813 335.88C23.5424 335.328 23.6374 334.781 23.7658 334.241C23.8571 333.973 24.0196 333.735 24.2356 333.555C24.5521 333.327 24.9237 333.19 25.3107 333.159C25.318 333.159 25.325 333.159 25.3326 333.159C25.3401 333.159 25.3471 333.159 25.3552 333.159C25.7422 333.19 26.1138 333.327 26.4303 333.555C26.6459 333.735 26.8084 333.973 26.8998 334.241C27.0285 334.781 27.1236 335.328 27.1845 335.88C27.208 336.184 27.2551 336.485 27.3256 336.781C27.4322 337.088 27.5641 337.386 27.7197 337.67C27.5499 337.541 27.3986 337.388 27.27 337.216C27.2703 337.216 27.3777 337.565 27.3948 337.612Z" fill="#6A737F"/>
<path fill-rule="evenodd" clip-rule="evenodd" d="M24.0648 383H38.6971C39.0747 383 39.3809 383.321 39.3809 383.717C39.3809 383.797 39.368 383.877 39.3428 383.952L38.9007 385.283C38.8051 385.571 38.546 385.764 38.255 385.764H24.5033C24.2117 385.764 23.9522 385.57 23.857 385.282L23.4185 383.951C23.2952 383.576 23.4847 383.168 23.8416 383.039C23.9134 383.013 23.9888 383 24.0648 383ZM26.4748 388.11H36.2871C36.6647 388.11 36.9708 388.431 36.9708 388.827C36.9708 388.912 36.9561 388.998 36.9273 389.078L36.4512 390.409C36.3511 390.689 36.096 390.874 35.811 390.874H26.9256C26.6362 390.874 26.3781 390.683 26.2813 390.397L25.8305 389.066C25.7041 388.693 25.8902 388.284 26.2461 388.151C26.3195 388.124 26.3969 388.11 26.4748 388.11ZM29.5212 393.236H33.2407C33.6184 393.236 33.9245 393.557 33.9245 393.952C33.9245 394.022 33.9148 394.091 33.8957 394.158L33.5149 395.489C33.4281 395.792 33.1619 396 32.8599 396H29.9432C29.6487 396 29.3873 395.802 29.2944 395.509L28.8723 394.178C28.7532 393.803 28.9472 393.397 29.3055 393.272C29.3751 393.248 29.4479 393.236 29.5212 393.236Z" fill="#6A737F"/>
<path fill-rule="evenodd" clip-rule="evenodd" d="M26.0992 417.478L26.583 419.451L39.7244 419.43C39.9264 419.431 40.1163 419.519 40.2401 419.669C40.3647 419.819 40.4093 420.013 40.3629 420.198L39.1306 426.659C39.0602 426.938 38.7964 427.135 38.493 427.137H27.7046C27.4012 427.135 27.1374 426.938 27.0669 426.659L24.9332 418.246H23.004C22.6599 418.246 22.3809 417.967 22.3809 417.623C22.3809 417.279 22.6599 417 23.004 417H25.4607C25.7649 417.002 26.0279 417.199 26.0992 417.478ZM29.6151 431C28.6922 431 27.9437 430.293 27.9437 429.422C27.9437 428.55 28.6922 427.843 29.6151 427.843C30.5389 427.843 31.2874 428.55 31.2874 429.422C31.2874 430.293 30.539 431 29.6151 431ZM36.5345 431C35.6116 431 34.8631 430.293 34.8631 429.422C34.8631 428.55 35.6116 427.843 36.5345 427.843C37.4583 427.843 38.2068 428.55 38.2068 429.422C38.2068 430.293 37.4583 431 36.5345 431Z" fill="#6A737F"/>
<path fill-rule="evenodd" clip-rule="evenodd" d="M30.7961 459.474L34.1495 456.154L33.7075 454.404L36.1352 452L36.7825 454.564L36.7644 454.582L36.7733 454.591L36.7914 454.573L39.3809 455.214L36.9532 457.617L35.2891 457.206L31.9546 460.507C32.0116 460.671 32.0426 460.846 32.0426 461.029C32.0426 461.91 31.3211 462.625 30.4311 462.625C29.5411 462.625 28.8196 461.91 28.8196 461.029C28.8196 460.148 29.5411 459.433 30.4311 459.433C30.5566 459.433 30.6788 459.448 30.7961 459.474ZM32.4437 453.309V454.739C31.8087 454.54 31.1326 454.433 30.4311 454.433C26.7519 454.433 23.7693 457.386 23.7693 461.029C23.7693 464.672 26.7519 467.625 30.4311 467.625C34.1103 467.625 37.0929 464.672 37.0929 461.029C37.0929 460.282 36.9674 459.564 36.7362 458.894L37.9731 458.235C38.3017 459.105 38.4814 460.046 38.4814 461.029C38.4814 465.431 34.8771 469 30.4311 469C25.9851 469 22.3809 465.431 22.3809 461.029C22.3809 456.627 25.9851 453.058 30.4311 453.058C31.1261 453.058 31.8004 453.145 32.4437 453.309ZM31.929 456.123L30.6598 457.379C30.5842 457.375 30.5079 457.372 30.4311 457.372C28.3915 457.372 26.7382 459.01 26.7382 461.029C26.7382 463.048 28.3915 464.686 30.4311 464.686C32.4707 464.686 34.1241 463.048 34.1241 461.029C34.1241 460.984 34.1233 460.939 34.1216 460.895L35.4084 459.621C35.5373 460.068 35.6064 460.541 35.6064 461.029C35.6064 463.859 33.2893 466.153 30.4311 466.153C27.5729 466.153 25.2559 463.859 25.2559 461.029C25.2559 458.199 27.5729 455.905 30.4311 455.905C30.952 455.905 31.4548 455.981 31.929 456.123Z" fill="#6A737F"/>
<path fill-rule="evenodd" clip-rule="evenodd" d="M30.8809 504C26.7387 504 23.3809 500.642 23.3809 496.5C23.3809 492.358 26.7387 489 30.8809 489C35.023 489 38.3809 492.358 38.3809 496.5C38.3809 500.642 35.023 504 30.8809 504ZM34.7659 495.587L33.8055 494.626L30.9242 497.507L28.0429 494.626L27.0825 495.587L29.9638 498.468L30.9242 499.428L31.8846 498.468L34.7659 495.587Z" fill="#6A737F"/>
<path fill-rule="evenodd" clip-rule="evenodd" d="M39.3809 550C39.3809 554.418 35.7991 558 31.3809 558C26.9626 558 23.3809 554.418 23.3809 550C23.3809 545.582 26.9626 542 31.3809 542C35.7991 542 39.3809 545.582 39.3809 550ZM30.3738 552.629V554.436H32.2159V552.629H30.3738ZM30.2094 548.757H28.4846C28.4925 548.335 28.5648 547.948 28.7017 547.596C28.8386 547.244 29.0302 546.939 29.2766 546.681C29.523 546.422 29.8203 546.221 30.1684 546.076C30.5165 545.932 30.9056 545.859 31.3358 545.859C31.8912 545.859 32.3547 545.935 32.7262 546.088C33.0978 546.241 33.397 546.43 33.6238 546.657C33.8507 546.884 34.013 547.128 34.1108 547.39C34.2085 547.652 34.2574 547.897 34.2574 548.124C34.2574 548.499 34.2085 548.808 34.1108 549.051C34.013 549.293 33.8917 549.5 33.747 549.673C33.6023 549.845 33.442 549.991 33.266 550.113C33.09 550.234 32.9237 550.355 32.7673 550.476C32.6109 550.597 32.472 550.736 32.3508 550.893C32.2295 551.049 32.1533 551.245 32.122 551.479V551.925H30.538V551.397C30.5614 551.061 30.626 550.779 30.7316 550.553C30.8372 550.326 30.9604 550.132 31.1012 549.972C31.242 549.811 31.3906 549.673 31.547 549.555C31.7035 549.438 31.8482 549.321 31.9812 549.203C32.1141 549.086 32.2217 548.957 32.3038 548.816C32.386 548.675 32.4231 548.499 32.4153 548.288C32.4153 547.928 32.3273 547.662 32.1513 547.49C31.9753 547.318 31.7309 547.232 31.418 547.232C31.2068 547.232 31.0249 547.273 30.8724 547.355C30.7198 547.437 30.5947 547.547 30.4969 547.684C30.3991 547.821 30.3268 547.981 30.2798 548.165C30.2329 548.349 30.2094 548.546 30.2094 548.757Z" fill="#6A737F"/>
<path fill-rule="evenodd" clip-rule="evenodd" d="M30.8809 580C29.5001 580 28.3809 581.119 28.3809 582.5C28.3809 583.227 28.6909 583.881 29.1859 584.338L27.5899 587.102C27.3651 587.036 27.1272 587 26.8809 587C25.5001 587 24.3809 588.119 24.3809 589.5C24.3809 590.881 25.5001 592 26.8809 592C28.2616 592 29.3809 590.881 29.3809 589.5C29.3809 588.724 29.0275 588.031 28.473 587.572L30.0416 584.856C30.3039 584.949 30.5864 585 30.8809 585C31.1336 585 31.3776 584.962 31.6076 584.893L33.1994 587.65C32.6966 588.107 32.3809 588.767 32.3809 589.5C32.3809 590.881 33.5001 592 34.8809 592C36.2616 592 37.3809 590.881 37.3809 589.5C37.3809 588.119 36.2616 587 34.8809 587C34.5929 587 34.3162 587.049 34.0588 587.138L32.487 584.416C33.0335 583.957 33.3809 583.269 33.3809 582.5C33.3809 581.119 32.2616 580 30.8809 580Z" fill="#6A737F"/>
<path fill-rule="evenodd" clip-rule="evenodd" d="M33.5971 622.494C33.4157 623.346 32.7455 624.016 31.8932 624.197C30.2683 624.543 28.8567 623.131 29.2023 621.506C29.3658 620.738 30.1377 619.966 30.906 619.803C32.5306 619.457 33.9427 620.869 33.5971 622.494ZM36.9418 621.126L35.7531 620.928C35.6686 620.583 35.5464 620.252 35.3877 619.943C35.381 619.93 35.3826 619.915 35.3917 619.903L36.1376 618.979C36.2995 618.779 36.2921 618.492 36.1215 618.3L35.6487 617.768C35.4773 617.575 35.1932 617.535 34.9764 617.672L33.9598 618.311C33.5191 618.003 33.0207 617.774 32.4834 617.64C32.4691 617.636 32.4583 617.624 32.4559 617.61L32.261 616.439C32.2192 616.186 32.0003 616 31.7432 616H31.0308C30.7742 616 30.5545 616.186 30.5137 616.439L30.3177 617.61C30.3153 617.625 30.3045 617.636 30.2903 617.64C29.8554 617.749 29.4469 617.921 29.0727 618.146C29.0601 618.154 29.0443 618.153 29.0323 618.144L28.0852 617.468C27.8769 617.32 27.5907 617.343 27.4088 617.524L26.9055 618.028C26.7241 618.21 26.7008 618.496 26.8501 618.704L27.5275 619.653C27.5361 619.665 27.5367 619.681 27.5291 619.694C27.3064 620.065 27.1362 620.471 27.0273 620.902C27.0237 620.916 27.0121 620.927 26.9976 620.93L25.8196 621.126C25.5669 621.168 25.3809 621.387 25.3809 621.644V622.356C25.3809 622.613 25.5669 622.832 25.8196 622.874L26.9976 623.07C27.0121 623.073 27.0237 623.084 27.0273 623.098C27.1158 623.45 27.242 623.786 27.4079 624.1C27.4148 624.113 27.4133 624.129 27.404 624.14L26.6618 625.059C26.5005 625.259 26.5073 625.546 26.6779 625.738L27.1503 626.27C27.3217 626.463 27.606 626.503 27.8228 626.366L28.8337 625.731C28.8461 625.723 28.8618 625.723 28.874 625.732C29.3054 626.023 29.7921 626.238 30.3137 626.366L30.5137 627.561C30.5545 627.814 30.7742 628 31.0308 628H31.7432C32.0003 628 32.2192 627.814 32.261 627.561L32.4562 626.39C32.4586 626.375 32.4694 626.364 32.4837 626.36C32.913 626.253 33.3161 626.084 33.6868 625.863C33.6994 625.855 33.7152 625.856 33.7271 625.864L34.7145 626.57C34.9225 626.719 35.2089 626.696 35.3906 626.514L35.8941 626.01C36.0753 625.829 36.0999 625.543 35.9494 625.334L35.2464 624.348C35.2379 624.336 35.2373 624.321 35.2449 624.308C35.4683 623.935 35.6394 623.529 35.7477 623.096C35.7512 623.081 35.7628 623.071 35.7773 623.068L36.9422 622.874C37.1956 622.832 37.3809 622.613 37.3809 622.356V621.644C37.3805 621.387 37.1952 621.168 36.9418 621.126Z" fill="#6A737F"/>
<rect width="62" height="40" transform="translate(0.380859 662)" fill="#B800DA" fill-opacity="0.55"/>
<path fill-rule="evenodd" clip-rule="evenodd" d="M31.3809 693C37.456 693 42.3809 688.075 42.3809 682C42.3809 675.925 37.456 671 31.3809 671C25.3057 671 20.3809 675.925 20.3809 682C20.3809 688.075 25.3057 693 31.3809 693ZM31.3808 677C30.7706 677 30.2756 677.471 30.2756 678.053C30.2756 678.634 30.7706 679.105 31.3808 679.105C31.991 679.105 32.4861 678.634 32.4861 678.053C32.4861 677.471 31.991 677 31.3808 677ZM37.5935 679.428C36.9833 679.428 36.4882 679.9 36.4882 680.481C36.4882 681.062 36.9833 681.533 37.5935 681.533C38.2037 681.533 38.6987 681.062 38.6987 680.481C38.6987 679.9 38.2037 679.428 37.5935 679.428ZM24.1225 680.481C24.1225 679.9 24.6176 679.428 25.2278 679.428C25.838 679.428 26.333 679.9 26.333 680.481C26.333 681.062 25.838 681.533 25.2278 681.533C24.6176 681.533 24.1225 681.062 24.1225 680.481ZM28.7456 682.789L25.9893 681.6C25.8888 681.714 25.7677 681.799 25.6308 681.852L27.0405 687H35.7213L37.131 681.852C36.9942 681.799 36.8731 681.714 36.7725 681.6L34.0162 682.789L31.8606 679.346C31.7122 679.418 31.5512 679.456 31.381 679.456C31.2108 679.456 31.0498 679.418 30.9014 679.346L28.7456 682.789Z" fill="white"/>
</svg>
