<svg xmlns="http://www.w3.org/2000/svg" width="439" height="63" fill="none"><rect width="46" height="39" x="39" y="12" fill="#fff" fill-opacity=".8" rx="8"/><g filter="url(#a)"><path fill="#fff" d="M105.889 14.611a.61.61 0 1 1 1.222 0v1.85c1.395.277 2.445 1.488 2.445 2.939v2.278c0 .399.323.722.722.722.399 0 .722.323.722.722V24.8h-3.889v.589a.61.61 0 1 1-1.222 0V24.8H102v-1.678c0-.399.323-.722.722-.722a.722.722 0 0 0 .722-.722V19.4c0-1.451 1.05-2.662 2.445-2.94v-1.849Z"/></g><g filter="url(#b)"><path fill="#fff" fill-rule="evenodd" d="M101 39a6 6 0 1 1 12 0 6 6 0 0 1-12 0Zm6-7a7 7 0 1 0 0 14 7 7 0 0 0 0-14Zm2.5 4.5h-5v5h5v-5Z" clip-rule="evenodd"/></g><rect width="46" height="10" x="120" y="16" fill="#fff" fill-opacity=".8" rx="5"/><rect width="46" height="10" x="120" y="36" fill="#fff" fill-opacity=".8" rx="5"/><path fill="#fff" fill-opacity=".01" d="M0 0h222v63H0zM242 0h197v63H242z"/><path fill="#C6CDD3" fill-rule="evenodd" d="M277.5 12c10.77 0 19.5 8.73 19.5 19.5S288.27 51 277.5 51 258 42.27 258 31.5 266.73 12 277.5 12Z" clip-rule="evenodd"/><path fill="#fff" d="M286.597 42.476c1.11-.372 1.718-1.552 1.493-2.719l-.317-1.64c-.159-1.027-1.328-2.178-3.945-2.855a8.88 8.88 0 0 1-2.497-1.136c-.168-.096-.143-.984-.143-.984l-.842-.128c0-.072-.072-1.136-.072-1.136 1.008-.34.904-2.337.904-2.337.64.355 1.057-1.227 1.057-1.227.757-2.197-.377-2.064-.377-2.064a13.784 13.784 0 0 0 0-4.046c-.504-4.45-8.098-3.242-7.197-1.788-2.219-.41-1.713 4.64-1.713 4.64l.481 1.308c-.667.433-.536.93-.39 1.484.062.231.125.473.135.724.046 1.26.817.999.817.999.048 2.08 1.073 2.35 1.073 2.35.193 1.306.073 1.084.073 1.084l-.913.11c.013.297-.011.595-.072.886-.53.236-.855.424-1.176.61-.329.19-.655.38-1.194.616-2.06.903-4.127 1.408-4.525 2.99-.091.363-.224.988-.351 1.65-.215 1.117.391 2.222 1.452 2.582 2.587.877 5.461 1.394 8.494 1.46h1.333c3.001-.066 5.846-.573 8.412-1.433Z"/><rect width="96" height="10" x="308" y="26.5" fill="#fff" fill-opacity=".8" rx="5"/><g filter="url(#c)" opacity=".5"><path fill="#fff" fill-rule="evenodd" d="m419 33.5 4-4h-8l4 4Z" clip-rule="evenodd"/></g><defs><filter id="a" width="11" height="14" x="101" y="14" color-interpolation-filters="sRGB" filterUnits="userSpaceOnUse"><feFlood flood-opacity="0" result="BackgroundImageFix"/><feColorMatrix in="SourceAlpha" result="hardAlpha" values="0 0 0 0 0 0 0 0 0 0 0 0 0 0 0 0 0 0 127 0"/><feOffset dy="1"/><feGaussianBlur stdDeviation=".5"/><feColorMatrix values="0 0 0 0 0 0 0 0 0 0 0 0 0 0 0 0 0 0 0.258237 0"/><feBlend in2="BackgroundImageFix" result="effect1_dropShadow_6001_129068"/><feBlend in="SourceGraphic" in2="effect1_dropShadow_6001_129068" result="shape"/></filter><filter id="b" width="16" height="16" x="99" y="32" color-interpolation-filters="sRGB" filterUnits="userSpaceOnUse"><feFlood flood-opacity="0" result="BackgroundImageFix"/><feColorMatrix in="SourceAlpha" result="hardAlpha" values="0 0 0 0 0 0 0 0 0 0 0 0 0 0 0 0 0 0 127 0"/><feOffset dy="1"/><feGaussianBlur stdDeviation=".5"/><feColorMatrix values="0 0 0 0 0 0 0 0 0 0 0 0 0 0 0 0 0 0 0.258237 0"/><feBlend in2="BackgroundImageFix" result="effect1_dropShadow_6001_129068"/><feBlend in="SourceGraphic" in2="effect1_dropShadow_6001_129068" result="shape"/></filter><filter id="c" width="10" height="6" x="414" y="27.5" color-interpolation-filters="sRGB" filterUnits="userSpaceOnUse"><feFlood flood-opacity="0" result="BackgroundImageFix"/><feColorMatrix in="SourceAlpha" result="hardAlpha" values="0 0 0 0 0 0 0 0 0 0 0 0 0 0 0 0 0 0 127 0"/><feOffset dy="-1"/><feGaussianBlur stdDeviation=".5"/><feColorMatrix values="0 0 0 0 0 0 0 0 0 0 0 0 0 0 0 0 0 0 0.298432 0"/><feBlend in2="BackgroundImageFix" result="effect1_dropShadow_6001_129068"/><feBlend in="SourceGraphic" in2="effect1_dropShadow_6001_129068" result="shape"/></filter></defs></svg>