<svg xmlns="http://www.w3.org/2000/svg" width="281" height="261" fill="none"><path fill="#fff" fill-rule="evenodd" d="M195.545 28.933a2.797 2.797 0 1 0 0-5.594 2.797 2.797 0 0 0 0 5.594ZM57.515 53.096a6.064 6.064 0 1 0 0-12.128 6.064 6.064 0 0 0 0 12.128Zm0-3.38a2.683 2.683 0 1 0 0-5.367 2.683 2.683 0 0 0 0 5.366ZM26.71 112.294a8.167 8.167 0 1 0 0-16.335 8.167 8.167 0 0 0 0 16.335Zm0-4.263a3.905 3.905 0 1 0 0-7.809 3.905 3.905 0 0 0 0 7.809Zm207.36 107.032a5.815 5.815 0 1 0 0-11.63 5.815 5.815 0 0 0 0 11.63Zm0-3.026a2.789 2.789 0 1 0 0-5.577 2.789 2.789 0 0 0 0 5.577ZM141 230c55.228 0 100-44.771 100-100 0-55.228-44.772-100-100-100C85.771 30 41 74.772 41 130c0 55.229 44.771 100 100 100Zm-100.048-6.99h-19.44c-.167 0-.332-.006-.495-.019-4.393-.102-7.924-3.795-7.924-8.334a8.462 8.462 0 0 1 2.38-5.898 8.11 8.11 0 0 1 2.71-1.838 8.93 8.93 0 0 1 2.487-6.905 8.45 8.45 0 0 1 6.057-2.574c2.91.004 5.48 1.499 7.024 3.782a6.814 6.814 0 0 1 2.345-.412c3.632.004 6.615 2.85 6.961 6.489 3.48.78 6.085 3.967 6.082 7.777-.003 4.39-3.469 7.947-7.74 7.945-.15 0-.3-.004-.447-.013ZM246.974 68.363h13.797c.105.006.21.01.316.01 3.032 0 5.492-2.425 5.494-5.418.002-2.598-1.846-4.77-4.316-5.302-.246-2.482-2.363-4.422-4.941-4.425-.583 0-1.143.099-1.664.28a6.09 6.09 0 0 0-4.984-2.578 6.116 6.116 0 0 0-4.299 1.756 5.962 5.962 0 0 0-1.765 4.708 5.761 5.761 0 0 0-1.922 1.253 5.649 5.649 0 0 0-1.69 4.02c0 3.096 2.505 5.613 5.623 5.683.116.009.233.013.351.013Z" clip-rule="evenodd" opacity=".7"/><g filter="url(#a)"><rect width="171" height="56" x="44" y="70" fill="#fff" rx="28"/></g><rect width="38.945" height="38.945" x="55.235" y="78.856" fill="#2FC6F6" rx="19.473"/><path fill="#fff" d="M85.271 107.76c.51-.191.795-.732.689-1.269l-.55-2.79c0-1.035-1.385-2.217-4.113-2.907a9.348 9.348 0 0 1-2.603-1.157c-.176-.098-.149-1.002-.149-1.002l-.878-.13c0-.074-.075-1.158-.075-1.158 1.05-.345.942-2.381.942-2.381.668.362 1.102-1.25 1.102-1.25.79-2.237-.393-2.102-.393-2.102a13.76 13.76 0 0 0 0-4.121c-.525-4.532-8.441-3.302-7.502-1.822-2.314-.416-1.786 4.727-1.786 4.727l.502 1.332c-.696.441-.56.947-.406 1.512.063.236.13.481.14.737.048 1.284.852 1.018.852 1.018.05 2.118 1.118 2.394 1.118 2.394.201 1.33.076 1.104.076 1.104l-.951.112a3.61 3.61 0 0 1-.075.902c-.553.241-.892.433-1.227.622-.343.194-.682.387-1.244.628-2.148.919-4.483 2.115-4.897 3.726-.14.54-.276 1.294-.395 2.058-.08.518.205 1.024.693 1.208 2.956 1.113 6.314 1.775 9.883 1.851h1.39c3.56-.076 6.908-.734 9.857-1.842Z"/><path fill="#EEF2F4" d="M102.644 83.545c-1.168 0-2.115.68-2.115 1.52v1.519c0 .84.947 1.52 2.115 1.52h45.006c1.168 0 2.115-.68 2.115-1.52v-1.52c0-.839-.947-1.52-2.115-1.52h-45.006ZM102.644 93.574c-1.168 0-2.115.68-2.115 1.52v1.52c0 .838.947 1.519 2.115 1.519h45.006c1.168 0 2.115-.68 2.115-1.52v-1.52c0-.839-.947-1.519-2.115-1.519h-45.006ZM102.045 103.571c-.622 0-1.126.67-1.126 1.497v1.498c0 .828.504 1.498 1.126 1.498h23.961c.622 0 1.126-.67 1.126-1.498v-1.498c0-.827-.504-1.497-1.126-1.497h-23.961Z"/><g filter="url(#b)"><rect width="166" height="56" x="76" y="135" fill="#fff" rx="28"/></g><rect width="38.945" height="38.945" x="87.147" y="143.591" fill="#BBDE4D" rx="19.473"/><path fill="#fff" d="M117.183 172.495c.51-.191.795-.732.689-1.269l-.55-2.79c0-1.035-1.385-2.217-4.112-2.906a9.38 9.38 0 0 1-2.604-1.158c-.175-.098-.149-1.002-.149-1.002l-.878-.131c0-.073-.075-1.157-.075-1.157 1.051-.345.943-2.381.943-2.381.667.362 1.102-1.249 1.102-1.249.789-2.238-.393-2.103-.393-2.103a13.817 13.817 0 0 0 0-4.121c-.526-4.532-8.442-3.302-7.503-1.822-2.314-.416-1.786 4.727-1.786 4.727l.502 1.332c-.696.441-.559.947-.406 1.512.063.236.13.482.14.737.048 1.284.852 1.018.852 1.018.049 2.118 1.119 2.394 1.119 2.394.2 1.33.075 1.104.075 1.104l-.951.112a3.64 3.64 0 0 1-.075.902c-.553.241-.891.433-1.227.622-.343.195-.682.387-1.244.628-2.148.919-4.482 2.115-4.897 3.726-.14.54-.275 1.294-.395 2.058-.08.518.206 1.024.694 1.208 2.955 1.113 6.313 1.775 9.882 1.851h1.39c3.559-.076 6.908-.734 9.857-1.842Z"/><path fill="#EEF2F4" d="M134.361 148.28c-1.06 0-1.92.68-1.92 1.52v1.519c0 .84.86 1.52 1.92 1.52h40.838c1.06 0 1.919-.68 1.919-1.52V149.8c0-.84-.859-1.52-1.919-1.52h-40.838ZM134.361 158.309c-1.06 0-1.92.681-1.92 1.52v1.52c0 .839.86 1.519 1.92 1.519h40.838c1.06 0 1.919-.68 1.919-1.519v-1.52c0-.839-.859-1.52-1.919-1.52h-40.838ZM133.957 168.306c-.622 0-1.126.671-1.126 1.498v1.498c0 .827.504 1.498 1.126 1.498h23.961c.622 0 1.126-.671 1.126-1.498v-1.498c0-.827-.504-1.498-1.126-1.498h-23.961Z"/><defs><filter id="a" width="188.286" height="73.286" x="35.357" y="63.057" color-interpolation-filters="sRGB" filterUnits="userSpaceOnUse"><feFlood flood-opacity="0" result="BackgroundImageFix"/><feColorMatrix in="SourceAlpha" result="hardAlpha" values="0 0 0 0 0 0 0 0 0 0 0 0 0 0 0 0 0 0 127 0"/><feOffset dy="1.7"/><feGaussianBlur stdDeviation="4.321"/><feComposite in2="hardAlpha" operator="out"/><feColorMatrix values="0 0 0 0 0.392157 0 0 0 0 0.427451 0 0 0 0 0.482353 0 0 0 0.16 0"/><feBlend in2="BackgroundImageFix" result="effect1_dropShadow_3116_113702"/><feBlend in="SourceGraphic" in2="effect1_dropShadow_3116_113702" result="shape"/></filter><filter id="b" width="183.286" height="73.286" x="67.357" y="128.057" color-interpolation-filters="sRGB" filterUnits="userSpaceOnUse"><feFlood flood-opacity="0" result="BackgroundImageFix"/><feColorMatrix in="SourceAlpha" result="hardAlpha" values="0 0 0 0 0 0 0 0 0 0 0 0 0 0 0 0 0 0 127 0"/><feOffset dy="1.7"/><feGaussianBlur stdDeviation="4.321"/><feComposite in2="hardAlpha" operator="out"/><feColorMatrix values="0 0 0 0 0.392157 0 0 0 0 0.427451 0 0 0 0 0.482353 0 0 0 0.16 0"/><feBlend in2="BackgroundImageFix" result="effect1_dropShadow_3116_113702"/><feBlend in="SourceGraphic" in2="effect1_dropShadow_3116_113702" result="shape"/></filter></defs></svg>