<svg width="17" height="19" viewBox="0 0 17 19" fill="none" xmlns="http://www.w3.org/2000/svg">
	<path d="M3.73201 4.63974C3.41104 4.88645 3.15062 5.14112 2.94324 5.40621C2.87676 5.49117 2.75647 5.51534 2.66589 5.45675L1.33033 4.59274C1.23658 4.53209 1.21037 4.40623 1.27554 4.31556C1.61372 3.84501 2.02479 3.41603 2.50671 3.04561C3.85685 2.00785 5.50806 1.62571 7.08779 1.84643L7.37731 0.376057C7.4056 0.232381 7.54774 0.144275 7.67676 0.213537C8.53369 0.673561 10.0277 2.38044 10.5047 2.9254L10.519 2.94168C10.5674 2.99704 10.5765 3.07616 10.5307 3.13376C10.0213 3.77492 7.965 4.9525 7.05893 5.45343C6.87706 5.55398 6.66056 5.40618 6.68536 5.19985L6.85096 3.82201C5.7753 3.67255 4.65126 3.93318 3.73201 4.63974Z" fill="#525C69"/>
	<path d="M0.65043 11.2229L3.84119 7.31804C3.90628 7.23839 4.02117 7.2211 4.10682 7.27806L5.57726 8.25601C5.67589 8.3216 5.69622 8.45805 5.621 8.54955L3.01428 11.7205L7.40078 15.3048L13.3511 8.09636L11.0558 6.22079C10.959 6.14172 10.9577 5.99426 11.053 5.91341L12.7376 4.48425C12.8111 4.42183 12.9188 4.42084 12.9935 4.48189L15.4354 6.47726C16.0922 7.01391 16.236 7.92446 15.7567 8.51103L8.37981 17.5388C7.9005 18.1254 6.97955 18.1659 6.32281 17.6292L0.971697 13.2566C0.314956 12.72 0.17112 11.8094 0.65043 11.2229Z" fill="#525C69"/>
</svg>