<svg width="160" height="160" viewBox="0 0 160 160" fill="none" xmlns="http://www.w3.org/2000/svg">
	<g filter="url(#filter0_d_1901_16684)">
		<path d="M32.6885 23.9046C32.6885 20.2041 35.5552 17.2043 39.0915 17.2043H114.888C118.424 17.2043 121.291 20.2041 121.291 23.9046V130.074C121.291 133.774 118.424 136.774 114.888 136.774H39.0915C35.5552 136.774 32.6885 133.774 32.6885 130.074V23.9046Z" fill="white"/>
	</g>
	<rect x="40.6108" y="111.488" width="31.6279" height="8.37209" rx="4.18605" fill="#C3F0FF"/>
	<path d="M40.4302 49.5662C40.4302 47.846 41.8535 46.4516 43.6092 46.4516H110.369C112.125 46.4516 113.548 47.846 113.548 49.5662V77.7456C113.548 79.4658 112.125 80.8602 110.369 80.8602H43.6092C41.8535 80.8602 40.4302 79.4658 40.4302 77.7456V49.5662Z" fill="#ECFAFE"/>
	<g clip-path="url(#clip0_1901_16684)">
		<path opacity="0.7" d="M82.7584 66.5298L70.3779 78.9053L97.3547 79.1398L84.7397 66.5298C84.1884 65.9787 83.3097 65.9787 82.7584 66.5298Z" fill="#C3F0FF"/>
		<path opacity="0.7" d="M72.7908 62.8176L56.4238 79.7589H91.4626L74.7909 62.8176C74.2372 62.255 73.3445 62.255 72.7908 62.8176Z" fill="#C3F0FF"/>
		<ellipse opacity="0.8" cx="80.455" cy="57.2793" rx="2.94574" ry="2.94574" fill="#C3F0FF"/>
	</g>
	<rect x="40.6108" y="90.0925" width="53.0233" height="3.72093" rx="1.86046" fill="#E5F9FF"/>
	<rect x="40.6108" y="98.4646" width="40.9302" height="3.72093" rx="1.86046" fill="#E5F9FF"/>
	<path d="M32.6885 23.8323C32.6885 20.1717 35.4974 17.2043 38.9625 17.2043H115.017C118.482 17.2043 121.291 20.1717 121.291 23.8323V37.8494H32.6885V23.8323Z" fill="#C3F0FF"/>
	<path d="M129.913 124.741C129.913 134.503 122 142.416 112.238 142.416C102.477 142.416 94.564 134.503 94.564 124.741C94.564 114.98 102.477 107.067 112.238 107.067C122 107.067 129.913 114.98 129.913 124.741Z" fill="#2FC6F6"/>
	<path d="M109.158 130.895L106.081 127.82L117.119 116.794L120.196 119.869L109.158 130.895Z" fill="white"/>
	<path d="M104.352 132.622C104.269 132.536 104.235 132.413 104.266 132.296L105.25 128.651L108.327 131.725L104.679 132.708C104.562 132.741 104.438 132.708 104.352 132.622Z" fill="white"/>
	<path d="M109.448 121.115C109.209 121.353 108.818 121.353 108.58 121.115C108.341 120.876 108.341 120.486 108.58 120.247L110.051 118.777L108.778 117.504L107.306 118.975C107.067 119.213 106.676 119.213 106.438 118.975C106.199 118.736 106.199 118.346 106.438 118.107L107.909 116.637L107.424 116.151C107.3 116.028 107.098 116.028 106.975 116.151L103.649 119.474C103.526 119.598 103.526 119.799 103.649 119.922L108.096 124.366L111.871 120.594L110.92 119.644L109.448 121.115Z" fill="white"/>
	<path d="M120.094 128.81L120.839 129.555C120.963 129.679 120.963 129.88 120.839 130.003L117.514 133.326C117.39 133.45 117.188 133.45 117.065 133.326L112.618 128.883L116.392 125.112L117.296 126.015L115.793 127.516C115.571 127.737 115.571 128.1 115.793 128.322C116.015 128.544 116.378 128.544 116.6 128.322L118.103 126.821L119.286 128.004L117.784 129.505C117.562 129.726 117.562 130.089 117.784 130.311C118.006 130.533 118.369 130.533 118.591 130.311L120.094 128.81Z" fill="white"/>
	<path opacity="0.5" d="M40.4302 27.5269C40.4302 26.5767 41.2004 25.8065 42.1506 25.8065H70.5377C71.4879 25.8065 72.2581 26.5767 72.2581 27.5269C72.2581 28.4771 71.4879 29.2473 70.5377 29.2473H42.1506C41.2004 29.2473 40.4302 28.4771 40.4302 27.5269Z" fill="#2FC6F6"/>
	<defs>
		<filter id="filter0_d_1901_16684" x="27.9815" y="14.0663" width="98.0159" height="128.984" filterUnits="userSpaceOnUse" color-interpolation-filters="sRGB">
			<feFlood flood-opacity="0" result="BackgroundImageFix"/>
			<feColorMatrix in="SourceAlpha" type="matrix" values="0 0 0 0 0 0 0 0 0 0 0 0 0 0 0 0 0 0 127 0" result="hardAlpha"/>
			<feOffset dy="1.56898"/>
			<feGaussianBlur stdDeviation="2.35347"/>
			<feComposite in2="hardAlpha" operator="out"/>
			<feColorMatrix type="matrix" values="0 0 0 0 0.423529 0 0 0 0 0.423529 0 0 0 0 0.423529 0 0 0 0.16 0"/>
			<feBlend mode="normal" in2="BackgroundImageFix" result="effect1_dropShadow_1901_16684"/>
			<feBlend mode="normal" in="SourceGraphic" in2="effect1_dropShadow_1901_16684" result="shape"/>
		</filter>
		<clipPath id="clip0_1901_16684">
			<rect x="65.7266" y="52.4731" width="22.3256" height="22.3256" rx="1.56898" fill="white"/>
		</clipPath>
	</defs>
</svg>