<svg xmlns="http://www.w3.org/2000/svg" width="18" height="18" fill="none"><g filter="url(#a)"><path fill="#000" fill-rule="evenodd" d="M4.042 13.95a.15.15 0 0 1-.257-.107V10.65a.15.15 0 0 1 .15-.15h3.192a.15.15 0 0 1 .106.257l-1.02 1.02a3.952 3.952 0 0 0 6.531-1.452l1.553.646a5.632 5.632 0 0 1-9.272 1.994l-.983.983Zm4.98-8.9A3.952 3.952 0 0 0 5.31 7.644l-1.552-.646a5.632 5.632 0 0 1 9.163-2.06l.994-.993a.15.15 0 0 1 .256.106v3.192a.15.15 0 0 1-.15.15h-3.192a.15.15 0 0 1-.106-.256l1.01-1.01A3.937 3.937 0 0 0 9.022 5.05Z" clip-rule="evenodd"/></g><defs><filter id="a" width="10.539" height="12.26" x="3.758" y="3.37" color-interpolation-filters="sRGB" filterUnits="userSpaceOnUse"><feFlood flood-opacity="0" result="BackgroundImageFix"/><feColorMatrix in="SourceAlpha" result="hardAlpha" values="0 0 0 0 0 0 0 0 0 0 0 0 0 0 0 0 0 0 127 0"/><feOffset dy="1"/><feComposite in2="hardAlpha" operator="out"/><feColorMatrix values="0 0 0 0 1 0 0 0 0 1 0 0 0 0 1 0 0 0 0.95 0"/><feBlend in2="BackgroundImageFix" result="effect1_dropShadow_127_24148"/><feBlend in="SourceGraphic" in2="effect1_dropShadow_127_24148" result="shape"/></filter></defs></svg>