<svg xmlns="http://www.w3.org/2000/svg" width="25" height="25" fill="none"><g filter="url(#a)"><path fill="#fff" fill-rule="evenodd" d="M5.547 18.957a.2.2 0 0 0 .342.142L7.2 17.788a7.51 7.51 0 0 0 12.362-2.658l-2.07-.863a5.27 5.27 0 0 1-8.708 1.937l1.36-1.36a.2.2 0 0 0-.14-.342H5.747a.2.2 0 0 0-.2.2v4.255Zm2.033-8.265a5.27 5.27 0 0 1 8.564-2.023l-1.347 1.347a.2.2 0 0 0 .142.341h4.256a.2.2 0 0 0 .2-.2V5.902a.2.2 0 0 0-.342-.142l-1.325 1.325A7.51 7.51 0 0 0 5.51 9.83l2.07.862Z" clip-rule="evenodd"/></g><defs><filter id="a" width="14.052" height="16.014" x="5.511" y="4.993" color-interpolation-filters="sRGB" filterUnits="userSpaceOnUse"><feFlood flood-opacity="0" result="BackgroundImageFix"/><feColorMatrix in="SourceAlpha" result="hardAlpha" values="0 0 0 0 0 0 0 0 0 0 0 0 0 0 0 0 0 0 127 0"/><feOffset dy="1"/><feComposite in2="hardAlpha" operator="out"/><feColorMatrix values="0 0 0 0 0 0 0 0 0 0 0 0 0 0 0 0 0 0 0.18 0"/><feBlend in2="BackgroundImageFix" result="effect1_dropShadow_199_1164"/><feBlend in="SourceGraphic" in2="effect1_dropShadow_199_1164" result="shape"/></filter></defs></svg>