<svg xmlns="http://www.w3.org/2000/svg" width="85" height="96" fill="none"><path fill="#85C906" stroke="#CAF975" d="M46.252 88.973c12.43-5.648 30.512-25.626 31.553-68.095.108-4.42-2.67-8.544-7.086-9.872-6.432-1.934-17.357-4.438-28.22-4.438-10.861 0-21.787 2.504-28.219 4.438-4.415 1.328-7.194 5.452-7.086 9.872 1.041 42.469 19.124 62.447 31.554 68.095a9.048 9.048 0 0 0 7.504 0Zm-2.273-5.013c-.946.43-2.013.43-2.959 0-9.987-4.538-27.324-22.216-28.328-63.217-.05-2.049 1.23-3.88 3.17-4.464 6.149-1.85 16.508-4.205 26.638-4.205 10.13 0 20.489 2.356 26.637 4.205 1.94.583 3.221 2.415 3.171 4.464-1.005 41.001-18.342 58.68-28.329 63.217Z"/><g filter="url(#a)" opacity=".67"><ellipse cx="42.5" cy="9.134" fill="#CAF975" rx=".9" ry=".901"/></g><ellipse cx="42.95" cy="87.076" fill="#CAF975" rx=".9" ry=".901"/><ellipse cx="73.542" cy="16.794" fill="#CAF975" opacity=".7" rx=".9" ry=".901"/><ellipse cx="72.417" cy="42.925" fill="#CAF975" opacity=".66" rx=".9" ry=".901"/><ellipse cx="63.644" cy="68.154" fill="#CAF975" rx=".9" ry=".901"/><g filter="url(#b)"><ellipse cx="21.355" cy="68.154" fill="#CAF975" rx=".9" ry=".901"/></g><g filter="url(#c)"><ellipse cx="12.358" cy="42.925" fill="#CAF975" rx=".9" ry=".901"/></g><g filter="url(#d)" opacity=".6"><ellipse cx="11.008" cy="16.794" fill="#CAF975" rx=".9" ry=".901"/></g><path fill="#85C906" stroke="url(#e)" d="M33.354 42.264 58.227 22.45 44.38 42.789a1 1 0 0 0 .297 1.41l26.989 16.869-19.542 17.158L32.76 45.493a2.5 2.5 0 0 1 .594-3.229Z"/><circle cx="64.5" cy="72.5" r="14" fill="#85C906" stroke="#CAF975"/><path stroke="#CAF975" d="M56 72.5a8.5 8.5 0 0 1 8.5-8.5"/><defs><filter id="a" width="2.299" height="2.302" x="41.6" y="8.233" color-interpolation-filters="sRGB" filterUnits="userSpaceOnUse"><feFlood flood-opacity="0" result="BackgroundImageFix"/><feColorMatrix in="SourceAlpha" result="hardAlpha" values="0 0 0 0 0 0 0 0 0 0 0 0 0 0 0 0 0 0 127 0"/><feOffset dx=".25" dy=".25"/><feGaussianBlur stdDeviation=".125"/><feComposite in2="hardAlpha" operator="out"/><feColorMatrix values="0 0 0 0 0 0 0 0 0 0 0 0 0 0 0 0 0 0 0.23 0"/><feBlend in2="BackgroundImageFix" result="effect1_dropShadow_304_1823"/><feBlend in="SourceGraphic" in2="effect1_dropShadow_304_1823" result="shape"/></filter><filter id="b" width="2.299" height="2.302" x="20.456" y="67.253" color-interpolation-filters="sRGB" filterUnits="userSpaceOnUse"><feFlood flood-opacity="0" result="BackgroundImageFix"/><feColorMatrix in="SourceAlpha" result="hardAlpha" values="0 0 0 0 0 0 0 0 0 0 0 0 0 0 0 0 0 0 127 0"/><feOffset dx=".25" dy=".25"/><feGaussianBlur stdDeviation=".125"/><feComposite in2="hardAlpha" operator="out"/><feColorMatrix values="0 0 0 0 0 0 0 0 0 0 0 0 0 0 0 0 0 0 0.23 0"/><feBlend in2="BackgroundImageFix" result="effect1_dropShadow_304_1823"/><feBlend in="SourceGraphic" in2="effect1_dropShadow_304_1823" result="shape"/></filter><filter id="c" width="2.299" height="2.302" x="11.458" y="42.023" color-interpolation-filters="sRGB" filterUnits="userSpaceOnUse"><feFlood flood-opacity="0" result="BackgroundImageFix"/><feColorMatrix in="SourceAlpha" result="hardAlpha" values="0 0 0 0 0 0 0 0 0 0 0 0 0 0 0 0 0 0 127 0"/><feOffset dx=".25" dy=".25"/><feGaussianBlur stdDeviation=".125"/><feComposite in2="hardAlpha" operator="out"/><feColorMatrix values="0 0 0 0 0 0 0 0 0 0 0 0 0 0 0 0 0 0 0.23 0"/><feBlend in2="BackgroundImageFix" result="effect1_dropShadow_304_1823"/><feBlend in="SourceGraphic" in2="effect1_dropShadow_304_1823" result="shape"/></filter><filter id="d" width="2.299" height="2.302" x="10.108" y="15.893" color-interpolation-filters="sRGB" filterUnits="userSpaceOnUse"><feFlood flood-opacity="0" result="BackgroundImageFix"/><feColorMatrix in="SourceAlpha" result="hardAlpha" values="0 0 0 0 0 0 0 0 0 0 0 0 0 0 0 0 0 0 127 0"/><feOffset dx=".25" dy=".25"/><feGaussianBlur stdDeviation=".125"/><feComposite in2="hardAlpha" operator="out"/><feColorMatrix values="0 0 0 0 0 0 0 0 0 0 0 0 0 0 0 0 0 0 0.23 0"/><feBlend in2="BackgroundImageFix" result="effect1_dropShadow_304_1823"/><feBlend in="SourceGraphic" in2="effect1_dropShadow_304_1823" result="shape"/></filter><linearGradient id="e" x1="51.75" x2="51.75" y1="59" y2="17.5" gradientUnits="userSpaceOnUse"><stop stop-color="#CAF975" stop-opacity=".58"/><stop offset="1" stop-color="#CAF975" stop-opacity=".32"/></linearGradient></defs></svg>