<svg xmlns="http://www.w3.org/2000/svg" width="28" height="28" fill="none"><path fill="#6A737F" fill-rule="evenodd" d="M20.578 5.57c.046.012.092.026.137.04l-9.094 6.82a.583.583 0 0 0-.062.879l6.579 6.579c-1.463 1.957-3.027 3.09-4.138 3.445-2.58-.823-7.606-5.85-8.123-15.633a2.071 2.071 0 0 1 1.545-2.13c1.688-.434 4.156-.903 6.578-.903 2.422 0 4.89.469 6.578.903Zm1.545 2.13c-.192 3.626-1.003 6.598-2.079 8.946l-4.774-3.78a.117.117 0 0 1-.01-.175l6.323-6.274a.77.77 0 0 1 .129-.087 2.1 2.1 0 0 1 .411 1.37ZM24.5 21a2.333 2.333 0 1 1-4.667 0 2.333 2.333 0 0 1 4.667 0Z" clip-rule="evenodd"/></svg>