<svg xmlns="http://www.w3.org/2000/svg" width="24" height="25" fill="none"><g filter="url(#a)"><mask id="c" width="16" height="19" x="4.035" y="3.5" fill="#000" maskUnits="userSpaceOnUse"><path fill="#fff" d="M4.035 3.5h16v19h-16z"/><path fill-rule="evenodd" d="M12 20.5c2.211-.706 6.519-5.014 6.963-13.4a1.775 1.775 0 0 0-1.325-1.826C16.19 4.902 14.076 4.5 12 4.5s-4.191.402-5.638.774A1.775 1.775 0 0 0 5.037 7.1C5.481 15.486 9.788 19.794 12 20.5Zm4.236-11.504a.7.7 0 0 1 .018.99l-4.843 5.022-2.915-3.022a.7.7 0 0 1 1.008-.972l1.907 1.977 3.835-3.977a.7.7 0 0 1 .99-.018Z" clip-rule="evenodd"/></mask><path fill="url(#b)" fill-rule="evenodd" d="M12 20.5c2.211-.706 6.519-5.014 6.963-13.4a1.775 1.775 0 0 0-1.325-1.826C16.19 4.902 14.076 4.5 12 4.5s-4.191.402-5.638.774A1.775 1.775 0 0 0 5.037 7.1C5.481 15.486 9.788 19.794 12 20.5Zm4.236-11.504a.7.7 0 0 1 .018.99l-4.843 5.022-2.915-3.022a.7.7 0 0 1 1.008-.972l1.907 1.977 3.835-3.977a.7.7 0 0 1 .99-.018Z" clip-rule="evenodd"/><path fill="#000" d="m18.963 7.1-.999-.053.999.053ZM12 20.5l-.304.953.304.097.304-.097L12 20.5Zm5.638-15.226.25-.968-.25.968Zm-11.276 0-.25-.968.25.968ZM5.037 7.1l.999-.053-.999.053Zm11.217 2.886-.72-.694.72.694Zm-.018-.99-.694.72.694-.72Zm-4.825 6.012-.72.694.72.747.72-.747-.72-.694Zm-2.915-3.022-.72.694.72-.694Zm1.008-.972-.72.694.72-.694Zm1.907 1.977-.72.694.72.747.72-.747-.72-.694Zm3.835-3.977-.72-.694.72.694Zm2.718-1.967c-.213 4.028-1.351 7.034-2.663 9.096-1.337 2.1-2.802 3.148-3.605 3.404l.608 1.906c1.408-.45 3.203-1.91 4.684-4.236 1.505-2.366 2.743-5.707 2.973-10.065l-1.997-.105Zm-.575-.804c.35.09.596.417.575.804l1.997.105a2.775 2.775 0 0 0-2.074-2.846l-.498 1.937ZM12 5.5c1.962 0 3.988.382 5.389.743l.498-1.937C16.394 3.922 14.19 3.5 12 3.5v2Zm-5.389.743c1.4-.36 3.427-.743 5.389-.743v-2c-2.19 0-4.394.422-5.887.806l.498 1.937Zm-.575.804a.775.775 0 0 1 .575-.804l-.498-1.937a2.775 2.775 0 0 0-2.074 2.846l1.997-.105Zm6.268 12.5c-.803-.256-2.268-1.304-3.605-3.404-1.312-2.062-2.45-5.068-2.663-9.096l-1.997.105c.23 4.358 1.468 7.7 2.973 10.065 1.481 2.327 3.276 3.786 4.684 4.236l.608-1.906Zm4.67-8.867a1.7 1.7 0 0 0-.044-2.404l-1.388 1.44a.3.3 0 0 1-.008-.424l1.44 1.388Zm-4.843 5.022 4.843-5.022-1.44-1.388-4.843 5.022 1.44 1.388ZM7.776 12.68l2.915 3.022 1.44-1.388-2.915-3.022-1.44 1.388Zm.044-2.404a1.7 1.7 0 0 0-.044 2.404l1.44-1.388a.3.3 0 0 1-.008.424l-1.388-1.44Zm2.404.044a1.7 1.7 0 0 0-2.404-.044l1.388 1.44a.3.3 0 0 1-.424-.008l1.44-1.388Zm1.907 1.977-1.907-1.977-1.44 1.388 1.907 1.977 1.44-1.388Zm2.395-3.977-3.835 3.977 1.44 1.388 3.835-3.977-1.44-1.388Zm2.404-.044a1.7 1.7 0 0 0-2.404.044l1.44 1.388a.3.3 0 0 1-.424.008l1.388-1.44Z" mask="url(#c)"/></g><defs><linearGradient id="b" x1="12" x2="12" y1="4.5" y2="20.5" gradientUnits="userSpaceOnUse"><stop stop-color="#EEFFC7"/><stop offset="1" stop-color="#C1FF00"/></linearGradient><filter id="a" width="17.931" height="20.05" x="3.035" y="3.5" color-interpolation-filters="sRGB" filterUnits="userSpaceOnUse"><feFlood flood-opacity="0" result="BackgroundImageFix"/><feColorMatrix in="SourceAlpha" result="hardAlpha" values="0 0 0 0 0 0 0 0 0 0 0 0 0 0 0 0 0 0 127 0"/><feOffset dy="1"/><feGaussianBlur stdDeviation=".5"/><feComposite in2="hardAlpha" operator="out"/><feColorMatrix values="0 0 0 0 0 0 0 0 0 0 0 0 0 0 0 0 0 0 0.32 0"/><feBlend in2="BackgroundImageFix" result="effect1_dropShadow_166_1205"/><feBlend in="SourceGraphic" in2="effect1_dropShadow_166_1205" result="shape"/><feColorMatrix in="SourceAlpha" result="hardAlpha" values="0 0 0 0 0 0 0 0 0 0 0 0 0 0 0 0 0 0 127 0"/><feOffset dy="2"/><feComposite in2="hardAlpha" k2="-1" k3="1" operator="arithmetic"/><feColorMatrix values="0 0 0 0 1 0 0 0 0 1 0 0 0 0 1 0 0 0 0.58 0"/><feBlend in2="shape" result="effect2_innerShadow_166_1205"/></filter></defs></svg>