<svg xmlns="http://www.w3.org/2000/svg" width="17" height="17" fill="none"><g filter="url(#a)"><path fill="url(#b)" fill-rule="evenodd" d="M13.834 8A5.333 5.333 0 1 1 3.167 8a5.333 5.333 0 0 1 10.667 0ZM7.83 5.631c0-.338.27-.609.609-.609h.082c.339 0 .61.271.61.61v2.277c0 .339-.271.61-.61.61H8.44a.606.606 0 0 1-.61-.61V5.631Zm.654 5.188a.77.77 0 0 0 .767-.767.77.77 0 0 0-.767-.767.77.77 0 0 0-.767.767.77.77 0 0 0 .767.767Z" clip-rule="evenodd"/></g><defs><linearGradient id="b" x1="4.037" x2="10.549" y1="4.033" y2="11.847" gradientUnits="userSpaceOnUse"><stop stop-color="#924600"/><stop offset=".5" stop-color="#D09600"/><stop offset="1" stop-color="#B46C00"/></linearGradient><filter id="a" width="17" height="17" x=".5" y="0" color-interpolation-filters="sRGB" filterUnits="userSpaceOnUse"><feFlood flood-opacity="0" result="BackgroundImageFix"/><feColorMatrix in="SourceAlpha" result="hardAlpha" values="0 0 0 0 0 0 0 0 0 0 0 0 0 0 0 0 0 0 127 0"/><feOffset dx="1" dy="1"/><feComposite in2="hardAlpha" operator="out"/><feColorMatrix values="0 0 0 0 1 0 0 0 0 1 0 0 0 0 1 0 0 0 0.42 0"/><feBlend in2="BackgroundImageFix" result="effect1_dropShadow_199_1695"/><feBlend in="SourceGraphic" in2="effect1_dropShadow_199_1695" result="shape"/></filter></defs></svg>