<svg width="24" height="24" viewBox="0 0 24 24" fill="none" xmlns="http://www.w3.org/2000/svg">
<ellipse cx="12" cy="12" rx="12" ry="12" fill="black" fill-opacity="0.4"/>
<path d="M15.3008 6.9C15.3008 6.40294 15.7037 6 16.2008 6H17.1008C17.5978 6 18.0008 6.40294 18.0008 6.9V17.1C18.0008 17.5971 17.5978 18 17.1008 18H16.2008C15.7037 18 15.3008 17.5971 15.3008 17.1V6.9Z" fill="white"/>
<path d="M10.6504 9.9C10.6504 9.40294 11.0533 9 11.5504 9H12.4504C12.9474 9 13.3504 9.40294 13.3504 9.9V17.1C13.3504 17.5971 12.9474 18 12.4504 18H11.5504C11.0533 18 10.6504 17.5971 10.6504 17.1V9.9Z" fill="white"/>
<path d="M6 12.9C6 12.4029 6.40294 12 6.9 12H7.8C8.29706 12 8.7 12.4029 8.7 12.9V17.1C8.7 17.5971 8.29706 18 7.8 18H6.9C6.40294 18 6 17.5971 6 17.1V12.9Z" fill="white"/>
</svg>
