<svg width="24" height="24" viewBox="0 0 24 24" fill="none" xmlns="http://www.w3.org/2000/svg">
<ellipse cx="12" cy="12" rx="12" ry="12" fill="#FF5752"/>
<path fill-rule="evenodd" clip-rule="evenodd" d="M18.2752 9.22513C18.503 9.45745 18.4837 9.82878 18.2486 10.0537C17.9948 10.2966 17.5903 10.2743 17.3407 10.027C15.9645 8.66327 14.0853 7.82336 12.0134 7.82336C11.6294 7.82336 11.2519 7.85222 10.8831 7.90792L9.82574 6.85055C10.5221 6.67154 11.2513 6.57644 12.0023 6.57644C14.4526 6.57644 16.6706 7.58878 18.2752 9.22513ZM8.50865 7.30454C7.46126 7.76237 6.51792 8.41979 5.72479 9.22981C5.49453 9.46497 5.51435 9.84052 5.75215 10.0681C6.00986 10.3146 6.42063 10.2912 6.67341 10.0395C7.45957 9.25692 8.41095 8.64569 9.46929 8.26517L8.50865 7.30454ZM10.6632 9.45904C9.51038 9.70808 8.47191 10.2722 7.63876 11.0586C7.39962 11.2844 7.41722 11.6613 7.65482 11.8886C7.90715 12.1301 8.30804 12.1089 8.56783 11.8755C9.42723 11.1034 10.5388 10.6155 11.7606 10.5565L10.6632 9.45904ZM12.2987 9.32354L13.8751 10.9C14.4549 11.1263 14.9849 11.4551 15.4436 11.8646C15.7005 12.094 16.0956 12.1139 16.3444 11.8758C16.5799 11.6505 16.5969 11.2769 16.3597 11.0535C15.2827 10.0392 13.8638 9.39605 12.2987 9.32354ZM13.6072 12.4031L14.5268 13.3227C14.5585 13.5267 14.4905 13.7425 14.3273 13.8896C14.0733 14.1187 13.685 14.0947 13.46 13.836C13.446 13.8233 13.4315 13.8099 13.4165 13.796L13.4165 13.796C13.2093 13.6041 12.8945 13.3126 11.9937 13.3126C11.4052 13.3126 10.934 13.4824 10.4935 13.8723C10.2489 14.1117 9.85993 14.1039 9.62479 13.8548C9.38965 13.6057 9.39734 13.2096 9.64196 12.9701C9.79947 12.816 10.0491 12.5738 10.4406 12.3815C10.8337 12.1883 11.334 12.0613 11.9937 12.0613C12.6981 12.0613 13.2191 12.2061 13.6072 12.4031ZM13.4991 16.0771C13.4991 15.2647 12.8405 14.6061 12.0281 14.6061C11.2157 14.6061 10.5571 15.2647 10.5571 16.0771C10.5571 16.8895 11.2157 17.5481 12.0281 17.5481C12.8405 17.5481 13.4991 16.8895 13.4991 16.0771Z" fill="white"/>
<path fill-rule="evenodd" clip-rule="evenodd" d="M7.63891 6.41967L16.8151 15.5966C17.056 15.8374 17.056 16.228 16.8151 16.4689C16.5742 16.7098 16.1837 16.7098 15.9428 16.4689L6.7666 7.29198C6.52572 7.0511 6.52572 6.66056 6.7666 6.41967C7.00748 6.17879 7.39803 6.17879 7.63891 6.41967Z" fill="white"/>
</svg>
