<svg width="15" height="15" viewBox="0 0 15 15" fill="none" xmlns="http://www.w3.org/2000/svg">
	<path fill-rule="evenodd" clip-rule="evenodd" d="M7.41671 14.6667C11.3287 14.6667 14.5 11.4953 14.5 7.58333C14.5 3.67132 11.3287 0.5 7.41671 0.5C3.50469 0.5 0.333374 3.67132 0.333374 7.58333C0.333374 11.4953 3.50469 14.6667 7.41671 14.6667ZM7.3582 6.45404L9.18081 4.63143C9.42935 4.38289 9.92642 4.38289 10.2578 4.63143C10.5892 4.96281 10.5892 5.37704 10.2578 5.70842L8.4352 7.53104L10.2578 9.35365C10.5892 9.68503 10.5892 10.0993 10.2578 10.4306C9.92642 10.762 9.5122 10.762 9.18081 10.4306L7.3582 8.60803L5.53559 10.4306C5.2042 10.762 4.78997 10.762 4.45859 10.4306C4.12721 10.0993 4.12721 9.68503 4.45859 9.35365L6.2812 7.53104L4.45859 5.70842C4.12721 5.37704 4.12721 4.96281 4.45859 4.63143C4.78997 4.30004 5.2042 4.30004 5.53559 4.63143L7.3582 6.45404Z" fill="#BDC1C6"/>
</svg>
