<svg width="13" height="14" viewBox="0 0 13 14" fill="none" xmlns="http://www.w3.org/2000/svg">
<path fill-rule="evenodd" clip-rule="evenodd" d="M5.66875 0.500122C5.3675 0.500122 5.12329 0.744331 5.12329 1.04558V5.62488H0.544722C0.243476 5.62488 -0.000732422 5.86909 -0.000732422 6.17033V7.82991C-0.000732422 8.13116 0.243477 8.37537 0.544723 8.37537H5.12329V12.9547C5.12329 13.2559 5.3675 13.5001 5.66875 13.5001H7.32979C7.63104 13.5001 7.87524 13.2559 7.87524 12.9547V8.37537H12.4538C12.7551 8.37537 12.9993 8.13116 12.9993 7.82991V6.17033C12.9993 5.86909 12.7551 5.62488 12.4538 5.62488H7.87524V1.04558C7.87524 0.74433 7.63104 0.500122 7.32979 0.500122H5.66875Z" fill="#B095DC"/>
</svg>
