<svg width="24" height="24" viewBox="0 0 24 24" fill="none" xmlns="http://www.w3.org/2000/svg">
	<path fill-rule="evenodd" clip-rule="evenodd" d="M10.6687 5.50012C10.3675 5.50012 10.1233 5.74433 10.1233 6.04558V10.6249H5.54472C5.24348 10.6249 4.99927 10.8691 4.99927 11.1703V12.8299C4.99927 13.1312 5.24348 13.3754 5.54472 13.3754H10.1233V17.9547C10.1233 18.2559 10.3675 18.5001 10.6687 18.5001H12.3298C12.631 18.5001 12.8752 18.2559 12.8752 17.9547V13.3754H17.4538C17.7551 13.3754 17.9993 13.1312 17.9993 12.8299V11.1703C17.9993 10.8691 17.7551 10.6249 17.4538 10.6249H12.8752V6.04558C12.8752 5.74433 12.631 5.50012 12.3298 5.50012H10.6687Z" fill="#BDC1C6"/>
</svg>
