<svg width="24" height="24" viewBox="0 0 24 24" fill="none" xmlns="http://www.w3.org/2000/svg">
<path fill-rule="evenodd" clip-rule="evenodd" d="M5.66712 7.82976C5.25041 7.99416 4.97656 8.39659 4.97656 8.84455V16.3059C4.97656 16.7549 5.2516 17.158 5.66962 17.3217L11.6023 19.6454C11.8581 19.7456 12.1423 19.7456 12.398 19.6454L18.3308 17.3217C18.7488 17.158 19.0238 16.7549 19.0238 16.3059V8.84455C19.0238 8.39659 18.75 7.99416 18.3333 7.82976L12.4005 5.4892C12.1433 5.38771 11.8571 5.38771 11.5998 5.4892L5.66712 7.82976ZM12.4043 6.92174C12.1462 6.8193 11.8589 6.81911 11.6007 6.92118L6.50945 8.93412L11.6019 10.9475C11.8594 11.0493 12.1459 11.0494 12.4034 10.9478L17.4908 8.94096L12.4043 6.92174Z" fill="#11A9D9"/>
</svg>
