<svg width="24" height="24" viewBox="0 0 24 24" fill="none" xmlns="http://www.w3.org/2000/svg">
<path fill-rule="evenodd" clip-rule="evenodd" d="M5.66712 7.83012C5.25041 7.99452 4.97656 8.39695 4.97656 8.84492V16.3063C4.97656 16.7552 5.2516 17.1583 5.66962 17.3221L11.6023 19.6458C11.8581 19.7459 12.1423 19.7459 12.398 19.6458L18.3308 17.3221C18.7488 17.1583 19.0238 16.7552 19.0238 16.3063V8.84492C19.0238 8.39695 18.75 7.99452 18.3333 7.83012L12.4005 5.48957C12.1433 5.38808 11.8571 5.38808 11.5998 5.48957L5.66712 7.83012ZM12.4044 6.92211C12.1464 6.81967 11.859 6.81947 11.6008 6.92155L6.50959 8.93448L11.6021 10.9479C11.8595 11.0497 12.146 11.0498 12.4035 10.9482L17.491 8.94132L12.4044 6.92211Z" fill="#BDC1C6"/>
</svg>
