<svg width="28" height="28" viewBox="0 0 28 28" fill="none" xmlns="http://www.w3.org/2000/svg">
<g id="Icon. Quote">
<path id="icon 03" fill-rule="evenodd" clip-rule="evenodd" d="M11.1792 6.53078C12.2563 6.53078 13.1296 7.40398 13.1296 8.48113V14.0715C13.1296 15.2336 13.0037 15.905 12.7519 16.9315C12.5001 17.958 12.1127 18.8586 11.5898 19.6334C11.0669 20.4081 10.3987 21.0278 9.58522 21.4927C8.82144 21.9291 7.93814 22.1607 6.93531 22.1873C6.87009 22.1891 6.73814 22.2811 6.73814 22.0103V19.6334C6.73814 19.2935 6.88813 19.2825 6.96082 19.2782C7.5199 19.2447 7.98797 19.0822 8.36504 18.7908C8.79114 18.4616 9.13976 18.0258 9.41091 17.4835C9.68206 16.9412 9.86606 16.3311 9.9629 15.6532C10.0597 14.9754 10.1082 14.7301 10.1082 14.0715H7.54801C6.47086 14.0715 5.59766 13.1983 5.59766 12.1212L5.59766 8.48113C5.59766 7.40398 6.47086 6.53078 7.54801 6.53078L11.1792 6.53078ZM20.1871 6.53076C21.2643 6.53076 22.1375 7.40397 22.1375 8.48112V14.0715C22.1375 15.2336 22.0116 15.905 21.7598 16.9315C21.508 17.958 21.1207 18.8586 20.5977 19.6333C20.0748 20.4081 19.4066 21.0278 18.5932 21.4927C17.8294 21.9291 16.9461 22.1607 15.9432 22.1873C15.878 22.189 15.7461 22.2811 15.7461 22.0103V19.6333C15.7461 19.2935 15.8961 19.2825 15.9688 19.2782C16.5278 19.2446 16.9959 19.0822 17.373 18.7908C17.7991 18.4616 18.1477 18.0258 18.4188 17.4835C18.69 16.9412 18.874 16.3311 18.9708 15.6532C19.0677 14.9753 19.1161 14.73 19.1161 14.0715H16.5559C15.4788 14.0715 14.6056 13.1983 14.6056 12.1212V8.48112C14.6056 7.40397 15.4788 6.53076 16.5559 6.53076L20.1871 6.53076Z" fill="#2FC6F6"/>
</g>
</svg>
