<svg width="32" height="32" viewBox="0 0 32 32" fill="none" xmlns="http://www.w3.org/2000/svg">
	<g opacity="0.6">
		<path opacity="0.79" d="M7.78542 8.15563L9.63665 16.0235C9.67292 16.1777 9.67207 16.3382 9.63415 16.492L7.81094 23.8854C7.50624 25.1211 8.78185 26.1509 9.92545 25.5925L26.3468 17.5745C27.4576 17.0321 27.4724 15.4544 26.372 14.8912L9.92887 6.47677C8.79089 5.89443 7.49264 6.91129 7.78542 8.15563Z" fill="white"/>
		<path d="M9.9255 25.5925L26.3469 17.5745C26.9028 17.303 27.1842 16.7723 27.1887 16.2391H9.6632C9.66433 16.324 9.65467 16.409 9.6342 16.492L7.81099 23.8854C7.50629 25.121 8.7819 26.1509 9.9255 25.5925Z" fill="white"/>
	</g>
</svg>
