<svg width="24" height="24" viewBox="0 0 24 24" fill="none" xmlns="http://www.w3.org/2000/svg">
<path fill-rule="evenodd" clip-rule="evenodd" d="M12.0005 18.9546C15.8412 18.9546 18.9547 15.8411 18.9547 12.0004C18.9547 8.15975 15.8412 5.04626 12.0005 5.04626C8.15981 5.04626 5.04633 8.15975 5.04633 12.0004C5.04633 15.8411 8.15981 18.9546 12.0005 18.9546ZM12.0004 20.6625C7.21621 20.6625 3.33783 16.7841 3.33783 11.9999C3.33783 7.21566 7.21621 3.33728 12.0004 3.33728C16.7846 3.33728 20.663 7.21566 20.663 11.9999C20.663 16.7841 16.7846 20.6625 12.0004 20.6625ZM8.90131 9.60629C8.90131 9.00957 9.38505 8.52583 9.98177 8.52583C10.5785 8.52583 11.0622 9.00957 11.0622 9.60629V10.6868C11.0622 11.2835 10.5785 11.7672 9.98177 11.7672C9.38505 11.7672 8.90131 11.2835 8.90131 10.6868V9.60629ZM14.057 8.52583C13.4602 8.52583 12.9765 9.00957 12.9765 9.60629V10.6868C12.9765 11.2835 13.4602 11.7672 14.057 11.7672C14.6537 11.7672 15.1374 11.2835 15.1374 10.6868V9.60629C15.1374 9.00957 14.6537 8.52583 14.057 8.52583ZM8.43302 13.7867C8.44884 13.7604 8.46663 13.7353 8.48639 13.7116C8.68828 13.4692 9.01982 13.4642 9.22691 13.7005C9.34736 13.838 9.47408 13.9663 9.60634 14.0849C10.3326 14.5161 11.2177 14.7558 12.1512 14.7558C13.0843 14.7558 13.969 14.5163 14.695 14.0855C14.8323 13.9624 14.9636 13.8289 15.0882 13.6856C15.2944 13.4482 15.6259 13.4515 15.8287 13.6929C15.8513 13.7197 15.8713 13.7484 15.8887 13.7784C15.8914 13.7805 15.8941 13.7827 15.8968 13.7848C16.1033 13.9522 16.1004 14.4573 15.8904 14.622C15.7376 14.7418 15.5766 14.8655 15.4085 14.9888C14.6572 15.6886 13.7548 16.1357 12.7902 16.2734C12.5798 16.3127 12.3665 16.3343 12.1512 16.3343C11.9388 16.3343 11.7284 16.3132 11.5207 16.2747C10.5485 16.1379 9.639 15.6868 8.8833 14.9792C8.72507 14.8633 8.57323 14.7474 8.42856 14.6349C8.21765 14.471 8.21334 13.9659 8.41896 13.7978C8.42358 13.794 8.42827 13.7903 8.43302 13.7867Z" fill="#11A9D9"/>
</svg>
