<svg width="22" height="22" viewBox="0 0 22 22" fill="none" xmlns="http://www.w3.org/2000/svg">
	<path fill-rule="evenodd" clip-rule="evenodd" d="M18.6077 7.69226C18.7355 7.82021 18.7355 8.02767 18.6077 8.15562L17.75 9.01425C17.6222 9.14221 17.415 9.14221 17.2872 9.01425L12.2366 3.95796C10.784 2.50377 8.40715 2.50377 6.95461 3.95796C5.50206 5.41215 5.50206 7.79174 6.95461 9.24593L13.1504 15.4488C14.0613 16.3607 15.5407 16.3607 16.4516 15.4488C17.3626 14.5368 17.3626 13.0557 16.4516 12.1438L10.9161 6.60195C10.5463 6.23168 9.96545 6.23168 9.5956 6.60195C9.22576 6.97221 9.22576 7.55368 9.5956 7.92394L13.9859 12.3192C14.1137 12.4472 14.1137 12.6546 13.9859 12.7826L13.1283 13.6412C13.0004 13.7692 12.7932 13.7692 12.6654 13.6412L8.2751 9.24593C7.17899 8.14857 7.17899 6.37731 8.2751 5.27995C9.37122 4.18259 11.1405 4.18259 12.2366 5.27995L17.7721 10.8218C19.4093 12.4608 19.4093 15.1317 17.7721 16.7707C16.135 18.4098 13.4671 18.4098 11.8299 16.7707L5.63411 10.5679C3.4553 8.38664 3.4553 4.81726 5.63411 2.63597C7.81293 0.454678 11.3783 0.454678 13.5571 2.63597L18.6077 7.69226Z" fill="#BDC1C6"/>
</svg>
