<svg width="48" height="48" viewBox="0 0 48 48" fill="none" xmlns="http://www.w3.org/2000/svg">
	<path fill-rule="evenodd" clip-rule="evenodd" d="M24 48C37.2548 48 48 37.2548 48 24C48 10.7453 37.2548 0.00012207 24 0.00012207C10.7453 0.00012207 0.00012207 10.7453 0.00012207 24C0.00012207 37.2548 10.7453 48 24 48ZM26.031 10.2512L38.3503 30.7699C39.3197 32.3856 38.1484 34.4253 36.2904 34.4253H11.6517C9.77353 34.4253 8.60218 32.3856 9.57157 30.7699L21.8909 10.2512C22.8199 8.67594 25.0818 8.67594 26.031 10.2512ZM23.83 15.7646C22.9212 15.7646 22.1941 16.4917 22.1941 17.4005V23.5197C22.1941 24.4285 22.9212 25.1556 23.83 25.1556H24.0521C24.9609 25.1556 25.688 24.4285 25.688 23.5197V17.4005C25.688 16.4917 24.9609 15.7646 24.0521 15.7646H23.83ZM23.9511 31.3354C25.082 31.3354 26.011 30.4064 26.011 29.2755C26.011 28.1445 25.082 27.2155 23.9511 27.2155C22.8201 27.2155 21.8911 28.1445 21.8911 29.2755C21.8911 30.4064 22.8201 31.3354 23.9511 31.3354Z" fill="#E6E7E9"/>
</svg>
