<svg xmlns="http://www.w3.org/2000/svg" width="33" height="221" viewBox="0 0 33 221">
  <g fill="none" fill-rule="evenodd">
    <polygon fill="#74A000" points="11.379 215.128 6.618 210.367 4 212.985 10.283 219.268 10.29 219.261 11.438 220.408 29.177 202.669 26.508 200"/>
    <g fill="#87B018" transform="translate(8 150)">
      <path d="M8.88919116,0.842006724 C4.03478611,0.842006724 0.0854513707,4.79128374 0.0854513707,9.64563106 C0.0854513707,14.4999784 4.03478611,18.4492554 8.88919116,18.4492554 C13.7435385,18.4492554 17.6928155,14.4999784 17.6928155,9.64563106 C17.6928155,4.79128374 13.7435385,0.842006724 8.88919116,0.842006724 L8.88919116,0.842006724 Z M8.88919116,17.0060383 C4.83057602,17.0060383 1.52866847,13.7042462 1.52866847,9.64563106 C1.52866847,5.58707365 4.83057602,2.28522383 8.88919116,2.28522383 C12.9477486,2.28522383 16.2495984,5.58707365 16.2495984,9.64563106 C16.2495984,13.7042462 12.9477486,17.0060383 8.88919116,17.0060383 L8.88919116,17.0060383 Z"/>
      <path d="M12.6976102,6.26671345 L7.47050875,11.4938726 L5.08065668,9.10402054 C4.79882525,8.82224684 4.34196044,8.82224684 4.060129,9.10402054 C3.7783553,9.38585198 3.7783553,9.84271679 4.060129,10.1245482 L6.96024491,13.0246641 C7.10116063,13.1655221 7.28583469,13.2360088 7.47050875,13.2360088 C7.65518281,13.2360088 7.83985687,13.1655221 7.98077259,13.0246641 L13.7181379,7.28729885 C13.9999116,7.00546742 13.9999116,6.54860261 13.7181379,6.26677118 C13.4363064,5.98493974 12.9793839,5.98493974 12.6976102,6.26671345 L12.6976102,6.26671345 Z"/>
    </g>
    <g fill="#222220" transform="translate(0 50)">
      <path d="M32.8588234,16.6240946 C32.8588234,12.241492 31.0916652,8.26441322 28.233222,5.36620658 C28.2109209,5.3365418 28.187147,5.30750819 28.160112,5.28047327 C28.1330771,5.25343835 28.1041487,5.22966445 28.0744839,5.20746847 C25.1762773,2.34902525 21.1991985,0.581972331 16.816701,0.581972331 C12.4342036,0.581972331 8.4571248,2.34913045 5.55881297,5.20746847 C5.5291482,5.22976965 5.50021978,5.25354354 5.47318486,5.28047327 C5.44614994,5.30750819 5.42237604,5.33643661 5.40007486,5.36620658 C2.54173684,8.26441322 0.774578722,12.241492 0.774578722,16.6240946 C0.774578722,20.908551 2.44285425,24.9363335 5.47202772,27.9662433 C5.4724485,27.9666641 5.47286927,27.9671901 5.47329005,27.9676108 C5.47360563,27.9678212 5.47381602,27.9681368 5.47413161,27.9683472 C5.47455238,27.968768 5.47497316,27.9691887 5.47539394,27.9696095 C5.62939831,28.1236139 5.83126607,28.2005109 6.03313382,28.2005109 C6.23510677,28.2005109 6.43707972,28.1235087 6.5910841,27.9693991 C6.60423338,27.9562499 6.61612033,27.942259 6.62811247,27.9283734 L9.05936185,25.4970188 C9.3674758,25.1887997 9.3674758,24.6893374 9.05936185,24.3812234 C8.75124791,24.0732147 8.25168044,24.0732147 7.94367169,24.3812234 L6.0463883,26.2785068 C3.83404814,23.8166459 2.55057316,20.7182547 2.37405721,17.4130515 L5.05724681,17.4130515 C5.49296137,17.4130515 5.84620365,17.0599144 5.84620365,16.6240946 C5.84620365,16.1882749 5.49296137,15.8351378 5.05724681,15.8351378 L2.3742676,15.8351378 C2.55772636,12.4403091 3.91725678,9.35327884 6.05154281,6.97473178 L7.94367169,8.86686066 C8.09767607,9.02086503 8.29964902,9.09786722 8.50151677,9.09786722 C8.70338453,9.09786722 8.90535748,9.02086503 9.05936185,8.86686066 C9.3674758,8.55864152 9.3674758,8.05917925 9.05936185,7.7510653 L7.16733817,5.85883123 C9.54599043,3.7245452 12.6329155,2.36501478 16.0277442,2.18166121 L16.0277442,4.86474562 C16.0277442,5.30056537 16.3809865,5.65370245 16.816701,5.65370245 C17.2524156,5.65370245 17.6056579,5.30056537 17.6056579,4.86474562 L17.6056579,2.18166121 C21.0004865,2.36501478 24.0874117,3.72465039 26.4660639,5.85893642 L24.573935,7.7510653 C24.2658211,8.05928444 24.2658211,8.55874671 24.573935,8.86686066 C24.7279394,9.02086503 24.9299124,9.09786722 25.1317801,9.09786722 C25.3336479,9.09786722 25.5356208,9.02086503 25.6896252,8.86686066 L27.5817541,6.97473178 C29.7160401,9.35338404 31.0756757,12.4403091 31.2590293,15.8351378 L28.5759449,15.8351378 C28.1402303,15.8351378 27.786988,16.1882749 27.786988,16.6240946 C27.786988,17.0599144 28.1402303,17.4130515 28.5759449,17.4130515 L31.2591345,17.4130515 C31.0826185,20.7182547 29.7992488,23.8167511 27.5869086,26.278612 L25.6896252,24.3812234 C25.3816164,24.0732147 24.882049,24.0732147 24.573935,24.3812234 C24.2658211,24.6894426 24.2658211,25.1889049 24.573935,25.4970188 L27.0444219,27.9675056 C27.1984262,28.12151 27.4003992,28.1985122 27.602267,28.1985122 C27.7031482,28.1985122 27.8041347,28.1792617 27.8991251,28.1407606 C27.9941155,28.1022595 28.0831098,28.0445078 28.1602172,27.9675056 C31.1901271,24.9374906 32.8588234,20.9089718 32.8588234,16.6240946 L32.8588234,16.6240946 Z"/>
      <path d="M22.8347174,8.86030731 C22.4300351,8.69820298 21.9709675,8.89470583 21.8089683,9.29928289 L19.5290934,14.9902915 C19.4228473,14.9789306 19.3166011,14.9711462 19.2102497,14.9711462 C18.0998192,14.9711462 17.0967921,15.5862169 16.5923857,16.5763052 C16.0651522,17.6113113 16.2002216,18.8479749 16.9534124,19.8841382 C17.0304146,19.9900688 17.1271933,20.0869527 17.2338602,20.1644808 C17.8457751,20.6093473 18.5292222,20.8444564 19.2102497,20.8444564 C20.3206801,20.8444564 21.3238125,20.2293857 21.8281137,19.2392975 C22.3553472,18.2042913 22.2202778,16.9677329 21.467613,15.932306 C21.3906108,15.8260598 21.2936217,15.7288603 21.1866392,15.6510166 C21.1290979,15.6091493 21.0702943,15.5709638 21.0114907,15.5328834 L23.273693,9.8859512 C23.4356921,9.48158452 23.2391893,9.02230645 22.8347174,8.86030731 L22.8347174,8.86030731 Z M20.4219822,18.5230299 C20.1883458,18.9815716 19.7240184,19.2664376 19.2101445,19.2664376 C18.8731021,19.2664376 18.5338507,19.1487252 18.2014369,18.9164563 C17.8227376,18.3727073 17.7483653,17.7831987 17.998412,17.2924676 C18.2319432,16.8339259 18.6962706,16.5490598 19.2102497,16.5490598 C19.3741423,16.5490598 19.5384557,16.5774623 19.7023484,16.6326893 C19.7077133,16.6348984 19.7126574,16.6377386 19.7181275,16.6399477 C19.7353794,16.6467853 19.7527364,16.6523606 19.7700935,16.6579359 C19.9205212,16.7156875 20.0703178,16.7952144 20.2188521,16.8989359 C20.5974462,17.442685 20.6719237,18.0322987 20.4219822,18.5230299 L20.4219822,18.5230299 Z" transform="rotate(51 19.803 14.824)"/>
    </g>
    <g fill="#2C2E30" transform="translate(3 100)">
      <path d="M7.62889705,3.46649378 C7.18575021,3.46649378 6.82609481,3.82614918 6.82609481,4.26929602 C6.82609481,4.71324566 7.18575021,5.07209826 7.62889705,5.07209826 C8.07204388,5.07209826 8.43169929,4.71324566 8.43169929,4.26929602 C8.43169929,3.82614918 8.07204388,3.46649378 7.62889705,3.46649378 L7.62889705,3.46649378 Z M10.840106,3.46649378 C10.3969592,3.46649378 10.0373038,3.82614918 10.0373038,4.26929602 C10.0373038,4.71324566 10.3969592,5.07209826 10.840106,5.07209826 C11.2832528,5.07209826 11.6429082,4.71324566 11.6429082,4.26929602 C11.6429082,3.82614918 11.2832528,3.46649378 10.840106,3.46649378 L10.840106,3.46649378 Z M24.4877441,6.67770273 L2.00928138,6.67770273 L2.00928138,3.46649378 C2.00928138,2.58020011 2.72859218,1.8608893 3.61488585,1.8608893 L22.8821396,1.8608893 C23.7684333,1.8608893 24.4877441,2.58020011 24.4877441,3.46649378 L24.4877441,6.67770273 L24.4877441,6.67770273 Z M24.4877441,22.7337475 C24.4877441,23.6200412 23.7684333,24.339352 22.8821396,24.339352 L3.61488585,24.339352 C2.72859218,24.339352 2.00928138,23.6200412 2.00928138,22.7337475 L2.00928138,8.28330721 L24.4877441,8.28330721 L24.4877441,22.7337475 L24.4877441,22.7337475 Z M22.8821396,0.255284824 L3.61488585,0.255284824 C1.84149571,0.255284824 0.4036769,1.69310363 0.4036769,3.46649378 L0.4036769,22.7337475 C0.4036769,24.5071377 1.84149571,25.9449565 3.61488585,25.9449565 L22.8821396,25.9449565 C24.6555297,25.9449565 26.0933485,24.5071377 26.0933485,22.7337475 L26.0933485,3.46649378 C26.0933485,1.69310363 24.6555297,0.255284824 22.8821396,0.255284824 L22.8821396,0.255284824 Z M4.41768809,3.46649378 C3.97454126,3.46649378 3.61488585,3.82614918 3.61488585,4.26929602 C3.61488585,4.71324566 3.97454126,5.07209826 4.41768809,5.07209826 C4.86083493,5.07209826 5.22049033,4.71324566 5.22049033,4.26929602 C5.22049033,3.82614918 4.86083493,3.46649378 4.41768809,3.46649378 L4.41768809,3.46649378 Z"/>
      <rect width="16.056" height="1.606" x="4.934" y="11.289" rx=".803"/>
      <rect width="16.056" height="1.606" x="4.934" y="15.009" rx=".803"/>
      <rect width="8.254" height="1.606" x="4.934" y="18.873" rx=".803"/>
    </g>
    <g fill="#000000" transform="translate(3)">
      <path d="M13.9206187 13.7172715L13.9206187 1.31705143C13.9206187.895466429 13.5833508.558198432 13.1617658.558198432 12.7401808.558198432 12.4029128.895466429 12.4029128 1.31705143L12.4029128 13.7172715C10.643498 14.0714029 9.31128945 15.6284568 9.31128945 17.494673 9.31128945 19.3608893 10.643498 20.9179432 12.4029128 21.2720746L12.4029128 26.7920275C12.4029128 27.2136125 12.7401808 27.5508805 13.1617658 27.5508805 13.5833508 27.5508805 13.9206187 27.2136125 13.9206187 26.7920275L13.9206187 21.2720746C15.6800335 20.9179432 17.0122421 19.3608893 17.0122421 17.494673 17.0122421 15.6340779 15.6856546 14.0714029 13.9206187 13.7172715L13.9206187 13.7172715zM13.1617658 19.8274434C11.8745262 19.8274434 10.8289954 18.7819126 10.8289954 17.494673 10.8289954 16.2074335 11.8745262 15.1619027 13.1617658 15.1619027 14.4490053 15.1619027 15.4945361 16.2074335 15.4945361 17.494673 15.4945361 18.7819126 14.4490053 19.8274434 13.1617658 19.8274434L13.1617658 19.8274434zM4.62888542 7.35414858L4.62888542 1.31705143C4.62888542.895466429 4.29161742.558198432 3.87003242.558198432 3.44844743.558198432 3.11117943.895466429 3.11117943 1.31705143L3.11117943 7.35414858C1.35176471 7.70827998.0195561168 9.2653339.0195561168 11.1315502.0195561168 12.9977664 1.35176471 14.5548203 3.11117943 14.9089517L3.11117943 26.7920275C3.11117943 27.2136125 3.44844743 27.5508805 3.87003242 27.5508805 4.29161742 27.5508805 4.62888542 27.2136125 4.62888542 26.7920275L4.62888542 14.9033306C6.38830014 14.5491992 7.72050873 12.9921453 7.72050873 11.125929 7.72050873 9.25971277 6.38830014 7.70827998 4.62888542 7.35414858L4.62888542 7.35414858zM3.87003242 13.4643205C2.5827929 13.4643205 1.53726211 12.4187897 1.53726211 11.1315502 1.53726211 9.84431063 2.5827929 8.79877984 3.87003242 8.79877984 5.15727195 8.79877984 6.20280274 9.84431063 6.20280274 11.1315502 6.20280274 12.4187897 5.15165081 13.4643205 3.87003242 13.4643205L3.87003242 13.4643205zM23.1561408 7.35414858L23.1561408 1.31705143C23.1561408.895466429 22.8188728.558198432 22.3972878.558198432 21.9757028.558198432 21.6384348.895466429 21.6384348 1.31705143L21.6384348 7.35414858C19.87902 7.70827998 18.5468114 9.2653339 18.5468114 11.1315502 18.5468114 12.9977664 19.87902 14.5548203 21.6384348 14.9089517L21.6384348 26.7976486C21.6384348 27.2192336 21.9757028 27.5565016 22.3972878 27.5565016 22.8188728 27.5565016 23.1561408 27.2192336 23.1561408 26.7976486L23.1561408 14.9033306C24.9155555 14.5491992 26.2477641 12.9921453 26.2477641 11.125929 26.2477641 9.25971277 24.9211766 7.70827998 23.1561408 7.35414858L23.1561408 7.35414858zM22.3972878 13.4643205C21.1100482 13.4643205 20.0645174 12.4187897 20.0645174 11.1315502 20.0645174 9.84431063 21.1100482 8.79877984 22.3972878 8.79877984 23.6845273 8.79877984 24.7300581 9.84431063 24.7300581 11.1315502 24.7300581 12.4187897 23.6845273 13.4643205 22.3972878 13.4643205L22.3972878 13.4643205z"/>
    </g>
  </g>
</svg>
