<svg width="31" height="26" viewBox="0 0 31 26" fill="none" xmlns="http://www.w3.org/2000/svg">
<path d="M20.0103 17.762C20.0103 17.762 20.8791 21.0344 21.3746 23.4539C21.4622 23.8818 21.2111 24.3045 20.7921 24.428C18.091 25.2244 15.0276 25.6759 11.7804 25.6803H11.6833C7.7277 25.6749 4.0448 25.0062 0.957186 23.8585C0.340544 23.6293 -0.000991441 22.98 0.125886 22.3345C0.428795 20.7934 0.760792 19.1565 0.934199 18.4714C1.30266 17.0155 3.36719 15.9337 5.26609 15.1022C5.76248 14.885 6.06195 14.7116 6.36458 14.5363C6.66098 14.3646 6.96042 14.1911 7.45089 13.9731C7.50625 13.7054 7.5285 13.432 7.51714 13.1589L8.35855 13.0572C8.35855 13.0572 8.46914 13.2617 8.29128 12.0588C8.29128 12.0588 7.34693 11.8069 7.3031 9.89158C7.3031 9.89158 6.59369 10.1323 6.55088 8.97157C6.54217 8.73942 6.48351 8.51637 6.42734 8.30278C6.2928 7.79118 6.17254 7.3339 6.78735 6.93615L6.34346 5.73322C6.34346 5.73322 5.87765 1.08025 7.92332 1.45884C7.09364 0.122077 14.093 -0.990279 14.5577 3.10804C14.7407 4.34343 14.7407 5.59898 14.5577 6.83438C14.5577 6.83438 15.6035 6.71225 14.9053 8.73546C14.9053 8.73546 14.521 10.1898 13.9309 9.86155C13.9309 9.86155 14.0267 11.7021 13.0971 12.014C13.0971 12.014 13.1634 12.9941 13.1634 13.0607L13.9406 13.1813C13.9406 13.1813 13.9192 13.9985 14.0721 14.0871C14.7805 14.5529 15.5571 14.906 16.3741 15.1338C18.7872 15.7566 20.0103 16.8257 20.0103 17.762Z" fill="white"/>
<path d="M30.7376 18.6775C30.7558 19.0402 30.7765 19.4519 30.7974 19.8692C30.8287 20.4937 30.4415 21.0653 29.8425 21.2447C27.8927 21.8287 25.6821 22.3006 23.2843 22.6336H22.5302C22.4849 21.9948 21.9063 19.7826 21.5705 18.4989C21.4374 17.99 21.3424 17.627 21.334 17.5659C21.2907 16.3568 20.2271 15.2771 18.4087 14.5392C18.5463 14.3533 18.6641 14.1536 18.7604 13.9433C19.0154 13.6269 19.3479 13.3815 19.7256 13.231L19.7547 12.2845L17.7585 11.6606C17.7585 11.6606 17.2453 11.421 17.1943 11.421C17.2533 11.2753 17.3273 11.1362 17.415 11.0057C17.4532 10.904 17.6947 10.1447 17.6947 10.1447C17.4041 10.5181 17.0631 10.8497 16.6816 11.1299C17.0308 10.513 17.327 9.8677 17.5668 9.20082C17.7251 8.55892 17.8311 7.90528 17.8838 7.24631C18.0206 6.04878 18.234 4.86122 18.5229 3.69095C18.7302 3.10697 19.0956 2.59178 19.5784 2.20255C20.2917 1.70764 21.1244 1.41166 21.9905 1.34513H22.0924C22.96 1.41111 23.7943 1.7071 24.5091 2.20255C24.9923 2.59103 25.3579 3.10599 25.565 3.68993C25.8536 4.8603 26.0672 6.04782 26.2046 7.2453C26.2661 7.88965 26.3774 8.52829 26.5374 9.15554C26.7772 9.83418 27.0681 10.4937 27.4079 11.1284C27.0256 10.8489 26.684 10.5178 26.3927 10.1447C26.3927 10.1447 26.5807 10.8337 26.6184 10.9355C26.7217 11.0893 26.8137 11.2503 26.8936 11.4174C26.8442 11.4174 26.3295 11.6571 26.3295 11.6571L24.3332 12.2809L24.3618 13.2279C24.7398 13.378 25.0724 13.6235 25.327 13.9403C25.4478 14.2444 25.6391 14.5155 25.8851 14.7316C26.3667 14.8991 26.8311 15.1124 27.2718 15.3686C27.9391 15.7394 28.3451 15.8452 28.9759 16.2334C30.1678 16.9669 30.6735 17.4045 30.7373 18.6727L30.7376 18.6775Z" fill="white"/>
</svg>
