<svg width="42" height="17" viewBox="0 0 42 17" fill="none" xmlns="http://www.w3.org/2000/svg">
    <g clip-path="url(#clip0)">
        <path d="M19.8645 8.30507V13.2883H18.3135V0.981906H22.4271C22.9181 0.971452 23.4063 1.06021 23.8635 1.24307C24.3206 1.42593 24.7378 1.69926 25.0908 2.04729C25.4473 2.37419 25.7311 2.7751 25.923 3.22307C26.115 3.67105 26.2106 4.1557 26.2035 4.64447C26.2137 5.13585 26.1195 5.62367 25.9275 6.0745C25.7354 6.52533 25.45 6.9285 25.0908 7.25638C24.3715 7.95551 23.4836 8.30474 22.4271 8.30409H19.8645V8.30507ZM19.8645 2.49701V6.79291H22.4656C22.7508 6.80153 23.0345 6.74939 23.2988 6.63982C23.563 6.53026 23.802 6.36569 24.0002 6.15663C24.1975 5.96117 24.3543 5.72737 24.4614 5.46908C24.5684 5.21078 24.6236 4.93322 24.6236 4.65282C24.6236 4.37241 24.5684 4.09486 24.4614 3.83656C24.3543 3.57826 24.1975 3.34447 24.0002 3.14901C23.8044 2.93554 23.5664 2.76694 23.3018 2.65436C23.0372 2.54179 22.7522 2.48782 22.4656 2.49603H19.8645V2.49701Z" fill="#5F6368"/>
        <path d="M29.7782 4.59338C30.9246 4.59338 31.8295 4.90563 32.4929 5.53014C33.1564 6.15464 33.4878 7.01087 33.4871 8.09884V13.2883H32.0035V12.1198H31.9361C31.2939 13.0821 30.4397 13.5632 29.3735 13.5632C28.4635 13.5632 27.7021 13.2883 27.0894 12.7384C26.7954 12.486 26.5603 12.17 26.4013 11.8132C26.2423 11.4565 26.1634 11.0681 26.1703 10.6764C26.1703 9.80509 26.4934 9.11218 27.1395 8.59766C27.7856 8.08313 28.6481 7.82521 29.7271 7.8239C30.6481 7.8239 31.4066 7.99574 32.0026 8.33941V7.97807C32.0043 7.711 31.9478 7.44688 31.837 7.20487C31.7261 6.96285 31.5639 6.749 31.3619 6.57883C30.9518 6.20165 30.4172 5.99585 29.8649 6.00244C28.9985 6.00244 28.3129 6.37492 27.8081 7.11987L26.442 6.24301C27.1934 5.14326 28.3055 4.59338 29.7782 4.59338ZM27.7715 10.7108C27.7704 10.912 27.8166 11.1105 27.9061 11.2898C27.9955 11.4692 28.1258 11.6241 28.2859 11.7418C28.6289 12.0168 29.0547 12.1625 29.4911 12.1542C30.1456 12.1531 30.773 11.8875 31.2357 11.4158C31.7495 10.9228 32.0064 10.3445 32.0064 9.68072C31.5228 9.28795 30.8485 9.09156 29.9834 9.09156C29.3533 9.09156 28.828 9.24638 28.4073 9.55601C27.9824 9.87023 27.7715 10.2522 27.7715 10.7108Z" fill="#5F6368"/>
        <path d="M42.003 4.86841L36.824 17H35.2228L37.1448 12.7552L33.7393 4.86841H35.4252L37.8866 10.917H37.9203L40.3143 4.86841H42.003Z" fill="#5F6368"/>
        <path d="M13.5973 7.23087C13.5978 6.74909 13.5579 6.26815 13.4778 5.79333H6.93652V8.5162H10.6831C10.6064 8.95108 10.4441 9.36564 10.206 9.73488C9.96796 10.1041 9.65898 10.4204 9.29774 10.6646V12.4321H11.5337C12.8429 11.2018 13.5973 9.38226 13.5973 7.23087Z" fill="#4285F4"/>
        <path d="M6.93661 14.1396C8.80844 14.1396 10.3845 13.5131 11.5338 12.433L9.29783 10.6656C8.67549 11.0956 7.87397 11.3411 6.93661 11.3411C5.1274 11.3411 3.59179 10.098 3.04267 8.42285H0.739258V10.2443C1.31657 11.4152 2.20182 12.3996 3.29618 13.0874C4.39053 13.7752 5.65091 14.1395 6.93661 14.1396Z" fill="#34A853"/>
        <path d="M3.042 8.4229C2.7517 7.54511 2.7517 6.59452 3.042 5.71673V3.89526H0.738588C0.25293 4.88028 0 5.96741 0 7.06981C0 8.17222 0.25293 9.25935 0.738588 10.2444L3.042 8.4229Z" fill="#FBBC04"/>
        <path d="M6.93661 2.79845C7.92579 2.78198 8.88159 3.16291 9.59744 3.85892L11.5772 1.84108C10.3218 0.63928 8.65875 -0.020526 6.93661 -2.44344e-05C5.65091 3.52911e-05 4.39053 0.364322 3.29618 1.05217C2.20182 1.74001 1.31657 2.72434 0.739258 3.89525L3.04267 5.71672C3.59179 4.04156 5.1274 2.79845 6.93661 2.79845Z" fill="#EA4335"/>
    </g>
    <defs>
        <clipPath id="clip0">
            <rect width="42" height="17" fill="white"/>
        </clipPath>
    </defs>
</svg>
