
<svg width="939" height="680" viewBox="0 0 939 680" fill="none" xmlns="http://www.w3.org/2000/svg">
    <path d="M734.333 225.528L741.385 203.093L718.055 203.82C716.085 203.82 701.758 203.416 687.858 193.399C688.894 193.5 689.93 193.642 690.987 193.642C705.293 193.642 719.133 185.079 724.68 172.841L734.719 150.728C722.14 150.89 710.638 149.315 710.638 149.315C710.536 149.295 701.473 148.144 690.987 137.502C683.468 129.868 674.161 125.829 664.081 125.829C659.671 125.829 655.729 126.617 652.335 127.688C652.863 125.89 653.371 124.072 653.656 122.194C656.867 101.496 643.455 85.7037 643.455 85.7245L625.917 64.1361L615.045 89.5006C615.005 89.5816 612.26 95.5183 607.343 98.4265C605.86 90.9749 602.222 82.5941 594.439 74.5767C579.766 59.4712 561.903 57.2306 552.556 57.2306C548.227 57.2306 545.138 57.6947 544.386 57.8162L523.21 61.9557C524.43 57.2504 527.031 49.072 531.786 41.7004L543.472 23.6068L514.065 26.9385L504.697 7.16914L486.57 16.4584L469.805 0L453.081 16.4584L434.892 7.16914L425.544 26.9385L396.159 23.6068L407.865 41.7004C412.62 49.072 415.221 57.2306 416.42 61.935L396.221 57.9771L395.529 57.8557C394.513 57.6947 391.445 57.2306 387.095 57.2306C377.748 57.2306 359.885 59.492 345.253 74.5767C337.449 82.5734 333.812 90.9749 332.308 98.4265C327.431 95.5588 324.708 89.702 324.708 89.702L313.815 64.1973L295.993 85.9259C293.819 88.7333 283.069 103.575 285.994 122.235C286.3 124.093 286.788 125.91 287.316 127.707C283.943 126.637 279.999 125.85 275.59 125.85C265.511 125.85 256.203 129.889 248.664 137.522C238.218 148.124 229.196 149.315 229.277 149.315C229.277 149.315 219.745 151.012 204.992 150.749L214.971 172.862C220.518 185.12 234.378 193.661 248.664 193.661C249.741 193.661 250.777 193.52 251.834 193.419C237.974 203.435 223.648 203.839 221.921 203.86L198.144 203.093L205.338 225.508C208.955 237.059 221.046 256.203 244.213 258.263C241.693 268.763 236.105 280.516 223.831 285.585L206.131 292.835L215.783 309.536C221.229 318.543 234.012 329.084 252.22 329.084C256.162 329.063 259.962 328.68 263.621 327.913C264.555 332.032 265.734 336.151 267.116 340.231C272.542 356.264 267.867 367.453 267.807 367.574L259.068 385.768L278.577 390.878C278.821 390.959 284.714 392.553 292.091 392.553C295.445 392.553 298.635 392.211 301.643 391.504C303.919 390.978 306.093 390.271 308.186 389.424C310.706 393.927 313.775 398.026 317.352 401.701C329.849 414.444 347.549 420.906 369.985 420.906H370.066L386.08 420.705L352.996 434.356L378.113 446.412C387.238 450.834 398.07 456.064 409.083 460.063L405.954 468.585L414.611 472.502C415.384 472.846 432.027 480.257 459.706 481.832C459.706 481.832 466.391 482.135 470.069 482.135C473.748 482.135 480.352 481.812 480.352 481.812C507.847 480.197 524.369 472.865 525.142 472.502L533.818 468.564L530.648 460.022C541.988 455.902 553.206 450.47 561.944 446.23L586.594 434.336L553.612 420.664L569.687 420.866C592.142 420.866 609.863 414.403 622.34 401.641C625.897 397.986 628.965 393.887 631.506 389.384C633.599 390.232 635.793 390.938 638.069 391.463C641.056 392.17 644.247 392.513 647.6 392.513C654.855 392.513 660.809 390.918 660.972 390.878L680.562 385.728L672.026 367.876C671.824 367.412 667.15 356.245 672.576 340.19C673.958 336.091 675.115 331.971 676.051 327.872C679.729 328.64 683.57 329.043 687.533 329.043C710.719 329.043 721.836 312.827 723.99 309.313L733.541 292.795L715.841 285.566C703.546 280.497 697.978 268.723 695.479 258.243C718.32 256.304 730.594 237.16 734.333 225.528ZM417.965 69.67L417.721 69.7302L417.923 69.4675L417.965 69.67Z" fill="white"/>
    <path d="M469.826 68.6791C451.089 68.6998 437.047 74.7986 433.979 81.9677L469.826 96.0225L505.674 81.9677C502.626 74.7986 488.583 68.6998 469.826 68.6791Z" fill="white"/>
    <path d="M470.191 440.756H470.15H469.845H469.5H469.48C458.12 440.837 442.492 438.514 434.953 436.334L425.89 460.708C431.864 462.828 452.105 466.867 469.845 466.867C487.545 466.867 507.807 462.808 513.761 460.708L504.718 436.334C497.157 438.535 481.55 440.837 470.191 440.756Z" fill="white"/>
    <path d="M538.778 416.525C532.03 420.321 516.973 426.016 508.214 428.662L515.57 448.795C529.125 445.12 540.302 440.818 549.548 436.214L534.286 431.166L538.778 416.525Z" fill="white"/>
    <path d="M400.893 416.525L405.405 431.166L390.123 436.214C399.349 440.818 410.587 445.12 424.08 448.795L431.437 428.662C422.719 426.016 407.64 420.302 400.893 416.525Z" fill="white"/>
    <path d="M469.829 45.3769C483.952 45.3769 497.812 48.7284 508.46 54.6257C509.436 51.3739 510.797 47.4358 512.647 43.317L508.623 43.8008L504.396 44.2452L502.607 40.4286L497.223 29.1199L487.407 34.2095L483.587 36.1479L480.538 33.1587L469.869 22.6578L459.221 33.1587L456.172 36.1479L452.352 34.2095L442.476 29.1199L437.152 40.4286L435.322 44.2452L431.095 43.8008L427.072 43.317C428.921 47.4565 430.263 51.3739 431.258 54.6257C441.927 48.7284 455.746 45.3769 469.829 45.3769Z" fill="white"/>
    <path d="M685.46 176.074C687.288 176.7 689.158 176.982 691.007 176.982C698.993 176.982 706.716 171.853 709.378 165.977C709.378 165.977 694.726 165.088 678.977 149.196C673.957 144.046 668.653 142.511 664.101 142.511C657.029 142.511 651.725 146.227 651.725 146.227C670.746 156.284 674.627 172.439 685.46 176.074Z" fill="white"/>
    <path d="M248.642 176.982C250.491 176.982 252.361 176.7 254.149 176.074C265.022 172.439 268.923 156.284 287.944 146.227C287.944 146.227 282.62 142.511 275.588 142.511C271.017 142.511 265.712 144.046 260.672 149.196C244.943 165.088 230.291 165.977 230.291 165.977C232.913 171.853 240.655 176.982 248.642 176.982Z" fill="white"/>
    <path d="M690.621 241.724C690.947 241.744 691.232 241.744 691.576 241.744C711.513 241.744 718.279 220.52 718.279 220.52H717.893C714.235 220.52 684.586 219.672 663.634 193.197C649.836 175.79 638.537 160.483 616.203 154.465L614.008 154.081L613.521 151.86C612.911 148.467 615.248 145.297 620.553 141.864C651.36 121.811 630.449 96.2451 630.449 96.2451C630.449 96.2451 621.65 116.702 601.957 116.702C601.49 116.702 600.983 116.682 600.495 116.682C598.259 116.561 596.105 116.48 593.931 116.016L590.293 115.308C590.293 115.308 595.902 100.143 582.368 86.2093C572.166 75.6876 559.749 73.9102 552.576 73.9102C548.959 73.9102 546.662 74.3753 546.662 74.3753C553.47 83.2202 558.388 97.8814 550.523 106.928C543.736 114.703 527.153 115.086 527.153 126.678C527.153 131.585 531.766 137.32 540.058 142.47C564.993 158.079 589.744 178.779 600.027 206.525C612.891 241.139 598.401 264.099 577.714 277.266C577.714 277.266 584.197 283.202 593.606 283.95C595.516 284.132 597.385 284.213 599.133 284.213C618.988 284.213 629.25 274.964 629.25 274.964C629.25 274.964 627.563 287.746 617.22 299.62C607.689 310.586 595.17 317.028 576.088 317.31C576.088 317.31 575.479 326.116 583.932 333.728C589.339 338.534 601.836 340.11 601.836 340.11C601.836 340.11 578.445 344.814 575.865 379.145C574.462 397.744 569.686 404.206 569.686 404.206H570.113C624.393 404.206 622.99 357.941 622.99 357.941C622.99 357.941 626.771 371.633 641.911 375.207C643.739 375.692 645.69 375.874 647.56 375.874C652.437 375.874 656.664 374.743 656.664 374.743C656.664 374.743 648.738 358.123 656.603 334.879C663.126 315.594 662.069 301.297 662.069 301.297C662.069 301.297 669.386 312.282 687.513 312.384H687.695C702.795 312.384 709.378 301.014 709.378 301.014C673.186 286.091 676.763 237.908 676.763 237.908C676.763 237.908 681.457 241.38 690.621 241.724ZM679.729 292.047C665.016 284.839 655.709 265.694 653.453 258.788C651.015 296.753 632.36 323.107 610.554 348.47C599.235 361.616 595.292 374.399 595.292 374.399C595.292 374.399 597.467 359.92 607.262 348.126C627.604 323.833 646.929 293.603 648.373 258.647C649.368 234.252 643.048 214.462 633.192 198.165C638.699 215.148 637.928 235.948 619.211 255.355C619.211 255.355 656.461 210.989 604.377 165.511C583.526 148.204 560.725 137.522 548.98 129.949C591.411 143.702 612.119 128.556 612.119 128.556C598.564 140.229 581.026 140.026 570.155 138.35C573.101 139.784 576.169 141.278 579.482 143.035C615.248 162.34 647.398 194.106 652.884 238.109V237.766C661.216 280.961 679.729 292.047 679.729 292.047Z" fill="white"/>
    <path d="M337.816 340.11C337.816 340.11 350.314 338.555 355.72 333.728C364.153 326.116 363.564 317.31 363.564 317.31C344.461 317.048 331.964 310.586 322.371 299.641C312.109 287.767 310.402 274.984 310.402 274.984C310.402 274.984 320.664 284.232 340.498 284.232C342.287 284.232 344.136 284.151 346.047 283.97C355.455 283.223 361.958 277.285 361.958 277.285C341.271 264.119 326.761 241.139 339.604 206.525C349.908 178.799 374.639 158.079 399.574 142.47C407.865 137.32 412.478 131.605 412.478 126.678C412.478 115.086 395.916 114.703 389.129 106.928C381.264 97.8814 386.202 83.1994 392.989 74.3753C392.989 74.3753 390.734 73.9102 387.096 73.9102C379.944 73.9102 367.526 75.6876 357.325 86.2093C343.75 100.143 349.379 115.308 349.379 115.308L345.741 116.016C343.567 116.48 341.393 116.561 339.178 116.682C338.67 116.682 338.222 116.702 337.734 116.702C318.002 116.702 309.244 96.2658 309.244 96.2658C309.244 96.2658 288.332 121.832 319.121 141.884C324.424 145.317 326.74 148.488 326.131 151.88L325.643 154.102L323.408 154.485C301.115 160.503 289.796 175.811 275.998 193.218C255.086 219.652 225.477 220.52 221.779 220.52H221.372C221.372 220.52 228.139 241.744 248.075 241.744C248.4 241.744 248.684 241.744 249.03 241.724C258.196 241.401 262.911 237.908 262.911 237.908C262.911 237.908 266.446 286.07 230.294 301.014C230.294 301.014 236.878 312.384 251.977 312.384H252.159C270.307 312.282 277.603 301.297 277.603 301.297C277.603 301.297 276.546 315.594 283.048 334.879C290.913 358.123 283.029 374.743 283.029 374.743C283.029 374.743 287.256 375.874 292.112 375.874C294.002 375.874 295.933 375.692 297.742 375.207C312.861 371.633 316.661 357.941 316.661 357.941C316.661 357.941 315.279 404.206 369.559 404.206H369.945C369.945 404.206 365.19 397.744 363.808 379.145C361.206 344.814 337.816 340.11 337.816 340.11ZM329.098 348.47C307.293 323.107 288.658 296.753 286.199 258.788C283.943 265.675 274.676 284.839 259.964 292.047C259.964 292.047 278.456 280.961 286.768 237.766V238.109C292.275 194.126 324.404 162.34 360.191 143.035C363.462 141.259 366.571 139.763 369.498 138.35C358.625 140.026 341.088 140.229 327.534 128.556C327.534 128.556 348.242 143.702 390.652 129.949C378.906 137.522 356.126 148.204 335.276 165.511C283.171 210.989 320.441 255.355 320.441 255.355C301.704 235.929 300.952 215.148 306.46 198.165C296.583 214.482 290.283 234.252 291.299 258.647C292.722 293.603 312.048 323.833 332.35 348.126C342.165 359.9 344.38 374.399 344.38 374.399C344.38 374.399 340.396 361.616 329.098 348.47Z" fill="white"/>
    <path d="M429.694 170.963C430.588 171.913 431.461 172.943 432.295 173.972C432.499 174.215 432.681 174.437 432.884 174.72C433.656 175.75 434.45 176.84 435.201 177.951C435.363 178.173 435.526 178.436 435.709 178.698C436.624 180.071 437.477 181.485 438.331 182.939C446.155 196.369 458.693 204.385 469.809 204.406C480.946 204.385 493.443 196.369 501.308 182.939C502.181 181.445 503.055 179.991 503.97 178.637C504.112 178.436 504.255 178.254 504.376 178.052C505.148 176.901 505.961 175.771 506.815 174.679C506.998 174.437 507.161 174.235 507.323 174.034C508.197 172.963 509.091 171.913 510.005 170.944C510.168 170.782 510.29 170.641 510.432 170.52C514.415 166.461 519.171 163.371 525.389 161.654L522.625 160.059H522.462L511.449 153.698L500.13 147.256L469.89 163.614L469.809 163.552L469.748 163.614L439.489 147.256L428.19 153.678L417.155 160.039H417.034L414.229 161.634C420.467 163.351 425.203 166.4 429.206 170.459C429.389 170.621 429.511 170.803 429.694 170.963ZM457.576 169.651H470.378H483.16V178.376C480.152 174.72 474.3 175.467 474.3 175.467V188.048C474.3 188.048 474.524 194.228 476.698 196.914H470.378H464.038C466.252 194.247 466.456 188.048 466.456 188.048V175.467C466.456 175.467 460.624 174.72 457.576 178.376V169.651Z" fill="white"/>
    <path d="M467.202 152.727V101.656L434.483 90.6296L443.121 140.125L467.202 152.727ZM460.17 114.196V122.395L458.585 121.668C458.503 121.607 456.187 121.083 452.123 117.892C445.416 112.722 445.295 107.956 445.295 107.956L460.17 114.196Z" fill="white"/>
    <path d="M496.548 140.125L505.145 90.6296L472.447 101.656V152.727L496.548 140.125ZM479.478 114.196L494.353 107.977C494.353 107.977 494.232 112.742 487.505 117.912C483.461 121.102 481.124 121.628 481.043 121.688L479.458 122.415V114.196H479.478Z" fill="white"/>
    <path d="M420.927 271.127C424.117 272.279 427.979 272.521 429.95 272.521C430.031 272.279 430.133 271.976 430.235 271.612C430.418 271.027 430.58 270.461 430.702 269.815C431.25 266.988 431.454 263.777 431.494 261.717C430.153 260.889 428.263 259.415 427.206 257.214C425.987 254.669 424.26 253.498 421.719 253.498C418.428 253.498 414.892 255.457 413.388 256.385C412.189 263.434 417.411 269.835 420.927 271.127Z" fill="white"/>
    <path d="M493.299 244.023C487.222 250.586 475.334 262.016 474.744 262.602L474.033 263.328L436.459 262.743C436.438 266.439 435.828 269.589 435.239 271.891C435.138 272.275 435.036 272.679 434.935 273.083L479.642 281.06C484.296 277.829 497.099 268.539 502.057 264.905C498.439 259.654 498.095 253.434 498.908 249.051C496.55 247.537 494.741 245.841 493.299 244.023Z" fill="white"/>
    <path d="M498.394 199.115C489.737 207.656 481.426 210.807 474.009 211.534C472.667 211.675 471.306 211.756 469.924 211.756H469.822H469.74C468.358 211.756 466.977 211.675 465.636 211.534C464.335 211.413 462.974 211.211 461.612 210.908C461.124 212.827 460.514 216.845 462.263 220.642C463.828 224.095 467.018 226.66 471.672 228.356L473.236 228.961L473.257 230.638C473.257 231.143 473.622 242.007 485.551 245.016C487.502 243.017 489.27 241.219 490.571 239.725C488.132 234.03 489.412 228.215 492.948 225.367C492.785 225.973 491.242 240.23 502.743 245.52L504.633 246.409L504.064 248.409C503.881 249.014 500.041 262.807 513.961 267.936L516.42 268.866L515.323 271.248C515.079 271.773 509.612 284.294 522.475 291.402H550.377V269.39C540.461 268.178 536.254 260.263 535.177 254.649C530.563 253.861 526.988 251.882 524.549 248.651C518.696 240.998 523.736 233.99 523.797 233.606C523.776 233.667 523.797 241.139 528.43 245.743C530.726 247.964 533.45 249.681 537.575 250.065L539.607 250.247L539.79 252.306C539.831 252.75 540.948 262.848 550.398 264.443L550.377 219.49C550.377 212.524 552.43 205.517 554.889 199.054H498.394V199.115Z" fill="white"/>
    <path d="M423.308 219.71L422.557 248.345L425.828 248.83L433.835 221.366L429.77 212.925L423.308 219.71Z" fill="white"/>
    <path d="M511.588 351.034C511.832 351.034 512.116 351.075 512.381 351.136C517.359 352.549 518.62 370.401 527.358 371.997C528.211 372.178 529.003 372.219 529.695 372.219C532.215 372.219 533.718 371.148 535.344 369.249C535.344 369.249 530.954 362.383 527.663 357.759C523.293 351.701 519.9 344.371 511.77 344.371C511.588 344.371 511.344 344.371 511.141 344.391C508.458 344.532 506.813 345.824 506.813 345.824C503.52 343.764 500.451 343.058 497.668 343.058C492.567 343.058 488.604 345.38 486.633 345.38H486.551L468.384 343.604C465.539 343.341 463.304 340.493 462.491 339.383C462.287 339.08 462.185 338.898 462.185 338.898C462.185 338.413 462.185 337.909 462.145 337.464C461.535 322.702 450.034 316.382 445.948 316.281C445.948 316.281 446.436 313.473 445.319 312.403L441.315 317.23L428.167 310.667L437.535 321.551L429.589 330.417C428.594 331.426 428.716 332.799 429.122 333.365L432.557 336.374L436.905 333.748C437.129 333.586 437.515 333.547 438.002 333.547C439.202 333.547 441.01 333.849 442.636 333.849C444.404 333.849 445.948 333.466 446.132 331.81C445.583 337.283 440.482 346.794 443.835 354.265L446.315 359.9L430.26 357.598L422.741 370.219C420.425 374.42 420.058 378.963 422.294 381.427L425.099 384.921C425.099 384.921 429.041 380.761 429.935 378.034L428.655 376.641C427.577 375.47 427.639 374.42 428.29 373.147L433.003 365.373L451.964 369.815L452.959 368.119C454.24 365.999 456.089 365.353 458.122 365.353C458.954 365.353 459.808 365.454 460.702 365.595C464.218 366.281 470.01 367.21 475.801 367.21C482.162 367.21 488.462 366.08 491.815 362.343C498.683 372.461 512.604 374.076 511.507 379.205L507.849 396.532C510.267 396.431 512.604 396.27 514.819 395.967L518.294 377.933C518.68 375.974 519.046 373.329 519.046 373.329C517.705 371.976 514.453 369.108 512.624 365.635C510.165 360.95 511.507 358.507 509.21 352.408C509.292 352.448 509.982 351.034 511.588 351.034ZM440.664 325.711C439.73 325.692 439.059 324.904 439.1 323.974C439.182 323.086 439.933 322.38 440.848 322.46C441.783 322.5 442.453 323.308 442.413 324.196C442.331 325.085 441.559 325.771 440.664 325.711Z" fill="white"/>
    <path d="M414.772 367.432C414.772 367.432 421.052 364.867 421.621 363.03L420.788 360.949C420.198 359.596 420.28 358.122 421.418 357.314L428.205 352.649L439.545 354.81C439.545 354.81 437.492 352.266 437.696 348.853L426.885 346.571L416.683 352.75C412.314 356.002 411.989 361.312 413.431 364.464L414.772 367.432Z" fill="white"/>
    <path d="M494.919 396.793C496.951 396.712 499.186 396.671 501.646 396.671C501.646 396.671 507.478 379.729 507.803 379.183C504.531 377.75 497.744 374.176 495.122 372.539C496.85 375.105 501.056 378.052 500.223 380.315L494.919 396.793Z" fill="white"/>
    <path d="M550.44 296.31H389.228V356.569C389.228 381.206 407.172 396.634 433.651 396.634C455.782 396.634 461.614 397.481 469.845 405.6C475.514 399.986 480.209 397.885 489.841 397.098L490.065 396.169L495.145 380.559C494.861 380.216 486.549 370.825 486.549 370.825C483.257 371.916 480.493 372.098 475.84 372.098C471.064 372.098 465.678 371.553 459.846 370.462C459.257 370.321 458.709 370.28 458.159 370.28C457.448 370.28 457.387 370.341 457.204 370.684L456.188 372.34L454.339 375.37L450.864 374.582L435.399 370.968L433.286 374.44L433.611 374.804L435.5 376.864L434.668 379.55C433.53 383.063 429.831 387.162 428.713 388.294L424.852 392.413L421.337 387.991L418.694 384.699C415.911 381.61 415.26 376.864 416.825 371.896C416.784 371.936 416.724 371.957 416.662 371.957L412.293 373.754L410.322 369.513L408.94 366.504C406.562 361.213 407.436 353.479 413.837 348.814L426.295 341.827L438.143 344.149C438.427 343.019 438.854 338.98 439.199 337.95C438.975 337.929 438.752 337.869 438.529 337.869L431.7 340.393L425.116 335.869C425.116 335.869 422.536 333.406 424.872 330.942L431.253 321.35L415.098 301.196L439.931 311.333L441.576 309.294L444.93 305.316L448.73 308.91C449.808 309.94 450.417 311.213 450.721 312.485C457.57 315.13 469.824 322.945 470.901 335.647L467.06 337.182V337.283C467.934 338.313 468.665 338.737 468.89 338.777L486.61 340.515C487.057 340.434 487.626 340.231 488.256 340.049C490.451 339.303 493.763 338.232 497.686 338.232C500.876 338.232 503.965 338.959 506.931 340.333C508.029 339.929 509.37 339.626 510.915 339.525L511.768 339.504C521.258 339.504 525.973 346.552 529.753 352.166C530.383 353.135 531.013 354.065 531.664 354.973C534.976 359.618 539.304 366.423 539.487 366.707L541.438 369.735L539.04 372.502C537.191 374.622 534.427 377.106 529.672 377.106C528.696 377.106 527.619 377.005 526.461 376.783C525.444 376.601 524.531 376.298 523.636 375.935C523.493 376.864 523.311 377.975 523.128 378.924L520.018 395.038C538.614 390.495 550.421 376.541 550.421 356.589L550.44 296.31Z" fill="#FFDD2D"/>
    <path d="M389.229 291.464H514.594C508.334 285.043 508.415 276.905 510.021 271.614C508.192 270.746 506.688 269.695 505.347 268.564C500.449 272.159 485.492 282.983 481.591 285.689L480.758 286.254L431.558 277.409H430.562C429.384 277.409 427.656 277.369 425.767 277.147C425.238 279.348 423.328 280.863 421.133 280.863C420.889 280.863 420.605 280.843 420.341 280.782C419.061 280.559 417.942 279.914 417.191 278.843C416.418 277.793 416.114 276.541 416.337 275.249L416.52 274.199C411.44 270.644 406.766 262.708 408.839 254.348L409.042 253.459L409.753 252.954C409.854 252.873 410.708 252.309 411.968 251.581L408.392 251.036C407.05 250.794 406.156 249.561 406.36 248.249C406.583 246.916 407.843 245.967 409.164 246.23L417.679 247.563L418.451 217.756L431.131 204.427L439.037 220.967L430.685 249.642L438.204 250.813C439.525 251.016 440.439 252.247 440.236 253.6C440.032 254.792 439.017 255.619 437.818 255.619C437.695 255.619 437.553 255.619 437.432 255.6L431.314 254.61C431.396 254.792 431.518 254.893 431.599 255.095C432.25 256.427 433.692 257.397 434.546 257.801L472.059 258.386C473.645 256.852 477.587 253.014 481.631 248.956C472.405 245.482 469.053 237.566 468.483 232.316C463.321 230.134 459.765 226.864 457.794 222.603C455.395 217.332 456.25 212.062 456.879 209.496C451.88 207.679 446.617 204.367 441.252 199.076H384.758C387.176 205.538 389.229 212.545 389.229 219.513V291.464Z" fill="#FFDD2D"/>
    <path d="M440.863 322.459C439.948 322.378 439.175 323.085 439.115 323.974C439.054 324.902 439.744 325.69 440.68 325.71C441.574 325.791 442.366 325.104 442.447 324.196C442.447 323.307 441.797 322.48 440.863 322.459Z" fill="black"/>
    <path d="M550.216 431.728L540.929 428.194L543.489 418.662L546.314 408.263C546.314 408.263 529.854 417.127 506.666 423.792C500.082 425.67 495.103 426.518 495.103 426.518V433.586C495.103 433.586 482.706 435.727 470.169 435.727H470.026H469.844H469.6H469.457C456.918 435.727 444.523 433.586 444.523 433.586V426.518C444.523 426.518 439.523 425.67 432.96 423.792C409.772 417.127 393.332 408.263 393.332 408.263L396.116 418.662L398.738 428.194L389.43 431.728L379.106 435.565C390.954 441.24 407.354 449.519 422.372 453.598L418.836 463.21C418.836 463.21 437.877 471.833 469.6 471.914V471.935H469.701H469.844H469.965H470.047V471.914C501.809 471.833 520.83 463.21 520.83 463.21L517.274 453.598C532.292 449.519 548.732 441.24 560.519 435.565L550.216 431.728ZM390.121 436.211L405.403 431.162L400.892 416.522C407.618 420.318 422.717 426.013 431.455 428.658L424.078 448.792C410.585 445.097 399.347 440.795 390.121 436.211ZM469.844 466.866C452.103 466.866 431.841 462.806 425.887 460.706L434.951 436.332C442.47 438.513 458.118 440.836 469.477 440.755H469.498H469.844H470.148H470.189C481.549 440.836 497.156 438.513 504.715 436.332L513.759 460.706C507.804 462.827 487.563 466.866 469.844 466.866ZM515.567 448.792L508.211 428.658C516.97 426.013 532.028 420.318 538.774 416.522L534.284 431.162L549.545 436.211C540.298 440.795 529.122 445.097 515.567 448.792Z" fill="black"/>
    <path d="M469.823 51.2737C488.723 51.2737 503.843 57.4929 512.194 64.1366C512.194 64.1366 514.674 49.2948 523.148 36.1889L507.927 37.9052L499.961 21.0834L484.659 28.918L469.823 14.3389L455.029 28.918L439.707 21.0834L431.761 37.9052L416.54 36.1889C425.014 49.2948 427.494 64.1366 427.494 64.1366C435.866 57.4929 450.945 51.2737 469.823 51.2737ZM431.07 43.8014L435.297 44.2458L437.126 40.4292L442.451 29.1205L452.327 34.1893L456.147 36.1277L459.196 33.1396L469.844 22.6387L480.513 33.1396L483.561 36.1277L487.381 34.1893L497.197 29.1205L502.582 40.4292L504.371 44.2458L508.598 43.8014L512.621 43.3165C510.772 47.4571 509.411 51.3744 508.435 54.6252C497.786 48.729 483.927 45.3764 469.804 45.3764C455.74 45.3764 441.901 48.729 431.213 54.6252C430.217 51.3744 428.876 47.4363 427.026 43.3165L431.07 43.8014Z" fill="black"/>
    <path d="M691.552 248.227C715.999 248.227 724.168 223.509 724.514 222.459L727.237 213.756L718.072 214.038H718.031C714.8 214.038 687.834 213.331 668.71 189.179L666.901 186.937C654.404 171.146 642.556 156.142 621.381 149.296C621.991 148.75 622.865 148.064 624.064 147.297C635.301 139.946 641.845 131.02 643.491 120.661C645.889 105.07 635.891 92.6516 635.443 92.1459L628.636 83.7859L624.389 93.7012C624.105 94.3273 616.951 110.2 601.913 110.2H600.795C599.759 110.139 598.784 110.098 597.808 110.018C598.336 102.93 597.035 91.9642 587.038 81.6855C575.027 69.3064 560.274 67.449 552.551 67.449C548.426 67.449 545.682 67.9536 545.398 67.9941L535.115 70.0135L541.455 78.3133C546.435 84.7151 550.946 96.5284 545.601 102.708C543.894 104.666 540.379 106.262 537.005 107.857C530.075 111.028 520.626 115.43 520.626 126.659C520.626 133.928 526.296 141.521 536.579 147.983C567.02 167.006 585.798 186.856 593.906 208.768C606.445 242.472 590.085 261.696 574.194 271.814L567.061 276.378L573.3 282.072C574.133 282.799 581.774 289.484 593.052 290.452C595.186 290.594 597.239 290.715 599.149 290.715C606.384 290.715 612.542 289.584 617.541 288.07C616.159 290.473 614.472 292.916 612.338 295.38C603.254 305.84 592.078 310.606 576.002 310.849L570.028 310.95L569.561 316.907C569.5 318.098 569.052 329.145 579.579 338.535C581.184 339.989 583.135 341.18 585.168 342.17C578.035 348.551 570.78 359.658 569.378 378.701C568.199 394.593 564.379 400.47 564.338 400.531L557.733 410.547L569.663 410.709C589.374 410.709 604.473 405.297 614.939 394.593C621.116 388.253 624.653 381.104 626.746 374.763C630.18 377.671 634.611 380.216 640.382 381.569C642.577 382.073 644.975 382.357 647.556 382.357C653.124 382.357 657.777 381.185 658.306 381.064L665.927 379.045L662.553 371.976C662.309 371.411 655.949 357.235 662.797 337C665.744 328.256 667.247 320.421 667.979 314.322C672.775 316.806 679.196 318.866 687.508 318.886C706.366 318.886 714.679 304.891 715.064 304.306L718.783 297.884L711.894 295.057C689.418 285.788 684.44 260.888 683.444 247.399C685.476 247.782 687.792 248.146 690.414 248.227H691.552ZM709.374 301.015C709.374 301.015 702.79 312.383 687.691 312.383H687.508C669.381 312.283 662.065 301.297 662.065 301.297C662.065 301.297 663.122 315.595 656.578 334.879C648.714 358.124 656.639 374.743 656.639 374.743C656.639 374.743 652.413 375.874 647.535 375.874C645.666 375.874 643.715 375.692 641.886 375.207C626.746 371.633 622.967 357.941 622.967 357.941C622.967 357.941 624.368 404.207 570.089 404.207H569.663C569.663 404.207 574.438 397.745 575.86 379.145C578.441 344.815 601.832 340.11 601.832 340.11C601.832 340.11 589.354 338.555 583.948 333.729C575.495 326.115 576.084 317.311 576.084 317.311C595.186 317.048 607.685 310.586 617.215 299.621C627.539 287.747 629.246 274.964 629.246 274.964C629.246 274.964 618.983 284.213 599.128 284.213C597.381 284.213 595.511 284.132 593.602 283.95C584.213 283.203 577.71 277.266 577.71 277.266C598.377 264.099 612.886 241.119 600.023 206.505C589.72 178.779 564.968 158.059 540.054 142.449C531.762 137.301 527.149 131.585 527.149 126.659C527.149 115.066 543.731 114.703 550.539 106.908C558.384 97.8615 553.466 83.1796 546.658 74.3554C546.658 74.3554 548.955 73.8903 552.572 73.8903C559.745 73.8903 572.162 75.6875 582.364 86.1895C595.918 100.123 590.289 115.289 590.289 115.289L593.927 115.996C596.101 116.46 598.255 116.541 600.491 116.641C600.979 116.641 601.465 116.662 601.953 116.662C621.645 116.662 630.444 96.2055 630.444 96.2055C630.444 96.2055 651.376 121.791 620.568 141.824C615.264 145.257 612.928 148.428 613.537 151.82L614.024 154.041L616.219 154.425C638.553 160.443 649.852 175.75 663.651 193.158C684.603 219.632 714.252 220.48 717.91 220.48H718.296C718.296 220.48 711.529 241.704 691.593 241.704C691.267 241.704 690.983 241.704 690.638 241.684C681.472 241.361 676.778 237.867 676.778 237.867C676.778 237.867 673.181 286.071 709.374 301.015Z" fill="black"/>
    <path d="M648.616 151.961C657.74 156.786 663.044 163.249 667.698 168.984C672.27 174.578 676.619 179.97 683.406 182.211C685.824 183.039 688.386 183.423 690.987 183.423C701.189 183.423 711.43 177.223 715.312 168.64L719.214 160.038L709.764 159.472C709.317 159.453 697.164 158.361 683.63 144.61C678.061 138.975 671.336 136.007 664.08 136.007C655.22 136.007 648.656 140.409 647.925 140.853L639.227 146.932L648.616 151.961ZM664.101 142.509C668.653 142.509 673.957 144.044 678.976 149.194C694.725 165.086 709.377 165.975 709.377 165.975C706.715 171.832 698.994 176.98 691.006 176.98C689.157 176.98 687.308 176.698 685.459 176.072C674.628 172.437 670.746 156.282 651.704 146.225C651.704 146.225 657.028 142.509 664.101 142.509Z" fill="black"/>
    <path d="M652.885 237.766V238.088C647.399 194.106 615.249 162.341 579.483 143.014C576.17 141.258 573.122 139.764 570.156 138.33C581.048 140.006 598.585 140.208 612.12 128.536C612.12 128.536 591.412 143.681 548.98 129.929C560.726 137.502 583.547 148.185 604.377 165.491C656.462 210.968 619.191 255.335 619.191 255.335C637.908 235.928 638.68 215.128 633.172 198.145C643.029 214.441 649.329 234.232 648.353 258.626C646.911 293.582 627.585 323.813 607.242 348.107C597.468 359.899 595.273 374.379 595.273 374.379C595.273 374.379 599.215 361.596 610.534 348.45C632.34 323.086 650.974 296.733 653.413 258.767C655.669 265.654 664.957 284.818 679.689 292.028C679.73 292.048 661.217 280.961 652.885 237.766Z" fill="black"/>
    <path d="M375.308 400.508C375.287 400.448 371.508 394.571 370.289 378.679C368.865 359.635 361.631 348.529 354.478 342.147C356.551 341.178 358.461 339.986 360.066 338.512C370.573 329.122 370.126 318.076 370.065 316.884L369.659 310.926L363.643 310.826C347.609 310.563 336.412 305.797 327.328 295.357C325.215 292.894 323.507 290.45 322.125 288.047C327.125 289.561 333.242 290.692 340.496 290.692C342.447 290.692 344.459 290.571 346.593 290.43C357.871 289.46 365.513 282.797 366.366 282.049L372.605 276.355L365.472 271.79C349.52 261.653 333.221 242.429 345.739 208.744C353.848 186.834 372.605 166.983 403.087 147.96C413.37 141.498 419 133.905 419 126.635C419 115.408 409.57 110.985 402.641 107.835C399.268 106.239 395.752 104.644 394.044 102.685C388.68 96.5258 393.211 84.6918 398.17 78.29L404.551 69.9901L394.228 67.9708C393.923 67.9313 391.22 67.4257 387.074 67.4257C379.352 67.4257 364.639 69.2841 352.608 81.6632C342.59 91.9617 341.269 102.928 341.777 109.995C340.801 110.076 339.827 110.117 338.81 110.177H337.713C322.634 110.177 315.501 94.304 315.217 93.6779L310.969 83.7626L304.1 92.1237C303.714 92.6282 293.675 105.068 296.114 120.637C297.74 130.997 304.283 139.923 315.521 147.274C316.741 148.041 317.594 148.727 318.204 149.273C297.048 156.118 285.222 171.143 272.723 186.935L270.915 189.177C251.813 213.328 224.785 214.035 221.554 214.035L212.348 213.753L215.152 222.457C215.477 223.506 223.626 248.224 248.094 248.224L249.272 248.184C251.853 248.103 254.17 247.76 256.243 247.356C255.226 260.825 250.248 285.725 227.751 295.014L220.883 297.841L224.602 304.263C224.968 304.848 233.3 318.843 252.199 318.843C260.449 318.822 266.87 316.763 271.687 314.279C272.419 320.378 273.922 328.213 276.869 336.957C283.717 357.192 277.337 371.368 277.093 371.933L273.72 379.002L281.36 381.021C281.868 381.141 286.563 382.314 292.11 382.314C294.711 382.314 297.11 382.03 299.264 381.526C305.055 380.173 309.526 377.628 312.92 374.72C314.993 381.061 318.55 388.21 324.706 394.55C335.193 405.254 350.271 410.665 369.984 410.665L381.933 410.504L375.308 400.508ZM369.536 404.203C315.257 404.203 316.639 357.938 316.639 357.938C316.639 357.938 312.859 371.63 297.719 375.205C295.91 375.689 293.98 375.871 292.091 375.871C287.213 375.871 283.006 374.741 283.006 374.741C283.006 374.741 290.892 358.12 283.027 334.877C276.524 315.591 277.58 301.294 277.58 301.294C277.58 301.294 270.285 312.28 252.138 312.381H251.955C236.856 312.381 230.271 301.011 230.271 301.011C266.444 286.088 262.888 237.905 262.888 237.905C262.888 237.905 258.194 241.378 249.008 241.721C248.683 241.741 248.378 241.741 248.053 241.741C228.097 241.741 221.35 220.517 221.35 220.517H221.756C225.435 220.517 255.044 219.67 275.996 193.195C289.794 175.788 301.113 160.501 323.407 154.462L325.642 154.079L326.129 151.858C326.739 148.466 324.422 145.295 319.119 141.861C288.31 121.808 309.242 96.2434 309.242 96.2434C309.242 96.2434 318 116.679 337.733 116.679C338.22 116.679 338.668 116.66 339.176 116.66C341.391 116.538 343.586 116.457 345.739 115.993L349.377 115.286C349.377 115.286 343.748 100.12 357.323 86.1859C367.525 75.6652 379.942 73.8878 387.094 73.8878C390.732 73.8878 392.988 74.3529 392.988 74.3529C386.2 83.1978 381.283 97.859 389.127 106.905C395.914 114.681 412.476 115.064 412.476 126.655C412.476 131.563 407.863 137.298 399.572 142.447C374.637 158.057 349.885 178.776 339.602 206.503C326.759 241.116 341.249 264.076 361.957 277.263C361.957 277.263 355.453 283.201 346.045 283.947C344.134 284.129 342.285 284.21 340.496 284.21C320.662 284.21 310.4 274.961 310.4 274.961C310.4 274.961 312.107 287.744 322.369 299.618C331.962 310.584 344.459 317.046 363.562 317.308C363.562 317.308 364.172 326.113 355.718 333.726C350.292 338.532 337.814 340.107 337.814 340.107C337.814 340.107 361.225 344.813 363.785 379.143C365.188 397.741 369.922 404.203 369.922 404.203H369.536Z" fill="black"/>
    <path d="M248.641 183.445C251.262 183.445 253.823 183.062 256.242 182.234C263.069 179.992 267.398 174.6 271.97 169.007C276.644 163.272 281.907 156.81 291.032 151.983L300.42 146.975L291.703 140.896C290.971 140.432 284.427 136.05 275.587 136.05C268.312 136.05 261.566 138.999 256.017 144.653C242.484 158.385 230.352 159.496 229.904 159.516L220.455 160.061L224.336 168.683C228.238 177.226 238.459 183.445 248.641 183.445ZM260.672 149.217C265.712 144.067 271.015 142.533 275.587 142.533C282.618 142.533 287.944 146.248 287.944 146.248C268.922 156.325 265.02 172.46 254.148 176.095C252.36 176.721 250.49 177.004 248.641 177.004C240.654 177.004 232.932 171.875 230.29 165.998C230.29 165.978 244.922 165.089 260.672 149.217Z" fill="black"/>
    <path d="M291.297 258.647C290.28 234.252 296.58 214.462 306.456 198.166C300.949 215.148 301.701 235.949 320.438 255.355C320.438 255.355 283.168 210.988 335.273 165.512C356.123 148.205 378.924 137.522 390.649 129.949C348.239 143.702 327.531 128.556 327.531 128.556C341.064 140.228 358.603 140.027 369.495 138.33C366.548 139.764 363.46 141.258 360.187 143.016C324.381 162.341 292.252 194.106 286.745 238.089V237.746C278.433 280.941 259.94 292.028 259.94 292.028C274.654 284.818 283.92 265.674 286.176 258.767C288.635 296.733 307.269 323.086 329.075 348.45C340.394 361.596 344.377 374.379 344.377 374.379C344.377 374.379 342.162 359.9 332.346 348.107C312.045 323.854 292.719 293.603 291.297 258.647Z" fill="black"/>
    <path d="M457.572 169.651V178.376C460.601 174.72 466.454 175.468 466.454 175.468V188.048C466.454 188.048 466.25 194.228 464.035 196.914H470.375H476.696C474.521 194.249 474.298 188.048 474.298 188.048V175.468C474.298 175.468 480.15 174.72 483.158 178.376V169.651H470.375H457.572Z" fill="black"/>
    <path d="M452.123 117.913C456.167 121.105 458.504 121.629 458.585 121.69L460.17 122.417V114.198L445.294 107.978C445.294 107.998 445.436 112.744 452.123 117.913Z" fill="black"/>
    <path d="M487.506 117.913C494.233 112.744 494.355 107.978 494.355 107.978L479.479 114.198V122.417L481.044 121.69C481.146 121.629 483.462 121.105 487.506 117.913Z" fill="black"/>
    <path d="M514.309 84.4519C514.309 71.9929 493.194 60.7849 469.885 60.7849H469.865H469.804H469.743C446.434 60.7849 425.32 71.9929 425.32 84.4519L425.787 87.522L435.094 140.612L425.747 146.004L401.564 160.039H401.645C401.645 160.039 396.199 162.806 393.679 164.522C384.473 170.883 382.522 180.152 387.867 183.989C389.188 176.437 395.202 168.52 406.461 168.52C414.57 168.52 420.747 172.681 425.747 178.921C427.027 180.496 428.246 182.171 429.384 183.989C430.786 186.271 432.188 188.27 433.591 190.209H371.305C375.877 199.356 380.225 209.05 380.225 219.571V356.568C380.225 389.727 405.892 405.559 433.652 405.559C455.111 405.559 457.997 404.59 469.844 416.303C481.631 404.569 484.517 405.559 505.996 405.559C533.777 405.559 559.402 389.727 559.402 356.568V219.571C559.402 209.05 563.751 199.356 568.343 190.209H506.038C507.42 188.291 508.821 186.271 510.224 183.989C511.382 182.171 512.581 180.496 513.841 178.921C518.881 172.66 525.038 168.52 533.147 168.52C544.404 168.52 550.399 176.416 551.741 183.989C557.086 180.152 555.156 170.883 545.888 164.522C543.409 162.806 537.963 160.039 537.963 160.039H538.044L513.861 146.004L504.554 140.612L513.861 87.522L514.309 84.4519ZM434.485 90.6316L467.203 101.658V152.729L443.122 140.108L434.485 90.6316ZM441.252 199.115C446.617 204.425 451.88 207.718 456.88 209.535C456.229 212.099 455.375 217.39 457.793 222.661C459.765 226.901 463.342 230.173 468.483 232.354C469.052 237.605 472.385 245.501 481.631 248.994C477.587 253.053 473.644 256.87 472.039 258.425L434.546 257.839C433.692 257.415 432.249 256.466 431.599 255.113C431.517 254.931 431.396 254.83 431.334 254.628L437.452 255.617C437.594 255.638 437.716 255.638 437.838 255.638C439.017 255.638 440.053 254.83 440.256 253.619C440.46 252.266 439.545 251.034 438.224 250.832L430.705 249.661L439.057 221.005L431.152 204.466L418.472 217.794L417.699 247.601L409.184 246.268C407.863 246.005 406.603 246.975 406.38 248.287C406.177 249.6 407.07 250.832 408.412 251.074L411.989 251.619C410.708 252.346 409.875 252.912 409.773 252.993L409.042 253.497L408.839 254.386C406.766 262.746 411.46 270.682 416.521 274.236L416.337 275.287C416.134 276.58 416.419 277.832 417.19 278.882C417.922 279.952 419.06 280.598 420.321 280.82C420.584 280.86 420.869 280.88 421.113 280.88C423.308 280.88 425.218 279.366 425.766 277.165C427.657 277.388 429.384 277.428 430.562 277.428H431.559L480.757 286.252L481.59 285.707C485.513 282.981 500.449 272.157 505.346 268.582C506.688 269.734 508.191 270.783 510.021 271.652C508.435 276.943 508.333 285.081 514.613 291.503H389.228V219.591C389.228 212.624 387.175 205.617 384.757 199.155H441.252V199.115ZM502.054 264.907C497.076 268.542 484.273 277.832 479.639 281.063L434.932 273.086C435.034 272.682 435.134 272.298 435.236 271.894C435.826 269.592 436.416 266.442 436.456 262.746L474.031 263.352L474.742 262.626C475.311 262.06 487.22 250.63 493.295 244.046C494.739 245.844 496.547 247.561 498.905 249.075C498.092 253.437 498.437 259.656 502.054 264.907ZM427.21 257.213C428.266 259.414 430.177 260.889 431.497 261.716C431.457 263.776 431.254 266.987 430.705 269.814C430.583 270.441 430.42 271.026 430.237 271.612C430.135 271.975 430.035 272.278 429.953 272.52C427.982 272.52 424.1 272.278 420.93 271.127C417.415 269.834 412.171 263.433 413.39 256.385C414.915 255.456 418.43 253.497 421.722 253.497C424.263 253.478 425.991 254.668 427.21 257.213ZM422.556 248.348L423.308 219.733L429.77 212.928L433.835 221.369L425.828 248.832L422.556 248.348ZM501.648 396.694C499.209 396.694 496.954 396.735 494.921 396.815L500.245 380.357C501.079 378.075 496.872 375.147 495.146 372.582C497.766 374.218 504.554 377.792 507.826 379.226C507.48 379.751 501.648 396.694 501.648 396.694ZM518.353 377.994L514.878 396.007C512.662 396.31 510.305 396.472 507.887 396.573L511.545 379.246C512.642 374.097 498.721 372.502 491.853 362.384C488.5 366.141 482.18 367.251 475.839 367.251C470.048 367.251 464.256 366.322 460.74 365.636C459.846 365.494 458.993 365.393 458.16 365.393C456.127 365.393 454.278 366.019 452.998 368.16L451.981 369.857L433.022 365.414L428.307 373.167C427.636 374.42 427.596 375.49 428.672 376.661L429.953 378.055C429.079 380.802 425.137 384.941 425.137 384.941L422.312 381.448C420.077 378.964 420.442 374.44 422.779 370.24L430.298 357.619L446.353 359.92L443.853 354.266C440.5 346.795 445.601 337.283 446.149 331.811C445.967 333.467 444.442 333.83 442.654 333.83C441.029 333.83 439.22 333.527 438.021 333.527C437.554 333.527 437.147 333.567 436.923 333.728L432.574 336.354L429.14 333.345C428.734 332.76 428.591 331.407 429.608 330.397L437.554 321.552L428.165 310.667L441.313 317.231L445.317 312.404C446.413 313.474 445.946 316.28 445.946 316.28C450.051 316.382 461.553 322.703 462.163 337.444C462.204 337.889 462.204 338.393 462.204 338.878C462.204 338.878 462.306 339.06 462.508 339.363C463.321 340.474 465.556 343.321 468.401 343.583L486.57 345.361H486.651C488.642 345.361 492.605 343.038 497.685 343.038C500.449 343.038 503.538 343.745 506.83 345.805C506.83 345.805 508.476 344.513 511.159 344.372C511.362 344.351 511.585 344.351 511.789 344.351C519.938 344.351 523.311 351.661 527.68 357.74C530.973 362.364 535.361 369.23 535.361 369.23C533.736 371.148 532.232 372.199 529.712 372.199C529.022 372.199 528.228 372.138 527.375 371.977C518.637 370.381 517.377 352.529 512.398 351.116C512.135 351.035 511.85 351.015 511.606 351.015C510 351.015 509.289 352.428 509.289 352.428C511.565 358.507 510.244 360.971 512.683 365.656C514.512 369.129 517.763 371.996 519.104 373.349C519.104 373.39 518.739 376.015 518.353 377.994ZM420.788 360.95L421.621 363.03C421.072 364.848 414.772 367.433 414.772 367.433L413.411 364.485C411.968 361.335 412.273 356.023 416.663 352.772L426.864 346.592L437.675 348.874C437.472 352.287 439.524 354.832 439.524 354.832L428.184 352.671L421.397 357.336C420.259 358.123 420.178 359.598 420.788 360.95ZM520.059 395.017L523.169 378.903C523.331 377.954 523.535 376.843 523.677 375.915C524.551 376.278 525.485 376.58 526.502 376.763C527.659 376.984 528.737 377.086 529.712 377.086C534.467 377.086 537.231 374.601 539.08 372.481L541.479 369.714L539.528 366.686C539.345 366.382 535.036 359.597 531.704 354.952C531.054 354.044 530.423 353.135 529.793 352.146C526.014 346.532 521.278 339.484 511.789 339.484L510.935 339.504C509.371 339.605 508.029 339.908 506.952 340.312C503.964 338.919 500.896 338.212 497.706 338.212C493.783 338.212 490.471 339.282 488.276 340.03C487.646 340.211 487.077 340.413 486.63 340.494L468.889 338.757C468.666 338.717 467.934 338.293 467.061 337.243V337.162L470.901 335.627C469.825 322.925 457.549 315.109 450.701 312.464C450.397 311.192 449.787 309.92 448.71 308.89L444.889 305.296L441.536 309.294L439.891 311.333L415.057 301.196L431.213 321.349L424.832 330.942C422.495 333.405 425.076 335.869 425.076 335.869L431.659 340.372L438.488 337.848C438.732 337.848 438.936 337.909 439.159 337.929C438.834 338.959 438.407 342.998 438.123 344.129L426.275 341.806L413.817 348.793C407.416 353.458 406.542 361.193 408.92 366.483L410.302 369.492L412.273 373.733L416.621 371.936C416.683 371.916 416.744 371.896 416.784 371.855C415.22 376.823 415.85 381.548 418.654 384.659L421.296 387.97L424.811 392.393L428.672 388.273C429.81 387.142 433.489 383.043 434.627 379.529L435.46 376.843L433.57 374.783L433.266 374.42L435.378 370.947L450.843 374.561L454.318 375.349L456.167 372.32L457.184 370.664C457.367 370.321 457.428 370.26 458.139 370.26C458.688 370.26 459.236 370.321 459.826 370.442C465.658 371.532 471.044 372.077 475.819 372.077C480.452 372.077 483.216 371.896 486.529 370.805C486.529 370.805 494.84 380.176 495.125 380.539L490.045 396.128L489.82 397.077C480.188 397.845 475.493 399.945 469.825 405.58C461.593 397.462 455.761 396.613 433.631 396.613C407.151 396.613 389.207 381.185 389.207 356.548V296.309H550.399L550.441 356.548C550.461 376.541 538.654 390.474 520.059 395.017ZM554.912 199.115C552.452 205.577 550.399 212.584 550.399 219.552L550.42 264.503C540.971 262.928 539.853 252.811 539.812 252.367L539.63 250.307L537.598 250.125C533.492 249.741 530.769 248.005 528.472 245.783C523.84 241.179 523.819 233.707 523.84 233.647C523.779 234.03 518.739 241.037 524.591 248.691C527.05 251.922 530.606 253.901 535.219 254.689C536.297 260.303 540.503 268.219 550.42 269.43V291.442H522.539C509.675 284.333 515.122 271.813 515.385 271.289L516.483 268.906L514.024 267.977C500.103 262.848 503.924 249.035 504.127 248.449L504.696 246.43L502.807 245.541C491.304 240.25 492.869 225.973 493.011 225.388C489.476 228.235 488.195 234.051 490.633 239.746C489.313 241.24 487.545 243.057 485.614 245.037C473.706 242.027 473.34 231.143 473.34 230.638L473.319 228.961L471.755 228.356C467.101 226.64 463.911 224.074 462.346 220.621C460.578 216.804 461.208 212.806 461.695 210.887C463.057 211.191 464.418 211.413 465.719 211.513C467.061 211.656 468.443 211.736 469.825 211.736H469.906H470.007C471.389 211.736 472.75 211.656 474.092 211.513C481.509 210.787 489.82 207.617 498.477 199.095H554.912V199.115ZM511.464 153.677L522.478 160.039H522.641L525.404 161.635C519.185 163.351 514.43 166.441 510.447 170.499C510.305 170.621 510.163 170.783 510.021 170.924C509.106 171.893 508.191 172.943 507.338 174.014C507.176 174.215 507.013 174.437 506.83 174.66C505.977 175.75 505.184 176.861 504.412 178.032C504.289 178.234 504.147 178.436 504.005 178.617C503.091 179.97 502.217 181.425 501.343 182.919C493.499 196.348 480.981 204.365 469.844 204.386C458.729 204.365 446.211 196.348 438.367 182.919C437.512 181.465 436.659 180.051 435.745 178.679C435.561 178.416 435.399 178.153 435.236 177.931C434.465 176.82 433.692 175.73 432.899 174.7C432.697 174.418 432.514 174.195 432.31 173.953C431.457 172.923 430.583 171.893 429.709 170.944C429.526 170.802 429.404 170.621 429.222 170.459C425.218 166.4 420.483 163.33 414.244 161.635L417.048 160.039H417.171L428.184 153.677L439.504 147.236L469.743 163.593L469.804 163.533L469.885 163.593L500.124 147.236L511.464 153.677ZM496.547 140.127L472.445 152.749V101.658L505.143 90.6316L496.547 140.127ZM469.825 96.044L433.977 81.9684C437.025 74.7993 451.087 68.7006 469.825 68.6808C488.581 68.7006 502.644 74.7993 505.671 81.9684L469.825 96.044Z" fill="black"/>
    <path d="M64.4828 676.196V612.981H101.797V589.977H0V612.981H37.3128V676.196H64.4828ZM138.934 640.151V589.977H112.67V676.196H135.856L181.138 626.022V676.196H207.403V589.977H184.217L138.934 640.151ZM295.762 644.136V676.196H322.026V589.977H295.762V621.493H253.557V589.977H227.294V676.196H253.557V644.136H295.762ZM395.17 676.196C401.147 676.196 406.581 675.653 411.653 674.203C425.238 670.399 434.114 659.35 434.114 644.316C434.114 630.007 426.505 620.045 414.37 615.516C408.574 613.343 401.691 613.161 395.17 613.161H368.181V589.977H341.917V676.196H395.17ZM390.642 633.449C394.264 633.449 397.705 633.449 400.785 634.536C405.132 635.984 407.668 639.607 407.668 643.954C407.668 648.483 405.132 652.287 400.966 654.098C398.068 655.365 395.17 655.365 390.642 655.365H368.181V633.449H390.642ZM481.205 643.592L512.541 676.196H547.5L503.847 631.275L545.869 589.977H512.904L481.205 622.4H473.96V589.977H447.695V676.196H473.96V643.592H481.205ZM601.543 587.622C566.222 587.622 545.029 607.546 545.029 633.267C545.029 658.989 566.222 678.913 601.543 678.913C636.682 678.913 657.875 658.989 657.875 633.267C657.875 607.546 636.682 587.622 601.543 587.622ZM601.543 657.902C583.973 657.902 572.742 647.396 572.742 633.267C572.742 619.139 583.973 608.814 601.543 608.814C618.931 608.814 630.343 619.139 630.343 633.267C630.343 647.396 618.931 657.902 601.543 657.902ZM745.344 585.086H719.08V593.78C686.114 594.505 666.37 608.452 666.37 633.086C666.37 657.72 686.114 670.581 719.08 671.306V680H745.344V671.306C778.491 670.581 798.234 657.72 798.234 633.086C798.234 608.452 778.491 594.505 745.344 593.78V585.086ZM719.08 652.83C700.967 652.105 692.996 644.679 692.996 633.086C692.996 621.493 700.967 613.161 719.08 612.437V652.83ZM745.344 612.437C763.639 613.161 771.427 621.493 771.427 633.086C771.427 644.679 763.639 652.105 745.344 652.83V612.437ZM885.616 585.086H859.351V593.78C826.386 594.505 806.642 608.452 806.642 633.086C806.642 657.72 826.386 670.581 859.351 671.306V680H885.616V671.306C918.759 670.581 938.507 657.72 938.507 633.086C938.507 608.452 918.759 594.505 885.616 593.78V585.086ZM859.351 652.83C841.238 652.105 833.268 644.679 833.268 633.086C833.268 621.493 841.238 613.161 859.351 612.437V652.83ZM885.616 612.437C903.912 613.161 911.699 621.493 911.699 633.086C911.699 644.679 903.912 652.105 885.616 652.83V612.437Z" fill="black"/>
</svg>
