<svg xmlns="http://www.w3.org/2000/svg" width="95" height="97" fill="none"><g opacity=".5"><ellipse cx="116.449" cy="64.25" stroke="url(#a)" stroke-width="1.272" opacity=".226" rx="103.621" ry="104.003"/><ellipse cx="116.404" cy="64.213" stroke="url(#b)" stroke-width="1.272" opacity=".183" rx="139.347" ry="138.81"/><path fill="url(#c)" fill-rule="evenodd" d="M185.991-9.052c-70.26.612-127.72 58.191-128.338 128.608-.62 70.416 55.837 127.004 126.097 126.393 70.261-.612 127.72-58.191 128.339-128.607.619-70.417-55.837-127.005-126.098-126.394Zm-.473 45.238c-45.425.396-82.574 37.544-82.973 82.973-.399 45.43 36.102 81.937 81.527 81.542 45.426-.395 82.574-37.544 82.973-82.973.399-45.43-36.102-81.937-81.527-81.542Z" clip-rule="evenodd" opacity=".2"/><path fill="#fff" fill-rule="evenodd" d="M8.665 75.617c-35.864 20.707-48.16 66.553-27.464 102.4 20.697 35.848 66.548 48.122 102.413 27.416 35.865-20.707 48.161-66.553 27.464-102.4C90.382 67.185 44.53 54.911 8.665 75.617ZM22.413 99.43C-.284 112.533-8.06 141.555 5.043 164.251c13.105 22.697 42.126 30.473 64.823 17.369 22.696-13.103 30.472-42.125 17.369-64.822C74.13 94.102 45.109 86.326 22.413 99.429Z" clip-rule="evenodd" opacity=".5"/></g><defs><radialGradient id="a" cx="0" cy="0" r="1" gradientTransform="matrix(103.621 0 0 104.003 116.449 64.25)" gradientUnits="userSpaceOnUse"><stop stop-color="#2FC6F6"/><stop offset="1" stop-color="#2FF6EA"/></radialGradient><radialGradient id="b" cx="0" cy="0" r="1" gradientTransform="matrix(139.347 0 0 138.81 116.404 64.213)" gradientUnits="userSpaceOnUse"><stop stop-color="#2FC6F6"/><stop offset="1" stop-color="#55D0E0"/></radialGradient><radialGradient id="c" cx="0" cy="0" r="1" gradientTransform="rotate(29.008 -136.582 416.354) scale(160.657 162.984)" gradientUnits="userSpaceOnUse"><stop stop-color="#2FC6F6"/><stop offset="1" stop-color="#2FEAF6"/></radialGradient></defs></svg>