<svg width="120px" height="74px" viewBox="0 0 120 74" version="1.1" xmlns="http://www.w3.org/2000/svg" xmlns:xlink="http://www.w3.org/1999/xlink">
    <g id="В-отрисовку" stroke="none" stroke-width="1" fill="none" fill-rule="evenodd">
        <g id="02_Дизайн-слайдер-вкладки-Copy-2" transform="translate(-622.000000, -1872.000000)">
            <g id="Group-24-Copy-3" transform="translate(622.000000, 1872.000000)">
                <rect id="Rectangle-24" fill="#FFFFFF" x="0" y="0" width="120" height="74" rx="2"></rect>
                <g id="Rectangle-12" transform="translate(9.000000, 19.000000)">
                    <rect fill="#2FC6F6" fill-rule="evenodd" opacity="0.25" x="3" y="3" width="23" height="22"></rect>
                    <rect id="Rectangle-12-Copy" opacity="0.197293931" x="0" y="0" width="29" height="28" rx="2"></rect>
                    <path d="M3.71875,29 C3.32179534,29 3,28.5522847 3,28 C3,27.4477153 3.32179534,27 3.71875,27 L25.28125,27 C25.6782047,27 26,27.4477153 26,28 C26,28.5522847 25.6782047,29 25.28125,29 L3.71875,29 Z" id="Rectangle-12-Copy-2" fill="#525C69" fill-rule="evenodd" opacity="0.200000003"></path>
                    <path d="M3.71875,33 C3.32179534,33 3,32.5522847 3,32 C3,31.4477153 3.32179534,31 3.71875,31 L25.28125,31 C25.6782047,31 26,31.4477153 26,32 C26,32.5522847 25.6782047,33 25.28125,33 L3.71875,33 Z" id="Rectangle-12-Copy-3" fill="#525C69" fill-rule="evenodd" opacity="0.200000003"></path>
                    <circle id="Oval-4" fill="#3AA8CB" fill-rule="evenodd" cx="19.5" cy="9.5" r="2.5"></circle>
                    <polygon id="Path-2" fill="#3AA8CB" fill-rule="evenodd" points="5 23 5 19.2352941 10.34375 15 16.875 20.1764706 19.25 18.2941176 23.7130099 21.8313639 24 23"></polygon>
                </g>
                <g id="Rectangle-12" transform="translate(45.000000, 19.000000)">
                    <rect fill="#2FC6F6" fill-rule="evenodd" opacity="0.25" x="3" y="3" width="23" height="22"></rect>
                    <rect id="Rectangle-12-Copy" opacity="0.197293931" x="0" y="0" width="29" height="28" rx="2"></rect>
                    <path d="M3.71875,29 C3.32179534,29 3,28.5522847 3,28 C3,27.4477153 3.32179534,27 3.71875,27 L25.28125,27 C25.6782047,27 26,27.4477153 26,28 C26,28.5522847 25.6782047,29 25.28125,29 L3.71875,29 Z" id="Rectangle-12-Copy-2" fill="#525C69" fill-rule="evenodd" opacity="0.200000003"></path>
                    <path d="M3.71875,33 C3.32179534,33 3,32.5522847 3,32 C3,31.4477153 3.32179534,31 3.71875,31 L25.28125,31 C25.6782047,31 26,31.4477153 26,32 C26,32.5522847 25.6782047,33 25.28125,33 L3.71875,33 Z" id="Rectangle-12-Copy-3" fill="#525C69" fill-rule="evenodd" opacity="0.200000003"></path>
                    <circle id="Oval-4" fill="#3AA8CB" fill-rule="evenodd" cx="19.5" cy="9.5" r="2.5"></circle>
                    <polygon id="Path-2" fill="#3AA8CB" fill-rule="evenodd" points="5 23 5 19.2352941 10.34375 15 16.875 20.1764706 19.25 18.2941176 23.7130099 21.8313639 24 23"></polygon>
                </g>
                <g id="Rectangle-12" transform="translate(80.000000, 19.000000)">
                    <rect fill="#2FC6F6" fill-rule="evenodd" opacity="0.25" x="3" y="3" width="23" height="22"></rect>
                    <rect id="Rectangle-12-Copy" opacity="0.197293931" x="0" y="0" width="29" height="28" rx="2"></rect>
                    <path d="M3.71875,29 C3.32179534,29 3,28.5522847 3,28 C3,27.4477153 3.32179534,27 3.71875,27 L25.28125,27 C25.6782047,27 26,27.4477153 26,28 C26,28.5522847 25.6782047,29 25.28125,29 L3.71875,29 Z" id="Rectangle-12-Copy-2" fill="#525C69" fill-rule="evenodd" opacity="0.200000003"></path>
                    <path d="M3.71875,33 C3.32179534,33 3,32.5522847 3,32 C3,31.4477153 3.32179534,31 3.71875,31 L25.28125,31 C25.6782047,31 26,31.4477153 26,32 C26,32.5522847 25.6782047,33 25.28125,33 L3.71875,33 Z" id="Rectangle-12-Copy-3" fill="#525C69" fill-rule="evenodd" opacity="0.200000003"></path>
                    <circle id="Oval-4" fill="#3AA8CB" fill-rule="evenodd" cx="19.5" cy="9.5" r="2.5"></circle>
                    <polygon id="Path-2" fill="#3AA8CB" fill-rule="evenodd" points="5 23 5 19.2352941 10.34375 15 16.875 20.1764706 19.25 18.2941176 23.7130099 21.8313639 24 23"></polygon>
                </g>
            </g>
        </g>
    </g>
</svg>