<svg width="120px" height="74px" viewBox="0 0 120 74" version="1.1" xmlns="http://www.w3.org/2000/svg" xmlns:xlink="http://www.w3.org/1999/xlink">
    <g id="В-отрисовку" stroke="none" stroke-width="1" fill="none" fill-rule="evenodd">
        <g id="02_Дизайн-слайдер-вкладки-Copy-2" transform="translate(-487.000000, -2140.000000)">
            <g id="Group-25-Copy" transform="translate(487.000000, 2140.000000)">
                <rect id="Rectangle-24" fill="#FFFFFF" x="0" y="0" width="120" height="74" rx="2"></rect>
                <g id="Group-23-Copy" transform="translate(66.000000, 9.000000)">
                    <g>
                        <rect id="Rectangle-12" fill="#2FC6F6" opacity="0.25" x="4" y="4" width="40" height="37"></rect>
                        <rect id="Rectangle-12-Copy" opacity="0.197293931" x="0" y="0" width="48" height="45" rx="2"></rect>
                        <path d="M5.25,47 C4.55964406,47 4,46.3284271 4,45.5 C4,44.6715729 4.55964406,44 5.25,44 L42.75,44 C43.4403559,44 44,44.6715729 44,45.5 C44,46.3284271 43.4403559,47 42.75,47 L5.25,47 Z" id="Rectangle-12-Copy-2" fill="#525C69" opacity="0.200000003"></path>
                        <path d="M5.25,53 C4.55964406,53 4,52.3284271 4,51.5 C4,50.6715729 4.55964406,50 5.25,50 L42.75,50 C43.4403559,50 44,50.6715729 44,51.5 C44,52.3284271 43.4403559,53 42.75,53 L5.25,53 Z" id="Rectangle-12-Copy-3" fill="#525C69" opacity="0.200000003"></path>
                        <circle id="Oval-4" fill="#3AA8CB" cx="32.5" cy="14.5" r="4.5"></circle>
                        <polygon id="Path-2" fill="#3AA8CB" points="7 38 7 30.4705882 16.5625 22 28.25 32.3529412 32.5 28.5882353 40.4864387 35.6627277 41 38"></polygon>
                    </g>
                </g>
                <g id="-1" transform="translate(8.000000, 13.000000)">
                    <rect id="Rectangle-12" fill="#2FC6F6" opacity="0.25" x="0" y="0" width="13" height="12"></rect>
                    <path d="M0.40625,15 C0.18188432,15 -2.74768711e-17,14.5522847 0,14 C2.74768711e-17,13.4477153 0.18188432,13 0.40625,13 L12.59375,13 C12.8181157,13 13,13.4477153 13,14 C13,14.5522847 12.8181157,15 12.59375,15 L0.40625,15 Z" id="Rectangle-12-Copy-2" fill="#525C69" opacity="0.200000003"></path>
                    <path d="M0.40625,18 C0.18188432,18 -2.74768711e-17,17.5522847 0,17 C2.74768711e-17,16.4477153 0.18188432,16 0.40625,16 L12.59375,16 C12.8181157,16 13,16.4477153 13,17 C13,17.5522847 12.8181157,18 12.59375,18 L0.40625,18 Z" id="Rectangle-12-Copy-3" fill="#525C69" opacity="0.200000003"></path>
                    <circle id="Oval-4" fill="#3AA8CB" cx="9.5" cy="3.5" r="1.5"></circle>
                    <polygon id="Path-2" fill="#3AA8CB" points="1 11 1 8.64705882 4.09375 6 7.875 9.23529412 9.25 8.05882353 11.8338478 10.2696024 12 11"></polygon>
                </g>
                <g id="-1" transform="translate(8.000000, 38.000000)">
                    <rect id="Rectangle-12" fill="#2FC6F6" opacity="0.25" x="0" y="0" width="13" height="12"></rect>
                    <path d="M0.40625,15 C0.18188432,15 -2.74768711e-17,14.5522847 0,14 C2.74768711e-17,13.4477153 0.18188432,13 0.40625,13 L12.59375,13 C12.8181157,13 13,13.4477153 13,14 C13,14.5522847 12.8181157,15 12.59375,15 L0.40625,15 Z" id="Rectangle-12-Copy-2" fill="#525C69" opacity="0.200000003"></path>
                    <path d="M0.40625,18 C0.18188432,18 -2.74768711e-17,17.5522847 0,17 C2.74768711e-17,16.4477153 0.18188432,16 0.40625,16 L12.59375,16 C12.8181157,16 13,16.4477153 13,17 C13,17.5522847 12.8181157,18 12.59375,18 L0.40625,18 Z" id="Rectangle-12-Copy-3" fill="#525C69" opacity="0.200000003"></path>
                    <circle id="Oval-4" fill="#3AA8CB" cx="9.5" cy="3.5" r="1.5"></circle>
                    <polygon id="Path-2" fill="#3AA8CB" points="1 11 1 8.64705882 4.09375 6 7.875 9.23529412 9.25 8.05882353 11.8338478 10.2696024 12 11"></polygon>
                </g>
                <g id="-1" transform="translate(27.000000, 13.000000)">
                    <rect id="Rectangle-12" fill="#2FC6F6" opacity="0.25" x="0" y="0" width="13" height="12"></rect>
                    <path d="M0.40625,15 C0.18188432,15 -2.74768711e-17,14.5522847 0,14 C2.74768711e-17,13.4477153 0.18188432,13 0.40625,13 L12.59375,13 C12.8181157,13 13,13.4477153 13,14 C13,14.5522847 12.8181157,15 12.59375,15 L0.40625,15 Z" id="Rectangle-12-Copy-2" fill="#525C69" opacity="0.200000003"></path>
                    <path d="M0.40625,18 C0.18188432,18 -2.74768711e-17,17.5522847 0,17 C2.74768711e-17,16.4477153 0.18188432,16 0.40625,16 L12.59375,16 C12.8181157,16 13,16.4477153 13,17 C13,17.5522847 12.8181157,18 12.59375,18 L0.40625,18 Z" id="Rectangle-12-Copy-3" fill="#525C69" opacity="0.200000003"></path>
                    <circle id="Oval-4" fill="#3AA8CB" cx="9.5" cy="3.5" r="1.5"></circle>
                    <polygon id="Path-2" fill="#3AA8CB" points="1 11 1 8.64705882 4.09375 6 7.875 9.23529412 9.25 8.05882353 11.8338478 10.2696024 12 11"></polygon>
                </g>
                <g id="-1" transform="translate(27.000000, 38.000000)">
                    <rect id="Rectangle-12" fill="#2FC6F6" opacity="0.25" x="0" y="0" width="13" height="12"></rect>
                    <path d="M0.40625,15 C0.18188432,15 -2.74768711e-17,14.5522847 0,14 C2.74768711e-17,13.4477153 0.18188432,13 0.40625,13 L12.59375,13 C12.8181157,13 13,13.4477153 13,14 C13,14.5522847 12.8181157,15 12.59375,15 L0.40625,15 Z" id="Rectangle-12-Copy-2" fill="#525C69" opacity="0.200000003"></path>
                    <path d="M0.40625,18 C0.18188432,18 -2.74768711e-17,17.5522847 0,17 C2.74768711e-17,16.4477153 0.18188432,16 0.40625,16 L12.59375,16 C12.8181157,16 13,16.4477153 13,17 C13,17.5522847 12.8181157,18 12.59375,18 L0.40625,18 Z" id="Rectangle-12-Copy-3" fill="#525C69" opacity="0.200000003"></path>
                    <circle id="Oval-4" fill="#3AA8CB" cx="9.5" cy="3.5" r="1.5"></circle>
                    <polygon id="Path-2" fill="#3AA8CB" points="1 11 1 8.64705882 4.09375 6 7.875 9.23529412 9.25 8.05882353 11.8338478 10.2696024 12 11"></polygon>
                </g>
                <g id="-1" transform="translate(46.000000, 13.000000)">
                    <rect id="Rectangle-12" fill="#2FC6F6" opacity="0.25" x="0" y="0" width="13" height="12"></rect>
                    <path d="M0.40625,15 C0.18188432,15 -2.74768711e-17,14.5522847 0,14 C2.74768711e-17,13.4477153 0.18188432,13 0.40625,13 L12.59375,13 C12.8181157,13 13,13.4477153 13,14 C13,14.5522847 12.8181157,15 12.59375,15 L0.40625,15 Z" id="Rectangle-12-Copy-2" fill="#525C69" opacity="0.200000003"></path>
                    <path d="M0.40625,18 C0.18188432,18 -2.74768711e-17,17.5522847 0,17 C2.74768711e-17,16.4477153 0.18188432,16 0.40625,16 L12.59375,16 C12.8181157,16 13,16.4477153 13,17 C13,17.5522847 12.8181157,18 12.59375,18 L0.40625,18 Z" id="Rectangle-12-Copy-3" fill="#525C69" opacity="0.200000003"></path>
                    <circle id="Oval-4" fill="#3AA8CB" cx="9.5" cy="3.5" r="1.5"></circle>
                    <polygon id="Path-2" fill="#3AA8CB" points="1 11 1 8.64705882 4.09375 6 7.875 9.23529412 9.25 8.05882353 11.8338478 10.2696024 12 11"></polygon>
                </g>
                <g id="-1" transform="translate(46.000000, 38.000000)">
                    <rect id="Rectangle-12" fill="#2FC6F6" opacity="0.25" x="0" y="0" width="13" height="12"></rect>
                    <path d="M0.40625,15 C0.18188432,15 -2.74768711e-17,14.5522847 0,14 C2.74768711e-17,13.4477153 0.18188432,13 0.40625,13 L12.59375,13 C12.8181157,13 13,13.4477153 13,14 C13,14.5522847 12.8181157,15 12.59375,15 L0.40625,15 Z" id="Rectangle-12-Copy-2" fill="#525C69" opacity="0.200000003"></path>
                    <path d="M0.40625,18 C0.18188432,18 -2.74768711e-17,17.5522847 0,17 C2.74768711e-17,16.4477153 0.18188432,16 0.40625,16 L12.59375,16 C12.8181157,16 13,16.4477153 13,17 C13,17.5522847 12.8181157,18 12.59375,18 L0.40625,18 Z" id="Rectangle-12-Copy-3" fill="#525C69" opacity="0.200000003"></path>
                    <circle id="Oval-4" fill="#3AA8CB" cx="9.5" cy="3.5" r="1.5"></circle>
                    <polygon id="Path-2" fill="#3AA8CB" points="1 11 1 8.64705882 4.09375 6 7.875 9.23529412 9.25 8.05882353 11.8338478 10.2696024 12 11"></polygon>
                </g>
            </g>
        </g>
    </g>
</svg>