<svg width="26" height="26" viewBox="0 0 26 26" fill="none" xmlns="http://www.w3.org/2000/svg">
	<g>
		<path fill-rule="evenodd" clip-rule="evenodd" d="M19.3986 6.43835C18.0044 5.04416 16.1358 4.27412 14.1458 4.29332C13.7893 4.31581 13.5051 4.60008 13.5018 4.93735C13.5174 5.29352 13.7963 5.57235 14.1335 5.5691C15.8039 5.53383 17.3368 6.15767 18.5081 7.32898C19.6794 8.50029 20.3032 10.0331 20.2672 11.7043C20.2655 11.892 20.3388 12.0408 20.4504 12.1525C20.5623 12.2643 20.7303 12.3185 20.8996 12.3352C21.2561 12.3126 21.5404 12.0284 21.5436 11.6911C21.5638 9.70203 20.7927 7.83254 19.3986 6.43835ZM17.5578 15.3889L19.6778 16.9772C20.3182 17.4639 20.368 18.4255 19.7769 18.974C17.5605 21.0921 13.8675 21.9143 9.00592 16.7744C4.14419 11.6345 5.11108 7.95498 7.32746 5.83686C7.91781 5.28857 8.85828 5.37929 9.30761 6.0471L10.7902 8.21547C11.3096 9.01144 10.9815 10.0959 10.1849 10.6276L9.29488 11.2217C9.09036 11.3519 9.03339 11.6249 9.14312 11.8341C10.2941 13.8543 11.957 15.6247 13.9018 16.8933C14.0957 17.0053 14.3742 16.9474 14.5095 16.7628L15.138 15.872C15.6874 15.0956 16.805 14.8231 17.5578 15.3889ZM14.5115 7.01381C15.6751 7.00186 16.7595 7.44228 17.5772 8.25998C18.3949 9.07768 18.8353 10.1621 18.8241 11.3265C18.8209 11.6638 18.5366 11.9481 18.1801 11.9705C18.0391 11.9566 17.8988 11.9157 17.7914 11.8378L17.7308 11.7863C17.619 11.6744 17.5457 11.5256 17.5474 11.3379C17.5554 10.5123 17.2431 9.74554 16.6673 9.16972C16.0908 8.59316 15.3247 8.28162 14.4991 8.28958C14.1619 8.29283 13.883 8.01401 13.8674 7.65785C13.8707 7.32058 14.1549 7.03631 14.5115 7.01381Z" fill="white"/>
	</g>
</svg>
