<svg width="24" height="24" viewBox="0 0 24 24" fill="none" xmlns="http://www.w3.org/2000/svg">
	<g>
		<path fill-rule="evenodd" clip-rule="evenodd" d="M17.9065 5.94324C16.6195 4.65629 14.8947 3.94549 13.0578 3.96321C12.7287 3.98397 12.4663 4.24637 12.4633 4.5577C12.4777 4.88647 12.7351 5.14385 13.0464 5.14085C14.5883 5.1083 16.0033 5.68415 17.0845 6.76536C18.1657 7.84657 18.7415 9.26147 18.7083 10.8041C18.7067 10.9773 18.7744 11.1147 18.8774 11.2178C18.9807 11.321 19.1358 11.371 19.292 11.3864C19.6211 11.3656 19.8835 11.1032 19.8865 10.7919C19.9051 8.95587 19.1934 7.23018 17.9065 5.94324ZM16.2073 14.2052L18.1642 15.6714C18.7554 16.1206 18.8013 17.0083 18.2557 17.5146C16.2098 19.4697 12.8009 20.2287 8.3132 15.4842C3.82545 10.7396 4.71796 7.3432 6.76385 5.38802C7.30879 4.8819 8.17692 4.96564 8.59168 5.58208L9.96025 7.58366C10.4397 8.3184 10.1369 9.31945 9.40146 9.81026L8.57993 10.3586C8.39115 10.4788 8.33856 10.7308 8.43985 10.9239C9.50225 12.7887 11.0373 14.4229 12.8325 15.5939C13.0115 15.6973 13.2686 15.6439 13.3935 15.4735L13.9736 14.6512C14.4808 13.9345 15.5124 13.683 16.2073 14.2052ZM13.3953 6.47443C14.4694 6.4634 15.4704 6.86994 16.2252 7.62474C16.98 8.37954 17.3865 9.38053 17.3762 10.4553C17.3732 10.7667 17.1108 11.0291 16.7817 11.0498C16.6516 11.037 16.5221 10.9992 16.4229 10.9273L16.367 10.8798C16.2638 10.7765 16.1961 10.6391 16.1977 10.4659C16.2051 9.70384 15.9168 8.99603 15.3853 8.4645C14.8531 7.93229 14.146 7.64472 13.3839 7.65207C13.0726 7.65507 12.8152 7.39769 12.8008 7.06893C12.8038 6.7576 13.0662 6.4952 13.3953 6.47443Z" fill="white"/>
	</g>
</svg>
