<svg width="26" height="26" viewBox="0 0 26 26" fill="none" xmlns="http://www.w3.org/2000/svg">
	<path fill-rule="evenodd" clip-rule="evenodd" d="M6.8495 9.62059C6.82222 9.60025 6.79116 9.58434 6.75722 9.57406L4.7556 8.96793C4.56296 8.90959 4.36865 9.05377 4.36865 9.25505V14.7491C4.36865 14.9504 4.56296 15.0945 4.7556 15.0362L6.75722 14.4301C6.78926 14.4204 6.81874 14.4056 6.84489 14.3869L8.23768 14.7551V18.4716C8.23768 19.0239 8.6854 19.4716 9.23768 19.4716H14.4679C15.0202 19.4716 15.4679 19.0239 15.4679 18.4716V16.6662L20.9134 18.1056C21.294 18.2062 21.6668 17.9192 21.6668 17.5255V7.22745C21.6668 6.84613 21.3157 6.56154 20.9426 6.64043L6.8495 9.62059ZM14.0434 16.2897L9.6622 15.1316V17.8983C9.6622 18.0639 9.79652 18.1983 9.9622 18.1983H13.7434C13.9091 18.1983 14.0434 18.0639 14.0434 17.8983V16.2897Z" fill="white"/>
</svg>