<svg width="24" height="24" viewBox="0 0 24 24" fill="none" xmlns="http://www.w3.org/2000/svg">
	<g>
		<path d="M6.55904 5.55176C5.54652 5.55176 4.72571 6.37257 4.72571 7.38509V11.9684C4.72571 12.9809 5.54652 13.8018 6.55904 13.8018H6.79512V15.2239C6.79512 15.7139 7.38755 15.9593 7.73403 15.6128L8.84008 14.5068V11.017C8.84008 9.4982 10.0713 8.26699 11.5901 8.26699H15.7257V7.38509C15.7257 6.37257 14.9049 5.55176 13.8924 5.55176H6.55904Z" fill="white"/>
		<path d="M10.2145 11.3102C10.2145 10.2977 11.0353 9.47688 12.0478 9.47688H18.2204C19.233 9.47688 20.0538 10.2977 20.0538 11.3102V14.9213C20.0538 15.9326 19.235 16.7526 18.2241 16.7546V17.9337C18.2241 18.4539 17.5688 18.6834 17.2443 18.2768L16.0295 16.7546H12.0478C11.0353 16.7546 10.2145 15.9338 10.2145 14.9213V11.3102Z" fill="white"/>
	</g>
</svg>