<svg width="26" height="26" viewBox="0 0 26 26" fill="none" xmlns="http://www.w3.org/2000/svg">
	<path d="M6.56974 5.37939C5.37313 5.37939 4.40308 6.34944 4.40308 7.54606V12.9627C4.40308 14.1593 5.37313 15.1294 6.56974 15.1294H6.84874V16.8102C6.84874 17.3892 7.54888 17.6793 7.95836 17.2698L9.26551 15.9626V11.8383C9.26551 10.0434 10.7206 8.5883 12.5155 8.5883H17.4031V7.54606C17.4031 6.34944 16.433 5.37939 15.2364 5.37939H6.56974Z" fill="white"/>
	<path d="M10.8898 12.1848C10.8898 10.9882 11.8598 10.0182 13.0565 10.0182H20.3514C21.548 10.0182 22.5181 10.9882 22.5181 12.1848V16.4525C22.5181 17.6476 21.5504 18.6168 20.3558 18.6191V20.0126C20.3558 20.6274 19.5812 20.8986 19.1977 20.418L17.7621 18.6191H13.0565C11.8598 18.6191 10.8898 17.6491 10.8898 16.4525V12.1848Z" fill="white"/>
</svg>
