<svg width="32" height="32" viewBox="0 0 32 32" fill="none" xmlns="http://www.w3.org/2000/svg">
	<circle cx="16" cy="16" r="16" fill="white" fill-opacity="0.1"/>
	<circle cx="16" cy="16" r="15.5" stroke="white" stroke-opacity="0.1"/>
	<path fill-rule="evenodd" clip-rule="evenodd" d="M17.1916 16L20.5757 19.3842C20.8101 19.6185 20.8101 19.9984 20.5757 20.2327L20.2327 20.5757C19.9984 20.8101 19.6185 20.8101 19.3842 20.5757L16 17.1916L12.6158 20.5757C12.3815 20.8101 12.0016 20.8101 11.7673 20.5757L11.4243 20.2327C11.1899 19.9984 11.1899 19.6185 11.4243 19.3842L14.8084 16L11.4243 12.6158C11.1899 12.3815 11.1899 12.0016 11.4243 11.7673L11.7673 11.4243C12.0016 11.1899 12.3815 11.1899 12.6158 11.4243L16 14.8084L19.3842 11.4243C19.6185 11.1899 19.9984 11.1899 20.2327 11.4243L20.5757 11.7673C20.8101 12.0016 20.8101 12.3815 20.5757 12.6158L17.1916 16Z" fill="white" fill-opacity="0.6"/>
</svg>
