<svg width="28" height="28" viewBox="0 0 28 28" fill="none" xmlns="http://www.w3.org/2000/svg">
	<circle cx="14" cy="14" r="14" fill="white" fill-opacity="0.1"/>
	<circle cx="14" cy="14" r="13.5" stroke="white" stroke-opacity="0.1"/>
	<path fill-rule="evenodd" clip-rule="evenodd" d="M15.1916 14L18.5757 17.3842C18.8101 17.6185 18.8101 17.9984 18.5757 18.2327L18.2327 18.5757C17.9984 18.8101 17.6185 18.8101 17.3842 18.5757L14 15.1916L10.6158 18.5757C10.3815 18.8101 10.0016 18.8101 9.76731 18.5757L9.42426 18.2327C9.18995 17.9984 9.18995 17.6185 9.42426 17.3842L12.8084 14L9.42426 10.6158C9.18995 10.3815 9.18995 10.0016 9.42426 9.76731L9.76731 9.42426C10.0016 9.18995 10.3815 9.18995 10.6158 9.42426L14 12.8084L17.3842 9.42426C17.6185 9.18995 17.9984 9.18995 18.2327 9.42426L18.5757 9.76731C18.8101 10.0016 18.8101 10.3815 18.5757 10.6158L15.1916 14Z" fill="white" fill-opacity="0.6"/>
</svg>