<svg width="26" height="26" viewBox="0 0 26 26" fill="none" xmlns="http://www.w3.org/2000/svg">
	<path d="M13.9986 7.57273C13.3807 7.21596 12.6194 7.21596 12.0014 7.57272L8.7995 9.42136C8.18156 9.77813 7.80089 10.4375 7.80089 11.151V14.8483C7.80089 15.5618 8.18155 16.2211 8.7995 16.5779L12.0014 18.4265C12.6194 18.7833 13.3807 18.7833 13.9986 18.4265L17.2006 16.5779C17.8185 16.2211 18.1992 15.5618 18.1992 14.8483V11.151C18.1992 10.4375 17.8185 9.77813 17.2006 9.42136L13.9986 7.57273Z" fill="white"/>
	<path fill-rule="evenodd" clip-rule="evenodd" d="M10.9989 4.14908C12.2372 3.43414 13.7629 3.43414 15.0012 4.14908L19.6641 6.84123C20.9024 7.55617 21.6653 8.87744 21.6653 10.3073V15.6916C21.6653 17.1215 20.9024 18.4428 19.6641 19.1577L15.0012 21.8499C13.7629 22.5648 12.2372 22.5648 10.9989 21.8499L6.33594 19.1577C5.09763 18.4428 4.33479 17.1215 4.33479 15.6916V10.3073C4.33479 8.87744 5.09763 7.55617 6.33594 6.84123L10.9989 4.14908ZM14.1345 5.65019L18.7975 8.34234C19.4995 8.74765 19.9319 9.4967 19.9319 10.3073V15.6916C19.9319 16.5022 19.4995 17.2513 18.7975 17.6566L14.1345 20.3488C13.4325 20.7541 12.5676 20.7541 11.8655 20.3488L7.20261 17.6566C6.50059 17.2513 6.06813 16.5022 6.06813 15.6916V10.3073C6.06813 9.4967 6.50059 8.74765 7.20261 8.34234L11.8655 5.65019C12.5676 5.24488 13.4325 5.24488 14.1345 5.65019Z" fill="white"/>
</svg>
