<svg width="24" height="24" viewBox="0 0 24 24" fill="none" xmlns="http://www.w3.org/2000/svg">
	<g>
		<path fill-rule="evenodd" clip-rule="evenodd" d="M14.8409 7.7027C13.0211 7.26418 11.2009 7.04492 9.38045 7.04492C7.55261 7.04492 5.68802 7.26596 3.78667 7.70802C3.37832 7.80297 3.0885 8.17508 3.0885 8.60437V15.9461C3.0885 16.3615 3.36028 16.7252 3.75146 16.8334C5.56824 17.3359 7.38563 17.5871 9.20362 17.5871C11.0317 17.5871 12.9163 17.3331 14.8575 16.8251C15.2545 16.7212 15.5322 16.3546 15.5322 15.9345V8.59739C15.5322 8.1708 15.2459 7.80028 14.8409 7.7027ZM21.1311 8.01741C21.1311 7.98399 21.1251 7.95085 21.1136 7.9196C21.0609 7.77723 20.9056 7.7056 20.7667 7.75962L16.7085 9.33827C16.604 9.37891 16.535 9.48152 16.535 9.59606V14.5791C16.535 14.6937 16.604 14.7963 16.7085 14.8369L20.7667 16.4156C20.7972 16.4274 20.8295 16.4335 20.8621 16.4335C21.0107 16.4335 21.1311 16.3101 21.1311 16.1578V8.01741ZM9.24012 13.1492C9.72627 13.1492 10.1204 12.7551 10.1204 12.2689C10.1204 11.7828 9.72627 11.3887 9.24012 11.3887C8.75396 11.3887 8.35986 11.7828 8.35986 12.2689C8.35986 12.7551 8.75396 13.1492 9.24012 13.1492ZM6.39983 13.1492C6.88598 13.1492 7.28009 12.7551 7.28009 12.269C7.28009 11.7828 6.88598 11.3887 6.39983 11.3887C5.91368 11.3887 5.51957 11.7828 5.51957 12.269C5.51957 12.7551 5.91368 13.1492 6.39983 13.1492ZM12.9622 12.2689C12.9622 12.7551 12.5681 13.1492 12.0819 13.1492C11.5958 13.1492 11.2017 12.7551 11.2017 12.2689C11.2017 11.7828 11.5958 11.3887 12.0819 11.3887C12.5681 11.3887 12.9622 11.7828 12.9622 12.2689Z" fill="white"/>
	</g>
</svg>