<svg width="26" height="26" viewBox="0 0 26 26" fill="none" xmlns="http://www.w3.org/2000/svg">
	<path fill-rule="evenodd" clip-rule="evenodd" d="M16.0777 8.34492C14.1062 7.86986 12.1344 7.63232 10.1622 7.63232C8.18207 7.63232 6.16209 7.87178 4.1023 8.35069C3.65992 8.45354 3.34595 8.85666 3.34595 9.32173V17.2753C3.34595 17.7253 3.64037 18.1193 4.06416 18.2366C6.03233 18.7809 8.00117 19.053 9.97065 19.053C11.951 19.053 13.9927 18.7778 16.0957 18.2275C16.5258 18.1149 16.8266 17.7178 16.8266 17.2627V9.31417C16.8266 8.85203 16.5165 8.45063 16.0777 8.34492ZM22.8921 8.68585C22.8921 8.64965 22.8856 8.61374 22.8731 8.57989C22.816 8.42566 22.6478 8.34806 22.4974 8.40658L18.1009 10.1168C17.9878 10.1608 17.913 10.272 17.913 10.3961V15.7944C17.913 15.9185 17.9878 16.0296 18.1009 16.0737L22.4974 17.7839C22.5304 17.7967 22.5654 17.8033 22.6007 17.8033C22.7616 17.8033 22.8921 17.6696 22.8921 17.5046V8.68585ZM10.0102 14.2453C10.5369 14.2453 10.9638 13.8184 10.9638 13.2917C10.9638 12.765 10.5369 12.3381 10.0102 12.3381C9.48353 12.3381 9.05659 12.765 9.05659 13.2917C9.05659 13.8184 9.48353 14.2453 10.0102 14.2453ZM6.93322 14.2453C7.45989 14.2453 7.88683 13.8184 7.88683 13.2917C7.88683 12.7651 7.45989 12.3381 6.93322 12.3381C6.40655 12.3381 5.97961 12.7651 5.97961 13.2917C5.97961 13.8184 6.40655 14.2453 6.93322 14.2453ZM14.0424 13.2917C14.0424 13.8184 13.6155 14.2453 13.0888 14.2453C12.5622 14.2453 12.1352 13.8184 12.1352 13.2917C12.1352 12.765 12.5622 12.3381 13.0888 12.3381C13.6155 12.3381 14.0424 12.765 14.0424 13.2917Z" fill="white"/>
</svg>
