<svg width="17" height="15" viewBox="0 0 17 15" fill="none" xmlns="http://www.w3.org/2000/svg">
<path d="M10.9115 2.62952C11.7749 1.00133 13.7857 0.398125 15.4028 1.2822C15.5039 1.33746 15.542 1.46475 15.4881 1.56651L9.28827 13.2578C8.82959 14.1228 7.76135 14.4433 6.90229 13.9736C6.04323 13.5039 5.71867 12.422 6.17735 11.557L10.9115 2.62952Z" fill="white"/>
<path d="M5.04588 2.62952C5.90929 1.00133 7.92009 0.398125 9.53714 1.2822C9.63821 1.33746 9.67639 1.46475 9.62243 1.56651L3.42262 13.2578C2.96394 14.1228 1.8957 14.4433 1.03664 13.9736C0.177582 13.5039 -0.146983 12.422 0.311703 11.557L5.04588 2.62952Z" fill="white"/>
<path fill-rule="evenodd" clip-rule="evenodd" d="M12.8745 9.68278C12.8552 9.71916 12.8451 9.75984 12.8451 9.80115L12.8452 12.4358C12.8453 13.4456 13.6519 14.2646 14.6464 14.2646C15.6399 14.2646 16.4449 13.4472 16.4448 12.4384L16.4444 3.94097C16.4444 3.68161 16.1032 3.59426 15.9821 3.82263L12.8745 9.68278Z" fill="white"/>
</svg>
