<svg width="26" height="26" viewBox="0 0 26 26" fill="none" xmlns="http://www.w3.org/2000/svg">
	<path d="M15.0707 7.18197C16.0061 5.41811 18.1845 4.76463 19.9363 5.72239C20.0458 5.78225 20.0871 5.92014 20.0287 6.03038L13.3122 18.696C12.8153 19.633 11.658 19.9802 10.7274 19.4714C9.79675 18.9626 9.44514 17.7905 9.94205 16.8534L15.0707 7.18197Z" fill="white"/>
	<path d="M8.71628 7.18197C9.65164 5.41811 11.83 4.76463 13.5818 5.72239C13.6913 5.78225 13.7327 5.92014 13.6742 6.03038L6.95776 18.696C6.46085 19.633 5.30359 19.9802 4.37294 19.4714C3.4423 18.9626 3.09069 17.7905 3.5876 16.8534L8.71628 7.18197Z" fill="white"/>
	<path fill-rule="evenodd" clip-rule="evenodd" d="M17.1973 14.823C17.1764 14.8624 17.1654 14.9065 17.1654 14.9513L17.1656 17.8055C17.1656 18.8994 18.0395 19.7866 19.1168 19.7866C20.1931 19.7866 21.0652 18.9011 21.0651 17.8083L21.0647 8.60272C21.0647 8.32175 20.695 8.22712 20.5638 8.47451L17.1973 14.823Z" fill="white"/>
</svg>
