<svg width="24" height="24" viewBox="0 0 24 24" fill="none" xmlns="http://www.w3.org/2000/svg">
	<g>
		<path fill-rule="evenodd" clip-rule="evenodd" d="M10.026 18.1843C10.026 18.1954 10.023 18.2055 10.023 18.2156C10.023 19.3145 10.9146 20.2062 12.0135 20.2062C13.1124 20.2062 14.004 19.3145 14.004 18.2156C14.004 18.2055 14.001 18.1954 14.001 18.1843H10.026ZM16.9721 9.70163C16.9721 7.96283 15.6235 5.49617 12.9455 5.03114V4.98666C12.9455 4.4438 12.5007 4 11.9579 4C11.415 4 10.9712 4.4438 10.9712 4.98666V5.03317C8.2983 5.50123 6.95276 7.96485 6.95276 9.70163C6.95276 11.6295 6.97197 13.0033 6.97197 13.8879C6.97197 14.5858 5.69677 15.5117 5.15878 15.8712C5.0139 15.968 4.92383 16.1292 4.92383 16.3035V16.6107C4.92383 16.8868 5.14769 17.1107 5.42383 17.1107H18.5C18.7761 17.1107 19 16.8868 19 16.6107V16.3034C19 16.1292 18.91 15.968 18.7652 15.8712C18.2277 15.5116 16.9539 14.5858 16.9539 13.8879C16.9539 13.0033 16.9721 11.6295 16.9721 9.70163Z" fill="white"/>
	</g>
</svg>