<svg width="26" height="26" viewBox="0 0 26 26" fill="none" xmlns="http://www.w3.org/2000/svg">
	<path fill-rule="evenodd" clip-rule="evenodd" d="M10.8616 19.6998C10.8616 19.7119 10.8583 19.7228 10.8583 19.7338C10.8583 20.9242 11.8243 21.8902 13.0147 21.8902C14.2052 21.8902 15.1711 20.9242 15.1711 19.7338C15.1711 19.7228 15.1678 19.7119 15.1678 19.6998H10.8616ZM18.3865 10.5103C18.3865 8.62656 16.9255 5.95435 14.0244 5.45057V5.40238C14.0244 4.81428 13.5425 4.3335 12.9544 4.3335C12.3663 4.3335 11.8855 4.81428 11.8855 5.40238V5.45276C8.98991 5.95982 7.53224 8.62875 7.53224 10.5103C7.53224 12.5987 7.55304 14.0871 7.55304 15.0454C7.55304 15.8102 6.13976 16.8275 5.56906 17.2071C5.42397 17.3036 5.33423 17.4647 5.33423 17.6389V18.0368C5.33423 18.3129 5.55809 18.5368 5.83423 18.5368H20.0834C20.3595 18.5368 20.5834 18.3129 20.5834 18.0368V17.6388C20.5834 17.4646 20.4937 17.3036 20.3487 17.2071C19.7786 16.8274 18.3668 15.8101 18.3668 15.0454C18.3668 14.0871 18.3865 12.5987 18.3865 10.5103Z" fill="white"/>
</svg>
