<svg width="24" height="24" viewBox="0 0 24 24" fill="none" xmlns="http://www.w3.org/2000/svg">
	<path fill-rule="evenodd" clip-rule="evenodd" d="M18.5122 16.7483C20.8966 13.4345 20.3655 8.84729 17.2742 6.06851C14.201 3.31206 9.53334 3.31026 6.54422 6.06455C3.53813 8.84081 3.14675 13.4277 5.63257 16.7429C8.09095 20.0459 12.677 20.9777 16.1802 18.8862C16.212 18.9096 16.2456 18.9294 16.2817 18.9453L18.4613 19.5235C18.6494 19.5728 18.848 19.5195 18.982 19.3831C19.1166 19.2452 19.1665 19.0468 19.1141 18.8603L18.5122 16.7483ZM14.4073 13.5275C14.2758 13.3817 14.0703 13.3224 13.8806 13.3753C13.6877 13.4362 13.5436 13.5932 13.5037 13.7876C13.4561 13.9863 13.5126 14.1966 13.6551 14.3501L13.9335 14.6434H8.89901C8.64706 14.6574 8.45616 14.8657 8.47041 15.1113L8.47407 15.3389C8.46715 15.5845 8.66497 15.7933 8.91773 15.8065H13.9559L13.6869 16.1006C13.5497 16.2536 13.4996 16.4636 13.5534 16.6627C13.5993 16.857 13.7479 17.0141 13.9437 17.075C14.1346 17.1283 14.3381 17.0686 14.4655 16.9227L15.6442 15.6374C15.8514 15.4014 15.8457 15.0508 15.6312 14.8149L14.4073 13.5275ZM9.75579 10.6524C9.90191 10.6524 10.0407 10.5907 10.1351 10.4833C10.3419 10.2477 10.3362 9.89715 10.1221 9.66116L9.84411 9.36748H14.8827C15.135 9.35426 15.3263 9.14591 15.3113 8.89991L15.3076 8.67313C15.3149 8.42713 15.1167 8.21798 14.864 8.20556H9.8258L10.0952 7.91148C10.3012 7.67629 10.2951 7.32611 10.0802 7.09173C9.98291 6.98395 9.84289 6.92185 9.69636 6.92144C9.54983 6.92064 9.41144 6.98194 9.3162 7.08932L8.13745 8.37745C7.93028 8.61263 7.93598 8.96361 8.15048 9.1988L9.37033 10.4833C9.46843 10.5907 9.60885 10.6524 9.75579 10.6524ZM9.01904 11.4589L9.01781 11.4597C8.76546 11.4725 8.57416 11.6813 8.58881 11.9273L8.59247 12.1581C8.58555 12.4041 8.78377 12.6124 9.03613 12.6256H15.1265C15.3788 12.6124 15.5701 12.4041 15.5555 12.1581L15.5514 11.9297C15.5595 11.6825 15.3617 11.4725 15.1081 11.4589H9.01904Z" fill="white"/>
</svg>
