<svg width="26" height="26" viewBox="0 0 26 26" fill="none" xmlns="http://www.w3.org/2000/svg">
	<path fill-rule="evenodd" clip-rule="evenodd" d="M20.0548 18.1442C22.6379 14.5542 22.0625 9.58472 18.7136 6.57438C15.3843 3.58822 10.3277 3.58627 7.08949 6.57009C3.83289 9.5777 3.4089 14.5468 6.10187 18.1383C8.76511 21.7166 13.7333 22.726 17.5285 20.4602C17.5629 20.4856 17.5993 20.5071 17.6384 20.5242L19.9997 21.1506C20.2035 21.2041 20.4186 21.1463 20.5637 20.9985C20.7096 20.8491 20.7636 20.6342 20.7069 20.4322L20.0548 18.1442ZM15.6078 14.655C15.4654 14.497 15.2427 14.4328 15.0372 14.49C14.8282 14.556 14.6721 14.7262 14.6289 14.9367C14.5773 15.152 14.6386 15.3798 14.793 15.5461L15.0946 15.8638H9.64051C9.36757 15.879 9.16076 16.1047 9.1762 16.3708L9.18016 16.6173C9.17267 16.8834 9.38697 17.1095 9.66079 17.1239H15.1188L14.8273 17.4425C14.6787 17.6083 14.6245 17.8357 14.6827 18.0514C14.7325 18.2619 14.8935 18.4321 15.1056 18.4981C15.3124 18.5558 15.5329 18.4911 15.6709 18.3331L16.9478 16.9407C17.1723 16.685 17.1661 16.3052 16.9337 16.0496L15.6078 14.655ZM10.5687 11.5403C10.727 11.5403 10.8774 11.4734 10.9796 11.3571C11.2036 11.1019 11.1975 10.7221 10.9655 10.4664L10.6644 10.1483H16.1228C16.3962 10.1339 16.6035 9.90824 16.5871 9.64173L16.5832 9.39606C16.5911 9.12955 16.3764 8.90298 16.1025 8.88952H10.6445L10.9364 8.57093C11.1596 8.31614 11.1529 7.93678 10.9201 7.68287C10.8147 7.56611 10.6631 7.49883 10.5043 7.49839C10.3456 7.49753 10.1956 7.56394 10.0925 7.68026L8.81549 9.07573C8.59105 9.33052 8.59722 9.71074 8.8296 9.96553L10.1511 11.3571C10.2574 11.4734 10.4095 11.5403 10.5687 11.5403V11.5403ZM9.77054 12.414L9.76922 12.4149C9.49583 12.4287 9.28859 12.6549 9.30446 12.9214L9.30843 13.1714C9.30093 13.4379 9.51567 13.6636 9.78906 13.6779H16.3869C16.6603 13.6636 16.8675 13.4379 16.8517 13.1714L16.8473 12.924C16.8561 12.6562 16.6418 12.4287 16.3671 12.414H9.77054Z" fill="white"/>
</svg>
