<svg width="26" height="26" viewBox="0 0 26 26" fill="none" xmlns="http://www.w3.org/2000/svg">
	<path fill-rule="evenodd" clip-rule="evenodd" d="M14.8014 19.8382C14.8481 19.6607 14.9862 19.5228 15.1609 19.4662C15.4705 19.3658 15.7702 19.2436 16.0582 19.1012C16.2206 19.021 16.4127 19.0221 16.5691 19.1134L17.5993 19.715C17.7735 19.8167 17.992 19.8085 18.1521 19.6856C18.728 19.2436 19.244 18.7276 19.686 18.1518C19.8089 17.9917 19.8171 17.7731 19.7154 17.5989L19.1137 16.5686C19.0224 16.4123 19.0213 16.2201 19.1015 16.0578C19.2438 15.7698 19.3661 15.4701 19.4665 15.1605C19.5231 14.9859 19.6609 14.8477 19.8385 14.8011L20.9695 14.504C21.1662 14.4524 21.3154 14.2899 21.3408 14.0881C21.4346 13.3414 21.4303 12.6109 21.339 11.9075C21.313 11.707 21.1641 11.5462 20.9686 11.4948L19.8245 11.1943C19.6488 11.1482 19.5119 11.0124 19.4542 10.8401C19.3531 10.5379 19.2313 10.2451 19.0906 9.96344C19.0094 9.80083 19.0101 9.60783 19.1018 9.45086L19.698 8.42998C19.7999 8.25542 19.7914 8.03649 19.6681 7.87629C19.2222 7.29689 18.7025 6.77722 18.1231 6.33134C17.9629 6.20807 17.744 6.19958 17.5694 6.30152L16.5486 6.89766C16.3917 6.98933 16.1987 6.99009 16.036 6.90884C15.7544 6.76809 15.4616 6.64631 15.1593 6.54517C14.987 6.48753 14.8513 6.35058 14.8051 6.17488L14.5047 5.03102C14.4533 4.83547 14.2925 4.68665 14.092 4.66063C13.3886 4.56935 12.6579 4.56507 11.9112 4.65892C11.7095 4.68428 11.547 4.83351 11.4954 5.0302L11.1953 6.17278C11.1496 6.3466 11.016 6.48237 10.8469 6.54296C10.5639 6.64431 10.2834 6.77065 10.0088 6.9186C9.84357 7.0076 9.64364 7.01004 9.4816 6.91541L8.51151 6.34889C8.3334 6.24488 8.10962 6.25618 7.94846 6.3849C7.37399 6.84373 6.8441 7.37363 6.38528 7.94812C6.25657 8.10928 6.24527 8.33305 6.34928 8.51116L6.91576 9.48119C7.01039 9.64323 7.00795 9.84317 6.91894 10.0084C6.77097 10.283 6.6446 10.5635 6.54324 10.8465C6.48264 11.0157 6.34688 11.1493 6.17307 11.1949L5.03066 11.495C4.83396 11.5466 4.68473 11.7091 4.65937 11.9108C4.56554 12.6576 4.56985 13.3882 4.66115 14.0917C4.68717 14.2922 4.836 14.453 5.03154 14.5044L6.17511 14.8047C6.35081 14.8508 6.48776 14.9866 6.54541 15.1589C6.64655 15.4612 6.76836 15.7541 6.90913 16.0358C6.99038 16.1984 6.98962 16.3914 6.89795 16.5484L6.30198 17.5689C6.20005 17.7435 6.20854 17.9624 6.33181 18.1226C6.7777 18.702 7.2974 19.2217 7.87682 19.6677C8.03702 19.7909 8.25595 19.7994 8.43051 19.6975L9.45109 19.1015C9.60806 19.0098 9.80106 19.0091 9.96367 19.0903C10.2454 19.2311 10.5382 19.3529 10.8405 19.454C11.0128 19.5116 11.1486 19.6486 11.1947 19.8243L11.4952 20.9681C11.5465 21.1636 11.7073 21.3124 11.9078 21.3385C12.6112 21.4298 13.3418 21.4341 14.0885 21.3403C14.2903 21.315 14.4528 21.1657 14.5044 20.969L14.8014 19.8382ZM13.8392 16.7372C11.0753 17.325 8.67431 14.9233 9.26223 12.16C9.54026 10.8533 10.8533 9.54018 12.16 9.26209C14.9234 8.67393 17.3253 11.0751 16.7373 13.8391C16.4289 15.2888 15.2889 16.4289 13.8392 16.7372Z" fill="white"/>
</svg>
