<svg width="26" height="26" viewBox="0 0 26 26" fill="none" xmlns="http://www.w3.org/2000/svg">
	<path d="M11.6667 13.9998C11.6667 15.2885 12.7114 16.3332 14.0001 16.3332C15.2887 16.3332 16.3334 15.2885 16.3334 13.9998C16.3334 13.7571 16.2964 13.5231 16.2276 13.303L18.4936 10.4331C18.7179 10.1491 18.694 9.74211 18.4381 9.48619C18.1814 9.22949 17.7729 9.20638 17.4889 9.43249L14.5887 11.7414C14.4007 11.6925 14.2034 11.6665 14.0001 11.6665C12.7114 11.6665 11.6667 12.7112 11.6667 13.9998Z" fill="white"/>
	<path d="M14.0002 18.4042C15.2443 18.4042 16.3679 17.8884 17.1688 17.0589H19.4535C18.3824 18.9645 16.3416 20.2519 14 20.2519C11.6584 20.2519 9.61755 18.9645 8.54653 17.0589H10.8315C11.6324 17.8884 12.7561 18.4042 14.0002 18.4042Z" fill="white"/>
	<path fill-rule="evenodd" clip-rule="evenodd" d="M4.66675 13.9998C4.66675 19.1545 8.84542 23.3332 14.0001 23.3332C19.1547 23.3332 23.3334 19.1545 23.3334 13.9998C23.3334 8.84518 19.1547 4.6665 14.0001 4.6665C8.84542 4.6665 4.66675 8.84518 4.66675 13.9998ZM21.2494 13.9998C21.2494 18.0035 18.0038 21.2491 14.0001 21.2491C9.9964 21.2491 6.75077 18.0035 6.75077 13.9998C6.75077 9.99615 9.9964 6.75053 14.0001 6.75053C18.0038 6.75053 21.2494 9.99615 21.2494 13.9998Z" fill="white"/>
</svg>
