<svg width="28" height="28" viewBox="0 0 28 28" fill="none" xmlns="http://www.w3.org/2000/svg">
	<path d="M14.0001 15.6715C13.1252 15.6715 12.4072 14.9996 12.3341 14.1436L10.4187 12.3838C10.1816 12.166 10.1401 11.8072 10.3212 11.541C10.5016 11.2758 10.8486 11.1822 11.1379 11.3207L13.4409 12.4231C13.6158 12.3611 13.804 12.3273 14.0001 12.3273C14.1213 12.3273 14.2394 12.3402 14.3533 12.3647L17.9142 10.2266C18.1811 10.0664 18.5258 10.1325 18.7144 10.3802C18.9025 10.6272 18.8754 10.9759 18.6514 11.1908L15.6714 14.0507C15.6443 14.9504 14.9064 15.6715 14.0001 15.6715Z" fill="white"/>
	<path d="M14.7612 8.03696C14.7612 8.47383 14.407 8.82798 13.9702 8.82798C13.5333 8.82798 13.1791 8.47383 13.1791 8.03696C13.1791 7.60009 13.5333 7.24593 13.9702 7.24593C14.407 7.24593 14.7612 7.60009 14.7612 8.03696Z" fill="white"/>
	<path d="M14.7612 19.9603C14.7612 20.3971 14.407 20.7513 13.9702 20.7513C13.5333 20.7513 13.1791 20.3971 13.1791 19.9603C13.1791 19.5234 13.5333 19.1692 13.9702 19.1692C14.407 19.1692 14.7612 19.5234 14.7612 19.9603Z" fill="white"/>
	<path d="M8.11074 14.7753C8.54762 14.7753 8.90177 14.4211 8.90177 13.9842C8.90177 13.5474 8.54762 13.1932 8.11074 13.1932C7.67387 13.1932 7.31972 13.5474 7.31972 13.9842C7.31972 14.4211 7.67387 14.7753 8.11074 14.7753Z" fill="white"/>
	<path d="M20.838 13.9842C20.838 14.4211 20.4839 14.7753 20.047 14.7753C19.6101 14.7753 19.256 14.4211 19.256 13.9842C19.256 13.5474 19.6101 13.1932 20.047 13.1932C20.4839 13.1932 20.838 13.5474 20.838 13.9842Z" fill="white"/>
	<path fill-rule="evenodd" clip-rule="evenodd" d="M14.0001 23.3332C8.84542 23.3332 4.66675 19.1545 4.66675 13.9998C4.66675 8.84518 8.84542 4.6665 14.0001 4.6665C19.1547 4.6665 23.3334 8.84518 23.3334 13.9998C23.3334 19.1545 19.1547 23.3332 14.0001 23.3332ZM14.0001 21.2491C18.0038 21.2491 21.2494 18.0035 21.2494 13.9998C21.2494 9.99615 18.0038 6.75053 14.0001 6.75053C9.9964 6.75053 6.75077 9.99615 6.75077 13.9998C6.75077 18.0035 9.9964 21.2491 14.0001 21.2491Z" fill="white"/>
	<path fill-rule="evenodd" clip-rule="evenodd" d="M14.0001 21.2491C18.0038 21.2491 21.2494 18.0035 21.2494 13.9998C21.2494 9.99615 18.0038 6.75053 14.0001 6.75053C9.9964 6.75053 6.75077 9.99615 6.75077 13.9998C6.75077 18.0035 9.9964 21.2491 14.0001 21.2491ZM14.0001 23.3332C8.84542 23.3332 4.66675 19.1545 4.66675 13.9998C4.66675 8.84518 8.84542 4.6665 14.0001 4.6665C19.1547 4.6665 23.3334 8.84518 23.3334 13.9998C23.3334 19.1545 19.1547 23.3332 14.0001 23.3332ZM14.0001 15.6715C13.1252 15.6715 12.4072 14.9996 12.3341 14.1436L10.4187 12.3838C10.1816 12.166 10.1401 11.8072 10.3212 11.541C10.5016 11.2758 10.8486 11.1822 11.1379 11.3207L13.4409 12.4231C13.6158 12.3611 13.804 12.3273 14.0001 12.3273C14.1213 12.3273 14.2394 12.3402 14.3533 12.3647L17.9142 10.2266C18.1811 10.0664 18.5258 10.1325 18.7144 10.3802C18.9025 10.6272 18.8754 10.9759 18.6514 11.1908L15.6714 14.0507C15.6443 14.9504 14.9064 15.6715 14.0001 15.6715ZM14.7612 8.03696C14.7612 8.47383 14.4071 8.82798 13.9702 8.82798C13.5333 8.82798 13.1792 8.47383 13.1792 8.03696C13.1792 7.60009 13.5333 7.24593 13.9702 7.24593C14.4071 7.24593 14.7612 7.60009 14.7612 8.03696ZM14.7612 19.9603C14.7612 20.3971 14.4071 20.7513 13.9702 20.7513C13.5333 20.7513 13.1792 20.3971 13.1792 19.9603C13.1792 19.5234 13.5333 19.1692 13.9702 19.1692C14.4071 19.1692 14.7612 19.5234 14.7612 19.9603ZM8.1108 14.7753C8.54767 14.7753 8.90183 14.4211 8.90183 13.9842C8.90183 13.5474 8.54767 13.1932 8.1108 13.1932C7.67393 13.1932 7.31978 13.5474 7.31978 13.9842C7.31978 14.4211 7.67393 14.7753 8.1108 14.7753ZM20.8381 13.9842C20.8381 14.4211 20.4839 14.7753 20.0471 14.7753C19.6102 14.7753 19.256 14.4211 19.256 13.9842C19.256 13.5474 19.6102 13.1932 20.0471 13.1932C20.4839 13.1932 20.8381 13.5474 20.8381 13.9842Z" fill="white"/>
</svg>