<svg xmlns="http://www.w3.org/2000/svg" width="26" height="15" viewBox="0 0 26 15">
  <g fill="#A8ADB4" fill-rule="evenodd" transform="translate(-1)" opacity=".8">
    <path fill-rule="nonzero" d="M20,15 L6,15 L6.00002488,12.9917372 C5.99753817,12.5696628 6.18155115,12.1686801 6.50067725,11.898549 C7.76970814,10.8568586 9.14568521,9.95781901 10.6045243,9.21668728 C10.648455,9.19558312 10.6766366,9.14999947 10.6766366,9.10019378 L10.6766366,7.71915384 C10.4785337,7.3772759 10.3434271,7.00162076 10.2779438,6.61077345 C10.1254288,6.598111 9.92565805,6.37947639 9.70932547,5.60368143 C9.41424741,4.54003475 9.72838969,4.38472017 9.99362404,4.40836204 L9.99279521,4.40836204 C9.94389068,4.26738818 9.9057614,4.12303875 9.87840949,3.97615225 C9.77396934,3.51524374 9.77396934,3.03659301 9.87840949,2.57568449 C10.0118609,2.03205102 10.2887093,1.5365225 10.6807604,1.14314676 C10.9020796,0.904242803 11.1515782,0.694059183 11.4234421,0.518473957 C11.6455889,0.358928036 11.8884458,0.232307857 12.1445649,0.142818821 C12.3567597,0.0693777336 12.5772513,0.0263253167 12.8002043,0.0153515102 C13.3696502,-0.0462729613 13.9432339,0.0786637608 14.438921,0.371578817 C14.7688202,0.545476264 15.0464983,0.808002649 15.2404443,1.13047437 C15.2404443,1.13047437 16.5707995,1.22755301 16.1207131,3.97873687 L16.1215422,3.97873687 C16.0941882,4.1256212 16.056061,4.26998143 16.0071565,4.41094666 C16.2723999,4.38477851 16.5865543,4.54263666 16.291455,5.60626604 C16.0792603,6.38203939 15.8670655,6.60069432 15.7228367,6.61335807 L15.7220078,6.61251396 C15.6565267,6.99999004 15.521418,7.37140952 15.3233151,7.7082306 L15.3233151,9.10701275 C15.3233151,9.15597347 15.3514967,9.20155864 15.3954273,9.22350625 C16.8542665,9.96215278 18.2301374,10.8594851 19.4992744,11.8986687 C19.8183942,12.1687998 20.0024095,12.5697825 19.9999268,12.9918569 L20,15 Z"/>
    <rect width="6.61" height="1.551" x=".985" y="5.547" rx=".775"/>
    <rect width="6.61" height="1.551" x=".985" y="2.195" rx=".775"/>
    <rect width="5.264" height="1.551" x=".985" y="8.721" rx=".775"/>
    <path fill-rule="nonzero" d="M20.2404571,9.74511708 L20.2404571,10.3984328 C20.2418273,10.4711745 20.2219613,10.5425441 20.1842858,10.6043112 C20.4000732,10.7642073 20.6172285,10.9330245 20.8329984,11.1100739 L20.8336836,11.1100739 C21.2816902,11.4840773 21.5392498,12.0399438 21.5351462,12.6246216 L21.5351462,14.2551351 L26.4413513,14.2551351 L26.4413513,12.7124612 C26.3995652,12.2801323 26.1330936,11.9020005 25.7398887,11.718082 C25.4124459,11.5540697 25.0692553,11.4223085 24.7157883,11.3248593 C24.6966068,11.3145657 23.6060568,11.0277155 23.0881845,10.7518465 L23.0422878,10.7237098 L23.0429728,10.7237098 C22.9333692,10.653027 22.8676071,10.5308668 22.8676071,10.4004952 L22.8676071,9.72592238 C22.8676071,9.72592238 24.3671238,9.77190113 25.0775652,9.04448046 C25.0775652,9.04448046 24.0431884,8.75076246 24.2288305,6.86219385 C24.4144725,4.97362524 23.9972952,3.31698827 22.4751738,3.45770728 C22.4751738,3.45770728 21.8196044,2.66715103 20.5126567,3.16398928 C20.0708229,3.33966845 18.8590112,3.77199731 18.9288944,6.38805335 C18.999451,9.00409182 18,9.02324085 18,9.02324085 C18,9.02324085 18.5082798,9.7609528 20.2406471,9.74517682 L20.2404571,9.74511708 Z"/>
  </g>
</svg>
