<svg xmlns="http://www.w3.org/2000/svg" width="31" height="301" viewBox="0 0 31 301">
  <g fill="none" fill-rule="evenodd">
    <path fill="#BDC3CB" fill-rule="nonzero" d="M19.1752525,296.727841 C18.7777028,296.299687 18.2813987,296.299687 17.8863811,296.727841 C17.5850536,297.053791 17.3596909,297.158758 17.0634277,297.490232 C16.9823985,297.581387 16.9140301,297.600724 16.8152757,297.539953 C16.620299,297.423937 16.4126615,297.33002 16.2252814,297.202954 C15.3516848,296.603538 14.6198894,295.832861 13.9716553,294.965503 C13.6500705,294.534586 13.363936,294.073284 13.163895,293.553975 C13.1233804,293.449007 13.1309769,293.37995 13.209474,293.294319 C13.5108015,292.976657 13.6120881,292.86064 13.9083513,292.534691 C14.321094,292.081676 14.321094,291.551317 13.9058191,291.09554 C13.6703278,290.835885 13.4426356,290.47712 13.2506723,290.195449 C13.0587343,289.913779 12.9081464,289.579045 12.6625266,289.316627 C12.2649768,288.893998 11.7686726,288.893998 11.373655,289.31939 C11.0697953,289.64534 10.7785965,289.979576 10.4696724,290.300001 C10.1835379,290.595566 10.0392045,290.957425 10.0088186,291.380055 C9.96070746,292.067865 10.1151695,292.717002 10.3329356,293.349566 C10.7785965,294.658889 11.4572164,295.821811 12.2801697,296.888054 C13.3917898,298.329967 14.7186438,299.470791 16.2708603,300.293952 C16.9697376,300.664099 17.6939366,300.948614 18.4814396,300.995573 C19.0233227,301.02872 19.4943053,300.879557 19.8715977,300.418255 C20.1298784,300.103355 20.4210773,299.816077 20.694551,299.514988 C21.0996973,299.067497 21.1022294,298.526089 20.6996154,298.084123 C20.2185041,297.556526 19.6588959,297.252676 19.1752525,296.727841 Z"/>
    <path fill="#525C69" fill-rule="nonzero" d="M19.0616687,259 L20.9902911,260.928622 L14.0727496,267.844782 L12.1441272,265.91616 L19.0616687,259 Z M11.0071241,268.723438 C10.9877826,268.79666 11.0085057,268.874026 11.061004,268.927906 C11.1148838,268.981785 11.1922498,269.002508 11.2654711,268.981785 L13.551911,268.365621 L11.6232886,266.436999 L11.0071241,268.723438 Z"/>
    <path fill="#A1A1A1" fill-rule="nonzero" d="M19.2203068,227.579302 C19.4159762,227.579302 19.6036161,227.503694 19.7418756,227.369138 C19.8801351,227.234582 19.9576669,227.052123 19.957385,226.861969 L19.957385,225.786486 C19.957385,225.390884 19.6273838,225.070185 19.2203068,225.070185 C18.8132298,225.070185 18.4832287,225.390884 18.4832287,225.786486 L18.4832287,226.861969 C18.4829467,227.052123 18.5604785,227.234582 18.698738,227.369138 C18.8369975,227.503694 19.0246374,227.579302 19.2203068,227.579302 L19.2203068,227.579302 Z M11.7858009,227.652584 C12.2169272,227.652584 12.566424,227.312939 12.566424,226.893965 L12.566424,225.758618 C12.566424,225.339645 12.2169272,225 11.7858009,225 C11.3546747,225 11.0051778,225.339645 11.0051778,225.758618 L11.0051778,226.893965 C11.0051778,227.095164 11.0874218,227.288121 11.233817,227.43039 C11.3802123,227.572658 11.5787668,227.652584 11.7858009,227.652584 L11.7858009,227.652584 Z M22.0369225,226.582261 L20.8134152,226.582261 L20.8134152,227.098328 C20.8134152,227.953376 20.1001563,228.646529 19.2203068,228.646529 C18.3404574,228.646529 17.6271984,227.953376 17.6271984,227.098328 L17.6271984,226.582261 L13.3789093,226.582261 L13.3789093,227.098328 C13.3789093,227.953376 12.6656504,228.646529 11.7858009,228.646529 C10.9059515,228.646529 10.1926925,227.953376 10.1926925,227.098328 L10.1926925,226.582261 L8.96918531,226.582261 C8.41963391,226.58108 7.89468921,226.803615 7.52173741,227.195865 C7.14878561,227.588115 6.96191611,228.114226 7.00647571,228.646529 L7.00647571,238.967866 C7.00647571,239.537898 7.48198171,240 8.06854801,240 L22.9375597,240 C23.524126,240 23.999632,239.537898 23.999632,238.967866 L23.999632,228.646529 C24.020459,227.558434 23.1547325,226.647912 22.0369225,226.582261 Z M22,238 L9.00000001,238 L9.00000001,231 L22,231 L22,238 Z M12.6705071,234.641161 C12.2449609,234.998271 11.8674281,235.406081 11.5468347,235.854951 C11.3616803,236.149457 11.2456369,236.48002 11.2069715,236.823092 L14.7064997,236.823092 L14.7064997,235.922039 L12.7236107,235.922039 C12.7820647,235.825793 12.850385,235.735538 12.9275286,235.652653 C13.0110783,235.560449 13.2107479,235.373976 13.5265374,235.093236 C13.7608069,234.894272 13.9791618,234.678277 14.1797118,234.44712 C14.344479,234.251596 14.479337,234.03398 14.5801131,233.801005 C14.6639123,233.59354 14.7067873,233.372603 14.7064997,233.149728 C14.7148934,232.768765 14.5538791,232.402777 14.2646776,232.145462 C13.9312208,231.861749 13.4963595,231.716804 13.0539152,231.741898 C12.6354439,231.727784 12.2241582,231.850236 11.8856357,232.089727 C11.5433086,232.380948 11.3412673,232.797575 11.3280478,233.239524 L12.3168371,233.336544 C12.3118734,233.115932 12.3870846,232.900679 12.5292515,232.728618 C12.8124615,232.488233 13.2338215,232.484726 13.521227,232.720361 C13.6488467,232.855654 13.7140671,233.035733 13.7017793,233.218881 C13.6937327,233.432916 13.6197322,233.63967 13.4893648,233.812358 C13.2408452,234.112072 12.9669355,234.391035 12.6705071,234.646322 L12.6705071,234.641161 Z M17.6696813,236.823092 L18.635105,236.823092 L18.635105,235.804376 L19.2829691,235.804376 L19.2829691,234.955962 L18.635105,234.955962 L18.635105,231.746026 L17.79713,231.746026 L15.5381023,234.960091 L15.5381023,235.808505 L17.6696813,235.808505 L17.6696813,236.827221 L17.6696813,236.823092 Z M16.4727258,234.951834 L17.6696813,233.221978 L17.6696813,234.955962 L16.4727258,234.955962 L16.4727258,234.951834 Z"/>
    <path fill="#FFFFFF" fill-rule="nonzero" d="M22.8830746,166.34617 L21.7779555,165.241051 C21.6172314,165.080362 21.4262483,165 21.2051823,165 C20.9843977,165 20.7932739,165.080362 20.6326905,165.241051 L14.1331445,171.740562 L11.4913296,169.098571 C11.3305703,168.937776 11.1396576,168.85752 10.9187323,168.85752 C10.6977718,168.85752 10.5069295,168.937776 10.346135,169.098571 L9.2411566,170.203549 C9.0804324,170.364273 9,170.555186 9,170.776252 C9,170.997213 9.0804324,171.188055 9.2411566,171.348849 L13.560688,175.668381 C13.7214473,175.829211 13.91236,175.909432 14.1332853,175.909432 C14.3542106,175.909432 14.5450881,175.829246 14.7058826,175.668381 L22.8829691,167.49133 C23.0435877,167.330641 23.1241257,167.139693 23.1241257,166.918732 C23.1241257,166.697772 23.0437988,166.506859 22.8830746,166.34617 Z"/>
    <g fill="#525C69" transform="translate(8 200)">
      <circle cx="2" cy="2" r="2"/>
      <circle cx="8" cy="2" r="2"/>
      <circle cx="14" cy="2" r="2"/>
    </g>
    <path fill="#69A3E9" fill-rule="nonzero" d="M16.0502554,140.830486 C15.7802022,140.830486 15.5612996,140.61156 15.5612996,140.341507 C15.5612996,140.071454 15.7802022,139.852528 16.0502554,139.852528 C16.3203319,139.852528 16.5392345,140.071454 16.5392345,140.341507 C16.5392345,140.61156 16.3203319,140.830486 16.0502554,140.830486 M12.8054584,144.202073 C12.6063009,144.359614 12.3585166,144.429645 12.1078114,144.399268 C11.8559379,144.368727 11.6307962,144.240582 11.4737462,144.038293 C11.3403436,143.866569 11.2697985,143.660635 11.2697985,143.442784 C11.2697985,143.143054 11.4032244,142.865594 11.6359136,142.681531 C11.8349542,142.524037 12.0826217,142.453983 12.3333269,142.484313 C12.5852472,142.514831 12.810459,142.642906 12.9674856,142.845054 C13.1008882,143.016779 13.17141,143.222713 13.17141,143.44061 C13.17141,143.74041 13.0379607,144.018011 12.8054584,144.202073 M12.8054584,138.001506 C12.6063009,138.159047 12.3585166,138.229055 12.1078114,138.198677 C11.8559145,138.168113 11.6307962,138.039992 11.4737462,137.83775 C11.3403436,137.666025 11.2697985,137.460091 11.2697985,137.242217 C11.2697985,136.942488 11.4032244,136.665027 11.6359136,136.480965 C11.8349542,136.323424 12.0826217,136.253393 12.3333269,136.283747 C12.5852472,136.314241 12.810459,136.442339 12.9674623,136.644464 C13.1008882,136.816189 13.17141,137.022146 13.17141,137.240044 C13.17141,137.539843 13.0379607,137.817444 12.8054584,138.001506 M21.8067311,143.530527 L17.942964,140.479396 C17.8539121,140.409061 17.8539121,140.273976 17.942964,140.203641 L21.8067077,137.152464 C21.8899879,137.086662 21.8963905,136.962607 21.820284,136.888627 L21.648466,136.721599 C21.6196076,136.693558 21.3543681,136.444115 20.9278959,136.319265 C20.5241831,136.201121 19.8997685,136.173314 19.2176372,136.711948 C18.7546656,137.077619 17.5368445,138.038683 16.3029468,139.012389 C16.239108,139.062768 16.1490513,139.062745 16.0852359,139.012342 L14.4796149,137.744375 C14.4297964,137.705048 14.4055881,137.642004 14.4150751,137.57924 C14.5043139,136.989245 14.3617748,136.364994 13.9681333,135.858373 C13.2114845,134.88441 11.8156998,134.713877 10.850757,135.47749 C9.88548699,136.241079 9.71644967,137.649809 10.4730985,138.623701 C11.1152721,139.450731 12.2178469,139.698352 13.1268957,139.287442 C13.1873229,139.260126 13.2576578,139.267604 13.3097196,139.308683 C13.5113774,139.467813 13.8112702,139.704428 14.1719175,139.989038 C14.2591233,140.057854 14.3499277,140.129498 14.4437231,140.203525 C14.5328685,140.27386 14.5328685,140.409202 14.4437231,140.479513 C14.3499277,140.55354 14.2591233,140.625183 14.1719175,140.693999 C13.8110599,140.97875 13.5110736,141.215482 13.3094158,141.374588 C13.2576812,141.415411 13.1877669,141.423239 13.1276902,141.396156 C12.4000165,141.068246 11.521415,141.147367 10.850757,141.678056 C9.88548699,142.441645 9.71644967,143.850352 10.4730985,144.824268 C11.2296539,145.798604 12.6253685,145.969137 13.5906384,145.205595 C14.2437712,144.688552 14.5317936,143.876149 14.415449,143.103073 C14.4060087,143.04045 14.4302871,142.977569 14.4799888,142.938312 L16.0852592,141.670626 C16.1490747,141.620246 16.2391313,141.620223 16.3029701,141.670602 C17.5368912,142.644308 18.7547357,143.605418 19.2177073,143.97109 C19.8997919,144.509654 20.5242299,144.481847 20.9279192,144.363726 C21.3543915,144.238899 21.6196076,143.989409 21.6484893,143.961369 L21.8203073,143.794364 C21.8963905,143.720384 21.8900113,143.596305 21.8067311,143.530527"/>
    <path fill="#525C69" fill-rule="nonzero" d="M20.1319742,108.486239 L18.2732358,110.34437 C17.2473605,111.370852 15.5831294,111.370852 14.5570807,110.34437 C14.3954607,110.183205 14.2690245,110.00161 14.157992,109.814339 L15.0216407,108.950755 C15.0626957,108.909354 15.1133915,108.885631 15.1618342,108.857683 C15.2215426,109.06168 15.3257723,109.2548 15.4862007,109.41525 C15.9985318,109.927993 16.8321964,109.927278 17.3442241,109.41525 L19.2023775,107.557162 C19.7150986,107.044484 19.7150986,106.211015 19.2023775,105.698727 C18.6903281,105.186439 17.8568802,105.186439 17.3442241,105.698727 L16.683467,106.360199 C16.1472612,106.151415 15.5695672,106.095281 15.0071903,106.177694 L16.4152124,104.769715 C17.4416944,103.743428 19.1054922,103.743428 20.1319742,104.769715 C21.1579579,105.795959 21.1579579,107.460017 20.1319742,108.486239 L20.1319742,108.486239 Z M15.2182928,111.541637 L14.5570591,112.203109 C14.0447713,112.715136 13.2110634,112.715136 12.698689,112.203109 C12.186358,111.690366 12.186358,110.856896 12.698689,110.34437 L14.5570591,108.486239 C15.0697584,107.973604 15.902903,107.973604 16.4151908,108.486239 C16.5752509,108.646342 16.679589,108.83942 16.7398607,109.043156 C16.788585,109.01484 16.8386525,108.991832 16.8796858,108.950734 L17.7432696,108.087497 C17.632952,107.899489 17.5058658,107.718544 17.3441808,107.557205 C16.3183921,106.530918 14.6540094,106.530918 13.6277224,107.557205 L11.769634,109.415359 C10.7434553,110.441949 10.7434553,112.10553 11.769634,113.132034 C12.795921,114.157996 14.4599137,114.157996 15.4861791,113.132034 L16.8945696,111.723752 C16.3318893,111.806641 15.7540437,111.750031 15.2182928,111.541637 L15.2182928,111.541637 Z"/>
    <path fill="#468EE5" fill-rule="nonzero" d="M17.7869365,73.400801 C18.788347,73.400801 19.6076828,72.581465 19.6076828,71.580054 L19.6076828,65.820746 C19.6076828,64.819336 18.788347,64 17.7869365,64 L7.82074633,64 C6.81933583,64 6.00000003,64.819336 6.00000003,65.820746 L6.00000003,71.575263 C6.00000003,72.576673 6.81933583,73.396009 7.82074633,73.396009 L9.17193173,73.396009 L9.17193173,76.591898 C9.17193173,76.917716 9.45941793,76.908133 10.0583476,76.400241 C10.4081226,76.107963 11.7161851,74.608243 12.7607185,73.396009 L17.7869365,73.396009 L17.7869365,73.400801 Z M22.2908879,67.928979 L21.2655202,67.928979 L21.2655202,72.394599 C21.2655202,73.86557 20.0628694,75.073012 18.5871066,75.073012 L13.2302793,75.073012 L11.3424529,77.042293 C11.6251477,77.224368 11.9653398,77.334571 12.3246976,77.334571 L17.3509157,77.334571 C18.3954491,78.546805 19.708303,80.046525 20.0532865,80.338802 C20.6570076,80.846695 20.9397024,80.851486 20.9397024,80.53046 L20.9397024,77.334571 L22.2908879,77.334571 C23.2922983,77.334571 24.1116341,76.515235 24.1116341,75.513825 L24.1116341,69.749725 C24.1164256,68.748315 23.2970897,67.928979 22.2908879,67.928979 L22.2908879,67.928979 Z M22.9359938,34 L8.02836083,34 C6.88138933,34.036159 5.97877603,34.908097 6.00193473,35.957557 L6.00193473,45.042443 C5.95373233,46.066957 6.81199193,46.937843 7.93111133,47 L22.9731542,47 C24.1198118,46.963843 25.0223008,46.092347 24.9995803,45.043166 L24.9995803,35.994437 C25.0081194,34.930933 24.0974723,34.050801 22.9359938,34 L22.9359938,34 Z M21.1396458,35.807866 L15.4469936,39.981143 L9.75434133,35.807866 L21.1451803,35.807866 L21.1396458,35.807866 Z M23.1273302,44.597708 C23.1337342,44.750752 23.0724264,44.899696 22.9572626,45.01088 C22.8420989,45.122064 22.6828005,45.186101 22.5153701,45.188519 L8.46005363,45.188519 C8.29651523,45.18239 8.14256363,45.11629 8.03293073,45.005133 C7.92329783,44.893975 7.86721963,44.747123 7.87734743,44.597708 L7.87734743,42.112255 L7.87734743,42.112255 L7.87734743,36.954776 C7.94344193,37.036952 8.02046323,37.111285 8.10663483,37.176058 L14.8342428,42.087668 C14.9707235,42.200971 15.1465776,42.266537 15.3307686,42.272793 L15.6367486,42.272793 C15.81662,42.24935 15.9874167,42.185771 16.1340651,42.087668 L22.8608824,37.176058 C22.9699874,37.093684 23.0602618,36.992441 23.1265396,36.878122 L23.1265396,44.596985 L23.1273302,44.597708 Z M19.3320701,12.447194 C18.7977403,11.890694 18.1306788,11.890694 17.5997523,12.447194 C17.1947507,12.870852 16.8918503,13.007285 16.4936554,13.438124 C16.3847474,13.556604 16.2928563,13.581737 16.1601247,13.502749 C15.8980648,13.351956 15.618988,13.229885 15.3671383,13.06473 C14.1929739,12.285629 13.2093985,11.283929 12.3381345,10.156567 C11.9059059,9.59647597 11.5213245,8.99689197 11.2524579,8.32191097 C11.1980039,8.18547797 11.208214,8.09571997 11.3137187,7.98441997 C11.7187203,7.57153297 11.8548553,7.42073897 12.2530502,6.99708097 C12.8078003,6.40826797 12.8078003,5.71892497 12.2496468,5.12652197 C11.9331329,4.78903097 11.6271014,4.32271997 11.3690916,3.95661397 C11.1111158,3.59050897 10.908717,3.15543297 10.5785897,2.81435197 C10.0442598,2.26503297 9.37719833,2.26503297 8.84627183,2.81794297 C8.43786683,3.24160097 8.04647873,3.67602997 7.63126693,4.09250797 C7.24668563,4.47667297 7.05269323,4.94700497 7.01185273,5.49632497 C6.94718863,6.39031597 7.15479443,7.23404197 7.44748473,8.05622697 C8.04647873,9.75804097 8.95858323,11.269567 10.06468,12.655433 C11.5587617,14.529582 13.3421302,16.012387 15.428399,17.082303 C16.3677305,17.563407 17.3410958,17.93321 18.3995454,17.994246 C19.1278676,18.03733 19.7608954,17.843452 20.2679983,17.243868 C20.6151425,16.834571 21.0065306,16.461177 21.3740951,16.069832 C21.9186351,15.488199 21.9220385,14.784495 21.3809019,14.210043 C20.7342606,13.524291 19.9821148,13.129356 19.3320701,12.447194 Z M19.0557672,9.36462697 L19.2064005,9.33748397 C19.5351325,9.27827997 19.7440997,8.93102397 19.6520725,8.59288697 C19.3898424,7.62935097 18.9010157,6.75675897 18.2214298,6.03693497 C17.4956941,5.27133397 16.6106464,4.74053997 15.6343202,4.47945197 C15.3102849,4.39278097 14.9865559,4.62195197 14.9401338,4.97114697 L14.9187606,5.13213697 C14.8788391,5.43250297 15.0613961,5.71279997 15.3397241,5.78884297 C16.0874115,5.99313297 16.7661466,6.40095797 17.3229388,6.98837097 C17.845493,7.53962897 18.2205109,8.21062497 18.4238625,8.95051897 C18.5028208,9.23792497 18.7761799,9.41499897 19.0557672,9.36462697 Z M20.4982944,3.69962597 C19.1891522,2.31857197 17.5664571,1.39711497 15.7729805,1.01187297 C15.4573856,0.944086971 15.1534642,1.17404797 15.1087438,1.51056897 L15.0874047,1.67119997 C15.0462919,1.98075797 15.2405906,2.26985097 15.5307964,2.33293297 C17.0746353,2.66866397 18.4723674,3.46492597 19.5998034,4.65106197 C20.6623712,5.77199697 21.3980787,7.15725197 21.7436234,8.68346397 C21.8125758,8.98795897 22.0917206,9.18506797 22.3842407,9.13239797 L22.5336148,9.10550597 C22.854451,9.04770197 23.0599127,8.71534597 22.9843237,8.38137397 C22.5831339,6.60926097 21.7307586,5.00298597 20.4982944,3.69962597 Z"/>
    <rect width="1" height="1" fill="#FFFFFF" fill-rule="nonzero"/>
    <rect width="1" height="1" x="30" fill="#FFFFFF" fill-rule="nonzero"/>
  </g>
</svg>
