<svg xmlns="http://www.w3.org/2000/svg" width="21" height="16" viewBox="0 0 21 16">
  <g fill="#A8ADB4" fill-rule="evenodd" opacity=".8">
    <path fill-rule="nonzero" d="M20.4443359,15.4072917 L6,15.4072917 L6.00002567,13.344499 C5.99746004,12.910964 6.18731327,12.4990936 6.51656789,12.2216277 C7.82587564,11.1516525 9.24552385,10.2282015 10.750664,9.46694594 C10.795989,9.44526875 10.825065,9.39844737 10.825065,9.34728932 L10.825065,7.92875031 C10.6206746,7.57758943 10.4812801,7.19173422 10.4137184,6.79027432 C10.2563629,6.77726805 10.0502517,6.55269689 9.82705309,5.75583695 C9.52260975,4.66330931 9.84672237,4.5037775 10.1203748,4.52806132 L10.1195197,4.52806132 C10.069063,4.38325962 10.0297236,4.23499071 10.0015035,4.08411583 C9.89374864,3.61069237 9.89374864,3.11904494 10.0015035,2.64562148 C10.1391905,2.08722685 10.4248256,1.57824335 10.8293197,1.17418637 C11.0576631,0.928795507 11.3150804,0.712904818 11.5955729,0.532551965 C11.8247701,0.368673929 12.0753349,0.238615661 12.3395828,0.146696748 C12.5585123,0.0712615317 12.7860019,0.0270401221 13.0160311,0.0157683463 C13.6035503,-0.0475294007 14.1953385,0.0807997004 14.7067578,0.381668214 C15.0471275,0.560287459 15.3336186,0.829942166 15.5337201,1.16116989 C15.5337201,1.16116989 16.9062985,1.26088449 16.4419272,4.08677063 L16.4427825,4.08677063 C16.4145603,4.23764328 16.3752231,4.38592329 16.3247664,4.53071611 C16.5984283,4.50383743 16.9225534,4.66598186 16.6180881,5.75849174 C16.3991587,6.55532949 16.1802292,6.77992151 16.0314228,6.79292911 L16.0305677,6.79206209 C15.9630082,7.19005921 15.8236114,7.57156376 15.6192211,7.91753048 L15.6192211,9.35429344 C15.6192211,9.40458359 15.6482971,9.45140652 15.6936221,9.47395007 C17.1987622,10.2326529 18.618301,11.1543503 19.9277182,12.2217506 C20.2569662,12.4992166 20.4468219,12.911087 20.4442604,13.344622 L20.4443359,15.4072917 Z"/>
    <rect width="6.61" height="1.551" x=".896" y="5.181" rx=".775"/>
    <rect width="6.61" height="1.551" x=".896" y="1.997" rx=".775"/>
    <rect width="5.264" height="1.551" x=".896" y="8.523" rx=".775"/>
  </g>
</svg>
