<svg xmlns="http://www.w3.org/2000/svg" width="16" height="14" viewBox="0 0 16 14">
  <g fill="#828B95" fill-rule="evenodd" transform="translate(0 -1)">
    <path d="M12.946607 2.5385597C14.4849634 3.85910859 15.4609545 5.82750064 15.4609545 8.0260727 15.4609545 11.3746743 13.1968765 14.1893104 10.1301432 14.9942933L10.1301432 13.3424937C12.3193278 12.5873995 13.8935683 10.4923724 13.8935683 8.0260727 13.8935683 6.26442673 13.0903813 4.69220627 11.8336072 3.66242364L10.0140775 5.49971395 10.0140775 1.00470037 14.4656389 1.00470037 12.946607 2.5385597zM3.03118768 13.4334934C1.49605944 12.1129772.522433899 10.1466932.522433899 7.9507871.522433899 4.60218555 2.78651185 1.78754945 5.85324516.982566492L5.85324516 2.68274709C3.68952375 3.43596957 2.13512683 5.51008203 2.13512683 7.9507871 2.13512683 9.69713423 2.93090582 11.255803 4.17627668 12.2772271L6.00152932 10.4341579 6.00152932 14.9799118 1.49971807 14.9799118 3.03118768 13.4334934z"/>
  </g>
</svg>
