<svg xmlns="http://www.w3.org/2000/svg" width="26" height="200" viewBox="0 0 26 200">
  <g fill="none" fill-rule="evenodd">
    <path fill="#535C69" d="M5.015703,6.8748005 C3.98042,6.8748005 3.140757,6.0349811 3.140757,4.9998549 C3.140757,3.9645725 3.98042,3.1249093 5.015703,3.1249093 C6.050807,3.1249093 6.890626,3.9645725 6.890626,4.9998549 C6.890626,6.0349811 6.050807,6.8748005 5.015703,6.8748005 M9.634095,4.2717287 L8.64351,4.1064768 C8.571515,3.8121327 8.46654,3.5307681 8.329825,3.2683427 L8.96397,2.4820708 C9.098843,2.3159038 9.092716,2.0768147 8.950522,1.9164399 L8.556549,1.4730488 C8.41374,1.3128414 8.176917,1.2789584 7.996275,1.3930846 L7.149134,1.9256138 C6.776533,1.6652865 6.35447,1.4730488 5.89917,1.3615007 L5.733439,0.3656032 C5.698663,0.1547277 5.516179,1.77635684e-15 5.301967,1.77635684e-15 L4.708256,1.77635684e-15 C4.494479,1.77635684e-15 4.311382,0.1547277 4.277376,0.3656032 L4.11074,1.3618132 C3.734311,1.4539757 3.381375,1.6027437 3.059286,1.7986755 L2.25364,1.2237145 C2.080007,1.0996668 1.84152,1.1190635 1.689996,1.2702645 L1.270555,1.6900068 C1.119354,1.8415314 1.099957,2.0800178 1.224328,2.2536511 L1.800629,3.0608375 C1.606538,3.3804934 1.459299,3.7314207 1.367148,4.1045014 L0.365581,4.2717399 C0.155029,4.3065157 0,4.4890104 0,4.7032341 L0,5.2964758 C0,5.5106771 0.155029,5.6931942 0.365581,5.7279699 L1.367148,5.8952084 C1.442826,6.2022084 1.552689,6.4954588 1.698712,6.7673594 L1.067458,7.5491894 C0.933042,7.7152002 0.938689,7.9544455 1.080884,8.1146752 L1.474555,8.5580776 C1.617375,8.7185863 1.854321,8.7518554 2.034986,8.6380194 L2.894336,8.0981913 C3.257952,8.3469006 3.669313,8.5296967 4.11074,8.6380194 L4.277376,9.6340843 C4.311393,9.844971 4.494479,9.9996987 4.708256,9.9996987 L5.301967,9.9996987 C5.516179,9.9996987 5.698663,9.8449822 5.733439,9.6340954 L5.899449,8.6380306 C6.27118,8.5471069 6.619641,8.4009281 6.938861,8.2083556 L7.778078,8.8077243 C7.951399,8.9322185 8.190064,8.9126878 8.341432,8.7610069 L8.76104,8.3414097 C8.912063,8.1903427 8.93252,7.9519902 8.807099,7.7780444 L8.209617,6.9403566 C8.404265,6.6196293 8.552285,6.268077 8.643856,5.8933335 L9.63443,5.7279365 C9.845596,5.6931607 10,5.5106548 10,5.2964423 L10,4.7032006 C9.999688,4.4890104 9.845284,4.3065157 9.634095,4.2717287" transform="translate(3 4)" opacity=".3"/>
    <path fill="#535C69" d="M5.015703,6.8748005 C3.98042,6.8748005 3.140757,6.0349811 3.140757,4.9998549 C3.140757,3.9645725 3.98042,3.1249093 5.015703,3.1249093 C6.050807,3.1249093 6.890626,3.9645725 6.890626,4.9998549 C6.890626,6.0349811 6.050807,6.8748005 5.015703,6.8748005 M9.634095,4.2717287 L8.64351,4.1064768 C8.571515,3.8121327 8.46654,3.5307681 8.329825,3.2683427 L8.96397,2.4820708 C9.098843,2.3159038 9.092716,2.0768147 8.950522,1.9164399 L8.556549,1.4730488 C8.41374,1.3128414 8.176917,1.2789584 7.996275,1.3930846 L7.149134,1.9256138 C6.776533,1.6652865 6.35447,1.4730488 5.89917,1.3615007 L5.733439,0.3656032 C5.698663,0.1547277 5.516179,-1.77635684e-15 5.301967,-1.77635684e-15 L4.708256,-1.77635684e-15 C4.494479,-1.77635684e-15 4.311382,0.1547277 4.277376,0.3656032 L4.11074,1.3618132 C3.734311,1.4539757 3.381375,1.6027437 3.059286,1.7986755 L2.25364,1.2237145 C2.080007,1.0996668 1.84152,1.1190635 1.689996,1.2702645 L1.270555,1.6900068 C1.119354,1.8415314 1.099957,2.0800178 1.224328,2.2536511 L1.800629,3.0608375 C1.606538,3.3804934 1.459299,3.7314207 1.367148,4.1045014 L0.365581,4.2717399 C0.155029,4.3065157 0,4.4890104 0,4.7032341 L0,5.2964758 C0,5.5106771 0.155029,5.6931942 0.365581,5.7279699 L1.367148,5.8952084 C1.442826,6.2022084 1.552689,6.4954588 1.698712,6.7673594 L1.067458,7.5491894 C0.933042,7.7152002 0.938689,7.9544455 1.080884,8.1146752 L1.474555,8.5580776 C1.617375,8.7185863 1.854321,8.7518554 2.034986,8.6380194 L2.894336,8.0981913 C3.257952,8.3469006 3.669313,8.5296967 4.11074,8.6380194 L4.277376,9.6340843 C4.311393,9.844971 4.494479,9.9996987 4.708256,9.9996987 L5.301967,9.9996987 C5.516179,9.9996987 5.698663,9.8449822 5.733439,9.6340954 L5.899449,8.6380306 C6.27118,8.5471069 6.619641,8.4009281 6.938861,8.2083556 L7.778078,8.8077243 C7.951399,8.9322185 8.190064,8.9126878 8.341432,8.7610069 L8.76104,8.3414097 C8.912063,8.1903427 8.93252,7.9519902 8.807099,7.7780444 L8.209617,6.9403566 C8.404265,6.6196293 8.552285,6.268077 8.643856,5.8933335 L9.63443,5.7279365 C9.845596,5.6931607 10,5.5106548 10,5.2964423 L10,4.7032006 C9.999688,4.4890104 9.845284,4.3065157 9.634095,4.2717287" transform="translate(3 17)" opacity=".8"/>
    <g transform="translate(4 41)">
      <path fill="#9ECD0E" d="M4.49375765,0.000404134858 C2.03802137,0.0332723132 0.0740510433,2.05089511 0.106725879,4.50672805 C0.139594058,6.96149762 2.15702351,8.92604797 4.61266311,8.89337314 C7.06791604,8.86031162 9.03227305,6.84268882 8.99959821,4.38704922 C8.96673003,1.93208631 6.94920391,-0.0323673724 4.49375765,0.000404134858 L4.49375765,0.000404134858 L4.49375765,0.000404134858 Z"/>
      <polygon fill="#FFFFFF" points="3.131 4.47 3.131 2.557 1.815 2.557 1.815 5.129 1.815 5.787 7.081 5.787 7.081 4.47" transform="rotate(-45 4.448 4.172)"/>
    </g>
    <path fill="#ABAFB5" d="M4.49375765,0.00040413 C2.03802137,0.03327231 0.07405104,2.05089511 0.10672588,4.50672805 C0.13959406,6.96149762 2.15702351,8.92604797 4.61266311,8.89337314 C7.06791604,8.86031162 9.032273,6.84268882 8.99959821,4.38704922 C8.96673003,1.93208631 6.94920391,-0.032367372 4.49375765,0.00040413 L4.49375765,0.00040413 L4.49375765,0.00040413 Z M4.48061037,7.15367979 L4.45605591,7.15329311 C4.07787852,7.14207926 3.81125959,6.86347311 3.82199008,6.49090264 C3.83252723,6.12471247 4.10562313,5.85886691 4.47132995,5.85886691 L4.49327429,5.85925359 C4.88198883,5.87075745 5.14561096,6.14656014 5.13468712,6.5298611 C5.12385996,6.89711466 4.85501759,7.15367979 4.48061037,7.15367979 L4.48061037,7.15367979 L4.48061037,7.15367979 Z M6.07133353,3.99649792 C5.98239611,4.12284707 5.78683045,4.27974428 5.54041578,4.47173311 L5.26905997,4.65908173 C5.12008979,4.77489372 5.03018565,4.88384207 4.99644743,4.99105033 C4.96986288,5.07544421 4.95681228,5.09777524 4.95449217,5.26946313 L4.95410548,5.31306181 L3.9179845,5.31306181 L3.9209813,5.22538111 C3.93364522,4.8649912 3.94253896,4.65299145 4.09189583,4.47782339 C4.32622661,4.2026974 4.84312705,3.86985876 4.86507139,3.85574478 C4.93912146,3.79996555 5.001571,3.73645263 5.04806981,3.66858951 C5.15682481,3.51865261 5.20496702,3.40061718 5.20496702,3.28461185 C5.20496702,3.12365444 5.15721149,2.97478093 5.06276382,2.84224484 C4.97198964,2.71434895 4.79952838,2.64957931 4.5501169,2.64957931 C4.30273553,2.64957931 4.13336774,2.72807625 4.03205641,2.88913033 C3.92784495,3.05472794 3.8751592,3.22863927 3.8751592,3.40632078 L3.8751592,3.45049948 L2.80684673,3.45049948 L2.80878015,3.40438736 C2.83633142,2.75002059 3.06988883,2.27884559 3.5026854,2.00391295 C3.77462124,1.82884156 4.11297013,1.74009748 4.50777496,1.74009748 C5.02457873,1.74009748 5.46085546,1.86567325 5.80432792,2.11334465 C6.15234393,2.36430285 6.32886538,2.74016014 6.32886538,3.23047602 C6.32886538,3.50473197 6.24224806,3.76236049 6.07133353,3.99649792 L6.07133353,3.99649792 L6.07133353,3.99649792 Z" transform="translate(4 53)"/>
    <g transform="translate(4 65)">
      <path fill="#FE5957" d="M4.49375765,0.000404134858 C2.03802137,0.0332723132 0.0740510433,2.05089511 0.106725879,4.50672805 C0.139594058,6.96149762 2.15702351,8.92604797 4.61266311,8.89337314 C7.06791604,8.86031162 9.03227305,6.84268882 8.99959821,4.38704922 C8.96673003,1.93208631 6.94920391,-0.0323673724 4.49375765,0.000404134858 L4.49375765,0.000404134858 L4.49375765,0.000404134858 Z"/>
      <polygon fill="#FFFFFF" points="5.136 4.05 5.136 1.42 3.99 1.42 3.99 4.05 1.357 4.05 1.357 5.197 3.99 5.197 3.99 7.514 5.136 7.514 5.136 5.197 7.451 5.197 7.451 4.05" transform="rotate(-45 4.404 4.467)"/>
    </g>
    <polygon fill="#29AD49" points="1.786 7.047 7.128 7.047 7.972 2.665 5.82 4.223 4.447 .883 3.074 4.223 .921 2.887" transform="translate(4 30)"/>
    <polygon fill="#80868E" points="3.546 7.425 3.546 1.607 1.607 1.607 1.607 8.394 1.607 9.364 9.364 9.364 9.364 7.425" transform="rotate(45 -85.462 48.814)"/>
    <polygon fill="#80868E" points="3.546 7.425 3.546 1.607 1.607 1.607 1.607 8.394 1.607 9.364 9.364 9.364 9.364 7.425" transform="rotate(-135 24.832 50.778)"/>
    <g transform="translate(1 106)">
      <circle cx="12" cy="12" r="12" fill="#535C69"/>
      <path fill="#FFFFFF" d="M18.3858876,19.1627865 C18.3858876,18.2952809 17.4124045,14.6254382 17.4124045,14.6254382 C17.4124045,14.0890787 16.7112809,13.4764045 15.3306067,13.1193708 C14.8628392,12.9889 14.4181701,12.7865792 14.0124944,12.5196404 C13.9237753,12.4689438 13.9372584,12.0005393 13.9372584,12.0005393 L13.4925843,11.9328539 C13.4925843,11.8948315 13.4545618,11.3331236 13.4545618,11.3331236 C13.9866067,11.1543371 13.9318652,10.0996854 13.9318652,10.0996854 C14.2697528,10.2871011 14.4897978,9.45249438 14.4897978,9.45249438 C14.8894382,8.29294382 14.2907865,8.36305618 14.2907865,8.36305618 C14.3955183,7.65517869 14.3955183,6.93574266 14.2907865,6.22786517 C14.0246292,3.87964045 10.0174382,4.5171236 10.4925843,5.28404494 C9.3214382,5.06831461 9.58867416,7.7331236 9.58867416,7.7331236 L9.84269663,8.42319101 C9.34382022,8.74678652 9.69060674,9.13806742 9.70786517,9.58840449 C9.73240449,10.2533933 10.1393258,10.1155955 10.1393258,10.1155955 C10.1644045,11.2131236 10.705618,11.3560449 10.705618,11.3560449 C10.8072809,12.0453034 10.7439101,11.928 10.7439101,11.928 L10.2622921,11.9862472 C10.2688119,12.1429919 10.256042,12.2999438 10.2242697,12.453573 C9.65797753,12.7059775 9.53608989,12.8540225 8.97330337,13.100764 C7.88602247,13.5772584 6.70435955,14.1969438 6.49429213,15.0312809 C6.28422472,15.865618 5.65968539,19.1627865 5.65968539,19.1627865 L18.3853483,19.1627865 L18.3853483,19.1627865 L18.3853483,19.1627865 L18.3858876,19.1627865 L18.3858876,19.1627865 Z"/>
    </g>
    <path fill="#535C69" d="M0,0 L0,9 L9,9 L9,6.693 L7.438,6.693 L7.438,7.375 L1.719,7.375 L1.719,1.719 L2.355,1.719 L2.355,0 L0,0 L0,0 Z M7.9101,0 L6.6191,1.287 L5.6541,2.248 L4.6381,3.258 L4.6421,3.262 L4.6391,3.259 L4.6301,3.269 L4.6291,3.268 L4.6381,3.258 L3.0061,1.629 L3.0251,5.994 L7.3651,5.974 L5.7291,4.345 L5.7281,4.344 L9.0001,1.086 L7.9101,0 L7.9101,0 Z" transform="translate(2 134)" opacity=".3"/>
    <path fill="#535C69" d="M0,0 L0,9 L9,9 L9,6.693 L7.438,6.693 L7.438,7.375 L1.719,7.375 L1.719,1.719 L2.355,1.719 L2.355,0 L0,0 L0,0 Z M7.9101,0 L6.6191,1.287 L5.6541,2.248 L4.6381,3.258 L4.6421,3.262 L4.6391,3.259 L4.6301,3.269 L4.6291,3.268 L4.6381,3.258 L3.0061,1.629 L3.0251,5.994 L7.3651,5.974 L5.7291,4.345 L5.7281,4.344 L9.0001,1.086 L7.9101,0 L7.9101,0 Z" transform="translate(2 146)" opacity=".797"/>
    <g transform="translate(2 159)">
      <circle cx="8.5" cy="8.535" r="8.424" fill="#FFFFFF"/>
      <path fill="#FE5957" d="M7.53452774,10.9751658 L7.53452774,12.8993634 L9.49620975,12.8993634 L9.49620975,10.9751658 L7.53452774,10.9751658 L7.53452774,10.9751658 Z M9.43373581,6.37708313 L9.43373581,3.97808348 L7.5845069,3.97808348 L7.5845069,6.37708313 L8.05930892,10.2254784 L8.946439,10.2254784 L9.43373581,6.37708313 L9.43373581,6.37708313 Z"/>
    </g>
    <polygon fill="#FFFFFF" points="10 3 0 3 0 5 10 5 10 8 15 4 10 0" transform="rotate(180 7.5 99)"/>
    <g fill="#FFFFFF" transform="translate(0 179)">
      <rect width="11" height="2" y="3"/>
      <polygon points="10 8 10 0 15 4"/>
    </g>
  </g>
</svg>
