<svg width="116" height="116" viewBox="0 0 116 116" fill="none" xmlns="http://www.w3.org/2000/svg">
<path opacity="0.483631" d="M57.9998 0C90.0325 0 116 25.967 116 58.0002C116 90.0325 90.0325 116 57.9998 116C25.967 116 0 90.0325 0 58.0002C0 25.967 25.9675 0 57.9998 0Z" fill="#EDEEF0"/>
<path d="M96.5666 48.7657H21.5386L59.0526 26.783L96.5666 48.7657Z" fill="#A8D703"/>
<path d="M21.5386 48.4734H96.5666V92.4395H21.5386V48.4734Z" fill="#B3E600"/>
<path d="M77.6904 16.1423L88.2697 26.7829V92.6726H28.8628V16.1427L77.6904 16.1423Z" fill="white"/>
<rect opacity="0.307745" x="36.1868" y="28.8292" width="11.3931" height="12.6868" rx="2" fill="#A8ADB4"/>
<path opacity="0.307745" fill-rule="evenodd" clip-rule="evenodd" d="M50.835 29.8524C50.835 29.5134 51.1098 29.2385 51.4488 29.2385H77.89C78.2291 29.2385 78.5039 29.5134 78.5039 29.8524C78.5039 30.1914 78.2291 30.4663 77.89 30.4663H51.4488C51.1098 30.4663 50.835 30.1914 50.835 29.8524Z" fill="#A8ADB4"/>
<path opacity="0.307745" fill-rule="evenodd" clip-rule="evenodd" d="M50.835 33.1263C50.835 32.7873 51.1098 32.5125 51.4488 32.5125H77.89C78.2291 32.5125 78.5039 32.7873 78.5039 33.1263C78.5039 33.4654 78.2291 33.7402 77.89 33.7402H51.4488C51.1098 33.7402 50.835 33.4654 50.835 33.1263Z" fill="#A8ADB4"/>
<path opacity="0.307745" fill-rule="evenodd" clip-rule="evenodd" d="M36.1868 46.2225C36.1868 45.8835 36.4616 45.6086 36.8006 45.6086H77.8901C78.2292 45.6086 78.504 45.8835 78.504 46.2225C78.504 46.5616 78.2292 46.8364 77.8901 46.8364H36.8006C36.4616 46.8364 36.1868 46.5616 36.1868 46.2225Z" fill="#A8ADB4"/>
<path opacity="0.307745" fill-rule="evenodd" clip-rule="evenodd" d="M50.835 36.4004C50.835 36.0613 51.1098 35.7865 51.4488 35.7865H77.89C78.2291 35.7865 78.5039 36.0613 78.5039 36.4004C78.5039 36.7394 78.2291 37.0143 77.89 37.0143H51.4488C51.1098 37.0143 50.835 36.7394 50.835 36.4004Z" fill="#A8ADB4"/>
<path opacity="0.307745" fill-rule="evenodd" clip-rule="evenodd" d="M36.1868 49.4964C36.1868 49.1574 36.4616 48.8826 36.8006 48.8826H77.8901C78.2292 48.8826 78.504 49.1574 78.504 49.4964C78.504 49.8355 78.2292 50.1103 77.8901 50.1103H36.8006C36.4616 50.1103 36.1868 49.8355 36.1868 49.4964Z" fill="#A8ADB4"/>
<path opacity="0.307745" fill-rule="evenodd" clip-rule="evenodd" d="M50.835 39.6744C50.835 39.3354 51.1098 39.0605 51.4488 39.0605H62.8349C63.1739 39.0605 63.4488 39.3354 63.4488 39.6744C63.4488 40.0135 63.1739 40.2883 62.8349 40.2883H51.4488C51.1098 40.2883 50.835 40.0135 50.835 39.6744Z" fill="#A8ADB4"/>
<path opacity="0.307745" fill-rule="evenodd" clip-rule="evenodd" d="M36.1868 52.7705C36.1868 52.4315 36.4616 52.1566 36.8006 52.1566H77.8901C78.2292 52.1566 78.504 52.4315 78.504 52.7705C78.504 53.1095 78.2292 53.3844 77.8901 53.3844H36.8006C36.4616 53.3844 36.1868 53.1095 36.1868 52.7705Z" fill="#A8ADB4"/>
<path opacity="0.307745" fill-rule="evenodd" clip-rule="evenodd" d="M36.1868 56.0445C36.1868 55.7055 36.4616 55.4307 36.8006 55.4307H54.2901C54.6292 55.4307 54.904 55.7055 54.904 56.0445C54.904 56.3836 54.6292 56.6584 54.2901 56.6584H36.8006C36.4616 56.6584 36.1868 56.3836 36.1868 56.0445Z" fill="#A8ADB4"/>
<path d="M77.6902 16.1423V26.7829H88.2695L77.6902 16.1423Z" fill="#E0E3E9"/>
<g filter="url(#filter0_d)">
<path d="M21.5386 49.2919L59.0526 71.0396L21.5386 92.7881V49.2919Z" fill="#C1E449"/>
<path d="M96.8939 49.2919L59.3799 71.0396L96.8939 92.7881V49.2919Z" fill="#C1E449"/>
<path d="M59.1765 63.6157L21.5386 92.6727H96.8144L59.1765 63.6157Z" fill="#AEDE08"/>
</g>
<path d="M57.3042 24.0641C66.1406 24.0641 73.3042 31.2274 73.3042 40.0641C73.3042 48.9008 66.1404 56.0641 57.3042 56.0641C48.4673 56.0641 41.3042 48.9002 41.3042 40.0641C41.3042 31.2271 48.4678 24.0641 57.3042 24.0641Z" fill="#2FC6F6"/>
<path fill-rule="evenodd" clip-rule="evenodd" d="M59.3455 32H55.3455V38H49.3455V42H55.3455V48H59.3455V42H65.3455V38H59.3455V32Z" fill="white"/>
<path fill-rule="evenodd" clip-rule="evenodd" d="M0.345459 29.9147C0.345459 28.8101 1.24089 27.9147 2.34546 27.9147H37.3455C38.45 27.9147 39.3455 28.8101 39.3455 29.9147C39.3455 31.0192 38.45 31.9147 37.3455 31.9147H2.34546C1.24089 31.9147 0.345459 31.0192 0.345459 29.9147Z" fill="#A8ADB4" fill-opacity="0.438632"/>
<path fill-rule="evenodd" clip-rule="evenodd" d="M13.3455 38.9147C13.3455 37.8101 14.2409 36.9147 15.3455 36.9147H34.3455C35.45 36.9147 36.3455 37.8101 36.3455 38.9147C36.3455 40.0192 35.45 40.9147 34.3455 40.9147H15.3455C14.2409 40.9147 13.3455 40.0192 13.3455 38.9147Z" fill="#A8ADB4" fill-opacity="0.438632"/>
<defs>
<filter id="filter0_d" x="21.5386" y="49.2919" width="75.3553" height="46.4962" filterUnits="userSpaceOnUse" color-interpolation-filters="sRGB">
<feFlood flood-opacity="0" result="BackgroundImageFix"/>
<feColorMatrix in="SourceAlpha" type="matrix" values="0 0 0 0 0 0 0 0 0 0 0 0 0 0 0 0 0 0 127 0"/>
<feOffset dy="3"/>
<feColorMatrix type="matrix" values="0 0 0 0 0 0 0 0 0 0 0 0 0 0 0 0 0 0 0.09 0"/>
<feBlend mode="normal" in2="BackgroundImageFix" result="effect1_dropShadow"/>
<feBlend mode="normal" in="SourceGraphic" in2="effect1_dropShadow" result="shape"/>
</filter>
</defs>
</svg>
