<svg width="24" height="25" viewBox="0 0 24 25" fill="none" xmlns="http://www.w3.org/2000/svg">
	<style>
		.waitLoader {
			transform-origin: center 12.71px;
			animation: waitLoader 1s infinite steps(12);
		}

		@keyframes waitLoader {
		0%  {
		transform: rotate(0deg);
		}
		100%{
		transform: rotate(360deg);
		}
		}
	</style>
	<g class="waitLoader">
		<path d="M4.51237 13.5547C4.04548 13.5547 3.66699 13.1762 3.66699 12.7093C3.66699 12.2424 4.04548 11.8639 4.51237 11.8639H7.18001C7.6469 11.8639 8.02539 12.2424 8.02539 12.7093C8.02539 13.1762 7.6469 13.5547 7.18001 13.5547H4.51237Z" fill="#525C69" opacity="0.083"/>
		<path d="M5.09284 9.69711C4.6885 9.46366 4.54996 8.94663 4.78341 8.54229C5.01685 8.13795 5.53388 7.99941 5.93822 8.23286L8.24846 9.56668C8.6528 9.80012 8.79134 10.3172 8.55789 10.7215C8.32445 11.1258 7.80742 11.2644 7.40308 11.0309L5.09284 9.69711Z" fill="#525C69" opacity="0.166"/>
		<path d="M7.52407 6.64716C7.29062 6.24282 7.42916 5.72579 7.8335 5.49235C8.23784 5.2589 8.75487 5.39744 8.98831 5.80178L10.3221 8.11202C10.5556 8.51636 10.417 9.03339 10.0127 9.26683C9.60836 9.50028 9.09133 9.36174 8.85789 8.9574L7.52407 6.64716Z" fill="#525C69" opacity="0.249"/>
		<path d="M11.1546 5.22136C11.1546 4.75447 11.5331 4.37598 12 4.37598C12.4669 4.37598 12.8454 4.75447 12.8454 5.22136V7.88899C12.8454 8.35588 12.4669 8.73438 12 8.73438C11.5331 8.73438 11.1546 8.35588 11.1546 7.88899V5.22136Z" fill="#525C69" opacity="0.332"/>
		<path d="M15.0118 5.80244C15.2452 5.3981 15.7622 5.25956 16.1666 5.493C16.5709 5.72645 16.7094 6.24348 16.476 6.64782L15.1422 8.95806C14.9087 9.3624 14.3917 9.50093 13.9874 9.26749C13.583 9.03404 13.4445 8.51701 13.6779 8.11267L15.0118 5.80244Z" fill="#525C69" opacity="0.415"/>
		<path d="M18.0618 8.23324C18.4661 7.99979 18.9831 8.13833 19.2166 8.54267C19.45 8.94701 19.3115 9.46404 18.9071 9.69748L16.5969 11.0313C16.1926 11.2647 15.6755 11.1262 15.4421 10.7219C15.2086 10.3175 15.3472 9.8005 15.7515 9.56705L18.0618 8.23324Z" fill="#525C69" opacity="0.498"/>
		<path d="M16.8204 13.5547C16.3535 13.5547 15.975 13.1762 15.975 12.7093C15.975 12.2424 16.3535 11.8639 16.8204 11.8639H19.488C19.9549 11.8639 20.3334 12.2424 20.3334 12.7093C20.3334 13.1762 19.9549 13.5547 19.488 13.5547H16.8204Z" fill="#525C69" opacity="0.581"/>
		<path d="M15.7515 15.8514C15.3472 15.618 15.2087 15.1009 15.4421 14.6966C15.6755 14.2922 16.1926 14.1537 16.5969 14.3872L18.9072 15.721C19.3115 15.9544 19.45 16.4714 19.2166 16.8758C18.9831 17.2801 18.4661 17.4187 18.0618 17.1852L15.7515 15.8514Z" fill="#525C69" opacity="0.664"/>
		<path d="M13.6779 17.3063C13.4444 16.902 13.583 16.385 13.9873 16.1515C14.3917 15.9181 14.9087 16.0566 15.1421 16.461L16.4759 18.7712C16.7094 19.1755 16.5708 19.6926 16.1665 19.926C15.7622 20.1595 15.2451 20.0209 15.0117 19.6166L13.6779 17.3063Z" fill="#525C69" opacity="0.747"/>
		<path d="M11.1546 17.529C11.1546 17.0621 11.5331 16.6836 12 16.6836C12.4669 16.6836 12.8454 17.0621 12.8454 17.529V20.1966C12.8454 20.6635 12.4669 21.042 12 21.042C11.5331 21.042 11.1546 20.6635 11.1546 20.1966V17.529Z" fill="#525C69" opacity="0.83" />
		<path d="M8.85752 16.4606C9.09097 16.0563 9.60799 15.9178 10.0123 16.1512C10.4167 16.3847 10.5552 16.9017 10.3218 17.306L8.98795 19.6163C8.7545 20.0206 8.23747 20.1591 7.83314 19.9257C7.4288 19.6922 7.29026 19.1752 7.5237 18.7709L8.85752 16.4606Z" fill="#525C69" opacity="0.913"/>
		<path d="M7.40307 14.3866C7.80741 14.1531 8.32444 14.2916 8.55788 14.696C8.79133 15.1003 8.65279 15.6174 8.24845 15.8508L5.93821 17.1846C5.53387 17.4181 5.01685 17.2795 4.7834 16.8752C4.54995 16.4708 4.68849 15.9538 5.09283 15.7204L7.40307 14.3866Z" fill="#525C69" opacity="1"/>
	</g>
</svg>
