<svg width="34" height="34" viewBox="0 0 34 34" fill="none" xmlns="http://www.w3.org/2000/svg">
	<path fill-rule="evenodd" clip-rule="evenodd" d="M23.524 22.2508C23.8329 22.2508 24.0833 22.0001 24.0833 21.6908L24.0833 7.64351C24.0833 7.33422 23.8329 7.0835 23.524 7.0835H11.9957C10.0731 7.0835 8.5 8.65853 8.5 10.5836V23.4168C8.5 25.3418 10.0731 26.9168 11.9957 26.9168H23.524C23.8329 26.9168 24.0833 26.6661 24.0833 26.3568V25.1438C24.0833 24.8346 23.8329 24.5838 23.524 24.5838H11.9957C11.3545 24.5838 10.8301 24.0588 10.8301 23.4168C10.8312 22.7758 11.3556 22.2508 11.9957 22.2508L23.524 22.2508ZM21.628 18.306C21.685 18.596 21.5309 18.8879 21.2532 18.9888C20.0974 19.4088 18.7943 19.6577 17.4124 19.6873H16.8533C15.4647 19.6575 14.1557 19.4064 12.9958 18.9827C12.73 18.8856 12.5747 18.6121 12.62 18.3327C12.6632 18.0662 12.7109 17.8105 12.7597 17.6204C12.9265 16.9699 13.8651 16.4868 14.7286 16.1153C14.9547 16.018 15.0912 15.9404 15.2292 15.862C15.3639 15.7854 15.5 15.708 15.7222 15.6108C15.7474 15.491 15.7576 15.3687 15.7524 15.2465L16.1349 15.201C16.1349 15.201 16.1852 15.2925 16.1045 14.7552C16.1045 14.7552 15.6746 14.6437 15.6547 13.7881C15.6547 13.7881 15.3315 13.8955 15.312 13.3771C15.308 13.2738 15.2813 13.1745 15.2558 13.0793C15.1944 12.8511 15.1395 12.6468 15.4191 12.4687L15.2174 11.9307C15.2174 11.9307 15.0051 9.85326 15.9353 10.0214C15.5579 9.42355 18.7406 8.92657 18.952 10.7572C19.0352 11.3091 19.0352 11.87 18.952 12.4218C18.952 12.4218 19.4275 12.3672 19.11 13.2711C19.11 13.2711 18.9353 13.9218 18.6669 13.7757C18.6669 13.7757 18.7104 14.5979 18.2878 14.7373C18.2878 14.7373 18.318 15.1752 18.318 15.2048L18.6712 15.2576C18.6712 15.2576 18.6605 15.6228 18.731 15.6623C19.0532 15.8704 19.4063 16.0281 19.7778 16.1298C20.8744 16.4082 21.4313 16.8858 21.4313 17.304L21.628 18.306Z" fill="#2FC6F6"/>
</svg>
