<svg width="32" height="32" viewBox="0 0 32 32" fill="none" xmlns="http://www.w3.org/2000/svg">
	<rect width="32" height="32" rx="16" fill="#55D0E0"/>
	<path d="M20.5172 22.2895C18.5716 22.721 16.469 22.9565 14.2752 22.9565C11.6871 22.9565 9.22607 22.6287 7 22.0381C7.21737 20.9697 7.51347 19.5463 7.6508 19.0298C7.88166 18.1617 9.17514 17.5166 10.3648 17.0207C10.6759 16.8912 10.8635 16.7878 11.0531 16.6832C11.2388 16.5809 11.4264 16.4774 11.7337 16.3474C11.7684 16.1878 11.7823 16.0247 11.7752 15.8619L12.3024 15.8012C12.3024 15.8012 12.3716 15.9232 12.2602 15.2059C12.2602 15.2059 11.6685 15.0557 11.6411 13.9135C11.6411 13.9135 11.1966 14.057 11.1698 13.3649C11.1643 13.2265 11.1276 13.0934 11.0924 12.9661C11.0081 12.661 10.9328 12.3883 11.318 12.1511L11.0398 11.4338C11.0398 11.4338 10.748 8.65912 12.0297 8.88488C11.5099 8.08774 15.8951 7.42442 16.1863 9.86834C16.3009 10.605 16.3009 11.3537 16.1863 12.0904C16.1863 12.0904 16.8415 12.0176 16.4041 13.2241C16.4041 13.2241 16.1633 14.0913 15.7936 13.8956C15.7936 13.8956 15.8536 14.9932 15.2712 15.1792C15.2712 15.1792 15.3127 15.7636 15.3127 15.8033L15.7996 15.8753C15.7996 15.8753 15.7862 16.3626 15.882 16.4154C16.3259 16.6932 16.8124 16.9037 17.3243 17.0396C18.8362 17.411 19.6025 18.0485 19.6025 18.6068C19.6025 18.6068 20.2239 20.8346 20.5172 22.2895Z" fill="white"/>
	<path d="M25.8563 20.306C24.5019 20.6725 23.0026 20.8761 21.4252 20.8761C21.3795 20.8761 21.3338 20.8759 21.2882 20.8756C21.2381 20.4562 20.919 19.2704 20.7305 18.5698C20.6524 18.2796 20.5967 18.0727 20.5918 18.0379C20.5664 17.3486 19.6086 16.733 18.5422 16.3124C18.6228 16.2064 18.6919 16.0925 18.7484 15.9727C18.898 15.7923 19.0929 15.6524 19.3145 15.5665L19.3315 15.027L18.1608 14.6713C18.1608 14.6713 17.8599 14.5347 17.83 14.5347C17.8646 14.4517 17.908 14.3723 17.9594 14.298C17.9818 14.2399 18.1235 13.8071 18.1235 13.8071C17.953 14.02 17.753 14.209 17.5293 14.3687C17.7341 14.0171 17.9078 13.6492 18.0484 13.269C18.1412 12.9031 18.2034 12.5304 18.2343 12.1547C18.3145 11.472 18.4397 10.795 18.6091 10.1279C18.7307 9.79494 18.945 9.50123 19.2281 9.27934C19.6464 8.99719 20.1348 8.82846 20.6427 8.79053H20.7025C21.2113 8.82814 21.7005 8.99688 22.1197 9.27934C22.4031 9.50081 22.6175 9.79438 22.739 10.1273C22.9082 10.7945 23.0335 11.4715 23.1141 12.1542C23.1501 12.5215 23.2154 12.8856 23.3092 13.2432C23.4498 13.6301 23.6205 14.0061 23.8197 14.3679C23.5955 14.2085 23.3952 14.0198 23.2244 13.8071C23.2244 13.8071 23.3346 14.1999 23.3568 14.2579C23.4173 14.3456 23.4713 14.4374 23.5182 14.5327C23.4892 14.5327 23.1873 14.6693 23.1873 14.6693L22.0166 15.0249L22.0333 15.5648C22.255 15.6504 22.4501 15.7903 22.5994 15.9709C22.6703 16.1443 22.7824 16.2989 22.9267 16.422C23.2091 16.5175 23.4815 16.6392 23.7399 16.7852C24.1313 16.9966 24.5607 17.1333 25.0051 17.1879C25.4534 17.2595 25.7361 17.963 25.7361 17.963C25.7361 17.9699 25.7514 18.2661 25.7723 18.6688C25.7981 19.1669 25.8323 19.828 25.8563 20.306Z" fill="white"/>
</svg>
