<svg width="867" height="500" viewBox="0 0 867 500" fill="none" xmlns="http://www.w3.org/2000/svg">
<path fill-rule="evenodd" clip-rule="evenodd" d="M0 0L867 0L867 500L0 500L0 0Z" fill="#E0F9E8"/>
<mask id="mask0" mask-type="alpha" maskUnits="userSpaceOnUse" x="0" y="0" width="867" height="500">
<path fill-rule="evenodd" clip-rule="evenodd" d="M0 0L867 0L867 500L0 500L0 0Z" fill="white"/>
</mask>
<g mask="url(#mask0)">
<g opacity="0.257231">
<path fill-rule="evenodd" clip-rule="evenodd" d="M257.108 318.702C265.371 314.85 272.764 311.404 280.214 307.931C287.651 311.396 295.043 314.84 303.324 318.697C302.271 309.689 301.327 301.598 300.35 293.23C305.865 287.218 311.449 281.13 317.667 274.353C308.532 272.531 300.565 270.941 292.669 269.366C288.502 261.876 284.485 254.656 280.198 246.95C275.779 254.907 271.721 262.219 267.744 269.385C259.454 271.046 251.555 272.631 242.707 274.406C249.068 281.271 254.62 287.264 260.085 293.162C259.102 301.591 258.159 309.686 257.108 318.702M298.66 261.118C310.721 263.484 322.667 265.827 335.865 268.416C327.063 277.941 318.847 286.828 310.143 296.245C311.538 308.241 312.984 320.67 314.563 334.24C302.526 328.597 291.517 323.436 280.222 318.143C269.173 323.324 258.013 328.559 245.823 334.277C247.404 320.98 248.843 308.888 250.334 296.338C242.069 287.381 233.697 278.309 224.596 268.446C237.625 265.873 249.675 263.493 261.783 261.103C267.855 250.072 273.828 239.222 280.201 227.646C286.455 238.989 292.392 249.754 298.66 261.118" fill="white"/>
</g>
<g opacity="0.257231">
<path fill-rule="evenodd" clip-rule="evenodd" d="M635.625 314.726C667.895 299.686 696.764 286.228 725.858 272.663C754.902 286.197 783.766 299.646 816.104 314.709C811.994 279.529 808.305 247.932 804.492 215.254C826.029 191.779 847.835 168.003 872.114 141.54C836.443 134.424 805.331 128.213 774.496 122.065C758.222 92.8133 742.536 64.6201 725.795 34.5256C708.538 65.6022 692.69 94.1541 677.161 122.137C644.788 128.625 613.94 134.814 579.39 141.747C604.23 168.554 625.911 191.958 647.251 214.99C643.415 247.905 639.731 279.52 635.625 314.726M797.891 89.8532C844.99 99.0955 891.641 108.244 943.183 118.356C908.808 155.549 876.722 190.254 842.733 227.03C848.181 273.874 853.83 322.412 859.995 375.404C812.989 353.368 769.995 333.215 725.889 312.542C682.742 332.776 639.161 353.22 591.559 375.547C597.733 323.623 603.35 276.403 609.174 227.393C576.895 192.415 544.203 156.989 508.662 118.472C559.544 108.423 606.599 99.1314 653.882 89.7949C677.596 46.7181 700.919 4.34986 725.808 -40.857C750.23 3.43954 773.415 45.4759 797.891 89.8532" fill="white"/>
</g>
</g>
</svg>
