<svg xmlns="http://www.w3.org/2000/svg" width="311" height="94" viewBox="0 0 311 94">
  <g fill="none" fill-rule="evenodd" transform="translate(-.213)">
    <g opacity=".15">
      <path fill="#A8ADB4" d="M301.307377 69.2657738L278.117098 69.2657738C277.918666 69.2657738 277.721945 69.2583736 277.52719 69.2438315 272.286115 69.1232627 268.074484 64.7932667 268.074219 59.4696365 268.075742 56.8748757 269.097447 54.3870011 270.91457 52.553317 271.846003 51.6133941 272.94732 50.8848227 274.145525 50.3980989 274.12548 50.1340621 274.115272 49.8672438 274.115272 49.5980177 274.116923 46.8601729 275.195009 44.2351257 277.112364 42.3003566 279.029719 40.3655876 281.629284 39.2795832 284.339182 39.2812519 287.810486 39.2855285 290.87525 41.0393094 292.717105 43.7161269 293.591764 43.4030334 294.53331 43.2328607 295.51422 43.2333832 299.847386 43.2386532 303.406356 46.5758798 303.818932 50.8436356 307.970847 51.7581271 311.077886 55.4951254 311.074216 59.9631594 311.069986 65.1121587 306.936198 69.2833837 301.839755 69.2812492 301.661062 69.2811743 301.483558 69.2759699 301.307377 69.2657738zM19.2173122 34.3658773L6.00089927 34.3658773C5.88781046 34.3658773 5.77569664 34.3616598 5.66470349 34.3533721 2.67775293 34.2846585.277494662 31.8169427.27734375 28.7829432.278212151 27.3041584.860493788 25.8862894 1.89609329 24.8412512 2.42692833 24.305578 3.0545817 23.8903566 3.73745299 23.612967 3.72602876 23.4624893 3.72021126 23.3104264 3.72021115 23.1569913 3.72115191 21.5966612 4.33556603 20.1006159 5.42828935 18.9979682 6.52101268 17.8953206 8.00253496 17.2763938 9.54693805 17.2773448 11.5252749 17.2797821 13.2719204 18.2792825 14.3216149 19.8048324 14.8200937 19.6263967 15.3566919 19.5294133 15.9157242 19.529711 18.3852465 19.5327145 20.4135452 21.4346392 20.6486773 23.8668836 23.0149026 24.388063 24.7856403 26.5178224 24.7835487 29.0642077 24.7811383 31.9986831 22.4252435 34.3759134 19.5207207 34.3746969 19.4188818 34.3746542 19.3177197 34.3716882 19.2173122 34.3658773z"/>
      <path stroke="#A8ADB4" d="M119.56484 92.8427214L73.6307095 92.8427214C73.2376652 92.8427214 72.8480095 92.8280635 72.4622487 92.7992591 62.0809919 92.5604426 53.7388057 83.9838054 53.7382812 73.439028 53.7412994 68.299457 55.7650407 63.3716009 59.364305 59.7395322 61.2092417 57.8777803 63.3906741 56.4346631 65.7640185 55.470585 65.7243132 54.9475943 65.7040942 54.4190942 65.7040939 53.8858247 65.7073635 48.4628402 67.8427824 43.2632793 71.6405826 39.4309867 75.4383828 35.5986941 80.5874682 33.4475914 85.9550981 33.4508968 92.8308808 33.4593675 98.9014115 36.9331681 102.549664 42.2352729 104.282145 41.6151131 106.147112 41.2780436 108.090049 41.2790785 116.672965 41.2895171 123.722392 47.8997267 124.539602 56.3530816 132.763506 58.1644601 138.91777 65.5665173 138.9105 74.4165732 138.902123 84.6154506 130.714123 92.8776022 120.619348 92.8733742 120.265403 92.873226 119.91381 92.8629174 119.56484 92.8427214zM231.363579 21.74932L215.218443 21.74932C215.080294 21.74932 214.943336 21.744168 214.807747 21.7340437 211.158896 21.6501034 208.226747 18.6355481 208.226562 14.929222 208.227623 13.1227423 208.938937 11.3906772 210.204023 10.1140612 210.85249 9.45968424 211.619229 8.95245086 212.453423 8.61359235 212.439467 8.4297692 212.432361 8.2440096 212.43236 8.05657362 212.43351 6.15047847 213.184076 4.32291328 214.518944 2.97592173 215.853812 1.62893018 217.663636.872850848 219.550275.874012638 221.967006.876989988 224.100704 2.09797713 225.383008 3.96158493 225.991949 3.74360835 226.647456 3.62513365 227.330368 3.6254974 230.34713 3.62916639 232.824895 5.9525528 233.112131 8.92377624 236.002706 9.56044775 238.165835 12.1621563 238.16328 15.272814 238.160335 18.8575617 235.28238 21.7615801 231.734222 21.760094 231.609816 21.7600419 231.486237 21.7564186 231.363579 21.74932z"/>
    </g>
    <g transform="translate(119 12)">
      <polygon stroke="#FF5752" stroke-width="4" points="40.5 0 81 71 0 71" stroke-linecap="round" stroke-linejoin="round"/>
      <rect width="5" height="24" x="37.987" y="23" fill="#FF5752"/>
      <circle cx="40.5" cy="57.5" r="3.5" fill="#FF5752"/>
    </g>
  </g>
</svg>
