<svg width="16" height="16" viewBox="0 0 16 16" fill="none" xmlns="http://www.w3.org/2000/svg">
	<path d="M11.2001 11.7284C11.4161 11.6916 11.5574 11.4842 11.511 11.27C11.3473 10.5152 11.0894 9.56669 11.0894 9.56669C11.0894 9.26939 10.6909 8.92956 9.90578 8.73171C9.63911 8.65903 9.38608 8.54672 9.15596 8.39891C9.11909 8.3073 9.10449 8.20888 9.11329 8.11109L8.86163 8.07349C8.86163 8.05241 8.84011 7.74087 8.84011 7.74087C9.14254 7.64177 9.11145 7.05699 9.11145 7.05699C9.3035 7.16084 9.42859 6.69872 9.42859 6.69872C9.65578 6.05614 9.31546 6.09479 9.31546 6.09479C9.37498 5.70225 9.37498 5.30356 9.31546 4.91102C9.16424 3.60917 6.8861 3.96217 7.15633 4.38775C6.49059 4.26756 6.64254 5.74565 6.64254 5.74565L6.78695 6.12783C6.58694 6.25415 6.62612 6.39946 6.66989 6.56183C6.68816 6.6296 6.70723 6.70034 6.71005 6.77392C6.72403 7.14292 6.9549 7.06631 6.9549 7.06631C6.96925 7.6748 7.27664 7.75475 7.27664 7.75475C7.33441 8.13692 7.29853 8.07103 7.29853 8.07103L7.0248 8.10336C7.02854 8.19021 7.02132 8.27717 7.00328 8.36236C6.84429 8.43163 6.74698 8.48656 6.6509 8.5408C6.55198 8.59663 6.45437 8.65174 6.2921 8.72099C5.674 8.98456 5.00218 9.32878 4.88297 9.79125C4.81559 10.0527 4.6726 10.7507 4.56102 11.3081C4.51705 11.5277 4.66258 11.7406 4.88398 11.7746C5.83541 11.921 6.84837 12 7.89921 12C9.05591 12 10.1667 11.9043 11.2001 11.7284Z" fill="#00ACE3"/>
	<path d="M14.3628 10.4858C14.5416 10.4377 14.6601 10.27 14.6506 10.0851C14.6318 9.71884 14.6137 9.37102 14.6133 9.36551C14.6133 9.36551 14.4646 8.99409 14.2289 8.9563C13.9949 8.92731 13.769 8.8551 13.5638 8.74371C13.4283 8.66701 13.2853 8.60306 13.1368 8.55276C13.0607 8.48738 13.0018 8.40583 12.9648 8.31469C12.8868 8.21981 12.7841 8.14602 12.6671 8.1006L12.6584 7.81575L13.274 7.62796C13.274 7.62796 13.4328 7.55588 13.4483 7.55588C13.4237 7.50567 13.3953 7.45721 13.3634 7.41087C13.3517 7.38057 13.2937 7.17281 13.2937 7.17281C13.3834 7.28485 13.489 7.38447 13.6074 7.46881C13.5026 7.27754 13.4128 7.07904 13.339 6.87498C13.2896 6.68605 13.2553 6.49383 13.2363 6.29996C13.194 5.93967 13.1282 5.58226 13.0392 5.22983C12.976 5.0547 12.8633 4.89967 12.7136 4.78183C12.4942 4.6331 12.2368 4.54393 11.9685 4.52379H11.9377C11.6695 4.54386 11.412 4.63304 11.1926 4.78183C11.0431 4.89981 10.9306 5.0548 10.8672 5.22983C10.778 5.58223 10.7121 5.93965 10.6699 6.29996C10.6536 6.49817 10.6209 6.69485 10.5721 6.88813C10.4982 7.08858 10.4069 7.28277 10.299 7.46864C10.4167 7.38388 10.5217 7.28399 10.6108 7.17181C10.6108 7.17181 10.5364 7.39972 10.5245 7.43019C10.4974 7.46954 10.4746 7.51143 10.4564 7.55521C10.4717 7.55521 10.6307 7.6273 10.6307 7.6273L11.2461 7.81575L11.2372 8.1006C11.1202 8.14621 11.0177 8.22003 10.9395 8.31486C10.9099 8.37801 10.8736 8.43809 10.8311 8.49416C11.3918 8.71624 11.72 9.04137 11.7332 9.40513C11.7358 9.42364 11.7654 9.53425 11.8068 9.68907C11.9103 10.0759 12.0876 10.7388 12.1021 10.9304H12.1526C12.9541 10.8152 13.697 10.665 14.3628 10.4858Z" fill="#00ACE3"/>
	<path d="M3.90077 10.9286H3.67744C2.94585 10.8239 2.2629 10.69 1.64262 10.5316C1.46131 10.4852 1.34008 10.3163 1.34964 10.1294C1.36923 9.74674 1.38887 9.36945 1.38921 9.36371C1.38921 9.36371 1.53788 8.99229 1.77353 8.9545C2.00756 8.9255 2.23346 8.8533 2.43863 8.74191C2.57416 8.66521 2.71717 8.60126 2.86564 8.55096C2.94174 8.48559 3.00067 8.40404 3.03767 8.31289C3.11573 8.21802 3.21833 8.14422 3.33536 8.0988L3.34425 7.81395L2.72865 7.62616C2.72865 7.62616 2.56987 7.55408 2.55436 7.55408C2.57893 7.50387 2.60724 7.45541 2.63906 7.40907C2.65074 7.37877 2.70878 7.17101 2.70878 7.17101C2.61904 7.28305 2.51345 7.38267 2.39505 7.46701C2.49991 7.27574 2.58963 7.07724 2.66347 6.87317C2.71284 6.68425 2.74716 6.49203 2.76612 6.29815C2.80843 5.93787 2.87427 5.58046 2.96325 5.22802C3.02651 5.0529 3.13918 4.89787 3.28883 4.78003C3.50823 4.6313 3.76572 4.54213 4.03393 4.52198H4.06478C4.333 4.54206 4.59051 4.63124 4.80988 4.78003C4.95933 4.89801 5.0719 5.053 5.13528 5.22802C5.22447 5.58043 5.29036 5.93785 5.33258 6.29815C5.34884 6.49637 5.38153 6.69305 5.43036 6.88633C5.50426 7.08678 5.59562 7.28096 5.70348 7.46684C5.58588 7.38213 5.48108 7.28233 5.39204 7.17026C5.39371 7.17538 5.46657 7.39843 5.47829 7.42855C5.50539 7.46791 5.52823 7.5098 5.54644 7.55358C5.5311 7.55358 5.37215 7.62566 5.37215 7.62566L4.75654 7.81395L4.76543 8.0988C4.8824 8.14441 4.98498 8.21823 5.06312 8.31306C5.09274 8.37621 5.12906 8.43629 5.17153 8.49235C4.61084 8.71444 4.28264 9.03957 4.26957 9.40333C4.26695 9.4217 4.23777 9.53078 4.19684 9.68376C4.09349 10.0701 3.91525 10.7364 3.90077 10.9286Z" fill="#00ACE3"/>
</svg>