<svg width="22" height="22" viewBox="0 0 22 22" fill="none" xmlns="http://www.w3.org/2000/svg">
	<path fill-rule="evenodd" clip-rule="evenodd" d="M11.2418 10.6712C12.8068 10.6712 14.0755 11.9399 14.0755 13.505C14.0755 15.07 12.8068 16.3387 11.2418 16.3387C9.67671 16.3387 8.408 15.07 8.408 13.505C8.408 11.9399 9.67671 10.6712 11.2418 10.6712ZM3.01888 10.1736C2.82059 9.97531 2.82349 9.65195 3.03383 9.4665C5.22199 7.53718 8.09518 6.3667 11.2418 6.3667C14.3032 6.3667 17.1059 7.47471 19.2706 9.31159C19.4871 9.49534 19.4931 9.82369 19.2923 10.0245L18.2031 11.1136C18.0148 11.302 17.7127 11.3085 17.5068 11.1395C15.8016 9.7402 13.6198 8.90029 11.2418 8.90029C8.78595 8.90029 6.53936 9.79605 4.8109 11.2787C4.60537 11.455 4.29708 11.4518 4.1056 11.2603L3.01888 10.1736Z" fill="#525C69" fill-opacity="0.7"/>
</svg>
