<svg width="22" height="22" viewBox="0 0 22 22" fill="none" xmlns="http://www.w3.org/2000/svg">
	<path fill-rule="evenodd" clip-rule="evenodd" d="M11.6337 13.8214C9.54733 14.2651 7.73487 12.4521 8.17869 10.3662C8.38857 9.37979 9.37976 8.38853 10.3661 8.17861C12.4522 7.73462 14.2653 9.5472 13.8215 11.6337C13.5887 12.7281 12.7281 13.5887 11.6337 13.8214ZM16.3439 9.68962C16.2407 9.26764 16.0912 8.86384 15.8973 8.48638C15.8891 8.4705 15.891 8.4514 15.9022 8.4375L16.8139 7.30711C17.0117 7.06337 17.0027 6.7127 16.7942 6.47748L16.2163 5.82715C16.0069 5.59217 15.6596 5.54248 15.3946 5.70986L14.1521 6.49093C13.6135 6.1146 13.0044 5.83526 12.3476 5.67068C12.3302 5.6663 12.317 5.65209 12.314 5.63435L12.0758 4.20285C12.0248 3.89356 11.7571 3.66663 11.443 3.66663H10.5722C10.2587 3.66663 9.9901 3.89356 9.94022 4.20285L9.7007 5.63488C9.69773 5.65258 9.68454 5.66675 9.66715 5.6711C9.13562 5.80432 8.63636 6.01456 8.17902 6.28944C8.16361 6.2987 8.14425 6.29802 8.12961 6.28756L6.97208 5.46146C6.71743 5.27951 6.36764 5.30797 6.1454 5.52974L5.53023 6.14536C5.30846 6.3676 5.28001 6.7174 5.46244 6.97206L6.29048 8.13191C6.30092 8.14653 6.30164 8.16589 6.2924 8.1813C6.0202 8.63511 5.81214 9.13139 5.67906 9.6581C5.67466 9.67549 5.6605 9.68864 5.64282 9.69159L4.20294 9.93203C3.89413 9.98303 3.66675 10.2507 3.66675 10.5649V11.435C3.66675 11.7492 3.89413 12.0169 4.20294 12.0679L5.64278 12.3083C5.66047 12.3113 5.67466 12.3244 5.67904 12.3419C5.78729 12.7719 5.94149 13.1832 6.14419 13.5661C6.15264 13.5821 6.15085 13.6015 6.1395 13.6155L5.23235 14.7391C5.03522 14.9826 5.0435 15.3335 5.25206 15.5685L5.82943 16.2188C6.0389 16.4543 6.38642 16.5031 6.65139 16.3361L7.88685 15.56C7.90199 15.5505 7.92129 15.5508 7.9361 15.5609C8.46341 15.9172 9.05825 16.1796 9.69584 16.3361L9.94024 17.797C9.99012 18.1063 10.2587 18.3333 10.5722 18.3333H11.443C11.7572 18.3333 12.0248 18.1064 12.0758 17.7971L12.3144 16.3653C12.3174 16.3476 12.3306 16.3334 12.348 16.329C12.8727 16.1976 13.3654 15.9911 13.8185 15.7211C13.8339 15.7119 13.8532 15.7126 13.8677 15.723L15.0746 16.585C15.3288 16.7676 15.6788 16.739 15.9008 16.5165L16.5163 15.901C16.7378 15.6795 16.7678 15.3299 16.5838 15.0748L15.7247 13.8702C15.7143 13.8555 15.7135 13.8362 15.7228 13.8208C15.9958 13.3655 16.205 12.8682 16.3373 12.3392C16.3417 12.3217 16.3558 12.3085 16.3735 12.3056L17.7972 12.0678C18.1069 12.0168 18.3334 11.7491 18.3334 11.435V10.5649C18.333 10.2507 18.1065 9.98303 17.7967 9.93201L16.3439 9.68962Z" fill="#525C69" />
</svg>
