<svg width="24" height="24" viewBox="0 0 24 24" fill="none" xmlns="http://www.w3.org/2000/svg">
<path d="M6.22395 9.55502L5.51548 9.51658C5.29311 9.50427 5.07471 9.57925 4.90658 9.72563C4.56344 10.0237 4.01442 10.6023 3.84554 11.3549C3.59458 12.4777 3.9828 13.8521 4.98933 15.2271C5.99452 16.6021 7.86899 18.8012 11.184 19.7413C12.2524 20.0434 13.0927 19.8397 13.7407 19.4243C13.9942 19.2596 14.2127 19.0463 14.3835 18.7965C14.5543 18.5467 14.674 18.2655 14.7358 17.969L14.8488 17.4397C14.8664 17.3579 14.8556 17.2726 14.8183 17.1978C14.781 17.123 14.7194 17.0632 14.6436 17.0283L12.2497 15.9223C12.1742 15.8876 12.0892 15.8796 12.0085 15.8996C11.9279 15.9196 11.8564 15.9663 11.8056 16.0323L10.8657 17.2529C10.8312 17.298 10.7833 17.331 10.7289 17.3473C10.6746 17.3635 10.6165 17.3621 10.5629 17.3432C9.91973 17.1166 7.76403 16.2116 6.58122 13.9276C6.55594 13.8794 6.54564 13.8248 6.55164 13.7707C6.55763 13.7166 6.57965 13.6656 6.61486 13.6241L7.51374 12.5829C7.55873 12.5308 7.58821 12.4671 7.59879 12.399C7.60938 12.3309 7.60066 12.2612 7.57362 12.1978L6.54152 9.77756C6.51454 9.71448 6.4705 9.66023 6.41439 9.62091C6.35828 9.58158 6.29232 9.55876 6.22395 9.55502ZM14.5433 4.11426C12.0041 4.11426 9.92579 6.19669 9.92579 8.74241H8.7894C8.75192 8.74241 8.71517 8.75287 8.68328 8.77262C8.6514 8.79238 8.62563 8.82064 8.60886 8.85424C8.5921 8.88785 8.585 8.92547 8.58837 8.96289C8.59174 9.00031 8.60543 9.03605 8.62792 9.0661L10.5333 11.6125C10.5521 11.6376 10.5765 11.658 10.6045 11.6721C10.6326 11.6861 10.6635 11.6934 10.6948 11.6934C10.7262 11.6934 10.7571 11.6861 10.7851 11.6721C10.8131 11.658 10.8375 11.6376 10.8563 11.6125L12.7617 9.0661C12.7842 9.03605 12.7979 9.00031 12.8013 8.96289C12.8046 8.92547 12.7975 8.88785 12.7808 8.85424C12.764 8.82064 12.7382 8.79238 12.7063 8.77262C12.6745 8.75287 12.6377 8.74241 12.6002 8.74241H11.4645C11.4632 8.33688 11.5419 7.93509 11.6961 7.56017C11.8503 7.18525 12.077 6.84461 12.3631 6.55786C12.6492 6.2711 12.9891 6.0439 13.3631 5.88933C13.7372 5.73475 14.1381 5.65586 14.5427 5.6572V4.11426H14.5433ZM17.9606 5.9755L16.0551 8.52122C16.0327 8.55127 16.019 8.58702 16.0156 8.62443C16.0122 8.66185 16.0193 8.69947 16.0361 8.73308C16.0529 8.76668 16.0786 8.79494 16.1105 8.8147C16.1424 8.83445 16.1791 8.84491 16.2166 8.84491H17.3523C17.3537 9.2505 17.2749 9.65234 17.1207 10.0273C16.9664 10.4023 16.7397 10.7429 16.4535 11.0297C16.1673 11.3165 15.8274 11.5437 15.4533 11.6982C15.0791 11.8527 14.6782 11.9315 14.2735 11.9301V13.4731C16.8134 13.4731 18.8911 11.39 18.8911 8.84491H20.0268C20.0643 8.84491 20.101 8.83445 20.1329 8.8147C20.1648 8.79494 20.1906 8.76668 20.2073 8.73308C20.2241 8.69947 20.2312 8.66185 20.2278 8.62443C20.2244 8.58702 20.2107 8.55127 20.1883 8.52122L18.2835 5.97482C18.2647 5.9497 18.2403 5.92931 18.2123 5.91526C18.1843 5.90121 18.1534 5.8939 18.122 5.8939C18.0907 5.8939 18.0598 5.90121 18.0318 5.91526C18.0037 5.92931 17.9794 5.9497 17.9606 5.97482V5.9755Z" fill="#525C69"/>
</svg>
