<svg width="24" height="24" viewBox="0 0 24 24" fill="none" xmlns="http://www.w3.org/2000/svg">
<path fill-rule="evenodd" clip-rule="evenodd" d="M18.8997 8.61817C18.4743 8.18434 17.9009 7.96742 17.1794 7.96742C16.8732 7.96742 16.6162 7.99294 16.4086 8.04398L16.23 8.08226L16.3678 6.51281H19.0324V5.08008H14.9845L14.7037 9.15408L15.3316 9.51499C15.4677 9.47125 15.6447 9.43114 15.8625 9.39469C16.0802 9.35459 16.2793 9.33453 16.4597 9.33453C17.4568 9.33453 17.9554 9.73738 17.9554 10.5431C17.9554 11.3888 17.4738 11.8117 16.5107 11.8117C16.1908 11.8117 15.8522 11.7643 15.4949 11.6696C15.1376 11.5711 14.8245 11.4454 14.5557 11.2922V12.7523C15.0661 13.0403 15.7365 13.1843 16.5669 13.1843C17.5232 13.1843 18.2582 12.9437 18.7721 12.4625C19.286 11.9813 19.5429 11.2941 19.5429 10.4009C19.5429 9.64624 19.3285 9.052 18.8997 8.61817ZM6.53498 7.57422C6.14514 7.57422 5.8291 7.89025 5.8291 8.2801V9.36195C5.8291 9.7518 6.14514 10.0678 6.53498 10.0678H7.61683C8.00668 10.0678 8.32271 9.7518 8.32271 9.36195V8.2801C8.32271 7.89025 8.00668 7.57422 7.61683 7.57422H6.53498ZM10.2752 7.57422C9.88537 7.57422 9.56934 7.89025 9.56934 8.2801V9.36195C9.56934 9.7518 9.88537 10.0678 10.2752 10.0678H11.3571C11.7469 10.0678 12.063 9.7518 12.063 9.36195V8.2801C12.063 7.89025 11.7469 7.57422 11.3571 7.57422H10.2752ZM5.8291 12.0203C5.8291 11.6305 6.14514 11.3145 6.53498 11.3145H7.61683C8.00668 11.3145 8.32271 11.6305 8.32271 12.0203V13.1022C8.32271 13.492 8.00668 13.8081 7.61683 13.8081H6.53498C6.14514 13.8081 5.8291 13.492 5.8291 13.1022V12.0203ZM10.2752 11.3145C9.88537 11.3145 9.56934 11.6305 9.56934 12.0203V13.1022C9.56934 13.492 9.88537 13.8081 10.2752 13.8081H11.3571C11.7469 13.8081 12.063 13.492 12.063 13.1022V12.0203C12.063 11.6305 11.7469 11.3145 11.3571 11.3145H10.2752ZM5.8291 15.7606C5.8291 15.3707 6.14514 15.0547 6.53498 15.0547H7.61683C8.00668 15.0547 8.32271 15.3707 8.32271 15.7606V16.8424C8.32271 17.2323 8.00668 17.5483 7.61683 17.5483H6.53498C6.14514 17.5483 5.8291 17.2323 5.8291 16.8424V15.7606ZM10.2752 15.0547C9.88537 15.0547 9.56934 15.3707 9.56934 15.7606V16.8424C9.56934 17.2323 9.88537 17.5483 10.2752 17.5483H11.3571C11.7469 17.5483 12.063 17.2323 12.063 16.8424V15.7606C12.063 15.3707 11.7469 15.0547 11.3571 15.0547H10.2752ZM13.3096 15.7606C13.3096 15.3707 13.6256 15.0547 14.0155 15.0547H15.0973C15.4872 15.0547 15.8032 15.3707 15.8032 15.7606V16.8424C15.8032 17.2323 15.4872 17.5483 15.0973 17.5483H14.0155C13.6256 17.5483 13.3096 17.2323 13.3096 16.8424V15.7606Z" fill="#525C69"/>
</svg>
