<svg width="24" height="24" viewBox="0 0 24 24" fill="none" xmlns="http://www.w3.org/2000/svg">
<path fill-rule="evenodd" clip-rule="evenodd" d="M21.791 12.8701C22.2344 12.2162 22.4561 11.2086 22.4561 9.84752C22.4561 8.5326 22.2274 7.53397 21.7699 6.85163C21.3159 6.16929 20.6437 5.82812 19.7534 5.82812C18.8384 5.82812 18.1609 6.15508 17.7211 6.80898C17.2812 7.45934 17.0612 8.47218 17.0612 9.84752C17.0612 11.166 17.2864 12.1628 17.7369 12.8381C18.1909 13.5133 18.863 13.8509 19.7534 13.8509C20.6719 13.8509 21.3511 13.524 21.791 12.8701ZM18.9246 11.9052C18.7627 11.4894 18.6818 10.8035 18.6818 9.84752C18.6818 8.89153 18.7645 8.20564 18.9299 7.78984C19.0953 7.37049 19.3698 7.16081 19.7534 7.16081C20.1299 7.16081 20.4027 7.37049 20.5716 7.78984C20.744 8.20564 20.8302 8.89153 20.8302 9.84752C20.8302 10.7928 20.7458 11.4752 20.5769 11.8945C20.4079 12.3139 20.1334 12.5236 19.7534 12.5236C19.3663 12.5236 19.09 12.3174 18.9246 11.9052ZM14.1607 13.7443H15.7919V5.95073H14.4511L11.9648 7.94977L12.7513 8.94129L13.6381 8.22164C13.7437 8.13634 13.932 7.95687 14.203 7.68323L14.1766 8.4935L14.1607 9.23448V13.7443ZM4.64827 8.29688C4.25842 8.29688 3.94238 8.61291 3.94238 9.00276V10.0595C3.94238 10.4494 4.25842 10.7654 4.64827 10.7654H5.70505C6.0949 10.7654 6.41093 10.4494 6.41093 10.0595V9.00276C6.41093 8.61291 6.0949 8.29688 5.70505 8.29688H4.64827ZM8.35139 8.29688C7.96154 8.29688 7.64551 8.61291 7.64551 9.00276V10.0595C7.64551 10.4494 7.96154 10.7654 8.35139 10.7654H9.40818C9.79802 10.7654 10.1141 10.4494 10.1141 10.0595V9.00276C10.1141 8.61291 9.79802 8.29688 9.40818 8.29688H8.35139ZM3.94238 12.7059C3.94238 12.316 4.25842 12 4.64827 12H5.70505C6.0949 12 6.41093 12.316 6.41093 12.7059V13.7627C6.41093 14.1525 6.0949 14.4686 5.70505 14.4686H4.64827C4.25842 14.4686 3.94238 14.1525 3.94238 13.7627V12.7059ZM8.35139 12C7.96154 12 7.64551 12.316 7.64551 12.7059V13.7627C7.64551 14.1525 7.96154 14.4686 8.35139 14.4686H9.40818C9.79802 14.4686 10.1141 14.1525 10.1141 13.7627V12.7059C10.1141 12.316 9.79802 12 9.40818 12H8.35139ZM3.94238 16.4081C3.94238 16.0183 4.25842 15.7022 4.64827 15.7022H5.70505C6.0949 15.7022 6.41093 16.0183 6.41093 16.4081V17.4649C6.41093 17.8547 6.0949 18.1708 5.70505 18.1708H4.64827C4.25842 18.1708 3.94238 17.8547 3.94238 17.4649V16.4081ZM8.35139 15.7022C7.96154 15.7022 7.64551 16.0183 7.64551 16.4081V17.4649C7.64551 17.8547 7.96154 18.1708 8.35139 18.1708H9.40818C9.79802 18.1708 10.1141 17.8547 10.1141 17.4649V16.4081C10.1141 16.0183 9.79802 15.7022 9.40818 15.7022H8.35139ZM11.3486 16.4081C11.3486 16.0183 11.6647 15.7022 12.0545 15.7022H13.1113C13.5012 15.7022 13.8172 16.0183 13.8172 16.4081V17.4649C13.8172 17.8547 13.5011 18.1708 13.1113 18.1708H12.0545C11.6647 18.1708 11.3486 17.8547 11.3486 17.4649V16.4081Z" fill="#525C69"/>
</svg>
