<svg width="24" height="24" viewBox="0 0 24 24" fill="none" xmlns="http://www.w3.org/2000/svg">
<path fill-rule="evenodd" clip-rule="evenodd" d="M12.6023 5.51311C12.32 5.41131 12.1736 5.09961 12.2752 4.81691C12.3769 4.53421 12.6881 4.38756 12.9704 4.48936C15.7064 5.47613 17.5446 7.47583 18.4547 10.4432C18.5428 10.7304 18.3818 11.0348 18.095 11.123C17.8082 11.2113 17.5043 11.05 17.4162 10.7627C16.6044 8.11618 15.0098 6.3814 12.6023 5.51311ZM17.8877 16.1304L15.8743 14.1091C15.4733 13.7082 14.8092 13.7204 14.3942 14.1371L13.3798 15.1551C13.3157 15.1197 13.2494 15.0826 13.1797 15.0433C12.5391 14.6871 11.6624 14.1987 10.7399 13.272C9.81632 12.345 9.3295 11.4652 8.97367 10.8221L8.97165 10.8185L8.95571 10.7895L8.95569 10.7895C8.92384 10.7317 8.89302 10.6757 8.86254 10.6222L9.54332 9.93982L9.87802 9.60343C10.2937 9.18609 10.3051 8.51964 9.90502 8.11753L7.89164 6.09601C7.49155 5.69447 6.82714 5.70665 6.4115 6.12398L5.84406 6.69686L5.85957 6.71231C5.6693 6.95602 5.5103 7.2371 5.39198 7.54022C5.28292 7.82874 5.21501 8.10407 5.18396 8.37996C4.91811 10.5924 5.92527 12.6143 8.65857 15.3581C12.4368 19.1505 15.4816 18.864 15.6129 18.85C15.899 18.8157 16.1732 18.7471 16.4518 18.6385C16.7512 18.5211 17.031 18.3617 17.2736 18.1711L17.286 18.1822L17.8609 17.6171C18.2756 17.1999 18.2876 16.5332 17.8877 16.1304ZM11.4622 7.41237C11.3486 7.69047 11.4816 8.00815 11.7593 8.12195C13.1504 8.69208 14.1704 9.7443 14.8344 11.3073C14.9519 11.5837 15.2709 11.7125 15.547 11.5949C15.823 11.4772 15.9516 11.1577 15.8341 10.8812C15.0612 9.06193 13.8349 7.79693 12.1707 7.11489C11.893 7.00109 11.5759 7.13428 11.4622 7.41237Z" fill="#525C69"/>
</svg>
