<svg width="24" height="24" viewBox="0 0 24 24" fill="none" xmlns="http://www.w3.org/2000/svg">
<path fill-rule="evenodd" clip-rule="evenodd" d="M8.14929 7.88574L13.3713 11.2343L18.5932 7.88574H8.14929ZM19.5428 8.72281V8.89505L13.3714 13.1443L7.19994 8.89503V15.3891C7.19994 15.7901 7.59748 16.1142 8.08751 16.1142H18.6552C19.1464 16.1142 19.5428 15.7896 19.5428 15.3891V8.89505L19.5428 8.89503L19.5428 8.72281ZM1.71428 8.57148C1.33557 8.57148 1.02856 8.87848 1.02856 9.25719C1.02856 9.6359 1.33557 9.94291 1.71428 9.94291H5.14285C5.52156 9.94291 5.82856 9.6359 5.82856 9.25719C5.82856 8.87848 5.52156 8.57148 5.14285 8.57148H1.71428ZM3.08565 11.3143C2.70694 11.3143 2.39994 11.6213 2.39994 12C2.39994 12.3787 2.70694 12.6857 3.08565 12.6857H5.14279C5.5215 12.6857 5.82851 12.3787 5.82851 12C5.82851 11.6213 5.5215 11.3143 5.14279 11.3143H3.08565ZM3.77124 14.7433C3.77124 14.3646 4.07825 14.0576 4.45696 14.0576H5.14267C5.52138 14.0576 5.82838 14.3646 5.82838 14.7433C5.82838 15.122 5.52138 15.429 5.14267 15.429H4.45695C4.07824 15.429 3.77124 15.122 3.77124 14.7433Z" fill="#525C69"/>
</svg>
