<svg width="24" height="24" viewBox="0 0 24 24" fill="none" xmlns="http://www.w3.org/2000/svg">
<path fill-rule="evenodd" clip-rule="evenodd" d="M16.2218 5.4545H10.3338C9.954 5.4545 9.64611 5.76239 9.64611 6.1422V6.58291H8.27071V6.1422C8.27071 5.00278 9.19439 4.0791 10.3338 4.0791H16.2218C17.3612 4.0791 18.2849 5.00278 18.2849 6.1422V17.6631C18.2849 18.8025 17.3612 19.7262 16.2218 19.7262H10.3338C9.19439 19.7262 8.27071 18.8025 8.27071 17.6631V17.2229L16.9095 17.2228V6.1422C16.9095 5.7624 16.6016 5.4545 16.2218 5.4545ZM13.2767 19.1005C13.6224 19.1005 13.9026 18.8203 13.9026 18.4746C13.9026 18.129 13.6224 17.8487 13.2767 17.8487C12.931 17.8487 12.6508 18.129 12.6508 18.4746C12.6508 18.8203 12.931 19.1005 13.2767 19.1005Z" fill="#525C69"/>
<path fill-rule="evenodd" clip-rule="evenodd" d="M5.43875 6.92652H4.51115V6.23882H5.43875C6.40763 6.23882 7.23857 6.89242 7.48509 7.80353H14.9264C15.5831 7.80353 16.0726 8.40907 15.935 9.05122L15.2909 12.057C15.189 12.5326 14.7687 12.8724 14.2823 12.8724H8.11577L8.22222 13.7595C8.24295 13.9323 8.38956 14.0624 8.56362 14.0624H14.2123V14.7501H13.47C13.72 14.8321 13.9006 15.0674 13.9006 15.3449C13.9006 15.6906 13.6204 15.9708 13.2748 15.9708C12.9291 15.9708 12.6489 15.6906 12.6489 15.3449C12.6489 15.0674 12.8295 14.8321 13.0796 14.7501H9.08985C9.33993 14.8321 9.52054 15.0674 9.52054 15.3449C9.52054 15.6906 9.24032 15.9708 8.89465 15.9708C8.54899 15.9708 8.26877 15.6906 8.26877 15.3449C8.26877 15.0674 8.44937 14.8321 8.69946 14.7501H8.56362C8.04145 14.7501 7.60163 14.3599 7.53942 13.8414L6.86105 8.18835C6.77465 7.46838 6.16388 6.92652 5.43875 6.92652ZM8.03324 12.1847H9.79887V11.3076H7.92799L8.03324 12.1847ZM7.84547 10.6199L7.77779 10.0559H9.79887V10.6199H7.84547ZM10.4866 11.3076V12.1847H12.3037V11.3076H10.4866ZM12.3037 10.6199H10.4866V10.0559H12.3037V10.6199ZM12.9914 11.3076V12.1847H14.2823C14.4444 12.1847 14.5845 12.0715 14.6185 11.9129L14.7482 11.3076H12.9914ZM14.8956 10.6199H12.9914V10.0559H15.0164L14.8956 10.6199ZM7.69526 9.3682H9.79887V8.49123H7.59003L7.69526 9.3682ZM10.4866 9.3682H12.3037V8.49123H10.4866V9.3682ZM12.9914 9.3682H15.1638L15.2626 8.90713C15.3085 8.69308 15.1453 8.49123 14.9264 8.49123H12.9914V9.3682Z" fill="#525C69"/>
<path d="M5.76498 9.11698H1.38379V8.42928H5.76498V9.11698Z" fill="#525C69"/>
<path d="M6.39025 10.6818H3.88671V9.9941H6.39025V10.6818Z" fill="#525C69"/>
<path d="M4.51439 12.2464H7.01792V11.5587H4.51439V12.2464Z" fill="#525C69"/>
</svg>
