<svg width="24" height="24" viewBox="0 0 24 24" fill="none" xmlns="http://www.w3.org/2000/svg">
<path fill-rule="evenodd" clip-rule="evenodd" d="M16.4711 3.7168H8.76493V8.70448C9.01593 8.67476 9.27135 8.65948 9.53034 8.65948C9.79325 8.65948 10.0525 8.67523 10.3071 8.70584V5.25794H15.78L18.0133 7.77046V15.2759H15.9701C15.9559 15.8083 15.8772 16.3246 15.7414 16.8173H19.5536V7.18457L16.4711 3.7168ZM11.8488 9.08928L11.9045 9.11106H15.7019V7.56983H11.8488V9.08928ZM14.1892 10.6523C14.624 11.1075 14.9929 11.6264 15.2802 12.1935H15.7019V10.6523H14.1892ZM14.8195 15.1015C14.8195 18.023 12.4511 20.3913 9.5296 20.3913C6.60809 20.3913 4.23975 18.023 4.23975 15.1015C4.23975 12.18 6.60809 9.81164 9.5296 9.81164C12.4511 9.81164 14.8195 12.18 14.8195 15.1015ZM12.3356 15.1014L9.25844 12.0243V14.0023H6.97326V16.376H9.25844V18.1786L12.3356 15.1014Z" fill="#525C69"/>
</svg>
