<?xml version="1.0" encoding="UTF-8"?>
<svg width="60px" height="48px" viewBox="0 0 60 48" version="1.1" xmlns="http://www.w3.org/2000/svg" xmlns:xlink="http://www.w3.org/1999/xlink">
    <title>Shape</title>
    <g id="Symbols" stroke="none" stroke-width="1" fill="none" fill-rule="evenodd">
        <g id="Icons-/-Type-1-/-Icon-/-e-03" transform="translate(0.000000, -6.000000)" fill="#A3B2C5">
            <path d="M6.59013672,40.4851562 C3.05551432,40.4851562 0.190136719,43.3505339 0.190136719,46.8851562 C0.190136719,50.4197786 3.05551432,53.2851562 6.59013672,53.2851562 C10.1247591,53.2851562 12.9901367,50.4197786 12.9901367,46.8851562 C12.9901367,43.3505339 10.1247591,40.4851562 6.59013672,40.4851562 Z M17.1223713,11.5655983 L17.1223713,14.0655983 L19.1033713,14.0664062 C20.157733,14.0664062 21.0215364,14.882284 21.0978855,15.9171439 L21.1033713,16.0664062 L21.1036367,28.8698438 L16.5299805,28.8703441 L16.5299805,31.3991527 L21.1036367,31.3988438 L21.1033713,43.9848633 C21.1033713,45.0392251 20.2874935,45.9030284 19.2526336,45.9793775 L19.1033713,45.9848633 L17.1223713,45.9845983 L17.1223713,48.4848633 L19.1033713,48.4848633 C21.5176446,48.4848633 23.4878603,46.5836268 23.5984733,44.196699 L23.6033713,43.9848633 L23.6036367,31.3988438 L27.0449805,31.3995466 L27.0455,34.9155466 L31.8623849,30.0986617 L27.0455,25.2817768 L27.0449805,28.8705466 L23.6036367,28.8698438 L23.6033713,16.0664062 C23.6033713,13.6521329 21.7021347,11.6819172 19.315207,11.5713042 L19.1033713,11.5664062 L17.1223713,11.5655983 Z M36.033308,22.5790039 C34.9287385,22.5790039 34.033308,23.4744344 34.033308,24.5790039 L34.033308,35.487793 C34.033308,36.5923625 34.9287385,37.487793 36.033308,37.487793 L57.0276367,37.487793 C58.1322062,37.487793 59.0276367,36.5923625 59.0276367,35.487793 L59.0276367,24.5790039 C59.0276367,23.4744344 58.1322062,22.5790039 57.0276367,22.5790039 L36.033308,22.5790039 Z M6.59013672,23.6454102 C3.05551432,23.6454102 0.190136719,26.5107878 0.190136719,30.0454102 C0.190136719,33.5800326 3.05551432,36.4454102 6.59013672,36.4454102 C10.1247591,36.4454102 12.9901367,33.5800326 12.9901367,30.0454102 C12.9901367,26.5107878 10.1247591,23.6454102 6.59013672,23.6454102 Z M40.0304724,28.5333659 L48.0304724,28.5333659 C48.5433082,28.5333659 48.9659795,28.9194061 49.0237446,29.4167448 L49.0304724,29.5333659 L49.0304724,30.533431 C49.0304724,31.0857158 48.5827571,31.533431 48.0304724,31.533431 L40.0304724,31.533431 C39.5176365,31.533431 39.0949652,31.1473908 39.0372001,30.6500521 L39.0304724,30.533431 L39.0304724,29.5333659 C39.0304724,29.0205301 39.4165126,28.5978587 39.9138512,28.5400936 L40.0304724,28.5333659 Z M6.59013672,6.71484375 C3.05551432,6.71484375 0.190136719,9.58022135 0.190136719,13.1148438 C0.190136719,16.6494661 3.05551432,19.5148438 6.59013672,19.5148438 C10.1247591,19.5148438 12.9901367,16.6494661 12.9901367,13.1148438 C12.9901367,9.58022135 10.1247591,6.71484375 6.59013672,6.71484375 Z" id="Shape"></path>
        </g>
    </g>
</svg>