<svg width="92" height="86" viewBox="0 0 92 86" fill="none" xmlns="http://www.w3.org/2000/svg">
	<path fill-rule="evenodd" clip-rule="evenodd" d="M40 15C29.5066 15 21 23.5066 21 34C21 44.4934 29.5066 53 40 53L46 59L52 53C62.4934 53 71 44.4934 71 34C71 23.5066 62.4934 15 52 15H40Z" fill="#fff"/>
	<path fill-rule="evenodd" clip-rule="evenodd" d="M45.505 29.4111C45.505 28.6318 44.8736 28 44.0948 28H40.9101C40.1313 28 39.5 28.6318 39.5 29.4111V32.5373C39.5 33.3166 40.1313 33.9484 40.9101 33.9484H43.3009C43.3009 34.4248 43.2916 35.6943 42.8363 36.3665C42.3436 37.094 41.5097 37.5374 40.9789 37.7608C40.6918 37.8817 40.4837 38.1546 40.481 38.4661L40.4703 39.6879C40.4686 39.8744 40.6346 40.0149 40.8162 39.9728C41.6123 39.7881 43.5547 39.2213 44.3534 37.9527C45.3699 36.338 45.505 34.2967 45.505 33.4559V29.4111ZM52.5 29.4111C52.5 28.6318 51.8687 28 51.0899 28H47.9052C47.1264 28 46.495 28.6318 46.495 29.4111V32.5373C46.495 33.3166 47.1264 33.9484 47.9052 33.9484H50.2959C50.2959 34.4248 50.2866 35.6943 49.8313 36.3665C49.3386 37.094 48.5047 37.5374 47.9739 37.7608C47.6868 37.8817 47.4787 38.1546 47.476 38.4661L47.4653 39.6879C47.4637 39.8744 47.6296 40.0149 47.8112 39.9728C48.6073 39.7881 50.5497 39.2213 51.3484 37.9527C52.365 36.338 52.5 34.2967 52.5 33.4559V29.4111Z" fill="#959CA4"/>
</svg>
