<svg width="18" height="18" viewBox="0 0 18 18" fill="none" xmlns="http://www.w3.org/2000/svg">
	<path fill-rule="evenodd" clip-rule="evenodd" d="M10.0204 13.5116C9.90529 13.6243 9.72176 13.6259 9.60467 13.5153L8.26404 12.2491C8.09871 12.0929 8.09665 11.8305 8.25952 11.6718L8.99388 10.9561C9.14322 10.8106 9.37933 10.8042 9.53633 10.9414L9.81429 11.1844L16.0637 5.0677C16.2189 4.91575 16.4671 4.91548 16.6227 5.0671L17.3468 5.7729C17.5077 5.9297 17.508 6.18822 17.3474 6.34531L10.0204 13.5116Z" fill="white"/>
	<path fill-rule="evenodd" clip-rule="evenodd" d="M4.74971 13.5085C4.63326 13.6223 4.44721 13.6225 4.33056 13.5088L1.12743 10.3871C0.966332 10.2301 0.966332 9.9712 1.12743 9.8142L1.8517 9.10833C2.00704 8.95695 2.25473 8.95695 2.41006 9.10833L4.54032 11.1844L10.7897 5.0677C10.945 4.91575 11.1931 4.91548 11.3487 5.0671L12.0729 5.77289C12.2338 5.9297 12.234 6.18822 12.0734 6.34531L4.74971 13.5085Z" fill="white"/>
</svg>