<svg width="20" height="21" viewBox="0 0 20 21" fill="none" xmlns="http://www.w3.org/2000/svg">
	<path d="M11.4581 12.4457L15.098 16.0857L16.2875 14.8962L5.96924 4.57787L4.77973 5.76738L8.47046 9.45811L7.03672 10.5515L6.36569 9.88044C5.99388 9.52895 5.39152 9.55483 5.00729 9.9388C4.62305 10.3228 4.59674 10.9251 4.94796 11.2972L6.55434 12.9026L3.42079 17.1736C3.35045 17.2362 3.31836 17.3307 3.33747 17.4188C3.35657 17.507 3.42372 17.5744 3.51182 17.5937C3.59992 17.6131 3.69444 17.5813 3.75724 17.5111L7.98028 14.3306L9.61934 15.9666C9.99243 16.3108 10.589 16.2816 10.9701 15.9006C11.3511 15.5195 11.3803 14.9229 11.0361 14.5498L10.3651 13.8788L11.4581 12.4457Z" fill="#525C69"/>
	<path d="M14.7376 8.14594L13.2302 10.1223L10.7941 7.68614L12.7706 6.17887L12.088 5.49633C11.7368 5.12426 11.7631 4.52189 12.1474 4.13791C12.5316 3.75394 13.134 3.72806 13.5058 4.07956L16.8447 7.41644C17.2131 7.78574 17.194 8.40228 16.802 8.79353C16.4099 9.18478 15.7934 9.20257 15.425 8.83327L14.7376 8.14594Z" fill="#525C69"/>
</svg>