<svg xmlns="http://www.w3.org/2000/svg" width="351" height="50"><path fill="#FFF" fill-rule="evenodd" d="M119.633 9.248c-1.754-3.8-2.632-5.7-3.596-6.687-.972-.995-1.731-1.48-3.042-1.946-1.299-.462-3.005-.462-6.416-.462H32c-11.201 0-16.802 0-21.08 2.18a20 20 0 0 0-8.74 8.74C0 15.351 0 20.952 0 32.153v316c0 11.201 0 16.801 2.18 21.08a20.003 20.003 0 0 0 8.74 8.74c4.278 2.18 9.879 2.18 21.08 2.18h287c11.201 0 16.802 0 21.08-2.18a20.001 20.001 0 0 0 8.74-8.74c2.18-4.279 2.18-9.879 2.18-21.08v-316c0-11.201 0-16.802-2.18-21.08a19.998 19.998 0 0 0-8.74-8.74C335.802.153 330.201.153 319 .153h-74.579c-3.411 0-5.117 0-6.416.462-1.311.466-2.07.95-3.042 1.946-.964.986-1.842 2.887-3.596 6.687C221.624 30.354 200.272 45 175.5 45s-46.124-14.646-55.867-35.752Z"/></svg>