<svg xmlns="http://www.w3.org/2000/svg" width="56" height="39" fill="none"><path fill="#fff" fill-rule="evenodd" d="M42.858 38.319H13.07c-.255 0-.508-.01-.758-.028C5.58 38.138.17 32.633.17 25.866a12.436 12.436 0 0 1 7.798-11.532A13.122 13.122 0 0 1 21.062.202 13.102 13.102 0 0 1 31.825 5.84a10.722 10.722 0 0 1 3.593-.614c5.566.007 10.137 4.25 10.667 9.674 5.333 1.163 9.324 5.914 9.319 11.593-.005 6.546-5.315 11.848-11.861 11.846-.23 0-.458-.007-.684-.02Z" clip-rule="evenodd" opacity=".3"/></svg>