<svg xmlns="http://www.w3.org/2000/svg" width="102" height="71" fill="none"><path fill="#fff" fill-rule="evenodd" d="M78.62 70.363H24.01c-.466 0-.93-.017-1.388-.051C10.28 70.031.362 59.94.362 47.532a22.8 22.8 0 0 1 14.296-21.141A24.057 24.057 0 0 1 38.663.483c8.174.01 15.392 4.097 19.729 10.335a19.656 19.656 0 0 1 6.587-1.125c10.204.012 18.584 7.79 19.556 17.736 9.777 2.132 17.094 10.84 17.085 21.254-.01 12-9.744 21.721-21.746 21.716-.42 0-.838-.012-1.253-.036Z" clip-rule="evenodd" opacity=".3"/></svg>