<svg width="1027" height="711" viewBox="0 0 1027 711" fill="none" xmlns="http://www.w3.org/2000/svg">
<rect width="1027" height="711" rx="16" fill="white"/>
<mask id="mask0_1082_199513" style="mask-type:alpha" maskUnits="userSpaceOnUse" x="0" y="0" width="1027" height="711">
<rect width="1027" height="711" rx="16" fill="url(#paint0_linear_1082_199513)"/>
</mask>
<g mask="url(#mask0_1082_199513)">
<rect opacity="0.23" width="1027" height="715.378" fill="url(#paint1_linear_1082_199513)"/>
<g opacity="0.5">
<ellipse opacity="0.5" cx="704" cy="-101.5" rx="467" ry="468.5" stroke="url(#paint2_linear_1082_199513)" stroke-width="1.27223"/>
<ellipse opacity="0.5" cx="704" cy="-101.5" rx="628" ry="625.5" stroke="url(#paint3_linear_1082_199513)" stroke-width="1.27223"/>
<path opacity="0.5" fill-rule="evenodd" clip-rule="evenodd" d="M88.8396 396.071C-61.105 482.641 -112.513 674.317 -25.9839 824.19C60.5454 974.063 252.245 1025.38 402.19 938.809C552.135 852.239 603.543 660.563 517.014 510.69C430.484 360.817 238.784 309.5 88.8396 396.071ZM146.317 495.627C51.4267 550.411 18.9149 671.747 73.6998 766.637C128.485 861.527 249.82 894.039 344.71 839.254C439.6 784.469 472.112 663.134 417.327 568.244C362.542 473.354 241.207 440.842 146.317 495.627Z" fill="url(#paint4_linear_1082_199513)"/>
<path opacity="0.1" fill-rule="evenodd" clip-rule="evenodd" d="M550.343 -26.5799C310.049 112.153 227.665 419.322 366.332 659.501C505 899.68 812.208 981.918 1052.5 843.184C1292.79 704.451 1375.18 397.282 1236.51 157.103C1097.84 -83.0755 790.636 -165.313 550.343 -26.5799ZM629.979 111.36C465.982 206.044 409.792 415.746 504.476 579.743C599.16 743.741 808.862 799.93 972.86 705.246C1136.86 610.563 1193.05 400.86 1098.36 236.863C1003.68 72.8659 793.976 16.6763 629.979 111.36Z" fill="url(#paint5_linear_1082_199513)"/>
</g>
<path opacity="0.3" fill-rule="evenodd" clip-rule="evenodd" d="M150.782 140.976H114.648C114.339 140.976 114.033 140.964 113.729 140.941C105.563 140.752 99.0004 133.969 99 125.628C99.0024 121.563 100.594 117.666 103.426 114.793C104.877 113.32 106.593 112.179 108.46 111.416C108.429 111.003 108.413 110.585 108.413 110.163C108.415 105.874 110.095 101.761 113.083 98.7299C116.07 95.6988 120.121 93.9974 124.343 94C129.752 94.0067 134.527 96.7543 137.397 100.948C138.76 100.457 140.227 100.191 141.755 100.192C148.507 100.2 154.052 105.428 154.695 112.114C161.165 113.547 166.006 119.402 166 126.402C165.993 134.468 159.552 141.003 151.611 141C151.333 141 151.056 140.992 150.782 140.976Z" fill="white"/>
<path opacity="0.3" fill-rule="evenodd" clip-rule="evenodd" d="M916.381 408.956H848.428C847.847 408.956 847.27 408.934 846.699 408.893C831.342 408.547 819.001 396.134 819 380.873C819.004 373.435 821.998 366.303 827.323 361.047C830.052 358.352 833.279 356.264 836.79 354.868C836.732 354.111 836.702 353.347 836.702 352.575C836.707 344.726 839.866 337.201 845.484 331.655C851.102 326.108 858.719 322.995 866.66 323C876.832 323.012 885.812 328.04 891.209 335.713C893.772 334.816 896.531 334.328 899.406 334.329C912.103 334.345 922.531 343.911 923.74 356.146C935.906 358.767 945.011 369.48 945 382.288C944.988 397.049 932.875 409.006 917.941 409C917.417 409 916.897 408.985 916.381 408.956Z" fill="white"/>
<path opacity="0.3" fill-rule="evenodd" clip-rule="evenodd" d="M636.195 216.966H584.421C583.978 216.966 583.539 216.95 583.104 216.919C571.403 216.658 562.001 207.276 562 195.742C562.003 190.12 564.284 184.729 568.341 180.756C570.421 178.72 572.879 177.141 575.555 176.087C575.51 175.514 575.487 174.936 575.487 174.353C575.491 168.421 577.898 162.733 582.178 158.541C586.459 154.349 592.262 151.996 598.312 152C606.062 152.009 612.905 155.809 617.017 161.609C618.969 160.931 621.071 160.562 623.261 160.563C632.935 160.574 640.881 167.805 641.802 177.052C651.072 179.033 658.008 187.13 658 196.811C657.991 207.967 648.762 217.005 637.384 217C636.985 217 636.588 216.989 636.195 216.966Z" fill="white"/>
</g>
<defs>
<linearGradient id="paint0_linear_1082_199513" x1="180.271" y1="24.6386" x2="453.98" y2="827.128" gradientUnits="userSpaceOnUse">
<stop stop-color="#00C1FF"/>
<stop offset="1" stop-color="#26D3EB"/>
</linearGradient>
<linearGradient id="paint1_linear_1082_199513" x1="513.5" y1="0" x2="513.5" y2="715.378" gradientUnits="userSpaceOnUse">
<stop stop-color="#FF5752"/>
<stop offset="1" stop-color="#FF5752" stop-opacity="0.85"/>
</linearGradient>
<linearGradient id="paint2_linear_1082_199513" x1="704" y1="-570" x2="704" y2="367" gradientUnits="userSpaceOnUse">
<stop stop-color="#9DCF00"/>
<stop offset="1" stop-color="#9DCF00" stop-opacity="0.54"/>
</linearGradient>
<linearGradient id="paint3_linear_1082_199513" x1="704" y1="-727" x2="704" y2="524" gradientUnits="userSpaceOnUse">
<stop stop-color="#9DCF00"/>
<stop offset="1" stop-color="#9DCF00" stop-opacity="0.54"/>
</linearGradient>
<linearGradient id="paint4_linear_1082_199513" x1="226.915" y1="378.79" x2="473.355" y2="921.546" gradientUnits="userSpaceOnUse">
<stop stop-color="white"/>
<stop offset="1" stop-color="white" stop-opacity="0.71"/>
</linearGradient>
<linearGradient id="paint5_linear_1082_199513" x1="801.422" y1="-94" x2="801.422" y2="910.604" gradientUnits="userSpaceOnUse">
<stop stop-color="#FF5752"/>
<stop offset="1" stop-color="#FF5752" stop-opacity="0.73"/>
</linearGradient>
</defs>
</svg>
