<?xml version="1.0" encoding="UTF-8"?>
<svg width="351px" height="56px" viewBox="0 0 351 56" version="1.1" xmlns="http://www.w3.org/2000/svg" xmlns:xlink="http://www.w3.org/1999/xlink">
    <title>Slice</title>
    <g id="Page-1" stroke="none" stroke-width="1" fill="none" fill-rule="evenodd">
        <g id="Subtract" fill="#FFFFFF">
            <path d="M110.44,9.7883 C108.864,5.8298 108.077,3.8506 107.105,2.7795 C106.142,1.7164 105.323,1.1611 103.979,0.6589 C102.624,0.1528 100.844,0.1528 97.282,0.1528 L32,0.1528 C20.799,0.1528 15.1984,0.1528 10.9202,2.3327 C7.1569,4.2502 4.0973,7.3098 2.1799,11.073 C0,15.3513 0,20.9518 0,32.1528 L0,348.153 C0,359.354 0,364.954 2.1799,369.233 C4.0973,372.996 7.1569,376.055 10.9202,377.973 C15.1984,380.153 20.799,380.153 32,380.153 L319,380.153 C330.201,380.153 335.802,380.153 340.08,377.973 C343.843,376.055 346.903,372.996 348.82,369.233 C351,364.954 351,359.354 351,348.153 L351,32.1528 C351,20.9518 351,15.3513 348.82,11.073 C346.903,7.3098 343.843,4.2502 340.08,2.3327 C335.802,0.1528 330.201,0.1528 319,0.1528 L253.718,0.1528 C250.157,0.1528 248.376,0.1528 247.021,0.6589 C245.677,1.1611 244.858,1.7164 243.895,2.7795 C242.924,3.8506 242.136,5.8298 240.56,9.7883 C230.262,35.6552 205.014,53.9363 175.5,53.9363 C145.986,53.9363 120.738,35.6552 110.44,9.7883 Z" id="Path"></path>
        </g>
    </g>
</svg>