<svg width="867" height="500" viewBox="0 0 867 500" fill="none" xmlns="http://www.w3.org/2000/svg">
<path fill-rule="evenodd" clip-rule="evenodd" d="M0 0L867 0L867 500L0 500L0 0Z" fill="#DDF3F6"/>
<mask id="mask0" mask-type="alpha" maskUnits="userSpaceOnUse" x="0" y="0" width="867" height="500">
<path fill-rule="evenodd" clip-rule="evenodd" d="M0 0L867 0L867 500L0 500L0 0Z" fill="white"/>
</mask>
<g mask="url(#mask0)">
<g opacity="0.292294">
<path fill-rule="evenodd" clip-rule="evenodd" d="M279.621 255.31C275.269 247.058 271.962 239.612 263.673 236.27C260.286 234.902 257.611 235.695 255.536 238.61C253.445 241.549 254.449 244.058 256.596 246.513C262.46 253.221 270.471 254.107 279.621 255.31V255.31ZM291.265 255.095C300.238 254.419 307.855 252.977 313.789 246.943C316.355 244.334 317.035 241.232 314.744 238.033C312.519 234.93 309.506 235.023 306.424 236.439C298.632 240.019 295.177 247.076 291.265 255.095V255.095ZM330.504 268.808H289.743C290.012 272.773 289.046 276.354 290.348 279.807H330.514C331.07 275.963 331.108 272.558 330.504 268.808V268.808ZM280.989 268.782H239.922C239.614 272.715 239.2 276.253 240.186 279.935H281.077C281.395 276.103 281.595 272.579 280.989 268.782V268.782ZM248.182 326.389H281.008V289.798H248.182V326.389ZM290.199 326.501H322.641V289.698H290.199V326.501ZM239.523 334.865V289.623C239.523 289.623 234.289 289.144 231.61 288.899V260.35H259.758C255.326 256.201 250.819 253.876 248.289 249.475C245.184 244.072 245.224 238.347 248.781 233.342C252.188 228.545 257.967 226.126 263.314 227.391C269.256 228.798 274.241 231.911 278.037 236.643C280.63 239.875 282.785 243.461 285.29 247.114C287.604 243.729 289.756 240.233 292.256 237.005C295.974 232.203 300.831 229.056 306.821 227.594C313.015 226.082 317.804 228.294 321.454 233.041C325.154 237.855 325.653 243.218 322.736 248.668C320.22 253.37 315.969 256.391 310.422 260.031H339.39V288.459L331.612 289.566V334.865H239.523Z" fill="white"/>
</g>
<g opacity="0.292294">
<path fill-rule="evenodd" clip-rule="evenodd" d="M723.541 67.1726C706.545 34.9503 693.631 5.87192 661.264 -7.18075C648.037 -12.5199 637.589 -9.42475 629.488 1.95816C621.321 13.4347 625.241 23.2334 633.628 32.8203C656.525 59.0152 687.808 62.4769 723.541 67.1726V67.1726ZM769.014 66.3346C804.054 63.6955 833.797 58.0631 856.971 34.4991C866.992 24.3095 869.648 12.1976 860.7 -0.29308C852.012 -12.4131 840.248 -12.0507 828.21 -6.52008C797.783 7.46114 784.291 35.0204 769.014 66.3346V66.3346ZM922.245 119.885H763.07C764.121 135.369 760.348 149.354 765.433 162.839H922.286C924.458 147.827 924.604 134.53 922.245 119.885V119.885ZM728.884 119.785H568.515C567.308 135.142 565.695 148.961 569.546 163.337H729.226C730.469 148.374 731.252 134.613 728.884 119.785V119.785ZM600.769 344.745H728.958V201.854H600.769V344.745ZM764.849 345.182H891.539V201.464H764.849V345.182ZM566.954 377.844V201.17C566.954 201.17 546.514 199.301 536.054 198.344V86.8567H645.975C628.669 70.6518 611.065 61.574 601.188 44.3876C589.061 23.2875 589.22 0.933024 603.107 -18.6154C616.412 -37.3453 638.979 -46.7937 659.863 -41.8537C683.065 -36.3597 702.531 -24.203 717.356 -5.7216C727.482 6.89938 735.897 20.901 745.681 35.1673C754.715 21.9476 763.122 8.29628 772.881 -4.30841C787.4 -23.0627 806.369 -35.3497 829.759 -41.0595C853.948 -46.9648 872.652 -38.3268 886.902 -19.7883C901.352 -0.989241 903.3 19.952 891.91 41.2354C882.086 59.5988 865.484 71.3971 843.822 85.6104H956.947V196.625L926.572 200.946V377.844H566.954Z" fill="white"/>
</g>
</g>
</svg>
