<svg width="14" height="4" viewBox="0 0 14 4" fill="none" xmlns="http://www.w3.org/2000/svg">
<path fill-rule="evenodd" clip-rule="evenodd" d="M3.94447 1.99995C3.94447 2.84371 3.26046 3.52772 2.41669 3.52772C1.57293 3.52772 0.888916 2.84371 0.888916 1.99995C0.888916 1.15618 1.57293 0.472168 2.41669 0.472168C3.26046 0.472168 3.94447 1.15618 3.94447 1.99995ZM8.52781 1.99995C8.52781 2.84371 7.8438 3.52772 7.00003 3.52772C6.15626 3.52772 5.47225 2.84371 5.47225 1.99995C5.47225 1.15618 6.15626 0.472168 7.00003 0.472168C7.8438 0.472168 8.52781 1.15618 8.52781 1.99995ZM11.5834 3.52772C12.4271 3.52772 13.1111 2.84371 13.1111 1.99995C13.1111 1.15618 12.4271 0.472168 11.5834 0.472168C10.7396 0.472168 10.0556 1.15618 10.0556 1.99995C10.0556 2.84371 10.7396 3.52772 11.5834 3.52772Z" fill="white"/>
</svg>
