<svg xmlns="http://www.w3.org/2000/svg" width="14" height="50" viewBox="0 0 14 50">
  <g fill="none" fill-rule="evenodd">
    <g transform="translate(0 31)">
      <circle cx="7" cy="7" r="7" fill="#2FC7F7"/>
      <polygon fill="#FFFFFF" points="8 6 8 3 6 3 6 6 3 6 3 8 6 8 6 11 8 11 8 8 11 8 11 6"/>
    </g>
    <g transform="translate(0 6)">
      <circle cx="7" cy="7" r="7" fill="#1058D0"/>
      <polygon fill="#FFFFFF" points="8 6 8 3 6 3 6 6 3 6 3 8 6 8 6 11 8 11 8 8 11 8 11 6"/>
    </g>
  </g>
</svg>
