<svg xmlns="http://www.w3.org/2000/svg" width="13" height="345" viewBox="0 0 13 345">
  <g fill="none" fill-rule="evenodd">
    <path fill="#525C68" d="M0.8,8.157 L0,11 L2.933,10.158 C2.75042165,9.70006035 2.4815467,9.28147093 2.141,8.925 C1.75887452,8.56946294 1.30002362,8.30667585 0.8,8.157 L0.8,8.157 Z M7.289,1.597 L1.553,7.332 C2.02866138,7.5599935 2.47023927,7.85314468 2.865,8.203 C3.19008782,8.57972467 3.46134007,8.99972815 3.671,9.451 C4.024,9.096 7.654,5.467 9.402,3.719 C9.17987933,3.22798256 8.87739343,2.77746446 8.507,2.386 C8.15237198,2.05041115 7.73830141,1.78385958 7.286,1.6 L7.289,1.597 Z M10.568,0.434 C10.2779229,0.148186512 9.8846421,-0.00825307264 9.47750298,0.000221145715 C9.07036387,0.00869536407 8.68393314,0.181363912 8.406,0.479 L8.062,0.823 C8.5202887,1.0177379 8.93993297,1.2930977 9.301,1.636 C9.66482807,2.01918808 9.96133059,2.46106812 10.178,2.943 C10.39,2.73 10.524,2.597 10.524,2.597 C10.821408,2.31848773 10.9935465,1.93154118 11.0012685,1.52415812 C11.0089905,1.11677506 10.8516396,0.723582983 10.565,0.434 L10.568,0.434 Z" transform="translate(0 51)"/>
    <g fill="#717A84" transform="translate(0 68)">
      <rect width="12" height="2" rx="1"/>
      <rect width="12" height="2" y="4" rx="1"/>
      <rect width="12" height="2" y="8" rx="1"/>
    </g>
    <path fill="#535C68" d="M3.45586634,4.25330133 L1.4198273,2.17715849 C1.39099994,2.14734001 1.3513021,2.13050228 1.3098273,2.13050228 C1.2683525,2.13050228 1.22865467,2.14734001 1.1998273,2.17715849 L0.0458273036,3.35415849 C-0.0152757679,3.41671321 -0.0152757679,3.51660378 0.0458273036,3.57915849 L2.16529367,5.73972966 C2.1717008,5.75089264 2.17954534,5.76145827 2.1888273,5.77115849 L3.3428273,6.94815849 C3.37165467,6.97797698 3.4113525,6.99481471 3.4528273,6.99481471 C3.4943021,6.99481471 3.53399994,6.97797698 3.5628273,6.94815849 L8.9488273,1.44815849 C9.00993038,1.38560378 9.00993038,1.28571321 8.9488273,1.22315849 L7.7948273,0.0461584943 L7.7948273,0.0461584943 C7.76586462,0.0164706347 7.72609017,-0.000186939486 7.68461523,1.5829666e-06 C7.64314029,0.000190105419 7.60351891,0.0172085698 7.5748273,0.0471584943 L3.45586634,4.25330133 Z" transform="translate(1 86)"/>
    <path fill="#737983" d="M0.0839360683,6.0782066 L0.0839360683,6.0782066 L5.67493607,11.6692066 C5.72867115,11.7236216 5.80196087,11.7542495 5.87843607,11.7542495 C5.95491127,11.7542495 6.02820099,11.7236216 6.08193607,11.6692066 L7.00493607,10.7462066 C7.11721153,10.6337693 7.11721153,10.4516439 7.00493607,10.3392066 L2.53993607,5.8752066 L7.00493607,1.4102066 C7.11721153,1.29776926 7.11721153,1.11564394 7.00493607,1.0032066 L6.08193607,0.0842065997 C5.96949873,-0.0280688666 5.78737341,-0.0280688666 5.67493607,0.0842065997 L1.00693607,4.7522066 L1.00693607,4.7522066 L0.0839360683,5.6752066 C0.00257029517,5.75691341 -0.022216926,5.87927573 0.0209360683,5.9862066 L0.0209360683,5.9942066 C0.0364921496,6.02590374 0.0578625194,6.05439756 0.0839360683,6.0782066 L0.0839360683,6.0782066 Z" transform="translate(1 154)"/>
    <path fill="#737983" d="M0.0839360683,6.0782066 L0.0839360683,6.0782066 L5.67493607,11.6692066 C5.72867115,11.7236216 5.80196087,11.7542495 5.87843607,11.7542495 C5.95491127,11.7542495 6.02820099,11.7236216 6.08193607,11.6692066 L7.00493607,10.7462066 C7.11721153,10.6337693 7.11721153,10.4516439 7.00493607,10.3392066 L2.53993607,5.8752066 L7.00493607,1.4102066 C7.11721153,1.29776926 7.11721153,1.11564394 7.00493607,1.0032066 L6.08193607,0.0842065997 C5.96949873,-0.0280688666 5.78737341,-0.0280688666 5.67493607,0.0842065997 L1.00693607,4.7522066 L1.00693607,4.7522066 L0.0839360683,5.6752066 C0.00257029517,5.75691341 -0.022216926,5.87927573 0.0209360683,5.9862066 L0.0209360683,5.9942066 C0.0364921496,6.02590374 0.0578625194,6.05439756 0.0839360683,6.0782066 L0.0839360683,6.0782066 Z" transform="rotate(180 4 102)"/>
    <path fill="#175DD1" d="M0.0839360683,6.0782066 L0.0839360683,6.0782066 L5.67493607,11.6692066 C5.72867115,11.7236216 5.80196087,11.7542495 5.87843607,11.7542495 C5.95491127,11.7542495 6.02820099,11.7236216 6.08193607,11.6692066 L7.00493607,10.7462066 C7.11721153,10.6337693 7.11721153,10.4516439 7.00493607,10.3392066 L2.53993607,5.8752066 L7.00493607,1.4102066 C7.11721153,1.29776926 7.11721153,1.11564394 7.00493607,1.0032066 L6.08193607,0.0842065997 C5.96949873,-0.0280688666 5.78737341,-0.0280688666 5.67493607,0.0842065997 L1.00693607,4.7522066 L1.00693607,4.7522066 L0.0839360683,5.6752066 C0.00257029517,5.75691341 -0.022216926,5.87927573 0.0209360683,5.9862066 L0.0209360683,5.9942066 C0.0364921496,6.02590374 0.0578625194,6.05439756 0.0839360683,6.0782066 L0.0839360683,6.0782066 Z" transform="translate(1 232)"/>
    <path fill="#175DD1" d="M0.0839360683,6.0782066 L0.0839360683,6.0782066 L5.67493607,11.6692066 C5.72867115,11.7236216 5.80196087,11.7542495 5.87843607,11.7542495 C5.95491127,11.7542495 6.02820099,11.7236216 6.08193607,11.6692066 L7.00493607,10.7462066 C7.11721153,10.6337693 7.11721153,10.4516439 7.00493607,10.3392066 L2.53993607,5.8752066 L7.00493607,1.4102066 C7.11721153,1.29776926 7.11721153,1.11564394 7.00493607,1.0032066 L6.08193607,0.0842065997 C5.96949873,-0.0280688666 5.78737341,-0.0280688666 5.67493607,0.0842065997 L1.00693607,4.7522066 L1.00693607,4.7522066 L0.0839360683,5.6752066 C0.00257029517,5.75691341 -0.022216926,5.87927573 0.0209360683,5.9862066 L0.0209360683,5.9942066 C0.0364921496,6.02590374 0.0578625194,6.05439756 0.0839360683,6.0782066 L0.0839360683,6.0782066 Z" transform="matrix(-1 0 0 1 8 269)"/>
    <g transform="translate(0 99)">
      <path fill="#40C7F7" d="M10.284,10.866 L10.035,11.966 C10.0063415,12.0933938 9.92352831,12.2019441 9.80823317,12.2632426 C9.69293804,12.3245412 9.5566367,12.3324868 9.435,12.285 L8.38,11.885 C8.20930422,11.8199576 8.01621332,11.8650649 7.892,11.999 L7.125,12.83 C7.03712419,12.92538 6.91208368,12.9777859 6.78246245,12.9735612 C6.65284122,12.9693365 6.53147854,12.9088997 6.45,12.808 L5.737,11.931 C5.62140487,11.7895068 5.43159915,11.7321696 5.257,11.786 L4.178,12.122 C4.05423294,12.1608138 3.91970012,12.1438232 3.80946919,12.075457 C3.69923827,12.0070908 3.62423138,11.8941229 3.604,11.766 L3.425,10.65 C3.39596883,10.4696866 3.26016309,10.3251703 3.082,10.285 L1.982,10.036 C1.85423616,10.0078904 1.74519848,9.92522293 1.68363636,9.80979394 C1.62207423,9.69436496 1.61416717,9.55776111 1.662,9.436 L2.062,8.381 C2.12762002,8.21034358 2.08243551,8.01692214 1.948,7.893 L1.118,7.126 C1.02281168,7.03809589 0.970449024,6.91321387 0.974478089,6.78370821 C0.978507154,6.65420255 1.03853146,6.53281701 1.139,6.451 L2.016,5.738 C2.15797199,5.62272564 2.21540666,5.43259707 2.161,5.258 L1.825,4.179 C1.78689508,4.05510193 1.80432267,3.92077266 1.87278246,3.81070006 C1.94124224,3.70062747 2.05402251,3.62560291 2.182,3.605 L3.297,3.426 C3.47769834,3.39734239 3.62269124,3.26146106 3.663,3.083 L3.912,1.983 C3.94037204,1.85650363 4.02226404,1.74855564 4.13643834,1.68715098 C4.25061264,1.62574631 4.38582143,1.61693422 4.507,1.663 L5.563,2.063 C5.73389581,2.12779892 5.92702018,2.08228806 6.051,1.948 L6.818,1.118 C6.90590411,1.02281168 7.03078613,0.970449024 7.16029179,0.974478089 C7.28979745,0.978507154 7.41118299,1.03853146 7.493,1.139 L8.206,2.016 C8.32094867,2.15780274 8.51070504,2.21524465 8.685,2.161 L9.765,1.825 C9.88889807,1.78689508 10.0232273,1.80432267 10.1332999,1.87278246 C10.2433725,1.94124224 10.3183971,2.05402251 10.339,2.182 L10.518,3.298 C10.5467709,3.47844125 10.6826932,3.62308153 10.861,3.663 L11.961,3.912 C12.0885809,3.94035138 12.1973636,4.02311773 12.2587164,4.13851493 C12.3200693,4.25391214 12.3278461,4.39037994 12.28,4.512 L11.88,5.568 C11.8149576,5.73869578 11.8600649,5.93178668 11.994,6.056 L12.825,6.823 C12.92038,6.91087581 12.9727859,7.03591632 12.9685612,7.16553755 C12.9643365,7.29515878 12.9038997,7.41652146 12.803,7.498 L11.926,8.211 C11.7846762,8.32627006 11.7273321,8.51570323 11.781,8.69 L12.117,9.77 C12.1558138,9.89376706 12.1388232,10.0282999 12.070457,10.1385308 C12.0020908,10.2487617 11.8891229,10.3237686 11.761,10.344 L10.645,10.523 C10.4660996,10.5532587 10.3233615,10.6888797 10.284,10.866 L10.284,10.866 Z"/>
      <path fill="#FFFFFF" d="M8.01,4.007 L6.037,4.007 L6.328,7.088 L7.72,7.088 L8.01,4.007 Z M6.277,9.786 C6.48856157,9.94833965 6.75189246,10.0282984 7.018,10.011 C7.28134486,10.0267708 7.5412576,9.94488048 7.748,9.781 C8.09562789,9.43020089 8.09562789,8.86479911 7.748,8.514 C7.51983379,8.39430705 7.27116676,8.31865528 7.015,8.291 C6.7547827,8.31747084 6.50160968,8.39135534 6.268,8.509 C5.92382152,8.86652207 5.92781649,9.43336459 6.277,9.786 L6.277,9.786 Z" opacity=".9"/>
    </g>
    <path fill="#1058D0" d="M4.45203904,4.25314283 L2.416,2.177 C2.38717263,2.14718152 2.3474748,2.13034378 2.306,2.13034378 C2.2645252,2.13034378 2.22482737,2.14718152 2.196,2.177 L1.042,3.354 C0.980896929,3.41655472 0.980896929,3.51644528 1.042,3.579 L3.16146636,5.73957117 C3.16787349,5.75073415 3.17571804,5.76129977 3.185,5.771 L4.339,6.948 C4.36782737,6.97781848 4.4075252,6.99465622 4.449,6.99465622 C4.4904748,6.99465622 4.53017263,6.97781848 4.559,6.948 L9.945,1.448 C10.0061031,1.38544528 10.0061031,1.28555472 9.945,1.223 L8.791,0.046 L8.791,0.046 C8.76203731,0.0163121405 8.72226286,-0.000345433761 8.68078792,-0.000156911309 C8.63931298,3.16111438e-05 8.5996916,0.0170500755 8.571,0.047 L4.45203904,4.25314283 Z" transform="translate(0 120)"/>
    <g transform="translate(0 305)">
      <polygon fill="#9599A4" points="6 0 12 10 0 10"/>
      <rect width="2" height="3" x="5" y="3" fill="#D3DADE" rx="1"/>
      <rect width="2" height="2" x="5" y="7" fill="#D3DADE" rx="1"/>
    </g>
    <path fill="#545C6A" d="M11.653525,6.56027125 L11.653525,5.09289625 L10.2349,5.09289625 C10.122775,4.40389625 9.859525,3.76689625 9.47115,3.22089625 L10.46565,2.22477125 L9.4289,1.18802125 L8.4344,2.18252125 C7.89165,1.78927125 7.259525,1.52114625 6.570525,1.40414625 L6.570525,0.00014625 L5.104775,0.00014625 L5.104775,1.40089625 C4.409275,1.51302125 3.77065,1.77789625 3.223025,2.16952125 L2.2334,1.17989625 L1.195025,2.21827125 L2.18465,3.20627125 C1.78815,3.75552125 1.52165,4.39739625 1.4079,5.09289625 L0.000650000002,5.09289625 L0.000650000002,6.56027125 L1.409525,6.56027125 C1.526525,7.25089625 1.79465,7.88464625 2.1879,8.42902125 L1.188525,9.42839625 L2.225275,10.4651462 L3.226275,9.46414625 C3.7739,9.85414625 4.412525,10.1173962 5.104775,10.2295212 L5.104775,11.6546462 L6.570525,11.6546462 L6.570525,10.2262712 C7.2579,10.1108962 7.8884,9.84277125 8.43115,9.45277125 L9.4354,10.4586462 L10.473775,9.42189625 L9.466275,8.41439625 C9.853025,7.87327125 10.1179,7.24439625 10.233275,6.56027125 L11.653525,6.56027125 Z M5.8214,8.59964625 C4.28415,8.59964625 3.037775,7.35327125 3.037775,5.81602125 C3.037775,4.27714625 4.28415,3.03077125 5.8214,3.03077125 C7.35865,3.03077125 8.605025,4.27714625 8.605025,5.81602125 C8.605025,7.35327125 7.35865,8.59964625 5.8214,8.59964625 Z" transform="translate(0 17)"/>
    <path fill="#FFFFFF" d="M11.653525,6.56027125 L11.653525,5.09289625 L10.2349,5.09289625 C10.122775,4.40389625 9.859525,3.76689625 9.47115,3.22089625 L10.46565,2.22477125 L9.4289,1.18802125 L8.4344,2.18252125 C7.89165,1.78927125 7.259525,1.52114625 6.570525,1.40414625 L6.570525,0.00014625 L5.104775,0.00014625 L5.104775,1.40089625 C4.409275,1.51302125 3.77065,1.77789625 3.223025,2.16952125 L2.2334,1.17989625 L1.195025,2.21827125 L2.18465,3.20627125 C1.78815,3.75552125 1.52165,4.39739625 1.4079,5.09289625 L0.000650000002,5.09289625 L0.000650000002,6.56027125 L1.409525,6.56027125 C1.526525,7.25089625 1.79465,7.88464625 2.1879,8.42902125 L1.188525,9.42839625 L2.225275,10.4651462 L3.226275,9.46414625 C3.7739,9.85414625 4.412525,10.1173962 5.104775,10.2295212 L5.104775,11.6546462 L6.570525,11.6546462 L6.570525,10.2262712 C7.2579,10.1108962 7.8884,9.84277125 8.43115,9.45277125 L9.4354,10.4586462 L10.473775,9.42189625 L9.466275,8.41439625 C9.853025,7.87327125 10.1179,7.24439625 10.233275,6.56027125 L11.653525,6.56027125 Z M5.8214,8.59964625 C4.28415,8.59964625 3.037775,7.35327125 3.037775,5.81602125 C3.037775,4.27714625 4.28415,3.03077125 5.8214,3.03077125 C7.35865,3.03077125 8.605025,4.27714625 8.605025,5.81602125 C8.605025,7.35327125 7.35865,8.59964625 5.8214,8.59964625 Z"/>
    <path fill="#1159D0" d="M11.653525,6.56027125 L11.653525,5.09289625 L10.2349,5.09289625 C10.122775,4.40389625 9.859525,3.76689625 9.47115,3.22089625 L10.46565,2.22477125 L9.4289,1.18802125 L8.4344,2.18252125 C7.89165,1.78927125 7.259525,1.52114625 6.570525,1.40414625 L6.570525,0.00014625 L5.104775,0.00014625 L5.104775,1.40089625 C4.409275,1.51302125 3.77065,1.77789625 3.223025,2.16952125 L2.2334,1.17989625 L1.195025,2.21827125 L2.18465,3.20627125 C1.78815,3.75552125 1.52165,4.39739625 1.4079,5.09289625 L0.000650000002,5.09289625 L0.000650000002,6.56027125 L1.409525,6.56027125 C1.526525,7.25089625 1.79465,7.88464625 2.1879,8.42902125 L1.188525,9.42839625 L2.225275,10.4651462 L3.226275,9.46414625 C3.7739,9.85414625 4.412525,10.1173962 5.104775,10.2295212 L5.104775,11.6546462 L6.570525,11.6546462 L6.570525,10.2262712 C7.2579,10.1108962 7.8884,9.84277125 8.43115,9.45277125 L9.4354,10.4586462 L10.473775,9.42189625 L9.466275,8.41439625 C9.853025,7.87327125 10.1179,7.24439625 10.233275,6.56027125 L11.653525,6.56027125 Z M5.8214,8.59964625 C4.28415,8.59964625 3.037775,7.35327125 3.037775,5.81602125 C3.037775,4.27714625 4.28415,3.03077125 5.8214,3.03077125 C7.35865,3.03077125 8.605025,4.27714625 8.605025,5.81602125 C8.605025,7.35327125 7.35865,8.59964625 5.8214,8.59964625 Z" transform="translate(0 32)"/>
    <path fill="#AFB6BC" d="M0,0 L2,0 L2,2 L0,2 L0,0 Z M0,4 L2,4 L2,6 L0,6 L0,4 Z M4,0 L6,0 L6,2 L4,2 L4,0 Z M4,4 L6,4 L6,6 L4,6 L4,4 Z M0,8 L2,8 L2,10 L0,10 L0,8 Z M4,8 L6,8 L6,10 L4,10 L4,8 Z M0,12 L2,12 L2,14 L0,14 L0,12 Z M4,12 L6,12 L6,14 L4,14 L4,12 Z" transform="translate(0 330)"/>
  </g>
</svg>
