<svg width="32" height="32" viewBox="0 0 32 32" fill="none" xmlns="http://www.w3.org/2000/svg">
<ellipse cx="15.7091" cy="15.9412" rx="15.7091" ry="15.9412" fill="#00ACE3"/>
<path fill-rule="evenodd" clip-rule="evenodd" d="M20.9473 11.7271L21.8643 8.60168C21.9442 8.32994 21.8768 8.03508 21.6875 7.82818C21.4982 7.62128 21.2157 7.53377 20.9465 7.59861C20.6773 7.66345 20.4622 7.87079 20.3823 8.14253L19.5968 10.8255C17.1548 9.51719 14.2432 9.52031 11.8038 10.8339L11.0144 8.14253C10.8909 7.72246 10.459 7.4847 10.0498 7.61149C9.64055 7.73828 9.40893 8.1816 9.53245 8.60168L10.4534 11.7394C8.38529 13.4362 7.18427 16.0087 7.19144 18.7263C7.19144 23.6308 11.0028 22.4273 15.7081 22.4273C20.4133 22.4273 24.2247 23.6308 24.2247 18.7263C24.233 16.0015 23.0254 13.4226 20.9473 11.7271ZM15.7003 18.06C12.3416 18.06 9.61757 18.4175 9.61757 16.9562C9.61757 15.495 12.3416 14.3086 15.7003 14.3086C19.059 14.3086 21.7869 15.4938 21.7869 16.9562C21.7869 18.4187 19.0629 18.06 15.7003 18.06ZM12.918 15.403C12.4385 15.493 12.1101 15.9506 12.1686 16.4473C12.2271 16.9441 12.6524 17.3082 13.1389 17.2781C13.6255 17.2481 14.0052 16.8344 14.0054 16.3341C13.951 15.7712 13.4672 15.357 12.918 15.403ZM17.7316 16.4501C17.7912 16.9467 18.217 17.3101 18.7036 17.2794C19.1902 17.2488 19.5695 16.8348 19.5696 16.3344C19.5153 15.7699 19.029 15.355 18.4784 15.4034C17.9991 15.4949 17.6719 15.9534 17.7316 16.4501Z" fill="white"/>
</svg>
