<svg width="165" height="155" viewBox="0 0 165 155" fill="none" xmlns="http://www.w3.org/2000/svg">
<g clip-path="url(#clip0_20102_327545)">
<g clip-path="url(#clip1_20102_327545)">
<path opacity="0.6" fill-rule="evenodd" clip-rule="evenodd" d="M114.716 156.339H-9.57154C-10.618 156.339 -11.6554 156.298 -12.6824 156.218C-40.3215 155.555 -62.5318 131.732 -62.5332 102.443C-62.5252 88.1675 -57.1372 74.4799 -47.5545 64.3915C-42.6425 59.2203 -36.8346 55.2118 -30.5158 52.534C-30.6216 51.0814 -30.6754 49.6134 -30.6754 48.1322C-30.6667 33.0693 -24.9813 18.627 -14.8701 7.98239C-4.75877 -2.66219 8.95016 -8.6371 23.241 -8.62792C41.5471 -8.60439 61.6948 1.04444 71.4079 15.7716C76.0205 14.049 80.9858 13.1128 86.1587 13.1157C109.01 13.1446 127.778 31.5052 129.954 54.9852C151.849 60.0165 164.249 80.5765 164.23 105.158C164.207 133.487 144.4 156.436 117.524 156.424C116.582 156.424 115.646 156.395 114.716 156.339Z" fill="#C3F0FF"/>
<path opacity="0.3" fill-rule="evenodd" clip-rule="evenodd" d="M14.4692 40.1422C14.4692 38.0428 16.2743 36.3406 18.501 36.3406C20.1199 36.3406 21.5057 37.2462 22.1481 38.5453C22.6622 38.3673 23.2097 38.2547 23.7892 38.2547C26.355 38.2547 28.4313 40.1652 28.5496 42.5564C28.6483 42.5491 28.7445 42.5285 28.8456 42.5285C30.9293 42.5285 32.6172 44.1243 32.6172 46.0929C32.6172 48.0627 30.9293 49.6585 28.8456 49.6585C28.5114 49.6585 27.387 49.6585 27.1169 49.6585H16.9351C16.7255 49.6585 15.7626 49.6585 15.4667 49.6585C12.6814 49.6585 10.4239 47.5349 10.4239 44.9137C10.4239 42.6109 12.1685 40.6943 14.4828 40.2633C14.4815 40.2221 14.4692 40.1834 14.4692 40.1422Z" fill="white"/>
<path opacity="0.3" fill-rule="evenodd" clip-rule="evenodd" d="M143.718 72.7402C143.718 71.1508 142.348 69.8621 140.657 69.8621C139.428 69.8621 138.376 70.5477 137.888 71.5312C137.498 71.3965 137.082 71.3112 136.642 71.3112C134.694 71.3112 133.118 72.7576 133.028 74.5679C132.953 74.5624 132.88 74.5468 132.803 74.5468C131.221 74.5468 129.939 75.7549 129.939 77.2453C129.939 78.7366 131.221 79.9447 132.803 79.9447C133.057 79.9447 133.91 79.9447 134.115 79.9447H141.846C142.005 79.9447 142.736 79.9447 142.961 79.9447C145.075 79.9447 146.789 78.337 146.789 76.3525C146.789 74.6092 145.465 73.1582 143.708 72.8319C143.709 72.8007 143.718 72.7714 143.718 72.7402Z" fill="white"/>
</g>
<g opacity="0.8" filter="url(#filter0_d_20102_327545)">
<path fill-rule="evenodd" clip-rule="evenodd" d="M106.504 125.74H41.3929C40.8357 125.74 40.2834 125.72 39.7366 125.68C25.0212 125.353 14.1453 113.588 14.1445 99.1245C14.1488 92.0746 17.2593 85.7671 21.7837 80.2493C23.9464 77.6118 25.5127 75.8732 28.6754 74.2871C28.6191 73.5697 28.5905 72.8448 28.5905 72.1133C28.5951 64.6748 31.622 57.5427 37.0054 52.286C42.3887 47.0293 49.6875 44.0787 57.2961 44.0833C67.0424 44.0949 75.5433 49.2507 80.7146 56.5234C84.1194 55.6728 88.3295 55.4009 91.0836 55.4023C103.25 55.4167 113.242 64.4837 114.401 76.079C126.058 78.5636 133.937 88.3259 133.926 100.465C133.914 114.455 122.308 125.788 107.999 125.782C107.497 125.782 106.999 125.768 106.504 125.74Z" fill="url(#paint0_linear_20102_327545)" shape-rendering="crispEdges"/>
</g>
<g filter="url(#filter1_d_20102_327545)">
<g opacity="0.9">
<g filter="url(#filter2_i_20102_327545)">
<path d="M38.6875 46.0913C38.6875 43.8822 40.4784 42.0913 42.6875 42.0913H104.398C106.607 42.0913 108.398 43.8822 108.398 46.0913V76.948C108.398 79.1572 106.607 80.9481 104.398 80.9481H42.6875C40.4784 80.9481 38.6875 79.1572 38.6875 76.9481V46.0913Z" fill="white"/>
</g>
<rect opacity="0.5" x="43.5957" y="47.0732" width="16.6909" height="2.98898" rx="1.49449" fill="#BDC1C6"/>
<rect opacity="0.5" x="43.5957" y="61.0215" width="17.6727" height="2.98898" rx="1.49449" fill="#BDC1C6"/>
<rect x="43.5957" y="53.0515" width="26.5091" height="2.98898" rx="1.49449" fill="black" fill-opacity="0.05"/>
<rect x="43.5957" y="66.9995" width="26.5091" height="2.98898" rx="1.49449" fill="black" fill-opacity="0.05"/>
</g>
<g opacity="0.9">
<g filter="url(#filter3_i_20102_327545)">
<path d="M38.6875 88.9338C38.6875 86.7247 40.4784 84.9338 42.6875 84.9338H67.0875C69.2966 84.9338 71.0875 86.7247 71.0875 88.9338V105.842C71.0875 108.051 69.2966 109.842 67.0875 109.842H42.6875C40.4784 109.842 38.6875 108.051 38.6875 105.842V88.9338Z" fill="white"/>
</g>
<rect opacity="0.4" x="44.5781" y="92.9041" width="12.7636" height="2.98898" rx="1.49449" fill="#A8ADB4"/>
<rect x="44.5781" y="98.8821" width="16.6909" height="2.98898" rx="1.49449" fill="black" fill-opacity="0.05"/>
</g>
<g opacity="0.9">
<g filter="url(#filter4_i_20102_327545)">
<path d="M75.0156 88.9338C75.0156 86.7247 76.8065 84.9338 79.0156 84.9338H104.397C106.607 84.9338 108.397 86.7247 108.397 88.9338V105.842C108.397 108.051 106.607 109.842 104.397 109.842H79.0156C76.8065 109.842 75.0156 108.051 75.0156 105.842V88.9338Z" fill="white"/>
</g>
<rect opacity="0.4" x="80.9062" y="92.9041" width="12.7636" height="2.98898" rx="1.49449" fill="#A8ADB4"/>
<rect x="80.9062" y="98.8821" width="16.6909" height="2.98898" rx="1.49449" fill="black" fill-opacity="0.05"/>
</g>
</g>
</g>
<defs>
<filter id="filter0_d_20102_327545" x="10.1445" y="42.0833" width="127.781" height="89.6987" filterUnits="userSpaceOnUse" color-interpolation-filters="sRGB">
<feFlood flood-opacity="0" result="BackgroundImageFix"/>
<feColorMatrix in="SourceAlpha" type="matrix" values="0 0 0 0 0 0 0 0 0 0 0 0 0 0 0 0 0 0 127 0" result="hardAlpha"/>
<feOffset dy="2"/>
<feGaussianBlur stdDeviation="2"/>
<feComposite in2="hardAlpha" operator="out"/>
<feColorMatrix type="matrix" values="0 0 0 0 0.025382 0 0 0 0 0.275095 0 0 0 0 0.358333 0 0 0 0.06 0"/>
<feBlend mode="normal" in2="BackgroundImageFix" result="effect1_dropShadow_20102_327545"/>
<feBlend mode="normal" in="SourceGraphic" in2="effect1_dropShadow_20102_327545" result="shape"/>
</filter>
<filter id="filter1_d_20102_327545" x="31.6131" y="37.375" width="83.8597" height="81.8995" filterUnits="userSpaceOnUse" color-interpolation-filters="sRGB">
<feFlood flood-opacity="0" result="BackgroundImageFix"/>
<feColorMatrix in="SourceAlpha" type="matrix" values="0 0 0 0 0 0 0 0 0 0 0 0 0 0 0 0 0 0 127 0" result="hardAlpha"/>
<feOffset dy="2.35813"/>
<feGaussianBlur stdDeviation="3.5372"/>
<feComposite in2="hardAlpha" operator="out"/>
<feColorMatrix type="matrix" values="0 0 0 0 0.423529 0 0 0 0 0.423529 0 0 0 0 0.423529 0 0 0 0.12 0"/>
<feBlend mode="normal" in2="BackgroundImageFix" result="effect1_dropShadow_20102_327545"/>
<feBlend mode="normal" in="SourceGraphic" in2="effect1_dropShadow_20102_327545" result="shape"/>
</filter>
<filter id="filter2_i_20102_327545" x="38.6875" y="42.0913" width="69.7109" height="38.8567" filterUnits="userSpaceOnUse" color-interpolation-filters="sRGB">
<feFlood flood-opacity="0" result="BackgroundImageFix"/>
<feBlend mode="normal" in="SourceGraphic" in2="BackgroundImageFix" result="shape"/>
<feColorMatrix in="SourceAlpha" type="matrix" values="0 0 0 0 0 0 0 0 0 0 0 0 0 0 0 0 0 0 127 0" result="hardAlpha"/>
<feOffset dx="2"/>
<feComposite in2="hardAlpha" operator="arithmetic" k2="-1" k3="1"/>
<feColorMatrix type="matrix" values="0 0 0 0 0.866667 0 0 0 0 0.878431 0 0 0 0 0.894118 0 0 0 1 0"/>
<feBlend mode="normal" in2="shape" result="effect1_innerShadow_20102_327545"/>
</filter>
<filter id="filter3_i_20102_327545" x="38.6875" y="84.9338" width="32.4004" height="24.9082" filterUnits="userSpaceOnUse" color-interpolation-filters="sRGB">
<feFlood flood-opacity="0" result="BackgroundImageFix"/>
<feBlend mode="normal" in="SourceGraphic" in2="BackgroundImageFix" result="shape"/>
<feColorMatrix in="SourceAlpha" type="matrix" values="0 0 0 0 0 0 0 0 0 0 0 0 0 0 0 0 0 0 127 0" result="hardAlpha"/>
<feOffset dx="2"/>
<feComposite in2="hardAlpha" operator="arithmetic" k2="-1" k3="1"/>
<feColorMatrix type="matrix" values="0 0 0 0 1 0 0 0 0 0.662745 0 0 0 0 0 0 0 0 0.4 0"/>
<feBlend mode="normal" in2="shape" result="effect1_innerShadow_20102_327545"/>
</filter>
<filter id="filter4_i_20102_327545" x="75.0156" y="84.9338" width="33.3809" height="24.9082" filterUnits="userSpaceOnUse" color-interpolation-filters="sRGB">
<feFlood flood-opacity="0" result="BackgroundImageFix"/>
<feBlend mode="normal" in="SourceGraphic" in2="BackgroundImageFix" result="shape"/>
<feColorMatrix in="SourceAlpha" type="matrix" values="0 0 0 0 0 0 0 0 0 0 0 0 0 0 0 0 0 0 127 0" result="hardAlpha"/>
<feOffset dx="2"/>
<feComposite in2="hardAlpha" operator="arithmetic" k2="-1" k3="1"/>
<feColorMatrix type="matrix" values="0 0 0 0 0.184314 0 0 0 0 0.776471 0 0 0 0 0.964706 0 0 0 0.4 0"/>
<feBlend mode="normal" in2="shape" result="effect1_innerShadow_20102_327545"/>
</filter>
<linearGradient id="paint0_linear_20102_327545" x1="73.561" y1="59.5298" x2="73.5609" y2="125.782" gradientUnits="userSpaceOnUse">
<stop stop-color="white" stop-opacity="0.4"/>
<stop offset="1" stop-color="white" stop-opacity="0.8"/>
</linearGradient>
<clipPath id="clip0_20102_327545">
<rect width="165" height="155" rx="16" fill="white"/>
</clipPath>
<clipPath id="clip1_20102_327545">
<rect width="228.171" height="166.481" fill="white" transform="translate(-63.1719 -9.56787)"/>
</clipPath>
</defs>
</svg>
