<svg width="32" height="32" viewBox="0 0 32 32" fill="none" xmlns="http://www.w3.org/2000/svg">
<ellipse cx="15.7091" cy="15.9412" rx="15.7091" ry="15.9412" fill="#00ACE3"/>
<path d="M15.1678 14.1205H16.3619C16.6024 14.1205 16.7973 14.3171 16.7973 14.5595V15.7632C16.7973 16.0057 16.6024 16.2022 16.3619 16.2022H15.1678C14.9273 16.2022 14.7324 16.0057 14.7324 15.7632V14.5595C14.7324 14.3171 14.9273 14.1205 15.1678 14.1205Z" fill="white"/>
<path d="M13.2654 14.1208H12.0713C11.8308 14.1208 11.6359 14.3173 11.6359 14.5597V15.7635C11.6359 16.0059 11.8308 16.2025 12.0713 16.2025H13.2654C13.5059 16.2025 13.7008 16.0059 13.7008 15.7635V14.5597C13.7008 14.3173 13.5059 14.1208 13.2654 14.1208Z" fill="white"/>
<path d="M13.2644 17.2431H12.0703C11.8298 17.2431 11.6349 17.4396 11.6349 17.6821V18.8858C11.6349 19.1283 11.8298 19.3248 12.0703 19.3248H13.2644C13.5049 19.3248 13.6998 19.1283 13.6998 18.8858V17.6821C13.6998 17.4396 13.5049 17.2431 13.2644 17.2431Z" fill="white"/>
<path d="M16.3619 17.2431H15.1678C14.9273 17.2431 14.7324 17.4396 14.7324 17.6821V18.8858C14.7324 19.1283 14.9273 19.3248 15.1678 19.3248H16.3619C16.6024 19.3248 16.7973 19.1283 16.7973 18.8858V17.6821C16.7973 17.4396 16.6024 17.2431 16.3619 17.2431Z" fill="white"/>
<path d="M18.2653 14.1205H19.4594C19.6999 14.1205 19.8948 14.3171 19.8948 14.5595V15.7632C19.8948 16.0057 19.6999 16.2022 19.4594 16.2022H18.2653C18.0248 16.2022 17.8299 16.0057 17.8299 15.7632V14.5595C17.8299 14.3171 18.0248 14.1205 18.2653 14.1205Z" fill="white"/>
<path fill-rule="evenodd" clip-rule="evenodd" d="M20.6539 9.13246V8.55874H21.9114C23.0596 8.63218 23.9492 9.64307 23.9285 10.8536V22.328C23.9285 22.9614 23.4406 23.4754 22.837 23.4754H8.58829C7.98578 23.4754 7.49678 22.9614 7.49678 22.328V10.8536C7.49242 10.794 7.49023 10.7354 7.49023 10.6769C7.49242 9.50423 8.39837 8.55645 9.51389 8.55874H10.7713V9.13246C10.7713 10.0825 11.5037 10.8536 12.4086 10.8536C13.3134 10.8536 14.0458 10.0825 14.0458 9.13246V8.55874H17.3794V9.13246C17.3794 10.0825 18.1129 10.8536 19.0167 10.8536C19.9204 10.8536 20.6539 10.0825 20.6539 9.13246ZM21.7455 21.1806H9.67984V12.0661H21.7455V21.1806Z" fill="white"/>
<path d="M13.2107 7.64307V8.90525C13.2107 9.37111 12.8516 9.74862 12.4085 9.74862C11.9653 9.74862 11.6062 9.37111 11.6062 8.90525V7.64307L11.6121 7.53349C11.6606 7.11521 12.0024 6.79184 12.4139 6.79396C12.8571 6.79741 13.2129 7.17721 13.2107 7.64307Z" fill="white"/>
<path d="M19.7742 7.67403V8.8708C19.7742 9.31027 19.4348 9.66713 19.0156 9.66713C18.5965 9.66598 18.2592 9.30913 18.2592 8.86966V7.67403C18.2592 7.23341 18.5987 6.8777 19.0167 6.8777C19.4348 6.8777 19.7742 7.23341 19.7742 7.67403Z" fill="white"/>
</svg>
