<svg width="32" height="32" viewBox="0 0 32 32" fill="none" xmlns="http://www.w3.org/2000/svg">
<ellipse cx="15.7091" cy="15.9412" rx="15.7091" ry="15.9412" fill="#00ACE3"/>
<path fill-rule="evenodd" clip-rule="evenodd" d="M9.26758 8.34985C8.16301 8.34985 7.26758 9.24529 7.26758 10.3499V16.064C7.26758 17.1686 8.16301 18.064 9.26758 18.064H9.66878V19.8384C9.66878 20.3751 10.3195 20.6418 10.6961 20.2596L12.0416 18.8942V14.547C12.0416 12.8901 13.3848 11.547 15.0416 11.547H20.0312V10.3499C20.0312 9.24528 19.1358 8.34985 18.0312 8.34985H9.26758ZM13.6364 14.9719C13.6364 13.8673 14.5318 12.9719 15.6364 12.9719H23.0533C24.1578 12.9719 25.0533 13.8673 25.0533 14.9719V19.5412C25.0533 20.6458 24.1578 21.5412 23.0533 21.5412H22.9303V23.0458C22.9303 23.6154 22.2108 23.8644 21.8587 23.4167L20.3837 21.5412H15.6364C14.5318 21.5412 13.6364 20.6458 13.6364 19.5412V14.9719Z" fill="#525C69"/>
<path d="M9.39485 8.34985C8.21999 8.34985 7.26758 9.31634 7.26758 10.5086V15.9053C7.26758 17.0976 8.21999 18.064 9.39485 18.064H9.66878V19.7386C9.66878 20.3156 10.3562 20.6045 10.7582 20.1966L12.0416 18.8942V14.785C12.0416 12.9967 13.4702 11.547 15.2325 11.547H20.0312V10.5086C20.0312 9.31634 19.0788 8.34985 17.9039 8.34985H9.39485Z" fill="white"/>
<path d="M13.6363 15.1303C13.6363 13.9381 14.5888 12.9716 15.7636 12.9716H22.9259C24.1008 12.9716 25.0532 13.9381 25.0532 15.1303V19.3822C25.0532 20.573 24.1031 21.5386 22.9302 21.5409V22.9293C22.9302 23.5418 22.1698 23.812 21.7932 23.3332L20.3837 21.5409H15.7636C14.5888 21.5409 13.6363 20.5745 13.6363 19.3822V15.1303Z" fill="white"/>
</svg>
