<svg width="32" height="32" viewBox="0 0 32 32" fill="none" xmlns="http://www.w3.org/2000/svg">
<ellipse cx="15.7091" cy="15.9412" rx="15.7091" ry="15.9412" fill="#00ACE3"/>
<path fill-rule="evenodd" clip-rule="evenodd" d="M7.48916 9.7002H23.9298C24.3541 9.7002 24.698 10.0336 24.698 10.4448C24.698 10.5282 24.6836 10.611 24.6553 10.6897L24.1586 12.0726C24.0511 12.3719 23.76 12.5724 23.433 12.5724H7.98189C7.65426 12.5724 7.36268 12.371 7.25573 12.0709L6.763 10.6879C6.62449 10.2992 6.83733 9.87524 7.23837 9.74099C7.31905 9.71398 7.4038 9.7002 7.48916 9.7002ZM10.197 15.0095H21.2219C21.6462 15.0095 21.9902 15.3429 21.9902 15.7542C21.9902 15.8435 21.9736 15.932 21.9413 16.0156L21.4063 17.3985C21.2939 17.6892 21.0072 17.8818 20.687 17.8818H10.7035C10.3783 17.8818 10.0884 17.6833 9.97956 17.3862L9.47305 16.0033C9.3311 15.6157 9.54016 15.19 9.94 15.0524C10.0225 15.024 10.1094 15.0095 10.197 15.0095ZM13.6199 20.3355H17.7991C18.2234 20.3355 18.5673 20.6689 18.5673 21.0801C18.5673 21.1526 18.5564 21.2247 18.535 21.2941L18.1071 22.677C18.0096 22.992 17.7105 23.2077 17.3712 23.2077H14.0941C13.7632 23.2077 13.4695 23.0023 13.3651 22.698L12.8908 21.315C12.757 20.9248 12.9749 20.5032 13.3775 20.3735C13.4557 20.3483 13.5375 20.3355 13.6199 20.3355Z" fill="white"/>
</svg>
