<svg width="32" height="32" viewBox="0 0 32 32" fill="none" xmlns="http://www.w3.org/2000/svg">
<ellipse cx="15.7091" cy="15.9412" rx="15.7091" ry="15.9412" fill="#00ACE3"/>
<path fill-rule="evenodd" clip-rule="evenodd" d="M10.3468 7.63501C9.75941 7.63501 9.2832 8.11825 9.2832 8.71436L9.28325 23.2549C9.28325 23.851 9.75945 24.3343 10.3469 24.3343H21.0723C21.6598 24.3343 22.136 23.851 22.136 23.2549V13.2261C22.136 12.6841 21.935 12.1619 21.5731 11.7633L18.6113 8.33086C18.2086 7.88733 17.6413 7.63501 17.047 7.63501H10.3468ZM12.2847 12.1259C11.8208 12.1259 11.4447 12.5119 11.4447 12.9827C11.4447 13.4534 11.8208 13.8394 12.2847 13.8394H18.5126C18.9765 13.8394 19.3526 13.4534 19.3526 12.9827C19.3526 12.5119 18.9765 12.1259 18.5126 12.1259H12.2847ZM12.2847 15.3804C11.8208 15.3804 11.4447 15.7664 11.4447 16.2372C11.4447 16.7079 11.8208 17.0939 12.2847 17.0939H18.5126C18.9765 17.0939 19.3526 16.7079 19.3526 16.2372C19.3526 15.7664 18.9765 15.3804 18.5126 15.3804H12.2847ZM11.4447 19.4482C11.4447 18.9774 11.8208 18.5915 12.2847 18.5915H16.6908C17.1548 18.5915 17.5309 18.9774 17.5309 19.4482C17.5309 19.919 17.1548 20.305 16.6908 20.305H12.2847C11.8208 20.305 11.4447 19.919 11.4447 19.4482Z" fill="white"/>
</svg>
