<svg width="32" height="32" viewBox="0 0 32 32" fill="none" xmlns="http://www.w3.org/2000/svg">
<ellipse cx="15.7091" cy="15.9412" rx="15.7091" ry="15.9412" fill="#00ACE3"/>
<path d="M21.0226 21.9419C21.252 21.9005 21.4026 21.6771 21.3552 21.4455C21.0994 20.1976 20.6387 18.4787 20.6387 18.4787C20.6387 17.9974 20.003 17.4472 18.7503 17.1269C18.3249 17.0092 17.9212 16.8274 17.554 16.588C17.4952 16.4397 17.4719 16.2804 17.4859 16.1221L17.0844 16.0612C17.0844 16.027 17.0501 15.5226 17.0501 15.5226C17.5326 15.3622 17.483 14.4154 17.483 14.4154C17.7894 14.5836 17.989 13.8354 17.989 13.8354C18.3515 12.795 17.8085 12.8576 17.8085 12.8576C17.9034 12.2221 17.9034 11.5766 17.8085 10.941C17.5672 8.83329 13.9326 9.40482 14.3637 10.0938C13.3015 9.89925 13.544 12.2923 13.544 12.2923L13.7744 12.9111C13.4553 13.1156 13.5178 13.3509 13.5876 13.6137C13.6167 13.7235 13.6472 13.838 13.6517 13.9571C13.674 14.5545 14.0423 14.4305 14.0423 14.4305C14.0652 15.4157 14.5556 15.5451 14.5556 15.5451C14.6478 16.1639 14.5906 16.0572 14.5906 16.0572L14.1538 16.1095C14.1598 16.2501 14.1483 16.3909 14.1195 16.5289C13.8658 16.641 13.7106 16.7299 13.5573 16.8178C13.3995 16.9082 13.2437 16.9974 12.9848 17.1095C11.9987 17.5362 10.9268 18.0935 10.7367 18.8423C10.6204 19.3001 10.3629 20.5849 10.1805 21.5141C10.1339 21.7512 10.2887 21.9806 10.5239 22.0192C12.1037 22.2781 13.7932 22.4183 15.5489 22.4183C17.472 22.4183 19.3155 22.2501 21.0226 21.9419Z" fill="white"/>
<path d="M25.7801 19.9888C26.1132 19.8991 26.3308 19.5811 26.2471 19.2419C26.0919 18.614 25.7719 17.8163 25.3898 17.5812C24.8673 17.2599 24.9139 17.3266 24.5866 17.1463C24.3703 17.0221 24.1422 16.9186 23.9053 16.8371C23.7839 16.7313 23.6899 16.5992 23.6308 16.4517C23.5063 16.2981 23.3426 16.1786 23.1559 16.1051L23.142 15.6439L24.1241 15.3398C24.1241 15.3398 24.3775 15.2231 24.4022 15.2231C24.3629 15.1418 24.3177 15.0634 24.2668 14.9884C24.2482 14.9393 24.1556 14.6029 24.1556 14.6029C24.2988 14.7843 24.4672 14.9456 24.6561 15.0822C24.4888 14.7725 24.3457 14.4511 24.2279 14.1207C24.1491 13.8149 24.0943 13.5037 24.0641 13.1898C23.9966 12.6065 23.8915 12.0278 23.7496 11.4572C23.6487 11.1737 23.4689 10.9227 23.2301 10.7319C22.8801 10.4911 22.4693 10.3467 22.0414 10.3141H21.9921C21.5642 10.3466 21.1534 10.491 20.8034 10.7319C20.5649 10.9229 20.3853 11.1738 20.2842 11.4572C20.1419 12.0277 20.0368 12.6064 19.9694 13.1898C19.9435 13.5107 19.8913 13.8291 19.8134 14.142C19.6955 14.4666 19.5498 14.781 19.3777 15.0819C19.5655 14.9447 19.7329 14.7829 19.8751 14.6013C19.8751 14.6013 19.7564 14.9703 19.7375 15.0196C19.6943 15.0834 19.6578 15.1512 19.6288 15.2221C19.6532 15.2221 19.9068 15.3388 19.9068 15.3388L20.8887 15.6439L20.8746 16.1051C20.6879 16.1789 20.5243 16.2984 20.3996 16.452C20.3523 16.5542 20.2944 16.6515 20.2266 16.7422C21.1212 17.1018 21.6448 17.6282 21.666 18.2171C21.6701 18.2471 21.7173 18.4262 21.7834 18.6769C21.9485 19.3032 22.2313 20.3763 22.2544 20.6866H22.3351C23.5813 20.5048 24.7387 20.2692 25.7801 19.9888Z" fill="white"/>
<path d="M9.16959 20.6837H8.81328C7.6784 20.5188 6.6169 20.3094 5.64932 20.0621C5.31155 19.9758 5.08509 19.6552 5.15831 19.3097C5.29046 18.686 5.579 17.8926 6.06431 17.5694C6.37887 17.3599 6.50947 17.3237 6.83681 17.1434C7.05305 17.0192 7.28122 16.9156 7.5181 16.8342C7.63951 16.7284 7.73353 16.5963 7.79256 16.4488C7.91709 16.2952 8.08079 16.1757 8.26751 16.1021L8.28169 15.641L7.29953 15.3369C7.29953 15.3369 7.0462 15.2202 7.02145 15.2202C7.06066 15.1389 7.10583 15.0605 7.1566 14.9855C7.17523 14.9364 7.26783 14.6 7.26783 14.6C7.12464 14.7814 6.95619 14.9427 6.76729 15.0793C6.93459 14.7696 7.07773 14.4482 7.19553 14.1178C7.2743 13.812 7.32906 13.5007 7.35932 13.1868C7.42681 12.6035 7.53185 12.0249 7.67382 11.4543C7.77476 11.1707 7.95451 10.9197 8.19327 10.729C8.54331 10.4882 8.95412 10.3438 9.38204 10.3112H9.43126C9.8592 10.3437 10.27 10.4881 10.62 10.729C10.8585 10.92 11.0381 11.1709 11.1392 11.4543C11.2815 12.0248 11.3866 12.6035 11.454 13.1868C11.4799 13.5078 11.5321 13.8262 11.61 14.1391C11.7279 14.4637 11.8736 14.778 12.0457 15.079C11.8581 14.9418 11.6909 14.7803 11.5489 14.5988C11.5515 14.6071 11.6678 14.9682 11.6865 15.017C11.7297 15.0807 11.7661 15.1485 11.7952 15.2194C11.7707 15.2194 11.5171 15.3361 11.5171 15.3361L10.5349 15.641L10.5491 16.1021C10.7357 16.176 10.8994 16.2955 11.0241 16.449C11.0713 16.5513 11.1293 16.6486 11.197 16.7393C10.3025 17.0989 9.77885 17.6253 9.758 18.2142C9.75382 18.244 9.70726 18.4206 9.64197 18.6683C9.47707 19.2937 9.1927 20.3725 9.16959 20.6837Z" fill="white"/>
</svg>
