<svg width="32" height="33" viewBox="0 0 32 33" fill="none" xmlns="http://www.w3.org/2000/svg">
	<ellipse cx="15.7948" cy="16.866" rx="15.7091" ry="15.9412" fill="#00ACE3"/>
	<path d="M9.38729 18.2398H12.4423V21.34H9.38729V18.2398Z" fill="white"/>
	<path fill-rule="evenodd" clip-rule="evenodd" d="M8.35481 10.4053C7.17995 10.4053 6.22754 11.3718 6.22754 12.564V22.1775C6.22754 23.3698 7.17995 24.3362 8.35481 24.3362H23.2216C24.3964 24.3362 25.3488 23.3698 25.3488 22.1775V12.564C25.3488 11.3718 24.3964 10.4053 23.2216 10.4053H8.35481ZM8.79971 12.018C8.21228 12.018 7.73607 12.5013 7.73607 13.0974V14.3855H23.8403V13.0974C23.8403 12.5013 23.3641 12.018 22.7767 12.018H8.79971ZM23.8403 16.8732H7.73607V21.6441C7.73607 22.2402 8.21228 22.7235 8.79971 22.7235H22.7767C23.3641 22.7235 23.8403 22.2402 23.8403 21.6441V16.8732Z" fill="white"/>
</svg>