<svg width="32" height="32" viewBox="0 0 32 32" fill="none" xmlns="http://www.w3.org/2000/svg">
<ellipse cx="15.7091" cy="15.9412" rx="15.7091" ry="15.9412" fill="#00ACE3"/>
<path fill-rule="evenodd" clip-rule="evenodd" d="M15.614 14.7701L19.3905 10.9755L18.8928 8.97512L21.6268 6.22803L22.3559 9.15826L22.3355 9.17874L22.3455 9.18877L22.3659 9.16829L25.2822 9.90085L22.5482 12.6479L20.6741 12.1772L16.9186 15.9506C16.9829 16.1374 17.0178 16.338 17.0178 16.5468C17.0178 17.5539 16.2053 18.3704 15.2029 18.3704C14.2006 18.3704 13.388 17.5539 13.388 16.5468C13.388 15.5396 14.2006 14.7232 15.2029 14.7232C15.3443 14.7232 15.4819 14.7394 15.614 14.7701ZM17.4695 7.72413V9.35846C16.7544 9.13102 15.9929 9.00834 15.2029 9.00834C11.0594 9.00834 7.70043 12.3834 7.70043 16.5468C7.70043 20.7101 11.0594 24.0852 15.2029 24.0852C19.3465 24.0852 22.7055 20.7101 22.7055 16.5468C22.7055 15.6928 22.5641 14.872 22.3037 14.1067L23.6968 13.3542C24.0668 14.3477 24.2692 15.4235 24.2692 16.5468C24.2692 21.5779 20.2101 25.6564 15.2029 25.6564C10.1958 25.6564 6.13672 21.5779 6.13672 16.5468C6.13672 11.5157 10.1958 7.43714 15.2029 7.43714C15.9856 7.43714 16.7451 7.53678 17.4695 7.72413V7.72413ZM16.8899 10.9399L15.4606 12.3761C15.3754 12.3709 15.2895 12.3682 15.203 12.3682C12.906 12.3682 11.044 14.2392 11.044 16.5472C11.044 18.8551 12.906 20.7261 15.203 20.7261C17.5 20.7261 19.362 18.8551 19.362 16.5472C19.362 16.4958 19.3611 16.4446 19.3593 16.3937L20.8085 14.9376C20.9536 15.449 21.0314 15.989 21.0314 16.5472C21.0314 19.7815 18.4219 22.4034 15.203 22.4034C11.9841 22.4034 9.37463 19.7815 9.37463 16.5472C9.37463 13.3128 11.9841 10.6909 15.203 10.6909C15.7896 10.6909 16.3559 10.778 16.8899 10.9399Z" fill="white"/>
</svg>
