<svg width="32" height="32" viewBox="0 0 32 32" fill="none" xmlns="http://www.w3.org/2000/svg">
<ellipse cx="15.7091" cy="15.9412" rx="15.7091" ry="15.9412" fill="#00ACE3"/>
<path fill-rule="evenodd" clip-rule="evenodd" d="M22.7986 22.3793C22.7986 23.0162 22.2751 23.5344 21.6316 23.5344H9.78814C9.14465 23.5344 8.62109 23.0162 8.62109 22.3793V9.505C8.62109 8.86808 9.14465 8.34985 9.78814 8.34985H21.6316C22.2751 8.34985 22.7986 8.86808 22.7986 9.505V22.3793ZM11.2539 14.4237C10.9183 14.4237 10.6463 14.6956 10.6463 15.031V17.8344C10.6463 18.1699 10.9183 18.4418 11.2539 18.4418H19.1528C19.4884 18.4418 19.7604 18.1699 19.7604 17.8344V15.031C19.7604 14.6956 19.4884 14.4237 19.1528 14.4237H11.2539ZM14.4515 11.3867C14.0279 11.3867 13.6845 11.73 13.6845 12.1535C13.6845 12.5769 14.0279 12.9202 14.4515 12.9202H18.9936C19.4172 12.9202 19.7606 12.5769 19.7606 12.1535C19.7606 11.73 19.4172 11.3867 18.9936 11.3867H14.4515ZM11.659 13.2089C12.2183 13.2089 12.6716 12.7557 12.6716 12.1966C12.6716 11.6375 12.2183 11.1843 11.659 11.1843C11.0997 11.1843 10.6463 11.6375 10.6463 12.1966C10.6463 12.7557 11.0997 13.2089 11.659 13.2089Z" fill="white"/>
</svg>
