<svg width="32" height="33" viewBox="0 0 32 33" fill="none" xmlns="http://www.w3.org/2000/svg">
<ellipse cx="15.795" cy="16.867" rx="15.7091" ry="15.9412" fill="#00ACE3"/>
<path fill-rule="evenodd" clip-rule="evenodd" d="M18.4309 22.2113V19.3202H21.0608V11.5362H10.5412V19.3202H13.1711V22.2113H18.4309ZM9.66351 9.31226H21.9266C22.6523 9.31226 23.2405 9.9092 23.2405 10.6456V23.0899C23.2405 23.8263 22.6523 24.4232 21.9266 24.4232H9.66351C8.93786 24.4232 8.34961 23.8263 8.34961 23.0899V10.6456C8.34961 9.9092 8.93786 9.31226 9.66351 9.31226ZM13.7469 15.0614L14.9741 16.3513L18.0424 13.1933L18.919 14.5277L14.9741 18.5308L12.7826 16.3069L13.7469 15.0614Z" fill="white"/>
</svg>
