<svg width="32" height="33" viewBox="0 0 32 33" fill="none" xmlns="http://www.w3.org/2000/svg">
	<ellipse cx="15.7948" cy="16.866" rx="15.7091" ry="15.9412" fill="#00ACE3"/>
	<path fill-rule="evenodd" clip-rule="evenodd" d="M22.8482 17.0635L15.6015 9.70978C15.3597 9.41563 14.9738 9.26855 14.587 9.26855H9.75621C8.93462 9.26855 8.30688 9.90556 8.30688 10.7393V15.6415C8.30688 16.034 8.45182 16.4256 8.74168 16.671L15.9883 24.0247C16.2782 24.3189 16.665 24.4659 17.0029 24.4659C17.3407 24.4659 17.7275 24.3189 18.0174 24.0247L22.8482 19.1226C23.4279 18.583 23.4279 17.6031 22.8482 17.0635ZM11.9202 14.1808C11.245 14.1808 10.6928 13.6205 10.6928 12.9353C10.6928 12.2501 11.245 11.6898 11.9202 11.6898C12.5955 11.6898 13.1476 12.2501 13.1476 12.9353C13.1476 13.6205 12.5955 14.1808 11.9202 14.1808Z" fill="white"/>
</svg>