<svg width="32" height="33" viewBox="0 0 32 33" fill="none" xmlns="http://www.w3.org/2000/svg">
	<ellipse cx="15.7948" cy="16.867" rx="15.7091" ry="15.9412" fill="#00ACE3"/>
	<path fill-rule="evenodd" clip-rule="evenodd" d="M15.0378 8.28969V5.91016L11.1635 9.84172L15.0378 13.7733V11.4854C15.161 11.4754 15.2856 11.4703 15.4113 11.4703C17.9662 11.4703 20.0373 13.572 20.0373 16.1646C20.0373 18.7572 17.9662 20.8589 15.4113 20.8589C15.3831 20.8589 15.3549 20.8587 15.3268 20.8581V20.8649H7.08008V24.0495H15.4794V24.0489C19.739 24.0118 23.1808 20.4962 23.1808 16.1649C23.1808 11.8106 19.7023 8.28073 15.4114 8.28073C15.2861 8.28073 15.1616 8.28374 15.0378 8.28969ZM9.36578 11.2124C8.28765 12.566 7.64199 14.289 7.64199 16.1649C7.64199 17.0578 7.78823 17.9159 8.05773 18.7161H11.5277C11.0581 17.9815 10.7854 17.1054 10.7854 16.1646C10.7854 15.1011 11.1339 14.1201 11.7214 13.333L9.36578 11.2124ZM20.9451 24.0311H24.5521V26.384L28.4264 22.4525L24.6295 18.5995C24.6051 18.695 24.5793 18.7899 24.5521 18.8842V20.8187H23.7596C23.069 22.0919 22.1039 23.1901 20.9451 24.0311Z" fill="white"/>
</svg>