<svg width="32" height="32" viewBox="0 0 32 32" fill="none" xmlns="http://www.w3.org/2000/svg">
<ellipse cx="15.7091" cy="15.9412" rx="15.7091" ry="15.9412" fill="#00ACE3"/>
<path fill-rule="evenodd" clip-rule="evenodd" d="M18.6911 7.4978C18.4248 7.22467 17.9862 7.2232 17.718 7.49454L8.68025 16.6393L11.3007 19.3265L20.3562 10.1639C20.6174 9.89951 20.6189 9.47462 20.3594 9.20853L18.6911 7.4978ZM7.27738 20.7492C7.21012 20.6792 7.18357 20.5787 7.20835 20.4835L7.99777 17.5118L10.4687 20.0184L7.53934 20.8193C7.44553 20.8462 7.34641 20.8193 7.27738 20.7492ZM8.8754 23.2258L8.13427 22.4115C8.22926 22.419 8.32527 22.4229 8.42216 22.4229C9.97945 22.4229 11.3091 21.4337 11.8341 20.0407L12.0947 19.8531C12.6646 19.4428 13.4365 19.4788 13.967 19.9402L15.5797 21.3429L17.1836 20.1029C17.9556 19.506 19.0539 19.6319 19.6752 20.3885L20.2592 21.0996L22.6569 19.8483C23.1912 19.5695 23.8471 19.783 24.1219 20.3251C24.3966 20.8673 24.1863 21.5329 23.652 21.8117L20.9959 23.1979C20.2408 23.592 19.3174 23.4015 18.7738 22.7396L18.226 22.0726L16.4786 23.4236C15.9073 23.8653 15.1097 23.842 14.5644 23.3677L12.938 21.953L10.8754 23.4377C10.251 23.8872 9.39481 23.7965 8.8754 23.2258Z" fill="white"/>
</svg>
