<svg width="165" height="155" viewBox="0 0 165 155" fill="none" xmlns="http://www.w3.org/2000/svg">
<g clip-path="url(#clip0_18422_138415)">
<g clip-path="url(#clip1_18422_138415)">
<path opacity="0.6" fill-rule="evenodd" clip-rule="evenodd" d="M113.47 156.286H-13.8991C-14.9714 156.286 -16.0346 156.246 -17.0871 156.166C-45.4115 155.508 -68.1724 131.868 -68.1738 102.802C-68.1656 88.6355 -62.644 75.0525 -52.8237 65.0411C-47.79 59.9094 -41.8381 55.9316 -35.3626 53.2743C-35.471 51.8327 -35.5261 50.3759 -35.5261 48.9061C-35.5172 33.9582 -29.6909 19.6263 -19.3289 9.06301C-8.96697 -1.50025 5.08186 -7.42951 19.727 -7.4204C38.487 -7.39705 59.1342 2.17807 69.0882 16.7927C73.8151 15.0833 78.9035 14.1542 84.2046 14.1571C107.622 14.1858 126.856 32.4061 129.086 55.7068C151.524 60.6996 164.231 81.1025 164.211 105.497C164.188 133.609 143.89 156.382 116.348 156.371C115.382 156.37 114.423 156.342 113.47 156.286Z" fill="#E2F1B3"/>
<path opacity="0.3" fill-rule="evenodd" clip-rule="evenodd" d="M10.738 40.9772C10.738 38.8939 12.5878 37.2046 14.8698 37.2046C16.5288 37.2046 17.949 38.1033 18.6073 39.3925C19.1342 39.2158 19.6952 39.1041 20.289 39.1041C22.9185 39.1041 25.0462 41 25.1675 43.3729C25.2686 43.3657 25.3672 43.3453 25.4708 43.3453C27.6062 43.3453 29.3359 44.9288 29.3359 46.8824C29.3359 48.8372 27.6062 50.4207 25.4708 50.4207C25.1284 50.4207 23.976 50.4207 23.6993 50.4207H13.2651C13.0503 50.4207 12.0634 50.4207 11.7602 50.4207C8.90588 50.4207 6.59235 48.3133 6.59235 45.7122C6.59235 43.427 8.38025 41.5251 10.7519 41.0973C10.7506 41.0565 10.738 41.018 10.738 40.9772Z" fill="white"/>
<path opacity="0.3" fill-rule="evenodd" clip-rule="evenodd" d="M143.191 73.3261C143.191 71.7489 141.786 70.47 140.054 70.47C138.794 70.47 137.716 71.1504 137.216 72.1264C136.816 71.9926 136.39 71.9081 135.939 71.9081C133.943 71.9081 132.327 73.3434 132.235 75.1399C132.158 75.1344 132.084 75.119 132.005 75.119C130.384 75.119 129.07 76.3178 129.07 77.7968C129.07 79.2768 130.384 80.4756 132.005 80.4756C132.265 80.4756 133.14 80.4756 133.35 80.4756H141.272C141.435 80.4756 142.184 80.4756 142.414 80.4756C144.582 80.4756 146.338 78.8802 146.338 76.9109C146.338 75.1808 144.981 73.7409 143.18 73.4171C143.181 73.3862 143.191 73.3571 143.191 73.3261Z" fill="white"/>
</g>
<g opacity="0.8" filter="url(#filter0_d_18422_138415)">
<path fill-rule="evenodd" clip-rule="evenodd" d="M106.504 122.904H41.3929C40.8357 122.904 40.2834 122.884 39.7366 122.846C25.0212 122.528 14.1453 111.116 14.1445 97.0849C14.1488 90.2462 17.2593 84.1275 21.7837 78.7749C23.9464 76.2163 25.5127 74.5298 28.6754 72.9912C28.6191 72.2953 28.5905 71.5921 28.5905 70.8825C28.5951 63.6666 31.622 56.7481 37.0054 51.6488C42.3887 46.5495 49.6875 43.6873 57.2961 43.6917C67.0424 43.7029 75.5433 48.7044 80.7146 55.7594C84.1194 54.9342 88.3295 54.6705 91.0836 54.6718C103.25 54.6857 113.242 63.4813 114.401 74.7294C126.058 77.1396 133.937 86.6097 133.926 98.3856C133.914 111.956 122.308 122.95 107.999 122.944C107.497 122.944 106.999 122.93 106.504 122.904Z" fill="url(#paint0_linear_18422_138415)" shape-rendering="crispEdges"/>
</g>
<g filter="url(#filter1_d_18422_138415)">
<g opacity="0.7">
<path d="M36.7246 51.592C36.7246 48.8306 38.9632 46.592 41.7246 46.592H76.4051C79.1666 46.592 81.4051 48.8306 81.4051 51.592V100.548C81.4051 103.31 79.1666 105.548 76.4051 105.548H41.7246C38.9632 105.548 36.7246 103.31 36.7246 100.548V51.592Z" fill="white"/>
<rect opacity="0.12" x="41.1699" y="51.8872" width="35.5302" height="26.6811" rx="3" fill="#A8ADB4"/>
<rect opacity="0.5" x="41.1699" y="85.2297" width="16.9192" height="2.49827" rx="1.24913" fill="#BDC1C6"/>
<rect x="41.1699" y="91.3928" width="24.7043" height="2.49827" rx="1.24913" fill="#525C69" fill-opacity="0.1"/>
<rect x="41.1699" y="96.7224" width="20.4746" height="2.49827" rx="1.24913" fill="#525C69" fill-opacity="0.1"/>
<path opacity="0.5" fill-rule="evenodd" clip-rule="evenodd" d="M59.0351 63.8177L64.1762 63.8177L58.5675 69.3825L55.0059 65.8435L53.0635 67.7685L48.1094 72.6741L50.0522 74.5995L55.0065 69.694L58.491 73.1565L60.4334 71.2316L66.042 65.6667V70.7617H68.6803V61.2031H59.0352L59.0351 63.8177Z" fill="#A8ADB4"/>
</g>
<g opacity="0.7">
<path d="M65.2441 51.592C65.2441 48.8306 67.4827 46.592 70.2441 46.592H103.974C106.735 46.592 108.974 48.8306 108.974 51.592V100.548C108.974 103.31 106.735 105.548 103.974 105.548H70.2441C67.4827 105.548 65.2441 103.31 65.2441 100.548V51.592Z" fill="white"/>
<rect opacity="0.12" x="69.4746" y="51.8872" width="35.5302" height="26.6811" rx="3" fill="#A8ADB4"/>
<rect opacity="0.5" x="69.4746" y="85.2297" width="16.9191" height="2.49827" rx="1.24913" fill="#BDC1C6"/>
<rect x="69.4746" y="91.3928" width="24.7043" height="2.49827" rx="1.24913" fill="#525C69" fill-opacity="0.1"/>
<rect x="69.4746" y="96.7224" width="20.4746" height="2.49827" rx="1.24913" fill="#525C69" fill-opacity="0.1"/>
<path opacity="0.5" fill-rule="evenodd" clip-rule="evenodd" d="M87.3398 63.8177L92.4809 63.8177L86.8722 69.3825L83.3106 65.8435L81.3682 67.7685L76.4141 72.6741L78.3569 74.5995L83.3112 69.694L86.7957 73.1565L88.738 71.2316L94.3467 65.6667V70.7617H96.985V61.2031H87.3399L87.3398 63.8177Z" fill="#A8ADB4"/>
</g>
<path d="M47.3223 46.7593C47.3223 43.9979 49.5608 41.7593 52.3223 41.7593H93.3768C96.1382 41.7593 98.3768 43.9979 98.3768 46.7593V104.414C98.3768 107.175 96.1382 109.414 93.3768 109.414H52.3223C49.5608 109.414 47.3223 107.175 47.3223 104.414V46.7593Z" fill="white"/>
<rect x="51.8574" y="47.8066" width="41.2364" height="30.679" rx="3" fill="#E5F9FF"/>
<rect opacity="0.5" x="52.2305" y="86.2178" width="19.6364" height="2.89949" rx="1.40398" fill="#BDC1C6"/>
<rect x="66" y="53.8323" width="19.2006" height="3.71257" rx="1.85629" fill="#2FC6F6"/>
<rect x="57.5137" y="61.9607" width="23.5714" height="3.71257" rx="1.85629" fill="#2FC6F6"/>
<rect x="57.5137" y="52.9043" width="5.65714" height="5.56886" rx="2.78443" fill="#2FC6F6"/>
<rect x="52.2305" y="93.3708" width="39.2727" height="2.89949" rx="1.40398" fill="#525C69" fill-opacity="0.1"/>
<rect x="52.2305" y="99.5562" width="29.4545" height="2.89949" rx="1.40398" fill="#525C69" fill-opacity="0.1"/>
</g>
<g filter="url(#filter2_d_18422_138415)">
<ellipse cx="87.3653" cy="81.2318" rx="15.7091" ry="15.4639" fill="#9DCF00"/>
</g>
<path fill-rule="evenodd" clip-rule="evenodd" d="M87.9872 84.5495V86.0967H86.7424V84.5495C86.5183 84.3698 86.3749 84.0952 86.3749 83.7874C86.3749 83.2459 86.8181 82.8069 87.3648 82.8069C87.9115 82.8069 88.3547 83.2459 88.3547 83.7874C88.3547 84.0952 88.2113 84.3698 87.9872 84.5495ZM84.6547 78.2641C84.6547 76.7816 85.8681 75.5798 87.3649 75.5798C88.8617 75.5798 90.0751 76.7816 90.0751 78.2641V80.5332H84.6547V78.2641ZM91.5073 80.5328V78.2637C91.5073 75.9978 89.6526 74.1609 87.3648 74.1609C85.0771 74.1609 83.2224 75.9978 83.2224 78.2637V80.5328H82.4648C82.1887 80.5328 81.9648 80.7567 81.9648 81.0328V87.8031C81.9648 88.0792 82.1887 88.3031 82.4648 88.3031H92.2648C92.541 88.3031 92.7648 88.0792 92.7648 87.8031V81.0328C92.7648 80.7567 92.541 80.5328 92.2648 80.5328H91.5073Z" fill="white"/>
</g>
<defs>
<filter id="filter0_d_18422_138415" x="10.1445" y="41.6917" width="127.781" height="87.2527" filterUnits="userSpaceOnUse" color-interpolation-filters="sRGB">
<feFlood flood-opacity="0" result="BackgroundImageFix"/>
<feColorMatrix in="SourceAlpha" type="matrix" values="0 0 0 0 0 0 0 0 0 0 0 0 0 0 0 0 0 0 127 0" result="hardAlpha"/>
<feOffset dy="2"/>
<feGaussianBlur stdDeviation="2"/>
<feComposite in2="hardAlpha" operator="out"/>
<feColorMatrix type="matrix" values="0 0 0 0 0.025382 0 0 0 0 0.275095 0 0 0 0 0.358333 0 0 0 0.06 0"/>
<feBlend mode="normal" in2="BackgroundImageFix" result="effect1_dropShadow_18422_138415"/>
<feBlend mode="normal" in="SourceGraphic" in2="effect1_dropShadow_18422_138415" result="shape"/>
</filter>
<filter id="filter1_d_18422_138415" x="29.6502" y="37.043" width="86.3988" height="81.8036" filterUnits="userSpaceOnUse" color-interpolation-filters="sRGB">
<feFlood flood-opacity="0" result="BackgroundImageFix"/>
<feColorMatrix in="SourceAlpha" type="matrix" values="0 0 0 0 0 0 0 0 0 0 0 0 0 0 0 0 0 0 127 0" result="hardAlpha"/>
<feOffset dy="2.35813"/>
<feGaussianBlur stdDeviation="3.5372"/>
<feComposite in2="hardAlpha" operator="out"/>
<feColorMatrix type="matrix" values="0 0 0 0 0.423529 0 0 0 0 0.423529 0 0 0 0 0.423529 0 0 0 0.12 0"/>
<feBlend mode="normal" in2="BackgroundImageFix" result="effect1_dropShadow_18422_138415"/>
<feBlend mode="normal" in="SourceGraphic" in2="effect1_dropShadow_18422_138415" result="shape"/>
</filter>
<filter id="filter2_d_18422_138415" x="69.6562" y="65.7678" width="35.418" height="34.928" filterUnits="userSpaceOnUse" color-interpolation-filters="sRGB">
<feFlood flood-opacity="0" result="BackgroundImageFix"/>
<feColorMatrix in="SourceAlpha" type="matrix" values="0 0 0 0 0 0 0 0 0 0 0 0 0 0 0 0 0 0 127 0" result="hardAlpha"/>
<feOffset dy="2"/>
<feGaussianBlur stdDeviation="1"/>
<feComposite in2="hardAlpha" operator="out"/>
<feColorMatrix type="matrix" values="0 0 0 0 0 0 0 0 0 0 0 0 0 0 0 0 0 0 0.05 0"/>
<feBlend mode="normal" in2="BackgroundImageFix" result="effect1_dropShadow_18422_138415"/>
<feBlend mode="normal" in="SourceGraphic" in2="effect1_dropShadow_18422_138415" result="shape"/>
</filter>
<linearGradient id="paint0_linear_18422_138415" x1="73.561" y1="58.6757" x2="73.5609" y2="122.944" gradientUnits="userSpaceOnUse">
<stop stop-color="white" stop-opacity="0.4"/>
<stop offset="1" stop-color="white" stop-opacity="0.8"/>
</linearGradient>
<clipPath id="clip0_18422_138415">
<path d="M0 16C0 7.16345 7.16344 0 16 0H149C157.837 0 165 7.16344 165 16V139C165 147.837 157.837 155 149 155H16C7.16345 155 0 147.837 0 139V16Z" fill="white"/>
</clipPath>
<clipPath id="clip1_18422_138415">
<rect width="233.829" height="165.21" fill="white" transform="translate(-68.8281 -8.35327)"/>
</clipPath>
</defs>
</svg>
