<svg width="32" height="32" viewBox="0 0 32 32" fill="none" xmlns="http://www.w3.org/2000/svg">
<ellipse cx="15.7091" cy="15.9412" rx="15.7091" ry="15.9412" fill="#00ACE3"/>
<path fill-rule="evenodd" clip-rule="evenodd" d="M18.345 21.2856V18.3944H20.9749V10.6105H10.4552V18.3944H13.0851V21.2856H18.345ZM9.57758 8.38647H21.8407C22.5663 8.38647 23.1546 8.98342 23.1546 9.71979V22.1641C23.1546 22.9005 22.5663 23.4974 21.8407 23.4974H9.57758C8.85193 23.4974 8.26367 22.9005 8.26367 22.1641V9.71979C8.26367 8.98342 8.85193 8.38647 9.57758 8.38647ZM13.6609 14.1357L14.8882 15.4256L17.9564 12.2675L18.8331 13.6019L14.8882 17.6051L12.6966 15.3811L13.6609 14.1357Z" fill="white"/>
</svg>
