<svg width="32" height="32" viewBox="0 0 32 32" fill="none" xmlns="http://www.w3.org/2000/svg">
<ellipse cx="15.7091" cy="15.9412" rx="15.7091" ry="15.9412" fill="#00ACE3"/>
<path fill-rule="evenodd" clip-rule="evenodd" d="M7.63837 11.4621C7.39218 11.5854 7.23633 11.8399 7.23633 12.1185V13.573C7.23633 13.7752 7.39784 13.9391 7.59707 13.9391H8.65992V22.2947C8.65992 22.699 8.98294 23.0269 9.38141 23.0269H11.4527V14.7721C11.4527 14.3678 11.7757 14.04 12.1741 14.04H19.3146C19.7131 14.04 20.0361 14.3678 20.0361 14.7721V23.0269H22.1074C22.5058 23.0269 22.8289 22.699 22.8289 22.2947V13.9391H23.8921C24.0914 13.9391 24.2529 13.7752 24.2529 13.573V12.1185C24.2529 11.8399 24.097 11.5854 23.8508 11.4621L16.064 7.56005C15.8627 7.45915 15.6265 7.45915 15.4251 7.56005L7.63837 11.4621ZM14.2373 16.0468C14.2373 15.8446 14.3989 15.6807 14.5981 15.6807H16.8904C17.0897 15.6807 17.2512 15.8446 17.2512 16.0468V18.373C17.2512 18.5752 17.0897 18.7391 16.8904 18.7391H14.5981C14.3989 18.7391 14.2373 18.5752 14.2373 18.373V16.0468ZM12.3246 20.2179C12.3246 20.0157 12.4861 19.8518 12.6854 19.8518H14.9777C15.1769 19.8518 15.3385 20.0157 15.3385 20.2179V22.5442C15.3385 22.7463 15.1769 22.9102 14.9777 22.9102H12.6854C12.4861 22.9102 12.3246 22.7463 12.3246 22.5442V20.2179ZM16.1505 20.2179C16.1505 20.0157 16.312 19.8518 16.5112 19.8518H18.8036C19.0028 19.8518 19.1643 20.0157 19.1643 20.2179V22.5442C19.1643 22.7463 19.0028 22.9102 18.8036 22.9102H16.5112C16.312 22.9102 16.1505 22.7463 16.1505 22.5442V20.2179Z" fill="white"/>
</svg>
