<svg width="32" height="32" viewBox="0 0 32 32" fill="none" xmlns="http://www.w3.org/2000/svg">
<ellipse cx="15.7091" cy="15.9412" rx="15.7091" ry="15.9412" fill="#00ACE3"/>
<path fill-rule="evenodd" clip-rule="evenodd" d="M13.4333 20.8945C14.5009 20.8945 15.366 21.7723 15.366 22.8558C15.366 23.9382 14.501 24.8161 13.4333 24.8161C12.3666 24.8161 11.5015 23.9383 11.5015 22.8558C11.5015 21.7724 12.3666 20.8945 13.4333 20.8945ZM20.2476 20.8945C21.3152 20.8945 22.1803 21.7723 22.1803 22.8558C22.1803 23.9382 21.3152 24.8161 20.2476 24.8161C19.1809 24.8161 18.3158 23.9383 18.3158 22.8558C18.3158 21.7724 19.1809 20.8945 20.2476 20.8945ZM8.63183 7.42651C8.9583 7.42838 9.24366 7.63968 9.34876 7.94746L9.36975 8.02015L9.92891 10.4713L23.9343 10.4449C24.1677 10.4459 24.3872 10.5558 24.5302 10.7412C24.6563 10.9044 24.7115 11.11 24.6875 11.3128L24.6723 11.3994L23.248 19.4241C23.1724 19.746 22.9041 19.9802 22.5855 20.0136L22.5111 20.0177H11.2251C10.8996 20.0158 10.6134 19.8045 10.509 19.4967L10.4882 19.4241L8.02213 8.97458H5.66317C5.36014 8.97458 5.11038 8.7431 5.07624 8.44487L5.07227 8.37494V8.02615C5.07227 7.71864 5.30038 7.46519 5.59426 7.43055L5.66317 7.42651H8.63183ZM20.6099 15.9007H12.9915C12.6652 15.9007 12.4006 16.1692 12.4006 16.5004V16.6216C12.4006 16.9527 12.6652 17.2212 12.9915 17.2212H20.6099C20.9363 17.2212 21.2008 16.9527 21.2008 16.6216V16.5004C21.2008 16.1692 20.9363 15.9007 20.6099 15.9007ZM20.6099 12.9784H12.9915C12.6652 12.9784 12.4006 13.2469 12.4006 13.5781V13.6992C12.4006 14.0304 12.6652 14.2989 12.9915 14.2989H20.6099C20.9363 14.2989 21.2008 14.0304 21.2008 13.6992V13.5781C21.2008 13.2469 20.9363 12.9784 20.6099 12.9784Z" fill="white"/>
</svg>
