<svg width="28" height="29" viewBox="0 0 28 29" fill="none" xmlns="http://www.w3.org/2000/svg">
	<circle cx="14" cy="14.6436" r="14" fill="#525C69" fill-opacity="0.3"/>
	<path fill-rule="evenodd" clip-rule="evenodd" d="M16.604 10.7045C14.9359 10.3026 13.2675 10.1016 11.5987 10.1016C9.92316 10.1016 8.21395 10.3042 6.47104 10.7094C6.09672 10.7964 5.83105 11.1375 5.83105 11.5311V18.261C5.83105 18.6417 6.08018 18.9752 6.43877 19.0744C8.10415 19.5349 9.77009 19.7652 11.4366 19.7652C13.1123 19.7652 14.8399 19.5324 16.6193 19.0667C16.9832 18.9715 17.2378 18.6354 17.2378 18.2504V11.5247C17.2378 11.1336 16.9753 10.794 16.604 10.7045ZM22.3701 10.993C22.3701 10.9624 22.3646 10.932 22.354 10.9034C22.3057 10.7728 22.1634 10.7072 22.0361 10.7567L18.3161 12.2038C18.2203 12.241 18.157 12.3351 18.157 12.4401V17.0079C18.157 17.1129 18.2203 17.207 18.3161 17.2442L22.0361 18.6913C22.064 18.7022 22.0937 18.7078 22.1236 18.7078C22.2597 18.7078 22.3701 18.5946 22.3701 18.455V10.993ZM11.47 15.6972C11.9157 15.6972 12.2769 15.3359 12.2769 14.8902C12.2769 14.4446 11.9157 14.0833 11.47 14.0833C11.0244 14.0833 10.6631 14.4446 10.6631 14.8902C10.6631 15.3359 11.0244 15.6972 11.47 15.6972ZM8.86644 15.6972C9.31208 15.6972 9.67334 15.3359 9.67334 14.8903C9.67334 14.4446 9.31208 14.0834 8.86644 14.0834C8.4208 14.0834 8.05954 14.4446 8.05954 14.8903C8.05954 15.3359 8.4208 15.6972 8.86644 15.6972ZM14.8819 14.8902C14.8819 15.3359 14.5207 15.6972 14.075 15.6972C13.6294 15.6972 13.2681 15.3359 13.2681 14.8902C13.2681 14.4446 13.6294 14.0833 14.075 14.0833C14.5207 14.0833 14.8819 14.4446 14.8819 14.8902Z" fill="#F8FAFB"/>
</svg>
