<svg width="28" height="28" viewBox="0 0 28 28" fill="none" xmlns="http://www.w3.org/2000/svg">
	<circle cx="14" cy="14" r="14" fill="#525C69" fill-opacity="0.3"/>
	<path fill-rule="evenodd" clip-rule="evenodd" d="M7.38269 8.3689H16.3113C16.7883 8.3689 17.1749 8.75556 17.1749 9.23254V15.2003C17.1749 15.6772 16.7883 16.0639 16.3113 16.0639H11.847L9.48449 18.4261C9.264 18.6466 8.88702 18.4904 8.88702 18.1786V16.0639H7.38269C6.90571 16.0639 6.51904 15.6772 6.51904 15.2003V9.23254C6.51904 8.75556 6.90571 8.3689 7.38269 8.3689ZM20.4553 11.9204C20.9322 11.9204 21.3189 12.3071 21.3189 12.7841V18.1599C21.3189 18.6369 20.9322 19.0235 20.4553 19.0235H18.9509V20.5463C18.9509 20.8581 18.574 21.0143 18.3535 20.7938L16.583 19.0235H12.7106C12.2337 19.0235 11.847 18.6369 11.847 18.1599V17.2478H17.0664C17.7819 17.2478 18.3619 16.6678 18.3619 15.9523V11.9204H20.4553Z" fill="#F8FAFB"/>
</svg>