<svg width="28" height="28" viewBox="0 0 28 28" fill="none" xmlns="http://www.w3.org/2000/svg">
	<circle cx="14" cy="14" r="14" fill="#525C69" fill-opacity="0.3"/>
	<path fill-rule="evenodd" clip-rule="evenodd" d="M6.98672 9.16582C8.51741 7.46021 18.5446 7.56483 19.9155 9.16582C21.2865 10.7668 21.532 17.337 19.9155 18.8352C19.6084 19.1199 19.0042 19.3371 18.2169 19.4946C18.1996 20.4616 18.1295 22.4224 17.845 22.4224C17.5858 22.4224 15.75 20.822 14.6252 19.8194C11.4104 19.8786 7.82655 19.4814 6.98672 18.8352C5.51929 17.7061 5.45604 10.8714 6.98672 9.16582ZM7.89792 16.6499C8.42291 16.7402 9.1491 16.8161 9.98782 16.8741C10.0405 16.6481 10.107 16.3877 10.1547 16.201C10.1894 16.0653 10.2141 15.9686 10.2164 15.9522C10.2274 15.6296 10.6638 15.3412 11.1389 15.1441C11.1029 15.0944 11.0721 15.0411 11.0471 14.9851C10.9808 14.901 10.8939 14.8355 10.7948 14.795L10.7873 14.5424L11.3089 14.3753C11.3089 14.3753 11.4436 14.3114 11.4566 14.3114C11.4411 14.2725 11.4218 14.2354 11.3988 14.2005C11.3908 14.1789 11.3492 14.0462 11.3325 13.993L11.3256 13.9711C11.4011 14.0706 11.4899 14.1592 11.5897 14.2344C11.4983 14.0695 11.4208 13.8973 11.3582 13.7195C11.3168 13.548 11.2891 13.3735 11.2754 13.1977C11.2396 12.8781 11.1838 12.561 11.1082 12.2484C11.0545 12.0931 10.9591 11.9556 10.8325 11.851C10.6466 11.719 10.4284 11.6399 10.2011 11.6221H10.175C9.94773 11.6399 9.72955 11.719 9.54365 11.851C9.41685 11.9555 9.32139 12.093 9.26778 12.2484C9.19238 12.5611 9.1366 12.8781 9.10075 13.1977C9.08468 13.3697 9.0556 13.5402 9.01376 13.7078C8.95121 13.8888 8.87518 14.0649 8.78634 14.2346C8.88666 14.1597 8.97612 14.0714 9.05216 13.972C9.05216 13.972 9.00299 14.1563 8.99309 14.1832C8.96613 14.2243 8.94214 14.2673 8.92132 14.3118C8.93446 14.3118 9.069 14.3757 9.069 14.3757L9.59061 14.5424L9.58308 14.795C9.48392 14.8353 9.39698 14.9008 9.33084 14.9849C9.29949 15.0658 9.24956 15.1381 9.18508 15.1961C9.05927 15.2408 8.9381 15.2975 8.82326 15.3655C8.64941 15.4643 8.458 15.5284 8.2597 15.5541C8.06003 15.5876 7.93406 15.9171 7.93406 15.9171C7.93376 15.9224 7.91534 16.293 7.89792 16.6499ZM10.537 16.9083C12.3465 17.0115 14.5497 17.0368 16.3827 16.9565C16.2754 16.5051 16.1794 16.1354 16.1794 16.1354C16.1794 16.1354 15.8249 15.5419 15.1264 15.3577C14.8891 15.29 14.664 15.1853 14.4593 15.0477C14.4264 14.9624 14.4134 14.8707 14.4213 14.7796L14.1974 14.7446C14.1974 14.7249 14.1782 14.4348 14.1782 14.4348C14.4473 14.3424 14.4196 13.7978 14.4196 13.7978C14.5905 13.8945 14.7018 13.464 14.7018 13.464C14.9039 12.8655 14.6012 12.9015 14.6012 12.9015C14.6541 12.5359 14.6541 12.1645 14.6012 11.7989C14.4666 10.5863 12.4398 10.9151 12.6802 11.3115C12.0879 11.1996 12.2231 12.5763 12.2231 12.5763L12.3516 12.9323C12.1736 13.05 12.2085 13.1853 12.2474 13.3365C12.2637 13.3997 12.2807 13.4656 12.2832 13.5341C12.2956 13.8778 12.501 13.8064 12.501 13.8064C12.5138 14.3732 12.7872 14.4477 12.7872 14.4477C12.8387 14.8037 12.8067 14.7422 12.8067 14.7422L12.5632 14.7724C12.5665 14.8533 12.5601 14.9343 12.5441 15.0136C12.4026 15.0782 12.316 15.1293 12.2305 15.1798C12.1425 15.2318 12.0557 15.2832 11.9113 15.3477C11.3614 15.5932 10.7637 15.9138 10.6576 16.3446C10.6292 16.4601 10.5856 16.6672 10.537 16.9083ZM16.9343 16.9282C17.7435 16.8809 18.4567 16.8104 18.998 16.7138C18.9797 16.3373 18.9586 15.9128 18.9582 15.907C18.9582 15.907 18.833 15.5797 18.6346 15.5464C18.4376 15.5208 18.2475 15.4572 18.0748 15.359C17.9607 15.2915 17.8403 15.2351 17.7153 15.1908C17.6513 15.1331 17.6017 15.0613 17.5705 14.9809C17.5048 14.8973 17.4184 14.8323 17.3199 14.7923L17.3126 14.5412L17.8308 14.3757C17.8308 14.3757 17.9645 14.3122 17.9775 14.3122C17.9568 14.268 17.9329 14.2252 17.906 14.1844C17.8962 14.1577 17.8473 13.9746 17.8473 13.9746C17.9229 14.0734 18.0118 14.1611 18.1115 14.2355C18.0232 14.0669 17.9476 13.8919 17.8855 13.7121C17.844 13.5456 17.815 13.3762 17.7991 13.2053C17.7635 12.8878 17.7081 12.5729 17.6332 12.2622C17.5799 12.1079 17.485 11.9713 17.3591 11.8674C17.1744 11.7364 16.9576 11.6578 16.7319 11.64H16.7059C16.4801 11.6577 16.2634 11.7363 16.0787 11.8674C15.9529 11.9714 15.8581 12.108 15.8047 12.2622C15.7297 12.5728 15.6742 12.8878 15.6387 13.2053C15.625 13.38 15.5975 13.5534 15.5563 13.7237C15.4942 13.9003 15.4173 14.0715 15.3264 14.2353C15.4256 14.1606 15.5365 13.9737 15.5365 13.9737C15.5365 13.9737 15.5263 14.1746 15.5163 14.2014C15.4935 14.2361 15.4742 14.273 15.4589 14.3116C15.4718 14.3116 15.6057 14.3751 15.6057 14.3751L16.1237 14.5412L16.1163 14.7923C16.0178 14.8324 15.8101 14.9849 15.7744 15.0343C16.2464 15.23 16.6799 15.6214 16.6911 15.9419C16.6932 15.9582 16.7181 16.0557 16.753 16.1921C16.8054 16.3972 16.8803 16.6904 16.9343 16.9282Z" fill="#F8FAFB"/>
</svg>