<svg width="28" height="28" viewBox="0 0 28 28" fill="none" xmlns="http://www.w3.org/2000/svg">
	<circle cx="14" cy="14" r="14" fill="#525C69" fill-opacity="0.3"/>
	<path fill-rule="evenodd" clip-rule="evenodd" d="M20.2669 10.9903L16.9655 10.9909C16.8704 10.9909 16.7786 10.936 16.7431 10.8487C16.5943 10.4769 16.6002 10.0579 16.7631 9.6887C17.0366 8.89276 17.0676 8.03281 16.853 7.21877C16.6286 6.65883 16.5691 5.63595 15.534 5.58875C15.21 5.63659 14.9275 5.83121 14.7645 6.11506C14.7354 6.16549 14.7231 6.22498 14.7231 6.28252C14.7231 6.28252 14.7707 7.27575 14.7231 7.96622C14.6756 8.65668 13.3543 10.4155 12.5144 11.5321C12.4614 11.6032 12.3871 11.6498 12.2991 11.6634C11.9842 11.7105 11.3836 11.7904 11.1671 11.819C11.1164 11.8256 11.0868 11.8893 11.0868 11.9192C11.0868 13.315 11.0868 15.4031 11.0868 18.1833C11.0868 18.2064 11.1146 18.2566 11.164 18.2647C11.3336 18.2927 11.7578 18.3703 12.186 18.508C12.7239 18.6807 13.172 19.0893 14.0688 19.3919C14.116 19.4081 14.1684 19.4165 14.2182 19.4165H18.4293C18.9731 19.3195 19.3779 18.8546 19.4057 18.2966C19.4134 17.9856 19.3514 17.6778 19.224 17.3953C19.2059 17.3545 19.2298 17.3119 19.2738 17.3035C19.8137 17.2052 20.4887 16.1804 19.6572 15.3547C19.6352 15.3333 19.6391 15.3042 19.6688 15.2965C20.1273 15.1795 20.4783 14.8135 20.5857 14.357C20.6271 14.1824 20.6122 14.002 20.5605 13.8307C20.4997 13.6264 20.4027 13.435 20.274 13.2643C20.2417 13.2216 20.2598 13.166 20.3115 13.1492C20.768 12.9947 21.0823 12.5582 21.079 12.0616C21.1314 11.5748 20.7402 10.9909 20.2669 10.9903ZM9.79427 11.2541H7.40775C7.2836 11.2541 7.1892 11.364 7.21054 11.4836L8.59681 19.2717C8.61814 19.3913 8.72354 19.4786 8.84703 19.4786H9.72961C9.86604 19.4786 9.97661 19.3706 9.97661 19.2374L9.996 11.4519C9.996 11.3427 9.90613 11.2541 9.79427 11.2541Z" fill="#F8FAFB"/>
</svg>