<svg width="28" height="29" viewBox="0 0 28 29" fill="none" xmlns="http://www.w3.org/2000/svg">
	<circle cx="14" cy="14.6436" r="14" fill="#525C69" fill-opacity="0.3"/>
	<path fill-rule="evenodd" clip-rule="evenodd" d="M19.4195 14.0417L17.0104 16.45C15.6807 17.7804 13.5237 17.7804 12.1938 16.45C11.9844 16.2411 11.8205 16.0057 11.6766 15.763L12.796 14.6437C12.8492 14.5901 12.9149 14.5593 12.9777 14.5231C13.0551 14.7875 13.1902 15.0378 13.3981 15.2458C14.0621 15.9103 15.1426 15.9094 15.8063 15.2458L18.2146 12.8375C18.8792 12.173 18.8792 11.0927 18.2146 10.4288C17.551 9.76479 16.4707 9.76479 15.8063 10.4288L14.9499 11.2861C14.2549 11.0155 13.5061 10.9427 12.7772 11.0496L14.6022 9.22468C15.9326 7.89451 18.0891 7.89451 19.4195 9.22468C20.7493 10.5548 20.7493 12.7116 19.4195 14.0417ZM13.0508 18.0018L12.1938 18.8591C11.5298 19.5227 10.4493 19.5227 9.78518 18.8591C9.12114 18.1945 9.12114 17.1143 9.78518 16.45L12.1938 14.0417C12.8583 13.3772 13.9382 13.3772 14.6022 14.0417C14.8096 14.2492 14.9448 14.4994 15.023 14.7635C15.0861 14.7268 15.151 14.697 15.2042 14.6437L16.3235 13.5249C16.1805 13.2812 16.0158 13.0467 15.8062 12.8375C14.4767 11.5074 12.3195 11.5074 10.9893 12.8375L8.58102 15.2459C7.25099 16.5765 7.25099 18.7326 8.58102 20.0631C9.9112 21.3928 12.0679 21.3928 13.3981 20.0631L15.2235 18.2378C14.4942 18.3452 13.7452 18.2719 13.0508 18.0018Z" fill="white"/>
</svg>