<svg width="18" height="18" viewBox="0 0 18 18" fill="none" xmlns="http://www.w3.org/2000/svg">
<path fill-rule="evenodd" clip-rule="evenodd" d="M9.51867 11.8085V13.1182H8.48128V11.8085C8.29458 11.6563 8.17506 11.4239 8.17506 11.1633C8.17506 10.7049 8.54441 10.3333 8.99999 10.3333C9.45554 10.3333 9.82489 10.7049 9.82489 11.1633C9.82489 11.4239 9.7054 11.6563 9.51867 11.8085ZM6.74158 6.48756C6.74158 5.23258 7.75273 4.21521 9.00003 4.21521C10.2474 4.21521 11.2585 5.23258 11.2585 6.48756V8.40846H6.74158V6.48756ZM12.452 8.40817V6.48727C12.452 4.56903 10.9065 3.01404 8.99998 3.01404C7.09352 3.01404 5.54799 4.56903 5.54799 6.48727V8.40817H5C4.72386 8.40817 4.5 8.63203 4.5 8.90817V14.486C4.5 14.7622 4.72386 14.986 5 14.986H13C13.2761 14.986 13.5 14.7622 13.5 14.486V8.90817C13.5 8.63203 13.2761 8.40817 13 8.40817H12.452Z" fill="#525C69" fill-opacity="0.6"/>
</svg>
