<svg xmlns="http://www.w3.org/2000/svg" width="327" height="327" viewBox="0 0 327 327" xmlns:xlink="http://www.w3.org/1999/xlink">
  <defs>
    <circle id="a" cx="163.5" cy="163.5" r="163.5"/>
    <path id="c" d="M88,14.0000768 C88,6.26804789 94.2665517,0 101.99868,0 L242.00132,0 C249.732577,0 256,6.27104988 256,14.0000768 L256,274.999923 C256,282.731952 249.733448,289 242.00132,289 L101.99868,289 C94.2674226,289 88,282.72895 88,274.999923 L88,14.0000768 Z"/>
    <path id="d" d="M0,3.00826887 C0,1.34684785 1.34680706,0 3.00323395,0 L139.996766,0 C141.655406,0 143,1.33895785 143,3.00826887 L143,224.991731 C143,226.653152 141.653193,228 139.996766,228 L3.00323395,228 C1.34459364,228 0,226.661042 0,224.991731 L0,3.00826887 Z"/>
    <path id="f" d="M143.767442,133 L189.002635,133 C193.412528,133 197,129.420299 197,125.004514 L197,7.9954863 C197,3.57461567 193.419458,0 189.002635,0 L7.99736547,0 C3.58747153,0 0,3.57970115 0,7.9954863 L0,125.004514 C0,129.425384 3.58054248,133 7.99736547,133 L102.093023,133 L146,165 L143.767442,133 Z"/>
    <path id="g" d="M160,133 L189.002635,133 C193.412528,133 197,129.420299 197,125.004514 L197,7.9954863 C197,3.57461567 193.419458,0 189.002635,0 L7.99736547,0 C3.58747153,0 0,3.57970115 0,7.9954863 L0,125.004514 C0,129.425384 3.58054248,133 7.99736547,133 L123.37037,133 L160,176 L160,133 Z"/>
  </defs>
  <g fill="none" fill-rule="evenodd">
    <mask id="b" fill="white">
      <use xlink:href="#a"/>
    </mask>
    <use fill="#E5F7FF" xlink:href="#a"/>
    <path fill="#C4DBE7" d="M141,41.0000768 C141,33.2680479 147.266552,27 154.99868,27 L295.00132,27 C302.732577,27 309,33.2710499 309,41.0000768 L309,301.999923 C309,309.731952 302.733448,316 295.00132,316 L154.99868,316 C147.267423,316 141,309.72895 141,301.999923 L141,41.0000768 Z" mask="url(#b)"/>
    <g transform="translate(44 17)">
      <use fill="#FFFFFF" xlink:href="#c"/>
      <path stroke="#89929E" stroke-width="3" d="M86.5,14.0000768 L86.5,274.999923 C86.5,283.558331 93.4399488,290.5 101.99868,290.5 L242.00132,290.5 C250.561623,290.5 257.5,283.560632 257.5,274.999923 L257.5,14.0000768 C257.5,5.44166917 250.560051,-1.5 242.00132,-1.5 L101.99868,-1.5 C93.4383774,-1.5 86.5,5.43936787 86.5,14.0000768 Z"/>
      <ellipse cx="148.5" cy="13.5" fill="#89929E" rx="2.5" ry="2.5"/>
      <rect width="30" height="5" x="157" y="11" fill="#89929E" rx="2.5"/>
      <ellipse cx="172.5" cy="269.5" fill="#89929E" rx="10.5" ry="10.5"/>
      <g transform="translate(101 23)">
        <mask id="e" fill="white">
          <use xlink:href="#d"/>
        </mask>
        <use fill="#FC6429" xlink:href="#d"/>
        <g transform="translate(-71 43)" mask="url(#e)">
          <use fill="#D35525" xlink:href="#f"/>
        </g>
      </g>
      <g transform="translate(16 56)">
        <mask id="h" fill="white">
          <use xlink:href="#g"/>
        </mask>
        <use fill="#FFCD2E" xlink:href="#g"/>
        <ellipse cx="10" cy="12.5" fill="#E8BB2A" mask="url(#h)" rx="31" ry="30.5"/>
      </g>
      <g transform="translate(0 43)">
        <path fill="#D39800" d="M71.2795276,97.247093 C62.7886931,97.247093 55.9055118,90.4825581 55.9055118,82.1380814 C55.9055118,73.7936047 62.7886931,67.0290698 71.2795276,67.0290698 C79.770362,67.0290698 86.6535433,73.7936047 86.6535433,82.1380814 C86.6535433,90.4825581 79.770362,97.247093 71.2795276,97.247093 Z M114.885827,97.247093 C106.394992,97.247093 99.511811,90.4825581 99.511811,82.1380814 C99.511811,73.7936047 106.394992,67.0290698 114.885827,67.0290698 C123.376661,67.0290698 130.259843,73.7936047 130.259843,82.1380814 C130.259843,90.4825581 123.376661,97.247093 114.885827,97.247093 Z M158.492126,97.247093 C150.001292,97.247093 143.11811,90.4825581 143.11811,82.1380814 C143.11811,73.7936047 150.001292,67.0290698 158.492126,67.0290698 C166.98296,67.0290698 173.866142,73.7936047 173.866142,82.1380814 C173.866142,90.4825581 166.98296,97.247093 158.492126,97.247093 Z"/>
        <ellipse cx="25.996" cy="25.548" fill="#D0011B" rx="25.996" ry="25.548"/>
        <path fill="#FFFFFF" d="M29.4189453,35 L24.1323242,35 L24.1323242,24.7958984 C24.1323242,23.5566344 24.1586911,22.4228567 24.2114258,21.3945312 C23.8862288,21.790041 23.481936,22.2031228 22.9985352,22.6337891 L20.8100586,24.4399414 L18.1074219,21.1176758 L24.7255859,15.7255859 L29.4189453,15.7255859 L29.4189453,35 Z"/>
      </g>
    </g>
  </g>
</svg>
