<svg width="16" height="11" viewBox="0 0 16 11" fill="none" xmlns="http://www.w3.org/2000/svg">
	<path d="M2.91057 0.92625C3.27768 0.349354 3.91409 0 4.59789 0H14C15.1046 0 16 0.895431 16 2V9C16 10.1046 15.1046 11 14 11H4.59789C3.91409 11 3.27768 10.6506 2.91057 10.0738L0.683297 6.57375C0.266394 5.91862 0.266393 5.08138 0.683296 4.42625L2.91057 0.92625Z" fill="#525C69"/>
	<path fill-rule="evenodd" clip-rule="evenodd" d="M11.6123 2.76344C11.3389 2.49007 10.8957 2.49007 10.6223 2.76344L8.97633 4.40944L7.33038 2.76349C7.05702 2.49012 6.6138 2.49012 6.34044 2.76349L6.20503 2.8989C5.93166 3.17226 5.93166 3.61548 6.20502 3.88885L7.85098 5.5348L6.2052 7.18057C5.93184 7.45394 5.93184 7.89715 6.2052 8.17052L6.34061 8.30593C6.61398 8.57929 7.05719 8.5793 7.33056 8.30593L8.97633 6.66016L10.6222 8.30598C10.8955 8.57935 11.3387 8.57935 11.6121 8.30598L11.7475 8.17057C12.0209 7.8972 12.0209 7.45399 11.7475 7.18062L10.1017 5.5348L11.7477 3.88879C12.0211 3.61543 12.0211 3.17221 11.7477 2.89885L11.6123 2.76344Z" fill="white"/>
</svg>
