<svg width="36" height="37" viewBox="0 0 36 37" fill="none" xmlns="http://www.w3.org/2000/svg">
	<circle cx="18" cy="18.5859" r="18" fill="#3BC8F5"/>
	<path fill-rule="evenodd" clip-rule="evenodd" d="M23.9738 11.5859H11.0262C10.4829 11.5859 10 12.0405 10 12.6162V16.1617C10 16.7071 10.4527 17.192 11.0262 17.192H23.9738C24.5171 17.192 25 16.7375 25 16.1617V12.6162C25 12.0405 24.5473 11.5859 23.9738 11.5859ZM23.5211 15.3435C23.5211 15.5253 23.3702 15.6768 23.1891 15.6768H11.841C11.66 15.6768 11.5091 15.5253 11.5091 15.3435V13.4041C11.5091 13.2223 11.66 13.0708 11.841 13.0708H23.1891C23.3702 13.0708 23.5211 13.2223 23.5211 13.4041V15.3435ZM23.9738 18.9799H11.0262C10.4829 18.9799 10 19.4344 10 20.0102V23.5556C10 24.1011 10.4527 24.5859 11.0262 24.5859H23.9738C24.5171 24.5859 25 24.1314 25 23.5556V20.0102C25 19.4344 24.5473 18.9799 23.9738 18.9799ZM23.5211 22.7375C23.5211 22.9193 23.3702 23.0708 23.1891 23.0708H11.841C11.66 23.0708 11.5091 22.9193 11.5091 22.7375V20.7981C11.5091 20.6162 11.66 20.4647 11.841 20.4647H23.1891C23.3702 20.4647 23.5211 20.6162 23.5211 20.7981V22.7375Z" fill="white"/>
</svg>
