<svg width="36" height="37" viewBox="0 0 36 37" fill="none" xmlns="http://www.w3.org/2000/svg">
	<circle cx="18" cy="18.5859" r="18" fill="#EBECEE"/>
	<path fill-rule="evenodd" clip-rule="evenodd" d="M17.9402 10.5817C17.9254 10.5863 17.9099 10.5955 17.8938 10.6038L10.938 13.4088C10.7637 13.4923 10.7005 13.6731 10.6953 13.886V22.9176C10.6972 23.1195 10.8012 23.3113 10.938 23.3655L17.8267 26.1408C17.9119 26.1794 18.0236 26.1739 18.1159 26.1482L25.0663 23.3507C25.2032 23.2938 25.3051 23.0983 25.3039 22.8955V13.9448C25.3077 13.6694 25.2406 13.5079 25.0611 13.4234L18.0694 10.6039C18.0216 10.5791 17.9841 10.5689 17.9402 10.5817ZM17.9816 11.5436L23.7548 13.8786L17.9816 16.1989L12.2032 13.8713L17.9816 11.5436Z" fill="#828B95"/>
</svg>
