<svg width="36" height="36" viewBox="0 0 36 36" fill="none" xmlns="http://www.w3.org/2000/svg">
	<circle cx="18" cy="18" r="18" fill="#EBECEE"/>
	<path fill-rule="evenodd" clip-rule="evenodd" d="M21.0779 18.6914C20.8239 19.8852 19.8851 20.824 18.6913 21.0779C16.4152 21.562 14.438 19.5842 14.9221 17.3086C15.1511 16.2325 16.2324 15.1512 17.3084 14.9222C19.5841 14.4378 21.5621 16.4152 21.0779 18.6914ZM25.4145 16.835L23.8296 16.5705C23.717 16.1102 23.554 15.6697 23.3424 15.2579C23.3335 15.2406 23.3356 15.2197 23.3478 15.2046L24.3423 13.9714C24.5581 13.7055 24.5483 13.323 24.3208 13.0664L23.6905 12.3569C23.462 12.1006 23.0831 12.0464 22.794 12.229L21.4386 13.0811C20.851 12.6705 20.1865 12.3658 19.47 12.1862C19.451 12.1815 19.4366 12.166 19.4334 12.1466L19.1735 10.585C19.1179 10.2476 18.8259 10 18.4831 10H17.5332C17.1912 10 16.8982 10.2476 16.8438 10.585L16.5825 12.1472C16.5793 12.1665 16.5649 12.182 16.5459 12.1867C15.966 12.332 15.4214 12.5614 14.9225 12.8612C14.9057 12.8714 14.8845 12.8706 14.8686 12.8592L13.6058 11.958C13.328 11.7595 12.9464 11.7906 12.704 12.0325L12.0329 12.7041C11.791 12.9465 11.7599 13.3281 11.9589 13.6059L12.8623 14.8712C12.8736 14.8872 12.8744 14.9083 12.8643 14.9251C12.5674 15.4202 12.3404 15.9616 12.1953 16.5361C12.1905 16.5551 12.175 16.5695 12.1557 16.5727L10.5849 16.835C10.2481 16.8906 10 17.1826 10 17.5254V18.4746C10 18.8173 10.2481 19.1094 10.5849 19.165L12.1557 19.4273C12.175 19.4305 12.1905 19.4449 12.1952 19.4639C12.3133 19.933 12.4815 20.3817 12.7027 20.7994C12.7119 20.8169 12.7099 20.838 12.6975 20.8534L11.7079 22.079C11.4929 22.3447 11.5019 22.7275 11.7294 22.9839L12.3593 23.6933C12.5878 23.9501 12.9669 24.0034 13.256 23.8212L14.6037 22.9746C14.6203 22.9642 14.6413 22.9646 14.6575 22.9755C15.2327 23.3643 15.8816 23.6506 16.5772 23.8212L16.8438 25.415C16.8982 25.7524 17.1912 26 17.5332 26H18.4831C18.8259 26 19.1179 25.7524 19.1735 25.415L19.4338 23.8531C19.437 23.8337 19.4515 23.8183 19.4705 23.8135C20.0428 23.6702 20.5804 23.4449 21.0746 23.1503C21.0914 23.1403 21.1124 23.1411 21.1283 23.1524L22.4449 24.0928C22.7222 24.292 23.1041 24.2607 23.3463 24.018L24.0177 23.3466C24.2593 23.1049 24.292 22.7236 24.0914 22.4452L23.1541 21.1311C23.1427 21.1152 23.142 21.0941 23.152 21.0773C23.4499 20.5806 23.6781 20.0381 23.8224 19.4609C23.8272 19.4419 23.8427 19.4275 23.862 19.4243L25.4151 19.165C25.7529 19.1093 26 18.8173 26 18.4746V17.5253C25.9995 17.1826 25.7524 16.8906 25.4145 16.835Z" fill="#828B95"/>
</svg>
