<svg width="36" height="37" viewBox="0 0 36 37" fill="none" xmlns="http://www.w3.org/2000/svg">
	<circle opacity="0.2" cx="18" cy="18.5857" r="18" fill="white"/>
	<path d="M13.5 14.0857H12.1V12.6857H13.5V14.0857Z" fill="white"/>
	<path fill-rule="evenodd" clip-rule="evenodd" d="M11.4 10.5857H14.2C14.9735 10.5857 15.6 11.2122 15.6 11.9857V14.7857C15.6 15.5592 14.9735 16.1857 14.2 16.1857H11.4C10.6265 16.1857 10 15.5592 10 14.7857V11.9857C10 11.2122 10.6265 10.5857 11.4 10.5857ZM11.4 14.7857H14.2V11.9857H11.4V14.7857Z" fill="white"/>
	<path d="M13.5 24.4857H12.1V23.0857H13.5V24.4857Z" fill="white"/>
	<path fill-rule="evenodd" clip-rule="evenodd" d="M11.4 20.9857H14.2C14.9735 20.9857 15.6 21.6122 15.6 22.3857V25.1857C15.6 25.9592 14.9735 26.5857 14.2 26.5857H11.4C10.6265 26.5857 10 25.9592 10 25.1857V22.3857C10 21.6122 10.6265 20.9857 11.4 20.9857ZM11.4 25.1857H14.2V22.3857H11.4V25.1857Z" fill="white"/>
	<path d="M22.5 14.0857H23.9V12.6857H22.5V14.0857Z" fill="white"/>
	<path fill-rule="evenodd" clip-rule="evenodd" d="M24.6 10.5857H21.8C21.0265 10.5857 20.4 11.2122 20.4 11.9857V14.7857C20.4 15.5592 21.0265 16.1857 21.8 16.1857H24.6C25.3735 16.1857 26 15.5592 26 14.7857V11.9857C26 11.2122 25.3735 10.5857 24.6 10.5857ZM24.6 14.7857H21.8V11.9857H24.6V14.7857Z" fill="white"/>
	<path d="M18.0646 12.5857C17.808 12.5857 17.6 12.7937 17.6 13.0503V13.3211C17.6 13.5777 17.808 13.7857 18.0646 13.7857H18.3354C18.592 13.7857 18.8 13.5777 18.8 13.3211V13.0503C18.8 12.7937 18.592 12.5857 18.3354 12.5857H18.0646Z" fill="white"/>
	<path d="M17.6 15.4503C17.6 15.1937 17.808 14.9857 18.0646 14.9857H18.3354C18.592 14.9857 18.8 15.1937 18.8 15.4503V15.7211C18.8 15.9777 18.592 16.1857 18.3354 16.1857H18.0646C17.808 16.1857 17.6 15.9777 17.6 15.7211V15.4503Z" fill="white"/>
	<path d="M18.0646 18.1857C17.808 18.1857 17.6 18.3937 17.6 18.6503V18.9211C17.6 19.1777 17.808 19.3857 18.0646 19.3857H18.3354C18.592 19.3857 18.8 19.1777 18.8 18.9211V18.6503C18.8 18.3937 18.592 18.1857 18.3354 18.1857H18.0646Z" fill="white"/>
	<path d="M14.4 18.6503C14.4 18.3937 14.608 18.1857 14.8646 18.1857H15.1354C15.392 18.1857 15.6 18.3937 15.6 18.6503V18.9211C15.6 19.1777 15.392 19.3857 15.1354 19.3857H14.8646C14.608 19.3857 14.4 19.1777 14.4 18.9211V18.6503Z" fill="white"/>
	<path d="M12.4646 18.1857C12.208 18.1857 12 18.3937 12 18.6503V18.9211C12 19.1777 12.208 19.3857 12.4646 19.3857H12.7354C12.992 19.3857 13.2 19.1777 13.2 18.9211V18.6503C13.2 18.3937 12.992 18.1857 12.7354 18.1857H12.4646Z" fill="white"/>
	<path d="M20.4 18.6503C20.4 18.3937 20.608 18.1857 20.8646 18.1857H21.1354C21.392 18.1857 21.6 18.3937 21.6 18.6503V18.9211C21.6 19.1777 21.392 19.3857 21.1354 19.3857H20.8646C20.608 19.3857 20.4 19.1777 20.4 18.9211V18.6503Z" fill="white"/>
	<path d="M23.2646 18.1857C23.008 18.1857 22.8 18.3937 22.8 18.6503V18.9211C22.8 19.1777 23.008 19.3857 23.2646 19.3857H23.5354C23.792 19.3857 24 19.1777 24 18.9211V18.6503C24 18.3937 23.792 18.1857 23.5354 18.1857H23.2646Z" fill="white"/>
	<path d="M18.8 19.8503C18.8 19.5937 19.008 19.3857 19.2646 19.3857H19.5354C19.792 19.3857 20 19.5937 20 19.8503V20.1211C20 20.3777 19.792 20.5857 19.5354 20.5857H19.2646C19.008 20.5857 18.8 20.3777 18.8 20.1211V19.8503Z" fill="white"/>
	<path d="M22.0646 19.3857C21.808 19.3857 21.6 19.5937 21.6 19.8503V20.1211C21.6 20.3777 21.808 20.5857 22.0646 20.5857H22.3354C22.592 20.5857 22.8 20.3777 22.8 20.1211V19.8503C22.8 19.5937 22.592 19.3857 22.3354 19.3857H22.0646Z" fill="white"/>
	<path d="M20.4 21.0503C20.4 20.7937 20.608 20.5857 20.8646 20.5857H21.1354C21.392 20.5857 21.6 20.7937 21.6 21.0503V21.3211C21.6 21.5777 21.392 21.7857 21.1354 21.7857H20.8646C20.608 21.7857 20.4 21.5777 20.4 21.3211V21.0503Z" fill="white"/>
	<path d="M18.0646 20.5857C17.808 20.5857 17.6 20.7937 17.6 21.0503V21.3211C17.6 21.5777 17.808 21.7857 18.0646 21.7857H18.3354C18.592 21.7857 18.8 21.5777 18.8 21.3211V21.0503C18.8 20.7937 18.592 20.5857 18.3354 20.5857H18.0646Z" fill="white"/>
	<path d="M18.8 22.6503C18.8 22.3937 19.008 22.1857 19.2646 22.1857H19.5354C19.792 22.1857 20 22.3937 20 22.6503V22.9211C20 23.1777 19.792 23.3857 19.5354 23.3857H19.2646C19.008 23.3857 18.8 23.1777 18.8 22.9211V22.6503Z" fill="white"/>
	<path d="M20.8646 23.3857C20.608 23.3857 20.4 23.5937 20.4 23.8503V24.1211C20.4 24.3777 20.608 24.5857 20.8646 24.5857H21.1354C21.392 24.5857 21.6 24.3777 21.6 24.1211V23.8503C21.6 23.5937 21.392 23.3857 21.1354 23.3857H20.8646Z" fill="white"/>
	<path d="M18.8 25.4503C18.8 25.1937 19.008 24.9857 19.2646 24.9857H19.5354C19.792 24.9857 20 25.1937 20 25.4503V25.7211C20 25.9777 19.792 26.1857 19.5354 26.1857H19.2646C19.008 26.1857 18.8 25.9777 18.8 25.7211V25.4503Z" fill="white"/>
	<path d="M25.2646 19.3857C25.008 19.3857 24.8 19.5937 24.8 19.8503V20.1211C24.8 20.3777 25.008 20.5857 25.2646 20.5857H25.5354C25.792 20.5857 26 20.3777 26 20.1211V19.8503C26 19.5937 25.792 19.3857 25.5354 19.3857H25.2646Z" fill="white"/>
	<path d="M24.8 22.6503C24.8 22.3937 25.008 22.1857 25.2646 22.1857H25.5354C25.792 22.1857 26 22.3937 26 22.6503V22.9211C26 23.1777 25.792 23.3857 25.5354 23.3857H25.2646C25.008 23.3857 24.8 23.1777 24.8 22.9211V22.6503Z" fill="white"/>
	<path d="M22.0646 22.1857C21.808 22.1857 21.6 22.3937 21.6 22.6503V22.9211C21.6 23.1777 21.808 23.3857 22.0646 23.3857H22.3354C22.592 23.3857 22.8 23.1777 22.8 22.9211V22.6503C22.8 22.3937 22.592 22.1857 22.3354 22.1857H22.0646Z" fill="white"/>
	<path d="M21.6 25.4503C21.6 25.1937 21.808 24.9857 22.0646 24.9857H22.3354C22.592 24.9857 22.8 25.1937 22.8 25.4503V25.7211C22.8 25.9777 22.592 26.1857 22.3354 26.1857H22.0646C21.808 26.1857 21.6 25.9777 21.6 25.7211V25.4503Z" fill="white"/>
	<path d="M23.2646 23.3857C23.008 23.3857 22.8 23.5937 22.8 23.8503V24.1211C22.8 24.3777 23.008 24.5857 23.2646 24.5857H23.5354C23.792 24.5857 24 24.3777 24 24.1211V23.8503C24 23.5937 23.792 23.3857 23.5354 23.3857H23.2646Z" fill="white"/>
	<path d="M22.8 21.0503C22.8 20.7937 23.008 20.5857 23.2646 20.5857H23.5354C23.792 20.5857 24 20.7937 24 21.0503V21.3211C24 21.5777 23.792 21.7857 23.5354 21.7857H23.2646C23.008 21.7857 22.8 21.5777 22.8 21.3211V21.0503Z" fill="white"/>
	<path d="M18.0646 23.3857C17.808 23.3857 17.6 23.5937 17.6 23.8503V24.1211C17.6 24.3777 17.808 24.5857 18.0646 24.5857H18.3354C18.592 24.5857 18.8 24.3777 18.8 24.1211V23.8503C18.8 23.5937 18.592 23.3857 18.3354 23.3857H18.0646Z" fill="white"/>
</svg>
