<svg width="176" height="176" viewBox="0 0 176 176" fill="none" xmlns="http://www.w3.org/2000/svg">
	<mask id="mask0_146_12339" style="mask-type:alpha" maskUnits="userSpaceOnUse" x="0" y="0" width="176" height="176">
		<circle cx="88" cy="88" r="88" fill="white"/>
	</mask>
	<g mask="url(#mask0_146_12339)">
		<rect y="0.00146484" width="176" height="176" fill="url(#paint0_linear_146_12339)"/>
		<path fill-rule="evenodd" clip-rule="evenodd" d="M199.186 10.5998C211.609 14.5953 218.31 27.862 214.154 40.2318L169.361 173.549C165.205 185.919 151.765 192.707 139.342 188.712C126.92 184.716 120.218 171.45 124.375 159.08L139.363 114.47L-68.8831 305.585L-102.022 269.476L106.083 78.4911L60.7552 89.5068C48.0749 92.5884 35.4308 84.7757 32.5137 72.0566C29.5967 59.3374 37.5113 46.5284 50.1916 43.4469L183.029 11.1642C188.023 9.17359 193.704 8.83636 199.186 10.5998Z" fill="url(#paint1_linear_146_12339)"/>
	</g>
	<defs>
		<linearGradient id="paint0_linear_146_12339" x1="23" y1="29.5" x2="149.5" y2="152.5" gradientUnits="userSpaceOnUse">
			<stop stop-color="#315BEA"/>
			<stop offset="1" stop-color="#2F2DD4"/>
		</linearGradient>
		<linearGradient id="paint1_linear_146_12339" x1="-64" y1="173.5" x2="291" y2="19.4998" gradientUnits="userSpaceOnUse">
			<stop stop-color="#FFF01E"/>
			<stop offset="1" stop-color="#FFD21E"/>
		</linearGradient>
	</defs>
</svg>
