<svg width="32" height="32" viewBox="0 0 32 32" fill="none" xmlns="http://www.w3.org/2000/svg">
<rect width="32" height="32" rx="16" fill="#B8C0C9"/>
<path fill-rule="evenodd" clip-rule="evenodd" d="M22.1915 9.09882H9.80891C8.95388 9.09882 8.26074 9.79195 8.26074 10.647V21.3531C8.26074 22.2081 8.95388 22.9012 9.80891 22.9012H22.1915C23.0465 22.9012 23.7397 22.2081 23.7397 21.3531V10.647C23.7397 9.79195 23.0465 9.09882 22.1915 9.09882ZM10.0606 21.0898V12.8986H21.9586V21.0898H10.0606ZM11.878 10.9999C11.878 11.5017 11.4712 11.9086 10.9693 11.9086C10.4675 11.9086 10.0606 11.5017 10.0606 10.9999C10.0606 10.498 10.4675 10.0912 10.9693 10.0912C11.4712 10.0912 11.878 10.498 11.878 10.9999ZM14.6039 10.9999C14.6039 11.5017 14.1971 11.9086 13.6953 11.9086C13.1934 11.9086 12.7866 11.5017 12.7866 10.9999C12.7866 10.498 13.1934 10.0912 13.6953 10.0912C14.1971 10.0912 14.6039 10.498 14.6039 10.9999ZM17.0223 14.6142L16.011 14.3813L14.8769 18.9049L15.8826 19.1243L17.0223 14.6142ZM20.7284 16.7905L18.4056 14.4677L17.6493 15.224L19.2158 16.7905L17.6493 18.357L18.4056 19.1133L20.7284 16.7905ZM13.5164 14.4677L11.1936 16.7905L13.5164 19.1133L14.2727 18.357L12.7061 16.7905L14.2727 15.224L13.5164 14.4677Z" fill="white"/>
</svg>
