<svg xmlns="http://www.w3.org/2000/svg" width="30" height="30" viewBox="0 0 30 30">
  <g fill="none" fill-rule="evenodd">
    <circle cx="15" cy="15" r="15" stroke="#CBCED2" opacity=".366"/>
    <path fill="#CBCED2" d="M9.64705882,8 L20.3529412,8 C21.2625866,8 22,8.73741335 22,9.64705882 L22,20.3529412 C22,21.2625866 21.2625866,22 20.3529412,22 L9.64705882,22 C8.73741335,22 8,21.2625866 8,20.3529412 L8,9.64705882 C8,8.73741335 8.73741335,8 9.64705882,8 Z M9.68965777,20.3103422 L20.358621,20.3103422 L20.358621,19.48971 L17.5137757,16.2067232 L16.0909564,17.8484454 L12.5345031,13.7448264 L9.68965777,17.0273555 L9.68965777,20.3103422 Z M17.9368271,13.4332017 C18.6970576,13.4332017 19.3133462,12.8169132 19.3133462,12.0566827 C19.3133462,11.2964522 18.6970576,10.6801636 17.9368271,10.6801636 C17.1765966,10.6801636 16.5603081,11.2964522 16.5603081,12.0566827 C16.5603081,12.8169132 17.1765966,13.4332017 17.9368271,13.4332017 Z"/>
  </g>
</svg>
