<svg width="32" height="32" viewBox="0 0 32 32" fill="none" xmlns="http://www.w3.org/2000/svg">
<path fill-rule="evenodd" clip-rule="evenodd" d="M16 31.9986C24.8366 31.9986 32 24.8355 32 15.9993C32 7.16312 24.8366 0 16 0C7.16344 0 0 7.16312 0 15.9993C0 24.8355 7.16344 31.9986 16 31.9986Z" fill="#B8C0C9"/>
<path fill-rule="evenodd" clip-rule="evenodd" d="M7.23231 11.2469C6.96492 11.379 6.79565 11.6513 6.79565 11.9496V13.5063C6.79565 13.7227 6.97107 13.8981 7.18747 13.8981H8.34184V22.8411C8.34184 23.2739 8.69267 23.6248 9.12546 23.6248H11.3751V14.7897C11.3751 14.3569 11.7259 14.0061 12.1587 14.0061H19.9141C20.3469 14.0061 20.6977 14.3569 20.6977 14.7897V23.6248H22.9474C23.3801 23.6248 23.731 23.2739 23.731 22.8411V13.8981H24.8857C25.1022 13.8981 25.2776 13.7227 25.2776 13.5063V11.9496C25.2776 11.6513 25.1083 11.379 24.8409 11.2469L16.3835 7.07062C16.1649 6.96262 15.9084 6.96262 15.6896 7.07062L7.23231 11.2469ZM14.3995 16.1537C14.3995 15.9373 14.5749 15.7619 14.7913 15.7619H17.281C17.4975 15.7619 17.6729 15.9373 17.6729 16.1537V18.6434C17.6729 18.8599 17.4975 19.0353 17.281 19.0353H14.7913C14.5749 19.0353 14.3995 18.8599 14.3995 18.6434V16.1537ZM12.3222 20.6178C12.3222 20.4015 12.4976 20.226 12.714 20.226H15.2038C15.4202 20.226 15.5956 20.4015 15.5956 20.6178V23.1076C15.5956 23.324 15.4202 23.4995 15.2038 23.4995H12.714C12.4976 23.4995 12.3222 23.324 12.3222 23.1076V20.6178ZM16.4776 20.6178C16.4776 20.4015 16.653 20.226 16.8694 20.226H19.3591C19.5755 20.226 19.7509 20.4015 19.7509 20.6178V23.1076C19.7509 23.324 19.5755 23.4995 19.3591 23.4995H16.8694C16.653 23.4995 16.4776 23.324 16.4776 23.1076V20.6178Z" fill="white"/>
</svg>
