<?xml version="1.0" encoding="UTF-8"?>
<svg width="15px" height="14px" viewBox="0 0 15 14" version="1.1" xmlns="http://www.w3.org/2000/svg" xmlns:xlink="http://www.w3.org/1999/xlink">
    <title>Icon</title>
    <g id="Page-1" stroke="none" stroke-width="1" fill="none" fill-rule="evenodd">
        <g id="Элементы-ховер" transform="translate(-436.000000, -681.000000)" fill="#525C69">
            <g id="Group" transform="translate(66.000000, 255.000000)">
                <g id="Ui-/-Grid-/-Parts-/-Tags-/-Tag-add" transform="translate(362.000000, 423.000000)">
                    <g id="Default">
                        <path d="M21.8354847,6.97014457 C22.190651,7.32612363 22.172222,7.92042923 21.7943225,8.2975633 C21.4164229,8.67469736 20.8221556,8.69184688 20.4669893,8.33586782 L19.8044563,7.67333481 L15.5896076,13.199389 L16.236432,13.8462134 C16.5682222,14.2058391 16.5401242,14.7809292 16.1728171,15.1482363 C15.8055101,15.5155433 15.23042,15.5436413 14.8707943,15.2118511 L13.2908561,13.6348561 L9.22014699,16.7006453 C9.15961505,16.7682866 9.068508,16.7989657 8.98358561,16.7803044 C8.89866323,16.761643 8.83393597,16.69672 8.81551992,16.6117303 C8.79710388,16.5267405 8.82803732,16.4357058 8.89583926,16.3753565 L11.9163543,12.2583922 L10.3679153,10.7109342 C10.0293712,10.3522804 10.0547313,9.77164289 10.4251057,9.40151883 C10.7954802,9.03139484 11.3761108,9.00645138 11.7345056,9.34526802 L12.38133,9.99209244 L17.9083367,5.77721524 L17.2504239,5.1193024 C16.9118797,4.7606486 16.9372398,4.18001105 17.3076143,3.80988702 C17.6779888,3.439763 18.2586194,3.41481953 18.6170141,3.75363617 L21.8354847,6.97014457 Z" id="Icon"></path>
                    </g>
                </g>
            </g>
        </g>
    </g>
</svg>