<svg width="121" height="120" viewBox="0 0 121 120" fill="none" xmlns="http://www.w3.org/2000/svg">
	<circle opacity="0.1" cx="60.5" cy="60" r="59" stroke="white" stroke-width="2"/>
	<g opacity="0.8">
		<path fill-rule="evenodd" clip-rule="evenodd" d="M33.7398 36.8918H69.8795C71.8101 36.8918 73.3752 38.4753 73.3752 40.4287V64.8679C73.3752 66.8212 71.8101 68.4047 69.8795 68.4047H51.8097L42.2472 78.0786C41.3547 78.9814 39.8288 78.3419 39.8288 77.065V68.4047H33.7398C31.8092 68.4047 30.2441 66.8212 30.2441 64.8679V40.4287C30.2441 38.4753 31.8092 36.8918 33.7398 36.8918ZM86.6526 51.4363C88.5833 51.4363 90.1484 53.0198 90.1484 54.9731V76.9882C90.1484 78.9416 88.5833 80.5251 86.6526 80.5251H80.5637V86.7613C80.5637 88.0382 79.0378 88.6777 78.1453 87.7748L70.979 80.5251H55.3054C53.3747 80.5251 51.8097 78.9416 51.8097 76.9882V73.2529H72.9358C75.8318 73.2529 78.1794 70.8776 78.1794 67.9476V51.4363H86.6526Z" fill="white"/>
	</g>
</svg>