<svg width="867" height="500" viewBox="0 0 867 500" fill="none" xmlns="http://www.w3.org/2000/svg">
<path fill-rule="evenodd" clip-rule="evenodd" d="M0 0L867 0L867 500L0 500L0 0Z"/>
<mask id="mask0" mask-type="alpha" maskUnits="userSpaceOnUse" x="0" y="0" width="867" height="500">
<path fill-rule="evenodd" clip-rule="evenodd" d="M0 0L867 0L867 500L0 500L0 0Z" fill="white"/>
</mask>
<g mask="url(#mask0)">
<g opacity="0.4">
<path fill-rule="evenodd" clip-rule="evenodd" d="M327.316 259.215C330.987 258.628 333.67 256.735 333.754 252.86C333.844 248.718 331.217 246.235 327.187 246.212C323.417 246.191 320.829 248.575 320.717 252.407C320.595 256.563 323.316 258.626 327.316 259.215M243.773 259.203C247.566 258.616 250.199 256.646 250.246 252.788C250.296 248.658 247.642 246.185 243.609 246.213C239.853 246.237 237.276 248.622 237.208 252.474C237.133 256.644 239.876 258.659 243.773 259.203M285.423 250.963C289.918 250.998 293.808 247.297 293.791 243.001C293.774 238.673 289.951 234.906 285.541 234.874C281.139 234.841 277.259 238.554 277.173 242.881C277.087 247.186 280.906 250.926 285.423 250.963M246.118 266.948C245.849 266.694 245.506 266.09 245.797 267.22C246.835 280.265 250.023 292.926 252.122 305.681H318.919C321.094 293.352 323.222 281.291 325.389 269.009C323.357 269.249 323.108 270.521 322.509 271.355C313.765 283.549 301.001 283.184 292.716 270.646C289.233 265.374 288.014 259.215 285.349 252.923C283.86 259.971 282.07 266.159 278.674 271.775C273.397 280.498 264.421 282.596 255.756 277.461C251.385 274.873 249.407 270.373 246.118 266.948M255.466 263.712C257.769 268.229 260.958 271.896 265.486 270.901C272.292 269.406 273.138 262.697 275.031 257.379C266.465 246.044 266.117 237.523 273.713 230.544C280.492 224.318 290.739 224.371 297.413 230.666C304.806 237.642 304.452 246.395 296.196 257C298.712 262.325 300.04 268.589 306.514 271.191C311.166 270.988 314.082 268.51 315.966 264.799C316.131 262.657 314.512 261.65 313.739 260.229C309.796 252.972 311.597 244.82 318.304 240.051C324.785 235.445 333.52 236.505 338.913 242.555C344.316 248.62 344.509 257.471 338.351 263.032C333.526 267.388 334.041 273.02 332.94 278.244C331.036 287.268 329.79 296.43 328.136 305.509C326.876 312.424 323.787 314.914 316.72 314.922C295.962 314.942 275.204 314.94 254.443 314.923C247.083 314.918 244.063 312.401 242.751 305.169C240.874 294.816 238.862 284.483 237.29 274.084C236.607 269.557 235.397 265.829 231.98 262.396C226.564 256.956 226.892 248.482 231.909 242.707C237.076 236.76 245.451 235.475 252.029 239.622C258.641 243.788 261.088 251.988 257.806 259.048C257.111 260.541 256.331 261.994 255.466 263.712" fill="white"/>
</g>
<g opacity="0.4">
<path fill-rule="evenodd" clip-rule="evenodd" d="M909.796 82.4223C924.131 80.133 934.61 72.7395 934.936 57.6049C935.288 41.4321 925.031 31.7363 909.292 31.6451C894.57 31.5625 884.464 40.8717 884.025 55.8369C883.552 72.0661 894.175 80.1243 909.796 82.4223M583.551 82.3774C598.364 80.0838 608.648 72.3905 608.83 57.3255C609.026 41.1961 598.659 31.5394 582.912 31.648C568.242 31.7436 558.18 41.0571 557.915 56.1005C557.624 72.3818 568.334 80.2532 583.551 82.3774M746.199 50.1969C763.754 50.3359 778.945 35.8834 778.876 19.1068C778.811 2.20422 763.88 -12.5046 746.659 -12.6306C729.469 -12.7609 714.317 1.73941 713.982 18.6376C713.648 35.449 728.56 50.0536 746.199 50.1969M592.709 112.622C591.658 111.632 590.319 109.273 591.458 113.682C595.509 164.625 607.957 214.068 616.155 263.877H877.007C885.5 215.732 893.81 168.634 902.273 120.672C894.336 121.606 893.363 126.575 891.024 129.833C856.878 177.452 807.032 176.023 774.681 127.062C761.076 106.476 756.317 82.4227 745.911 57.8529C740.096 85.3766 733.106 109.542 719.845 131.471C699.238 165.537 664.184 173.73 630.346 153.678C613.277 143.569 605.553 125.998 592.709 112.622M629.215 99.9847C638.208 117.626 650.661 131.944 668.343 128.06C694.922 122.222 698.225 96.023 705.618 75.2542C672.168 30.9887 670.807 -2.28647 700.472 -29.5408C726.942 -53.8543 766.961 -53.6458 793.023 -29.063C821.892 -1.82166 820.51 32.3614 788.267 73.7729C798.095 94.5677 803.28 119.029 828.564 129.19C846.728 128.399 858.116 118.72 865.475 104.229C866.118 95.8666 859.794 91.9309 856.777 86.3836C841.378 58.0432 848.41 26.2103 874.602 7.58748C899.912 -10.4011 934.024 -6.26125 955.083 17.3659C976.185 41.0494 976.937 75.6148 952.888 97.3305C934.045 114.342 936.058 136.335 931.759 156.735C924.322 191.974 919.458 227.751 913 263.207C908.079 290.209 896.013 299.935 868.417 299.966C787.355 300.044 706.292 300.035 625.221 299.97C596.477 299.949 584.685 290.122 579.561 261.878C572.232 221.448 564.374 181.096 558.237 140.488C555.568 122.808 550.843 108.251 537.499 94.8458C516.349 73.6035 517.631 40.5108 537.221 17.9566C557.398 -5.26647 590.105 -10.2838 615.793 5.91069C641.611 22.179 651.169 54.2031 638.352 81.7703C635.639 87.5999 632.592 93.2776 629.215 99.9847" fill="white"/>
</g>
</g>
</svg>
