<svg width="12" height="16" viewBox="0 0 12 16" fill="none" xmlns="http://www.w3.org/2000/svg">
	<path fill-rule="evenodd" clip-rule="evenodd" d="M6.69156 11.7259V13.4723H5.30837V11.7259C5.05944 11.5231 4.90008 11.2131 4.90008 10.8656C4.90008 10.2545 5.39254 9.75903 5.99999 9.75903C6.60739 9.75903 7.09986 10.2545 7.09986 10.8656C7.09986 11.2131 6.94054 11.5231 6.69156 11.7259ZM2.98877 4.63136C2.98877 2.95805 4.33698 1.60156 6.00004 1.60156C7.66314 1.60156 9.01134 2.95805 9.01134 4.63136V7.19257H2.98877V4.63136ZM10.6027 7.19218V4.63097C10.6027 2.07333 8.54197 0 5.99998 0C3.45803 0 1.39731 2.07333 1.39731 4.63097V7.19218H0.5C0.223857 7.19218 0 7.41603 0 7.69218V15.4627C0 15.7388 0.223858 15.9627 0.5 15.9627H11.5C11.7761 15.9627 12 15.7388 12 15.4627V7.69218C12 7.41603 11.7761 7.19218 11.5 7.19218H10.6027Z" fill="white"/>
</svg>
