<svg width="8" height="7" viewBox="0 0 8 7" fill="none" xmlns="http://www.w3.org/2000/svg">
	<path fill-rule="evenodd" clip-rule="evenodd" d="M6.40858 0.276316L4.38226 2.30263L2.35595 0.276316C1.98753 -0.0921053 1.527 -0.0921053 1.15858 0.276316C0.790158 0.644737 0.790158 1.10526 1.15858 1.47368L3.18489 3.5L1.15858 5.52632C0.790158 5.89474 0.790158 6.35526 1.15858 6.72368C1.527 7.09211 1.98753 7.09211 2.35595 6.72368L4.38226 4.69737L6.40858 6.72368C6.777 7.09211 7.23753 7.09211 7.60595 6.72368C7.97437 6.35526 7.97437 5.89474 7.60595 5.52632L5.57963 3.5L7.60595 1.47368C7.97437 1.10526 7.97437 0.644737 7.60595 0.276316C7.23753 0 6.68489 0 6.40858 0.276316Z" fill="#525C69"/>
</svg>