<svg width="24" height="24" viewBox="0 0 24 24" fill="none" xmlns="http://www.w3.org/2000/svg">
	<path d="M13.1688 10.3166C14.4558 9.8164 15.3681 8.5656 15.3681 7.10174C15.3681 5.1975 13.8244 3.65381 11.9202 3.65381C10.0159 3.65381 8.47225 5.1975 8.47225 7.10174C8.47225 8.55437 9.37057 9.7972 10.642 10.305V18.6948C9.5697 18.3903 8.69032 17.7645 8.00835 17.0996C7.53352 16.6367 7.17243 16.1713 6.93086 15.822C6.88368 15.7538 6.8413 15.6904 6.80375 15.6327L8.14326 14.868C8.36287 14.7427 8.34642 14.4208 8.11518 14.3185L4.06859 12.5278C3.87877 12.4438 3.66187 12.5676 3.6377 12.7737L3.12234 17.1687C3.09289 17.4199 3.36171 17.5977 3.58131 17.4723L5.06452 16.6256C5.12664 16.7237 5.2005 16.8362 5.28607 16.9599C5.58207 17.3878 6.02425 17.9585 6.6122 18.5317C7.78118 19.6713 9.59974 20.8879 12.0307 20.8879C14.4617 20.8879 16.2802 19.6713 17.4492 18.5317C18.0372 17.9585 18.4793 17.3878 18.7753 16.9599C18.8677 16.8263 18.9465 16.7058 19.0115 16.6024L20.5354 17.4723C20.755 17.5977 21.0239 17.4199 20.9944 17.1687L20.4791 12.7737C20.4549 12.5676 20.238 12.4438 20.0482 12.5278L16.0016 14.3185C15.7703 14.4208 15.7539 14.7427 15.9735 14.868L17.2726 15.6097C17.2315 15.6734 17.1841 15.7446 17.1306 15.822C16.889 16.1713 16.5279 16.6367 16.0531 17.0996C15.3187 17.8156 14.3554 18.4862 13.1688 18.7592V10.3166ZM11.9206 8.72057C12.8146 8.72057 13.5393 7.99586 13.5393 7.10187C13.5393 6.20789 12.8146 5.48317 11.9206 5.48317C11.0266 5.48317 10.3019 6.20789 10.3019 7.10187C10.3019 7.99586 11.0266 8.72057 11.9206 8.72057Z" fill="#525C69"/>
</svg>