<svg width="24" height="24" viewBox="0 0 24 24" fill="none" xmlns="http://www.w3.org/2000/svg">
	<path fill-rule="evenodd" clip-rule="evenodd" d="M16.8314 12.9226L18.1314 14.2214C18.9363 15.0256 18.9369 16.3418 18.1319 17.146C17.327 17.9502 16.0092 17.9502 15.2043 17.146L13.9042 15.8471C13.3301 15.2735 13.1741 14.4421 13.4186 13.7189L13.8194 14.1195C14.1722 14.4719 14.75 14.4729 15.1032 14.12C15.4565 13.767 15.456 13.1892 15.1032 12.8368L14.7024 12.4363C15.4256 12.1926 16.2573 12.3489 16.8314 12.9226ZM7.61551 9.56399L6.31547 8.26511C5.51054 7.4609 5.51106 6.14477 6.316 5.34056C7.12093 4.53634 8.43771 4.53634 9.24264 5.34056L10.5427 6.63943C11.1168 7.21305 11.2738 8.04445 11.0294 8.76657L10.3925 8.13021C10.0392 7.77725 9.46141 7.77725 9.10814 8.13021C8.75487 8.48316 8.75539 9.05992 9.10866 9.41287L9.7456 10.0492C9.02231 10.294 8.18964 10.1376 7.61551 9.56399ZM11.7784 5.54258L10.313 4.07847C8.8738 2.64051 6.51867 2.64051 5.07943 4.07847C3.64019 5.51644 3.64019 7.86947 5.07943 9.30743L6.54484 10.7715C7.76166 11.9873 9.62691 12.163 11.0473 11.3232L12.1165 12.3915C11.2755 13.8101 11.4519 15.6742 12.6682 16.8894L14.1341 18.3541C15.5733 19.792 17.9285 19.792 19.3677 18.3541C20.8069 16.9161 20.8069 14.5631 19.3677 13.1251L17.9018 11.6605C16.6855 10.4453 14.8197 10.269 13.4003 11.1088L12.3311 10.0405C13.1711 8.62192 12.9953 6.75832 11.7784 5.54258Z" fill="#525C69"/>
</svg>
