<svg width="24" height="24" viewBox="0 0 24 24" fill="none" xmlns="http://www.w3.org/2000/svg">
<path fill-rule="evenodd" clip-rule="evenodd" d="M17.6939 13.275H14.9354L16.3221 8.90709H16.3519L17.6939 13.275ZM17.56 5.97314H15.1594L11.1335 17.8764H13.4894L14.3244 15.2257H18.3055L19.1107 17.8764H21.5412L17.56 5.97314ZM3.51213 9.19565C3.32314 9.38464 3.45699 9.70778 3.72426 9.70778H5.90584V14.4043H3.72452C3.45725 14.4043 3.3234 14.7275 3.51239 14.9164L6.496 17.9001C6.61316 18.0172 6.80311 18.0172 6.92027 17.9001L9.90388 14.9164C10.0929 14.7275 9.95902 14.4043 9.69175 14.4043H7.50907V9.70778H9.6915C9.95877 9.70778 10.0926 9.38464 9.90363 9.19565L6.92001 6.21203C6.80286 6.09488 6.61291 6.09488 6.49575 6.21203L3.51213 9.19565Z" fill="#525C69"/>
</svg>