<svg width="24" height="24" viewBox="0 0 24 24" fill="none" xmlns="http://www.w3.org/2000/svg">
	<path fill-rule="evenodd" clip-rule="evenodd" d="M11.55 4.53676C10.133 4.67568 8.87672 5.19576 7.79963 6.08937C7.53093 6.31231 6.96195 6.91141 6.7417 7.20332C6.14867 7.98926 5.73195 8.88411 5.5022 9.8649C5.3649 10.4511 5.3376 10.7212 5.33785 11.4911C5.33812 12.2733 5.36477 12.5214 5.51717 13.1602C5.83385 14.4875 6.52978 15.7132 7.48063 16.6184L7.64875 16.7784H6.32438H5V18.4619V18.4723H11.325V17.3578L11.1458 17.2628C10.7314 17.0433 10.4053 16.7629 10.1064 16.3634C8.96103 15.404 8.19238 13.6314 8.19238 11.6033C8.19238 8.55494 9.92885 6.08377 12.0709 6.08377C14.2129 6.08377 15.9494 8.55494 15.9494 11.6033C15.9494 13.6481 15.1681 15.4331 14.0071 16.3869C13.7182 16.7619 13.3837 17.0567 13.012 17.2565L12.8002 17.3703L12.8001 18.4723H19V18.4619V16.7784H17.7444H16.4889L16.7434 16.5274C18.519 14.7762 19.2275 12.148 18.587 9.68884C18.2853 8.53081 17.6835 7.44406 16.8761 6.59948C15.8375 5.513 14.5295 4.82904 13.025 4.58579C12.7706 4.54465 11.7989 4.51235 11.55 4.53676Z" fill="#525C69"/>
</svg>