<svg width="24" height="24" viewBox="0 0 24 24" fill="none" xmlns="http://www.w3.org/2000/svg">
	<path fill-rule="evenodd" clip-rule="evenodd" d="M6 5C4.89543 5 4 5.89543 4 7V11C4 12.0355 4.787 12.8873 5.79551 12.9897C5.86275 12.9965 5.93096 13 6 13H7H17H18C19.1046 13 20 12.1046 20 11V7C20 5.89543 19.1046 5 18 5H17H7H6ZM15.2676 6H8.73244C8.90261 6.29417 9 6.63571 9 7V11C9 11.3643 8.90261 11.7058 8.73244 12H15.2676C15.0974 11.7058 15 11.3643 15 11V7C15 6.63571 15.0974 6.29417 15.2676 6ZM8 8H5V10H8V8ZM19 8H16V10H19V8ZM6 14C4.89543 14 4 14.8954 4 16V18C4 19.1046 4.89543 20 6 20H18C19.1046 20 20 19.1046 20 18V16C20 14.8954 19.1046 14 18 14H6ZM18 14.8571H6V19.1429H18V14.8571ZM11 16H17V18H11V16Z" fill="#525C69"/>
</svg>