<svg width="24" height="24" viewBox="0 0 24 24" fill="none" xmlns="http://www.w3.org/2000/svg">
	<path d="M6.98871 5H4.10052V14.2803H7.57269C8.62217 14.2803 9.4516 14.0433 10.061 13.5693C10.6746 13.0954 10.9814 12.4352 10.9814 11.5889C10.9814 10.9922 10.8502 10.514 10.5878 10.1543C10.3297 9.7946 9.90651 9.54915 9.3183 9.41797V9.35449C9.74994 9.28255 10.0948 9.06885 10.353 8.71338C10.6153 8.35791 10.7465 7.90299 10.7465 7.34863C10.7465 6.5319 10.4482 5.93734 9.8515 5.56494C9.25905 5.18831 8.30479 5 6.98871 5ZM7.21088 8.67529H6.0683V6.6123H7.10297C7.66579 6.6123 8.07627 6.69059 8.33441 6.84717C8.59678 6.99951 8.72797 7.25342 8.72797 7.60889C8.72797 7.98975 8.60736 8.2627 8.36615 8.42773C8.12917 8.59277 7.74408 8.67529 7.21088 8.67529ZM6.0683 12.6553V10.2368H7.28705C8.38731 10.2368 8.93744 10.6219 8.93744 11.3921C8.93744 11.8195 8.80837 12.1369 8.55023 12.3442C8.29209 12.5516 7.89219 12.6553 7.35052 12.6553H6.0683ZM14.9541 5H12.0659V14.2803H15.5381C16.5876 14.2803 17.417 14.0433 18.0264 13.5693C18.64 13.0954 18.9468 12.4352 18.9468 11.5889C18.9468 10.9922 18.8156 10.514 18.5532 10.1543C18.2951 9.7946 17.8719 9.54915 17.2837 9.41797V9.35449C17.7153 9.28255 18.0602 9.06885 18.3183 8.71338C18.5807 8.35791 18.7119 7.90299 18.7119 7.34863C18.7119 6.5319 18.4136 5.93734 17.8169 5.56494C17.2244 5.18831 16.2702 5 14.9541 5ZM15.1763 8.67529H14.0337V6.6123H15.0683C15.6312 6.6123 16.0417 6.69059 16.2998 6.84717C16.5622 6.99951 16.6933 7.25342 16.6933 7.60889C16.6933 7.98975 16.5727 8.2627 16.3315 8.42773C16.0946 8.59277 15.7095 8.67529 15.1763 8.67529ZM14.0337 12.6553V10.2368H15.2524C16.3527 10.2368 16.9028 10.6219 16.9028 11.3921C16.9028 11.8195 16.7738 12.1369 16.5156 12.3442C16.2575 12.5516 15.8576 12.6553 15.3159 12.6553H14.0337ZM11.4131 20.7903C11.7664 20.4076 11.943 19.86 11.943 19.1475C11.943 18.4331 11.7673 17.8855 11.416 17.5048C11.0667 17.124 10.5613 16.9336 9.89985 16.9336C9.23842 16.9336 8.73008 17.123 8.37484 17.5018C8.02155 17.8787 7.84491 18.4253 7.84491 19.1416C7.84491 19.858 8.02155 20.4076 8.37484 20.7903C8.72812 21.173 9.2345 21.3644 9.89396 21.3644C10.5534 21.3644 11.0598 21.173 11.4131 20.7903ZM9.07552 20.2339C8.89299 19.9905 8.80172 19.6284 8.80172 19.1475C8.80172 18.6667 8.89397 18.3046 9.07846 18.0612C9.26296 17.8158 9.53675 17.6932 9.89985 17.6932C10.6241 17.6932 10.9862 18.178 10.9862 19.1475C10.9862 20.1151 10.6221 20.5989 9.89396 20.5989C9.53086 20.5989 9.25805 20.4773 9.07552 20.2339ZM5.22178 18.0877C5.41019 17.8286 5.67614 17.6991 6.01961 17.6991C6.17662 17.6991 6.33658 17.7275 6.49949 17.7844C6.66239 17.8414 6.82431 17.9081 6.98525 17.9846L7.27966 17.2427C6.85768 17.0406 6.43766 16.9395 6.01961 16.9395C5.60941 16.9395 5.25122 17.0298 4.94504 17.2104C4.64082 17.389 4.40726 17.6471 4.24436 17.9846C4.08145 18.3203 4 18.7118 4 19.1593C4 19.8698 4.16585 20.4154 4.49754 20.7962C4.82924 21.175 5.30813 21.3644 5.93423 21.3644C6.36995 21.3644 6.76445 21.2908 7.11773 21.1436V20.3781C6.68791 20.5293 6.32186 20.6048 6.01961 20.6048C5.2993 20.6048 4.93915 20.125 4.93915 19.1652C4.93915 18.704 5.03336 18.3448 5.22178 18.0877ZM16.4062 19.1122C16.4062 19.8207 16.204 20.3634 15.7997 20.7403C15.3973 21.1171 14.8154 21.3055 14.0539 21.3055H12.8351V17.0013H14.1864C14.889 17.0013 15.4346 17.1868 15.8232 17.5578C16.2119 17.9287 16.4062 18.4469 16.4062 19.1122ZM15.4582 19.1358C15.4582 18.2113 15.0499 17.7491 14.2335 17.7491H13.7477V20.5518H14.1393C15.0185 20.5518 15.4582 20.0798 15.4582 19.1358ZM17.2982 21.3055H19.7771V20.5518H18.2109V19.4419H19.6682V18.6941H18.2109V17.7491H19.7771V17.0013H17.2982V21.3055Z" fill="#525C69"/>
</svg>