<svg width="24" height="24" viewBox="0 0 24 24" fill="none" xmlns="http://www.w3.org/2000/svg">
	<path d="M10.1116 12.8923V15.766H12.1507C12.7121 15.766 13.1436 15.6466 13.4451 15.4078C13.7464 15.1691 13.8972 14.8328 13.8972 14.399C13.8972 13.4001 13.3622 12.8978 12.2926 12.8923H10.1116ZM10.1116 10.9983H11.734C12.4136 10.9929 12.8982 10.8772 13.188 10.6514C13.4775 10.4258 13.6223 10.0927 13.6223 9.65212C13.6223 9.14561 13.4656 8.78086 13.1525 8.55786C12.8392 8.33486 12.3338 8.22331 11.6365 8.22331H10.1116V10.9983ZM7 17.9893V6H11.6365C13.2973 6 14.5606 6.28286 15.4264 6.84815C16.2922 7.41365 16.7252 8.23432 16.7252 9.31016C16.7252 9.93073 16.5714 10.4604 16.2641 10.8996C15.9568 11.3387 15.5047 11.6627 14.9078 11.8712C15.5816 12.0358 16.0986 12.3433 16.4593 12.7935C16.8197 13.2436 17 13.7926 17 14.4403C17 15.6151 16.5996 16.4976 15.7988 17.0878C14.9979 17.6779 13.8115 17.9784 12.2394 17.9893H7Z" fill="#525C69"/>
</svg>