<svg width="24" height="24" viewBox="0 0 24 24" fill="none" xmlns="http://www.w3.org/2000/svg">
<path fill-rule="evenodd" clip-rule="evenodd" d="M15.034 7.2H18C18.4418 7.2 18.8 7.55817 18.8 8V8.84038L15.034 8.84038V7.2ZM13.834 7.2H10.2V8.84038L13.834 8.84038V7.2ZM9 7.2H6C5.55817 7.2 5.2 7.55817 5.2 8V8.84038L9 8.84038V7.2ZM5.2 10.0404V11.8404H9V10.0404L5.2 10.0404ZM5.2 13.0404V14.8404H9V13.0404L5.2 13.0404ZM5.2 16.0404V17C5.2 17.4418 5.55817 17.8 6 17.8H9V16.0404H5.2ZM9 19V19.0003H10.2V19H13.834V19.0003H15.034V19H18C19.1046 19 20 18.1046 20 17V8C20 6.89543 19.1046 6 18 6H6C4.89543 6 4 6.89543 4 8V17C4 18.1046 4.89543 19 6 19H9ZM15.034 17.8H18C18.4418 17.8 18.8 17.4418 18.8 17V16.0404H15.034V17.8ZM18.8 14.8404V13.0404H15.034V14.8404H18.8ZM18.8 11.8404V10.0404L15.034 10.0404V11.8404H18.8ZM13.834 17.8H10.2V16.0404H13.834V17.8ZM13.834 13.0404V14.8404H10.2V13.0404H13.834ZM13.834 10.0404V11.8404H10.2V10.0404H13.834Z" fill="#525C69"/>
</svg>
