<svg width="24" height="24" viewBox="0 0 24 24" fill="none" xmlns="http://www.w3.org/2000/svg">
	<path fill-rule="evenodd" clip-rule="evenodd" d="M1.42929 11.4642C1.42929 15.6754 4.84312 19.0892 9.05429 19.0892C13.2655 19.0892 16.6793 15.6754 16.6793 11.4642C16.6793 7.25306 13.2655 3.83923 9.05429 3.83923C4.84312 3.83923 1.42929 7.25306 1.42929 11.4642ZM2.85471 11.4645C2.85471 14.8883 5.63022 17.6638 9.05399 17.6638C12.4778 17.6638 15.2533 14.8883 15.2533 11.4645C15.2533 8.04071 12.4778 5.2652 9.05399 5.2652C5.63022 5.2652 2.85471 8.04071 2.85471 11.4645ZM10.1049 8.90566C10.1049 8.35337 10.5527 7.90566 11.1049 7.90566H11.1383C11.6906 7.90566 12.1383 8.35337 12.1383 8.90566V9.95566C12.1383 10.5079 11.6906 10.9557 11.1383 10.9557H11.1049C10.5527 10.9557 10.1049 10.5079 10.1049 9.95566V8.90566ZM5.97018 8.90614C5.97018 8.35386 6.4179 7.90615 6.97018 7.90615H7.00352C7.5558 7.90615 8.00352 8.35386 8.00352 8.90615V9.95615C8.00352 10.5084 7.5558 10.9561 7.00352 10.9561H6.97018C6.4179 10.9561 5.97018 10.5084 5.97018 9.95614V8.90614ZM12.7619 13.8043C12.887 13.6814 12.9349 13.5097 12.9054 13.3493C12.9343 13.0887 12.8887 12.7868 12.768 12.664C12.5711 12.4638 12.2493 12.4611 12.0491 12.658C11.2931 13.4013 10.2796 13.8248 9.19796 13.8248C8.12246 13.8248 7.11428 13.4062 6.35951 12.6704C6.15848 12.4744 5.83665 12.4785 5.64067 12.6795C5.51025 12.8133 5.45889 13.1455 5.49838 13.4105C5.48531 13.5574 5.536 13.7088 5.64986 13.8198C6.59264 14.7388 7.85465 15.2629 9.198 15.2629C10.5491 15.2629 11.8177 14.7327 12.7619 13.8043ZM21.1141 13.4569L23.7585 10.8125H18.4697L21.1141 13.4569Z" fill="#525C69"/>
</svg>