<svg width="24" height="24" viewBox="0 0 24 24" fill="none" xmlns="http://www.w3.org/2000/svg">
	<path fill-rule="evenodd" clip-rule="evenodd" d="M9.59817 11.0656L10.9849 12.4511C9.57745 13.2211 7.77577 13.0107 6.58382 11.8198L5.08584 10.3231C3.63805 8.87662 3.63805 6.53138 5.08584 5.08488C6.53363 3.63837 8.88096 3.63837 10.3288 5.08488L11.8267 6.58152C13.0092 7.76294 13.2259 9.54389 12.4768 10.945L11.0804 9.54991C11.1912 8.95352 11.0157 8.3145 10.5539 7.85318L9.05596 6.35654C8.31111 5.61235 7.10348 5.61235 6.35864 6.35654C5.61379 7.10072 5.61379 8.30728 6.35864 9.05146L7.85661 10.5481C8.32954 11.0206 8.98903 11.1931 9.59817 11.0656ZM15.0359 13.5019L13.6395 12.1067C15.0419 11.3583 16.8245 11.5748 18.0069 12.7562L19.5049 14.2529C20.9527 15.6994 20.9527 18.0446 19.5049 19.4911C18.0571 20.9376 15.7098 20.9376 14.262 19.4911L12.764 17.9945C11.5721 16.8036 11.3615 15.0035 12.1322 13.5973L13.5189 14.9828C13.3913 15.5914 13.5639 16.2503 14.0368 16.7228L15.5348 18.2195C16.2796 18.9636 17.4873 18.9636 18.2321 18.2195C18.977 17.4753 18.977 16.2687 18.2321 15.5245L16.7342 14.0279C16.2724 13.5666 15.6328 13.3912 15.0359 13.5019ZM14.7937 4.2904C15.2173 4.40381 15.4687 4.83886 15.3552 5.26211L14.7386 7.56119C14.6251 7.98443 14.1897 8.23561 13.766 8.1222C13.3424 8.00879 13.091 7.57374 13.2045 7.1505L13.8211 4.85142C13.9346 4.42817 14.3701 4.17699 14.7937 4.2904ZM20.6897 10.1812C20.8032 10.6045 20.5518 11.0395 20.1281 11.1529L17.827 11.769C17.4034 11.8824 16.968 11.6312 16.8545 11.2079C16.7409 10.7847 16.9923 10.3497 17.416 10.2362L19.7171 9.6202C20.1407 9.5068 20.5761 9.75797 20.6897 10.1812ZM6.43682 18.4002C6.12671 18.0904 6.12671 17.5881 6.43682 17.2782L8.12137 15.5952C8.43148 15.2853 8.93428 15.2853 9.2444 15.5952C9.55451 15.905 9.55451 16.4074 9.2444 16.7172L7.55985 18.4002C7.24974 18.7101 6.74694 18.7101 6.43682 18.4002ZM9.49066 19.837C9.37715 20.2603 9.62855 20.6953 10.0522 20.8087C10.4758 20.9221 10.9112 20.671 11.0247 20.2477L11.6413 17.9486C11.7548 17.5254 11.5034 17.0903 11.0798 16.9769C10.6562 16.8635 10.2208 17.1147 10.1072 17.5379L9.49066 19.837ZM4.71772 13.9462C4.2941 14.0596 4.0427 14.4947 4.15621 14.9179C4.26972 15.3412 4.70515 15.5923 5.12878 15.4789L7.4299 14.8629C7.85352 14.7495 8.10492 14.3144 7.99141 13.8912C7.8779 13.4679 7.44247 13.2168 7.01884 13.3302L4.71772 13.9462ZM17.0511 6.67329C17.3612 6.36345 17.864 6.36345 18.1741 6.67329C18.4842 6.98313 18.4842 7.48548 18.1741 7.79532L16.4895 9.47837C16.1794 9.78821 15.6766 9.78821 15.3665 9.47837C15.0564 9.16853 15.0564 8.66618 15.3665 8.35634L17.0511 6.67329Z" fill="#525C69"/>
</svg>