<svg width="24" height="24" viewBox="0 0 24 24" fill="none" xmlns="http://www.w3.org/2000/svg">
	<path fill-rule="evenodd" clip-rule="evenodd" d="M6.051 12.8786L5.52822 15.0237H3.58984L6.17435 5.66895H8.54739L11.1143 15.0237H9.04667L8.52977 12.8786H6.051ZM8.18321 11.2407L7.34912 7.69753H7.26101L6.4093 11.2407H8.18321ZM15.5667 15.0237H11.9542V5.66895H15.5079C16.9823 5.66895 17.975 6.52561 17.975 7.96481C17.975 9.15728 17.3171 9.82891 16.5417 10.0071V10.1099C17.4346 10.1853 18.3568 10.898 18.3568 12.3715C18.3568 14.0711 17.1291 15.0237 15.5667 15.0237ZM15.0145 7.27262H13.875V9.47254H14.8089C15.6959 9.47254 16.0777 9.02022 16.0777 8.35544C16.0777 7.69753 15.69 7.27262 15.0145 7.27262ZM15.1085 10.9254H13.875V13.42H14.9147C15.9543 13.42 16.3831 12.9472 16.3831 12.1864C16.3831 11.4257 15.9543 10.9254 15.1085 10.9254ZM22.6775 13.831L21.7568 12.9126L20.9974 13.6785C20.6072 14.0711 19.9048 14.776 19.1998 15.4834C18.4901 16.1956 17.7778 16.9104 17.379 17.3116C17.2166 17.1495 16.9415 16.8856 16.6696 16.6247C16.4038 16.3697 16.141 16.1176 15.9899 15.9667L15.084 16.8642C15.3985 17.1829 15.8246 17.6024 16.2488 18.0201C16.6695 18.4343 17.0882 18.8466 17.3944 19.1569C17.9381 18.6072 18.9879 17.5497 20.0379 16.492C21.0848 15.4374 22.1319 14.3826 22.6775 13.831Z" fill="#525C69"/>
</svg>