<svg width="24" height="24" viewBox="0 0 24 24" fill="none" xmlns="http://www.w3.org/2000/svg">
	<path fill-rule="evenodd" clip-rule="evenodd" d="M12.4044 4.25833C12.7087 4.2555 12.9742 4.44698 13.0665 4.72281L13.0907 4.81774L13.2511 5.71202C14.2248 5.89396 15.1311 6.29145 15.908 6.85845L16.6772 6.37446C16.9292 6.21511 17.2529 6.23607 17.4817 6.41535L17.5627 6.48996L18.1909 7.1703C18.3925 7.38904 18.4252 7.70561 18.2822 7.95526L18.2203 8.04541L17.6425 8.76132C17.9851 9.33895 18.2391 9.97805 18.3838 10.6633L19.3038 10.805C19.6043 10.8507 19.8339 11.0821 19.8794 11.3696L19.8876 11.4673L19.8962 12.3853C19.8989 12.6837 19.7039 12.9441 19.4223 13.0347L19.3254 13.0584L18.4081 13.2174C18.2508 14.0316 17.9323 14.7984 17.4824 15.4792L18.0491 16.2431C18.2273 16.4807 18.2243 16.7988 18.0555 17.0323L17.9845 17.1156L17.3282 17.7711C17.1178 17.9817 16.797 18.0318 16.5349 17.9068L16.4397 17.8517L15.6469 17.3075C15.2208 17.5872 14.7571 17.8193 14.2627 17.9951C13.9652 18.1008 13.6673 18.1849 13.3707 18.2484L13.2244 19.1605C13.1777 19.4547 12.9415 19.6802 12.6483 19.7247L12.5486 19.7326L11.6115 19.7414C11.3078 19.7442 11.0415 19.5527 10.95 19.2768L10.9261 19.1819L10.7655 18.291C9.80951 18.1155 8.91799 17.7323 8.14938 17.1849L7.37232 17.6735C7.12031 17.8325 6.79643 17.8122 6.56761 17.6328L6.48659 17.5581L5.85883 16.8777C5.65726 16.6592 5.6251 16.3424 5.76777 16.0929L5.82947 16.0028L6.39377 15.3045C6.03085 14.7096 5.76273 14.0478 5.61241 13.3362L4.69536 13.1948C4.3958 13.1492 4.16551 12.9177 4.12019 12.6302L4.1121 12.5325L4.10354 11.6145C4.10076 11.3161 4.29656 11.0557 4.57766 10.9651L4.67436 10.9414L5.6018 10.7806C5.77293 10.0321 6.1187 9.27837 6.5837 8.59085L6.00072 7.80577C5.82398 7.56856 5.82581 7.25038 5.99449 7.01636L6.06554 6.93286L6.72153 6.27717C6.93218 6.0672 7.2528 6.01739 7.51518 6.14193L7.61052 6.19683L8.38105 6.72534C8.81063 6.41735 9.26647 6.17031 9.7329 6.00446C10.0376 5.89611 10.3426 5.81048 10.6463 5.74645L10.7924 4.83916C10.838 4.54501 11.0748 4.31948 11.3677 4.27502L11.4673 4.26707L12.4044 4.25833ZM11.6527 15.8533C10.2821 15.7575 8.76345 14.6278 8.30119 13.3602C7.32368 10.6795 9.44375 7.94336 12.3428 8.14546C13.8634 8.25144 15.1819 9.23222 15.6947 10.6386C16.6723 13.32 14.5512 16.0558 11.6527 15.8533Z" fill="#525C69"/>
</svg>