<svg width="24" height="24" viewBox="0 0 24 24" fill="none" xmlns="http://www.w3.org/2000/svg">
	<path fill-rule="evenodd" clip-rule="evenodd" d="M5.99952 3C4.89495 3 3.99952 3.89543 3.99952 5V8C3.99952 9.10457 4.89495 10 5.99952 10H17.9995C19.1041 10 19.9995 9.10457 19.9995 8V5C19.9995 3.89543 19.1041 3 17.9995 3H5.99952ZM5.99952 4C5.44723 4 4.99952 4.44772 4.99952 5V8C4.99952 8.55228 5.44723 9 5.99952 9H17.9995C18.5518 9 18.9995 8.55228 18.9995 8V5C18.9995 4.44772 18.5518 4 17.9995 4H5.99952ZM6.99952 5H13.9995V6H6.99952V5ZM13.9995 7H6.99952V8H13.9995V7ZM6 12C4.89543 12 4 12.8954 4 14V17C4 18.1046 4.89543 19 6 19H18C19.1046 19 20 18.1046 20 17V14C20 12.8954 19.1046 12 18 12H6ZM6 13C5.44772 13 5 13.4477 5 14V17C5 17.5523 5.44772 18 6 18H18C18.5523 18 19 17.5523 19 17V14C19 13.4477 18.5523 13 18 13H6ZM7 14H14V15H7V14ZM14 16H7V17H14V16ZM3.81427 11.0309L0.18457 7.40122V14.6606L3.81427 11.0309Z" fill="#525C69"/>
</svg>