<svg width="24" height="24" viewBox="0 0 24 24" fill="none" xmlns="http://www.w3.org/2000/svg">
	<path d="M18.0704 17.5636C17.9875 17.7093 17.8225 17.7879 17.6571 17.7604L16.271 17.5299C15.9978 17.4845 15.8523 17.1818 15.9875 16.94L18.7082 12.0774C18.7761 11.956 18.7761 11.8081 18.7082 11.6867L15.9878 6.82449C15.8525 6.58262 15.9982 6.27976 16.2716 6.23454L17.6573 6.00538C17.8226 5.97805 17.9874 6.05659 18.0702 6.20218L21.1905 11.6852C21.2603 11.8078 21.2603 11.9582 21.1905 12.0809L18.0704 17.5636ZM9.66033 13.3265C9.66033 14.0944 9.03775 14.717 8.26977 14.717C7.50179 14.717 6.87922 14.0944 6.87922 13.3265C6.87922 12.5585 7.50179 11.9359 8.26977 11.9359C9.03775 11.9359 9.66033 12.5585 9.66033 13.3265ZM12.9013 13.3265C12.9013 14.0944 12.2787 14.717 11.5107 14.717C10.7428 14.717 10.1202 14.0944 10.1202 13.3265C10.1202 12.5585 10.7428 11.9359 11.5107 11.9359C12.2787 11.9359 12.9013 12.5585 12.9013 13.3265ZM14.6769 14.717C15.4449 14.717 16.0674 14.0944 16.0674 13.3265C16.0674 12.5585 15.4449 11.9359 14.6769 11.9359C13.9089 11.9359 13.2863 12.5585 13.2863 13.3265C13.2863 14.0944 13.9089 14.717 14.6769 14.717ZM5.58576 6.0056C5.42039 5.97811 5.25542 6.05664 5.17251 6.20234L2.05235 11.6851C1.98255 11.8078 1.98255 11.9581 2.05235 12.0808L5.17263 17.5638C5.25548 17.7094 5.42027 17.7879 5.58554 17.7606L6.97127 17.5314C7.24471 17.4862 7.39041 17.1834 7.25508 16.9415L4.53466 12.0792C4.46676 11.9579 4.46676 11.81 4.53466 11.6886L7.25534 6.82594C7.39059 6.58419 7.24512 6.28147 6.97186 6.23604L5.58576 6.0056Z" fill="#525C69"/>
</svg>