<svg width="24" height="24" viewBox="0 0 24 24" fill="none" xmlns="http://www.w3.org/2000/svg">
	<path d="M9.92694 18.4236C10.1448 18.6414 9.99051 19.014 9.68237 19.014H5.3471C5.15608 19.014 5.00123 18.8591 5.00123 18.6681L5.00123 14.3329C5.00123 14.0247 5.37378 13.8704 5.59167 14.0883L7.04653 15.5432L9.55917 13.0305L10.9816 14.4529L8.46897 16.9656L9.92694 18.4236ZM13.0185 14.4685L15.5296 16.9797L14.0867 18.4226C13.8688 18.6405 14.0231 19.013 14.3313 19.013H18.6665C18.8576 19.013 19.0124 18.8582 19.0124 18.6671L19.0124 14.3319C19.0124 14.0237 18.6399 13.8694 18.422 14.0873L16.9778 15.5315L14.4666 13.0203L13.0185 14.4685ZM14.4539 10.9806L16.966 8.46853L18.4238 9.92631C18.6417 10.1442 19.0142 9.98988 19.0142 9.68174L19.0142 5.34648C19.0142 5.15546 18.8594 5.00061 18.6684 5.00061L14.3331 5.00061C14.025 5.00061 13.8706 5.37316 14.0885 5.59105L15.5436 7.0461L13.0315 9.55819L14.4539 10.9806ZM10.9943 9.54802L8.48123 7.03493L9.92571 5.59044C10.1436 5.37256 9.98928 5 9.68114 5H5.34587C5.15485 5 5 5.15485 5 5.34587L5 9.68114C5 9.98928 5.37255 10.1436 5.59044 9.92571L7.03306 8.4831L9.54615 10.9962L10.9943 9.54802Z" fill="#525C69"/>
</svg>