<svg width="24" height="24" viewBox="0 0 24 24" fill="none" xmlns="http://www.w3.org/2000/svg">
	<path fill-rule="evenodd" clip-rule="evenodd" d="M10.6055 16.2959H13.7295L10.3252 11.3945L13.4902 6.30176H10.4072L8.6709 9.3916L6.86621 6.30176H3.87207L6.98926 11.1826L3.67383 16.2959H6.72949L8.65723 13.1719L10.6055 16.2959ZM15.6094 21.5161H21.3081V19.7651H18.3379V19.7114C19.208 18.9308 19.7756 18.4009 20.0405 18.1216C20.3091 17.8423 20.5239 17.5773 20.6851 17.3267C20.8462 17.0724 20.9644 16.8146 21.0396 16.5532C21.1183 16.2918 21.1577 16.0072 21.1577 15.6992C21.1577 15.2874 21.0467 14.9168 20.8247 14.5874C20.6063 14.2544 20.2965 13.9984 19.8955 13.8193C19.498 13.6403 19.0451 13.5508 18.5366 13.5508C18.132 13.5508 17.7668 13.592 17.4409 13.6743C17.1187 13.7567 16.8197 13.8766 16.5439 14.0342C16.2682 14.1882 15.9281 14.446 15.5234 14.8076L16.689 16.1719C17.0076 15.8962 17.2923 15.6885 17.543 15.5488C17.7972 15.4056 18.0479 15.334 18.2949 15.334C18.5348 15.334 18.721 15.3931 18.8535 15.5112C18.986 15.6294 19.0522 15.7905 19.0522 15.9946C19.0522 16.1593 19.0182 16.3169 18.9502 16.4673C18.8857 16.6177 18.7694 16.7985 18.6011 17.0098C18.4328 17.2174 18.0747 17.6077 17.5269 18.1807L15.6094 20.1196V21.5161Z" fill="#525C69"/>
</svg>