<svg xmlns="http://www.w3.org/2000/svg" viewBox="0 0 40 40"><path fill="#fff" d="M23.5154805,37.9692789 L21.913699,39.3062766 C20.8055513,40.2312411 19.1944487,40.2312411 18.086301,39.3062766 L16.4845195,37.9692789 C15.8109687,37.4070699 14.9242726,37.1694803 14.0598559,37.3195922 L12.0041736,37.6765755 C10.5820073,37.9235444 9.18675154,37.1179931 8.68954972,35.7628764 L7.97086517,33.8041118 C7.66865754,32.9804491 7.01955089,32.3313424 6.1958882,32.0291348 L4.2371235,31.3104503 C2.88200688,30.8132484 2.07645558,29.4179927 2.32342449,27.9958264 L2.68040776,25.940144 C2.83051962,25.0757274 2.59293009,24.1890312 2.0307211,23.5154805 L0.69372338,21.913699 C-0.231241127,20.8055513 -0.231241127,19.1944487 0.69372338,18.086301 L2.0307211,16.4845195 C2.59293009,15.8109687 2.83051962,14.9242726 2.68040776,14.0598559 L2.32342449,12.0041736 C2.07645558,10.5820073 2.88200688,9.18675154 4.2371235,8.68954972 L6.1958882,7.97086517 C7.01955089,7.66865754 7.66865754,7.01955089 7.97086517,6.1958882 L8.68954972,4.2371235 C9.18675154,2.88200688 10.5820073,2.07645558 12.0041736,2.32342449 L14.0598559,2.68040776 C14.9242726,2.83051962 15.8109687,2.59293009 16.4845195,2.0307211 L18.086301,0.69372338 C19.1944487,-0.231241127 20.8055513,-0.231241127 21.913699,0.69372338 L23.5154805,2.0307211 C24.1890312,2.59293009 25.0757274,2.83051962 25.940144,2.68040776 L27.9958264,2.32342449 C29.4179927,2.07645558 30.8132484,2.88200688 31.3104503,4.2371235 L32.0291348,6.1958882 C32.3313424,7.01955089 32.9804491,7.66865754 33.8041118,7.97086517 L35.7628764,8.68954972 C37.1179931,9.18675154 37.9235444,10.5820073 37.6765755,12.0041736 L37.3195922,14.0598559 C37.1694803,14.9242726 37.4070699,15.8109687 37.9692789,16.4845195 L39.3062766,18.086301 C40.2312411,19.1944487 40.2312411,20.8055513 39.3062766,21.913699 L37.9692789,23.5154805 C37.4070699,24.1890312 37.1694803,25.0757274 37.3195922,25.940144 L37.6765755,27.9958264 C37.9235444,29.4179927 37.1179931,30.8132484 35.7628764,31.3104503 L33.8041118,32.0291348 C32.9804491,32.3313424 32.3313424,32.9804491 32.0291348,33.8041118 L31.3104503,35.7628764 C30.8132484,37.1179931 29.4179927,37.9235444 27.9958264,37.6765755 L25.940144,37.3195922 C25.0757274,37.1694803 24.1890312,37.4070699 23.5154805,37.9692789 Z M17.3051374,28.3255342 L30.3106763,15.6812168 L27.5789372,13.0189162 L17.3051374,23.000933 L13.4369591,19.2617119 L10.7052199,21.9240125 L17.3051374,28.3255342 Z"/></svg>
