<svg xmlns="http://www.w3.org/2000/svg" width="26" height="26" viewBox="0 0 26 26"><path fill="#535C69" d="M21.8481,15.16722 C21.8481,16.02684 20.6505,17.39561 20.4184,17.17779 C20.1862,16.95997 16.5837,15.59658 16.3515,15.37966 C16.1469,14.65842 16.0678,13.90738 16.1176,13.15934 C16.1176,12.71115 12.49082,12.48078 12.4218,12.4763 C12.35278,12.47182 8.72694,12.70308 8.72784,13.15217 C8.77926,13.89972 8.70133,14.65054 8.49747,15.37159 C8.26531,15.58851 4.66636,16.94563 4.4342,17.16434 C4.20204,17.38306 3,16.01071 3,15.15108 C3,14.41695 3.553064,11.18104 9.11866,10.259562 C10.20309,10.0495235 11.3083,9.9664977 12.41194,10.012162 L12.42449,10.012162 C13.5284,9.9684738 14.6336,10.0536063 15.7178,10.265836 C21.2879,11.19627 21.8481,14.43309 21.8481,15.16722 Z" transform="rotate(-135 12.424 13.6)"/></svg>
