<svg width="18" height="18" viewBox="0 0 18 18" fill="none" xmlns="http://www.w3.org/2000/svg">
    <path fill-rule="evenodd" clip-rule="evenodd" d="M14.8749 13.7989H3.13115V5.05679H14.8749V13.7989ZM13.8125 2.24296V1.69268H15.0364C16.154 1.76311 17.0198 2.73271 16.9997 3.8938V14.8994C16.9997 15.5069 16.5248 16 15.9373 16H2.06876C1.48233 16 1.00638 15.5069 1.00638 14.8994V3.8938C1.00213 3.83657 1 3.78044 1 3.72431C1.00213 2.59954 1.88391 1.69047 2.96967 1.69268H4.19354V2.24296C4.19354 3.15422 4.9064 3.8938 5.78712 3.8938C6.66784 3.8938 7.3807 3.15422 7.3807 2.24296V1.69268H10.6253V2.24296C10.6253 3.15422 11.3392 3.8938 12.2189 3.8938C13.0986 3.8938 13.8125 3.15422 13.8125 2.24296ZM6.56798 0.814427V2.02505C6.56798 2.47187 6.21845 2.83396 5.78712 2.83396C5.35579 2.83396 5.00627 2.47187 5.00627 2.02505V0.814427V0.803421C5.00839 0.357693 5.3611 -0.00218997 5.79243 1.00331e-05C6.22376 0.00331243 6.5701 0.367599 6.56798 0.814427ZM12.9562 0.844142V1.99203C12.9562 2.41354 12.6258 2.75582 12.2178 2.75582C11.8099 2.75472 11.4816 2.41244 11.4816 1.99093V0.844142C11.4816 0.421527 11.812 0.0803508 12.2189 0.0803508C12.6258 0.0803508 12.9562 0.421527 12.9562 0.844142ZM5.53434 7.02729C5.2582 7.02729 5.03434 7.25115 5.03434 7.52729V8.52396C5.03434 8.8001 5.2582 9.02396 5.53434 9.02396H6.54421C6.82035 9.02396 7.04421 8.8001 7.04421 8.52396V7.52729C7.04421 7.25115 6.82035 7.02729 6.54421 7.02729H5.53434ZM5.53434 10.0223C5.2582 10.0223 5.03434 10.2461 5.03434 10.5223V11.519C5.03434 11.7951 5.2582 12.019 5.53434 12.019H6.54421C6.82035 12.019 7.04421 11.7951 7.04421 11.519V10.5223C7.04421 10.2461 6.82035 10.0223 6.54421 10.0223H5.53434ZM8.04914 7.52729C8.04914 7.25115 8.273 7.02729 8.54914 7.02729H9.559C9.83514 7.02729 10.059 7.25115 10.059 7.52729V8.52396C10.059 8.8001 9.83514 9.02396 9.559 9.02396H8.54914C8.273 9.02396 8.04914 8.8001 8.04914 8.52396V7.52729ZM8.54914 10.0223C8.273 10.0223 8.04914 10.2461 8.04914 10.5223V11.519C8.04914 11.7951 8.273 12.019 8.54914 12.019H9.559C9.83514 12.019 10.059 11.7951 10.059 11.519V10.5223C10.059 10.2461 9.83514 10.0223 9.559 10.0223H8.54914ZM11.0639 7.52729C11.0639 7.25115 11.2878 7.02729 11.5639 7.02729H12.5738C12.8499 7.02729 13.0738 7.25115 13.0738 7.52729V8.52396C13.0738 8.8001 12.8499 9.02396 12.5738 9.02396H11.5639C11.2878 9.02396 11.0639 8.8001 11.0639 8.52396V7.52729Z" fill="#828B95"/>
</svg>
