<svg width="18" height="18" viewBox="0 0 18 18" fill="none" xmlns="http://www.w3.org/2000/svg">
    <path fill-rule="evenodd" clip-rule="evenodd" d="M3 2H7C7.55228 2 8 2.44772 8 3V7C8 7.55228 7.55228 8 7 8H3C2.44772 8 2 7.55228 2 7V3C2 2.44772 2.44772 2 3 2ZM3 10H7C7.55228 10 8 10.4477 8 11V15C8 15.5523 7.55228 16 7 16H3C2.44772 16 2 15.5523 2 15V11C2 10.4477 2.44772 10 3 10ZM11.5 3.5V6.5H14.5V3.5H11.5ZM11 2H15C15.5523 2 16 2.44772 16 3V7C16 7.55228 15.5523 8 15 8H11C10.4477 8 10 7.55228 10 7V3C10 2.44772 10.4477 2 11 2ZM11 10H15C15.5523 10 16 10.4477 16 11V15C16 15.5523 15.5523 16 15 16H11C10.4477 16 10 15.5523 10 15V11C10 10.4477 10.4477 10 11 10Z" fill="#828B95"/>
</svg>
