<svg width="18" height="18" viewBox="0 0 18 18" fill="none" xmlns="http://www.w3.org/2000/svg">
    <path fill-rule="evenodd" clip-rule="evenodd" d="M6.35105 4C6.35105 3.44772 6.79876 3 7.35105 3H10.5723C11.1246 3 11.5723 3.44772 11.5723 4V7.22126C11.5723 7.56867 11.3951 7.8747 11.1262 8.05395L12.5638 9.96168H14.9234C15.4756 9.96168 15.9234 10.4094 15.9234 10.9617V14.1829C15.9234 14.7352 15.4756 15.1829 14.9234 15.1829H11.7021C11.1498 15.1829 10.7021 14.7352 10.7021 14.1829V10.9617C10.7021 10.6408 10.8532 10.3553 11.0881 10.1723L9.61789 8.22126H8.31905L6.84377 10.179C7.07381 10.3622 7.22126 10.6447 7.22126 10.9617V14.1829C7.22126 14.7352 6.77354 15.1829 6.22126 15.1829H3C2.44772 15.1829 2 14.7352 2 14.1829V10.9617C2 10.4094 2.44772 9.96168 3 9.96168H5.37312L6.80619 8.05993C6.5322 7.88156 6.35105 7.57256 6.35105 7.22126V4Z" fill="#828B95"/>
</svg>
