<svg width="18" height="18" viewBox="0 0 18 18" fill="none" xmlns="http://www.w3.org/2000/svg">
    <path fill-rule="evenodd" clip-rule="evenodd" d="M4 1.5C3.44772 1.5 3 1.94772 3 2.5V15.5C3 16.0523 3.44772 16.5 4 16.5H14.0227C14.575 16.5 15.0227 16.0523 15.0227 15.5V6.50028C15.0227 5.99809 14.8338 5.51427 14.4935 5.14497L11.7287 2.1447C11.3501 1.73377 10.8168 1.5 10.258 1.5H4ZM5.81162 5.48241C5.37545 5.48241 5.02186 5.836 5.02186 6.27217C5.02186 6.70834 5.37545 7.06193 5.81162 7.06193H11.6293C12.0655 7.06193 12.4191 6.70834 12.4191 6.27217C12.4191 5.836 12.0655 5.48241 11.6293 5.48241H5.81162ZM5.81162 8.48241C5.37545 8.48241 5.02186 8.836 5.02186 9.27217C5.02186 9.70834 5.37545 10.0619 5.81162 10.0619H11.6293C12.0655 10.0619 12.4191 9.70834 12.4191 9.27217C12.4191 8.836 12.0655 8.48241 11.6293 8.48241H5.81162ZM5.02186 12.232C5.02186 11.7958 5.37545 11.4422 5.81162 11.4422H9.92524C10.3614 11.4422 10.715 11.7958 10.715 12.232C10.715 12.6681 10.3614 13.0217 9.92524 13.0217H5.81162C5.37545 13.0217 5.02186 12.6681 5.02186 12.232Z" fill="#828B95"/>
</svg>
