<svg width="18" height="18" viewBox="0 0 18 18" fill="none" xmlns="http://www.w3.org/2000/svg">
    <path fill-rule="evenodd" clip-rule="evenodd" d="M6.78418 3.00001C7.70745 3.00001 8.45591 3.74847 8.45591 4.67175V9.46353C8.45591 10.4596 8.34801 11.0351 8.13219 11.9149C7.91637 12.7948 7.58436 13.5667 7.13613 14.2308C6.68789 14.8948 6.11516 15.4261 5.41791 15.8245C4.76324 16.1986 4.00613 16.3971 3.14656 16.4199C3.09066 16.4214 2.97755 16.5003 2.97755 16.2682V14.2308C2.97755 13.9395 3.10612 13.9301 3.16843 13.9264C3.64764 13.8976 4.04884 13.7584 4.37204 13.5086C4.73727 13.2264 5.03609 12.8529 5.2685 12.3881C5.50092 11.9232 5.65863 11.4003 5.74163 10.8193C5.82464 10.2382 5.86614 10.028 5.86614 9.46353H3.67173C2.74846 9.46353 2 8.71507 2 7.7918L2 4.67175C2 3.74847 2.74846 3.00001 3.67173 3.00001L6.78418 3.00001ZM14.5053 3C15.4285 3 16.177 3.74846 16.177 4.67173V9.46352C16.177 10.4596 16.0691 11.0351 15.8533 11.9149C15.6375 12.7948 15.3054 13.5667 14.8572 14.2308C14.409 14.8948 13.8362 15.4261 13.139 15.8245C12.4843 16.1986 11.7272 16.3971 10.8676 16.4199C10.8117 16.4214 10.6986 16.5003 10.6986 16.2682V14.2308C10.6986 13.9395 10.8272 13.9301 10.8895 13.9264C11.3687 13.8976 11.7699 13.7584 12.0931 13.5086C12.4584 13.2264 12.7572 12.8529 12.9896 12.3881C13.222 11.9232 13.3797 11.4003 13.4627 10.8193C13.5457 10.2382 13.5872 10.028 13.5872 9.46352H11.3928C10.4695 9.46352 9.72108 8.71506 9.72108 7.79179V4.67173C9.72108 3.74846 10.4695 3 11.3928 3L14.5053 3Z" fill="#828B95"/>
</svg>
