<svg width="18" height="18" viewBox="0 0 18 18" fill="none" xmlns="http://www.w3.org/2000/svg">
    <path d="M2.99902 4.55828C2.99902 4.02828 3.42867 3.59863 3.95867 3.59863H10.9684C11.4984 3.59863 11.928 4.02828 11.928 4.55828V9.33572C11.928 9.86572 11.4984 10.2954 10.9684 10.2954H7.46362L5.53852 12.2205C5.42517 12.3338 5.23136 12.2535 5.23136 12.0932V10.2954H3.95867C3.42867 10.2954 2.99902 9.86572 2.99902 9.33572V4.55828Z" fill="#828B95"/>
    <path d="M7.46354 11.7835V12.312C7.46354 12.842 7.89319 13.2717 8.42319 13.2717H11.0778L12.3557 14.7626C12.4644 14.8894 12.6723 14.8125 12.6723 14.6455V13.2717H13.9447C14.4747 13.2717 14.9044 12.842 14.9044 12.312V7.53461C14.9044 7.00461 14.4747 6.57496 13.9447 6.57496H13.4164V10.524C13.4164 11.2196 12.8525 11.7835 12.1569 11.7835H7.46354Z" fill="#828B95"/>
</svg>
