<svg width="18" height="18" viewBox="0 0 18 18" fill="none" xmlns="http://www.w3.org/2000/svg">
    <path fill-rule="evenodd" clip-rule="evenodd" d="M16 14.8589C16 15.4881 15.483 16 14.8476 16H3.15243C2.517 16 2 15.4881 2 14.8589V2.1411C2 1.51192 2.517 1 3.15243 1H14.8476C15.483 1 16 1.51192 16 2.1411V14.8589ZM4.6 7C4.26863 7 4 7.26863 4 7.6V10.3693C4 10.7007 4.26863 10.9693 4.6 10.9693H12.4C12.7314 10.9693 13 10.7007 13 10.3693V7.6C13 7.26863 12.7314 7 12.4 7H4.6ZM7.75741 4C7.33911 4 7 4.33911 7 4.75741C7 5.17572 7.33911 5.51482 7.75741 5.51482H12.2426C12.6609 5.51482 13 5.17572 13 4.75741C13 4.33911 12.6609 4 12.2426 4H7.75741ZM5 5.8C5.55228 5.8 6 5.35228 6 4.8C6 4.24772 5.55228 3.8 5 3.8C4.44772 3.8 4 4.24772 4 4.8C4 5.35228 4.44772 5.8 5 5.8Z" fill="#828B95"/>
</svg>
