<svg width="18" height="18" viewBox="0 0 18 18" fill="none" xmlns="http://www.w3.org/2000/svg">
    <path fill-rule="evenodd" clip-rule="evenodd" d="M3.28443 5.75379C3.28654 5.7532 3.28868 5.75267 3.29086 5.75221L16.2436 3.01321C16.6167 2.93431 16.9677 3.2189 16.9677 3.60022V12.9893C16.9677 13.3829 16.595 13.6699 16.2144 13.5693L11.2457 12.256V13.8462C11.2457 14.3985 10.798 14.8462 10.2457 14.8462H5.5716C5.01931 14.8462 4.5716 14.3985 4.5716 13.8462V10.4918L3.28599 10.152L3.28059 10.1504C3.25334 10.1707 3.22232 10.1866 3.18844 10.1969L1.38695 10.7424C1.1943 10.8007 1 10.6565 1 10.4553V5.44606C1 5.24477 1.1943 5.1006 1.38695 5.15893L3.18844 5.70446C3.22392 5.71521 3.25626 5.73211 3.28443 5.75379ZM9.93073 11.9084L5.88656 10.8394V13.3713C5.88656 13.537 6.02088 13.6713 6.18656 13.6713H9.63072C9.79641 13.6713 9.93073 13.537 9.93073 13.3713V11.9084Z" fill="#828B95"/>
</svg>