<svg width="18" height="18" viewBox="0 0 18 18" fill="none" xmlns="http://www.w3.org/2000/svg">
    <path d="M3.63343 2.4946L4.10619 4.53678L15.9475 4.51485C16.1448 4.51569 16.3304 4.60721 16.4513 4.76172C16.5731 4.91708 16.6167 5.11861 16.5714 5.31006L15.3672 11.996C15.2984 12.2848 15.0406 12.4889 14.7442 12.4906H5.20211C4.90569 12.4889 4.64791 12.2848 4.57905 11.996L2.49405 3.2898H0.644901C0.288732 3.2898 0 3.00107 0 2.6449C0 2.28873 0.288732 2 0.6449 2H3.00954C3.30679 2.00168 3.56374 2.20572 3.63343 2.4946Z" fill="#828B95"/>
    <path d="M8.70316 14.8552C8.70316 15.757 7.97178 16.4884 7.06907 16.4884C6.16722 16.4884 5.43581 15.7571 5.43581 14.8552C5.43581 13.9525 6.1672 13.2211 7.06907 13.2211C7.97176 13.2211 8.70316 13.9525 8.70316 14.8552Z" fill="#828B95"/>
    <path d="M14.4645 14.8552C14.4645 15.757 13.7331 16.4884 12.8304 16.4884C11.9285 16.4884 11.1971 15.7571 11.1971 14.8552C11.1971 13.9525 11.9285 13.2211 12.8304 13.2211C13.7331 13.2211 14.4645 13.9525 14.4645 14.8552Z" fill="#828B95"/>
</svg>
