<svg width="18" height="18" viewBox="0 0 18 18" fill="none" xmlns="http://www.w3.org/2000/svg">
    <path fill-rule="evenodd" clip-rule="evenodd" d="M12.3726 7.87791C12.3726 7.87791 12.3561 8.20195 12.34 8.24526C12.3032 8.30122 12.2722 8.36078 12.2474 8.42302C12.2683 8.42302 12.4841 8.52552 12.4841 8.52552L13.3199 8.79346L13.3079 9.19845C13.149 9.2633 12.814 9.50916 12.7563 9.58887C13.5178 9.90463 14.2172 10.536 14.2352 11.0532C14.2475 11.1453 14.7086 12.8403 14.7361 13.2219H17.9999C18.0028 13.206 17.8939 11.0135 17.8927 10.9969C17.8927 10.9969 17.6908 10.4688 17.3708 10.4151C17.053 10.3739 16.7462 10.2712 16.4676 10.1128C16.2835 10.0038 16.0893 9.91284 15.8876 9.84133C15.7843 9.74838 15.7043 9.63243 15.654 9.50285C15.548 9.36795 15.4087 9.26303 15.2497 9.19845L15.2379 8.79346L16.0739 8.52646C16.0739 8.52646 16.2896 8.42397 16.3106 8.42397C16.2772 8.35258 16.2387 8.28368 16.1953 8.21781C16.1795 8.17473 16.1007 7.87933 16.1007 7.87933C16.2226 8.03863 16.3659 8.18026 16.5267 8.30018C16.3843 8.02823 16.2625 7.74601 16.1622 7.45587C16.0952 7.18726 16.0485 6.91396 16.0228 6.63831C15.9653 6.12606 15.8759 5.6179 15.7551 5.11681C15.6692 4.86782 15.5162 4.64739 15.3129 4.47985C15.015 4.26839 14.6653 4.14161 14.301 4.11296C14.2942 4.11296 14.2876 4.11296 14.2805 4.11296C14.2734 4.11296 14.2667 4.11296 14.2591 4.11296C13.8949 4.1415 13.5452 4.2683 13.2473 4.47985C13.0443 4.6476 12.8914 4.86796 12.8053 5.11681C12.6842 5.61786 12.5947 6.12603 12.5374 6.63831C12.5153 6.92014 12.4709 7.19977 12.4046 7.47457C12.3043 7.75958 12.1802 8.03567 12.0337 8.29994C12.1936 8.17942 12.3726 7.87791 12.3726 7.87791ZM14.204 15.145C14.204 14.4223 13.4098 11.365 13.4098 11.365C13.4098 11.365 12.8379 10.4076 11.711 10.1103C11.3282 10.0011 10.965 9.83231 10.6347 9.61019C10.5818 9.47253 10.5608 9.32464 10.5735 9.1777L10.2123 9.12119C10.2123 9.08951 10.1814 8.62136 10.1814 8.62136C10.6154 8.47244 10.5708 7.59371 10.5708 7.59371C10.8465 7.74976 11.026 7.05533 11.026 7.05533C11.3521 6.08973 10.8636 6.14782 10.8636 6.14782C10.9491 5.55795 10.9491 4.95885 10.8636 4.36898C10.6466 2.4127 7.37672 2.94316 7.7646 3.58266C6.80903 3.40206 7.02713 5.62317 7.02713 5.62317L7.2344 6.19746C6.82752 6.46652 7.1103 6.79288 7.12403 7.16834C7.1441 7.72283 7.47547 7.60771 7.47547 7.60771C7.49607 8.52208 7.93728 8.64222 7.93728 8.64222C8.02019 9.21651 7.9687 9.11749 7.9687 9.11749L7.57581 9.16608C7.58118 9.29658 7.57081 9.42725 7.54492 9.55527C7.08179 9.76651 6.9833 9.88902 6.52413 10.0942C5.63695 10.4902 4.67268 11.0075 4.50158 11.7025C4.33048 12.3974 3.81982 15.145 3.81982 15.145H14.204ZM5.69743 8.24275C5.73448 8.29908 5.7657 8.35903 5.79059 8.42168C5.76962 8.42168 5.55233 8.52485 5.55233 8.52485L4.71082 8.79431L4.72297 9.20196C4.88287 9.26724 5.02309 9.37289 5.12991 9.5086C5.17039 9.59898 5.22005 9.68497 5.2781 9.7652C4.51164 10.083 3.80764 10.5483 3.78977 11.0689C3.77714 11.1616 3.31326 12.8677 3.28562 13.2518H5.49787e-05C-0.00280407 13.2358 0.106793 11.0289 0.107746 11.0122C0.107746 11.0122 0.310977 10.4807 0.633097 10.4266C0.953019 10.3851 1.26181 10.2818 1.54228 10.1223C1.72755 10.0126 1.92304 9.92105 2.126 9.84906C2.23002 9.75551 2.31058 9.6388 2.36116 9.50836C2.46785 9.37258 2.60812 9.26698 2.76809 9.20196L2.78025 8.79431L1.93873 8.52556C1.93873 8.52556 1.72168 8.4224 1.70048 8.4224C1.73407 8.35055 1.77277 8.2812 1.81627 8.21488C1.83223 8.17151 1.91157 7.87417 1.91157 7.87417C1.78889 8.03453 1.64456 8.17709 1.48271 8.29779C1.62605 8.02406 1.74869 7.73998 1.84962 7.44794C1.91712 7.17756 1.96403 6.90247 1.98996 6.625C2.04779 6.10939 2.13779 5.59789 2.25942 5.09351C2.3459 4.84289 2.49992 4.62102 2.70448 4.45236C3.0044 4.23952 3.35638 4.1119 3.72302 4.08307C3.72993 4.08307 3.7366 4.08307 3.74375 4.08307C3.75089 4.08307 3.75756 4.08307 3.76519 4.08307C4.13185 4.11179 4.48386 4.23942 4.78373 4.45236C4.98802 4.62122 5.14191 4.84303 5.22855 5.09351C5.35046 5.59785 5.44054 6.10936 5.49825 6.625C5.52047 6.90868 5.56516 7.19015 5.63191 7.46676C5.73293 7.75363 5.85782 8.03154 6.00526 8.29755C5.84439 8.17622 5.70103 8.03327 5.57926 7.87274C5.57926 7.87274 5.68123 8.19915 5.69743 8.24275Z" fill="#828B95"/>
</svg>
