<svg width="18" height="18" viewBox="0 0 18 18" fill="none" xmlns="http://www.w3.org/2000/svg">
    <path d="M8.24411 5.99097H9.74411V8.24097H11.9941V9.74097H8.24411V5.99097Z" fill="#828B95"/>
    <path fill-rule="evenodd" clip-rule="evenodd" d="M3.54934 11.451C4.54959 13.6753 6.80105 15.0687 9.23796 14.9715C12.4709 14.9053 15.0391 12.2326 14.9762 8.99959C14.976 6.56074 13.494 4.36666 11.2316 3.45595C8.96913 2.54524 6.3803 3.10063 4.69053 4.85921C3.00076 6.6178 2.54909 9.22673 3.54934 11.451ZM4.94062 10.8254C5.68558 12.482 7.36239 13.5197 9.17732 13.4473C11.5851 13.3981 13.4978 11.4075 13.451 8.99966C13.4509 7.18328 12.3471 5.5492 10.6621 4.87093C8.97711 4.19267 7.04903 4.6063 5.79054 5.91604C4.53206 7.22578 4.19567 9.16882 4.94062 10.8254Z" fill="#828B95"/>
</svg>