<svg width="18" height="18" viewBox="0 0 18 18" fill="none" xmlns="http://www.w3.org/2000/svg">
    <path d="M13.1359 13.6444C13.6423 13.4778 13.9199 12.9491 13.8172 12.426L13.6728 11.6907C13.6002 11.231 13.0663 10.715 11.8719 10.4118C11.4672 10.301 11.0826 10.1293 10.7316 9.90259C10.6549 9.85954 10.6665 9.46181 10.6665 9.46181L10.2819 9.40434C10.2819 9.37205 10.249 8.89509 10.249 8.89509C10.7092 8.74328 10.6619 7.84775 10.6619 7.84775C10.9542 8.00689 11.1445 7.29821 11.1445 7.29821C11.4902 6.31361 10.9724 6.37315 10.9724 6.37315C11.063 5.77207 11.063 5.16118 10.9724 4.56011C10.7421 2.56618 7.27563 3.10748 7.68667 3.75869C6.67354 3.57551 6.90472 5.83826 6.90472 5.83826L7.12447 6.42421C6.81989 6.61813 6.8797 6.84069 6.94651 7.08929C6.97437 7.19293 7.00344 7.3011 7.00783 7.41361C7.02906 7.97827 7.38107 7.86126 7.38107 7.86126C7.40277 8.7932 7.87096 8.91455 7.87096 8.91455C7.9589 9.49982 7.90408 9.40021 7.90408 9.40021L7.48745 9.44967C7.49309 9.58277 7.48204 9.71604 7.45456 9.84649C7.21249 9.95239 7.06429 10.0367 6.91755 10.1201C6.76734 10.2055 6.61866 10.29 6.37238 10.396C5.43181 10.8006 4.4885 11.0271 4.30678 11.7356C4.26499 11.8985 4.20464 12.1786 4.14663 12.4749C4.04851 12.9759 4.32487 13.471 4.80933 13.6322C5.99046 14.0252 7.30233 14.2569 8.68683 14.2866H9.29535C10.6654 14.2572 11.9644 14.03 13.1359 13.6444Z" fill="#828B95"/>
</svg>
