<svg width="18" height="18" viewBox="0 0 18 18" fill="none" xmlns="http://www.w3.org/2000/svg">
    <path fill-rule="evenodd" clip-rule="evenodd" d="M12.1995 13.2969C12.1755 13.3489 12.143 13.3982 12.1021 13.4426L11.9521 13.6053L11.6736 13.9524C11.6245 14.0128 11.5655 14.0604 11.5008 14.0947L11.4044 14.1993C11.1937 14.4278 10.8377 14.4423 10.6093 14.2316L7.03375 10.9348C6.80529 10.7241 6.79084 10.3681 7.00154 10.1397L7.55262 9.52957C7.76332 9.30112 8.1192 9.28666 8.34772 9.4973L10.7908 11.5649L16.1105 5.36945C16.3063 5.12832 16.6608 5.09158 16.902 5.28758L17.5054 5.78987C17.7466 5.98581 17.7833 6.34022 17.5874 6.58141L12.1995 13.2969ZM12.0841 4.06159C12.4223 4.06159 12.6964 4.33573 12.6964 4.67391V4.69308C12.6964 5.0312 12.4223 5.30533 12.0841 5.30533H7.51083C7.17271 5.30533 6.89851 5.0312 6.89851 4.69308V4.67391C6.89851 4.33573 7.17271 4.06159 7.51083 4.06159H12.0841ZM5.6739 4.06159C6.01209 4.06159 6.28622 4.33573 6.28622 4.67391C6.28622 5.01209 6.01209 5.28623 5.6739 5.28623H5.31037C4.97219 5.28623 4.69799 5.01209 4.69799 4.67391C4.69799 4.33573 4.97219 4.06159 5.31037 4.06159H5.6739ZM12.0841 6.51086C12.4223 6.51086 12.6964 6.785 12.6964 7.12318V7.14235C12.6964 7.48047 12.4223 7.7546 12.0841 7.7546H7.51083C7.17271 7.7546 6.89851 7.48047 6.89851 7.14235V7.12318C6.89851 6.785 7.17271 6.51086 7.51083 6.51086H12.0841ZM5.6739 6.51086C6.01209 6.51086 6.28622 6.785 6.28622 7.12318C6.28622 7.46136 6.01209 7.7355 5.6739 7.7355H5.31037C4.97219 7.7355 4.69799 7.46136 4.69799 7.12318C4.69799 6.785 4.97219 6.51086 5.31037 6.51086H5.6739ZM14.2464 13.5335L15.471 12.0005V15.6956C15.471 16.372 14.9227 16.9203 14.2464 16.9203H3.22464C2.54827 16.9203 2 16.372 2 15.6956V2.22464C2 1.54827 2.54827 1 3.22464 1H14.2464C14.9227 1 15.471 1.54827 15.471 2.22464V3.21065L14.2464 4.74365V2.22464H3.22464V15.6956H14.2464V13.5335Z" fill="#828B95"/>
</svg>
