<svg width="20" height="20" viewBox="0 0 20 20" fill="none" xmlns="http://www.w3.org/2000/svg">
	<path fill-rule="evenodd" clip-rule="evenodd" d="M16.359 9.70734C16.7239 9.70734 17.0197 10.0032 17.0197 10.3681V13.6716C17.0197 14.219 16.576 14.6627 16.0287 14.6627H3.97057C3.42321 14.6627 2.97949 14.219 2.97949 13.6716V10.3681C2.97949 10.0032 3.27531 9.70734 3.64021 9.70734H16.359ZM12.3948 11.3594H7.6046C7.35829 11.3594 7.15395 11.5391 7.11555 11.7745L7.10906 11.8549V12.5156C7.10906 12.7619 7.28877 12.9663 7.52422 13.0047L7.6046 13.0112H12.3948C12.6411 13.0112 12.8455 12.8314 12.8839 12.596L12.8903 12.5156V11.8549C12.8903 11.5812 12.6685 11.3594 12.3948 11.3594ZM5.45734 11.3594C5.00121 11.3594 4.63144 11.7291 4.63144 12.1853C4.63144 12.6414 5.00121 13.0112 5.45734 13.0112C5.91347 13.0112 6.28324 12.6414 6.28324 12.1853C6.28324 11.7291 5.91347 11.3594 5.45734 11.3594ZM14.2241 4.75195C14.5322 4.75195 14.8148 4.92353 14.9569 5.19697L16.6068 8.3715H3.47505L5.0459 5.21032C5.18544 4.92952 5.47195 4.75195 5.78551 4.75195H14.2241Z" fill="#A8ADB4"/>
</svg>
