<svg width="20" height="21" viewBox="0 0 20 21" fill="none" xmlns="http://www.w3.org/2000/svg">
<g id="Icons / Set 3 / Icon 38">
<g id="Union">
<path d="M8.55536 15.319H5.08615V8.02181H14.9175V10.8505H16.6795V7.05103C16.6962 6.08184 15.9782 5.27249 15.0514 5.2137H13.9459V5.67303C13.9459 6.43369 13.3539 7.05103 12.6244 7.05103C11.895 7.05103 11.3029 6.43369 11.3029 5.67303V5.2137H8.61007V5.67303C8.61007 6.43369 8.01893 7.05103 7.2886 7.05103C6.55827 7.05103 5.96713 6.43369 5.96713 5.67303V5.2137H4.95224C4.05188 5.21186 3.32067 5.97068 3.31891 6.90956C3.31891 6.95641 3.32067 7.00326 3.3242 7.05103V16.2377C3.3242 16.7448 3.71887 17.1564 4.20517 17.1564H8.55536V15.319Z" fill="#A8ADB4"/>
<path d="M7.93612 4.4806V5.49114C7.93612 5.86412 7.64628 6.16636 7.2886 6.16636C6.93092 6.16636 6.64108 5.86412 6.64108 5.49114V4.47142C6.64284 4.09936 6.93533 3.79895 7.293 3.80079C7.65068 3.80355 7.93788 4.10763 7.93612 4.4806Z" fill="#A8ADB4"/>
<path d="M13.2358 4.50506V5.46323C13.2358 5.81508 12.9618 6.10079 12.6235 6.10079C12.2852 6.09987 12.013 5.81416 12.013 5.46231V4.50506C12.013 4.15229 12.2869 3.8675 12.6244 3.8675C12.9618 3.8675 13.2358 4.15229 13.2358 4.50506Z" fill="#A8ADB4"/>
<path d="M6.66669 9.66667H8.33335V11.3333H6.66669V9.66667Z" fill="#A8ADB4"/>
<path d="M10.8334 9.66667H9.16669V11.3333H10.8334V9.66667Z" fill="#A8ADB4"/>
<path d="M10.028 13.4672C10.028 13.0069 10.4011 12.6338 10.8613 12.6338H16.4554C16.9156 12.6338 17.2887 13.0069 17.2887 13.4672V13.8838C17.2887 14.3441 16.9156 14.7172 16.4554 14.7172H10.8613C10.4011 14.7172 10.028 14.3441 10.028 13.8838V13.4672Z" fill="#A8ADB4"/>
<path d="M10.8613 15.9577C10.4011 15.9577 10.028 16.3308 10.028 16.791V17.2077C10.028 17.6679 10.4011 18.041 10.8613 18.041H16.4554C16.9156 18.041 17.2887 17.6679 17.2887 17.2077V16.791C17.2887 16.3308 16.9156 15.9577 16.4554 15.9577H10.8613Z" fill="#A8ADB4"/>
</g>
</g>
</svg>
