<svg width="20" height="20" viewBox="0 0 20 20" fill="none" xmlns="http://www.w3.org/2000/svg">
	<path fill-rule="evenodd" clip-rule="evenodd" d="M5.26404 7.40127C5.2658 7.40078 5.26759 7.40034 5.2694 7.39995L16.0633 5.11745C16.3742 5.05171 16.6668 5.28886 16.6668 5.60663V13.4308C16.6668 13.7589 16.3562 13.9981 16.039 13.9142L11.8984 12.8198V14.145C11.8984 14.6052 11.5253 14.9783 11.0651 14.9783H7.17002C6.70978 14.9783 6.33668 14.6052 6.33668 14.145V11.3496L5.26534 11.0665L5.26085 11.0651C5.23814 11.082 5.21229 11.0953 5.18405 11.1038L3.68281 11.5584C3.52227 11.607 3.36035 11.4869 3.36035 11.3192V7.14483C3.36035 6.97709 3.52227 6.85694 3.68281 6.90556L5.18405 7.36017C5.21362 7.36912 5.24057 7.38321 5.26404 7.40127ZM10.8026 12.5301L7.43249 11.6393V13.7492C7.43249 13.8873 7.54442 13.9992 7.68249 13.9992H10.5526C10.6907 13.9992 10.8026 13.8873 10.8026 13.7492V12.5301Z" fill="#FFC34D"/>
</svg>
