<svg width="21" height="21" viewBox="0 0 21 21" fill="none" xmlns="http://www.w3.org/2000/svg">
	<path fill-rule="evenodd" clip-rule="evenodd" d="M5.26404 7.90127C5.2658 7.90078 5.26759 7.90034 5.2694 7.89995L16.0633 5.61745C16.3742 5.55171 16.6668 5.78886 16.6668 6.10663V13.9308C16.6668 14.2589 16.3562 14.4981 16.039 14.4142L11.8984 13.3198V14.645C11.8984 15.1052 11.5253 15.4783 11.0651 15.4783H7.17002C6.70978 15.4783 6.33668 15.1052 6.33668 14.645V11.8496L5.26534 11.5665L5.26085 11.5651C5.23814 11.582 5.21229 11.5953 5.18405 11.6038L3.68281 12.0584C3.52227 12.107 3.36035 11.9869 3.36035 11.8192V7.64483C3.36035 7.47709 3.52227 7.35694 3.68281 7.40556L5.18405 7.86017C5.21362 7.86912 5.24057 7.88321 5.26404 7.90127ZM10.8026 13.0301L7.43249 12.1393V14.2492C7.43249 14.3873 7.54442 14.4992 7.68249 14.4992H10.5526C10.6907 14.4992 10.8026 14.3873 10.8026 14.2492V13.0301Z" fill="#9DCF00"/>
</svg>