<svg width="21" height="21" viewBox="0 0 21 21" fill="none" xmlns="http://www.w3.org/2000/svg">
	<path d="M3.33203 5.56444C3.33203 4.97556 3.80942 4.49817 4.39831 4.49817H12.1868C12.7757 4.49817 13.2531 4.97556 13.2531 5.56444V10.8727C13.2531 11.4616 12.7757 11.939 12.1868 11.939H8.29269L6.1537 14.078C6.02775 14.2039 5.8124 14.1147 5.8124 13.9366V11.939H4.39831C3.80942 11.939 3.33203 11.4616 3.33203 10.8727V5.56444Z" fill="#2FC6F6"/>
	<path d="M8.29261 13.5925V14.1797C8.29261 14.7686 8.76999 15.246 9.35888 15.246H12.3084L13.7283 16.9026C13.8491 17.0435 14.0801 16.9581 14.0801 16.7724V15.246H15.4939C16.0828 15.246 16.5602 14.7686 16.5602 14.1797V8.87147C16.5602 8.28259 16.0828 7.8052 15.4939 7.8052H14.9069V12.193C14.9069 12.966 14.2803 13.5925 13.5074 13.5925H8.29261Z" fill="#2FC6F6"/>
</svg>
