<svg width="20" height="20" viewBox="0 0 20 20" fill="none" xmlns="http://www.w3.org/2000/svg">
	<path fill-rule="evenodd" clip-rule="evenodd" d="M11.4167 4.02421L14.467 5.78525C15.3436 6.29137 15.8836 7.22673 15.8836 8.23899V11.7611C15.8836 12.7733 15.3436 13.7087 14.467 14.2148L11.4167 15.9758C10.5401 16.482 9.46005 16.482 8.58342 15.9758L5.5332 14.2148C4.65657 13.7087 4.11654 12.7733 4.11654 11.7611V8.23899C4.11654 7.22673 4.65657 6.29137 5.5332 5.78525L8.58342 4.02421C9.46005 3.51808 10.5401 3.51808 11.4167 4.02421ZM7.91675 2.86951C9.20592 2.1252 10.7942 2.1252 12.0834 2.86951L15.1336 4.63055C16.4228 5.37485 17.217 6.75038 17.217 8.23899V11.7611C17.217 13.2497 16.4228 14.6252 15.1336 15.3695L12.0834 17.1305C10.7942 17.8749 9.20592 17.8749 7.91675 17.1305L4.86654 15.3695C3.57737 14.6252 2.7832 13.2497 2.7832 11.7611V8.23899C2.7832 6.75038 3.57737 5.37485 4.86654 4.63055L7.91675 2.86951ZM13.0831 7.07839L10.871 5.93329C10.3248 5.65052 9.67523 5.65052 9.12898 5.93329L6.91685 7.07839C6.288 7.40391 5.89315 8.05292 5.89315 8.76103V11.2388C5.89315 11.947 6.288 12.596 6.91685 12.9215L9.07528 14.0388C9.65114 14.3369 10.3394 14.3198 10.8998 13.9935L13.1656 12.674C13.7484 12.3346 14.1068 11.711 14.1068 11.0366V8.76103C14.1068 8.05292 13.712 7.40391 13.0831 7.07839Z" fill="#19CC45"/>
</svg>
