<svg width="21" height="21" viewBox="0 0 21 21" fill="none" xmlns="http://www.w3.org/2000/svg">
	<path fill-rule="evenodd" clip-rule="evenodd" d="M12.3678 6.91912C10.8514 6.55369 9.33459 6.37097 7.81751 6.37097C6.29431 6.37097 4.74048 6.55517 3.15603 6.92356C2.81573 7.00268 2.57422 7.31277 2.57422 7.67051V13.7886C2.57422 14.1348 2.8007 14.4379 3.12669 14.5281C4.64067 14.9468 6.15516 15.1561 7.67015 15.1561C9.19352 15.1561 10.764 14.9444 12.3817 14.5211C12.7125 14.4345 12.944 14.129 12.944 13.779V7.6647C12.944 7.3092 12.7054 7.00044 12.3678 6.91912ZM17.6097 7.18138C17.6097 7.15353 17.6047 7.12591 17.5951 7.09987C17.5512 6.98123 17.4218 6.92154 17.3061 6.96656L13.9242 8.2821C13.8372 8.31596 13.7796 8.40147 13.7796 8.49692V12.6495C13.7796 12.7449 13.8372 12.8304 13.9242 12.8643L17.3061 14.1798C17.3315 14.1897 17.3584 14.1948 17.3856 14.1948C17.5093 14.1948 17.6097 14.0919 17.6097 13.965V7.18138ZM7.70057 11.4579C8.10569 11.4579 8.43411 11.1294 8.43411 10.7243C8.43411 10.3192 8.10569 9.99078 7.70057 9.99078C7.29544 9.99078 6.96702 10.3192 6.96702 10.7243C6.96702 11.1294 7.29544 11.4579 7.70057 11.4579ZM5.33366 11.4579C5.73879 11.4579 6.06721 11.1295 6.06721 10.7244C6.06721 10.3192 5.73879 9.9908 5.33366 9.9908C4.92853 9.9908 4.60011 10.3192 4.60011 10.7244C4.60011 11.1295 4.92853 11.4579 5.33366 11.4579ZM10.8023 10.7243C10.8023 11.1294 10.4739 11.4579 10.0687 11.4579C9.66361 11.4579 9.33519 11.1294 9.33519 10.7243C9.33519 10.3192 9.66361 9.99078 10.0687 9.99078C10.4739 9.99078 10.8023 10.3192 10.8023 10.7243Z" fill="#55D0E0"/>
</svg>