<svg width="21" height="20" viewBox="0 0 21 20" fill="none" xmlns="http://www.w3.org/2000/svg">
	<path fill-rule="evenodd" clip-rule="evenodd" d="M16.8333 10C17.2015 10 17.5 10.2985 17.5 10.6667V14C17.5 14.5523 17.0523 15 16.5 15H4.33334C3.78106 15 3.33334 14.5523 3.33334 14V10.6667C3.33334 10.2985 3.63182 10 4.00001 10H16.8333ZM12.8333 11.6667H8.00001C7.75148 11.6667 7.5453 11.848 7.50655 12.0856L7.50001 12.1667V12.8333C7.50001 13.0819 7.68133 13.288 7.91891 13.3268L8.00001 13.3333H12.8333C13.0819 13.3333 13.288 13.152 13.3268 12.9144L13.3333 12.8333V12.1667C13.3333 11.8905 13.1095 11.6667 12.8333 11.6667ZM5.83334 11.6667C5.37311 11.6667 5.00001 12.0398 5.00001 12.5C5.00001 12.9602 5.37311 13.3333 5.83334 13.3333C6.29358 13.3333 6.66668 12.9602 6.66668 12.5C6.66668 12.0398 6.29358 11.6667 5.83334 11.6667ZM14.6791 5C14.9901 5 15.2752 5.17312 15.4186 5.44903L17.0833 8.65213H3.83334L5.41834 5.4625C5.55913 5.17916 5.84822 5 6.16461 5H14.6791Z" fill="#A8ADB4"/>
</svg>