<svg width="20" height="21" viewBox="0 0 20 21" fill="none" xmlns="http://www.w3.org/2000/svg">
<g id="Icons / Set 3 / Icon 38">
<path id="Union" fill-rule="evenodd" clip-rule="evenodd" d="M12.4385 4.08295C12.1729 3.81456 11.7398 3.81311 11.4724 4.07972L4.49373 11.0382L6.54682 13.1129L13.5292 6.15078C13.7951 5.8856 13.7966 5.45529 13.5324 5.18834L12.4385 4.08295ZM3.39461 14.2114C3.34191 14.1573 3.32111 14.0797 3.34053 14.0062L3.95902 11.7118L5.89493 13.6471L3.59985 14.2654C3.52635 14.2862 3.44869 14.2654 3.39461 14.2114ZM4.64662 16.1234L4.06597 15.4948C4.14039 15.5006 4.21561 15.5035 4.29152 15.5035C5.51161 15.5035 6.55333 14.7398 6.96469 13.6643L7.16888 13.5195C7.61539 13.2027 8.22014 13.2305 8.63579 13.5867L9.8993 14.6697L11.1559 13.7123C11.7607 13.2515 12.6212 13.3487 13.108 13.9329L13.5656 14.4819L15.4441 13.5158C15.8627 13.3005 16.3766 13.4653 16.5918 13.8839C16.8071 14.3025 16.6423 14.8164 16.2237 15.0317L14.1427 16.1019C13.5511 16.4061 12.8276 16.2591 12.4018 15.748L11.9726 15.2331L10.6035 16.2762C10.156 16.6172 9.53104 16.5992 9.10384 16.233L7.82953 15.1407L6.21354 16.2871C5.72434 16.6341 5.05357 16.564 4.64662 16.1234Z" fill="#A8ADB4"/>
</g>
</svg>
