<svg width="20" height="20" viewBox="0 0 20 20" fill="none" xmlns="http://www.w3.org/2000/svg">
<path fill-rule="evenodd" clip-rule="evenodd" d="M5.79842 3.5863C5.33818 3.5863 4.96509 3.9594 4.96509 4.41964L4.96512 15.6459C4.96512 16.1062 5.33822 16.4792 5.79846 16.4792H14.2016C14.6618 16.4792 15.0349 16.1062 15.0349 15.6459V7.90302C15.0349 7.48453 14.8775 7.08135 14.5939 6.7736L12.2735 4.12355C11.9579 3.78111 11.5135 3.5863 11.0478 3.5863H5.79842ZM7.31668 7.05357C6.95321 7.05357 6.65855 7.35156 6.65855 7.71504C6.65855 8.07852 6.95321 8.37651 7.31668 8.37651H12.1961C12.5596 8.37651 12.8542 8.07852 12.8542 7.71504C12.8542 7.35156 12.5596 7.05357 12.1961 7.05357H7.31668ZM7.31668 9.56626C6.95321 9.56626 6.65855 9.86426 6.65855 10.2277C6.65855 10.5912 6.95321 10.8892 7.31668 10.8892H12.1961C12.5596 10.8892 12.8542 10.5912 12.8542 10.2277C12.8542 9.86426 12.5596 9.56626 12.1961 9.56626H7.31668ZM6.65855 12.7069C6.65855 12.3434 6.95321 12.0454 7.31668 12.0454H10.7688C11.1323 12.0454 11.4269 12.3434 11.4269 12.7069C11.4269 13.0704 11.1323 13.3684 10.7688 13.3684H7.31668C6.95321 13.3684 6.65855 13.0704 6.65855 12.7069Z" fill="#A8ADB4"/>
</svg>
