<svg width="20" height="21" viewBox="0 0 20 21" fill="none" xmlns="http://www.w3.org/2000/svg">
	<path fill-rule="evenodd" clip-rule="evenodd" d="M14.8954 15.8326H5.10897V8.54749H14.8954V15.8326ZM14.0101 6.20263V5.74406H15.03C15.9613 5.80276 16.6829 6.61075 16.6661 7.57833V16.7497C16.6661 17.2559 16.2703 17.6668 15.7807 17.6668H4.22364C3.73494 17.6668 3.33832 17.2559 3.33832 16.7497V7.57833C3.33478 7.53064 3.33301 7.48387 3.33301 7.43709C3.33478 6.49978 4.0696 5.74222 4.9744 5.74406H5.99429V6.20263C5.99429 6.96201 6.58834 7.57833 7.32228 7.57833C8.05621 7.57833 8.65026 6.96201 8.65026 6.20263V5.74406H11.3541V6.20263C11.3541 6.96201 11.949 7.57833 12.6821 7.57833C13.4151 7.57833 14.0101 6.96201 14.0101 6.20263ZM7.97299 5.01219V6.02103C7.97299 6.39339 7.68172 6.69513 7.32228 6.69513C6.96283 6.69513 6.67156 6.39339 6.67156 6.02103V5.01219V5.00301C6.67333 4.63157 6.96726 4.33167 7.3267 4.3335C7.68614 4.33626 7.97476 4.63983 7.97299 5.01219ZM13.2965 5.03695V5.99352C13.2965 6.34478 13.0212 6.63001 12.6812 6.63001C12.3412 6.6291 12.0677 6.34387 12.0677 5.9926V5.03695C12.0677 4.68477 12.343 4.40045 12.6821 4.40045C13.0212 4.40045 13.2965 4.68477 13.2965 5.03695ZM7.19496 10.1896C6.91882 10.1896 6.69496 10.4134 6.69496 10.6896V11.3535C6.69496 11.6296 6.91882 11.8535 7.19496 11.8535H7.86985C8.14599 11.8535 8.36985 11.6296 8.36985 11.3535V10.6896C8.36985 10.4134 8.14599 10.1896 7.86985 10.1896H7.19496ZM7.19496 12.6854C6.91882 12.6854 6.69496 12.9093 6.69496 13.1854V13.8493C6.69496 14.1254 6.91882 14.3493 7.19496 14.3493H7.86985C8.14599 14.3493 8.36985 14.1254 8.36985 13.8493V13.1854C8.36985 12.9093 8.14599 12.6854 7.86985 12.6854H7.19496ZM9.20729 10.6896C9.20729 10.4134 9.43115 10.1896 9.70729 10.1896H10.3822C10.6583 10.1896 10.8822 10.4134 10.8822 10.6896V11.3535C10.8822 11.6296 10.6583 11.8535 10.3822 11.8535H9.70729C9.43115 11.8535 9.20729 11.6296 9.20729 11.3535V10.6896ZM9.70729 12.6854C9.43115 12.6854 9.20729 12.9093 9.20729 13.1854V13.8493C9.20729 14.1254 9.43115 14.3493 9.70729 14.3493H10.3822C10.6583 14.3493 10.8822 14.1254 10.8822 13.8493V13.1854C10.8822 12.9093 10.6583 12.6854 10.3822 12.6854H9.70729ZM11.7196 10.6896C11.7196 10.4134 11.9435 10.1896 12.2196 10.1896H12.8945C13.1706 10.1896 13.3945 10.4134 13.3945 10.6896V11.3535C13.3945 11.6296 13.1706 11.8535 12.8945 11.8535H12.2196C11.9435 11.8535 11.7196 11.6296 11.7196 11.3535V10.6896Z" fill="#9DCF00"/>
</svg>