<svg width="20" height="20" viewBox="0 0 20 20" fill="none" xmlns="http://www.w3.org/2000/svg">
	<path fill-rule="evenodd" clip-rule="evenodd" d="M15.8334 15.7157C15.8334 16.24 15.4025 16.6666 14.873 16.6666H5.12704C4.59752 16.6666 4.16669 16.24 4.16669 15.7157V5.11755C4.16669 4.59323 4.59752 4.16663 5.12704 4.16663H14.873C15.4025 4.16663 15.8334 4.59323 15.8334 5.11755V15.7157ZM6.33335 9.16663C6.05721 9.16663 5.83335 9.39048 5.83335 9.66663V11.9744C5.83335 12.2505 6.05721 12.4744 6.33335 12.4744H12.8334C13.1095 12.4744 13.3334 12.2505 13.3334 11.9744V9.66663C13.3334 9.39048 13.1095 9.16663 12.8334 9.16663H6.33335ZM8.96453 6.66663C8.61594 6.66663 8.33335 6.94921 8.33335 7.2978C8.33335 7.64639 8.61594 7.92898 8.96453 7.92898H12.7022C13.0508 7.92898 13.3334 7.64639 13.3334 7.2978C13.3334 6.94921 13.0508 6.66663 12.7022 6.66663H8.96453ZM6.66669 8.16663C7.12692 8.16663 7.50002 7.79353 7.50002 7.33329C7.50002 6.87306 7.12692 6.49996 6.66669 6.49996C6.20645 6.49996 5.83335 6.87306 5.83335 7.33329C5.83335 7.79353 6.20645 8.16663 6.66669 8.16663Z" fill="#FF5752"/>
</svg>
