<svg width="20" height="20" viewBox="0 0 20 20" fill="none" xmlns="http://www.w3.org/2000/svg">
	<path fill-rule="evenodd" clip-rule="evenodd" d="M5.53921 4.16663H14.4608C15.2188 4.16663 15.8333 4.78114 15.8333 5.53917V14.4607C15.8333 15.2188 15.2188 15.8333 14.4608 15.8333H5.53921C4.78117 15.8333 4.16666 15.2188 4.16666 14.4607V5.53917C4.16666 4.78114 4.78117 4.16663 5.53921 4.16663ZM5.57474 14.4255H14.4655V13.7416L12.0948 11.0058L10.9092 12.3739L7.94544 8.95422L5.57474 11.6897V14.4255ZM12.4473 8.6939C13.0809 8.6939 13.5944 8.18032 13.5944 7.5468C13.5944 6.91327 13.0809 6.3997 12.4473 6.3997C11.8138 6.3997 11.3002 6.91327 11.3002 7.5468C11.3002 8.18032 11.8138 8.6939 12.4473 8.6939Z" fill="#A8ADB4"/>
</svg>