<svg width="16" height="16" viewBox="0 0 16 16" fill="none" xmlns="http://www.w3.org/2000/svg">
<path d="M1.70678 11.6679C1.51678 12.1336 1.36108 12.5263 1.36108 12.5414C1.36108 12.5587 1.61705 12.5671 1.95481 12.5708C2.91305 12.5812 3.77522 11.9795 4.11608 11.0839L4.38789 10.3664L6.41983 10.3589L8.45178 10.3538L8.85553 11.3532C8.9377 11.5576 9.01886 11.7625 9.10163 11.9668C9.2507 12.3346 9.61006 12.5818 10.0061 12.6076C10.6428 12.649 11.4946 12.6914 11.5841 12.549C11.5894 12.5389 10.6764 10.3438 9.55483 7.67286L7.51497 2.81435C6.19232 2.80673 4.99415 3.59607 4.49042 4.81907C3.55194 7.09758 2.63758 9.38641 1.70678 11.6679ZM7.09803 6.92772C7.47011 7.88683 7.77094 8.67728 7.76567 8.68232C7.76039 8.68735 7.14289 8.68987 6.39608 8.68735L5.0397 8.6798L5.71261 6.91261C6.08469 5.94091 6.39608 5.15298 6.404 5.16305C6.41192 5.17312 6.72594 5.96609 7.09803 6.92772Z" fill="white"/>
<mask id="mask0_1815_8762" style="mask-type:alpha" maskUnits="userSpaceOnUse" x="1" y="2" width="11" height="11">
<path d="M5.20595 3.09641C5.13997 3.26004 5.03178 3.52436 4.96581 3.68296C4.83914 3.99763 3.95775 6.15752 2.77289 9.05752C2.50108 9.72211 2.22928 10.3892 2.16594 10.5428C2.10525 10.6938 1.89678 11.2023 1.70678 11.668C1.51678 12.1337 1.36108 12.5264 1.36108 12.5416C1.36108 12.5617 1.68831 12.5692 2.45358 12.5692H3.13355C3.38205 12.5692 3.60484 12.4161 3.69386 12.1841C3.77567 11.9751 3.96567 11.4792 4.11608 11.084L4.38789 10.3666L6.41983 10.359L8.45178 10.354L8.85553 11.3534C8.94262 11.57 9.02857 11.7872 9.11651 12.0035C9.25826 12.3523 9.59107 12.5826 9.96696 12.6039L10.4586 12.6317C11.0682 12.6317 11.5841 12.692 11.5841 12.5491C11.5894 12.539 10.6764 10.3439 9.55483 7.67298L7.77037 3.42276C7.61544 3.05377 7.25544 2.81267 6.85525 2.80991L6.42247 2.80692L5.64955 2.80335C5.45606 2.80246 5.28104 2.91809 5.20595 3.09641ZM7.09803 6.92784C7.47011 7.88695 7.77094 8.6774 7.76567 8.68244C7.76039 8.68747 7.14289 8.68999 6.39608 8.68747L5.0397 8.67992L5.71261 6.91273C6.08469 5.94103 6.39608 5.1531 6.404 5.16317C6.41192 5.17323 6.72594 5.9662 7.09803 6.92784Z" fill="white"/>
</mask>
<g mask="url(#mask0_1815_8762)">
<rect opacity="0.4" x="9.36108" y="5.58084" width="1.77778" height="7.11111" fill="url(#paint0_linear_1815_8762)"/>
</g>
<path d="M8.8772 1.69388C8.8772 1.99956 9.125 2.24736 9.43068 2.24736H9.64248H10.4078L10.4078 13.3585H9.64248H9.43329C9.12617 13.3585 8.8772 13.6075 8.8772 13.9146C8.8772 14.2217 9.12617 14.4707 9.43329 14.4707L10.8859 14.4707H12.9736C13.2807 14.4707 13.5297 14.2217 13.5297 13.9146C13.5297 13.6075 13.2807 13.3585 12.9736 13.3585H12.7644H11.9991V2.24737H12.7644H12.9762C13.2819 2.24737 13.5297 1.99957 13.5297 1.69389C13.5297 1.38821 13.2819 1.1404 12.9762 1.1404H10.8859L9.43068 1.1404C9.125 1.14039 8.8772 1.3882 8.8772 1.69388Z" fill="white"/>
<defs>
<linearGradient id="paint0_linear_1815_8762" x1="10.5463" y1="8.78084" x2="9.36108" y2="8.78084" gradientUnits="userSpaceOnUse">
<stop stop-color="#ADADAD"/>
<stop offset="1" stop-color="#ACACAC" stop-opacity="0"/>
</linearGradient>
</defs>
</svg>
