<?xml version="1.0" encoding="UTF-8"?>
<svg width="10px" height="12px" viewBox="0 0 10 12" version="1.1" xmlns="http://www.w3.org/2000/svg" xmlns:xlink="http://www.w3.org/1999/xlink">
    <!-- Generator: Sketch 52.5 (67469) - http://www.bohemiancoding.com/sketch -->
    <title>Fill 6</title>
    <desc>Created with Sketch.</desc>
    <g id="Редактор-финал" stroke="none" stroke-width="1" fill="none" fill-rule="evenodd">
        <g id="01_Редактирование" transform="translate(-643.000000, -1611.000000)" fill="#525C69">
            <g id="Панелька" transform="translate(589.000000, 1596.000000)">
                <g id="Group-26" transform="translate(54.000000, 12.000000)">
                    <path d="M3.11164593,9.89839835 L3.11164593,12.7747137 L5.15073961,12.7747137 C5.712139,12.7747137 6.1435783,12.6552038 6.44505753,12.4161839 C6.74641935,12.1772731 6.89715896,11.8406807 6.89715896,11.4065157 C6.89715896,10.4066704 6.36217422,9.90396457 5.29255694,9.89839835 L3.11164593,9.89839835 Z M3.11164593,8.00271944 L4.73397511,8.00271944 C5.41359474,7.99737151 5.89821554,7.88157237 6.18795492,7.6555403 C6.4774595,7.42972651 6.62232919,7.09629919 6.62232919,6.65536749 C6.62232919,6.14840517 6.46560225,5.78332682 6.15250059,5.56013243 C5.83916412,5.33693803 5.33376379,5.22528627 4.6365344,5.22528627 L3.11164593,5.22528627 L3.11164593,8.00271944 Z M0,15 L0,3 L4.6365344,3 C6.29725288,3 7.5605776,3.28311308 8.42639117,3.84890267 C9.29220474,4.41491055 9.72517023,5.23630956 9.72517023,6.31309971 C9.72517023,6.93422405 9.57137826,7.46432437 9.26414651,7.90394638 C8.95679737,8.34345924 8.50469594,8.66771867 7.90784222,8.87639724 C8.58159192,9.04120092 9.0986147,9.34897998 9.45926274,9.79951614 C9.81967598,10.2500523 10,10.7995798 10,11.4477712 C10,12.6236619 9.59955389,13.5069441 8.79877906,14.097618 C7.99788683,14.6882918 6.81145809,14.9890858 5.23937544,15 L0,15 Z" id="Fill-6"></path>
                </g>
            </g>
        </g>
    </g>
</svg>