<?xml version="1.0" encoding="UTF-8"?>
<svg width="17px" height="17px" viewBox="0 0 17 17" version="1.1" xmlns="http://www.w3.org/2000/svg" xmlns:xlink="http://www.w3.org/1999/xlink">
    <!-- Generator: Sketch 52.5 (67469) - http://www.bohemiancoding.com/sketch -->
    <title>Fill 1</title>
    <desc>Created with Sketch.</desc>
    <g id="Редактор-финал" stroke="none" stroke-width="1" fill="none" fill-rule="evenodd">
        <g id="01_Редактирование" transform="translate(-1113.000000, -1608.000000)" fill="#525C69">
            <g id="Панелька" transform="translate(589.000000, 1596.000000)">
                <path d="M531.2178,30.6510455 C531.273802,30.7472711 531.375823,30.8061946 531.486414,30.8076068 C531.598417,30.8076068 531.700438,30.7486833 531.754979,30.6510455 L533.491519,27.6332836 L529.481309,27.6332836 L531.2178,30.6510455 Z M529.481309,26.5503079 L533.491519,26.5503079 L533.49298,12.1679478 L529.482721,12.1679478 L529.481309,26.5503079 Z M527.302453,19.9834982 C527.302453,20.294673 527.047864,20.5493103 526.736641,20.5493103 C526.425515,20.5493103 526.170877,20.294673 526.170877,19.9834982 L526.170877,18.0657561 L524.51123,18.0657561 L524.51123,19.9834982 C524.51123,20.294673 524.25669,20.5493103 523.945467,20.5493103 C523.634292,20.5493103 523.379703,20.294673 523.379703,19.9834982 L523.379703,18.0657561 L522.74664,18.0657561 C522.58594,18.0657561 522.454457,18.1972383 522.454457,18.3579389 L522.454457,22.6919846 C522.454457,22.8526364 522.58594,22.9841674 522.74664,22.9841674 L528.5416,22.9841674 L528.5416,18.0657561 L527.302453,18.0657561 L527.302453,19.9834982 Z M540.228914,18.0657561 L539.256871,18.0657561 L539.256871,20.0234299 C539.256871,20.3126422 539.020251,20.5493103 538.73099,20.5493103 C538.441778,20.5493103 538.20511,20.3126422 538.20511,20.0234299 L538.20511,18.0657561 L536.662628,18.0657561 L536.662628,20.0234299 C536.662628,20.3126422 536.42596,20.5493103 536.136747,20.5493103 C535.847486,20.5493103 535.610867,20.3126422 535.610867,20.0234299 L535.610867,18.0657561 L534.433954,18.0657561 L534.433954,22.9841674 L540.228914,22.9841674 C540.389615,22.9841674 540.521097,22.8526364 540.521097,22.6919846 L540.521097,18.3579389 C540.521097,18.1972383 540.389615,18.0657561 540.228914,18.0657561 Z" id="Fill-1" transform="translate(531.487777, 21.487777) rotate(-315.000000) translate(-531.487777, -21.487777) "></path>
            </g>
        </g>
    </g>
</svg>