<?xml version="1.0" encoding="UTF-8"?>
<svg width="16px" height="16px" viewBox="0 0 16 16" version="1.1" xmlns="http://www.w3.org/2000/svg" xmlns:xlink="http://www.w3.org/1999/xlink">
    <!-- Generator: Sketch 52.5 (67469) - http://www.bohemiancoding.com/sketch -->
    <title>Shape</title>
    <desc>Created with Sketch.</desc>
    <g id="Редактор-финал" stroke="none" stroke-width="1" fill="none" fill-rule="evenodd">
        <g id="01_Редактирование" transform="translate(-1070.000000, -1609.000000)" fill="#525C69">
            <g id="Панелька" transform="translate(589.000000, 1596.000000)">
                <path d="M489.531875,26.071472 L485.527594,26.071472 C485.307017,26.071472 485.095475,25.985415 484.939503,25.8322326 L482.513604,23.4497111 C482.18881,23.1307252 482.18881,22.613547 482.513604,22.2945611 L490.766602,14.1891361 C491.091396,13.8701502 491.61799,13.8701502 491.942784,14.1891361 L496.370824,18.5379975 C496.695617,18.8569834 496.695617,19.3741616 496.370824,19.6931475 L490.119966,25.8322326 C489.963994,25.985415 489.752452,26.071472 489.531875,26.071472 Z M489.163632,24.5748969 L491.968932,21.819759 L488.598418,18.5095136 L484.264061,22.7663668 L486.105519,24.5748969 L489.163632,24.5748969 Z M482.128704,27.2792741 L495.001546,27.2792741 C495.200174,27.2792741 495.361194,27.4374148 495.361194,27.6324911 L495.361194,28.4420426 C495.361194,28.637119 495.200174,28.7952597 495.001546,28.7952597 L482.128704,28.7952597 C481.930076,28.7952597 481.769056,28.637119 481.769056,28.4420426 L481.769056,27.6324911 C481.769056,27.4374148 481.930076,27.2792741 482.128704,27.2792741 Z" id="Shape"></path>
            </g>
        </g>
    </g>
</svg>