<svg width="18" height="16" viewBox="0 0 18 16" fill="none" xmlns="http://www.w3.org/2000/svg">
<path fill-rule="evenodd" clip-rule="evenodd" d="M7.59376 0L15.9659 8.37212C16.2002 8.60642 16.2002 8.98632 15.9659 9.22062C15.8741 9.31242 15.755 9.37192 15.6265 9.39032L14.1251 9.60482L8.94676 14.7831C7.77516 15.9547 5.87564 15.9547 4.70407 14.7831L0.878677 10.9577C-0.292892 9.78612 -0.292892 7.88662 0.878677 6.71512L3.63327 3.9605L4.83252 5.15975L2.30711 7.59032C1.95889 7.93852 1.76591 8.38322 1.7282 8.83832L12.6865 8.44592L12.659 8.47402L13.6765 8.31612L7.73096 2.37066L7.07446 3.00208L8.67466 4.60245C8.83086 4.75866 8.83086 5.01192 8.67466 5.16813L7.96006 5.88274C7.80376 6.03892 7.55056 6.03892 7.39436 5.88274L3.08938 1.57779C2.93317 1.42158 2.93317 1.16831 3.08938 1.0121L3.80399 0.2975C3.9602 0.14129 4.21347 0.14129 4.36968 0.2975L5.83278 1.7604L7.59376 0ZM15.8959 9.74322C16.1973 9.74322 17.9272 12.0944 17.9272 13.2163C17.9272 14.3382 17.0178 15.2476 15.8959 15.2476C14.774 15.2476 13.8646 14.3382 13.8646 13.2163C13.8646 12.0944 15.5945 9.74322 15.8959 9.74322Z" fill="#828895"/>
</svg>
