<?xml version="1.0" encoding="UTF-8"?>
<svg width="18px" height="12px" viewBox="0 0 18 12" version="1.1" xmlns="http://www.w3.org/2000/svg" xmlns:xlink="http://www.w3.org/1999/xlink">
    <!-- Generator: Sketch 52.5 (67469) - http://www.bohemiancoding.com/sketch -->
    <title>H1</title>
    <desc>Created with Sketch.</desc>
    <g id="Редактор-финал" stroke="none" stroke-width="1" fill="none" fill-rule="evenodd">
        <g id="01_Редактирование" transform="translate(-1027.000000, -1611.000000)" fill="#828B95">
            <g id="Панелька" transform="translate(589.000000, 1596.000000)">
                <path d="M447.631035,27.0007461 L445.756035,27.0007461 L445.756035,21.8523086 L440.49041,21.8523086 L440.49041,27.0007461 L438.623223,27.0007461 L438.623223,15.5788711 L440.49041,15.5788711 L440.49041,20.2507461 L445.756035,20.2507461 L445.756035,15.5788711 L447.631035,15.5788711 L447.631035,27.0007461 Z M455.224785,27.0007461 L453.388848,27.0007461 L453.388848,19.6257461 C453.388848,18.7455334 453.409681,18.0476237 453.451348,17.5319961 C453.331555,17.6569967 453.184421,17.7950162 453.009941,17.9460586 C452.835461,18.097101 452.250832,18.5762629 451.256035,19.3835586 L450.33416,18.2194961 L453.693535,15.5788711 L455.224785,15.5788711 L455.224785,27.0007461 Z" id="H1"></path>
            </g>
        </g>
    </g>
</svg>