<?xml version="1.0" encoding="UTF-8"?>
<svg width="20px" height="12px" viewBox="0 0 20 12" version="1.1" xmlns="http://www.w3.org/2000/svg" xmlns:xlink="http://www.w3.org/1999/xlink">
    <!-- Generator: Sketch 52.5 (67469) - http://www.bohemiancoding.com/sketch -->
    <title>H2</title>
    <desc>Created with Sketch.</desc>
    <g id="Редактор-финал" stroke="none" stroke-width="1" fill="none" fill-rule="evenodd">
        <g id="01_Редактирование" transform="translate(-1027.000000, -1611.000000)" fill="#828B95">
            <g id="Панелька" transform="translate(589.000000, 1596.000000)">
                <path d="M447.631035,27.0007461 L445.756035,27.0007461 L445.756035,21.8523086 L440.49041,21.8523086 L440.49041,27.0007461 L438.623223,27.0007461 L438.623223,15.5788711 L440.49041,15.5788711 L440.49041,20.2507461 L445.756035,20.2507461 L445.756035,15.5788711 L447.631035,15.5788711 L447.631035,27.0007461 Z M457.576348,27.0007461 L449.83416,27.0007461 L449.83416,25.6101211 L452.779473,22.6491836 C453.649269,21.7585541 454.226086,21.12705 454.509941,20.7546523 C454.793797,20.3822547 455.000826,20.0319977 455.131035,19.7038711 C455.261244,19.3757445 455.326348,19.0241855 455.326348,18.6491836 C455.326348,18.133556 455.171401,17.7273101 454.861504,17.4304336 C454.551607,17.1335571 454.123225,16.9851211 453.576348,16.9851211 C453.138845,16.9851211 452.715673,17.0658495 452.306816,17.2273086 C451.89796,17.3887677 451.425309,17.6804315 450.888848,18.1023086 L449.89666,16.8913711 C450.53208,16.3549101 451.149261,15.9747055 451.748223,15.7507461 C452.347184,15.5267866 452.985198,15.4148086 453.662285,15.4148086 C454.72479,15.4148086 455.576344,15.6921496 456.216973,16.2468398 C456.857601,16.8015301 457.17791,17.5476164 457.17791,18.4851211 C457.17791,19.0007487 457.085463,19.4903271 456.900566,19.9538711 C456.71567,20.4174151 456.431818,20.8952749 456.049004,21.3874648 C455.666189,21.8796548 455.029477,22.5450127 454.138848,23.3835586 L452.154473,25.3054336 L452.154473,25.3835586 L457.576348,25.3835586 L457.576348,27.0007461 Z" id="H2"></path>
            </g>
        </g>
    </g>
</svg>