<?xml version="1.0" encoding="UTF-8"?>
<svg width="20px" height="13px" viewBox="0 0 20 13" version="1.1" xmlns="http://www.w3.org/2000/svg" xmlns:xlink="http://www.w3.org/1999/xlink">
    <!-- Generator: Sketch 52.5 (67469) - http://www.bohemiancoding.com/sketch -->
    <title>H3</title>
    <desc>Created with Sketch.</desc>
    <g id="Редактор-финал" stroke="none" stroke-width="1" fill="none" fill-rule="evenodd">
        <g id="01_Редактирование" transform="translate(-1027.000000, -1611.000000)" fill="#828B95">
            <g id="Панелька" transform="translate(589.000000, 1596.000000)">
                <path d="M447.631035,27.0007461 L445.756035,27.0007461 L445.756035,21.8523086 L440.49041,21.8523086 L440.49041,27.0007461 L438.623223,27.0007461 L438.623223,15.5788711 L440.49041,15.5788711 L440.49041,20.2507461 L445.756035,20.2507461 L445.756035,15.5788711 L447.631035,15.5788711 L447.631035,27.0007461 Z M457.14666,18.2038711 C457.14666,18.927833 456.935725,19.5306916 456.513848,20.0124648 C456.091971,20.4942381 455.498226,20.8184536 454.732598,20.9851211 L454.732598,21.0476211 C455.649269,21.162205 456.336762,21.4473584 456.795098,21.9030898 C457.253433,22.3588213 457.482598,22.964284 457.482598,23.7194961 C457.482598,24.8184599 457.094581,25.6661077 456.318535,26.2624648 C455.54249,26.858822 454.438334,27.1569961 453.006035,27.1569961 C451.740404,27.1569961 450.672706,26.951269 449.80291,26.5398086 L449.80291,24.9069961 C450.287288,25.1465806 450.800303,25.3314746 451.341973,25.4616836 C451.883642,25.5918926 452.40447,25.6569961 452.904473,25.6569961 C453.789894,25.6569961 454.451345,25.4929352 454.888848,25.1648086 C455.32635,24.836682 455.545098,24.3288745 455.545098,23.6413711 C455.545098,23.031993 455.302913,22.5840809 454.818535,22.2976211 C454.334158,22.0111613 453.573749,21.8679336 452.537285,21.8679336 L451.545098,21.8679336 L451.545098,20.3757461 L452.55291,20.3757461 C454.375836,20.3757461 455.287285,19.7455441 455.287285,18.4851211 C455.287285,17.9955353 455.128433,17.6179349 454.810723,17.3523086 C454.493013,17.0866823 454.024267,16.9538711 453.404473,16.9538711 C452.972179,16.9538711 452.555516,17.0150684 452.154473,17.1374648 C451.753429,17.2598613 451.279475,17.4981402 450.732598,17.8523086 L449.83416,16.5710586 C450.88104,15.8002214 452.097174,15.4148086 453.482598,15.4148086 C454.633645,15.4148086 455.532074,15.662202 456.17791,16.1569961 C456.823747,16.6517902 457.14666,17.3340751 457.14666,18.2038711 Z" id="H3"></path>
            </g>
        </g>
    </g>
</svg>