<?xml version="1.0" encoding="UTF-8"?>
<svg width="20px" height="13px" viewBox="0 0 20 13" version="1.1" xmlns="http://www.w3.org/2000/svg" xmlns:xlink="http://www.w3.org/1999/xlink">
    <!-- Generator: Sketch 52.5 (67469) - http://www.bohemiancoding.com/sketch -->
    <title>H5</title>
    <desc>Created with Sketch.</desc>
    <g id="Редактор-финал" stroke="none" stroke-width="1" fill="none" fill-rule="evenodd">
        <g id="01_Редактирование" transform="translate(-1029.000000, -1611.000000)" fill="#828B95">
            <g id="Панелька" transform="translate(589.000000, 1596.000000)">
                <path d="M449.631035,27.0007461 L447.756035,27.0007461 L447.756035,21.8523086 L442.49041,21.8523086 L442.49041,27.0007461 L440.623223,27.0007461 L440.623223,15.5788711 L442.49041,15.5788711 L442.49041,20.2507461 L447.756035,20.2507461 L447.756035,15.5788711 L449.631035,15.5788711 L449.631035,27.0007461 Z M455.70916,19.8679336 C456.860208,19.8679336 457.771657,20.172618 458.443535,20.7819961 C459.115414,21.3913741 459.451348,22.222095 459.451348,23.2741836 C459.451348,24.4929397 459.069841,25.4447531 458.306816,26.1296523 C457.543792,26.8145516 456.459167,27.1569961 455.05291,27.1569961 C453.776862,27.1569961 452.774268,26.951269 452.045098,26.5398086 L452.045098,24.8757461 C452.466975,25.1153306 452.951345,25.3002246 453.498223,25.4304336 C454.0451,25.5606426 454.552908,25.6257461 455.02166,25.6257461 C455.849789,25.6257461 456.479991,25.4408521 456.912285,25.0710586 C457.344579,24.7012651 457.560723,24.1596038 457.560723,23.4460586 C457.560723,22.0814684 456.69094,21.3991836 454.951348,21.3991836 C454.706555,21.3991836 454.404474,21.4239229 454.045098,21.4734023 C453.685721,21.5228818 453.37062,21.5788708 453.099785,21.6413711 L452.279473,21.1569961 L452.716973,15.5788711 L458.654473,15.5788711 L458.654473,17.2116836 L454.33416,17.2116836 L454.076348,20.0398086 C454.25864,20.0085584 454.481294,19.9721005 454.744316,19.9304336 C455.007339,19.8887667 455.32895,19.8679336 455.70916,19.8679336 Z" id="H5"></path>
            </g>
        </g>
    </g>
</svg>