<?xml version="1.0" encoding="UTF-8"?>
<svg width="20px" height="12px" viewBox="0 0 20 12" version="1.1" xmlns="http://www.w3.org/2000/svg" xmlns:xlink="http://www.w3.org/1999/xlink">
    <!-- Generator: Sketch 53.2 (72643) - https://sketchapp.com -->
    <title>H6</title>
    <desc>Created with Sketch.</desc>
    <g id="Page-1" stroke="none" stroke-width="1" fill="none" fill-rule="evenodd">
        <path d="M9.53977106,11.5859375 L7.66477106,11.5859375 L7.66477106,6.4375 L2.39914606,6.4375 L2.39914606,11.5859375 L0.531958562,11.5859375 L0.531958562,0.1640625 L2.39914606,0.1640625 L2.39914606,4.8359375 L7.66477106,4.8359375 L7.66477106,0.1640625 L9.53977106,0.1640625 L9.53977106,11.5859375 Z M11.7741461,6.71875 C11.7741461,2.24997766 13.5944404,0.015625 17.2350836,0.015625 C17.8080031,0.015625 18.2923732,0.0598953906 18.6882086,0.1484375 L18.6882086,1.6796875 C18.2923732,1.56510359 17.8340445,1.5078125 17.3132086,1.5078125 C16.0892441,1.5078125 15.1699825,1.83593422 14.5553961,2.4921875 C13.9408097,3.14844078 13.6074797,4.20051359 13.5553961,5.6484375 L13.6491461,5.6484375 C13.893939,5.22656039 14.2376855,4.89974074 14.6803961,4.66796875 C15.1231066,4.43619676 15.6439347,4.3203125 16.2428961,4.3203125 C17.2793596,4.3203125 18.0866432,4.63801766 18.6647711,5.2734375 C19.242899,5.90885734 19.5319586,6.77082789 19.5319586,7.859375 C19.5319586,9.05729766 19.1973265,10.0039028 18.5280523,10.6992188 C17.8587781,11.3945347 16.9460268,11.7421875 15.7897711,11.7421875 C14.9720586,11.7421875 14.2611282,11.5455749 13.6569586,11.1523438 C13.0527889,10.7591126 12.5879498,10.1862017 12.2624273,9.43359375 C11.9369049,8.68098582 11.7741461,7.77604695 11.7741461,6.71875 Z M15.7585211,10.2265625 C16.3887325,10.2265625 16.8744048,10.0234395 17.2155523,9.6171875 C17.5566999,9.21093547 17.7272711,8.63021211 17.7272711,7.875 C17.7272711,7.21874672 17.5671164,6.70312687 17.2468023,6.328125 C16.9264882,5.95312313 16.4460243,5.765625 15.8053961,5.765625 C15.4095607,5.765625 15.0449811,5.85025957 14.7116461,6.01953125 C14.3783111,6.18880293 14.1152929,6.42057145 13.9225836,6.71484375 C13.7298743,7.00911605 13.6335211,7.3098943 13.6335211,7.6171875 C13.6335211,8.35156617 13.8327378,8.97004957 14.2311773,9.47265625 C14.6296168,9.97526293 15.1387263,10.2265625 15.7585211,10.2265625 Z" id="H6" fill="#828B95" fill-rule="nonzero"></path>
    </g>
</svg>