<?xml version="1.0" encoding="UTF-8"?>
<svg width="18px" height="18px" viewBox="0 0 18 18" version="1.1" xmlns="http://www.w3.org/2000/svg" xmlns:xlink="http://www.w3.org/1999/xlink">
    <!-- Generator: Sketch 52.5 (67469) - http://www.bohemiancoding.com/sketch -->
    <title>Fill 1</title>
    <desc>Created with Sketch.</desc>
    <g id="Редактор-финал" stroke="none" stroke-width="1" fill="none" fill-rule="evenodd">
        <g id="01_Редактирование" transform="translate(-943.000000, -1609.000000)" fill="#525C69">
            <g id="Панелька" transform="translate(589.000000, 1596.000000)">
                <g id="Group-26" transform="translate(54.000000, 12.000000)">
                    <path d="M310.925303,14.3022765 L310.925303,16.1407951 C310.925303,17.2791372 309.994201,18.210979 308.855859,18.210979 C307.717517,18.210979 306.785675,17.2791372 306.785675,16.1407951 L306.785675,14.3022765 C306.785675,13.4903381 307.263808,12.7916418 307.948442,12.4526556 L307.948442,13.0196062 C307.948442,13.5184636 308.356262,13.9277634 308.855859,13.9277634 C309.355456,13.9277634 309.764016,13.5184636 309.764016,13.0196062 L309.764016,12.4526556 C310.44791,12.7916418 310.925303,13.4903381 310.925303,14.3022765 M306.785675,5.40870139 L306.785675,3.57018271 C306.785675,2.43184063 307.717517,1.50073898 308.855859,1.50073898 C309.994201,1.50073898 310.925303,2.43184063 310.925303,3.57018271 L310.925303,5.40870139 C310.925303,6.2206398 310.44791,6.92007625 309.764016,7.25832224 L309.764016,6.35756651 C309.764016,5.85796904 309.355456,5.44940933 308.855859,5.44940933 C308.356262,5.44940933 307.948442,5.85796904 307.948442,6.35756651 L307.948442,7.25832224 C307.263808,6.92007625 306.785675,6.2206398 306.785675,5.40870139 M312.556581,5.52564421 L312.556581,3.4532399 C312.556581,1.4178428 310.891256,-0.24748209 308.855859,-0.24748209 C306.820462,-0.24748209 305.155137,1.4178428 305.155137,3.4532399 L305.155137,5.52564421 C305.155137,7.24647993 306.34973,8.6897615 307.948442,9.0998015 L307.948442,10.6119165 C306.34973,11.0212164 305.155137,12.4652381 305.155137,14.1853337 L305.155137,16.2584781 C305.155137,18.2938752 306.820462,19.9592001 308.855859,19.9592001 C310.891256,19.9592001 312.556581,18.2938752 312.556581,16.2584781 L312.556581,14.1853337 C312.556581,12.4652381 311.361988,11.0212164 309.764016,10.6119165 L309.764016,9.0998015 C311.361988,8.6897615 312.556581,7.24647993 312.556581,5.52564421" id="Fill-1" transform="translate(308.855859, 9.855859) rotate(-45.000000) translate(-308.855859, -9.855859) "></path>
                </g>
            </g>
        </g>
    </g>
</svg>