<svg width="14" height="14" viewBox="0 0 14 14" fill="none" xmlns="http://www.w3.org/2000/svg">
<path fill-rule="evenodd" clip-rule="evenodd" d="M1.89826 2.09378V8.4719C1.89826 8.5795 1.98625 8.6674 2.09378 8.6674H2.29458V10.5658H0.64035C0.28816 10.5658 0 10.2775 0 9.9254V0.64035C0 0.28816 0.28816 0 0.64035 0H9.9254C10.2775 0 10.5658 0.28816 10.5658 0.64035V2.40131H8.6675V2.09378C8.6675 1.98625 8.5794 1.89826 8.4719 1.89826H2.09378C1.98625 1.89826 1.89826 1.98625 1.89826 2.09378ZM11.914 12.1209C12.0278 12.1209 12.1209 12.0278 12.1209 11.914V8.9939H9.0132V12.1209H11.914ZM7.9472 12.1209H5.1614C5.0475 12.1209 4.95436 12.0278 4.95436 11.914V8.9939H7.9472V12.1209ZM4.95436 7.9863H7.9472V4.95436H5.1614C5.0475 4.95436 4.95436 5.0475 4.95436 5.1614V7.9863ZM9.0132 4.95436V7.9863H12.1209V5.1614C12.1209 5.0475 12.0278 4.95436 11.914 4.95436H9.0132ZM3.71345 3.05447H13.2686C13.631 3.05447 13.9276 3.35101 13.9276 3.71345V13.2686C13.9276 13.631 13.631 13.9276 13.2686 13.9276H3.71345C3.35101 13.9276 3.05447 13.631 3.05447 13.2686V3.71345C3.05447 3.35101 3.35101 3.05447 3.71345 3.05447Z" fill="#525C69"/>
</svg>
