<?xml version="1.0" encoding="UTF-8"?>
<svg width="12px" height="12px" viewBox="0 0 12 12" version="1.1" xmlns="http://www.w3.org/2000/svg" xmlns:xlink="http://www.w3.org/1999/xlink">
    <!-- Generator: Sketch 52.5 (67469) - http://www.bohemiancoding.com/sketch -->
    <title>Fill 12</title>
    <desc>Created with Sketch.</desc>
    <g id="Редактор-финал" stroke="none" stroke-width="1" fill="none" fill-rule="evenodd">
        <g id="01_Редактирование" transform="translate(-760.000000, -1611.000000)" fill="#828B95">
            <g id="Панелька" transform="translate(589.000000, 1596.000000)">
                <g id="Group-26" transform="translate(54.000000, 12.000000)">
                    <path d="M128.907922,8.55488677 L124.527436,8.55488677 C124.1543,8.39276954 123.733428,8.24087687 123.26211,8.09994662 C122.36992,7.8329486 121.729857,7.55825582 121.341609,7.27544664 C120.953256,6.99274286 120.759184,6.64004829 120.759184,6.21715211 C120.759184,5.71520007 120.938873,5.32413705 121.29825,5.04396306 C121.657628,4.76389448 122.162715,4.62380749 122.81341,4.62380749 C123.511319,4.62380749 124.047779,4.79351408 124.423104,5.13303267 C124.540464,5.23928375 124.637292,5.35976489 124.717964,5.49152467 L126.42386,4.7008606 C126.067818,4.15895899 125.580866,3.74027913 124.96217,3.44576968 C124.337637,3.14862503 123.626699,3 122.829148,3 C121.627506,3 120.650162,3.30252045 119.897324,3.90745593 C119.144278,4.51239142 118.767912,5.28186851 118.767912,6.21588722 C118.767912,7.15022215 119.168772,7.9299238 119.970284,8.55488677 L117,8.55488677 L117,10.0733918 L123.477028,10.0733918 C123.910407,10.2452066 124.23664,10.4159673 124.454372,10.5857793 C124.808642,10.8617369 124.985725,11.2542757 124.985725,11.7637117 C124.985725,12.2307737 124.811248,12.6063418 124.462398,12.8900996 C124.113339,13.1740683 123.592721,13.3159472 122.899919,13.3159472 C122.097156,13.3159472 121.480545,13.1355945 121.050292,12.7746781 C120.860493,12.6154069 120.715096,12.4256728 120.608992,12.2085327 L119.032129,13.2091691 C119.414854,13.7303054 119.9411,14.1420283 120.613578,14.4423352 C121.308777,14.7527613 122.070787,14.9079216 122.899919,14.9079216 C124.154092,14.9079216 125.147174,14.622688 125.879062,14.0522209 C126.611054,13.4818592 126.977102,12.7137524 126.977102,11.7479005 C126.977102,11.1536112 126.85109,10.6347939 126.599276,10.1916594 C126.576554,10.1517099 126.551331,10.1126036 126.526108,10.0733918 L128.907922,10.0733918 L128.907922,8.55488677 Z" id="Fill-12"></path>
                </g>
            </g>
        </g>
    </g>
</svg>