<svg width="16" height="13" viewBox="0 0 16 13" fill="none" xmlns="http://www.w3.org/2000/svg">
<path fill-rule="evenodd" clip-rule="evenodd" d="M11.034 1.2H14C14.4418 1.2 14.8 1.55817 14.8 2V2.84038H11.034V1.2ZM9.834 1.2H6.2V2.84038H9.834V1.2ZM5 1.2H2C1.55817 1.2 1.2 1.55817 1.2 2V2.84038H5V1.2ZM1.2 4.0404V5.8404H5V4.0404H1.2ZM1.2 7.0404V8.8404H5V7.0404H1.2ZM1.2 10.0404V11C1.2 11.4418 1.55817 11.8 2 11.8H5V10.0404H1.2ZM5 13V13.0003H6.2V13H9.834V13.0003H11.034V13H14C15.1046 13 16 12.1046 16 11V2C16 0.89543 15.1046 0 14 0H2C0.89543 0 0 0.89543 0 2V11C0 12.1046 0.89543 13 2 13H5ZM11.034 11.8H14C14.4418 11.8 14.8 11.4418 14.8 11V10.0404H11.034V11.8ZM14.8 8.8404V7.0404H11.034V8.8404H14.8ZM14.8 5.8404V4.0404H11.034V5.8404H14.8ZM9.834 11.8H6.2V10.0404H9.834V11.8ZM9.834 7.0404V8.8404H6.2V7.0404H9.834ZM9.834 4.0404V5.8404H6.2V4.0404H9.834Z" fill="#525C69"/>
</svg>
