<?xml version="1.0" encoding="UTF-8"?>
<svg width="11px" height="14px" viewBox="0 0 11 14" version="1.1" xmlns="http://www.w3.org/2000/svg" xmlns:xlink="http://www.w3.org/1999/xlink">
    <!-- Generator: Sketch 52.5 (67469) - http://www.bohemiancoding.com/sketch -->
    <title>Fill 10</title>
    <desc>Created with Sketch.</desc>
    <g id="Редактор-финал" stroke="none" stroke-width="1" fill="none" fill-rule="evenodd">
        <g id="01_Редактирование" transform="translate(-718.000000, -1611.000000)" fill="#525C69">
            <g id="Панелька" transform="translate(589.000000, 1596.000000)">
                <g id="Group-26" transform="translate(54.000000, 12.000000)">
                    <path d="M75,16.0074151 L86,16.0074151 L86,14.0062743 L75,14.0062743 L75,16.0074151 Z M80.4998792,13.005704 C81.862063,13.005704 82.9526793,12.6383399 83.7714868,11.9036118 C84.5904151,11.168765 85,10.1724652 85,8.9143561 L85,3 L82.9153675,3 L82.9153675,8.84501525 C82.9153675,10.512639 82.110084,11.3463916 80.4998792,11.3463916 C79.7058255,11.3463916 79.1047307,11.1380128 78.6967156,10.7211365 C78.288459,10.3042603 78.0845118,9.70049616 78.0845118,8.90996293 L78.0845118,3 L76,3 L76,8.90628217 C76,10.1913439 76.4052379,11.1959552 77.2159551,11.9198784 C78.0265516,12.643683 79.1211528,13.005704 80.4998792,13.005704 Z" id="Fill-10"></path>
                </g>
            </g>
        </g>
    </g>
</svg>