<?xml version="1.0" encoding="UTF-8"?>
<svg width="18px" height="18px" viewBox="0 0 18 18" version="1.1" xmlns="http://www.w3.org/2000/svg" xmlns:xlink="http://www.w3.org/1999/xlink">
    <!-- Generator: Sketch 52.5 (67469) - http://www.bohemiancoding.com/sketch -->
    <title>Group 15</title>
    <desc>Created with Sketch.</desc>
    <g id="Редактор-финал" stroke="none" stroke-width="1" fill="none" fill-rule="evenodd">
        <g id="01_Редактирование" transform="translate(-983.000000, -1609.000000)">
            <g id="Панелька" transform="translate(589.000000, 1596.000000)">
                <g id="Group-15" transform="translate(403.000000, 22.000000) rotate(-315.000000) translate(-403.000000, -22.000000) translate(392.000000, 13.000000)">
                    <g id="Group-13" opacity="0.600000024" transform="translate(6.000000, 0.000000)" fill="#828B95">
                        <path d="M5.00444588,17.3829283 C4.56587681,17.3829283 4.21034633,17.0273978 4.21034633,16.5888288 L4.21034633,14.2065301 C4.21034633,13.767961 4.56587681,13.4124305 5.00444588,13.4124305 C5.44301496,13.4124305 5.79854544,13.767961 5.79854544,14.2065301 L5.79854544,16.5888288 C5.79854544,17.0273978 5.44301496,17.3829283 5.00444588,17.3829283 Z" id="Rectangle"></path>
                        <path d="M9.26560427,1.48771461 C9.64541623,1.70699914 9.77554942,2.19266281 9.55626488,2.57247477 L8.36511555,4.63560594 C8.14583101,5.0154179 7.66016734,5.14555109 7.28035538,4.92626655 C6.90054342,4.70698201 6.77041024,4.22131834 6.98969477,3.84150638 L8.18084411,1.77837522 C8.40012864,1.39856326 8.88579231,1.26843007 9.26560427,1.48771461 Z" id="Rectangle"></path>
                        <path d="M9.26560427,16.530895 C8.88579231,16.7501795 8.40012864,16.6200463 8.18084411,16.2402343 L6.98969477,14.1771032 C6.77041024,13.7972912 6.90054342,13.3116276 7.28035538,13.092343 C7.66016734,12.8730585 8.14583101,13.0031917 8.36511555,13.3830036 L9.55626488,15.4461348 C9.77554942,15.8259467 9.64541623,16.3116104 9.26560427,16.530895 Z" id="Rectangle"></path>
                        <path d="M0.927558936,1.48771461 C1.3073709,1.26843007 1.79303457,1.39856326 2.0123191,1.77837522 L3.20346844,3.84150638 C3.42275297,4.22131834 3.29261979,4.70698201 2.91280783,4.92626655 C2.53299587,5.14555109 2.0473322,5.0154179 1.82804766,4.63560594 L0.636898326,2.57247477 C0.417613788,2.19266281 0.547746976,1.70699914 0.927558936,1.48771461 Z" id="Rectangle"></path>
                        <path d="M0.927558936,16.530895 C0.547746976,16.3116104 0.417613788,15.8259467 0.636898326,15.4461348 L1.82804766,13.3830036 C2.0473322,13.0031917 2.53299587,12.8730585 2.91280783,13.092343 C3.29261979,13.3116276 3.42275297,13.7972912 3.20346844,14.1771032 L2.0123191,16.2402343 C1.79303457,16.6200463 1.3073709,16.7501795 0.927558936,16.530895 Z" id="Rectangle"></path>
                        <rect id="Rectangle" x="4.21034633" y="0.783799897" width="1.58819911" height="3.97049778" rx="0.794099556"></rect>
                    </g>
                    <rect id="Rectangle" stroke="#828B95" stroke-width="1.8" x="12.384238" y="6.10693561" width="7.73303961" height="5.61458637" rx="2.80729318"></rect>
                    <rect id="Rectangle" stroke="#828B95" stroke-width="1.8" x="1.52564421" y="6.10693561" width="7.73303961" height="5.61458637" rx="2.80729318"></rect>
                    <rect id="Rectangle" fill="#FFFFFF" x="6.08270145" y="7.83548185" width="9" height="2.12081487"></rect>
                </g>
            </g>
        </g>
    </g>
</svg>