<?xml version="1.0" encoding="UTF-8"?>
<svg width="45px" height="44px" viewBox="0 0 45 44" version="1.1" xmlns="http://www.w3.org/2000/svg" xmlns:xlink="http://www.w3.org/1999/xlink">
    <g stroke="none" stroke-width="1" fill="none" fill-rule="evenodd">
        <g  transform="translate(0, 4.587646)">
            <path d="M19.5,0.412353516 C22.1732932,0.412353516 24.7209436,0.950294164 27.0406079,1.92383202 C26.9607762,2.43495365 26.919516,2.95789062 26.919516,3.49046443 C26.919516,9.06318316 31.4370972,13.5807643 37.0098159,13.5807643 C37.3212325,13.5807643 37.6293541,13.5666566 37.9335765,13.5390455 C38.624857,15.5351129 39,17.6799236 39,19.9123535 C39,30.6819061 30.2695526,39.4123535 19.5,39.4123535 C8.73044738,39.4123535 0,30.6819061 0,19.9123535 C0,9.14280089 8.73044738,0.412353516 19.5,0.412353516 Z" fill="#2FC6F6" />
            <path d="M26.3224336,28.8818012 C26.3224336,29.066289 26.4088498,29.2144603 26.224362,29.2144603 L12.7770906,29.2144603 C12.5911502,29.2144603 12.4415262,29.066289 12.4415262,28.8818012 L12.4415262,10.9429058 C12.4415262,10.7598707 12.5911502,10.6102468 12.7770906,10.6102468 L22.3030112,10.6102468 C22.4889516,10.6102468 22.6385756,10.7598707 22.6385756,10.9429058 L22.6385756,14.1947041 C22.6385756,14.3777393 22.7896522,14.5259106 22.9755927,14.5259106 L26.224362,14.5259106 C26.4088498,14.5259106 26.5599264,14.6755345 26.5599264,14.8585696 L26.3224336,28.8818012 Z M24.4965859,8.64915608 C24.261255,8.41673052 24.0435722,8.28453848 23.7080078,8.28453848 L11.1116333,8.28453848 C10.4143566,8.28453848 10.0882174,8.90108783 10.0882174,9.58964855 L10.0882174,30.5844727 C10.0882174,31.2715807 10.4008068,31.5401686 11.0980835,31.5401686 L27.9327393,31.5401686 C28.6271106,31.5401686 28.9117826,31.2245837 28.9117826,30.5374756 L28.9117826,13.5762329 C28.9117826,13.1346243 28.7345581,12.8115899 28.4193309,12.5007207 L24.4965859,8.64915608 Z" fill="#FFF" />
            <polygon fill="#FFF" points="18.3707235 25.4061147 14.6810048 21.811853 16.4809168 20.1288757 18.3707235 21.8538138 23.0408737 16.9445087 24.9003259 18.6100028" />
        </g>
        <g transform="translate(28, 0)" fill="#9DCF00">
            <path d="M9.01068115,0 C13.4230601,0 17,3.57693989 17,7.98931885 C17,12.4016978 13.4230601,15.9786377 9.01068115,15.9786377 C4.59830219,15.9786377 1.0213623,12.4016978 1.0213623,7.98931885 C1.0213623,3.57693989 4.59830219,0 9.01068115,0 Z M10.0613042,7.00055804 L7.97394849,7.00055804 L7.97394849,7.00785236 L6.98724566,7.00785236 L6.98724566,7.98493304 L7.97394849,7.98493304 L7.97324566,12.009907 L6.98724566,12.0107621 L6.98724566,12.9849729 L7.99152042,12.9849729 L7.99124566,12.983907 L9.99924566,12.983907 L10.0000699,12.9849729 L11.0043447,12.9849729 L11.0043447,12.0107621 L10.0612457,12.009907 L10.0613042,7.00055804 Z M8.96065131,2.85490701 C8.19412678,2.85490701 7.57273587,3.47629792 7.57273587,4.24282246 C7.57273587,5.00934699 8.19412678,5.6307379 8.96065131,5.6307379 C9.72717585,5.6307379 10.3485668,5.00934699 10.3485668,4.24282246 C10.3485668,3.47629792 9.72717585,2.85490701 8.96065131,2.85490701 Z" />
        </g>
    </g>
</svg>