<?xml version="1.0" encoding="UTF-8"?>
<svg width="26px" height="23px" viewBox="0 0 26 23" version="1.1" xmlns="http://www.w3.org/2000/svg" xmlns:xlink="http://www.w3.org/1999/xlink">
    <!-- Generator: Sketch 62 (91390) - https://sketch.com -->
    <title>Icons / Type 02 / Icon 01</title>
    <desc>Created with Sketch.</desc>
    <g id="Symbols" stroke="none" stroke-width="1" fill="none" fill-rule="evenodd">
        <g id="Parts-/-Title-/-Tytle-type-01-/-Title-01" transform="translate(-153.000000, -8.000000)" fill="#2FC6F6">
            <g id="Icons-/-Type-02-/-Icon-01" transform="translate(148.000000, 1.000000)">
                <path d="M28.0194053,7 C29.432266,7 30.5776158,8.14534985 30.5776158,9.55821049 L30.5776158,27.2490691 C30.5776158,28.6619297 29.432266,29.8072795 28.0194053,29.8072795 L7.55821049,29.8072795 C6.14534985,29.8072795 5,28.6619297 5,27.2490691 L5,9.55821049 C5,8.14534985 6.14534985,7 7.55821049,7 L28.0194053,7 Z M27.634433,13.2787582 L7.97414048,13.2787582 L7.97414048,26.8140248 L27.634433,26.8140248 L27.634433,13.2787582 Z M17.8068623,15.7287081 L19.4779908,16.1136093 L17.594745,23.5661038 L15.9329602,23.2036706 L17.8068623,15.7287081 Z M21.7634304,15.8715797 L25.6016497,19.709799 L21.7634304,23.5480183 L20.5136497,22.2985797 L23.1022445,19.709799 L20.5146497,17.1205797 L21.7634304,15.8715797 Z M13.6845492,15.8715797 L14.9333299,17.1205797 L12.345735,19.709799 L14.9343299,22.2985797 L13.6845492,23.5480183 L9.84632986,19.709799 L13.6845492,15.8715797 Z M9.47563434,8.63960974 C8.64638218,8.63960974 7.97414048,9.31185144 7.97414048,10.1411036 C7.97414048,10.9703558 8.64638218,11.6425975 9.47563434,11.6425975 C10.3048865,11.6425975 10.9771282,10.9703558 10.9771282,10.1411036 C10.9771282,9.31185144 10.3048865,8.63960974 9.47563434,8.63960974 Z M13.9801159,8.63960974 C13.1508638,8.63960974 12.4786221,9.31185144 12.4786221,10.1411036 C12.4786221,10.9703558 13.1508638,11.6425975 13.9801159,11.6425975 C14.8093681,11.6425975 15.4816098,10.9703558 15.4816098,10.1411036 C15.4816098,9.31185144 14.8093681,8.63960974 13.9801159,8.63960974 Z" id="Combined-Shape"></path>
            </g>
        </g>
    </g>
</svg>