<svg width="18" height="18" viewBox="0 0 18 18" fill="none" xmlns="http://www.w3.org/2000/svg">
<path opacity="0.6" fill-rule="evenodd" clip-rule="evenodd" d="M9 18C13.9706 18 18 13.9706 18 9C18 4.02944 13.9706 0 9 0C4.02944 0 0 4.02944 0 9C0 13.9706 4.02944 18 9 18ZM9.00065 16.6035C13.1996 16.6035 16.6035 13.1996 16.6035 9.00064C16.6035 4.80171 13.1996 1.39781 9.00065 1.39781C4.80173 1.39781 1.39783 4.80171 1.39783 9.00064C1.39783 13.1996 4.80173 16.6035 9.00065 16.6035Z" fill="#525C69"/>
<path fill-rule="evenodd" clip-rule="evenodd" d="M10 4H8V8H4V10H8V14H10V10H14V8H10V4Z" fill="#525C69"/>
</svg>
