<svg width="12" height="11" viewBox="0 0 12 11" fill="none" xmlns="http://www.w3.org/2000/svg">
<path fill-rule="evenodd" clip-rule="evenodd" d="M11.4278 8.71601L6.76354 0.947312C6.40417 0.350896 5.54777 0.350896 5.19604 0.947312L0.531764 8.71601C0.164739 9.32772 0.608228 10.1 1.31934 10.1H10.6479C11.3514 10.1 11.7948 9.32772 11.4278 8.71601ZM5.31074 3.65412C5.31074 3.31004 5.58601 3.03477 5.93009 3.03477H6.0142C6.35829 3.03477 6.63356 3.31004 6.63356 3.65412V5.97097C6.63356 6.31505 6.35829 6.59032 6.0142 6.59032H5.93009C5.58601 6.59032 5.31074 6.31505 5.31074 5.97097V3.65412ZM6.7559 8.15018C6.7559 8.57837 6.40417 8.93011 5.97597 8.93011C5.54777 8.93011 5.19604 8.57837 5.19604 8.15018V8.15018C5.19604 7.72198 5.54777 7.37025 5.97597 7.37025C6.40417 7.37025 6.7559 7.72198 6.7559 8.15018V8.15018Z" fill="#F93000"/>
</svg>
