<svg width="44" height="44" viewBox="0 0 44 44" fill="none" xmlns="http://www.w3.org/2000/svg">
	<path opacity="0.5" fill-rule="evenodd" clip-rule="evenodd" d="M44 22C44 34.1503 34.1503 44 22 44C9.84974 44 0 34.1503 0 22C0 9.84974 9.84974 0 22 0C34.1503 0 44 9.84974 44 22ZM40 22C40 31.9411 31.9411 40 22 40C12.0589 40 4 31.9411 4 22C4 12.0589 12.0589 4 22 4C31.9411 4 40 12.0589 40 22ZM19.568 11.034H23.6057V21.3951H31.808V25.3352H23.6057V25.3353H19.568V25.3352V21.3951V11.034Z" fill="#828B95"/>
</svg>