<svg width="46" height="46" viewBox="0 0 46 46" fill="none" xmlns="http://www.w3.org/2000/svg">
	<path fill-rule="evenodd" clip-rule="evenodd" d="M22.9827 45.9654C35.6757 45.9654 45.9654 35.6757 45.9654 22.9827C45.9654 10.2897 35.6757 0 22.9827 0C10.2897 0 0 10.2897 0 22.9827C0 35.6757 10.2897 45.9654 22.9827 45.9654ZM22.9831 41.0366C32.9538 41.0366 41.0366 32.9538 41.0366 22.9831C41.0366 13.0125 32.9538 4.92971 22.9831 4.92971C13.0125 4.92971 4.92971 13.0125 4.92971 22.9831C4.92971 32.9538 13.0125 41.0366 22.9831 41.0366Z" fill="#FF5752"/>
	<path fill-rule="evenodd" clip-rule="evenodd" d="M34.3555 28.5418L24.6101 12.3101C23.8592 11.064 22.0699 11.064 21.335 12.3101L11.5896 28.5418C10.8227 29.8199 11.7494 31.4335 13.2351 31.4335H32.726C34.1958 31.4335 35.1224 29.8199 34.3555 28.5418ZM21.5746 17.9656C21.5746 17.2467 22.1498 16.6716 22.8687 16.6716H23.0444C23.7634 16.6716 24.3385 17.2467 24.3385 17.9656V22.8064C24.3385 23.5253 23.7634 24.1004 23.0444 24.1004H22.8687C22.1498 24.1004 21.5746 23.5253 21.5746 22.8064V17.9656ZM24.5941 27.3596C24.5941 28.2542 23.8592 28.9891 22.9646 28.9891C22.0699 28.9891 21.335 28.2542 21.335 27.3596V27.3596C21.335 26.4649 22.0699 25.73 22.9646 25.73C23.8592 25.73 24.5941 26.4649 24.5941 27.3596V27.3596Z" fill="#FF5752"/>
</svg>