<svg width="34" height="34" viewBox="0 0 34 34" fill="none" xmlns="http://www.w3.org/2000/svg">
	<path fill-rule="evenodd" clip-rule="evenodd" d="M29 23V26H32V28H29V31H27L26.999 28H24V26H27V23H29ZM26 5C27.6569 5 29 6.34315 29 8L29.0008 21.0831C28.6753 21.0284 28.341 21 28 21C26.4827 21 25.0969 21.5632 24.0403 22.492L21.3559 19.5775L18.8665 22.2803L12.6441 15.5244L7.66667 20.9285V26.3333L22.0366 26.3336C22.0124 26.5524 22 26.7747 22 27C22 27.7015 22.1204 28.3749 22.3417 29.0007L8 29C6.34315 29 5 27.6569 5 26V8C5 6.34315 6.34315 5 8 5H26ZM21.8395 9.44444C20.1213 9.44444 18.7284 10.8055 18.7284 12.4844C18.7284 14.1634 20.1213 15.5244 21.8395 15.5244C23.5577 15.5244 24.9506 14.1634 24.9506 12.4844C24.9506 10.8055 23.5577 9.44444 21.8395 9.44444Z" fill="#525C69"/>
</svg>