<svg width="24" height="24" viewBox="0 0 24 24" fill="none" xmlns="http://www.w3.org/2000/svg">
	<path fill-rule="evenodd" clip-rule="evenodd" d="M22 17V19H24V21H22V23H20V21H18V19H20V17H22ZM18.5 3C19.8807 3 21 4.11929 21 5.5V15C19.6546 15 18.4334 15.5314 17.5346 16.3957L15.2669 13.9331L13.3999 15.9602L8.73306 10.8933L5 14.9464V19L16.1003 18.9988C16.0345 19.3223 16 19.6571 16 20C16 20.3429 16.0345 20.6777 16.1003 21.0012L5.5 21C4.11929 21 3 19.8807 3 18.5V5.5C3 4.11929 4.11929 3 5.5 3H18.5ZM15.6296 6.33333C14.341 6.33333 13.2963 7.35412 13.2963 8.61333C13.2963 9.87254 14.341 10.8933 15.6296 10.8933C16.9183 10.8933 17.963 9.87254 17.963 8.61333C17.963 7.35412 16.9183 6.33333 15.6296 6.33333Z" fill="#525C69"/>
</svg>