<svg width="47" height="47" viewBox="0 0 47 47" fill="none" xmlns="http://www.w3.org/2000/svg">
	<path fill-rule="evenodd" clip-rule="evenodd" d="M39 4C41.2091 4 43 5.79086 43 8L43.001 31.1179C42.5121 31.0403 42.0108 31 41.5 31C39.2728 31 37.2245 31.7665 35.6047 33.05L30.5206 27.3995L26.5083 31.8576L16.4794 20.7143L7.98029 29.628V38.983H32.1205C32.0412 39.477 32 39.9837 32 40.5C32 41.3655 32.1157 42.204 32.3326 43.0008L8 43C5.79086 43 4 41.2091 4 39V8C4 5.79086 5.79086 4 8 4H39ZM31.3 10.6857C28.5307 10.6857 26.2857 12.9307 26.2857 15.7C26.2857 18.4693 28.5307 20.7143 31.3 20.7143C34.0693 20.7143 36.3143 18.4693 36.3143 15.7C36.3143 12.9307 34.0693 10.6857 31.3 10.6857Z" fill="#525C69"/>
	<path fill-rule="evenodd" clip-rule="evenodd" d="M43 35V39H47V42H43V46H40V42H36V39H40V35H43Z" fill="#525C69"/>
</svg>