<svg width="47" height="47" viewBox="0 0 47 47" fill="none" xmlns="http://www.w3.org/2000/svg">
	<path fill-rule="evenodd" clip-rule="evenodd" d="M37.4682 19.3332C38.0145 18.7829 38.0187 17.8918 37.4756 17.3383C34.4703 14.2763 31.1464 10.9707 28.1069 7.9093C22.914 2.67897 14.4167 2.67897 9.22387 7.9093C4.03101 13.1397 4.03101 21.6983 9.22387 26.9286L22.2403 40.039C26.1424 43.9691 32.5008 43.9691 36.4028 40.039C40.3047 36.109 40.3047 29.7046 36.4028 25.7746L24.9598 14.2491C22.3474 11.6178 18.1307 11.6178 15.5183 14.2491C12.9058 16.8804 12.9058 21.1275 15.5183 23.7588L22.9957 31.29C23.5454 31.8439 24.437 31.8439 24.9869 31.29L26.1428 30.126C26.6928 29.5721 26.6928 28.6741 26.1428 28.1202L18.6654 20.5888C17.7839 19.7009 17.7839 18.3068 18.6654 17.419C19.5468 16.5311 20.9312 16.5311 21.8127 17.419L33.2555 28.9446C35.4266 31.1311 35.4266 34.6825 33.2555 36.8692C31.0844 39.056 27.5587 39.056 25.3876 36.8692L12.3711 23.7588C8.90914 20.2719 8.90914 14.566 12.3711 11.0792C15.8329 7.5923 21.4979 7.5923 24.9598 11.0792C28.0138 14.1553 31.1597 17.3782 34.3213 20.5181C34.871 21.0641 35.7545 21.0592 36.3002 20.5094L37.4682 19.3332Z" fill="#525C69"/>
</svg>