<svg xmlns="http://www.w3.org/2000/svg" width="49" height="50" viewBox="0 0 49 50">
  <g fill="none" fill-rule="evenodd">
    <path fill="#9DCF00" d="M3.14855274,1.01567764 L3.31600149,1.02495329 C7.09331056,1.35235642 14.6941494,2.56360051 22.9876343,7.00905597 L22.9890971,39.9027128 C17.3976733,36.4914493 10.680047,34.3363308 2.83041367,33.4373572 C1.74234864,33.3137087 0.900217454,32.5808025 0.818724498,31.6686431 L0.812253323,31.523191 L0.812253323,2.95994448 C0.812253323,1.90842573 1.78325822,1.06105963 2.98352816,1.01669399 L3.14855274,1.01567764 Z M48.7915229,2.70370802 L48.797345,2.84367147 L48.797345,31.2819679 C48.797345,32.2381833 47.9859831,33.0555652 46.869336,33.1978695 C42.8861289,33.7098712 33.547025,35.3216204 26.6211958,39.7320431 L26.6213064,7.00209079 C31.9424145,3.73339781 38.4663319,1.70515334 46.1911522,0.917357371 C47.5149014,0.78241126 48.6989194,1.59588641 48.7915229,2.70370802 Z M4.84695831,20.2814644 C4.68103912,21.2295503 5.45394147,22.1120511 6.57328403,22.2525851 C10.6029208,22.7585078 14.003166,23.6244212 16.7773331,24.8392115 C17.7825182,25.2793757 19.0186598,24.9460079 19.5383327,24.0946137 C20.0580056,23.2432194 19.6644202,22.1962044 18.6592351,21.7560402 C15.4563851,20.3535323 11.6269125,19.378311 7.17413056,18.8192622 C6.054788,18.6787282 5.01287749,19.3333784 4.84695831,20.2814644 Z M45.1102258,20.2814644 C44.9443066,19.3333784 43.9023961,18.6787282 42.7830535,18.8192622 C38.3302715,19.378311 34.5007989,20.3535323 31.297949,21.7560402 C30.2927639,22.1962044 29.8991785,23.2432194 30.4188514,24.0946137 C30.9385243,24.9460079 32.1746659,25.2793757 33.179851,24.8392115 C35.9540181,23.6244212 39.3542633,22.7585078 43.3839,22.2525851 C44.5032426,22.1120511 45.276145,21.2295503 45.1102258,20.2814644 Z M4.84695831,12.7961796 C4.68103912,13.7442655 5.45394147,14.6267663 6.57328403,14.7673003 C10.6029208,15.273223 14.003166,16.1391364 16.7773331,17.3539268 C17.7825182,17.794091 19.0186598,17.4607232 19.5383327,16.6093289 C20.0580056,15.7579346 19.6644202,14.7109196 18.6592351,14.2707554 C15.4563851,12.8682476 11.6269125,11.8930262 7.17413056,11.3339774 C6.054788,11.1934435 5.01287749,11.8480937 4.84695831,12.7961796 Z M45.1102258,12.7961796 C44.9443066,11.8480937 43.9023961,11.1934435 42.7830535,11.3339774 C38.3302715,11.8930262 34.5007989,12.8682476 31.297949,14.2707554 C30.2927639,14.7109196 29.8991785,15.7579346 30.4188514,16.6093289 C30.9385243,17.4607232 32.1746659,17.794091 33.179851,17.3539268 C35.9540181,16.1391364 39.3542633,15.273223 43.3839,14.7673003 C44.5032426,14.6267663 45.276145,13.7442655 45.1102258,12.7961796 Z"/>
    <ellipse cx="24.805" cy="47.33" fill="#000" opacity=".023" rx="20.186" ry="1.927"/>
  </g>
</svg>
