<svg width="82" height="48" viewBox="0 0 82 48" fill="none" xmlns="http://www.w3.org/2000/svg">
<g clip-path="url(#clip0_3652_402637)">
<ellipse cx="38.8833" cy="26.6904" rx="35.6021" ry="23.3242" fill="#4DC1E7"/>
<ellipse cx="66.3756" cy="18.3568" rx="26.3424" ry="18.2753" fill="#26CD54"/>
<g filter="url(#filter0_b_3652_402637)">
<rect width="83.5424" height="49.2298" fill="white" fill-opacity="0.6"/>
</g>
<rect width="83.5424" height="49.2298" fill="#BCEDFF"/>
<rect width="83.5424" height="49.2298" fill="white" fill-opacity="0.7"/>
<rect width="83.5424" height="49.2298" fill="#78C5E3"/>
<g opacity="0.35" clip-path="url(#clip1_3652_402637)">
<rect width="82" height="47.9998" fill="white"/>
<path fill-rule="evenodd" clip-rule="evenodd" d="M109.372 -25.2383V-26.7598H106.403C107.401 -26.2563 108.391 -25.7491 109.372 -25.2383ZM-28.498 -2.24966V68.6868H109.372V61.4177C91.0307 59.3759 70.0974 54.2429 48.6473 45.9951C14.7734 32.9701 -12.9443 15.0402 -28.498 -2.24966Z" fill="url(#paint0_linear_3652_402637)"/>
<path fill-rule="evenodd" clip-rule="evenodd" d="M101.264 -11.8105L99.8535 -20.813L88.9495 -19.1011C93.5462 -16.8599 97.6794 -14.4088 101.264 -11.8105ZM-10.0552 17.8201L-2.46913 66.2413L110.708 48.4731L107.37 27.1658C93.6633 37.2517 66.4277 41.2772 37.2052 36.1949C17.7544 32.8121 1.11332 26.036 -10.0552 17.8201Z" fill="url(#paint1_linear_3652_402637)"/>
<ellipse opacity="0.2" rx="69.3534" ry="16.149" transform="matrix(-0.869481 -0.493966 0.493272 -0.869875 55.8792 43.4593)" fill="url(#paint2_linear_3652_402637)"/>
<ellipse opacity="0.1" rx="77.3521" ry="25.7165" transform="matrix(-0.996927 0.0783421 -0.0780312 -0.996951 41.1426 16.1782)" fill="url(#paint3_linear_3652_402637)"/>
<ellipse opacity="0.4" rx="77.3542" ry="25.6998" transform="matrix(0.979909 -0.199443 0.198904 0.980019 77.0349 54.7556)" fill="url(#paint4_linear_3652_402637)"/>
</g>
</g>
<defs>
<filter id="filter0_b_3652_402637" x="-103.68" y="-103.68" width="290.902" height="256.589" filterUnits="userSpaceOnUse" color-interpolation-filters="sRGB">
<feFlood flood-opacity="0" result="BackgroundImageFix"/>
<feGaussianBlur in="BackgroundImageFix" stdDeviation="51.8398"/>
<feComposite in2="SourceAlpha" operator="in" result="effect1_backgroundBlur_3652_402637"/>
<feBlend mode="normal" in="SourceGraphic" in2="effect1_backgroundBlur_3652_402637" result="shape"/>
</filter>
<linearGradient id="paint0_linear_3652_402637" x1="40.4369" y1="-26.7598" x2="40.4369" y2="68.6868" gradientUnits="userSpaceOnUse">
<stop stop-color="#7ED8FF"/>
<stop offset="1" stop-color="white" stop-opacity="0"/>
</linearGradient>
<linearGradient id="paint1_linear_3652_402637" x1="43.2578" y1="-11.937" x2="54.1266" y2="57.3654" gradientUnits="userSpaceOnUse">
<stop stop-color="#7ED8FF"/>
<stop offset="1" stop-color="white" stop-opacity="0"/>
</linearGradient>
<linearGradient id="paint2_linear_3652_402637" x1="69.3534" y1="0" x2="69.3534" y2="32.298" gradientUnits="userSpaceOnUse">
<stop stop-color="#7ED8FF"/>
<stop offset="1" stop-color="white" stop-opacity="0"/>
</linearGradient>
<linearGradient id="paint3_linear_3652_402637" x1="77.3521" y1="0" x2="77.3521" y2="51.433" gradientUnits="userSpaceOnUse">
<stop stop-color="#7ED8FF"/>
<stop offset="1" stop-color="white" stop-opacity="0"/>
</linearGradient>
<linearGradient id="paint4_linear_3652_402637" x1="77.3542" y1="0" x2="77.3542" y2="51.3995" gradientUnits="userSpaceOnUse">
<stop stop-color="#7ED8FF"/>
<stop offset="1" stop-color="white" stop-opacity="0"/>
</linearGradient>
<clipPath id="clip0_3652_402637">
<rect width="82" height="47.9998" fill="white"/>
</clipPath>
<clipPath id="clip1_3652_402637">
<rect width="82" height="47.9998" fill="white"/>
</clipPath>
</defs>
</svg>
