<svg width="22" height="22" viewBox="0 0 22 22" fill="none" xmlns="http://www.w3.org/2000/svg">
	<path fill-rule="evenodd" clip-rule="evenodd" d="M13.3554 15.4408C12.3963 16.0294 11.2679 16.3688 10.0601 16.3688C6.57595 16.3688 3.75146 13.5443 3.75146 10.0601C3.75146 6.57595 6.57595 3.75146 10.0601 3.75146C13.5443 3.75146 16.3688 6.57595 16.3688 10.0601C16.3688 11.2679 16.0294 12.3964 15.4407 13.3555L18.2574 16.1721C18.6834 16.5982 18.6834 17.2889 18.2574 17.7149L17.7148 18.2575C17.2888 18.6835 16.5981 18.6835 16.1721 18.2575L13.3554 15.4408ZM14.3352 10.0602C14.3352 12.4212 12.4212 14.3352 10.0602 14.3352C7.69915 14.3352 5.78516 12.4212 5.78516 10.0602C5.78516 7.69915 7.69915 5.78516 10.0602 5.78516C12.4212 5.78516 14.3352 7.69915 14.3352 10.0602Z" fill="#BDC1C6"/>
</svg>
