<svg width="14" height="14" viewBox="0 0 14 14" fill="none" xmlns="http://www.w3.org/2000/svg">
<path fill-rule="evenodd" clip-rule="evenodd" d="M9.15905 11.0609C8.27993 11.6005 7.2455 11.9116 6.13841 11.9116C2.94458 11.9116 0.355469 9.32247 0.355469 6.12864C0.355469 2.93481 2.94458 0.345703 6.13841 0.345703C9.33223 0.345703 11.9213 2.93481 11.9213 6.12864C11.9213 7.23579 11.6102 8.27027 11.0706 9.14942L13.6525 11.7313C14.043 12.1218 14.043 12.7549 13.6525 13.1455L13.1551 13.6428C12.7646 14.0333 12.1314 14.0333 11.7409 13.6428L9.15905 11.0609ZM9.78373 6.12865C9.78373 8.14189 8.15168 9.77394 6.13844 9.77394C4.12521 9.77394 2.49316 8.14189 2.49316 6.12865C2.49316 4.11542 4.12521 2.48337 6.13844 2.48337C8.15168 2.48337 9.78373 4.11542 9.78373 6.12865Z" fill="#525C69"/>
</svg>
