<svg width="92" height="92" viewBox="0 0 92 92" fill="none" xmlns="http://www.w3.org/2000/svg">
	<g opacity="0.2">
		<path fill-rule="evenodd" clip-rule="evenodd" d="M58.4585 42.7488C58.4585 45.8643 55.8619 48.4133 52.6883 48.4133V48.3984H36.7593C33.449 52.1698 29.3036 56.8356 28.1951 57.7449C26.297 59.325 25.3859 59.3548 25.3859 58.3411V48.3984H21.1037C17.9301 48.3984 15.3335 45.8494 15.3335 42.7339V24.831C15.3335 21.7155 17.9301 19.1665 21.1037 19.1665H52.6883C55.8619 19.1665 58.4585 21.7155 58.4585 24.831V42.7488ZM62.5369 44.5513V30.6665H68.3946C71.5097 30.6665 74.0462 33.214 74.0313 36.3277V54.2497C74.0313 57.3634 71.4948 59.9109 68.3946 59.9109H64.2116V69.8477C64.2116 70.8459 63.3364 70.831 61.4674 69.2518C60.3994 68.3431 56.335 63.68 53.1013 59.9109H37.541C36.4285 59.9109 35.3753 59.5682 34.5002 59.0021L40.3445 52.8791H54.245C58.8137 52.8791 62.5369 49.1249 62.5369 44.5513Z" fill="#525C69"/>
	</g>
</svg>