<svg width="92" height="92" viewBox="0 0 92 92" fill="none" xmlns="http://www.w3.org/2000/svg">
<g opacity="0.9">
<path fill-rule="evenodd" clip-rule="evenodd" d="M58.4583 42.7488C58.4583 45.8643 55.8617 48.4133 52.6881 48.4133V48.3984H36.7591C33.4489 52.1698 29.3034 56.8356 28.1949 57.7449C26.2968 59.325 25.3857 59.3548 25.3857 58.3411V48.3984H21.1036C17.9299 48.3984 15.3333 45.8494 15.3333 42.7339V24.831C15.3333 21.7155 17.9299 19.1665 21.1036 19.1665H52.6881C55.8617 19.1665 58.4583 21.7155 58.4583 24.831V42.7488ZM62.5368 44.5513V30.6665H68.3944C71.5095 30.6665 74.046 33.214 74.0312 36.3277V54.2497C74.0312 57.3634 71.4946 59.9109 68.3944 59.9109H64.2114V69.8477C64.2114 70.8459 63.3362 70.831 61.4672 69.2518C60.3992 68.3431 56.3348 63.68 53.1011 59.9109H37.5408C36.4283 59.9109 35.3752 59.5682 34.5 59.0021L40.3444 52.8791H54.2448C58.8136 52.8791 62.5368 49.1249 62.5368 44.5513Z" fill="white"/>
</g>
</svg>
