<svg width="20" height="20" viewBox="0 0 20 20" fill="none" xmlns="http://www.w3.org/2000/svg">
	<rect x="2" y="2" width="16" height="16" rx="8" fill="#11A9D9"/>
	<path fill-rule="evenodd" clip-rule="evenodd" d="M6.91135 6.85666C5.17538 8.59263 5.17538 11.4072 6.91135 13.1432C8.64732 14.8791 11.4619 14.8791 13.1979 13.1432C13.2554 13.0856 13.3111 13.0268 13.3649 12.9669L12.3989 12.001C12.3467 12.0621 12.2917 12.1215 12.234 12.1793C11.0303 13.3829 9.07887 13.3829 7.87524 12.1793C6.67161 10.9756 6.67161 9.02418 7.87524 7.82055C9.07887 6.61693 11.0303 6.61693 12.234 7.82055L12.2824 7.87065L10.9904 9.1632H14.3911V5.76248L13.247 6.90661L13.1979 6.85666C11.4619 5.1207 8.64732 5.1207 6.91135 6.85666Z" fill="white"/>
</svg>
