<svg width="18" height="18" viewBox="0 0 18 18" fill="none" xmlns="http://www.w3.org/2000/svg">
    <path d="M2.78492 4.8813C2.78492 3.84229 3.62721 3 4.66622 3H13.1333C14.1723 3 15.0146 3.84229 15.0146 4.8813V6.76268H16.5815C16.7491 6.76268 16.833 6.96532 16.7145 7.08384L13.9957 9.80269C13.9222 9.87616 13.8031 9.87616 13.7296 9.80269L11.0107 7.08384C10.8922 6.96532 10.9762 6.76268 11.1438 6.76268H12.7728V5.64037C12.7728 5.39793 12.5763 5.2014 12.3339 5.2014H5.46567C5.22323 5.2014 5.0267 5.39793 5.0267 5.64037V6.51861L2.78492 6.26787V4.8813Z" fill="#828B95"/>
    <path d="M2.78492 11.2095V13.1282C2.78492 14.1672 3.62721 15.0095 4.66622 15.0095H13.1333C14.1723 15.0095 15.0146 14.1672 15.0146 13.1282V11.6233L12.7728 11.3726V12.3691C12.7728 12.6115 12.5763 12.8081 12.3339 12.8081H5.46567C5.22323 12.8081 5.0267 12.6115 5.0267 12.3691V11.2095H6.62621C6.79381 11.2095 6.87775 11.0068 6.75924 10.8883L4.04039 8.16948C3.96692 8.09601 3.8478 8.09601 3.77433 8.16948L1.05548 10.8883C0.936964 11.0068 1.0209 11.2095 1.18851 11.2095H2.78492Z" fill="#828B95"/>
</svg>
