<svg width="18" height="18" viewBox="0 0 18 18" fill="none" xmlns="http://www.w3.org/2000/svg">
    <path fill-rule="evenodd" clip-rule="evenodd" d="M15.15 9C15.4814 9 15.75 9.26863 15.75 9.6V12.6C15.75 13.0971 15.3471 13.5 14.85 13.5H3.9C3.40294 13.5 3 13.0971 3 12.6V9.6C3 9.26863 3.26863 9 3.6 9H15.15ZM11.55 10.5H7.2C6.97632 10.5 6.79076 10.6632 6.75589 10.877L6.75 10.95V11.55C6.75 11.7737 6.91319 11.9592 7.12701 11.9941L7.2 12H11.55C11.7737 12 11.9592 11.8368 11.9941 11.623L12 11.55V10.95C12 10.7015 11.7985 10.5 11.55 10.5ZM5.25 10.5C4.83579 10.5 4.5 10.8358 4.5 11.25C4.5 11.6642 4.83579 12 5.25 12C5.66421 12 6 11.6642 6 11.25C6 10.8358 5.66421 10.5 5.25 10.5ZM13.2112 4.5C13.4911 4.5 13.7476 4.65581 13.8767 4.90412L15.375 7.78692H3.45L4.87649 4.91625C5.00321 4.66125 5.26339 4.5 5.54814 4.5H13.2112Z" fill="#828B95"/>
</svg>
