<svg width="18" height="18" viewBox="0 0 18 18" fill="none" xmlns="http://www.w3.org/2000/svg">
    <path fill-rule="evenodd" clip-rule="evenodd" d="M5.40989 2C4.85761 2 4.40989 2.44772 4.40989 3V5.979C4.40989 6.53129 4.85761 6.979 5.40989 6.979H13.4267C13.979 6.979 14.4267 6.53129 14.4267 5.979V3C14.4267 2.44772 13.979 2 13.4267 2H5.40989ZM6.83473 3.90381C6.50919 3.90381 6.24528 4.16771 6.24528 4.49326C6.24528 4.8188 6.50919 5.0827 6.83473 5.0827H6.98372C7.30926 5.0827 7.57316 4.8188 7.57316 4.49326C7.57316 4.16771 7.30926 3.90381 6.98372 3.90381H6.83473ZM12.5006 4.49326C12.5006 4.16771 12.2367 3.90381 11.9111 3.90381H8.97993C8.65439 3.90381 8.39049 4.16771 8.39049 4.49326C8.39049 4.8188 8.65439 5.0827 8.97993 5.0827H11.9111C12.2367 5.0827 12.5006 4.8188 12.5006 4.49326Z" fill="#828B95"/>
    <path d="M17.6371 8.71601C17.6493 8.72216 17.6607 8.72793 17.6715 8.73315C17.8988 8.84396 17.8672 9.23332 17.6307 9.76225C17.3943 10.2912 13.87 13.8986 13.87 13.8986C12.9807 14.9046 11.4402 14.9587 11.4402 14.9587H5.36852C5.04153 14.9587 4.48352 15.1268 4.48352 15.1268L4.40641 15.1774C3.45944 15.7986 2.18291 15.5116 1.53017 14.5861C1.12958 14.0181 0.653264 13.3798 0.150735 12.7851C-0.098318 12.4904 0.0150528 12.251 0.110207 12.1551C0.997365 11.2609 1.70373 10.6605 2.2293 10.354C3.8658 9.3995 5.21419 9.16631 5.92895 9.16631C6.27674 9.16631 7.35809 9.17429 8.41857 9.18213C9.43893 9.18966 10.44 9.19705 10.7498 9.19705C11.3815 9.19705 11.8541 9.32683 11.8541 10.0956C11.8541 10.8644 11.1079 11.0629 10.7961 11.0629H8.13248C7.65115 11.0629 7.65115 11.5317 7.65115 11.5317C7.65115 11.9243 8.10065 11.9995 8.10065 11.9995H11.6918C12.07 11.9995 12.2436 11.8375 12.2436 11.8375L15.6991 9.22392C16.8361 8.31216 17.3907 8.59176 17.6371 8.71601Z" fill="#828B95"/>
</svg>
