<svg width="18" height="18" viewBox="0 0 18 18" fill="none" xmlns="http://www.w3.org/2000/svg">
    <g clip-path="url(#clip0_209:8375)">
        <path fill-rule="evenodd" clip-rule="evenodd" d="M5.64502 10.6382V17.027C3.5994 16.8678 1.68583 16.4023 0 15.6975C0.0915607 15.044 0.209966 14.3049 0.332394 13.8276C0.59519 12.803 2.07346 12.0421 3.43366 11.457C3.78981 11.3037 4.00482 11.1815 4.22205 11.058C4.43424 10.9373 4.64856 10.8154 4.99862 10.6623C5.03837 10.4736 5.05435 10.2809 5.04619 10.0884L5.6487 10.0169C5.6487 10.0169 5.72798 10.161 5.6008 9.31458C5.6008 9.31458 4.92373 9.13908 4.89236 7.79138C4.89236 7.79138 4.3833 7.96059 4.3526 7.14402C4.34625 6.98131 4.30421 6.82488 4.26392 6.675C4.1673 6.31548 4.0808 5.99364 4.52127 5.7132L4.20349 4.86583C4.20349 4.86583 3.86918 1.5936 5.33429 1.8585C4.73988 0.916766 9.7529 0.133972 10.0859 3.01746C10.2169 3.8867 10.2169 4.77012 10.0859 5.63936C10.0859 5.63936 10.8348 5.55326 10.3348 6.97713C10.3348 6.97713 10.0596 8.00198 9.63686 7.77184C9.63686 7.77184 9.66073 8.22324 9.54331 8.63821H7.64502C6.54045 8.63821 5.64502 9.53365 5.64502 10.6382ZM14.9449 10.1282H17.3392C17.7155 10.1282 18.0233 10.4312 18.0234 10.8015V16.8609C18.0234 17.2312 17.7155 17.5342 17.3392 17.5342H7.76177C7.38552 17.5342 7.07768 17.2312 7.07768 16.8609V10.8015C7.07768 10.4312 7.38552 10.1282 7.76177 10.1282H10.1561C10.3272 9.45494 10.4982 8.78168 11.1823 8.78168H13.9187C14.6028 8.78168 14.7738 9.45494 14.9449 10.1282ZM12.567 15.6157C11.5672 15.6157 10.7567 14.818 10.7567 13.8341C10.7567 12.8501 11.5672 12.0525 12.567 12.0525C13.5668 12.0525 14.3772 12.8501 14.3772 13.8341C14.3772 14.818 13.5668 15.6157 12.567 15.6157ZM9.83787 13.8341C9.83787 15.3175 11.0598 16.52 12.567 16.52C14.0743 16.52 15.2962 15.3175 15.2962 13.8341C15.2962 12.3507 14.0743 11.1481 12.567 11.1481C11.0597 11.1481 9.83787 12.3507 9.83787 13.8341ZM16.0606 11.6414H16.9746V11.0322H16.0606V11.6414Z" fill="#828B95"/>
    </g>
    <defs>
        <clipPath id="clip0_209:8375">
            <rect width="18" height="18" fill="white"/>
        </clipPath>
    </defs>
</svg>
