<svg width="18" height="18" viewBox="0 0 18 18" fill="none" xmlns="http://www.w3.org/2000/svg">
    <path fill-rule="evenodd" clip-rule="evenodd" d="M14.1138 5.60116L14.9214 2.88888C14.9917 2.65306 14.9324 2.39718 14.7657 2.21764C14.599 2.03809 14.3502 1.96214 14.1131 2.01841C13.876 2.07468 13.6867 2.25461 13.6163 2.49043L12.9246 4.81874C10.774 3.68336 8.20998 3.68607 6.0618 4.82597L5.36666 2.49043C5.25789 2.12589 4.87756 1.91956 4.51717 2.02959C4.15678 2.13962 3.95281 2.52434 4.06158 2.88888L4.87257 5.61184C3.05136 7.08431 1.99372 9.31675 2.00003 11.6751C2.00003 15.9312 5.35644 14.8868 9.5 14.8868C13.6435 14.8868 17 15.9312 17 11.6751C17.0073 9.31042 15.9439 7.07252 14.1138 5.60116ZM9.49318 11.0967C6.53545 11.0967 4.13655 11.4069 4.13655 10.1389C4.13655 8.87078 6.53545 7.84123 9.49318 7.84123C12.4509 7.84123 14.8532 8.86975 14.8532 10.1389C14.8532 11.408 12.4543 11.0967 9.49318 11.0967ZM7.04317 8.79116C6.62089 8.86918 6.33168 9.26631 6.38321 9.69739C6.43474 10.1285 6.80919 10.4444 7.23769 10.4184C7.66618 10.3923 8.00055 10.0333 8.00068 9.59909C7.95284 9.11066 7.52679 8.75116 7.04317 8.79116ZM11.2821 9.6995C11.3346 10.1305 11.7096 10.4458 12.1381 10.4192C12.5666 10.3926 12.9007 10.0334 12.9007 9.59909C12.8529 9.1092 12.4247 8.74917 11.9398 8.79116C11.5177 8.87058 11.2296 9.2685 11.2821 9.6995Z" fill="#828B95"/>
</svg>
