<svg width="18" height="18" viewBox="0 0 18 18" fill="none" xmlns="http://www.w3.org/2000/svg">
    <path fill-rule="evenodd" clip-rule="evenodd" d="M15.136 12.9583C17.3764 9.8499 16.8774 5.54691 13.9727 2.94033C11.085 0.354688 6.69924 0.352999 3.8906 2.93661C1.06602 5.54083 0.698271 9.84348 3.034 12.9533C5.34394 16.0516 9.65308 16.9256 12.9448 14.9638C12.9747 14.9857 13.0062 15.0043 13.0401 15.0192L15.0882 15.5615C15.2649 15.6078 15.4515 15.5578 15.5774 15.4298C15.7039 15.3005 15.7507 15.1144 15.7015 14.9395L15.136 12.9583ZM11.2624 9.93714C11.139 9.80033 10.9462 9.74471 10.7683 9.79432C10.5873 9.85145 10.4522 9.99877 10.4148 10.1811C10.3701 10.3675 10.4232 10.5648 10.5568 10.7087L10.8179 10.9838H6.09541C5.85907 10.997 5.68001 11.1924 5.69337 11.4228L5.6968 11.6363C5.69031 11.8667 5.87587 12.0625 6.11297 12.0749H10.8389L10.5866 12.3507C10.4579 12.4943 10.4109 12.6912 10.4613 12.878C10.5045 13.0603 10.6438 13.2076 10.8275 13.2648C11.0065 13.3147 11.1974 13.2587 11.317 13.1219L12.4227 11.9163C12.617 11.6949 12.6116 11.3661 12.4104 11.1447L11.2624 9.93714ZM6.8991 7.24016C7.03617 7.24016 7.16637 7.18228 7.25494 7.08156C7.4489 6.86057 7.44356 6.53171 7.24273 6.31035L6.98196 6.03486H11.7083C11.945 6.02246 12.1245 5.82703 12.1103 5.59627L12.1069 5.38354C12.1138 5.15278 11.9278 4.9566 11.6907 4.94495H6.96477L7.21753 4.66909C7.41072 4.44847 7.40499 4.11999 7.2034 3.90013C7.11215 3.79903 6.98081 3.74078 6.84336 3.7404C6.70591 3.73965 6.5761 3.79715 6.48676 3.89788L5.38105 5.10618C5.18671 5.32679 5.19206 5.65602 5.39327 5.87664L6.53754 7.08156C6.62955 7.18228 6.76127 7.24016 6.8991 7.24016ZM6.20804 7.99671L6.20689 7.99746C5.97018 8.00949 5.79073 8.2053 5.80447 8.43606L5.80791 8.65254C5.80142 8.8833 5.98736 9.07873 6.22407 9.09114H11.937C12.1737 9.07873 12.3532 8.8833 12.3394 8.65254L12.3356 8.43831C12.3432 8.20643 12.1577 8.00949 11.9198 7.99671H6.20804Z" fill="#828B95"/>
</svg>
