<svg width="18" height="18" viewBox="0 0 18 18" fill="none" xmlns="http://www.w3.org/2000/svg">
    <path fill-rule="evenodd" clip-rule="evenodd" d="M2.60028 2H15.3997C16.2835 2 17 2.77222 17 3.72479V14.2752C17 15.2278 16.2835 16 15.3997 16H2.60028C1.71647 16 1 15.2278 1 14.2752V3.72479C1 2.77222 1.71647 2 2.60028 2ZM3 6V14H15V6H3ZM4 5C4.55228 5 5 4.55228 5 4C5 3.44772 4.55228 3 4 3C3.44772 3 3 3.44772 3 4C3 4.55228 3.44772 5 4 5ZM7 5C7.55228 5 8 4.55228 8 4C8 3.44772 7.55228 3 7 3C6.44772 3 6 3.44772 6 4C6 4.55228 6.44772 5 7 5Z" fill="#828B95"/>
</svg>
