<svg width="18" height="18" viewBox="0 0 18 18" fill="none" xmlns="http://www.w3.org/2000/svg">
    <path fill-rule="evenodd" clip-rule="evenodd" d="M12.3924 1L5.49022 1C4.64544 1 4 1.61295 4 2.4152V15.6235C4 16.3779 4.64544 17.0387 5.49022 17.0387H12.3924C13.2372 17.0387 13.8826 16.3779 13.8826 15.6235V2.4152C13.8826 1.61384 13.2372 1 12.3924 1ZM8.9413 16.5672C8.42209 16.5672 7.99753 16.1427 7.99753 15.6235C7.99753 15.1042 8.42209 14.6797 8.9413 14.6797C9.46051 14.6797 9.88507 15.1042 9.88507 15.6235C9.88507 16.1427 9.46051 16.5672 8.9413 16.5672ZM12.511 14.2092H5.37172V3.35897L12.5118 3.35897L12.511 14.2092Z" fill="#828B95"/>
</svg>
