<svg width="18" height="18" viewBox="0 0 18 18" fill="none" xmlns="http://www.w3.org/2000/svg">
    <path fill-rule="evenodd" clip-rule="evenodd" d="M15.2416 5.21639C15.5779 5.42258 15.8132 5.76362 15.8614 6.1578L15.8705 6.30795L15.87 7.55939L10.9643 7.56026C10.4515 7.56026 10.0288 7.9463 9.97105 8.44364L9.96432 8.56026V11.2452C9.96432 11.758 10.3504 12.1807 10.8477 12.2384L10.9643 12.2452L15.87 12.2444L15.8705 13.7117C15.8705 14.3866 15.3238 14.943 14.6267 15.0061L14.4943 15.0121H3.73381C2.82656 15.0121 2.0822 14.3155 2.00636 13.4279L2 13.2782V5.21739L15.2416 5.21639ZM15.87 8.51639V11.2884L10.9363 11.2888V8.51664L15.87 8.51639ZM13.2698 8.90867C12.7911 8.90867 12.4029 9.29689 12.4029 9.77558C12.4029 10.2543 12.7911 10.6425 13.2698 10.6425C13.7485 10.6425 14.1367 10.2543 14.1367 9.77558C14.1367 9.29689 13.7485 8.90867 13.2698 8.90867ZM13.3788 1L14.252 4.262H3.72796L3.55896 3.63121L13.3788 1Z" fill="#828B95"/>
</svg>
