<svg width="18" height="18" viewBox="0 0 18 18" fill="none" xmlns="http://www.w3.org/2000/svg">
    <path fill-rule="evenodd" clip-rule="evenodd" d="M8.92514 2.00523C8.91095 2.00954 8.89614 2.01815 8.88071 2.0259L2.232 4.65755C2.06541 4.73591 2.00494 4.90555 2 5.10532V13.5787C2.00185 13.7682 2.10119 13.9481 2.232 13.9989L8.81659 16.6028C8.89803 16.639 9.00477 16.6338 9.093 16.6097L15.7367 13.9851C15.8675 13.9317 15.9649 13.7483 15.9637 13.558V5.16042C15.9674 4.90208 15.9032 4.75053 15.7317 4.6713L9.04857 2.02598C9.00291 2.00273 8.96709 1.99318 8.92514 2.00523ZM8.96462 2.90768L14.4831 5.09834L8.96462 7.27522L3.4413 5.09146L8.96462 2.90768Z" fill="#828B95"/>
</svg>
