<svg width="18" height="18" viewBox="0 0 18 18" fill="none" xmlns="http://www.w3.org/2000/svg">
    <path fill-rule="evenodd" clip-rule="evenodd" d="M4.31131 3.15468C4.78693 2.67833 6.223 2.59911 6.23394 2.85089C6.24487 3.10267 7.52808 5.89607 7.53926 6.14785C7.55044 6.39963 6.69327 7.25826 6.44246 7.50883C6.19165 7.7594 8.11937 9.93744 8.15559 9.97852L8.61882 10.3786C9.28256 10.94 10.4431 11.8735 10.6197 11.6955L10.9251 11.3939C11.2825 11.0494 11.7944 10.5888 11.9787 10.5968C12.23 10.6077 15.0186 11.8934 15.2708 11.9043C15.5231 11.9152 15.4431 13.3542 14.9675 13.8306L14.8803 13.9107C14.3131 14.3945 12.2451 15.5633 8.79646 13.0772C8.42029 12.8603 7.838 12.3806 6.97248 11.5263L6.7878 11.3427C5.82443 10.3771 5.2951 9.7401 5.06422 9.33813C2.42952 5.67054 3.90496 3.56175 4.31131 3.15468Z" fill="#828B95"/>
</svg>