<svg width="24" height="24" viewBox="0 0 24 24" fill="none" xmlns="http://www.w3.org/2000/svg">
	<path d="M7.0374 19.2604C6.8564 19.2604 6.68545 19.1905 6.55472 19.0607C6.33349 18.8509 6.27316 18.5214 6.41394 18.2517C6.82623 17.4029 7.01729 16.8936 7.08768 16.6339C5.08657 15.3457 3.89999 13.3483 3.89999 11.2112C3.87987 7.45628 7.52008 4.40039 11.9949 4.40039C16.4698 4.40039 20.0999 7.45628 20.0999 11.2112C20.0999 14.9662 16.4597 18.0221 11.9949 18.0221C11.3815 18.0221 10.7681 17.9621 10.1748 17.8523C9.99381 17.8822 8.92789 18.3416 7.36924 19.1705C7.25863 19.2304 7.14801 19.2504 7.0374 19.2504V19.2604ZM11.9949 5.59878C8.18376 5.59878 5.08657 8.11539 5.08657 11.2112C5.08657 12.9988 6.15249 14.7065 7.94242 15.7551C8.37482 16.0048 8.4251 16.4841 8.06309 17.4528C9.86308 16.564 10.205 16.6339 10.396 16.6739C10.9189 16.7737 11.4519 16.8237 11.9849 16.8237C15.796 16.8237 18.8932 14.3071 18.8932 11.2112C18.8932 8.11539 15.796 5.59878 11.9949 5.59878Z" fill="#00ACE3"/>
</svg>
