<svg width="20" height="20" viewBox="0 0 20 20" fill="none" xmlns="http://www.w3.org/2000/svg">
	<path fill-rule="evenodd" clip-rule="evenodd" d="M4.73599 4.37988L15.0332 14.6771L14.1143 15.596L12.5877 14.0692L12.5256 14.0978C11.7439 14.4437 10.9358 14.6166 10.1014 14.6166C7.6341 14.6166 5.39735 13.1045 3.39119 10.0802C3.35151 10.0204 3.34488 9.94557 3.37134 9.88075L3.39119 9.84326L3.5283 9.63938C4.21457 8.63357 4.92757 7.80288 5.66726 7.14732L3.81709 5.29877L4.73599 4.37988ZM10.1014 5.30674C12.5688 5.30674 14.8055 6.81889 16.8117 9.84319C16.8514 9.90302 16.858 9.97781 16.8315 10.0426L16.8117 10.0801L16.6746 10.284C16.0034 11.2677 15.3066 12.084 14.5843 12.7327L12.4024 10.5503C12.4504 10.3621 12.4759 10.1649 12.4759 9.96169C12.4759 8.65028 11.4128 7.58718 10.1014 7.58718C9.89807 7.58718 9.70067 7.61275 9.51228 7.66085L7.67663 5.82587C8.45852 5.47979 9.26678 5.30674 10.1014 5.30674ZM7.72694 9.96169C7.72694 11.2731 8.79004 12.3362 10.1014 12.3362C10.3304 12.3362 10.5517 12.3038 10.7612 12.2433L7.81982 9.30191C7.75936 9.51138 7.72694 9.73275 7.72694 9.96169Z" fill="#525C69" fill-opacity="0.4"/>
</svg>
