<svg xmlns="http://www.w3.org/2000/svg" width="66" height="14" viewBox="0 0 66 14">
  <g fill="none" fill-rule="evenodd" transform="translate(.288 .1)">
    <path fill="#0065A3" d="M48.2979,2.81792 C48.2979,2.04357 47.6573,1.77189 46.9757,1.77189 C46.0624,1.77189 45.3126,2.07071 44.6174,2.38323 L44.1402,0.956869 C44.9173,0.603597 45.9942,0.209656 47.2756,0.209656 C49.2794,0.209656 50.2473,1.21493 50.2473,2.62767 C50.2473,5.10015 46.8394,5.79291 46.2667,7.68128 L50.3699,7.68128 L50.3699,9.25704 L43.8403,9.25704 C44.2084,4.84209 48.2979,4.58394 48.2979,2.81792"/>
    <path fill="#0065A3" d="M53.2463,5.62996 L54.0642,5.62996 L54.0642,4.66544 C54.0642,3.97269 54.1187,3.1711 54.146,2.99455 L52.1149,5.67072 C52.2784,5.6571 52.9328,5.62996 53.2463,5.62996 L53.2463,5.62996 Z M50.0428,5.9424 L54.5413,0.236877 L55.8773,0.236877 L55.8773,5.62996 L57.2132,5.62996 L57.2132,7.12422 L55.8773,7.12422 L55.8773,9.25704 L54.0642,9.25704 L54.0642,7.12422 L50.0428,7.12422 L50.0428,5.9424 Z"/>
    <path fill="#1EC6FA" d="M2.43477 7.88424C3.59099 7.88424 4.07072 7.5165 4.07072 6.74437 4.07072 6.30308 3.89854 5.99664 3.61565 5.82497 3.3081 5.64115 2.86527 5.59209 2.36096 5.59209L1.80742 5.59209 1.80742 7.88424 2.43477 7.88424zM.122314 1.17944L5.44836 1.17944 5.0301 2.54004 1.80742 2.54004 1.80742 4.23157 2.36096 4.23157C3.23429 4.23157 4.00925 4.34185 4.61193 4.66062 5.32541 5.02827 5.75591 5.69021 5.75591 6.7198 5.75591 8.16611 4.88258 9.25709 2.39786 9.25709L.122314 9.25709.122314 1.17944zM6.6662 3.45935L8.27758 3.45935 8.27758 5.77599C8.27758 6.25402 8.26525 6.71979 8.22835 7.05072L8.26525 7.05072C8.40053 6.81791 8.68351 6.32756 9.01555 5.84954L10.6762 3.45935 12.2998 3.45935 12.2998 9.25708 10.6762 9.25708 10.6762 6.94044C10.6762 6.46242 10.7007 5.99664 10.7376 5.66571L10.7007 5.66571C10.5655 5.8986 10.2702 6.38887 9.95044 6.86689L8.28983 9.25708 6.6662 9.25708 6.6662 3.45935z"/>
    <polygon fill="#1EC6FA" points="14.698 4.832 12.964 4.832 12.964 3.459 18.45 3.459 18.02 4.832 16.359 4.832 16.359 9.257 14.698 9.257"/>
    <path fill="#1EC6FA" d="M21.3285 8.01909C22.3249 8.01909 22.8168 7.36949 22.8168 6.35214 22.8168 5.22443 22.2018 4.67286 21.1809 4.67286 20.9717 4.67286 20.7995 4.6851 20.615 4.7464L20.615 7.89648C20.8364 7.97003 21.0456 8.01909 21.3285 8.01909L21.3285 8.01909zM18.9545 3.69224C19.5941 3.4716 20.3813 3.31226 21.2547 3.31226 23.4195 3.31226 24.5143 4.52576 24.5143 6.35214 24.5143 8.09264 23.3335 9.37969 21.4515 9.37969 21.1685 9.37969 20.8856 9.34288 20.615 9.26933L20.615 12.162 18.9545 12.162 18.9545 3.69224zM25.3016 3.45935L26.913 3.45935 26.913 5.77599C26.913 6.25402 26.9006 6.71979 26.8637 7.05072L26.9006 7.05072C27.0359 6.81791 27.3189 6.32756 27.6509 5.84954L29.3115 3.45935 30.9352 3.45935 30.9352 9.25708 29.3115 9.25708 29.3115 6.94044C29.3115 6.46242 29.3361 5.99664 29.373 5.66571L29.3361 5.66571C29.2008 5.8986 28.9056 6.38887 28.5858 6.86689L26.9252 9.25708 25.3016 9.25708 25.3016 3.45935zM32.0054 3.45935L33.666 3.45935 33.666 5.67796 34.2809 5.67796C34.9822 5.67796 34.9575 4.50119 35.4741 3.81485 35.6955 3.50841 36.0399 3.31226 36.5689 3.31226 36.7411 3.31226 37.0485 3.33674 37.2331 3.39805L37.2331 4.80771C37.1347 4.77089 37.0117 4.74641 36.8887 4.74641 36.7042 4.74641 36.5811 4.80771 36.4827 4.93023 36.1875 5.29797 36.1384 6.0457 35.7078 6.31532L35.7078 6.33981C35.9908 6.45017 36.1998 6.65849 36.372 7.02623L37.4176 9.25708 35.6217 9.25708 34.9328 7.44295C34.7853 7.08754 34.6377 6.9282 34.4778 6.9282L33.666 6.9282 33.666 9.25708 32.0054 9.25708 32.0054 3.45935zM37.6882 6.38887C37.6882 4.55025 39.115 3.31226 40.8249 3.31226 41.6121 3.31226 42.1286 3.5329 42.4362 3.72906L42.4362 5.11415C42.0179 4.79547 41.5751 4.6238 41.0093 4.6238 39.9884 4.6238 39.3857 5.39601 39.3857 6.37663 39.3857 7.46752 40.0007 8.05591 40.9356 8.05591 41.4521 8.05591 41.8458 7.90873 42.2763 7.66368L42.7437 8.79131C42.2639 9.13447 41.5137 9.37969 40.7018 9.37969 38.7707 9.37969 37.6882 8.09264 37.6882 6.38887"/>
    <path fill="#0065A3" d="M61.2288,5.50532 C59.9358,5.50532 58.8876,4.45732 58.8876,3.16462 C58.8876,1.87191 59.9358,0.823998 61.2288,0.823998 C62.5219,0.823998 63.5701,1.87191 63.5701,3.16462 C63.5701,4.45732 62.5219,5.50532 61.2288,5.50532 M61.2288,0.155212 C59.5664,0.155212 58.2188,1.50254 58.2188,3.16461 C58.2188,4.82669 59.5664,6.1741 61.2288,6.1741 C62.8913,6.1741 64.2389,4.82669 64.2389,3.16461 C64.2389,1.50254 62.8913,0.155212 61.2288,0.155212"/>
    <polygon fill="#0065A3" points="61.563 1.827 61.563 2.83 62.567 2.83 62.567 3.499 60.894 3.499 60.894 2.83 60.894 1.827"/>
  </g>
</svg>
