<svg xmlns="http://www.w3.org/2000/svg" width="52" height="10" viewBox="0 0 52 10">
  <g fill="none" fill-rule="evenodd">
    <path fill="#1EC6FA" d="M2.74203584,8.32373637 C3.74875278,8.32373637 4.25211126,7.98044939 4.25211126,7.18839054 C4.25211126,6.51527882 3.74875278,6.13243501 2.91427867,6.13243501 L1.81480139,6.13243501 L1.81480139,8.32373637 L2.74203584,8.32373637 Z M2.50358831,4.65398661 C3.29841338,4.65398661 3.70901153,4.20521473 3.70901153,3.63768013 C3.70901153,3.04358988 3.3116912,2.58163239 2.46384706,2.58163239 L1.81480139,2.58163239 L1.81480139,4.65398661 L2.50358831,4.65398661 Z M-1.84414169e-05,1.103184 L2.74203584,1.103184 C4.63624597,1.103184 5.48409011,2.19878858 5.48409011,3.30767097 C5.48409011,4.02043174 5.12641883,4.72000689 4.45081752,5.06329386 L4.45081752,5.08966509 C5.49736793,5.36683958 6.08020891,6.21164089 6.08020891,7.18839054 C6.08020891,8.50851936 5.04693632,9.80209255 2.98048336,9.80209255 L-1.84414169e-05,9.80209255 L-1.84414169e-05,1.103184 Z"/>
    <polygon points="0 9.934 51.358 9.934 51.358 0 0 0"/>
    <path fill="#1EC6FA" d="M7.02073962 9.80207411L8.80900381 9.80207411 8.80900381 3.5583636 7.02073962 3.5583636 7.02073962 9.80207411zM6.83521896 1.63114332C6.83521896 1.06360872 7.29883618.601559019 7.92151062.601559019 8.53081504.601559019 8.99443226 1.03723749 8.99443226 1.63114332 8.99443226 2.21204796 8.53081504 2.68719106 7.92151062 2.68719106 7.29883618 2.68719106 6.83521896 2.22523357 6.83521896 1.63114332L6.83521896 1.63114332zM10.5178685 8.17849177L10.5178685 4.9445127 9.36537214 4.9445127 9.36537214 3.5584558 10.5178685 3.5584558 10.5178685 2.09319302 12.3194105 1.57840087 12.3194105 3.5584558 14.2137128 3.5584558 13.8030225 4.9445127 12.3194105 4.9445127 12.3194105 7.72971989C12.3194105 8.31053231 12.5048389 8.50850092 12.9154371 8.50850092 13.2599228 8.50850092 13.6043162 8.38964599 13.8427637 8.23123422L14.3594 9.44569373C13.8957828 9.76251727 13.0744943 9.93411465 12.4519121 9.93411465 11.2596745 9.93411465 10.5178685 9.27409634 10.5178685 8.17849177M14.8495268 3.5584097L16.3596944 3.5584097 16.5583085 4.21842801C17.0882226 3.73000708 17.5915811 3.39999793 18.2670902 3.39999793 18.5718346 3.39999793 18.9427837 3.49238943 19.2208803 3.69045024L18.598298 5.16889864C18.2804602 4.97083782 17.9757158 4.93128098 17.8035652 4.93128098 17.4193382 4.93128098 17.114686 5.06322932 16.6378832 5.44607313L16.6378832 9.80212021 14.8495268 9.80212021 14.8495268 3.5584097zM19.5655135 9.80207411L21.3538699 9.80207411 21.3538699 3.5583636 19.5655135 3.5583636 19.5655135 9.80207411zM19.3799928 1.63114332C19.3799928 1.06360872 19.8437022.601559019 20.4661923.601559019 21.0755889.601559019 21.5392061 1.03723749 21.5392061 1.63114332 21.5392061 2.21204796 21.0755889 2.68719106 20.4661923 2.68719106 19.8437022 2.68719106 19.3799928 2.22523357 19.3799928 1.63114332L19.3799928 1.63114332z"/>
    <polygon fill="#1EC6FA" points="24.175 6.66 21.884 3.558 23.738 3.558 25.142 5.459 26.547 3.558 28.401 3.558 26.083 6.66 28.427 9.802 26.573 9.802 25.129 7.848 23.672 9.802 21.817 9.802"/>
    <path fill="#0065A3" d="M34.1632227,2.8800053 C34.1632227,2.04608442 33.4733293,1.75351135 32.7392687,1.75351135 C31.7556957,1.75351135 30.9482383,2.07531407 30.199609,2.41186993 L29.6856467,0.875792109 C30.5225182,0.495345678 31.6822989,0.0711008828 33.0622701,0.0711008828 C35.2201925,0.0711008828 36.2625014,1.15370426 36.2625014,2.67512115 C36.2625014,5.33778513 32.592475,6.08383265 31.975794,8.1174599 L36.3946341,8.1174599 L36.3946341,9.81443908 L29.3627375,9.81443908 C29.7591357,5.05987298 34.1632227,4.78186862 34.1632227,2.8800053"/>
    <path fill="#0065A3" d="M39.4921375 5.90833491L40.3729918 5.90833491 40.3729918 4.8696221C40.3729918 4.12357458 40.4316355 3.26033186 40.4611418 3.07020085L38.2737131 5.95222548C38.4498286 5.93756455 39.1545674 5.90833491 39.4921375 5.90833491L39.4921375 5.90833491zM36.0423017 6.24479856L40.8867697.100395074 42.325569.100395074 42.325569 5.90833491 43.7641839 5.90833491 43.7641839 7.51753294 42.325569 7.51753294 42.325569 9.81441142 40.3729918 9.81441142 40.3729918 7.51753294 36.0423017 7.51753294 36.0423017 6.24479856zM48.1164782 5.76174408C46.7239668 5.76174408 45.5951677 4.63312937 45.5951677 3.24098681 45.5951677 1.84875204 46.7239668.720229536 48.1164782.720229536 49.5089896.720229536 50.6377887 1.84875204 50.6377887 3.24098681 50.6377887 4.63312937 49.5089896 5.76174408 48.1164782 5.76174408M48.1164782.0000922070844C46.3261854.0000922070844 44.8748459 1.45106289 44.8748459 3.24098681 44.8748459 5.03091073 46.3261854 6.48197362 48.1164782 6.48197362 49.9067709 6.48197362 51.3581105 5.03091073 51.3581105 3.24098681 51.3581105 1.45106289 49.9067709.0000922070844 48.1164782.0000922070844"/>
    <path fill="#0065A3" d="M48.4765837,1.80052774 L48.476262,2.88052774 L49.5571586,2.88073373 L49.5571586,3.60105548 L47.756262,3.60105548 L47.756262,1.80052774 L48.4765837,1.80052774 Z"/>
  </g>
</svg>
