<svg xmlns="http://www.w3.org/2000/svg" width="61" height="15" viewBox="0 0 61 15">
  <g fill="none" fill-rule="evenodd" transform="translate(0 .55)">
    <path fill="#1EC6FA" d="M2.4903566,8.39435777 C3.73552107,8.39435777 4.25215736,7.99832835 4.25215736,7.16671265 C4.25215736,6.69147734 4.06672891,6.36146818 3.76207671,6.17668519 C3.43086886,5.97871657 2.95397382,5.92588192 2.41087409,5.92588192 L1.81475529,5.92588192 L1.81475529,8.39435777 L2.4903566,8.39435777 Z M2.76621253e-05,1.17380541 L5.73576935,1.17380541 L5.28533774,2.63906818 L1.81475529,2.63906818 L1.81475529,4.46071134 L2.41087409,4.46071134 C3.35138635,4.46071134 4.18595267,4.57947407 4.83499834,4.92266884 C5.60335998,5.31869826 6.0669772,6.03145903 6.0669772,7.14024922 C6.0669772,8.69790349 5.12646493,9.87271396 2.45061534,9.87271396 L2.76621253e-05,9.87271396 L2.76621253e-05,1.17380541 Z"/>
    <polygon points="0 13.001 60.75 13.001 60.75 .071 0 .071"/>
    <path fill="#1EC6FA" d="M7.02083182,9.87270474 L8.80909602,9.87270474 L8.80909602,3.62899422 L7.02083182,3.62899422 L7.02083182,9.87270474 Z M6.83531117,1.70177395 C6.83531117,1.13423935 7.29892839,0.672189645 7.92160283,0.672189645 C8.53090724,0.672189645 8.99452446,1.10786812 8.99452446,1.70177395 C8.99452446,2.28267858 8.53090724,2.75782169 7.92160283,2.75782169 C7.29892839,2.75782169 6.83531117,2.29577199 6.83531117,1.70177395 L6.83531117,1.70177395 Z"/>
    <polygon fill="#1EC6FA" points="11.366 5.107 9.498 5.107 9.498 3.629 15.406 3.629 14.942 5.107 13.154 5.107 13.154 9.873 11.366 9.873"/>
    <path fill="#1EC6FA" d="M18.5057129 8.53951017C19.5787267 8.53951017 20.1085486 7.83993502 20.1085486 6.74423823 20.1085486 5.52987093 19.4462251 4.93587289 18.3467479 4.93587289 18.121486 4.93587289 17.9360575 4.94915071 17.7373513 5.01507878L17.7373513 8.40746962C17.9757988 8.48676771 18.2010607 8.53951017 18.5057129 8.53951017L18.5057129 8.53951017zM15.9490871 3.87982515C16.6379662 3.6422997 17.4857181 3.47061011 18.4262304 3.47061011 20.7575943 3.47061011 21.9365541 4.77746112 21.9365541 6.74423823 21.9365541 8.61871605 20.6649262 10.0047729 18.6382145 10.0047729 18.3334701 10.0047729 18.0288178 9.9651239 17.7373513 9.88601022L17.7373513 13.0012266 15.9490871 13.0012266 15.9490871 3.87982515zM22.7579071 9.87270474L24.5461713 9.87270474 24.5461713 3.62899422 22.7579071 3.62899422 22.7579071 9.87270474zM22.5724787 1.70177395C22.5724787 1.13423935 23.0360959.672189645 23.6587703.672189645 24.2680748.672189645 24.731692 1.10786812 24.731692 1.70177395 24.731692 2.28267858 24.2680748 2.75782169 23.6587703 2.75782169 23.0360959 2.75782169 22.5724787 2.29577199 22.5724787 1.70177395L22.5724787 1.70177395zM25.6722411 3.6290311L27.4605975 3.6290311 27.4605975 6.01830108 28.1228288 6.01830108C28.8780048 6.01830108 28.8514492 4.75109911 29.4078267 4.01178271 29.6462743 3.68186576 30.0171311 3.47061933 30.5867865 3.47061933 30.772215 3.47061933 31.1033306 3.49699056 31.3021291 3.56301083L31.3021291 5.08101606C31.1960909 5.04145922 31.0636816 5.015088 30.93118 5.015088 30.7324737 5.015088 30.5999721 5.08101606 30.4940262 5.21305661 30.1760962 5.60908604 30.1231693 6.4142383 29.6594599 6.70469061L29.6594599 6.73115405C29.9642043 6.84991677 30.1892818 7.07425661 30.3748024 7.47028603L31.5007431 9.87274162 29.5666995 9.87274162 28.8248935 7.91905791C28.6660207 7.53630631 28.5070557 7.36470892 28.3348129 7.36470892L27.4605975 7.36470892 27.4605975 9.87274162 25.6722411 9.87274162 25.6722411 3.6290311zM31.7922189 6.78388728C31.7922189 4.80383235 33.3287578 3.47061011 35.1701333 3.47061011 36.0178852 3.47061011 36.5741706 3.70831998 36.9053784 3.9194742L36.9053784 5.411016C36.4549468 5.06791344 35.9780518 4.88313044 35.3687473 4.88313044 34.2692701 4.88313044 33.6202244 5.71465393 33.6202244 6.77060946 33.6202244 7.94551213 34.2825479 8.57915921 35.289357 8.57915921 35.8456424 8.57915921 36.2696106 8.42074744 36.7332278 8.15675856L37.2365862 9.37112586C36.7198577 9.74069185 35.9119393 10.0047729 35.0376317 10.0047729 32.9579009 10.0047729 31.7922189 8.61871605 31.7922189 6.78388728"/>
    <path fill="#0065A3" d="M43.5551044,2.93126321 C43.5551044,2.09734234 42.865211,1.80476926 42.1311504,1.80476926 C41.1475774,1.80476926 40.34012,2.12657199 39.5914906,2.46312785 L39.0775284,0.927050027 C39.9143999,0.546603596 41.0741806,0.122358801 42.4541518,0.122358801 C44.6120742,0.122358801 45.6543831,1.20496218 45.6543831,2.72637907 C45.6543831,5.38904305 41.9843567,6.13509057 41.3676757,8.16871782 L45.7865158,8.16871782 L45.7865158,9.865697 L38.7546191,9.865697 C39.1510174,5.1111309 43.5551044,4.83312654 43.5551044,2.93126321"/>
    <path fill="#0065A3" d="M48.8840284 5.95960205L49.7648827 5.95960205 49.7648827 4.92088924C49.7648827 4.17484172 49.8235264 3.311599 49.8530327 3.12146799L47.665604 6.00349262C47.8417195 5.98883169 48.5464583 5.95960205 48.8840284 5.95960205L48.8840284 5.95960205zM45.4341925 6.2960657L50.2786606.151662212 51.7174599.151662212 51.7174599 5.95960205 53.1560748 5.95960205 53.1560748 7.56880008 51.7174599 7.56880008 51.7174599 9.86567856 49.7648827 9.86567856 49.7648827 7.56880008 45.4341925 7.56880008 45.4341925 6.2960657zM57.5083599 5.83236549C56.1158485 5.83236549 54.9870493 4.70375078 54.9870493 3.31160822 54.9870493 1.91937345 56.1158485.790850942 57.5083599.790850942 58.9008713.790850942 60.0296704 1.91937345 60.0296704 3.31160822 60.0296704 4.70375078 58.9008713 5.83236549 57.5083599 5.83236549M57.5083599.070713613C55.7180671.070713613 54.2667276 1.52168429 54.2667276 3.31160822 54.2667276 5.10153214 55.7180671 6.55259503 57.5083599 6.55259503 59.2986526 6.55259503 60.7499921 5.10153214 60.7499921 3.31160822 60.7499921 1.52168429 59.2986526.070713613 57.5083599.070713613"/>
    <path fill="#0065A3" d="M57.8685207,1.87115836 L57.868199,2.95115836 L58.9490956,2.95136436 L58.9490956,3.6716861 L57.148199,3.6716861 L57.148199,1.87115836 L57.8685207,1.87115836 Z"/>
  </g>
</svg>
