<svg width="21" height="20" viewBox="0 0 21 20" fill="none" xmlns="http://www.w3.org/2000/svg">
<circle cx="10.2941" cy="10" r="10" fill="#FF5752"/>
<path fill-rule="evenodd" clip-rule="evenodd" d="M5.81163 12.3247L8.3182 12.3243C8.39037 12.3243 8.46008 12.366 8.48708 12.4323C8.59998 12.7145 8.59557 13.0326 8.47186 13.3129C8.2642 13.9172 8.24064 14.5702 8.40362 15.1882C8.57397 15.6133 8.61913 16.3899 9.40507 16.4258C9.65102 16.3895 9.86554 16.2417 9.98925 16.0262C10.0113 15.9879 10.0207 15.9427 10.0207 15.899C10.0207 15.899 9.98455 15.1449 10.0207 14.6207C10.0568 14.0965 11.0599 12.7612 11.6976 11.9134C11.7379 11.8594 11.7943 11.824 11.8611 11.8137C12.1002 11.7779 12.5562 11.7173 12.7206 11.6956C12.759 11.6905 12.7815 11.6422 12.7815 11.6195C12.7815 10.5597 12.7815 8.97438 12.7815 6.86351C12.7815 6.84601 12.7604 6.80788 12.7229 6.80169C12.5941 6.78044 12.272 6.72152 11.947 6.61697C11.5386 6.4859 11.1984 6.17565 10.5175 5.94591C10.4816 5.93363 10.4419 5.92725 10.4041 5.92725L7.20679 5.92725C6.79394 6.00089 6.48663 6.35385 6.46552 6.7775C6.45963 7.01363 6.50676 7.2473 6.60347 7.46182C6.61721 7.49275 6.59905 7.52515 6.56567 7.53153C6.15576 7.60615 5.64325 8.38424 6.27456 9.01113C6.29125 9.02733 6.2883 9.04942 6.26572 9.05531C5.91767 9.14416 5.65111 9.42201 5.56962 9.76859C5.5382 9.90114 5.54949 10.0381 5.58876 10.1682C5.63491 10.3233 5.70854 10.4686 5.80623 10.5982C5.83078 10.6306 5.81703 10.6728 5.77776 10.6856C5.43118 10.8029 5.1926 11.1343 5.19506 11.5113C5.15529 11.881 5.45229 12.3243 5.81163 12.3247ZM13.7629 12.1245L15.5748 12.1245C15.669 12.1245 15.7407 12.041 15.7245 11.9502L14.672 6.03721C14.6558 5.9464 14.5758 5.88012 14.482 5.88012L13.8119 5.88012C13.7084 5.88012 13.6244 5.96211 13.6244 6.06323L13.6097 11.9742C13.6097 12.0572 13.6779 12.1245 13.7629 12.1245Z" fill="white"/>
</svg>
