<svg width="20" height="20" viewBox="0 0 20 20" fill="none" xmlns="http://www.w3.org/2000/svg">
<circle cx="10" cy="10" r="10" fill="#62A9F3"/>
<path fill-rule="evenodd" clip-rule="evenodd" d="M14.5667 8.25326L12.0601 8.25375C11.9879 8.25375 11.9182 8.21202 11.8912 8.14575C11.7783 7.86348 11.7827 7.54537 11.9064 7.26506C12.1141 6.66075 12.1377 6.00785 11.9747 5.3898C11.8043 4.96467 11.7592 4.18806 10.9732 4.15222C10.7273 4.18855 10.5128 4.33631 10.389 4.55182C10.367 4.59011 10.3576 4.63527 10.3576 4.67896C10.3576 4.67896 10.3937 5.43306 10.3576 5.95729C10.3215 6.48151 9.31838 7.81684 8.68069 8.66464C8.64044 8.71864 8.58398 8.75398 8.51722 8.76429C8.27814 8.80009 7.82212 8.86072 7.65774 8.88242C7.61927 8.8875 7.59677 8.93582 7.59677 8.95851C7.59677 10.0183 7.59677 11.6036 7.59677 13.7145C7.59677 13.732 7.61787 13.7701 7.65538 13.7763C7.78416 13.7976 8.10626 13.8565 8.43131 13.961C8.83974 14.0921 9.17994 14.4024 9.86083 14.6321C9.89667 14.6444 9.93643 14.6508 9.97423 14.6508H13.1715C13.5844 14.5771 13.8917 14.2242 13.9128 13.8005C13.9187 13.5644 13.8715 13.3307 13.7748 13.1162C13.7611 13.0853 13.7792 13.0529 13.8126 13.0465C14.2225 12.9719 14.735 12.1938 14.1037 11.5669C14.087 11.5507 14.09 11.5286 14.1126 11.5227C14.4606 11.4338 14.7272 11.156 14.8087 10.8094C14.8401 10.6769 14.8288 10.5399 14.7895 10.4098C14.7434 10.2547 14.6698 10.1094 14.5721 9.97977C14.5475 9.94738 14.5613 9.90516 14.6005 9.89239C14.9471 9.77507 15.1857 9.44371 15.1832 9.06669C15.223 8.69704 14.926 8.25375 14.5667 8.25326ZM6.61545 8.45355H4.80351C4.70926 8.45355 4.63758 8.537 4.65378 8.62782L5.70629 14.5408C5.72249 14.6316 5.8025 14.6979 5.89627 14.6979H6.56636C6.66994 14.6979 6.75388 14.6159 6.75388 14.5148L6.76861 8.60376C6.76861 8.5208 6.70037 8.45355 6.61545 8.45355Z" fill="white"/>
</svg>
