<svg width="100" height="20" viewBox="0 0 100 20" fill="none" xmlns="http://www.w3.org/2000/svg">
<path fill-rule="evenodd" clip-rule="evenodd" d="M10.0088 14.3429L5.8165 16.5469C5.63309 16.6433 5.41873 16.4876 5.45376 16.2834L6.25442 11.6152L2.86276 8.3091C2.71438 8.16447 2.79626 7.91247 3.00131 7.88268L7.68848 7.20159L9.78464 2.9543C9.87634 2.76849 10.1413 2.76849 10.233 2.9543L12.3292 7.20159L17.0163 7.88268C17.2214 7.91247 17.3033 8.16447 17.1549 8.3091L13.7632 11.6152L14.5639 16.2834C14.5989 16.4876 14.3846 16.6433 14.2012 16.5469L10.0088 14.3429Z" fill="#C9CCD0"/>
<path fill-rule="evenodd" clip-rule="evenodd" d="M30.0088 14.3429L25.8165 16.5469C25.6331 16.6433 25.4187 16.4876 25.4538 16.2834L26.2544 11.6152L22.8628 8.3091C22.7144 8.16447 22.7963 7.91247 23.0013 7.88268L27.6885 7.20159L29.7846 2.9543C29.8763 2.76849 30.1413 2.76849 30.233 2.9543L32.3292 7.20159L37.0163 7.88268C37.2214 7.91247 37.3033 8.16447 37.1549 8.3091L33.7632 11.6152L34.5639 16.2834C34.5989 16.4876 34.3846 16.6433 34.2012 16.5469L30.0088 14.3429Z" fill="#C9CCD0"/>
<path fill-rule="evenodd" clip-rule="evenodd" d="M50.0088 14.3429L45.8165 16.5469C45.6331 16.6433 45.4187 16.4876 45.4538 16.2834L46.2544 11.6152L42.8628 8.3091C42.7144 8.16447 42.7963 7.91247 43.0013 7.88268L47.6885 7.20159L49.7846 2.9543C49.8763 2.76849 50.1413 2.76849 50.233 2.9543L52.3292 7.20159L57.0163 7.88268C57.2214 7.91247 57.3033 8.16447 57.1549 8.3091L53.7632 11.6152L54.5639 16.2834C54.5989 16.4876 54.3846 16.6433 54.2012 16.5469L50.0088 14.3429Z" fill="#C9CCD0"/>
<path fill-rule="evenodd" clip-rule="evenodd" d="M70.0088 14.3429L65.8165 16.5469C65.6331 16.6433 65.4187 16.4876 65.4538 16.2834L66.2544 11.6152L62.8628 8.3091C62.7144 8.16447 62.7963 7.91247 63.0013 7.88268L67.6885 7.20159L69.7846 2.9543C69.8763 2.76849 70.1413 2.76849 70.233 2.9543L72.3292 7.20159L77.0163 7.88268C77.2214 7.91247 77.3033 8.16447 77.1549 8.3091L73.7632 11.6152L74.5639 16.2834C74.5989 16.4876 74.3846 16.6433 74.2012 16.5469L70.0088 14.3429Z" fill="#C9CCD0"/>
<path fill-rule="evenodd" clip-rule="evenodd" d="M90.0088 14.3429L85.8165 16.5469C85.6331 16.6433 85.4187 16.4876 85.4538 16.2834L86.2544 11.6152L82.8628 8.3091C82.7144 8.16447 82.7963 7.91247 83.0013 7.88268L87.6885 7.20159L89.7846 2.9543C89.8763 2.76849 90.1413 2.76849 90.233 2.9543L92.3292 7.20159L97.0163 7.88268C97.2214 7.91247 97.3033 8.16447 97.1549 8.3091L93.7632 11.6152L94.5639 16.2834C94.5989 16.4876 94.3846 16.6433 94.2012 16.5469L90.0088 14.3429Z" fill="#C9CCD0"/>
</svg>
