<svg viewBox="0 0 16 14" fill="none" xmlns="http://www.w3.org/2000/svg">
<path d="M0.900391 1.61123L8.89037 0.124756V13.8749L0.900391 12.1096V1.61123ZM6.31836 4.80838V3.6632L3.36965 4.0132V9.36683L6.38069 9.73612V8.59077L4.46219 8.39371V7.11345H6.2077V5.96828H4.46219V4.97274L6.31836 4.80838ZM9.58252 3.99677V2.90118H14.2469C14.7201 2.90118 15.1009 3.24061 15.1009 3.66229V10.4176C15.1009 10.8393 14.7201 11.1786 14.2469 11.1786H9.58252V10.0025C9.8259 9.97327 10.0078 9.90941 10.1288 9.78065C11.3625 8.46786 12.0804 7.26099 11.3607 7.72761L10.0138 9.09086C9.89979 9.20629 9.74421 9.26057 9.58252 9.27786V7.15493C10.248 7.63436 10.6401 7.76695 10.3404 7.30475L9.58252 6.55603V4.73543C9.72604 4.73833 9.86667 4.75418 9.9955 4.77549L10.5046 5.08751C10.5046 5.08751 10.7728 4.83266 10.7016 4.70974C10.5248 4.4041 10.1495 4.01158 9.86419 4.00342C9.77809 4.00095 9.70036 3.99929 9.62227 3.99762C9.60905 3.99734 9.59581 3.99706 9.58252 3.99677ZM13.6113 4.00373C13.3864 3.99584 13.1833 3.98872 13.0015 3.98797C12.5105 3.98593 12.1752 4.03024 11.9862 4.23137C10.7525 5.54417 10.0346 6.75103 10.7543 6.28442L12.1012 4.92117C12.3942 4.62461 12.9614 4.72877 13.2014 4.83908C13.3579 5.1785 13.3397 5.6001 13.2835 5.93952L12.9715 6.44861C12.9715 6.44861 13.2264 6.71681 13.3493 6.64567C13.6549 6.46878 14.0474 6.09354 14.0556 5.80821C14.0908 4.57689 14.0556 4.01797 14.0556 4.01797C13.899 4.01382 13.751 4.00863 13.6113 4.00373ZM13.8277 7.93922C12.8841 7.05248 11.9952 6.43225 11.7432 6.42076C11.6445 6.41627 11.6434 6.50504 11.7746 6.70746L13.1379 8.05418C13.4344 8.34717 13.3303 8.91439 13.2199 9.15445C12.8805 9.31089 12.4589 9.29286 12.1195 9.23672L11.6104 8.9247C11.6104 8.9247 11.3422 9.17936 11.4134 9.30229C11.5903 9.60793 11.9657 10.0004 12.251 10.0086C13.4823 10.0438 14.0411 10.0086 14.0411 10.0086C14.0452 9.85191 14.0504 9.70375 14.0553 9.56401C14.0845 8.73172 14.1032 8.19817 13.8277 7.93922Z" fill="#046DB2"/>
</svg>
