<svg width="58" height="58" viewBox="0 0 58 58" fill="none" xmlns="http://www.w3.org/2000/svg">
<path fill-rule="evenodd" clip-rule="evenodd" d="M32.07 17.4544C28.2419 18.3813 24.4317 19.3039 20.6056 20.2303V20.4887C20.6056 25.7038 20.605 30.9189 20.6089 36.134C20.609 36.2764 20.573 36.3491 20.4374 36.4022C18.9502 36.985 17.4654 37.574 15.98 38.1617C15.5747 38.3221 15.1698 38.4835 14.7646 38.6445C14.766 38.6556 14.7673 38.6668 14.7687 38.6779C20.5314 39.4817 26.2941 40.2854 32.07 41.091V17.4544ZM41.776 28.9146C41.776 33.4075 41.7751 37.9005 41.7794 42.3934C41.7796 42.5655 41.7399 42.638 41.5634 42.6875C38.4725 43.5523 35.3844 44.4279 32.2942 45.2953C32.1948 45.3232 32.0688 45.3151 31.9715 45.2785C26.7038 43.3001 21.4379 41.3168 16.1718 39.3341C15.7582 39.1783 15.3461 39.0181 14.9303 38.8686C14.8089 38.8249 14.7725 38.7596 14.7725 38.6296C14.774 32.1433 14.7724 25.657 14.7667 19.1706C14.7665 19.0295 14.8129 18.9721 14.9373 18.9246C20.6073 16.7582 26.276 14.5876 31.947 12.4237C32.0585 12.3812 32.2059 12.3793 32.3212 12.4129C35.4087 13.3129 38.4937 14.2213 41.5808 15.1226C41.7364 15.168 41.7801 15.2366 41.78 15.3993C41.7751 19.9044 41.7761 24.4095 41.776 28.9146V28.9146Z" fill="#FF0000"/>
</svg>
