<svg width="18" height="18" viewBox="0 0 18 18" fill="none" xmlns="http://www.w3.org/2000/svg">
<path fill-rule="evenodd" clip-rule="evenodd" d="M11.1107 8.891L13.2996 8.88956C13.2996 6.70125 11.5251 4.91727 9.33681 4.91727C8.35738 4.91727 7.46065 5.27285 6.76913 5.86209L5.64482 4.73846C6.6255 3.86407 7.91917 3.3324 9.33674 3.3324C12.4008 3.3324 14.8851 5.82691 14.8851 8.891H16.6996L13.8814 11.6997L11.1107 8.891ZM3.78854 8.891L1.91992 8.89091L4.68457 6.11811L7.44731 8.89022H5.37413C5.37413 11.0785 7.14857 12.8429 9.33688 12.8429C10.2756 12.8429 11.1378 12.5171 11.8165 11.9719L12.9421 13.0983C11.9722 13.9279 10.7132 14.4291 9.33692 14.4291C6.27283 14.4291 3.78854 11.9551 3.78854 8.891Z" fill="#2FC6F6"/>
</svg>
