<svg width="14" height="14" viewBox="0 0 14 14" fill="none" xmlns="http://www.w3.org/2000/svg">
<path d="M4.21871 5.46631C3.92115 5.46631 3.68404 5.60616 3.50896 5.88532C3.33389 6.16449 3.24609 6.53409 3.24609 6.99411C3.24609 7.46097 3.33389 7.83004 3.50896 8.10132C3.68404 8.37313 3.91378 8.50825 4.19769 8.50825C4.49052 8.50825 4.7229 8.37629 4.89429 8.11236C5.06568 7.84844 5.15191 7.482 5.15191 7.01356C5.15191 6.52515 5.06884 6.14504 4.90218 5.87323C4.73552 5.60195 4.50787 5.46631 4.21871 5.46631V5.46631Z" fill="#0072C6"/>
<path d="M0.0761719 1.57844V12.2904L8.22516 13.9991V0.0012207L0.0761719 1.57844ZM5.52916 8.74535C5.1848 9.19854 4.73582 9.42566 4.18168 9.42566C3.64175 9.42566 3.20223 9.2059 2.86207 8.7669C2.52245 8.32738 2.35211 7.75538 2.35211 7.04983C2.35211 6.30486 2.52455 5.70236 2.86996 5.24233C3.21537 4.78231 3.67277 4.55204 4.24214 4.55204C4.77998 4.55204 5.21529 4.7718 5.54703 5.21237C5.8793 5.65294 6.04544 6.23336 6.04544 6.95415C6.04596 7.69492 5.87352 8.29216 5.52916 8.74535Z" fill="#0072C6"/>
<path d="M8.74023 2.96924V5.7073L9.69708 6.3098C9.72232 6.31716 9.77699 6.31768 9.80223 6.3098L13.9204 3.53336C13.9204 3.20477 13.6139 2.96924 13.4409 2.96924H8.74023V2.96924Z" fill="#0072C6"/>
<path d="M8.74076 6.72866L9.61402 7.32853C9.73704 7.41896 9.8853 7.32853 9.8853 7.32853C9.73757 7.41896 13.9214 4.63989 13.9214 4.63989V9.67229C13.9214 10.2201 13.5707 10.4499 13.1764 10.4499H8.74023V6.72866H8.74076Z" fill="#0072C6"/>
</svg>
