<svg width="80" height="75" viewBox="0 0 80 75" fill="none" xmlns="http://www.w3.org/2000/svg">
<g filter="url(#filter0_d_54)">
<path d="M64.4199 9.84674C64.4199 6.3509 61.586 3.51697 58.0901 3.51697H11.9736C8.47775 3.51697 5.64381 6.3509 5.64381 9.84674V24.3658H64.4199V9.84674Z" fill="#FF5752"/>
<rect opacity="0.3" width="22.7959" height="4.76535" rx="2.38268" transform="matrix(-1 0 0 1 52.3408 11.5586)" fill="white"/>
<rect opacity="0.3" width="8.34381" height="4.76535" rx="2.38268" transform="matrix(-1 0 0 1 26.0029 11.5586)" fill="white"/>
<path d="M64.4199 22.6921H5.64381V58.06C5.64381 61.5558 8.47775 64.3898 11.9736 64.3898H58.0901C61.586 64.3898 64.4199 61.5558 64.4199 58.06V22.6921Z" fill="url(#paint0_linear_54)"/>
<ellipse opacity="0.5" rx="2.27032" ry="2.28272" transform="matrix(-1 0 0 1 56.4514 7.57654)" fill="white"/>
<ellipse opacity="0.5" rx="2.27032" ry="2.28272" transform="matrix(-1 0 0 1 13.1965 7.57654)" fill="white"/>
<rect width="3.0271" height="8.21317" rx="1.51355" transform="matrix(-1 0 0 1 57.9688 0.123779)" fill="url(#paint1_linear_54)"/>
<rect width="3.0271" height="8.21317" rx="1.51355" transform="matrix(-1 0 0 1 14.7148 0.123779)" fill="url(#paint2_linear_54)"/>
<path d="M60.3877 58.3067C60.3877 59.7051 59.2541 60.8386 57.8558 60.8386H12.2157C10.8174 60.8386 9.68384 59.705 9.68384 58.3067V25.0761H60.3877V58.3067Z" fill="#F0F0F0"/>
<path d="M60.3877 55.517C60.3877 56.9154 59.2541 58.049 57.8558 58.049H12.2157C10.8174 58.049 9.68384 56.9154 9.68384 55.517V22.6866H60.3877V55.517Z" fill="white"/>
<rect opacity="0.161457" width="58.7719" height="1.89535" transform="matrix(-1 0 0 1 64.4199 22.6912)" fill="#0092C0"/>
<path fill-rule="evenodd" clip-rule="evenodd" d="M9.68164 50.1865H15.4742C16.8726 50.1865 18.0062 51.3201 18.0062 52.7184V58.3028L9.68164 50.1865Z" fill="#F0F0F0"/>
</g>
<path fill-rule="evenodd" clip-rule="evenodd" d="M43.4273 31.9953C43.4273 31.2627 42.8334 30.6688 42.1008 30.6688H38.1551C37.4225 30.6688 36.8286 31.2627 36.8286 31.9953V35.941C36.8286 36.6736 37.4225 37.2676 38.1551 37.2676H42.1008C42.8334 37.2676 43.4273 36.6736 43.4273 35.941V31.9953ZM53.609 31.9972C53.609 31.2645 53.0151 30.6706 52.2825 30.6706H48.3368C47.6042 30.6706 47.0103 31.2645 47.0103 31.9972V35.9429C47.0103 36.6755 47.6042 37.2694 48.3368 37.2694H52.2825C53.0151 37.2694 53.609 36.6755 53.609 35.9429V31.9972ZM31.9089 30.6688C32.6416 30.6688 33.2355 31.2627 33.2355 31.9953V35.941C33.2355 36.6736 32.6416 37.2676 31.9089 37.2676H27.9633C27.2306 37.2676 26.6367 36.6736 26.6367 35.941V31.9953C26.6367 31.2627 27.2306 30.6688 27.9633 30.6688H31.9089ZM23.0534 31.9953C23.0534 31.2627 22.4595 30.6688 21.7269 30.6688H17.7812C17.0486 30.6688 16.4546 31.2627 16.4546 31.9953V35.941C16.4546 36.6736 17.0485 37.2676 17.7812 37.2676H21.7269C22.4595 37.2676 23.0534 36.6736 23.0534 35.941V31.9953ZM52.2829 41.746C53.0155 41.746 53.6094 42.3399 53.6094 43.0725V47.0182C53.6094 47.7508 53.0155 48.3447 52.2829 48.3447H48.3372C47.6046 48.3447 47.0106 47.7508 47.0106 47.0182V43.0725C47.0106 42.3399 47.6046 41.746 48.3372 41.746H52.2829ZM43.4273 43.0725C43.4273 42.3399 42.8334 41.746 42.1008 41.746H38.1551C37.4225 41.746 36.8286 42.3399 36.8286 43.0725V47.0182C36.8286 47.7508 37.4225 48.3447 38.1551 48.3447H42.1008C42.8334 48.3447 43.4273 47.7508 43.4273 47.0182V43.0725ZM31.9089 41.746C32.6416 41.746 33.2355 42.3399 33.2355 43.0725V47.0182C33.2355 47.7508 32.6416 48.3447 31.9089 48.3447H27.9633C27.2306 48.3447 26.6367 47.7508 26.6367 47.0182V43.0725C26.6367 42.3399 27.2306 41.746 27.9633 41.746H31.9089Z" fill="#00B1E9"/>
<g filter="url(#filter1_d_54)">
<ellipse cx="57.3079" cy="50.9805" rx="15.4778" ry="15.4778" fill="#00B1E9"/>
</g>
<path fill-rule="evenodd" clip-rule="evenodd" d="M61.7448 50.9971C61.2391 50.9974 60.9843 51.6072 61.3394 51.9672L64.7071 55.3811C64.929 55.606 65.2914 55.6075 65.5151 55.3845L68.9397 51.9715C69.2997 51.6128 69.0456 50.998 68.5374 50.998H66.8215C66.8215 45.7715 62.584 41.5165 57.3575 41.5165C55.1565 41.5165 53.1306 42.2679 51.523 43.5277C51.2652 43.7298 51.2553 44.11 51.487 44.3416L52.6057 45.4596C52.8159 45.6696 53.1506 45.6807 53.391 45.5061C54.505 44.697 55.8758 44.2199 57.3576 44.2199C61.0903 44.2199 64.117 47.2628 64.117 50.9955L61.7448 50.9971ZM46.0788 50.9979L47.8933 50.998C47.8933 56.2245 52.1308 60.4446 57.3574 60.4446C59.4837 60.4446 61.446 59.7433 63.0263 58.5594C63.2921 58.3603 63.3064 57.9738 63.0716 57.7389L61.9483 56.6149C61.7426 56.4091 61.4164 56.3936 61.1766 56.5581C60.0903 57.3034 58.775 57.7389 57.3573 57.7389C53.6246 57.7389 50.5979 54.7294 50.5979 50.9967H52.7617C53.2689 50.9967 53.5234 50.3838 53.1653 50.0245L49.8253 46.6731C49.6026 46.4497 49.2408 46.4497 49.018 46.673L45.6753 50.0257C45.3171 50.3849 45.5715 50.9979 46.0788 50.9979Z" fill="white"/>
<defs>
<filter id="filter0_d_54" x="0.643555" y="0.123779" width="68.7764" height="74.266" filterUnits="userSpaceOnUse" color-interpolation-filters="sRGB">
<feFlood flood-opacity="0" result="BackgroundImageFix"/>
<feColorMatrix in="SourceAlpha" type="matrix" values="0 0 0 0 0 0 0 0 0 0 0 0 0 0 0 0 0 0 127 0" result="hardAlpha"/>
<feOffset dy="5"/>
<feGaussianBlur stdDeviation="2.5"/>
<feComposite in2="hardAlpha" operator="out"/>
<feColorMatrix type="matrix" values="0 0 0 0 0 0 0 0 0 0 0 0 0 0 0 0 0 0 0.05 0"/>
<feBlend mode="normal" in2="BackgroundImageFix" result="effect1_dropShadow_54"/>
<feBlend mode="normal" in="SourceGraphic" in2="effect1_dropShadow_54" result="shape"/>
</filter>
<filter id="filter1_d_54" x="35.4893" y="30.8625" width="43.6366" height="43.6371" filterUnits="userSpaceOnUse" color-interpolation-filters="sRGB">
<feFlood flood-opacity="0" result="BackgroundImageFix"/>
<feColorMatrix in="SourceAlpha" type="matrix" values="0 0 0 0 0 0 0 0 0 0 0 0 0 0 0 0 0 0 127 0" result="hardAlpha"/>
<feOffset dy="1.70062"/>
<feGaussianBlur stdDeviation="3.17039"/>
<feComposite in2="hardAlpha" operator="out"/>
<feColorMatrix type="matrix" values="0 0 0 0 0.2575 0 0 0 0 0.277632 0 0 0 0 0.3 0 0 0 0.1 0"/>
<feBlend mode="normal" in2="BackgroundImageFix" result="effect1_dropShadow_54"/>
<feBlend mode="normal" in="SourceGraphic" in2="effect1_dropShadow_54" result="shape"/>
</filter>
<linearGradient id="paint0_linear_54" x1="35.0319" y1="22.6921" x2="35.0319" y2="64.3898" gradientUnits="userSpaceOnUse">
<stop stop-color="#ADB7C2"/>
<stop offset="1" stop-color="#949DA8"/>
</linearGradient>
<linearGradient id="paint1_linear_54" x1="1.51355" y1="0" x2="1.51355" y2="8.21317" gradientUnits="userSpaceOnUse">
<stop stop-color="#777F8A"/>
<stop offset="1" stop-color="#5C6571"/>
</linearGradient>
<linearGradient id="paint2_linear_54" x1="1.51355" y1="0" x2="1.51355" y2="8.21317" gradientUnits="userSpaceOnUse">
<stop stop-color="#777F8A"/>
<stop offset="1" stop-color="#5C6571"/>
</linearGradient>
</defs>
</svg>
