<svg width="13" height="16" viewBox="0 0 13 16" fill="none" xmlns="http://www.w3.org/2000/svg">
<path fill-rule="evenodd" clip-rule="evenodd" d="M2.01955 6.21796V10.2369C2.01955 10.7714 1.61623 11.1982 1.10291 11.1982C0.592928 11.1982 0.0996094 10.7679 0.0996094 10.2369V6.21796C0.0996094 5.6939 0.592928 5.26355 1.10291 5.26355C1.60623 5.26355 2.01955 5.6939 2.01955 6.21796ZM2.37954 11.6668C2.37954 12.2359 2.81953 12.6941 3.36618 12.6941H4.02949L4.03949 14.8146C4.03949 16.0952 5.87944 16.0848 5.87944 14.8146V12.6941H7.1194V14.8146C7.1194 16.0883 8.96935 16.0918 8.96935 14.8146V12.6941H9.64266C10.1826 12.6941 10.6226 12.2359 10.6226 11.6668V5.44055H2.37954V11.6668ZM10.646 5.10391H2.34288C2.34288 3.6185 3.19619 2.32745 4.46281 1.65415L3.82617 0.42904C3.73284 0.258981 3.9695 0.151393 4.04949 0.297158L4.69614 1.53268C5.85944 0.994744 7.19607 1.02251 8.30604 1.53268L8.94935 0.300628C9.03268 0.151393 9.26601 0.262452 9.17268 0.43251L8.53603 1.65415C9.79266 2.32745 10.646 3.6185 10.646 5.10391ZM4.95613 3.17774C4.95613 2.97991 4.80281 2.81333 4.60614 2.81333C4.41615 2.81333 4.26615 2.97991 4.26615 3.17774C4.26615 3.37556 4.41948 3.54215 4.60614 3.54215C4.80281 3.54215 4.95613 3.37556 4.95613 3.17774ZM8.73602 3.17774C8.73602 2.97991 8.58269 2.81333 8.39603 2.81333C8.19937 2.81333 8.04604 2.97991 8.04604 3.17774C8.04604 3.37556 8.19937 3.54215 8.39603 3.54215C8.58269 3.54215 8.73602 3.37556 8.73602 3.17774ZM11.8959 5.26355C11.3926 5.26355 10.9793 5.68349 10.9793 6.21796V10.2369C10.9793 10.7714 11.3926 11.1982 11.8959 11.1982C12.4093 11.1982 12.8992 10.7679 12.8992 10.2369V6.21796C12.8992 5.68349 12.4059 5.26355 11.8959 5.26355Z" fill="#A0C036"/>
</svg>