<svg width="17" height="14" viewBox="0 0 17 14" fill="none" xmlns="http://www.w3.org/2000/svg">
	<path fill-rule="evenodd" clip-rule="evenodd" d="M1.68299 0.255615L14.0397 12.6123L12.937 13.7149L11.105 11.8827L11.0305 11.9171C10.0925 12.3322 9.12282 12.5397 8.12154 12.5397C5.16072 12.5397 2.47663 10.7251 0.0692368 7.09598C0.0216113 7.02418 0.0136634 6.93444 0.0454139 6.85666L0.0692368 6.81166L0.23376 6.56701C1.05729 5.36004 1.91289 4.36322 2.80051 3.57654L0.580311 1.35829L1.68299 0.255615ZM8.12154 1.36785C11.0823 1.36785 13.7664 3.18243 16.1738 6.81159C16.2215 6.88338 16.2294 6.97313 16.1977 7.05091L16.1738 7.0959L16.0093 7.34056C15.2038 8.52104 14.3677 9.5005 13.501 10.2789L10.8827 7.66014C10.9403 7.43426 10.9709 7.1976 10.9709 6.95378C10.9709 5.3801 9.69522 4.10437 8.12154 4.10437C7.87749 4.10437 7.64061 4.13506 7.41454 4.19277L5.21177 1.9908C6.15002 1.5755 7.11995 1.36785 8.12154 1.36785ZM5.27213 6.95378C5.27213 8.52747 6.54785 9.80319 8.12154 9.80319C8.39626 9.80319 8.6619 9.76431 8.91326 9.69175L5.38359 6.16205C5.31103 6.41341 5.27213 6.67905 5.27213 6.95378Z" fill="#535C68"/>
</svg>