<svg width="24" height="22" viewBox="0 0 24 22" fill="none" xmlns="http://www.w3.org/2000/svg">
<path fill-rule="evenodd" clip-rule="evenodd" d="M17.2763 6.17112V7.68243C17.4306 7.67355 17.586 7.66905 17.7424 7.66905C18.4553 7.66905 19.1463 7.76248 19.8039 7.93775V4.78767C19.8279 3.40648 18.798 2.2531 17.4685 2.16931H16.0126V2.8239C16.0126 3.9079 15.1634 4.78767 14.117 4.78767C13.0706 4.78767 12.2213 3.9079 12.2213 2.8239V2.16931H8.36167V2.8239C8.36167 3.9079 7.51368 4.78767 6.46602 4.78767C5.41836 4.78767 4.57037 3.9079 4.57037 2.8239V2.16931H3.11451C1.82294 2.16669 0.774013 3.24807 0.771484 4.58605C0.771484 4.65282 0.774013 4.71959 0.779068 4.78767V17.8794C0.779068 18.6021 1.34524 19.1886 2.04284 19.1886H10.5821C10.1837 18.3833 9.91715 17.5011 9.81066 16.5703H3.30655V6.17112H17.2763ZM14.1618 8.51507C13.6557 8.76943 13.1804 9.07603 12.743 9.42779V9.01507C12.743 8.73893 12.9668 8.51507 13.243 8.51507H14.1618ZM9.65673 12.0778H10.6018C10.2335 12.812 9.97504 13.6109 9.84811 14.4529H9.65673C9.38059 14.4529 9.15673 14.2291 9.15673 13.9529V12.5778C9.15673 12.3016 9.38059 12.0778 9.65673 12.0778ZM7.39484 1.12457V2.56466C7.39484 3.09619 6.97906 3.52691 6.46597 3.52691C5.95288 3.52691 5.5371 3.09619 5.5371 2.56466V1.12457V1.11147C5.53963 0.581257 5.9592 0.153157 6.47229 0.155774C6.98538 0.159702 7.39737 0.59304 7.39484 1.12457ZM14.994 1.15995V2.52543C14.994 3.02684 14.6009 3.43399 14.1157 3.43399C13.6304 3.43269 13.2399 3.02553 13.2399 2.52412V1.15995C13.2399 0.657229 13.6329 0.251382 14.1169 0.251382C14.6009 0.251382 14.994 0.657229 14.994 1.15995ZM9.15673 9.01507C9.15673 8.73893 9.38059 8.51507 9.65673 8.51507H11.0476C11.3237 8.51507 11.5476 8.73893 11.5476 9.01507V10.3902C11.5476 10.6664 11.3237 10.8902 11.0476 10.8902H9.65673C9.38059 10.8902 9.15673 10.6664 9.15673 10.3902V9.01507ZM6.07056 8.51508C5.79441 8.51508 5.57056 8.73893 5.57056 9.01508V10.3902C5.57056 10.6664 5.79441 10.8902 6.07056 10.8902H7.4614C7.73754 10.8902 7.9614 10.6664 7.9614 10.3902V9.01508C7.9614 8.73893 7.73754 8.51508 7.4614 8.51508H6.07056ZM6.0705 12.0778C5.79436 12.0778 5.5705 12.3016 5.5705 12.5778V13.9529C5.5705 14.2291 5.79436 14.4529 6.0705 14.4529H7.46134C7.73748 14.4529 7.96134 14.2291 7.96134 13.9529V12.5778C7.96134 12.3016 7.73748 12.0778 7.46134 12.0778H6.0705ZM15.7099 15.0416L17.0598 16.3915L20.2959 13.1554L21.2502 14.1097L17.0607 18.2992L17.0088 18.2473L17.0079 18.2482L14.7556 15.9959L15.7099 15.0416ZM11.7151 15.653C11.7151 18.9818 14.4136 21.6803 17.7424 21.6803C21.0712 21.6803 23.7698 18.9818 23.7698 15.653C23.7698 12.3241 21.0712 9.62561 17.7424 9.62561C14.4136 9.62561 11.7151 12.3241 11.7151 15.653Z" fill="#2FC6F6"/>
</svg>
