<svg width="16" height="15" viewBox="0 0 16 15" fill="none" xmlns="http://www.w3.org/2000/svg">
<g clip-path="url(#clip0_3938_290637)">
<path fill-rule="evenodd" clip-rule="evenodd" d="M9.26844 2.31008C7.52144 2.73308 5.78268 3.15409 4.03661 3.57689V3.6948C4.03663 6.07473 4.03635 8.45464 4.03813 10.8346C4.03818 10.8995 4.02173 10.9327 3.95988 10.9569C3.28118 11.2229 2.60357 11.4917 1.92573 11.7599C1.74076 11.8331 1.55598 11.9068 1.37109 11.9802C1.3717 11.9853 1.37231 11.9904 1.37292 11.9955C4.00274 12.3623 6.63258 12.7291 9.26844 13.0967V2.31008ZM13.6969 7.54004C13.6968 9.59038 13.6964 11.6407 13.6984 13.6911C13.6985 13.7696 13.6804 13.8027 13.5998 13.8253C12.1893 14.22 10.78 14.6196 9.36979 15.0154C9.32445 15.0281 9.26694 15.0244 9.22254 15.0077C6.81863 14.1049 4.41552 13.1998 2.01233 12.295C1.82356 12.2239 1.6355 12.1508 1.44575 12.0825C1.39036 12.0626 1.37375 12.0328 1.37376 11.9735C1.37445 9.01343 1.3737 6.0534 1.37109 3.09335C1.37103 3.02896 1.39221 3.00277 1.44895 2.98108C4.0365 1.99241 6.62337 1.00188 9.21136 0.0143607C9.26224 -0.00503865 9.3295 -0.00590678 9.38215 0.00943577C10.7911 0.420179 12.199 0.834728 13.6078 1.24602C13.6788 1.26674 13.6987 1.29806 13.6987 1.3723C13.6964 3.4282 13.6969 5.48412 13.6969 7.54004V7.54004Z" fill="white"/>
</g>
<defs>
<clipPath id="clip0_3938_290637">
<rect width="16" height="15" fill="white"/>
</clipPath>
</defs>
</svg>
