<svg width="20" height="20" viewBox="0 0 20 20" fill="none" xmlns="http://www.w3.org/2000/svg">
	<path fill-rule="evenodd" clip-rule="evenodd" d="M5.56762 15.2583C5.97007 15.5381 6.5231 15.4386 6.80284 15.0361L14.797 3.5351C15.0768 3.13264 14.9773 2.57961 14.5748 2.29987L14.3719 2.15882C13.9694 1.87908 13.4164 1.97856 13.1367 2.38102L5.1425 13.882C4.86276 14.2845 4.96224 14.8375 5.36469 15.1173L5.56762 15.2583ZM6.12213 10.3003L5.0352 11.864C4.39582 10.9113 4.0229 9.76466 4.0229 8.52947L2 8.52937L4.99291 5.52764L7.6125 8.15611L7.35358 8.52862H5.7394C5.7394 9.16109 5.87632 9.76084 6.12213 10.3003ZM14.319 8.52823L12.6381 8.52934L12.3532 8.93914L14.9489 11.5704L17.9998 8.52979H16.0355C16.0355 7.27479 15.6505 6.10806 14.9922 5.14245L13.911 6.69804C14.1727 7.25382 14.319 7.87435 14.319 8.52823ZM8.59074 14.3521L9.67428 12.7933C9.79136 12.8028 9.90978 12.8077 10.0293 12.8077C11.0456 12.8077 11.979 12.455 12.7137 11.8648L13.9323 13.0841C12.8823 13.9823 11.5193 14.5249 10.0294 14.5249C9.5335 14.5249 9.05166 14.465 8.59074 14.3521ZM10.3354 4.2388L11.4221 2.67529C10.975 2.56869 10.5086 2.51225 10.029 2.51225C8.49441 2.51225 7.09393 3.08782 6.03229 4.0344L7.24942 5.2508C7.99803 4.61292 8.96881 4.22798 10.0291 4.22798C10.1321 4.22798 10.2342 4.23163 10.3354 4.2388Z" fill="#A8ADB4"/>
</svg>