<svg width="18" height="12" viewBox="0 0 18 12" fill="none" xmlns="http://www.w3.org/2000/svg">
	<path fill-rule="evenodd" clip-rule="evenodd" d="M17.1464 6.16514C16.4916 7.10091 13.1378 11.5936 9.09878 11.5936C5.0598 11.5936 1.70591 7.10091 1.05115 6.16514C0.978393 6.06116 0.978393 5.93013 1.05115 5.82615C1.70591 4.89038 5.0598 0.397705 9.09878 0.397705C13.1378 0.397705 16.4916 4.89038 17.1464 5.82615C17.2192 5.93013 17.2192 6.06116 17.1464 6.16514ZM11.9542 5.99562C11.9542 7.57269 10.6757 8.85115 9.09865 8.85115C7.52158 8.85115 6.24312 7.57269 6.24312 5.99562C6.24312 4.41856 7.52158 3.14009 9.09865 3.14009C10.6757 3.14009 11.9542 4.41856 11.9542 5.99562Z" fill="#535C68"/>
</svg>