<svg width="58" height="58" viewBox="0 0 58 58" fill="none" xmlns="http://www.w3.org/2000/svg">
<path fill-rule="evenodd" clip-rule="evenodd" d="M34.4761 12.4472C34.5297 13.1448 34.6746 15.0285 32.9052 17.0956C31.6234 18.5697 30.067 19.4323 28.3601 19.3036C28.2163 17.5269 28.8899 15.9498 30.0343 14.6753C31.0741 13.4844 32.8986 12.5188 34.4747 12.4287L34.4761 12.4472ZM39.7308 22.2247C37.5627 23.5482 36.4916 25.3452 36.5045 27.7261C36.5045 27.7295 36.5043 27.7356 36.5041 27.7445C36.4955 28.0589 36.394 31.751 40.4857 33.688C39.6985 36.0754 37.0014 41.3822 33.8654 41.4276C32.9868 41.4276 32.284 41.1549 31.5595 40.8739C30.7887 40.5749 29.9933 40.2663 28.9356 40.2663C27.7907 40.2663 26.929 40.5948 26.1218 40.9025C25.4368 41.1636 24.791 41.4097 24.0446 41.4276C20.9344 41.5249 17.9533 35.6862 17.1274 33.3053C16.508 31.4953 16.1982 29.7372 16.1982 28.0375C16.1982 22.2831 20.0246 19.4546 23.6252 19.3962C24.6233 19.3962 25.7783 19.8157 26.7647 20.1741C27.5 20.4411 28.1416 20.6742 28.5549 20.6742C28.8891 20.6742 29.4345 20.4714 30.1038 20.2225C31.2693 19.789 32.8103 19.2159 34.2655 19.3313C36.6852 19.5194 38.5177 20.4796 39.7308 22.2247Z" fill="#333333"/>
</svg>
