<svg width="58" height="58" viewBox="0 0 58 58" fill="none" xmlns="http://www.w3.org/2000/svg">
<path d="M37.4693 20.5327H20.5352V37.4668H37.4693V20.5327Z" fill="white"/>
<path d="M37.4668 45.0876L45.0871 37.4673H37.4668V45.0876Z" fill="#EA4335"/>
<path d="M45.0871 20.5327H37.4668V37.4668H45.0871V20.5327Z" fill="#FBBC04"/>
<path d="M37.4693 37.4673H20.5352V45.0876H37.4693V37.4673Z" fill="#34A853"/>
<path d="M12.9141 37.4673V42.5475C12.9141 43.9509 14.0508 45.0876 15.4542 45.0876H20.5344V37.4673H12.9141Z" fill="#188038"/>
<path d="M45.0871 20.5329V15.4527C45.0871 14.0493 43.9504 12.9126 42.547 12.9126H37.4668V20.5329H45.0871Z" fill="#1967D2"/>
<path d="M37.4666 12.9126H15.4522C14.0488 12.9126 12.9121 14.0493 12.9121 15.4527V37.467H20.5325V20.5329H37.4666V12.9126Z" fill="#4285F4"/>
<path d="M24.0095 33.6698C23.3766 33.2422 22.9384 32.6177 22.6992 31.7922L24.1683 31.1868C24.3016 31.6948 24.5344 32.0886 24.8668 32.368C25.197 32.6474 25.5992 32.785 26.0691 32.785C26.5496 32.785 26.9624 32.6389 27.3074 32.3468C27.6524 32.0547 27.826 31.6821 27.826 31.2313C27.826 30.7698 27.644 30.393 27.2799 30.1009C26.9158 29.8088 26.4586 29.6627 25.9125 29.6627H25.0636V28.2085H25.8257C26.2956 28.2085 26.6914 28.0815 27.0132 27.8275C27.3349 27.5735 27.4958 27.2263 27.4958 26.7839C27.4958 26.3902 27.3519 26.0769 27.064 25.842C26.7761 25.607 26.412 25.4885 25.9696 25.4885C25.5378 25.4885 25.1949 25.6028 24.9409 25.8335C24.687 26.0649 24.4962 26.357 24.3863 26.6823L22.9321 26.0769C23.1247 25.5308 23.4782 25.0482 23.9968 24.6312C24.5154 24.2142 25.1779 24.0046 25.9823 24.0046C26.5771 24.0046 27.1127 24.1189 27.5868 24.3497C28.061 24.5804 28.4335 24.9 28.7024 25.3064C28.9712 25.715 29.1045 26.1722 29.1045 26.6802C29.1045 27.1988 28.9797 27.637 28.7299 27.9968C28.4801 28.3567 28.1732 28.6319 27.8091 28.8245V28.9113C28.2792 29.1051 28.6876 29.4235 28.9902 29.8321C29.2972 30.2448 29.4517 30.7381 29.4517 31.3138C29.4517 31.8896 29.3056 32.4039 29.0135 32.8548C28.7214 33.3057 28.3171 33.6613 27.8048 33.9195C27.2905 34.1778 26.7126 34.309 26.0712 34.309C25.3282 34.3111 24.6424 34.0974 24.0095 33.6698ZM33.0333 26.3796L31.4203 27.546L30.6138 26.3225L33.5074 24.2354H34.6166V34.0804H33.0333V26.3796Z" fill="#4285F4"/>
</svg>
