<svg width="16" height="15" viewBox="0 0 16 15" xmlns="http://www.w3.org/2000/svg"><path d="M13.4595569,1.12361842 C14.3220019,1.12458641 15.0209109,1.82523169 15.0218765,2.68981926 L15.0218765,2.68981926 L15.0218765,11.509747 C15.0208381,12.3742828 14.3219503,13.0748474 13.4595569,13.0758153 L13.4595569,13.0758153 L9.49368696,13.0758153 L9.92083803,14.6801943 L11.1898612,14.6801943 C11.4002135,14.6786102 11.5952667,14.7902021 11.7009016,14.9725657 C11.8065365,15.1549292 11.8065365,15.3800686 11.7009016,15.5624322 C11.5952667,15.7447957 11.4002135,15.8563876 11.1898612,15.8548035 L11.1898612,15.8548035 L3.84275055,15.8548035 C3.63239827,15.8563876 3.43734507,15.7447957 3.33171014,15.5624322 C3.2260752,15.3800686 3.2260752,15.1549292 3.33171014,14.9725657 C3.43734507,14.7902021 3.63239827,14.6786102 3.84275055,14.6801943 L3.84275055,14.6801943 L5.11180677,14.6801943 L5.53895784,13.0758153 L1.57315406,13.0758153 C0.7107219,13.0748473 0.0118181948,12.3742222 0.0108343895,11.5096476 L0.0108343895,11.5096476 L0.0108343895,2.68981926 C0.0117999806,1.82523169 0.71070901,1.12458641 1.57315406,1.12361842 L1.57315406,1.12361842 Z M12.85347,2.70328502 L9.1528142,2.70243798 C9.16220979,2.92513951 9.13728185,3.35118401 8.74223693,3.81268223 C8.41179055,4.19271549 8.01053423,4.41509303 7.57050105,4.38190235 C7.53341012,3.92387101 7.70706308,3.51728522 8.00210449,3.18869751 C8.18038672,2.9845125 8.44815559,2.80601879 8.72705009,2.70252305 L2.17924094,2.70328502 C1.98562544,2.70353097 1.82873023,2.86081594 1.82848489,3.05491243 L1.82848489,3.05491243 L1.82848489,10.8281013 L13.204226,10.8281013 L13.204226,3.05491243 C13.2040133,2.86080236 13.047099,2.70349824 12.85347,2.70328502 L12.85347,2.70328502 Z M8.93057943,4.38654626 L9.09265042,4.38903806 C9.71646906,4.43754078 10.1889077,4.68507192 10.5016488,5.13497648 C9.94270729,5.47616805 9.66656358,5.93945269 9.6698906,6.553263 C9.6698906,6.58504065 9.61166753,7.5768377 10.6962802,8.09029756 C10.4933312,8.7057804 9.79798137,10.0738917 8.9895124,10.0855992 C8.5220643,10.0855992 8.24758409,9.78622036 7.71858589,9.78622036 C7.17295252,9.78622036 6.87684661,10.0755642 6.45764047,10.0855992 C5.65582558,10.1106868 4.88728101,8.60542993 4.67435092,7.99161962 C4.51465335,7.52498997 4.43480455,7.07174039 4.43480455,6.63354337 C4.43480455,5.15002906 5.42126976,4.42081569 6.3495119,4.40576313 C6.79866134,4.40576313 7.37091097,4.73524714 7.62043843,4.73524714 C7.85665775,4.73524714 8.5021021,4.34220784 9.09265042,4.38903806 Z" transform="translate(.018 -1.114)" fill="#FFF" fill-rule="evenodd"/></svg>