<svg width="230" height="186" viewBox="0 0 230 186" fill="none" xmlns="http://www.w3.org/2000/svg">
	<path fill-rule="evenodd" clip-rule="evenodd" d="M165.091 5.03927C166.481 5.03927 167.608 3.91215 167.608 2.52177C167.608 1.1314 166.481 0.00427246 165.091 0.00427246C163.701 0.00427246 162.573 1.1314 162.573 2.52177C162.573 3.91215 163.701 5.03927 165.091 5.03927ZM40.8646 26.7865C43.8787 26.7865 46.3222 24.343 46.3222 21.3289C46.3222 18.3148 43.8787 15.8713 40.8646 15.8713C37.8505 15.8713 35.407 18.3148 35.407 21.3289C35.407 24.343 37.8505 26.7865 40.8646 26.7865ZM40.8646 23.7435C42.1981 23.7435 43.2792 22.6625 43.2792 21.3289C43.2792 19.9953 42.1981 18.9142 40.8646 18.9142C39.531 18.9142 38.4499 19.9953 38.4499 21.3289C38.4499 22.6625 39.531 23.7435 40.8646 23.7435ZM13.1386 80.0653C17.1983 80.0653 20.4892 76.7743 20.4892 72.7147C20.4892 68.6551 17.1983 65.3641 13.1386 65.3641C9.07901 65.3641 5.78803 68.6551 5.78803 72.7147C5.78803 76.7743 9.07901 80.0653 13.1386 80.0653ZM13.1386 76.229C15.0795 76.229 16.653 74.6556 16.653 72.7147C16.653 70.7738 15.0795 69.2004 13.1386 69.2004C11.1977 69.2004 9.62432 70.7738 9.62432 72.7147C9.62432 74.6556 11.1977 76.229 13.1386 76.229ZM199.762 172.558C202.653 172.558 204.996 170.215 204.996 167.325C204.996 164.434 202.653 162.091 199.762 162.091C196.872 162.091 194.529 164.434 194.529 167.325C194.529 170.215 196.872 172.558 199.762 172.558ZM199.762 169.834C201.148 169.834 202.272 168.711 202.272 167.325C202.272 165.938 201.148 164.815 199.762 164.815C198.376 164.815 197.252 165.938 197.252 167.325C197.252 168.711 198.376 169.834 199.762 169.834ZM116 186C165.706 186 206 145.706 206 96C206 46.2944 165.706 6 116 6C66.2944 6 26.0001 46.2944 26.0001 96C26.0001 145.706 66.2944 186 116 186ZM25.9569 179.709H8.46076C8.31105 179.709 8.16263 179.703 8.0157 179.692C4.0615 179.6 0.883989 176.277 0.883789 172.191C0.884939 170.2 1.65578 168.29 3.02673 166.883C3.72946 166.162 4.56036 165.603 5.46436 165.229C5.44923 165.027 5.44153 164.822 5.44153 164.615C5.44278 162.514 6.25615 160.499 7.70272 159.015C9.1493 157.53 11.1106 156.696 13.1551 156.698C15.7741 156.701 18.0863 158.047 19.4759 160.101C20.1358 159.861 20.8462 159.73 21.5862 159.731C24.8554 159.735 27.5405 162.296 27.8518 165.571C30.9843 166.273 33.3284 169.141 33.3256 172.57C33.3225 176.521 30.2037 179.723 26.3586 179.721C26.2238 179.721 26.0899 179.717 25.9569 179.709ZM211.377 40.5268H223.794C223.888 40.5321 223.983 40.5348 224.079 40.5349C226.808 40.536 229.021 38.3534 229.023 35.6591C229.025 33.3212 227.362 31.3658 225.139 30.8873C224.918 28.6542 223.012 26.9079 220.692 26.9052C220.167 26.9049 219.663 26.994 219.194 27.1578C218.208 25.7571 216.567 24.8394 214.709 24.8372C213.258 24.8363 211.866 25.4046 210.839 26.417C209.813 27.4294 209.235 28.8029 209.235 30.2355C209.235 30.3764 209.24 30.516 209.251 30.6542C208.609 30.9088 208.02 31.2901 207.521 31.7819C206.548 32.7414 206.001 34.0432 206 35.4009C206 38.1865 208.255 40.4522 211.061 40.5153C211.166 40.5229 211.271 40.5268 211.377 40.5268Z" fill="#ECFAFE"/>
</svg>