<svg width="28" height="28" viewBox="0 0 28 28" fill="none" xmlns="http://www.w3.org/2000/svg">
	<rect x="0.5" y="0.5" width="27" height="27" rx="5.5" fill="#F2FEE2"/>
	<rect x="0.5" y="0.5" width="27" height="27" rx="5.5" stroke="#D4FDB0"/>
	<path fill-rule="evenodd" clip-rule="evenodd" d="M10.6299 10.2106C10.6299 9.29014 11.376 8.54395 12.2965 8.54395H15.7034C16.6239 8.54395 17.3701 9.29014 17.3701 10.2106V10.5164H19.427C20.0919 10.5164 20.6309 11.0554 20.6309 11.7203V13.3588L15.4456 14.2004V13.9514C15.4456 13.6189 15.1761 13.3494 14.8437 13.3494H13.156C12.8235 13.3494 12.554 13.6189 12.554 13.9514V14.2003L7.3689 13.3588V11.7203C7.3689 11.0554 7.90789 10.5164 8.57278 10.5164H10.6299V10.2106ZM12.554 15.6391V15.0292L7.3689 14.1876V18.6486C7.3689 19.3134 7.90789 19.8524 8.57278 19.8524H19.427C20.0919 19.8524 20.6309 19.3134 20.6309 18.6486V14.1876L15.4456 15.0292V15.6391C15.4456 15.9715 15.1761 16.241 14.8437 16.241H13.156C12.8235 16.241 12.554 15.9715 12.554 15.6391ZM16.0236 10.5164H11.9767V10.1517C11.9767 9.8193 12.2462 9.5498 12.5786 9.5498H15.4216C15.7541 9.5498 16.0236 9.8193 16.0236 10.1517V10.5164Z" fill="#19CC45"/>
	<rect x="4" y="4" width="20" height="20" rx="3" fill="white" fill-opacity="0.01"/>
</svg>
