<svg width="33" height="32" viewBox="0 0 33 32" fill="none" xmlns="http://www.w3.org/2000/svg">
	<rect x="0.5" width="32" height="32" rx="8" fill="white" fill-opacity="0.2"/>
	<path fill-rule="evenodd" clip-rule="evenodd" d="M13.1299 12.2106C13.1299 11.2901 13.876 10.5439 14.7965 10.5439H18.2034C19.1239 10.5439 19.8701 11.2901 19.8701 12.2106V12.5164H21.927C22.5919 12.5164 23.1309 13.0554 23.1309 13.7203V15.3588L17.9456 16.2004V15.9514C17.9456 15.6189 17.6761 15.3494 17.3437 15.3494H15.656C15.3235 15.3494 15.054 15.6189 15.054 15.9514V16.2003L9.8689 15.3588V13.7203C9.8689 13.0554 10.4079 12.5164 11.0728 12.5164H13.1299V12.2106ZM15.054 17.6391V17.0292L9.8689 16.1876V20.6486C9.8689 21.3134 10.4079 21.8524 11.0728 21.8524H21.927C22.5919 21.8524 23.1309 21.3134 23.1309 20.6486V16.1876L17.9456 17.0292V17.6391C17.9456 17.9715 17.6761 18.241 17.3437 18.241H15.656C15.3235 18.241 15.054 17.9715 15.054 17.6391ZM18.5236 12.5164H14.4767V12.1517C14.4767 11.8193 14.7462 11.5498 15.0786 11.5498H17.9216C18.2541 11.5498 18.5236 11.8193 18.5236 12.1517V12.5164Z" fill="white"/>
	<rect x="6.5" y="6" width="20" height="20" rx="3" fill="white" fill-opacity="0.01"/>
</svg>
