<svg width="33" height="32" viewBox="0 0 33 32" fill="none" xmlns="http://www.w3.org/2000/svg">
	<rect x="0.5" width="32" height="32" rx="8" fill="white" fill-opacity="0.2"/>
	<path fill-rule="evenodd" clip-rule="evenodd" d="M20.6625 20.6322C20.8423 20.6002 20.9602 20.4277 20.923 20.2489C20.7226 19.2855 20.3617 17.9584 20.3617 17.9584C20.3617 17.5867 19.8636 17.162 18.8822 16.9146C18.5489 16.8238 18.2326 16.6834 17.9449 16.4986C17.8988 16.3841 17.8806 16.2611 17.8916 16.1389L17.577 16.0919C17.577 16.0655 17.5501 15.6761 17.5501 15.6761C17.9282 15.5522 17.8893 14.8212 17.8893 14.8212C18.1294 14.9511 18.2857 14.3734 18.2857 14.3734C18.5697 13.5702 18.1443 13.6185 18.1443 13.6185C18.2187 13.1278 18.2187 12.6295 18.1443 12.1388C17.9553 10.5115 15.1076 10.9527 15.4454 11.4847C14.6132 11.3345 14.8032 13.1821 14.8032 13.1821L14.9837 13.6598C14.7337 13.8177 14.7826 13.9993 14.8374 14.2023C14.8602 14.287 14.884 14.3754 14.8876 14.4674C14.905 14.9286 15.1936 14.8329 15.1936 14.8329C15.2115 15.5935 15.5958 15.6934 15.5958 15.6934C15.668 16.1712 15.6232 16.0888 15.6232 16.0888L15.281 16.1292C15.2857 16.2378 15.2766 16.3465 15.2541 16.453C15.0554 16.5395 14.9337 16.6082 14.8136 16.676C14.69 16.7458 14.568 16.8147 14.3651 16.9012C13.5925 17.2307 12.7527 17.661 12.6037 18.2391C12.5126 18.5926 12.3109 19.5844 12.168 20.3019C12.1315 20.4849 12.2527 20.6621 12.437 20.6918C13.6748 20.8918 14.9984 21 16.374 21C17.8806 21 19.325 20.8702 20.6625 20.6322ZM24.3899 19.1243C24.6508 19.055 24.8214 18.8095 24.7557 18.5476C24.6342 18.0628 24.3835 17.4469 24.0841 17.2655C23.8268 17.1096 23.7457 17.072 23.6572 17.031C23.6049 17.0068 23.5501 16.9814 23.4548 16.9296C23.2854 16.8338 23.1066 16.7538 22.921 16.6909C22.8259 16.6092 22.7522 16.5073 22.706 16.3934C22.6084 16.2748 22.4802 16.1825 22.3339 16.1257L22.323 15.7697L23.0925 15.535C23.0925 15.535 23.291 15.4448 23.3103 15.4448C23.2796 15.3821 23.2441 15.3215 23.2042 15.2636C23.1896 15.2257 23.1171 14.966 23.1171 14.966C23.2293 15.1061 23.3613 15.2306 23.5093 15.336C23.3782 15.0969 23.266 14.8488 23.1737 14.5937C23.112 14.3576 23.0691 14.1173 23.0454 13.8749C22.9925 13.4246 22.9102 12.9778 22.799 12.5373C22.7199 12.3184 22.5791 12.1246 22.392 11.9773C22.1178 11.7914 21.7959 11.6799 21.4607 11.6547H21.4221C21.0868 11.6798 20.7649 11.7913 20.4907 11.9773C20.3039 12.1248 20.1632 12.3185 20.084 12.5373C19.9725 12.9778 19.8901 13.4246 19.8374 13.8749C19.817 14.1227 19.7762 14.3686 19.7151 14.6102C19.6228 14.8607 19.5086 15.1035 19.3737 15.3358C19.5209 15.2298 19.6521 15.105 19.7635 14.9648C19.7635 14.9648 19.6705 15.2496 19.6557 15.2877C19.6218 15.3369 19.5932 15.3893 19.5705 15.444C19.5896 15.444 19.7883 15.5341 19.7883 15.5341L20.5576 15.7697L20.5465 16.1257C20.4003 16.1828 20.2721 16.275 20.1744 16.3936C20.1374 16.4725 20.092 16.5476 20.0389 16.6177C20.7397 16.8953 21.15 17.3017 21.1665 17.7564C21.1698 17.7796 21.2068 17.9178 21.2585 18.1113C21.3879 18.5949 21.6095 19.4234 21.6276 19.663H21.6908C22.6672 19.5227 23.574 19.3408 24.3899 19.1243ZM11.0968 19.6608H11.3759C11.3941 19.4205 11.6169 18.5876 11.746 18.1047L11.7461 18.1047C11.7972 17.9135 11.8337 17.7771 11.837 17.7542C11.8533 17.2995 12.2635 16.893 12.9644 16.6154C12.9113 16.5454 12.8659 16.4703 12.8289 16.3913C12.7312 16.2728 12.603 16.1805 12.4568 16.1235L12.4457 15.7674L13.2152 15.5321C13.2152 15.5321 13.4139 15.442 13.433 15.442C13.4103 15.3872 13.3817 15.3349 13.3478 15.2857C13.3332 15.248 13.2421 14.9692 13.24 14.9628C13.3513 15.1029 13.4823 15.2277 13.6293 15.3336C13.4945 15.1012 13.3803 14.8585 13.2879 14.6079C13.2269 14.3663 13.186 14.1205 13.1657 13.8727C13.1129 13.4223 13.0306 12.9755 12.9191 12.535C12.8399 12.3163 12.6991 12.1225 12.5123 11.975C12.2381 11.789 11.9162 11.6776 11.581 11.6525H11.5424C11.2071 11.6777 10.8853 11.7891 10.611 11.975C10.424 12.1223 10.2831 12.3161 10.204 12.535C10.0928 12.9756 10.0105 13.4223 9.95764 13.8727C9.93393 14.115 9.89104 14.3553 9.82932 14.5915C9.73703 14.8465 9.62488 15.0947 9.49381 15.3338C9.64181 15.2283 9.77378 15.1038 9.88597 14.9638C9.88597 14.9638 9.81342 15.2235 9.79882 15.2613C9.75904 15.3193 9.72366 15.3798 9.69294 15.4426C9.71233 15.4426 9.9108 15.5327 9.9108 15.5327L10.6803 15.7674L10.6692 16.1235C10.5229 16.1803 10.3946 16.2725 10.2971 16.3911C10.2508 16.505 10.1772 16.607 10.082 16.6887C9.89645 16.7516 9.71769 16.8315 9.54827 16.9274C9.45596 16.9775 9.38362 17.0132 9.31734 17.0459L9.31733 17.0459L9.31732 17.0459C9.19947 17.1041 9.10077 17.1528 8.94304 17.2563C8.5628 17.5058 8.33674 18.1184 8.23321 18.5999C8.17584 18.8667 8.35326 19.1142 8.6179 19.1808C9.37598 19.3718 10.2076 19.5335 11.0968 19.6608Z" fill="white"/>
	<rect x="6.5" y="6" width="20" height="20" rx="3" fill="white" fill-opacity="0.01"/>
</svg>
