<svg width="28" height="28" viewBox="0 0 28 28" fill="none" xmlns="http://www.w3.org/2000/svg">
	<rect x="0.5" y="0.5" width="27" height="27" rx="5.5" fill="#F2FEE2"/>
	<rect x="0.5" y="0.5" width="27" height="27" rx="5.5" stroke="#D4FDB0"/>
	<path fill-rule="evenodd" clip-rule="evenodd" d="M18.1625 18.6322C18.3423 18.6002 18.4602 18.4277 18.423 18.2489C18.2226 17.2855 17.8617 15.9584 17.8617 15.9584C17.8617 15.5867 17.3636 15.162 16.3822 14.9146C16.0489 14.8238 15.7326 14.6834 15.4449 14.4986C15.3988 14.3841 15.3806 14.2611 15.3916 14.1389L15.077 14.0919C15.077 14.0655 15.0501 13.6761 15.0501 13.6761C15.4282 13.5522 15.3893 12.8212 15.3893 12.8212C15.6294 12.9511 15.7857 12.3734 15.7857 12.3734C16.0697 11.5702 15.6443 11.6185 15.6443 11.6185C15.7187 11.1278 15.7187 10.6295 15.6443 10.1388C15.4553 8.51146 12.6076 8.95272 12.9454 9.48468C12.1132 9.33445 12.3032 11.1821 12.3032 11.1821L12.4837 11.6598C12.2337 11.8177 12.2826 11.9993 12.3374 12.2023C12.3602 12.287 12.384 12.3754 12.3876 12.4674C12.405 12.9286 12.6936 12.8329 12.6936 12.8329C12.7115 13.5935 13.0958 13.6934 13.0958 13.6934C13.168 14.1712 13.1232 14.0888 13.1232 14.0888L12.781 14.1292C12.7857 14.2378 12.7766 14.3465 12.7541 14.453C12.5554 14.5395 12.4337 14.6082 12.3136 14.676C12.19 14.7458 12.068 14.8147 11.8651 14.9012C11.0925 15.2307 10.2527 15.661 10.1037 16.2391C10.0126 16.5926 9.81092 17.5844 9.66795 18.3019C9.63147 18.4849 9.75271 18.6621 9.93699 18.6918C11.1748 18.8918 12.4984 19 13.874 19C15.3806 19 16.825 18.8702 18.1625 18.6322ZM21.8899 17.1243C22.1508 17.055 22.3214 16.8095 22.2557 16.5476C22.1342 16.0628 21.8835 15.4469 21.5841 15.2655C21.3268 15.1096 21.2457 15.072 21.1572 15.031C21.1049 15.0068 21.0501 14.9814 20.9548 14.9296C20.7854 14.8338 20.6066 14.7538 20.421 14.6909C20.3259 14.6092 20.2522 14.5073 20.206 14.3934C20.1084 14.2748 19.9802 14.1825 19.8339 14.1257L19.823 13.7697L20.5925 13.535C20.5925 13.535 20.791 13.4448 20.8103 13.4448C20.7796 13.3821 20.7441 13.3215 20.7042 13.2636C20.6896 13.2257 20.6171 12.966 20.6171 12.966C20.7293 13.1061 20.8613 13.2306 21.0093 13.336C20.8782 13.0969 20.766 12.8488 20.6737 12.5937C20.612 12.3576 20.5691 12.1173 20.5454 11.8749C20.4925 11.4246 20.4102 10.9778 20.299 10.5373C20.2199 10.3184 20.0791 10.1246 19.892 9.97729C19.6178 9.79138 19.2959 9.67991 18.9607 9.65473H18.9221C18.5868 9.67982 18.2649 9.7913 17.9907 9.97729C17.8039 10.1248 17.6632 10.3185 17.584 10.5373C17.4725 10.9778 17.3901 11.4246 17.3374 11.8749C17.317 12.1227 17.2762 12.3686 17.2151 12.6102C17.1228 12.8607 17.0086 13.1035 16.8737 13.3358C17.0209 13.2298 17.1521 13.105 17.2635 12.9648C17.2635 12.9648 17.1705 13.2496 17.1557 13.2877C17.1218 13.3369 17.0932 13.3893 17.0705 13.444C17.0896 13.444 17.2883 13.5341 17.2883 13.5341L18.0576 13.7697L18.0465 14.1257C17.9003 14.1828 17.7721 14.275 17.6744 14.3936C17.6374 14.4725 17.592 14.5476 17.5389 14.6177C18.2397 14.8953 18.65 15.3017 18.6665 15.7564C18.6698 15.7796 18.7068 15.9178 18.7585 16.1113C18.8879 16.5949 19.1095 17.4234 19.1276 17.663H19.1908C20.1672 17.5227 21.074 17.3408 21.8899 17.1243ZM8.59679 17.6608H8.87595C8.89405 17.4205 9.11685 16.5876 9.24604 16.1047L9.24605 16.1047C9.2972 15.9135 9.33368 15.7771 9.33695 15.7542C9.35329 15.2995 9.76353 14.893 10.4644 14.6154C10.4113 14.5454 10.3659 14.4703 10.3289 14.3913C10.2312 14.2728 10.103 14.1805 9.95678 14.1235L9.94567 13.7674L10.7152 13.5321C10.7152 13.5321 10.9139 13.442 10.933 13.442C10.9103 13.3872 10.8817 13.3349 10.8478 13.2857C10.8332 13.248 10.7421 12.9692 10.74 12.9628C10.8513 13.1029 10.9823 13.2277 11.1293 13.3336C10.9945 13.1012 10.8803 12.8585 10.7879 12.6079C10.7269 12.3663 10.686 12.1205 10.6657 11.8727C10.6129 11.4223 10.5306 10.9755 10.4191 10.535C10.3399 10.3163 10.1991 10.1225 10.0123 9.97503C9.73813 9.78904 9.41624 9.67757 9.08096 9.65248H9.0424C8.70713 9.67766 8.38528 9.78913 8.11102 9.97503C7.92396 10.1223 7.78313 10.3161 7.70405 10.535C7.59282 10.9756 7.51053 11.4223 7.45764 11.8727C7.43393 12.115 7.39104 12.3553 7.32932 12.5915C7.23703 12.8465 7.12488 13.0947 6.99381 13.3338C7.14181 13.2283 7.27378 13.1038 7.38597 12.9638C7.38597 12.9638 7.31342 13.2235 7.29882 13.2613C7.25904 13.3193 7.22366 13.3798 7.19294 13.4426C7.21233 13.4426 7.4108 13.5327 7.4108 13.5327L8.1803 13.7674L8.16919 14.1235C8.0229 14.1803 7.89465 14.2725 7.79708 14.3911C7.75083 14.505 7.67717 14.607 7.58204 14.6887C7.39645 14.7516 7.21769 14.8315 7.04827 14.9274C6.95596 14.9775 6.88362 15.0132 6.81734 15.0459L6.81733 15.0459L6.81732 15.0459C6.69947 15.1041 6.60077 15.1528 6.44304 15.2563C6.0628 15.5058 5.83674 16.1184 5.73321 16.5999C5.67584 16.8667 5.85326 17.1142 6.1179 17.1808C6.87598 17.3718 7.70764 17.5335 8.59679 17.6608Z" fill="#19CC45"/>
	<rect x="4" y="4" width="20" height="20" rx="3" fill="white" fill-opacity="0.01"/>
</svg>
