<svg width="108" height="107" viewBox="0 0 108 107" fill="none" xmlns="http://www.w3.org/2000/svg">
	<path opacity="0.3" d="M107 53.5C107 82.4862 83.2799 106 54 106C24.7201 106 1 82.4862 1 53.5C1 24.5138 24.7201 1 54 1C83.2799 1 107 24.5138 107 53.5Z" stroke="white" stroke-width="2"/>
	<path fill-rule="evenodd" clip-rule="evenodd" d="M76.8666 33.4664L59.6467 23.2847C56.1562 21.2209 51.8438 21.2209 48.3533 23.2847L31.1334 33.4664C27.6524 35.5247 25.5556 39.2933 25.5556 43.3183V63.6817C25.5556 67.7067 27.6524 71.4753 31.1334 73.5336L48.3533 83.7153C51.8438 85.7791 56.1562 85.7791 59.6467 83.7153L76.8666 73.5336C80.3476 71.4753 82.4444 67.7067 82.4444 63.6817V43.3183C82.4444 39.2933 80.3476 35.5247 76.8666 33.4664ZM61.3901 20.0279C56.8171 17.324 51.1829 17.324 46.6099 20.0279L29.3901 30.2096C24.8171 32.9135 22 37.9105 22 43.3183V63.6817C22 69.0895 24.8171 74.0865 29.3901 76.7904L46.6099 86.9721C51.1829 89.676 56.8171 89.676 61.3901 86.9721L78.6099 76.7904C83.1829 74.0865 86 69.0895 86 63.6817V43.3183C86 37.9105 83.1829 32.9135 78.6099 30.2096L61.3901 20.0279Z" fill="white"/>
	<path fill-rule="evenodd" clip-rule="evenodd" d="M56 45C56 43.8954 56.7835 43 57.75 43L70.25 43C71.2165 43 72 43.8954 72 45C72 46.1046 71.2165 47 70.25 47L57.75 47C56.7835 47 56 46.1046 56 45Z" fill="white"/>
	<path fill-rule="evenodd" clip-rule="evenodd" d="M56 62C56 60.8954 56.7835 60 57.75 60L70.25 60C71.2165 60 72 60.8954 72 62C72 63.1046 71.2165 64 70.25 64L57.75 64C56.7835 64 56 63.1046 56 62Z" fill="white"/>
	<path fill-rule="evenodd" clip-rule="evenodd" d="M48.5338 40.5223C49.1764 41.1965 49.1516 42.2647 48.4784 42.9082L42.5937 48.5332C41.9978 49.1027 41.078 49.1574 40.419 48.6625L36.6742 45.85C35.9296 45.2908 35.7787 44.2331 36.3371 43.4875C36.8956 42.7419 37.9518 42.5908 38.6964 43.15L41.2992 45.1048L46.1513 40.4668C46.8245 39.8233 47.8912 39.8482 48.5338 40.5223Z" fill="white"/>
	<path fill-rule="evenodd" clip-rule="evenodd" d="M48.5338 57.5223C49.1764 58.1965 49.1516 59.2647 48.4784 59.9082L42.5937 65.5332C41.9978 66.1027 41.078 66.1574 40.419 65.6625L36.6742 62.85C35.9296 62.2908 35.7787 61.2331 36.3371 60.4875C36.8956 59.7419 37.9518 59.5908 38.6964 60.15L41.2992 62.1048L46.1513 57.4668C46.8245 56.8233 47.8912 56.8482 48.5338 57.5223Z" fill="white"/>
</svg>
