<svg width="28" height="28" viewBox="0 0 28 28" fill="none" xmlns="http://www.w3.org/2000/svg">
	<rect x="0.5" y="0.5" width="27" height="27" rx="5.5" fill="#F2FEE2"/>
	<rect x="0.5" y="0.5" width="27" height="27" rx="5.5" stroke="#D4FDB0"/>
	<path fill-rule="evenodd" clip-rule="evenodd" d="M11.7072 13.3115L13.1973 14.8015L16.7695 11.2294L17.8229 12.2828L13.1984 16.9073L13.141 16.85L13.14 16.851L10.6538 14.3649L11.7072 13.3115ZM7.29761 13.9862C7.29761 17.6607 10.2764 20.6395 13.9508 20.6395C17.6253 20.6395 20.6041 17.6607 20.6041 13.9862C20.6041 10.3118 17.6253 7.33301 13.9508 7.33301C10.2764 7.33301 7.29761 10.3118 7.29761 13.9862Z" fill="#19CC45"/>
	<rect x="4" y="4" width="20" height="20" rx="3" fill="white" fill-opacity="0.01"/>
</svg>
