<?xml version="1.0" encoding="UTF-8"?>
<svg width="12px" height="12px" viewBox="0 0 12 12" version="1.1" xmlns="http://www.w3.org/2000/svg" xmlns:xlink="http://www.w3.org/1999/xlink">
    <!-- Generator: Sketch 41.2 (35397) - http://www.bohemiancoding.com/sketch -->
    <title>Fill-1</title>
    <desc>Created with Sketch.</desc>
    <defs></defs>
    <g id="Page-1" stroke="none" stroke-width="1" fill="none" fill-rule="evenodd">
        <path d="M8.2162,6.493606 C8.03489,7.345928 7.36463,8.016206 6.51234,8.197463 C4.8874,8.543055 3.47582,7.131018 3.82147,5.506376 C3.98493,4.738143 4.75689,3.966103 5.5251,3.802606 C7.14973,3.456805 8.56186,4.868528 8.2162,6.493606 M11.5609,5.126224 L10.37221,4.927905 L10.37221,4.927905 C10.28776,4.582645 10.1655,4.252265 10.00681,3.943435 C10.00014,3.930442 10.00169,3.914811 10.01086,3.903443 L10.75675,2.978576 C10.9186,2.779157 10.91125,2.492244 10.74062,2.299793 L10.26785,1.767705 C10.09648,1.575446 9.8123,1.53479 9.59553,1.671741 L8.57896,2.310795 L8.57896,2.310795 C8.13826,2.00289 7.63989,1.774341 7.10251,1.639678 C7.08826,1.636098 7.07745,1.624467 7.07502,1.609954 L6.88013,0.438726 C6.83839,0.185675 6.61941,0 6.36236,0 L5.64991,0 C5.39338,0 5.17365,0.185675 5.13284,0.438726 L4.93687,1.610391 C4.93444,1.624868 4.92365,1.636464 4.90942,1.640027 C4.47453,1.749019 4.06605,1.921037 3.69186,2.145936 C3.67925,2.153516 3.66341,2.152957 3.65143,2.1444 L2.70436,1.468497 C2.49601,1.319636 2.20982,1.342915 2.02799,1.524364 L1.52467,2.028056 C1.34322,2.209889 1.31994,2.496086 1.4692,2.704447 L2.14669,3.653413 C2.15523,3.665376 2.15582,3.681215 2.14826,3.693824 C1.92555,4.065123 1.75532,4.471174 1.64644,4.902111 C1.64284,4.916344 1.63125,4.927102 1.61679,4.929512 L0.4387,5.126242 C0.18604,5.167963 0,5.386976 0,5.644044 L0,6.355956 C0,6.613006 0.18604,6.832037 0.4387,6.873758 L1.61675,7.070471 C1.63123,7.072898 1.64284,7.083674 1.64642,7.097924 C1.73499,7.44975 1.86115,7.786295 2.027,8.099579 C2.03391,8.112642 2.03245,8.128516 2.02316,8.140025 L1.28095,9.059285 C1.11966,9.258513 1.12643,9.545618 1.29707,9.737894 L1.76947,10.269999 C1.94085,10.462608 2.22519,10.50253 2.44198,10.365928 L3.45281,9.730926 C3.4652,9.723137 3.48099,9.723452 3.49311,9.73166 C3.92454,10.023218 4.41123,10.237918 4.93289,10.365928 L4.93289,10.365928 L5.13286,11.561239 C5.17367,11.814307 5.39338,12 5.64991,12 L6.36236,12 C6.61942,12 6.83839,11.814325 6.88013,11.561257 L7.07535,10.389801 C7.07778,10.375306 7.08859,10.363693 7.10284,10.36013 C7.53211,10.25264 7.93528,10.08366 8.30594,9.862726 C8.31855,9.855216 8.33433,9.85581 8.34626,9.864332 L9.33369,10.569574 C9.54168,10.718977 9.82807,10.69554 10.00971,10.513515 L10.51325,10.009981 C10.69448,9.828706 10.71902,9.542666 10.56852,9.333921 L9.86559,8.348351 C9.85705,8.336388 9.85647,8.320566 9.86403,8.307974 C10.0874,7.935419 10.25854,7.528582 10.36682,7.095706 C10.37038,7.081456 10.38199,7.070646 10.39647,7.068218 L11.5613,6.873724 C11.81471,6.831985 12,6.612971 12,6.355921 L12,5.644009 C11.99962,5.386976 11.81433,5.167963 11.5609,5.126224" id="Fill-1" fill="#525C68"></path>
    </g>
</svg>