<svg width="16" height="301" viewBox="0 0 16 301" xmlns="http://www.w3.org/2000/svg"><title>Group</title><g fill="none" fill-rule="evenodd"><path d="M10.257 217.992l-3.045 3-3.044-3-1.18 1.162 3.045 3 1.18 1.162 1.18-1.162 3.044-3z" fill="#20506B"/><path d="M12.032 251.812l-2.914-2.878L11.086 247 14 249.877l-1.968 1.935zM0 260.996l1.168-4.204 2.915 2.877L.003 261 0 260.996zm4.954-2.187l-2.914-2.88 6.12-6.042 2.915 2.877-6.12 6.044zM11.22 267.77c0 1.77-.47 1.938-2.225 1.938H5v-3.393l-5 4.798 5 4.916v-3.507h3.994c3.288 0 5.006-1.433 5.006-4.76 0-3.78-2.315-4.612-5.964-4.612V263v3.026c1.757 0 3.185-.027 3.185 1.744zM13.15 288.015l-3.94-3.94 3.94-3.94L11.014 278l-3.94 3.94-3.94-3.94L1 280.135l3.94 3.94-3.94 3.94 2.134 2.135 3.94-3.94 3.94 3.94z" fill="#737B86"/><path d="M4.01 237.98l5.48-7.99h2.5L6.46 238l5.5 7.95-2.49.06z" fill="#535C69"/><path d="M7.27 295.15l-3.046 3-3.044-3L0 296.312l3.045 3 1.18 1.162 1.18-1.162 3.044-3z" fill="#737B86"/><path d="M14 202v1.99H0V202h14zm-6.575 3.98H14v1.99H0v-1.99h7.425zM14 209.97v1.99H0v-1.99h14z" fill="#535C69"/><path d="M9 193H4a1 1 0 0 0 0 2h5a1 1 0 0 0 0-2zm-5-1h5a1 1 0 0 0 0-2H4a1 1 0 0 0 0 2zm-3-5a1 1 0 0 0-1 1v9a1 1 0 0 0 1 1h11a1 1 0 0 0 1-1v-9a1 1 0 0 0-1-1H1zm10 2v7H2v-7h9z" fill="#515A67"/><path d="M9.186 40.42c2.005 0 3.638-.03 3.638 1.97s-.538 2.19-2.543 2.19H5.56l-.182-3.79L0 46.166l5.522 5.522.038-3.93h4.718c3.76 0 5.722-1.62 5.722-5.38 0-4.27-2.646-5.21-6.816-5.21V37l.002 3.42zM12 29.89L8.108 26 12 22.11 9.892 20 6 23.89 2.108 20 0 22.11 3.892 26 0 29.89 2.108 32 6 28.11 9.892 32zM12.892 5.155L9.77 2.073 11.878 0 15 3.083l-2.108 2.072zM0 14.995l1.252-4.504 3.122 3.084L.004 15 0 14.996zm5.308-2.343L2.186 9.57l6.557-6.476 3.123 3.083-6.558 6.475zM16 101.88H4.48l-4.41 8.534h11.592L16 101.88zm-4.373-1.102v-2.56h-6.01v-1.53h-3.98L0 98.326v9.813l3.733-7.36h7.894zM6.388 76.69H0v14.797h11v-10.14L6.388 76.69zm-.93 5.57v-3.707L9.16 82.26H5.457z" fill="#535C69"/><g fill="#535C69"><path d="M4.875 56.69h5.252c.263 0 .263.26.263.26v6.074l2.16-.002c.845 0 .116.7.116.7L8.2 68.13s-.453.438-.686.438c-.233 0-.714-.44-.714-.44l-4.523-4.493s-.63-.61.174-.613l2.16.002v-6.042s0-.293.265-.293z"/><path d="M.03 67.4h1.138v2.363c0 .276.496.497.496.497h11.673c.275 0 .497-.497.497-.497V67.4h1.137v2.51c-.02 1.72-1.72 1.72-1.72 1.72H1.75s-1.722 0-1.72-1.72c-.002-.002 0-2.51 0-2.51z"/></g><path d="M1.43 115.69l5.44 5.17-1.43 1.36L0 117.05l1.43-1.36zm4.02 3.82c0-.018 4-3.82 4-3.82l1.43 1.36s-4.014 3.823-4.014 3.81l-1.417-1.35z" fill="#535C69"/><path d="M16 172.69v2h-2.09a5.858 5.858 0 0 1-1 2.41l2.1 1.82-1.44 1.78-2.31-2.01a5.964 5.964 0 0 1-2.26.9v2.1H7v-2.09a5.9 5.9 0 0 1-2.26-.9l-2.31 2-1.44-1.78 2.1-1.83a5.938 5.938 0 0 1-.99-2.4H0v-2h2.09a5.858 5.858 0 0 1 1-2.41l-2.1-1.82 1.44-1.78 2.31 2.01a6.03 6.03 0 0 1 2.26-.9v-2.1h2v2.1a5.964 5.964 0 0 1 2.26.9l2.31-2.01 1.44 1.78-2.1 1.82c.51.717.852 1.54 1 2.41H16zm-8-2a3 3 0 1 0 0 6 3 3 0 0 0 0-6zM0 146.69h16v2H0v-2zm14 2h2v10h-2v-10zm-14 0h2v12H0v-12zm2 10h14v2H2v-2zm2-8h8v2H4v-2zm0 4h8v2H4v-2zM4 131.69h2v2H4v-2zm-4-4h16v2H0v-2zm14 2h2v10h-2v-10zm-14 0h2v12H0v-12zm16 10v2H2v-2h14zm-9-8h2v2H7v-2zm3 0h2v2h-2v-2zm-6 4h2v2H4v-2zm3 0h2v2H7v-2zm3 0h2v2h-2v-2z" fill="#535C68"/></g></svg>