<svg width="42" height="42" viewBox="-11 -11 42 42" fill="none" xmlns="http://www.w3.org/2000/svg"><path fill-rule="evenodd" clip-rule="evenodd" d="M4.174 13.5l-1.5-6h14l-1 6h-11.5zM18.082 0l-.466 3H1.3A1.3 1.3 0 0 0 .032 4.586l2.364 10.468h15.048l1.783-11.193.364-1.909h4.266L23.674 0h-5.592zm-3.27 19.5c-.636 0-1.154-.505-1.154-1.125s.518-1.125 1.154-1.125c.64 0 1.156.506 1.156 1.125 0 .62-.516 1.125-1.156 1.125zm0-3.75c-1.485 0-2.695 1.176-2.695 2.625 0 1.448 1.21 2.625 2.695 2.625 1.489 0 2.699-1.177 2.699-2.625 0-1.449-1.21-2.625-2.699-2.625zM5.025 19.5c-.638 0-1.156-.505-1.156-1.125s.518-1.125 1.156-1.125c.638 0 1.156.506 1.156 1.125 0 .62-.518 1.125-1.156 1.125zm0-3.75c-1.487 0-2.697 1.176-2.697 2.625 0 1.448 1.21 2.625 2.697 2.625s2.696-1.177 2.696-2.625c0-1.449-1.21-2.625-2.696-2.625z" fill="#80868E"/></svg>