<svg xmlns="http://www.w3.org/2000/svg" width="42" height="42" viewBox="0 0 42 42"><g fill="none" fill-rule="evenodd"><path fill="#FFFFFF" d="M28.5555556,16.2 L28.5555556,18.6 L27,18.6 L27,21 L28.5555556,21 L28.5555556,29 L31.6666667,29 L31.6666667,21 L34,21 C33.7062587,20.9955556 33.9016696,19.704 34,18.6 L31.6666667,18.6 L31.6666667,16.2 C31.6327788,16.1744444 31.9713104,15.8046667 32.4444444,16.2 L34,16.2 L34,13 L31.6666667,13 C28.4364156,13 28.5128716,15.6962222 28.5555556,16.2"/><path fill="#FFFFFF" fill-rule="nonzero" d="M12.3636364,13 C10.0806316,13 8,15.0805895 8,17.3636364 L8,24.6363636 C8,26.9193684 10.0805895,29 12.3636364,29 L19.6363636,29 C21.9193684,29 24,26.9194105 24,24.6363636 L24,17.3636364 C24,15.0806316 21.9194105,13 19.6363636,13 L12.3636364,13 Z M12.5347594,14.4545455 L19.4652406,14.4545455 C21.1980073,14.4545455 22.5454545,15.8019927 22.5454545,17.5347594 L22.5454545,24.4652406 C22.5454545,26.1980073 21.1980073,27.5454545 19.4652406,27.5454545 L12.5347594,27.5454545 C10.8019927,27.5454545 9.45454545,26.1980073 9.45454545,24.4652406 L9.45454545,17.5347594 C9.45454545,15.8019927 10.8019927,14.4545455 12.5347594,14.4545455 Z M20.3636364,15.9090909 C19.9616545,15.9090909 19.6363636,16.2343818 19.6363636,16.6363636 C19.6363636,17.0383455 19.9616545,17.3636364 20.3636364,17.3636364 C20.7656182,17.3636364 21.0909091,17.0383455 21.0909091,16.6363636 C21.0909091,16.2343818 20.7656182,15.9090909 20.3636364,15.9090909 Z M16,16.6363636 C13.5997922,16.6363636 11.6363636,18.5998338 11.6363636,21 C11.6363636,23.4001662 13.5998338,25.3636364 16,25.3636364 C18.4001662,25.3636364 20.3636364,23.4001662 20.3636364,21 C20.3636364,18.5998338 18.4001662,16.6363636 16,16.6363636 Z M16,18.0909091 C17.6171413,18.0909091 18.9090909,19.3828587 18.9090909,21 C18.9090909,22.6171413 17.6171413,23.9090909 16,23.9090909 C14.3828587,23.9090909 13.0909091,22.6171413 13.0909091,21 C13.0909091,19.3828587 14.3828587,18.0909091 16,18.0909091 Z"/></g></svg>
