<svg width="16" height="16" viewBox="0 0 16 16" fill="none" xmlns="http://www.w3.org/2000/svg">
<path d="M5.55705 1.46135H9.89672L5.39172 14.8092C5.34541 14.9463 5.25726 15.0655 5.13967 15.15C5.02209 15.2344 4.88098 15.2798 4.73622 15.2798H1.35888C1.2492 15.2799 1.14109 15.2538 1.0435 15.2037C0.945908 15.1536 0.861638 15.0811 0.797662 14.992C0.733686 14.9029 0.691842 14.7998 0.675592 14.6914C0.659343 14.5829 0.669155 14.4721 0.704216 14.3682L4.90138 1.93201C4.94766 1.7948 5.03583 1.67556 5.15345 1.59109C5.27108 1.50663 5.41224 1.46136 5.55705 1.46135Z" fill="url(#paint0_linear_7955_314363)"/>
<path d="M11.8626 10.4141H4.98096C4.91698 10.414 4.85447 10.4332 4.80156 10.4692C4.74864 10.5051 4.70779 10.5562 4.68432 10.6157C4.66085 10.6752 4.65584 10.7404 4.66996 10.8028C4.68408 10.8652 4.71666 10.9219 4.76346 10.9656L9.18546 15.0929C9.31421 15.213 9.48373 15.2798 9.6598 15.2797H13.5565L11.8626 10.4141Z" fill="#0078D4"/>
<path d="M5.55617 1.46119C5.40978 1.46062 5.26704 1.50689 5.14881 1.59321C5.03058 1.67954 4.94305 1.80141 4.899 1.94102L0.7085 14.3567C0.67108 14.461 0.659332 14.5728 0.67425 14.6826C0.689168 14.7924 0.730313 14.897 0.794205 14.9875C0.858096 15.0781 0.942855 15.1519 1.04131 15.2027C1.13976 15.2536 1.24902 15.28 1.35983 15.2797H4.82433C4.95337 15.2566 5.07397 15.1997 5.17382 15.1148C5.27367 15.0299 5.34919 14.92 5.39267 14.7964L6.22833 12.3335L9.21333 15.1177C9.33842 15.2212 9.49534 15.2784 9.65767 15.2797H13.5398L11.8372 10.414L6.87367 10.4152L9.9115 1.46119H5.55617Z" fill="url(#paint1_linear_7955_314363)"/>
<path d="M11.0986 1.93118C11.0524 1.79419 10.9643 1.67515 10.8469 1.59083C10.7294 1.50651 10.5885 1.46116 10.4439 1.46118H5.60742C5.752 1.46119 5.89293 1.50654 6.01037 1.59086C6.12781 1.67517 6.21585 1.7942 6.26209 1.93118L10.4594 14.3678C10.4945 14.4718 10.5043 14.5826 10.4881 14.6911C10.4719 14.7996 10.43 14.9027 10.3661 14.9918C10.3021 15.0809 10.2178 15.1535 10.1202 15.2036C10.0226 15.2537 9.91446 15.2798 9.80476 15.2798H14.6414C14.7511 15.2798 14.8592 15.2537 14.9568 15.2036C15.0544 15.1535 15.1387 15.0809 15.2026 14.9917C15.2666 14.9026 15.3084 14.7995 15.3246 14.6911C15.3408 14.5826 15.331 14.4718 15.2959 14.3678L11.0986 1.93118Z" fill="url(#paint2_linear_7955_314363)"/>
<defs>
<linearGradient id="paint0_linear_7955_314363" x1="7.13872" y1="2.48535" x2="2.63188" y2="15.7997" gradientUnits="userSpaceOnUse">
<stop stop-color="#114A8B"/>
<stop offset="1" stop-color="#0669BC"/>
</linearGradient>
<linearGradient id="paint1_linear_7955_314363" x1="8.54567" y1="8.69002" x2="7.50317" y2="9.04252" gradientUnits="userSpaceOnUse">
<stop stop-opacity="0.3"/>
<stop offset="0.071" stop-opacity="0.2"/>
<stop offset="0.321" stop-opacity="0.1"/>
<stop offset="0.623" stop-opacity="0.05"/>
<stop offset="1" stop-opacity="0"/>
</linearGradient>
<linearGradient id="paint2_linear_7955_314363" x1="7.97192" y1="2.09685" x2="12.9191" y2="15.277" gradientUnits="userSpaceOnUse">
<stop stop-color="#3CCBF4"/>
<stop offset="1" stop-color="#2892DF"/>
</linearGradient>
</defs>
</svg>
