<svg xmlns="http://www.w3.org/2000/svg" width="42" height="42" viewBox="-1 0 42 42"><path fill="#80868E" d="M13.355 29.46c-.413 0-.735.17-.966.508-.232.339-.347.805-.347 1.4 0 1.236.47 1.855 1.41 1.855.284 0 .56-.04.826-.12.267-.078.535-.173.805-.285v1.468c-.537.237-1.143.356-1.82.356-.97 0-1.713-.281-2.23-.844-.517-.562-.776-1.375-.776-2.439 0-.665.126-1.25.376-1.753.25-.504.61-.892 1.081-1.163.47-.27 1.023-.406 1.66-.406.693 0 1.357.15 1.99.453l-.532 1.366a5.988 5.988 0 0 0-.712-.28 2.49 2.49 0 0 0-.765-.115zm4.716 2.756v2.338h-1.736V28.13h2.105c1.746 0 2.62.633 2.62 1.899 0 .744-.364 1.32-1.09 1.727l1.871 2.8h-1.968l-1.363-2.339h-.44zm0-1.305h.325c.606 0 .91-.268.91-.804 0-.442-.298-.664-.892-.664h-.343v1.468zm7.154 3.643l-1.314-4.627h-.04c.062.788.093 1.4.093 1.837v2.79h-1.538V28.13h2.311l1.34 4.562h.036l1.314-4.562h2.316v6.425h-1.596v-2.817c0-.146.003-.309.007-.487.004-.18.024-.617.06-1.314h-.04l-1.297 4.618h-1.652zm2.949-9.592h3.217c.606-1.523.942-3.193.942-4.94 0-7.394-5.977-13.37-13.13-12.895-5.9.393-10.776 5.234-11.453 11.388a13.42 13.42 0 0 0 .86 6.447h3.216a10.28 10.28 0 0 1-1.224-5.779c.381-4.862 4.208-8.758 8.858-9.026 5.473-.316 9.971 4.203 9.971 9.865 0 1.801-.459 3.489-1.257 4.94zm-6.781-1.788a2.529 2.529 0 0 1-3.33.029c-1.297-1.108-1.38-3.15-.252-4.377.513-.558 1.177-.846 1.85-.86l6.718-4.359-3.977 7.34a3.025 3.025 0 0 1-1.01 2.227z"/></svg>