<svg xmlns="http://www.w3.org/2000/svg" viewBox="0 0 98 98">
  <g fill="none" fill-rule="evenodd" transform="translate(.76 .412)">
    <circle cx="48.338" cy="48.338" r="48.338"/>
    <path fill="#FFF" d="M33.0368404,39.4172154 C38.8475917,39.4172154 43.5190738,44.1663101 43.4620206,49.9453199 C43.4620206,51.7763182 42.9493395,53.5501133 42.0948378,55.1521992 L42.0948378,55.1521992 L43.5760273,60.5878906 L38.0500435,59.1574139 C36.5119005,60.01576 34.8027973,60.4162815 33.0937939,60.4162815 C27.3399961,60.4162815 22.668514,55.6671267 22.668514,49.8881169 C22.668514,47.0844666 23.7509294,44.4524255 25.6878464,42.5070212 C27.6248633,40.5043537 30.3023751,39.4172154 33.0368404,39.4172154 Z M24.6875199,32.5878906 C28.1764443,32.5878906 31.5928552,33.9750123 34.0641974,36.5302351 C34.2186002,36.6853144 34.368714,36.8438199 34.5145389,37.0055813 C33.9374236,36.9273304 33.3484388,36.8869176 32.7499784,36.8869176 C32.1786482,36.8869176 31.6159957,36.9237439 31.0640157,36.9951425 C27.5631221,34.4571608 22.7472115,34.1803221 18.7997667,36.6032366 C13.5662405,39.8155129 12.0397974,46.6781347 15.2380596,51.8615717 L15.2380596,51.8615717 L15.5288116,52.2995607 L14.4384965,56.4609567 L18.6543907,55.3658841 L19.0905187,55.5848786 C19.835592,56.0403991 20.6384266,56.3944369 21.4732888,56.6468916 C22.0508031,57.6347711 22.7532959,58.5401019 23.5590231,59.3408443 C21.7353147,59.2008922 19.9365024,58.6932778 18.2909557,57.7750237 L18.2909557,57.7750237 L11.2402344,59.6002115 L13.1301125,52.6646183 C12.0397974,50.620436 11.3856104,48.3572593 11.3856104,46.0210511 C11.3129224,38.6474088 17.2733236,32.5878906 24.6875199,32.5878906 Z M54.5733835,37.7150343 C58.904621,37.7150343 60.9967388,39.8975086 60.9967388,42.9646034 C60.9967388,45.708868 59.0713877,47.4432576 57.0239492,49.0309158 L56.5840008,49.3691969 L56.5840008,49.3691969 L56.3638573,49.5372429 C54.6212105,50.8666375 52.9298217,52.1568616 52.3926636,53.9360666 L52.3926636,53.9360666 L61.2619565,53.9360666 L61.2619565,57.357129 L47.1478584,57.357129 C47.6293378,51.5567807 51.0565709,49.0612855 53.6880112,47.1452341 C55.4049941,45.895022 56.7831786,44.8915244 56.7831786,43.3776374 C56.7831786,41.6964992 55.398441,41.1066867 53.9250714,41.1066867 C51.9508901,41.1066867 50.3301995,41.7554253 48.8275852,42.4338974 L48.8275852,42.4338974 L47.795989,39.3372494 C49.4757178,38.5702878 51.8035691,37.7150343 54.5733835,37.7150343 Z M73.1665308,37.7740956 L73.1665308,49.4826445 L76.0540025,49.4826445 L76.0540025,52.7266881 L73.1665308,52.7266881 L73.1665308,57.3570288 L69.2474131,57.3570288 L69.2474131,52.7266881 L60.5549753,52.7266881 L60.5549753,50.1608662 L70.2785604,37.7740956 L73.1665308,37.7740956 Z M84.7337729,37.5969135 C88.3272284,37.5969135 91.2402344,40.5219935 91.2402344,44.1303834 C91.2402344,47.7388033 88.3272284,50.6640726 84.7337729,50.6640726 C81.1404172,50.6640726 78.2274112,47.7388033 78.2274112,44.1303834 C78.2274112,40.5219935 81.1404172,37.5969135 84.7337729,37.5969135 Z M69.4246571,43.7610681 L65.0341521,49.5711039 C65.3876428,49.5415506 66.8021039,49.4826445 67.4796608,49.4826445 L67.4796608,49.4826445 L69.2477123,49.4826445 L69.2477123,47.3885724 C69.2477123,45.8846133 69.3654095,44.1443686 69.4246571,43.7610681 L69.4246571,43.7610681 Z M84.7348701,39.0488599 C81.9399603,39.0488599 79.6742889,41.323898 79.6742889,44.1303834 C79.6742889,46.9368587 81.9399603,49.2120571 84.7348701,49.2120571 C87.5298796,49.2120571 89.795551,46.9368587 89.795551,44.1303834 C89.795551,41.323898 87.5298796,39.0488599 84.7348701,39.0488599 Z M85.4580097,41.2267029 L85.4580097,43.4045259 L87.6260323,43.4045259 L87.6260323,44.8564713 L84.0113315,44.8564713 L84.0122291,41.2267029 L85.4580097,41.2267029 Z"/>
  </g>
</svg>