<svg xmlns="http://www.w3.org/2000/svg" width="40" height="40" viewBox="0 0 40 40"><path fill="#FFFFFF" fill-rule="evenodd" d="M31.0962509,28.3065859 C32.8041239,27.0682659 33.8956386,25.2382418 33.8956386,23.2031385 C33.8956386,19.4758512 30.2680893,16.4534538 25.7944481,16.4534538 C21.3208069,16.4534538 17.6932576,19.4758512 17.6932576,23.2031385 C17.6932576,26.9315464 21.3208069,29.9539438 25.7944481,29.9539438 C26.7189857,29.9539438 27.6110244,29.8228275 28.4391859,29.5841287 L28.6767641,29.5482679 C28.8325346,29.5482679 28.9737367,29.5964559 29.1070943,29.6726602 L30.8810858,30.6969358 L31.0368563,30.7473651 C31.185903,30.7473651 31.3069334,30.6263347 31.3069334,30.4772881 L31.263228,30.2800534 L30.8978955,28.9184617 L30.8698793,28.7458813 C30.8698793,28.5643358 30.9595314,28.4040826 31.0962509,28.3065859 L31.0962509,28.3065859 Z M16.7216527,9 C11.3526108,9 7,12.6264286 7,17.1011905 C7,19.5419697 8.30892108,21.7395675 10.3585929,23.2244309 C10.5233287,23.3409786 10.6309112,23.5337307 10.6309112,23.7522578 L10.5972917,23.9584577 L10.1591169,25.5923677 L10.1064463,25.8288252 C10.1064463,26.0081295 10.252131,26.1538142 10.4303146,26.1538142 L10.618584,26.093299 L12.7467014,24.8639442 C12.905834,24.7720507 13.0750524,24.7148975 13.2622012,24.7148975 L13.5479673,24.7574823 C14.5408647,25.0432484 15.6122076,25.202381 16.7216527,25.202381 L17.2550829,25.1889331 C17.0444004,24.5568856 16.9289732,23.8912186 16.9289732,23.2042591 C16.9289732,19.1239666 20.8983212,15.8158031 25.7944481,15.8158031 L26.322275,15.8292509 C25.5904895,11.9596409 21.5707122,9 16.7216527,9 L16.7216527,9 Z M23.0936777,22.123951 C22.4974911,22.123951 22.0144902,21.6398295 22.0144902,21.0436428 C22.0144902,20.4463355 22.4974911,19.9633347 23.0936777,19.9633347 C23.6909851,19.9633347 24.1739859,20.4463355 24.1739859,21.0436428 C24.1739859,21.6398295 23.6909851,22.123951 23.0936777,22.123951 Z M28.4952185,22.123951 C27.8979112,22.123951 27.4149103,21.6398295 27.4149103,21.0436428 C27.4149103,20.4463355 27.8979112,19.9633347 28.4952185,19.9633347 C29.0914052,19.9633347 29.574406,20.4463355 29.574406,21.0436428 C29.574406,21.6398295 29.0914052,22.123951 28.4952185,22.123951 Z M13.4807283,15.8045966 C12.7646319,15.8045966 12.185255,15.224099 12.185255,14.5091233 C12.185255,13.7930269 12.7646319,13.2125294 13.4807283,13.2125294 C14.1968246,13.2125294 14.7773222,13.7930269 14.7773222,14.5091233 C14.7773222,15.224099 14.1968246,15.8045966 13.4807283,15.8045966 Z M19.9614565,15.8045966 C19.2453601,15.8045966 18.6659832,15.224099 18.6659832,14.5091233 C18.6659832,13.7930269 19.2453601,13.2125294 19.9614565,13.2125294 C20.6775529,13.2125294 21.2580504,13.7930269 21.2580504,14.5091233 C21.2580504,15.224099 20.6775529,15.8045966 19.9614565,15.8045966 Z"/></svg>