<svg width="39" height="39" viewBox="0 0 39 39" fill="none" xmlns="http://www.w3.org/2000/svg">
	<path fill-rule="evenodd" clip-rule="evenodd" d="M20.1178 17.152L25.3422 11.9791L24.6537 9.25218L28.4358 5.50732L29.4443 9.50184L29.4161 9.52975L29.4299 9.54343L29.4581 9.51551L33.4923 10.5141L29.7103 14.259L27.1177 13.6172L21.9226 18.7612C22.0116 19.0159 22.0599 19.2893 22.0599 19.5739C22.0599 20.9469 20.9358 22.0598 19.5492 22.0598C18.1626 22.0598 17.0386 20.9469 17.0386 19.5739C17.0386 18.201 18.1626 17.088 19.5492 17.088C19.7448 17.088 19.9351 17.1101 20.1178 17.152V17.152ZM22.6845 7.54687V9.77479C21.6953 9.46475 20.6419 9.29751 19.5491 9.29751C13.8172 9.29751 9.17049 13.8984 9.17049 19.574C9.17049 25.2495 13.8172 29.8504 19.5491 29.8504C25.2811 29.8504 29.9277 25.2495 29.9277 19.574C29.9277 18.4098 29.7322 17.2909 29.372 16.2476L31.2991 15.2218C31.811 16.5762 32.0909 18.0427 32.0909 19.574C32.0909 26.4324 26.4757 31.9923 19.5491 31.9923C12.6225 31.9923 7.00732 26.4324 7.00732 19.574C7.00732 12.7155 12.6225 7.15564 19.5491 7.15564C20.6318 7.15564 21.6824 7.29147 22.6845 7.54687V7.54687ZM21.8824 11.93L19.9051 13.8878C19.7872 13.8807 19.6684 13.8771 19.5488 13.8771C16.3713 13.8771 13.7954 16.4276 13.7954 19.5739C13.7954 22.7201 16.3713 25.2706 19.5488 25.2706C22.7263 25.2706 25.3022 22.7201 25.3022 19.5739C25.3022 19.5038 25.3009 19.4341 25.2984 19.3646L27.3031 17.3796C27.5039 18.0768 27.6115 18.8129 27.6115 19.5739C27.6115 23.9829 24.0017 27.5572 19.5488 27.5572C15.0959 27.5572 11.4861 23.9829 11.4861 19.5739C11.4861 15.1648 15.0959 11.5905 19.5488 11.5905C20.3602 11.5905 21.1437 11.7092 21.8824 11.93Z" fill="#fff"/>
</svg>