<svg xmlns="http://www.w3.org/2000/svg" viewBox="0 0 42 42"><path fill="#80868E" d="M30.561 22.282c.08-.507.123-1.025.123-1.554 0-5.498-4.457-9.955-9.956-9.955-.527 0-1.047.043-1.553.123a6.016 6.016 0 0 0-8.279 8.28 10.137 10.137 0 0 0-.122 1.552c0 5.499 4.457 9.954 9.954 9.954.528 0 1.048-.04 1.554-.12a6.016 6.016 0 0 0 8.28-8.28zm-5.106 2.974c-.421.606-1.04 1.08-1.848 1.42-.81.342-1.768.512-2.873.512-1.325 0-2.423-.232-3.289-.7a4.261 4.261 0 0 1-1.497-1.346c-.384-.561-.58-1.111-.58-1.647 0-.316.121-.591.356-.815.237-.226.543-.34.903-.34.296 0 .55.09.756.266.205.176.377.432.517.77.169.392.352.719.547.98.193.258.466.474.819.642.349.17.813.254 1.395.254.795 0 1.438-.172 1.93-.512.494-.342.732-.76.732-1.263 0-.401-.128-.72-.39-.969-.266-.252-.608-.444-1.033-.578a18.596 18.596 0 0 0-1.716-.43c-.963-.21-1.769-.454-2.42-.735-.654-.282-1.174-.668-1.56-1.155-.386-.492-.579-1.103-.579-1.827 0-.69.203-1.308.61-1.845.408-.54.996-.952 1.764-1.239.765-.287 1.666-.43 2.698-.43.825 0 1.539.095 2.143.285.602.191 1.105.444 1.506.76.4.317.693.65.879 1 .186.351.28.694.28 1.028 0 .311-.121.594-.356.84a1.175 1.175 0 0 1-.887.373c-.316 0-.564-.073-.736-.227-.168-.15-.344-.388-.534-.72-.241-.462-.53-.822-.865-1.08-.326-.253-.865-.385-1.614-.384-.693 0-1.248.142-1.667.42-.42.28-.622.607-.623.99 0 .24.07.442.208.615.141.174.337.326.589.453.252.13.508.23.766.302.26.074.693.18 1.294.322.754.162 1.438.344 2.052.542.614.199 1.137.438 1.57.724.435.285.776.648 1.019 1.087.245.439.367.976.367 1.607 0 .76-.211 1.444-.633 2.05z"/></svg>