<svg width="42" height="42" viewBox="0 0 42 42" fill="none" xmlns="http://www.w3.org/2000/svg">
    <path fill-rule="evenodd" clip-rule="evenodd" d="M27.7949 18.8179C28.1966 19.2196 27.9121 19.9062 27.3441 19.9063L22.3082 19.9062C21.9561 19.9063 21.6706 19.6208 21.6707 19.2687L21.6706 14.2328C21.6707 13.6648 22.3573 13.3804 22.759 13.7821L24.3754 15.3984L28.5871 11.1867C28.836 10.9378 29.2397 10.9378 29.4886 11.1867L30.3902 12.0883C30.6391 12.3372 30.6391 12.7409 30.3902 12.9898L26.1785 17.2015L27.7949 18.8179ZM28.6795 25.7682L26.1845 23.8988C25.2985 23.233 23.9833 23.5536 23.3365 24.4674L22.5969 25.5159C22.4377 25.7331 22.1099 25.8012 21.8816 25.6694C19.5927 24.1763 17.6357 22.0927 16.2811 19.715C16.1519 19.4689 16.219 19.1476 16.4597 18.9943L17.5071 18.2951C18.4447 17.6693 18.8308 16.393 18.2196 15.4562L16.4746 12.9042C15.9458 12.1182 14.839 12.0115 14.1442 12.6568C11.5357 15.1496 10.3977 19.4801 16.1196 25.5294C21.8414 31.5788 26.1878 30.6111 28.7963 28.1183C29.4919 27.4727 29.4334 26.3409 28.6795 25.7682Z" fill="#fff"/>
</svg>
