<svg xmlns="http://www.w3.org/2000/svg" viewBox="0 0 42 42"><path fill="#FFF" d="M25.183 20.983c-.845 0-1.521.694-1.521 1.561 0 .868.676 1.562 1.521 1.562.845 0 1.521-.694 1.521-1.562 0-.867-.76-1.561-1.52-1.561zm-4.14 0c-.846 0-1.522.694-1.522 1.561 0 .868.676 1.562 1.521 1.562.845 0 1.521-.694 1.521-1.562 0-.867-.676-1.561-1.52-1.561zm-4.057 0c-.845 0-1.521.694-1.521 1.561 0 .868.676 1.562 1.52 1.562.846 0 1.522-.694 1.522-1.562 0-.867-.676-1.561-1.521-1.561zM29.83 13H12.169c-.084 0-.169.087-.169.174V28.79c0 .087.085.174.169.174h17.662c.084 0 .169-.087.169-.174V13.174c0-.087-.085-.174-.169-.174zm-2.535 1.649c0-.174.084-.26.253-.26h.845c.17 0 .254.086.254.26v.867c0 .174-.085.26-.254.26h-.845c-.169 0-.253-.086-.253-.26v-.867zm-2.197 0c0-.174.084-.26.253-.26h.845c.17 0 .254.086.254.26v.867c0 .174-.085.26-.254.26h-.845c-.169 0-.253-.086-.253-.26v-.867zm-11.662 0c0-.174.084-.26.253-.26h8.535c.17 0 .254.086.254.26v.867c0 .174-.085.26-.254.26H13.69c-.169 0-.253-.086-.253-.26v-.867zm15.55 13.101c0 .174-.085.26-.254.26H13.183c-.169 0-.253-.086-.253-.26V17.685c0-.173.084-.26.253-.26h15.55c.168 0 .253.087.253.26V27.75z"/></svg>