<svg xmlns="http://www.w3.org/2000/svg" width="40" height="40" viewBox="-5 -5 50 50"><path fill="#FFFFFF" d="M6,33.6692502 L7.9357003,26.7942754 C6.69093133,24.6795989 6.03555244,22.2735659 6.03555244,19.8018908 C6.03555244,12.1915008 12.2270533,6 19.8374433,6 C27.4478333,6 33.6392474,12.1915008 33.6392474,19.8018908 C33.6392474,27.4122809 27.4478333,33.6037817 19.8374433,33.6037817 C17.4660955,33.6037817 15.1440876,32.9967888 13.089937,31.844196 L6,33.6692502 Z M13.4523985,29.3332399 L13.8748655,29.5912119 C15.6658414,30.6845795 17.7277095,31.2625234 19.8374433,31.2625234 C26.1568462,31.2625234 31.2979892,26.1212937 31.2979892,19.8018908 C31.2979892,13.482488 26.1568462,8.34125826 19.8374433,8.34125826 C13.5180404,8.34125826 8.3768107,13.482488 8.3768107,19.8018908 C8.3768107,22.0038009 9.00262036,24.1420634 10.1864299,25.9855008 L10.4709361,26.4285188 L9.35623707,30.3876733 L13.4523985,29.3332399 Z"/><path fill="#FFFFFF" d="M16.0558808,13.4906124 L15.1603062,13.4417928 C14.8790083,13.4264446 14.6030867,13.5204418 14.3904658,13.705141 C13.9562925,14.0821703 13.262066,14.8110821 13.0488381,15.7609392 C12.7308605,17.177227 13.2222646,18.9114924 14.4940881,20.6457578 C15.7659117,22.3800232 18.1360454,25.1548478 22.3271579,26.339958 C23.677717,26.7218432 24.740128,26.4643915 25.5598285,25.9400364 C26.2090508,25.5247666 26.6565779,24.8582017 26.8178646,24.1046634 L26.9608548,23.4367978 C27.0062926,23.2245237 26.898508,23.0091279 26.701322,22.9182524 L23.6745953,21.5231226 C23.4781031,21.432594 23.2451045,21.4898247 23.1129535,21.6610834 L21.9247216,23.2014579 C21.8349733,23.3178272 21.6813174,23.3639586 21.5425762,23.3152258 C20.7288589,23.0292454 18.003114,21.8876652 16.5074835,19.0067036 C16.442622,18.8817497 16.4587507,18.7300882 16.5507535,18.6235176 L17.6863504,17.3098116 C17.8023728,17.1756662 17.8316819,16.9870648 17.7619644,16.8240439 L16.4572766,13.7716501 C16.3878192,13.6091494 16.2321689,13.5002376 16.0558808,13.4906124 Z"/></svg>