<svg width="42" height="42" viewBox="-12 -13 42 42" fill="none" xmlns="http://www.w3.org/2000/svg"><path fill-rule="evenodd" clip-rule="evenodd" d="M17.831 0H.169C.085 0 0 .087 0 .174V15.79c0 .087.085.174.169.174h17.662c.085 0 .169-.087.169-.174V.174C18 .087 17.916 0 17.831 0zm-2.536 1.649c0-.174.084-.26.253-.26h.845c.17 0 .254.086.254.26v.867c0 .174-.084.26-.253.26h-.846c-.169 0-.253-.086-.253-.26V1.65zm-2.197 0c0-.174.084-.26.253-.26h.845c.17 0 .254.086.254.26v.867c0 .174-.085.26-.254.26h-.845c-.169 0-.253-.086-.253-.26V1.65zm-11.66 0c0-.174.084-.26.253-.26h8.535c.17 0 .254.086.254.26v.867c0 .174-.085.26-.254.26H1.691c-.169 0-.254-.086-.254-.26V1.65zM16.733 15.01H1.183c-.169 0-.253-.086-.253-.26V4.685c0-.173.084-.26.253-.26h15.55c.168 0 .253.087.253.26V14.75c0 .174-.085.26-.253.26z" fill="#80868E"/><path d="M8.852 13H4.36v-.945l1.613-1.63c.478-.49.79-.828.936-1.015.147-.19.252-.367.317-.528.064-.16.096-.328.096-.5 0-.258-.072-.45-.215-.576-.14-.126-.33-.19-.567-.19-.249 0-.49.058-.725.172a3.742 3.742 0 0 0-.734.488L4.343 7.4c.316-.27.578-.46.786-.57a2.82 2.82 0 0 1 .682-.256 3.41 3.41 0 0 1 .826-.092c.401 0 .756.073 1.063.22.308.146.547.351.716.615.17.264.255.565.255.905 0 .296-.052.574-.158.835a3.128 3.128 0 0 1-.483.796c-.217.272-.6.66-1.152 1.164l-.826.778v.061h2.8V13zm5.079-1.332h-.774V13H11.83v-1.332H9.088v-.944l2.817-4.149h1.252v4.039h.774v1.054zm-2.101-1.054v-1.09c0-.182.007-.445.022-.791.014-.346.026-.546.035-.602h-.035c-.109.24-.239.474-.391.703l-1.178 1.78h1.547z" fill="#80868E"/></svg>