<svg xmlns="http://www.w3.org/2000/svg" width="42" height="42" viewBox="-8 -8 42 42"><path fill="#80868E" fill-rule="evenodd" d="M20.9139966,18.0978669 L24.9455282,22.1293985 L20.8862905,26.1886363 L20.8962713,23.3349135 L4.19925741,23.3353569 L4.19925741,20.9511463 L20.9032713,20.9509135 L20.9139966,18.0978669 Z M9.88328504,14.965947 C11.0462104,14.965947 11.9884703,15.9081792 11.9884703,17.0711323 C11.9884703,18.2329776 11.0462381,19.1752374 9.88328504,19.1752374 C8.7214397,19.1752374 7.77917988,18.2330053 7.77917988,17.0711323 C7.77917988,15.9082069 8.721412,14.965947 9.88328504,14.965947 Z M17.3055473,14.965947 C18.4684727,14.965947 19.4107326,15.9081792 19.4107326,17.0711323 C19.4107326,18.2329776 18.4685004,19.1752374 17.3055473,19.1752374 C16.143702,19.1752374 15.2014422,18.2330053 15.2014422,17.0711323 C15.2014422,15.9082069 16.1436743,14.965947 17.3055473,14.965947 Z M4.65342783,0.509913536 C4.99808489,0.511857653 5.30067724,0.724977747 5.42320561,1.03888087 L5.45719007,1.14709652 L6.06623597,3.77802416 L21.3212596,3.74977631 C21.5754903,3.75085637 21.8145724,3.86876347 21.970351,4.06781392 C22.104802,4.23936623 22.1653387,4.45461895 22.1431032,4.66794223 L22.1250468,4.77423184 L20.573741,13.387612 C20.4939076,13.722541 20.2169183,13.9689636 19.8839339,14.016476 L19.7710589,14.024795 L7.47810252,14.024795 C7.13441752,14.0228509 6.83104528,13.8097308 6.70914059,13.4958277 L6.67542035,13.387612 L3.9893263,2.17155205 L1.60709055,2.17155205 C1.14824175,2.17155205 0.776271298,1.7995816 0.776271298,1.34073279 C0.776271298,0.91718005 1.09321653,0.567653833 1.50287435,0.516386798 L1.60709055,0.509913536 L4.65342783,0.509913536 Z"/></svg>
