<svg xmlns="http://www.w3.org/2000/svg" width="42" height="42" viewBox="2 2 42 42">
  <g fill="none" fill-rule="evenodd" transform="translate(1 1)">
    <g fill="#FFFFFF" transform="translate(12 11)">
      <path fill-rule="nonzero" d="M22.1153229,21.389619 C22.0969224,21.3521936 22.0797689,21.3211496 22.0638347,21.2962777 C21.8001865,20.8481401 21.2963618,20.2980828 20.5526655,19.6459491 L20.536953,19.6310155 L20.5290829,19.6236926 L20.5211297,19.6161866 L20.5131487,19.6161866 C20.1756214,19.31252 19.9618817,19.1083408 19.8723733,19.0038059 C19.7085977,18.8046743 19.6719075,18.6031104 19.761416,18.3988789 C19.8246539,18.2445742 20.0621978,17.9187034 20.4734934,17.4208221 C20.6898379,17.156961 20.8611788,16.945485 20.98771,16.7861588 C21.9002808,15.6411651 22.2959194,14.909499 22.1745426,14.5908728 L22.1274052,14.5164142 C22.0957308,14.4715874 22.0139816,14.4305789 21.8822683,14.3931796 C21.7502502,14.3558588 21.5815142,14.3496866 21.3757556,14.3745584 L19.0971965,14.3894135 C19.0602847,14.3770692 19.0075772,14.3782199 18.9389078,14.3931796 C18.8703216,14.4081393 18.8360146,14.4156453 18.8360146,14.4156453 L18.7963593,14.434345 L18.7648789,14.4568107 C18.7384975,14.4716658 18.7094834,14.497793 18.6778091,14.53514 C18.646301,14.5723562 18.6199473,14.6160323 18.5988864,14.6658021 C18.3508121,15.2681399 18.0687634,15.8281616 17.7522138,16.345841 C17.5570409,16.654529 17.3778023,16.9220516 17.2141098,17.1485657 C17.050639,17.3750014 16.9134943,17.5418337 16.8028141,17.6487747 C16.6919677,17.7558204 16.5919288,17.8415772 16.5020878,17.906359 C16.4123853,17.971167 16.34391,17.9985496 16.2964954,17.9885329 C16.24897,17.9785161 16.2042158,17.9685779 16.1618447,17.9586396 C16.0880487,17.9138127 16.0286905,17.8528493 15.9839362,17.7756969 C15.938988,17.6985445 15.9087269,17.6014371 15.8929036,17.4844532 C15.8771634,17.3673908 15.8678523,17.2667004 15.865192,17.182042 C15.8627256,17.0974883 15.8638618,16.977889 15.8692102,16.8235842 C15.8746971,16.669201 15.8771634,16.5647445 15.8771634,16.5099794 C15.8771634,16.3207861 15.8810707,16.1154561 15.8889131,15.8939373 C15.8968941,15.6724184 15.9033509,15.4969033 15.9087546,15.3676011 C15.9141307,15.2381682 15.9166247,15.1012292 15.9166247,14.9568628 C15.9166247,14.8124963 15.9073136,14.6992784 15.8889131,14.6171046 C15.8707343,14.5350354 15.8428287,14.4553723 15.8060554,14.3781414 C15.7690604,14.3009891 15.7149119,14.2413071 15.6438594,14.1989387 C15.5726683,14.1566226 15.4841574,14.1230417 15.3788256,14.0980914 C15.0992432,14.0383833 14.7432322,14.0060839 14.3106263,14.0010624 C13.3296078,13.9911242 12.6992519,14.0509107 12.4196972,14.1803437 C12.3089339,14.2350303 12.2087011,14.3097504 12.1190817,14.4042686 C12.0241141,14.513825 12.0108679,14.5736116 12.0794264,14.5834452 C12.3959484,14.6281936 12.6200244,14.7352393 12.751904,14.9044776 L12.7994294,14.9941574 C12.8363966,15.0588608 12.8733085,15.1734125 12.9102481,15.3376555 C12.9471322,15.5018986 12.9709365,15.6835859 12.9814115,15.8826129 C13.0077375,16.246066 13.0077375,16.5571862 12.9814115,16.8159998 C12.9550023,17.0749179 12.9300619,17.2764818 12.9062576,17.4208483 C12.8824533,17.5652148 12.8468716,17.6821987 12.7994294,17.7717739 C12.751904,17.8613753 12.720285,17.9161404 12.704434,17.9360169 C12.6886107,17.9558935 12.6754199,17.9684209 12.6649449,17.9733378 C12.5963864,17.9981311 12.5250845,18.0107632 12.4512885,18.0107632 C12.3773816,18.0107632 12.2877623,17.9758746 12.1822919,17.9061498 C12.0768492,17.836425 11.9674161,17.7406514 11.8539925,17.6186722 C11.7405689,17.4966668 11.6126521,17.3261731 11.4701868,17.107165 C11.3278323,16.8881568 11.1801294,16.6293171 11.0271613,16.3306459 L10.9006024,16.1140439 C10.8214858,15.9746988 10.7134106,15.7718011 10.5762658,15.5055339 C10.4390379,15.239162 10.3177442,14.9814992 10.2123016,14.7325978 C10.1701522,14.6280628 10.1068312,14.5484782 10.0224494,14.4937131 L9.9828495,14.4712474 C9.95652347,14.4513708 9.91426327,14.4302651 9.85629059,14.4077732 C9.79823478,14.3853075 9.73765721,14.369197 9.67430848,14.3592849 L7.5064573,14.37414 C7.28493073,14.37414 7.13462298,14.4215037 7.05547863,14.5161004 L7.02380427,14.5608487 C7.00798094,14.5857729 7,14.6255783 7,14.6803695 C7,14.7351347 7.01582333,14.8023488 7.04749769,14.8819334 C7.36396423,15.5838893 7.70811465,16.2608688 8.07994898,16.9129764 C8.4517833,17.565084 8.77490062,18.090374 9.04910695,18.4883757 C9.32336871,18.886665 9.60292339,19.2625671 9.88777098,19.6158989 C10.1726186,19.9693614 10.3611683,20.1958756 10.4534203,20.295389 C10.545783,20.3950856 10.618332,20.4696227 10.6710672,20.5193925 L10.8689004,20.6985691 C10.995487,20.8180637 11.1813764,20.9611749 11.4266519,21.1279025 C11.6719827,21.2947347 11.9435841,21.4589777 12.2415947,21.6208931 C12.5396608,21.782547 12.8864161,21.9144645 13.2820547,22.0164887 C13.6776378,22.1186175 14.0626629,22.1595998 14.4371852,22.1398279 L15.3470681,22.1398279 C15.5315997,22.1247897 15.6714047,22.0700246 15.7664278,21.9755064 L15.7979082,21.9380809 C15.8190799,21.9083707 15.8388937,21.8622101 15.8571833,21.8000959 C15.8756947,21.737877 15.8848949,21.6693291 15.8848949,21.5947659 C15.8794912,21.380753 15.8967555,21.1878721 15.9362168,21.0161492 C15.9756504,20.8444786 16.0205987,20.7150457 16.0708675,20.6278766 C16.1211087,20.5407859 16.1778066,20.467295 16.2409059,20.4077177 C16.3041438,20.3480096 16.3492029,20.3118395 16.3756398,20.2993905 C16.4019104,20.2868631 16.422888,20.2783632 16.4387114,20.2732633 C16.565298,20.2334579 16.7142756,20.272008 16.8858658,20.3890965 C17.0573175,20.5060804 17.218128,20.6505254 17.3685466,20.822196 C17.518882,20.9940235 17.6995063,21.1867998 17.910447,21.4008127 C18.1215263,21.614904 18.3060856,21.7740471 18.4642635,21.878739 L18.6224413,21.9683404 C18.7280779,22.0281269 18.8652227,22.082892 19.0340418,22.1326618 C19.202556,22.1824055 19.3502035,22.1948545 19.4769841,22.1699827 L21.5023422,22.1401679 C21.7026694,22.1401679 21.8585472,22.1088623 21.9691165,22.0467481 C22.0799075,21.9845293 22.1457225,21.9159813 22.1669496,21.8414181 C22.1881213,21.7667765 22.1892575,21.6820919 22.1709678,21.5874168 C22.152207,21.4929771 22.1337234,21.4269399 22.1153229,21.389619 Z"/>
      <path d="M12.9060678,4.07899026 C12.9060678,4.62127127 12.4481946,5.06417011 11.8875791,5.06417011 L3.70691153,5.06417011 C3.14704058,5.06417011 2.68842288,4.62127127 2.68842288,4.07899026 L2.68842288,4.02857901 C2.68842288,3.48629799 3.14704058,3.04339916 3.70691153,3.04339916 L11.8875791,3.04339916 C12.4481946,3.04339916 12.9060678,3.48629799 12.9060678,4.02857901 L12.9060678,4.07899026 Z M11.1281797,8.47197059 C11.1281797,9.0142516 10.6703065,9.45715044 10.1104355,9.45715044 L3.70691153,9.45715044 C3.14704058,9.45715044 2.68767837,9.0142516 2.68767837,8.47197059 L2.68767837,8.42083918 C2.68767837,7.87855816 3.14704058,7.43565933 3.70691153,7.43565933 L10.1104355,7.43565933 C10.6703065,7.43565933 11.1281797,7.87855816 11.1281797,8.42083918 L11.1281797,8.47197059 Z M18,12 L7,12 C5.8954305,12 5,12.8954305 5,14 L5,16.5 L6.5,19 L1.11378583,19 C0.501054721,19 0,18.5153318 0,17.9226396 L0,1.07736042 C0,0.484668158 0.501054721,0 1.11378583,0 L16.8862142,0 C17.4989453,0 18,0.484668158 18,1.07736042 L18,12 Z"/>
    </g>
  </g>
</svg>
