<svg width="76" height="76" viewBox="0 0 76 76" fill="none" xmlns="http://www.w3.org/2000/svg">
	<path fill-rule="evenodd" clip-rule="evenodd" d="M52.7095 36.366L46.1705 42.9029C42.5615 46.514 36.7067 46.514 33.0971 42.9029C32.5285 42.3359 32.0837 41.6971 31.6931 41.0382L34.7314 38.0002C34.8758 37.8545 35.0542 37.7711 35.2246 37.6727C35.4346 38.3904 35.8013 39.0698 36.3657 39.6343C38.1681 41.4381 41.1009 41.4356 42.9022 39.6343L49.4392 33.0975C51.243 31.2939 51.243 28.3618 49.4392 26.5596C47.6378 24.7574 44.7057 24.7574 42.9022 26.5596L40.5777 28.8866C38.6913 28.1521 36.659 27.9547 34.6805 28.2446L39.634 23.2913C43.2451 19.6809 49.0984 19.6809 52.7095 23.2913C56.3189 26.9016 56.3189 32.7558 52.7095 36.366ZM35.4232 47.1148L33.097 49.4419C31.2948 51.2432 28.3618 51.2432 26.5592 49.4419C24.7569 47.6381 24.7569 44.7059 26.5592 42.9029L33.097 36.366C34.9007 34.5626 37.8317 34.5626 39.6339 36.366C40.197 36.9292 40.564 37.6085 40.7761 38.3252C40.9475 38.2256 41.1236 38.1447 41.268 38.0001L44.3061 34.9632C43.918 34.3018 43.4709 33.6653 42.9021 33.0977C39.2933 29.4872 33.4381 29.4872 29.8276 33.0977L23.2908 39.6346C19.6807 43.2462 19.6807 49.0986 23.2908 52.7098C26.9013 56.3192 32.7552 56.3192 36.3656 52.7098L41.3203 47.7555C39.3408 48.0471 37.308 47.848 35.4232 47.1148Z" fill="#9EA3AA"/>
</svg>