<svg xmlns="http://www.w3.org/2000/svg" viewBox="0 0 42 42"><path fill="#FFF" d="M27.959 20.957l1.863-1.653c.31-.304.532-.652.532-1.087 0-.565-.399-1.087-1.02-1.087-.4 0-.71.218-1.02.566l-2.928 2.913v-5.392A1.19 1.19 0 0 0 24.19 14c-.665 0-1.198.565-1.198 1.217v9.522a1.19 1.19 0 0 0 1.198 1.218c.665 0 1.197-.566 1.197-1.218v-1.391l.932-.87 2.04 2.957c.266.391.577.565 1.02.565.577 0 1.11-.435 1.11-1.13 0-.261-.09-.522-.311-.783l-2.218-3.13zm-7.968-3.653c-.665 0-1.197.566-1.197 1.218v6.217a1.19 1.19 0 0 0 1.197 1.218c.666 0 1.198-.566 1.198-1.218v-6.217c-.045-.696-.577-1.218-1.198-1.218zm-5.023 3.653l1.863-1.653c.31-.304.532-.652.532-1.087 0-.565-.4-1.087-1.02-1.087-.4 0-.71.218-1.02.566l-2.928 2.913v-5.392A1.19 1.19 0 0 0 11.198 14c-.666 0-1.198.565-1.198 1.217v9.522a1.19 1.19 0 0 0 1.198 1.218c.665 0 1.197-.566 1.197-1.218v-1.391l.932-.87 2.04 2.957c.266.391.577.565 1.02.565.577 0 1.11-.435 1.11-1.13 0-.261-.09-.522-.311-.783l-2.218-3.13zm16.701-.653c-.754 0-1.33.566-1.33 1.305s.576 1.304 1.33 1.304c.754 0 1.331-.565 1.331-1.304 0-.74-.577-1.305-1.33-1.305z"/></svg>