<svg xmlns="http://www.w3.org/2000/svg" width="42" height="42" viewBox="-10 -12 42 42"><path fill="#fff" fill-rule="evenodd" d="M578.5,364 C579.328427,364 580,364.671573 580,365.5 L580,379.5 C580,380.328427 579.328427,381 578.5,381 L559.5,381 C558.671573,381 558,380.328427 558,379.5 L558,365.5 C558,364.671573 558.671573,364 559.5,364 L578.5,364 Z M576.5,366 L561.5,366 C560.720304,366 560.079551,366.594888 560.006867,367.35554 L560,367.5 L560,377.5 C560,378.279696 560.594888,378.920449 561.35554,378.993133 L561.5,379 L576.5,379 C577.279696,379 577.920449,378.405112 577.993133,377.64446 L578,377.5 L578,367.5 C578,366.671573 577.328427,366 576.5,366 Z M575,368.968262 C575.552285,368.968262 576,369.415977 576,369.968262 L576,376 C576,376.552285 575.552285,377 575,377 L567,377 C566.447715,377 566,376.552285 566,376 L566,369.968262 C566,369.415977 566.447715,368.968262 567,368.968262 L575,368.968262 Z M571.739923,373.251338 L568.802041,373.251338 C568.289205,373.251338 567.866534,373.637378 567.808769,374.134717 L567.802041,374.251338 L567.802041,374.282266 C567.802041,374.795101 568.188082,375.217773 568.68542,375.275538 L568.802041,375.282266 L571.739923,375.282266 C572.252759,375.282266 572.67543,374.896225 572.733196,374.398887 L572.739923,374.282266 L572.739923,374.251338 C572.739923,373.699053 572.292208,373.251338 571.739923,373.251338 Z M571.739923,370.2635 L568.802041,370.2635 C568.289205,370.2635 567.866534,370.649541 567.808769,371.146879 L567.802041,371.2635 L567.802041,371.294428 C567.802041,371.807264 568.188082,372.229935 568.68542,372.2877 L568.802041,372.294428 L571.739923,372.294428 C572.252759,372.294428 572.67543,371.908388 572.733196,371.411049 L572.739923,371.294428 L572.739923,371.2635 C572.739923,370.711216 572.292208,370.2635 571.739923,370.2635 Z" transform="translate(-558 -364)"/></svg>
