<?xml version="1.0" encoding="UTF-8"?>
<svg width="44px" height="44px" viewBox="0 0 44 44" version="1.1" xmlns="http://www.w3.org/2000/svg" xmlns:xlink="http://www.w3.org/1999/xlink"><g id="Group-3" transform="translate(1, 1)"><path d="M20.9581384,11.5509713 C22.3406381,11.5509713 23.466354,12.6758916 23.466354,14.0594024 C23.466354,15.4411287 22.3406381,16.5663465 20.9581384,16.5663465 C19.5753412,16.5663465 18.4496254,15.4411287 18.4496254,14.0594024 C18.4496254,12.6758916 19.5753412,11.5509713 20.9581384,11.5509713 M20.9581384,20.1153846 C24.2987086,20.1153846 27.0153846,17.3993674 27.0153846,14.0594024 C27.0153846,10.7176529 24.2987086,8 20.9581384,8 C17.6172707,8 14.9,10.7176529 14.9,14.0594024 C14.9,17.3993674 17.6172707,20.1153846 20.9581384,20.1153846" fill="#80868E" fill-rule="nonzero"/><path d="M23.4188521,25.4501792 C24.6742432,25.1621461 25.8866321,24.6622388 27.0009033,23.9574639 C27.8459567,23.4228281 28.1001844,22.3005499 27.5678053,21.4512254 C27.0364861,20.6002253 25.9214578,20.3443313 25.076253,20.8800333 C22.5491179,22.4781526 19.2956397,22.4772387 16.7701702,20.8800333 C15.9249654,20.3443313 14.80918,20.6002253 14.2783151,21.4512254 C13.7460874,22.3011592 14.0001636,23.4228281 14.8444599,23.9574639 C15.9594883,24.6622388 17.1711201,25.1621461 18.4266626,25.4501792 L14.9783118,28.9196761 C14.2727127,29.6294775 14.2727127,30.7802391 14.9790689,31.4900404 C15.3323227,31.8452458 15.7936876,32.0220869 16.255961,32.0220869 C16.7189915,32.0220869 17.1818706,31.8452458 17.5342159,31.4900404 L20.9224545,28.0811661 L24.3135699,31.4900404 C25.0176549,32.2007558 26.1623608,32.2007558 26.8670514,31.4900404 C27.5744676,30.7802391 27.5744676,29.6285636 26.8670514,28.9196761 L23.4188521,25.4501792 Z" fill="#80868E" fill-rule="nonzero"/>
</g></svg>