<svg width="44" height="44" viewBox="0 0 44 44" fill="none" xmlns="http://www.w3.org/2000/svg">
    <path d="M23.4881 28.4662C23.4881 29.0888 23.8497 29.6408 24.2454 30.1214C24.6592 30.624 24.9077 31.2677 24.9077 31.9695C24.9077 33.5761 23.6052 34.8786 21.9986 34.8786C20.3919 34.8786 19.0894 33.5761 19.0894 31.9695C19.0894 31.2677 19.3379 30.624 19.7517 30.1214C20.1475 29.6408 20.5091 29.0888 20.5091 28.4662V27.6432C20.9846 27.7684 21.4838 27.8351 21.9986 27.8351C22.5134 27.8351 23.0126 27.7684 23.4881 27.6432V28.4662Z" fill="white"/>
    <path d="M24.9352 27.0433C25.8061 26.5351 26.5335 25.8077 27.0417 24.9369L27.624 25.5191C28.0642 25.9594 28.7102 26.094 29.33 26.154C29.9779 26.2167 30.6088 26.4962 31.105 26.9925C32.2411 28.1285 32.2411 29.9705 31.105 31.1066C29.9689 32.2427 28.1269 32.2427 26.9909 31.1066C26.4946 30.6104 26.2152 29.9795 26.1524 29.3316C26.0924 28.7118 25.9577 28.0658 25.5175 27.6256L24.9352 27.0433Z" fill="white"/>
    <path d="M27.6416 23.4897C27.7668 23.0142 27.8335 22.515 27.8335 22.0002C27.8335 21.4854 27.7668 20.9862 27.6416 20.5107H28.4646C29.0872 20.5107 29.6392 20.1491 30.1198 19.7533C30.6223 19.3395 31.2661 19.091 31.9679 19.091C33.5745 19.091 34.877 20.3935 34.877 22.0002C34.877 23.6069 33.5745 24.9093 31.9679 24.9093C31.2661 24.9093 30.6223 24.6608 30.1198 24.247C29.6392 23.8513 29.0872 23.4897 28.4646 23.4897H27.6416Z" fill="white"/>
    <path d="M27.0417 19.0635C26.5335 18.1926 25.8061 17.4653 24.9353 16.9571L25.5175 16.3748C25.9577 15.9346 26.0924 15.2885 26.1524 14.6688C26.2152 14.0209 26.4946 13.39 26.9909 12.8937C28.1269 11.7576 29.9689 11.7576 31.105 12.8937C32.2411 14.0298 32.2411 15.8718 31.105 17.0079C30.6088 17.5041 29.9779 17.7836 29.33 17.8464C28.7102 17.9064 28.0642 18.041 27.624 18.4813L27.0417 19.0635Z" fill="white"/>
    <path d="M23.4881 16.3571C23.0126 16.2319 22.5134 16.1653 21.9986 16.1653C21.4838 16.1653 20.9846 16.2319 20.5091 16.3571V15.5342C20.5091 14.9116 20.1475 14.3595 19.7517 13.8789C19.3379 13.3764 19.0894 12.7327 19.0894 12.0309C19.0894 10.4242 20.3919 9.12173 21.9986 9.12173C23.6052 9.12173 24.9077 10.4242 24.9077 12.0309C24.9077 12.7327 24.6592 13.3764 24.2454 13.8789C23.8497 14.3595 23.4881 14.9116 23.4881 15.5342V16.3571Z" fill="white"/>
    <path d="M19.0619 16.9571C18.191 17.4653 17.4637 18.1926 16.9554 19.0635L16.3732 18.4812C15.9329 18.041 15.2869 17.9063 14.6672 17.8464C14.0193 17.7836 13.3884 17.5041 12.8922 17.0079C11.756 15.8718 11.756 14.0298 12.8922 12.8937C14.0282 11.7576 15.8702 11.7576 17.0063 12.8937C17.5025 13.39 17.782 14.0209 17.8448 14.6688C17.9048 15.2885 18.0394 15.9346 18.4796 16.3748L19.0619 16.9571Z" fill="white"/>
    <path d="M16.3555 20.5107C16.2303 20.9862 16.1637 21.4854 16.1637 22.0002C16.1637 22.515 16.2303 23.0142 16.3555 23.4897H15.5325C14.91 23.4897 14.3579 23.8513 13.8773 24.247C13.3748 24.6608 12.7311 24.9093 12.0293 24.9093C10.4226 24.9093 9.12012 23.6069 9.12012 22.0002C9.12012 20.3935 10.4226 19.091 12.0293 19.091C12.7311 19.091 13.3748 19.3395 13.8773 19.7533C14.3579 20.1491 14.91 20.5107 15.5325 20.5107H16.3555Z" fill="white"/>
    <path d="M16.9555 24.9369L16.3732 25.5191C15.9329 25.9594 15.2869 26.094 14.6672 26.154C14.0193 26.2167 13.3884 26.4962 12.8922 26.9925C11.756 28.1285 11.756 29.9705 12.8922 31.1066C14.0282 32.2427 15.8702 32.2427 17.0063 31.1066C17.5025 30.6104 17.782 29.9795 17.8448 29.3316C17.9047 28.7119 18.0394 28.0658 18.4796 27.6256L19.0619 27.0433C18.191 26.5351 17.4637 25.8077 16.9555 24.9369Z" fill="white"/>
    <path d="M27.2396 22.0002C27.2396 19.1056 24.8931 16.7592 21.9986 16.7592C19.104 16.7592 16.7576 19.1056 16.7576 22.0002C16.7576 24.8947 19.104 27.2412 21.9986 27.2412C24.8931 27.2412 27.2396 24.8947 27.2396 22.0002Z" fill="white"/>
</svg>
