<svg width="42" height="42" xmlns="http://www.w3.org/2000/svg">
    <path d="m29.530106,20.340792l-0.033928,0c-0.338306,3.514893 -3.266737,7.330288 -6.832037,7.330288l0,2.665735l0.24234,0c0.244156,-0.009314 0.473859,0.115632 0.598705,0.325661c0.124846,0.21003 0.124846,0.471516 0,0.681545c-0.124846,0.21003 -0.354549,0.334975 -0.598705,0.325662l-3.231841,0c-0.244156,0.009313 -0.473859,-0.115632 -0.598705,-0.325662c-0.124846,-0.210029 -0.124846,-0.471515 0,-0.681545c0.124846,-0.210029 0.354549,-0.334975 0.598705,-0.325661l0.24234,0l0,-2.665735c-3.5653,0 -6.494701,-3.815395 -6.832038,-7.330288l-0.033927,0l0,-0.666918l0,0l0,-1.392968c0.019773,-0.744134 0.6287,-1.337095 1.373096,-1.337095c0.744396,0 1.353323,0.592961 1.373096,1.337095l0,1.392968c0.096468,2.964338 2.527445,5.317491 5.493353,5.317491c2.965909,0 5.396886,-2.353153 5.493354,-5.317491l0,-1.392968c0.019773,-0.744134 0.6287,-1.337095 1.373096,-1.337095c0.744396,0 1.353322,0.592961 1.373096,1.337095l0,2.059886l0,0zm-11.673013,-1.332868l0,-6.829569c0.062224,-1.851358 1.581064,-3.320008 3.433467,-3.320008c1.852403,0 3.371243,1.46865 3.433467,3.320008l0,6.829569c-0.028694,1.867892 -1.565558,3.359197 -3.433467,3.331685c-1.867909,0.027512 -3.404773,-1.463793 -3.433467,-3.331685z" clip-rule="evenodd" fill="#fff" fill-rule="evenodd"/>
</svg>