<svg xmlns="http://www.w3.org/2000/svg" width="42" height="42" viewBox="-9 -11 42 42"><path fill="#fff" fill-rule="evenodd" d="M48.8258786,547.134585 C52.6490847,547.134585 55.7484056,550.233906 55.7484056,554.057112 C55.7484056,557.880318 52.6490847,560.979639 48.8258786,560.979639 C45.0026725,560.979639 41.9033516,557.880318 41.9033516,554.057112 C41.9033516,550.233906 45.0026725,547.134585 48.8258786,547.134585 Z M50.0906733,550.706544 L47.8022791,550.706544 L47.8020662,553.027544 L45.4810662,553.027757 L45.4810662,555.316151 L47.8020662,555.315544 L47.8022791,557.637364 L50.0906733,557.637364 L50.0900662,555.315544 L52.4118862,555.316151 L52.4118862,553.027757 L50.0900662,553.027544 L50.0906733,550.706544 Z M57.9103746,539.158577 L61.9442177,543.69665 L61.9442177,556.30241 L56.9539202,556.302404 C57.131623,555.65768 57.2346711,554.982003 57.2531824,554.285255 L59.9272962,554.285489 L59.9272962,544.463483 L57.0046436,541.175499 L49.8426883,541.175499 L49.8426889,545.687475 C49.5093472,545.647402 49.170021,545.626781 48.8258786,545.626781 C48.4872645,545.626781 48.1533132,545.646745 47.8251375,545.685559 L47.8257668,539.158577 L57.9103746,539.158577 Z M54.9221981,548.23426 L56.9019138,548.234724 L56.9019138,550.251646 L56.3504185,550.251542 C55.9742458,549.509226 55.4914572,548.830084 54.9221981,548.23426 Z M56.9019138,544.200881 L56.9019138,546.217802 L51.9334685,546.218023 C51.9089643,546.208301 51.8844036,546.198691 51.8597872,546.189192 L51.8596099,544.200881 L56.9019138,544.200881 Z" transform="translate(-41 -539)"/></svg>
