<svg xmlns="http://www.w3.org/2000/svg" xmlns:xlink="http://www.w3.org/1999/xlink" viewBox="0 0 42 42"><path fill="#80868E" d="M18.565 21.419a2.04 2.04 0 0 0-2.037 2.037 2.04 2.04 0 0 0 2.037 2.037 2.04 2.04 0 0 0 2.037-2.037 2.034 2.034 0 0 0-2.037-2.037zm4.956 0a2.04 2.04 0 0 0-2.037 2.037 2.04 2.04 0 0 0 2.037 2.037 2.04 2.04 0 0 0 2.037-2.037 2.04 2.04 0 0 0-2.037-2.037zm-4.956-4.956a2.04 2.04 0 0 0-2.037 2.037 2.04 2.04 0 0 0 2.037 2.037 2.04 2.04 0 0 0 2.037-2.037 2.034 2.034 0 0 0-2.037-2.037zm4.956 0a2.04 2.04 0 0 0-2.037 2.037 2.04 2.04 0 0 0 2.037 2.037 2.04 2.04 0 0 0 2.037-2.037 2.04 2.04 0 0 0-2.037-2.037zm-2.516-5.458c-5.523 0-10 4.477-10 10s4.477 10 10 10 10-4.477 10-10c-.01-5.523-4.477-10-10-10zm0 16.569a6.569 6.569 0 1 1 0-13.138 6.569 6.569 0 0 1 0 13.138z"/></svg>