<svg xmlns="http://www.w3.org/2000/svg" width="42" height="42" viewBox="-10 -12 42 42"><path fill="#FFF" fill-rule="evenodd" d="M2 0h19a2 2 0 0 1 2 2v10.98a2 2 0 0 1-2 2H9.148l-4.26 4.547V14.98H2a2 2 0 0 1-2-2V2a2 2 0 0 1 2-2zm4.896 8.648c0-.434-.108-.794-.323-1.08-.216-.285-.6-.552-1.154-.801-.577-.264-.931-.446-1.061-.545-.13-.1-.196-.213-.196-.339 0-.117.051-.215.154-.294.102-.079.267-.119.492-.119.437 0 .955.138 1.556.413l.532-1.34c-.692-.307-1.37-.461-2.035-.461-.753 0-1.345.165-1.776.496-.43.331-.646.793-.646 1.385 0 .316.051.59.152.821a1.7 1.7 0 0 0 .466.616c.21.178.524.363.943.553.462.208.747.346.854.413a.844.844 0 0 1 .233.2.38.38 0 0 1 .073.231c0 .14-.06.256-.18.345-.12.09-.31.134-.567.134-.3 0-.627-.048-.985-.143a5.17 5.17 0 0 1-1.032-.397v1.546c.313.15.615.255.905.315.29.06.649.09 1.076.09.513 0 .96-.086 1.34-.257.382-.172.673-.412.875-.721.202-.31.304-.663.304-1.061zm3.792 1.95h1.652l1.297-4.618h.04a71.665 71.665 0 0 0-.06 1.314c-.004.179-.007.341-.007.488v2.817h1.596V4.174H12.89l-1.314 4.562h-.035L10.2 4.174H7.888v6.425h1.538v-2.79c0-.437-.031-1.05-.093-1.838h.04l1.314 4.628zm10.103-1.95c0-.434-.108-.794-.323-1.08-.215-.285-.6-.552-1.154-.801-.577-.264-.93-.446-1.06-.545-.131-.1-.196-.213-.196-.339 0-.117.05-.215.153-.294.103-.079.267-.119.493-.119.436 0 .955.138 1.555.413l.532-1.34c-.691-.307-1.37-.461-2.035-.461-.753 0-1.344.165-1.775.496-.43.331-.646.793-.646 1.385 0 .316.05.59.152.821a1.7 1.7 0 0 0 .465.616c.21.178.524.363.943.553.463.208.748.346.855.413a.844.844 0 0 1 .233.2.38.38 0 0 1 .072.231c0 .14-.06.256-.18.345-.12.09-.31.134-.567.134-.299 0-.627-.048-.984-.143a5.17 5.17 0 0 1-1.033-.397v1.546c.313.15.615.255.905.315.29.06.65.09 1.077.09.513 0 .96-.086 1.34-.257.381-.172.673-.412.875-.721.202-.31.303-.663.303-1.061z"/></svg>