<svg xmlns="http://www.w3.org/2000/svg" xmlns:xlink="http://www.w3.org/1999/xlink" viewBox="0 0 42 42"><path fill="#80868E" d="M30.017 21.525a1.577 1.577 0 0 0-2.083-.796l-.758.34-1.944-4.346.758-.339a1.576 1.576 0 0 0-1.287-2.878l-.758.34-.339-.76a1.576 1.576 0 1 0-2.877 1.288l.34.759-4.346 1.943-.34-.758a1.576 1.576 0 0 0-2.877 1.286l.34.758-.759.34a1.575 1.575 0 1 0 1.287 2.878l.759-.34 1.943 4.346-.759.339a1.577 1.577 0 0 0 1.287 2.878l.758-.34.34.759a1.575 1.575 0 1 0 2.876-1.286l-.338-.76 4.346-1.942.339.756a1.575 1.575 0 1 0 2.877-1.285l-.34-.758.758-.34a1.575 1.575 0 0 0 .797-2.082zM19.953 24.3l-1.944-4.346 4.346-1.943 1.944 4.345-4.346 1.944z"/></svg>