<svg width="46" height="46" viewBox="0 0 46 46" fill="none" xmlns="http://www.w3.org/2000/svg">
<rect width="46" height="46" rx="23" fill="#0077FF"/>
<path d="M32.198 32.1905C27.0533 37.3503 18.7122 37.3503 13.5675 32.1905C8.42282 27.0308 8.42282 18.6652 13.5675 13.5054C18.7122 8.34566 27.0533 8.34566 32.198 13.5054C37.3426 18.6652 37.3426 27.0308 32.198 32.1905Z" fill="#00D3E6"/>
<path d="M35.081 7.69014C35.1264 6.21774 33.3525 5.44838 32.3139 6.49002L28.4491 10.3662C28.372 10.4435 28.3292 10.5487 28.3304 10.658L28.3682 14.1843L24.364 18.2002C22.6858 17.6637 20.7746 18.0631 19.4432 19.3984C17.5437 21.3035 17.5437 24.3924 19.4432 26.2975C21.3428 28.2027 24.4226 28.2027 26.3222 26.2975C27.7103 24.9053 28.084 22.8811 27.4434 21.1485L31.3777 17.2027L34.8937 17.2406C35.0027 17.2418 35.1076 17.1989 35.1847 17.1215L39.0495 13.2454C40.0881 12.2038 39.321 10.4247 37.8529 10.4702L34.9925 10.5589L35.081 7.69014Z" fill="white"/>
</svg>
