<svg width="42" height="42" xmlns="http://www.w3.org/2000/svg"><path d="M27.828 15.602l1.144-3.843a.985.985 0 0 0-.22-.95.959.959 0 0 0-.925-.283.97.97 0 0 0-.704.669l-.98 3.298a10.38 10.38 0 0 0-9.722.01l-.985-3.308a.964.964 0 0 0-1.203-.653c-.51.156-.8.7-.646 1.217l1.15 3.858a11.006 11.006 0 0 0-4.07 8.59c0 6.029 4.755 4.55 10.625 4.55s10.625 1.479 10.625-4.55c.01-3.35-1.497-6.52-4.09-8.605zm-6.546 7.785c-4.19 0-7.589.44-7.589-1.357 0-1.796 3.399-3.255 7.589-3.255s7.593 1.457 7.593 3.255c0 1.798-3.398 1.357-7.593 1.357zm-3.47-3.266a1.161 1.161 0 0 0-.936 1.284c.073.61.604 1.058 1.21 1.021a1.158 1.158 0 0 0 1.082-1.16 1.264 1.264 0 0 0-1.357-1.145zm6.004 1.287c.075.61.606 1.057 1.213 1.02a1.159 1.159 0 0 0 1.08-1.163 1.264 1.264 0 0 0-1.361-1.144 1.162 1.162 0 0 0-.932 1.287z" clip-rule="evenodd" fill="#fff" fill-rule="evenodd"/></svg>