<svg width="96" height="96" viewBox="0 0 96 96" fill="none" xmlns="http://www.w3.org/2000/svg">
    <path fill-rule="evenodd" clip-rule="evenodd" d="M21.2669 39.7473C25.8392 37.6335 29.214 37.4178 31.3477 39.208C35.1145 42.4002 33.4815 46.8865 32.0445 50.8335C30.9123 53.9825 29.6712 55.9022 28.4519 57.0668C26.4488 58.9649 24.8812 59.0296 23.6619 58.9649C21.0709 58.8355 19.0025 57.3472 16.6946 54.0688C14.735 51.2433 13.0803 48.2668 14.5826 44.8806C14.8221 44.3414 15.7366 42.2923 21.2669 39.7473ZM23.7421 54.2211C24.7626 54.3072 26.0002 54.4117 27.7552 49.5179C29.3664 45.0747 29.3664 43.7806 28.1907 42.9179C27.6463 42.5296 26.3835 42.2923 23.2047 43.8022C20.396 45.1394 19.2855 45.8943 18.959 46.6708C18.5017 47.7492 18.3711 48.5688 20.2871 51.308C21.5935 53.1845 22.7692 54.1335 23.7272 54.2198L23.7421 54.2211Z" fill="#fff"/>
    <path fill-rule="evenodd" clip-rule="evenodd" d="M57.9328 40.2004H56.6264C56.4087 40.2004 56.2563 40.373 56.2563 40.5671V44.5789C55.2765 43.673 54.0137 43.1985 52.6637 43.1985C49.659 43.1985 47.1987 45.722 47.1987 48.8495C47.1987 51.9554 49.659 54.5004 52.6637 54.5004C54.0137 54.5004 55.32 54.0044 56.3216 53.0554L56.3869 53.7456C56.4087 53.9397 56.5828 54.069 56.757 54.069H57.9328C58.1505 54.069 58.3029 53.8965 58.3029 53.7024V40.5887C58.3029 40.3946 58.1287 40.2004 57.9328 40.2004ZM56.0821 48.8495C56.0821 50.7906 54.558 52.3652 52.6637 52.3652C50.7695 52.3652 49.2236 50.7906 49.2236 48.8495C49.2236 46.9083 50.7477 45.3338 52.6419 45.3338C54.5362 45.3338 56.0821 46.8867 56.0821 48.8495Z" fill="#fff"/>
    <path d="M69.5585 45.1181C69.2972 44.7299 68.992 44.3848 68.6439 44.126C68.2953 43.8456 67.9037 43.6299 67.4683 43.4789C66.7063 43.1985 65.8569 43.1554 64.9861 43.3064C63.7233 43.5221 62.8087 44.1692 62.2645 44.6437L62.1992 43.9319C62.1773 43.7378 62.0032 43.6083 61.8291 43.6083H60.5659C60.3484 43.6083 60.1958 43.7809 60.1958 43.975V53.7025C60.1958 53.9181 60.3703 54.0692 60.5659 54.0692H61.9598C62.1773 54.0692 62.3299 53.8966 62.3299 53.7025V46.7789C63.3533 46.0672 64.2675 45.5711 65.3128 45.377C65.7482 45.2907 66.2923 45.3554 66.7716 45.528C67.1851 45.6789 67.5551 45.9378 67.7731 46.326C68.2304 47.0162 68.2304 47.879 68.2304 48.6554V53.6809C68.2304 53.8966 68.4045 54.0476 68.6005 54.0476H70.0154C70.2333 54.0476 70.3855 53.875 70.3855 53.6809V49.1515C70.4074 48.224 70.4074 47.2319 70.1246 46.3044C69.972 45.8946 69.7979 45.4633 69.5585 45.1181Z" fill="#fff"/>
    <path fill-rule="evenodd" clip-rule="evenodd" d="M80.9896 43.5865H82.2963C82.5138 43.5865 82.6878 43.7591 82.6878 44.0179V53.7237C82.6878 53.9179 82.5357 54.0904 82.3178 54.0904H81.1422C80.9682 54.0904 80.7936 53.961 80.7722 53.7669L80.7068 53.0767C79.7049 54.0257 78.3987 54.5218 77.0486 54.5218C74.0443 54.5218 71.584 51.9767 71.584 48.8708C71.584 45.7434 74.0443 43.2198 77.0486 43.2198C78.3768 43.2198 79.6401 43.6944 80.6196 44.6003V43.9532C80.6196 43.7591 80.7722 43.5865 80.9896 43.5865ZM77.0486 52.3649C78.9433 52.3649 80.467 50.7904 80.467 48.8493C80.467 46.8865 78.9433 45.3336 77.0486 45.3336C75.1544 45.3336 73.6303 46.9081 73.6303 48.8493C73.6303 50.7904 75.1544 52.3649 77.0486 52.3649Z" fill="#fff"/>
    <path fill-rule="evenodd" clip-rule="evenodd" d="M46.3268 47.7493C45.9349 45.1826 43.8883 43.2198 41.232 43.2198H41.1667C38.162 43.2198 35.7017 45.7434 35.7017 48.8708C35.7017 51.9767 38.1402 54.5003 41.1667 54.5218H41.2755C43.1044 54.5218 44.6721 53.7669 45.826 52.4944C45.9567 52.3434 45.9567 52.1493 45.826 51.9983L44.9987 51.0924C44.9116 51.0061 44.8245 50.963 44.7157 50.963C44.6068 50.963 44.4979 51.0277 44.4326 51.114C43.7141 52.0198 42.7561 52.4081 41.2973 52.4081H41.1667C39.5119 52.4081 38.1402 51.2003 37.8136 49.6042H45.543C46.022 49.6042 46.414 49.2159 46.414 48.7198C46.4046 48.7105 46.3992 48.6211 46.3909 48.4826C46.38 48.2998 46.364 48.0315 46.3268 47.7493ZM38.0096 47.4904C38.5103 46.2179 39.7296 45.3336 41.1449 45.3336H41.2537C42.669 45.3336 43.8665 46.1963 44.302 47.4904H38.0096Z" fill="#fff"/>
</svg>
