<svg xmlns="http://www.w3.org/2000/svg" width="42" height="42" viewBox="0 0 42 42"><path fill="#80868E" d="M28.817 24.06c-.068.845-.443 1.499-1.16 1.936-1.092.666-2.2 1.307-3.302 1.96-.129.077-.252.163-.377.245-.352.112-.62.415-1.034.4-.576-.021-1.039-.38-1.046-.955-.017-1.368-.048-2.74.033-4.103.057-.955.615-1.708 1.346-2.315.15-.125.307-.241.461-.362l4.49-2.55c.542-.309.671-.245.66.361-.032 1.794.074 3.59-.071 5.382m-9.324-5.592c-1.352-.808-2.732-1.568-4.099-2.352-.518-.297-.535-.46-.036-.75a408.602 408.602 0 0 1 4.575-2.603c.858-.482 1.729-.439 2.588.016.345.184.686.374 1.029.562.947.55 1.886 1.115 2.843 1.646.444.246.746.567.74 1.084-.007.515-.372.782-.78 1.017-.972.558-1.936 1.131-2.902 1.698-1.379.625-2.68.448-3.958-.318m.307 9.746c-.006.574-.153.658-.634.383-1.462-.835-2.95-1.626-4.372-2.524-.75-.474-1.284-1.17-1.27-2.17.021-1.553-.02-3.106-.013-4.658.004-.885.797-1.33 1.57-.896.932.524 1.849 1.075 2.784 1.591 1.305.72 1.876 1.865 1.931 3.3.032.828.006 1.658.006 2.487 0 .83.006 1.658-.002 2.487m9.03-14.334c-.551-.314-1.111-.618-1.65-.944a175.673 175.673 0 0 0-3.718-2.204c-1.29-.817-2.662-1.004-4.021-.278-1.684.9-3.311 1.907-4.961 2.871-.455.266-.916.526-1.349.825-1.106.763-1.688 1.842-1.706 3.173-.031 2.368-.034 4.737.002 7.105.022 1.44.671 2.584 1.918 3.33 2.04 1.22 4.099 2.405 6.14 3.62.314.188.647.33.987.37h1.358c.926-.257 1.755-.708 2.538-1.252 1.636-.965 3.345-1.803 4.902-2.909 1.702-1.21 1.703-2.839 1.702-2.985-.047-5.237-.072-7.866-.076-7.889-.23-1.28-.958-2.202-2.067-2.833z"/></svg>