<svg width="39" height="39" viewBox="0 0 76 76" fill="none" xmlns="http://www.w3.org/2000/svg">
	<path fill-rule="evenodd" clip-rule="evenodd" d="M19.9164 46.1319C23.2347 53.5109 30.7038 58.1332 38.7882 57.8109C49.5134 57.5914 58.0331 48.7247 57.8245 37.9993C57.824 29.9086 52.9074 22.6298 45.4019 19.6086C37.8964 16.5873 29.308 18.4298 23.7023 24.2638C18.0965 30.0979 16.5981 38.7529 19.9164 46.1319ZM45.9947 32.1886C45.3981 31.4735 44.3348 31.3774 43.6196 31.974L38.1708 36.5196L35.5554 33.9064C34.8452 33.1968 33.6943 33.1973 32.9847 33.9075C32.2751 34.6177 32.2756 35.7686 32.9858 36.4782L36.4948 39.9842C36.8033 40.2925 37.1951 40.4668 37.5977 40.507C38.0974 40.626 38.645 40.516 39.0698 40.1616L45.7801 34.5637C46.4952 33.9671 46.5913 32.9038 45.9947 32.1886ZM37.9763 28.8734C38.7473 28.8734 39.3724 28.2483 39.3724 27.4772C39.3724 26.7062 38.7473 26.0811 37.9763 26.0811C37.2052 26.0811 36.5802 26.7062 36.5802 27.4772C36.5802 28.2483 37.2052 28.8734 37.9763 28.8734ZM37.9763 49.9184C38.7473 49.9184 39.3724 49.2933 39.3724 48.5222C39.3724 47.7512 38.7473 47.1261 37.9763 47.1261C37.2052 47.1261 36.5802 47.7512 36.5802 48.5222C36.5802 49.2933 37.2052 49.9184 37.9763 49.9184ZM29.0308 37.9728C29.0308 38.7438 28.4057 39.3689 27.6346 39.3689C26.8636 39.3689 26.2385 38.7438 26.2385 37.9728C26.2385 37.2017 26.8636 36.5767 27.6346 36.5767C28.4057 36.5767 29.0308 37.2017 29.0308 37.9728ZM48.7016 39.3689C49.4727 39.3689 50.0977 38.7438 50.0977 37.9728C50.0977 37.2017 49.4727 36.5767 48.7016 36.5767C47.9306 36.5767 47.3055 37.2017 47.3055 37.9728C47.3055 38.7438 47.9306 39.3689 48.7016 39.3689ZM38.6457 54.2321C32.0217 54.4962 25.9019 50.7089 23.183 44.6628C20.4641 38.6168 21.6918 31.5252 26.285 26.7451C30.8781 21.9649 37.915 20.4553 44.0647 22.9308C50.2144 25.4062 54.2429 31.3702 54.2433 37.9994C54.4142 46.7873 47.4335 54.0523 38.6457 54.2321ZM38.527 51.2481C33.1213 51.4637 28.1269 48.3725 25.9081 43.438C23.6892 38.5035 24.6911 32.7157 28.4395 28.8143C32.1879 24.9129 37.9306 23.6808 42.9493 25.7012C47.968 27.7216 51.2556 32.5891 51.256 37.9996C51.3954 45.172 45.6986 51.1013 38.527 51.2481Z" fill="white"/>
</svg>