<svg width="42" height="42" viewBox="-9 -9 42 42" fill="none" xmlns="http://www.w3.org/2000/svg"><path fill-rule="evenodd" clip-rule="evenodd" d="M9.202 17.063a5.056 5.056 0 0 0-2.495-3.557 5.176 5.176 0 0 0-4.404-.342l5.01-8.569c-.005.874.219 1.76.693 2.572l3.49 5.971-2.294 3.925zM10.324.527c1.901-1.084 4.332-.441 5.43 1.436l8.054 13.777a3.899 3.899 0 0 1-1.455 5.362c-1.901 1.084-4.332.44-5.43-1.436L8.87 5.889A3.899 3.899 0 0 1 10.324.527zm-4.358 14.13a3.899 3.899 0 0 1 1.455 5.362l-.003.006c-1.098 1.877-3.529 2.52-5.43 1.437a3.899 3.899 0 0 1-1.455-5.363l.004-.006c1.097-1.877 3.528-2.52 5.43-1.437z" fill="#fff"/></svg>