<svg xmlns="http://www.w3.org/2000/svg" viewBox="0 0 42 42"><path fill="#80868E" d="M24.906 15.079c0 .542-.458.985-1.018.985h-8.181c-.56 0-1.019-.443-1.019-.985v-.05c0-.543.459-.986 1.019-.986h8.18c.561 0 1.02.443 1.02.986v.05zm-1.778 4.393c0 .542-.458.985-1.018.985h-6.403c-.56 0-1.02-.443-1.02-.985v-.051c0-.542.46-.985 1.02-.985h6.403c.56 0 1.018.443 1.018.985v.051zm0 4.392c0 .543-.458.985-1.018.985h-6.403c-.56 0-1.02-.442-1.02-.985v-.05c0-.542.46-.985 1.02-.985h6.403c.56 0 1.018.443 1.018.985v.05zM28.886 11H13.114C12.5 11 12 11.485 12 12.077v16.846c0 .592.501 1.077 1.114 1.077h15.772C29.5 30 30 29.515 30 28.923V12.077c0-.592-.501-1.077-1.114-1.077z"/></svg>