<svg xmlns="http://www.w3.org/2000/svg" width="42" height="42" viewBox="0 0 42 42"><g fill="none" fill-rule="evenodd"><path fill="#80868E" d="M27.5555556,16.2 L27.5555556,18.6 L26,18.6 L26,21 L27.5555556,21 L27.5555556,29 L30.6666667,29 L30.6666667,21 L33,21 C32.7062587,20.9955556 32.9016696,19.704 33,18.6 L30.6666667,18.6 L30.6666667,16.2 C30.6327788,16.1744444 30.9713104,15.8046667 31.4444444,16.2 L33,16.2 L33,13 L30.6666667,13 C27.4364156,13 27.5128716,15.6962222 27.5555556,16.2"/><path fill="#80868E" fill-rule="nonzero" d="M11.3636364,13 C9.08063158,13 7,15.0805895 7,17.3636364 L7,24.6363636 C7,26.9193684 9.08058947,29 11.3636364,29 L18.6363636,29 C20.9193684,29 23,26.9194105 23,24.6363636 L23,17.3636364 C23,15.0806316 20.9194105,13 18.6363636,13 L11.3636364,13 Z M11.5347594,14.4545455 L18.4652406,14.4545455 C20.1980073,14.4545455 21.5454545,15.8019927 21.5454545,17.5347594 L21.5454545,24.4652406 C21.5454545,26.1980073 20.1980073,27.5454545 18.4652406,27.5454545 L11.5347594,27.5454545 C9.80199273,27.5454545 8.45454545,26.1980073 8.45454545,24.4652406 L8.45454545,17.5347594 C8.45454545,15.8019927 9.80199273,14.4545455 11.5347594,14.4545455 Z M19.3636364,15.9090909 C18.9616545,15.9090909 18.6363636,16.2343818 18.6363636,16.6363636 C18.6363636,17.0383455 18.9616545,17.3636364 19.3636364,17.3636364 C19.7656182,17.3636364 20.0909091,17.0383455 20.0909091,16.6363636 C20.0909091,16.2343818 19.7656182,15.9090909 19.3636364,15.9090909 Z M15,16.6363636 C12.5997922,16.6363636 10.6363636,18.5998338 10.6363636,21 C10.6363636,23.4001662 12.5998338,25.3636364 15,25.3636364 C17.4001662,25.3636364 19.3636364,23.4001662 19.3636364,21 C19.3636364,18.5998338 17.4001662,16.6363636 15,16.6363636 Z M15,18.0909091 C16.6171413,18.0909091 17.9090909,19.3828587 17.9090909,21 C17.9090909,22.6171413 16.6171413,23.9090909 15,23.9090909 C13.3828587,23.9090909 12.0909091,22.6171413 12.0909091,21 C12.0909091,19.3828587 13.3828587,18.0909091 15,18.0909091 Z"/></g></svg>