<svg width="42" height="42" viewBox="0 0 42 42" fill="none" xmlns="http://www.w3.org/2000/svg">
    <path d="M21 42C32.598 42 42 32.598 42 21C42 9.40202 32.598 0 21 0C9.40202 0 0 9.40202 0 21C0 32.598 9.40202 42 21 42Z" fill="white"/>
    <path d="M21.2208 7.52946C19.3408 7.52946 17.5543 7.92128 15.9327 8.62198L13.0069 5.70001H13.0002C9.9114 7.05279 7.4356 9.54099 6.09998 12.6403L9.03052 15.568L9.02862 15.5708C8.32124 17.1953 7.89987 18.9647 7.89987 20.8504C7.89987 28.2101 13.863 34.1723 21.2208 34.1723C28.5758 34.1723 34.5408 28.2082 34.5408 20.8504C34.5408 13.4945 28.5767 7.52946 21.2208 7.52946Z" fill="#00B0EA"/>
    <path d="M19.8633 26.3835C21.1979 23.2842 23.6756 20.796 26.7635 19.4423H26.7654L15.9346 8.62769L15.9298 8.62674C12.8391 9.98047 10.3633 12.4677 9.02863 15.5689L19.8633 26.3835Z" fill="#15374C"/>
    <path d="M27.5395 23.1365C25.7453 23.922 24.3077 25.3701 23.5307 27.1681L28.5891 28.2139L27.5395 23.1365Z" fill="#15374C"/>
    <path d="M27.5395 23.1384C27.1324 21.1964 26.7654 19.4433 26.7654 19.4433L26.7616 19.4442C23.6747 20.798 21.1979 23.2852 19.8623 26.3845L23.5307 27.1681C24.3096 25.3759 25.7501 23.922 27.5395 23.1384Z" fill="white"/>
</svg>