<svg xmlns="http://www.w3.org/2000/svg" width="26" height="26" viewBox="-8 -8 42 42"><path fill="#FF9E00" d="M16.76 13A3.764 3.764 0 0 1 13 16.76 3.764 3.764 0 0 1 9.24 13 3.764 3.764 0 0 1 13 9.24 3.764 3.764 0 0 1 16.76 13M13 .5C6.108.5.5 6.108.5 13S6.108 25.5 13 25.5c2.525 0 4.96-.752 7.041-2.174l.036-.025-1.684-1.958-.028.019A9.9 9.9 0 0 1 13 22.938c-5.48 0-9.938-4.458-9.938-9.938S7.52 3.062 13 3.062 22.937 7.52 22.937 13c0 .71-.078 1.429-.234 2.136-.314 1.29-1.217 1.685-1.895 1.633-.682-.056-1.48-.542-1.485-1.73V13A6.33 6.33 0 0 0 13 6.677 6.33 6.33 0 0 0 6.677 13 6.33 6.33 0 0 0 13 19.323a6.273 6.273 0 0 0 4.48-1.867 4.06 4.06 0 0 0 3.122 1.867c1.029.08 2.051-.22 2.874-.843.749-.568 1.308-1.39 1.618-2.38.049-.159.14-.524.14-.527l.003-.013c.182-.793.263-1.583.263-2.56C25.5 6.108 19.892.5 13 .5"/></svg>