<svg xmlns="http://www.w3.org/2000/svg" width="42" height="42" viewBox="-10 -10 42 42"><path fill="#80868E" fill-rule="evenodd" d="M2.3 3.729c.661-.704 1.492-.704 2.158-.005.41.434.663.987.984 1.452.322.466.703 1.059 1.097 1.488.696.753.696 1.63.005 2.379-.496.538-.666.73-1.17 1.255-.132.142-.145.256-.077.43.335.858.814 1.62 1.353 2.332 1.085 1.434 2.31 2.708 3.773 3.698.313.21.661.366.987.557.166.1.28.069.416-.082.496-.548.873-.721 1.378-1.26.661-.708 1.492-.708 2.158 0 .81.868 1.746 1.37 2.552 2.242.674.73.67 1.625-.009 2.365-.458.497-.945.972-1.378 1.493-.631.762-1.42 1.008-2.327.954-1.318-.078-2.531-.548-3.701-1.16-2.599-1.36-4.82-3.246-6.681-5.63-1.378-1.761-2.514-3.683-3.26-5.847C.192 9.344-.067 8.27.014 7.134c.05-.698.292-1.296.771-1.785.518-.53 1.005-1.082 1.514-1.62zM21.986 0v14l-6-3.448V3.786l6-3.786zm-8 4a1 1 0 0 1 1 1v5a1 1 0 0 1-1 1h-2a1 1 0 0 1-1-1V5a1 1 0 0 1 1-1h2z"/></svg>