<svg width="46" height="46" viewBox="0 0 46 46" fill="none" xmlns="http://www.w3.org/2000/svg">
	<path fill-rule="evenodd" clip-rule="evenodd" d="M23 46C35.7025 46 46 35.7025 46 23C46 10.2975 35.7025 0 23 0C10.2975 0 0 10.2975 0 23C0 35.7025 10.2975 46 23 46Z" fill="white"/>
	<path d="M20.0457 22.3512L22.8185 19.5784L25.5909 22.3508L22.8182 25.1236L20.0457 22.3512Z" fill="#01AD64"/>
	<path fill-rule="evenodd" clip-rule="evenodd" d="M24.8311 7.52911C23.6091 6.82363 22.1037 6.82363 20.8817 7.52911L10.9747 13.249C9.75274 13.9544 9 15.2582 9 16.6692V28.1089C9 29.5198 9.75274 30.8236 10.9747 31.5291L20.8817 37.249C22.1037 37.9544 23.6091 37.9544 24.8311 37.249L34.7381 31.5291C35.9601 30.8236 36.7128 29.5198 36.7128 28.1089V16.6692C36.7128 15.2582 35.9601 13.9544 34.7381 13.249L24.8311 7.52911ZM25.4228 14.2927C25.1424 14.0123 24.6877 14.0123 24.4073 14.2927L22.8185 15.8815L21.2298 14.2929C20.9494 14.0124 20.4948 14.0124 20.2144 14.2929L19.3814 15.1258C19.101 15.4062 19.101 15.8609 19.3814 16.1413L20.9701 17.73L18.1973 20.5027L16.6085 18.914C16.3281 18.6335 15.8735 18.6335 15.593 18.914L14.7601 19.7469C14.4797 20.0273 14.4797 20.482 14.7601 20.7624L16.3488 22.3512L14.7613 23.9387C14.4809 24.2191 14.4809 24.6738 14.7613 24.9542L15.5943 25.7871C15.8747 26.0676 16.3294 26.0676 16.6098 25.7871L18.1973 24.1996L20.9697 26.972L19.382 28.5597C19.1016 28.8401 19.1016 29.2948 19.382 29.5752L20.215 30.4082C20.4954 30.6886 20.9501 30.6886 21.2305 30.4082L22.8182 28.8205L24.4061 30.4084C24.6865 30.6888 25.1411 30.6888 25.4215 30.4084L26.2545 29.5754C26.5349 29.295 26.5349 28.8403 26.2545 28.5599L24.6666 26.972L27.4394 24.1993L29.0274 25.7873C29.3078 26.0677 29.7624 26.0677 30.0429 25.7873L30.8758 24.9543C31.1562 24.6739 31.1562 24.2193 30.8758 23.9388L29.2878 22.3508L30.8765 20.7622C31.1569 20.4818 31.1569 20.0271 30.8765 19.7467L30.0435 18.9137C29.7631 18.6333 29.3084 18.6333 29.028 18.9137L27.4394 20.5024L24.6669 17.73L26.2557 16.1412C26.5362 15.8607 26.5362 15.4061 26.2557 15.1257L25.4228 14.2927Z" fill="#01AD64"/>
</svg>
