<svg width="39" height="39" viewBox="0 0 39 39" fill="none" xmlns="http://www.w3.org/2000/svg">
	<path fill-rule="evenodd" clip-rule="evenodd" d="M27.1331 19.1862L27.1333 26.0369L27.1251 26.0368C27.1305 26.0899 27.1333 26.1433 27.1333 26.197C27.1333 28.0775 23.7823 29.6019 19.6488 29.6019C15.5152 29.6019 12.1642 28.0775 12.1642 26.197C12.1642 26.1433 12.167 26.0899 12.1724 26.0368L12.1642 26.0369L12.1642 19.1862L19.1188 21.8068C19.2939 21.8013 19.4706 21.7984 19.6488 21.7984C19.8269 21.7984 20.0037 21.8013 20.1787 21.8068L27.1331 19.1862ZM19.6671 10.1419L32.7901 15.087C32.8171 15.0972 32.8307 15.1272 32.8205 15.1541C32.8152 15.1681 32.8042 15.1792 32.7901 15.1845L30.3656 16.0978L30.3659 20.1756C30.8997 20.5525 31.2763 21.3922 31.2951 22.3752L31.2959 22.4528C31.2959 23.7776 30.6464 23.784 29.8272 23.7827H29.6403C28.8211 23.784 28.1717 23.7776 28.1717 22.4528C28.1717 21.4363 28.554 20.5621 29.102 20.1755L29.1018 16.5741L19.6671 20.1296C19.6553 20.1341 19.6422 20.1341 19.6304 20.1296L6.50737 15.1845C6.48045 15.1743 6.46685 15.1443 6.47699 15.1174C6.48228 15.1034 6.49334 15.0923 6.50737 15.087L19.6304 10.1419C19.6422 10.1374 19.6553 10.1374 19.6671 10.1419Z" fill="#9EA3AA"/>
</svg>