<svg xmlns="http://www.w3.org/2000/svg" width="42" height="42" viewBox="0 0 42 42"><path fill="#FFF" d="M31.448 25.364a13.403 13.403 0 0 1-1.326 2.383c-.697.994-1.267 1.682-1.707 2.064-.682.627-1.412.948-2.195.966-.561 0-1.238-.16-2.027-.484-.79-.323-1.517-.482-2.182-.482-.697 0-1.444.16-2.244.482-.8.324-1.445.493-1.939.51-.75.032-1.497-.298-2.244-.992-.476-.416-1.072-1.128-1.785-2.137-.766-1.077-1.396-2.327-1.889-3.751-.528-1.538-.793-3.028-.793-4.47 0-1.653.357-3.078 1.072-4.272a6.289 6.289 0 0 1 2.246-2.27 6.04 6.04 0 0 1 3.035-.858c.596 0 1.377.185 2.348.547.968.363 1.59.548 1.862.548.204 0 .895-.216 2.065-.645 1.107-.399 2.042-.564 2.807-.499 2.074.168 3.633.985 4.669 2.458-1.855 1.124-2.773 2.698-2.754 4.718.016 1.573.587 2.882 1.708 3.921a5.616 5.616 0 0 0 1.708 1.12c-.137.397-.282.778-.435 1.143zM26.69 6.645c0 1.233-.45 2.384-1.349 3.45-1.083 1.267-2.394 1.998-3.815 1.883a3.838 3.838 0 0 1-.028-.467c0-1.184.515-2.45 1.43-3.486.457-.525 1.038-.96 1.742-1.308.703-.343 1.368-.533 1.994-.565.018.165.026.33.026.493z"/></svg>