<svg xmlns="http://www.w3.org/2000/svg" width="42" height="42" viewBox="0 0 42 42"><path fill="#80868E" d="M9.32 16.735l-.016.139v.84a.49.49 0 0 0 .005.02c.004.012.009.025.01.039.015.113.027.226.038.34.026.24.05.48.1.715.367 1.76 1.245 3.222 2.652 4.345 1.774 1.416 3.802 1.925 6.035 1.549 1.655-.28 3.063-1.055 4.196-2.294 1.537-1.68 2.18-3.667 1.957-5.93a6.863 6.863 0 0 0-.816-2.666c-1.244-2.258-3.144-3.587-5.702-3.957a7.036 7.036 0 0 0-2.669.134c-1.813.436-3.276 1.41-4.377 2.913A7.298 7.298 0 0 0 9.362 16.4l-.041.335zm24.358 1.527l.018-.063v-.384a.132.132 0 0 0-.006-.01c-.004-.008-.009-.016-.01-.024a1.503 1.503 0 0 0-2.979.403c.09.696.664 1.253 1.347 1.306.743.058 1.396-.39 1.592-1.093l.038-.135zM24.34 29.517a3.677 3.677 0 0 1 3.688-3.673 3.677 3.677 0 0 1-.025 7.351c-2.027-.01-3.67-1.66-3.663-3.678zm6.683-7.677a3.007 3.007 0 1 0-6.014-.012 3.007 3.007 0 0 0 6.014.012z"/></svg>