<svg width="41" height="41" viewBox="0 0 41 41" fill="none" xmlns="http://www.w3.org/2000/svg">
<path d="M22.7624 30.2964C22.7624 31.2608 23.3226 32.1159 23.9357 32.8605C24.5767 33.6389 24.9616 34.6361 24.9616 35.7232C24.9616 38.2121 22.944 40.2297 20.4551 40.2297C17.9662 40.2297 15.9486 38.2121 15.9486 35.7232C15.9486 34.6361 16.3336 33.6389 16.9745 32.8605C17.5876 32.1159 18.1478 31.2608 18.1478 30.2964V29.0215C18.8843 29.2154 19.6577 29.3187 20.4551 29.3187C21.2526 29.3187 22.0259 29.2154 22.7624 29.0216V30.2964Z" fill="#80868E"/>
<path d="M25.0042 28.0922C26.3533 27.3049 27.48 26.1782 28.2673 24.8291L29.1693 25.7311C29.8512 26.4131 30.852 26.6217 31.812 26.7146C32.8157 26.8118 33.793 27.2447 34.5617 28.0134C36.3216 29.7733 36.3216 32.6267 34.5617 34.3866C32.8018 36.1465 29.9484 36.1465 28.1886 34.3866C27.4198 33.6179 26.9869 32.6405 26.8897 31.6369C26.7967 30.6769 26.5882 29.6761 25.9062 28.9942L25.0042 28.0922Z" fill="#80868E"/>
<path d="M29.1967 22.5873C29.3906 21.8508 29.4938 21.0774 29.4938 20.28C29.4938 19.4826 29.3906 18.7092 29.1967 17.9727H30.4714C31.4359 17.9727 32.291 17.4125 33.0356 16.7994C33.814 16.1585 34.8112 15.7735 35.8983 15.7735C38.3872 15.7735 40.4048 17.7911 40.4048 20.28C40.4048 22.7689 38.3872 24.7865 35.8983 24.7865C34.8112 24.7865 33.814 24.4016 33.0356 23.7606C32.291 23.1475 31.4359 22.5873 30.4714 22.5873H29.1967Z" fill="#80868E"/>
<path d="M28.2673 15.7309C27.48 14.3818 26.3533 13.2551 25.0043 12.4678L25.9062 11.5659C26.5882 10.8839 26.7967 9.88314 26.8897 8.92312C26.9869 7.91947 27.4198 6.94212 28.1886 6.17341C29.9484 4.41351 32.8018 4.41351 34.5617 6.17341C36.3216 7.9333 36.3216 10.7867 34.5617 12.5466C33.793 13.3153 32.8157 13.7482 31.812 13.8454C30.852 13.9384 29.8512 14.1469 29.1693 14.8289L28.2673 15.7309Z" fill="#80868E"/>
<path d="M22.7624 11.5384C22.0259 11.3446 21.2526 11.2413 20.4551 11.2413C19.6577 11.2413 18.8843 11.3446 18.1478 11.5384V10.2636C18.1478 9.2992 17.5876 8.44405 16.9745 7.69953C16.3336 6.9211 15.9486 5.9239 15.9486 4.83677C15.9486 2.34791 17.9662 0.330265 20.4551 0.330265C22.944 0.330265 24.9616 2.34791 24.9616 4.83677C24.9616 5.9239 24.5767 6.9211 23.9357 7.69953C23.3226 8.44405 22.7624 9.2992 22.7624 10.2636V11.5384Z" fill="#80868E"/>
<path d="M15.906 12.4678C14.5569 13.2551 13.4302 14.3818 12.6429 15.7309L11.7409 14.8289C11.059 14.1469 10.0582 13.9383 9.09822 13.8454C8.09454 13.7482 7.11726 13.3153 6.34855 12.5466C4.58862 10.7867 4.58862 7.9333 6.34855 6.17341C8.10841 4.41351 10.9618 4.41351 12.7217 6.17341C13.4904 6.94212 13.9233 7.91947 14.0205 8.92312C14.1135 9.88311 14.322 10.8839 15.004 11.5658L15.906 12.4678Z" fill="#80868E"/>
<path d="M11.7136 17.9727C11.5197 18.7092 11.4164 19.4826 11.4164 20.28C11.4164 21.0774 11.5197 21.8508 11.7136 22.5873H10.4387C9.4743 22.5873 8.61912 23.1475 7.87463 23.7606C7.09621 24.4016 6.099 24.7865 5.01188 24.7865C2.52302 24.7865 0.505371 22.7689 0.505371 20.28C0.505371 17.7911 2.52302 15.7735 5.01188 15.7735C6.099 15.7735 7.09621 16.1585 7.87463 16.7994C8.61912 17.4125 9.4743 17.9727 10.4387 17.9727H11.7136Z" fill="#80868E"/>
<path d="M12.6429 24.8292L11.7409 25.7311C11.059 26.4131 10.0582 26.6217 9.09822 26.7146C8.09454 26.8118 7.11726 27.2447 6.34855 28.0134C4.58862 29.7733 4.58862 32.6267 6.34855 34.3866C8.10841 36.1465 10.9618 36.1465 12.7217 34.3866C13.4904 33.6179 13.9233 32.6405 14.0205 31.6369C14.1134 30.6769 14.322 29.6761 15.004 28.9942L15.906 28.0922C14.5569 27.3049 13.4302 26.1782 12.6429 24.8292Z" fill="#80868E"/>
<path d="M28.5739 20.28C28.5739 15.7961 24.939 12.1613 20.4551 12.1613C15.9712 12.1613 12.3364 15.7961 12.3364 20.28C12.3364 24.7639 15.9712 28.3988 20.4551 28.3988C24.939 28.3988 28.5739 24.7639 28.5739 20.28Z" fill="#80868E"/>
</svg>
