<svg xmlns="http://www.w3.org/2000/svg" xmlns:xlink="http://www.w3.org/1999/xlink" viewBox="0 0 42 42"><path fill="#80868E" fill-rule="nonzero" d="M30.889 26.837c-.026-.055-.05-.1-.072-.137-.364-.657-1.06-1.463-2.088-2.42l-.022-.022-.01-.01-.011-.012h-.011c-.467-.445-.762-.744-.886-.898-.226-.292-.277-.587-.153-.887.087-.226.415-.704.984-1.434.299-.387.535-.697.71-.93 1.261-1.68 1.808-2.753 1.64-3.22l-.065-.11c-.043-.065-.156-.126-.338-.18-.183-.055-.416-.064-.7-.028l-3.15.022a.408.408 0 0 0-.218.006l-.142.033-.055.027-.044.033a.486.486 0 0 0-.12.115.752.752 0 0 0-.109.191 17.894 17.894 0 0 1-1.17 2.464c-.27.453-.517.845-.744 1.178a5.663 5.663 0 0 1-.568.733 3.968 3.968 0 0 1-.416.378c-.124.095-.218.135-.284.12a8.002 8.002 0 0 1-.186-.043.728.728 0 0 1-.246-.269 1.203 1.203 0 0 1-.125-.427 4.716 4.716 0 0 1-.039-.443 9.28 9.28 0 0 1 .006-.526c.007-.226.01-.38.01-.46 0-.277.006-.579.017-.903l.027-.772c.008-.19.011-.391.011-.603 0-.211-.013-.377-.038-.498a1.706 1.706 0 0 0-.114-.35.59.59 0 0 0-.225-.263 1.262 1.262 0 0 0-.366-.148c-.386-.088-.878-.135-1.476-.142-1.356-.015-2.227.073-2.613.262-.153.08-.292.19-.416.329-.13.16-.15.248-.054.263.437.065.747.222.929.47l.066.132c.05.095.102.263.153.504.05.24.084.507.098.799.036.533.036.99 0 1.369-.036.38-.07.675-.104.887a1.778 1.778 0 0 1-.147.515c-.066.13-.11.211-.132.24a.188.188 0 0 1-.054.055.818.818 0 0 1-.296.055c-.102 0-.226-.051-.371-.153a2.625 2.625 0 0 1-.454-.422 5.636 5.636 0 0 1-.53-.75c-.197-.321-.401-.7-.613-1.139l-.175-.318c-.109-.204-.258-.502-.448-.892s-.357-.769-.503-1.134a.722.722 0 0 0-.262-.35l-.055-.033a.748.748 0 0 0-.175-.093 1.159 1.159 0 0 0-.251-.071l-2.996.022c-.306 0-.514.07-.623.208l-.044.066a.355.355 0 0 0-.033.175c0 .08.022.179.066.295.437 1.03.913 2.023 1.426 2.98.514.955.96 1.726 1.34 2.31.379.584.765 1.135 1.159 1.653.393.518.654.85.781.997.128.146.228.255.301.328l.274.263c.175.175.431.385.77.63.34.244.715.485 1.127.722.412.238.89.431 1.437.58.547.15 1.08.21 1.597.182h1.257c.255-.023.448-.103.58-.241l.043-.055a.727.727 0 0 0 .082-.203c.026-.09.038-.191.038-.3a3.614 3.614 0 0 1 .071-.85c.055-.251.117-.441.186-.569a1.4 1.4 0 0 1 .422-.482.713.713 0 0 1 .087-.038c.175-.058.38-.002.618.17.237.172.459.383.667.635.208.252.457.535.749.849.291.314.546.547.765.7l.219.132c.146.088.335.168.568.241.233.073.437.091.613.055l2.799-.044c.276 0 .492-.046.645-.137.153-.091.244-.192.273-.301a.85.85 0 0 0 .006-.373 1.376 1.376 0 0 0-.077-.29z"/></svg>