<svg width="42" height="42" viewBox="-12 -13 42 42" fill="none" xmlns="http://www.w3.org/2000/svg"><path fill-rule="evenodd" clip-rule="evenodd" d="M17.831 0H.169C.085 0 0 .087 0 .174V15.79c0 .087.085.174.169.174h17.662c.085 0 .169-.087.169-.174V.174C18 .087 17.916 0 17.831 0zm-2.536 1.649c0-.174.084-.26.253-.26h.845c.17 0 .254.086.254.26v.867c0 .174-.084.26-.253.26h-.846c-.169 0-.253-.086-.253-.26V1.65zm-2.197 0c0-.174.084-.26.253-.26h.845c.17 0 .254.086.254.26v.867c0 .174-.085.26-.254.26h-.845c-.169 0-.253-.086-.253-.26V1.65zm-11.66 0c0-.174.084-.26.253-.26h8.535c.17 0 .254.086.254.26v.867c0 .174-.085.26-.254.26H1.691c-.169 0-.254-.086-.254-.26V1.65zM16.733 15.01H1.183c-.169 0-.253-.086-.253-.26V4.685c0-.173.084-.26.253-.26h15.55c.168 0 .253.087.253.26V14.75c0 .174-.085.26-.253.26z" fill="#80868E"/><rect x="3" y="7" width="9" height="2" rx="1" fill="#80868E"/><rect x="3" y="11" width="9" height="2" rx="1" fill="#80868E"/></svg>