<svg xmlns="http://www.w3.org/2000/svg" viewBox="0 0 42 42"><path fill="#80868E" d="M28.954 15H13.046c-.58 0-1.046.484-1.046 1.072v10.856A1.06 1.06 0 0 0 13.046 28h15.908c.58 0 1.046-.484 1.046-1.072V16.072c0-.595-.466-1.072-1.046-1.072zM21 21.099l-5.809-4.301H26.81l-5.81 4.3zm-7.246 5.103v-8.25l6.733 4.986c.007.007.014.007.02.014.007.007.02.014.027.02.027.015.048.029.075.042h.006a.407.407 0 0 0 .081.035c.007 0 .014.007.02.007.061.02.122.034.183.041h.013c.034 0 .061.007.095.007.033 0 .06 0 .094-.007h.014a.865.865 0 0 0 .182-.041c.007 0 .013-.007.02-.007.027-.014.054-.02.081-.035h.007c.027-.013.047-.027.074-.041.007-.007.02-.014.027-.02.007-.008.013-.008.02-.015l6.733-4.985v8.25H13.754z"/></svg>