<svg xmlns="http://www.w3.org/2000/svg" width="24" height="24" viewBox="-9 -10 42 42"><path fill="#FFF" d="M22.883 5.52a11.42 11.42 0 0 1 1.294 5.296c-.086 6.43-5.322 11.596-11.752 11.596-6.43 0-11.666-5.167-11.752-11.596 0-.26.01-.52.027-.774l7.115 4.046L22.883 5.52zm-1.415-2.142c.275.326.532.667.769 1.023L7.815 12.598.875 8.653c.078-.432.184-.859.318-1.278l6.622 3.765zm-1.925-1.83c.36.273.705.565 1.034.875L7.815 9.676l-6.172-3.51c.17-.388.361-.767.573-1.134l5.599 3.186zM16.983.16c.472.195.93.422 1.373.679L7.815 6.829 2.91 4.04c.257-.344.531-.675.822-.991l4.083 2.317z"/></svg>