<svg xmlns="http://www.w3.org/2000/svg" xmlns:xlink="http://www.w3.org/1999/xlink" viewBox="0 0 42 42"><path fill="#80868E" d="M14.854 31.373v-4.231a.169.169 0 0 0-.054-.129 9.016 9.016 0 0 1-1.31-1.511 8.37 8.37 0 0 1-1.028-2.028 8.19 8.19 0 0 1-.388-1.659c-.064-.497-.09-1.004-.064-1.511a8.527 8.527 0 0 1 1.733-4.737 8.862 8.862 0 0 1 1.815-1.788 9.123 9.123 0 0 1 2.663-1.355 9.515 9.515 0 0 1 1.597-.35A8.275 8.275 0 0 1 20.992 12c.406 0 .812.028 1.21.074.487.064.974.166 1.443.304a8.76 8.76 0 0 1 1.887.802 8.9 8.9 0 0 1 2.148 1.677 8.673 8.673 0 0 1 2.176 4.12 8.265 8.265 0 0 1 .135 2.664 8.431 8.431 0 0 1-.605 2.34 8.66 8.66 0 0 1-1.597 2.507 8.935 8.935 0 0 1-3.16 2.24c-.686.295-1.399.497-2.13.608-.596.101-1.2.138-1.805.11a9.324 9.324 0 0 1-1.742-.24c-.118-.027-.235-.054-.343-.082-.045-.01-.072-.01-.118.018-.767.47-1.525.94-2.292 1.41-.425.268-.858.526-1.291.793l-.054.028zm.514-7.797c0 .009.01.009.01.018a580.834 580.834 0 0 0 4.152-2.36c.054-.027.08-.027.126.02l2.265 2.312c.046.047.064.047.109 0 .568-.635 1.128-1.271 1.697-1.907.93-1.051 1.868-2.092 2.798-3.143.054-.065.108-.12.162-.184a.148.148 0 0 0-.108.046c-1.354.765-2.708 1.53-4.053 2.304-.054.027-.081.027-.126-.019l-2.266-2.313c-.045-.046-.063-.046-.108 0-.569.636-1.128 1.272-1.697 1.908-.93 1.05-1.869 2.092-2.798 3.143-.054.055-.109.11-.163.175z"/></svg>