<svg width="39" height="39" viewBox="0 0 39 39" fill="none" xmlns="http://www.w3.org/2000/svg">
	<path fill-rule="evenodd" clip-rule="evenodd" d="M10.1364 10.5306L10.2916 10.5342C11.8785 10.699 15.0401 11.3001 18.5124 13.4747L18.7213 13.6081L18.7239 30.5C16.4903 28.8664 13.8372 27.7936 10.7625 27.2814L10.0836 27.1784C9.6473 27.119 9.30331 26.7857 9.23225 26.3593L9.21875 26.1955V11.5279C9.21875 11.0459 9.55023 10.6475 9.98719 10.5512L10.1364 10.5306ZM29.7683 11.3071L29.781 11.4681V26.0716C29.781 26.5626 29.4333 26.9823 28.9548 27.0554C27.2836 27.3129 23.4122 28.1117 20.4655 30.2708L20.1658 30.4984L20.2774 30.4125L20.2764 13.6049C22.4012 12.0402 24.9737 11.0289 27.9932 10.5707L28.6642 10.479C29.2013 10.4133 29.6848 10.7845 29.7683 11.3071ZM28.3651 16.6145C26.4311 18.0622 24.9532 19.4129 23.9313 20.6666C23.5826 20.415 22.8066 19.8245 21.6033 18.8952L21.6433 21.3626L23.9373 23.4819C25.185 21.6131 26.6609 20.1359 28.3651 19.0503C28.3704 18.537 28.3704 17.7251 28.3651 16.6145Z" fill="#9EA3AA"/>
</svg>