<svg xmlns="http://www.w3.org/2000/svg" width="42" height="42" viewBox="2 2 42 42"><g fill="#FFF" fill-rule="evenodd"><path fill-rule="nonzero" d="M35.115 33.39a.964.964 0 0 0-.051-.094c-.264-.448-.768-.998-1.511-1.65l-.016-.015-.008-.007-.008-.008h-.008a8.877 8.877 0 0 1-.64-.612c-.164-.2-.201-.4-.112-.605.064-.154.301-.48.712-.978.217-.264.388-.476.515-.635.912-1.145 1.308-1.877 1.187-2.195l-.048-.075c-.031-.044-.113-.085-.245-.123a1.318 1.318 0 0 0-.506-.018l-2.279.014a.313.313 0 0 0-.158.004l-.103.023-.04.018-.031.023a.344.344 0 0 0-.087.078.506.506 0 0 0-.08.13c-.247.603-.53 1.163-.846 1.68a15.81 15.81 0 0 1-.538.804c-.163.226-.3.393-.411.5a2.82 2.82 0 0 1-.3.257c-.09.065-.16.093-.207.083a6.09 6.09 0 0 1-.134-.03.509.509 0 0 1-.178-.183.786.786 0 0 1-.091-.292 3.034 3.034 0 0 1-.024-.66c.006-.155.008-.26.008-.314 0-.19.004-.395.012-.616.008-.222.014-.397.02-.526a9.93 9.93 0 0 0 .008-.411c0-.145-.01-.258-.028-.34a1.117 1.117 0 0 0-.083-.239.41.41 0 0 0-.162-.18.946.946 0 0 0-.265-.1 5.568 5.568 0 0 0-1.068-.097c-.981-.01-1.612.05-1.891.18-.111.054-.211.129-.3.223-.096.11-.11.17-.04.18.316.044.54.151.672.32l.047.09c.037.065.074.18.111.344.037.164.06.346.071.545.027.363.027.674 0 .933-.026.259-.05.46-.075.605a1.16 1.16 0 0 1-.202.515.133.133 0 0 1-.04.037.624.624 0 0 1-.213.038.519.519 0 0 1-.269-.105 1.861 1.861 0 0 1-.328-.287 3.854 3.854 0 0 1-.384-.512 8.776 8.776 0 0 1-.443-.776l-.126-.217a18.24 18.24 0 0 1-.325-.608 11.412 11.412 0 0 1-.364-.773.496.496 0 0 0-.19-.24l-.04-.022a.879.879 0 0 0-.309-.112l-2.167.015c-.221 0-.371.048-.45.142l-.032.045a.23.23 0 0 0-.024.12c0 .054.016.121.047.2.317.703.661 1.38 1.033 2.032.372.652.695 1.177.97 1.575.273.399.553.775.838 1.128.285.353.473.58.565.68.093.1.165.174.218.223l.198.18c.126.12.312.262.558.429.245.167.517.331.815.493.298.162.644.293 1.04.395.396.103.78.144 1.155.124h.91c.185-.015.324-.07.42-.164l.03-.038a.48.48 0 0 0 .06-.138.718.718 0 0 0 .028-.205 2.326 2.326 0 0 1 .051-.579c.04-.172.085-.301.135-.388a.96.96 0 0 1 .305-.329.533.533 0 0 1 .063-.026c.126-.04.275-.001.447.116.171.117.332.262.483.433.15.172.33.365.541.579.212.214.396.373.554.478l.158.09c.106.06.243.114.412.164.169.05.316.062.443.037l2.025-.03c.2 0 .357-.031.467-.093.11-.062.177-.131.198-.206a.547.547 0 0 0 .004-.254.896.896 0 0 0-.056-.197z"/><path d="M25.906 16.079c0 .542-.458.985-1.018.985h-8.181c-.56 0-1.019-.443-1.019-.985v-.05c0-.543.459-.986 1.019-.986h8.18c.561 0 1.02.443 1.02.986v.05zm-1.778 4.393c0 .542-.458.985-1.018.985h-6.403c-.56 0-1.02-.443-1.02-.985v-.051c0-.542.46-.985 1.02-.985h6.403c.56 0 1.018.443 1.018.985v.051zM31 24H20a2 2 0 0 0-2 2v2.5l1.5 2.5h-5.386C13.5 31 13 30.515 13 29.923V13.077c0-.592.501-1.077 1.114-1.077h15.772C30.5 12 31 12.485 31 13.077V24z"/></g></svg>