<svg xmlns="http://www.w3.org/2000/svg" width="42" height="42" viewBox="0 0 42 42"><g fill="#80868E" fill-rule="evenodd"><path d="M27.556 16.2v2.4H26V21h1.556v8h3.11v-8H33c-.294-.004-.098-1.296 0-2.4h-2.333v-2.4c-.034-.026.304-.395.777 0H33V13h-2.333c-3.23 0-3.154 2.696-3.111 3.2"/><path fill-rule="nonzero" d="M11.364 13C9.08 13 7 15.08 7 17.364v7.272C7 26.92 9.08 29 11.364 29h7.272C20.92 29 23 26.92 23 24.636v-7.272C23 15.08 20.92 13 18.636 13h-7.272zm.17 1.455h6.931c1.733 0 3.08 1.347 3.08 3.08v6.93c0 1.733-1.347 3.08-3.08 3.08h-6.93c-1.733 0-3.08-1.347-3.08-3.08v-6.93c0-1.733 1.347-3.08 3.08-3.08zm7.83 1.454a.727.727 0 1 0-.001 1.454.727.727 0 0 0 0-1.454zM15 16.636A4.376 4.376 0 0 0 10.636 21c0 2.4 1.964 4.364 4.364 4.364S19.364 23.4 19.364 21 17.4 16.636 15 16.636zm0 1.455A2.896 2.896 0 0 1 17.91 21 2.896 2.896 0 0 1 15 23.91 2.896 2.896 0 0 1 12.09 21 2.896 2.896 0 0 1 15 18.09z"/></g></svg>