<svg xmlns="http://www.w3.org/2000/svg" xmlns:xlink="http://www.w3.org/1999/xlink" viewBox="0 0 42 42"><path fill="#80868E" fill-rule="nonzero" d="M29.157 27.02c.57.587.553 1.56-.038 2.168l-.819.824-.018-.016a4.742 4.742 0 0 1-2.366.99c-.187.02-4.524.438-9.907-5.092-3.894-4-5.33-6.948-4.95-10.174.044-.402.14-.804.296-1.224.169-.442.395-.852.666-1.207L12 13.266l.808-.835c.593-.609 1.54-.626 2.11-.04l2.868 2.946c.57.587.553 1.558-.039 2.167l-.477.49-.97.995c.051.091.102.187.156.286.507.939 1.2 2.224 2.519 3.578 1.314 1.35 2.563 2.063 3.476 2.582l.285.163 1.445-1.484c.591-.608 1.537-.625 2.109-.04l2.868 2.946zm-7.53-15.48a.799.799 0 0 1-.465-1.015.769.769 0 0 1 .99-.478c3.898 1.439 6.517 4.354 7.814 8.68a.797.797 0 0 1-.513.992.77.77 0 0 1-.967-.525c-1.156-3.859-3.428-6.388-6.858-7.654zm-1.2 3.804a.8.8 0 0 1-.424-1.035.767.767 0 0 1 1.01-.433c2.37.994 4.117 2.838 5.219 5.491a.8.8 0 0 1-.41 1.04.767.767 0 0 1-1.015-.419c-.946-2.279-2.399-3.813-4.38-4.644z"/></svg>