<svg width="46" height="46" viewBox="0 0 46 46" fill="none" xmlns="http://www.w3.org/2000/svg">
	<path d="M20.1893 22.9621L22.9621 20.1894L25.7345 22.9618L22.9617 25.7345L20.1893 22.9621Z" fill="white"/>
	<path fill-rule="evenodd" clip-rule="evenodd" d="M24.9746 8.14007C23.7527 7.43459 22.2472 7.43459 21.0253 8.14007L11.1182 13.8599C9.89629 14.5654 9.14355 15.8692 9.14355 17.2801V28.7199C9.14355 30.1308 9.89629 31.4346 11.1182 32.1401L21.0253 37.8599C22.2472 38.5654 23.7527 38.5654 24.9746 37.8599L34.8817 32.1401C36.1036 31.4346 36.8564 30.1308 36.8564 28.7199V17.2801C36.8564 15.8692 36.1036 14.5654 34.8817 13.8599L24.9746 8.14007ZM25.5663 14.9037C25.2859 14.6233 24.8313 14.6233 24.5509 14.9037L22.9621 16.4925L21.3734 14.9038C21.093 14.6234 20.6383 14.6234 20.3579 14.9038L19.525 15.7368C19.2445 16.0172 19.2445 16.4718 19.525 16.7523L21.1136 18.3409L18.3408 21.1137L16.7521 19.5249C16.4717 19.2445 16.017 19.2445 15.7366 19.5249L14.9036 20.3579C14.6232 20.6383 14.6232 21.0929 14.9036 21.3734L16.4924 22.9621L14.9049 24.5496C14.6245 24.8301 14.6245 25.2847 14.9049 25.5651L15.7378 26.3981C16.0183 26.6785 16.4729 26.6785 16.7533 26.3981L18.3408 24.8106L21.1133 27.583L19.5256 29.1707C19.2452 29.4511 19.2452 29.9057 19.5256 30.1862L20.3586 31.0191C20.639 31.2995 21.0936 31.2995 21.374 31.0191L22.9617 29.4314L24.5496 31.0193C24.83 31.2998 25.2847 31.2998 25.5651 31.0193L26.3981 30.1864C26.6785 29.906 26.6785 29.4513 26.3981 29.1709L24.8102 27.583L27.5829 24.8102L29.1709 26.3982C29.4514 26.6787 29.906 26.6787 30.1864 26.3982L31.0194 25.5653C31.2998 25.2849 31.2998 24.8302 31.0194 24.5498L29.4314 22.9618L31.02 21.3731C31.3004 21.0927 31.3004 20.6381 31.02 20.3576L30.1871 19.5247C29.9066 19.2443 29.452 19.2443 29.1716 19.5247L27.5829 21.1133L24.8105 18.3409L26.3993 16.7521C26.6797 16.4717 26.6797 16.017 26.3993 15.7366L25.5663 14.9037Z" fill="white"/>
</svg>
