<svg xmlns="http://www.w3.org/2000/svg" width="42" height="42" viewBox="0 0 42 42"><path fill="#D61921" d="M7 14v1.994h2.92L9.94 29H12V14H7zm13.704.01l-.373.03-.367.054-.357.071-.351.09-.343.109-.334.129-.327.143-.315.16-.308.179-.296.193-.286.207-.276.223-.266.236-.253.25-.241.262-.232.274-.217.287-.205.296-.193.307-.178.317-.166.325-.15.334-.136.341-.122.352-.108.355-.091.362-.075.37-.059.372-.044.377-.025.38-.01.385.01.382.029.376.044.368.063.365.081.354.098.349.111.339.128.33.144.32.158.313.173.303.186.294.2.28.21.272.225.26.236.247.247.236.258.224.267.21.278.198.289.185.296.169.306.156.312.14.321.126.328.112.333.094.34.077.346.062.353.043.355.028.359.008H38v-2.029H21.084l-.276-.006-.272-.024-.268-.036-.261-.05-.256-.064-.251-.077-.244-.087-.237-.103-.232-.112-.225-.124-.217-.132-.209-.144-.2-.155-.195-.161-.187-.171-.176-.18-.169-.186-.16-.193-.15-.202-.142-.205-.13-.212-.122-.217-.111-.222-.1-.225-.089-.23-.079-.233-.067-.236-.055-.24-.042-.238-.033-.242-.018-.242-.008-.242.006-.27.016-.268.028-.268.04-.266.048-.263.06-.261.07-.258.08-.255.092-.25.102-.247.111-.24.124-.233.13-.23.142-.222.152-.214.16-.206.173-.197.18-.191.189-.18.198-.17.21-.158.217-.148.227-.137.235-.124.243-.112.254-.098.262-.086.27-.07.277-.056.286-.04.297-.027.302-.006.302.006.294.022.284.038.278.054.27.066.26.084.251.094.244.11.235.122.225.132.217.146.209.157.199.167.188.178.181.186.173.195.16.205.152.215.142.22.134.228.123.235.112.24.104.249.093.25.083.258.071.261.063.266.051.268.042.272.03.274.019.274.01.279h1.903l-.01-.403-.025-.396-.044-.393-.059-.383-.075-.377-.093-.37-.106-.363-.124-.353-.136-.345-.152-.335-.166-.327-.179-.315-.194-.305-.205-.293-.22-.283-.23-.27-.244-.257-.254-.242-.265-.232-.278-.216-.286-.202-.299-.186-.306-.171-.318-.155-.325-.139-.334-.122-.346-.105-.35-.086-.36-.068-.364-.05-.374-.03-.381-.008-.38.01zM5 17v2.01h2.01V29H9l-.02-12H5zm15.84.007l-.212.018-.206.029-.203.042-.199.051-.195.06-.188.074-.187.082-.18.092-.177.102-.17.11-.165.12-.158.127-.152.135-.148.143-.14.151-.132.159-.127.164-.118.172-.112.178-.105.185-.095.19-.087.193-.08.2-.07.206-.064.21-.052.213-.043.216-.034.22-.023.223-.014.227-.004.23.006.231.014.228.027.225.036.22.045.216.055.212.062.207.073.205.082.198.089.192.1.187.105.183.113.173.12.17.128.162.134.154.141.15.149.14.152.131.16.125.164.116.17.106.177.099.18.091.185.077.19.071.194.06.196.05.201.04.205.027.207.018.21.007H38v-2.09H21.087l-.102-.004-.103-.007-.101-.013-.102-.018-.1-.022-.098-.03-.1-.03-.095-.039-.095-.04-.094-.046-.091-.05-.09-.052-.087-.058-.085-.063-.08-.064-.078-.07-.075-.071-.073-.078-.067-.078-.065-.083-.06-.084-.057-.089-.051-.091-.047-.094-.043-.096-.038-.1-.03-.1-.029-.105-.02-.105-.016-.11-.008-.108-.004-.112.002-.14.008-.136.012-.136.016-.13.02-.132.027-.127.03-.125.035-.123.04-.12.043-.116.048-.111.053-.11.055-.106.06-.1.066-.098.069-.094.073-.09.075-.084.08-.078.084-.075.09-.07.09-.064.096-.06.1-.054.1-.049.106-.042.11-.036.113-.029.116-.024.12-.018.121-.009.126-.004.126.004.124.01.117.017.118.024.111.03.11.035.105.042.104.05.097.053.095.06.093.065.088.069.083.075.081.078.077.085.073.09.067.093.065.098.061.1.057.107.052.109.047.111.045.116.038.12.034.123.031.125.027.127.02.131.018.131.012.136.006.136.002.14h1.902l-.003-.251-.017-.245-.028-.243-.036-.24-.047-.235-.057-.227-.067-.225-.075-.218-.085-.214-.093-.207-.1-.2-.11-.197-.117-.187-.124-.18-.13-.174-.137-.165-.146-.158-.15-.149-.156-.143-.163-.13-.168-.126-.173-.113-.176-.105-.182-.096-.187-.085-.189-.073-.194-.065-.197-.053-.199-.04-.203-.031-.205-.018-.207-.007-.212.007z"/></svg>