<svg xmlns="http://www.w3.org/2000/svg" xmlns:xlink="http://www.w3.org/1999/xlink" viewBox="0 0 42 42"><path fill="#80868E" d="M20.445 19.264c.17-.007.341 0 .511 0h.511c.075 0 .102-.027.102-.103v-1.005c0-.076-.02-.103-.095-.103-.347.007-.695 0-1.035 0-.068 0-.096.027-.096.096v1.02c0 .081.028.095.102.095zm8.46-3.01a3.02 3.02 0 0 0-.164-.856 3.481 3.481 0 0 0-1.396-1.813c-.62-.41-1.314-.582-2.05-.582-2.786-.007-5.565 0-8.35 0-.307 0-.613.014-.92.048a3.25 3.25 0 0 0-1.13.349 3.459 3.459 0 0 0-1.37 1.273 3.324 3.324 0 0 0-.517 1.786c-.007 2.58-.007 5.159 0 7.732 0 .54-.027 1.081.02 1.622.034.444.15.869.354 1.266.252.485.593.903 1.029 1.231.586.431 1.24.67 1.961.685.988.013 1.976.006 2.97 0 .068 0 .13 0 .17.068.157.253.314.513.47.766.3.486.606.972.906 1.465.041.061.068.082.116 0 .13-.212.266-.425.395-.637.32-.52.647-1.033.967-1.553.048-.075.096-.11.184-.11.92.007 1.846 0 2.765.007.28 0 .552-.02.831-.075.872-.178 1.574-.643 2.105-1.355.477-.643.674-1.382.681-2.176.007-1.471 0-2.942 0-4.728-.027-1.266.034-2.84-.027-4.414zm-11.143 3.12c0-.09.027-.117.116-.117.354.007.708 0 1.062.007.096 0 .13-.02.13-.123a22.782 22.782 0 0 1 0-.965c0-.096-.028-.123-.123-.116-.177.007-.361 0-.538 0h-.552c-.068 0-.095-.02-.095-.096 0-.376.007-.746 0-1.122 0-.096.048-.096.116-.096h1.049c.102 0 .136-.034.136-.137-.007-.349 0-.698-.007-1.047 0-.089.014-.137.123-.13.347.007.694.007 1.042 0 .095 0 .122.028.122.123-.007.35 0 .698-.007 1.047 0 .117.041.15.15.15.32-.006.634-.006.954 0 .095 0 .13-.02.13-.122-.008-.35 0-.698-.008-1.047 0-.11.035-.144.143-.144.348.007.695.007 1.043 0 .102 0 .122.034.122.13-.007.356 0 .712-.007 1.068 0 .088.028.116.116.116.361-.007.715 0 1.076 0 .089 0 .116.02.116.11-.007.355-.007.711 0 1.067 0 .102-.034.13-.13.13-.347-.007-.7 0-1.048-.007-.089 0-.123.02-.123.116.007.329.007.657 0 .979 0 .089.027.116.116.11.347-.008.702 0 1.049-.008.102 0 .143.028.136.137-.007.356-.007.712 0 1.068 0 .082-.027.11-.109.11-.347-.008-.701 0-1.049-.008-.116 0-.15.041-.15.151.007.349 0 .698.007 1.047 0 .089-.02.116-.109.116a28.21 28.21 0 0 0-1.076 0c-.095 0-.116-.034-.116-.123.007-.356 0-.712.007-1.067 0-.096-.027-.124-.123-.124-.326.007-.653.007-.973 0-.11 0-.137.041-.137.144.007.35 0 .705.007 1.054 0 .089-.02.116-.109.116a26.8 26.8 0 0 0-1.049 0c-.095 0-.116-.034-.116-.123.007-.349 0-.698.007-1.047 0-.11-.034-.144-.143-.144-.347.007-.695 0-1.042.007-.088 0-.13-.013-.122-.116-.007-.349-.007-.712-.014-1.074zm9.229 3.859c-.123.28-.313.52-.497.76a7.077 7.077 0 0 1-.654.704 6.14 6.14 0 0 1-1.362 1.013 6.332 6.332 0 0 1-1.676.657 6.856 6.856 0 0 1-1.124.171c-.238.02-.477.007-.708.02a7.178 7.178 0 0 1-1.873-.198 6.676 6.676 0 0 1-2.466-1.197 6.929 6.929 0 0 1-.899-.835 4.72 4.72 0 0 1-.742-1.013c-.116-.219-.19-.458-.082-.705a.728.728 0 0 1 .892-.397c.273.082.457.274.613.5.463.684 1.083 1.197 1.792 1.608a5.691 5.691 0 0 0 1.798.657c.272.055.545.082.824.089a5.507 5.507 0 0 0 1.996-.329 5.906 5.906 0 0 0 1.757-.999c.415-.335.749-.732 1.049-1.17.197-.294.585-.451.885-.376.545.137.681.588.477 1.04z"/></svg>