<svg xmlns="http://www.w3.org/2000/svg" width="42" height="42" viewBox="-10 -10 42 42"><path fill="#fff" fill-rule="evenodd" d="M52,361.252754 C57.9355403,361.252754 62.7472465,366.06446 62.7472465,372 C62.7472465,377.93554 57.9355403,382.747246 52,382.747246 C46.0644597,382.747246 41.2527535,377.93554 41.2527535,372 C41.2527535,366.06446 46.0644597,361.252754 52,361.252754 Z M50.2362034,366.712596 C49.6839186,366.712596 49.2362034,367.160311 49.2362034,367.712596 L49.2362034,367.712596 L49.2362034,376.287404 C49.2362034,376.511905 49.3117471,376.729876 49.450674,376.906228 C49.7924413,377.340064 50.4211919,377.4147 50.8550277,377.072933 L50.8550277,377.072933 L56.2974144,372.785529 C56.3593616,372.736729 56.4153187,372.680772 56.4641194,372.618824 C56.8058867,372.184988 56.7312503,371.556238 56.2974144,371.214471 L56.2974144,371.214471 L50.8550277,366.927067 C50.6786754,366.78814 50.4607046,366.712596 50.2362034,366.712596 Z" transform="translate(-41 -361)"/></svg>
