<svg width="42" height="42" viewBox="0 0 42 42" fill="none" xmlns="http://www.w3.org/2000/svg">
    <path fill-rule="evenodd" clip-rule="evenodd" d="M29.1793 11.5932C26.9825 9.35013 23.9457 8.13245 20.8443 8.13245C14.2539 8.13245 8.95566 13.4518 9.02028 19.9247C9.02028 21.9755 9.60179 23.9623 10.571 25.7568L8.89105 31.8452L15.1584 30.243C16.0308 30.7237 16.9517 31.0762 17.8968 31.3085C17.1353 30.6044 16.5933 29.6664 16.3849 28.6085C16.2099 28.5182 16.0379 28.4222 15.8692 28.3203L15.4815 28.128L11.734 29.0894L12.7032 25.4363L12.4447 25.0518C9.60179 20.5015 10.9586 14.4772 15.6107 11.6573C20.2628 8.83742 26.2718 10.1833 29.1147 14.7976C29.2246 14.9761 29.3283 15.1565 29.4257 15.3387H30.3502C30.8504 15.3387 31.3335 15.4121 31.7892 15.5489C31.2074 14.0756 30.3252 12.7298 29.1793 11.5932ZM19.2508 17.9066C18.6986 17.9066 18.2508 18.3543 18.2508 18.9066V27.7424C18.2508 28.2947 18.6986 28.7424 19.2508 28.7424H21.718V30.1258C21.718 30.402 21.9418 30.6258 22.218 30.6258H28.963C29.2391 30.6258 29.463 30.402 29.463 30.1258V28.7424H31.6735C32.2258 28.7424 32.6735 28.2947 32.6735 27.7424V18.9066C32.6735 18.3543 32.2258 17.9066 31.6735 17.9066H19.2508ZM30.6896 19.7232H20.2316V26.9259H30.6896V19.7232Z" fill="#80868E"/>
</svg>
