<svg width="42" height="42" viewBox="-11 -7 42 42" fill="none" xmlns="http://www.w3.org/2000/svg"><path fill="#80868E" fill-rule="evenodd" clip-rule="evenodd" d="M14.667 17.053c.275-.059.472.142.777.42A14.827 14.827 0 0 1 17 19.159c-.107 0-.091.031 0 0-.057.104-.04.168 0 .42-.007-.067-.008.016 0 0-.047.162-.107.228-.389.422.077-.073-.065-.041-.389 0h-1.555c-.288.012-.425 0-.39 0-.346-.097-.472-.15-.388 0l-.389-.421c-.083.023-.254-.134-.389-.421-.254-.131-.42-.32-.389-.421-.307-.235-.456-.376-.778-.421.006-.184-.132-.222-.388 0 .125-.178.106-.169 0 0 .058-.144.017-.11 0 0-.1.007-.153.08-.39 0 .144.25.103.377 0 .42.03.292.015.48 0 .843.02-.08.011-.014 0 0-.023.108-.041.153 0 0V20c-.177-.11-.306-.056-.388 0H10c-.493-.023-.848-.063-1.167 0-.41-.262-.73-.391-1.166-.421-.112-.286-.363-.446-.778-.421-.036-.352-.208-.492-.389-.421v-.421c-.166.01-.233-.062-.389 0-.015-.258-.188-.479-.389-.842a3.16 3.16 0 0 1-.778-1.264c-.309-.211-.606-.723-.777-1.263-.515-.736-.832-1.398-1.167-2.105.015-.058 0-.123 0 0 0-.23.007-.269 0-.42.124-.01.263-.056.389 0h1.944a.497.497 0 0 1 .39 0c-.038-.002 0 .019 0 0 .14.114.197.192.388.42-.054.118.057.37 0 .421.31.47.41.668.389.842h.389c-.038.465.098.719.389.842-.028.305.09.472 0 .421.299.289.4.383.389.421.205.098.287.133.389 0 .034.133.1.12 0 0 .173.092.185.079.388 0-.173.04-.145-.014 0 0-.057-.188-.024-.302 0-.42.02-.166.042-.362 0-.422.091-.446.091-.751 0-1.263.057-.037.035-.215 0-.42-.033-.117-.067-.228 0-.422a6.017 6.017 0 0 1-.777-.42c-.05.14-.038.08 0 0 .132-.119.224-.192.389-.422.194.05.776-.009 1.555 0 .522.006.851.037 1.167 0 .038.12.12.154 0 0 .251.236.3.294.389.421-.02.024.006.102 0 0 .039.263.048.374 0 .421.048.236.045.368 0 .421.035.2.03.373 0 .421.015.384.011.584 0 .842.011-.018.01.084 0 .421 0-.035-.002.082 0 0 .003.247.011.345 0 .421.04.154.068.248 0 .421.151-.022.206.038.389 0-.076.092-.035.101 0 0 .052.12.115.094.388 0-.107-.032-.015-.117 0-.42.19.094.316-.07.39-.422.227-.09.393-.352.388-.842.476-.318.736-.864.778-1.263.205-.24.23-.283.389-.42-.1.065-.075.04 0 0 .015-.015.047-.023 0 0 .174-.052.222-.053.389 0h1.944c.212-.08.367-.074.39 0 .22 0 .296.04.388 0 .092.467-.273 1.183-1.167 2.104-.063.354-.22.56-.389.842-.41.464-.629.781-.777.842.008.29.042.488 0 .843zM6 5.75C6 3.69 7.798 2 10 2s4 1.69 4 3.75V7H6V5.75zM18.431 7.2c.035-.443-.159-.595-.392-.4h-2.745V5.6c.104-3.112-2.333-5.6-5.098-5.6-3.13 0-5.567 2.488-5.49 5.6v1.2H1.96c-.206-.194-.4.008-.392.4L0 22.4C0 23.69.622 24 1.569 24H18.43c.982 0 1.569-.31 1.569-1.6.017-.192-.486-5.26-1.569-15.2z"/></svg>