<svg xmlns="http://www.w3.org/2000/svg" width="42" height="42" viewBox="-7 -9 42 42">
  <path fill="#FFFFFF" fill-rule="evenodd" d="M22.2574895,10.4045861 C22.5359603,10.4045861 22.7731887,10.605734 22.818407,10.8798726 L22.818407,10.8798726 L23.0295378,12.1487029 C23.0321703,12.1644253 23.0438812,12.1770256 23.0593187,12.1809039 C23.6414803,12.3267888 24.1813811,12.5743836 24.6588061,12.9079473 L24.6588061,12.9079473 L25.7600903,12.2156388 C25.9949245,12.0672753 26.3027861,12.1113193 26.488437,12.3195998 L26.488437,12.3195998 L27.0006045,12.8960285 C27.1854536,13.1045171 27.1934161,13.4153395 27.0180786,13.6313768 L27.0180786,13.6313768 L26.2100311,14.633316 C26.200097,14.6456313 26.1984178,14.6625649 26.2056436,14.6766407 C26.3775578,15.0112065 26.5100061,15.3691182 26.6014936,15.7431498 L26.6014936,15.7431498 L27.8892411,15.9579954 C28.1637903,16.0032127 28.3645211,16.2404768 28.3649328,16.5189292 L28.3649328,16.5189292 L28.3649328,17.2901672 C28.3649328,17.568638 28.164202,17.8059032 27.8896745,17.8511204 L27.8896745,17.8511204 L26.6277753,18.0618223 C26.6120886,18.0644526 26.5995111,18.0761634 26.5956545,18.0916009 C26.4783511,18.5605499 26.2929495,19.00129 26.0509653,19.4048913 C26.0427753,19.4185326 26.0434036,19.4356731 26.0526553,19.448633 L26.0526553,19.448633 L26.8141628,20.5163338 C26.9772045,20.7424743 26.9506195,21.0523509 26.754287,21.2487321 L26.754287,21.2487321 L26.2087853,21.7942273 C26.0120086,21.9914211 25.7017528,22.0168111 25.4764303,21.8549579 L25.4764303,21.8549579 L24.4067145,21.0909458 C24.3937903,21.0817136 24.3766953,21.0810701 24.3630345,21.0892059 C23.9614861,21.3285511 23.5247186,21.5116128 23.0596762,21.6280603 C23.0442387,21.6319201 23.0325278,21.6445009 23.0298953,21.6602038 L23.0298953,21.6602038 L22.818407,22.9292811 C22.7731887,23.2034381 22.5359712,23.4045861 22.2574895,23.4045861 L22.2574895,23.4045861 L21.4856687,23.4045861 C21.2077612,23.4045861 20.969742,23.2034186 20.9255312,22.9292616 L20.9255312,22.9292616 L20.708897,21.6343414 L20.42959,21.5572258 C19.9696791,21.4158205 19.5386208,21.2104299 19.1491353,20.9472178 C19.1360053,20.9383258 19.1188995,20.9379845 19.105477,20.9464226 L19.105477,20.9464226 L18.0104112,21.6343414 C17.7755553,21.7823269 17.4675203,21.7390781 17.2818587,21.5304183 L17.2818587,21.5304183 L16.770092,20.9539713 C16.585232,20.7456723 16.5778978,20.4346418 16.7526287,20.2188115 L16.7526287,20.2188115 L17.5566895,19.2229465 C17.5667537,19.2104784 17.5683353,19.1932816 17.5608495,19.17913 C17.3811787,18.839739 17.2445053,18.4751486 17.1485545,18.0940038 C17.1446762,18.0785663 17.1320987,18.0668923 17.116412,18.064263 L17.116412,18.064263 L15.8401912,17.8511573 C15.5664762,17.8059595 15.3649328,17.5686759 15.3649328,17.2902051 L15.3649328,17.2902051 L15.3649328,16.5189671 C15.3649328,16.2404768 15.5664762,16.0032127 15.8401912,15.9580149 L15.8401912,15.9580149 L17.1164553,15.7448908 C17.1321203,15.7422799 17.1446762,15.7306254 17.1485762,15.7152063 C17.2665295,15.2483579 17.4509453,14.8084693 17.6922145,14.4062288 C17.7004045,14.392569 17.6997653,14.3754101 17.6905137,14.3624502 L17.6905137,14.3624502 L16.9565662,13.3344037 C16.7948678,13.1086793 16.8200878,12.7986325 17.0166587,12.6016468 L17.0166587,12.6016468 L17.561922,12.0559804 C17.7589045,11.8594107 18.0689437,11.8341918 18.2946562,11.9954578 L18.2946562,11.9954578 L19.3206487,12.7276861 C19.333627,12.7369562 19.350787,12.7375618 19.3644478,12.7293501 C19.7698203,12.4857095 20.2123403,12.2993567 20.6834712,12.181282 C20.698887,12.1774221 20.7105762,12.1648598 20.7132087,12.1491763 L20.7132087,12.1491763 L20.9255095,10.8798726 C20.9697203,10.605734 21.2077612,10.4045861 21.4856687,10.4045861 L21.4856687,10.4045861 Z M24.3657298,17.4663323 C24.7591205,15.6169154 23.1519957,14.0103068 21.3030277,14.403845 C20.4287389,14.5899124 19.5501823,15.468531 19.3641508,16.3428171 C18.9707716,18.1917378 20.5772704,19.7987038 22.4265913,19.4054035 C23.3965703,19.1991243 24.1593836,18.4363157 24.3657298,17.4663323 Z M9.82953953,0.0908556283 C10.205189,0.0908556283 10.5252034,0.362198608 10.5862017,0.732003978 L10.5862017,0.732003978 L10.8710114,2.44362102 C10.8745626,2.46483013 10.8903601,2.48182752 10.9111849,2.48705928 C11.6965049,2.683854 12.4248162,3.01785247 13.0688493,3.46782075 L13.0688493,3.46782075 L14.5544512,2.53391572 C14.8712361,2.33377735 15.2865329,2.39319149 15.5369708,2.67415624 L15.5369708,2.67415624 L16.2278706,3.45174258 C16.4772269,3.73298791 16.4879681,4.15227876 16.2514427,4.44370704 L16.2514427,4.44370704 L15.1614089,5.79529539 C15.1480081,5.81190843 15.1457429,5.83475136 15.1554903,5.85373916 C15.3873978,6.30505922 15.5660669,6.78787216 15.689481,7.29243054 L15.689481,7.29243054 L17.4266168,7.58225129 C17.7969761,7.64324811 18.0677564,7.96331081 18.0683117,8.33893541 L18.0683117,8.33893541 L18.0683117,9.37931416 C18.0683117,9.75496362 17.7975314,10.0750278 17.4272014,10.1360246 L17.4272014,10.1360246 L15.7249343,10.4202555 C15.7037734,10.4238038 15.6868067,10.4396014 15.6816042,10.4604261 C15.5233652,11.0930253 15.2732635,11.6875716 14.9468336,12.2320185 C14.9357855,12.2504203 14.936633,12.2735423 14.9491133,12.2910249 L14.9491133,12.2910249 L15.9763659,13.7313238 C16.1963046,14.036381 16.1604422,14.454396 15.8955951,14.7193089 L15.8955951,14.7193089 L15.1597284,15.4551668 C14.8942821,15.7211757 14.4757555,15.7554262 14.1718017,15.5370907 L14.1718017,15.5370907 L12.7287847,14.5064594 C12.7113503,14.4940055 12.6882896,14.4931374 12.6698616,14.5041124 C12.1281839,14.8269824 11.5389966,15.0739276 10.9116672,15.231012 C10.8908424,15.2362189 10.8750448,15.25319 10.8714936,15.2743728 L10.8714936,15.2743728 L10.5862017,16.986323 C10.5252034,17.3561532 10.2052036,17.6274962 9.82953953,17.6274962 L9.82953953,17.6274962 L8.78837455,17.6274962 C8.41348502,17.6274962 8.09240375,17.3561269 8.03276455,16.9862967 L8.03276455,16.9862967 L7.74053106,15.2394851 L7.41702622,15.1515968 C6.77662006,14.9604751 6.17687232,14.6777849 5.63645568,14.3125743 C5.61874368,14.3005793 5.59566838,14.3001189 5.5775618,14.3115016 L5.5775618,14.3115016 L4.10034826,15.2394851 C3.78353424,15.4391134 3.36800354,15.380772 3.11755108,15.0992958 L3.11755108,15.0992958 L2.427192,14.3216846 C2.17782097,14.040695 2.16792738,13.6211236 2.40363444,13.3299744 L2.40363444,13.3299744 L3.48829028,11.9865801 C3.50186656,11.9697609 3.50400018,11.9465629 3.49390201,11.9274728 C3.25153101,11.4696438 3.06716247,10.9778213 2.93772745,10.4636675 C2.93249568,10.4428427 2.91552898,10.4270948 2.89436811,10.423548 L2.89436811,10.423548 L1.17278148,10.1360743 C0.80354751,10.0751038 0.531671125,9.75501476 0.531671125,9.37936531 L0.531671125,9.37936531 L0.531671125,8.33898657 C0.531671125,7.96331081 0.80354751,7.64324811 1.17278148,7.5822776 L1.17278148,7.5822776 L2.89442656,7.294779 C2.91555821,7.29125705 2.93249568,7.27553545 2.93775667,7.25473553 C3.09687246,6.62496992 3.34564432,6.03157239 3.67110976,5.48896096 C3.68215784,5.47053434 3.68129562,5.44738743 3.66881538,5.42990486 L3.66881538,5.42990486 L2.67874049,4.04309855 C2.46061391,3.73860256 2.49463499,3.32035807 2.75980361,3.05462973 L2.75980361,3.05462973 L3.49534878,2.31854093 C3.76107273,2.05337377 4.17930698,2.01935416 4.48378691,2.23689764 L4.48378691,2.23689764 L5.86782243,3.22465331 C5.88532985,3.23715839 5.90847821,3.23797531 5.92690629,3.226898 C6.47374259,2.89823359 7.07068984,2.64684876 7.7062323,2.48756931 C7.72702784,2.48236238 7.7427962,2.46541615 7.74634737,2.44425965 L7.74634737,2.44425965 L8.03273533,0.732003978 C8.09237452,0.362198608 8.41348502,0.0908556283 8.78837455,0.0908556283 L8.78837455,0.0908556283 Z M12.6734975,9.61695603 C13.2041706,7.1221438 11.0362036,4.95487317 8.54199687,5.48574527 C7.36260551,5.73674511 6.17745697,6.92197735 5.92650565,8.10136511 C5.39584786,10.595508 7.56297046,12.7632607 10.0576532,12.2327095 C11.366128,11.9544446 12.3951421,10.9254368 12.6734975,9.61695603 Z"/>
</svg>
