<svg width="42" height="42" viewBox="0 0 42 42" fill="none" xmlns="http://www.w3.org/2000/svg">
    <path fill-rule="evenodd" clip-rule="evenodd" d="M25.8223 30.8024C27.2782 30.6038 28.4191 30.0202 29.4894 28.9268C30.2637 28.1357 30.7484 27.2795 31.0651 26.1432C31.1967 25.6711 31.2077 25.4413 31.2319 22.6696C31.2501 20.5776 31.2349 19.5979 31.1804 19.3505C31.1014 18.992 30.8776 18.6591 30.6223 18.5203C30.5437 18.4776 30.0402 18.4231 29.5034 18.3993C28.6039 18.3594 28.5032 18.3418 28.2193 18.1754C27.769 17.9115 27.6449 17.6265 27.6437 16.8527C27.6413 15.3743 27.0261 14.0018 25.8105 12.763C24.9444 11.8805 23.9783 11.2831 22.8757 10.9484C22.6117 10.8683 22.0207 10.841 20.041 10.8176C16.9347 10.7809 16.2452 10.8446 15.1877 11.2658C13.238 12.0424 11.8372 13.679 11.3262 15.7772C11.2302 16.1712 11.2116 16.8028 11.1889 20.4309C11.1605 24.9761 11.1918 25.6436 11.4758 26.5443C11.7105 27.2885 11.9472 27.7445 12.4349 28.3918C13.3641 29.6249 14.7566 30.5154 16.1488 30.7669C16.8113 30.8866 24.9852 30.9166 25.8223 30.8024ZM17.2316 18.3248C16.4873 18.1197 16.2092 17.0518 16.7563 16.4995C17.1059 16.1465 17.2026 16.1331 19.3911 16.1331C21.3559 16.1331 21.4219 16.1374 21.7105 16.2832C22.1276 16.4939 22.3088 16.7909 22.3088 17.2639C22.3088 17.691 22.1386 17.9904 21.759 18.2309C21.5551 18.3601 21.4333 18.3681 19.5083 18.3795C18.3196 18.3864 17.3727 18.3637 17.2316 18.3248ZM16.4699 24.6426C16.5214 24.9854 16.8189 25.3722 17.1384 25.5114C17.297 25.5805 18.1604 25.6363 21.2082 25.6006L24.6767 25.56L25.3422 25.4518C25.9898 25.085 26.1032 24.1917 25.5658 23.6899C25.512 23.6397 25.4662 23.5966 25.416 23.5596C25.1106 23.3352 24.639 23.3368 21.1937 23.3395C17.2931 23.3426 17.1539 23.3521 16.8367 23.6392C16.5851 23.8669 16.421 24.3159 16.4699 24.6426Z" fill="white"/>
</svg>
