<svg width="39" height="39" viewBox="0 0 39 39" fill="none" xmlns="http://www.w3.org/2000/svg">
	<path fill-rule="evenodd" clip-rule="evenodd" d="M26.9584 26.809H12.0475V15.7415H26.9584V26.809ZM25.4848 12.1792V11.4825H27.1615C28.5672 11.5717 29.6561 12.7992 29.6307 14.2692V28.2023C29.6307 28.9714 29.0335 29.5956 28.2946 29.5956H10.7114C9.9738 29.5956 9.37521 28.9714 9.37521 28.2023V14.2692C9.36986 14.1967 9.36719 14.1256 9.36719 14.0546C9.36986 12.6306 10.4789 11.4797 11.8444 11.4825H13.3837V12.1792C13.3837 13.3328 14.2802 14.2692 15.3879 14.2692C16.4956 14.2692 17.3921 13.3328 17.3921 12.1792V11.4825H21.4763V12.1792C21.4763 13.3328 22.3742 14.2692 23.4805 14.2692C24.5869 14.2692 25.4848 13.3328 25.4848 12.1792ZM16.37 10.3707V11.9033C16.37 12.469 15.9304 12.9274 15.3879 12.9274C14.8454 12.9274 14.4058 12.469 14.4058 11.9033V10.3707V10.3567C14.4085 9.79244 14.8521 9.33683 15.3946 9.33961C15.937 9.34379 16.3726 9.80498 16.37 10.3707ZM24.4078 10.4083V11.8615C24.4078 12.3951 23.9923 12.8285 23.4792 12.8285C22.9661 12.8271 22.5533 12.3938 22.5533 11.8601V10.4083C22.5533 9.87325 22.9688 9.44132 23.4805 9.44132C23.9923 9.44132 24.4078 9.87325 24.4078 10.4083ZM18.7125 23.8846H20.5725V17.9334H20.4019L17.7328 19.1041V20.2678L18.7125 20.0057V23.8846Z" fill="#80868E"/>
</svg>