<svg width="42" height="42" viewBox="-12 -11 42 42" fill="none" xmlns="http://www.w3.org/2000/svg"><path d="M18.586 15.061l-2.936-2.947c-.585-.585-1.553-.567-2.159.04l-1.479 1.485-.292-.163c-.934-.52-2.212-1.232-3.558-2.583-1.349-1.355-2.06-2.64-2.578-3.578-.055-.1-.108-.196-.16-.287l.993-.995.488-.49c.607-.609.623-1.58.04-2.167L4.009.428C3.425-.158 2.456-.14 1.85.468l-.827.836.022.022c-.277.356-.51.766-.682 1.208-.159.42-.258.822-.303 1.224-.388 3.227 1.081 6.176 5.067 10.177 5.51 5.53 9.95 5.113 10.142 5.092.417-.05.817-.15 1.223-.308a4.763 4.763 0 0 0 1.199-.682l.018.016.838-.824c.605-.608.622-1.58.04-2.168z" fill="#fff"/></svg>