<svg width="22" height="21" viewBox="-10 -10 42 42" fill="none" xmlns="http://www.w3.org/2000/svg"><path fill-rule="evenodd" clip-rule="evenodd" d="M10.961 17.014L4.365 20.41a.167.167 0 0 1-.222-.068.158.158 0 0 1-.017-.102l1.26-7.19L.05 7.956a.16.16 0 0 1-.003-.228.166.166 0 0 1 .094-.047l7.374-1.05 3.298-6.54a.167.167 0 0 1 .296 0l3.298 6.54 7.374 1.05c.09.013.152.095.14.183a.16.16 0 0 1-.049.092l-5.336 5.093 1.26 7.19a.162.162 0 0 1-.135.186.168.168 0 0 1-.105-.016l-6.595-3.395z" fill="#80868E"/></svg>