<svg xmlns="http://www.w3.org/2000/svg" width="42" height="42" viewBox="0 0 42 42"><path fill="#80868E" d="M29.9255904,2.7601004 C30.3972008,2.22953869 31.1046165,1.99373348 31.6351782,2.22953869 C32.1436332,2.45551868 32.3272419,3.0063449 31.9784638,3.57070638 L31.9299347,3.64436992 L28.4518079,8.71418185 L32.9321068,15.4935815 C33.3294823,16.0612607 33.1255382,16.6836053 32.5308378,16.8342077 L32.4604964,16.8494615 L30.3382495,17.4389745 C29.6603096,17.6084595 28.9282286,17.2365341 28.608973,16.6345092 L28.5697105,16.5547049 L26.1527071,12.1333573 L23.1461908,16.5547049 C22.8055832,17.1791521 22.1916487,17.1476143 21.778154,16.618014 L21.7313595,16.5547049 L20.84709,15.1398737 C20.5102254,14.5222886 20.5476548,13.6373507 20.9593782,13.0961522 L21.0239439,13.0176269 L24.561022,9.00893836 L22.0850673,3.99807773 C21.7903108,3.34961342 22.1440186,2.6421978 22.792483,2.40639259 C23.4127532,2.18083979 24.2487696,2.49465239 24.6814344,3.03828155 L24.7378759,3.11380821 L26.8601228,6.29717849 L29.9255904,2.7601004 Z M6.75772896,2.5242952 C10.0000505,2.5242952 12.6528591,5.70766548 12.6528591,9.59845137 C12.6528591,13.4892373 10.0000505,16.6726075 6.75772896,16.6726075 C3.51540738,16.6726075 0.862598812,13.4892373 0.862598812,9.59845137 C0.862598812,5.70766548 3.51540738,2.5242952 6.75772896,2.5242952 Z M6.75772896,4.82339595 C5.22499512,4.82339595 3.98701779,6.94564281 3.98701779,9.59845137 C3.98701779,12.2512599 5.22499512,14.4324581 6.75772896,14.4324581 C8.2904628,14.4324581 9.52844013,12.2512599 9.52844013,9.59845137 C9.52844013,6.94564281 8.2904628,4.82339595 6.75772896,4.82339595 Z M15.7183268,0.519950946 C16.5130777,0.519950946 16.7611745,1.06660499 16.7784618,1.79142776 L16.7794502,1.87583088 L16.7794502,8.30152274 C16.8362961,9.09736531 17.0027734,9.23541963 17.7546039,9.24426555 L20.0772617,9.24583029 C20.5219187,9.25379958 21.0899522,9.32021035 21.1385059,9.87363347 L21.1418465,9.95215918 L21.1418465,11.5438443 C21.0853515,12.1652893 20.6498693,12.3536059 19.93917,12.3682201 L19.8449179,12.3691625 L14.8340573,12.3691625 C13.9257705,12.3691625 13.4548071,11.8771739 13.4211668,11.1037597 L13.419226,11.0132826 L13.419226,1.99373348 C13.3624581,1.36928636 13.6336826,0.69017384 14.3908218,0.640725789 L14.4803495,0.637853549 L15.7183268,0.519950946 Z" transform="translate(4 12)"/></svg>