<svg width="42" height="42" viewBox="0 0 42 42" fill="none" xmlns="http://www.w3.org/2000/svg">
    <path fill-rule="evenodd" clip-rule="evenodd" d="M16.8378 11C14.3067 11 12 13.3694 12 15.9693V24.2515C12 26.8515 14.3067 29.2209 16.8378 29.2209H23.9353C23.6188 28.7355 23.2072 28.3154 22.72 27.9907L22.0805 27.5644H17.0274C15.1063 27.5644 13.6125 26.0299 13.6125 24.0566V16.1642C13.6125 14.1909 15.1063 12.6564 17.0274 12.6564H24.7109C26.6319 12.6564 28.1258 14.1909 28.1258 16.1642V18.7293L29.7385 18.3398V15.9693C29.7385 13.3694 27.4318 11 24.9007 11H16.8378ZM20.869 15.1411C23.271 15.1411 25.2784 16.963 25.6465 19.328L24.0713 19.7084C23.8805 18.0592 22.5295 16.7975 20.8691 16.7975C19.0763 16.7975 17.644 18.2688 17.644 20.1104C17.644 21.0048 17.9818 21.8118 18.5347 22.4053C18.3435 22.9267 18.292 23.5087 18.4163 24.0927C18.442 24.2135 18.4747 24.3319 18.5143 24.4473C17.0358 23.5945 16.0313 21.9673 16.0313 20.1104C16.0313 17.3771 18.208 15.1411 20.869 15.1411ZM24.9007 15.1411C24.9007 14.6833 25.2613 14.3128 25.707 14.3128C26.1527 14.3128 26.5133 14.6833 26.5133 15.1411C26.5133 15.5988 26.1527 15.9693 25.707 15.9693C25.2613 15.9693 24.9007 15.5988 24.9007 15.1411ZM23.19 23.6296L31.1239 21.8753L26.9903 28.8583L26.5452 25.9039C26.4775 25.4549 26.1964 25.0702 25.7956 24.8782L23.19 23.6296ZM32.8032 22.1832C33.4078 21.1618 32.5292 19.8931 31.3916 20.1447L22.0841 22.2027C20.8421 22.4774 20.6513 24.2161 21.8028 24.7679L24.9948 26.2974L25.5295 29.8457C25.7185 31.1008 27.3297 31.43 27.972 30.3448L32.8032 22.1832Z" fill="#fff"/>
</svg>
