<svg width="42" height="42" viewBox="0 0 42 42" fill="none" xmlns="http://www.w3.org/2000/svg">
<path d="M16.7239 7.80742H24.3183L16.4345 31.1661C16.3535 31.4062 16.1992 31.6147 15.9935 31.7625C15.7877 31.9102 15.5407 31.9897 15.2874 31.9898H9.37707C9.18512 31.9898 8.99593 31.9441 8.82515 31.8565C8.65436 31.7689 8.50689 31.6419 8.39493 31.486C8.28297 31.3301 8.20975 31.1498 8.18131 30.9599C8.15287 30.7701 8.17004 30.5763 8.2314 30.3944L15.5764 8.63109C15.6574 8.39096 15.8117 8.18229 16.0176 8.03447C16.2234 7.88666 16.4704 7.80743 16.7239 7.80742Z" fill="url(#paint0_linear_7968_314363)"/>
<path d="M27.7591 23.4746H15.7162C15.6042 23.4745 15.4948 23.5081 15.4022 23.571C15.3096 23.634 15.2381 23.7233 15.1971 23.8275C15.156 23.9317 15.1472 24.0458 15.1719 24.155C15.1966 24.2642 15.2537 24.3634 15.3356 24.4397L23.0741 31.6626C23.2994 31.8727 23.596 31.9896 23.9042 31.9895H30.7233L27.7591 23.4746Z" fill="#0078D4"/>
<path d="M16.7223 7.80714C16.4661 7.80615 16.2163 7.88711 16.0094 8.03818C15.8025 8.18926 15.6494 8.40253 15.5723 8.64685L8.2389 30.3743C8.17341 30.5568 8.15285 30.7524 8.17896 30.9446C8.20507 31.1367 8.27707 31.3198 8.38888 31.4782C8.50069 31.6367 8.64902 31.7659 8.82132 31.8549C8.99361 31.9438 9.18481 31.99 9.37873 31.9895H15.4416C15.6674 31.9492 15.8785 31.8496 16.0532 31.701C16.2279 31.5524 16.3601 31.3601 16.4362 31.1437L17.8986 26.8337L23.1224 31.706C23.3413 31.8871 23.6159 31.9872 23.8999 31.9895H30.6937L27.7141 23.4746L19.0279 23.4766L24.3442 7.80714H16.7223Z" fill="url(#paint1_linear_7968_314363)"/>
<path d="M26.422 8.62963C26.3412 8.38989 26.1871 8.18157 25.9816 8.03401C25.776 7.88645 25.5294 7.8071 25.2764 7.80713H16.8125C17.0655 7.80714 17.3121 7.88651 17.5177 8.03406C17.7232 8.18161 17.8772 8.38991 17.9582 8.62963L25.3035 30.3938C25.3649 30.5757 25.3821 30.7696 25.3537 30.9595C25.3253 31.1494 25.2521 31.3297 25.1401 31.4857C25.0282 31.6417 24.8807 31.7687 24.7099 31.8564C24.5391 31.9441 24.3498 31.9898 24.1578 31.9898H32.622C32.814 31.9897 33.0032 31.944 33.1739 31.8563C33.3447 31.7686 33.4922 31.6416 33.6041 31.4856C33.716 31.3296 33.7892 31.1493 33.8176 30.9594C33.846 30.7696 33.8288 30.5757 33.7674 30.3938L26.422 8.62963Z" fill="url(#paint2_linear_7968_314363)"/>
<defs>
<linearGradient id="paint0_linear_7968_314363" x1="19.4918" y1="9.59942" x2="11.6048" y2="32.8995" gradientUnits="userSpaceOnUse">
<stop stop-color="#114A8B"/>
<stop offset="1" stop-color="#0669BC"/>
</linearGradient>
<linearGradient id="paint1_linear_7968_314363" x1="21.9539" y1="20.4576" x2="20.1296" y2="21.0745" gradientUnits="userSpaceOnUse">
<stop stop-opacity="0.3"/>
<stop offset="0.071" stop-opacity="0.2"/>
<stop offset="0.321" stop-opacity="0.1"/>
<stop offset="0.623" stop-opacity="0.05"/>
<stop offset="1" stop-opacity="0"/>
</linearGradient>
<linearGradient id="paint2_linear_7968_314363" x1="20.9504" y1="8.91955" x2="29.6079" y2="31.9848" gradientUnits="userSpaceOnUse">
<stop stop-color="#3CCBF4"/>
<stop offset="1" stop-color="#2892DF"/>
</linearGradient>
</defs>
</svg>
