<svg width="42" height="42" xmlns="http://www.w3.org/2000/svg">
    <path d="m27.82787,15.60164l1.14407,-3.8424c0.09969,-0.33407 0.0156,-0.69656 -0.22058,-0.95092c-0.23618,-0.25436 -0.58857,-0.36195 -0.92443,-0.28224c-0.33586,0.07972 -0.60417,0.33462 -0.70385,0.66869l-0.97995,3.29844c-3.04658,-1.60844 -6.67899,-1.60461 -9.72225,0.01025l-0.98477,-3.30869c-0.1541,-0.51643 -0.6929,-0.80872 -1.20345,-0.65285c-0.51056,0.15588 -0.79952,0.70089 -0.64542,1.21732l1.14891,3.85754c-2.58005,2.08599 -4.07839,5.24861 -4.06944,8.5896c0,6.02948 4.75492,4.54994 10.62495,4.54994c5.87003,0 10.62495,1.47954 10.62495,-4.54994c0.01034,-3.34995 -1.49614,-6.52031 -4.08874,-8.60474zm-6.54586,7.78538c-4.19013,0 -7.58857,0.43947 -7.58857,-1.35697c0,-1.79644 3.39844,-3.25498 7.58857,-3.25498c4.19012,0 7.59339,1.45708 7.59339,3.25498c0,1.7979 -3.39844,1.35697 -7.59339,1.35697zm-3.47085,-3.2662c-0.59824,0.11052 -1.00795,0.67312 -0.93495,1.28381c0.073,0.61069 0.60348,1.05829 1.21051,1.0214c0.60704,-0.03689 1.08072,-0.54551 1.08091,-1.16065c-0.06777,-0.69195 -0.67135,-1.20123 -1.35647,-1.14456zm6.00514,1.2868c0.07437,0.61059 0.60559,1.05723 1.21264,1.01957c0.60706,-0.03765 1.08034,-0.54661 1.0804,-1.16181c-0.06776,-0.69401 -0.67438,-1.20405 -1.36131,-1.14456c-0.59794,0.11251 -1.0061,0.67622 -0.93173,1.2868z" clip-rule="evenodd" fill="#fff" fill-rule="evenodd"/>
</svg>