<svg xmlns="http://www.w3.org/2000/svg" width="42" height="42" viewBox="-10 -10 42 42"><path d="M24 4.559a9.878 9.878 0 0 1-2.828.777 4.924 4.924 0 0 0 2.164-2.723 9.942 9.942 0 0 1-3.129 1.196 4.897 4.897 0 0 0-3.59-1.555 4.922 4.922 0 0 0-4.797 6.043A13.978 13.978 0 0 1 1.672 3.152a4.868 4.868 0 0 0-.664 2.473 4.91 4.91 0 0 0 2.187 4.098 4.864 4.864 0 0 1-2.23-.618v.063c0 2.383 1.7 4.375 3.95 4.828-.411.11-.849.172-1.298.172-.316 0-.625-.031-.926-.09a4.924 4.924 0 0 0 4.598 3.418A9.875 9.875 0 0 1 0 19.531a13.924 13.924 0 0 0 7.547 2.215c9.055 0 14.008-7.5 14.008-14.008l-.016-.636A9.83 9.83 0 0 0 24 4.559zm0 0" fill="#fff"/></svg>