<svg width="39" height="39" viewBox="0 0 76 76" fill="none" xmlns="http://www.w3.org/2000/svg">
	<path fill-rule="evenodd" clip-rule="evenodd" d="M31.234 16.4587C31.183 15.479 31.9358 14.6435 32.9154 14.5924C33.8951 14.5414 34.7306 15.2942 34.7816 16.2738L35.0545 21.5102C35.1055 22.4899 34.3527 23.3254 33.3731 23.3764C32.3934 23.4275 31.5579 22.6747 31.5069 21.6951L31.234 16.4587ZM44.3175 16.8992C43.4565 16.4291 42.3774 16.746 41.9073 17.607L39.3945 22.2092C38.9244 23.0702 39.2413 24.1493 40.1023 24.6194C40.9633 25.0895 42.0424 24.7726 42.5125 23.9116L45.0253 19.3094C45.4954 18.4484 45.1785 17.3693 44.3175 16.8992ZM36.7835 54.1779L29.9914 31.6433C29.8904 31.3081 29.895 30.9498 30.0045 30.622C30.2845 29.7841 31.1642 29.3565 31.9694 29.667L53.8605 38.1091C54.2363 38.254 54.5471 38.5444 54.728 38.9195C55.1158 39.7234 54.8147 40.6914 54.0556 41.0818L50.0004 43.167C49.8453 43.2467 49.7048 43.3536 49.5847 43.4832C48.9968 44.1178 49.0207 45.1422 49.638 45.7714L55.1648 51.4047L55.1842 51.4247L55.1943 51.4355C55.7957 52.0814 55.7934 53.1056 55.1893 53.7231L52.2582 56.7191L52.2444 56.733L52.2286 56.7485C51.6087 57.3485 50.6318 57.2982 50.0468 56.6361L44.9008 50.8122C44.8566 50.7622 44.8096 50.7151 44.76 50.6712C44.1022 50.089 43.1294 50.1667 42.5872 50.8446L39.4455 54.773C39.2565 55.0093 39.0053 55.182 38.7221 55.2704C37.9097 55.5239 37.0418 55.0348 36.7835 54.1779ZM24.402 39.5281C24.1436 38.5817 23.167 38.0241 22.2206 38.2825L17.1623 39.6638C16.216 39.9222 15.6583 40.8988 15.9168 41.8452C16.1752 42.7915 17.1518 43.3491 18.0981 43.0907L23.1564 41.7095C24.1028 41.451 24.6604 40.4744 24.402 39.5281ZM22.3202 30.5371C23.284 30.7201 23.917 31.6497 23.734 32.6134C23.5511 33.5772 22.6215 34.2102 21.6577 34.0272L16.5062 33.0493C15.5424 32.8663 14.9094 31.9367 15.0924 30.973C15.2754 30.0092 16.205 29.3762 17.1687 29.5592L22.3202 30.5371ZM26.968 25.7185C27.6924 25.057 27.7434 23.9335 27.0819 23.2091L23.5462 19.337C22.8847 18.6126 21.7612 18.5616 21.0368 19.2231C20.3124 19.8846 20.2614 21.0081 20.9229 21.7325L24.4586 25.6045C25.1201 26.3289 26.2436 26.3799 26.968 25.7185Z" fill="white"/>
</svg>
