<svg xmlns="http://www.w3.org/2000/svg" width="42" height="42" viewBox="-9 -9 42 42"><path fill="#FFF" d="M3.645 8.068l-1.053-.057a1.273 1.273 0 0 0-.905.31c-.51.442-1.326 1.3-1.577 2.416-.373 1.665.204 3.703 1.7 5.742 1.494 2.039 4.28 5.3 9.207 6.694 1.588.448 2.837.146 3.8-.47a3.399 3.399 0 0 0 1.479-2.158l.168-.785a.545.545 0 0 0-.305-.61l-3.558-1.64a.546.546 0 0 0-.66.163l-1.397 1.81a.4.4 0 0 1-.45.134c-.956-.336-4.16-1.678-5.918-5.065a.404.404 0 0 1 .05-.45l1.336-1.544a.545.545 0 0 0 .089-.571L4.117 8.398a.546.546 0 0 0-.472-.33zM16.01 0c-3.774 0-6.863 3.088-6.863 6.863H7.458a.3.3 0 0 0-.24.48l2.832 3.776a.3.3 0 0 0 .48 0l2.832-3.776a.3.3 0 0 0-.24-.48h-1.688a4.56 4.56 0 0 1 4.575-4.575V0zm5.079 2.76l-2.832 3.775a.3.3 0 0 0 .24.48h1.688a4.56 4.56 0 0 1-4.576 4.575v2.288c3.775 0 6.863-3.089 6.863-6.863h1.688a.3.3 0 0 0 .24-.48l-2.831-3.776a.3.3 0 0 0-.48 0z"/></svg>