<svg width="42" height="42" viewBox="0 -1 42 42" xmlns="http://www.w3.org/2000/svg"><path d="M16.837 17.111a7.866 7.866 0 1 1 0 15.731 7.866 7.866 0 0 1 0-15.731zm-.402 3.29v2.941h-3.399v3.53h3.398l.001 2.68 4.576-4.575-4.576-4.576zM27.16 8.048l4.583 5.157v14.323h-5.67c.202-.733.32-1.5.34-2.292h3.039v-11.16L26.13 10.34h-8.138v5.127a9.677 9.677 0 0 0-2.292-.002V8.048H27.16zm-1.146 10.313v2.292h-.627a9.603 9.603 0 0 0-1.622-2.292h2.249zm0-4.583v2.291h-5.648a9.513 9.513 0 0 0-.08-.032l-.001-2.26h5.729z" fill="#80868E"/></svg>