<svg xmlns="http://www.w3.org/2000/svg" width="42" height="42" viewBox="-8 -11 42 42"><path fill="#80868E" fill-rule="evenodd" d="M3.422 10.691c-.161.262-.473.272-.66.027-.084-.11-.141-.243-.225-.356-.711-.96-1.425-1.92-2.14-2.878C.266 7.31.127 7.138 0 6.976L4.705 0c.175.084.36.177.546.263 1.251.577 2.538 1.045 3.905 1.26.835.13 1.21.126 2.24-.004-.068.105-.102.208-.174.26-.242.18-.496.345-.748.51-.07.046-.152.072-.223.114-.388.227-.817.188-1.235.177-1.357-.036-2.635-.365-3.806-1.07-.01-.006-.023-.01-.057-.022L1.526 6.967l-.06-.029c.028.038.055.077.084.114.626.81 1.246 1.626 1.755 2.519.141.248.254.507.223.8a.783.783 0 0 1-.106.32zm19.255.327l1.222-.124c.18.425.23.88.147 1.345-.145.8-.574 1.41-1.285 1.81-.105.059-.139.122-.152.24-.123 1.06-.685 1.8-1.68 2.18-.218.085-.323.185-.4.402-.261.729-.773 1.235-1.494 1.509a2.328 2.328 0 0 1-1.694.001c-.082-.031-.126-.026-.18.052-.422.61-1 .964-1.737 1.06a2.268 2.268 0 0 1-1.62-.386c-.397-.269-.796-.536-1.202-.81l.595-.972c.417.281.823.545 1.218.824.72.507 1.708.108 1.966-.681-.037-.026-.075-.055-.114-.081-.931-.628-1.862-1.257-2.794-1.884-.153-.103-.246-.233-.233-.425a.443.443 0 0 1 .304-.406c.16-.063.308-.015.446.078.788.533 1.577 1.064 2.366 1.596.434.293.874.579 1.301.882.265.188.554.207.84.126.55-.155.892-.528 1.028-1.087.028-.113.004-.18-.099-.249-1.726-1.158-3.448-2.322-5.172-3.484-.214-.145-.3-.326-.254-.53a.45.45 0 0 1 .67-.292c.041.025.081.053.121.08 1.75 1.18 3.501 2.356 5.244 3.545.197.134.366.14.56.05.55-.255.846-.686.883-1.292.006-.094-.028-.16-.113-.216-2.002-1.347-4.003-2.697-6.004-4.048-.328-.22-.313-.652.03-.818a.426.426 0 0 1 .448.04c.321.218.643.434.964.65 1.662 1.12 3.325 2.238 4.984 3.364.124.084.218.083.344.024.75-.351 1.071-1.319.569-2.031-.01-.015-.017-.03-.023-.042zm-11.228 3.78c.881.108 1.444 1.031 1.092 1.812-.092.203-.224.388-.342.578-.24.388-.462.792-.732 1.159-.379.514-1.118.614-1.645.259-.935-.63-1.808-1.34-2.656-2.08-.987-.864-1.968-1.735-2.951-2.603-.269-.237-.5-.504-.627-.844-.125-.333-.117-.66.081-.968.24-.374.48-.748.716-1.125.32-.513 1.059-.725 1.653-.471.323.138.536.338.753.715a1.357 1.357 0 0 1 1.01-.347c.281.014.541.112.764.285.449.348.726.943.427 1.656.64-.223 1.212-.128 1.655.392.447.526.441 1.095.038 1.698.27-.114.512-.147.764-.116zM27.433 7.43c.07.107.03.176-.024.259-.522.8-1.233 1.376-2.094 1.774-.495.23-1.01.395-1.546.509-.275.03-.55.063-.824.086a.327.327 0 0 1-.183-.045c-.65-.386-1.297-.777-1.945-1.166L18.87 7.68c-.562-.337-1.123-.676-1.685-1.012l-1.958-1.171c-.19-.113-.374-.233-.567-.338a.224.224 0 0 0-.177-.003c-.765.358-1.515.75-2.293 1.077-.886.373-1.803.46-2.72.081-.472-.194-.84-.52-1.143-.923-.27-.36-.05-.826.255-.981 1.07-.545 2.086-1.18 3.11-1.8.373-.226.74-.462 1.12-.676a3.402 3.402 0 0 1 1.216-.396.71.71 0 0 1 .208.01c1.591.262 3.182.527 4.775.785a.439.439 0 0 0 .247-.04c.997-.49 1.99-.985 2.983-1.481.077-.039.127-.048.203.019.587.519 1.083 1.12 1.566 1.732 1.23 1.559 2.337 3.205 3.422 4.866z"/></svg>