<svg width="42" height="42" xmlns="http://www.w3.org/2000/svg">
 <path d="m20.984853,6.243828c-0.026928,0.008173 -0.055024,0.02452 -0.0843,0.039229l-12.617205,4.996373c-0.316136,0.148771 -0.430866,0.470834 -0.440245,0.85011l0,16.087306c0.003501,0.359669 0.192013,0.701367 0.440245,0.797795l12.495516,4.943617c0.154553,0.068676 0.357112,0.058865 0.524545,0.013086l12.607598,-4.982974c0.248218,-0.101355 0.433214,-0.449575 0.43088,-0.810895l0,-15.943333c0.007031,-0.49047 -0.114744,-0.778202 -0.440259,-0.928625l-12.682548,-5.022317c-0.086634,-0.044142 -0.154538,-0.062126 -0.23417,-0.039229l-0.000057,-0.000142zm0.074935,1.713363l10.472271,4.159093l-10.472271,4.132949l-10.481565,-4.146007l10.481565,-4.146035z" clip-rule="evenodd" fill="#fff" fill-rule="evenodd"/>
</svg>