<svg xmlns="http://www.w3.org/2000/svg" width="42" height="42" viewBox="-11 -10 42 42"><defs><clipPath id="a"><path clip-rule="evenodd" d="M-510-435h904V98h-904z"/></clipPath></defs><g clip-path="url(#a)"><path fill="#80868E" d="M15.967 11.883h-1.513v2.525h1.513v7.505h3.108v-7.504h2.086s.195-1.211.29-2.535h-2.364v-1.727c0-.258.339-.605.674-.605h1.693v-2.63h-2.303c-3.26 0-3.184 2.528-3.184 2.906v2.065z"/></g><defs><clipPath id="b"><path clip-rule="evenodd" d="M-510-435h904V98h-904z"/></clipPath></defs><g clip-path="url(#b)"><path fill="#80868E" d="M16.886 0H1.114C.5 0 0 .485 0 1.077v16.846C0 18.515.501 19 1.114 19H12V9q0-.128.006-.255t.017-.254q.012-.126.03-.25.017-.125.04-.248t.052-.244q.029-.122.064-.24.034-.12.074-.237.04-.116.086-.23.046-.114.097-.226.05-.11.107-.22.056-.107.118-.212.061-.105.128-.206.067-.102.138-.2.072-.097.148-.19.076-.095.157-.184.081-.09.167-.175.085-.086.175-.167.09-.08.183-.157.094-.076.191-.148.098-.071.2-.138.1-.066.206-.128.105-.062.213-.118.108-.056.22-.107.11-.051.225-.097.114-.046.23-.086.117-.04.236-.074.12-.035.24-.064.122-.029.245-.052.123-.023.248-.04.124-.018.25-.03.127-.011.254-.017Q16.872 4 17 4h1V1.077C18 .485 17.499 0 16.886 0zm-5.203 4.079c0 .542-.403.985-.896.985H3.585c-.493 0-.897-.443-.897-.985v-.05c0-.543.404-.986.897-.986h7.202c.493 0 .896.443.896.986v.05zm-1.565 4.393c0 .542-.403.985-.896.985H3.585c-.493 0-.897-.443-.897-.985v-.051c0-.542.404-.985.897-.985h5.637c.493 0 .896.443.896.985v.051zm-.896 5.377c.493 0 .896-.443.896-.985v-.05c0-.543-.403-.985-.896-.985H3.585c-.493 0-.897.442-.897.985v.05c0 .542.404.985.897.985h5.637z" fill-rule="evenodd"/></g></svg>