<svg width="39" height="39" viewBox="0 0 76 76" fill="none" xmlns="http://www.w3.org/2000/svg">
	<path fill-rule="evenodd" clip-rule="evenodd" d="M38.4662 23.5853C38.608 23.0025 39.2084 22.6567 39.7836 22.8265L43.6374 23.9636C44.1748 24.1221 44.493 24.6746 44.3605 25.2189L37.4154 53.7611C37.2736 54.3438 36.6733 54.6896 36.098 54.5199L32.2442 53.3828C31.7069 53.2242 31.3887 52.6718 31.5211 52.1275L38.4662 23.5853ZM23.628 51.5656C23.7702 51.8155 24.0508 51.953 24.3355 51.9123L28.6727 51.2918C29.1592 51.2222 29.4244 50.686 29.1845 50.257L22.8538 38.9421C22.7349 38.7297 22.7349 38.4709 22.8538 38.2585L29.1845 26.9436C29.4244 26.5147 29.1592 25.9785 28.6727 25.9088L24.3355 25.2883C24.0508 25.2476 23.7702 25.3851 23.628 25.635L16.4467 38.2541C16.3246 38.4687 16.3246 38.7319 16.4467 38.9465L23.628 51.5656ZM51.3544 51.9123C51.6391 51.953 51.9197 51.8155 52.062 51.5656L59.2432 38.9465C59.3654 38.7319 59.3654 38.4687 59.2432 38.2541L52.062 25.635C51.9197 25.3851 51.6391 25.2476 51.3544 25.2883L47.0172 25.9088C46.5307 25.9785 46.2655 26.5147 46.5055 26.9436L52.8362 38.2585C52.955 38.4709 52.955 38.7297 52.8362 38.9421L46.5055 50.257C46.2655 50.686 46.5307 51.2222 47.0172 51.2918L51.3544 51.9123Z" fill="#9EA3AA"/>
</svg>