<svg width="42" height="42" viewBox="-12 -11 42 42" fill="none" xmlns="http://www.w3.org/2000/svg"><path fill-rule="evenodd" clip-rule="evenodd" d="M13.144 4.282c0-.526.435-.951.973-.951s.974.425.974.951a.962.962 0 0 1-.974.952.962.962 0 0 1-.973-.952zM5.354 0h7.79c2.948 0 5.354 2.351 5.354 5.234v2.269h-1.947v-2.27c0-1.86-1.503-3.33-3.407-3.33h-7.79c-1.904 0-3.407 1.47-3.407 3.33v7.614c0 1.862 1.503 3.331 3.407 3.331h6.45v1.903h-6.45C2.405 18.081 0 15.73 0 12.847V5.234C0 2.35 2.405 0 5.354 0zM4.138 9.04c0-2.748 2.3-4.996 5.111-4.996 2.38 0 4.39 1.615 4.95 3.779a3.98 3.98 0 0 0-1.801 1.531c.01-.102.015-.207.015-.314 0-1.719-1.405-3.092-3.164-3.092-1.759 0-3.164 1.373-3.164 3.092 0 1.72 1.405 3.093 3.164 3.093a3.17 3.17 0 0 0 2.604-1.33l-.023.17a3.654 3.654 0 0 0-.024.403v1.98a5.15 5.15 0 0 1-2.557.68c-2.812 0-5.111-2.247-5.111-4.996zm10.172 4.393h1.014V12.08c0-.247-.051-1.902 2.133-1.902h1.542V11.9h-1.134c-.224 0-.45.227-.45.396v1.13h1.583c-.064.868-.195 1.66-.195 1.66h-1.397V20h-2.082v-4.914H14.31v-1.653z" fill="#80868E"/></svg>
