<svg width="24" height="24" viewBox="0 0 24 24" fill="none" xmlns="http://www.w3.org/2000/svg">
	<path fill="#fff" fill-rule="evenodd" clip-rule="evenodd" d="M15.0779 12.6914C14.8239 13.8852 13.8851 14.824 12.6913 15.0779C10.4152 15.562 8.43796 13.5842 8.92211 11.3086C9.15108 10.2325 10.2324 9.15117 11.3084 8.92216C13.5841 8.43781 15.5621 10.4152 15.0779 12.6914ZM19.4145 10.835L17.8296 10.5705C17.717 10.1102 17.554 9.66969 17.3424 9.25791C17.3335 9.24059 17.3356 9.21975 17.3478 9.20459L18.3423 7.97143C18.5581 7.70554 18.5483 7.32299 18.3208 7.06639L17.6905 6.35694C17.462 6.10059 17.0831 6.04639 16.794 6.22899L15.4386 7.08106C14.851 6.67052 14.1865 6.36579 13.47 6.18624C13.451 6.18146 13.4366 6.16596 13.4334 6.14661L13.1735 4.58497C13.1179 4.24757 12.8259 4 12.4831 4H11.5332C11.1912 4 10.8982 4.24757 10.8438 4.58497L10.5825 6.14719C10.5793 6.16649 10.5649 6.18195 10.5459 6.1867C9.96604 6.33203 9.4214 6.56138 8.92248 6.86125C8.90567 6.87135 8.88455 6.87061 8.86857 6.8592L7.60581 5.958C7.32801 5.75951 6.94643 5.79055 6.70399 6.03249L6.03289 6.70407C5.79096 6.94652 5.75992 7.32811 5.95893 7.60593L6.86225 8.87122C6.87364 8.88717 6.87443 8.90829 6.86435 8.9251C6.5674 9.42016 6.34043 9.96157 6.19525 10.5361C6.19045 10.5551 6.175 10.5695 6.15572 10.5727L4.58493 10.835C4.24805 10.8906 4 11.1826 4 11.5254V12.4746C4 12.8173 4.24805 13.1094 4.58493 13.165L6.15567 13.4273C6.17497 13.4305 6.19045 13.4449 6.19523 13.4639C6.31332 13.933 6.48153 14.3817 6.70267 14.7994C6.71188 14.8169 6.70993 14.838 6.69755 14.8534L5.70793 16.079C5.49288 16.3447 5.50191 16.7275 5.72943 16.9839L6.35929 17.6933C6.5878 17.9501 6.96692 18.0034 7.25597 17.8212L8.60375 16.9746C8.62027 16.9642 8.64132 16.9646 8.65748 16.9755C9.23272 17.3643 9.88164 17.6506 10.5772 17.8212L10.8438 19.415C10.8982 19.7524 11.1912 20 11.5332 20H12.4831C12.8259 20 13.1179 19.7524 13.1735 19.415L13.4338 17.8531C13.437 17.8337 13.4515 17.8183 13.4705 17.8135C14.0428 17.6702 14.5804 17.4449 15.0746 17.1503C15.0914 17.1403 15.1124 17.1411 15.1283 17.1524L16.4449 18.0928C16.7222 18.292 17.1041 18.2607 17.3463 18.018L18.0177 17.3466C18.2593 17.1049 18.292 16.7236 18.0914 16.4452L17.1541 15.1311C17.1427 15.1152 17.142 15.0941 17.152 15.0773C17.4499 14.5806 17.6781 14.0381 17.8224 13.4609C17.8272 13.4419 17.8427 13.4275 17.862 13.4243L19.4151 13.165C19.7529 13.1093 20 12.8173 20 12.4746V11.5253C19.9995 11.1826 19.7524 10.8906 19.4145 10.835Z"/>
</svg>