<?xml version="1.0" encoding="UTF-8"?><svg width="42px" height="42px" viewBox="0 0 42 42" version="1.1" xmlns="http://www.w3.org/2000/svg" xmlns:xlink="http://www.w3.org/1999/xlink"><path d="M23.1616446,14.9240311 C25.3094303,14.9240311 27.0505545,16.6651553 27.0505545,18.812941 L27.0505545,25.9543937 C27.0505545,26.7744573 26.3857616,27.4392502 25.565698,27.4392502 L14.8888727,27.4392502 C12.7410871,27.4392502 10.9999628,25.6981259 10.9999628,23.5503403 L10.9999628,16.4088876 C10.9999628,15.588824 11.6647557,14.9240311 12.4848193,14.9240311 L23.1616446,14.9240311 Z M33.0052901,15.3182857 C33.1324563,15.4707989 33.2021029,15.6630829 33.2021029,15.8616566 L33.2021029,26.4577707 C33.2021029,26.9263785 32.8222212,27.3062602 32.3536135,27.3062602 C32.157926,27.3062602 31.9682537,27.2386201 31.8167235,27.114797 L28.5294353,24.4285844 C28.0857217,24.0660032 27.8283365,23.5232909 27.8283365,22.9502754 L27.8283365,19.4239628 C27.8283365,18.8575657 28.0798358,18.3204099 28.5148532,17.9576904 L31.8102426,15.20998 C32.1701536,14.9098846 32.7051946,14.9583747 33.0052901,15.3182857 Z" fill="#80868E"/></svg>