<svg width="42" height="42" viewBox="0 0 42 42" fill="none" xmlns="http://www.w3.org/2000/svg">
    <path fill-rule="evenodd" clip-rule="evenodd" d="M19.06 8C22.1891 8 25.253 9.23859 27.4694 11.5202C27.6079 11.6587 27.7426 11.8002 27.8733 11.9447C27.3557 11.8748 26.8273 11.8387 26.2905 11.8387C25.7782 11.8387 25.2736 11.8716 24.7787 11.9353C21.6389 9.66911 17.3199 9.42194 13.7797 11.5854C9.08605 14.4537 7.71708 20.5815 10.5854 25.2099L10.8462 25.6011L9.86832 29.3169L13.6493 28.339L14.0404 28.5346C14.7086 28.9413 15.4285 29.2574 16.1771 29.4828C16.695 30.365 17.3251 31.1734 18.0477 31.8884C16.4123 31.7634 14.7991 31.3101 13.3234 30.4903L7 32.12L8.69492 25.927C7.71708 24.1017 7.13038 22.0809 7.13038 19.9948C7.06519 13.4107 12.4107 8 19.06 8ZM19.9572 16.857C21.6943 15.0688 24.0956 14.0981 26.548 14.0981C31.7594 14.0981 35.9489 18.3387 35.8978 23.4989C35.8978 25.1338 35.4379 26.7177 34.6716 28.1482L35.9999 33.0019L31.0441 31.7246C29.6646 32.491 28.1319 32.8487 26.5991 32.8487C21.4389 32.8487 17.2494 28.6081 17.2494 23.4478C17.2494 20.9443 18.2201 18.5941 19.9572 16.857ZM24.8536 21.5747C24.8536 20.9034 24.2983 20.6679 23.7073 20.6679C22.9156 20.6679 22.2656 20.927 21.6629 21.1979L21.2492 19.9614C21.9229 19.6551 22.8565 19.3136 23.9674 19.3136C25.7045 19.3136 26.5435 20.1851 26.5435 21.4098C26.5435 22.623 25.597 23.342 24.6854 24.0343C23.9865 24.5652 23.3082 25.0804 23.0927 25.7909H26.6499V27.1569H20.9893C21.1824 24.8408 22.5569 23.8443 23.6123 23.0792C24.3009 22.58 24.8536 22.1793 24.8536 21.5747ZM29.1415 24.0108H29.8506V23.1746C29.8506 22.5741 29.8978 21.8792 29.9215 21.7261L28.1607 24.0461C28.3024 24.0343 28.8698 24.0108 29.1415 24.0108ZM26.3661 24.2816L30.2658 19.3354H31.424V24.0107H32.5821V25.3061H31.424V27.1551H29.8522V25.3061H26.3661V24.2816Z" fill="#fff"/>
</svg>
