<svg width="39" height="39" viewBox="0 0 39 39" fill="none" xmlns="http://www.w3.org/2000/svg">
	<path fill-rule="evenodd" clip-rule="evenodd" d="M12.6501 26.9523C12.7896 27.2913 13.1199 27.5125 13.4865 27.5125H19.4448H25.4046C25.7704 27.5125 26.1002 27.2921 26.2402 26.9542L30.4317 16.8334C30.6606 16.2805 30.0797 15.7403 29.5449 16.0089L24.8264 18.3786C24.5108 18.5371 24.1265 18.4128 23.9634 18.0995L20.0187 10.5191C19.7772 10.0551 19.1132 10.0555 18.8722 10.5198L14.9396 18.0979C14.7767 18.4119 14.3916 18.5364 14.0757 18.3773L9.37339 16.0093C8.83922 15.7403 8.25782 16.279 8.48543 16.8321L12.6501 26.9523Z" fill="#9EA3AA"/>
</svg>