<svg xmlns="http://www.w3.org/2000/svg" xmlns:xlink="http://www.w3.org/1999/xlink" viewBox="0 0 42 42"><path fill="#80868E" d="M18.533 19.85c-.41-.549-1.213-.54-1.635-.069-.206.23-.335.498-.414.791-.138.513-.142 1.034-.068 1.555.047.334.151.65.347.93.328.469.855.629 1.354.408.302-.134.487-.38.619-.669.183-.402.227-.831.244-1.269-.024-.249-.038-.5-.076-.746a2.04 2.04 0 0 0-.371-.93m12.42-3.36c-.152-.284-.359-.466-.711-.465-2.07.006-4.14.003-6.21.001-.085 0-.11.022-.11.109.003 1.173.002 2.346 0 3.52 0 .063.02.1.074.134.392.242.783.485 1.172.732.095.06.174.056.266-.006l4.91-3.286c.217-.145.437-.285.656-.428v-.223l-.047-.089m-5.436 5.462c-.16.105-.29.104-.45-.005l-1.05-.716c-.025-.017-.053-.032-.09-.054l-.003.073c0 1.62 0 3.239-.002 4.858 0 .087.038.094.107.093h2.22c1.283 0 2.566 0 3.85-.003a.896.896 0 0 0 .859-.628c.01-.03.028-.06.042-.09v-7.154l-.083.06-5.4 3.566m-5.3-.583c.001.739-.09 1.377-.376 1.976-.269.563-.653 1.024-1.237 1.29a2.275 2.275 0 0 1-1.157.188c-.999-.085-1.606-.676-2.004-1.53a3.558 3.558 0 0 1-.305-1.253c-.049-.662-.014-1.316.192-1.952.195-.602.514-1.125 1.037-1.507.378-.276.807-.4 1.275-.413.538-.016 1.027.112 1.449.45.489.39.782.907.954 1.497.126.437.177.883.171 1.254m-.078-8.798l-2.97.57c-1.047.202-2.095.401-3.143.602l-1.979.381c-.015.003-.03.002-.046.002v14.588l4.192.87 3.524.737 3.15.654c.02.004.039.016.058.025h.262V12.17c0-.189 0-.187-.18-.152-.956.185-1.912.37-2.868.553z"/></svg>