<svg xmlns="http://www.w3.org/2000/svg" viewBox="-5 -7 26 26"><path fill="#FFF" d="M7.007.703A6.05 6.05 0 0 0 2.55 2.476 6.053 6.053 0 0 0 .778 6.93a6.565 6.565 0 0 0 1.57 4.1l1.217-1.217-.102-2.722a.549.549 0 0 1 .565-.566.61.61 0 0 1 .591.59l.078 1.566 4.639-4.77a.58.58 0 0 1 .818.017c.231.23.24.597.018.819l-3.177 3.31 2.425.068a.61.61 0 0 1 .59.59.549.549 0 0 1-.565.566l-3.342-.088A.596.596 0 0 1 5.9 9.15l-2.715 2.715a6.57 6.57 0 0 0 4.1 1.57 6.048 6.048 0 0 0 6.227-6.228L13.373.842 7.007.702z"/></svg>