<svg width="42" height="42" viewBox="0 0 42 42" fill="none" xmlns="http://www.w3.org/2000/svg">
    <path d="M36.9037 25.8285C37.3047 26.3898 37.2245 27.1114 36.7434 27.5123C36.1821 27.9133 35.3802 27.8331 34.9793 27.352L32.1728 23.7437L29.4465 27.2718C29.0456 27.8331 28.2438 27.8331 27.6825 27.4322C27.1212 27.0312 27.041 26.3096 27.4419 25.7483L30.6493 21.5787L27.4419 17.409C27.041 16.8477 27.2014 16.0459 27.6825 15.645C28.2438 15.244 29.0456 15.4044 29.4465 15.8855L32.1728 19.4939L34.9793 16.0459C35.3802 15.4846 36.1019 15.4044 36.7434 15.8053C37.3047 16.2063 37.3047 17.0081 36.9037 17.5694L33.7765 21.6588L36.9037 25.8285ZM22.3101 25.3473C20.2253 25.3473 18.5414 23.7437 18.5414 21.6588C18.5414 19.6542 20.2253 17.9703 22.3101 17.9703C24.3949 17.9703 26.0788 19.6542 26.0788 21.6588C25.9986 23.7437 24.3147 25.3473 22.3101 25.3473ZM11.2446 25.3473C9.15974 25.3473 7.47586 23.7437 7.47586 21.6588C7.47586 19.6542 9.15974 17.9703 11.2446 17.9703C13.3294 17.9703 15.0132 19.6542 15.0132 21.6588C15.0132 23.7437 13.3294 25.3473 11.2446 25.3473ZM22.3101 15.5648C19.9847 15.5648 17.8999 16.8477 16.8575 18.7722C15.8151 16.8477 13.7303 15.5648 11.3247 15.5648C9.88141 15.5648 8.59845 16.0459 7.55605 16.7676V11.6357C7.55605 10.9942 6.99475 10.433 6.35327 10.433C5.63161 10.433 5.07031 10.9942 5.07031 11.6357V21.739C5.1505 25.1068 7.87679 27.7529 11.2446 27.7529C13.6501 27.7529 15.7349 26.3898 16.7773 24.4653C17.8197 26.3898 19.9045 27.7529 22.2299 27.7529C25.6778 27.7529 28.4843 25.0266 28.4843 21.5787C28.5645 18.2911 25.758 15.5648 22.3101 15.5648Z" fill="#80868E"/>
</svg>
