<svg width="42" height="42" viewBox="0 0 42 42" fill="none" xmlns="http://www.w3.org/2000/svg">
    <path fill-rule="evenodd" clip-rule="evenodd" d="M24.002 13.0884C23.6003 12.6867 23.8848 12.0001 24.4527 12L29.4886 12.0001C29.8407 12 30.1262 12.2855 30.1261 12.6375L30.1262 17.6735C30.1261 18.2414 29.4395 18.5259 29.0378 18.1242L27.4214 16.5079L23.2097 20.7196C22.9608 20.9685 22.5571 20.9685 22.3082 20.7196L21.4066 19.818C21.1576 19.5691 21.1576 19.1654 21.4066 18.9164L25.6183 14.7047L24.002 13.0884ZM28.6795 26.3174L26.1845 24.448C25.2985 23.7822 23.9833 24.1028 23.3365 25.0166L22.5969 26.0651C22.4377 26.2823 22.1099 26.3504 21.8816 26.2186C19.5927 24.7255 17.6357 22.6419 16.2811 20.2643C16.1519 20.0181 16.219 19.6968 16.4597 19.5435L17.5071 18.8444C18.4447 18.2186 18.8308 16.9423 18.2196 16.0055L16.4746 13.4535C15.9458 12.6675 14.839 12.5607 14.1442 13.206C11.5357 15.6989 10.3977 20.0293 16.1196 26.0786C21.8414 32.128 26.1878 31.1603 28.7963 28.6675C29.4919 28.0219 29.4334 26.8901 28.6795 26.3174Z" fill="#80868E"/>
</svg>
