<svg width="42" height="42" xmlns="http://www.w3.org/2000/svg"><path d="M29.53 20.34h-.034c-.338 3.516-3.267 7.331-6.832 7.331v2.666h.242a.667.667 0 1 1 0 1.333h-3.231a.667.667 0 1 1 0-1.333h.242V27.67c-3.565 0-6.495-3.815-6.832-7.33h-.034v-2.06a1.374 1.374 0 0 1 2.746 0v1.393a5.496 5.496 0 0 0 10.987 0V18.28a1.374 1.374 0 0 1 2.746 0v2.06zm-11.673-1.332v-6.83a3.435 3.435 0 0 1 6.867 0v6.83a3.384 3.384 0 0 1-3.433 3.332 3.384 3.384 0 0 1-3.434-3.332z" clip-rule="evenodd" fill="#fff" fill-rule="evenodd"/></svg>