<svg xmlns="http://www.w3.org/2000/svg" xmlns:xlink="http://www.w3.org/1999/xlink" viewBox="0 0 42 42"><path fill="#80868E" d="M21 12c-3.802 0-6.983 2.328-8.38 5.664v.077A9.018 9.018 0 0 0 12 21c0 4.966 4.034 9 9 9s9-4.034 9-9-4.034-9-9-9zm7.37 10.94h-3.103c.078-.621.078-1.242.078-1.862 0-.854-.078-1.707-.155-2.483h3.18c.233.776.389 1.63.389 2.483 0 .62-.078 1.319-.233 1.94 0-.078-.078-.078-.155-.078zM21 28.914c-1.164 0-2.405-1.862-2.948-4.733h5.974c-.62 2.87-1.862 4.733-3.026 4.733zm-3.181-5.974c-.078-.621-.078-1.242-.078-1.862 0-.854.078-1.707.156-2.483h6.129c.077.776.155 1.63.155 2.483 0 .62 0 1.319-.078 1.862H17.82zm-4.655-1.862c0-.854.155-1.707.388-2.483h3.18c-.077.776-.154 1.63-.154 2.483 0 .62 0 1.241.077 1.862h-3.258a7.652 7.652 0 0 1-.233-1.862zM21 13.164c1.086 0 2.25 1.552 2.87 4.112h-5.663c.543-2.483 1.707-4.112 2.793-4.112zm6.905 4.112h-2.87c-.31-1.474-.854-2.793-1.475-3.724 1.862.698 3.414 2.017 4.345 3.724zm-9.465-3.647c-.621.931-1.164 2.173-1.474 3.724h-2.871a7.607 7.607 0 0 1 4.345-3.724zm-4.656 10.552h3.026c.31 1.785.854 3.259 1.63 4.267-2.095-.698-3.802-2.25-4.656-4.267zm9.699 4.267c.776-1.008 1.319-2.56 1.63-4.267h3.025c-.854 2.017-2.56 3.569-4.655 4.267z"/></svg>