<svg width="42" height="42" viewBox="-8 -12 42 42" xmlns="http://www.w3.org/2000/svg"><path d="M14.679 6.27a.889.889 0 0 0-.276-.196.772.772 0 0 0-.652 0 .87.87 0 0 0-.274.197.977.977 0 0 0-.186.285.808.808 0 0 0-.069.329.932.932 0 0 0 .254.618c.079.08.169.144.275.193a.776.776 0 0 0 .652 0 .898.898 0 0 0 .53-.811.823.823 0 0 0-.069-.329.993.993 0 0 0-.185-.285zm9.214 9.973H6.733v-2.439H19.12c.31 0 .719-.409.719-.719V5.28h4.054v10.963zM5.774 10.797c-.723-.023-1.282-.028-1.84-.063-.654-.042-1.308-.099-1.936-.298-.12-.036-.233-.093-.347-.144-.1-.045-.148-.118-.131-.23.045-.307.063-.62.135-.92.098-.419.372-.696.8-.844.562-.193 1.115-.406 1.668-.619.331-.126.54-.415.532-.715a.23.23 0 0 0-.055-.141 2.75 2.75 0 0 1-.743-1.504c-.074-.498-.079-.998.083-1.484.2-.603.623-.967 1.273-1.083.4-.072.791-.05 1.17.09.55.204.845.617.978 1.152.1.41.096.819.047 1.235a2.71 2.71 0 0 1-.582 1.392c-.041.053-.08.11-.13.153-.09.075-.113.162-.075.266.043.12.088.241.14.359a.42.42 0 0 0 .247.226c.526.199 1.051.396 1.576.598.187.072.38.137.55.237.289.171.428.454.488.764.058.291.076.59.114.884.008.066-.022.102-.075.139a1.83 1.83 0 0 1-.709.267c-.411.075-.827.146-1.242.179-.698.055-1.398.077-1.936.104zm4.912-5.628c.189-.432.439-.671.755-.975l.083-.08a3.95 3.95 0 0 1 1.251-.808c.477-.195 1-.294 1.555-.294.512 0 .995.086 1.436.256.443.17.832.408 1.158.705.326.299.586.654.773 1.056.187.404.282.84.282 1.296 0 .386-.05.743-.147 1.063a2.58 2.58 0 0 1-.424.837 1.959 1.959 0 0 1-.666.549 1.935 1.935 0 0 1-.873.194.889.889 0 0 1-.495-.143 1.258 1.258 0 0 1-.32-.302c-.19.178-.376.293-.553.344-.428.123-.793.112-1.197-.07a2.11 2.11 0 0 1-.61-.42 2.326 2.326 0 0 1-.458-.646 1.89 1.89 0 0 1-.185-.837c0-.296.058-.572.175-.82.116-.25.27-.465.456-.64a2 2 0 0 1 .644-.411c.241-.098.492-.146.742-.146.278 0 .526.054.736.162.145.075.265.168.358.277l.063-.356h1.01l-.01.088-.279 2.322c-.018.144-.028.29-.028.44 0 .043.01.075.029.097.02.026.038.03.052.03a.56.56 0 0 0 .35-.125c.112-.086.211-.203.296-.35a1.99 1.99 0 0 0 .202-.512c.048-.19.072-.39.072-.597 0-.34-.066-.656-.198-.937a2.119 2.119 0 0 0-.544-.719 2.51 2.51 0 0 0-.818-.462 3.117 3.117 0 0 0-1.02-.164c-.418 0-.808.073-1.16.214a2.867 2.867 0 0 0-.917.58 2.644 2.644 0 0 0-.604.875 2.771 2.771 0 0 0-.218 1.089c0 .434.08.828.237 1.172.157.342.37.634.637.868.268.235.585.416.945.54.36.124.748.187 1.155.187.242 0 .456-.008.637-.023.18-.015.353-.044.514-.086.162-.043.317-.102.46-.172a4.56 4.56 0 0 0 .491-.285l.07-.046.555 1-.063.039c-.383.238-.79.418-1.209.536a5.74 5.74 0 0 1-1.446.174c-.65 0-1.273-.107-1.754-.303a3.82 3.82 0 0 1-1.27-.83c-.388-.387-.655-.918-.81-1.296a3.863 3.863 0 0 1-.285-1.475c0-.584.206-1.26.382-1.66zM24.669 3.78l-4.83.02V.719c0-.31-.41-.719-.72-.719H.72C.41 0 0 .409 0 .719v12.366c0 .31.41.72.72.72h4.596v3.14c0 .31.409.719.72.719l18.633-.077c.31 0 .719-.255.719-.72V4.501c0-.155-.41-.72-.72-.72z" fill="#FFF" fill-rule="evenodd"/></svg>