<svg xmlns="http://www.w3.org/2000/svg" width="42" height="42" viewBox="-10 -10 42 42"><path fill="#fff" fill-rule="evenodd" d="M15.848 14.88c.836.874 1.802 1.38 2.633 2.26.696.737.691 1.64-.009 2.385-.472.502-.975.98-1.421 1.505-.652.77-1.465 1.018-2.401.963-1.36-.079-2.611-.553-3.819-1.17-2.68-1.372-4.972-3.273-6.893-5.676C2.517 13.37 1.345 11.43.575 9.249.2 8.195-.068 7.113.015 5.967c.053-.705.302-1.308.796-1.8.534-.534 1.037-1.091 1.562-1.635.682-.709 1.54-.709 2.226-.004.424.437.684.995 1.016 1.464.331.47.725 1.068 1.131 1.5.718.76.718 1.644.005 2.4-.512.542-.687.736-1.207 1.265-.136.143-.15.258-.08.433.346.865.84 1.634 1.396 2.353 1.12 1.445 2.384 2.73 3.893 3.729.323.211.682.368 1.019.561.17.102.289.07.428-.083.512-.552.901-.727 1.422-1.27.682-.714 1.54-.714 2.226 0zM22 5.5a5.5 5.5 0 0 1-8.513 4.602c-.37-.243-2.187.398-2.187.398s.67-1.856.466-2.198A5.5 5.5 0 1 1 22 5.5zm-6.261 2.25h-.972v.73h3.31v-.73h-.83V4.093h-.536v-.001h-1.944v.741h.972v2.919zm.68-4.426c.46 0 .832-.37.832-.824a.828.828 0 0 0-.832-.824.828.828 0 0 0-.832.824c0 .455.373.824.832.824z"/></svg>