<svg xmlns="http://www.w3.org/2000/svg" xmlns:xlink="http://www.w3.org/1999/xlink" viewBox="0 0 42 42"><path fill="#FFF" fill-rule="nonzero" d="M29.586 27.024c.583.588.566 1.56-.039 2.168l-.838.824L28.69 30c-.354.278-.762.51-1.199.682a4.946 4.946 0 0 1-1.223.308c-.192.02-4.632.438-10.142-5.092-3.986-4.001-5.455-6.95-5.067-10.177.045-.402.144-.803.303-1.224.173-.442.405-.852.682-1.208l-.022-.022.827-.836c.606-.608 1.575-.626 2.159-.04l2.936 2.948c.583.586.567 1.558-.04 2.167l-.488.49-.992.995.159.287c.519.938 1.229 2.223 2.578 3.578 1.346 1.351 2.624 2.063 3.558 2.583l.292.163 1.48-1.485c.605-.607 1.573-.625 2.158-.04l2.936 2.947zM21.88 11.54a.794.794 0 0 1 .537-1.493c3.99 1.44 6.67 4.355 7.998 8.683a.792.792 0 1 1-1.515.466c-1.184-3.86-3.509-6.39-7.02-7.656zm-1.23 3.805a.794.794 0 0 1 .6-1.468c2.427.994 4.215 2.839 5.342 5.492a.792.792 0 1 1-1.458.621c-.968-2.279-2.455-3.813-4.484-4.645z"/></svg>