<svg width="39" height="39" viewBox="0 0 76 76" fill="none" xmlns="http://www.w3.org/2000/svg">
	<path fill-rule="evenodd" clip-rule="evenodd" d="M52.0352 31.8017C55.9926 31.8017 59.2007 28.5936 59.2007 24.6362C59.2007 20.6788 55.9926 17.4707 52.0352 17.4707C48.0778 17.4707 44.8697 20.6788 44.8697 24.6362C44.8697 28.5936 48.0778 31.8017 52.0352 31.8017ZM52.0354 36.0763C53.2237 36.0763 54.3697 35.8951 55.4472 35.5589V45.4928C55.4472 47.0407 54.1924 48.2955 52.6445 48.2955H38.157L29.917 56.5345C29.413 57.0384 28.5513 56.6815 28.5513 55.9688V48.2955H23.6695C22.1216 48.2955 20.8668 47.0407 20.8668 45.4928V26.1265C20.8668 24.5786 22.1216 23.3238 23.6695 23.3238H40.6702C40.621 23.7546 40.5957 24.1926 40.5957 24.6366C40.5957 30.9546 45.7174 36.0763 52.0354 36.0763Z" fill="white"/>
</svg>
