<svg xmlns:xlink="http://www.w3.org/1999/xlink" xmlns="http://www.w3.org/2000/svg" viewBox="0 0 100% 1285"
	 preserveAspectRatio="xMinYMin meet" style="width: 100%; height: 1285px" fill="none">

	<svg height="1285px">
		<defs>
			<g id="block-btn-top">
				<rect x="0" y="19" width="133" height="39" rx="3.5" stroke="#C6CDD3" />
			</g>

			<g id="block-line">
				<rect x="290" y="0" width="100%" height="1" fill="#C6CDD3" />
			</g>

			<g id="block-vertical-line">
				<rect x="0" y="447" width="1" height="72" rx="0.5" fill="#ecedee" />
			</g>

			<g id="block-table-line">
				<rect x="290" y="0" width="100%" height="1" fill="#eaeaea" />
			</g>
		</defs>

		<rect width="100%" height="1285" fill="#EEF2F4" />
		<use xlink:href="#block-btn-top" x="100%" transform="translate(-153, 0)"></use>
		<use xlink:href="#block-btn-top" x="100%" transform="translate(-296, 0)"></use>

		<rect x="271" y="74" width="100%" height="75" rx="10" fill="white" />
		<rect x="271" y="164" width="100%" height="375" rx="10" fill="white" />
		<rect x="271" y="554" width="100%" height="375" rx="10" fill="white" />
		<rect x="290" y="93.5" width="100%" height="37" stroke="#C6CDD3" />

		<use xlink:href="#block-line" y="218"></use>
		<use xlink:href="#block-line" y="428"></use>
		<use xlink:href="#block-vertical-line" x="338"></use>
		<use xlink:href="#block-vertical-line" x="549"></use>
		<use xlink:href="#block-vertical-line" x="761"></use>
		<use xlink:href="#block-vertical-line" x="972"></use>

		<use xlink:href="#block-line" y="674"></use>
		<use xlink:href="#block-line" y="725"></use>
		<use xlink:href="#block-line" y="778"></use>
		<use xlink:href="#block-line" y="830"></use>
		<use xlink:href="#block-line" y="882"></use>
		<use xlink:href="#block-line" y="608"></use>
	</svg>

	<svg height="1285px" id="animated-elements">
		<defs>
			<g id="menu-left--animat">
				<rect x="25" y="89" width="134" height="8" rx="2" fill="#dee3e6" />
			</g>

			<g id="block-btn-top--animat">
				<rect x="0" y="34" width="105" height="10" rx="2" fill="#dee3e6" />
			</g>

			<g id="block-vertical-separator--animat">
				<rect x="0" y="447" width="1" height="72" rx="0.5" fill="#ecedee" />
			</g>

			<g id="block-vertical-text--animat">
				<rect x="360" y="452" width="130" height="8" rx="2" fill="#f4f4f5" />
				<rect x="360" y="474" width="130" height="8" rx="2" fill="#f4f4f5" />
				<rect x="361" y="496" width="48" height="13" rx="2" fill="#f4f4f5" />
			</g>

			<g id="block-table-title--animat">
				<rect x="293" y="189" width="26%" height="8" rx="2" fill="#ecedee" />
			</g>
			<g id="block-table-row--animat">
				<rect x="293" y="639" width="92" height="8" rx="2" fill="#ecedee" />
				<rect x="435" y="639" width="92" height="8" rx="2" fill="#ecedee" />
				<rect x="577" y="639" width="92" height="8" rx="2" fill="#ecedee" />
				<rect x="719" y="639" width="92" height="8" rx="2" fill="#ecedee" />
				<rect x="861" y="639" width="92" height="8" rx="2" fill="#ecedee" />
				<rect x="1003" y="639" width="92" height="8" rx="2" fill="#ecedee" />
			</g>
		</defs>

		<rect x="25" y="30" width="151" height="13" rx="2" fill="#dee3e6" />
		<use xlink:href="#menu-left--animat"></use>
		<rect x="49" y="130" width="134" height="8" rx="2" fill="#dee3e6" />
		<rect x="49" y="169" width="134" height="8" rx="2" fill="#dee3e6" />
		<use xlink:href="#menu-left--animat" y="123"></use>
		<use xlink:href="#menu-left--animat" y="165"></use>
		<use xlink:href="#menu-left--animat" y="207"></use>
		<use xlink:href="#menu-left--animat" y="249"></use>
		<rect x="286" y="31" width="36%" height="12" rx="2" fill="#dee3e6" />

		<use xlink:href="#block-btn-top--animat" x="100%" transform="translate(-139, 0)"></use>
		<use xlink:href="#block-btn-top--animat" x="100%"  transform="translate(-282, 0)"></use>

		<use xlink:href="#block-table-title--animat"></use>

		<rect x="338" y="243" width="164" height="185" fill="#f4f4f5"/>
		<rect x="550" y="298" width="164" height="130" fill="#f4f4f5"/>
		<rect x="761" y="345" width="164" height="83" fill="#f4f4f5"/>
		<rect x="973" y="384" width="222" height="44" fill="#f4f4f5" />
		<use xlink:href="#block-vertical-text--animat"></use>
		<use xlink:href="#block-vertical-text--animat" x="211"></use>
		<use xlink:href="#block-vertical-text--animat" x="423"></use>
		<use xlink:href="#block-vertical-text--animat" x="634"></use>
		<use xlink:href="#block-table-title--animat" y="390"></use>

		<use xlink:href="#block-table-row--animat"></use>

		<use xlink:href="#block-table-row--animat" y="57"></use>
		<use xlink:href="#block-table-row--animat" y="110"></use>
		<use xlink:href="#block-table-row--animat" y="162"></use>
		<use xlink:href="#block-table-row--animat" y="214"></use>

	</svg>

	<rect id="msk1" width="100%" fill="url(#msk_gd)" mask="url(#headerMsk)" height="1270"/>

	<mask id="headerMsk" fill="white">
		<use xlink:href="#animated-elements"/>
	</mask>

	<linearGradient x1="66.6%" y1="50%" x2="33.3%" y2="50%" id="msk_gd">
		<stop stop-color="#000000" stop-opacity="0" offset="0%"/>
		<stop stop-color="#000000" stop-opacity="0.07" offset="50%"/>
		<stop stop-color="#000000" stop-opacity="0" offset="100%"/>
	</linearGradient>

	<animate xlink:href="#msk1" attributeName="x" from="-100%" to="100%" dur="1s" begin="0s" repeatCount="indefinite"/>

	<svg height="100%">
		<defs>
			<g id="upper-right-corner">
				<path d="M9.99997 10V0H0C5.52285 0 9.99997 4.47715 9.99997 10Z" fill="#eef2f4"/>
			</g>
			<g id="lower-right-corner">
				<path d="M9.99997 0V10H0C5.52285 10 9.99997 5.52285 9.99997 0Z" fill="#eef2f4"/>
			</g>
		</defs>

		<rect width="1" height="37" fill="#C6CDD3" x="100%" y="94" transform="translate(-41)" />
		<rect width="20" height="100%" fill="#EEF2F4" x="100%" transform="translate(-20)" />

		<rect width="20" height="60" fill="#ffffff" x="100%" y="84" transform="translate(-40)" />
		<rect width="20" height="340" fill="#ffffff" x="100%" y="185" transform="translate(-40)" />
		<rect width="20" height="340" fill="#ffffff" x="100%" y="554" transform="translate(-40)" />

		<use xlink:href="#upper-right-corner" x="100%" y="74" transform="translate(-30)" ></use>
		<use xlink:href="#lower-right-corner" x="100%" y="139" transform="translate(-30)" ></use>

		<use xlink:href="#upper-right-corner" x="100%" y="164" transform="translate(-30)" ></use>
		<use xlink:href="#lower-right-corner" x="100%" y="529" transform="translate(-30)" ></use>

		<use xlink:href="#upper-right-corner" x="100%" y="554" transform="translate(-30)" ></use>
		<use xlink:href="#lower-right-corner" x="100%" y="919" transform="translate(-30)" ></use>
	</svg>
</svg>