<svg width="165" height="155" viewBox="0 0 165 155" fill="none" xmlns="http://www.w3.org/2000/svg">
<g clip-path="url(#clip0_20748_227468)">
<g clip-path="url(#clip1_20748_227468)">
<path opacity="0.6" fill-rule="evenodd" clip-rule="evenodd" d="M114.716 156.339H-9.57203C-10.6185 156.339 -11.6559 156.298 -12.6829 156.218C-40.322 155.555 -62.5323 131.732 -62.5337 102.443C-62.5257 88.1675 -57.1376 74.4799 -47.5549 64.3915C-42.643 59.2203 -36.8351 55.2118 -30.5163 52.534C-30.622 51.0814 -30.6759 49.6134 -30.6759 48.1322C-30.6672 33.0693 -24.9818 18.627 -14.8705 7.98239C-4.75926 -2.66219 8.94968 -8.6371 23.2405 -8.62792C41.5466 -8.60439 61.6943 1.04444 71.4074 15.7716C76.02 14.049 80.9853 13.1128 86.1582 13.1157C109.009 13.1446 127.778 31.5052 129.954 54.9852C151.849 60.0165 164.248 80.5765 164.229 105.158C164.207 133.487 144.4 156.436 117.523 156.424C116.581 156.424 115.645 156.395 114.716 156.339Z" fill="#C3F0FF"/>
<path opacity="0.3" fill-rule="evenodd" clip-rule="evenodd" d="M14.4692 40.1425C14.4692 38.0431 16.2743 36.3408 18.501 36.3408C20.1199 36.3408 21.5057 37.2464 22.1481 38.5455C22.6622 38.3676 23.2097 38.255 23.7892 38.255C26.355 38.255 28.4313 40.1655 28.5496 42.5566C28.6483 42.5494 28.7445 42.5288 28.8456 42.5288C30.9293 42.5288 32.6172 44.1245 32.6172 46.0931C32.6172 48.063 30.9293 49.6587 28.8456 49.6587C28.5114 49.6587 27.387 49.6587 27.1169 49.6587H16.9351C16.7255 49.6587 15.7626 49.6587 15.4667 49.6587C12.6814 49.6587 10.4239 47.5351 10.4239 44.9139C10.4239 42.6111 12.1685 40.6946 14.4828 40.2635C14.4815 40.2224 14.4692 40.1836 14.4692 40.1425Z" fill="white"/>
<path opacity="0.3" fill-rule="evenodd" clip-rule="evenodd" d="M143.718 72.7404C143.718 71.1511 142.348 69.8623 140.657 69.8623C139.428 69.8623 138.376 70.5479 137.888 71.5314C137.498 71.3967 137.082 71.3115 136.642 71.3115C134.694 71.3115 133.118 72.7579 133.028 74.5682C132.953 74.5627 132.88 74.5471 132.803 74.5471C131.221 74.5471 129.939 75.7552 129.939 77.2456C129.939 78.7369 131.221 79.945 132.803 79.945C133.057 79.945 133.91 79.945 134.115 79.945H141.846C142.005 79.945 142.736 79.945 142.961 79.945C145.075 79.945 146.789 78.3372 146.789 76.3528C146.789 74.6094 145.465 73.1584 143.708 72.8321C143.709 72.8009 143.718 72.7716 143.718 72.7404Z" fill="white"/>
</g>
<g opacity="0.8" filter="url(#filter0_d_20748_227468)">
<path fill-rule="evenodd" clip-rule="evenodd" d="M106.503 125.74H41.3919C40.8347 125.74 40.2824 125.72 39.7356 125.681C25.0203 125.353 14.1443 113.589 14.1436 99.1247C14.1478 92.0749 17.2583 85.7673 21.7827 80.2496C23.9454 77.612 25.5117 75.8734 28.6744 74.2873C28.6182 73.57 28.5895 72.845 28.5895 72.1136C28.5941 64.675 31.6211 57.5429 37.0044 52.2862C42.3878 47.0296 49.6865 44.079 57.2951 44.0835C67.0415 44.0951 75.5423 49.2509 80.7137 56.5237C84.1184 55.673 88.3285 55.4012 91.0826 55.4026C103.249 55.4169 113.241 64.484 114.4 76.0792C126.057 78.5638 133.936 88.3262 133.925 100.466C133.913 114.455 122.307 125.788 107.998 125.782C107.496 125.782 106.998 125.768 106.503 125.74Z" fill="url(#paint0_linear_20748_227468)" shape-rendering="crispEdges"/>
</g>
<g filter="url(#filter1_d_20748_227468)">
<g opacity="0.9">
<g filter="url(#filter2_i_20748_227468)">
<path d="M38.6885 46.0913C38.6885 43.8822 40.4793 42.0913 42.6885 42.0913H104.399C106.608 42.0913 108.399 43.8822 108.399 46.0913V76.948C108.399 79.1572 106.608 80.9481 104.399 80.9481H42.6885C40.4793 80.9481 38.6885 79.1572 38.6885 76.9481V46.0913Z" fill="white"/>
</g>
<rect opacity="0.5" x="43.5977" y="47.0732" width="16.6909" height="2.98898" rx="1.49449" fill="#BDC1C6"/>
<rect opacity="0.5" x="43.5977" y="61.0215" width="17.6727" height="2.98898" rx="1.49449" fill="#BDC1C6"/>
<rect x="43.5977" y="53.0513" width="26.5091" height="2.98898" rx="1.49449" fill="black" fill-opacity="0.05"/>
<rect x="43.5977" y="66.9995" width="26.5091" height="2.98898" rx="1.49449" fill="black" fill-opacity="0.05"/>
</g>
<g opacity="0.9">
<g filter="url(#filter3_i_20748_227468)">
<path d="M38.6885 88.9336C38.6885 86.7245 40.4793 84.9336 42.6885 84.9336H67.0885C69.2976 84.9336 71.0885 86.7245 71.0885 88.9336V105.842C71.0885 108.051 69.2976 109.842 67.0885 109.842H42.6885C40.4793 109.842 38.6885 108.051 38.6885 105.842V88.9336Z" fill="white"/>
</g>
<rect opacity="0.4" x="44.5791" y="92.9038" width="12.7636" height="2.98898" rx="1.49449" fill="#A8ADB4"/>
<rect x="44.5791" y="98.8818" width="16.6909" height="2.98898" rx="1.49449" fill="black" fill-opacity="0.05"/>
</g>
<g opacity="0.9">
<g filter="url(#filter4_i_20748_227468)">
<path d="M75.0156 88.9336C75.0156 86.7245 76.8065 84.9336 79.0156 84.9336H104.397C106.607 84.9336 108.397 86.7245 108.397 88.9336V105.842C108.397 108.051 106.607 109.842 104.397 109.842H79.0156C76.8065 109.842 75.0156 108.051 75.0156 105.842V88.9336Z" fill="white"/>
</g>
<rect opacity="0.4" x="80.9062" y="92.9038" width="12.7636" height="2.98898" rx="1.49449" fill="#A8ADB4"/>
<rect x="80.9062" y="98.8818" width="16.6909" height="2.98898" rx="1.49449" fill="black" fill-opacity="0.05"/>
</g>
</g>
<ellipse cx="96.795" cy="61.8665" rx="15.7091" ry="15.9412" fill="#00ACE3"/>
<path fill-rule="evenodd" clip-rule="evenodd" d="M92.1366 57.9703C93.086 57.9703 93.9783 58.3543 93.9783 59.4488C93.9783 60.4344 93.0902 61.0877 91.9838 61.9017C90.2882 63.1491 88.0798 64.7738 87.7695 68.55H96.8643V66.3228H91.1491C91.4953 65.1645 92.5852 64.3245 93.7081 63.459C95.1726 62.3301 96.6934 61.158 96.6934 59.1799C96.6934 57.1831 95.3453 55.7622 92.5544 55.7622C90.7696 55.7622 89.2695 56.319 88.1872 56.8183L88.8519 58.8344C89.8202 58.3927 90.8645 57.9703 92.1366 57.9703ZM102.01 63.4234H100.871C100.434 63.4234 99.5226 63.4618 99.2948 63.481L102.124 59.6984C102.086 59.948 102.01 61.0809 102.01 62.0601V63.4234ZM102.674 55.8007L96.4088 63.865V65.5355H102.01V68.55H104.535V65.5355H106.396V63.4234H104.535V55.8007H102.674Z" fill="white"/>
</g>
<defs>
<filter id="filter0_d_20748_227468" x="10.1436" y="42.0835" width="127.782" height="89.6987" filterUnits="userSpaceOnUse" color-interpolation-filters="sRGB">
<feFlood flood-opacity="0" result="BackgroundImageFix"/>
<feColorMatrix in="SourceAlpha" type="matrix" values="0 0 0 0 0 0 0 0 0 0 0 0 0 0 0 0 0 0 127 0" result="hardAlpha"/>
<feOffset dy="2"/>
<feGaussianBlur stdDeviation="2"/>
<feComposite in2="hardAlpha" operator="out"/>
<feColorMatrix type="matrix" values="0 0 0 0 0.025382 0 0 0 0 0.275095 0 0 0 0 0.358333 0 0 0 0.06 0"/>
<feBlend mode="normal" in2="BackgroundImageFix" result="effect1_dropShadow_20748_227468"/>
<feBlend mode="normal" in="SourceGraphic" in2="effect1_dropShadow_20748_227468" result="shape"/>
</filter>
<filter id="filter1_d_20748_227468" x="31.6141" y="37.375" width="83.8593" height="81.8993" filterUnits="userSpaceOnUse" color-interpolation-filters="sRGB">
<feFlood flood-opacity="0" result="BackgroundImageFix"/>
<feColorMatrix in="SourceAlpha" type="matrix" values="0 0 0 0 0 0 0 0 0 0 0 0 0 0 0 0 0 0 127 0" result="hardAlpha"/>
<feOffset dy="2.35813"/>
<feGaussianBlur stdDeviation="3.5372"/>
<feComposite in2="hardAlpha" operator="out"/>
<feColorMatrix type="matrix" values="0 0 0 0 0.423529 0 0 0 0 0.423529 0 0 0 0 0.423529 0 0 0 0.12 0"/>
<feBlend mode="normal" in2="BackgroundImageFix" result="effect1_dropShadow_20748_227468"/>
<feBlend mode="normal" in="SourceGraphic" in2="effect1_dropShadow_20748_227468" result="shape"/>
</filter>
<filter id="filter2_i_20748_227468" x="38.6885" y="42.0913" width="69.7104" height="38.8569" filterUnits="userSpaceOnUse" color-interpolation-filters="sRGB">
<feFlood flood-opacity="0" result="BackgroundImageFix"/>
<feBlend mode="normal" in="SourceGraphic" in2="BackgroundImageFix" result="shape"/>
<feColorMatrix in="SourceAlpha" type="matrix" values="0 0 0 0 0 0 0 0 0 0 0 0 0 0 0 0 0 0 127 0" result="hardAlpha"/>
<feOffset dx="2"/>
<feComposite in2="hardAlpha" operator="arithmetic" k2="-1" k3="1"/>
<feColorMatrix type="matrix" values="0 0 0 0 0.866667 0 0 0 0 0.878431 0 0 0 0 0.894118 0 0 0 1 0"/>
<feBlend mode="normal" in2="shape" result="effect1_innerShadow_20748_227468"/>
</filter>
<filter id="filter3_i_20748_227468" x="38.6885" y="84.9336" width="32.3999" height="24.9082" filterUnits="userSpaceOnUse" color-interpolation-filters="sRGB">
<feFlood flood-opacity="0" result="BackgroundImageFix"/>
<feBlend mode="normal" in="SourceGraphic" in2="BackgroundImageFix" result="shape"/>
<feColorMatrix in="SourceAlpha" type="matrix" values="0 0 0 0 0 0 0 0 0 0 0 0 0 0 0 0 0 0 127 0" result="hardAlpha"/>
<feOffset dx="2"/>
<feComposite in2="hardAlpha" operator="arithmetic" k2="-1" k3="1"/>
<feColorMatrix type="matrix" values="0 0 0 0 1 0 0 0 0 0.662745 0 0 0 0 0 0 0 0 0.4 0"/>
<feBlend mode="normal" in2="shape" result="effect1_innerShadow_20748_227468"/>
</filter>
<filter id="filter4_i_20748_227468" x="75.0156" y="84.9336" width="33.3818" height="24.9082" filterUnits="userSpaceOnUse" color-interpolation-filters="sRGB">
<feFlood flood-opacity="0" result="BackgroundImageFix"/>
<feBlend mode="normal" in="SourceGraphic" in2="BackgroundImageFix" result="shape"/>
<feColorMatrix in="SourceAlpha" type="matrix" values="0 0 0 0 0 0 0 0 0 0 0 0 0 0 0 0 0 0 127 0" result="hardAlpha"/>
<feOffset dx="2"/>
<feComposite in2="hardAlpha" operator="arithmetic" k2="-1" k3="1"/>
<feColorMatrix type="matrix" values="0 0 0 0 0.184314 0 0 0 0 0.776471 0 0 0 0 0.964706 0 0 0 0.4 0"/>
<feBlend mode="normal" in2="shape" result="effect1_innerShadow_20748_227468"/>
</filter>
<linearGradient id="paint0_linear_20748_227468" x1="73.56" y1="59.53" x2="73.56" y2="125.782" gradientUnits="userSpaceOnUse">
<stop stop-color="white" stop-opacity="0.4"/>
<stop offset="1" stop-color="white" stop-opacity="0.8"/>
</linearGradient>
<clipPath id="clip1_20748_227468">
<rect width="228.171" height="166.481" fill="white" transform="translate(-63.1719 -9.56787)"/>
</clipPath>
</defs>
</svg>
