<svg width="33" height="37" viewBox="0 0 33 37" fill="none" xmlns="http://www.w3.org/2000/svg">
	<path fill-rule="evenodd" clip-rule="evenodd" d="M0.5 2.11429C0.5 0.946598 1.4466 0 2.61429 0H19.7099C20.2707 0 20.8085 0.222754 21.205 0.61926L28.4236 7.83788C28.8201 8.23439 29.0429 8.77217 29.0429 9.33291V34.8857C29.0429 36.0534 28.0963 37 26.9286 37H2.61429C1.4466 37 0.5 36.0534 0.5 34.8857V2.11429Z" fill="#E5E8EB"/>
	<mask id="mask0_3601_164522" style="mask-type:alpha" maskUnits="userSpaceOnUse" x="0" y="0" width="30" height="37">
		<path fill-rule="evenodd" clip-rule="evenodd" d="M0.5 2.11429C0.5 0.946598 1.4466 0 2.61429 0H19.7099C20.2707 0 20.8085 0.222754 21.205 0.61926L28.4236 7.83788C28.8201 8.23439 29.0429 8.77217 29.0429 9.33291V34.8857C29.0429 36.0534 28.0963 37 26.9286 37H2.61429C1.4466 37 0.5 36.0534 0.5 34.8857V2.11429Z" fill="#525C69"/>
	</mask>
	<g mask="url(#mask0_3601_164522)">
		<path opacity="0.15" fill-rule="evenodd" clip-rule="evenodd" d="M19.6692 0C19.4106 0 29.0429 0 29.0429 0C29.0429 0 29.0429 9.70945 29.0429 9.39614C29.0429 9.08284 28.7779 8.98571 28.6171 8.98571C28.492 8.98571 23.3747 8.98571 21.1132 8.98571C20.5294 8.98571 20.0572 8.51318 20.0572 7.92934C20.0572 5.65449 20.0572 0.489119 20.0572 0.395787C20.0572 0.276032 19.9277 0 19.6692 0Z" fill="#525C69"/>
	</g>
	<path d="M12.1289 19.0286C12.1289 18.1528 12.8389 17.4429 13.7146 17.4429H30.6289C31.5047 17.4429 32.2146 18.1528 32.2146 19.0286V26.4286C32.2146 27.3044 31.5047 28.0143 30.6289 28.0143H13.7146C12.8389 28.0143 12.1289 27.3044 12.1289 26.4286V19.0286Z" fill="#746781"/>
	<path fill-rule="evenodd" clip-rule="evenodd" d="M15.3008 25.6114H16.1638V23.666H16.4356C16.9205 23.666 17.2821 23.5905 17.5698 23.4648C18.293 23.1546 18.5643 22.5176 18.5643 21.8714C18.5643 21.1422 18.252 20.614 17.7177 20.329C17.4054 20.1614 17.0274 20.0859 16.5096 20.0859H15.3008V25.6114ZM16.1637 22.9451V20.8068H16.4849C16.8054 20.8068 17.0356 20.8655 17.2082 20.9661C17.5123 21.1505 17.6602 21.4775 17.6602 21.8714C17.6602 22.3157 17.504 22.6433 17.1753 22.8026C17.0109 22.8948 16.789 22.9451 16.4931 22.9451H16.1637ZM20.117 25.6114H20.9799V23.163H23.6928V25.6114H24.5564V20.0859H23.6928V22.4163H20.9799V20.0859H20.117V25.6114ZM26.1906 25.6114H27.0536V23.666H27.3248C27.8104 23.666 28.172 23.5905 28.4597 23.4648C29.1829 23.1546 29.4541 22.5176 29.4541 21.8715C29.4541 21.1422 29.1418 20.6141 28.6076 20.329C28.2953 20.1614 27.9172 20.0859 27.3988 20.0859H26.1906V25.6114ZM27.0536 22.9451V20.8068H27.3741C27.6953 20.8068 27.9254 20.8655 28.098 20.9661C28.4021 21.1505 28.5501 21.4775 28.5501 21.8714C28.5501 22.3157 28.3939 22.6433 28.0652 22.8026C27.9008 22.8948 27.6789 22.9451 27.3824 22.9451H27.0536Z" fill="white"/>
	<path d="M12.1289 19.0286C12.1289 18.1528 12.8389 17.4429 13.7146 17.4429H30.6289C31.5047 17.4429 32.2146 18.1528 32.2146 19.0286V26.4286C32.2146 27.3044 31.5047 28.0143 30.6289 28.0143H13.7146C12.8389 28.0143 12.1289 27.3044 12.1289 26.4286V19.0286Z" fill="#FFA900"/>
	<path fill-rule="evenodd" clip-rule="evenodd" d="M15.3008 25.6114H16.1638V23.666H16.4356C16.9205 23.666 17.2821 23.5905 17.5698 23.4648C18.293 23.1546 18.5643 22.5176 18.5643 21.8714C18.5643 21.1422 18.252 20.614 17.7177 20.329C17.4054 20.1614 17.0274 20.0859 16.5096 20.0859H15.3008V25.6114ZM16.1637 22.9451V20.8068H16.4849C16.8054 20.8068 17.0356 20.8655 17.2082 20.9661C17.5123 21.1505 17.6602 21.4775 17.6602 21.8714C17.6602 22.3157 17.504 22.6433 17.1753 22.8026C17.0109 22.8948 16.789 22.9451 16.4931 22.9451H16.1637ZM20.117 25.6114H20.9799V23.163H23.6928V25.6114H24.5564V20.0859H23.6928V22.4163H20.9799V20.0859H20.117V25.6114ZM26.1906 25.6114H27.0536V23.666H27.3248C27.8104 23.666 28.172 23.5905 28.4597 23.4648C29.1829 23.1546 29.4541 22.5176 29.4541 21.8715C29.4541 21.1422 29.1418 20.6141 28.6076 20.329C28.2953 20.1614 27.9172 20.0859 27.3988 20.0859H26.1906V25.6114ZM27.0536 22.9451V20.8068H27.3741C27.6953 20.8068 27.9254 20.8655 28.098 20.9661C28.4021 21.1505 28.5501 21.4775 28.5501 21.8714C28.5501 22.3157 28.3939 22.6433 28.0652 22.8026C27.9008 22.8948 27.6789 22.9451 27.3824 22.9451H27.0536Z" fill="white"/>
</svg>