<svg width="15" height="11" viewBox="0 0 15 11" fill="none" xmlns="http://www.w3.org/2000/svg">
	<path fill-rule="evenodd" clip-rule="evenodd" d="M13.6828 1.83333H10.6964C10.4831 0.999982 10.2698 0.166656 9.41659 0.166656H6.00367C5.15045 0.166656 4.93712 0.999982 4.72382 1.83333H1.7375C1.26823 1.83333 0.884277 2.20833 0.884277 2.66666V10.1667C0.884277 10.625 1.26823 11 1.7375 11H13.6828C14.152 11 14.536 10.625 14.536 10.1667V2.66666C14.536 2.20833 14.152 1.83333 13.6828 1.83333ZM5.41086 6.44348C5.41086 7.69518 6.44978 8.70987 7.73137 8.70987C9.01295 8.70987 10.0519 7.69518 10.0519 6.44348C10.0519 5.19178 9.01298 4.17709 7.73139 4.17709C6.4498 4.17709 5.41086 5.19178 5.41086 6.44348ZM7.73139 9.53799C5.98153 9.53799 4.56298 8.15254 4.56298 6.44348C4.56298 4.73443 5.98151 3.34896 7.73139 3.34896C9.48126 3.34896 10.8998 4.73441 10.8998 6.44348C10.8998 8.15254 9.48128 9.53799 7.73139 9.53799ZM13.3815 3.65416H12.2098V2.87916H13.3815V3.65416Z" fill="#C2C5CA"/>
</svg>
