<svg width="24" height="24" viewBox="0 0 24 24" fill="none" xmlns="http://www.w3.org/2000/svg">
<path d="M11.1903 2.71291C11.1903 2.46022 11.4958 2.33367 11.6745 2.51235L14.2597 5.09755C14.3705 5.20832 14.3705 5.3879 14.2597 5.49867L11.6745 8.08387C11.4958 8.26255 11.1903 8.136 11.1903 7.88331V6.6581C10.663 6.74578 10.1504 6.91086 9.67041 7.14807C9.53007 7.21742 9.3576 7.16964 9.28089 7.03319L8.31635 5.31761C8.23953 5.18097 8.2879 5.00745 8.42726 4.93568C9.28955 4.4916 10.2271 4.20794 11.1903 4.09924V2.71291Z" fill="#525C69"/>
<path d="M16.0749 8.34644C15.9691 8.23081 15.967 8.05156 16.077 7.9399L17.4581 6.53734C17.5679 6.42577 17.7479 6.42406 17.8555 6.53782C20.1613 8.97525 20.7503 12.7122 19.0552 15.8158C17.3674 18.906 13.9276 20.4303 10.6436 19.8289C10.4895 19.8007 10.3928 19.6489 10.4265 19.4959L10.8496 17.5735C10.8833 17.4205 11.0347 17.3245 11.1893 17.3502C13.3994 17.7165 15.6959 16.6779 16.8304 14.6007C17.9699 12.5143 17.5943 10.0079 16.0749 8.34644Z" fill="#525C69"/>
<path d="M8.26308 18.9834C8.37522 19.0447 8.48818 19.1029 8.60187 19.1582C8.74284 19.2268 8.91077 19.1616 8.97417 19.0182L9.76994 17.2184C9.83323 17.0752 9.76821 16.9085 9.62859 16.8377C9.57826 16.8122 9.52814 16.7858 9.47827 16.7586C8.02705 15.966 7.08275 14.6061 6.77034 13.1049C6.73844 12.9516 6.59445 12.8453 6.4397 12.869L4.49457 13.1677C4.33965 13.1915 4.23289 13.3366 4.26228 13.4905C4.69273 15.7454 6.09114 17.7971 8.26308 18.9834Z" fill="#525C69"/>
<path d="M4.4173 11.5493C4.26101 11.54 4.14126 11.4058 4.15602 11.2499C4.25469 10.2078 4.56196 9.16822 5.09551 8.19134C5.50791 7.43627 6.02492 6.77469 6.61869 6.21477C6.73265 6.10731 6.91222 6.11939 7.01553 6.23713L8.31384 7.71676C8.41717 7.83451 8.40488 8.0132 8.29273 8.12258C7.91556 8.49044 7.58609 8.91998 7.32036 9.4065C6.97229 10.0438 6.76557 10.7203 6.68965 11.3999C6.67225 11.5557 6.5387 11.6751 6.38225 11.6659L4.4173 11.5493Z" fill="#525C69"/>
<path d="M8.41957 12.3819C8.19804 12.1603 8.19804 11.8012 8.41957 11.5796L9.00508 10.9941C9.22662 10.7726 9.58579 10.7726 9.80732 10.9941L11.2322 12.419L14.2641 9.3871C14.4856 9.16557 14.8448 9.16557 15.0663 9.3871L15.6518 9.97262C15.8734 10.1942 15.8734 10.5533 15.6518 10.7749L11.6335 14.7932C11.6066 14.8201 11.5778 14.8437 11.5473 14.864C11.3269 15.0116 11.0258 14.9881 10.831 14.7933L8.41957 12.3819Z" fill="#525C69"/>
</svg>
