<svg width="24" height="24" viewBox="0 0 24 24" fill="none" xmlns="http://www.w3.org/2000/svg">
<path fill-rule="evenodd" clip-rule="evenodd" d="M17.2193 10.1697C16.628 10.1697 16.0558 10.2514 15.5133 10.404H11.711C11.583 10.404 11.479 10.302 11.479 10.176V5.83C11.479 5.704 11.376 5.601 11.248 5.601H6.851C6.723 5.601 6.62 5.704 6.62 5.83V18.179C6.62 18.306 6.723 18.408 6.851 18.408H11.2425C11.43 18.9825 11.6981 19.5206 12.0334 20.009H5.868C5.388 20.009 5 19.625 5 19.152V4.858C5 4.384 5.388 4 5.868 4H12.739C12.97 4 13.191 4.091 13.353 4.251L17.619 8.468C17.836 8.682 17.958 8.973 17.958 9.277V10.2127C17.7157 10.1843 17.4692 10.1697 17.2193 10.1697ZM8.528 12.005H12.7803C12.3125 12.4716 11.9178 13.0115 11.6149 13.606H8.528C8.369 13.606 8.239 13.477 8.239 13.32V12.291C8.239 12.133 8.369 12.005 8.528 12.005ZM8.528 15.207H11.0574C10.9761 15.6106 10.9334 16.0281 10.9334 16.4557C10.9334 16.5739 10.9367 16.6914 10.9431 16.808H8.528C8.369 16.808 8.239 16.679 8.239 16.522V15.492C8.239 15.334 8.369 15.207 8.528 15.207ZM13.099 6.472C13.099 6.426 13.138 6.387 13.186 6.387C13.209 6.387 13.231 6.396 13.247 6.412L15.519 8.657C15.553 8.69 15.553 8.744 15.519 8.778C15.502 8.794 15.481 8.803 15.457 8.803H13.186C13.138 8.803 13.099 8.764 13.099 8.717V6.472ZM8.587 10.404H9.512C9.704 10.404 9.859 10.25 9.859 10.06V9.146C9.859 8.956 9.704 8.803 9.512 8.803H8.587C8.395 8.803 8.239 8.956 8.239 9.146V10.06C8.239 10.25 8.395 10.404 8.587 10.404ZM17.219 21.0992C14.6543 21.0992 12.5752 19.0201 12.5752 16.4554C12.5752 13.8906 14.6543 11.8115 17.219 11.8115C19.7838 11.8115 21.8629 13.8906 21.8629 16.4554C21.8629 19.0201 19.7838 21.0992 17.219 21.0992ZM17.8767 13.8779H16.5611V15.798H14.6411V17.1135H16.5611V19.0335H17.8767V17.1135H19.7967V15.798H17.8767V13.8779Z" fill="#525C69"/>
</svg>
