<svg width="24" height="24" viewBox="0 0 24 24" fill="none" xmlns="http://www.w3.org/2000/svg">
<path fill-rule="evenodd" clip-rule="evenodd" d="M3.72248 6H19.1795C19.5784 6 19.9018 6.30888 19.9018 6.6899C19.9018 6.76713 19.8882 6.84382 19.8616 6.91675L19.3946 8.19801C19.2935 8.47527 19.0198 8.66106 18.7125 8.66106H4.18573C3.8777 8.66106 3.60357 8.47447 3.50301 8.19637L3.03976 6.91512C2.90955 6.55496 3.10965 6.16217 3.4867 6.03779C3.56255 6.01277 3.64223 6 3.72248 6ZM6.26833 10.919H15.6502C14.4456 11.4638 13.4597 12.4068 12.8602 13.58H6.74454C6.43879 13.58 6.16617 13.3962 6.06388 13.121L5.58767 11.8397C5.45422 11.4806 5.65077 11.0862 6.02669 10.9587C6.10428 10.9324 6.186 10.919 6.26833 10.919ZM12.2261 16.2245C12.2261 16.0999 12.23 15.9761 12.2378 15.8534H9.48638C9.40895 15.8534 9.33203 15.8653 9.25855 15.8886C8.88001 16.0088 8.67515 16.3993 8.80097 16.7609L9.24684 18.0422C9.34498 18.3242 9.62113 18.5145 9.93225 18.5145H12.6939C12.3928 17.8116 12.2261 17.0375 12.2261 16.2245ZM17.037 12.5C17.037 12.2239 17.2609 12 17.537 12H18.4629C18.739 12 18.9629 12.2239 18.9629 12.5V14.9844H21.5C21.7761 14.9844 22 15.2082 22 15.4844V16.515C22 16.7912 21.7761 17.015 21.5 17.015H18.9629V19.5C18.9629 19.7761 18.739 20 18.4629 20H17.537C17.2609 20 17.037 19.7761 17.037 19.5V17.015H14.5C14.2239 17.015 14 16.7912 14 16.515V15.4844C14 15.2082 14.2239 14.9844 14.5 14.9844H17.037V12.5Z" fill="#525C69"/>
</svg>
