<svg width="24" height="24" viewBox="0 0 24 24" fill="none" xmlns="http://www.w3.org/2000/svg">
<path fill-rule="evenodd" clip-rule="evenodd" d="M11.4726 18.9137V7.63822C9.06459 6.11428 6.85765 5.69906 5.76089 5.58683C5.36945 5.54697 5.03394 5.85691 5.03394 6.25013V16.0414C5.03394 16.377 5.28736 16.653 5.6199 16.6976C7.89889 17.0058 9.84924 17.7444 11.4726 18.9137ZM18.1489 10.4043C18.4264 10.4043 18.6993 10.4241 18.9663 10.4623V6.21027C18.9663 5.80634 18.61 5.50176 18.2096 5.54994C15.9667 5.81999 14.0726 6.51525 12.5276 7.63571V15.073C13.0201 12.4162 15.3495 10.4043 18.1489 10.4043ZM12.5276 18.8383L12.532 18.852L12.5276 18.8553V18.8383ZM17.037 12.5C17.037 12.2239 17.2609 12 17.537 12H18.4629C18.739 12 18.9629 12.2239 18.9629 12.5V14.9844H21.5C21.7761 14.9844 22 15.2082 22 15.4844V16.515C22 16.7912 21.7761 17.0151 21.5 17.0151H18.9629V19.5C18.9629 19.7761 18.739 20 18.4629 20H17.537C17.2609 20 17.037 19.7761 17.037 19.5V17.015H14.5C14.2239 17.015 14 16.7912 14 16.515V15.4844C14 15.2082 14.2239 14.9844 14.5 14.9844H17.037V12.5Z" fill="#525C69"/>
</svg>
