<svg width="24" height="24" viewBox="0 0 24 24" fill="none" xmlns="http://www.w3.org/2000/svg">
<path fill-rule="evenodd" clip-rule="evenodd" d="M3.72266 5.72168C3.72266 5.44554 3.94651 5.22168 4.22266 5.22168H17.2388C17.515 5.22168 17.7388 5.44554 17.7388 5.72168V6.99804C17.7388 7.19798 17.6215 7.3705 17.4519 7.4505C17.202 7.42459 16.9483 7.41131 16.6916 7.41131C16.308 7.41131 15.9314 7.44094 15.5639 7.49804H4.22266C3.94651 7.49804 3.72266 7.27418 3.72266 6.99804V5.72168ZM9.40526 14.6976C9.40526 14.64 9.40593 14.5826 9.40726 14.5254H4.22266C3.94651 14.5254 3.72266 14.7492 3.72266 15.0254V16.3018C3.72266 16.5779 3.94651 16.8018 4.22266 16.8018H9.71369C9.51308 16.1356 9.40526 15.4292 9.40526 14.6976ZM9.86327 12.1494C10.1784 11.3054 10.6455 10.5355 11.2313 9.87305H4.22266C3.94651 9.87305 3.72266 10.0969 3.72266 10.373V11.6494C3.72266 11.9256 3.94651 12.1494 4.22266 12.1494H9.86327ZM14.8856 14.1706L16.085 15.37L18.9605 12.4946L19.8084 13.3425L16.0859 17.0651L16.0397 17.0189L16.0389 17.0197L14.0377 15.0185L14.8856 14.1706ZM11.336 14.7137C11.336 17.6715 13.7338 20.0693 16.6916 20.0693C19.6493 20.0693 22.0471 17.6715 22.0471 14.7137C22.0471 11.756 19.6493 9.35822 16.6916 9.35822C13.7338 9.35822 11.336 11.756 11.336 14.7137Z" fill="#525C69"/>
</svg>
