<svg width="24" height="24" viewBox="0 0 24 24" fill="none" xmlns="http://www.w3.org/2000/svg">
<path fill-rule="evenodd" clip-rule="evenodd" d="M6.87719 7.11398L11.1533 11.3321C11.3047 11.4431 11.3943 11.6198 11.3943 11.8075C11.3943 11.9953 11.3047 12.172 11.1533 12.2829L6.87719 16.5012C6.69807 16.6324 6.46036 16.6519 6.26231 16.5514C6.06426 16.451 5.9394 16.2479 5.9394 16.0257V13.6528H3.58942C3.26382 13.6528 3 13.3889 3 13.0634V10.5516C3 10.2261 3.2639 9.96231 3.58942 9.96231H5.9394V7.5894C5.9394 7.36727 6.06426 7.16408 6.26231 7.06371C6.46036 6.96326 6.69799 6.98276 6.87719 7.11398ZM16.5033 16.5012L12.2272 12.283C12.0757 12.172 11.9862 11.9954 11.9862 11.8076C11.9862 11.6198 12.0757 11.4432 12.2272 11.3322L16.5033 7.11398C16.6824 6.98276 16.9201 6.96326 17.1182 7.06371C17.3162 7.16416 17.4411 7.36727 17.4411 7.5894V9.96231H19.791C20.1166 9.96231 20.3805 10.2262 20.3805 10.5517V13.0635C20.3805 13.389 20.1166 13.6528 19.791 13.6528H17.4411V16.0257C17.4411 16.2479 17.3162 16.451 17.1182 16.5514C16.9201 16.6519 16.6825 16.6324 16.5033 16.5012Z" fill="#525C69"/>
</svg>
