<svg width="24" height="24" viewBox="0 0 24 24" fill="none" xmlns="http://www.w3.org/2000/svg">
<path fill-rule="evenodd" clip-rule="evenodd" d="M11.9999 4C11.4039 4 10.8243 4.06705 10.2658 4.19081V12.0054C10.2658 12.963 11.0465 13.744 12.0044 13.744C12.9619 13.744 13.7424 12.963 13.7424 12.0059C13.7424 11.0862 13.0236 10.3309 12.12 10.2709V8.87947C13.7898 8.93979 15.1334 10.3213 15.1334 12.0059C15.1334 13.7289 13.7278 15.1352 12.0044 15.1352C10.2804 15.1352 8.87505 13.7289 8.87505 12.0054V4.63321C8.67751 4.71708 8.48454 4.81008 8.29541 4.91005V12.0054C8.29565 14.0478 9.962 15.7134 12.0044 15.7134C14.0471 15.7134 15.7128 14.0478 15.7128 12.0059C15.7128 10.0022 14.1099 8.36112 12.12 8.29912V6.90822C14.8755 6.97046 17.103 9.23633 17.103 12.0059C17.103 14.8146 14.8125 17.1045 12.0044 17.1045C9.19563 17.1045 6.90446 14.8146 6.90446 12.0054V5.83259C5.13093 7.29944 4 9.51701 4 11.9996C4 16.4175 7.58167 20 12.0001 20C16.4193 20 20 16.4175 20 11.9996C20 7.58132 16.4193 4 11.9999 4Z" fill="#525C69"/>
</svg>
