<svg width="24" height="24" viewBox="0 0 24 24" fill="none" xmlns="http://www.w3.org/2000/svg">
<path fill-rule="evenodd" clip-rule="evenodd" d="M20.8983 18.4617V8.12138C20.5025 7.59937 19.9842 7.21894 19.4375 6.8747C19.3048 6.79107 19.2295 6.70354 19.2539 6.54153C19.2621 6.48655 19.2598 6.42999 19.2576 6.37363L19.2576 6.37351C19.2567 6.35296 19.2559 6.33244 19.2556 6.31204C19.2488 5.88104 19.0615 5.65641 18.6364 5.62412L18.5643 5.61868C18.021 5.5776 17.4759 5.53639 16.932 5.5403C15.5776 5.54983 14.3185 5.92694 13.1667 6.63489C12.8729 6.81534 12.5954 7.02212 12.3111 7.23389L12.3111 7.2339C12.1793 7.33208 12.0461 7.43134 11.9091 7.52955C11.8448 7.48866 11.7777 7.44534 11.7085 7.40067L11.7085 7.40064L11.7085 7.40063C11.5543 7.30104 11.3898 7.19478 11.222 7.09408C10.3266 6.55709 9.36713 6.18231 8.3305 6.04461C6.68472 5.826 5.20892 6.25505 3.90486 7.27885C3.82086 7.34481 3.7399 7.4147 3.6589 7.48463C3.59232 7.54211 3.5257 7.59962 3.45734 7.65499C3.26032 7.81506 3.09734 7.99807 3.02246 8.24702V18.3782L3.02306 18.3796C3.11642 18.5896 3.21227 18.8052 3.47776 18.8331C3.59485 18.8456 3.72807 18.8399 3.83485 18.796C4.8038 18.3973 5.80873 18.1826 6.85509 18.1106C8.61465 17.9894 10.2641 18.3728 11.8461 19.1134C11.8495 19.1151 11.8512 19.1201 11.853 19.1251C11.8538 19.1274 11.8547 19.1297 11.8556 19.1317H12.0649C13.176 18.5877 14.3463 18.237 15.5774 18.1246C17.1221 17.9834 18.6233 18.1861 20.0627 18.7857C20.4412 18.9434 20.6252 18.8699 20.8983 18.4617ZM15.3893 17.0407L15.3796 16.981C15.4615 16.96 15.5431 16.9363 15.6247 16.9125L15.6247 16.9125L15.6247 16.9125L15.6248 16.9125C15.8056 16.8598 15.9865 16.8071 16.171 16.7848C16.694 16.7218 17.2209 16.678 17.7471 16.6589C18.0146 16.649 18.2876 16.6934 18.5529 16.7424C18.9226 16.8108 19.2233 16.6076 19.2546 16.1525C19.2577 16.1085 19.257 16.0643 19.2564 16.0201C19.2561 16.0015 19.2558 15.9828 19.2558 15.9642V8.34777V8.0535C19.2869 8.07916 19.3176 8.10379 19.3475 8.12787C19.5933 8.32535 19.792 8.48498 19.7891 8.85908C19.7727 10.9536 19.7746 13.0482 19.7766 15.1428C19.7772 15.8242 19.7778 16.5056 19.7778 17.187V17.4966C18.3318 17.0341 16.8733 16.9096 15.3893 17.0407ZM18.145 15.5677V15.2798V9.04563L18.1449 8.4657V8.46442C18.1448 7.93296 18.1446 7.40141 18.1456 6.87006L18.1456 6.86515C18.1458 6.74904 18.146 6.65787 17.9813 6.64348C17.2282 6.57677 16.4812 6.61081 15.7437 6.77437C14.5884 7.0311 13.5617 7.53911 12.7003 8.36278C12.5968 8.46158 12.555 8.56485 12.5552 8.70955C12.5581 10.7654 12.5582 12.8211 12.5583 14.8769V14.879L12.5585 17.0147C12.5585 17.0617 12.5616 17.1087 12.5656 17.1694C12.5677 17.2012 12.57 17.2368 12.5723 17.2782C14.2317 16.0016 16.0685 15.444 18.145 15.5677ZM11.3992 17.6537C11.3974 17.6714 11.3952 17.6919 11.3931 17.717C8.99682 16.8276 6.59408 16.7546 4.14292 17.4939V17.2362C4.14292 16.7796 4.14295 16.3229 4.14297 15.8663C4.1431 13.4919 4.14323 11.1174 4.13981 8.74297C4.13942 8.5831 4.18571 8.47885 4.30863 8.37072C5.08037 7.69409 5.95732 7.23373 6.98209 7.11995C7.82754 7.0262 8.6553 7.15437 9.4529 7.4607C10.0992 7.70867 10.7048 8.03075 11.2613 8.44112C11.3319 8.49305 11.3988 8.60566 11.399 8.69027C11.4054 11.3964 11.4049 14.1028 11.4045 16.8088C11.4045 17.0663 11.4045 17.3237 11.4044 17.5812C11.4044 17.6028 11.4022 17.6242 11.3992 17.6537Z" fill="#525C69"/>
</svg>
