<svg width="24" height="24" viewBox="0 0 24 24" fill="none" xmlns="http://www.w3.org/2000/svg">
<path fill-rule="evenodd" clip-rule="evenodd" d="M7 10.7081V16.271C7 16.6738 7.34716 17 7.77491 17C8.20266 17 8.54982 16.6738 8.54982 16.271V10.7081C8.54982 10.6924 8.56338 10.6797 8.58004 10.6797H10.2256C10.2422 10.6797 10.2558 10.6924 10.2558 10.7081V15.3189C10.2558 16.1383 10.9648 16.8054 11.8358 16.8054H13.4814C14.3527 16.8054 15.0614 16.1383 15.0614 15.3189V7.83258H16.7631C16.9739 7.83258 17.0793 7.59311 16.9301 7.45278L14.3923 5.06534C14.2997 4.97822 14.1501 4.97822 14.0575 5.06534L11.5197 7.45314C11.3705 7.59347 11.4759 7.83295 11.6867 7.83295H13.5116V15.3189C13.5116 15.3346 13.498 15.3474 13.4814 15.3474H11.8358C11.8192 15.3474 11.8056 15.3346 11.8056 15.3189V10.7081C11.8056 9.88834 11.097 9.22167 10.2256 9.22167H8.58004C7.70904 9.22167 7 9.88834 7 10.7081ZM17.4626 8.88299V17.7468C17.4626 18.1343 17.1502 18.4494 16.766 18.4494H6.23401C5.84984 18.4494 5.53742 18.1343 5.53742 17.7468V8.25317C5.53742 7.8657 5.84984 7.55061 6.23401 7.55061H10.1685V6H6.23401C5.00238 6 4 7.01097 4 8.25317V17.7468C4 18.989 5.00238 20 6.23401 20H16.766C17.9976 20 19 18.989 19 17.7468V8.88299H17.4626Z" fill="#525C69"/>
</svg>
