<svg width="24" height="24" viewBox="0 0 24 24" fill="none" xmlns="http://www.w3.org/2000/svg">
<path fill-rule="evenodd" clip-rule="evenodd" d="M5.97257 12.5205C6.82495 12.5205 7.51591 13.2115 7.51591 14.0639C7.51591 14.9163 6.82495 15.6073 5.97257 15.6073C5.12019 15.6073 4.4292 14.9163 4.4292 14.0639C4.4292 13.2115 5.12019 12.5205 5.97257 12.5205ZM17.4259 12.5205C18.2783 12.5205 18.9693 13.2115 18.9693 14.0639C18.9693 14.9163 18.2783 15.6073 17.4259 15.6073C16.5735 15.6073 15.8826 14.9163 15.8826 14.0639C15.8826 13.2115 16.5735 12.5205 17.4259 12.5205ZM14.2021 7.58184C14.9835 7.83512 16.7205 8.9031 17.6953 9.83042C19.3512 10.2694 20.4095 10.7489 21.4736 11.6082C21.5865 11.6994 21.7299 11.9468 21.7299 11.9468C22.0193 12.5859 22.1525 13.1087 22.0864 14.1122C22.0802 14.2058 21.9842 14.406 21.8281 14.4062C21.3143 14.407 19.6252 14.4086 19.6252 14.4086C19.6431 14.2965 19.6522 14.1812 19.6522 14.0638C19.6522 12.8343 18.6555 11.8375 17.4259 11.8375C16.1963 11.8375 15.1995 12.8343 15.1995 14.0638C15.1995 14.1835 15.2089 14.3009 15.2271 14.4155L8.79847 14.4168C8.58813 14.4166 8.37872 14.4163 8.17052 14.4161L8.17957 14.3579C8.19225 14.2617 8.19883 14.1636 8.19883 14.0638C8.19883 12.8343 7.20205 11.8375 5.97245 11.8375C4.74286 11.8375 3.74608 12.8343 3.74608 14.0638C3.74608 14.1764 3.75443 14.2869 3.77053 14.3949L3.4886 14.3764C2.53933 14.3014 2.27038 14.1203 2.03537 13.9792C1.89057 13.9109 1.75393 10.3633 2.20645 9.95294C2.51329 9.6143 4.15214 9.32254 4.6967 9.16123L4.93043 9.00045C5.70337 8.46155 6.77944 7.66778 7.92539 7.41309C9.53953 7.19105 12.3592 7.14452 14.2021 7.58184ZM8.32628 8.28081C8.25207 8.29131 8.18122 8.3198 8.12328 8.36742L8.03992 8.43955C7.75041 8.70274 7.35119 9.19955 7.04516 10.1179C7.01586 10.2058 7.08126 10.2961 7.17399 10.2977C8.56866 10.3225 9.67407 10.3103 10.9059 10.2961C10.9911 10.2951 11.0558 10.2191 11.0425 10.135L10.8888 9.18722C10.8451 8.92366 10.7965 8.63302 10.7428 8.31531C10.732 8.25161 10.679 8.20337 10.6145 8.1994C9.81844 8.15045 9.05569 8.17758 8.32628 8.28081ZM11.8361 8.22164C11.7485 8.21979 11.6825 8.29938 11.6984 8.3855L11.9397 9.70114C11.9691 9.86392 11.9963 10.0159 12.0213 10.1572C12.0331 10.2234 12.0903 10.2719 12.1576 10.2727L13.4169 10.2852C14.2682 10.2914 15.148 10.2918 16.085 10.2759C16.1921 10.2741 16.2553 10.1587 16.1893 10.0743C15.5998 9.3197 14.3633 8.67538 13.7739 8.364C13.76 8.35664 13.7454 8.3519 13.7298 8.34953C13.0207 8.24177 12.3599 8.23267 11.8361 8.22164Z" fill="#525C69"/>
</svg>
