<svg width="25" height="24" viewBox="0 0 25 24" fill="none" xmlns="http://www.w3.org/2000/svg">
<path fill-rule="evenodd" clip-rule="evenodd" d="M10.141 16.5416C11.1167 16.5416 11.9073 17.3322 11.9073 18.3079C11.9073 19.2827 11.1167 20.0733 10.141 20.0733C9.16617 20.0733 8.37559 19.2827 8.37559 18.3079C8.37559 17.3322 9.16615 16.5416 10.141 16.5416ZM16.6573 16.5416C17.633 16.5416 18.4236 17.3322 18.4236 18.3079C18.4236 19.2827 17.633 20.0733 16.6573 20.0733C15.6825 20.0733 14.8919 19.2827 14.8919 18.3079C14.8919 17.3322 15.6824 16.5416 16.6573 16.5416ZM5.75302 4.41268C6.04961 4.41435 6.30907 4.60241 6.40649 4.87692L6.42739 4.94729L6.9384 7.15469L6.95944 7.15435L7.22389 8.35434L7.20653 8.3546L8.55349 14.4828H18.9636L19.958 8.3546L19.4633 8.35434L19.48 7.13212L20.5666 7.13099C20.7799 7.1319 20.9805 7.23083 21.1112 7.39783C21.2263 7.54477 21.2768 7.72991 21.2548 7.91254L21.241 7.99053L19.9394 15.2173C19.8707 15.5056 19.628 15.7157 19.339 15.7477L19.2659 15.752H8.12298C7.82723 15.7503 7.56706 15.5622 7.47024 15.2877L7.44952 15.2173L5.19582 5.80683H3.05556C2.77065 5.80683 2.53583 5.59236 2.50374 5.31606L2.5 5.25127V4.96823C2.5 4.68333 2.71447 4.44851 2.99077 4.41642L3.05556 4.41268H5.75302ZM16.6759 4.11035C17.5964 4.11035 18.3426 4.85654 18.3426 5.77702V11.5138C18.3426 12.4343 17.5964 13.1805 16.6759 13.1805H10.644C9.72351 13.1805 8.97732 12.4343 8.97732 11.5138V5.77702C8.97732 4.85654 9.72351 4.11035 10.644 4.11035H16.6759ZM10.959 5.66182L10.7705 5.66155V7.05462L10.9117 7.05433C11.0917 7.05382 11.0917 7.05382 11.4693 7.05242C12.0625 7.05022 12.0625 7.05022 12.8184 7.05022C12.8261 7.64238 12.8261 7.64238 12.827 8.02763L12.8272 9.08928C12.8272 9.92864 12.8272 9.92864 12.8206 10.5922C12.8147 11.1821 12.8147 11.1821 12.8106 11.4733L12.8096 11.5414H14.5059C14.5015 11.2338 14.5015 11.2338 14.4971 10.5307C14.4927 9.82757 14.4927 9.82757 14.4927 9.0761C14.4927 8.46966 14.4927 8.46966 14.4971 8.07854C14.5002 7.79918 14.5002 7.79918 14.5011 7.39425L14.5015 7.05022C15.2398 7.05022 15.2398 7.05022 15.7935 7.05242C16.1626 7.05388 16.1626 7.05388 16.3775 7.05437L16.5537 7.05462V5.66155L16.3794 5.66191C16.0848 5.66281 16.0848 5.66281 15.4068 5.66594C14.4576 5.67034 14.4576 5.67034 13.6534 5.67034C12.8008 5.67034 12.8008 5.67034 11.9395 5.66594C11.2935 5.66265 11.2935 5.66265 10.959 5.66182Z" fill="#525C69"/>
</svg>
