<svg width="25" height="24" viewBox="0 0 25 24" fill="none" xmlns="http://www.w3.org/2000/svg">
<path fill-rule="evenodd" clip-rule="evenodd" d="M10.3608 16.5882C11.3646 16.5882 12.1779 17.4015 12.1779 18.4053C12.1779 19.4081 11.3646 20.2215 10.3608 20.2215C9.35793 20.2215 8.54461 19.4082 8.54461 18.4053C8.54461 17.4015 9.35791 16.5882 10.3608 16.5882ZM16.7674 16.5882C17.7712 16.5882 18.5845 17.4015 18.5845 18.4053C18.5845 19.4081 17.7712 20.2215 16.7674 20.2215C15.7645 20.2215 14.9512 19.4082 14.9512 18.4053C14.9512 17.4015 15.7645 16.5882 16.7674 16.5882ZM5.8466 4.11035C6.15353 4.11208 6.42182 4.30785 6.52063 4.593L6.54037 4.66034L7.06607 6.93125L20.2336 6.90686C20.453 6.90779 20.6594 7.00957 20.7938 7.18138C20.9123 7.33254 20.9643 7.52301 20.9416 7.71089L20.9274 7.79113L19.5883 15.2258C19.5172 15.5241 19.265 15.7411 18.9654 15.772L18.8955 15.7758H8.28473C7.97866 15.7741 7.70963 15.5783 7.61146 15.2932L7.59189 15.2258L5.27337 5.54461H3.05556C2.77065 5.54461 2.53583 5.33014 2.50374 5.05384L2.5 4.98905V4.66591C2.5 4.381 2.71447 4.14618 2.99077 4.11409L3.05556 4.11035H5.8466ZM17.1081 11.9616H9.94548C9.63865 11.9616 9.38992 12.2103 9.38992 12.5171V12.6294C9.38992 12.9362 9.63865 13.1849 9.94548 13.1849H17.1081C17.4149 13.1849 17.6636 12.9362 17.6636 12.6294V12.5171C17.6636 12.2103 17.4149 11.9616 17.1081 11.9616ZM17.1081 9.25409H9.94548C9.63865 9.25409 9.38992 9.50282 9.38992 9.80965V9.9219C9.38992 10.2287 9.63865 10.4775 9.94548 10.4775H17.1081C17.4149 10.4775 17.6636 10.2287 17.6636 9.9219V9.80965C17.6636 9.50282 17.4149 9.25409 17.1081 9.25409Z" fill="#525C69"/>
</svg>
