<svg width="25" height="24" viewBox="0 0 25 24" fill="none" xmlns="http://www.w3.org/2000/svg">
<path fill-rule="evenodd" clip-rule="evenodd" d="M10.141 17.1041C11.1167 17.1041 11.9073 17.8947 11.9073 18.8704C11.9073 19.8452 11.1167 20.6358 10.141 20.6358C9.16617 20.6358 8.37559 19.8453 8.37559 18.8704C8.37559 17.8947 9.16615 17.1041 10.141 17.1041ZM16.3684 17.1041C17.3441 17.1041 18.1347 17.8947 18.1347 18.8704C18.1347 19.8452 17.3442 20.6358 16.3684 20.6358C15.3936 20.6358 14.603 19.8453 14.603 18.8704C14.603 17.8947 15.3936 17.1041 16.3684 17.1041ZM5.75302 4.97521C6.04961 4.97688 6.30907 5.16494 6.40649 5.43945L6.42739 5.50982L6.9384 7.71723L6.95944 7.71688L7.22389 8.91688L7.20653 8.91713L8.55348 15.0454H18.6747L19.6692 8.91713L18.8661 8.91688L18.6183 7.69577L20.2777 7.69353C20.491 7.69443 20.6916 7.79336 20.8223 7.96037C20.9375 8.1073 20.988 8.29244 20.966 8.47507L20.9521 8.55307L19.6505 15.7799C19.5818 16.0681 19.3391 16.2782 19.0502 16.3102L18.9771 16.3145H8.12298C7.82723 16.3128 7.56706 16.1248 7.47024 15.8502L7.44951 15.7799L5.19582 6.36936H3.05556C2.77065 6.36936 2.53583 6.15489 2.50374 5.87859L2.5 5.81381V5.53077C2.5 5.24586 2.71447 5.01104 2.99077 4.97895L3.05556 4.97521H5.75302ZM16.9598 3.89325L18.4835 11.0613C18.6129 11.6704 18.2241 12.269 17.6151 12.3985L10.447 13.9221C9.83796 14.0516 9.23928 13.6628 9.10982 13.0537L7.5862 5.88567C7.45675 5.27662 7.84553 4.67795 8.45458 4.54849L15.6227 3.02487C16.2317 2.89541 16.8304 3.2842 16.9598 3.89325ZM11.2054 7.98398L9.76784 10.5867L10.2351 12.7848L17.3784 11.2664L17.2616 10.7169L14.8897 8.9237L14.1707 10.2254L11.2054 7.98398ZM14.3116 4.81152C13.6084 4.961 13.1595 5.65227 13.309 6.35551C13.4584 7.05875 14.1497 7.50766 14.8529 7.35818C15.5562 7.2087 16.0051 6.51744 15.8556 5.8142C15.7061 5.11096 15.0149 4.66205 14.3116 4.81152Z" fill="#525C69"/>
</svg>
