<svg width="25" height="24" viewBox="0 0 25 24" fill="none" xmlns="http://www.w3.org/2000/svg">
<path fill-rule="evenodd" clip-rule="evenodd" d="M6.70969 6.20508C5.64019 6.20508 4.77319 7.05689 4.77319 8.10766V15.6827C4.77319 16.7335 5.64019 17.5853 6.70969 17.5853H14.1862L16.7246 20.0792C16.9686 20.3189 17.3857 20.1491 17.3857 19.8101V17.5853H18.2564C19.3259 17.5853 20.1929 16.7335 20.1929 15.6827V8.10766C20.1929 7.05689 19.3259 6.20508 18.2564 6.20508H6.70969ZM17.0437 10.578H7.96634C7.78695 10.578 7.64343 10.4498 7.64343 10.2896V9.10383C7.64343 8.94359 7.78695 8.8154 7.96634 8.8154H17.0437C17.2231 8.8154 17.3666 8.94359 17.3666 9.10383V10.2896C17.4024 10.4498 17.2231 10.578 17.0437 10.578ZM7.96658 14.1119H17.0439C17.2233 14.1119 17.4027 13.9837 17.3668 13.8235V12.6377C17.3668 12.4775 17.2233 12.3493 17.0439 12.3493H7.96658C7.78718 12.3493 7.64367 12.4775 7.64367 12.6377V13.8235C7.64367 13.9837 7.78718 14.1119 7.96658 14.1119Z" fill="#525C69"/>
</svg>
