<svg width="24" height="24" viewBox="0 0 24 24" fill="none" xmlns="http://www.w3.org/2000/svg">
<path fill-rule="evenodd" clip-rule="evenodd" d="M16.3018 17.2067H7.38741C7.08898 17.2067 6.85687 16.9865 6.85687 16.7034V7.29663C6.85687 7.01348 7.08898 6.79326 7.38741 6.79326H13.2181L15.1081 5H6.7574C5.7958 5 5 5.75506 5 6.66742V17.3326C5 18.2449 5.7958 19 6.7574 19H16.9981C17.9597 19 18.7555 18.2449 18.7555 17.3326V13.2112L16.8655 15.0045V16.7034C16.8323 16.9865 16.6002 17.2067 16.3018 17.2067ZM19.8166 7.29663L18.9545 6.47865C18.7224 6.25843 18.3576 6.25843 18.1587 6.47865L12.157 12.1416L9.47115 9.59326C9.23904 9.37303 8.87429 9.37303 8.67534 9.59326L7.81322 10.4112C7.58111 10.6315 7.58111 10.9775 7.81322 11.1663L11.7922 14.9416C11.9249 15.0674 12.1238 15.1303 12.3228 15.0989C12.4222 15.0674 12.5217 15.036 12.6212 14.9416L19.8829 8.05169C20.0487 7.86292 20.0487 7.51685 19.8166 7.29663Z" fill="#525C69"/>
</svg>
