<svg width="24" height="24" viewBox="0 0 24 24" fill="none" xmlns="http://www.w3.org/2000/svg">
<path fill-rule="evenodd" clip-rule="evenodd" d="M4.71391 12.4869C4.71391 15.7596 6.88359 18.5587 9.95205 19.6966C9.91297 19.6972 9.87382 19.6975 9.83459 19.6975C5.85042 19.6975 2.62061 16.4677 2.62061 12.4835C2.62061 8.49934 5.85042 5.26953 9.83459 5.26953C9.87961 5.26953 9.92452 5.26994 9.96934 5.27076C6.89174 6.40452 4.71391 9.20801 4.71391 12.4869ZM11.5518 11.7816L13.1019 13.3317L16.8179 9.61562L17.9137 10.7114L13.1029 15.5222L13.0433 15.4626L13.0422 15.4637L10.456 12.8774L11.5518 11.7816ZM6.96457 12.4835C6.96457 16.306 10.0633 19.4047 13.8857 19.4047C17.7082 19.4047 20.8069 16.306 20.8069 12.4835C20.8069 8.66108 17.7082 5.56238 13.8857 5.56238C10.0633 5.56238 6.96457 8.66108 6.96457 12.4835Z" fill="#525C69"/>
</svg>
