<svg width="24" height="24" viewBox="0 0 24 24" fill="none" xmlns="http://www.w3.org/2000/svg">
<path fill-rule="evenodd" clip-rule="evenodd" d="M15.1397 9.95384C15.1272 10.0055 15.1207 10.0586 15.1207 10.1118V12.704C16.0412 11.618 17.4153 10.9287 18.9504 10.9287C19.0928 10.9287 19.2338 10.9346 19.3731 10.9463V10.8718C19.3731 10.5729 19.1739 10.3123 18.8899 10.2398L15.9133 9.4799C15.5715 9.39264 15.2252 9.60484 15.1397 9.95384ZM15.0054 19.0483H3.82676C3.60584 19.0483 3.42676 18.8692 3.42676 18.6483V17.277C3.42676 17.0561 3.60584 16.877 3.82676 16.877H4.48985V6.36074C4.48985 5.82839 4.86785 5.37456 5.3824 5.28917L12.824 4.05411C12.8805 4.04474 12.9374 4.04004 12.9945 4.04004C13.5816 4.04004 14.0577 4.5261 14.0577 5.12568V14.8274C13.9757 15.1873 13.9324 15.562 13.9324 15.9468C13.9324 17.1175 14.3333 18.1947 15.0054 19.0483ZM9.0725 13.4346V16.7701H7.1665V13.4346H9.0725ZM11.9785 13.4346V15.3406H10.0725V13.4346H11.9785ZM10.0725 7.62207H11.9785V9.52807H10.0725V7.62207ZM7.16642 7.62186H9.07242V9.52786H7.16642V7.62186ZM10.0725 10.5283H11.9785V12.4343H10.0725V10.5283ZM7.1665 10.5283H9.0725V12.4343H7.1665V10.5283Z" fill="#525C69"/>
<path fill-rule="evenodd" clip-rule="evenodd" d="M19.8366 12.5645H18.1388V15.1396H15.531V16.8374H18.1388V19.4142H19.8366V16.8374H22.3808V15.1396H19.8366V12.5645Z" fill="#525C69"/>
</svg>
