<svg width="24" height="24" viewBox="0 0 24 24" fill="none" xmlns="http://www.w3.org/2000/svg">
<path fill-rule="evenodd" clip-rule="evenodd" d="M17.6825 6.03223H5.44494C4.7912 6.03223 4.26123 6.56219 4.26123 7.21594V15.3953C4.26123 16.049 4.7912 16.579 5.44494 16.579H7.50678V19.6981C7.50678 20.044 7.92498 20.2173 8.16958 19.9727L11.5637 16.579H11.6057C11.9493 13.7475 14.3611 11.5539 17.2852 11.5539C17.8337 11.5539 18.3641 11.6311 18.8662 11.7751V7.21594C18.8662 6.56219 18.3362 6.03223 17.6825 6.03223Z" fill="#525C69"/>
<path fill-rule="evenodd" clip-rule="evenodd" d="M18.1344 13.8506H16.4367V16.4264H13.8607L13.8607 18.1242H16.4367V20.7003H18.1344V18.1242H20.7104V16.4264H18.1344V13.8506Z" fill="#525C69"/>
</svg>
