<svg width="24" height="24" viewBox="0 0 24 24" fill="none" xmlns="http://www.w3.org/2000/svg">
<path fill-rule="evenodd" clip-rule="evenodd" d="M5.5 5C5.5 4.44772 5.94772 4 6.5 4H17.5C18.0523 4 18.5 4.44772 18.5 5V10.5698C18.5 10.6802 18.4105 10.7698 18.3 10.7698H17.0015C16.891 10.7698 16.8015 10.6802 16.8015 10.5698V5.70001H7.19876V18.3H13.8C13.9105 18.3 14 18.3896 14 18.5V19.8C14 19.9105 13.9105 20 13.8 20H6.5C5.94772 20 5.5 19.5523 5.5 19V5ZM9.05724 8.2002H14.9418C15.1014 8.2002 15.231 8.3406 15.231 8.51528V9.65401C15.231 9.82758 15.1014 9.9702 14.9418 9.9702H9.05724C8.89868 9.9702 8.76904 9.82758 8.76904 9.65401V8.51528C8.76904 8.3406 8.89868 8.2002 9.05724 8.2002ZM15.6214 11.5915L18.7964 14.7664C18.7964 14.7664 19.0049 14.8833 19.0049 15.1579C19.0049 15.4323 18.8291 15.5168 18.8291 15.5168L15.7236 18.622C15.7236 18.622 15.3472 19.0901 15.3472 18.6328V16.7582H10.6376C8.85449 16.7582 8.85449 14.9751 8.85449 14.9751V12.7144C8.85449 12.6039 8.94404 12.5144 9.05449 12.5144H11.6722C11.7826 12.5144 11.8722 12.6039 11.8722 12.7144V13.7861H15.3471C15.3472 13.787 15.3472 13.787 15.3472 13.7861H15.3471C15.3452 13.7495 15.3014 12.1308 15.3014 11.7287C15.3014 11.3172 15.6214 11.5915 15.6214 11.5915Z" fill="#525C69"/>
</svg>
