<svg width="24" height="24" viewBox="0 0 24 24" fill="none" xmlns="http://www.w3.org/2000/svg">
<path d="M9.60002 7.9438H12.8695V9.74148H9.60002V7.9438Z" fill="#525C69"/>
<path d="M12.8959 11.4492H9.60002V13.2469H12.8959V11.4492Z" fill="#525C69"/>
<path fill-rule="evenodd" clip-rule="evenodd" d="M15.8645 5.35011V9.92121H18.3823C18.6377 9.92121 18.8448 10.1282 18.8448 10.3836V18.6308C18.8448 18.8847 18.6401 19.0911 18.3862 19.0932L7.09127 19.1874C6.83439 19.1895 6.625 18.9819 6.625 18.725V5.35011C6.625 5.09472 6.83203 4.8877 7.08741 4.8877H15.402C15.6574 4.8877 15.8645 5.09472 15.8645 5.35011ZM12.9124 17.2916H14.1707L14.2606 6.59543H8.07197V17.2916H9.33035V14.9547H12.9124V17.2916ZM17.4066 16.8424H15.6089V15.0447H17.4066V16.8424ZM15.6089 13.3368H17.4066V11.5391H15.6089V13.3368Z" fill="#525C69"/>
</svg>
