<svg width="25" height="24" viewBox="0 0 25 24" fill="none" xmlns="http://www.w3.org/2000/svg">
<path fill-rule="evenodd" clip-rule="evenodd" d="M8.3002 12.6956C8.35465 12.3436 8.62744 12.0654 8.97894 12.005C8.97894 12.005 9.51482 11.8595 10.1968 11.6002C10.1979 11.4498 10.3084 11.3231 10.4566 11.3015H10.6858L10.6523 10.812C10.3326 10.6842 10.1116 10.3888 10.0798 10.0459C10.0227 9.62542 9.98708 9.20168 9.9736 8.77686C9.96982 8.72942 9.96875 8.68197 9.9709 8.63399C10.0006 7.99245 10.5445 7.55577 11.1855 7.58543H11.2146C11.2933 7.57626 11.3726 7.57572 11.4518 7.58381C12.081 7.64581 12.5408 8.14772 12.4783 8.77686C12.4724 9.20275 12.4368 9.6265 12.3721 10.0465C12.3284 10.3845 12.1112 10.6751 11.7996 10.8125L11.7661 11.302H11.9947C12.1419 11.3171 12.254 11.4411 12.2551 11.5889C12.9592 11.8368 13.3932 11.9705 13.3932 11.9705C13.7344 12.0784 14.0083 12.3927 14.1388 12.7264C14.1431 12.7415 14.1458 12.7571 14.1468 12.7733V13.1949C14.1393 13.2547 14.114 13.3118 14.0746 13.3582C14.0358 13.404 13.9786 13.4305 13.9183 13.4305C13.9183 13.4305 13.0018 13.8316 11.1418 13.8564C9.28138 13.8811 8.52231 13.3722 8.52231 13.3722C8.50399 13.3717 8.48619 13.3685 8.46894 13.3625C8.42366 13.3517 8.38376 13.3248 8.35573 13.2881C8.33363 13.2617 8.31853 13.231 8.30937 13.1986L8.3002 13.1356V12.6956ZM18.2867 6.62258C18.2867 6.40801 18.1104 6.12444 17.7875 6.12444H16.6904V7.16061H17.3551V17.9309H8.67219V17.2996H16.0688C16.2952 17.2996 16.5933 17.0446 16.5933 16.8522V16.2662H15.2385C15.1609 16.2662 15.0978 16.2031 15.0978 16.1255V14.7707C15.0978 14.693 15.1609 14.63 15.2385 14.63H16.5933V14.1065H15.2385C15.1609 14.1065 15.0978 14.0434 15.0978 13.9658V12.611C15.0978 12.5334 15.1609 12.4703 15.2385 12.4703H16.5933V11.9468H15.2385C15.1609 11.9468 15.0978 11.8837 15.0978 11.8067V10.4513C15.0978 10.3737 15.1609 10.3106 15.2385 10.3106H16.5933V9.78715H15.2385C15.1609 9.78715 15.0978 9.72407 15.0978 9.64698V8.29166C15.0978 8.21403 15.1609 8.15095 15.2385 8.15095H16.5933V7.62802H15.2385C15.1609 7.62802 15.0978 7.5644 15.0978 7.48731V6.13199C15.0978 6.05489 15.1609 5.99128 15.2385 5.99128H16.5933V5.40742C16.5933 5.21496 16.2952 4.95996 16.0688 4.95996H7.05917C6.83328 4.95996 6.53516 5.21496 6.53516 5.40742V16.8522C6.53516 16.926 6.58637 17.0058 6.65268 17.0802C6.86779 17.4021 7.88563 18.9137 8.07809 18.9137H17.8414C18.0565 18.9137 18.3406 18.6302 18.3406 18.4145L18.2867 6.62258Z" fill="#525C69"/>
</svg>
