<svg width="24" height="24" viewBox="0 0 24 24" fill="none" xmlns="http://www.w3.org/2000/svg">
<path fill-rule="evenodd" clip-rule="evenodd" d="M19.117 15.6967C19.117 15.8156 19.0196 15.9111 18.9008 15.9111H17.6825V17.4094H19.8207C20.2681 17.4094 20.6322 17.05 20.6322 16.6074V7.36546C20.6322 7.08095 20.518 6.80861 20.3149 6.60833L16.3224 2.66169C16.1708 2.51195 15.964 2.42678 15.7478 2.42678H9.31728C8.86805 2.42678 8.50493 2.78617 8.50493 3.22978V3.64944L12.3269 3.64944C12.5843 3.64944 12.831 3.74866 13.0164 3.92514H14.3524C14.4721 3.92514 14.5685 4.02154 14.5685 4.13946V5.581L17.226 8.42021H18.9008C19.0196 8.42021 19.117 8.51661 19.117 8.63453V15.6967ZM16.0847 4.7403C16.0847 4.69725 16.1212 4.66075 16.1661 4.66075C16.1876 4.66075 16.2082 4.66917 16.2232 4.68415L18.3495 6.78521C18.3813 6.8161 18.3813 6.86664 18.3495 6.89846C18.3336 6.91343 18.314 6.92185 18.2915 6.92185H16.1661C16.1212 6.92185 16.0847 6.88535 16.0847 6.84137V4.7403ZM14.5516 18.7215C14.6705 18.7215 14.7678 18.626 14.7678 18.5072V11.4449C14.7678 11.327 14.6705 11.2306 14.5516 11.2306H10.4365C10.3167 11.2306 10.2194 11.1352 10.2194 11.0172V6.94987C10.2194 6.83195 10.123 6.73555 10.0032 6.73555H5.88809C5.7683 6.73555 5.6719 6.83195 5.6719 6.94987V18.5072C5.6719 18.626 5.7683 18.7215 5.88809 18.7215H14.5516ZM11.8169 7.47116C11.772 7.47116 11.7355 7.50766 11.7355 7.55071V9.65178C11.7355 9.69577 11.772 9.73227 11.8169 9.73227H13.9423C13.9648 9.73227 13.9845 9.72384 14.0004 9.70887C14.0322 9.67705 14.0322 9.62651 14.0004 9.59563L11.874 7.49456C11.8591 7.47959 11.8385 7.47116 11.8169 7.47116ZM11.9732 5.47211L15.9657 9.41874C16.1688 9.61902 16.283 9.89137 16.283 10.1759V19.4178C16.283 19.8604 15.9189 20.2198 15.4716 20.2198H4.96811C4.51889 20.2198 4.15576 19.8604 4.15576 19.4178V6.04019C4.15576 5.59658 4.51889 5.2372 4.96811 5.2372H11.3986C11.6148 5.2372 11.8216 5.32236 11.9732 5.47211ZM7.45757 12.729H12.9802C13.13 12.729 13.2517 12.8488 13.2517 12.9966V13.9597C13.2517 14.1066 13.13 14.2273 12.9802 14.2273H7.45757C7.30877 14.2273 7.1871 14.1066 7.1871 13.9597V12.9966C7.1871 12.8488 7.30877 12.729 7.45757 12.729ZM8.37849 11.2306H7.51279C7.3331 11.2306 7.1871 11.0865 7.1871 10.9087V10.0533C7.1871 9.87546 7.3331 9.73227 7.51279 9.73227H8.37849C8.55818 9.73227 8.70324 9.87546 8.70324 10.0533V10.9087C8.70324 11.0865 8.55818 11.2306 8.37849 11.2306ZM7.45757 15.7257H12.9802C13.13 15.7257 13.2517 15.8446 13.2517 15.9924V16.9564C13.2517 17.1033 13.13 17.224 12.9802 17.224H7.45757C7.30877 17.224 7.1871 17.1033 7.1871 16.9564V15.9924C7.1871 15.8446 7.30877 15.7257 7.45757 15.7257Z" fill="#525C69"/>
</svg>
