<svg xmlns="http://www.w3.org/2000/svg" width="22" height="22" fill="none"><path fill="#959CA4" fill-rule="evenodd" d="M5.313 4.966a.42.42 0 0 0-.577.39v9.535a.42.42 0 0 0 .264.39l3.216 1.287V6.128L5.313 4.966Zm7.427.465-3.48.696v10.44l2.244-.448a5.529 5.529 0 0 1-.288-1.767c0-1.478.58-2.821 1.524-3.814V5.431Zm4.525 1.677v1.734a5.508 5.508 0 0 0-3.48.838V5.43L17 6.718a.42.42 0 0 1 .265.39Zm3.686 4.856h-7.983a.389.389 0 0 0-.121.02.353.353 0 0 0-.231.453l.239.662c.052.143.194.24.353.24h7.502c.158 0 .3-.097.352-.24l.241-.661a.342.342 0 0 0 .02-.118.365.365 0 0 0-.372-.356Zm-1.315 2.54h-5.353a.389.389 0 0 0-.125.021.352.352 0 0 0-.226.455l.245.662a.372.372 0 0 0 .352.237h4.847a.373.373 0 0 0 .35-.231l.26-.662a.342.342 0 0 0 .023-.125.365.365 0 0 0-.373-.357Zm-1.662 2.549h-2.029a.39.39 0 0 0-.118.018.353.353 0 0 0-.236.45l.23.662c.051.146.194.244.354.244h1.591c.165 0 .31-.103.358-.254l.207-.661a.342.342 0 0 0 .016-.103.365.365 0 0 0-.373-.356Z" clip-rule="evenodd"/></svg>