<svg width="24" height="24" viewBox="0 0 24 24" fill="none" xmlns="http://www.w3.org/2000/svg">
<path d="M16.0428 16.1606C15.6629 16.4102 15.2553 16.6209 14.8256 16.7873V15.0153C16.3391 14.186 17.3652 12.5781 17.3652 10.7306C17.3652 8.03404 15.1792 5.84805 12.4827 5.84805C9.991 5.84805 7.93525 7.71449 7.63726 10.1255H6.0181C6.32326 6.82362 9.10101 4.23828 12.4826 4.23828C16.0682 4.23828 18.9749 7.145 18.9749 10.7306C18.9749 12.0975 18.5525 13.3658 17.8311 14.4119L20.6126 17.1934C20.9187 17.4995 20.9187 17.9957 20.6126 18.3017L19.9524 18.9619C19.6464 19.268 19.1502 19.268 18.8441 18.9619L16.0428 16.1606Z" fill="#BDC1C6"/>
<path d="M4.94166 11.4931C4.50884 11.4931 4.15796 11.844 4.15796 12.2768C4.15796 12.7096 4.50884 13.0605 4.94166 13.0605H12.7787C13.2116 13.0605 13.5624 12.7096 13.5624 12.2768C13.5624 11.844 13.2116 11.4931 12.7787 11.4931H4.94166Z" fill="#BDC1C6"/>
<path d="M4.94166 14.6279C4.50884 14.6279 4.15796 14.9788 4.15796 15.4116C4.15796 15.8444 4.50884 16.1953 4.94166 16.1953H12.7787C13.2116 16.1953 13.5624 15.8444 13.5624 15.4116C13.5624 14.9788 13.2116 14.6279 12.7787 14.6279H4.94166Z" fill="#BDC1C6"/>
<path d="M4.15796 18.5464C4.15796 18.1136 4.50884 17.7627 4.94166 17.7627H12.7787C13.2116 17.7627 13.5624 18.1136 13.5624 18.5464C13.5624 18.9792 13.2116 19.3301 12.7787 19.3301H4.94166C4.50884 19.3301 4.15796 18.9792 4.15796 18.5464Z" fill="#BDC1C6"/>
</svg>
