<svg width="25" height="24" viewBox="0 0 25 24" fill="none" xmlns="http://www.w3.org/2000/svg">
<path fill-rule="evenodd" clip-rule="evenodd" d="M16.3614 14.1076C16.1804 13.9836 15.9744 13.9026 15.7754 13.8146C15.2154 13.5646 14.6544 13.3206 14.0934 13.0746C13.9724 13.0216 13.8814 12.9286 13.8314 12.7956C13.7754 12.6496 13.7274 12.5006 13.6804 12.3516C13.6414 12.2236 13.6644 12.1156 13.7594 12.0226C13.8144 11.9696 13.8554 11.8996 13.9004 11.8346C14.2504 11.3256 14.4544 10.7536 14.5204 10.1116C14.5734 9.59759 14.5784 9.09059 14.4694 8.58659C14.3284 7.92359 14.0144 7.41259 13.4274 7.16159C13.0234 6.98859 12.6064 6.96059 12.1804 7.04859C11.4864 7.19259 11.0354 7.64259 10.8214 8.38959C10.6494 8.98959 10.6554 9.60659 10.7334 10.2236C10.8244 10.9356 11.0954 11.5506 11.5254 12.0826C11.5604 12.1266 11.5834 12.1976 11.5854 12.2576C11.5934 12.6286 11.3704 12.9856 11.0174 13.1426C10.4264 13.4046 9.83742 13.6696 9.23842 13.9076C8.78142 14.0906 8.48942 14.4336 8.38442 14.9496C8.30842 15.3216 8.28942 15.7086 8.24042 16.0876C8.22242 16.2276 8.27342 16.3166 8.38042 16.3726C8.50242 16.4356 8.62342 16.5046 8.75042 16.5516C9.42042 16.7966 10.1174 16.8686 10.8144 16.9196C11.4104 16.9616 12.0074 16.9676 12.7774 16.9976C13.3514 16.9626 14.0984 16.9356 14.8414 16.8686C15.2864 16.8286 15.7284 16.7386 16.1684 16.6466C16.4344 16.5906 16.6954 16.4956 16.9234 16.3166C16.9804 16.2716 17.0114 16.2266 17.0034 16.1456C16.9634 15.7806 16.9444 15.4116 16.8824 15.0516C16.8184 14.6696 16.6704 14.3196 16.3614 14.1076ZM9.36742 12.185C9.40442 12.072 9.42742 11.935 9.38742 11.892C8.90642 11.36 9.02542 11.25 8.96342 10.032C8.92442 9.24997 8.99442 8.60597 9.13142 8.13097C8.78142 8.00697 8.42242 7.98297 8.05342 8.05097C7.42742 8.16697 7.02142 8.52797 6.82942 9.12897C6.67342 9.61097 6.67842 10.107 6.75042 10.603C6.83142 11.175 7.07642 11.67 7.46342 12.097C7.49542 12.132 7.51542 12.19 7.51642 12.238C7.52542 12.536 7.32342 12.823 7.00642 12.949C6.47342 13.16 5.94142 13.373 5.40242 13.565C4.99142 13.711 4.72742 13.986 4.63242 14.402C4.56442 14.701 4.54742 15.012 4.50342 15.317C4.48642 15.429 4.53342 15.501 4.62942 15.545C4.73942 15.596 4.84742 15.652 4.96242 15.69C5.28742 15.795 5.61942 15.858 5.95342 15.902C5.89942 15.849 5.86542 15.783 5.88042 15.688C5.93442 15.309 5.95642 14.922 6.04142 14.55C6.15942 14.034 6.48642 13.691 6.99842 13.508C7.66942 13.27 8.33142 13.005 8.99342 12.743C9.38742 12.587 9.32942 12.299 9.36742 12.185ZM20.5714 14.402C20.4764 13.986 20.2144 13.711 19.8014 13.565C19.2624 13.373 18.7314 13.16 18.1994 12.949C17.8814 12.823 17.6794 12.536 17.6874 12.238C17.6894 12.19 17.7104 12.132 17.7414 12.097C18.1294 11.67 18.3734 11.175 18.4554 10.603C18.5254 10.107 18.5304 9.61097 18.3764 9.12897C18.1834 8.52797 17.7764 8.16697 17.1514 8.05097C16.7834 7.98297 16.4234 8.00697 16.0734 8.13097C16.2114 8.60597 16.2814 9.24997 16.2414 10.032C16.1794 11.25 16.2994 11.36 15.8164 11.892C15.7774 11.935 15.7994 12.072 15.8384 12.185C15.8764 12.299 15.8164 12.587 16.2124 12.743C16.8744 13.005 17.5354 13.27 18.2064 13.508C18.7174 13.691 19.0454 14.034 19.1634 14.55C19.2484 14.922 19.2704 15.309 19.3254 15.688C19.3394 15.783 19.3044 15.849 19.2514 15.902C19.5864 15.858 19.9184 15.795 20.2424 15.69C20.3564 15.652 20.4654 15.596 20.5754 15.545C20.6714 15.501 20.7174 15.429 20.7014 15.317C20.6574 15.012 20.6394 14.701 20.5714 14.402Z" fill="#525C69"/>
</svg>
