<svg width="24" height="24" viewBox="0 0 24 24" fill="none" xmlns="http://www.w3.org/2000/svg">
<path fill-rule="evenodd" clip-rule="evenodd" d="M9.14322 5.44064C9.3865 5.01927 9.92529 4.8749 10.3467 5.11818C10.768 5.36145 10.9124 5.90025 10.6691 6.32162L8.95643 9.28809H14.8203L13.1076 6.32162C12.8643 5.90025 13.0087 5.36145 13.4301 5.11818C13.8515 4.8749 14.3902 5.01927 14.6335 5.44064L16.836 9.25539C16.8422 9.26621 16.8482 9.27711 16.854 9.28809H18.2376C18.8874 9.28809 19.3646 9.89804 19.2083 10.5287L17.3916 17.8565C17.281 18.3026 16.8806 18.6159 16.421 18.6159H7.57959C7.11998 18.6159 6.71956 18.3026 6.60897 17.8565L4.79232 10.5287C4.63597 9.89805 5.11318 9.28809 5.76294 9.28809H6.92279C6.92853 9.27711 6.93452 9.26621 6.94077 9.25539L9.14322 5.44064ZM7.13574 11.8244C7.13574 11.5644 7.34659 11.3535 7.60667 11.3535H9.61895V13.0954H7.60667C7.34659 13.0954 7.13574 12.8845 7.13574 12.6244V11.8244ZM11.0608 13.0954V11.3535H12.7983V13.0954H11.0608ZM12.7983 14.4668H11.0608V16.2087H12.7983V14.4668ZM14.2402 16.2087V14.4668H15.6149C15.875 14.4668 16.0858 14.6776 16.0858 14.9377V15.7377C16.0858 15.9978 15.875 16.2087 15.6149 16.2087H14.2402ZM14.2402 13.0954V11.3535H16.3611C16.6212 11.3535 16.832 11.5644 16.832 11.8244V12.6244C16.832 12.8845 16.6212 13.0954 16.3611 13.0954H14.2402ZM8.38573 14.4668H9.61895V16.2087H8.38573C8.12564 16.2087 7.91479 15.9978 7.91479 15.7377V14.9377C7.91479 14.6776 8.12564 14.4668 8.38573 14.4668Z" fill="#525C69"/>
</svg>
