<svg width="24" height="24" viewBox="0 0 24 24" fill="none" xmlns="http://www.w3.org/2000/svg">
<path fill-rule="evenodd" clip-rule="evenodd" d="M3.9092 11.6462V12.3594C3.9092 12.906 3.9934 13.3253 4.16181 13.6173C4.33022 13.9056 4.56825 14.0497 4.87592 14.0497C5.16739 14.0497 5.39247 13.9299 5.55116 13.6903C5.70985 13.4507 5.7892 13.14 5.7892 12.7581H7.71778V13.1007C7.71778 13.9617 7.4506 14.6543 6.91623 15.1784C6.3851 15.6988 5.69852 15.959 4.85649 15.959C3.89139 15.959 3.14328 15.6352 2.61215 14.9875C2.08426 14.3361 1.82031 13.4544 1.82031 12.3426V11.6518C1.82031 10.5362 2.08426 9.65643 2.61215 9.01251C3.14004 8.36485 3.88815 8.04102 4.85649 8.04102C5.70176 8.04102 6.38996 8.30308 6.92109 8.8272C7.45221 9.34757 7.71778 10.0402 7.71778 10.905V11.2363H5.7892C5.7892 10.8582 5.70985 10.5493 5.55116 10.3097C5.39247 10.0701 5.16739 9.95031 4.87592 9.95031C4.56825 9.95031 4.33022 10.0963 4.16181 10.3883C3.9934 10.6766 3.9092 11.0959 3.9092 11.6462ZM11.5847 8.16456C12.4332 8.16456 13.0825 8.40228 13.5327 8.87774C13.9861 9.34945 14.2128 9.99149 14.2128 10.8039C14.2128 11.0435 14.1836 11.2737 14.1253 11.4946C14.0703 11.7155 13.999 11.9045 13.9116 12.0618C13.8274 12.219 13.7302 12.3631 13.6201 12.4942C13.51 12.6215 13.408 12.7225 13.3141 12.7974C13.2234 12.8723 13.1359 12.9322 13.0517 12.9771L14.3536 15.8298H12.1142L11.0503 13.2747H10.5402V15.8298H8.54362V8.16456H11.5847ZM10.5402 11.7024H11.2737C11.5134 11.7024 11.7126 11.6256 11.8713 11.4721C12.03 11.3149 12.1093 11.0884 12.1093 10.7927C12.1093 10.4932 12.0267 10.2629 11.8616 10.1019C11.6996 9.93721 11.5037 9.85485 11.2737 9.85485H10.5402V11.7024ZM15.024 15.8298H16.8263V11.5564H16.9235L18.0602 14.3754H19.1289L20.256 11.5564H20.3483V15.8298H22.1797V8.16456H20.0665L18.6432 11.5844H18.5751L17.1566 8.16456H15.024V15.8298Z" fill="#525C69"/>
</svg>
