<svg width="25" height="24" viewBox="0 0 25 24" fill="none" xmlns="http://www.w3.org/2000/svg">
<path fill-rule="evenodd" clip-rule="evenodd" d="M4.48145 4.0791C3.37688 4.0791 2.48145 4.97453 2.48145 6.0791V12.2291C2.48145 13.2856 3.30068 14.1508 4.33856 14.2241V7.66024C4.33856 6.55567 5.234 5.66024 6.33856 5.66024H16.1455C15.9529 4.75676 15.1503 4.0791 14.1894 4.0791H4.48145ZM7.37731 6.77145C6.27274 6.77145 5.37731 7.66688 5.37731 8.77145V14.9214C5.37731 15.9778 6.19634 16.8429 7.23405 16.9164V10.3524C7.23405 9.24785 8.12948 8.35242 9.23405 8.35242H19.0413C18.8487 7.44902 18.0461 6.77145 17.0852 6.77145H7.37731ZM10.5379 9.78812C9.43331 9.78812 8.53787 10.6835 8.53787 11.7881V17.9381C8.53787 19.0427 9.4333 19.9381 10.5379 19.9381H20.2458C21.3504 19.9381 22.2458 19.0427 22.2458 17.9381V11.7881C22.2458 10.6835 21.3504 9.78812 20.2458 9.78812H10.5379ZM15.7253 16.7272C15.7802 17.0066 15.6319 17.2888 15.3616 17.3784C14.7169 17.5919 14.0014 17.7178 13.2464 17.734H12.9129C12.1503 17.7176 11.428 17.5894 10.7782 17.3719C10.5196 17.2853 10.3681 17.0203 10.4175 16.7522C10.4347 16.6584 10.4527 16.572 10.4709 16.501C10.5704 16.1129 11.1303 15.8248 11.6455 15.6032C11.7803 15.5451 11.8618 15.4988 11.944 15.452C12.0244 15.4063 12.1056 15.3602 12.2382 15.3022C12.2532 15.2307 12.2593 15.1577 12.2562 15.0848L12.4844 15.0577C12.4844 15.0577 12.5144 15.1123 12.4662 14.7918C12.4662 14.7918 12.2098 14.7253 12.1979 14.2149C12.1979 14.2149 12.0051 14.279 11.9935 13.9697C11.9911 13.9081 11.9752 13.8488 11.9599 13.7921C11.9233 13.6559 11.8905 13.534 12.0574 13.4278L11.937 13.1069C11.937 13.1069 11.8104 11.8676 12.3653 11.9679C12.1402 11.6113 14.0387 11.3148 14.1648 12.4069C14.2145 12.7361 14.2145 13.0706 14.1648 13.3998C14.1648 13.3998 14.4485 13.3672 14.2591 13.9065C14.2591 13.9065 14.1549 14.2946 13.9948 14.2075C13.9948 14.2075 14.0207 14.698 13.7686 14.7811C13.7686 14.7811 13.7867 15.0423 13.7867 15.06L13.9973 15.0915C13.9973 15.0915 13.991 15.3093 14.033 15.3329C14.2252 15.457 14.4359 15.5511 14.6575 15.6118C15.3117 15.7778 15.6438 16.0628 15.6438 16.3122L15.7253 16.7272ZM16.9925 12.1407C16.6141 12.1407 16.3074 12.4474 16.3074 12.8258C16.3074 13.2041 16.6141 13.5109 16.9925 13.5109H19.9616C20.34 13.5109 20.6467 13.2041 20.6467 12.8258C20.6467 12.4474 20.34 12.1407 19.9616 12.1407H16.9925ZM16.9926 14.4812C16.6142 14.4812 16.3075 14.788 16.3075 15.1664C16.3075 15.5447 16.6142 15.8515 16.9926 15.8515H18.8198C19.1982 15.8515 19.5049 15.5447 19.5049 15.1664C19.5049 14.788 19.1982 14.4812 18.8198 14.4812H16.9926Z" fill="#525C69"/>
</svg>
