<svg width="24" height="24" viewBox="0 0 24 24" fill="none" xmlns="http://www.w3.org/2000/svg">
<path fill-rule="evenodd" clip-rule="evenodd" d="M4.80994 6C3.81627 6 3.01074 6.80553 3.01074 7.79919V14.8316C3.01074 15.8252 3.81627 16.6308 4.80993 16.6308H16.6322C17.6258 16.6308 18.4314 15.8252 18.4314 14.8316V7.79919C18.4314 6.80553 17.6258 6 16.6322 6H4.80994ZM10.7317 13.7427C10.7811 13.9941 10.6476 14.2476 10.4057 14.3317C9.65843 14.5914 8.82252 14.7449 7.93824 14.7639H7.56516C6.67441 14.7448 5.83273 14.5892 5.08136 14.326C4.84984 14.2449 4.7146 14.0072 4.75604 13.7654C4.78053 13.6225 4.80681 13.4888 4.83353 13.3846C4.94487 12.9506 5.57113 12.6282 6.14737 12.3803C6.29825 12.3154 6.38934 12.2636 6.48137 12.2113C6.57127 12.1602 6.66206 12.1085 6.81036 12.0437C6.8272 11.9637 6.83397 11.8821 6.83052 11.8005L7.08576 11.7702C7.08576 11.7702 7.11935 11.8313 7.06547 11.4727C7.06547 11.4727 6.77864 11.3984 6.76534 10.8274C6.76534 10.8274 6.54968 10.8991 6.53668 10.5532C6.53399 10.4842 6.51618 10.418 6.49911 10.3545C6.45818 10.2021 6.42153 10.0658 6.60814 9.94699L6.47351 9.58801C6.47351 9.58801 6.33188 8.20174 6.95257 8.31396C6.70075 7.915 8.8245 7.58337 8.96555 8.80495C9.02106 9.1732 9.02106 9.54746 8.96555 9.91571C8.96555 9.91571 9.28283 9.87924 9.07103 10.4824C9.07103 10.4824 8.95441 10.9166 8.77533 10.8191C8.77533 10.8191 8.80434 11.3678 8.52237 11.4608C8.52237 11.4608 8.54252 11.753 8.54252 11.7728L8.77819 11.808C8.77819 11.808 8.77104 12.0516 8.81806 12.078C9.03307 12.2169 9.26873 12.3221 9.51664 12.39C10.2484 12.5757 10.62 12.8945 10.62 13.1735L10.7317 13.7427ZM11.2708 9.39218C11.2708 9.0274 11.5666 8.73168 11.9314 8.73168H15.1393C15.5041 8.73168 15.7998 9.0274 15.7998 9.39218C15.7998 9.75697 15.5041 10.0527 15.1393 10.0527H11.9314C11.5666 10.0527 11.2708 9.75697 11.2708 9.39218ZM11.2708 11.6949C11.2708 11.3301 11.5666 11.0344 11.9314 11.0344H14.1958C14.5605 11.0344 14.8563 11.3301 14.8563 11.6949C14.8563 12.0597 14.5605 12.3554 14.1958 12.3554H11.9314C11.5666 12.3554 11.2708 12.0597 11.2708 11.6949Z" fill="#525C69"/>
<path d="M5.55558 17.3193C5.63775 18.2368 6.40866 18.956 7.34753 18.956H19.1698C20.1634 18.956 20.969 18.1504 20.969 17.1568V10.1244C20.969 9.18869 20.2547 8.41983 19.3416 8.3333V9.81544C19.5588 9.97967 19.6991 10.2402 19.6991 10.5334V16.748C19.6991 17.2448 19.2964 17.6476 18.7995 17.6476H7.71821C7.43832 17.6476 7.18828 17.5198 7.02329 17.3193H5.55558Z" fill="#525C69"/>
</svg>
