<svg width="24" height="24" viewBox="0 0 24 24" fill="none" xmlns="http://www.w3.org/2000/svg">
<path fill-rule="evenodd" clip-rule="evenodd" d="M4.05664 8.04492C4.05664 6.94035 4.95207 6.04492 6.05664 6.04492H17.9698C19.0744 6.04492 19.9698 6.94035 19.9698 8.04492V15.967C19.9698 17.0715 19.0744 17.967 17.9698 17.967H6.05664C4.95207 17.967 4.05664 17.0715 4.05664 15.967V8.04492ZM12.1879 14.9045C12.4572 14.8121 12.6055 14.5302 12.5507 14.2508L12.4406 13.6905C12.4406 13.4005 12.0545 13.0693 11.2941 12.8763C11.0364 12.8058 10.7915 12.6964 10.5681 12.5521C10.5192 12.5247 10.5267 12.2715 10.5267 12.2715L10.2818 12.2349C10.2818 12.2143 10.2608 11.9107 10.2608 11.9107C10.5538 11.814 10.5237 11.2438 10.5237 11.2438C10.7098 11.3452 10.831 10.894 10.831 10.894C11.0511 10.2671 10.7214 10.305 10.7214 10.305C10.7791 9.92232 10.7791 9.53339 10.7214 9.15071C10.5748 7.88124 8.36778 8.22586 8.62947 8.64047C7.98445 8.52384 8.13163 9.96446 8.13163 9.96446L8.27154 10.3375C8.07762 10.461 8.1157 10.6027 8.15824 10.761C8.17597 10.8269 8.19448 10.8958 8.19728 10.9674C8.21079 11.3269 8.43491 11.2524 8.43491 11.2524C8.44872 11.8458 8.7468 11.923 8.7468 11.923C8.80279 12.2957 8.76789 12.2322 8.76789 12.2322L8.50264 12.2637C8.50623 12.3485 8.49919 12.4333 8.48169 12.5164C8.32758 12.5838 8.23322 12.6375 8.1398 12.6906C8.04417 12.745 7.94951 12.7988 7.79271 12.8663C7.19388 13.1238 6.54306 13.4589 6.42736 13.9099C6.40145 14.0109 6.37595 14.1386 6.35197 14.2759C6.30506 14.5446 6.45567 14.809 6.71339 14.8981C7.48698 15.1656 8.35165 15.3236 9.26608 15.3432H9.65378C10.5609 15.3238 11.419 15.1681 12.1879 14.9045ZM13.2111 9.63699C13.2111 9.19714 13.5677 8.84058 14.0075 8.84058H17.459C17.8988 8.84058 18.2554 9.19714 18.2554 9.63699C18.2554 10.0768 17.8988 10.4334 17.459 10.4334H14.0075C13.5677 10.4334 13.2111 10.0768 13.2111 9.63699ZM13.2111 12.3577C13.2111 11.9178 13.5677 11.5613 14.0075 11.5613H16.1316C16.5715 11.5613 16.928 11.9178 16.928 12.3577C16.928 12.7975 16.5715 13.1541 16.1316 13.1541H14.0075C13.5677 13.1541 13.2111 12.7975 13.2111 12.3577Z" fill="#525C69"/>
</svg>
