<svg width="25" height="24" viewBox="0 0 25 24" fill="none" xmlns="http://www.w3.org/2000/svg">
<path fill-rule="evenodd" clip-rule="evenodd" d="M4.52686 7.86365C4.52686 6.86998 5.33238 6.06445 6.32605 6.06445H18.6122C19.6059 6.06445 20.4114 6.86998 20.4114 7.86365V10.6704C20.1201 10.6219 19.8209 10.5967 19.5159 10.5967C18.1293 10.5967 16.8645 11.1178 15.9065 11.9748C15.7861 11.8748 15.6314 11.8147 15.4627 11.8147H11.594C11.2101 11.8147 10.8989 12.1259 10.8989 12.5098C10.8989 12.8937 11.2101 13.2049 11.594 13.2049H14.8839C14.3866 14.0235 14.1003 14.9844 14.1003 16.0122C14.1003 16.6789 14.2208 17.3174 14.4412 17.9072H6.32605C5.33238 17.9072 4.52686 17.1017 4.52686 16.108V7.86365ZM11.594 8.86426C11.2101 8.86426 10.8989 9.17547 10.8989 9.55937C10.8989 9.94327 11.2101 10.2545 11.594 10.2545H17.1314C17.5153 10.2545 17.8265 9.94327 17.8265 9.55937C17.8265 9.17547 17.5153 8.86426 17.1314 8.86426H11.594ZM7.9834 11.1519C8.79767 11.1519 9.45776 10.4918 9.45776 9.67749C9.45776 8.86322 8.79767 8.20312 7.9834 8.20312C7.16913 8.20312 6.50903 8.86322 6.50903 9.67749C6.50903 10.4918 7.16913 11.1519 7.9834 11.1519ZM18.6388 12.5645H20.3365V15.1396H22.8807V16.8374H20.3365V19.4142H18.6388V16.8374H16.031V15.1396H18.6388V12.5645Z" fill="#525C69"/>
</svg>
