<svg width="25" height="24" viewBox="0 0 25 24" fill="none" xmlns="http://www.w3.org/2000/svg">
<path fill-rule="evenodd" clip-rule="evenodd" d="M4.52686 7.86365C4.52686 6.86998 5.33238 6.06445 6.32605 6.06445H18.6122C19.6059 6.06445 20.4114 6.86998 20.4114 7.86365V16.108C20.4114 17.1017 19.6059 17.9072 18.6122 17.9072H6.32605C5.33238 17.9072 4.52686 17.1017 4.52686 16.108V7.86365ZM11.594 8.86426C11.2101 8.86426 10.8989 9.17547 10.8989 9.55937C10.8989 9.94327 11.2101 10.2545 11.594 10.2545H17.1314C17.5153 10.2545 17.8265 9.94327 17.8265 9.55937C17.8265 9.17547 17.5153 8.86426 17.1314 8.86426H11.594ZM11.594 11.8147C11.2101 11.8147 10.8989 12.1259 10.8989 12.5098C10.8989 12.8937 11.2101 13.2049 11.594 13.2049H15.4627C15.8466 13.2049 16.1578 12.8937 16.1578 12.5098C16.1578 12.1259 15.8466 11.8147 15.4627 11.8147H11.594ZM7.9834 11.1518C8.79767 11.1518 9.45776 10.4917 9.45776 9.67744C9.45776 8.86317 8.79767 8.20307 7.9834 8.20307C7.16913 8.20307 6.50903 8.86317 6.50903 9.67744C6.50903 10.4917 7.16913 11.1518 7.9834 11.1518Z" fill="#525C69"/>
</svg>
