<svg width="24" height="24" viewBox="0 0 24 24" fill="none" xmlns="http://www.w3.org/2000/svg">
<path fill-rule="evenodd" clip-rule="evenodd" d="M4.77779 12.6747C4.65624 12.8709 4.4223 12.879 4.28222 12.6951C4.2186 12.6115 4.1759 12.5122 4.11333 12.4277C3.57904 11.7063 3.30651 11.4217 2.76966 10.7023C2.59984 10.4441 2.56487 9.82195 2.77679 9.50805C2.98872 9.19414 4.6387 6.9893 5.36845 6.03861C6.0982 5.08792 6.91794 4.92361 7.57931 5.31767C8.24069 5.71173 8.96008 5.72892 9.21406 5.76903C9.46805 5.80914 10.8276 5.80339 10.7652 5.96191C10.7029 6.12044 10.3926 6.22015 10.2031 6.34458C10.1511 6.37875 10.0896 6.3983 10.0357 6.42989C9.74457 6.60034 9.37187 6.59735 9.01233 6.59455C8.6528 6.59175 7.87391 6.52166 7.28472 6.21426C6.69554 5.90686 6.35324 6.30991 6.11005 6.57902C5.86686 6.84813 3.7662 9.71838 3.72849 9.77284C3.69079 9.82731 3.51376 10.2723 3.71166 10.5794C3.90956 10.8865 4.30748 11.1632 4.68947 11.8335C4.79553 12.0196 4.88006 12.2144 4.85675 12.4341C4.84797 12.5166 4.82123 12.6047 4.77779 12.6747ZM19.6612 12.656C19.7648 12.7891 19.8149 13.1612 19.752 13.5098C19.6434 14.1113 19.3212 14.5687 18.7872 14.8691C18.7084 14.9134 18.6829 14.9609 18.6728 15.0487C18.5805 15.8452 18.1586 16.4001 17.4121 16.6868C17.2477 16.7499 17.1689 16.825 17.1107 16.9878C16.9151 17.535 16.5312 17.9148 15.9898 18.1205C15.5705 18.2798 15.1414 18.2817 14.718 18.1217C14.656 18.0982 14.6236 18.1017 14.5826 18.1608C14.2662 18.6181 13.8321 18.8842 13.2785 18.9571C12.8347 19.0155 12.4313 18.9164 12.0623 18.6667C11.7639 18.4649 11.6588 18.3867 11.6643 18.3204C11.6698 18.2542 12.053 17.6304 12.1166 17.6548C12.1802 17.6791 12.2245 17.7381 12.5214 17.9475C13.0614 18.3284 13.8032 18.0284 13.9968 17.4359C13.9694 17.4164 13.9408 17.3951 13.9112 17.3751C13.2122 16.9035 13.0235 16.7577 12.3236 16.2872C12.2086 16.2099 12.1392 16.1118 12.1486 15.9681C12.1585 15.8166 12.2412 15.7167 12.3774 15.6633C12.4976 15.6162 12.6084 15.6518 12.7118 15.7217C13.3037 16.1215 13.3859 16.1945 13.9781 16.594C14.3044 16.814 14.6346 17.0285 14.9554 17.2562C15.1542 17.3974 15.371 17.4114 15.5855 17.3508C15.9982 17.2341 16.2554 16.9543 16.3577 16.5341C16.3783 16.4494 16.3603 16.3993 16.2836 16.3478C14.9877 15.4778 14.2042 14.9305 12.9102 14.0577C12.7496 13.9493 12.6845 13.8132 12.7192 13.6602C12.7704 13.4339 13.0219 13.3241 13.2222 13.441C13.2536 13.4593 13.2833 13.4805 13.3135 13.5008C14.6267 14.3866 15.4319 14.9431 16.7403 15.836C16.8885 15.9371 17.0153 15.9409 17.1607 15.8736C17.5738 15.6825 17.7958 15.3587 17.8241 14.9036C17.8285 14.8333 17.803 14.7842 17.7394 14.7415C16.2358 13.73 15.2437 13.0425 13.7416 12.0288C13.4954 11.8627 13.5064 11.5391 13.7634 11.4145C13.8793 11.3584 13.9931 11.3719 14.1003 11.4446C14.3413 11.6078 14.5827 11.7703 14.824 11.9329C16.0718 12.7737 16.8105 13.2868 18.0556 14.1316C18.149 14.195 18.2193 14.1939 18.3139 14.1496C18.8768 13.8861 19.0783 13.0352 18.8919 12.7151C18.7056 12.3951 19.5576 12.5228 19.6612 12.656ZM10.8044 15.7581C11.4659 15.8393 11.8881 16.5324 11.6236 17.1186C11.5549 17.2709 11.4557 17.4097 11.3672 17.5526C11.1865 17.8443 11.0203 18.1469 10.8176 18.4224C10.1127 19.2894 8.10983 17.8507 7.09427 16.9762C6.07872 16.1017 5.29456 15.5167 4.90181 14.4679C4.80815 14.2178 4.81427 13.9726 4.96318 13.7405C5.14329 13.4597 5.32386 13.1792 5.50036 12.8961C5.74037 12.5112 6.29534 12.3515 6.74176 12.5424C6.98369 12.6459 7.1439 12.7961 7.30695 13.079C7.52688 12.8827 7.78337 12.805 8.0651 12.8191C8.27624 12.8296 8.47133 12.9028 8.6386 13.0326C8.97579 13.2942 9.18386 13.7407 8.95927 14.276C9.44035 14.1084 9.86938 14.1804 10.2017 14.5706C10.5375 14.9652 10.5331 15.3928 10.2308 15.8449C10.4336 15.7595 10.6152 15.735 10.8044 15.7581ZM21.5656 10.1695C21.6434 10.335 21.779 10.4565 21.5357 10.8345C21.2925 11.2124 20.3404 12.0319 20.0538 12.1343C19.7672 12.2368 19.7789 12.2413 19.435 12.1993C19.091 12.1573 18.2048 11.5102 17.8373 11.2897C17.3505 10.9976 16.8631 10.7065 16.3762 10.4144C15.9545 10.1614 15.5335 9.90724 15.1117 9.65451C14.6217 9.36102 14.1311 9.06871 13.6411 8.77553C13.4993 8.69075 13.3604 8.60097 13.2155 8.52206C13.1805 8.50302 13.1198 8.50265 13.0831 8.51983C12.5088 8.78866 11.9454 9.08285 11.3615 9.32837C10.6963 9.60806 10.0078 9.67332 9.3186 9.38915C8.96503 9.24334 8.68842 8.99876 8.46094 8.696C8.25827 8.42625 8.42382 8.07576 8.6524 7.95924C9.45511 7.55005 10.2182 7.07359 10.9878 6.60787C11.2677 6.4385 11.543 6.26096 11.8279 6.10047C12.1107 5.94114 12.4192 5.84775 12.741 5.80342C12.7918 5.79645 12.8458 5.80272 12.897 5.81112C14.092 6.00772 16.127 6.3515 16.2891 6.36531C16.4511 6.37912 16.6347 6.36204 16.6977 6.34903C16.7607 6.33602 17.3661 6.06664 17.5672 5.96609C17.7683 5.86553 18.2913 5.60341 18.6506 5.86972C19.0099 6.13604 19.1711 6.36691 19.5339 6.82665C20.4576 7.99712 21.4878 10.004 21.5656 10.1695Z" fill="#525C69"/>
</svg>
