<svg width="24" height="24" viewBox="0 0 24 24" fill="none" xmlns="http://www.w3.org/2000/svg">
<path fill-rule="evenodd" clip-rule="evenodd" d="M4.77779 12.6747C4.65624 12.8709 4.4223 12.879 4.28222 12.6951C4.24955 12.6521 4.22239 12.6051 4.19522 12.558L4.19522 12.558C4.16949 12.5134 4.14376 12.4688 4.11333 12.4277C3.83992 12.0585 3.63505 11.8038 3.42823 11.5466C3.2309 11.3012 3.03178 11.0535 2.76966 10.7023C2.59984 10.4441 2.56487 9.82195 2.77679 9.50805C2.98872 9.19414 4.6387 6.9893 5.36845 6.03861C6.0982 5.08792 6.91794 4.92361 7.57931 5.31767C8.13328 5.64773 8.72794 5.71339 9.05573 5.74959C9.11929 5.7566 9.17281 5.76251 9.21406 5.76903C9.28923 5.7809 9.46123 5.78875 9.66455 5.79804C10.1482 5.82012 10.8091 5.8503 10.7652 5.96191C10.7227 6.07006 10.5648 6.15083 10.4086 6.23076C10.3358 6.26799 10.2633 6.30504 10.2031 6.34458C10.1745 6.36339 10.143 6.37776 10.1115 6.39215C10.0857 6.40391 10.0599 6.41568 10.0357 6.42989C9.74471 6.60026 9.37223 6.59736 9.01286 6.59456L9.01233 6.59455C8.6528 6.59175 7.87391 6.52166 7.28472 6.21426C6.70958 5.91418 6.3697 6.2911 6.12761 6.55956L6.11005 6.57902C5.86686 6.84813 3.7662 9.71838 3.7285 9.77284C3.69079 9.82731 3.51376 10.2723 3.71166 10.5794C3.78597 10.6947 3.88847 10.8057 4.00774 10.9349C4.20613 11.1498 4.45091 11.4149 4.68947 11.8335C4.79553 12.0196 4.88006 12.2144 4.85675 12.4341C4.84797 12.5166 4.82123 12.6047 4.77779 12.6747ZM18.9504 10.9287C19.6954 10.9287 20.4025 11.0911 21.0382 11.3823C21.2552 11.1783 21.4449 10.9756 21.5357 10.8345C21.7459 10.5079 21.6733 10.3728 21.5995 10.2354C21.5878 10.2137 21.5762 10.192 21.5656 10.1695C21.4878 10.004 20.4576 7.99712 19.5339 6.82665C19.4921 6.77365 19.4529 6.7237 19.4159 6.67638L19.4153 6.67562C19.1311 6.31292 18.9683 6.10518 18.6506 5.86972C18.2918 5.6038 17.7699 5.86476 17.5681 5.96564L17.5672 5.96609C17.3661 6.06664 16.7607 6.33602 16.6977 6.34903C16.6347 6.36204 16.4511 6.37912 16.2891 6.36531C16.1737 6.35548 15.1095 6.17849 14.0747 6.00638L14.0747 6.00638C13.6557 5.93668 13.2414 5.86779 12.897 5.81112C12.8458 5.80272 12.7917 5.79645 12.741 5.80342C12.4192 5.84775 12.1107 5.94114 11.8279 6.10047C11.6354 6.20886 11.4474 6.32504 11.2594 6.44122L11.2594 6.44123L11.2593 6.4413C11.1689 6.49711 11.0786 6.55292 10.9878 6.60787C10.8813 6.67229 10.775 6.73692 10.6687 6.80155L10.6685 6.80166C10.0062 7.20419 9.34401 7.60668 8.6524 7.95924C8.42382 8.07576 8.25827 8.42625 8.46094 8.696C8.68842 8.99876 8.96503 9.24334 9.3186 9.38915C10.0078 9.67332 10.6962 9.60806 11.3615 9.32837C11.745 9.16712 12.1196 8.98487 12.4943 8.80261L12.4944 8.8026L12.4944 8.80257C12.6902 8.70733 12.886 8.61208 13.0831 8.51983C13.1198 8.50265 13.1805 8.50302 13.2155 8.52206C13.3146 8.57603 13.4109 8.63508 13.5072 8.69413C13.5517 8.72143 13.5962 8.74873 13.6411 8.77553C13.8495 8.9002 14.058 9.02471 14.2664 9.14923L14.2669 9.14949L14.2673 9.14976C14.5488 9.31788 14.8304 9.486 15.1117 9.65451C15.3425 9.7928 15.5731 9.93152 15.8036 10.0702C15.9945 10.185 16.1853 10.2998 16.3762 10.4144C16.6123 10.556 16.8484 10.6974 17.0846 10.8387L17.5605 11.1237C18.0019 10.9967 18.4682 10.9287 18.9504 10.9287ZM13.9733 16.5907C14.0501 17.1901 14.2326 17.7565 14.5016 18.2704C14.1935 18.6608 13.7863 18.8902 13.2785 18.9571C12.8347 19.0155 12.4313 18.9164 12.0623 18.6667C11.7639 18.4649 11.6588 18.3867 11.6643 18.3204C11.6698 18.2542 12.053 17.6304 12.1166 17.6548C12.1492 17.6673 12.1767 17.6888 12.2356 17.7349L12.2356 17.735C12.2918 17.7789 12.3765 17.8453 12.5214 17.9475C13.0614 18.3284 13.8032 18.0284 13.9968 17.4359L13.97 17.4166C13.9509 17.4028 13.9313 17.3886 13.9112 17.3751C13.5719 17.1462 13.3528 16.994 13.1371 16.8442C12.9085 16.6854 12.6837 16.5293 12.3236 16.2872C12.2086 16.2099 12.1392 16.1118 12.1486 15.9681C12.1585 15.8166 12.2412 15.7167 12.3774 15.6633C12.4976 15.6162 12.6084 15.6518 12.7118 15.7217C13.0047 15.9195 13.1728 16.0373 13.3396 16.1543L13.3397 16.1544C13.5091 16.2731 13.6772 16.3909 13.9733 16.5907ZM14.2654 14.1454C14.1797 14.3681 14.1095 14.5984 14.0559 14.8351C13.7049 14.5958 13.3351 14.3443 12.9102 14.0577C12.7496 13.9493 12.6845 13.8132 12.7192 13.6602C12.7704 13.4339 13.0219 13.3241 13.2222 13.441C13.2466 13.4553 13.27 13.4712 13.2934 13.4872L13.2934 13.4872L13.3135 13.5008C13.66 13.7345 13.9711 13.9453 14.2654 14.1454ZM14.9848 12.8716C15.1269 12.6886 15.2814 12.5156 15.4471 12.3541C15.2517 12.2216 15.0459 12.0824 14.824 11.9329L14.7113 11.8569C14.5075 11.7197 14.3038 11.5824 14.1003 11.4446C13.9931 11.3719 13.8793 11.3584 13.7634 11.4145C13.5064 11.5391 13.4954 11.8627 13.7416 12.0288C14.1928 12.3333 14.5979 12.6084 14.9848 12.8716ZM10.8044 15.7581C11.4659 15.8393 11.8881 16.5324 11.6236 17.1186C11.5724 17.2322 11.5042 17.3383 11.4361 17.4442L11.4361 17.4442L11.436 17.4442C11.4128 17.4803 11.3897 17.5163 11.3672 17.5526C11.3157 17.6357 11.2654 17.7197 11.2151 17.8037C11.0889 18.0145 10.9626 18.2254 10.8176 18.4224C10.1127 19.2894 8.10983 17.8507 7.09427 16.9762C6.9888 16.8854 6.88582 16.7977 6.78551 16.7123L6.78538 16.7122C5.91999 15.9751 5.25375 15.4077 4.90181 14.4679C4.80815 14.2178 4.81427 13.9726 4.96318 13.7405L5.01507 13.6596L5.0152 13.6594C5.17802 13.4057 5.34085 13.1519 5.50036 12.8961C5.74037 12.5112 6.29534 12.3515 6.74176 12.5424C6.98369 12.6459 7.1439 12.7961 7.30695 13.079C7.52688 12.8827 7.78337 12.805 8.0651 12.8191C8.27624 12.8296 8.47133 12.9028 8.6386 13.0326C8.97579 13.2942 9.18386 13.7407 8.95927 14.276C9.44035 14.1084 9.86938 14.1804 10.2017 14.5706C10.5375 14.9652 10.5331 15.3928 10.2308 15.8449C10.4336 15.7595 10.6152 15.735 10.8044 15.7581ZM18.1388 12.5645H19.8366V15.1396H22.3808V16.8374H19.8366V19.4142H18.1388V16.8374H15.531V15.1396H18.1388V12.5645Z" fill="#525C69"/>
</svg>
