<svg width="24" height="24" viewBox="0 0 24 24" fill="none" xmlns="http://www.w3.org/2000/svg">
<path fill-rule="evenodd" clip-rule="evenodd" d="M20.0137 14.9339C20.0137 15.5476 19.5161 16.0452 18.9023 16.0452L18.1554 16.0452C18.1594 15.9895 18.1614 15.9332 18.1614 15.8765C18.1614 14.5978 17.1249 13.5612 15.8462 13.5612C14.5675 13.5612 13.5309 14.5978 13.5309 15.8765C13.5309 15.9332 13.5329 15.9895 13.5369 16.0452H10.2999C10.3039 15.9895 10.3059 15.9332 10.3059 15.8765C10.3059 14.5978 9.26935 13.5612 7.99065 13.5612C6.71195 13.5612 5.67535 14.5978 5.67535 15.8765C5.67535 15.9332 5.6774 15.9895 5.68141 16.0452L5.19581 16.0452C4.58204 16.0452 4.08447 15.5476 4.08447 14.9339V12.1555C4.08447 12.1243 4.08576 12.0934 4.08828 12.0629L4.08447 12.0629V7.06186C4.08447 6.2435 4.74789 5.58008 5.56626 5.58008H12.4067C13.2251 5.58008 13.8885 6.2435 13.8885 7.06186L13.8885 7.3397H15.7878C16.6577 7.3397 17.4696 7.77589 17.9499 8.50122L19.4903 10.8277C19.6471 11.0644 19.7702 11.3199 19.8575 11.5869C19.9566 11.7533 20.0137 11.9477 20.0137 12.1555V14.9339ZM9.48897 15.876C9.48897 15.0485 8.81817 14.3777 7.9907 14.3777C7.16323 14.3777 6.49243 15.0485 6.49243 15.876C6.49243 16.7035 7.16323 17.3743 7.9907 17.3743C8.81817 17.3743 9.48897 16.7035 9.48897 15.876ZM17.3445 15.876C17.3445 15.0485 16.6737 14.3777 15.8462 14.3777C15.0187 14.3777 14.3479 15.0485 14.3479 15.876C14.3479 16.7035 15.0187 17.3743 15.8462 17.3743C16.6737 17.3743 17.3445 16.7035 17.3445 15.876ZM14.6423 8.45117H15.9552C16.3274 8.45117 16.6749 8.63752 16.8809 8.94757L18.2736 11.0443H14.6423V8.45117Z" fill="#525C69"/>
</svg>
