<svg width="24" height="24" viewBox="0 0 24 24" fill="none" xmlns="http://www.w3.org/2000/svg">
<path fill-rule="evenodd" clip-rule="evenodd" d="M16.5672 6.14844C18.0699 6.14844 19.2881 7.36662 19.2881 8.86932V15.0831C19.2881 16.5858 18.0699 17.804 16.5672 17.804L11.9749 17.805C10.3779 19.6811 9.4145 20.6515 9.08477 20.716C8.51327 20.8277 8.19352 19.8574 8.12551 17.805L7.4328 17.804C5.9301 17.804 4.71191 16.5858 4.71191 15.0831V8.86932C4.71191 7.36662 5.9301 6.14844 7.4328 6.14844H16.5672ZM16.371 8.15775H7.62902C7.09234 8.15775 6.65727 8.59281 6.65727 9.12949V14.7962C6.65727 15.3329 7.09234 15.7679 7.62902 15.7679H16.371C16.9077 15.7679 17.3427 15.3329 17.3427 14.7962V9.12949C17.3427 8.59281 16.9077 8.15775 16.371 8.15775Z" fill="#525C69"/>
</svg>
