<svg width="24" height="24" viewBox="0 0 24 24" fill="none" xmlns="http://www.w3.org/2000/svg">
<path fill-rule="evenodd" clip-rule="evenodd" d="M16.4867 10.1742H7.31321C7.13192 10.1742 6.98688 10.0395 6.98688 9.87103V8.62455C6.98688 8.45611 7.13192 8.32136 7.31321 8.32136H16.4867C16.668 8.32136 16.813 8.45611 16.813 8.62455V9.87103C16.8493 10.0395 16.668 10.1742 16.4867 10.1742ZM16.4866 13.8889H7.31315C7.13185 13.8889 6.98682 13.7542 6.98682 13.5857V12.3393C6.98682 12.1708 7.13185 12.0361 7.31315 12.0361H16.4866C16.6679 12.0361 16.8129 12.1708 16.8129 12.3393V13.5857C16.8492 13.7542 16.6679 13.8889 16.4866 13.8889ZM17.3152 6.28418L6.64767 6.28418C5.74894 6.28418 5 6.95795 5 7.76647V15.3464C5 16.1549 5.74894 16.8287 6.64767 16.8287H13.2123C13.3246 16.8287 13.3995 16.8624 13.4744 16.9297L15.7961 19.1869C16.0208 19.389 16.3953 19.2542 16.3953 18.9847V17.1319C16.3953 16.9634 16.5451 16.8287 16.7323 16.8287H17.3527C18.2514 16.8287 19.0003 16.1549 19.0003 15.3464V7.76647C18.9629 6.95795 18.2139 6.28418 17.3152 6.28418Z" fill="#525C69"/>
</svg>
