<svg width="24" height="24" viewBox="0 0 24 24" fill="none" xmlns="http://www.w3.org/2000/svg">
<path fill-rule="evenodd" clip-rule="evenodd" d="M3.72266 5.7207C3.72266 5.44456 3.94651 5.2207 4.22266 5.2207H17.2388C17.515 5.2207 17.7388 5.44456 17.7388 5.7207V6.99706C17.7388 7.197 17.6215 7.36953 17.4519 7.44952C17.202 7.42361 16.9483 7.41033 16.6916 7.41033C16.308 7.41033 15.9314 7.43996 15.5639 7.49706H4.22266C3.94651 7.49706 3.72266 7.27321 3.72266 6.99706V5.7207ZM9.40526 14.6966C9.40526 14.6387 9.40594 14.581 9.40728 14.5234H4.22266C3.94651 14.5234 3.72266 14.7473 3.72266 15.0234V16.2998C3.72266 16.5759 3.94651 16.7998 4.22266 16.7998H9.71339C9.51297 16.1339 9.40526 15.4278 9.40526 14.6966ZM9.86327 12.1484C10.1784 11.3044 10.6455 10.5346 11.2313 9.87207H4.22266C3.94651 9.87207 3.72266 10.0959 3.72266 10.3721V11.6484C3.72266 11.9246 3.94651 12.1484 4.22266 12.1484H9.86327ZM22.0627 14.7321C22.0627 17.7129 19.6463 20.1292 16.6656 20.1292C13.6848 20.1292 11.2684 17.7129 11.2684 14.7321C11.2684 11.7513 13.6848 9.33496 16.6656 9.33496C19.6463 9.33496 22.0627 11.7513 22.0627 14.7321ZM15.215 12.1583L14.092 13.2814L15.5425 14.732L14.0919 16.1826L15.215 17.3056L16.6656 15.855L18.1162 17.3056L19.2392 16.1826L17.7886 14.732L19.2392 13.2814L18.1162 12.1584L16.6656 13.6089L15.215 12.1583Z" fill="#525C69"/>
</svg>
