<svg width="25" height="24" viewBox="0 0 25 24" fill="none" xmlns="http://www.w3.org/2000/svg">
<path fill-rule="evenodd" clip-rule="evenodd" d="M14.5177 8.83307C14.9369 8.83307 15.2792 8.5019 15.2792 8.09643V8.05873C15.2792 7.65326 14.9369 7.32209 14.5177 7.32209H8.40079C7.98216 7.32209 7.63924 7.65326 7.63924 8.05873V8.09643C7.63924 8.5019 7.98216 8.83307 8.40079 8.83307H14.5177ZM12.2347 10.6064C13.4171 9.68717 14.9029 9.13977 16.5166 9.13977C17.5839 9.13977 18.5953 9.37926 19.5 9.80743V5.80813C19.5 5.36355 19.1232 5 18.6625 5H6.33755C5.87678 5 5.5 5.36355 5.5 5.80813V18.1919C5.5 18.6365 5.87678 19 6.33755 19H10.1531C9.75562 18.1225 9.5343 17.1481 9.5343 16.1221C9.5343 15.8788 9.54674 15.6384 9.57102 15.4016H8.40029C7.98166 15.4016 7.63818 15.0704 7.63818 14.665V14.6273C7.63818 14.2218 7.98166 13.8906 8.40029 13.8906H9.89847C10.1132 13.2536 10.4172 12.6578 10.7958 12.1179H8.40039C7.98176 12.1179 7.63829 11.7868 7.63829 11.3813V11.3431C7.63829 10.9376 7.98176 10.6064 8.40039 10.6064H12.2347Z" fill="#525C69"/>
<path fill-rule="evenodd" clip-rule="evenodd" d="M16.8958 17.862C15.389 18.1824 14.0801 16.8731 14.4006 15.3667C14.5522 14.6543 15.268 13.9385 15.9803 13.7868C17.4868 13.4662 18.7962 14.7752 18.4757 16.2821C18.3076 17.0724 17.6861 17.6939 16.8958 17.862ZM20.2973 14.878C20.2228 14.5733 20.1148 14.2817 19.9748 14.0091C19.9689 13.9976 19.9703 13.9838 19.9784 13.9738L20.6367 13.1574C20.7796 12.9814 20.7731 12.7281 20.6225 12.5583L20.2052 12.0886C20.0539 11.9189 19.8031 11.883 19.6118 12.0039L18.7145 12.568C18.3255 12.2962 17.8856 12.0945 17.4112 11.9756C17.3987 11.9725 17.3891 11.9622 17.387 11.9494L17.215 10.9156C17.1781 10.6922 16.9848 10.5283 16.7579 10.5283H16.1291C15.9027 10.5283 15.7087 10.6922 15.6727 10.9156L15.4997 11.9498C15.4976 11.9625 15.488 11.9728 15.4755 11.9759C15.0916 12.0721 14.7311 12.224 14.4008 12.4225C14.3896 12.4292 14.3757 12.4287 14.3651 12.4211L13.5291 11.8245C13.3452 11.6931 13.0926 11.7137 12.9321 11.8738L12.4879 12.3184C12.3277 12.4789 12.3072 12.7315 12.4389 12.9154L13.0369 13.7531C13.0444 13.7636 13.045 13.7776 13.0383 13.7887C12.8417 14.1165 12.6915 14.4749 12.5953 14.8553C12.5922 14.8678 12.5819 14.8773 12.5692 14.8794L11.5293 15.0531C11.3063 15.0899 11.1421 15.2832 11.1421 15.5101V16.1385C11.1421 16.3654 11.3063 16.5587 11.5293 16.5956L12.5691 16.7692C12.5819 16.7713 12.5922 16.7808 12.5953 16.7934C12.6735 17.104 12.7849 17.401 12.9313 17.6776C12.9374 17.6891 12.9361 17.7031 12.9279 17.7133L12.2727 18.5247C12.1304 18.7005 12.1364 18.9539 12.287 19.1236L12.7039 19.5933C12.8552 19.7633 13.1062 19.7986 13.2975 19.678L14.1898 19.1175C14.2007 19.1106 14.2146 19.1109 14.2253 19.1181C14.6062 19.3755 15.0357 19.565 15.4962 19.678L15.6727 20.7331C15.7087 20.9564 15.9027 21.1203 16.1291 21.1203H16.7579C16.9848 21.1203 17.1781 20.9564 17.215 20.7331L17.3873 19.6991C17.3894 19.6863 17.399 19.676 17.4115 19.6729C17.7904 19.578 18.1463 19.4288 18.4735 19.2338C18.4846 19.2272 18.4985 19.2277 18.5091 19.2352L19.3806 19.8577C19.5642 19.9896 19.817 19.9689 19.9773 19.8083L20.4218 19.3638C20.5818 19.2038 20.6034 18.9513 20.4706 18.7671L19.8501 17.8971C19.8426 17.8866 19.8421 17.8726 19.8487 17.8615C20.0459 17.5327 20.197 17.1736 20.2925 16.7915C20.2957 16.7789 20.3059 16.7693 20.3187 16.7672L21.3469 16.5955C21.5705 16.5587 21.7341 16.3654 21.7341 16.1385V15.5101C21.7338 15.2832 21.5702 15.0899 21.3465 15.0531L20.2973 14.878Z" fill="#525C69"/>
</svg>
