<svg width="24" height="24" viewBox="0 0 24 24" fill="none" xmlns="http://www.w3.org/2000/svg">
<path fill-rule="evenodd" clip-rule="evenodd" d="M9 6C9 7.10457 8.10457 8 7 8C5.89543 8 5 7.10457 5 6C5 4.89543 5.89543 4 7 4C8.10457 4 9 4.89543 9 6ZM10.7998 5.9998C10.7998 5.33706 10.9455 4.7998 11.6082 4.7998H16.9998C18.2148 4.7998 19.1998 5.78478 19.1998 6.9998V10.9998C19.1998 12.2148 18.2148 13.1998 16.9998 13.1998H7.1998V16.7998H12.3514C13.0142 16.7998 13.1998 17.3371 13.1998 17.9998C13.1998 18.6625 13.0142 19.1998 12.3514 19.1998H6.9998C5.78478 19.1998 4.7998 18.2148 4.7998 16.9998V12.9998C4.7998 11.7848 5.78478 10.7998 6.9998 10.7998H16.7998V7.1998H11.6082C10.9455 7.1998 10.7998 6.66255 10.7998 5.9998ZM17 20C18.1046 20 19 19.1046 19 18C19 16.8954 18.1046 16 17 16C15.8954 16 15 16.8954 15 18C15 19.1046 15.8954 20 17 20Z" fill="#525C69"/>
</svg>
