<svg width="24" height="24" viewBox="0 0 24 24" fill="none" xmlns="http://www.w3.org/2000/svg">
<path fill-rule="evenodd" clip-rule="evenodd" d="M3.65801 5.99609H20.3827C20.7248 5.99609 21.0022 6.27342 21.0022 6.61553V7.8544C21.0022 8.1965 20.7248 8.47383 20.3827 8.47383H3.65801C3.3159 8.47383 3.03857 8.1965 3.03857 7.8544V6.61553C3.03857 6.27342 3.3159 5.99609 3.65801 5.99609ZM6.13574 9.7127H17.905C18.2471 9.7127 18.5244 9.99003 18.5244 10.3321V11.571C18.5244 11.9131 18.2471 12.1904 17.905 12.1904H6.13574C5.79364 12.1904 5.51631 11.9131 5.51631 11.571V10.3321C5.51631 9.99003 5.79364 9.7127 6.13574 9.7127ZM9.23272 13.4297H14.8076C15.1497 13.4297 15.4271 13.707 15.4271 14.0491V15.288C15.4271 15.6301 15.1497 15.9074 14.8076 15.9074H9.23272C8.89061 15.9074 8.61328 15.6301 8.61328 15.288V14.0491C8.61328 13.707 8.89061 13.4297 9.23272 13.4297ZM11.0911 17.1455H12.9494C13.2915 17.1455 13.5688 17.4228 13.5688 17.7649V18.3844C13.5688 18.7265 13.2915 19.0038 12.9494 19.0038H11.0911C10.749 19.0038 10.4717 18.7265 10.4717 18.3844V17.7649C10.4717 17.4228 10.749 17.1455 11.0911 17.1455Z" fill="#525C69"/>
</svg>
