<svg width="25" height="24" viewBox="0 0 25 24" fill="none" xmlns="http://www.w3.org/2000/svg">
<path fill-rule="evenodd" clip-rule="evenodd" d="M4.77179 6.2168H20.2288C20.6277 6.2168 20.9511 6.52568 20.9511 6.9067C20.9511 6.98393 20.9375 7.06062 20.9109 7.13355L20.4439 8.41481C20.3428 8.69207 20.0691 8.87786 19.7618 8.87786H5.23504C4.92702 8.87786 4.65288 8.69127 4.55233 8.41317L4.08908 7.13191C3.95886 6.77176 4.15896 6.37897 4.53601 6.25459C4.61186 6.22957 4.69155 6.2168 4.77179 6.2168ZM7.31765 11.1358H17.683C18.0819 11.1358 18.4052 11.4447 18.4052 11.8257C18.4052 11.9084 18.3897 11.9904 18.3593 12.0679L17.8563 13.3492C17.7506 13.6184 17.4811 13.7968 17.18 13.7968H7.79385C7.48811 13.7968 7.21549 13.613 7.1132 13.3377L6.63699 12.0565C6.50353 11.6974 6.70009 11.303 7.07601 11.1755C7.15359 11.1492 7.23532 11.1358 7.31765 11.1358ZM10.5357 16.0702H14.4649C14.8638 16.0702 15.1872 16.3791 15.1872 16.7601C15.1872 16.8272 15.1769 16.894 15.1567 16.9583L14.7545 18.2395C14.6628 18.5314 14.3816 18.7313 14.0626 18.7313H10.9816C10.6705 18.7313 10.3943 18.541 10.2962 18.259L9.85029 16.9777C9.72446 16.6161 9.92933 16.2256 10.3079 16.1054C10.3813 16.0821 10.4583 16.0702 10.5357 16.0702Z" fill="#525C69"/>
</svg>
