<svg width="25" height="24" viewBox="0 0 25 24" fill="none" xmlns="http://www.w3.org/2000/svg">
<path fill-rule="evenodd" clip-rule="evenodd" d="M5.5 6C5.5 5.44772 5.94772 5 6.5 5H8.5C9.05228 5 9.5 5.44772 9.5 6V8C9.5 8.55228 9.05228 9 8.5 9H6.5C5.94772 9 5.5 8.55228 5.5 8V6ZM10.5 6C10.5 5.44772 10.9477 5 11.5 5H13.5C14.0523 5 14.5 5.44772 14.5 6V8C14.5 8.55228 14.0523 9 13.5 9H11.5C10.9477 9 10.5 8.55228 10.5 8V6ZM11.5 10C10.9477 10 10.5 10.4477 10.5 11V13C10.5 13.5523 10.9477 14 11.5 14H13.5C14.0523 14 14.5 13.5523 14.5 13V11C14.5 10.4477 14.0523 10 13.5 10H11.5ZM5.5 11C5.5 10.4477 5.94772 10 6.5 10H8.5C9.05228 10 9.5 10.4477 9.5 11V13C9.5 13.5523 9.05228 14 8.5 14H6.5C5.94772 14 5.5 13.5523 5.5 13V11ZM16.5 10C15.9477 10 15.5 10.4477 15.5 11V13C15.5 13.5523 15.9477 14 16.5 14H18.5C19.0523 14 19.5 13.5523 19.5 13V11C19.5 10.4477 19.0523 10 18.5 10H16.5ZM15.5 16C15.5 15.4477 15.9477 15 16.5 15H18.5C19.0523 15 19.5 15.4477 19.5 16V18C19.5 18.5523 19.0523 19 18.5 19H16.5C15.9477 19 15.5 18.5523 15.5 18V16ZM11.5 15C10.9477 15 10.5 15.4477 10.5 16V18C10.5 18.5523 10.9477 19 11.5 19H13.5C14.0523 19 14.5 18.5523 14.5 18V16C14.5 15.4477 14.0523 15 13.5 15H11.5Z" fill="#525C69"/>
</svg>
