<svg width="24" height="24" viewBox="0 0 24 24" fill="none" xmlns="http://www.w3.org/2000/svg">
<path fill-rule="evenodd" clip-rule="evenodd" d="M7.82036 5.00586H16.1796C17.7187 5.00586 18.9661 6.34796 18.9661 8.00394V15.9971C18.9661 17.653 17.7187 18.9951 16.1796 18.9951H7.82036C6.28127 18.9951 5.03394 17.653 5.03394 15.9971V8.00394C5.03394 6.34796 6.28127 5.00586 7.82036 5.00586ZM7.95265 7.00488C7.46733 7.00488 7.07349 7.42432 7.07349 7.94124V10.9036H11.2428V9.49188C11.242 9.36153 11.3132 9.24139 11.428 9.17952C11.5409 9.11987 11.6782 9.13131 11.7796 9.20883L14.2292 11.7177C14.3167 11.7854 14.3677 11.89 14.3671 12.0007C14.3675 12.1112 14.3165 12.2155 14.2292 12.2831L11.7796 14.7919C11.6774 14.8698 11.5409 14.882 11.428 14.8219C11.3143 14.7619 11.2428 14.6411 11.2428 14.5096V13.0979H7.07349V16.0285C7.07349 16.5454 7.46733 16.9648 7.95265 16.9648H16.2094C16.6947 16.9648 17.0886 16.5454 17.0886 16.0285V7.94124C17.0886 7.42432 16.6947 7.00488 16.2094 7.00488H7.95265Z" fill="#525C69"/>
</svg>
