<svg width="24" height="24" viewBox="0 0 24 24" fill="none" xmlns="http://www.w3.org/2000/svg">
<path fill-rule="evenodd" clip-rule="evenodd" d="M9.01071 5.9668C9.01071 5.41451 9.45842 4.9668 10.0107 4.9668H18.1108C18.6631 4.9668 19.1108 5.41451 19.1108 5.9668V14.0669C19.1108 14.6192 18.6631 15.0669 18.1108 15.0669H16.6309V17.545C16.6309 18.3201 16.0026 18.9484 15.2276 18.9484H6.38063C5.60559 18.9484 4.97729 18.3201 4.97729 17.545V8.69808C4.97729 7.92303 5.60559 7.29474 6.38063 7.29474H9.01071V5.9668ZM9.01071 9.29864H6.98218V16.9428H14.6254V15.0669H10.0107C9.45842 15.0669 9.01071 14.6192 9.01071 14.0669V11.1009H13.4446V13.0512L16.2879 10.2078L13.4446 7.36447V9.30005H9.01071V9.29864Z" fill="#525C69"/>
</svg>
