<svg width="25" height="24" viewBox="0 0 25 24" fill="none" xmlns="http://www.w3.org/2000/svg">
<path fill-rule="evenodd" clip-rule="evenodd" d="M7 4C6.44772 4 6 4.44772 6 5V19C6 19.5523 6.44772 20 7 20H18C18.5523 20 19 19.5523 19 19V5C19 4.44772 18.5523 4 18 4H7ZM17.3015 5.7H7.69876V18.3H17.3015V5.7ZM8.9209 10.4065C8.9209 8.42967 10.5235 6.82715 12.5004 6.82715C14.4772 6.82715 16.0798 8.42967 16.0798 10.4065C16.0798 12.3835 14.4772 13.986 12.5004 13.986C10.5235 13.986 8.9209 12.3835 8.9209 10.4065ZM12.7734 12.884V12.2646C13.4718 12.1432 13.8544 11.6817 13.8544 11.1412C13.8544 10.5946 13.5628 10.2607 12.8403 10.0056C12.324 9.81128 12.1115 9.68377 12.1115 9.48331C12.1115 9.31334 12.239 9.14327 12.6338 9.14327C13.0317 9.14327 13.2988 9.25905 13.4627 9.33009C13.4789 9.33711 13.4941 9.34368 13.5083 9.34967L13.6843 8.66354C13.4839 8.56633 13.2106 8.4813 12.8038 8.46318V7.92871H12.2087V8.50565C11.5588 8.63325 11.1824 9.05219 11.1824 9.58656C11.1824 10.1757 11.6257 10.4793 12.2755 10.6979C12.7249 10.8497 12.9191 10.9954 12.9191 11.2262C12.9191 11.4691 12.6823 11.6027 12.3362 11.6027C11.9414 11.6027 11.5832 11.4753 11.3281 11.3355L11.146 12.046C11.3768 12.1796 11.7714 12.2889 12.1783 12.3071V12.884H12.7734ZM15.4418 15.2002H9.55724C9.39868 15.2002 9.26904 15.3268 9.26904 15.4844V16.5115C9.26904 16.6681 9.39868 16.7967 9.55724 16.7967H15.4418C15.6014 16.7967 15.731 16.6681 15.731 16.5115V15.4844C15.731 15.3268 15.6014 15.2002 15.4418 15.2002Z" fill="#525C69"/>
</svg>
