<svg width="24" height="24" viewBox="0 0 24 24" fill="none" xmlns="http://www.w3.org/2000/svg">
<path fill-rule="evenodd" clip-rule="evenodd" d="M12.1281 21.0407L5.37236 17.1411C5.15282 17.0144 5.01758 16.7801 5.01758 16.5266V8.72583C5.01758 8.47239 5.15278 8.23819 5.37226 8.11145L12.128 4.21031C12.3476 4.08354 12.6181 4.08354 12.8376 4.21031L19.5934 8.11145C19.8128 8.23819 19.948 8.47239 19.948 8.72583V16.5266C19.948 16.7801 19.8128 17.0144 19.5933 17.1411L12.8375 21.0407C12.618 21.1674 12.3476 21.1674 12.1281 21.0407ZM13.4585 18.4293L17.9972 15.8094V10.5674L13.4585 13.1883V18.4293ZM11.5075 18.4301V13.1892L6.96875 10.5693V15.8102L11.5075 18.4301ZM12.4831 6.25879L7.94434 8.87968L12.483 11.4995L17.0208 8.87913L12.4831 6.25879Z" fill="#525C69"/>
</svg>
