<svg width="25" height="24" viewBox="0 0 25 24" fill="none" xmlns="http://www.w3.org/2000/svg">
<path fill-rule="evenodd" clip-rule="evenodd" d="M14.4144 10.5887C14.3581 10.5291 14.2906 10.4809 14.2134 10.4451C14.1378 10.4105 14.0578 10.3917 13.9755 10.3917C13.892 10.3917 13.8142 10.4099 13.737 10.4451C13.6592 10.4809 13.5939 10.528 13.5366 10.5887C13.4798 10.6489 13.4344 10.7193 13.4009 10.7971C13.3668 10.8755 13.3503 10.9538 13.3503 11.0373C13.3503 11.1208 13.3674 11.202 13.4009 11.2809C13.4338 11.3598 13.4798 11.4296 13.536 11.4887C13.5933 11.5477 13.6592 11.5943 13.7364 11.6295C13.8914 11.6999 14.0606 11.6993 14.2134 11.6295C14.2912 11.5943 14.3587 11.5466 14.4149 11.4887C14.4711 11.4302 14.5166 11.3598 14.5501 11.2809C14.583 11.202 14.6 11.1202 14.6 11.0373C14.6 10.9544 14.5836 10.8755 14.5501 10.7971C14.5166 10.7193 14.4706 10.6489 14.4144 10.5887ZM21.1453 17.8739H8.60962V16.0922H17.6585C17.8845 16.0922 18.1837 15.7935 18.1837 15.567V9.86523H21.1453V17.8739ZM7.90976 13.895C7.38172 13.8779 6.97291 13.8745 6.56523 13.849C6.08772 13.8183 5.60964 13.7769 5.15087 13.6315C5.06343 13.6048 4.9811 13.5634 4.89764 13.5259C4.82496 13.493 4.78976 13.4402 4.80168 13.3579C4.83518 13.1336 4.84824 12.9053 4.90047 12.6856C4.97258 12.3801 5.17245 12.178 5.4853 12.0695C5.89524 11.9287 6.29951 11.7726 6.70378 11.6176C6.94565 11.525 7.09839 11.3144 7.09214 11.0952C7.09158 11.06 7.07568 11.0174 7.05183 10.9919C6.75715 10.6773 6.57148 10.3139 6.50902 9.8932C6.45508 9.52924 6.45168 9.16416 6.56978 8.80929C6.7157 8.36868 7.02458 8.10296 7.49982 8.01836C7.79223 7.96555 8.07783 7.98202 8.35434 8.08422C8.75634 8.23298 8.97153 8.53448 9.06862 8.92568C9.14243 9.22434 9.13903 9.52357 9.10325 9.82733C9.05726 10.2061 8.91759 10.5445 8.67798 10.8448C8.64789 10.8834 8.6195 10.9254 8.58259 10.9561C8.51673 11.0112 8.50083 11.0748 8.52808 11.1503C8.55988 11.2389 8.59281 11.3269 8.63029 11.4126C8.66549 11.4915 8.72738 11.5466 8.81084 11.5778C9.19524 11.7232 9.57906 11.8674 9.96232 12.015C10.0986 12.0673 10.2394 12.115 10.3637 12.1882C10.575 12.3131 10.6766 12.5198 10.7209 12.7458C10.7629 12.9587 10.776 13.1767 10.8038 13.3919C10.8095 13.4396 10.7879 13.4663 10.7493 13.493C10.5931 13.5992 10.4137 13.6548 10.2315 13.6883C9.93052 13.7428 9.62732 13.795 9.32356 13.8189C8.81425 13.8592 8.30267 13.8751 7.90976 13.895ZM11.4976 9.78361C11.6356 9.46792 11.8184 9.29361 12.0495 9.07161L12.1097 9.01369C12.3686 8.76443 12.6758 8.56571 13.0238 8.42319C13.3719 8.28011 13.754 8.208 14.1594 8.208C14.5336 8.208 14.8868 8.27102 15.2087 8.39537C15.5323 8.51971 15.8168 8.69346 16.0547 8.91035C16.2926 9.12839 16.4828 9.38786 16.6197 9.68141C16.7559 9.97666 16.8252 10.2946 16.8252 10.6285C16.8252 10.9101 16.7894 11.1713 16.7179 11.4047C16.6458 11.6403 16.5413 11.8458 16.4084 12.0162C16.2744 12.1871 16.1109 12.3222 15.9218 12.417C15.7333 12.5113 15.5187 12.559 15.2836 12.559C15.1502 12.559 15.0287 12.5238 14.9225 12.4545C14.8357 12.3983 14.7573 12.3245 14.6892 12.2342C14.5501 12.3642 14.4138 12.4483 14.2843 12.4852C13.9721 12.5749 13.7052 12.5669 13.4099 12.4346C13.2481 12.3619 13.0982 12.258 12.9642 12.1269C12.8302 11.9952 12.7178 11.8362 12.6298 11.655C12.5401 11.4711 12.4947 11.2655 12.4947 11.0441C12.4947 10.8278 12.5372 10.6262 12.6224 10.4445C12.7076 10.2628 12.8194 10.1056 12.9557 9.9778C13.0908 9.84834 13.2493 9.74784 13.4264 9.67687C13.6024 9.6059 13.7858 9.57013 13.9686 9.57013C14.1713 9.57013 14.3525 9.60987 14.5058 9.68879C14.612 9.7433 14.6994 9.81144 14.7675 9.89093L14.8135 9.63145H15.5516L15.5443 9.69504L15.3404 11.3916C15.3268 11.4966 15.32 11.6039 15.32 11.7124C15.32 11.7442 15.3268 11.7675 15.341 11.7839C15.3558 11.8027 15.3688 11.8055 15.379 11.8055C15.471 11.8055 15.5545 11.7754 15.634 11.7147C15.7163 11.6516 15.789 11.5659 15.8509 11.4586C15.9139 11.3501 15.9633 11.2241 15.9985 11.085C16.0337 10.9464 16.0513 10.8 16.0513 10.6489C16.0513 10.3997 16.0025 10.1697 15.9065 9.96417C15.8106 9.7592 15.6771 9.58262 15.5091 9.43897C15.3404 9.29418 15.1389 9.18062 14.9112 9.1017C14.6812 9.02221 14.4303 8.9819 14.1662 8.9819C13.8608 8.9819 13.5757 9.0347 13.3185 9.13804C13.0613 9.24138 12.8359 9.38389 12.6491 9.56218C12.4623 9.73989 12.3141 9.95509 12.2079 10.2009C12.1029 10.4485 12.0489 10.7159 12.0489 10.9964C12.0489 11.3132 12.1074 11.6011 12.2216 11.8526C12.3362 12.1025 12.4924 12.316 12.6871 12.4869C12.883 12.6583 13.1147 12.7906 13.377 12.8809C13.6399 12.9718 13.9238 13.0177 14.2207 13.0177C14.3979 13.0177 14.554 13.0121 14.6863 13.0007C14.8181 12.9899 14.9441 12.9689 15.0616 12.9383C15.1803 12.9065 15.2933 12.8639 15.3978 12.8122C15.5062 12.7594 15.6272 12.6896 15.7566 12.6044L15.8077 12.5709L16.2131 13.3005L16.1671 13.3295C15.8872 13.5038 15.5897 13.6349 15.2842 13.7212C14.9907 13.8019 14.6057 13.8484 14.2276 13.8484C13.7535 13.8484 13.2981 13.7701 12.9466 13.627C12.5849 13.4794 12.2732 13.2755 12.0189 13.0212C11.735 12.7378 11.5402 12.35 11.4267 12.0741C11.2887 11.7379 11.2188 11.3757 11.2188 10.9964C11.2188 10.57 11.3693 10.0766 11.4976 9.78361ZM21.7122 8.77011L18.1839 8.7843V6.53302C18.1839 6.30647 17.8847 6.00781 17.6587 6.00781H4.21742C3.99088 6.00781 3.69165 6.30647 3.69165 6.53302V15.5666C3.69165 15.7931 3.99088 16.0918 4.21742 16.0918H7.57476V18.3856C7.57476 18.6127 7.87342 18.9114 8.10054 18.9114L21.7122 18.8552C21.9387 18.8552 22.2374 18.669 22.2374 18.3294V9.29588C22.2374 9.18233 21.9387 8.77011 21.7122 8.77011Z" fill="#525C69"/>
</svg>
