<svg width="24" height="24" viewBox="0 0 24 24" fill="none" xmlns="http://www.w3.org/2000/svg">
<path fill-rule="evenodd" clip-rule="evenodd" d="M18.7213 5C19.4146 5 19.9767 5.56207 19.9767 6.25542V18.7213C19.9767 19.4146 19.4146 19.9767 18.7213 19.9767H6.25542C5.56207 19.9767 5 19.4146 5 18.7213V6.25542C5 5.56207 5.56207 5 6.25542 5H18.7213ZM17.4769 6.87208H7.49979C7.17788 6.87208 6.91257 7.11441 6.87631 7.42659L6.87208 7.49979V17.4769C6.87208 17.7988 7.11441 18.0641 7.42659 18.1004L7.49979 18.1046H17.4769C17.7988 18.1046 18.0641 17.8623 18.1004 17.5501L18.1046 17.4769V7.49979C18.1046 7.15312 17.8236 6.87208 17.4769 6.87208ZM12.2694 9.89364C12.3282 10.2833 12.3282 10.6793 12.2694 11.069L12.291 11.0689C12.3573 11.0734 12.5457 11.1246 12.4103 11.5787L12.362 11.7295C12.3206 11.8508 12.2139 12.1043 12.0681 12.0249L12.0679 12.1286C12.0611 12.3003 12.0193 12.6317 11.8005 12.7039L11.8218 13.034L12.0712 13.0713L12.0708 13.112C12.071 13.1858 12.076 13.3361 12.1134 13.357C12.3409 13.504 12.5902 13.6153 12.8525 13.6871C13.5813 13.8721 13.9724 14.1817 14.0159 14.4637L14.02 14.5162L14.2279 15.5754C13.3356 15.9493 12.3007 16.1736 11.1939 16.1988L10.7764 16.1988C9.6719 16.1737 8.63903 15.9504 7.74805 15.5779L7.79281 15.2778C7.8248 15.0769 7.86058 14.8822 7.89715 14.7396C8.0076 14.309 8.59693 13.9823 9.17258 13.727L9.28738 13.6769C9.60299 13.5411 9.67134 13.4596 9.98892 13.3206C10.0008 13.2643 10.0079 13.2071 10.0103 13.1496L10.0102 13.0634L10.2803 13.0313C10.2803 13.0313 10.3159 13.0959 10.2589 12.7165L10.2308 12.7053C10.1552 12.6685 9.95271 12.5246 9.94128 12.0337L9.9142 12.039C9.85886 12.0453 9.73549 12.0336 9.70539 11.8153L9.69932 11.7435C9.69039 11.5147 9.52399 11.3135 9.71849 11.1438L9.77494 11.1021L9.63248 10.7222L9.62215 10.5706C9.6048 10.1989 9.61397 9.2791 10.1394 9.37411C9.87293 8.95195 12.1202 8.60104 12.2694 9.89364ZM16.2258 12.4844C16.5729 12.4844 16.8543 12.7658 16.8543 13.1129V13.7304C16.8543 14.0775 16.5729 14.3589 16.2258 14.3589L14.8555 14.3587C14.6815 13.7924 14.1789 13.328 13.5168 13.0992L13.5156 13.1129C13.5156 12.7658 13.797 12.4844 14.1442 12.4844H16.2258ZM16.2258 9.71094C16.5729 9.71094 16.8543 9.99234 16.8543 10.3395V10.9569C16.8543 11.3041 16.5729 11.5855 16.2258 11.5855H14.1442C13.797 11.5855 13.5156 11.3041 13.5156 10.9569V10.3395C13.5156 9.99234 13.797 9.71094 14.1442 9.71094H16.2258Z" fill="#525C69"/>
</svg>
