<svg width="24" height="24" viewBox="0 0 24 24" fill="none" xmlns="http://www.w3.org/2000/svg">
<path fill-rule="evenodd" clip-rule="evenodd" d="M19.1351 16.6929C19.7697 16.6929 20.2842 16.1784 20.2842 15.5438V12.6712C20.2842 12.4563 20.2252 12.2553 20.1227 12.0832C20.0324 11.8072 19.9051 11.543 19.7431 11.2983L18.1503 8.89282C17.6538 8.14287 16.8143 7.69187 15.9148 7.69187H13.9511L13.9511 6.51646C13.9511 5.67031 13.2652 4.98438 12.419 4.98438H5.3463C4.50015 4.98438 3.81421 5.67031 3.81421 6.51646V12.5754L3.81814 12.5754C3.81554 12.607 3.81421 12.6389 3.81421 12.6712V15.5438C3.81421 16.1784 4.32866 16.6929 4.96328 16.6929L5.46536 16.6929C5.46121 16.6353 5.4591 16.5771 5.4591 16.5184C5.4591 15.1963 6.53088 14.1245 7.85299 14.1245C9.1751 14.1245 10.2469 15.1963 10.2469 16.5184C10.2469 16.5771 10.2448 16.6353 10.2406 16.6929H13.5875C13.5834 16.6353 13.5813 16.5771 13.5813 16.5184C13.5813 15.1963 14.6531 14.1245 15.9752 14.1245C17.2973 14.1245 18.3691 15.1963 18.3691 16.5184C18.3691 16.5771 18.367 16.6353 18.3628 16.6929L19.1351 16.6929ZM7.85293 14.969C8.70849 14.969 9.40206 15.6626 9.40206 16.5182C9.40206 17.3737 8.70849 18.0673 7.85293 18.0673C6.99737 18.0673 6.30379 17.3737 6.30379 16.5182C6.30379 15.6626 6.99737 14.969 7.85293 14.969ZM15.9751 14.969C16.8306 14.969 17.5242 15.6626 17.5242 16.5182C17.5242 17.3737 16.8306 18.0673 15.9751 18.0673C15.1195 18.0673 14.4259 17.3737 14.4259 16.5182C14.4259 15.6626 15.1195 14.969 15.9751 14.969ZM16.0878 8.84108H14.7304V11.5222H18.4849L17.0449 9.35433C16.832 9.03375 16.4727 8.84108 16.0878 8.84108ZM5.48964 9.43037C5.48964 7.60228 6.97165 6.12035 8.79974 6.12035C10.6278 6.12035 12.1098 7.60228 12.1098 9.43037C12.1098 11.2585 10.6278 12.7405 8.79974 12.7405C6.97165 12.7405 5.48964 11.2585 5.48964 9.43037ZM8.39265 6.81269H9.21899V7.3595C9.58707 7.38757 9.84739 7.47052 10.0457 7.56673L10.1283 7.60684L9.8952 8.5157L9.77501 8.46502C9.76034 8.45883 9.74484 8.45213 9.72848 8.44504L9.72843 8.44502C9.56433 8.374 9.313 8.26522 8.93475 8.26522C8.74936 8.26522 8.64565 8.30542 8.59056 8.34866C8.53891 8.38921 8.51925 8.44071 8.51925 8.49651C8.51925 8.5467 8.54091 8.59957 8.64333 8.67027C8.74947 8.74354 8.92132 8.82065 9.18201 8.91881C9.55464 9.05049 9.83099 9.2073 10.0139 9.4132C10.2004 9.62307 10.281 9.87378 10.281 10.1723C10.281 10.7564 9.88161 11.2453 9.18827 11.4002V12.0463H8.36193V11.4563C7.97559 11.4247 7.60594 11.3181 7.37456 11.1841L7.30084 11.1414L7.54207 10.2005L7.66906 10.2701C7.91464 10.4047 8.25823 10.5263 8.63396 10.5263C8.79672 10.5263 8.92085 10.4946 9.00033 10.4451C9.07493 10.3987 9.1107 10.3376 9.1107 10.2582C9.1107 10.181 9.08149 10.1163 8.99772 10.0489C8.90796 9.97668 8.76106 9.90654 8.53662 9.83069C8.20303 9.71848 7.90918 9.58043 7.6977 9.38568C7.48171 9.18676 7.3553 8.93169 7.3553 8.60087C7.3553 8.0219 7.74909 7.57577 8.39265 7.41797V6.81269Z" fill="#525C69"/>
</svg>
