<svg width="25" height="24" viewBox="0 0 25 24" fill="none" xmlns="http://www.w3.org/2000/svg">
<path fill-rule="evenodd" clip-rule="evenodd" d="M4.5 6C4.5 4.89543 5.39543 4 6.5 4H15.5C16.6046 4 17.5 4.89543 17.5 6V15C17.5 16.1046 16.6046 17 15.5 17H6.5C5.39543 17 4.5 16.1046 4.5 15V6ZM11.6949 7.10059H9.99712V9.67647H7.42114V11.3742H9.99712V13.9503H11.6949V11.3742H14.2709V9.67647H11.6949V7.10059Z" fill="#525C69"/>
<path d="M9.5 20C8.5588 20 7.76944 19.3499 7.55654 18.4742H16.9726C18.0772 18.4742 18.9726 17.5787 18.9726 16.4742V7.05617C19.8491 7.26853 20.5 8.05826 20.5 9V18C20.5 19.1046 19.6046 20 18.5 20H9.5Z" fill="#525C69"/>
</svg>
