<svg width="24" height="24" viewBox="0 0 24 24" fill="none" xmlns="http://www.w3.org/2000/svg">
<path fill-rule="evenodd" clip-rule="evenodd" d="M6.24993 4.02246H17.2576C17.9331 4.02246 18.4807 4.57005 18.4807 5.24554V18.6994C18.4807 19.3749 17.9331 19.9225 17.2576 19.9225H6.24993C5.57445 19.9225 5.02686 19.3749 5.02686 18.6994V5.24554C5.02686 4.57005 5.57445 4.02246 6.24993 4.02246ZM6.54431 5.7334V18.2107H16.9636V5.7334H6.54431ZM8.50176 7.57227H15.4106C15.7286 7.57227 15.9864 7.84809 15.9864 8.18834C15.9864 8.52859 15.7286 8.80441 15.4106 8.80441H8.50176C8.18379 8.80441 7.92603 8.52859 7.92603 8.18834C7.92603 7.84809 8.18379 7.57227 8.50176 7.57227ZM8.50152 10.0371H13.1074C13.4254 10.0371 13.6832 10.3129 13.6832 10.6532C13.6832 10.9934 13.4254 11.2693 13.1074 11.2693H8.50152C8.18355 11.2693 7.92578 10.9934 7.92578 10.6532C7.92578 10.3129 8.18355 10.0371 8.50152 10.0371ZM8.50152 12.5011H13.1074C13.4254 12.5011 13.6832 12.7769 13.6832 13.1172C13.6832 13.4574 13.4254 13.7333 13.1074 13.7333H8.50152C8.18355 13.7333 7.92578 13.4574 7.92578 13.1172C7.92578 12.7769 8.18355 12.5011 8.50152 12.5011ZM8.50152 14.9658H13.1074C13.4254 14.9658 13.6832 15.2416 13.6832 15.5819C13.6832 15.9221 13.4254 16.198 13.1074 16.198H8.50152C8.18355 16.198 7.92578 15.9221 7.92578 15.5819C7.92578 15.2416 8.18355 14.9658 8.50152 14.9658Z" fill="#525C69"/>
</svg>
