<svg width="24" height="24" viewBox="0 0 24 24" fill="none" xmlns="http://www.w3.org/2000/svg">
<path fill-rule="evenodd" clip-rule="evenodd" d="M14.9444 17.0467C14.9204 17.0987 14.8879 17.1479 14.847 17.1923L14.697 17.355L14.4185 17.7021C14.3694 17.7625 14.3104 17.8101 14.2457 17.8445L14.1493 17.9491C13.9386 18.1776 13.5826 18.192 13.3542 17.9813L9.77863 14.6845C9.55018 14.4738 9.53573 14.1178 9.74642 13.8894L10.2975 13.2793C10.5082 13.0509 10.8641 13.0364 11.0926 13.2471L13.5357 15.3147L18.8554 9.11921C19.0512 8.87808 19.4056 8.84134 19.6469 9.03734L20.2503 9.53963C20.4915 9.73557 20.5281 10.09 20.3323 10.3312L14.9444 17.0467ZM15.0748 8.05769C15.413 8.05769 15.6871 8.33182 15.6871 8.67V8.68917C15.6871 9.02729 15.413 9.30143 15.0748 9.30143H10.5015C10.1634 9.30143 9.88923 9.02729 9.88923 8.68917V8.67C9.88923 8.33182 10.1634 8.05769 10.5015 8.05769H15.0748ZM8.66463 8.05769C9.00281 8.05769 9.27694 8.33182 9.27694 8.67C9.27694 9.00819 9.00281 9.28232 8.66463 9.28232H8.30109C7.96291 9.28232 7.68872 9.00819 7.68872 8.67C7.68872 8.33182 7.96291 8.05769 8.30109 8.05769H8.66463ZM15.0748 10.507C15.413 10.507 15.6871 10.7811 15.6871 11.1193V11.1384C15.6871 11.4766 15.413 11.7507 15.0748 11.7507H10.5015C10.1634 11.7507 9.88923 11.4766 9.88923 11.1384V11.1193C9.88923 10.7811 10.1634 10.507 10.5015 10.507H15.0748ZM8.66463 10.507C9.00281 10.507 9.27694 10.7811 9.27694 11.1193C9.27694 11.4575 9.00281 11.7316 8.66463 11.7316H8.30109C7.96291 11.7316 7.68872 11.4575 7.68872 11.1193C7.68872 10.7811 7.96291 10.507 8.30109 10.507H8.66463ZM16.8596 17.5296L18.4617 15.9966V19.6917C18.4617 20.3681 17.9134 20.9163 17.2371 20.9163H6.21536C5.53899 20.9163 4.99072 20.3681 4.99072 19.6917V6.22073C4.99072 5.54436 5.53899 4.99609 6.21536 4.99609H17.2371C17.9134 4.99609 18.4617 5.54436 18.4617 6.22073V7.20674L16.8596 8.73974V6.72521H6.73241V19.2589H16.8596V17.5296Z" fill="#525C69"/>
</svg>
