<svg width="24" height="24" viewBox="0 0 24 24" fill="none" xmlns="http://www.w3.org/2000/svg">
<path d="M14.2685 7.22699C14.6077 7.22699 14.8827 7.50474 14.8827 7.84739V7.86681C14.8827 8.20939 14.6077 8.48714 14.2685 8.48714H10.8323C10.4931 8.48714 10.2181 8.20939 10.2181 7.86681V7.84739C10.2181 7.50474 10.4931 7.22699 10.8323 7.22699H14.2685Z" fill="#525C69"/>
<path d="M8.98977 7.22699C9.32898 7.22699 9.60394 7.50474 9.60394 7.84739C9.60394 8.19003 9.32898 8.46778 8.98977 8.46778H8.62513C8.28592 8.46778 8.01089 8.19003 8.01089 7.84739C8.01089 7.50474 8.28592 7.22699 8.62513 7.22699H8.98977Z" fill="#525C69"/>
<path d="M16.2893 5.76685V9.06293C16.714 9.1272 17.4594 9.23394 17.8522 9.37874V5.36579C17.8522 4.6805 17.3022 4.125 16.6238 4.125H6.4095C5.73108 4.125 5.18115 4.6805 5.18115 5.36579V18.552C5.18115 19.2373 5.73108 19.7928 6.4095 19.7928H10.8564C10.5089 19.4185 10.2053 18.7487 9.954 18.2986H6.72266V5.76685H16.2893Z" fill="#525C69"/>
<path d="M12.5689 9.70858C11.9464 10.0347 11.3842 10.462 10.9034 10.9687H10.8323C10.4931 10.9687 10.2181 10.691 10.2181 10.3484V10.329C10.2181 9.98633 10.4931 9.70858 10.8323 9.70858H12.5689Z" fill="#525C69"/>
<path d="M8.98977 9.70858C9.32898 9.70858 9.60394 9.98633 9.60394 10.329C9.60394 10.6716 9.32898 10.9494 8.98977 10.9494H8.62513C8.28592 10.9494 8.01089 10.6716 8.01089 10.329C8.01089 9.98633 8.28592 9.70858 8.62513 9.70858H8.98977Z" fill="#525C69"/>
<path fill-rule="evenodd" clip-rule="evenodd" d="M18.0002 12.6681C18.1894 12.8716 18.3553 13.0998 18.4957 13.3479L19.4484 13.2377C19.6514 13.2138 19.8412 13.342 19.8979 13.5405L20.054 14.0906C20.1104 14.2892 20.0167 14.4995 19.832 14.5879L18.9837 14.9963C18.9731 15.0013 18.9666 15.0123 18.967 15.0241C18.9792 15.3825 18.9375 15.7348 18.8483 16.0722C18.8453 16.0836 18.8492 16.0957 18.8584 16.103L19.6123 16.7088C19.7732 16.8368 19.8171 17.0632 19.7183 17.2434L19.4435 17.7441C19.3445 17.925 19.1306 18.0065 18.9387 17.9372L18.0287 17.611C18.0177 17.6071 18.0055 17.6101 17.9975 17.6187C17.7625 17.8715 17.4911 18.0914 17.1863 18.2696C17.1762 18.2755 17.1705 18.2869 17.1718 18.2986L17.2794 19.247C17.303 19.4518 17.1762 19.6438 16.9796 19.7008L16.4346 19.8586C16.2384 19.9154 16.0296 19.8206 15.9429 19.6341L15.5278 18.7549C15.1006 18.7715 14.6813 18.7135 14.2873 18.5838C14.2762 18.5801 14.2641 18.5834 14.2563 18.5921L13.6224 19.3067C13.4865 19.4603 13.2603 19.4925 13.0869 19.3816L12.6088 19.0751C12.4361 18.9644 12.368 18.744 12.4477 18.5544L12.8138 17.6796C12.8184 17.6687 12.816 17.6561 12.8078 17.6475C12.6123 17.4422 12.4419 17.2101 12.297 16.9579C12.2912 16.9477 12.2799 16.9419 12.2683 16.9433L11.324 17.0523C11.1216 17.076 10.9313 16.948 10.8749 16.7494L10.7187 16.1993C10.6624 16.0007 10.7566 15.7902 10.9407 15.702L11.7987 15.289C11.8093 15.2839 11.8158 15.273 11.8154 15.2612C11.8042 14.9041 11.8453 14.5527 11.9342 14.2164C11.9373 14.205 11.9333 14.1929 11.9242 14.1856L11.1978 13.6024C11.0379 13.4745 10.993 13.2482 11.0919 13.0675L11.3664 12.5668C11.4657 12.3863 11.6795 12.3049 11.8715 12.3738L12.7442 12.6862C12.7553 12.6901 12.7675 12.6871 12.7755 12.6784C13.0124 12.4217 13.2871 12.1983 13.5959 12.0177C13.606 12.0118 13.6117 12.0005 13.6104 11.9888L13.5033 11.04C13.479 10.8354 13.6063 10.6433 13.8026 10.5865L14.3475 10.4286C14.5442 10.3717 14.7524 10.4666 14.8398 10.6529L15.2458 11.5147C15.2508 11.5254 15.2617 11.532 15.2733 11.5316C15.7139 11.5166 16.1453 11.5827 16.5499 11.723L17.1874 11.004C17.3231 10.8501 17.5494 10.8186 17.7227 10.9292L18.201 11.2356C18.3738 11.3465 18.4423 11.5665 18.3623 11.7565L17.9946 12.6363C17.99 12.6472 17.9923 12.6596 18.0002 12.6681ZM13.5069 15.2557C13.6035 16.6549 15.0632 17.4725 16.2893 16.8138C16.9324 16.4683 17.3166 15.7682 17.2659 15.0342C17.1692 13.6346 15.7092 12.8174 14.4833 13.4763C13.9037 13.7878 13.4612 14.5941 13.5069 15.2557Z" fill="#525C69"/>
</svg>
