<svg width="24" height="24" viewBox="0 0 24 24" fill="none" xmlns="http://www.w3.org/2000/svg">
<path d="M17.3972 7.13604L16.5159 3.84375L6.60493 6.49939L6.7755 7.13604H17.3972Z" fill="#525C69"/>
<path d="M19.0216 9.04944C18.973 8.6516 18.7354 8.3074 18.3961 8.09929L5.03149 8.1003V16.236L5.03792 16.387C5.11446 17.2828 5.86572 17.9859 6.78141 17.9859H13.2963L13.628 17.5751C13.635 17.5664 13.6361 17.5543 13.6309 17.5444C13.5053 17.3073 13.4098 17.0526 13.3428 16.7862C13.3401 16.7754 13.3313 16.7673 13.3203 16.7655L12.4286 16.6165C12.2373 16.585 12.0965 16.4192 12.0965 16.2246V15.6857C12.0965 15.4911 12.2373 15.3253 12.4286 15.2937L13.3204 15.1448C13.3313 15.143 13.3401 15.1349 13.3428 15.1241C13.4252 14.7979 13.5541 14.4905 13.7227 14.2095C13.7284 14.1999 13.7279 14.1879 13.7215 14.1789L13.2086 13.4605C13.0957 13.3028 13.1133 13.0862 13.2506 12.9485L13.6316 12.5673C13.7693 12.4299 13.9859 12.4123 14.1436 12.525L14.8605 13.0366C14.8696 13.0431 14.8816 13.0435 14.8911 13.0378C15.1744 12.8675 15.4836 12.7373 15.8128 12.6548C15.8235 12.6521 15.8317 12.6433 15.8335 12.6324L15.9819 11.7455C16.0128 11.5539 16.1791 11.4134 16.3733 11.4134H16.9126C17.1072 11.4134 17.2729 11.5539 17.3045 11.7455L17.452 12.632C17.4539 12.643 17.4621 12.6518 17.4729 12.6545C17.8796 12.7565 18.2569 12.9295 18.5905 13.1625L19.0303 12.8861L19.0308 9.20099L19.0216 9.04944Z" fill="#525C69"/>
<path d="M17.0308 17.7026C15.7386 17.9775 14.6161 16.8546 14.891 15.5627C15.021 14.9518 15.6349 14.3379 16.2458 14.2079C17.5377 13.9329 18.6607 15.0555 18.3858 16.3477C18.2416 17.0255 17.7086 17.5585 17.0308 17.7026Z" fill="#525C69"/>
</svg>
