<svg width="24" height="24" viewBox="0 0 24 24" fill="none" xmlns="http://www.w3.org/2000/svg">
<path fill-rule="evenodd" clip-rule="evenodd" d="M16.8345 16.9598L12.5849 12.5025C12.4344 12.3852 12.3455 12.1985 12.3455 12.0001C12.3455 11.8017 12.4344 11.615 12.5849 11.4977L16.8345 7.04036C17.0125 6.9017 17.2487 6.88109 17.4455 6.98724C17.6423 7.09339 17.7664 7.30802 17.7664 7.54274V10.0502H20.1018C20.4254 10.0502 20.6876 10.3291 20.6876 10.673V13.3272C20.6876 13.6711 20.4253 13.9499 20.1018 13.9499H17.7664V16.4574C17.7664 16.6921 17.6423 16.9068 17.4455 17.0129C17.2487 17.119 17.0125 17.0984 16.8345 16.9598ZM7.26813 7.04042L11.5177 11.4977C11.6682 11.615 11.7571 11.8017 11.7571 12.0001C11.7571 12.1985 11.6682 12.3852 11.5177 12.5024L7.26813 16.9598C7.09013 17.0985 6.85389 17.1191 6.65707 17.0129C6.46025 16.9068 6.33618 16.6922 6.33618 16.4574V13.95H4.0008C3.67722 13.95 3.41504 13.6711 3.41504 13.3271V10.673C3.41504 10.329 3.6773 10.0502 4.0008 10.0502H6.33618V7.54279C6.33618 7.30808 6.46025 7.09336 6.65707 6.9873C6.85389 6.88115 7.09004 6.90176 7.26813 7.04042Z" fill="#525C69"/>
</svg>
