<svg width="24" height="24" viewBox="0 0 24 24" fill="none" xmlns="http://www.w3.org/2000/svg">
<path fill-rule="evenodd" clip-rule="evenodd" d="M12.6711 4.94531C9.14796 4.94531 6.20364 7.42308 5.48531 10.7311H2.85864L6.49313 14.3656C6.63914 14.5116 6.87807 14.5116 7.02409 14.3656L10.6586 10.7311H7.94416C8.60107 8.74929 10.469 7.31951 12.6711 7.31951C15.4211 7.31951 17.6504 9.54882 17.6504 12.2988C17.6504 15.0488 15.4211 17.2781 12.6711 17.2781C11.2669 17.2781 9.99869 16.6966 9.09348 15.7616L7.38823 17.4138C8.72499 18.7941 10.5978 19.6523 12.6711 19.6523C16.7324 19.6523 20.0246 16.36 20.0246 12.2988C20.0246 8.23758 16.7324 4.94531 12.6711 4.94531ZM13.0589 8.89453H12.2486C12.1332 8.89453 12.0388 8.98894 12.0388 9.10433V12.4611C12.0388 12.4674 12.0392 12.4735 12.0398 12.4796C12.0341 12.5399 12.0542 12.6021 12.1 12.6479L14.4736 15.0215C14.5552 15.1031 14.6887 15.1031 14.7703 15.0215L15.3433 14.4485C15.4249 14.3669 15.4249 14.2334 15.3433 14.1518L13.2687 12.0773V9.10433C13.2687 8.98894 13.1743 8.89453 13.0589 8.89453Z" fill="#525C69"/>
</svg>
