<svg width="24" height="24" viewBox="0 0 24 24" fill="none" xmlns="http://www.w3.org/2000/svg">
<path fill-rule="evenodd" clip-rule="evenodd" d="M9.76493 3.7168C9.21265 3.7168 8.76493 4.16451 8.76493 4.7168V8.70419C9.01597 8.67447 9.27143 8.65918 9.53046 8.65918C9.79333 8.65918 10.0525 8.67492 10.3071 8.70552V5.25794H15.78L18.0133 7.77046V15.2759H15.9702C15.956 15.8083 15.8772 16.3246 15.7414 16.8173H18.5536C19.1058 16.8173 19.5536 16.3695 19.5536 15.8173V7.56477C19.5536 7.31985 19.4637 7.08345 19.301 6.9004L16.7694 4.05243C16.5797 3.83894 16.3077 3.7168 16.022 3.7168H9.76493ZM11.8487 9.08889C11.868 9.09635 11.8873 9.1039 11.9066 9.11154H15.7018V7.57031H11.8487V9.08889ZM14.1896 10.6523C14.6244 11.1076 14.9932 11.6264 15.2805 12.1935H15.7019V10.6523H14.1896ZM14.8195 15.1015C14.8195 18.023 12.4511 20.3913 9.5296 20.3913C6.60809 20.3913 4.23975 18.023 4.23975 15.1015C4.23975 12.18 6.60809 9.81164 9.5296 9.81164C12.4511 9.81164 14.8195 12.18 14.8195 15.1015ZM12.3356 15.1014L9.25844 12.0243V14.0019H6.97326V16.3755H9.25844V18.1786L12.3356 15.1014Z" fill="#525C69"/>
</svg>
