<svg width="24" height="24" viewBox="0 0 24 24" fill="none" xmlns="http://www.w3.org/2000/svg">
<path fill-rule="evenodd" clip-rule="evenodd" d="M12.9413 5.82617H3.91817C3.41848 5.82617 3.01489 6.24425 3.01489 6.76187V17.0645C3.01489 17.5821 3.41848 18.0002 3.91817 18.0002H12.9413C13.441 18.0002 13.8446 17.5821 13.8446 17.0645V6.76187C13.8446 6.24425 13.441 5.82617 12.9413 5.82617ZM8.50993 16.3375C6.09923 16.3375 4.14771 14.3159 4.14771 11.8186C4.14771 9.32138 6.09923 7.2998 8.50993 7.2998C10.9206 7.2998 12.8722 9.32138 12.8722 11.8186C12.8722 14.3159 10.9206 16.3375 8.50993 16.3375ZM9.14558 11.8288C9.4819 11.57 9.71252 11.0922 9.71252 10.5546C9.71252 9.72845 9.18401 9.06151 8.52097 9.06151C7.86754 9.06151 7.32942 9.72845 7.32942 10.5546C7.32942 11.0922 7.56004 11.56 7.89637 11.8288C6.78169 11.9582 5.95529 12.4858 5.95529 13.9789C5.95529 14.2477 8.50175 14.2079 8.50175 14.2079C8.50175 14.2079 11.077 14.2278 11.077 13.9789C11.077 12.4858 10.2603 11.9482 9.14558 11.8288ZM17.071 9.30643H21.7724C22.2745 9.30643 22.6806 8.88583 22.6806 8.36562C22.6806 7.8454 22.2745 7.4248 21.7724 7.4248H17.071C16.5689 7.4248 16.1628 7.8454 16.1628 8.36562C16.1628 8.88583 16.5689 9.30643 17.071 9.30643ZM21.7724 10.5234H17.071C16.5689 10.5234 16.1628 10.944 16.1628 11.4642C16.1628 11.9845 16.5689 12.4051 17.071 12.4051H21.7724C22.2745 12.4051 22.6806 11.9845 22.6806 11.4642C22.6806 10.944 22.2745 10.5234 21.7724 10.5234ZM20.6341 13.5125H16.8868C16.4865 13.5125 16.1629 13.9331 16.1629 14.4533C16.1629 14.9735 16.4865 15.3941 16.8868 15.3941H20.6341C21.0343 15.3941 21.358 14.9735 21.358 14.4533C21.358 13.9331 21.0343 13.5125 20.6341 13.5125Z" fill="#525C69"/>
</svg>
