<svg width="24" height="24" viewBox="0 0 24 24" fill="none" xmlns="http://www.w3.org/2000/svg">
<path fill-rule="evenodd" clip-rule="evenodd" d="M8.13285 6.45822C6.32179 6.45822 5.89664 7.39672 5.89664 7.73241V8.65702H10.1487V7.73241C10.1487 7.49795 10.053 7.19647 9.7843 6.94898C9.5206 6.7061 9.02611 6.45822 8.13285 6.45822ZM4.42182 10.9016V9.91426C4.06423 10.1524 3.82861 10.5593 3.82861 11.0211C3.82861 11.7551 4.4236 12.3501 5.15756 12.3501C5.89152 12.3501 6.48651 11.7551 6.48651 11.0211C6.48651 10.5607 6.25236 10.155 5.89664 9.91649V10.9016C5.89664 11.3088 5.56649 11.639 5.15923 11.639C4.75197 11.639 4.42182 11.3088 4.42182 10.9016ZM4.42182 7.73241V8.65702H2.78434C2.62123 8.65702 2.48901 8.78924 2.48901 8.95235V15.635C2.48901 17.266 3.81121 18.5882 5.44223 18.5882H10.6027C12.2337 18.5882 13.5559 17.266 13.5559 15.635V8.95235C13.5559 8.78924 13.4237 8.65702 13.2606 8.65702H11.6236V7.73241C11.6236 7.11341 11.3751 6.40909 10.7834 5.86415C10.1867 5.31459 9.30457 4.9834 8.13285 4.9834C5.81395 4.9834 4.42182 6.30613 4.42182 7.73241ZM10.1487 10.9016V9.91625C9.79283 10.1547 9.55853 10.5606 9.55853 11.0211C9.55853 11.7551 10.1535 12.3501 10.8875 12.3501C11.6214 12.3501 12.2164 11.7551 12.2164 11.0211C12.2164 10.5594 11.981 10.1527 11.6236 9.91449V10.9016C11.6236 11.3088 11.2934 11.639 10.8862 11.639C10.4789 11.639 10.1487 11.3088 10.1487 10.9016ZM16.4637 8.5166C16.0587 8.5166 15.7304 8.84491 15.7304 9.24989C15.7304 9.65488 16.0587 9.98319 16.4637 9.98319H21.888C22.293 9.98319 22.6213 9.65488 22.6213 9.24989C22.6213 8.84491 22.293 8.5166 21.888 8.5166H16.4637ZM16.4637 11.5018C16.0587 11.5018 15.7304 11.8302 15.7304 12.2351C15.7304 12.6401 16.0587 12.9684 16.4637 12.9684H21.888C22.293 12.9684 22.6213 12.6401 22.6213 12.2351C22.6213 11.8302 22.293 11.5018 21.888 11.5018H16.4637ZM15.7304 15.2184C15.7304 14.8134 16.0587 14.4851 16.4637 14.4851H20.7701C21.1751 14.4851 21.5034 14.8134 21.5034 15.2184C21.5034 15.6234 21.1751 15.9517 20.7701 15.9517H16.4637C16.0587 15.9517 15.7304 15.6234 15.7304 15.2184Z" fill="#525C69"/>
</svg>
