<svg width="24" height="24" viewBox="0 0 24 24" fill="none" xmlns="http://www.w3.org/2000/svg">
<path fill-rule="evenodd" clip-rule="evenodd" d="M4.84995 8.71374V7.79904C4.84995 6.38784 6.22737 5.0791 8.52175 5.0791C9.68107 5.0791 10.5539 5.40679 11.1443 5.95054C11.7297 6.48972 11.9756 7.1866 11.9756 7.79904V8.71374H13.5954C13.7568 8.71374 13.8876 8.84456 13.8876 9.00593V9.54679C13.3858 9.93442 12.9301 10.3596 12.5322 10.7739C12.4586 10.4354 12.2546 10.1455 11.9756 9.95954V10.9347C11.9756 11.3376 11.6489 11.6643 11.2459 11.6643C10.843 11.6643 10.5163 11.3376 10.5163 10.9347V9.96131C10.1642 10.1972 9.93237 10.5988 9.93237 11.0545C9.93237 11.7629 10.4926 12.3405 11.1942 12.3683C11.0651 12.5445 10.966 12.6878 10.8997 12.7862C10.8387 12.8769 10.8387 12.9912 10.8997 13.0819C11.2188 13.5556 12.3009 15.074 13.8157 16.2652C13.5212 17.5675 12.357 18.5399 10.9656 18.5399H5.85974C4.24596 18.5399 2.93774 17.2317 2.93774 15.618V9.00593C2.93774 8.84456 3.06857 8.71374 3.22994 8.71374H4.84995ZM6.30918 7.79904C6.30918 7.4669 6.72984 6.53833 8.52175 6.53833C9.40556 6.53833 9.89482 6.78359 10.1557 7.0239C10.4216 7.26877 10.5163 7.56706 10.5163 7.79904V8.71374H6.30918V7.79904ZM4.84995 9.95956V10.9347C4.84995 11.3376 5.17661 11.6643 5.57957 11.6643C5.98252 11.6643 6.30918 11.3376 6.30918 10.9347V9.96129C6.66134 10.1972 6.89316 10.5988 6.89316 11.0545C6.89316 11.7807 6.30447 12.3694 5.57827 12.3694C4.85207 12.3694 4.26337 11.7807 4.26337 11.0545C4.26337 10.5977 4.49634 10.1952 4.84995 9.95956Z" fill="#525C69"/>
<path fill-rule="evenodd" clip-rule="evenodd" d="M17.8012 16.4602C20.2501 16.4602 22.2837 13.6302 22.6807 13.0408C22.7248 12.9752 22.7248 12.8927 22.6807 12.8272C22.2837 12.2378 20.2501 9.40788 17.8012 9.40788C15.3524 9.40788 13.3189 12.2378 12.9219 12.8272C12.8778 12.8927 12.8778 12.9752 12.9219 13.0408C13.3189 13.6302 15.3524 16.4602 17.8012 16.4602ZM17.8012 14.5878C18.7027 14.5878 19.4334 13.8474 19.4334 12.934C19.4334 12.0207 18.7027 11.2803 17.8012 11.2803C16.8996 11.2803 16.1689 12.0207 16.1689 12.934C16.1689 13.8474 16.8996 14.5878 17.8012 14.5878Z" fill="#525C69"/>
</svg>
