<svg width="24" height="24" viewBox="0 0 24 24" fill="none" xmlns="http://www.w3.org/2000/svg">
<path fill-rule="evenodd" clip-rule="evenodd" d="M13.099 8.62369C12.4801 8.98864 11.9322 9.44933 11.479 9.98354V5.83C11.479 5.704 11.376 5.601 11.248 5.601H6.851C6.723 5.601 6.62 5.704 6.62 5.83V18.179C6.62 18.306 6.723 18.408 6.851 18.408H11.484V20.009H5.868C5.388 20.009 5 19.625 5 19.152V4.858C5 4.384 5.388 4 5.868 4H12.739C12.97 4 13.191 4.091 13.353 4.251L16.8475 7.70532C16.7431 7.70062 16.638 7.69824 16.5324 7.69824C15.9241 7.69824 15.3355 7.77706 14.7776 7.92436L13.247 6.412C13.231 6.396 13.209 6.387 13.186 6.387C13.138 6.387 13.099 6.426 13.099 6.472V8.62369ZM10.9837 16.808C10.671 16.3152 10.4312 15.7772 10.2781 15.207H8.528C8.369 15.207 8.239 15.334 8.239 15.492V16.522C8.239 16.679 8.369 16.808 8.528 16.808H10.9837ZM10.0854 13.606C10.0975 13.0507 10.1899 12.5138 10.352 12.005H8.528C8.369 12.005 8.239 12.133 8.239 12.291V13.32C8.239 13.477 8.369 13.606 8.528 13.606H10.0854ZM8.587 10.404H9.512C9.704 10.404 9.859 10.25 9.859 10.06V9.146C9.859 8.956 9.704 8.803 9.512 8.803H8.587C8.395 8.803 8.239 8.956 8.239 9.146V10.06C8.239 10.25 8.395 10.404 8.587 10.404ZM19.0669 18.273C19.0669 17.9222 19.2452 17.6004 19.506 17.3659C20.4002 16.5621 20.9626 15.3964 20.9626 14.0993C20.9626 11.6742 18.9966 9.70819 16.5714 9.70819C14.1463 9.70819 12.1803 11.6742 12.1803 14.0993C12.1803 15.3963 12.7426 16.5619 13.6367 17.3658C13.8975 17.6003 14.0758 17.9221 14.0758 18.2729C14.0758 18.863 14.5542 19.3415 15.1444 19.3415H17.9984C18.5885 19.3415 19.0669 18.8631 19.0669 18.273ZM14.8868 20.6867C14.8868 20.369 15.1444 20.1114 15.4621 20.1114H17.6806C17.9983 20.1114 18.2559 20.369 18.2559 20.6867C18.2559 21.0045 17.9983 21.2621 17.6806 21.2621H15.4621C15.1444 21.2621 14.8868 21.0045 14.8868 20.6867Z" fill="#525C69"/>
</svg>
