<svg width="25" height="24" viewBox="0 0 25 24" fill="none" xmlns="http://www.w3.org/2000/svg">
<path fill-rule="evenodd" clip-rule="evenodd" d="M6.5 6C5.94772 6 5.5 6.44772 5.5 7V9C5.5 9.55228 5.94772 10 6.5 10H18.5C19.0523 10 19.5 9.55228 19.5 9V7C19.5 6.44772 19.0523 6 18.5 6H6.5ZM7.89324 15.5171L12.1114 11.241C12.2223 11.0895 12.399 11 12.5868 11C12.7746 11 12.9512 11.0895 13.0622 11.241L17.2804 15.5171C17.4116 15.6962 17.4311 15.9339 17.3307 16.1319C17.2302 16.33 17.0271 16.4549 16.805 16.4549H14.4321V19.3602C14.4321 19.6858 14.1682 19.9496 13.8427 19.9496H11.3309C11.0054 19.9496 10.7416 19.6857 10.7416 19.3602V16.4549H8.36866C8.14654 16.4549 7.94335 16.33 7.84297 16.1319C7.74252 15.9339 7.76202 15.6963 7.89324 15.5171Z" fill="#525C69"/>
</svg>
