<svg width="24" height="24" viewBox="0 0 24 24" fill="none" xmlns="http://www.w3.org/2000/svg">
<path fill-rule="evenodd" clip-rule="evenodd" d="M2.87305 6.72771C2.87305 5.98548 3.50747 5.38379 4.29007 5.38379H13.1239C13.58 5.38379 14.0083 5.59205 14.2745 5.94335L16.0511 8.5754C16.1252 8.67318 16.1684 8.78512 16.1806 8.89941H8.30029C7.19572 8.89941 6.30029 9.79484 6.30029 10.8994V12.5514H4.29007C3.50747 12.5514 2.87305 11.9497 2.87305 11.2074V6.72771ZM9.40969 10.5039C8.6271 10.5039 7.99268 11.1056 7.99268 11.8478V16.3276C7.99268 17.0698 8.6271 17.6715 9.40969 17.6715L18.2435 17.6715C18.6996 17.6715 19.1279 17.4632 19.3941 17.1119L21.1707 14.4799C21.3483 14.2455 21.3483 13.9298 21.1707 13.6955L19.3941 11.0635C19.1279 10.7122 18.6996 10.5039 18.2435 10.5039H9.40969Z" fill="#525C69"/>
</svg>
