<svg width="24" height="24" viewBox="0 0 24 24" fill="none" xmlns="http://www.w3.org/2000/svg">
<path fill-rule="evenodd" clip-rule="evenodd" d="M6.66634 7C5.76724 7 4.97865 7.59997 4.73881 8.4665L2.8874 15.1556C2.71109 15.7926 3.19023 16.4224 3.85117 16.4224H20.1488C20.8107 16.4224 21.29 15.7909 21.1119 15.1534L19.2432 8.46203C19.0018 7.59772 18.2143 7 17.3169 7H6.66634ZM16.0263 9.02854H13.3436V11.7112H16.0263L16.0263 14.3938H18.709V11.7112L16.0263 11.7112V9.02854ZM7.9768 11.7112H5.29415V14.3938H7.9768V11.7112ZM13.3435 11.7112H10.6595L10.6595 9.02854H7.97687V11.7112L10.6595 11.7112V14.3938H13.3435V11.7112Z" fill="#525C69"/>
</svg>
