<svg width="25" height="24" viewBox="0 0 25 24" fill="none" xmlns="http://www.w3.org/2000/svg">
<path d="M4.52515 6.39279C4.52515 6.01136 4.83436 5.70215 5.21579 5.70215C5.59722 5.70215 5.90643 6.01136 5.90643 6.39279V7.21085C6.63246 7.48879 7.14798 8.19215 7.14798 9.01592C7.14798 9.83969 6.63246 10.5431 5.90643 10.821V13.1965C6.63246 13.4744 7.14798 14.1778 7.14798 15.0016C7.14798 15.8253 6.63246 16.5287 5.90643 16.8066V18.0285C5.90643 18.4099 5.59722 18.7191 5.21579 18.7191C4.83436 18.7191 4.52515 18.4099 4.52515 18.0285V16.8066C3.79917 16.5286 3.28369 15.8253 3.28369 15.0016C3.28369 14.1778 3.79917 13.4745 4.52515 13.1965V10.821C3.79917 10.543 3.28369 9.83966 3.28369 9.01592C3.28369 8.19219 3.79917 7.48885 4.52515 7.21089V6.39279Z" fill="#525C69"/>
<path d="M9.6851 6.8633C9.13282 6.8633 8.6851 7.31101 8.6851 7.8633V10.1683C8.6851 10.7206 9.13282 11.1683 9.6851 11.1683H19.6842C20.2365 11.1683 20.6842 10.7206 20.6842 10.1683V7.8633C20.6842 7.31101 20.2365 6.8633 19.6842 6.8633H9.6851Z" fill="#525C69"/>
<path d="M9.6851 12.8491C9.13282 12.8491 8.6851 13.2968 8.6851 13.8491V16.154C8.6851 16.7063 9.13282 17.154 9.6851 17.154H14.2142C14.332 15.3732 15.2645 13.8151 16.6425 12.8491H9.6851Z" fill="#525C69"/>
<path d="M19.0743 14.1133H20.772V16.6892H23.348V18.3869H20.772V20.963H19.0743V18.3869H16.4983V16.6892H19.0743V14.1133Z" fill="#525C69"/>
</svg>
