<svg width="25" height="24" viewBox="0 0 25 24" fill="none" xmlns="http://www.w3.org/2000/svg">
<path fill-rule="evenodd" clip-rule="evenodd" d="M5.21603 5.3418C4.8346 5.3418 4.52539 5.65101 4.52539 6.03244V6.85044C3.79929 7.12834 3.28369 7.83174 3.28369 8.65557C3.28369 9.4794 3.79929 10.1828 4.52539 10.4607V12.8361C3.79929 13.114 3.28369 13.8174 3.28369 14.6412C3.28369 15.465 3.79929 16.1684 4.52539 16.4463V17.6681C4.52539 18.0495 4.8346 18.3588 5.21603 18.3588C5.59746 18.3588 5.90668 18.0495 5.90668 17.6681V16.4462C6.63257 16.1682 7.14798 15.4649 7.14798 14.6412C7.14798 13.8175 6.63257 13.1142 5.90668 12.8362V10.4605C6.63257 10.1825 7.14798 9.47925 7.14798 8.65557C7.14798 7.83189 6.63257 7.1286 5.90668 6.8506V6.03244C5.90668 5.65101 5.59746 5.3418 5.21603 5.3418ZM8.6851 7.50295C8.6851 6.95066 9.13282 6.50295 9.6851 6.50295H19.6842C20.2365 6.50295 20.6842 6.95066 20.6842 7.50295V9.80793C20.6842 10.3602 20.2365 10.8079 19.6842 10.8079H9.6851C9.13282 10.8079 8.6851 10.3602 8.6851 9.80793V7.50295ZM8.68506 13.4883C8.68506 12.936 9.13277 12.4883 9.68506 12.4883H19.6842C20.2365 12.4883 20.6842 12.936 20.6842 13.4883V15.7933C20.6842 16.3455 20.2365 16.7933 19.6842 16.7933H9.68506C9.13277 16.7933 8.68506 16.3455 8.68506 15.7933V13.4883Z" fill="#525C69"/>
</svg>
