<svg width="24" height="24" viewBox="0 0 24 24" fill="none" xmlns="http://www.w3.org/2000/svg">
<path fill-rule="evenodd" clip-rule="evenodd" d="M18.2416 8.21639C18.5779 8.42258 18.8132 8.76362 18.8614 9.1578L18.8705 9.30795L18.87 10.5594L13.9643 10.5603C13.4515 10.5603 13.0288 10.9463 12.9711 11.4436L12.9643 11.5603V14.2452C12.9643 14.758 13.3504 15.1807 13.8477 15.2384L13.9643 15.2452L18.87 15.2444L18.8705 16.7117C18.8705 17.3866 18.3238 17.943 17.6267 18.0061L17.4943 18.0121H6.73381C5.82656 18.0121 5.0822 17.3155 5.00636 16.4279L5 16.2782V8.21739L18.2416 8.21639ZM18.87 11.5164V14.2884L13.9363 14.2888V11.5166L18.87 11.5164ZM16.2698 11.9087C15.7911 11.9087 15.4029 12.2969 15.4029 12.7756C15.4029 13.2543 15.7911 13.6425 16.2698 13.6425C16.7485 13.6425 17.1367 13.2543 17.1367 12.7756C17.1367 12.2969 16.7485 11.9087 16.2698 11.9087ZM16.3788 4L17.252 7.262H6.72796L6.55896 6.63121L16.3788 4Z" fill="#525C69"/>
</svg>
