<svg width="100%" height="100%" viewBox="0 0 100% 100%" fill="none" xmlns="http://www.w3.org/2000/svg" xmlns:xlink="http://www.w3.org/1999/xlink">
	<svg y="0" height="100%" width="100%">
		<defs>
			<g id="block-1">
				<path fill-rule="evenodd" clip-rule="evenodd"
					  d="M480 131C482.209 131 484 132.791 484 135V159C484 161.209 482.209 163 480 163H469.122H467.971H266.432H261.532H257.049C255.528 163 254.138 162.137 253.464 160.773L247.311 148.33C246.896 147.492 246.896 146.508 247.311 145.67L253.464 133.227C254.138 131.863 255.528 131 257.049 131H261.532H266.432H467.971H469.122H480Z"
					  fill="white" fill-opacity="0.2" />

				<circle cx="363.5" cy="183.5" r="9.5" fill="white" fill-opacity="0.2" />
			</g>

			<g id="block-2">
				<line x1="244" y1="161" x2="244" y2="1000" style="stroke-dasharray: 4 4; stroke: white; stroke-width: 1px; stroke-opacity: 0.2" />
			</g>

			<svg id="block-4">
				<rect y="408" width="229" height="170" rx="10" fill="white" />
				<mask id="mask1_857_11668" style="mask-type:alpha" maskUnits="userSpaceOnUse" x="0" y="408" width="229"
					  height="170">
					<rect opacity="0.5" y="408" width="229" height="170" rx="10" fill="white" />
				</mask>
				<g mask="url(#mask1_857_11668)">
					<rect y="410.452" width="3" height="165.096" fill="black" fill-opacity="0.1" />
				</g>
			</svg>

			<svg id="block-5">
				<rect width="229" height="170" rx="10" fill="white" />
				<mask id="mask0_865_6680" style="mask-type:alpha" maskUnits="userSpaceOnUse" x="0" y="0" width="229"
					  height="170">
					<rect opacity="0.5" width="229" height="170" rx="10" fill="white" />
				</mask>
				<g mask="url(#mask0_865_6680)">
					<rect y="2.4519" width="3" height="165.096" fill="black" fill-opacity="0.1" />
				</g>
			</svg>

			<g id="column">
				<use xlink:href="#block-5" y="205" x="243" />
				<use xlink:href="#block-5" y="381" x="243" />
				<use xlink:href="#block-5" y="557" x="243" />
				<use xlink:href="#block-5" y="733" x="243" />
			</g>
		</defs>

		<rect opacity="0.8" width="100%" height="60" rx="10" fill="white" />

		<path
			d="M0 141C0 135.477 4.47715 131 10 131H241C242.657 131 244 132.343 244 134V160C244 161.657 242.657 163 241 163H3C1.34314 163 0 161.657 0 160V141Z"
			fill="white" fill-opacity="0.2" />
		<use xlink:href="#block-1"></use>
		<use x="240" xlink:href="#block-1"></use>
		<use x="480" xlink:href="#block-1"></use>
		<use x="720" xlink:href="#block-1"></use>
		<use x="960" xlink:href="#block-1"></use>
		<use x="1200" xlink:href="#block-1"></use>

		<use xlink:href="#block-2"></use>
		<use x="240" xlink:href="#block-2"></use>
		<use x="480" xlink:href="#block-2"></use>
		<use x="720" xlink:href="#block-2"></use>
		<use x="960" xlink:href="#block-2"></use>

		<rect y="194" width="229" height="208" rx="10" fill="white" />
		<mask id="mask0_857_11668" style="mask-type:alpha" maskUnits="userSpaceOnUse" x="0" y="194" width="229"
			  height="208">
			<rect opacity="0.5" y="194" width="229" height="208" rx="10" fill="white" />
		</mask>
		<g mask="url(#mask0_857_11668)">
			<rect y="197" width="3" height="202" fill="black" fill-opacity="0.1" />
		</g>

		<use xlink:href="#block-4"></use>

		<use y="176" xlink:href="#block-4"></use>
		<use y="352" xlink:href="#block-4"></use>

		<use xlink:href="#column" />
		<use x="240" xlink:href="#column" />
		<use x="480" xlink:href="#column" />
		<use x="720" xlink:href="#column" />
		<use x="960" xlink:href="#column" />
		<use x="1200" xlink:href="#column" />
	</svg>

	<svg width="100%" height="100%" id="animated-elements">
		<defs>
			<g id="block-animated-1">
				<rect x="6" y="6" width="48" height="48" rx="8" fill="#bdc1c6"/>
				<rect x="85" y="28" width="50" height="6" rx="2" fill="#bdc1c6"/>
				<rect x="257" y="28" width="76" height="6" rx="2" fill="#bdc1c6"/>
				<rect x="167" y="28" width="50" height="6" rx="2" fill="#bdc1c6"/>
				<rect x="373" y="28" width="50" height="6" rx="2" fill="#bdc1c6"/>
				<rect x="463" y="28" width="50" height="6" rx="2" fill="#bdc1c6"/>
			</g>

			<g id="block-animated-2">
				<rect x="10" y="76" width="139" height="39" rx="19.5" fill="#bdc1c6"/>
				<rect x="160" y="76" width="262" height="39" rx="19.5" fill="#edeef0" />
				<rect x="435" y="87" width="1" height="18" fill="#edeef0" />
				<rect x="445" y="79" width="38" height="33" rx="16.5" fill="#edeef0" />
				<rect x="491" y="79" width="38" height="33" rx="16.5" fill="#edeef0" />
				<rect x="100%" y="79" width="94" height="33" rx="16.5" fill="#edeef0"  transform="translate(-156, 0)"/>
				<rect x="100%" y="79" width="38" height="33" rx="16.5" fill="#edeef0"  transform="translate(-50, 0)"/>
			</g>

			<g id="block-animated-3">
				<rect x="202" y="203" width="19" height="16" rx="8" fill="#e5e5e5" />

				<rect x="13" y="210" width="106" height="6" rx="2" fill="#e5e5e5" />
				<rect x="13" y="231" width="24" height="6" rx="2" fill="#e5e5e5" />
				<rect x="13" y="248" width="50" height="6" rx="2" fill="#e5e5e5" />
				<rect x="13" y="269" width="24" height="6" rx="2" fill="#e5e5e5" />
				<rect x="13" y="286" width="50" height="6" rx="2" fill="#e5e5e5" />
				<rect x="13" y="307" width="24" height="6" rx="2" fill="#e5e5e5" />

				<rect x="13" y="324" width="50" height="6" rx="2" fill="#e5e5e5" />
				<rect x="12" y="341" width="76" height="20" rx="10" fill="#e5e5e5" />
				<circle cx="42" cy="382" r="5" fill="#e5e5e5" />
				<circle cx="22" cy="382" r="10" fill="#e5e5e5" />
				<circle cx="62" cy="382" r="10" fill="#e5e5e5" />
			</g>

			<svg id="block-animated-4">
				<rect x="202" y="417" width="19" height="16" rx="8" fill="#e5e5e5"/>
				<rect x="13" y="424" width="106" height="6" rx="2" fill="#e5e5e5"/>
				<rect x="13" y="446" width="24" height="5" rx="2" fill="#e5e5e5"/>
				<rect x="13" y="462" width="50" height="6" rx="2" fill="#e5e5e5"/>
				<rect x="13" y="484" width="24" height="5" rx="2" fill="#e5e5e5"/>
				<rect x="13" y="500" width="50" height="6" rx="2" fill="#e5e5e5"/>
				<rect x="12" y="517" width="76" height="20" rx="10" fill="#e5e5e5"/>
				<circle cx="22" cy="558" r="10" fill="#e5e5e5"/>
				<circle cx="42" cy="558" r="5" fill="#e5e5e5"/>
				<circle cx="62" cy="558" r="10" fill="#e5e5e5"/>
			</svg>


			<svg id="block-animated-5">
				<rect x="13" y="424" width="106" height="6" rx="2" fill="#e5e5e5"/>
				<rect x="13" y="446" width="24" height="5" rx="2" fill="#e5e5e5"/>
				<rect x="13" y="462" width="50" height="6" rx="2" fill="#e5e5e5"/>
				<rect x="13" y="484" width="24" height="5" rx="2" fill="#e5e5e5"/>
				<rect x="13" y="500" width="50" height="6" rx="2" fill="#e5e5e5"/>
				<rect x="12" y="517" width="120" height="20" rx="10" fill="#e5e5e5"/>
				<circle cx="22" cy="558" r="10" fill="#e5e5e5"/>
				<circle cx="42" cy="558" r="5" fill="#e5e5e5"/>
				<circle cx="62" cy="558" r="10" fill="#e5e5e5"/>
			</svg>

			<svg id="block-animated-6">
				<rect x="12" y="109" width="120" height="20" rx="10" fill="#e5e5e5" />
				<circle cx="42" cy="150" r="5" fill="#e5e5e5" />
				<circle cx="22" cy="150" r="10" fill="#e5e5e5" />
				<circle cx="62" cy="150" r="10" fill="#e5e5e5" />
				<rect x="13" y="16" width="106" height="6" rx="2" fill="#e5e5e5" />
				<rect x="13" y="54" width="50" height="6" rx="2" fill="#e5e5e5" />
				<rect x="13" y="38" width="24" height="5" rx="2" fill="#e5e5e5" />
				<rect x="13" y="76" width="24" height="5" rx="2" fill="#e5e5e5" />
				<rect x="13" y="92" width="50" height="6" rx="2" fill="#e5e5e5" />
			</svg>

			<g id="column-animated">
				<use xlink:href="#block-animated-6" y="205" x="243" />
				<use xlink:href="#block-animated-6" y="381" x="243" />
				<use xlink:href="#block-animated-6" y="557" x="243" />
				<use xlink:href="#block-animated-6" y="733" x="243" />
			</g>
		</defs>

		<use xlink:href="#block-animated-1"></use>
		<use xlink:href="#block-animated-2"></use>
		<use xlink:href="#block-animated-3"></use>

		<use xlink:href="#block-animated-4"></use>
		<use y="176" xlink:href="#block-animated-4"></use>
		<use y="352" xlink:href="#block-animated-4"></use>

		<use xlink:href="#column-animated" />
		<use x="240" xlink:href="#column-animated" />
		<use x="480" xlink:href="#column-animated" />
		<use x="720" xlink:href="#column-animated" />
		<use x="960" xlink:href="#column-animated" />
		<use x="1200" xlink:href="#column-animated" />
	</svg>

	<rect id="msk1" width="100%" fill="url(#msk_gd)" mask="url(#headerMsk)" height="100%"/>

	<mask id="headerMsk" fill="white">
		<use xlink:href="#animated-elements"/>
	</mask>

	<linearGradient x1="66.6%" y1="50%" x2="33.3%" y2="50%" id="msk_gd">
		<stop stop-color="#000000" stop-opacity="0" offset="0%"/>
		<stop stop-color="#000000" stop-opacity="0.07" offset="50%"/>
		<stop stop-color="#000000" stop-opacity="0" offset="100%"/>
	</linearGradient>

	<animate xlink:href="#msk1" attributeName="x" from="-100%" to="100%" dur="1s" begin="0s" repeatCount="indefinite"/>
</svg>