<svg width="100%" height="100%" viewBox="0 0 100% 100%" fill="none" xmlns="http://www.w3.org/2000/svg"
	 xmlns:xlink="http://www.w3.org/1999/xlink">
	<svg y="0" height="100%" width="100%">
		<rect opacity="0.8" width="100%" height="60" rx="10" fill="white" />
		<rect x="100%" y="131" width="234" height="282" rx="10" fill="white" transform="translate(-237, 0)" />

	</svg>

	<svg width="100%" height="100%" id="animated-elements">
		<defs>
			<g id="block-animated-1">
				<rect x="6" y="6" width="48" height="48" rx="8" fill="#bdc1c6" />
				<rect x="85" y="28" width="50" height="6" rx="2" fill="#bdc1c6" />
				<rect x="257" y="28" width="76" height="6" rx="2" fill="#bdc1c6" />
				<rect x="167" y="28" width="50" height="6" rx="2" fill="#bdc1c6" />
				<rect x="373" y="28" width="50" height="6" rx="2" fill="#bdc1c6" />
				<rect x="463" y="28" width="50" height="6" rx="2" fill="#bdc1c6" />
			</g>

			<g id="block-animated-2">
				<rect x="10" y="76" width="139" height="39" rx="19.5" fill="#bdc1c6" />
				<rect x="160" y="76" width="212" height="39" rx="19.5" fill="#edeef0" />
				<rect x="100%" y="79" width="38" height="33" rx="16.5" fill="#edeef0" transform="translate(-50, 0)" />
			</g>
		</defs>
		<use xlink:href="#block-animated-1"></use>
		<use xlink:href="#block-animated-2"></use>

		<rect x="100%" y="151" width="116" height="6" rx="2" fill="#e5e5e5" transform="translate(-135, 0)" />
		<rect x="100%" y="177" width="196" height="6" rx="2" fill="#e5e5e5" transform="translate(-218, 0)" />
		<rect x="100%" y="215" width="132" height="6" rx="2" fill="#e5e5e5" transform="translate(-153, 0)" />
		<rect x="100%" y="245" width="196" height="6" rx="2" fill="#e5e5e5" transform="translate(-217, 0)" />
		<rect x="100%" y="275" width="196" height="6" rx="2" fill="#e5e5e5" transform="translate(-217, 0)" />
		<rect x="100%" y="305" width="196" height="6" rx="2" fill="#e5e5e5" transform="translate(-217, 0)" />
		<rect x="100%" y="335" width="108" height="6" rx="2" fill="#e5e5e5" transform="translate(-218, 0)" />
	</svg>
	<rect id="msk1" width="100%" fill="url(#msk_gd)" mask="url(#headerMsk)" height="100%"/>

	<mask id="headerMsk" fill="white">
		<use xlink:href="#animated-elements"/>
	</mask>

	<linearGradient x1="66.6%" y1="50%" x2="33.3%" y2="50%" id="msk_gd">
		<stop stop-color="#000000" stop-opacity="0" offset="0%"/>
		<stop stop-color="#000000" stop-opacity="0.07" offset="50%"/>
		<stop stop-color="#000000" stop-opacity="0" offset="100%"/>
	</linearGradient>

	<animate xlink:href="#msk1" attributeName="x" from="-100%" to="100%" dur="1s" begin="0s" repeatCount="indefinite"/>
</svg>