<svg width="16" height="14" viewBox="0 0 16 14" fill="none" xmlns="http://www.w3.org/2000/svg">
	<path fill-rule="evenodd" clip-rule="evenodd" d="M2.79037 11.3989H1.64598C1.10611 11.3989 0.668457 10.9612 0.668457 10.4213C0.668457 9.88147 1.10611 9.44382 1.64598 9.44382H2.79037C3.19295 8.30482 4.27921 7.48878 5.55607 7.48878C6.83293 7.48878 7.91919 8.30482 8.32177 9.44382H14.3538C14.8936 9.44382 15.3313 9.88147 15.3313 10.4213C15.3313 10.9612 14.8936 11.3989 14.3538 11.3989H8.32177C7.91919 12.5379 6.83293 13.3539 5.55607 13.3539C4.27921 13.3539 3.19295 12.5379 2.79037 11.3989ZM7.67798 4.55621H1.64598C1.10611 4.55621 0.668457 4.11856 0.668457 3.57869C0.668457 3.03882 1.10611 2.60116 1.64598 2.60116H7.67798C8.08056 1.46216 9.16683 0.646118 10.4437 0.646118C11.7205 0.646118 12.8068 1.46216 13.2094 2.60116H14.3538C14.8936 2.60116 15.3313 3.03882 15.3313 3.57869C15.3313 4.11856 14.8936 4.55621 14.3538 4.55621H13.2094C12.8068 5.69521 11.7205 6.51125 10.4437 6.51125C9.16683 6.51125 8.08056 5.69521 7.67798 4.55621ZM10.4437 4.55621C10.9836 4.55621 11.4212 4.11856 11.4212 3.57869C11.4212 3.03882 10.9836 2.60116 10.4437 2.60116C9.90381 2.60116 9.46616 3.03882 9.46616 3.57869C9.46616 4.11856 9.90381 4.55621 10.4437 4.55621ZM5.55607 11.3989C6.09594 11.3989 6.53359 10.9612 6.53359 10.4213C6.53359 9.88147 6.09594 9.44382 5.55607 9.44382C5.0162 9.44382 4.57855 9.88147 4.57855 10.4213C4.57855 10.9612 5.0162 11.3989 5.55607 11.3989Z" fill="#535c68"/>
</svg>