<svg xmlns="http://www.w3.org/2000/svg" viewBox="0 0 250 250" width="250" height="250"><path fill="#535c69" opacity=".08" d="M229.8 221.8c0-.2-.3-.4-.5-.3l-25.2 4.2c-.2 0-.4.3-.3.5 0 .2.2.3.4.3h.1l25.2-4.2c.2 0 .3-.2.3-.5zm.3 4.3l-25.2 4.2c-.2 0-.4.3-.3.5 0 .2.2.3.4.3h.1l25.2-4.2c.2 0 .4-.3.3-.5-.1-.2-.3-.4-.5-.3zm13.1-10.3c-.3-1.7-1.9-2.9-3.6-2.6l-2.5.4 1.9-7c.1-.2 0-.4-.2-.5-.2-.1-.4 0-.5.1l-5.5 7.5-.9-5.7c-.3-1.7-1.9-2.9-3.6-2.6l-27.9 4.6c-.8.1-1.6.6-2.1 1.3-.5.7-.7 1.5-.5 2.4L201 235c.3 1.7 1.9 2.9 3.6 2.6l2.5-.4-1.9 7c-.1.2 0 .4.2.5h.2c.1 0 .3-.1.3-.2l5.5-7.5.9 5.7c.1.8.6 1.6 1.3 2.1.5.4 1.2.6 1.8.6h.5l27.9-4.6c.8-.1 1.6-.6 2.1-1.3.5-.7.7-1.5.5-2.4l-3.2-21.3zm-31.6 19.8s-.1 0 0 0l-.1.1-4.8 6.5 1.5-5.5c0-.1 0-.3-.1-.4-.1-.1-.2-.1-.3-.1h-.1l-3.1.5c-1.3.2-2.5-.7-2.7-1.9l-3.5-21.3c-.1-.6 0-1.2.4-1.7s.9-.8 1.5-.9l27.9-4.6c1.3-.2 2.5.7 2.7 1.9l1.1 6.7 2.4 14.6c.1.6 0 1.2-.4 1.7s-.9.8-1.5.9l-20.7 3.4c-.1.1-.2.1-.2.1zm33.8 3.4c-.4.5-.9.8-1.5.9l-27.9 4.6c-.6.1-1.2 0-1.7-.4s-.8-.9-.9-1.5l-1-6.3 20.3-3.3c.8-.1 1.6-.6 2.1-1.3.5-.7.7-1.5.5-2.4l-2.4-14.4 4.7-6.4-1.5 5.5c0 .1 0 .3.1.4.1.1.2.2.4.1l3.1-.5c1.3-.2 2.5.7 2.7 1.9l3.5 21.3c0 .7-.1 1.3-.5 1.8zM11.8 2.6c5.9-2.3 12.6-.9 17 3.6 6.2 6.2 6.2 16.3 0 22.6-6.2 6.2-16.3 6.2-22.6 0-4.4-4.4-5.8-11-3.7-16.9.1-.2 0-.5-.2-.5-.2-.1-.5 0-.5.2-2.3 6.1-.8 13.1 3.9 17.7 3.3 3.3 7.6 4.9 11.9 4.9 4.3 0 8.6-1.6 11.9-4.9 6.5-6.5 6.5-17.2 0-23.7C24.8.9 17.8-.6 11.6 1.8c-.2.1-.3.3-.2.5-.1.2.2.3.4.3zm217.3 214.7c0-.2-.2-.4-.5-.3l-25.2 4.2c-.2 0-.4.3-.3.5 0 .2.2.3.4.3h.1l25.2-4.2c.1-.1.3-.3.3-.5zm5.4-58.3c0 .2.1.3.3.3s.3-.1.3-.3c0-2 1-3.7 2.2-3.7.2 0 .3-.1.3-.3 0-.2-.1-.3-.3-.3-1.2 0-2.2-1.7-2.2-3.7 0-.2-.1-.3-.3-.3s-.3.1-.3.3c0 2-1 3.7-2.2 3.7-.2 0-.3.1-.3.3 0 .2.1.3.3.3 1.3 0 2.2 1.7 2.2 3.7zm.3-6c.3.9.8 1.7 1.4 2.1-.6.4-1.1 1.1-1.4 2.1-.3-.9-.8-1.7-1.4-2.1.6-.5 1.1-1.2 1.4-2.1zm-36.1 19.2c.1.2.2.3.4.3h.2l15.4-6.2c.2-.1.3-.3.2-.5s-.3-.3-.5-.2l-15.4 6.2c-.3 0-.4.2-.3.4zm-.7-2.3h.2l15.4-6.2c.2-.1.3-.3.2-.5 0-.1-.1-.2-.2-.2h-.3l-15.4 6.2c-.2.1-.3.3-.2.5 0 .1.1.2.3.2zM89 144.2c-1.2 1.6-3.1 2.3-4 1.6-.1-.1-.3-.1-.4.1-.1.1-.1.3.1.4.9.7.7 2.7-.6 4.3-.1.1-.1.3.1.4.1.1.3.1.4-.1 1.2-1.6 3.1-2.3 4-1.6.1.1.3.1.4-.1.1-.1.1-.3-.1-.4-.9-.7-.7-2.7.6-4.3.1-.1.1-.3-.1-.4-.1-.1-.3-.1-.4.1zm-1.1 4.2c-.7-.1-1.6.2-2.4.7.3-.9.4-1.8.1-2.5.7.1 1.6-.2 2.4-.7-.4.9-.4 1.8-.1 2.5zM.3 111.8c.2 0 .3-.1.4-.3.1-.2 0-.5-.2-.5l-.5-.2v.9h.1c.1.1.1.1.2.1zm200.4 65.7c.1.2.2.3.4.3h.2l15.4-6.2c.2-.1.3-.3.2-.5-.1-.2-.3-.3-.5-.2l-15.4 6.2c-.2-.1-.3.2-.3.4zM1.6 148.4c1.4 0 2.8-.9 3.3-2.3l8.6-23c.7-1.8-.2-3.9-2.1-4.6l-2.7-1 5.9-5.9c.1-.1.2-.4 0-.5-.1-.2-.3-.2-.5-.1l-9.9 4.3 2.4-6.3c.7-1.8-.2-3.9-2.1-4.6L0 102.6v.9l4.3 1.6c1.4.5 2.1 2.1 1.6 3.5l-2.7 7.3-3.2 8.4v2.4l3.9-10.4 8.6-3.8-4.8 4.8c-.1.1-.1.2-.1.4 0 .1.1.3.3.3l3.3 1.2c1.4.5 2.1 2.1 1.6 3.5l-8.6 23c-.5 1.4-2.1 2.1-3.5 1.6l-.7-.2v.9l.4.1c.4.2.8.3 1.2.3zm3.6 9.7l.3-.4c.1-.2.1-.4-.1-.6-.2-.1-.4-.1-.6.1l-.3.4c-.5.6-1.1 1.3-1.4 2.1-.3.8-.4 1.8-.1 2.9.1.3.1.6.2.9.2.6.3 1.3.3 1.9 0 .8-.2 1.5-.7 2.3-.1.2-.1.4.1.6.1 0 .2.1.2.1.1 0 .3-.1.3-.2.6-.9.9-1.8.9-2.8 0-.7-.2-1.4-.4-2-.1-.3-.1-.6-.2-.9-.2-1-.2-1.8.1-2.4.4-.8.9-1.4 1.4-2zm6.2 1.3l.3-.4c.1-.2.1-.4-.1-.6-.2-.1-.4-.1-.6.1l-.3.4c-.5.6-1.1 1.3-1.4 2.1-.3.8-.4 1.8-.1 2.9.1.3.1.6.2.9.2.6.3 1.3.3 1.9 0 .8-.2 1.5-.7 2.3-.1.2-.1.4.1.6.1 0 .2.1.2.1.1 0 .3-.1.3-.2.6-.9.9-1.8.9-2.8 0-.7-.2-1.4-.4-2-.1-.3-.1-.6-.2-.9-.2-1-.2-1.8.1-2.4.4-.7.9-1.3 1.4-2zM2.6 71.9c.2-1.5-.8-2.9-2.3-3.2H0v.8h.2c1.1.2 1.8 1.2 1.6 2.2-.1.9-.9 1.6-1.8 1.7v.8c1.3.1 2.4-.9 2.6-2.3zM203 197.6c.2 0 .4 0 .6-.1l25.3-10.1c.4-.2.7-.5.9-.9s.2-.9 0-1.3l-5.7-14.3-3.1-7.6c0-.1-.1-.2-.2-.2h-.3l-2.7 1.1-1.9-4.8c0-.1-.1-.2-.2-.2h-.3l-21.3 8.5c-.2.1-.3.3-.2.5l1.9 4.8-2.7 1.1c-.2.1-.3.3-.2.5l3.1 7.6 5.7 14.3c0 .7.6 1.1 1.3 1.1zm17.5-33.6l2.7 6.9-2.4.9-2.8-6.9 2.5-.9zm1.5 8.2l-.7.7-.1-.4.8-.3zm-27.3-4l20.6-8.2 1.9 4.8 3.5 8.7-8.5 8.5-12.1-.3-.4-1.1-3.1-7.6-1.9-4.8zm4.5 13.6h-1l.9-.3.1.3zm-5.6-7.1l2.4-.9 2.8 6.9-2.4.9-2.8-6.9zm18.7 8.2c.1 0 .2 0 .3-.1l11-11 5.5 13.7c.1.2.1.4 0 .6-.1.2-.2.4-.5.4l-25.3 10.1c-.4.2-.9 0-1.1-.5l-5.5-13.7 15.6.5zM22 71.9l-3.4 4.2c-.1.2-.1.4.1.6.1.1.2.1.3.1.1 0 .2-.1.3-.2l3.4-4.2c.1-.2.1-.4-.1-.6-.2-.1-.4 0-.6.1zm195.5 43.7c-.2-.1-.5 0-.5.2s0 .5.2.5l27.3 10.2h.1c.2 0 .3-.1.4-.3.1-.2 0-.5-.2-.5l-27.3-10.1zm30.9 1.1c.2 0 .3-.1.4-.3.1-.2 0-.5-.2-.5l-27.3-10.2c-.2-.1-.5 0-.5.2s0 .5.2.5l27.3 10.2c0 .1 0 .1.1.1zm-1.9 5c.2 0 .3-.1.4-.3.1-.2 0-.5-.2-.5l-27.3-10.2c-.2-.1-.5 0-.5.2-.1.2 0 .5.2.5l27.3 10.2c0 .1.1.1.1.1zM222.6 101c-.1.2 0 .5.2.5l27.1 10.1v-.9l-26.8-10c-.2 0-.5.1-.5.3zM17.5 160.8l.3-.4c.1-.2.1-.4-.1-.6-.2-.1-.4-.1-.6.1l-.3.4c-.5.6-1.1 1.3-1.4 2.1-.3.8-.4 1.8-.1 2.9.1.3.1.6.2.9.2.6.3 1.3.3 1.9 0 .8-.2 1.5-.7 2.3-.1.2-.1.4.1.6.1 0 .2.1.2.1.1 0 .3-.1.3-.2.6-.9.9-1.8.9-2.8 0-.7-.2-1.4-.4-2-.1-.3-.1-.6-.2-.9-.2-1-.2-1.8.1-2.4.5-.8.9-1.4 1.4-2zM4.8 72.2c.4-2.7-1.5-5.2-4.2-5.6l-.6-.1v.8l.5.1c2.3.3 3.8 2.4 3.5 4.7-.3 2-2 3.5-4 3.5v.8c2.4 0 4.4-1.8 4.8-4.2zM31 74.4c-.2 0-.4.2-.4.4l.4 5.4c0 .2.2.4.4.4s.4-.2.4-.4l-.4-5.4c0-.2-.2-.4-.4-.4zm211.1 96c-.3.2-.5.6-.5 1v20.5c0 1.6 1 2.9 2.5 3.4l-.3 1.4c-.1.4 0 .9.2 1.3s.6.6 1 .7l4.8 1.1v-.8l-4.7-1c-.2 0-.4-.2-.5-.4-.1-.2-.2-.4-.1-.6l.3-1.4 5 1.1v-.9l-5.2-1.2h-.1c-1.3-.3-2.1-1.4-2.1-2.7v-20.5c0-.1.1-.3.2-.4.1-.1.2-.1.3-.1h.1l6.9 1.5v-.9l-6.7-1.5c-.4.1-.8.2-1.1.4zM26.2 73.8l-1.7 5.5c-.1.2.1.5.3.5h.1c.2 0 .3-.1.4-.3L27 74c.1-.2-.1-.5-.3-.5-.2 0-.5.1-.5.3zm173.5 101.1c.1.2.2.3.4.3h.2l15.4-6.2c.2-.1.3-.3.2-.5 0-.1-.1-.2-.2-.2h-.3l-15.4 6.2c-.3-.1-.4.2-.3.4zm50.2-112.6c-.1-.1-.2-.1-.3-.1l-24.3-3.6c-.3 0-.7.1-.9.3-.2.2-.4.5-.3.9l1.1 15.9c.1 1.2.9 2.2 2.1 2.5l-.2 1.1c-.1.8.4 1.5 1.2 1.6l12.1 1.8h.2c.3 0 .6-.1.8-.3.3-.2.5-.5.5-.9l.2-1h.1c1.2 0 2.3-.7 2.7-1.8l1-2.6 3.3.5c.2 0 .5.1.7.1h.1v-.8h-.7l-3.2-.5.5-1.3 2.9.4h.5v-.8h-.4l-2.7-.4 1.4-3.8 1.6.2v-.8l-1.3-.2.5-1.3.8.1v-.8l-.5-.1.5-1.3v-3zm-8.9 19c0 .1-.1.3-.2.4-.1.1-.2.1-.3.1L228.3 80c-.3 0-.5-.3-.5-.6l.1-1 13.2 1.9-.1 1zm7.4-14.7l-1.2 3.1-3.2 8.5c-.3.9-1.3 1.4-2.2 1.3l-14-2.1c-.9-.1-1.7-.9-1.7-1.9L225 59.6c0-.1 0-.2.1-.2 0 0 .1-.1.2-.1l24.3 3.6c.1 0 .1.1.2.1v.2l-1.4 3.4zM59.3 173.9l.3-6.1 3 5.3.9-.2.3-7.2-.8.2-.2 5.9-3-5.2-.9.2-.3 5.9-2.9-5.2-.9.2 3.6 6.2h.9zm120.1 51.7l-5.4-20.2c0-.1-.1-.2-.2-.3-.1-.1-.2-.1-.3 0l-27.2 7.3c-.3.1-.5.2-.8.3h-.1c-.1.1-.3.1-.4.2-.2.1-.3.1-.5.2-.1 0-.1.1-.2.1l-.6.3c-1.2.8-2.3 1.9-3 3.2-.9 1.6-1.3 3.3-1.2 5.1 0 .3 0 .5.1.8v.1c0 .3.1.6.2.9l.1.4 7 25.9h.9l-6.9-25.9c2.2-1.9 4.8-2.3 6.6-2.3 1 0 1.7.1 1.8.1h.1c.2 0 .4-.2.4-.4 0-.1-.1-.2-.2-.3-.1-.1-.1-.2-.2-.3l22-5.9c.2-.1.4-.3.3-.5-.1-.2-.3-.4-.5-.3l-22.3 6c-1.5-2.5-2.1-4.8-1.6-7.1l26.1-7 5.2 19.5h-1c-1.1 0-2.2.1-3.3.4-2 .5-3.8 1.5-5.3 2.9l-20.9 5.6c-.2.1-.4.3-.3.5.1.2.2.3.4.3h.1l19.6-5.3c-.5.6-.9 1.2-1.3 1.9-.5.8-.9 1.7-1.1 2.6l-16.2 4.4c-.2.1-.4.3-.3.5.1.2.2.3.4.3h.1l15.7-4.2c-.3 1.3-.4 2.6-.3 3.9l-14.5 3.9c-.2.1-.4.3-.3.5.1.2.2.3.4.3h.1l14.4-3.9c.1.5.2.9.3 1.4.2.8.5 1.5.8 2.2l-14.5 3.9c-.2.1-.4.3-.3.5.1.2.2.3.4.3h.1l14.7-3.9c.7 1.2 1.5 2.3 2.5 3.2l-8.8 2.4h3.2l6.3-1.7c.9.7 1.9 1.3 2.9 1.7h2.9c-4.5-.8-8.3-4.1-9.5-8.6-.8-3.1-.4-6.3 1.2-9 .6-1 1.3-1.9 2.2-2.7 1.4-1.3 3.1-2.3 5.1-2.8 1-.3 2.1-.4 3.1-.4 5.4 0 10.1 3.6 11.5 8.8 1.7 6.3-2.1 12.9-8.4 14.6-.4.1-.8.2-1.2.2h3c.8-.4 1.6-.8 2.3-1.3l.3 1.2h-.2 1.1l-.5-1.8c3.8-3.1 5.7-8.2 4.3-13.2-1.3-5.2-5.4-8.8-10.4-9.5zm-31-4.6h-1c-1.9 0-4.5.4-6.8 2.2 0-.1-.1-.2-.1-.4 0-.1 0-.2-.1-.3 0-.2 0-.4-.1-.6v-.2-.7c.1-2.7 1.6-5.2 3.9-6.7h.1c.2-.1.4-.2.6-.4.1-.1.2-.1.3-.1.1-.1.3-.1.4-.2.1-.1.3-.1.4-.1.1 0 .2-.1.3-.1-.4 2.3.3 4.9 2.1 7.6zm5.5-87.7l-2.3-5.5c0-.1-.1-.2-.2-.2h-.3l-5.5 2.3c-.1 0-.2.1-.2.2v.3l2.3 5.5c.1.2.2.3.4.3h.2l5.5-2.3c.1-.1.2-.4.1-.6zm-5.7 1.9l-1.9-4.8 4.8-1.9 1.9 4.8-4.8 1.9zm-93.1 39.7l-.2-.7-3.6.9-.6-2.4 3.2-.8-.2-.7-3.2.8-.5-2.1 3.4-.8-.2-.7-4.2 1 1.6 6.7 4.5-1.2zm11-7.1c.1.2.3.3.5.4.2.1.4.2.6.2.2 0 .5.1.7.1.3 0 .6.1.8.1.2 0 .4.1.6.1.2.1.3.1.4.3.1.1.2.3.2.5v.5c-.1.2-.1.3-.3.4-.1.1-.3.2-.4.3-.2.1-.3.2-.5.2-.3.1-.6.1-.9 0-.3-.1-.5-.2-.7-.4l-.5.7c.2.1.3.3.5.3.2.1.4.1.6.2h.6c.2 0 .4 0 .6-.1.3-.1.6-.2.8-.3.3-.1.5-.3.7-.5.2-.2.3-.5.4-.7.1-.3.1-.6 0-.9-.1-.3-.2-.6-.4-.8-.2-.2-.4-.3-.6-.4-.2-.1-.5-.2-.7-.2-.3 0-.5-.1-.8-.1-.3 0-.5 0-.7-.1-.2 0-.4-.1-.5-.2l-.3-.3c-.1-.1-.1-.2-.2-.4v-.5c0-.2.1-.3.2-.4.1-.1.3-.2.4-.3.2-.1.3-.1.5-.2s.5-.1.7 0c.2 0 .5.2.6.3l.5-.7c-.3-.2-.6-.4-1-.4-.3 0-.7 0-1.1.1-.3.1-.6.2-.8.3-.3.1-.5.3-.6.5-.2.2-.3.5-.4.7-.1.3-.1.6 0 .9.2.4.3.6.5.8zm-2.2 16c0 .2.2.3.4.3h.1l10.1-2.4c.2-.1.4-.3.3-.5-.1-.2-.3-.4-.5-.3l-10.1 2.4c-.3.1-.4.3-.3.5zm-.8-3.1c0 .2.2.3.4.3h.1l10.1-2.4c.2-.1.4-.3.3-.5-.1-.2-.3-.4-.5-.3l-10.1 2.4c-.2.1-.3.3-.3.5zm86.2-75.3c.2 0 .3 0 .5-.1.3-.1.5-.4.7-.7.1-.3.1-.6 0-1-.3-.6-1-.9-1.6-.7-.6.3-.9 1-.7 1.6.2.6.6.9 1.1.9zm-.1-1.6h.2c.2 0 .3.1.4.3v.3c0 .1-.1.2-.2.2-.2.1-.4 0-.5-.2-.2-.3-.1-.5.1-.6zM41.9 172.2l5.2 4.6 1-.2-1.6-6.7-.8.2 1.3 5.5-5.2-4.6-1 .2 1.6 6.7.8-.2-1.3-5.5zm20.9 33c-13.4 0-24.4 10.9-24.4 24.4 0 8.5 4.4 16 11.1 20.4H51c-7.1-4.1-11.8-11.7-11.8-20.4 0-13 10.6-23.5 23.5-23.5 13 0 23.5 10.6 23.5 23.5 0 8.7-4.8 16.3-11.8 20.4H76c6.6-4.4 11.1-11.9 11.1-20.4 0-13.5-10.9-24.4-24.3-24.4zM76.1 0h-1.6C71 2 67 3.1 62.8 3.1 58.5 3.1 54.5 2 51 0h-1.6c3.8 2.5 8.4 4 13.3 4 5 0 9.6-1.5 13.4-4zm-7 0h-4.2c-.7.1-1.4.1-2.1.1-.7 0-1.4 0-2.1-.1h-4.2c2 .6 4.1.9 6.3.9 2.1 0 4.2-.3 6.3-.9zm29.6 227c3.1-3.1 7.2-4.7 11.4-4.7 1.9 0 3.8.4 5.7 1.1H116.1c.1 0 .2-.1.3-.2.1-.2 0-.5-.2-.5-6.2-2.4-13.2-.9-17.9 3.8-6.5 6.5-6.5 16.9-.2 23.5h1.2c-.1-.1-.3-.2-.4-.4-6.4-6.3-6.4-16.4-.2-22.6zm-56.1-31.4c.3.7.8 1.2 1.5 1.6.6.4 1.4.6 2.1.6.3 0 .6 0 1-.1l36-8.7c2.2-.5 3.5-2.7 3-4.9l-5.5-23c-.1-.2-.3-.4-.5-.3l-6.6 1.6-1.1-4.6c0-.1-.1-.2-.2-.3-.1-.1-.2-.1-.3 0l-36 8.7c-.2.1-.4.3-.3.5l6.9 28.6c-.2.1-.1.2 0 .3zm37.2-33.8l5.2 21.7.2.9c.4 1.7-.6 3.4-2.3 3.8-1.7.4-3.4-.6-3.8-2.4l-5.4-22.5 6.1-1.5zm-8.2-3.4l6.7 27.6c.3 1.2 1.2 2.2 2.3 2.7L47 196.8c-.8.2-1.7.1-2.4-.4-.6-.3-1-.8-1.2-1.4l-.2-.6-6.7-27.6 35.1-8.4zM152.8 2.8h.1L163.4 0h-3.2l-7.5 2c-.2.1-.4.3-.3.5 0 .2.2.3.4.3zm28-2.2c.6-.2 1.1-.3 1.6-.6h-3c-.6.1-1.3.2-1.9.2-.7 0-1.4-.1-2-.2h-2.9c1.5.6 3.2 1 4.9 1 1.1 0 2.2-.1 3.3-.4zm47.5 212.1c0-.2-.3-.4-.5-.3l-25.2 4.2c-.2 0-.4.3-.3.5 0 .2.2.3.4.3h.1l25.2-4.2c.2-.1.3-.3.3-.5zm13.9-158.3c.2.5.3.9.4 1.4.1.6-.1 1.2-.4 1.7-.1.2 0 .5.2.6.1 0 .1.1.2.1s.3-.1.4-.2c.4-.7.6-1.5.5-2.3-.1-.5-.2-1.1-.4-1.6-.1-.2-.1-.4-.2-.6-.2-.7-.2-1.3-.1-1.8.2-.5.5-1 .9-1.5l.2-.3c.1-.2.1-.4-.1-.6-.2-.1-.4-.1-.6.1l-.2.3c-.4.5-.8 1.1-1 1.7-.2.7-.2 1.4 0 2.3 0 .2.1.4.2.7zm-146.8-26c-2.1 3.3-1.1 9.3.5 11.8.1.1.2.2.3.2h.2L101 38c1.4 1.2 3.2 1.9 5 1.9 1.2 0 2.5-.3 3.6-.9.8-.4 1.6-1 2.2-1.7l7.5 2.3c.4.1.4.2.3.6l-2.6 8.4-5.8 3.1c-.9.5-1.5 1.4-1.5 2.4v5.3c0 .1 0 .1.1.2s.1.2.3.3c.1 0 .1.1.2.1h.2c.1 0 .3 0 .4-.1l17.7-9.4c.2-.1.4-.4.4-.7 0-.3-.1-.5-.4-.7l-4.2-2.8c-.8-.6-2-.6-2.8-.1l-1.1.6v-.2c.2-.8.6-1.8.9-2.9l.3-.9c.3-1 .6-2.1.9-3 .4-1.2-.1-2.1-1.3-2.5l-8-2.5c.4-1.1.6-2.3.4-3.5l1.9-1 1.3 2.5c-.4.4-.5 1.1-.2 1.6.2.4.7.7 1.2.7.2 0 .4-.1.6-.2.3-.2.6-.5.7-.8.1-.3.1-.7-.1-1-.1-.2-.2-.3-.3-.4-.3-.2-.7-.4-1.1-.3l-1.3-2.5 1.8-1c.2-.1.3-.3.2-.5-1.1-2.8-5.6-7-9.5-7.1h-.2l-.3.2-2.8-3.2c-1.2-1.3-2.9-2.1-4.6-2.1-1.9 0-3.7.9-4.9 2.4-1.3 1.4-1.7 3.4-1.3 5.4l1 4.1-.3.2s-.1 0-.1.1zm22.3 4.8c.1 0 .2-.1.2-.1.2 0 .4.1.5.3.1.1.1.3 0 .4 0 .1-.1.2-.3.3-.1 0-.1.1-.2.1-.2 0-.4-.1-.5-.3-.1-.2 0-.5.3-.7zm-8.5 5c-.9.5-1.9.7-2.8.8-1.6.1-3.3-.4-4.6-1.4l11.1-5.9c.1 2.7-1.3 5.2-3.7 6.5zm12.7 8.7c.3-.1.6-.2.9-.2.4 0 .8.1 1.1.3l4.2 2.7-17.6 9.3v-5c0-.7.4-1.4 1-1.7l10.4-5.4zm-.9-8.8c.7.2 1 .7.7 1.4-.1.2-.1.5-.2.7-.2.5-.3 1-.5 1.6-.1.2-.1.4-.2.6-.5 1.5-.9 3-1.2 3.9-.1.4-.2.7-.3.9l-1.3.8 2.3-7.6c.2-.8 0-1.3-.8-1.6l-7.2-2.2c.2-.3.4-.6.6-1l8.1 2.5zM95.6 23.8c-.4-1.7 0-3.4 1.1-4.7 1-1.3 2.7-2.1 4.3-2.1 1.1 0 2.6.3 4 1.8l2.7 3-11 5.8-1.1-3.8zm.4 5.1l.5-.3 12-6.3.5-.3c3.3.2 7.3 3.7 8.5 6.2l-1.9 1-19.2 10.2C95 37 94.3 31.8 96 28.9zm54.4 95.8l-2.3-5.5c0-.1-.1-.2-.2-.2h-.3l-.2.1.3-3.8c0-.2-.2-.4-.4-.4s-.4.2-.4.4l-.3 4.2-3 1.2-.3-.3c-.2-.2-.4-.2-.6 0-.2.2-.2.4 0 .6l.1.1-.6.2c-.2.1-.3.3-.2.5l2.3 5.5c.1.2.2.3.4.3h.2l5.5-2.3c-.1-.2 0-.4 0-.6zm-4-4.4l-.2 3-2.1-2.1 2.3-.9zm-1.7 6.2l-1.9-4.8.5-.2 3 3c.1.1.2.1.3.1h.1c.2-.1.3-.2.3-.4l.4-4.4.2-.1 1.9 4.8-4.8 2zm53.4 29c1.4 0 2.9-.3 4.2-.8 5.8-2.4 8.6-9 6.2-14.7-1.7-4.1-5.6-6.9-10-7-.2 0-.4.2-.4.4s.2.4.4.4c4.1.2 7.7 2.7 9.3 6.5 2.2 5.4-.4 11.5-5.8 13.7-5.4 2.2-11.5-.4-13.7-5.8-1.6-3.8-.7-8.2 2.2-11.2.2-.2.2-.4 0-.6-.2-.2-.4-.2-.6 0-3.1 3.2-4 8-2.3 12.1 1.8 4.3 6 7 10.5 7zm-50-6.3l4.6 1.9h.4l26.6-10.9c.1 0 .2-.1.2-.2l1.9-4.6v-.3l-12.5-30.4c0-.1-.1-.2-.2-.2l-4.6-1.9h-.3L158 105l-.4-1c-.2-.4-.5-.8-.9-.9-.4-.2-.9-.2-1.3 0l-1.1.4c-.8-1.6-2.5-2.7-4.4-2.7-.6 0-1.3.1-1.9.4-2.4 1-3.6 3.6-2.8 6l-1.1.4c-.4.2-.8.5-.9.9-.2.4-.2.9 0 1.3l.4 1-6.1 2.5c-.1 0-.2.1-.2.2l-1.9 4.6v.3l12.5 30.4c0 .3.1.4.2.4zm-4-40.3c.1-.2.3-.4.5-.5l1.4-.6c.2-.1.3-.3.2-.5-.8-2.1.1-4.4 2.2-5.3.5-.2 1-.3 1.5-.3 1.7 0 3.1 1 3.8 2.5 0 .1.1.2.2.2h.3l1.4-.6c.2-.1.5-.1.7 0 .2.1.4.3.5.5l.6 1.4.8 1.8c.1.1.1.3 0 .4l-.3.3-11.8 4.8c-.3.1-.6 0-.7-.3l-.8-1.8-.6-1.4c0-.2 0-.4.1-.6zm-6 5.2l6-2.5.6 1.5c.2.5.7.8 1.2.8.2 0 .3 0 .5-.1l11.8-4.8c.3-.1.6-.4.7-.7.1-.3.1-.7 0-1l-.6-1.5 6-2.5 4.3 1.8 12.3 30.1-1.8 4.3-26.3 10.8-4.3-1.8-12.3-30.1 1.9-4.3zM.4 62.7c-.1-.2-.2-.3-.4-.4v2.6l.5-1.3c.1-.2.1-.6-.1-.9zm189.3 136.4c0-.2-.1-.3-.3-.3h-2.8l2-2c.1-.1.1-.3 0-.4-.1-.1-.3-.1-.4 0l-2 2v-4.2c0-.2-.1-.3-.3-.3-.2 0-.3.1-.3.3v4.2l-2-2c-.1-.1-.3-.1-.4 0-.1.1-.1.3 0 .4l2 2h-2.8c-.2 0-.3.1-.3.3 0 .2.1.3.3.3h2.8l-2 2c-.1.1-.1.3 0 .4.1.1.1.1.2.1s.2 0 .2-.1l2-2v4.2c0 .2.1.3.3.3.2 0 .3-.1.3-.3v-4.2l2 2c.1.1.1.1.2.1s.2 0 .2-.1c.1-.1.1-.3 0-.4l-2-2h2.8c.1 0 .3-.2.3-.3zm33.4-106.3c-1.5 0-2.8.9-3.3 2.3l-8.6 23c-.3.9-.3 1.8.1 2.7.4.9 1.1 1.5 2 1.8l2.7 1-5.9 5.9c-.1.1-.2.4 0 .5.1.2.3.2.5.1l9.9-4.3-2.4 6.3c-.3.9-.3 1.8.1 2.7.4.9 1.1 1.5 2 1.8l29.8 11.1v-.9l-29.5-11c-.7-.3-1.2-.8-1.5-1.4-.3-.7-.3-1.4-.1-2.1l2.6-6.9 22 8.2c.4.1.8.2 1.2.2 1.5 0 2.8-.9 3.3-2.3l1.9-5.1V124l-2.7 7.1c-.4 1.1-1.4 1.8-2.5 1.8-.3 0-.6-.1-.9-.2l-22.4-8.4h-.1-.1-.1l-8.8 3.8 4.8-4.8c.1-.1.1-.2.1-.4 0-.1-.1-.3-.3-.3l-3.3-1.3c-.7-.3-1.2-.8-1.5-1.4-.3-.7-.3-1.4-.1-2.1l8.6-23c.4-1.1 1.4-1.8 2.5-1.8.3 0 .6.1.9.2l25.8 9.7v-.9l-25.5-9c-.4-.1-.8-.2-1.2-.2zm-40.7 152.9l-1.8-6.6 3.8-1c.2 0 .3-.2.3-.3 0-.2 0-.3-.1-.4l-9-7.5c-.1-.1-.2-.1-.4-.1-.1 0-.2.1-.3.3l-4 11c-.1.1 0 .3.1.4.1.1.3.2.4.1l3.8-1 1.8 6.6c0 .1.1.2.2.3.1 0 .1.1.2.1h.1l4.5-1.2c.3-.3.5-.5.4-.7zm-4.6.8l-1.8-6.6c-.1-.2-.2-.3-.4-.3h-.1l-3.4.9 3.5-9.7 7.9 6.6-3.4.9c-.1 0-.2.1-.3.2-.1.1-.1.2 0 .3l1.8 6.6-3.8 1.1zm13.4-111.2l.9 2.1 4.6 11.3c0 .1.1.1.1.2l4.3 3.5c.1.1.2.1.3.1h.2l.3-.3.6-5.5v-.2l-4.6-11.3-.9-2.1-.6-1.5c-.4-1.1-1.5-1.8-2.7-1.8-.4 0-.7.1-1.1.2-.8.3-1.4.9-1.7 1.7-.3.8-.3 1.6 0 2.4l.3 1.2zm9.8 16l-3.2-2.6 3.6-1.4-.4 4zm-3.9-15.5l4.3 10.5-4 1.6-4.3-10.5 4-1.6zm-.9-2.1l.6 1.4-4.1 1.7-.6-1.4 4.1-1.7zm-4.8-1.8c.2-.6.7-1 1.3-1.3.3-.1.5-.2.8-.2.8 0 1.6.5 1.9 1.3l.5 1.1-4.1 1.7-.4-.9c-.2-.5-.2-1.1 0-1.7zM3 9l2.4 2.4 13 13s.1.1.2.1l7.9 2.4h.1c.1 0 .2 0 .3-.1.1-.1.2-.3.1-.4l-2.3-8c0-.1-.1-.1-.1-.2l-13-13-2.5-2.4-1.5-1.5C6.8.5 5.6 0 4.4 0 3.2 0 2.1.5 1.2 1.3c-1.6 1.6-1.6 4.3 0 5.9L3 9zm22.9 16.9l-6.5-2 4.6-4.6 1.9 6.6zm-2.2-7.4L21.2 21l-2.5 2.5L6.3 11.1l5-5 12.4 12.4zm-13-12.9l-5 5-1.8-1.9 5-5 1.8 1.9zM1.8 1.9C2.5 1.2 3.4.8 4.4.8s1.9.4 2.6 1.1l1.2 1.2-5 5-1.4-1.5C.5 5.3.5 3.2 1.8 1.9zm149.8 120.3c.1.2.2.3.4.3h.2l15.1-6.2c.2-.1.3-.3.2-.5-.1-.2-.3-.3-.5-.2l-15.1 6.2c-.3-.1-.4.1-.3.4zm6.2 15.2c.1.2.2.3.4.3h.2l15.1-6.2c.2-.1.3-.3.2-.5-.1-.2-.3-.3-.5-.2l-15.1 6.2c-.2-.1-.3.2-.3.4zm.9 2.1c.1.2.2.3.4.3h.2l15.1-6.2c.2-.1.3-.3.2-.5-.1-.2-.3-.3-.5-.2l-15.1 6.2c-.3 0-.4.2-.3.4zm-3.5-3c-.1-.2-.3-.3-.5-.2l-5.5 2.3c-.1 0-.2.1-.2.2v.3l2.3 5.5c.1.2.2.3.4.3h.2l5.5-2.3c.1 0 .2-.1.2-.2v-.3l-2.4-5.6zm-3.4 7.4l-1.9-4.8 4.8-1.9 1.9 4.8-4.8 1.9zm3.4-13.1c.1.2.2.3.4.3h.2l15.1-6.2c.2-.1.3-.3.2-.5-.1-.2-.3-.3-.5-.2l-15.1 6.2c-.3 0-.4.2-.3.4zm-94.3 48.7c-.1-.2-.3-.4-.5-.3l-16.4 4c-.2.1-.4.3-.3.5l2.3 9.5c0 .1.1.2.2.3.1 0 .1.1.2.1h.1l6.7-1.6 8-1.9 1.6-.4c.1 0 .2-.1.3-.2.1-.1.1-.2 0-.3l-2.2-9.7zM49 192l1.3-5.3 2.6 2.9c.1.1.3.2.4.1.1 0 .3-.1.3-.3l1.6-6 5.2 5.8L49 192zm12.3-2.9l-5.5-6.1c-.2-.2-.5-.3-.8-.2-.3.1-.5.3-.6.6l-1.4 5.2-2.1-2.4c-.2-.2-.5-.3-.8-.3-.3.1-.5.3-.6.6l-1.4 5.8-1.4.3-2.1-8.7 15.6-3.8 2.1 8.7-1 .3zm89.8-68.8h.2l15.1-6.2c.2-.1.3-.3.2-.5-.1-.2-.3-.3-.5-.2l-15.1 6.2c-.2.1-.3.3-.2.5 0 .1.2.2.3.2zM64.6 187c0 .2.2.3.4.3h.1l10.1-2.4c.2-.1.4-.3.3-.5-.1-.2-.3-.4-.5-.3l-10.1 2.4c-.2 0-.3.2-.3.5zm89.7-58.3c.1.2.2.3.4.3h.2l15.1-6.2c.2-.1.3-.3.2-.5-.1-.2-.3-.3-.5-.2l-15.1 6.2c-.3 0-.4.2-.3.4zm47.5 51.4c.1.2.2.3.4.3h.2l15.4-6.2c.2-.1.3-.3.2-.5-.1-.2-.3-.3-.5-.2l-15.4 6.2c-.3-.1-.4.2-.3.4zm-72 2.8c-.1.1-.1.2 0 .3l1.4 4.6c.1.2.2.3.4.3h.1l4.6-1.4c.1 0 .2-.1.2-.2.1-.1.1-.2 0-.3l-1.4-4.6c-.1-.2-.3-.3-.5-.3l-4.6 1.4c-.1.1-.2.1-.2.2zm4.7-.7l1.2 3.8-3.8 1.2-1.2-3.8 3.8-1.2zm-35.5-42c-.1.3 0 .6.1.9l8.4 12.5c.6.9 1.8 1.4 2.9 1.1l.4.9c.3.7 1 1 1.7.7l10.7-4.2c.1 0 .1 0 .2-.1.2-.1.4-.4.5-.6.1-.3.1-.7 0-1l-.4-.9c1-.6 1.5-1.7 1.3-2.8l-.4-2.6 3-1.2.6-.3c2-1.1 2.9-3.6 2-5.8-.9-2.4-3.7-3.6-6.1-2.7l-1 .4-.4-2.8c0-.3-.2-.6-.5-.7-.3-.2-.6-.2-.9-.1l-21.6 8.5c-.2.2-.4.5-.5.8zm24.3 10.9c0 .1-.1.2-.2.2l-10.8 4.3c-.3.1-.6 0-.7-.3l-.4-.9 9-3.5 2.7-1.1.4.9v.4zm1.1-16.2c2-.8 4.3.2 5.1 2.2.8 2-.2 4.3-2.2 5.1l-2.8 1.1-.2-1.3 2.5-1c.1 0 .2-.1.3-.2 1.1-.6 1.6-2 1.1-3.3-.5-1.3-2.1-2-3.4-1.5l-1.5.6-.2-1.3 1.3-.4zm-.3 6.3l-.6-3.8 1.6-.6c.9-.4 2 .1 2.4 1.1.4 1-.1 2-1.1 2.4l-2.3.9zm-24.2-.9c0-.1 0-.1 0 0l21.6-8.5h.2c.1 0 .1.1.1.2l.5 3.2.7 4.1 1.2 7.5c.1.9-.4 1.8-1.2 2.1l-12.4 4.9c-.8.3-1.8 0-2.3-.7l-8.4-12.5c0-.1-.1-.1 0-.2-.1-.1-.1-.1 0-.1zm2.2-13.3c0-.2-.1-.4-.4-.4-.2 0-.4.1-.4.4v.3c-.1.6-.1 1.2 0 1.8.1.7.5 1.3 1.1 1.9l.5.5c.4.3.7.6 1 1 .3.4.5 1 .5 1.6 0 .2.2.4.4.4.1 0 .1 0 .2-.1s.2-.2.2-.3c0-.8-.2-1.5-.6-2.1-.3-.4-.7-.8-1.1-1.1-.2-.1-.3-.3-.5-.4-.5-.5-.8-1-.9-1.5-.1-.5-.1-1 0-1.6v-.4zm-70-77.4l-.4.2-3.3-3.7c-1.4-1.5-3.2-2.4-5.2-2.4-2.1 0-4.2 1-5.6 2.7-1.4 1.7-1.9 3.9-1.4 6.1l1.2 4.8-.4.2c-.1 0-.1.1-.2.1-2.4 3.7-1.3 10.6.6 13.4.1.1.2.2.3.2h.2l5.2-2.7c1.6 1.4 3.7 2.1 5.7 2.1 1.4 0 2.8-.3 4.1-1 1-.5 1.8-1.2 2.5-2l8.6 2.7c.5.1.5.3.4.7l-3 9.6-6.7 3.5c-1 .5-1.6 1.6-1.6 2.7v5.8c0 .3.2.6.4.7.1.1.3.1.4.1.1 0 .3 0 .4-.1l20.2-10.7c.3-.1.4-.4.4-.7 0-.3-.1-.6-.4-.7L49.9 78c-.9-.6-2.2-.7-3.2-.2l-1.4.7c.5-1.8 1.7-5.6 2.5-8.1.4-1.3-.1-2.3-1.4-2.7l-9.2-2.9c.5-1.3.7-2.7.5-4.1l2.3-1.2 1.6 3c-.5.5-.6 1.2-.3 1.8.3.5.8.8 1.3.8.2 0 .5-.1.7-.2.7-.4 1-1.3.6-2-.3-.6-1-.9-1.6-.8l-1.6-3 2.1-1.1c.2-.1.3-.3.2-.5-1.3-3.1-6.4-7.9-10.8-8 .1 0 0 0-.1.1zm10.2 13.5c.1-.1.2-.1.3-.1.2 0 .5.1.6.4.2.3 0 .7-.3.9-.3.2-.7 0-.9-.3-.1-.3 0-.8.3-.9zM17.1 52.4c-.4-2 0-3.9 1.2-5.4 1.2-1.5 3.1-2.4 4.9-2.4 1.2 0 3 .4 4.6 2.1l3.1 3.5-12.7 6.7-1.1-4.5zm15.6 16.4c-2.8 1.5-6.2 1.1-8.6-.8l12.8-6.8c.2 3.2-1.4 6.2-4.2 7.6zm14.4 9.8c.3-.2.7-.3 1.1-.3.4 0 .9.1 1.3.4l4.8 3.2-20.2 10.7v-5.8c0-.8.5-1.6 1.2-2l11.8-6.2zm-.9-10c.9.3 1.2.8.9 1.7-.9 3-2.4 7.9-2.7 8.9l-1.7.9 2.7-8.8c.3-.9 0-1.5-.9-1.7L36.2 67c.3-.4.5-.8.7-1.2l9.3 2.8zm-4-11.1L40 58.7 18.1 70.3c-1.6-2.7-2.5-8.8-.5-12.1l.6-.3 13.7-7.2.6-.3c3.8.1 8.3 4.3 9.7 7.1zm64.2 67.8c0-.2-.1-.4-.4-.4-.2 0-.4.1-.4.4v.3c-.1.6-.1 1.2 0 1.8.1.6.5 1.3 1.1 1.9l.5.5c.4.3.7.6 1 1 .3.4.5 1 .5 1.6 0 .2.2.4.4.4.1 0 .1 0 .2-.1s.2-.2.2-.3c0-.8-.2-1.5-.6-2.1-.3-.4-.7-.8-1.1-1.1-.2-.1-.3-.3-.5-.4-.5-.5-.8-1-.9-1.5-.1-.5-.1-1 0-1.6v-.4zm4.3-1.7c0-.2-.1-.4-.4-.4-.2 0-.4.1-.4.4v.3c-.1.6-.1 1.2 0 1.9s.5 1.3 1.1 1.9l.5.5c.4.3.7.6 1 1 .3.4.5 1 .5 1.6 0 .2.2.4.4.4.1 0 .1 0 .2-.1s.2-.2.2-.3c0-.8-.2-1.5-.6-2.1-.3-.4-.7-.8-1.1-1.1-.2-.1-.3-.3-.5-.4-.5-.5-.8-1-.9-1.5-.1-.5-.1-1 0-1.6v-.5zm9.5 70.6c0-.1-.1-.2-.2-.2-.1-.1-.2-.1-.3 0l-4.6 1.4c-.2.1-.3.3-.3.5l1.4 4.6c.1.2.2.3.4.3h.1l4.6-1.4c.1 0 .2-.1.2-.2.1-.1.1-.2 0-.3l-1.3-4.7zm-3.3 5.6l-1.2-3.8 3.8-1.2 1.2 3.8-3.8 1.2zm11.9-8.2c0-.1-.1-.2-.2-.2-.1-.1-.2-.1-.3 0l-4.6 1.4c-.2.1-.3.3-.3.5l1.4 4.6c0 .1.1.2.2.2H125.3l4.6-1.4c.2-.1.3-.3.3-.5l-1.4-4.6zm-3.3 5.6l-1.2-3.8 3.8-1.2 1.2 3.8-3.8 1.2zm-13.9-.4c-.1-.2-.2-.3-.4-.3h-.2l-4.6 1.4c-.1 0-.2.1-.2.2-.1.1-.1.2 0 .3l1.4 4.6c.1.2.2.3.4.3h.1l4.6-1.4c.1 0 .2-.1.2-.2.1-.1.1-.2 0-.3l-1.3-4.6zm-3.4 5.6l-1.2-3.8 3.8-1.2 1.2 3.8-3.8 1.2zM57.1 50.7c0 .2.2.4.4.4h.1L83 47.6c.2 0 .4-.2.4-.5 0-.2-.2-.4-.5-.4l-25.4 3.5c-.2.1-.4.3-.4.5zm-5.3-6.9L54.5 63c0 .2.2.4.4.4h.1l25.4-3.5.5-.1c.2 0 .4-.1.6-.1h.2c.1 0 .2-.1.3-.1.2 0 .4-.1.5-.2h.1c1.5-.6 2.9-1.5 3.9-2.9 1.2-1.6 1.8-3.4 1.7-5.4V51c0-.3 0-.6-.1-.9l-4.8-34.5c0-.2-.2-.4-.5-.4L48.9 20c-.2 0-.4.2-.4.5l.3 1.8c-1.2.8-2.3 1.7-3.2 2.9-1.9 2.5-2.7 5.6-2.3 8.8.7 4.7 4.1 8.5 8.5 9.8zm35.5 6.9V52.1c0 .2 0 .3-.1.5v.2c0 .2-.1.4-.1.5v.1c-.1.2-.1.4-.2.6v.1l-.3.6c-.5 1-1.3 1.9-2.2 2.7-.2.1-.3.2-.5.3l-.1.1c-.1.1-.3.2-.4.2-.1 0-.1.1-.2.1-.1.1-.3.1-.4.2-.1 0-.2.1-.3.1-.1 0-.2.1-.3.1-.1 0-.3.1-.4.1-.1 0-.2 0-.3.1-.1 0-.2 0-.3.1.6-2.2.3-4.6-.9-7.2v-.1c.6.1 1.4.2 2.3.2 1.9 0 3.6-.4 5.1-1.3-.4.2-.4.2-.4.3zm-4.8-34.6l4.7 33.4c-1.4.9-3.1 1.4-5 1.4-1.7 0-2.9-.4-2.9-.4-.2-.1-.3 0-.5.1-.1.1-.1.3 0 .5.1.1.1.2.2.4l-20.9 2.9c-.2 0-.4.2-.4.5 0 .2.2.4.4.4h.1l21.2-3c1.1 2.4 1.3 4.7.6 6.7l-24.8 3.4L52.7 44c.8.2 1.5.2 2.3.2.5 0 1.1 0 1.6-.1 1.9-.3 3.7-1 5.2-2.1l19.9-2.8c.2 0 .4-.2.4-.5 0-.2-.2-.4-.5-.4L63.1 41c1.1-1.1 2.1-2.4 2.7-3.8l15.4-2.1c.2 0 .4-.2.4-.5 0-.2-.2-.4-.5-.4l-14.9 2.1c.4-1.1.6-2.3.7-3.5l13.8-1.9c.2 0 .4-.2.4-.5 0-.2-.2-.4-.5-.4l-13.7 2c0-.4 0-.8-.1-1.3-.1-.7-.3-1.4-.5-2.1l13.8-1.9c.2 0 .4-.2.4-.5s-.2-.4-.5-.4l-14 1.9c-.5-1.2-1.1-2.2-1.9-3.1l15.4-2.1c.2 0 .4-.2.4-.5 0-.2-.2-.4-.5-.4l-16 2.2c-2.2-2.2-5.1-3.5-8.3-3.5-.5 0-1.1 0-1.7.1-1.4.2-2.6.6-3.8 1.2l-.2-1.1 33.1-4.4zm-36.3 9.6c.9-1.2 2-2.1 3.2-2.9 1.2-.7 2.6-1.2 4-1.4.5-.1 1-.1 1.5-.1 5.5 0 10.1 4.1 10.9 9.5.8 6-3.4 11.6-9.4 12.4-.5.1-1 .1-1.5.1-5.5 0-10.1-4.1-10.9-9.5-.3-2.8.5-5.7 2.2-8.1zm66.5 86.5c.8-.1 1.5-.5 1.9-1.2l7.8-15.4c0-.1.1-.2 0-.3 0-.1-.1-.2-.2-.2l-4.1-1.8c-.2-.1-.4 0-.5.2l-8.3 16.5c-.1.2-.1.5 0 .8.1.2.3.5.5.6l1.9.8c.3 0 .6.1 1 0zm-.7-.9l-1.9-.8-.1-.1v-.1l8.2-16.1 3.4 1.5-7.6 15c-.2.5-.7.8-1.2.8-.4 0-.6-.1-.8-.2zM49.7 35.8l3.1-.4.4 3.1c.1.7.7 1.2 1.4 1.2h.2l2.6-.4c.4-.1.7-.2.9-.5.2-.3.3-.7.3-1l-.6-3.2 3.1-.4c.7-.1 1.3-.8 1.2-1.5l-.4-2.6c-.1-.4-.2-.7-.5-.9-.3-.2-.7-.3-1-.3l-3.1.4-.4-3.1c-.1-.7-.8-1.3-1.5-1.2l-2.6.4c-.4.1-.7.2-.9.5-.2.3-.3.7-.3 1L52 30l-3 .5c-.4.1-.7.2-.9.5-.2.3-.3.7-.3 1l.4 2.6c0 .8.7 1.3 1.5 1.2zm-1-4.3c.1-.1.2-.2.4-.2l3.5-.5c.1 0 .2-.1.3-.2.1-.1.1-.2.1-.3l-.5-3.5c0-.1 0-.3.1-.4.1-.1.2-.2.4-.2l2.6-.4c.3 0 .5.2.5.5l.5 3.5c0 .1.1.2.2.3.1.1.2.1.3.1l3.6-.5c.1 0 .2 0 .3.1.1.1.2.2.2.4l.4 2.6c0 .3-.2.6-.5.6l-3.5.5c-.2 0-.4.2-.4.5l.5 3.5c0 .1 0 .3-.1.4-.1.1-.2.2-.4.2l-2.6.4c-.3 0-.6-.2-.6-.5l-.5-3.5c0-.1-.1-.2-.2-.3-.1-.1-.2-.1-.3-.1h-.1l-3.4.5c-.3 0-.5-.2-.5-.5l-.4-2.6c0-.1 0-.2.1-.4zM83 77.9c0-.2-.1-.3-.3-.3h-2.8l2-2c.1-.1.1-.3 0-.4-.1-.1-.3-.1-.4 0l-2 2V73c0-.2-.1-.3-.3-.3-.2 0-.3.1-.3.3v4.2l-2-2c-.1-.1-.3-.1-.4 0-.1.1-.1.3 0 .4l2 2h-2.8c-.2 0-.3.1-.3.3 0 .2.1.3.3.3h2.8l-2 2c-.1.1-.1.3 0 .4.1.1.1.1.2.1s.2 0 .2-.1l2-2v4.2c0 .2.1.3.3.3.2 0 .3-.1.3-.3v-4.2l2 2c.1.1.1.1.2.1s.2 0 .2-.1c.1-.1.1-.3 0-.4l-2-2h2.8c.2 0 .3-.1.3-.3zM56.6 46.6c0 .2.2.4.4.4h.1l25.4-3.5c.2 0 .4-.2.4-.5 0-.2-.2-.4-.5-.4L57 46.1c-.3 0-.5.3-.4.5zM114 91.5l-4.1-1.8h-.3c-.1 0-.2.1-.2.2l-7.4 16.9c-.1.2-.1.5 0 .7.1.2.3.4.5.5l3.1 1.3c.1.1.3.1.5.1.4 0 .7-.2.8-.6l7.3-16.9c.1-.1 0-.3-.2-.4zm-7.9 17.1c0 .1-.2.1-.2.1l-3.1-1.3-.1-.1v-.1l7.2-16.5 3.4 1.5-7.2 16.4zm6.9 8.5c1.1-.1 2.1-.7 2.6-1.6l15.6-25.7h.1c.3.1.7.2 1 .2.8-.1 1.6-.6 1.9-1.3l1.2-2.8c.2-.5.2-1.2 0-1.7-.2-.6-.6-1-1.2-1.2l-10.3-4.5 1.3-3.1c.4-.8.4-1.7 0-2.6-.3-.8-1-1.5-1.8-1.8l-5.3-2.3c-.5-.2-1-.3-1.6-.3-1.3.1-2.3.9-2.8 2l-1.3 3.1-10.2-4.5c-.5-.2-1.2-.2-1.7 0-.6.2-1 .6-1.2 1.2L98.1 73c-.5 1.1 0 2.4 1.2 2.9h.1L91 105.1c-.4 1.5.3 3 1.7 3.6l18.6 8.1c.6.3 1.1.4 1.7.3zm1.6-46.4c.4-.9 1.2-1.5 2.2-1.5.4 0 .8 0 1.2.2l5.3 2.3c.6.3 1.1.8 1.4 1.4.2.6.2 1.3 0 2l-1.3 3.1-1.3-.6 1.3-3.1c.2-.6 0-1.2-.6-1.5l-5.3-2.3c-.5-.2-1.2 0-1.5.6l-1.3 3.1-1.3-.6 1.2-3.1zm6.6 6.6l-5.9-2.6 1.3-3.1c.1-.2.3-.2.4-.2l5.3 2.3c.2.1.2.3.2.4l-1.3 3.2zm-22.4-4l1.2-2.8c.2-.4.4-.6.8-.8.1-.1.3-.1.4-.1.2 0 .5 0 .7.1l10.7 4.6 2.6 1.1 18.7 8.2c.4.2.6.4.8.8.1.4.1.8 0 1.1l-1.2 2.8c-.3.7-1.2 1.1-1.9.7l-.9-.4-30.8-13.2-.4-.2c-.7-.3-1-1.2-.7-1.9zm1.2 3l30.4 13.2-2.5 4.1-29.1-12.7 1.2-4.6zm-8.2 29.1l6.7-23.7 29 12.6-12.6 20.9c-.6 1.1-2.1 1.5-3.2 1L93.1 108c-1.1-.4-1.6-1.6-1.3-2.6zm14-17.5l-4.1-1.8h-.3c-.1 0-.2.1-.2.2l-6 16.2c-.4 1.1.1 2.4 1.2 2.9l1.9.8c.1.1.3.1.5.1.1 0 .2 0 .3-.1.2-.1.4-.3.5-.6l6.4-17.3c.1-.1 0-.3-.2-.4zm-6.9 17.6c-.1.1-.2.1-.2.1l-1.9-.8c-.7-.3-1.1-1.1-.8-1.9l5.8-15.8 3.4 1.5-6.3 16.9zm12.8 80.2c0 .1.1.2.2.2H112.2l4.6-1.4c.2-.1.3-.3.3-.5l-1.4-4.6c0-.1-.1-.2-.2-.2h-.4l-4.6 1.4c-.2.1-.3.3-.3.5l1.5 4.6zm3.3-5.6l1.2 3.8-3.8 1.2-1.2-3.8 3.8-1.2zm-52.2 29.6c-.9 0-1.6.7-1.6 1.6 0 .9.7 1.6 1.6 1.6.9 0 1.6-.7 1.6-1.6-.1-.9-.8-1.6-1.6-1.6zm0 2.3c-.4 0-.7-.3-.7-.7 0-.4.3-.7.7-.7.4 0 .7.3.7.7 0 .4-.3.7-.7.7zm0 6.2c-.2 0-.4.2-.4.4v10.9c0 .2.2.4.4.4H75c.2 0 .4-.2.4-.4s-.2-.4-.4-.4H63.2v-10.5c0-.2-.2-.4-.4-.4zm60.3 2.6c-1.2 0-2.4.5-3.2 1.3l-1.5 1.5-2.4 2.4-13 13s-.1.1-.1.2l-2.3 8c0 .1 0 .3.1.4.1.1.2.1.3.1h.1l7.9-2.4c.1 0 .1 0 .2-.1l13-13 2.4-2.4 1.8-1.8c.8-.8 1.2-1.8 1.2-2.9 0-1.1-.4-2.2-1.2-2.9-.9-.9-2.1-1.4-3.3-1.4zm-21.5 25.9l1.9-6.6 4.6 4.6-6.5 2zm7.3-2.4l-3.9-3.9-1.1-1.1 12.4-12.4 5 5-12.4 12.4zm12.9-12.9l-5-5 1.8-1.8 5 5-1.8 1.8zm3.9-3.9l-1.5 1.5-5-5 1.2-1.2c.7-.7 1.6-1.1 2.6-1.1s1.9.4 2.6 1.1c.6.6 1 1.5 1 2.4.1.8-.2 1.6-.9 2.3zm-31.8-52.8c-.2.4-.3.9-.2 1.4v.2l9.3 30.5c.3.9 1.1 1.5 2 1.5.2 0 .4 0 .6-.1l38-11.6c1.1-.3 1.7-1.5 1.4-2.6l-7.6-25-1.7-5.5c0-.1-.1-.3-.2-.4-.3-.6-.9-1-1.6-1h-.2-.1c-.2 0-.4 0-.5.1l-1.4.4-.5-1.5c-.1-.2-.2-.3-.4-.3h-.2c-.2.1-.3.3-.3.5l.5 1.5-3.5 1.1-.5-1.5c-.1-.2-.2-.3-.4-.3h-.2c-.2.1-.3.3-.3.5l.5 1.5-3.5 1.1-.5-1.5c-.1-.2-.3-.3-.5-.3-.2.1-.3.3-.3.5l.5 1.5-3.5 1.1-.5-1.5c-.1-.2-.2-.3-.4-.3h-.2c-.2.1-.3.3-.3.5l.5 1.5-3.5 1.1-.5-1.5c-.1-.2-.2-.3-.4-.3h-.2c-.2.1-.3.3-.3.5l.5 1.5-3.5 1.1-.5-1.5c-.1-.2-.3-.3-.5-.3-.2.1-.3.3-.3.5l.5 1.5-3.5 1.1-.5-1.5c-.1-.2-.2-.3-.4-.3h-.2c-.2.1-.3.3-.3.5l.5 1.5-3.5 1.1-.5-1.5c0-.1-.1-.2-.2-.2h-.4c-.2.1-.3.3-.3.5l.5 1.5-3.5 1.1-.5-1.5c-.1-.2-.2-.3-.4-.3h-.2c-.2.1-.3.3-.3.5l.5 1.5-1.1.3c-.1.2-.6.6-.8 1.1zm50.3 19.5c.2.7-.2 1.4-.8 1.6l-38 11.6c-.6.2-1.4-.2-1.6-.8L96.3 182l40.4-12.3 7.5 24.5zm-47.8-20.1l.3 1.1c.1.2.2.3.4.3h.1c.2-.1.3-.3.3-.5l-.3-1.1 3.5-1.1.3 1.1c.1.2.2.3.4.3h.1c.2-.1.3-.3.3-.5l-.3-1.1 3.5-1.1.3 1.1c.1.2.2.3.4.3h.1c.2-.1.3-.3.3-.5l-.3-1.1 3.5-1.1.3 1.1c.1.2.2.3.4.3h.1c.2-.1.3-.3.3-.5l-.3-1.1 3.5-1.1.3 1.1c.1.2.2.3.4.3h.1c.2-.1.3-.3.3-.5l-.3-1.1 3.5-1.1.3 1.1c.1.2.2.3.4.3h.1c.2-.1.3-.3.3-.5l-.3-1.1 3.5-1.1.3 1.1c.1.2.2.3.4.3h.1c.2-.1.3-.3.3-.5l-.3-1.1 3.5-1.1.3 1.1c.1.2.2.3.4.3h.1c.2-.1.3-.3.3-.5l-.3-1.1 3.5-1.1.3 1.1c.1.2.2.3.4.3h.1c.2-.1.3-.3.3-.5l-.3-1.1 1.4-.4c.1 0 .2-.1.4-.1h.2c.4.1.7.3.9.7 0 .1.1.1.1.2l1.5 5.1-40.4 12.3-1.5-5.1v-.2c0-.3 0-.5.1-.8l.3-.3v-.1c.1 0 .1-.1.2-.1s.2-.1.2-.1l1.4-.5zm-33.6 72.1c-.9 0-1.6.7-1.6 1.6 0 .9.7 1.6 1.6 1.6.9 0 1.6-.7 1.6-1.6-.1-.9-.8-1.6-1.6-1.6zm0 2.3c-.4 0-.7-.3-.7-.7s.3-.7.7-.7c.4 0 .7.3.7.7s-.3.7-.7.7zM110 5.1c4.3 0 8.6-1.6 11.9-4.9.1-.1.1-.2.2-.2h-1.2c-3.1 2.9-7 4.3-10.9 4.3S102.2 2.9 99.1 0h-1.2c.1.1.1.2.2.2 3.3 3.3 7.6 4.9 11.9 4.9zm40 5.1h.1L185.7.6c.1 0 .2-.1.3-.2.1-.1.1-.2 0-.3V0h-1l-34.7 9.3-2.5-9.3h-.9l2.7 9.9c0 .2.2.3.4.3zm-24.8 221.9c-.2.1-.3.3-.2.5 2.2 5.8.7 12.5-3.7 16.9-.1.1-.3.2-.4.4h1.2c4.5-4.6 5.9-11.5 3.6-17.5 0-.2-.3-.3-.5-.3zm3.7-51.6c0 .1.1.2.2.2H129.4l4.6-1.4c.2-.1.3-.3.3-.5l-1.4-4.6c-.1-.2-.2-.3-.4-.3h-.2l-4.6 1.4c-.1 0-.2.1-.2.2-.1.1-.1.2 0 .3l1.4 4.7zm3.4-5.6l1.2 3.8-3.8 1.2-1.2-3.8 3.8-1.2zm-89.4 54.6c0 .9.7 1.6 1.6 1.6.9 0 1.6-.7 1.6-1.6s-.7-1.6-1.6-1.6c-.9.1-1.6.8-1.6 1.6zm2.3 0c0 .4-.3.7-.7.7-.4 0-.7-.3-.7-.7s.3-.7.7-.7c.4 0 .7.3.7.7zm38.9 0c0-5.7-2.2-11.1-6.2-15.1s-9.4-6.2-15.1-6.2c-5.7 0-11.1 2.2-15.1 6.2s-6.2 9.4-6.2 15.1 2.2 11.1 6.2 15.1c2.5 2.5 5.5 4.3 8.8 5.3h4.2c-4.7-.5-9-2.5-12.4-5.9-3.9-3.9-6-9-6-14.5s2.1-10.6 6-14.5c3.9-3.9 9-6 14.5-6s10.6 2.1 14.5 6c3.9 3.9 6 9 6 14.5s-2.1 10.6-6 14.5c-3.4 3.4-7.7 5.4-12.4 5.9h4.2c3.3-1 6.3-2.8 8.8-5.3 4-4 6.2-9.4 6.2-15.1zm36.2-46.4c0 .1.1.2.2.2H120.8l4.6-1.4c.2-.1.3-.3.3-.5l-1.4-4.6c0-.1-.1-.2-.2-.2h-.4l-4.6 1.4c-.2.1-.3.3-.3.5l1.5 4.6zm3.3-5.6l1.2 3.8-3.8 1.2-1.2-3.8 3.8-1.2zm-2.4 8c-.1.1-.1.2 0 .3l1.4 4.6c.1.2.2.3.4.3h.1l4.6-1.4c.1 0 .2-.1.2-.2.1-.1.1-.2 0-.3l-1.4-4.6c-.1-.2-.2-.3-.4-.3h-.2l-4.6 1.4c0 .1-.1.2-.1.2zm4.7-.6l1.2 3.8-3.8 1.2-1.2-3.8 3.8-1.2zm-13.3 3.3c-.1.1-.1.2 0 .3l1.4 4.6c0 .1.1.2.2.2H114.5l4.6-1.4c.1 0 .2-.1.2-.2.1-.1.1-.2 0-.3l-1.4-4.6c-.1-.2-.2-.3-.4-.3h-.2l-4.6 1.4c0 .1-.1.2-.1.3zm4.7-.7l1.2 3.8-3.8 1.2-1.2-3.8 3.8-1.2zm-12 8.2c.1.2.2.3.4.3h.1l4.6-1.4c.1 0 .2-.1.2-.2.1-.1.1-.2 0-.3l-1.4-4.6c0-.2-.2-.3-.4-.3h-.2l-4.6 1.4c-.2.1-.3.3-.3.5l1.6 4.6zm3.4-5.6l1.2 3.8-3.8 1.2-1.2-3.8 3.8-1.2zm-26.1 39.4c0-.9-.7-1.6-1.6-1.6-.9 0-1.6.7-1.6 1.6s.7 1.6 1.6 1.6c.9 0 1.6-.7 1.6-1.6zm-2.3 0c0-.4.3-.7.7-.7.4 0 .7.3.7.7s-.3.7-.7.7c-.4.1-.7-.3-.7-.7zM99.8 40.9l-2.9 3.7c-.1.2-.1.4.1.6.1.1.2.1.3.1.1 0 .2-.1.3-.2l2.9-3.7c.1-.2.1-.4-.1-.6-.1-.1-.2-.1-.3-.1s-.2.1-.3.2zm-50.7 87.3c.1.2.2.3.4.3h.1l8.5-2.8c.1 0 .2-.1.2-.2s.1-.2 0-.3l-6.1-18.3c-.1-.2-.3-.3-.5-.3l-8.5 2.8c-.1 0-.2.1-.2.2s-.1.2 0 .3l6.1 18.3zm2.6-20.7l5.8 17.5-7.7 2.6-5.8-17.5 7.7-2.6zm143.8-87.8l5.2 4.6 1-.2-1.6-6.7-.8.2 1.3 5.5-5.2-4.6-1 .2 1.6 6.7.8-.2-1.3-5.5zm13.2 2.7l-.2-.7-3.6.9-.6-2.4 3.2-.8-.2-.7-3.2.8-.5-2.1 3.4-.8-.2-.7-4.2 1 1.6 6.7 4.5-1.2zm-190 190.9c-.5 0-.9 0-1.4.1-4.5.8-7.6 5.1-6.8 9.6.7 4 4.1 6.9 8.2 6.9.5 0 .9 0 1.4-.1 2.2-.4 4.1-1.6 5.4-3.4 1.3-1.8 1.8-4 1.4-6.2-.7-3.9-4.1-6.9-8.2-6.9zm6.1 12.7c-1.2 1.6-2.9 2.7-4.8 3-.4.1-.8.1-1.3.1-3.7 0-6.8-2.6-7.4-6.2-.7-4.1 2.1-7.9 6.1-8.6.4-.1.8-.1 1.3-.1 3.7 0 6.8 2.6 7.4 6.2.3 2-.2 4-1.3 5.6zM218.3 34.4c0 .2.2.3.4.3h.1l10.1-2.4c.2-.1.4-.3.3-.5-.1-.2-.3-.4-.5-.3l-10.1 2.4c-.3.1-.4.3-.3.5zm-.8-3.1c0 .2.2.3.4.3h.1l10.1-2.4c.2-.1.4-.3.3-.5-.1-.2-.3-.4-.5-.3l-10.1 2.4c-.2.1-.4.3-.3.5zm-3-4.3c-.1-.2-.3-.4-.5-.3l-16.4 4c-.2.1-.4.3-.3.5l2.3 9.5c0 .1.1.2.2.3.1 0 .1.1.2.1h.1l6.6-1.6 8.1-2 1.6-.4c.1 0 .2-.1.3-.2.1-.1.1-.2 0-.3l-2.2-9.6zm-11.9 12.5l1.3-5.3 2.6 2.9c.1.1.3.2.4.1.1 0 .3-.1.3-.3l1.6-6 5.2 5.8-11.4 2.8zm12.3-3l-5.5-6.1c-.2-.2-.5-.3-.8-.2-.3.1-.5.3-.6.6l-1.4 5.2-2.1-2.4c-.2-.2-.5-.3-.8-.3-.3.1-.5.3-.6.6l-1.4 5.8-1.4.3-2.1-8.7 15.6-3.8 2.1 8.7-1 .3zm4.8-21.2c.1.2.3.3.5.4.2.1.4.2.6.2.2 0 .5.1.7.1.3 0 .6.1.8.1.2 0 .4.1.6.1.2.1.3.1.4.3.1.1.2.3.2.5v.5c-.1.2-.1.3-.3.4-.1.1-.3.2-.4.3-.2.1-.3.2-.5.2-.3.1-.6.1-.9 0-.3-.1-.5-.2-.7-.4l-.5.7c.2.1.3.3.5.3.2.1.4.1.6.2h.6c.2 0 .4 0 .6-.1.3-.1.6-.2.8-.3.3-.1.5-.3.7-.5.2-.2.3-.5.4-.7.1-.3.1-.6 0-.9-.1-.3-.2-.6-.4-.8-.2-.2-.4-.3-.6-.4-.2-.1-.5-.2-.7-.2-.3 0-.5-.1-.8-.1-.3 0-.5 0-.7-.1-.2 0-.4-.1-.5-.2l-.3-.3c-.1-.1-.1-.2-.2-.4v-.5c0-.2.1-.3.2-.4.1-.1.3-.2.4-.3.2-.1.3-.1.5-.2s.5-.1.7 0c.2 0 .5.2.6.3l.5-.7c-.3-.2-.6-.4-1-.4-.3 0-.7 0-1.1.1-.3.1-.6.2-.8.3-.3.1-.5.3-.6.5-.2.2-.3.5-.4.7-.1.3-.1.6 0 .9.3.4.4.6.5.8zm-2.9 12.9c0 .2.2.3.4.3h.1l10.1-2.4c.2-.1.4-.3.3-.5-.1-.2-.3-.4-.5-.3l-10.1 2.4c-.3 0-.4.3-.3.5zm-3.9-6.8l.3-6.1 3 5.3.9-.2.3-7.2-.8.2-.2 5.9-3-5.2-.9.2-.3 5.9-2.9-5.2-.9.2 3.6 6.2h.9zm25.8 28l.2-.3c.1-.2.1-.4-.1-.6-.2-.1-.4-.1-.6.1l-.2.4c-.4.5-.8 1.1-1 1.7-.2.7-.2 1.4 0 2.3.1.2.1.5.2.7.2.5.3.9.4 1.4.1.6-.1 1.2-.4 1.7-.1.2 0 .5.2.6.1 0 .1.1.2.1s.3-.1.4-.2c.4-.7.6-1.5.5-2.3-.1-.5-.2-1.1-.4-1.6-.1-.2-.1-.4-.2-.6-.2-.7-.2-1.3-.1-1.8.2-.6.5-1.1.9-1.6zm-77.1 132.8c2 1.5 4.4 2.2 6.9 2.2 3.9 0 7.6-1.9 9.8-5.1 1.9-2.6 2.6-5.8 2-9-.5-3.2-2.3-5.9-4.9-7.8-2-1.5-4.4-2.2-6.9-2.2-3.9 0-7.6 1.9-9.8 5.1-1.9 2.6-2.6 5.8-2 9 .5 3.2 2.3 5.9 4.9 7.8zm-2.2-16.3c2.1-2.9 5.5-4.7 9.1-4.7 2.3 0 4.6.7 6.5 2.1 2.4 1.7 4 4.3 4.5 7.3.5 2.9-.2 5.9-1.9 8.3-2.1 2.9-5.5 4.7-9.1 4.7-2.3 0-4.6-.7-6.5-2.1-2.4-1.7-4-4.3-4.5-7.3-.5-2.9.2-5.9 1.9-8.3zM18.7 211.7c-.6 0-1.1 0-1.7.1-5.4.9-9.1 6.1-8.2 11.5.8 4.8 4.9 8.3 9.8 8.3l1.6 9.2c.1.7.7 1.3 1.5 1.3h.3l.3-.1c.8-.1 1.4-.9 1.2-1.7l-1-5.8-.5-3.5c1.9-.7 3.6-1.9 4.8-3.6 1.5-2.2 2.1-4.8 1.7-7.4-.8-4.8-4.9-8.3-9.8-8.3zm.8 19.9c.3 0 .6-.1.8-.1.3 0 .6-.1.8-.2l.5 2.8-1.7.3-.4-2.8zm3.2 8.8c.1.4-.2.7-.6.8l-.3.1c-.4.1-.7-.2-.8-.6l-.9-5.4 1.7-.3.9 5.4zm3.4-13.5c-1.4 2-3.5 3.3-5.9 3.7-.5.1-1 .1-1.5.1-4.5 0-8.2-3.2-9-7.6-.8-5 2.5-9.7 7.5-10.5.5-.1 1-.1 1.5-.1 4.5 0 8.2 3.2 9 7.6.4 2.4-.2 4.9-1.6 6.8zm77.7-184.6c-.2 0-.3.1-.4.3l-1.5 4.9c-.1.2.1.5.3.5h.1c.2 0 .3-.1.4-.3l1.5-4.9c.1-.2-.1-.5-.3-.5h-.1zm47.1 154.5l.4.3c.3.2.7.4 1.2.4.7 0 1.3-.3 1.6-.8l5-7.1 3-4.2c2 1 4.2 1.5 6.4 1.5 4.7 0 9.1-2.3 11.8-6.1 2.2-3.1 3.1-7 2.5-10.8-.6-3.8-2.7-7.1-5.9-9.4-2.5-1.7-5.3-2.7-8.4-2.7-4.7 0-9.1 2.3-11.8 6.1-4.2 5.9-3.3 13.8 1.7 18.7l-8 11.3c-.3.4-.4 1-.3 1.5 0 .5.3 1 .8 1.3zm6.5-32.3c2.5-3.6 6.7-5.7 11.1-5.7 2.8 0 5.6.9 7.9 2.5 3 2.1 4.9 5.2 5.5 8.8.6 3.6-.2 7.2-2.3 10.1-2.5 3.6-6.7 5.7-11.1 5.7-2.8 0-5.6-.9-7.9-2.5-6.1-4.3-7.5-12.8-3.2-18.9zm1.6 18.8c.4.3.7.6 1.1.9.4.3.8.5 1.2.8l-2.7 3.8-2.3-1.7 2.7-3.8zm-7.9 11.2l4.8-6.8 2.3 1.7-4.8 6.8c-.2.3-.5.4-.8.5-.3.1-.6 0-.9-.2l-.4-.3c-.3-.2-.4-.5-.5-.8 0-.4.1-.7.3-.9zm82.7-145.8l.2-.3c.1-.2.1-.4-.1-.6-.2-.1-.4-.1-.6.1l-.2.3c-.4.5-.8 1.1-1 1.7-.2.7-.2 1.4 0 2.3.1.2.1.5.2.7.2.5.3 1 .4 1.4.1.6-.1 1.2-.4 1.7-.1.2 0 .5.2.6.1 0 .1.1.2.1s.3-.1.4-.2c.4-.7.6-1.5.5-2.3-.1-.5-.2-1.1-.4-1.6-.1-.2-.1-.4-.2-.6-.2-.7-.2-1.3-.1-1.8.2-.5.6-1 .9-1.5zm-61 170.1c-.1-.2-.3-.4-.5-.3l-26.7 7.2c-.2.1-.4.3-.3.5.1.2.2.3.4.3h.1l26.7-7.2c.2 0 .4-.3.3-.5zm-25.9 12.1h.1l26.7-7.2c.2-.1.4-.3.3-.5-.1-.2-.3-.4-.5-.3l-26.7 7.2c-.2.1-.4.3-.3.5.1.1.2.3.4.3zm17-56.6l-1.5 2.1c-.1.2-.1.4.1.6.1.1.2.1.2.1.1 0 .3-.1.3-.2l1.5-2.1 3.6 2.6-1.5 2.1c-.1.2-.1.4.1.6.1.1.2.1.2.1.1 0 .3-.1.3-.2l1.5-2.1.6.5c.4.3.9.4 1.4.4.8 0 1.5-.4 2-1 .4-.5.5-1.2.4-1.8-.1-.6-.5-1.2-1-1.6l-.6-.5 1.8-2.6 1.9 1.3c.2.1.4.1.6-.1.1-.2.1-.4-.1-.6l-1.9-1.3 1.3-1.8c.1-.2.1-.4-.1-.6-.2-.1-.4-.1-.6.1l-1.3 1.8-3.6-2.6 1.3-1.8c.1-.2.1-.4-.1-.6-.2-.1-.4-.1-.6.1l-1.3 1.8-1.3-.9c-.5-.4-1.2-.5-1.8-.4-.6.1-1.2.4-1.6 1-.8 1.1-.5 2.6.6 3.4l1.3.9-1.8 2.6-2.6-1.9c-.2-.1-.4-.1-.6.1-.1.2-.1.4.1.6l2.8 1.9zm7.9.8c.4.2.6.6.7 1 .1.4 0 .8-.3 1.2-.5.7-1.5.9-2.2.4l-.6-.5 1.8-2.6.6.5zm-2.6-6.8l3.6 2.6-1.8 2.6-3.6-2.6 1.8-2.6zm-3.8 1.2c-.7-.5-.9-1.5-.4-2.2.5-.7 1.5-.9 2.2-.4l1.3.9-1.8 2.6-1.3-.9zm1.5 2l3.6 2.6-1.8 2.6-3.6-2.6 1.8-2.6zM25 182.8l-1.6-.4 1.7-3.6c.2-.4.2-.8 0-1.1-.2-.4-.5-.6-.9-.7L0 171.7v.9l24 5.3c.1 0 .2.1.3.2.1.1.1.3 0 .4l-8.7 18.6c-.5 1.1-1.8 1.8-3.1 1.5l-2.9-.6-9.6-2.2v.9l8.7 1.9 3.2.7-.3 1.4c0 .2-.2.4-.4.5-.2.1-.4.2-.6.1L0 199v.9l10.4 2.3h.4c.3 0 .6-.1.9-.3.4-.2.6-.6.7-1l.3-1.5h.4c1.4 0 2.7-.8 3.2-2.1l1.6-3.3 4.3 1c.4.1.9.2 1.4.2 2.9 0 5.5-2.1 6.1-4.9.4-1.6.1-3.3-.8-4.7-.9-1.5-2.2-2.4-3.9-2.8zm-3.2 3l2.4.5c1.4.3 2.3 1.8 2 3.2-.3 1.4-1.7 2.3-3.2 2l-3.6-.8 2.4-4.9zm7.2 4.3c-.5 2.5-2.8 4.3-5.3 4.3-.4 0-.8 0-1.2-.1l-4.2-.9.8-1.8 3.7.8c.3.1.5.1.8.1 1.6 0 3.1-1.1 3.4-2.7.4-1.8-.8-3.7-2.6-4.2l-2.3-.5.5-1.1.4-.8 1.8.4c1.4.3 2.6 1.2 3.4 2.4.8 1.2 1.1 2.7.8 4.1zm32.2-65.9c0 .1.1.2.2.2H61.7l8.5-2.8c.2-.1.3-.3.3-.5l-5.3-16c0-.1-.1-.2-.2-.2s-.2-.1-.3 0l-8.5 2.8c-.2.1-.3.3-.3.5l5.3 16zm3.3-18.5l5.1 15.3-7.7 2.6-5.1-15.3 7.7-2.6zm104.7-65.1h.2c.9 0 1.6-.7 1.7-1.5.1-.9-.6-1.8-1.5-1.9-1-.1-1.8.6-1.9 1.5-.1 1 .6 1.8 1.5 1.9zm.2-2.6s.1 0 0 0c.6.1.9.5.9 1-.1.5-.5.8-1 .8-.5-.1-.8-.5-.8-1 .1-.4.5-.8.9-.8zm-6.5 2h.2c.9 0 1.6-.7 1.7-1.5.1-.9-.6-1.8-1.5-1.9-1-.1-1.8.6-1.9 1.5-.1.9.6 1.7 1.5 1.9zm.2-2.7s.1 0 0 0c.6.1.9.5.9 1-.1.5-.5.9-1 .8-.5-.1-.8-.5-.8-1 .1-.4.4-.8.9-.8zm12.4 4h.2c.9 0 1.6-.7 1.7-1.5.1-.9-.6-1.8-1.5-1.9-1-.1-1.8.6-1.9 1.5 0 .5.1.9.4 1.3.3.3.7.5 1.1.6zm.2-2.6c.1 0 .1 0 0 0 .6.1.9.5.9 1-.1.5-.5.8-1 .8-.2 0-.5-.1-.6-.3-.2-.2-.2-.4-.2-.7.1-.5.5-.8.9-.8zm-35 36.1l21.3 2.3h.5c1 0 2-.4 2.9-1 1-.8 1.5-1.9 1.7-3.1l2.3-21.4 9.7 1h.5c2.5 0 4.6-1.9 4.9-4.4l1.6-15c.3-2.7-1.7-5.1-4.4-5.4l-21.8-2.3c-2.7-.3-5.1 1.7-5.4 4.4l-.3 3-8.9-.9c-1.2-.1-2.4.2-3.4 1s-1.5 1.9-1.7 3.1l-3.6 33.8c-.1 1.2.2 2.4 1 3.4.8.8 1.8 1.4 3.1 1.5zm14.2-41.4l.4-3.5c.2-2.1 2-3.6 4-3.6h.4l21.8 2.3c2.2.2 3.9 2.2 3.6 4.5l-1.6 15c-.2 2.2-2.2 3.9-4.5 3.6l-10-1-6-.6c-.1 0-.3 0-.3.1l-4.4 4.5 1-4.5c0-.1 0-.2-.1-.3-.1-.1-.2-.2-.3-.2l-1.6-.2c-1.1-.1-2.1-.6-2.7-1.5-.7-.8-1-1.9-.9-3l1.2-11.6zm-1 15.1c.8 1 2 1.7 3.3 1.8l1.1.1-1.2 5.5c0 .2 0 .4.2.5h.2c.1 0 .2 0 .3-.1l5.3-5.4 1 .1-1.8 17c0 .3-.2.6-.4.8-.2.2-.5.3-.8.2l-17.7-1.9c-.3 0-.6-.2-.8-.4-.2-.2-.3-.5-.2-.8l2.9-27.5c.1-.6.6-1.1 1.3-1l7.1.8-.7 6.7c-.3 1.3.1 2.6.9 3.6zm-16.5 21.4l3.6-33.8c.1-1 .6-1.9 1.4-2.5.8-.6 1.8-.9 2.7-.8l8.9.9-.4 3.6-7.1-.8c-1.1-.1-2.1.7-2.2 1.8l-2.9 27.5c-.1.5.1 1 .4 1.5.3.4.8.7 1.3.7l17.7 1.9h.2c.5 0 .9-.2 1.2-.4.4-.3.7-.8.7-1.3l1.8-17 3.6.4L166 73c-.1 1-.6 1.9-1.4 2.5-.8.6-1.8.9-2.7.8L140.7 74c-1-.1-1.9-.6-2.5-1.4-.6-.8-.9-1.8-.8-2.7zm-29.7-26.8c-.2 0-.4.2-.4.4l.4 4.7c0 .2.2.4.4.4s.4-.2.4-.4l-.4-4.7c0-.2-.2-.4-.4-.4zm21.7-26.2c1.2 0 2.2 1.7 2.2 3.7 0 .2.1.3.3.3s.3-.1.3-.3c0-2 1-3.7 2.2-3.7.2 0 .3-.1.3-.3s-.1-.3-.3-.3c-1.2 0-2.2-1.7-2.2-3.7 0-.2-.1-.3-.3-.3s-.3.1-.3.3c0 2-1 3.7-2.2 3.7-.2 0-.3.1-.3.3s.1.3.3.3zm2.5-2.4c.3.9.8 1.7 1.4 2.1-.6.4-1.1 1.1-1.4 2.1-.3-.9-.8-1.7-1.4-2.1.6-.4 1.1-1.1 1.4-2.1zm67 59.9c0-.1-.1-.2-.2-.2l-6.3-3.1c-.2-.1-.5 0-.6.2L185 84.8c0 .1-.1.2 0 .3 0 .1.1.2.2.2l6.3 3.1h.2c.2 0 .3-.1.4-.2l6.8-13.5c.1-.1.1-.2 0-.3zm-7.3 13l-5.5-2.8 6.4-12.8 5.5 2.8-6.4 12.8zM21.4 220.7l-.4.1-.3-1.9 1.4-.2c.2 0 .4-.3.3-.5 0-.2-.2-.4-.5-.3l-1.4.2-.2-1.4c0-.2-.3-.4-.5-.3-.2 0-.4.3-.3.5l.2 1.4-2.7.5-.2-1.4c0-.2-.3-.4-.5-.3-.2 0-.4.3-.3.5l.2 1.4-.9.2c-.5.1-.9.3-1.2.7-.3.4-.4.9-.3 1.3.1.9.9 1.5 1.8 1.5h.3l.9-.2.3 1.9-2 .3c-.2 0-.4.3-.3.5 0 .2.2.3.4.3h.1l2-.3.3 1.6c0 .2.2.3.4.3h.1c.2 0 .4-.3.3-.5l-.3-1.6 2.7-.5.3 1.6c0 .2.2.3.4.3h.1c.2 0 .4-.3.3-.5l-.3-1.6.4-.1c1-.2 1.6-1.1 1.5-2.1-.2-.9-1.1-1.6-2.1-1.4zm-5.6.9c-.5.1-1-.3-1.1-.8 0-.2 0-.5.2-.7.1-.2.4-.3.6-.4l.9-.2.3 1.9-.9.2zm1.7-.3l-.3-1.9 2.7-.5.3 1.9-2.7.5zm.4 2.7l-.3-1.9 2.7-.5.3 1.9-2.7.5zm4-.6l-.4.1-.3-1.9.4-.1c.5-.1 1 .3 1.1.8.1.5-.3 1-.8 1.1zm26.5-78.8c-.3-.1-.7-.2-1.1-.2-.3 0-.7.1-1 .2-1.6.5-2.5 2.3-2 4 .4 1.3 1.6 2.1 3 2.1.3 0 .7-.1 1-.2 1.6-.5 2.5-2.3 2-4-.2-.6-.6-1.2-1.1-1.5l4.6-8.4 3.2-1 1.7 5c-.6.3-1.1.8-1.4 1.4-.4.7-.4 1.6-.2 2.4.4 1.3 1.6 2.1 3 2.1.3 0 .7-.1 1-.2 1.6-.5 2.5-2.3 2-4-.4-1.3-1.6-2.1-3-2.1-.2 0-.4 0-.6.1l-1.7-5 3.2-1 8.7 4c-.2.6-.2 1.3 0 1.9.4 1.3 1.6 2.1 3 2.1.3 0 .7-.1 1-.2 1.6-.5 2.5-2.3 2-4-.4-1.3-1.6-2.1-3-2.1-.3 0-.7.1-1 .2-.7.2-1.3.7-1.6 1.3l-7.9-3.6 17.7-5.9c.8-.3 1.3-1.2 1-2l-.9-2.8c-.1-.4-.4-.7-.8-.9-.4-.2-.8-.2-1.2-.1l-1.5.5L68 98.1l1.5-.5c.8-.3 1.3-1.2 1-2l-.9-2.8c-.3-.8-1.2-1.3-2-1l-44.8 14.9c-.4.1-.7.4-.9.8-.2.4-.2.8-.1 1.2l.9 2.8c.2.6.8 1.1 1.5 1.1.2 0 .3 0 .5-.1l1.5-.5 8.2 24.6-1.5.5c-.8.3-1.3 1.2-1 2l.9 2.8c.1.4.4.7.8.9.2.1.5.2.7.2.2 0 .3 0 .5-.1l17.7-5.9-4.1 7.6zm1 2.2c.4 1.2-.3 2.5-1.5 2.9-1.2.4-2.5-.3-2.9-1.5-.4-1.2.3-2.5 1.5-2.9.2-.1.5-.1.7-.1 1 0 1.9.7 2.2 1.6zm10.4-5.7c1 0 1.9.6 2.2 1.6.4 1.2-.3 2.5-1.5 2.9-.2.1-.5.1-.7.1-1 0-1.9-.6-2.2-1.6-.2-.6-.1-1.2.1-1.8.3-.5.7-1 1.3-1.1.3-.1.6-.1.8-.1zm10.6-3c.3-.5.7-1 1.3-1.1.2-.1.5-.1.7-.1 1 0 1.9.6 2.2 1.6.4 1.2-.3 2.5-1.5 2.9-1.2.4-2.5-.3-2.9-1.5-.2-.6-.1-1.2.2-1.8zm-44.1-27l-1.9.6c-.4.1-.8-.1-1-.5l-.9-2.8c-.1-.2 0-.4 0-.6.1-.2.2-.3.4-.4l44.8-14.9h.2c.3 0 .6.2.7.5l.9 2.8c.1.4-.1.8-.5 1l-40.6 13.5-2.1.8zm.7.7l40.2-13.4 8.2 24.6-40.2 13.4-8.2-24.6zm7.5 30.3h-.2c-.1 0-.2 0-.3-.1-.2-.1-.3-.2-.4-.4l-.9-2.8c-.1-.4.1-.8.5-1l1.9-.6 41-13.6 1.9-.6h.2c.1 0 .2 0 .3.1.2.1.3.2.4.4l.9 2.8c.1.4-.1.8-.5 1l-22.4 7.5-22.4 7.3zm153-67.9l-6.3-3.1c-.1 0-.2-.1-.3 0-.1 0-.2.1-.2.2l-4.5 8.9c-.1.2 0 .5.2.6l6.3 3.1h.2c.2 0 .3-.1.4-.2l4.5-8.9c0-.3-.1-.5-.3-.6zm-4.8 8.7l-5.5-2.8 4.1-8.2 5.5 2.8-4.1 8.2zm-31.1-9.2h.2c.9 0 1.7-.7 1.8-1.6.1-1-.6-1.9-1.6-2-1-.1-1.9.6-2 1.6-.1 1 .6 1.9 1.6 2zm.1-2.7h.1c.5.1.9.5.8 1-.1.5-.5.9-1 .8-.3 0-.5-.1-.6-.3-.2-.2-.2-.4-.2-.7.1-.5.5-.8.9-.8zM196 42.8c0 .1.1.2.2.2.3.7.8 1.2 1.5 1.6.6.4 1.4.6 2.1.6.3 0 .6 0 1-.1l36-8.7c2.2-.5 3.5-2.7 3-4.9l-5.5-23c-.1-.2-.3-.4-.5-.3L227 9.9l-1.1-4.6c0-.1-.1-.2-.2-.3-.1-.1-.2-.1-.3 0l-36 8.7c-.2.1-.4.3-.3.5l6.9 28.6zm37.4-33.6l5.2 21.7.2.9c.4 1.7-.6 3.4-2.3 3.8-1.7.4-3.4-.6-3.8-2.4l-5.4-22.5 6.1-1.5zm-8.2-3.3l6.7 27.6c.3 1.2 1.2 2.2 2.3 2.7l-33.6 8.1c-.8.2-1.7.1-2.4-.4-.6-.3-1-.8-1.2-1.4l-.2-.6-6.8-27.5 35.2-8.5zm-188 126.6H37.5l8.5-2.8c.2-.1.3-.3.3-.5l-4-12.1c0-.1-.1-.2-.2-.2s-.2-.1-.3 0l-8.5 2.8c-.2.1-.3.3-.3.5l4 12.1.2.2zm4.4-14.8l3.8 11.3-7.7 2.6-3.8-11.3 7.7-2.6zm165.3-37.5l-6.3-3.1c-.2-.1-.5 0-.6.2l-5.9 11.9c0 .1-.1.2 0 .3 0 .1.1.2.2.2l6.3 3.1h.2c.2 0 .3-.1.4-.2l5.9-11.9c0-.1.1-.2 0-.3-.1 0-.1-.1-.2-.2zm-6.3 11.7l-5.5-2.8 5.6-11.1 5.5 2.8-5.6 11.1zm12.8-12.8c.2.1.4.1.6.1.5 0 1-.3 1.2-.7l1-2.1c.2-.3.2-.7.1-1-.1-.3-.3-.6-.7-.8L182.5 58c-.6-.3-1.5 0-1.8.6l-1 2.1c-.2.3-.2.7-.1 1 .1.3.3.6.7.8l1 .5-9 18-1.1-.5c-.6-.3-1.5 0-1.8.6l-1 2.1c-.2.3-.2.7-.1 1 .1.3.4.6.7.8l12.9 6.5-6.2 1.8c-.2-.5-.6-.9-1.1-1.2-.4-.2-.7-.3-1.1-.3-1 0-1.8.5-2.3 1.4-.6 1.3-.1 2.8 1.1 3.4.4.2.7.3 1.1.3 1 0 1.8-.5 2.3-1.4.2-.5.3-1 .2-1.4L183 92l2.2 1.1-1.8 3.5c-.2-.1-.5-.1-.7-.1-1 0-1.8.5-2.3 1.4-.6 1.3-.1 2.8 1.1 3.4.4.2.7.3 1.1.3 1 0 1.8-.5 2.3-1.4.6-1.1.2-2.5-.8-3.2l1.8-3.5 2.2 1.1 2.6 6.9c-.4.2-.8.6-1 1.1-.3.6-.4 1.3-.1 1.9.2.6.7 1.2 1.3 1.5.4.2.7.3 1.1.3 1 0 1.8-.5 2.3-1.4.6-1.3.1-2.8-1.1-3.4-.4-.2-.7-.3-1.1-.3-.2 0-.3 0-.5.1l-2.3-6.1 12.9 6.5c.2.1.4.1.6.1.5 0 1-.3 1.2-.7l1-2.1c.2-.3.2-.7.1-1-.1-.3-.3-.6-.7-.8l-1.1-.5 9-18 1.1.4zm-38.4 16c-.4.8-1.5 1.2-2.3.8-.8-.4-1.2-1.5-.8-2.3.3-.6.9-.9 1.5-.9.3 0 .5.1.8.2.9.4 1.2 1.4.8 2.2zm9.3 4.7c-.4.8-1.5 1.2-2.3.8-.8-.4-1.2-1.5-.8-2.3.3-.6.9-.9 1.5-.9.3 0 .5.1.8.2.9.3 1.2 1.4.8 2.2zm7.8 2.2c.3 0 .5.1.8.2.8.4 1.2 1.5.8 2.3-.4.8-1.5 1.2-2.3.8-.4-.2-.7-.6-.9-1-.1-.4-.1-.9.1-1.3.2-.7.8-1 1.5-1zm-11.4-40.2l-.3-.3v-.4l1-2.1c.1-.2.3-.3.4-.3.1 0 .2 0 .2.1l33.1 16.6.3.3v.4l-1 2.1c-.1.2-.4.3-.7.2l-1.4-.7L182 62.5l-1.3-.7zm23.4 36.1l.3.3v.4l-1 2.1c-.1.2-.3.3-.4.3-.1 0-.2 0-.2-.1L189 94l-19.3-9.7-.3-.3v-.4l1-2.1c.1-.2.3-.3.4-.3.1 0 .2 0 .2.1l1.4.7 30.3 15.2 1.4.7zm-1.5-1.7L173 81.4l9-18 28.4 14.2 1.2.6-9 18z"/></svg>