<svg width="24" height="24" viewBox="0 0 24 24" fill="none" xmlns="http://www.w3.org/2000/svg">
	<path fill-rule="evenodd" clip-rule="evenodd" d="M13.6632 12.0003L17.5539 15.891C17.7882 16.1253 17.7882 16.5052 17.5539 16.7395L16.7395 17.5539C16.5052 17.7882 16.1253 17.7882 15.891 17.5539L12.0003 13.6632L8.10964 17.5539C7.87533 17.7882 7.49543 17.7882 7.26112 17.5539L6.44673 16.7395C6.21241 16.5052 6.21241 16.1253 6.44673 15.891L10.3374 12.0003L6.44672 8.10964C6.21241 7.87533 6.21241 7.49543 6.44673 7.26112L7.26112 6.44673C7.49543 6.21241 7.87533 6.21241 8.10964 6.44673L12.0003 10.3374L15.891 6.44673C16.1253 6.21241 16.5052 6.21241 16.7395 6.44673L17.5539 7.26112C17.7882 7.49543 17.7882 7.87533 17.5539 8.10964L13.6632 12.0003Z" fill="#525C69"/>
</svg>