<svg width="103" height="68" viewBox="0 0 103 68" fill="none" xmlns="http://www.w3.org/2000/svg">
<g clip-path="url(#clip0_7990_717214)">
<g clip-path="url(#clip1_7990_717214)">
<g clip-path="url(#clip2_7990_717214)">
<path opacity="0.6" fill-rule="evenodd" clip-rule="evenodd" d="M71.4129 77.4323H-8.23994C-8.91057 77.4323 -9.57542 77.4068 -10.2336 77.3567C-27.9468 76.9412 -42.1807 62.0194 -42.1816 43.6734C-42.1765 34.7314 -38.7235 26.1578 -32.5822 19.8387C-29.4342 16.5995 -25.7121 14.0888 -21.6626 12.4114C-21.7303 11.5015 -21.7648 10.582 -21.7648 9.65424C-21.7592 0.219204 -18.1157 -8.82711 -11.6356 -15.4946C-5.15556 -22.1621 3.63012 -25.9047 12.7887 -25.8989C24.5206 -25.8842 37.4327 -19.8404 43.6576 -10.6157C46.6137 -11.6946 49.7958 -12.2811 53.111 -12.2793C67.7557 -12.2611 79.7839 -0.760515 81.1782 13.9468C95.2104 17.0983 103.157 29.9766 103.145 45.3741C103.13 63.1183 90.4365 77.493 73.2121 77.4857C72.6082 77.4854 72.0083 77.4675 71.4129 77.4323Z" fill="#C3F0FF"/>
<path opacity="0.3" fill-rule="evenodd" clip-rule="evenodd" d="M7.16828 4.64933C7.16828 3.33433 8.32509 2.26807 9.75214 2.26807C10.7896 2.26807 11.6778 2.83532 12.0895 3.64905C12.419 3.53757 12.7698 3.46704 13.1412 3.46704C14.7855 3.46704 16.1162 4.66374 16.192 6.1615C16.2553 6.15695 16.3169 6.14406 16.3817 6.14406C17.7171 6.14406 18.7988 7.14358 18.7988 8.37668C18.7988 9.61054 17.7171 10.6101 16.3817 10.6101C16.1676 10.6101 15.4469 10.6101 15.2739 10.6101H8.74862C8.61429 10.6101 7.99717 10.6101 7.80753 10.6101C6.02253 10.6101 4.57572 9.27989 4.57572 7.63804C4.57572 6.19563 5.69382 4.99514 7.17697 4.72516C7.17618 4.69938 7.16828 4.67511 7.16828 4.64933Z" fill="white"/>
<path opacity="0.3" fill-rule="evenodd" clip-rule="evenodd" d="M90.0002 25.0679C90.0002 24.0724 89.1219 23.2651 88.0385 23.2651C87.2508 23.2651 86.5765 23.6946 86.2639 24.3106C86.0137 24.2262 85.7474 24.1729 85.4654 24.1729C84.2169 24.1729 83.2067 25.0788 83.1491 26.2128C83.1011 26.2093 83.0543 26.1996 83.0051 26.1996C81.9912 26.1996 81.1699 26.9563 81.1699 27.8898C81.1699 28.824 81.9912 29.5807 83.0051 29.5807C83.1677 29.5807 83.7148 29.5807 83.8462 29.5807H88.8004C88.9024 29.5807 89.3709 29.5807 89.5149 29.5807C90.8701 29.5807 91.9686 28.5736 91.9686 27.3306C91.9686 26.2386 91.1197 25.3297 89.9936 25.1254C89.9942 25.1058 90.0002 25.0875 90.0002 25.0679Z" fill="white"/>
</g>
<g opacity="0.8" filter="url(#filter0_d_7990_717214)">
<path fill-rule="evenodd" clip-rule="evenodd" d="M67.2855 64.4936H24.9385C24.5762 64.4936 24.217 64.4809 23.8613 64.4558C14.2908 64.248 7.21728 56.7855 7.2168 47.6106C7.21958 43.1387 9.24257 39.1376 12.1851 35.6375C13.5917 33.9644 14.6104 32.8616 16.6674 31.8555C16.6308 31.4004 16.6121 30.9406 16.6121 30.4766C16.6152 25.7581 18.5838 21.234 22.085 17.8995C25.5862 14.5651 30.3332 12.6934 35.2817 12.6963C41.6205 12.7037 47.1493 15.9741 50.5126 20.5875C52.727 20.0479 55.4652 19.8754 57.2564 19.8763C65.169 19.8854 71.6679 25.6369 72.4213 32.9921C80.003 34.5682 85.1271 40.7607 85.1204 48.4611C85.1127 57.3351 77.5641 64.524 68.2577 64.5203C67.9314 64.5202 67.6072 64.5112 67.2855 64.4936Z" fill="url(#paint0_linear_7990_717214)" shape-rendering="crispEdges"/>
</g>
<g filter="url(#filter1_d_7990_717214)">
<path d="M23.1797 8.09462C23.1797 6.79649 24.2429 5.74414 25.5545 5.74414H65.3506C67.0994 5.74414 68.517 7.14727 68.517 8.87811V14.6182C68.517 16.349 67.0994 17.7521 65.3506 17.7521H25.5551C24.2432 17.7521 23.1797 16.6995 23.1797 15.4011V8.09462Z" fill="white"/>
</g>
<path d="M49.4714 11.748C49.4714 9.40674 47.5559 7.52197 45.2093 7.52197C42.8628 7.52197 40.9473 9.40674 40.9473 11.748C40.9473 14.0892 42.8628 15.974 45.2093 15.974C47.5559 15.974 49.4714 14.0892 49.4714 11.748Z" fill="#FF706B" stroke="white" stroke-width="1.5"/>
<path d="M44.3639 11.748C44.3639 9.40674 42.4484 7.52197 40.1019 7.52197C37.7553 7.52197 35.8398 9.40674 35.8398 11.748C35.8398 14.0892 37.7553 15.974 40.1019 15.974C42.4484 15.974 44.3639 14.0892 44.3639 11.748Z" fill="#FFA900" stroke="white" stroke-width="1.5"/>
<path d="M39.2546 11.748C39.2546 9.40674 37.3391 7.52197 34.9925 7.52197C32.646 7.52197 30.7305 9.40674 30.7305 11.748C30.7305 14.0892 32.646 15.974 34.9925 15.974C37.3391 15.974 39.2546 14.0892 39.2546 11.748Z" fill="#9DCF00" stroke="white" stroke-width="1.5"/>
<path d="M34.1471 11.748C34.1471 9.40674 32.2316 7.52197 29.8851 7.52197C27.5385 7.52197 25.623 9.40674 25.623 11.748C25.623 14.0892 27.5385 15.974 29.8851 15.974C32.2316 15.974 34.1471 14.0892 34.1471 11.748Z" fill="#2FC6F6" stroke="white" stroke-width="1.5"/>
<rect opacity="0.4" x="52.5527" y="10.8003" width="11.494" height="1.896" rx="0.947999" fill="#A8ADB4"/>
<g filter="url(#filter2_d_7990_717214)">
<ellipse cx="46.1683" cy="40.5039" rx="19.1566" ry="18.96" fill="white"/>
</g>
<g opacity="0.8">
<path fill-rule="evenodd" clip-rule="evenodd" d="M37.8679 30.9185H43.402C44.1662 30.9185 44.7856 31.5315 44.7856 32.2878V37.7651C44.7856 38.5214 44.1662 39.1345 43.402 39.1345H37.8679C37.1038 39.1345 36.4844 38.5214 36.4844 37.7651V32.2878C36.4844 31.5315 37.1038 30.9185 37.8679 30.9185ZM37.8679 41.8731H43.402C44.1662 41.8731 44.7856 42.4862 44.7856 43.2425V48.7198C44.7856 49.4761 44.1662 50.0891 43.402 50.0891H37.8679C37.1038 50.0891 36.4844 49.4761 36.4844 48.7198V43.2425C36.4844 42.4862 37.1038 41.8731 37.8679 41.8731ZM49.6279 32.9725V37.0805H53.7786V32.9725H49.6279ZM48.9362 30.9185H54.4703C55.2344 30.9185 55.8539 31.5315 55.8539 32.2878V37.7651C55.8539 38.5214 55.2344 39.1345 54.4703 39.1345H48.9362C48.1721 39.1345 47.5526 38.5214 47.5526 37.7651V32.2878C47.5526 31.5315 48.1721 30.9185 48.9362 30.9185ZM48.9362 41.8731H54.4703C55.2344 41.8731 55.8539 42.4862 55.8539 43.2425V48.7198C55.8539 49.4761 55.2344 50.0891 54.4703 50.0891H48.9362C48.1721 50.0891 47.5526 49.4761 47.5526 48.7198V43.2425C47.5526 42.4862 48.1721 41.8731 48.9362 41.8731Z" fill="#00ACE3"/>
</g>
</g>
</g>
<defs>
<filter id="filter0_d_7990_717214" x="3.2168" y="10.6963" width="85.9043" height="59.8242" filterUnits="userSpaceOnUse" color-interpolation-filters="sRGB">
<feFlood flood-opacity="0" result="BackgroundImageFix"/>
<feColorMatrix in="SourceAlpha" type="matrix" values="0 0 0 0 0 0 0 0 0 0 0 0 0 0 0 0 0 0 127 0" result="hardAlpha"/>
<feOffset dy="2"/>
<feGaussianBlur stdDeviation="2"/>
<feComposite in2="hardAlpha" operator="out"/>
<feColorMatrix type="matrix" values="0 0 0 0 0.025382 0 0 0 0 0.275095 0 0 0 0 0.358333 0 0 0 0.06 0"/>
<feBlend mode="normal" in2="BackgroundImageFix" result="effect1_dropShadow_7990_717214"/>
<feBlend mode="normal" in="SourceGraphic" in2="effect1_dropShadow_7990_717214" result="shape"/>
</filter>
<filter id="filter1_d_7990_717214" x="18.6496" y="2.91286" width="54.398" height="21.0679" filterUnits="userSpaceOnUse" color-interpolation-filters="sRGB">
<feFlood flood-opacity="0" result="BackgroundImageFix"/>
<feColorMatrix in="SourceAlpha" type="matrix" values="0 0 0 0 0 0 0 0 0 0 0 0 0 0 0 0 0 0 127 0" result="hardAlpha"/>
<feOffset dy="1.69877"/>
<feGaussianBlur stdDeviation="2.26503"/>
<feComposite in2="hardAlpha" operator="out"/>
<feColorMatrix type="matrix" values="0 0 0 0 0.423529 0 0 0 0 0.423529 0 0 0 0 0.423529 0 0 0 0.1 0"/>
<feBlend mode="normal" in2="BackgroundImageFix" result="effect1_dropShadow_7990_717214"/>
<feBlend mode="normal" in="SourceGraphic" in2="effect1_dropShadow_7990_717214" result="shape"/>
</filter>
<filter id="filter2_d_7990_717214" x="19.9373" y="16.8277" width="52.4613" height="52.0687" filterUnits="userSpaceOnUse" color-interpolation-filters="sRGB">
<feFlood flood-opacity="0" result="BackgroundImageFix"/>
<feColorMatrix in="SourceAlpha" type="matrix" values="0 0 0 0 0 0 0 0 0 0 0 0 0 0 0 0 0 0 127 0" result="hardAlpha"/>
<feOffset dy="2.35813"/>
<feGaussianBlur stdDeviation="3.5372"/>
<feComposite in2="hardAlpha" operator="out"/>
<feColorMatrix type="matrix" values="0 0 0 0 0.423529 0 0 0 0 0.423529 0 0 0 0 0.423529 0 0 0 0.12 0"/>
<feBlend mode="normal" in2="BackgroundImageFix" result="effect1_dropShadow_7990_717214"/>
<feBlend mode="normal" in="SourceGraphic" in2="effect1_dropShadow_7990_717214" result="shape"/>
</filter>
<linearGradient id="paint0_linear_7990_717214" x1="45.86" y1="22.4945" x2="45.86" y2="64.5203" gradientUnits="userSpaceOnUse">
<stop stop-color="white" stop-opacity="0.4"/>
<stop offset="1" stop-color="white" stop-opacity="0.8"/>
</linearGradient>
<clipPath id="clip0_7990_717214">
<rect width="103" height="68" fill="white"/>
</clipPath>
<clipPath id="clip1_7990_717214">
<rect width="106" height="79" fill="white" transform="translate(-3 -5)"/>
</clipPath>
<clipPath id="clip2_7990_717214">
<rect width="146.229" height="104.28" fill="white" transform="translate(-42.5898 -26.4878)"/>
</clipPath>
</defs>
</svg>
