<svg xmlns:xlink="http://www.w3.org/1999/xlink" xmlns="http://www.w3.org/2000/svg" viewBox="0 0 1200 100%" preserveAspectRatio="xMinYMin meet" style="width:100%;height:1200px"><svg height="1200"><rect fill="#EBF1F4" width="100%" height="1200"/><rect fill="#fff" width="100%" height="67"/><path fill="#fff" d="M0 0h257v1200H0z"/></svg><svg height="1200" width="80%" x="257" y="67"><defs><rect fill="#fff" rx="10" ry="10" width="351" height="78" x="45" id="a"/><rect fill="#fff" rx="10" ry="10" width="516" height="78" x="45" id="b"/><rect fill="#fff" rx="10" ry="10" width="295" height="61" x="45" id="c"/></defs><use xlink:href="#a" y="57" x="57"/><use xlink:href="#b" y="142" x="57"/><use xlink:href="#c" y="230" x="57"/><use xlink:href="#c" y="344" x="57"/><use xlink:href="#c" y="415" x="57"/><use xlink:href="#c" y="487" x="57"/><use xlink:href="#c" y="595" x="57"/><use xlink:href="#c" y="667" x="57"/><use xlink:href="#c" y="739" x="57"/><use xlink:href="#c" y="811" x="57"/></svg><svg height="1200" width="80%" id="n" x="257" y="67"><defs><g id="d" fill="#DEE2E7"><circle cx="17" cy="17" r="17"/><rect rx="2" ry="2" width="315" height="7" x="59" y="12"/><rect rx="2" ry="2" width="315" height="7" x="59" y="27"/><rect rx="2" ry="2" width="315" height="7" x="59" y="42"/><rect rx="2" ry="2" width="149" height="7" x="59" y="57"/></g><g id="e" fill="#DEE2E7"><circle cx="17" cy="17" r="17"/><rect rx="2" ry="2" width="479" height="7" x="59" y="12"/><rect rx="2" ry="2" width="479" height="7" x="59" y="27"/><rect rx="2" ry="2" width="479" height="7" x="59" y="42"/><rect rx="2" ry="2" width="149" height="7" x="59" y="57"/></g><g id="f" fill="#DEE2E7"><circle cx="17" cy="17" r="17"/><rect rx="2" ry="2" width="266" height="7" x="59" y="12"/><rect rx="2" ry="2" width="266" height="7" x="59" y="27"/><rect rx="2" ry="2" width="149" height="7" x="59" y="42"/></g></defs><rect fill="#DEE2E7" rx="14" ry="14" width="200" height="28" x="50%" y="13" transform="translate(-150)"/><use xlink:href="#d" y="57" x="57"/><use xlink:href="#e" y="142" x="57"/><use xlink:href="#f" y="230" x="57"/><rect fill="#DEE2E7" rx="14" ry="14" width="200" height="28" x="50%" y="301" transform="translate(-150)"/><use xlink:href="#f" y="344" x="57"/><use xlink:href="#f" y="415" x="57"/><use xlink:href="#f" y="487" x="57"/><rect fill="#DEE2E7" rx="14" ry="14" width="200" height="28" x="50%" y="558" transform="translate(-150)"/><use xlink:href="#f" y="595" x="57"/><use xlink:href="#f" y="667" x="57"/><use xlink:href="#f" y="739" x="57"/><use xlink:href="#f" y="811" x="57"/></svg><svg id="o" x="-43"><defs><g id="g" fill="#DEE2E7"><circle cx="17" cy="17" r="17"/><rect rx="2" ry="2" width="119" height="8" x="44" y="5"/><rect rx="2" ry="2" width="79" height="7" x="44" y="21"/></g><g id="h"><rect fill="#DEE2E7" rx="2" ry="2" width="80" height="6"/><use xlink:href="#g" y="22"/><use xlink:href="#g" y="68"/><use xlink:href="#g" y="114"/></g><g id="i"><rect fill="#DEE2E7" rx="2" ry="2" width="80" height="6"/><use xlink:href="#g" y="22"/><use xlink:href="#g" y="68"/></g></defs><rect fill="#DEE2E7" rx="2" ry="2" width="15" height="15" x="59" y="17"/><rect fill="#DEE2E7" rx="2" ry="2" width="52" height="7" x="86" y="22"/><rect fill="#DEE2E7" rx="2" ry="2" width="15" height="15" x="268" y="17"/><use xlink:href="#g" y="58" x="57"/><use xlink:href="#h" y="106" x="57"/><use xlink:href="#h" y="272" x="57"/><use xlink:href="#i" y="434" x="57"/><use xlink:href="#i" y="550" x="57"/><use xlink:href="#i" y="666" x="57"/><use xlink:href="#h" y="782" x="57"/><rect fill="#DEE2E7" rx="0" ry="0" width="1" height="1200" x="299"/></svg><svg id="q" x="257"><defs><g id="j" fill="#DEE2E7"><circle cx="17" cy="17" r="17"/><rect rx="2" ry="2" width="152" height="8" x="44"/><circle cx="57" cy="28" r="13"/><rect rx="2" ry="2" width="97" height="8" x="79" y="25"/><circle cx="202" cy="28" r="13"/><rect rx="2" ry="2" width="97" height="8" x="220" y="25"/></g></defs><use xlink:href="#j" x="16" y="16"/><rect fill="#DEE2E7" rx="0" ry="0" width="100%" height="1" y="67"/></svg><svg id="p"><defs><g id="k" fill="#DEE2E7"><path d="M13 26C5.82 26 0 20.18 0 13S5.82 0 13 0h112c7.18 0 13 5.82 13 13s-5.82 13-13 13H13zM125 2h-11.068A12.99 12.99 0 0 1 120 13a12.99 12.99 0 0 1-6.07 11H125c6.075 0 11-4.925 11-11s-4.925-11-11-11z"/><rect rx="13" ry="13" width="104" height="26" x="155"/><circle cx="285" cy="13" r="16"/></g></defs><use fill="red" xlink:href="#k" width="285" y="25" x="100%" transform="translate(-310)"/></svg><rect id="r" width="100%" fill="url(#l)" mask="url(#m)" height="1200"/><mask id="m" fill="#fff"><use xlink:href="#n"/><use xlink:href="#menu"/><use xlink:href="#o"/><use xlink:href="#p"/><use xlink:href="#q"/></mask><linearGradient x1="66.6%" y1="50%" x2="33.3%" y2="50%" id="l"><stop stop-opacity="0" offset="0%"/><stop stop-opacity=".07" offset="50%"/><stop stop-opacity="0" offset="100%"/></linearGradient><animate xlink:href="#r" attributeName="x" from="-100%" to="100%" dur="1s" begin="0s" repeatCount="indefinite"/></svg>