<svg xmlns:xlink="http://www.w3.org/1999/xlink" id="svg_wrapper" xmlns="http://www.w3.org/2000/svg"  viewBox="0 0 1200 100%" preserveAspectRatio="xMinYMin meet" style="width: 100%; height: 1200px">
    <svg height="1200px">
        <rect fill="#EBF1F4" width="100%" height="1200"/>
        <rect fill="#fff"    width="100%" height="67" x="0" y="0"/>
    </svg>

    <svg height="1200px"  width="100%" id="postBg" x="0" y="67">
        <defs>
            <g id="messageBg4">
                <rect fill="#fff" rx="10" ry="10" width="351" height="78" x="45" y="0"/>
            </g>
            <g id="messageBg4long">
                <rect fill="#fff" rx="10" ry="10" width="516" height="78" x="45" y="0"/>
            </g>
            <g id="messageBg3">
                <rect fill="#fff" rx="10" ry="10" width="295" height="61" x="45" y="0"/>
            </g>
        </defs>
        <use xlink:href="#messageBg4" y="57" x="57"/>
        <use xlink:href="#messageBg4long" y="142" x="57"/>
        <use xlink:href="#messageBg3" y="230" x="57"/>
        <use xlink:href="#messageBg3" y="344" x="57"/>
        <use xlink:href="#messageBg3" y="415" x="57"/>
        <use xlink:href="#messageBg3" y="487" x="57"/>
        <use xlink:href="#messageBg3" y="595" x="57"/>
        <use xlink:href="#messageBg3" y="667" x="57"/>
        <use xlink:href="#messageBg3" y="739" x="57"/>
        <use xlink:href="#messageBg3" y="811" x="57"/>
    </svg>

    <svg height="1200px"  width="100%" id="messages" x="0" y="67">
        <defs>
            <g id="messageContent4">
                <circle cx="17" cy="17" r="17" fill="#DEE2E7"/>
                <rect fill="#DEE2E7" rx="2" ry="2" width="315" height="7" x="59" y="12"/>
                <rect fill="#DEE2E7" rx="2" ry="2" width="315" height="7" x="59" y="27"/>
                <rect fill="#DEE2E7" rx="2" ry="2" width="315" height="7" x="59" y="42"/>
                <rect fill="#DEE2E7" rx="2" ry="2" width="149" height="7" x="59" y="57"/>
            </g>
            <g id="messageContent4long">
                <circle cx="17" cy="17" r="17" fill="#DEE2E7"/>
                <rect fill="#DEE2E7" rx="2" ry="2" width="479" height="7" x="59" y="12"/>
                <rect fill="#DEE2E7" rx="2" ry="2" width="479" height="7" x="59" y="27"/>
                <rect fill="#DEE2E7" rx="2" ry="2" width="479" height="7" x="59" y="42"/>
                <rect fill="#DEE2E7" rx="2" ry="2" width="149" height="7" x="59" y="57"/>
            </g>
            <g id="messageContent3">
                <circle cx="17" cy="17" r="17" fill="#DEE2E7"/>
                <rect fill="#DEE2E7" rx="2" ry="2" width="266" height="7" x="59" y="12"/>
                <rect fill="#DEE2E7" rx="2" ry="2" width="266" height="7" x="59" y="27"/>
                <rect fill="#DEE2E7" rx="2" ry="2" width="149" height="7" x="59" y="42"/>
            </g>
        </defs>
        <rect fill="#DEE2E7" rx="14" ry="14" width="200" height="28" x="50%" y="13" transform="translate(-100, 0)"/>
        <use xlink:href="#messageContent4" y="57" x="57"/>
        <use xlink:href="#messageContent4long" y="142" x="57"/>
        <use xlink:href="#messageContent3" y="230" x="57"/>
        <rect fill="#DEE2E7" rx="14" ry="14" width="200" height="28" x="50%" y="301" transform="translate(-100, 0)"/>
        <use xlink:href="#messageContent3" y="344" x="57"/>
        <use xlink:href="#messageContent3" y="415" x="57"/>
        <use xlink:href="#messageContent3" y="487" x="57"/>
        <rect fill="#DEE2E7" rx="14" ry="14" width="200" height="28" x="50%" y="558" transform="translate(-100, 0)"/>
        <use xlink:href="#messageContent3" y="595" x="57"/>
        <use xlink:href="#messageContent3" y="667" x="57"/>
        <use xlink:href="#messageContent3" y="739" x="57"/>
        <use xlink:href="#messageContent3" y="811" x="57"/>
    </svg>

    <svg id="topNav" width="100%" x="0" y="0">
        <defs>
            <g id="topNavUsers">
                <circle cx="17" cy="17" r="17" fill="#DEE2E7"/>
                <circle cx="50" cy="6" r="6" fill="#DEE2E7"/>
                <rect fill="#DEE2E7" rx="2" ry="2" width="152" height="8" x="68" y="2"/>
                <circle cx="55" cy="28" r="13" fill="#DEE2E7"/>
                <rect fill="#DEE2E7" rx="2" ry="2" width="97" height="8" x="79" y="25   "/>
                <circle cx="202" cy="28" r="13" fill="#DEE2E7"/>
                <rect fill="#DEE2E7" rx="2" ry="2" width="97" height="8" x="220" y="25   "/>
            </g>
        </defs>
        <use xlink:href="#topNavUsers" x="16" y="16" />
        <rect fill="#DEE2E7" rx="0" ry="0" width="100%" height="1" x="0" y="67"/>
    </svg>

    <svg id="topRightBtn" x="0" y="0">
        <defs>
            <g id="topRightMenu">
                <circle cx="13" cy="13" r="13" fill="#DEE2E7"/>
                <circle cx="48" cy="13" r="13" fill="#DEE2E7"/>
                <circle cx="83" cy="13" r="13" fill="#DEE2E7"/>
                <circle cx="118" cy="13" r="13" fill="#DEE2E7"/>
            </g>
        </defs>
        <use fill="#f00" xlink:href="#topRightMenu" width="131" y="25" x="100%" transform="translate(-146, 0)"/>
    </svg>

    <rect id="msk1" width="100%" fill="url(#msk_gd)" mask="url(#mask)" height="1200"/>

    <mask id="mask" fill="white">
        <use xlink:href="#messages"/>
        <use xlink:href="#topRightBtn"/>
        <use xlink:href="#topNav"/>
    </mask>

    <linearGradient x1="66.6%" y1="50%" x2="33.3%" y2="50%" id="msk_gd">
        <stop stop-color="#000" stop-opacity="0" offset="0%"/>
        <stop stop-color="#000" stop-opacity="0.07" offset="50%"/>
        <stop stop-color="#000" stop-opacity="0" offset="100%"/>
    </linearGradient>

    <animate xlink:href="#msk1" attributeName="x" from="-100%" to="100%" dur="1s" begin="0s" repeatCount="indefinite"/>
</svg>
