<svg xmlns:xlink="http://www.w3.org/1999/xlink" xmlns="http://www.w3.org/2000/svg" viewBox="0 0 1200 100%" preserveAspectRatio="xMinYMin meet" style="width:100%;height:1200px"><svg height="1200"><rect fill="#EBF1F4" width="100%" height="1200"/><rect fill="#fff" width="100%" height="67"/></svg><svg height="1200" y="67"><defs><rect fill="#fff" rx="10" ry="10" width="351" height="78" x="45" id="a"/><rect fill="#fff" rx="10" ry="10" width="516" height="78" x="45" id="b"/><rect fill="#fff" rx="10" ry="10" width="295" height="61" x="45" id="c"/></defs><use xlink:href="#a" y="57" x="57"/><use xlink:href="#b" y="142" x="57"/><use xlink:href="#c" y="230" x="57"/><use xlink:href="#c" y="344" x="57"/><use xlink:href="#c" y="415" x="57"/><use xlink:href="#c" y="487" x="57"/><use xlink:href="#c" y="595" x="57"/><use xlink:href="#c" y="667" x="57"/><use xlink:href="#c" y="739" x="57"/><use xlink:href="#c" y="811" x="57"/></svg><svg height="1200" id="k" y="67"><defs><g id="d" fill="#DEE2E7"><circle cx="17" cy="17" r="17"/><rect rx="2" ry="2" width="315" height="7" x="59" y="12"/><rect rx="2" ry="2" width="315" height="7" x="59" y="27"/><rect rx="2" ry="2" width="315" height="7" x="59" y="42"/><rect rx="2" ry="2" width="149" height="7" x="59" y="57"/></g><g id="e" fill="#DEE2E7"><circle cx="17" cy="17" r="17"/><rect rx="2" ry="2" width="479" height="7" x="59" y="12"/><rect rx="2" ry="2" width="479" height="7" x="59" y="27"/><rect rx="2" ry="2" width="479" height="7" x="59" y="42"/><rect rx="2" ry="2" width="149" height="7" x="59" y="57"/></g><g id="f" fill="#DEE2E7"><circle cx="17" cy="17" r="17"/><rect rx="2" ry="2" width="266" height="7" x="59" y="12"/><rect rx="2" ry="2" width="266" height="7" x="59" y="27"/><rect rx="2" ry="2" width="149" height="7" x="59" y="42"/></g></defs><rect fill="#DEE2E7" rx="14" ry="14" width="200" height="28" x="50%" y="13" transform="translate(-100)"/><use xlink:href="#d" y="57" x="57"/><use xlink:href="#e" y="142" x="57"/><use xlink:href="#f" y="230" x="57"/><rect fill="#DEE2E7" rx="14" ry="14" width="200" height="28" x="50%" y="301" transform="translate(-100)"/><use xlink:href="#f" y="344" x="57"/><use xlink:href="#f" y="415" x="57"/><use xlink:href="#f" y="487" x="57"/><rect fill="#DEE2E7" rx="14" ry="14" width="200" height="28" x="50%" y="558" transform="translate(-100)"/><use xlink:href="#f" y="595" x="57"/><use xlink:href="#f" y="667" x="57"/><use xlink:href="#f" y="739" x="57"/><use xlink:href="#f" y="811" x="57"/></svg><svg id="m"><defs><g id="g" fill="#DEE2E7"><circle cx="17" cy="17" r="17"/><circle cx="50" cy="6" r="6"/><rect rx="2" ry="2" width="152" height="8" x="68" y="2"/><circle cx="55" cy="28" r="13"/><rect rx="2" ry="2" width="97" height="8" x="79" y="25"/><circle cx="202" cy="28" r="13"/><rect rx="2" ry="2" width="97" height="8" x="220" y="25"/></g></defs><use xlink:href="#g" x="16" y="16"/><rect fill="#DEE2E7" rx="0" ry="0" width="100%" height="1" y="67"/></svg><svg id="l"><defs><g id="h" fill="#DEE2E7"><circle cx="13" cy="13" r="13"/><circle cx="48" cy="13" r="13"/><circle cx="83" cy="13" r="13"/><circle cx="118" cy="13" r="13"/></g></defs><use fill="red" xlink:href="#h" width="131" y="25" x="100%" transform="translate(-146)"/></svg><rect id="n" width="100%" fill="url(#i)" mask="url(#j)" height="1200"/><mask id="j" fill="#fff"><use xlink:href="#k"/><use xlink:href="#l"/><use xlink:href="#m"/></mask><linearGradient x1="66.6%" y1="50%" x2="33.3%" y2="50%" id="i"><stop stop-opacity="0" offset="0%"/><stop stop-opacity=".07" offset="50%"/><stop stop-opacity="0" offset="100%"/></linearGradient><animate xlink:href="#n" attributeName="x" from="-100%" to="100%" dur="1s" begin="0s" repeatCount="indefinite"/></svg>