<svg width="34" height="398" viewBox="0 0 34 398" xmlns="http://www.w3.org/2000/svg"><g fill="none" fill-rule="evenodd"><path fill-opacity=".01" fill="#FFF" d="M0 397h34v1H0z"/><path d="M20.65 376.433V375.513c0-.209-.254-.25-.592-.25h-.549c-.338 0-.592 0-.592.25v.418a.377.377 0 0 1-.38.376h-2.915a.377.377 0 0 1-.38-.376v-.418c0-.209-.254-.25-.592-.25h-.55c-.338 0-.591 0-.591.25v.794a.59.59 0 0 1-.085.251c-.93 1.003-3.549 4.221-3.845 4.848 0 .042-.042.084-.042.125v2.968c0 .292.254.501.507.501H24.03a.486.486 0 0 0 .507-.501v-2.968c0-.041 0-.125-.042-.167-.296-.752-3.042-4.137-3.845-4.931zm-3.695 6.77c-1.486 0-2.724-1.254-2.724-2.758 0-1.505 1.238-2.758 2.724-2.758 1.485 0 2.723 1.253 2.723 2.758 0 1.504-1.238 2.758-2.723 2.758zm0-4.388c-.908 0-1.61.752-1.61 1.63 0 .877.743 1.63 1.61 1.63.866 0 1.609-.753 1.609-1.63 0-.878-.743-1.63-1.61-1.63zm5.075-1.964c-.041.125 0 .25 0 .334.165.627.866.585 1.733.585.949 0 1.733.042 1.733-.92H22.03zm-4.91-3.469c2.063 0 4.662-.167 4.91 3.05h3.507c0-4.053-3.755-5.307-7.675-5.432h-1.609c-3.92.084-7.675 1.087-7.675 5.433h3.466c.248-3.26 2.765-3.05 5.076-3.05zm-6.85 4.43c.867 0 1.568.042 1.733-.669.041-.083.041-.209.041-.334H8.537c0 1.045.784 1.003 1.733 1.003z" fill="#FFF"/><path d="M20.65 340.433v-.919c0-.21-.254-.251-.592-.251h-.549c-.338 0-.592 0-.592.25v.419a.377.377 0 0 1-.38.376h-2.915a.377.377 0 0 1-.38-.376v-.418c0-.21-.254-.251-.592-.251h-.55c-.338 0-.591 0-.591.25v.795a.59.59 0 0 1-.085.25c-.93 1.004-3.549 4.223-3.845 4.85 0 .041-.042.083-.042.125v2.968c0 .293.254.502.507.502H24.03a.486.486 0 0 0 .507-.502v-2.968c0-.042 0-.125-.042-.167-.296-.753-3.042-4.139-3.845-4.933zm-3.695 6.77c-1.486 0-2.724-1.254-2.724-2.758 0-1.505 1.238-2.758 2.724-2.758 1.485 0 2.723 1.253 2.723 2.758 0 1.504-1.238 2.758-2.723 2.758zm0-4.388c-.908 0-1.61.752-1.61 1.63 0 .877.743 1.63 1.61 1.63.866 0 1.609-.753 1.609-1.63 0-.878-.743-1.63-1.61-1.63zm5.075-1.964c-.041.125 0 .25 0 .334.165.627.866.585 1.733.585.949 0 1.733.042 1.733-.92H22.03zm-4.91-3.469c2.063 0 4.662-.167 4.91 3.05h3.507c0-4.053-3.755-5.307-7.675-5.432h-1.609c-3.92.084-7.675 1.087-7.675 5.433h3.466c.248-3.26 2.765-3.05 5.076-3.05zm-6.85 4.43c.867 0 1.568.042 1.733-.669.041-.083.041-.209.041-.334H8.537c0 1.045.784 1.003 1.733 1.003z" fill="#80A02A"/><path fill="#FFF" d="M15.537 303H10.76v6h4.778v4.556l7.778-7.778L15.537 298zM19.365 228.264a2.283 2.283 0 0 0-2.292-2.193c-1.236 0-2.25.971-2.292 2.193v4.605a965.819 965.819 0 0 0 4.584-4.605zm-5.88 5.862a6.095 6.095 0 0 1-.08-.91v-.858a.913.913 0 0 0-.916-.884.914.914 0 0 0-.917.884v.858s.009 1.173.482 2.288c.68-.611 1.164-1.124 1.432-1.378zm9.912-8.058L9.485 239.971l1.082 1.113L24.59 227.07l-1.193-1.002zm-1.758 5.414a.917.917 0 0 0-.917.893v.931a3.668 3.668 0 0 1-4.322 3.49c-.464.493-.903.959-1.53 1.596.384.143.85.252 1.268.252v1.779h-.162a.446.446 0 1 0 0 .89h2.157a.445.445 0 1 0 0-.89h-.161v-1.779c2.38 0 4.335-2.547 4.56-4.894l.023-.307v-1.068a.918.918 0 0 0-.916-.893zM10.537 265.5c0-.828.666-1.5 1.5-1.5.829 0 1.5.666 1.5 1.5 0 .828-.666 1.5-1.5 1.5-.828 0-1.5-.666-1.5-1.5zm0 5c0-.828.666-1.5 1.5-1.5.829 0 1.5.666 1.5 1.5 0 .828-.666 1.5-1.5 1.5-.828 0-1.5-.666-1.5-1.5zm5-5c0-.828.666-1.5 1.5-1.5.829 0 1.5.666 1.5 1.5 0 .828-.666 1.5-1.5 1.5-.828 0-1.5-.666-1.5-1.5zm0 5c0-.828.666-1.5 1.5-1.5.829 0 1.5.666 1.5 1.5 0 .828-.666 1.5-1.5 1.5-.828 0-1.5-.666-1.5-1.5zm5-5c0-.828.666-1.5 1.5-1.5.829 0 1.5.666 1.5 1.5 0 .828-.666 1.5-1.5 1.5-.828 0-1.5-.666-1.5-1.5zm0 5c0-.828.666-1.5 1.5-1.5.829 0 1.5.666 1.5 1.5 0 .828-.666 1.5-1.5 1.5-.828 0-1.5-.666-1.5-1.5zm-10 5c0-.828.666-1.5 1.5-1.5.829 0 1.5.666 1.5 1.5 0 .828-.666 1.5-1.5 1.5-.828 0-1.5-.666-1.5-1.5zm5 0c0-.828.666-1.5 1.5-1.5.829 0 1.5.666 1.5 1.5 0 .828-.666 1.5-1.5 1.5-.828 0-1.5-.666-1.5-1.5zm5 0c0-.828.666-1.5 1.5-1.5.829 0 1.5.666 1.5 1.5 0 .828-.666 1.5-1.5 1.5-.828 0-1.5-.666-1.5-1.5zM22.537 197.665h-.023c-.225 2.346-2.18 4.893-4.56 4.893v1.78h.162a.445.445 0 1 1 0 .889h-2.158a.445.445 0 1 1 0-.89h.162v-1.78c-2.38 0-4.335-2.546-4.56-4.892h-.023v-1.375a.917.917 0 0 1 1.833 0v.93a3.669 3.669 0 0 0 7.334 0v-.93a.917.917 0 0 1 1.833 0v1.375zm-7.792-.89v-4.559a2.293 2.293 0 0 1 4.584 0v4.559a2.259 2.259 0 0 1-2.292 2.224 2.259 2.259 0 0 1-2.292-2.224zM18.537 156h3v12h-3v-12zm-6 0h3v12h-3v-12zM19.74 113.421h-8.216v-1.445h8.215l-2.935-2.936 1.04-1.04 4.68 4.68-.019.019.019.018-4.68 4.68-1.04-1.04 2.935-2.936zm6.216-69.413c-.26-.243-4.278-1.764-4.537-2.006a7.3 7.3 0 0 1-.261-2.477c0-.5-4.046-.757-4.123-.762-.077-.005-4.122.253-4.121.754a7.268 7.268 0 0 1-.257 2.476c-.26.242-4.274 1.756-4.533 2-.26.244-1.6-1.287-1.6-2.246 0-.82.617-4.43 6.826-5.457a15.871 15.871 0 0 1 3.674-.276 15.92 15.92 0 0 1 3.688.283c6.214 1.038 6.839 4.649 6.839 5.468 0 .959-1.336 2.486-1.595 2.243zM12 81.988h2V72h-2v9.988zm-3 0h2v-8.021H9v8.021zm-3 0h2v-6.023H6v6.023zm-3 0h2v-4.026H3v4.026zm-3 .001h2V79.96H0v2.029zm21.512-5.998l-3.545 3.003h7.089l-3.544-3.003zM15.977 0H18.1c.256.106.35.303.347.574-.01.505 0 1.007-.007 1.512 0 .088.022.128.106.15.278.075.54.187.793.324.094.05.15.032.222-.043a73.5 73.5 0 0 1 1.102-1.104c.221-.219.471-.228.693-.013.43.421.858.845 1.28 1.279.218.221.206.49-.013.708-.362.365-.724.73-1.092 1.088-.078.075-.1.131-.041.234.131.225.234.465.3.718.034.13.1.168.237.168.54 0 1.08-.028 1.62.016.231.018.365.168.387.402 0 .649 0 1.294.003 1.943a.448.448 0 0 1-.468.43c-.537 0-1.07.003-1.608 0-.084 0-.124.019-.15.11-.08.268-.184.53-.321.776-.053.094-.047.147.031.225.369.358.73.723 1.093 1.088.237.24.24.496.006.733-.412.418-.827.833-1.245 1.244-.244.24-.5.234-.743-.01-.369-.367-.737-.732-1.102-1.103-.06-.06-.103-.078-.184-.031-.24.134-.497.243-.762.315-.103.028-.144.075-.144.19.01.515.003 1.03.003 1.544 0 .18-.065.327-.206.443-.071.059-.165.03-.23.09H16.04c-.303-.094-.406-.306-.396-.611.012-.49 0-.976.006-1.466.003-.112-.031-.168-.14-.197a3.191 3.191 0 0 1-.762-.315c-.085-.046-.135-.03-.2.035-.365.37-.743.726-1.099 1.107a.515.515 0 0 1-.75.003c-.395-.418-.81-.82-1.22-1.226-.256-.255-.256-.492-.003-.748l1.115-1.114c.059-.059.08-.1.034-.18a3.236 3.236 0 0 1-.321-.758c-.035-.122-.088-.153-.213-.15-.521.01-1.04-.003-1.56.006a.488.488 0 0 1-.494-.492c.016-.609.003-1.217.007-1.825 0-.056-.004-.11.021-.165.088-.219.228-.312.528-.312a83.35 83.35 0 0 1 1.53.003c.1 0 .143-.031.171-.128.078-.271.19-.527.322-.776.04-.075.04-.116-.025-.178-.366-.356-.724-.717-1.083-1.08-.29-.29-.294-.53 0-.82.387-.386.77-.773 1.158-1.157.29-.29.527-.286.82.007.363.358.722.72 1.08 1.082.057.056.094.065.166.025.256-.137.521-.259.802-.33.094-.026.113-.076.113-.166-.003-.493.006-.989-.007-1.481-.003-.272.078-.478.337-.593zm1.068 9.793c1.505.028 2.813-1.223 2.816-2.791.003-1.554-1.258-2.83-2.807-2.823-1.554.006-2.815 1.226-2.818 2.813a2.793 2.793 0 0 0 2.809 2.8z"/></g></svg>