<?xml version="1.0" encoding="UTF-8"?>
<svg width="15px" height="56px" viewBox="0 0 15 56" version="1.1" xmlns="http://www.w3.org/2000/svg" xmlns:xlink="http://www.w3.org/1999/xlink">
    <!-- Generator: Sketch 45.1 (43504) - http://www.bohemiancoding.com/sketch -->
    <title>flash_icon_sprite</title>
    <desc>Created with Sketch.</desc>
    <defs></defs>
    <g id="Page-1" stroke="none" stroke-width="1" fill="none" fill-rule="evenodd">
        <g id="flash_icon_sprite">
            <path d="M6.29565983,44.903817 L11.6734619,36.2091064 L7.96105957,35.9798584 L11.2812315,31.0215336 C13.5057522,32.3227055 15,34.7368526 15,37.5 C15,41.6421356 11.6421356,45 7.5,45 C7.09003906,45 6.68776063,44.9671073 6.29565983,44.903817 Z M5.42010042,44.7078511 C2.28977286,43.8061846 0,40.9204948 0,37.5 C0,33.3578644 3.35786438,30 7.5,30 C7.72501597,30 7.94771751,30.0099093 8.16769204,30.0293152 L4.23785196,37.8890547 L7.58166504,38.2666016 L5.42010042,44.7078511 Z" id="flash_circle" fill="#ECA016"></path>
            <polygon id="flash_menu" fill="#ECA016" fill-rule="nonzero" points="6.08139052 45 0 51.0458112 2.25565416 51.0458112 0.52183044 55.6328691 6.74859895 49.5866753 4.49256221 49.5866753"></polygon>
            <path d="M7.5,8.05308073 L4.45791112,5.01099185 L3.25582956,6.21307341 L7.49847024,10.4557141 L7.5,10.4541843 L7.50152976,10.4557141 L11.7441704,6.21307341 L10.5420889,5.01099185 L7.5,8.05308073 Z M7.5,15 C3.35786438,15 0,11.6421356 0,7.5 C0,3.35786438 3.35786438,0 7.5,0 C11.6421356,0 15,3.35786438 15,7.5 C15,11.6421356 11.6421356,15 7.5,15 Z" id="arrow_menu" fill="#D9D9DA"></path>
            <path d="M7.5,23.0530807 L4.45791112,20.0109918 L3.25582956,21.2130734 L7.49847024,25.4557141 L7.5,25.4541843 L7.50152976,25.4557141 L11.7441704,21.2130734 L10.5420889,20.0109918 L7.5,23.0530807 Z M7.5,30 C3.35786438,30 0,26.6421356 0,22.5 C0,18.3578644 3.35786438,15 7.5,15 C11.6421356,15 15,18.3578644 15,22.5 C15,26.6421356 11.6421356,30 7.5,30 Z" id="arrow_menu_hover" fill="#A2A2A3"></path>
        </g>
    </g>
</svg>