<svg xmlns="http://www.w3.org/2000/svg" width="34" height="398" viewBox="0 0 34 398">
  <g fill="none" fill-rule="evenodd">
    <rect width="34" height="1" y="397" fill="#FFFFFF" fill-opacity=".01"/>
    <path fill="#FFFFFF" d="M21.1126761,376.432836 L21.1126761,376.014925 L21.1126761,375.513433 C21.1126761,375.304478 20.8591549,375.262687 20.5211268,375.262687 L19.971831,375.262687 C19.6338028,375.262687 19.3802817,375.262687 19.3802817,375.513433 L19.3802817,375.931343 C19.3802817,376.140299 19.2112676,376.307463 19,376.307463 L16.084507,376.307463 C15.8732394,376.307463 15.7042254,376.140299 15.7042254,375.931343 L15.7042254,375.513433 C15.7042254,375.304478 15.4507042,375.262687 15.1126761,375.262687 L14.5633803,375.262687 C14.2253521,375.262687 13.971831,375.262687 13.971831,375.513433 L13.971831,376.307463 C13.971831,376.391045 13.9295775,376.474627 13.8873239,376.558209 C12.9577465,377.561194 10.3380282,380.779104 10.0422535,381.40597 C10.0422535,381.447761 10,381.489552 10,381.531343 L10,384.498507 C10,384.791045 10.2535211,385 10.5070423,385 L24.4929577,385 C24.7887324,385 25,384.791045 25,384.498507 L25,381.531343 C25,381.489552 25,381.40597 24.9577465,381.364179 C24.6619718,380.61194 21.915493,377.226866 21.1126761,376.432836 Z M17.4174757,383.202985 C15.9320388,383.202985 14.6941748,381.949254 14.6941748,380.444776 C14.6941748,378.940299 15.9320388,377.686567 17.4174757,377.686567 C18.9029126,377.686567 20.1407767,378.940299 20.1407767,380.444776 C20.1407767,381.949254 18.9029126,383.202985 17.4174757,383.202985 Z M17.4174757,378.814925 C16.5097087,378.814925 15.8082524,379.567164 15.8082524,380.444776 C15.8082524,381.322388 16.5509709,382.074627 17.4174757,382.074627 C18.2839806,382.074627 19.026699,381.322388 19.026699,380.444776 C19.026699,379.567164 18.2839806,378.814925 17.4174757,378.814925 Z M22.4927184,376.850746 L22.4927184,376.850746 C22.4514563,376.976119 22.4927184,377.101493 22.4927184,377.185075 C22.657767,377.81194 23.3592233,377.770149 24.2257282,377.770149 C25.1747573,377.770149 25.9587379,377.81194 25.9587379,376.850746 L22.4927184,376.850746 L22.4927184,376.850746 Z M17.5825243,373.38209 C19.6456311,373.38209 22.2451456,373.214925 22.4927184,376.432836 L26,376.432836 C26,372.379104 22.2451456,371.125373 18.3252427,371 L16.7160194,371 C12.7961165,371.083582 9.04126214,372.086567 9.04126214,376.432836 L12.5072816,376.432836 C12.7548544,373.173134 15.2718447,373.38209 17.5825243,373.38209 Z M10.7330097,377.81194 C11.5995146,377.81194 12.3009709,377.853731 12.4660194,377.143284 C12.5072816,377.059701 12.5072816,376.934328 12.5072816,376.808955 L9,376.808955 C9,377.853731 9.78398058,377.81194 10.7330097,377.81194 Z"/>
    <path fill="#80A02A" d="M21.1126761,340.433159 L21.1126761,340.015133 L21.1126761,339.513502 C21.1126761,339.304489 20.8591549,339.262687 20.5211268,339.262687 L19.971831,339.262687 C19.6338028,339.262687 19.3802817,339.262687 19.3802817,339.513502 L19.3802817,339.931528 C19.3802817,340.140541 19.2112676,340.307751 19,340.307751 L16.084507,340.307751 C15.8732394,340.307751 15.7042254,340.140541 15.7042254,339.931528 L15.7042254,339.513502 C15.7042254,339.304489 15.4507042,339.262687 15.1126761,339.262687 L14.5633803,339.262687 C14.2253521,339.262687 13.971831,339.262687 13.971831,339.513502 L13.971831,340.307751 C13.971831,340.391356 13.9295775,340.474961 13.8873239,340.558566 C12.9577465,341.561828 10.3380282,344.780626 10.0422535,345.407665 C10.0422535,345.449468 10,345.49127 10,345.533073 L10,348.501055 C10,348.793673 10.2535211,349.002686 10.5070423,349.002686 L24.4929577,349.002686 C24.7887324,349.002686 25,348.793673 25,348.501055 L25,345.533073 C25,345.49127 25,345.407665 24.9577465,345.365862 C24.6619718,344.613416 21.915493,341.227408 21.1126761,340.433159 Z M17.4174757,347.202985 C15.9320388,347.202985 14.6941748,345.949254 14.6941748,344.444776 C14.6941748,342.940299 15.9320388,341.686567 17.4174757,341.686567 C18.9029126,341.686567 20.1407767,342.940299 20.1407767,344.444776 C20.1407767,345.949254 18.9029126,347.202985 17.4174757,347.202985 Z M17.4174757,342.814925 C16.5097087,342.814925 15.8082524,343.567164 15.8082524,344.444776 C15.8082524,345.322388 16.5509709,346.074627 17.4174757,346.074627 C18.2839806,346.074627 19.026699,345.322388 19.026699,344.444776 C19.026699,343.567164 18.2839806,342.814925 17.4174757,342.814925 Z M22.4927184,340.850746 L22.4927184,340.850746 C22.4514563,340.976119 22.4927184,341.101493 22.4927184,341.185075 C22.657767,341.81194 23.3592233,341.770149 24.2257282,341.770149 C25.1747573,341.770149 25.9587379,341.81194 25.9587379,340.850746 L22.4927184,340.850746 L22.4927184,340.850746 Z M17.5825243,337.38209 C19.6456311,337.38209 22.2451456,337.214925 22.4927184,340.432836 L26,340.432836 C26,336.379104 22.2451456,335.125373 18.3252427,335 L16.7160194,335 C12.7961165,335.083582 9.04126214,336.086567 9.04126214,340.432836 L12.5072816,340.432836 C12.7548544,337.173134 15.2718447,337.38209 17.5825243,337.38209 Z M10.7330097,341.81194 C11.5995146,341.81194 12.3009709,341.853731 12.4660194,341.143284 C12.5072816,341.059701 12.5072816,340.934328 12.5072816,340.808955 L9,340.808955 C9,341.853731 9.78398058,341.81194 10.7330097,341.81194 Z"/>
    <path fill="#FFFFFF" d="M4.77817459,5 L0,5 L0,11 L4.77817459,11 L4.77817459,15.5563492 L12.5563492,7.77817459 L4.77817459,-5.06261699e-13 L4.77817459,5 Z" transform="translate(11 298)"/>
    <path fill="#FFFFFF" d="M10.802,2.264 C10.76,1.041 9.746,0.071 8.51,0.071 C7.274,0.071 6.26,1.042 6.218,2.264 L6.218,6.869 C7.646,5.454 10.802,2.264 10.802,2.264 Z M4.923,8.126 C4.883,7.927 4.856,7.616 4.843,7.216 L4.843,6.358 C4.83,5.867 4.424,5.474 3.926,5.474 C3.428,5.474 3.023,5.867 3.009,6.358 L3.009,7.216 C3.009,7.216 3.018,8.389 3.491,9.504 C4.172,8.893 4.655,8.38 4.923,8.126 Z M14.834,0.068 L0.922,13.971 L2.004,15.084 L16.027,1.07 L14.834,0.068 Z M13.076,5.482 C12.578,5.482 12.172,5.878 12.159,6.375 L12.159,7.306 C12.095,9.285 10.472,10.855 8.492,10.855 C8.268,10.855 8.05,10.834 7.837,10.796 C7.373,11.289 6.934,11.755 6.307,12.392 C6.691,12.535 7.158,12.644 7.575,12.644 L7.575,14.423 L7.413,14.423 C7.25,14.417 7.097,14.5 7.013,14.641 C6.93,14.781 6.93,14.955 7.013,15.095 C7.096,15.236 7.25,15.319 7.413,15.313 L9.57,15.313 C9.734,15.319 9.886,15.236 9.97,15.095 C10.053,14.955 10.053,14.781 9.97,14.641 C9.886,14.5 9.734,14.417 9.57,14.423 L9.409,14.423 L9.409,12.644 C11.789,12.644 13.744,10.097 13.97,7.75 L13.992,7.44335938 L13.992,6.375 C13.978,5.879 13.572,5.482 13.076,5.482 Z" transform="translate(9 226)"/>
    <path fill="#FFFFFF" d="M0,1.5 C0,0.671572875 0.665797234,0 1.5,0 C2.32842712,0 3,0.665797234 3,1.5 C3,2.32842712 2.33420277,3 1.5,3 C0.671572875,3 0,2.33420277 0,1.5 Z M0,6.5 C0,5.67157288 0.665797234,5 1.5,5 C2.32842712,5 3,5.66579723 3,6.5 C3,7.32842712 2.33420277,8 1.5,8 C0.671572875,8 0,7.33420277 0,6.5 Z M5,1.5 C5,0.671572875 5.66579723,0 6.5,0 C7.32842712,0 8,0.665797234 8,1.5 C8,2.32842712 7.33420277,3 6.5,3 C5.67157288,3 5,2.33420277 5,1.5 Z M5,6.5 C5,5.67157288 5.66579723,5 6.5,5 C7.32842712,5 8,5.66579723 8,6.5 C8,7.32842712 7.33420277,8 6.5,8 C5.67157288,8 5,7.33420277 5,6.5 Z M10,1.5 C10,0.671572875 10.6657972,0 11.5,0 C12.3284271,0 13,0.665797234 13,1.5 C13,2.32842712 12.3342028,3 11.5,3 C10.6715729,3 10,2.33420277 10,1.5 Z M10,6.5 C10,5.67157288 10.6657972,5 11.5,5 C12.3284271,5 13,5.66579723 13,6.5 C13,7.32842712 12.3342028,8 11.5,8 C10.6715729,8 10,7.33420277 10,6.5 Z M0,11.5 C0,10.6715729 0.665797234,10 1.5,10 C2.32842712,10 3,10.6657972 3,11.5 C3,12.3284271 2.33420277,13 1.5,13 C0.671572875,13 0,12.3342028 0,11.5 Z M5,11.5 C5,10.6715729 5.66579723,10 6.5,10 C7.32842712,10 8,10.6657972 8,11.5 C8,12.3284271 7.33420277,13 6.5,13 C5.67157288,13 5,12.3342028 5,11.5 Z M10,11.5 C10,10.6715729 10.6657972,10 11.5,10 C12.3284271,10 13,10.6657972 13,11.5 C13,12.3284271 12.3342028,13 11.5,13 C10.6715729,13 10,12.3342028 10,11.5 Z" transform="translate(11 264)"/>
    <path fill="#FFFFFF" d="M11,7.66467598 L10.9773529,7.66467598 C10.7515294,10.0109113 8.79676471,12.5577348 6.41688235,12.5577348 L6.41688235,14.3371466 L6.57864706,14.3371466 C6.74162435,14.3309297 6.89495402,14.4143323 6.97829037,14.5545296 C7.06162673,14.694727 7.06162673,14.869272 6.97829037,15.0094694 C6.89495402,15.1496667 6.74162435,15.2330693 6.57864706,15.2268525 L4.42135294,15.2268525 C4.25837565,15.2330693 4.10504598,15.1496667 4.02170963,15.0094694 C3.93837327,14.869272 3.93837327,14.694727 4.02170963,14.5545296 C4.10504598,14.4143323 4.25837565,14.3309297 4.42135294,14.3371466 L4.58311765,14.3371466 L4.58311765,12.5577348 C2.20323529,12.5577348 0.247823529,10.0109113 0.0226470588,7.66467598 L0,7.66467598 L0,7.21949951 L0,7.21949951 L0,6.28967598 C0.0131989767,5.7929576 0.419665112,5.39714875 0.916558824,5.39714875 C1.41345254,5.39714875 1.81991867,5.7929576 1.83311765,6.28967598 L1.83311765,7.21949951 C1.8975114,9.19823287 3.52021914,10.768992 5.5,10.768992 C7.47978086,10.768992 9.1024886,9.19823287 9.16688235,7.21949951 L9.16688235,6.28967598 C9.18008133,5.7929576 9.58654746,5.39714875 10.0834412,5.39714875 C10.5803349,5.39714875 10.986801,5.7929576 11,6.28967598 L11,7.66467598 L11,7.66467598 Z M3.20811765,6.7749701 L3.20811765,2.21614657 C3.24965289,0.980342072 4.2634977,1.77635684e-15 5.5,1.77635684e-15 C6.7365023,1.77635684e-15 7.75034711,0.980342072 7.79188235,2.21614657 L7.79188235,6.7749701 C7.77272874,8.0218109 6.74685267,9.01727562 5.5,8.99891128 C4.25314733,9.01727562 3.22727126,8.0218109 3.20811765,6.7749701 Z" transform="translate(12 190)"/>
    <path fill="#FFFFFF" d="M6,0 L9,0 L9,12 L6,12 L6,0 Z M0,0 L3,0 L3,12 L0,12 L0,0 Z" transform="translate(13 156)"/>
    <path fill="#FFFFFF" d="M19.2156093 113.42137L11 113.42137 11 111.975671 19.2156093 111.975671 16.2799475 109.04001 17.319957 108 22 112.680043 21.9815222 112.698521 22 112.716999 17.319957 117.397042 16.2799475 116.357032 19.2156093 113.42137zM25.432 44.007568C25.173 43.764568 21.154 42.243568 20.895 42.001568 20.6667463 41.1969493 20.5784615 40.3590897 20.634 39.524568 20.634 39.024568 16.588 38.767568 16.511 38.762568 16.434 38.757568 12.389 39.015568 12.39 39.516568 12.4473616 40.3505395 12.36042 41.1881558 12.133 41.992568 11.874 42.234568 7.859 43.748568 7.6 43.992568 7.341 44.236568 6 42.705568 6 41.746568 6 40.927568 6.617 37.317568 12.826 36.289568 14.0357989 36.0552486 15.2687714 35.9626247 16.5 36.013568 17.7455026 35.9648292 18.9784891 36.0598034 20.188 36.296568 26.402 37.334568 27.027 40.945568 27.027 41.764568 27.027 42.723568 25.691 44.250568 25.432 44.007568z"/>
    <path fill="#FFFFFF" d="M12,9.988 L14,9.988 L14,0 L12,0 L12,9.988 Z M9,9.988 L11,9.988 L11,1.967 L9,1.967 L9,9.988 Z M6,9.988 L8,9.988 L8,3.965 L6,3.965 L6,9.988 Z M3,9.988 L5,9.988 L5,5.962 L3,5.962 L3,9.988 Z M0,9.989 L2,9.989 L2,7.96 L0,7.96 L0,9.989 Z M21.512,3.991 L17.967,6.994 L25.056,6.994 L21.512,3.991 Z" transform="translate(0 72)"/>
    <path fill="#FFFFFF" d="M15.9403184,0 L18.0629301,0 C18.3188921,0.106036979 18.4125368,0.302517264 18.4094153,0.573847181 C18.4000508,1.07908219 18.4094153,1.58119848 18.4031723,2.0864335 C18.4031723,2.17375807 18.4250227,2.21430162 18.5093029,2.23613277 C18.7871153,2.31098239 19.0493203,2.42325684 19.3021608,2.56048117 C19.3958054,2.61038093 19.4519922,2.59166852 19.5237864,2.51681889 C19.885879,2.14568946 20.2542146,1.77767876 20.6256716,1.41278681 C20.8472973,1.19447539 21.0970163,1.18511918 21.318642,1.40031187 C21.7494073,1.82134105 22.1770511,2.24548897 22.5984519,2.67899309 C22.8169561,2.90042325 22.8044702,3.16863444 22.585966,3.38694587 C22.2238734,3.75183782 21.8617808,4.11672978 21.4934453,4.47538426 C21.4154081,4.5502339 21.3935576,4.60637112 21.4528659,4.70928937 C21.5839684,4.93383827 21.6869775,5.17398083 21.7525287,5.42659834 C21.7868651,5.5575852 21.8524164,5.59501001 21.9897619,5.59501001 C22.5297793,5.59501001 23.0697966,5.5669414 23.609814,5.61060369 C23.8408041,5.6293161 23.9750281,5.77901536 23.9968785,6.01292046 C23.9968785,6.66161727 23.9968785,7.30719535 24,7.95589216 C23.9781496,8.21474715 23.7939818,8.38627756 23.5317768,8.38627756 C22.9948809,8.38627756 22.4611065,8.38939629 21.9242106,8.38627756 C21.8399304,8.38627756 21.7993511,8.40498996 21.7743792,8.49543327 C21.6932205,8.76364445 21.5902114,9.02561817 21.4528659,9.2719982 C21.3998007,9.36556025 21.4060436,9.41857874 21.4840808,9.4965471 C21.8524164,9.85520159 22.214509,10.2200935 22.5766015,10.5849855 C22.8138346,10.8251281 22.8169561,11.0808643 22.5828446,11.3178881 C22.1708081,11.7357986 21.7556502,12.1505903 21.3373708,12.5622633 C21.0938949,12.8024058 20.8379329,12.7961684 20.5944568,12.5529071 C20.2261212,12.1848964 19.8577856,11.8200044 19.4925716,11.448875 C19.4332633,11.3896191 19.3895625,11.3709066 19.3084038,11.4176877 C19.0680492,11.5517933 18.8120872,11.6609489 18.5467607,11.7326799 C18.4437516,11.7607485 18.4031723,11.8075295 18.4031723,11.9229227 C18.4125368,12.4375139 18.4062938,12.9521051 18.4062938,13.4666964 C18.4062938,13.6475829 18.3407425,13.7941634 18.2002756,13.9095567 C18.1284814,13.9688127 18.0348367,13.9407441 17.9692855,14 L16.0027481,14 C15.6999638,13.9064379 15.5969547,13.694364 15.6063192,13.388728 C15.6188051,12.8990867 15.6063192,12.412564 15.6125622,11.9229227 C15.6156836,11.8106483 15.5813473,11.754511 15.4720952,11.7264424 C15.2036472,11.6578302 14.9508067,11.5455558 14.7104522,11.4114502 C14.626172,11.3646692 14.5762282,11.3802628 14.5106769,11.4457563 C14.1454629,11.8168857 13.7677628,12.1724215 13.4119132,12.5529071 C13.212138,12.7680998 12.8656528,12.7712185 12.6627561,12.5560258 C12.2663272,12.1381153 11.8511693,11.7357986 11.4422544,11.3303631 C11.1862924,11.0746269 11.1862924,10.837603 11.4391329,10.5818668 C11.8105899,10.2107374 12.182047,9.83960792 12.5535041,9.46847848 C12.6128123,9.40922253 12.6346627,9.36867898 12.5878404,9.28759188 C12.4473735,9.05056804 12.3412429,8.79171306 12.2663272,8.52973935 C12.2319908,8.4081087 12.1789255,8.37692135 12.054066,8.38004009 C11.5327775,8.38939629 11.0146106,8.37692135 10.4933221,8.38627756 C10.2186311,8.39251502 9.99388402,8.15860993 10.000127,7.89351747 C10.0157344,7.28536422 10.0032485,6.67721095 10.00637,6.06905768 C10.00637,6.01292046 10.0032485,5.95990197 10.0282204,5.90376475 C10.115622,5.68545333 10.256089,5.59189128 10.5557518,5.59189128 C11.0645544,5.58877255 11.5764784,5.58877255 12.0852809,5.59501001 C12.1851685,5.59501001 12.2288693,5.56382267 12.2569627,5.4671419 C12.3349999,5.19581198 12.4473735,4.94007573 12.578476,4.69057696 C12.6190553,4.61572732 12.6190553,4.57518378 12.5535041,4.51280908 C12.18829,4.15727333 11.8293189,3.7955001 11.4703478,3.43372688 C11.1800494,3.14368456 11.1769279,2.90354198 11.4703478,2.61349966 C11.8574123,2.22677656 12.2413553,1.84005347 12.6284198,1.4564491 C12.9187181,1.16640677 13.1559512,1.16952551 13.4493711,1.46268656 C13.8114637,1.82134105 14.1704348,2.18311428 14.5294059,2.5448875 C14.5855927,2.60102473 14.6230505,2.61038093 14.6948447,2.56983738 C14.9508067,2.43261305 15.2161332,2.31098239 15.4970671,2.2392515 C15.5907117,2.21430162 15.6094407,2.16440187 15.6094407,2.07395856 C15.6063192,1.58119848 15.6156836,1.08531967 15.6031977,0.592559589 C15.6000762,0.321229672 15.6812349,0.115393183 15.9403184,0 L15.9403184,0 L15.9403184,0 Z M17.0078672,9.7928269 C18.5124244,9.82089551 19.8203278,8.5702829 19.8234493,7.00155935 C19.8265708,5.44842948 18.5654897,4.172867 17.0172317,4.17910447 C15.4627307,4.18534194 14.2016496,5.4047672 14.1985282,6.99220315 C14.1985282,8.58275784 15.4939456,9.80530183 17.0078672,9.7928269 L17.0078672,9.7928269 L17.0078672,9.7928269 Z"/>
  </g>
</svg>
