<svg width="103" height="20" viewBox="0 0 103 20" fill="none" xmlns="http://www.w3.org/2000/svg">
<path fill-rule="evenodd" clip-rule="evenodd" d="M98.118 9.05062C95.9623 9.05062 94.2148 7.25543 94.2148 5.04094C94.2148 2.82644 95.9623 1.03125 98.118 1.03125C100.274 1.03125 102.021 2.82648 102.021 5.04094C102.021 7.25543 100.274 9.05062 98.118 9.05062ZM98.0992 0C95.393 0 93.1992 2.25365 93.1992 5.03367C93.1992 7.8137 95.393 10.0673 98.0992 10.0673C100.805 10.0673 102.999 7.8137 102.999 5.03367C102.999 2.25365 100.805 0 98.0992 0ZM98.5508 2.62109H97.5312V5.49599H100.237V4.49427H98.5508V2.62109ZM85.706 8.04423V9.54106H84.4706C83.9971 9.54106 83.0088 9.58323 82.7617 9.60431L85.8295 5.45117C85.7884 5.72524 85.706 6.96908 85.706 8.04423ZM88.4451 1.17188H86.4273L79.6328 10.0262V11.8604H85.7067V15.1702H88.4451V11.8604H90.4629V9.54136H88.4451V1.17188ZM79.7239 4.8834C79.7239 2.6909 78.262 1.13086 75.2354 1.13086C73.3 1.13086 71.6734 1.7422 70.4998 2.29034L71.2205 4.50396C72.2705 4.01903 73.4029 3.55526 74.7824 3.55526C75.8119 3.55526 76.7796 3.97691 76.7796 5.17859C76.7796 7.91918 70.6027 8.31978 70.0469 15.1714H79.9092V12.7259H73.7118C74.5765 9.79549 79.7239 8.7203 79.7239 4.8834ZM65.871 13.173C64.3585 13.173 63.3635 12.1949 63.3635 10.3813C63.3635 8.75116 64.3386 7.46744 65.9904 7.46744C66.9059 7.46744 67.6223 7.75273 68.2989 8.28251V5.97993C67.8014 5.65387 66.9656 5.28711 65.6919 5.28711C62.9257 5.28711 60.6172 7.34519 60.6172 10.4017C60.6172 13.2341 62.3684 15.3737 65.4929 15.3737C66.8064 15.3737 68.0203 14.9662 68.7965 14.3956L68.0402 12.5209C67.3437 12.9285 66.7069 13.173 65.871 13.173ZM57.4472 10.3202V10.2795C58.1438 9.83118 58.2234 8.58817 58.701 7.97686C58.8602 7.7731 59.0592 7.67125 59.3577 7.67125C59.5568 7.67125 59.7558 7.71199 59.915 7.7731V5.42973C59.6164 5.32789 59.1189 5.28711 58.8403 5.28711C57.9846 5.28711 57.4273 5.61313 57.0691 6.12255C56.2332 7.26368 56.2731 9.21988 55.1387 9.21988H54.1437V5.53161H51.457V15.1699H54.1437V11.2983H55.4571C55.7158 11.2983 55.9547 11.5632 56.1935 12.1542L57.3079 15.1699H60.2135L58.5219 11.4613C58.2433 10.85 57.905 10.5036 57.4472 10.3202ZM44.2893 9.50675C43.752 10.3014 43.2943 11.1165 43.0754 11.5037H43.0157C43.0754 10.9535 43.0953 10.1792 43.0953 9.38449V5.5332H40.4883V15.1715H43.1152L45.8019 11.198C46.3193 10.4033 46.7969 9.58822 47.0158 9.2011H47.0755C47.0158 9.75129 46.976 10.5256 46.976 11.3203V15.1715H49.603V5.5332H46.976L44.2893 9.50675ZM34.2597 13.1117C33.802 13.1117 33.4637 13.0303 33.1055 12.908V7.67112C33.404 7.5692 33.6826 7.54883 34.0209 7.54883C35.6727 7.54883 36.6678 8.46578 36.6678 10.3405C36.6678 12.0318 35.8717 13.1117 34.2597 13.1117ZM34.1395 5.28711C32.7265 5.28711 31.4528 5.55202 30.418 5.91878V19.9993H33.1046V15.1904C33.5424 15.3126 34.0001 15.3737 34.4579 15.3737C37.5027 15.3737 39.4132 13.2341 39.4132 10.3406C39.4132 7.30445 37.642 5.28711 34.1395 5.28711ZM20.707 7.81542H23.5131V15.1715H26.1997V7.81542H28.8864L29.5829 5.5332H20.707V7.81542ZM14.1878 9.50675C13.6505 10.3014 13.1927 11.1165 12.9739 11.5037H12.9141C12.9739 10.9535 12.9937 10.1792 12.9937 9.38449V5.5332H10.3867V15.1715H13.0136L15.7003 11.198C16.2177 10.4033 16.6953 9.58822 16.9142 9.2011H16.9739C16.9142 9.75129 16.8745 10.5256 16.8745 11.3203V15.1715H19.5014V5.5332H16.8745L14.1878 9.50675ZM3.74152 12.8886H2.72656V9.07812H3.62209C4.43804 9.07812 5.1545 9.15968 5.65201 9.46533C6.10974 9.75061 6.38834 10.26 6.38834 10.9936C6.38834 12.2773 5.6122 12.8886 3.74152 12.8886ZM7.26387 7.52927C6.28872 6.99944 5.03494 6.81608 3.62196 6.81608H2.72643V4.00404H7.94052L8.61714 1.74219H0V15.1706H3.68168C7.7017 15.1706 9.11468 13.3571 9.11468 10.9526C9.11468 9.24092 8.41812 8.14057 7.26387 7.52927Z" fill="white"/>
</svg>
