<svg width="91" height="19" viewBox="0 0 91 19" fill="none" xmlns="http://www.w3.org/2000/svg">
<path fill-rule="evenodd" clip-rule="evenodd" d="M65.243 4.20328C65.243 2.97792 64.2096 2.54802 63.11 2.54802C61.6367 2.54802 60.4272 3.02087 59.3058 3.51541L58.5359 1.2583C59.7895 0.699279 61.5268 0.0758972 63.5939 0.0758972C66.8263 0.0758972 68.3876 1.66667 68.3876 3.90223C68.3876 7.81472 62.8901 8.91096 61.9664 11.8992H68.5856V14.3927H58.0522C58.646 7.40636 65.243 6.99786 65.243 4.20328" fill="white"/>
<path fill-rule="evenodd" clip-rule="evenodd" d="M73.2255 8.65309H74.5449V7.12681C74.5449 6.03058 74.6328 4.76213 74.677 4.48276L71.4003 8.71758C71.6641 8.69604 72.7198 8.65309 73.2255 8.65309V8.65309ZM68.0579 9.14747L75.3146 0.118927H77.4698V8.65307H79.6248V11.0176H77.4698V14.3926H74.545V11.0176H68.0579V9.14747Z" fill="white"/>
<path fill-rule="evenodd" clip-rule="evenodd" d="M3.73034 12.2307C5.59552 12.2307 6.36941 11.6488 6.36941 10.4268C6.36941 9.72851 6.09165 9.24359 5.6353 8.97207C5.13917 8.68118 4.42481 8.60355 3.61127 8.60355H2.71832V12.2307H3.73034ZM0 1.62088H8.59182L7.9171 3.77393H2.71836V6.45064H3.61131C5.02015 6.45064 6.27028 6.62514 7.24251 7.12943C8.39347 7.71136 9.08795 8.75868 9.08795 10.3879C9.08795 12.6767 7.67911 14.403 3.67084 14.403H0V1.62088Z" fill="white"/>
<path fill-rule="evenodd" clip-rule="evenodd" d="M10.5168 14.403H13.1955V5.22852H10.5168V14.403ZM10.2389 2.39668C10.2389 1.56275 10.9334 0.88382 11.8661 0.88382C12.7788 0.88382 13.4733 1.524 13.4733 2.39668C13.4733 3.25026 12.7788 3.94843 11.8661 3.94843C10.9334 3.94843 10.2389 3.2695 10.2389 2.39668V2.39668Z" fill="white"/>
<path fill-rule="evenodd" clip-rule="evenodd" d="M17.0251 7.40103H14.2274V5.22861H23.0772L22.3827 7.40103H19.7039V14.4031H17.0251V7.40103Z" fill="white"/>
<path fill-rule="evenodd" clip-rule="evenodd" d="M27.7204 12.444C29.3277 12.444 30.1214 11.416 30.1214 9.80603C30.1214 8.02165 29.1293 7.14883 27.4823 7.14883C27.1449 7.14883 26.8671 7.16834 26.5695 7.26522V12.25C26.9266 12.3665 27.2641 12.444 27.7204 12.444V12.444ZM23.8908 5.59709C24.9227 5.24807 26.1926 4.99579 27.6014 4.99579C31.0937 4.99579 32.8597 6.91607 32.8597 9.80603C32.8597 12.5604 30.9549 14.597 27.919 14.597C27.4625 14.597 27.0061 14.5388 26.5695 14.4225V19H23.8908V5.59709Z" fill="white"/>
<path fill-rule="evenodd" clip-rule="evenodd" d="M34.09 14.403H36.7687V5.22852H34.09V14.403ZM33.8123 2.39668C33.8123 1.56275 34.5067 0.88382 35.4395 0.88382C36.3522 0.88382 37.0466 1.524 37.0466 2.39668C37.0466 3.25026 36.3522 3.94843 35.4395 3.94843C34.5067 3.94843 33.8123 3.2695 33.8123 2.39668V2.39668Z" fill="white"/>
<path fill-rule="evenodd" clip-rule="evenodd" d="M38.4555 5.22856H41.1344V8.73933H42.1263C43.2576 8.73933 43.2178 6.87732 44.0512 5.79097C44.4084 5.30619 44.9639 4.99579 45.8172 4.99579C46.095 4.99579 46.591 5.03454 46.8888 5.13155V7.36209C46.7299 7.30397 46.5316 7.26522 46.3331 7.26522C46.0354 7.26522 45.837 7.36209 45.6783 7.55611C45.202 8.13804 45.1227 9.32112 44.4281 9.74791V9.78679C44.8846 9.9613 45.2218 10.2909 45.4997 10.8729L47.1863 14.403H44.2892L43.178 11.5323C42.94 10.9699 42.7019 10.7177 42.4439 10.7177H41.1344V14.403H38.4555V5.22856Z" fill="white"/>
<path fill-rule="evenodd" clip-rule="evenodd" d="M47.6229 9.86429C47.6229 6.95482 49.9245 4.99579 52.6828 4.99579C53.9527 4.99579 54.786 5.34508 55.2821 5.65535V7.84701C54.6074 7.34285 53.893 7.07134 52.9803 7.07134C51.3333 7.07134 50.3611 8.29317 50.3611 9.84478C50.3611 11.5712 51.3532 12.5023 52.8614 12.5023C53.6947 12.5023 54.3297 12.2695 55.0242 11.8816L55.7782 13.666C55.0042 14.209 53.794 14.597 52.4843 14.597C49.369 14.597 47.6229 12.5604 47.6229 9.86429" fill="white"/>
<path fill-rule="evenodd" clip-rule="evenodd" d="M86.1443 8.4661C84.0584 8.4661 82.3675 6.80772 82.3675 4.76212C82.3675 2.71638 84.0584 1.05814 86.1443 1.05814C88.2302 1.05814 89.9211 2.71638 89.9211 4.76212C89.9211 6.80772 88.2302 8.4661 86.1443 8.4661V8.4661ZM86.1442 0C83.4625 0 81.2885 2.13205 81.2885 4.76215C81.2885 7.39225 83.4625 9.52443 86.1442 9.52443C88.826 9.52443 91 7.39225 91 4.76215C91 2.13205 88.826 0 86.1442 0V0Z" fill="white"/>
<path fill-rule="evenodd" clip-rule="evenodd" d="M85.6047 5.29125H86.6837V2.64557H85.6047V5.29125Z" fill="white"/>
<path fill-rule="evenodd" clip-rule="evenodd" d="M85.6047 5.29125H88.3023V4.23282H85.6047V5.29125Z" fill="white"/>
</svg>
