<svg width="92" height="19" viewBox="0 0 92 19" fill="none" xmlns="http://www.w3.org/2000/svg">
<path fill-rule="evenodd" clip-rule="evenodd" d="M12.4308 17.6506H15.6716V6.40578H12.4308V17.6506ZM12.0947 2.93489C12.0947 1.91277 12.9348 1.08063 14.0633 1.08063C15.1675 1.08063 16.0077 1.86528 16.0077 2.93489C16.0077 3.98109 15.1675 4.83681 14.0633 4.83681C12.9348 4.83681 12.0947 4.00483 12.0947 2.93489V2.93489Z" fill="white"/>
<path fill-rule="evenodd" clip-rule="evenodd" d="M18.7714 14.832V8.97649H16.7191V6.46685H18.7714V3.81381L21.9795 2.88171V6.46685H25.3528L24.6215 8.97649H21.9795V14.0195C21.9795 15.0711 22.3097 15.4295 23.0409 15.4295C23.6544 15.4295 24.2676 15.2143 24.6923 14.9275L25.6123 17.1264C24.7867 17.7001 23.3242 18.0108 22.2155 18.0108C20.0924 18.0108 18.7714 16.8157 18.7714 14.832" fill="white"/>
<path fill-rule="evenodd" clip-rule="evenodd" d="M26.3237 6.40887H29.0274L29.3829 7.59723C30.3316 6.71783 31.2328 6.12366 32.4421 6.12366C32.9877 6.12366 33.6518 6.29001 34.1497 6.64661L33.0351 9.30853C32.4661 8.95193 31.9205 8.88071 31.6123 8.88071C30.9244 8.88071 30.379 9.11828 29.5254 9.80758V17.6506H26.3237V6.40887Z" fill="white"/>
<path fill-rule="evenodd" clip-rule="evenodd" d="M34.8417 17.6506H38.0826V6.40578H34.8417V17.6506ZM34.5054 2.93489C34.5054 1.91277 35.3458 1.08063 36.4739 1.08063C37.5782 1.08063 38.4184 1.86528 38.4184 2.93489C38.4184 3.98109 37.5782 4.83681 36.4739 4.83681C35.3458 4.83681 34.5054 4.00483 34.5054 2.93489V2.93489Z" fill="white"/>
<path fill-rule="evenodd" clip-rule="evenodd" d="M42.9615 12.0319L38.8915 6.48389H42.1853L44.6788 9.88367L47.1726 6.48389H50.4661L46.3491 12.0319L50.5131 17.6506H47.2196L44.6554 14.1566L42.0676 17.6506H38.7741L42.9615 12.0319Z" fill="white"/>
<path fill-rule="evenodd" clip-rule="evenodd" d="M60.7912 5.08848C60.7912 3.57779 59.5697 3.04778 58.27 3.04778C56.5286 3.04778 55.0989 3.63074 53.7734 4.24043L52.8634 1.45774C54.3452 0.768543 56.3986 0 58.8419 0C62.6627 0 64.5081 1.9612 64.5081 4.71732C64.5081 9.54089 58.0101 10.8924 56.9183 14.5764H64.7421V17.6506H52.2917C52.9935 9.03743 60.7912 8.53381 60.7912 5.08848" fill="white"/>
<path fill-rule="evenodd" clip-rule="evenodd" d="M70.2287 10.9133H71.8113V9.02598C71.8113 7.6704 71.9166 6.10187 71.9697 5.75639L68.0397 10.9931C68.3561 10.9665 69.6222 10.9133 70.2287 10.9133V10.9133ZM64.0306 11.5247L72.7343 0.360199H75.3193V10.9134H77.9039V13.8373H75.3193V18.0108H71.8113V13.8373H64.0306V11.5247Z" fill="white"/>
<path fill-rule="evenodd" clip-rule="evenodd" d="M85.7299 10.5663C83.285 10.5663 81.303 8.49652 81.303 5.94347C81.303 3.39025 83.285 1.32065 85.7299 1.32065C88.1749 1.32065 90.1568 3.39025 90.1568 5.94347C90.1568 8.49652 88.1749 10.5663 85.7299 10.5663V10.5663ZM85.7299 0C82.5866 0 80.0383 2.66094 80.0383 5.94348C80.0383 9.22602 82.5866 11.8871 85.7299 11.8871C88.8733 11.8871 91.4216 9.22602 91.4216 5.94348C91.4216 2.66094 88.8733 0 85.7299 0V0Z" fill="white"/>
<path fill-rule="evenodd" clip-rule="evenodd" d="M85.0185 6.48389H86.4414V3.24194H85.0185V6.48389Z" fill="white"/>
<path fill-rule="evenodd" clip-rule="evenodd" d="M85.0185 6.48389H88.22V5.04303H85.0185V6.48389Z" fill="white"/>
<path fill-rule="evenodd" clip-rule="evenodd" d="M4.81275 15.3172C6.5797 15.3172 7.46317 14.6917 7.46317 13.2486C7.46317 12.0222 6.5797 11.3246 5.11506 11.3246H3.1853V15.3172H4.81275ZM4.39423 8.63088C5.78928 8.63088 6.50995 7.81321 6.50995 6.77916C6.50995 5.69672 5.81258 4.85503 4.32448 4.85503H3.1853V8.63088H4.39423ZM0 2.16129H4.81275C8.13739 2.16129 9.62549 4.15749 9.62549 6.17789C9.62549 7.47654 8.99772 8.75118 7.81193 9.37665V9.4247C9.6488 9.92971 10.6718 11.469 10.6718 13.2486C10.6718 15.6539 8.85822 18.0108 5.23126 18.0108H0V2.16129Z" fill="white"/>
</svg>
