<?xml version="1.0" encoding="UTF-8"?>
<svg width="49px" height="45px" viewBox="0 0 49 45" version="1.1" xmlns="http://www.w3.org/2000/svg" xmlns:xlink="http://www.w3.org/1999/xlink">
    <title>icon 04</title>
    <g id="Page-1" stroke="none" stroke-width="1" fill="none" fill-rule="evenodd">
        <g id="Размещение-формы-01" transform="translate(-466.000000, -142.000000)">
            <g id="Group-2" transform="translate(41.000000, 114.000000)">
                <rect id="Rectangle" stroke-opacity="0.424825175" stroke="#525C69" fill="#FFFFFF" opacity="0.498834" x="409.5" y="10.5" width="79" height="79" rx="4"></rect>
                <g id="Icons-/-Type-1-/-Icon-/-g-13" transform="translate(419.000000, 20.000000)" fill="#2FC6F6">
                    <path d="M52,8 C53.6568542,8 55,9.34314575 55,11 L55,50 C55,51.6568542 53.6568542,53 52,53 L9,53 C7.34314575,53 6,51.6568542 6,50 L6,11 C6,9.34314575 7.34314575,8 9,8 L52,8 Z M52,16 L9,16 L9,49.6 C9,49.7932997 9.1371128,49.9545749 9.31938605,49.9918734 L9.4,50 L51.6,50 C51.7932997,50 51.9545749,49.8628872 51.9918734,49.680614 L52,49.6 L52,16 Z M36.3133148,24.0005715 C36.1098941,24.6304689 36,25.3024009 36,26 C36,26.6979655 36.1100095,27.3702369 36.3136354,28.0004209 L23,28 C22.4871642,28 22.0644928,28.3860402 22.0067277,28.8833789 L22,29 L22,29.5 C22,30.0128358 22.3860402,30.4355072 22.8833789,30.4932723 L23,30.5 L37,30.5 C37.232261,30.5 37.446028,30.4208177 37.6157787,30.2879752 C38.7029192,31.5268105 40.2555024,32.3485293 42.0006709,32.4811062 L42,38 C42,39.6568542 40.6568542,41 39,41 L22,41 C20.3431458,41 19,39.6568542 19,38 L19,27 C19,25.3431458 20.3431458,24 22,24 L36.3133148,24.0005715 Z M37,33 L23,33 C22.4871642,33 22.0644928,33.3860402 22.0067277,33.8833789 L22,34 L22,34.5 C22,35.0128358 22.3860402,35.4355072 22.8833789,35.4932723 L23,35.5 L37,35.5 C37.5128358,35.5 37.9355072,35.1139598 37.9932723,34.6166211 L38,34.5 L38,34 C38,33.4477153 37.5522847,33 37,33 Z M45.9809067,21.4179688 L47.4179688,22.8550308 L44.8550308,25.4179688 L47.3582198,27.9211577 L45.9211577,29.3582198 L43.4179688,26.8550308 L40.8550308,29.4179688 L39.4179688,27.9809067 L41.9809067,25.4179688 L39.4777177,22.9147798 L40.9147798,21.4777177 L43.4179688,23.9809067 L45.9809067,21.4179688 Z M12.0924072,10.0966797 C11.0804021,10.0966797 10.2600098,10.917072 10.2600098,11.9290771 C10.2600098,12.9410823 11.0804021,13.7614746 12.0924072,13.7614746 C13.1044124,13.7614746 13.9248047,12.9410823 13.9248047,11.9290771 C13.9248047,10.917072 13.1044124,10.0966797 12.0924072,10.0966797 Z M16.9622803,10.0966797 C15.9502751,10.0966797 15.1298828,10.917072 15.1298828,11.9290771 C15.1298828,12.9410823 15.9502751,13.7614746 16.9622803,13.7614746 C17.9742854,13.7614746 18.7946777,12.9410823 18.7946777,11.9290771 C18.7946777,10.917072 17.9742854,10.0966797 16.9622803,10.0966797 Z M21.9622803,10.0966797 C20.9502751,10.0966797 20.1298828,10.917072 20.1298828,11.9290771 C20.1298828,12.9410823 20.9502751,13.7614746 21.9622803,13.7614746 C22.9742854,13.7614746 23.7946777,12.9410823 23.7946777,11.9290771 C23.7946777,10.917072 22.9742854,10.0966797 21.9622803,10.0966797 Z" id="Combined-Shape"></path>
                </g>
            </g>
        </g>
    </g>
</svg>