<?xml version="1.0" encoding="UTF-8"?>
<svg width="49px" height="45px" viewBox="0 0 49 45" version="1.1" xmlns="http://www.w3.org/2000/svg" xmlns:xlink="http://www.w3.org/1999/xlink">
    <title>icon 02</title>
    <g id="Page-1" stroke="none" stroke-width="1" fill="none" fill-rule="evenodd">
        <g id="Размещение-формы-01" transform="translate(-62.000000, -307.000000)">
            <g id="Group-2" transform="translate(28.000000, 283.000000)">
                <rect id="Rectangle" stroke-opacity="0.424825175" stroke="#525C69" fill="#FFFFFF" opacity="0.498834" x="18.5" y="6.5" width="79" height="79" rx="4"></rect>
                <g id="Icons-/-Type-1-/-Icon-/-g-14" transform="translate(28.000000, 16.000000)" fill="#2FC6F6">
                    <path d="M52,8 C53.6568542,8 55,9.34314575 55,11 L55,50 C55,51.6568542 53.6568542,53 52,53 L9,53 C7.34314575,53 6,51.6568542 6,50 L6,11 C6,9.34314575 7.34314575,8 9,8 L52,8 Z M52,16 L9,16 L9,49.6 C9,49.7932997 9.1371128,49.9545749 9.31938605,49.9918734 L9.4,50 L51.6,50 C51.7932997,50 51.9545749,49.8628872 51.9918734,49.680614 L52,49.6 L52,16 Z M40.5,29.0347365 C45.7275207,29.0347365 49.9652635,33.2724793 49.9652635,38.5 C49.9652635,43.7275207 45.7275207,47.9652635 40.5,47.9652635 C35.2724793,47.9652635 31.0347365,43.7275207 31.0347365,38.5 C31.0347365,33.2724793 35.2724793,29.0347365 40.5,29.0347365 Z M40.5,30.82204 C36.2595798,30.82204 32.82204,34.2595798 32.82204,38.5 C32.82204,42.7404202 36.2595798,46.17796 40.5,46.17796 C44.7404202,46.17796 48.17796,42.7404202 48.17796,38.5 C48.17796,34.2595798 44.7404202,30.82204 40.5,30.82204 Z M40.5,33 C43.5375661,33 46,35.4624339 46,38.5 C46,41.5375661 43.5375661,44 40.5,44 C37.4624339,44 35,41.5375661 35,38.5 C35,35.4624339 37.4624339,33 40.5,33 Z M12.0924072,10.0966797 C11.0804021,10.0966797 10.2600098,10.917072 10.2600098,11.9290771 C10.2600098,12.9410823 11.0804021,13.7614746 12.0924072,13.7614746 C13.1044124,13.7614746 13.9248047,12.9410823 13.9248047,11.9290771 C13.9248047,10.917072 13.1044124,10.0966797 12.0924072,10.0966797 Z M16.9622803,10.0966797 C15.9502751,10.0966797 15.1298828,10.917072 15.1298828,11.9290771 C15.1298828,12.9410823 15.9502751,13.7614746 16.9622803,13.7614746 C17.9742854,13.7614746 18.7946777,12.9410823 18.7946777,11.9290771 C18.7946777,10.917072 17.9742854,10.0966797 16.9622803,10.0966797 Z M21.9622803,10.0966797 C20.9502751,10.0966797 20.1298828,10.917072 20.1298828,11.9290771 C20.1298828,12.9410823 20.9502751,13.7614746 21.9622803,13.7614746 C22.9742854,13.7614746 23.7946777,12.9410823 23.7946777,11.9290771 C23.7946777,10.917072 22.9742854,10.0966797 21.9622803,10.0966797 Z" id="Combined-Shape"></path>
                </g>
            </g>
        </g>
    </g>
</svg>