<?xml version="1.0" encoding="UTF-8"?>
<svg width="49px" height="45px" viewBox="0 0 49 45" version="1.1" xmlns="http://www.w3.org/2000/svg" xmlns:xlink="http://www.w3.org/1999/xlink">
    <title>icon 02</title>
    <g id="Page-1" stroke="none" stroke-width="1" fill="none" fill-rule="evenodd">
        <g id="Размещение-формы-01" transform="translate(-197.000000, -307.000000)">
            <rect fill="#FFFFFF" x="0" y="0" width="580" height="917"></rect>
            <g id="Group-2" transform="translate(28.000000, 283.000000)">
                <rect id="Rectangle" stroke-opacity="0.424825175" stroke="#525C69" fill="#FFFFFF" opacity="0.498834" x="153.5" y="6.5" width="79" height="79" rx="3"></rect>
                <g id="Icons-/-Type-1-/-Icon-/-g-15" transform="translate(163.000000, 16.000000)" fill="#2FC6F6">
                    <path d="M52,8 C53.6568542,8 55,9.34314575 55,11 L55,50 C55,51.6568542 53.6568542,53 52,53 L9,53 C7.34314575,53 6,51.6568542 6,50 L6,11 C6,9.34314575 7.34314575,8 9,8 L52,8 Z M52,16 L9,16 L9,49.6 C9,49.7932997 9.1371128,49.9545749 9.31938605,49.9918734 L9.4,50 L51.6,50 C51.7932997,50 51.9545749,49.8628872 51.9918734,49.680614 L52,49.6 L52,16 Z M36.6571169,36.3013856 C38.2960072,34.6625024 40.9538805,34.6625024 42.5919752,36.3013856 C42.8501719,36.5590277 43.0531174,36.8479799 43.2292849,37.1482106 L43.2292849,37.1482106 L41.8502173,38.5267185 C41.7846908,38.5923486 41.7047373,38.6290904 41.6269289,38.6743083 C41.5306802,38.3489604 41.3640615,38.040634 41.1084595,37.784964 C40.2903809,36.9663354 38.959922,36.9663354 38.1411861,37.784964 L38.1411861,37.784964 L35.173532,40.7522244 C34.3553842,41.57068 34.3553842,42.9016521 35.173532,43.7204536 C35.991749,44.5381135 37.3231075,44.5381135 38.1411861,43.7204536 L38.1411861,43.7204536 L39.1971185,42.6641453 C40.0526655,42.9969315 40.9754344,43.0873329 41.8739854,42.9549657 L41.8739854,42.9549657 L39.6249093,45.203859 C37.9860535,46.8422232 35.328803,46.8422232 33.6899126,45.203859 C32.0511952,43.5646298 32.0511952,40.9080483 33.6899126,39.2686807 L33.6899126,39.2686807 Z M47.0438368,31.8500279 C48.6822428,33.4888419 48.6822428,36.1461846 47.0438368,37.784964 L44.0755946,40.7522244 C42.4373616,42.391419 39.7797305,42.391419 38.1412207,40.7522244 C37.8831277,40.4948591 37.6812201,40.2048691 37.5039109,39.9058147 L38.8830823,38.5267531 C38.9486434,38.4606387 39.0296002,38.4227553 39.1069589,38.3781255 C39.202308,38.7038886 39.3687537,39.0122841 39.6249439,39.2685077 C40.4430917,40.0873093 41.7743809,40.0861676 42.5920443,39.2685077 L45.5593524,36.3013164 C46.378123,35.4826187 46.378123,34.1516466 45.5593524,33.3335716 C44.7416544,32.5154966 43.4107111,32.5154966 42.5920443,33.3335716 L41.5368731,34.3898799 C40.6805995,34.056471 39.7580728,33.9668307 38.8600061,34.0984368 L41.1084941,31.8500279 C42.7476959,30.2111447 45.404635,30.2111447 47.0438368,31.8500279 Z M37,22 C38.6568542,22 40,23.3431458 40,25 L40,28.327 L36,32.327 L36,32 C36,31.4477153 35.5522847,31 35,31 L23,31 C22.4871642,31 22.0644928,31.3860402 22.0067277,31.8833789 L22,32 L22,32.5 C22,33.0128358 22.3860402,33.4355072 22.8833789,33.4932723 L23,33.5 L34.827,33.5 L30.327,38 L22,38 C20.3431458,38 19,36.6568542 19,35 L19,25 C19,23.3431458 20.3431458,22 22,22 L37,22 Z M35,26 L23,26 C22.4871642,26 22.0644928,26.3860402 22.0067277,26.8833789 L22,27 L22,27.5 C22,28.0128358 22.3860402,28.4355072 22.8833789,28.4932723 L23,28.5 L35,28.5 C35.5128358,28.5 35.9355072,28.1139598 35.9932723,27.6166211 L36,27.5 L36,27 C36,26.4477153 35.5522847,26 35,26 Z M12.0924072,10.0966797 C11.0804021,10.0966797 10.2600098,10.917072 10.2600098,11.9290771 C10.2600098,12.9410823 11.0804021,13.7614746 12.0924072,13.7614746 C13.1044124,13.7614746 13.9248047,12.9410823 13.9248047,11.9290771 C13.9248047,10.917072 13.1044124,10.0966797 12.0924072,10.0966797 Z M16.9622803,10.0966797 C15.9502751,10.0966797 15.1298828,10.917072 15.1298828,11.9290771 C15.1298828,12.9410823 15.9502751,13.7614746 16.9622803,13.7614746 C17.9742854,13.7614746 18.7946777,12.9410823 18.7946777,11.9290771 C18.7946777,10.917072 17.9742854,10.0966797 16.9622803,10.0966797 Z M21.9622803,10.0966797 C20.9502751,10.0966797 20.1298828,10.917072 20.1298828,11.9290771 C20.1298828,12.9410823 20.9502751,13.7614746 21.9622803,13.7614746 C22.9742854,13.7614746 23.7946777,12.9410823 23.7946777,11.9290771 C23.7946777,10.917072 22.9742854,10.0966797 21.9622803,10.0966797 Z" id="Combined-Shape"></path>
                </g>
            </g>
        </g>
    </g>
</svg>