<svg height="693" fill="none" xmlns="http://www.w3.org/2000/svg" xmlns:xlink="http://www.w3.org/1999/xlink">
	<rect width="100%" height="785" rx="22" fill="white"/>
	<rect x="22.5" y="22.5" width="90%" height="271" rx="17.5" fill="#F8FAFB"/>
	<rect x="22.5" y="22.5" width="90%" height="271" rx="17.5" stroke="#E6E7E9"/>
	<circle cx="49" cy="559" r="10" fill="#2FC6F6"/>
	<rect x="82.5" y="314.5" width="119" height="25" rx="3.5" stroke="#E6E7E9"/>
	<g id="content" fill="#9EA6AD" opacity=".2">
		<circle cx="49" cy="48" r="10"/>
		<circle cx="86" cy="126" r="17"/>
		<rect x="69" y="38" width="70%" height="16" rx="2"/>
		<rect x="69" y="62" width="25%" height="6" rx="2"/>
		<rect x="69" y="85" width="25%" height="12" rx="2"/>
		<rect x="111" y="113" width="35%" height="12" rx="2"/>
		<rect x="69" y="215" width="60%" height="8" rx="2"/>
		<rect x="69" y="192" width="30%" height="12" rx="2"/>
		<rect x="69" y="235" width="35%" height="8" rx="2"/>
		<rect x="69" y="165" width="33%" height="12" rx="2"/>
		<rect x="112" y="135" width="50%" height="6" rx="2"/>
		<rect x="69" y="265" width="30%" height="4" rx="2"/>
		<rect fill="#A8ADB4" x="103.748" y="323.426" width="76.5039" height="6.5" rx="2" />
		<g opacity=".6">
			<rect width="1" height="495" transform="matrix(-1 0 0 1 50 58)"/>
			<circle cx="49" cy="383" r="10"/>
			<circle cx="86" cy="461" r="17"/>
			<rect x="69" y="373" width="70%" height="16" rx="2"/>
			<rect x="69" y="420" width="25%" height="12" rx="2"/>
			<rect x="111" y="448" width="35%" height="12" rx="2"/>
			<rect x="112" y="470" width="50%" height="6" rx="2"/>
			<rect x="69" y="499" width="30%" height="4" rx="2"/>
			<rect x="69" y="397" width="25%" height="6" rx="2"/>
			<circle cx="86" cy="637" r="17"/>
			<rect x="69" y="549" width="70%" height="16" rx="2"/>
			<rect x="69" y="596" width="25%" height="12" rx="2"/>
			<rect x="111" y="624" width="35%" height="12" rx="2"/>
			<rect x="112" y="646" width="50%" height="6" rx="2"/>
			<rect x="69" y="675" width="30%" height="4" rx="2"/>
			<rect x="69" y="573" width="25%" height="6" rx="2"/>
			<circle cx="49" cy="327" r="10"/>
		</g>
	</g>
	<rect id="l"  width="100%" fill="url(#i)" mask="url(#j)" height="100%"/>
	<mask id="j" fill="#fff">
		<use xlink:href="#content"/>
	</mask>
	<linearGradient x1="66.6%" y1="50%" x2="33.3%" y2="50%" id="i">
		<stop stop-color="#9EA6AD" stop-opacity="0" offset="0%"/>
		<stop stop-color="#9EA6AD" stop-opacity="0" offset="0%"/>
		<stop stop-color="#9EA6AD" offset="50%"/>
		<stop stop-color="#9EA6AD" stop-opacity="0" offset="100%"/>
	</linearGradient>
	<animate xlink:href="#l" attributeName="x" from="-100%" to="100%" dur="1s" begin="0s" repeatCount="indefinite"/>
</svg>
