<svg xmlns="http://www.w3.org/2000/svg" width="13" height="11" viewBox="0 0 13 11">
  <path fill="#99A1AA" d="M12.2670368,1.61966574 C12.4544069,1.61966574 12.6295804,1.69464141 12.74191,1.84398209 C12.8541368,1.99393344 12.8917087,2.18087411 12.8419382,2.35466663 L11.6801438,7.16552263 C11.6176871,7.43960259 11.3678604,7.62654327 11.0931509,7.62654327 L4.89719748,7.62654327 C4.62248797,7.62654327 4.37266122,7.43960259 4.31020453,7.16552263 L2.67183196,1.78454328 L1.46027212,1.78503007 C1.13529747,1.78503007 0.860587972,1.51095011 0.860587972,1.1867202 C0.860587972,0.862490294 1.12310593,0.588410337 1.46027212,0.588410337 L3.14660273,0.588410337 C3.42131223,0.588410337 3.67113899,0.775351013 3.73359568,1.04943097 L4.14660273,1.58841034 L12.2670368,1.61966574 Z M6.55367529,9.55623257 C6.55367529,10.1539009 6.06904804,10.6380375 5.47137968,10.6380375 C4.87371132,10.6380375 4.38957479,10.1539009 4.38957479,9.55623257 C4.38957479,8.95856422 4.87371132,8.47393696 5.47137968,8.47393696 C6.06904804,8.47393696 6.55367529,8.95856422 6.55367529,9.55623257 Z M11.4407492,9.55623257 C11.4407492,10.1539009 10.9561219,10.6380375 10.3584535,10.6380375 C9.76078518,10.6380375 9.27664865,10.1539009 9.27664865,9.55623257 C9.27664865,8.95856422 9.76078518,8.47393696 10.3584535,8.47393696 C10.9561219,8.47393696 11.4407492,8.95856422 11.4407492,9.55623257 Z" transform="translate(-.647 -.588)"/>
</svg>
