<svg xmlns="http://www.w3.org/2000/svg" width="9" height="11" viewBox="0 0 9 11">
  <path fill="#99A1AA" d="M6.89169804,5.19519043 L6.89146912,5.00009512 C8.15766355,5.82658081 9,7.28931252 9,8.95718601 C9,11.2348833 6.98532404,10.805542 4.5,10.805542 C2.01467596,10.805542 0,11.0408389 0,8.95718601 C0,7.28920683 0.842405128,6.02212001 2.10853088,5.19560262 C2.6978711,5.80041681 3.55136713,6.18188963 4.50011446,6.18188963 C5.44850697,6.18188963 6.30242649,5.80042738 6.89169804,5.19519043 Z M4.47604916,0.263504276 C5.85444302,0.263504276 6.97604916,1.38505674 6.97604916,2.76395942 C6.97604916,3.45137668 6.6968529,4.07517561 6.24558076,4.52776361 C5.79257797,4.98211598 5.16655531,5.26350428 4.47604916,5.26350428 C3.785543,5.26350428 3.15954282,4.98211598 2.70651755,4.52776361 C2.25524542,4.07520933 1.97604916,3.45139915 1.97604916,2.7635099 C1.97604916,1.38511293 3.0975991,0.263504276 4.47604916,0.263504276 Z"/>
</svg>
