<svg width="46px" height="29px" viewBox="0 0 46 29" version="1.1" xmlns="http://www.w3.org/2000/svg" xmlns:xlink="http://www.w3.org/1999/xlink">
    <g id="Редактор-финал" stroke="none" stroke-width="1" fill="none" fill-rule="evenodd">
        <g id="01_Редактирование-Copy-3" transform="translate(-35.000000, -143.000000)" fill="#525C69">
            <g id="Group-29" transform="translate(35.000000, 143.000000)">
                <path d="M44.0225934,26.6484874 C44.0225934,26.9070374 43.7840237,27.1165067 43.4895549,27.1165067 L2.23097584,27.1165067 C1.93750519,27.1165067 1.69793731,26.9070374 1.69793731,26.6484874 L1.69793731,25.6659975 L18.1552521,25.6659975 C18.2081567,26.0831832 18.5954581,26.4127249 19.0865722,26.4127249 L26.6339585,26.4127249 C27.1240744,26.4127249 27.5133722,26.0831832 27.5652786,25.6659975 L44.0225934,25.6659975 L44.0225934,26.6484874 Z M6.23515652,23.1786052 L39.499349,23.1786052 L39.499349,3 L6.23515652,3 L6.23515652,23.1786052 Z M42.2937119,23.9786205 C42.3186669,23.8545486 42.3326417,23.727499 42.3326417,23.5964792 L42.3326417,1.91269151 C42.3326417,0.86155487 41.4662046,0 40.4081131,0 L5.32639242,0 C4.26830097,0 3.40286202,0.86155487 3.40286202,1.91269151 L3.40286202,23.5964792 C3.40286202,23.727499 3.41583862,23.8545486 3.4417918,23.9786205 L0,23.9786205 L0,26.7786738 C0,28.003511 0.999197678,28.9960857 2.23097584,28.9960857 L43.4895549,28.9960857 C44.7203349,28.9960857 45.7195325,28.003511 45.7195325,26.7786738 L45.7195325,23.9786205 L42.2937119,23.9786205 Z" id="Fill-1" opacity="0.800000012"></path>
                <path d="M21.7627874,18.1904764 L21.7424964,18.2107674 L17,13.468271 L18.0606602,12.4076109 L21.7446668,16.0916175 L28.8362844,9 L29.8969445,10.0606602 L21.7649579,18.1926469 L21.7627874,18.1904764 Z" id="Combined-Shape-Copy-4" opacity="0.400000006"></path>
            </g>
        </g>
    </g>
</svg>