<svg width="16px" height="25px" viewBox="0 0 16 25" version="1.1" xmlns="http://www.w3.org/2000/svg" xmlns:xlink="http://www.w3.org/1999/xlink">
    <g id="Редактор-финал" stroke="none" stroke-width="1" fill="none" fill-rule="evenodd">
        <g id="01_Редактирование-Copy-3" transform="translate(-176.000000, -144.000000)" fill="#525C69">
            <g id="Group-27" transform="translate(176.000000, 144.000000)">
                <path d="M2,0 L14,0 C15.1045695,-2.02906125e-16 16,0.8954305 16,2 L16,23 C16,24.1045695 15.1045695,25 14,25 L2,25 C0.8954305,25 1.3527075e-16,24.1045695 0,23 L0,2 C-1.3527075e-16,0.8954305 0.8954305,2.02906125e-16 2,0 Z M2,2 L2,21 L14,21 L14,2 L2,2 Z M8.01686718,24 C8.56915193,24 9.01686718,23.5522847 9.01686718,23 C9.01686718,22.4477153 8.56915193,22 8.01686718,22 C7.46458243,22 7.01686718,22.4477153 7.01686718,23 C7.01686718,23.5522847 7.46458243,24 8.01686718,24 Z" id="Combined-Shape" opacity="0.800000012"></path>
                <path d="M6.76278739,15.1904764 L6.74249637,15.2107674 L3.16640169,11.6346727 L4.22706186,10.5740126 L6.74466683,13.0916175 L11.8010744,8.03520994 L12.8617346,9.09587011 L6.76495785,15.1926469 L6.76278739,15.1904764 Z" id="Combined-Shape-Copy-5" opacity="0.400000006"></path>
            </g>
        </g>
    </g>
</svg>