<svg width="17px" height="25px" viewBox="0 0 17 25" version="1.1" xmlns="http://www.w3.org/2000/svg" xmlns:xlink="http://www.w3.org/1999/xlink">
    <g id="Редактор-финал" stroke="none" stroke-width="1" fill="none" fill-rule="evenodd">
        <g id="Artboard-Copy" transform="translate(-177.000000, -32.000000)" fill="#525C69">
            <g id="Group-4" transform="translate(177.600000, 32.000000)">
                <path d="M2.37514216,0 L14.3751422,0 C15.4797117,-2.02906125e-16 16.3751422,0.8954305 16.3751422,2 L16.3751422,23 C16.3751422,24.1045695 15.4797117,25 14.3751422,25 L2.37514216,25 C1.27057266,25 0.375142161,24.1045695 0.375142161,23 L0.375142161,2 C0.375142161,0.8954305 1.27057266,2.02906125e-16 2.37514216,0 Z M2.37514216,2 L2.37514216,21 L14.3751422,21 L14.3751422,2 L2.37514216,2 Z M8.39200934,24 C8.94429409,24 9.39200934,23.5522847 9.39200934,23 C9.39200934,22.4477153 8.94429409,22 8.39200934,22 C7.83972459,22 7.39200934,22.4477153 7.39200934,23 C7.39200934,23.5522847 7.83972459,24 8.39200934,24 Z" id="Combined-Shape"></path>
                <path d="M9.64723043,11.6654799 L13.4155155,15.4337649 L12.3548553,16.4944251 L8.58657025,12.72614 L4.81828518,16.4944251 L3.75762501,15.4337649 L7.52591008,11.6654799 L3.75762501,7.89719478 L4.81828518,6.8365346 L8.58657025,10.6048197 L12.3548553,6.8365346 L13.4155155,7.89719478 L9.64723043,11.6654799 Z" id="Combined-Shape"></path>
            </g>
        </g>
    </g>
</svg>