<svg width="33px" height="24px" viewBox="0 0 33 24" version="1.1" xmlns="http://www.w3.org/2000/svg" xmlns:xlink="http://www.w3.org/1999/xlink">
    <g id="Редактор-финал" stroke="none" stroke-width="1" fill="none" fill-rule="evenodd">
        <g id="01_Редактирование-Copy-3" transform="translate(-110.000000, -145.000000)" fill="#525C69">
            <g id="Group-28" transform="translate(110.000000, 145.000000)">
                <path d="M6.5,-4.5 L26.5,-4.5 C27.6045695,-4.5 28.5,-3.6045695 28.5,-2.5 L28.5,26.5 C28.5,27.6045695 27.6045695,28.5 26.5,28.5 L6.5,28.5 C5.3954305,28.5 4.5,27.6045695 4.5,26.5 L4.5,-2.5 C4.5,-3.6045695 5.3954305,-4.5 6.5,-4.5 Z M6.9837842,-1.54823016 L6.9837842,23.5189226 L26.1424271,23.5189226 L26.1424271,-1.54823016 L6.9837842,-1.54823016 Z M16.4017466,27.0550131 C17.1197982,27.0550131 17.701894,26.4729172 17.701894,25.7548656 C17.701894,25.0368141 17.1197982,24.4547182 16.4017466,24.4547182 C15.683695,24.4547182 15.1015992,25.0368141 15.1015992,25.7548656 C15.1015992,26.4729172 15.683695,27.0550131 16.4017466,27.0550131 Z" id="Combined-Shape-Copy" opacity="0.800000012" transform="translate(16.500000, 12.000000) rotate(-90.000000) translate(-16.500000, -12.000000) "></path>
                <path d="M13.7627874,16.1904764 L13.7424964,16.2107674 L9,11.468271 L10.0606602,10.4076109 L13.7446668,14.0916175 L20.8362844,7 L21.8969445,8.06066017 L13.7649579,16.1926469 L13.7627874,16.1904764 Z" id="Combined-Shape-Copy-4" opacity="0.400000006"></path>
            </g>
        </g>
    </g>
</svg>