<svg width="33px" height="24px" viewBox="0 0 33 23" version="1.1" xmlns="http://www.w3.org/2000/svg" xmlns:xlink="http://www.w3.org/1999/xlink">
    <g id="Редактор-финал" stroke="none" stroke-width="1" fill="none" fill-rule="evenodd">
        <g id="Artboard-Copy" transform="translate(-113.000000, -32.000000)" fill="#525C69">
            <g id="Group-5" transform="translate(112.600000, 30.50000)">
                <path d="M6.88663242,-3.51896798 L26.8866324,-3.51896798 C27.9912019,-3.51896798 28.8866324,-2.62353747 28.8866324,-1.51896798 L28.8866324,27.481032 C28.8866324,28.5856015 27.9912019,29.481032 26.8866324,29.481032 L6.88663242,29.481032 C5.78206292,29.481032 4.88663242,28.5856015 4.88663242,27.481032 L4.88663242,-1.51896798 C4.88663242,-2.62353747 5.78206292,-3.51896798 6.88663242,-3.51896798 Z M7.37041662,-0.56719814 L7.37041662,24.4999547 L26.5290595,24.4999547 L26.5290595,-0.56719814 L7.37041662,-0.56719814 Z M16.788379,28.0360451 C17.5064306,28.0360451 18.0885264,27.4539493 18.0885264,26.7358977 C18.0885264,26.0178461 17.5064306,25.4357503 16.788379,25.4357503 C16.0703274,25.4357503 15.4882316,26.0178461 15.4882316,26.7358977 C15.4882316,27.4539493 16.0703274,28.0360451 16.788379,28.0360451 Z" id="Combined-Shape-Copy" transform="translate(16.886632, 12.981032) rotate(-90.000000) translate(-16.886632, -12.981032) "></path>
                <path d="M16.9675144,12.6568542 L21.7404852,17.429825 L20.679825,18.4904852 L15.9068542,13.7175144 L11.1338835,18.4904852 L10.0732233,17.429825 L14.8461941,12.6568542 L10.0732233,7.88388348 L11.1338835,6.8232233 L15.9068542,11.5961941 L20.679825,6.8232233 L21.7404852,7.88388348 L16.9675144,12.6568542 Z" id="Combined-Shape-Copy-4"></path>
            </g>
        </g>
    </g>
</svg>