<svg xmlns="http://www.w3.org/2000/svg" width="27" height="20" viewBox="0 0 27 20">
  <path fill="#525C69" fill-rule="evenodd" d="M5.5,-3.5 L21.5,-3.5 C22.6045695,-3.5 23.5,-2.6045695 23.5,-1.5 L23.5,21.5 C23.5,22.6045695 22.6045695,23.5 21.5,23.5 L5.5,23.5 C4.3954305,23.5 3.5,22.6045695 3.5,21.5 L3.5,-1.5 C3.5,-2.6045695 4.3954305,-3.5 5.5,-3.5 Z M5.56982017,-1.08491559 L5.56982017,19.4245731 L21.5353559,19.4245731 L21.5353559,-1.08491559 L5.56982017,-1.08491559 Z M13.4181222,22.317738 C14.0164985,22.317738 14.5015783,21.8414777 14.5015783,21.253981 C14.5015783,20.6664842 14.0164985,20.190224 13.4181222,20.190224 C12.8197458,20.190224 12.334666,20.6664842 12.334666,21.253981 C12.334666,21.8414777 12.8197458,22.317738 13.4181222,22.317738 Z" transform="rotate(-90 13.5 10)"/>
</svg>
