
<svg xmlns="http://www.w3.org/2000/svg" width="226" height="64"><g fill="none" fill-rule="evenodd"><path fill="#E2F5FD" fill-rule="nonzero" d="M7.47 60.22c-4.268 0-7.304-2.97-7.304-7.414 0-4.4 3.014-7.436 7.304-7.436 4.29 0 7.304 3.058 7.304 7.436 0 4.444-3.08 7.414-7.304 7.414zm0-2.222c2.662 0 4.488-1.914 4.488-5.192 0-3.212-1.738-5.214-4.488-5.214-2.684 0-4.488 1.914-4.488 5.214 0 3.278 1.804 5.192 4.488 5.192zm14.366 2.222c-2.992 0-5.038-1.914-5.038-6.82 0-2.508.682-5.104 1.804-6.226 1.342-1.452 2.882-1.65 7.546-2.75v2.354c-4.114 1.012-5.258 1.188-5.918 2.046-.352.44-.616 1.166-.748 2.002h.044a6.024 6.024 0 0 1 3.014-.836c3.036 0 4.4 2.156 4.4 4.818 0 3.102-1.716 5.412-5.104 5.412zm.066-2.112c1.716 0 2.354-1.408 2.354-3.102 0-1.518-.506-2.992-2.222-2.992-.88 0-1.826.33-2.618.748-.022.286-.022.55-.022.748 0 3.124.946 4.598 2.508 4.598zM32.022 60v-8.228H28.59l-.616-2.178h6.666v3.696c.374-.022.792-.044 1.188-.044 3.454 0 4.576 1.562 4.576 3.322 0 1.892-1.122 3.432-4.62 3.432h-3.762zm2.618-2.002h1.078c1.76 0 2.068-.638 2.068-1.386 0-.77-.374-1.342-2.068-1.342-.33 0-.748.022-1.078.044v2.684zm16.632-2.486h-6.666c.066 1.606 1.21 2.64 2.948 2.64 1.034 0 1.87-.286 2.618-.704l.792 1.804c-1.1.682-2.398.968-3.674.968-3.784 0-5.324-2.596-5.324-5.412 0-3.124 1.716-5.478 4.686-5.478 2.926 0 4.62 2.112 4.62 5.566v.616zm-6.688-1.826h4.026c-.022-1.188-.616-2.354-2.002-2.354-1.298 0-2.002 1.1-2.024 2.354zm7.986 9.988v-5.786h.682c1.452-1.782 2.156-3.938 2.948-8.294h6.402v8.294h1.474v5.786h-2.42V60H54.99v3.674h-2.42zm7.414-5.786v-6.16h-1.87c-.462 2.684-1.122 4.62-2.046 6.116v.044h3.916zM66.122 60V49.594h2.574v4.62c0 .836-.044 1.628-.088 2.244h.044c.286-.484.792-1.298 1.386-2.178l3.256-4.686h2.552V60h-2.574v-4.62c0-.836.044-1.628.088-2.244h-.044c-.286.484-.77 1.298-1.386 2.178L68.674 60h-2.552zm12.32 0V49.594h2.618v3.74h4.092v-3.74h2.64V60h-2.64v-4.378H81.06V60h-2.618zm11.198 0l1.452-3.124c.33-.704.638-1.1 1.122-1.298v-.044c-1.188-.484-1.782-1.496-1.782-2.706 0-1.738 1.078-3.234 3.894-3.234h4.356V60h-2.618v-3.652h-1.628c-.308 0-.638.264-.924.99L92.478 60H89.64zm3.388-6.952c0 .814.528 1.364 1.54 1.364h1.496v-2.816H94.59c-1.1 0-1.562.616-1.562 1.452zm17.072 2.464h-6.666c.066 1.606 1.21 2.64 2.948 2.64 1.034 0 1.87-.286 2.618-.704l.792 1.804c-1.1.682-2.398.968-3.674.968-3.784 0-5.324-2.596-5.324-5.412 0-3.124 1.716-5.478 4.686-5.478 2.926 0 4.62 2.112 4.62 5.566v.616zm-6.688-1.826h4.026c-.022-1.188-.616-2.354-2.002-2.354-1.298 0-2.002 1.1-2.024 2.354zM114.566 60v-8.228h-3.168v-2.178h9.548l-.682 2.178h-3.08V60h-2.618zm12.694 0V49.594h2.618v4.092h1.21c1.298 0 1.276-2.178 2.134-3.432.418-.572 1.012-.924 1.914-.924.286 0 .77.044 1.078.154v2.222a1.767 1.767 0 0 0-.594-.088c-.308 0-.55.11-.726.33-.528.726-.616 2.222-1.496 2.75v.044c.528.198.88.594 1.21 1.276L136.5 60h-2.838l-1.32-3.322c-.308-.704-.594-.99-.902-.99h-1.562V60h-2.618zm15.598.22c-3.102 0-5.192-2.332-5.192-5.456 0-3.124 2.09-5.434 5.192-5.434 3.102 0 5.214 2.31 5.214 5.434s-2.112 5.456-5.214 5.456zm0-2.112c1.65 0 2.508-1.408 2.508-3.344 0-1.914-.858-3.322-2.508-3.322s-2.508 1.408-2.508 3.322c0 1.936.858 3.344 2.508 3.344zM150.162 60V49.594h2.574l1.584 2.596c.594.924 1.078 1.892 1.386 2.464h.044c.286-.55.792-1.54 1.386-2.464l1.562-2.596h2.574V60h-2.552v-4.576c0-.792.044-1.584.066-2.002h-.066c-.198.44-.572 1.078-.968 1.716l-1.474 2.398h-1.122l-1.474-2.42c-.396-.638-.77-1.276-.968-1.694h-.066c.044.418.066 1.254.066 2.09V60h-2.552zm13.706 0V49.594h9.152V60h-2.618v-8.074h-3.916V60h-2.618zm18.04 0l-.396-.99c-.748.682-1.694 1.21-2.992 1.21-1.98 0-3.454-1.32-3.454-3.322 0-1.408.682-2.288 1.76-2.838.726-.374 1.628-.55 2.684-.594l1.782-.066v-.33c0-1.21-.792-1.738-2.002-1.738-1.034 0-1.98.33-2.728.726l-.858-1.694a8.185 8.185 0 0 1 4.026-1.034c2.794 0 4.18 1.276 4.18 3.784v4.224c0 1.21.044 2.112.198 2.662h-2.2zm-.616-4.84l-1.408.044c-.682.022-1.166.132-1.518.33-.44.242-.638.66-.638 1.188 0 .902.594 1.43 1.54 1.43.968 0 1.672-.484 2.024-.77V55.16zm5.214 4.84V49.594h2.618v3.74h4.092v-3.74h2.64V60h-2.64v-4.378h-4.092V60h-2.618zm11.946 0V49.594h2.574v4.62c0 .836-.044 1.628-.088 2.244h.044c.286-.484.792-1.298 1.386-2.178l3.256-4.686h2.552V60h-2.574v-4.62c0-.836.044-1.628.088-2.244h-.044c-.286.484-.77 1.298-1.386 2.178L201.004 60h-2.552zm12.32 0V49.594h2.618v3.872h2.09c.462-2.442 2.178-4.136 4.774-4.136 3.036 0 4.884 2.31 4.884 5.434s-1.826 5.456-4.884 5.456c-2.706 0-4.466-1.848-4.818-4.466h-2.046V60h-2.618zm9.482-1.892c1.606 0 2.222-1.408 2.222-3.344 0-1.914-.572-3.322-2.222-3.322s-2.222 1.408-2.222 3.322c0 1.936.616 3.344 2.222 3.344z"/><path fill="#0065A3" d="M172.54 9.105c0-2.502-2.07-3.38-4.273-3.38-2.95 0-5.373.966-7.618 1.975l-1.542-4.608c2.51-1.141 5.99-2.414 10.13-2.414 6.473 0 9.6 3.248 9.6 7.812 0 7.988-11.01 10.226-12.86 16.327h13.257v5.09h-21.096c1.19-14.263 14.401-15.097 14.401-20.802"/><path fill="#0065A3" d="M188.526 18.19h2.643v-3.117c0-2.238.176-4.827.264-5.398l-6.562 8.646a71.941 71.941 0 0 1 3.655-.131zm-10.35 1.009L192.71.766h4.316V18.19h4.316v4.827h-4.316v6.89h-5.857v-6.89h-12.992V19.2z"/><path fill="#FFF" d="M24.366 25.473c3.735 0 5.285-1.188 5.285-3.683 0-1.426-.556-2.416-1.47-2.97-.993-.594-2.424-.753-4.053-.753h-1.789v7.406h2.027zM16.895 3.81h17.207l-1.351 4.396H22.339v5.465h1.789c2.821 0 5.325.356 7.272 1.386 2.305 1.188 3.696 3.326 3.696 6.653 0 4.672-2.822 8.197-10.85 8.197h-7.351V3.811zm21.142 7.366h5.206v7.484c0 1.545-.04 3.05-.16 4.119h.12c.437-.752 1.351-2.337 2.424-3.88l5.365-7.723h5.246v18.731h-5.246v-7.484c0-1.545.08-3.05.199-4.119h-.12a79.014 79.014 0 0 1-2.424 3.88l-5.365 7.723h-5.245V11.177zM63.987 15.612h-5.603v-4.435h17.724l-1.391 4.435h-5.365v14.296h-5.365zM85.407 25.908c3.22 0 4.809-2.098 4.809-5.385 0-3.644-1.987-5.426-5.286-5.426-.676 0-1.232.04-1.828.238v10.177c.715.238 1.391.396 2.305.396zm-7.67-13.979a22.951 22.951 0 0 1 7.432-1.227c6.994 0 10.53 3.92 10.53 9.82 0 5.624-3.814 9.782-9.894 9.782-.915 0-1.829-.119-2.703-.356v9.345h-5.365V11.93zm20.506-.752h5.206v7.484c0 1.545-.04 3.05-.159 4.119h.12c.437-.752 1.35-2.337 2.424-3.88l5.365-7.723h5.245v18.731H111.2v-7.484c0-1.545.079-3.05.198-4.119h-.119a79.015 79.015 0 0 1-2.424 3.88l-5.365 7.723h-5.246V11.177zm21.659 0h5.365v7.168h1.987c2.265 0 2.186-3.802 3.855-6.02.715-.99 1.828-1.623 3.537-1.623.556 0 1.55.079 2.146.277v4.554a3.27 3.27 0 0 0-1.113-.198c-.596 0-.994.198-1.312.594-.954 1.188-1.112 3.604-2.503 4.475v.079c.914.357 1.589 1.03 2.146 2.218l3.377 7.207h-5.802l-2.225-5.861c-.477-1.148-.954-1.663-1.47-1.663h-2.623v7.524h-5.365V11.177zm18.36 9.465c0-5.94 4.61-9.94 10.134-9.94 2.543 0 4.212.713 5.205 1.346v4.475c-1.351-1.03-2.782-1.584-4.61-1.584-3.298 0-5.245 2.495-5.245 5.663 0 3.524 1.987 5.425 5.007 5.425 1.67 0 2.941-.475 4.332-1.267l1.51 3.643c-1.55 1.109-3.974 1.901-6.597 1.901-6.24 0-9.736-4.158-9.736-9.662"/><path fill="#0065A3" d="M214.316 17.787a7.563 7.563 0 1 1 0-15.124 7.563 7.563 0 1 1 0 15.124m0-17.285c-5.371 0-9.725 4.353-9.725 9.723 0 5.37 4.354 9.723 9.725 9.723 5.37 0 9.725-4.354 9.725-9.723 0-5.37-4.354-9.723-9.725-9.723"/><path fill="#0065A3" d="M215.396 9.144h3.242v2.161h-5.402V5.903h2.16v3.241z"/></g></svg>