<svg width="344" height="240" viewBox="0 0 344 240" fill="none" xmlns="http://www.w3.org/2000/svg">
<path opacity="0.1" fill-rule="evenodd" clip-rule="evenodd" d="M265.865 239.876H80.343C78.7556 239.876 77.1818 239.817 75.6238 239.701C33.6952 238.736 0.00211839 204.096 0 161.507C0.01219 140.749 8.18583 120.846 22.7228 106.177C30.1743 98.6572 38.9848 92.8286 48.5705 88.9348C48.4101 86.8225 48.3284 84.688 48.3284 82.5341C48.3416 60.6314 56.9663 39.631 72.3052 24.1529C87.644 8.6747 108.441 -0.0133347 130.12 1.53625e-05C157.89 0.0342278 182.408 14.0645 197.143 35.479C204.14 32.9743 211.673 31.6129 219.52 31.6171C254.185 31.6592 282.657 58.357 285.958 92.4991C319.173 99.815 344.029 129.711 344 165.455C343.966 206.647 310.896 240.017 270.124 240C268.695 239.999 267.275 239.958 265.865 239.876V239.876Z" fill="white"/>
</svg>
