<svg width="192" height="278" viewBox="0 0 192 278" fill="none" xmlns="http://www.w3.org/2000/svg">
	<path opacity="0.3" d="M188.441 202.591C188.316 202.979 188.202 203.36 188.077 203.736C185.036 212.885 183.689 221.897 183.342 231.504C183.331 231.891 183.331 232.273 183.331 232.649C183.206 242.479 186.002 252.304 185.953 262.145H9.43276C9.05808 258.547 8.28158 255.019 7.39104 251.524C5.7946 245.249 3.99181 239.061 3.41079 232.649C3.36735 232.273 3.34021 231.891 3.31849 231.504C3.20446 229.934 3.17186 228.353 3.23703 226.75C3.5574 219.008 5.49595 211.446 6.03353 203.736C6.05525 203.36 6.07697 202.968 6.10412 202.591C6.14756 201.757 6.17471 200.918 6.17471 200.073C6.18557 191.425 3.1067 183.444 1.23333 175.162C1.21161 175.047 1.18988 174.944 1.16273 174.829C1.07042 174.453 0.988993 174.071 0.912972 173.684C-0.477126 166.618 -0.259917 159.781 1.42884 152.699C1.97727 150.409 2.61258 148.163 3.28591 145.916C3.4108 145.54 3.52481 145.148 3.63885 144.771C5.07781 140.088 6.59281 135.426 7.58652 130.59C8.52049 126.022 8.5911 121.496 8.17841 116.993C8.13497 116.617 8.09694 116.224 8.0535 115.848C7.03807 106.568 4.09498 97.3705 2.6343 88.08C2.5637 87.7038 2.5094 87.3222 2.46053 86.9351C2.10757 84.5307 1.8578 82.1154 1.78721 79.6837C1.55914 72.1816 3.0307 65.3991 5.94122 59.1673C6.11499 58.7911 6.29417 58.3986 6.4788 58.0224C8.60195 53.7588 11.4093 49.7515 14.7814 45.9404C20.4721 39.5123 28.8833 34.7363 37.2076 30.2601C37.9135 29.8729 38.6248 29.4913 39.3307 29.1151C44.2721 26.4708 49.094 23.881 53.2154 21.0732C58.5749 17.4203 63.5977 13.7782 68.8106 10.5942C69.4405 10.2071 70.0758 9.81451 70.7165 9.44922C75.9891 6.36876 81.5332 3.77899 87.8973 2.14335C104.758 -2.20746 122.384 0.000650406 137.398 9.36198C137.441 9.3947 137.501 9.41651 137.544 9.45468C138.147 9.83087 138.755 10.2125 139.347 10.5996C145.44 14.4925 151.326 18.6524 157.761 21.9401C162.154 24.1864 166.66 26.34 170.766 29.1206C171.314 29.4858 171.862 29.8675 172.384 30.2655C173.443 31.0561 174.485 31.8902 175.463 32.7844C182.663 39.3379 185.823 48.4757 186.562 58.0278C186.594 58.404 186.616 58.7857 186.643 59.1728C186.953 64.3632 186.562 69.6518 185.753 74.695C185.09 78.8059 184.21 82.8841 183.244 86.9405C183.162 87.3167 183.076 87.6984 182.972 88.0855C181.832 92.8507 180.567 97.594 179.389 102.321C178.259 106.879 177.244 111.344 176.728 115.848C176.695 116.224 176.646 116.606 176.614 116.993C176.228 121.125 176.293 125.307 177.103 129.647C178.096 134.952 179.921 139.886 181.919 144.766C182.076 145.142 182.229 145.535 182.397 145.911C183.505 148.583 184.656 151.249 185.725 153.953C188.245 160.277 190.129 166.896 191.101 173.679C191.172 174.055 191.215 174.447 191.259 174.824C191.373 175.647 191.465 176.476 191.546 177.299C192.448 186.753 190.927 194.713 188.441 202.591Z" fill="#2FC6F6"/>
	<path opacity="0.4" fill-rule="evenodd" clip-rule="evenodd" d="M139.342 10.5942H68.8052L68.9275 10.519C69.5173 10.1564 70.1118 9.79089 70.7111 9.44922H137.539L137.726 9.56651C138.271 9.90816 138.811 10.2468 139.342 10.5942ZM172.378 30.2656H37.2075C37.9134 29.8785 38.6248 29.4968 39.3307 29.1206H170.76C171.309 29.4859 171.857 29.8621 172.378 30.2656ZM5.94141 59.1728H186.638C186.616 58.7857 186.594 58.404 186.562 58.0278H6.47898C6.32031 58.3511 6.16566 58.6865 6.01501 59.0132L6.01491 59.0134L6.0148 59.0137L6.01473 59.0138L5.94141 59.1728ZM183.238 86.9409C183.157 87.3171 183.07 87.6988 182.967 88.0859H2.62884C2.55825 87.7097 2.50395 87.328 2.45508 86.9409H183.238ZM176.673 116.395C176.693 116.211 176.712 116.029 176.728 115.848H8.04834C8.07006 116.036 8.09042 116.228 8.11078 116.42L8.11079 116.42C8.13115 116.612 8.15151 116.805 8.17322 116.993H176.614C176.631 116.793 176.652 116.594 176.673 116.397L176.673 116.395ZM182.397 145.916H3.28076C3.37608 145.629 3.46508 145.333 3.55258 145.041C3.57973 144.951 3.60673 144.861 3.63373 144.771H181.914C181.98 144.923 182.043 145.078 182.106 145.233L182.106 145.234L182.106 145.234L182.106 145.234C182.2 145.463 182.294 145.692 182.397 145.916ZM1.15751 174.829H191.259L191.256 174.806L191.256 174.805L191.256 174.805C191.214 174.431 191.17 174.052 191.101 173.684H0.907715C0.983736 174.071 1.0652 174.453 1.15751 174.829ZM188.441 202.591C188.388 202.754 188.337 202.917 188.287 203.078C188.218 203.299 188.149 203.519 188.077 203.736H6.03369L6.04206 203.591C6.06107 203.26 6.08061 202.919 6.10428 202.591H188.441ZM183.331 232.649C183.331 232.273 183.331 231.891 183.342 231.504H3.31299C3.33471 231.891 3.36185 232.273 3.40529 232.649H183.331Z" fill="white"/>
	<rect x="46.0857" y="36.826" width="100.82" height="215.492" rx="5" fill="white"/>
	<g opacity="0.3">
		<path d="M89.814 139.673H63.5651C61.9795 139.673 60.698 138.387 60.698 136.795V53.3551C60.698 51.7631 61.9795 50.4764 63.5651 50.4764H89.814C91.3996 50.4764 92.6811 51.7631 92.6811 53.3551V136.789C92.6866 138.381 91.3996 139.673 89.814 139.673Z" fill="white" stroke="#BDC1C6" stroke-width="1.5" stroke-miterlimit="10" stroke-linecap="round" stroke-linejoin="round"/>
		<path d="M129.226 139.673H102.971C101.386 139.673 100.104 138.387 100.104 136.795V53.3551C100.104 51.7631 101.386 50.4764 102.971 50.4764H129.22C130.806 50.4764 132.087 51.7631 132.087 53.3551V136.789C132.093 138.381 130.806 139.673 129.226 139.673Z" fill="white" stroke="#BDC1C6" stroke-width="1.5" stroke-miterlimit="10" stroke-linecap="round" stroke-linejoin="round"/>
		<path d="M88.0059 239.241H65.3787C62.794 239.241 60.698 237.136 60.698 234.541V178.302C60.698 175.707 62.794 173.602 65.3787 173.602H88.0059C90.5906 173.602 92.6866 175.707 92.6866 178.302V234.541C92.6866 237.136 90.5906 239.241 88.0059 239.241Z" fill="white" stroke="#BDC1C6" stroke-width="1.5" stroke-miterlimit="10" stroke-linecap="round" stroke-linejoin="round"/>
		<path d="M127.412 239.241H104.785C102.2 239.241 100.104 237.136 100.104 234.541V178.302C100.104 175.707 102.2 173.602 104.785 173.602H127.412C129.997 173.602 132.093 175.707 132.093 178.302V234.541C132.093 237.136 129.997 239.241 127.412 239.241Z" fill="white" stroke="#BDC1C6" stroke-width="1.5" stroke-miterlimit="10" stroke-linecap="round" stroke-linejoin="round"/>
		<path d="M128.568 165.375H64.2221C62.2727 165.375 60.698 163.788 60.698 161.836V153.68C60.698 151.723 62.2781 150.141 64.2221 150.141H128.568C130.518 150.141 132.093 151.728 132.093 153.68V161.836C132.093 163.788 130.512 165.375 128.568 165.375Z" fill="white" stroke="#BDC1C6" stroke-width="1.5" stroke-miterlimit="10" stroke-linecap="round" stroke-linejoin="round"/>
	</g>
	<path fill-rule="evenodd" clip-rule="evenodd" d="M59.0071 146.334C58.7048 147.61 57.5626 148.555 56.202 148.555C54.6055 148.555 53.3186 147.258 53.3186 145.66C53.3186 144.057 54.611 142.765 56.202 142.765C57.5071 142.765 58.6113 143.638 58.9659 144.834H71.2705C71.6847 144.834 72.0205 145.17 72.0205 145.584C72.0205 145.998 71.6847 146.334 71.2705 146.334H59.0071Z" fill="#A8BBC5"/>
	<path d="M146.966 246.318H46.303V253.193H146.966V246.318Z" fill="white"/>
	<path d="M153.297 254.333V262.064H39.9714V254.333C39.9714 253.7 40.4873 253.188 41.1117 253.188H152.157C152.781 253.188 153.297 253.706 153.297 254.333Z" fill="white"/>
	<path d="M101.13 25.1948H91.4485C88.5163 25.1948 86.1379 22.8068 86.1379 19.8627C86.1379 16.9185 88.5163 14.5305 91.4485 14.5305H101.13C104.063 14.5305 106.441 16.9185 106.441 19.8627C106.441 22.8068 104.063 25.1948 101.13 25.1948Z" fill="white"/>
	<g opacity="0.6">
		<path d="M95.783 22.0915V23.0097H91.4481V22.2239L93.5276 19.9682C93.7445 19.721 93.916 19.5061 94.042 19.3237C94.168 19.1412 94.2574 18.9764 94.3102 18.8292C94.3659 18.6792 94.3937 18.5364 94.3937 18.4011C94.3937 18.2039 94.3585 18.0317 94.2882 17.8846C94.2178 17.7345 94.1153 17.6182 93.9804 17.5358C93.8485 17.4534 93.6859 17.4122 93.4924 17.4122C93.2785 17.4122 93.0953 17.4623 92.9429 17.5623C92.7934 17.6594 92.6791 17.7948 92.5999 17.9684C92.5237 18.1421 92.4856 18.3407 92.4856 18.5644H91.3206C91.3206 18.1847 91.4085 17.839 91.5843 17.527C91.7602 17.2121 92.0123 16.9605 92.3405 16.7721C92.6688 16.5838 93.0586 16.4896 93.51 16.4896C93.9497 16.4896 94.3219 16.5632 94.6267 16.7103C94.9315 16.8545 95.1631 17.0606 95.3214 17.3284C95.4796 17.5962 95.5588 17.9155 95.5588 18.2863C95.5588 18.4923 95.5251 18.6953 95.4577 18.8955C95.3902 19.0956 95.295 19.2942 95.1719 19.4914C95.0517 19.6856 94.9081 19.8828 94.741 20.0829C94.574 20.283 94.3878 20.4876 94.1827 20.6965L92.9341 22.0915H95.783Z" fill="#2FC6F6"/>
		<path d="M101.037 20.6656V21.5838H96.4249L96.3765 20.8775L99.0892 16.5823H100.017L99.0144 18.2907L97.5592 20.6656H101.037ZM100.276 16.5823V23.0097H99.1112V16.5823H100.276Z" fill="#2FC6F6"/>
	</g>
	<path d="M47.1174 253.188H146.064" stroke="#E6E6E6" stroke-width="1.5" stroke-miterlimit="10" stroke-linecap="round" stroke-linejoin="round"/>
	<path d="M60.3179 253.586V262.064" stroke="#E6E6E6" stroke-width="1.5" stroke-miterlimit="10" stroke-linecap="round" stroke-linejoin="round"/>
	<path d="M78.4001 253.586V262.064" stroke="#E6E6E6" stroke-width="1.5" stroke-miterlimit="10" stroke-linecap="round" stroke-linejoin="round"/>
	<path d="M132.972 253.586V262.064" stroke="#E6E6E6" stroke-width="1.5" stroke-miterlimit="10" stroke-linecap="round" stroke-linejoin="round"/>
	<path d="M47.1174 245.664H146.064" stroke="#E6E6E6" stroke-width="1.5" stroke-miterlimit="10" stroke-linecap="round" stroke-linejoin="round"/>
	<path d="M157.793 278H34.4545C33.5206 278 32.983 277.291 33.5315 276.773L35.8012 274.211L36.4854 273.437L38.8149 270.814L39.4991 270.045L39.8412 269.658L41.8286 267.428L42.5128 266.654L44.1418 264.811C44.359 264.62 44.7011 264.495 45.0649 264.495H147.188C147.552 264.495 147.894 264.62 148.111 264.811L149.74 266.654L150.425 267.428L152.412 269.658L153.438 270.814L155.768 273.437L156.452 274.211L158.722 276.773C159.265 277.291 158.727 278 157.793 278Z" fill="white"/>
	<path fill-rule="evenodd" clip-rule="evenodd" d="M93.3578 229.441L93.349 219.416C93.349 217.743 91.329 216.903 90.1507 218.086L85.211 223.053L79.6815 223.059C79.6391 223.059 79.5968 223.059 79.5546 223.06L74.6099 218.102C73.4262 216.914 71.4116 217.759 71.4116 219.438L71.4208 229.922C69.1008 229.534 66.7449 229.139 64.7001 228.794C64.2495 228.718 63.8368 229.018 63.7608 229.465C63.6847 229.912 63.9834 230.332 64.4286 230.408C64.4286 230.408 67.6787 230.954 71.4223 231.578L71.4225 231.831L71.4226 231.831L71.4234 233.444C63.9958 234.629 63.7555 234.729 63.6691 234.764L63.6685 234.765C63.2558 234.944 63.0603 235.424 63.2395 235.839C63.3698 236.149 63.6739 236.335 63.9888 236.335C64.0703 236.335 64.1463 236.324 64.2386 236.308C64.6884 236.2 67.846 235.682 71.4242 235.112L71.426 238.634C71.4236 238.718 71.4224 238.802 71.4224 238.886V242.49V247.528V262.265C71.4224 266.245 74.637 269.478 78.6063 269.478H102.835C102.96 269.489 103.08 269.494 103.199 269.494C103.342 269.494 103.48 269.489 103.616 269.484L103.616 269.484C103.682 269.482 103.747 269.48 103.813 269.478H104.225V269.467C115.753 268.834 118.534 257.767 118.68 251.693C118.729 249.605 117.247 247.724 115.189 247.44C112.772 247.113 110.655 248.978 110.589 251.366C110.562 252.309 110.171 259.991 104.236 261.196V250.553C104.236 244.414 99.5773 239.366 93.6151 238.777V238.886C93.6151 238.625 93.6034 238.368 93.5804 238.113L93.5787 234.683C96.4527 235.113 99.4677 235.566 102.026 235.953C102.064 235.964 102.108 235.964 102.146 235.964C102.542 235.964 102.89 235.675 102.95 235.255C103.015 234.808 102.711 234.388 102.265 234.322C102.265 234.322 98.058 233.69 93.5779 233.02L93.577 231.346C93.577 231.335 93.577 231.324 93.577 231.312C95.6347 230.948 98.0849 230.51 101.006 229.988C101.445 229.906 101.744 229.486 101.663 229.039C101.581 228.598 101.158 228.303 100.718 228.38C98.5086 228.777 95.921 229.239 93.4105 229.682C93.3941 229.601 93.3765 229.521 93.3578 229.441Z" fill="#5BBFEE"/>
</svg>