<svg width="681" height="417" viewBox="0 0 681 417" fill="none" xmlns="http://www.w3.org/2000/svg">
	<mask id="mask0_1880_133962" style="mask-type:alpha" maskUnits="userSpaceOnUse" x="271" y="0" width="410" height="417">
		<rect x="271" width="410" height="417" fill="#C4C4C4"/>
	</mask>
	<g mask="url(#mask0_1880_133962)">
		<path opacity="0.6" fill-rule="evenodd" clip-rule="evenodd" d="M698.344 439.816H418.982C416.591 439.816 414.221 439.728 411.875 439.555C348.739 438.12 298.003 386.593 298 323.242C298.018 292.364 310.326 262.758 332.216 240.938C343.437 229.753 356.704 221.083 371.138 215.29C370.897 212.148 370.774 208.973 370.774 205.77C370.794 173.189 383.781 141.951 406.878 118.927C429.976 95.9036 461.291 82.9802 493.936 83C535.753 83.0509 572.673 103.921 594.861 135.775C605.397 132.049 616.74 130.024 628.556 130.03C680.756 130.093 723.629 169.806 728.599 220.592C778.615 231.475 816.044 275.945 816 329.115C815.949 390.388 766.151 440.025 704.757 440C702.604 439.999 700.466 439.937 698.344 439.816Z" fill="white" fill-opacity="0.1" stroke="white" stroke-width="2"/>
	</g>
	<path opacity="0.3" fill-rule="evenodd" clip-rule="evenodd" d="M573.849 326.125H515.339C514.838 326.125 514.342 326.107 513.85 326.07C500.627 325.768 490.001 314.92 490 301.581C490.004 295.08 492.582 288.847 497.166 284.253C499.516 281.898 502.295 280.072 505.318 278.853C505.268 278.191 505.242 277.523 505.242 276.848C505.246 269.989 507.966 263.412 512.804 258.564C517.641 253.717 524.2 250.996 531.037 251C539.796 251.011 547.528 255.405 552.175 262.111C554.382 261.327 556.758 260.901 559.233 260.902C570.166 260.915 579.145 269.276 580.186 279.969C590.662 282.26 598.501 291.623 598.492 302.818C598.481 315.719 588.051 326.169 575.192 326.164C574.742 326.164 574.294 326.151 573.849 326.125Z" fill="white"/>
	<path opacity="0.3" fill-rule="evenodd" clip-rule="evenodd" d="M61.5446 338.347H43.7474C43.5951 338.347 43.4441 338.342 43.2946 338.33C39.2724 338.238 36.0402 334.918 36.04 330.837C36.0412 328.848 36.8253 326.94 38.2198 325.534C38.9347 324.814 39.7799 324.255 40.6994 323.882C40.684 323.68 40.6762 323.475 40.6762 323.269C40.6775 321.17 41.5048 319.157 42.9763 317.674C44.4477 316.19 46.4428 315.358 48.5225 315.359C51.1865 315.362 53.5385 316.707 54.952 318.759C55.6233 318.519 56.3459 318.389 57.0986 318.389C60.4241 318.393 63.1554 320.952 63.472 324.224C66.6584 324.925 69.0429 327.79 69.04 331.215C69.0368 335.163 65.8643 338.361 61.9531 338.359C61.816 338.359 61.6798 338.355 61.5446 338.347Z" fill="white"/>
	<path opacity="0.6" fill-rule="evenodd" clip-rule="evenodd" d="M51.7819 81.9758H15.6482C15.339 81.9758 15.0325 81.9642 14.729 81.9414C6.56272 81.7525 0.000412593 74.9688 0 66.6285C0.00237421 62.5633 1.59433 58.6657 4.42566 55.7929C5.87697 54.3204 7.59297 53.1789 9.45994 52.4164C9.42871 52.0027 9.4128 51.5847 9.4128 51.1629C9.41538 46.8736 11.0952 42.7611 14.0827 39.7299C17.0702 36.6988 21.1207 34.9974 25.3431 35C30.7519 35.0067 35.5272 37.7543 38.3971 41.948C39.7599 41.4575 41.227 41.1909 42.7554 41.1917C49.507 41.1999 55.0524 46.4283 55.6953 53.1144C62.1645 54.5471 67.0057 60.4017 67 67.4017C66.9934 75.4684 60.5524 82.0033 52.6114 82C52.333 81.9999 52.0564 81.9917 51.7819 81.9758Z" fill="white"/>
	<path opacity="0.6" fill-rule="evenodd" clip-rule="evenodd" d="M440.46 72.985H417.809C417.616 72.985 417.423 72.9779 417.233 72.9638C412.114 72.8473 408 68.6616 408 63.5154C408.001 61.0072 408.999 58.6022 410.774 56.8297C411.684 55.9211 412.76 55.2168 413.93 54.7463C413.911 54.4911 413.901 54.2331 413.901 53.9729C413.902 51.3263 414.955 48.7887 416.828 46.9185C418.701 45.0482 421.24 43.9984 423.887 44C427.277 44.0041 430.271 45.6995 432.07 48.287C432.924 47.9844 433.844 47.8199 434.802 47.8204C439.034 47.8255 442.51 51.0515 442.913 55.177C446.969 56.061 450.004 59.6734 450 63.9925C449.996 68.9699 445.958 73.0021 440.98 73C440.806 72.9999 440.632 72.9949 440.46 72.985Z" fill="white"/>
</svg>