<svg width="24" height="24" viewBox="0 0 24 24" fill="none" xmlns="http://www.w3.org/2000/svg">
	<path fill-rule="evenodd" clip-rule="evenodd" d="M4 8C4 6.34315 5.34315 5 7 5H18C19.6569 5 21 6.34315 21 8V16C21 17.6569 19.6569 19 18 19H7C5.34315 19 4 17.6569 4 16V8ZM6 7H19V17H6V7ZM11.426 14.6554C11.8278 14.3389 12.0288 13.9057 12.0288 13.3558C12.0288 12.9588 11.922 12.6241 11.7084 12.352C11.4949 12.0771 11.1001 11.8036 10.5241 11.5314C10.0885 11.326 9.81175 11.1843 9.69373 11.1066C9.57853 11.0261 9.49423 10.9441 9.44084 10.8608C9.38746 10.7748 9.36076 10.6748 9.36076 10.5609C9.36076 10.3777 9.42679 10.2291 9.55886 10.1152C9.69092 10.0014 9.88059 9.94447 10.1279 9.94447C10.3358 9.94447 10.5465 9.97085 10.7601 10.0236C10.9764 10.0764 11.249 10.1694 11.5778 10.3027L11.9992 9.29885C11.6817 9.16279 11.3769 9.05727 11.0846 8.98229C10.7952 8.90731 10.4903 8.86983 10.17 8.86983C9.51812 8.86983 9.00672 9.02394 8.63581 9.33217C8.26772 9.64041 8.08367 10.0639 8.08367 10.6026C8.08367 10.8886 8.13987 11.1385 8.25226 11.3523C8.36466 11.5662 8.51499 11.7536 8.70325 11.9147C8.89151 12.0757 9.1739 12.2437 9.55043 12.4187C9.95224 12.6075 10.2178 12.7449 10.347 12.831C10.4791 12.9171 10.5788 13.0073 10.6463 13.1018C10.7137 13.1934 10.7474 13.2989 10.7474 13.4183C10.7474 13.6321 10.6702 13.7932 10.5156 13.9015C10.3639 14.0098 10.1447 14.0639 9.85811 14.0639C9.61927 14.0639 9.35514 14.0265 9.06572 13.9515C8.77912 13.8765 8.42788 13.7474 8.01202 13.5641V14.7637C8.5178 15.0081 9.09944 15.1303 9.75696 15.1303C10.4707 15.1303 11.027 14.972 11.426 14.6554ZM14.8822 11.823H14.4523V10.0153H15.0466C15.4034 10.0153 15.6647 10.0875 15.8305 10.2319C15.9991 10.3763 16.0834 10.5998 16.0834 10.9025C16.0834 11.2024 15.9837 11.4315 15.7842 11.5898C15.5847 11.7453 15.284 11.823 14.8822 11.823ZM16.7789 12.3603C17.1947 12.0132 17.4027 11.512 17.4027 10.8567C17.4027 10.2263 17.2074 9.75287 16.8168 9.43631C16.429 9.11697 15.8614 8.9573 15.114 8.9573H13.1457V15.047H14.4523V12.881H15.0129C15.7771 12.881 16.3658 12.7074 16.7789 12.3603Z" fill="#525C69"/>
</svg>