<svg width="14" height="13" fill="none" xmlns="http://www.w3.org/2000/svg"><path fill-rule="evenodd" clip-rule="evenodd" d="M13.478 6.49A6.489 6.489 0 1 0 .5 6.488a6.489 6.489 0 0 0 12.978 0Zm-8.996-1.7c0-.318.102-.64.306-.966.204-.325.502-.595.893-.81.39-.213.847-.32 1.368-.32.485 0 .912.09 1.283.268.371.18.658.422.86.73.202.307.303.641.303 1.002 0 .284-.057.533-.172.747a2.286 2.286 0 0 1-.412.554 29.99 29.99 0 0 1-.854.785 3.475 3.475 0 0 0-.273.273c-.069.078-.12.15-.153.215-.034.066-.06.13-.078.196a7.53 7.53 0 0 0-.083.343c-.063.348-.262.522-.596.522a.61.61 0 0 1-.439-.17c-.119-.114-.178-.283-.178-.507 0-.28.043-.524.13-.73a1.85 1.85 0 0 1 .346-.54 7.92 7.92 0 0 1 .582-.555c.214-.187.368-.328.464-.423.095-.096.175-.202.24-.319a.77.77 0 0 0 .098-.38c0-.268-.1-.494-.298-.677-.2-.184-.456-.276-.77-.276-.368 0-.638.093-.812.278-.174.186-.32.459-.441.82-.114.377-.33.566-.647.566a.635.635 0 0 1-.474-.198.606.606 0 0 1-.193-.429Zm1.913 5.296a.79.79 0 0 0 .534.198c.197 0 .37-.067.521-.2.15-.134.226-.318.226-.552A.722.722 0 0 0 7.46 9a.722.722 0 0 0-.531-.215.745.745 0 0 0-.542.215.714.714 0 0 0-.22.532c0 .237.076.422.228.554Z" fill="#BDC1C6"/></svg>