<svg width="24" height="24" viewBox="0 0 24 24" fill="none" xmlns="http://www.w3.org/2000/svg">
<path fill-rule="evenodd" clip-rule="evenodd" d="M9.90485 5C9.38231 5 8.94787 5.40231 8.90779 5.9233L8.73032 8.23047H7.53369C6.98141 8.23047 6.53369 8.67818 6.53369 9.23047V9.38432C6.53369 9.9366 6.98141 10.3843 7.53369 10.3843H8.56464L8.31609 13.6154H6.74805C6.19576 13.6154 5.74805 14.0631 5.74805 14.6154V14.7692C5.74805 15.3215 6.19576 15.7692 6.74805 15.7692H8.15041L7.98472 17.9233C7.94004 18.5041 8.39926 19 8.98177 19H9.12971C9.65224 19 10.0867 18.5977 10.1268 18.0767L10.3043 15.7692H13.535L13.3693 17.9233C13.3247 18.5041 13.7839 19 14.3664 19H14.5143C15.0369 19 15.4713 18.5977 15.5114 18.0767L15.6889 15.7692H16.5942C17.1465 15.7692 17.5942 15.3215 17.5942 14.7692V14.6154C17.5942 14.0631 17.1465 13.6154 16.5942 13.6154H15.8546L16.1031 10.3843H17.3798C17.9321 10.3843 18.3798 9.9366 18.3798 9.38432V9.23047C18.3798 8.67818 17.9321 8.23047 17.3798 8.23047H16.2688L16.4345 6.0767C16.4791 5.4959 16.0199 5 15.4374 5H15.2895C14.7669 5 14.3325 5.40231 14.2924 5.9233L14.1149 8.23047H10.8842L11.0498 6.0767C11.0945 5.4959 10.6353 5 10.0528 5H9.90485ZM13.9493 10.3843H10.7185L10.4699 13.6154H13.7007L13.9493 10.3843Z" fill="#525C69"/>
</svg>
