<svg width="24" height="24" viewBox="0 0 24 24" fill="none" xmlns="http://www.w3.org/2000/svg">
<path fill-rule="evenodd" clip-rule="evenodd" d="M13.1689 10.3161C14.4559 9.81585 15.3681 8.56508 15.3681 7.10125C15.3681 5.19701 13.8244 3.65332 11.9202 3.65332C10.0159 3.65332 8.47225 5.19701 8.47225 7.10125C8.47225 8.55392 9.37062 9.79677 10.6421 10.3045V18.6946C9.5697 18.3902 8.69025 17.7643 8.00823 17.0994C7.53341 16.6365 7.17232 16.171 6.93074 15.8218C6.88353 15.7536 6.84111 15.6901 6.80354 15.6324L8.14326 14.8675C8.36287 14.7422 8.34642 14.4203 8.11518 14.318L4.06859 12.5273C3.87877 12.4433 3.66187 12.5671 3.6377 12.7732L3.12234 17.1682C3.09289 17.4194 3.36171 17.5972 3.58131 17.4718L5.06431 16.6252C5.12645 16.7234 5.20035 16.8359 5.28596 16.9597C5.58196 17.3875 6.02414 17.9582 6.61208 18.5314C7.78106 19.6711 9.59963 20.8877 12.0306 20.8877C14.4615 20.8877 16.2801 19.6711 17.4491 18.5314C18.037 17.9582 18.4792 17.3875 18.7752 16.9597C18.8677 16.826 18.9465 16.7054 19.0116 16.6019L20.5354 17.4718C20.755 17.5972 21.0239 17.4194 20.9944 17.1682L20.4791 12.7732C20.4549 12.5671 20.238 12.4433 20.0482 12.5273L16.0016 14.318C15.7703 14.4203 15.7539 14.7422 15.9735 14.8675L17.2727 15.6092C17.2315 15.673 17.1841 15.7443 17.1304 15.8218C16.8889 16.171 16.5278 16.6365 16.0529 17.0994C15.3186 17.8153 14.3554 18.4859 13.1689 18.7589V10.3161ZM11.9205 8.71982C12.8145 8.71982 13.5392 7.99511 13.5392 7.10112C13.5392 6.20714 12.8145 5.48242 11.9205 5.48242C11.0266 5.48242 10.3018 6.20714 10.3018 7.10112C10.3018 7.99511 11.0266 8.71982 11.9205 8.71982Z" fill="#525C69"/>
</svg>
