<svg width="24" height="24" viewBox="0 0 24 24" fill="none" xmlns="http://www.w3.org/2000/svg">
	<path fill-rule="evenodd" clip-rule="evenodd" d="M13.0481 9.57677C14.1948 9.13098 15.0077 8.01645 15.0077 6.71207C15.0077 5.01522 13.6321 3.63965 11.9353 3.63965C10.2384 3.63965 8.86284 5.01522 8.86284 6.71207C8.86284 8.00656 9.6634 9.11408 10.7964 9.56652V16.9295C9.87662 16.6615 9.11849 16.1215 8.52546 15.5434C8.1085 15.1369 7.79115 14.7278 7.57885 14.4209C7.53882 14.3631 7.50275 14.3092 7.47066 14.26L8.51193 13.6655C8.73154 13.5402 8.71509 13.2183 8.48385 13.116L4.98037 11.5656C4.79056 11.4816 4.57366 11.6054 4.54948 11.8116L4.1033 15.6167C4.07385 15.8678 4.34267 16.0457 4.56227 15.9203L5.73143 15.2528C5.7881 15.3425 5.85565 15.4454 5.93406 15.5588C6.2008 15.9444 6.59923 16.4586 7.1293 16.9754C8.18254 18.0022 9.82884 19.1059 12.0337 19.1059C14.2386 19.1059 15.8849 18.0022 16.9381 16.9754C17.4682 16.4586 17.8666 15.9444 18.1334 15.5588C18.2179 15.4366 18.2898 15.3264 18.3491 15.2321L19.5546 15.9203C19.7742 16.0457 20.0431 15.8678 20.0136 15.6167L19.5674 11.8116C19.5433 11.6054 19.3264 11.4816 19.1365 11.5656L15.6331 13.116C15.4018 13.2183 15.3854 13.5402 15.605 13.6655L16.6102 14.2394C16.5748 14.294 16.5343 14.3549 16.4886 14.4209C16.2763 14.7278 15.9589 15.1369 15.542 15.5434C14.9017 16.1676 14.069 16.7473 13.0481 16.9882V9.57677ZM11.9355 8.15437C12.7321 8.15437 13.3779 7.50858 13.3779 6.71196C13.3779 5.91533 12.7321 5.26954 11.9355 5.26954C11.1389 5.26954 10.4931 5.91533 10.4931 6.71196C10.4931 7.50858 11.1389 8.15437 11.9355 8.15437Z" fill="#525C69"/>
</svg>
