<svg width="24" height="24" viewBox="0 0 24 24" fill="none" xmlns="http://www.w3.org/2000/svg">
<path fill-rule="evenodd" clip-rule="evenodd" d="M10.1118 12.8926V15.7663H12.1509C12.7123 15.7663 13.1437 15.6469 13.4452 15.4081C13.7466 15.1694 13.8973 14.8331 13.8973 14.3994C13.8973 13.4004 13.3623 12.8981 12.2927 12.8926H10.1118ZM10.1118 10.9986H11.7341C12.4138 10.9933 12.8984 10.8776 13.1881 10.6517C13.4776 10.4261 13.6225 10.093 13.6225 9.65244C13.6225 9.14593 13.4658 8.78118 13.1527 8.55818C12.8393 8.33519 12.3339 8.22363 11.6367 8.22363H10.1118V10.9986ZM7 17.9893V6H11.6365C13.2973 6 14.5606 6.28286 15.4264 6.84815C16.2922 7.41365 16.7252 8.23432 16.7252 9.31016C16.7252 9.93073 16.5714 10.4604 16.2641 10.8996C15.9568 11.3387 15.5047 11.6627 14.9078 11.8712C15.5816 12.0358 16.0986 12.3433 16.4593 12.7935C16.8197 13.2436 17 13.7926 17 14.4403C17 15.6151 16.5996 16.4976 15.7988 17.0878C14.9979 17.6779 13.8115 17.9784 12.2394 17.9893H7Z" fill="#525C69"/>
</svg>
