<svg width="24" height="24" viewBox="0 0 24 24" fill="none" xmlns="http://www.w3.org/2000/svg">
<path fill-rule="evenodd" clip-rule="evenodd" d="M6.00001 3C4.89544 3 4.00001 3.89543 4.00001 5V8C4.00001 9.10457 4.89544 10 6.00001 10H18C19.1046 10 20 9.10457 20 8V5C20 3.89543 19.1046 3 18 3H6.00001ZM6.00001 4C5.44772 4 5.00001 4.44772 5.00001 5V8C5.00001 8.55228 5.44772 9 6.00001 9H18C18.5523 9 19 8.55228 19 8V5C19 4.44772 18.5523 4 18 4H6.00001ZM7.00001 5H14V6H7.00001V5ZM14 7H7.00001V8H14V7ZM6.00049 12C4.89592 12 4.00049 12.8954 4.00049 14V17C4.00049 18.1046 4.89592 19 6.00049 19H18.0005C19.1051 19 20.0005 18.1046 20.0005 17V14C20.0005 12.8954 19.1051 12 18.0005 12H6.00049ZM6.00049 13C5.4482 13 5.00049 13.4477 5.00049 14V17C5.00049 17.5523 5.4482 18 6.00049 18H18.0005C18.5528 18 19.0005 17.5523 19.0005 17V14C19.0005 13.4477 18.5528 13 18.0005 13H6.00049ZM7.00049 14H14.0005V15H7.00049V14ZM14.0005 16H7.00049V17H14.0005V16ZM3.81476 11.0309L0.185059 7.40122V14.6606L3.81476 11.0309Z" fill="#525C69"/>
</svg>
