<svg width="24" height="24" viewBox="0 0 24 24" fill="none" xmlns="http://www.w3.org/2000/svg">
<path fill-rule="evenodd" clip-rule="evenodd" d="M4.82309 8.64294C5.82995 8.64294 6.64618 7.82744 6.64618 6.82147C6.64618 5.8155 5.82995 5 4.82309 5C3.81622 5 3 5.8155 3 6.82147C3 7.82744 3.81622 8.64294 4.82309 8.64294ZM20.9689 6H9V7.99822H20.9689V6ZM20.9689 10.9951H9V12.9933H20.9689V10.9951ZM20.9689 15.9911H9V17.9893H20.9689V15.9911ZM6.64618 11.8166C6.64618 12.8226 5.82995 13.6381 4.82309 13.6381C3.81622 13.6381 3 12.8226 3 11.8166C3 10.8106 3.81622 9.99512 4.82309 9.99512C5.82995 9.99512 6.64618 10.8106 6.64618 11.8166ZM4.82309 18.634C5.82995 18.634 6.64618 17.8186 6.64618 16.8126C6.64618 15.8066 5.82995 14.9911 4.82309 14.9911C3.81622 14.9911 3 15.8066 3 16.8126C3 17.8186 3.81622 18.634 4.82309 18.634Z" fill="#525C69"/>
</svg>
