<svg width="24" height="24" viewBox="0 0 24 24" fill="none" xmlns="http://www.w3.org/2000/svg">
<path fill-rule="evenodd" clip-rule="evenodd" d="M5.58576 6.00543C5.42039 5.97794 5.25542 6.05648 5.17251 6.20218L2.05235 11.685C1.98255 11.8076 1.98255 11.958 2.05235 12.0806L5.17263 17.5636C5.25548 17.7092 5.42027 17.7878 5.58554 17.7604L6.97127 17.5313C7.24471 17.4861 7.39041 17.1832 7.25508 16.9413L4.53466 12.0791C4.46676 11.9577 4.46676 11.8098 4.53466 11.6885L7.25534 6.82577C7.39059 6.58403 7.24512 6.28131 6.97186 6.23588L5.58576 6.00543ZM18.0704 17.5639C17.9875 17.7096 17.8225 17.7881 17.6571 17.7606L16.271 17.5302C15.9978 17.4848 15.8523 17.182 15.9875 16.9403L18.7082 12.0776C18.7761 11.9563 18.7761 11.8083 18.7082 11.687L15.9878 6.82475C15.8525 6.58288 15.9982 6.28002 16.2716 6.2348L17.6573 6.00564C17.8226 5.9783 17.9874 6.05685 18.0702 6.20244L21.1905 11.6854C21.2603 11.8081 21.2603 11.9585 21.1905 12.0811L18.0704 17.5639ZM9.66033 13.3264C9.66033 14.0943 9.03775 14.7169 8.26977 14.7169C7.50179 14.7169 6.87922 14.0943 6.87922 13.3264C6.87922 12.5584 7.50179 11.9358 8.26977 11.9358C9.03775 11.9358 9.66033 12.5584 9.66033 13.3264ZM12.901 13.3264C12.901 14.0943 12.2785 14.7169 11.5105 14.7169C10.7425 14.7169 10.1199 14.0943 10.1199 13.3264C10.1199 12.5584 10.7425 11.9358 11.5105 11.9358C12.2785 11.9358 12.901 12.5584 12.901 13.3264ZM14.677 14.7169C15.445 14.7169 16.0676 14.0943 16.0676 13.3264C16.0676 12.5584 15.445 11.9358 14.677 11.9358C13.909 11.9358 13.2864 12.5584 13.2864 13.3264C13.2864 14.0943 13.909 14.7169 14.677 14.7169Z" fill="#525C69"/>
</svg>
