<svg width="24" height="24" viewBox="0 0 24 24" fill="none" xmlns="http://www.w3.org/2000/svg">
<path fill-rule="evenodd" clip-rule="evenodd" d="M12.7628 17.1108H8.75856C8.53799 17.1108 8.32644 17.0248 8.17047 16.8718L5.74457 14.4914C5.41978 14.1727 5.41978 13.656 5.74457 13.3373L13.9976 5.23903C14.3224 4.92032 14.849 4.92032 15.1738 5.23903L19.6018 9.58402C19.9266 9.90273 19.9266 10.4194 19.6018 10.7381L13.3509 16.8718C13.195 17.0248 12.9834 17.1108 12.7628 17.1108ZM12.3946 15.6156L15.1999 12.8629L11.8294 9.55556L7.495 13.8086L9.33646 15.6156H12.3946ZM5.35965 18.3175H18.2325C18.4311 18.3175 18.5921 18.4755 18.5921 18.6704V19.4793C18.5921 19.6742 18.4311 19.8322 18.2325 19.8322H5.35965C5.16102 19.8322 5 19.6742 5 19.4793V18.6704C5 18.4755 5.16102 18.3175 5.35965 18.3175Z" fill="#525C69"/>
</svg>
