<svg width="24" height="24" viewBox="0 0 24 24" fill="none" xmlns="http://www.w3.org/2000/svg">
<path fill-rule="evenodd" clip-rule="evenodd" d="M17.6939 13.2751H14.9354L16.3221 8.90723H16.3519L17.6939 13.2751ZM17.5602 5.97363H15.1595L11.1337 17.8769H13.4896L14.3246 15.2262H18.3057L19.1109 17.8769H21.5413L17.5602 5.97363ZM3.5123 9.19649C3.32331 9.38547 3.45716 9.70862 3.72443 9.70862H5.90576V14.4054H3.72452C3.45725 14.4054 3.3234 14.7285 3.51239 14.9175L6.496 17.9011C6.61316 18.0183 6.80311 18.0183 6.92027 17.9011L9.90388 14.9175C10.0929 14.7285 9.95902 14.4054 9.69175 14.4054H7.50899V9.70862H9.69166C9.95894 9.70862 10.0928 9.38547 9.9038 9.19648L6.92018 6.21287C6.80302 6.09571 6.61307 6.09571 6.49591 6.21287L3.5123 9.19649Z" fill="#525C69"/>
</svg>
