<svg width="24" height="24" viewBox="0 0 24 24" fill="none" xmlns="http://www.w3.org/2000/svg">
<path fill-rule="evenodd" clip-rule="evenodd" d="M9.92706 18.4231C10.1449 18.641 9.99063 19.0136 9.68249 19.0136H5.34722C5.1562 19.0136 5.00135 18.8587 5.00135 18.6677L5.00135 14.3325C5.00135 14.0243 5.3739 13.87 5.59179 14.0879L7.04684 15.5429L9.55928 13.0305L10.9817 14.4529L8.46928 16.9654L9.92706 18.4231ZM13.0185 14.4686L15.5296 16.9797L14.0867 18.4226C13.8688 18.6405 14.0231 19.013 14.3313 19.013H18.6665C18.8576 19.013 19.0124 18.8582 19.0124 18.6671L19.0124 14.3319C19.0124 14.0237 18.6399 13.8694 18.422 14.0873L16.9778 15.5315L14.4667 13.0204L13.0185 14.4686ZM14.454 10.9806L16.9663 8.46832L18.4239 9.92591C18.6418 10.1438 19.0144 9.98948 19.0144 9.68134V5.34608C19.0144 5.15506 18.8595 5.0002 18.6685 5.0002L14.3332 5.0002C14.0251 5.0002 13.8708 5.37276 14.0887 5.59065L15.5439 7.04588L13.0316 9.55817L14.454 10.9806ZM10.9944 9.54808L8.48123 7.03493L9.92571 5.59044C10.1436 5.37256 9.98928 5 9.68114 5H5.34587C5.15485 5 5 5.15485 5 5.34587L5 9.68114C5 9.98928 5.37255 10.1436 5.59044 9.92571L7.03306 8.4831L9.54622 10.9963L10.9944 9.54808Z" fill="#525C69"/>
</svg>
