<svg width="24" height="24" viewBox="0 0 24 24" fill="none" xmlns="http://www.w3.org/2000/svg">
<path fill-rule="evenodd" clip-rule="evenodd" d="M5 4.5C5 4.22386 5.22386 4 5.5 4H18.5C18.7761 4 19 4.22386 19 4.5V5C19 5.27614 18.7761 5.5 18.5 5.5H5.5C5.22386 5.5 5 5.27614 5 5V4.5ZM5 7.5C5 7.22386 5.22386 7 5.5 7H18.5C18.7761 7 19 7.22386 19 7.5V8C19 8.27614 18.7761 8.5 18.5 8.5H5.5C5.22386 8.5 5 8.27614 5 8V7.5ZM3 10.5C3 10.2239 3.22386 10 3.5 10H20.5C20.7761 10 21 10.2239 21 10.5V12.5C21 12.7761 20.7761 13 20.5 13H3.5C3.22386 13 3 12.7761 3 12.5V10.5ZM5.5 17.5418C5.22386 17.5418 5 17.7656 5 18.0418V18.5418C5 18.8179 5.22386 19.0418 5.5 19.0418H18.5C18.7761 19.0418 19 18.8179 19 18.5418V18.0418C19 17.7656 18.7761 17.5418 18.5 17.5418H5.5ZM5.5 14.5418C5.22386 14.5418 5 14.7656 5 15.0418V15.5418C5 15.8179 5.22386 16.0418 5.5 16.0418H18.5C18.7761 16.0418 19 15.8179 19 15.5418V15.0418C19 14.7656 18.7761 14.5418 18.5 14.5418H5.5Z" fill="#525C69"/>
</svg>
