<svg width="24" height="24" viewBox="0 0 24 24" fill="none" xmlns="http://www.w3.org/2000/svg">
<path fill-rule="evenodd" clip-rule="evenodd" d="M6.64707 5H17.353C18.2627 5 19.0001 5.73742 19.0001 6.64707V17.353C19.0001 18.2627 18.2627 19.0001 17.353 19.0001H6.64707C5.73742 19.0001 5 18.2627 5 17.353V6.64707C5 5.73742 5.73742 5 6.64707 5ZM7.11133 16.8568H16.9206V16.1023L14.305 13.0838L12.9968 14.5933L9.72694 10.8203L7.11133 13.8383V16.8568ZM14.6943 10.5333C15.3933 10.5333 15.9599 9.96665 15.9599 9.26768C15.9599 8.56871 15.3933 8.00208 14.6943 8.00208C13.9953 8.00208 13.4287 8.56871 13.4287 9.26768C13.4287 9.96665 13.9953 10.5333 14.6943 10.5333Z" fill="#525C69"/>
</svg>
