<svg width="24" height="24" viewBox="0 0 24 24" fill="none" xmlns="http://www.w3.org/2000/svg">
<path fill-rule="evenodd" clip-rule="evenodd" d="M4 9C4 6.79086 5.79086 5 8 5H17C19.2091 5 21 6.79086 21 9V15C21 17.2091 19.2091 19 17 19H8C5.79086 19 4 17.2091 4 15V9ZM6 9C6 7.89543 6.89543 7 8 7H17C18.1046 7 19 7.89543 19 9V15C19 16.1046 18.1046 17 17 17H8C6.89543 17 6 16.1046 6 15V9ZM11.1265 8.8998C10.9277 8.7606 10.6545 8.90285 10.6545 9.14556V14.9932C10.6545 15.2359 10.9277 15.3781 11.1265 15.2389L15.3034 12.3154C15.474 12.196 15.474 11.9433 15.3034 11.8239L11.1265 8.8998Z" fill="#525C69"/>
</svg>
