<svg width="24" height="24" viewBox="0 0 24 24" fill="none" xmlns="http://www.w3.org/2000/svg">
<path fill-rule="evenodd" clip-rule="evenodd" d="M4 8C4 6.34315 5.34315 5 7 5H18C19.6569 5 21 6.34315 21 8V16C21 17.6569 19.6569 19 18 19H7C5.34315 19 4 17.6569 4 16V8ZM6 7.5C6 7.22386 6.22386 7 6.5 7H18.5C18.7761 7 19 7.22386 19 7.5V16.5C19 16.7761 18.7761 17 18.5 17H6.5C6.22386 17 6 16.7761 6 16.5V7.5ZM11.4262 14.6557C11.828 14.3391 12.0289 13.906 12.0289 13.3561C12.0289 12.959 11.9222 12.6244 11.7086 12.3523C11.4951 12.0774 11.1003 11.8039 10.5242 11.5317C10.0887 11.3262 9.81194 11.1846 9.69392 11.1069C9.57872 11.0263 9.49442 10.9444 9.44103 10.8611C9.38765 10.775 9.36095 10.6751 9.36095 10.5612C9.36095 10.378 9.42699 10.2294 9.55905 10.1155C9.69111 10.0017 9.88078 9.94476 10.1281 9.94476C10.336 9.94476 10.5467 9.97114 10.7603 10.0239C10.9766 10.0767 11.2492 10.1697 11.578 10.303L11.9994 9.29914C11.6819 9.16308 11.377 9.05756 11.0848 8.98258C10.7954 8.9076 10.4905 8.87012 10.1702 8.87012C9.51831 8.87012 9.00691 9.02423 8.636 9.33246C8.26791 9.6407 8.08386 10.0642 8.08386 10.6029C8.08386 10.8889 8.14006 11.1388 8.25245 11.3526C8.36485 11.5664 8.51518 11.7539 8.70344 11.9149C8.8917 12.076 9.1741 12.244 9.55062 12.4189C9.95243 12.6078 10.218 12.7452 10.3472 12.8313C10.4793 12.9174 10.579 13.0076 10.6465 13.1021C10.7139 13.1937 10.7476 13.2992 10.7476 13.4186C10.7476 13.6324 10.6704 13.7935 10.5158 13.9018C10.3641 14.0101 10.1449 14.0642 9.8583 14.0642C9.61946 14.0642 9.35533 14.0267 9.06592 13.9518C8.77931 13.8768 8.42807 13.7477 8.01221 13.5644V14.764C8.51799 15.0084 9.09963 15.1305 9.75715 15.1305C10.4709 15.1305 11.0272 14.9723 11.4262 14.6557ZM14.8824 11.8233H14.4525V10.0156H15.0468C15.4036 10.0156 15.6649 10.0878 15.8307 10.2322C15.9993 10.3766 16.0836 10.6001 16.0836 10.9028C16.0836 11.2027 15.9839 11.4318 15.7844 11.5901C15.5849 11.7456 15.2842 11.8233 14.8824 11.8233ZM16.7791 12.3606C17.1949 12.0135 17.4029 11.5123 17.4029 10.857C17.4029 10.2266 17.2076 9.75316 16.817 9.4366C16.4292 9.11726 15.8616 8.95759 15.1142 8.95759H13.1459V15.0472H14.4525V12.8813H15.013C15.7773 12.8813 16.366 12.7077 16.7791 12.3606Z" fill="#525C69"/>
</svg>
