<svg width="24" height="24" viewBox="0 0 24 24" fill="none" xmlns="http://www.w3.org/2000/svg">
<path fill-rule="evenodd" clip-rule="evenodd" d="M1.4292 11.4639C1.4292 15.675 4.84303 19.0889 9.0542 19.0889C13.2654 19.0889 16.6792 15.675 16.6792 11.4639C16.6792 7.2527 13.2654 3.83887 9.0542 3.83887C4.84303 3.83887 1.4292 7.2527 1.4292 11.4639ZM2.85461 11.4641C2.85461 14.8879 5.63013 17.6634 9.0539 17.6634C12.4777 17.6634 15.2532 14.8879 15.2532 11.4641C15.2532 8.04035 12.4777 5.26483 9.0539 5.26483C5.63013 5.26483 2.85461 8.04035 2.85461 11.4641ZM10.1049 8.90529C10.1049 8.353 10.5526 7.90529 11.1049 7.90529H11.1382C11.6905 7.90529 12.1382 8.35301 12.1382 8.90529V9.95529C12.1382 10.5076 11.6905 10.9553 11.1382 10.9553H11.1049C10.5526 10.9553 10.1049 10.5076 10.1049 9.95529V8.90529ZM5.97009 8.90627C5.97009 8.35398 6.41781 7.90627 6.97009 7.90627H7.00343C7.55571 7.90627 8.00343 8.35398 8.00343 8.90627V9.95627C8.00343 10.5086 7.55571 10.9563 7.00343 10.9563H6.97009C6.41781 10.9563 5.97009 10.5086 5.97009 9.95627V8.90627ZM12.7616 13.8044C12.8865 13.6816 12.9345 13.5103 12.9052 13.3501C12.9344 13.0892 12.8888 12.7866 12.7679 12.6637C12.571 12.4635 12.2492 12.4608 12.049 12.6576C11.2931 13.401 10.2796 13.8245 9.19787 13.8245C8.12237 13.8245 7.11419 13.4058 6.35942 12.67C6.15839 12.474 5.83656 12.4781 5.64058 12.6792C5.5103 12.8128 5.45891 13.1444 5.49816 13.4093C5.48468 13.5566 5.53533 13.7086 5.64953 13.8199C6.59231 14.7389 7.85431 15.263 9.19766 15.263C10.5487 15.263 11.8174 14.7329 12.7616 13.8044ZM21.1141 13.4569L23.7585 10.8125H18.4697L21.1141 13.4569Z" fill="#525C69"/>
</svg>
