<svg width="24" height="24" viewBox="0 0 24 24" fill="none" xmlns="http://www.w3.org/2000/svg">
<path fill-rule="evenodd" clip-rule="evenodd" d="M12.1915 19.9501C9.87092 19.9501 7.98366 19.2744 6.52965 17.9232C5.07564 16.5574 4.34863 14.6701 4.34863 12.2614C4.34863 9.86744 5.12704 7.89205 6.68386 6.33523C8.24068 4.77841 10.15 4 12.4118 4C14.6002 4 16.3699 4.63888 17.7211 5.91665C19.0723 7.19442 19.7479 8.76593 19.7479 10.6312C19.7479 12.188 19.3367 13.4951 18.5142 14.5526C17.6918 15.5954 16.715 16.1168 15.5842 16.1168C15.1876 16.1168 14.8351 15.9992 14.5267 15.7643C14.2183 15.5293 14.0347 15.2135 13.9759 14.8169C13.3885 15.7422 12.5293 16.2049 11.3983 16.2049C10.4584 16.2049 9.69468 15.8597 9.10724 15.1695C8.51972 14.4792 8.226 13.5685 8.226 12.4377C8.226 11.2774 8.60052 10.2273 9.34956 9.28728C10.1132 8.34737 11.0679 7.87736 12.2135 7.87736C13.2269 7.87736 13.9539 8.30329 14.3945 9.15512L14.5151 8.47672C14.5473 8.29563 14.7047 8.16377 14.8886 8.16377H16.0736C16.3113 8.16377 16.4905 8.38007 16.4463 8.61366L15.8265 11.8869C15.6209 12.9885 15.5181 13.6641 15.5181 13.9137C15.5181 14.2809 15.6429 14.4645 15.8926 14.4645C16.392 14.4645 16.8473 14.0826 17.2585 13.3189C17.6844 12.5552 17.8974 11.6666 17.8974 10.6532C17.8974 9.25792 17.4127 8.10505 16.4434 7.19442C15.474 6.26914 14.1595 5.8065 12.4999 5.8065C10.7081 5.8065 9.2394 6.4307 8.09381 7.67909C6.94823 8.9128 6.37544 10.4476 6.37544 12.2834C6.37544 14.1341 6.89682 15.5733 7.9396 16.6014C8.98236 17.6296 10.4291 18.1436 12.2796 18.1436C13.0118 18.1436 13.7138 18.0831 14.3855 17.9622C14.6638 17.912 14.9126 18.1605 14.8476 18.4358L14.5854 19.5474C14.5499 19.6976 14.427 19.8119 14.274 19.8319C13.6698 19.9107 12.9757 19.9501 12.1915 19.9501ZM11.7291 14.3108C12.3607 14.3108 12.8747 14.0316 13.2712 13.4736C13.6824 12.9008 13.8881 12.2766 13.8881 11.601C13.8881 11.0429 13.7558 10.6023 13.4915 10.2792C13.2271 9.94134 12.8599 9.77246 12.39 9.77246C11.7584 9.77246 11.2371 10.0368 10.8259 10.5656C10.4146 11.0943 10.209 11.7258 10.209 12.4601C10.209 13.0183 10.3411 13.4662 10.6055 13.804C10.8846 14.1418 11.2591 14.3108 11.7291 14.3108Z" fill="#525C69"/>
</svg>
