<svg width="24" height="24" viewBox="0 0 24 24" fill="none" xmlns="http://www.w3.org/2000/svg">
<path fill-rule="evenodd" clip-rule="evenodd" d="M9.54942 6.64614V4.00009L8.04489 4V6.64605L5.75245 5.32289L5 6.6285L7.2892 7.95166L5 9.27482L5.75209 10.5804L8.04452 9.25727V11.9033H9.54905V9.25727L11.8415 10.5804L12.5939 9.27482L10.3047 7.95166L12.5939 6.6285L11.8415 5.32325L9.54942 6.64614ZM8.8345 13.3229C9.09713 13.3229 9.35534 13.3041 9.60785 13.2676V17.9521H17.6078V10.7869L14.7794 7.96094H14.1932C14.1921 7.2433 14.0497 6.55875 13.7923 5.9336H14.9689C15.4993 5.9336 16.008 6.14412 16.3831 6.51886L19.2115 9.34478C19.5866 9.71952 19.7973 10.2278 19.7973 10.7577V17.9229C19.7973 19.0265 18.9019 19.9212 17.7973 19.9212H9.7973C8.69273 19.9212 7.7973 19.0265 7.7973 17.9229V13.2227C8.13287 13.2885 8.47966 13.3229 8.8345 13.3229Z" fill="#525C69"/>
</svg>
