<svg width="24" height="24" viewBox="0 0 24 24" fill="none" xmlns="http://www.w3.org/2000/svg">
<path fill-rule="evenodd" clip-rule="evenodd" d="M7.27179 10.5701V5H5.91426L4 6.55825L4.78172 7.51835L5.41472 6.99639C5.55455 6.87194 5.67149 6.75256 5.76555 6.63826C5.75029 6.93543 5.74267 7.26309 5.74267 7.62122V10.5701H7.27179ZM10 6H20.9899V7.99822H10V6ZM10 10.9951H20.9899V12.9933H10V10.9951ZM10 15.9911H20.9899V17.9893H10V15.9911ZM8.34863 17.2688V18.5464H4.18678V17.5274L5.58714 16.1126C5.98724 15.6946 6.24875 15.4092 6.37166 15.2563C6.49456 15.1035 6.58021 14.9722 6.62859 14.8624C6.67696 14.7527 6.70115 14.6377 6.70115 14.5176C6.70115 14.3686 6.65277 14.2511 6.55602 14.1648C6.45926 14.0786 6.32328 14.0355 6.14807 14.0355C5.96763 14.0355 5.78523 14.0871 5.60087 14.1903C5.41651 14.2935 5.20796 14.4457 4.97522 14.6469L4.12402 13.6514C4.41952 13.3876 4.66795 13.1988 4.86931 13.0851C5.07067 12.9715 5.28968 12.8846 5.52634 12.8245C5.763 12.7644 6.02909 12.7344 6.32459 12.7344C6.69592 12.7344 7.02738 12.7997 7.31896 12.9303C7.61054 13.061 7.83674 13.2471 7.99756 13.4888C8.15839 13.7305 8.2388 14.0015 8.2388 14.302C8.2388 14.5267 8.21069 14.7344 8.15447 14.9251C8.09824 15.1159 8.01129 15.3033 7.89361 15.4875C7.77594 15.6717 7.61969 15.8657 7.42487 16.0695C7.23005 16.2733 6.81491 16.66 6.17945 17.2296V17.2688H8.34863Z" fill="#525C69"/>
</svg>
