<svg width="24" height="24" viewBox="0 0 24 24" fill="none" xmlns="http://www.w3.org/2000/svg">
<path fill-rule="evenodd" clip-rule="evenodd" d="M10.7234 14.106L18.2355 13.8373L18.2177 13.857L18.9142 13.7485L14.8384 9.67634L14.3884 10.109L15.4853 11.2049C15.5924 11.3119 15.5924 11.4854 15.4853 11.5924L14.9954 12.0818C14.8883 12.1888 14.7147 12.1888 14.6076 12.0818L11.6565 9.1333C11.5494 9.02631 11.5494 8.85284 11.6565 8.74585L12.1464 8.25641C12.2534 8.14942 12.4271 8.14942 12.5341 8.25641L13.5373 9.25864L14.7443 8.05264L20.4836 13.7868C20.6442 13.9473 20.6442 14.2075 20.4836 14.368C20.4207 14.4308 20.339 14.4716 20.2509 14.4842L19.2217 14.6311L15.6718 18.1778C14.8687 18.9802 13.5665 18.9802 12.7634 18.1778L10.141 15.5577C9.33785 14.7553 9.33785 13.4543 10.141 12.6519L12.0292 10.7654L12.8513 11.5867L11.139 13.2329C11.1327 13.239 11.1264 13.2451 11.1202 13.2513C10.8815 13.4898 10.7493 13.7943 10.7234 14.106ZM20.4355 18.4956C19.6664 18.4956 19.043 17.8727 19.043 17.1043C19.043 16.336 20.2289 14.7256 20.4355 14.7256C20.6421 14.7256 21.828 16.336 21.828 17.1043C21.828 17.8727 21.2046 18.4956 20.4355 18.4956ZM2 5H11.622V6.79628H7.84312V16.8754H5.76224V6.79628H2V5Z" fill="#525C69"/>
</svg>
