<svg width="24" height="24" viewBox="0 0 24 24" fill="none" xmlns="http://www.w3.org/2000/svg">
<path fill-rule="evenodd" clip-rule="evenodd" d="M11.5938 4L19.9659 12.3721C20.2002 12.6064 20.2002 12.9863 19.9659 13.2206C19.8741 13.3124 19.755 13.372 19.6264 13.3903L18.125 13.6048L12.9467 18.7831C11.7751 19.9547 9.87564 19.9547 8.70407 18.7831L4.87868 14.9577C3.70711 13.7862 3.70711 11.8867 4.87868 10.7151L7.63327 7.96051L8.83252 9.15976L6.30712 11.5903C5.95889 11.9385 5.76591 12.3832 5.7282 12.8383L16.6864 12.4459L16.659 12.474L17.6765 12.3162L11.731 6.37066L11.0745 7.00208L12.6746 8.60245C12.8308 8.75866 12.8308 9.01193 12.6746 9.16814L11.96 9.88274C11.8038 10.039 11.5505 10.039 11.3943 9.88274L7.08938 5.57779C6.93317 5.42158 6.93317 5.16832 7.08938 5.01211L7.80399 4.2975C7.9602 4.14129 8.21347 4.14129 8.36968 4.2975L9.83278 5.7604L11.5938 4ZM19.8959 13.7433C20.1973 13.7433 21.9272 16.0945 21.9272 17.2163C21.9272 18.3382 21.0177 19.2476 19.8959 19.2476C18.774 19.2476 17.8646 18.3382 17.8646 17.2163C17.8646 16.0945 19.5945 13.7433 19.8959 13.7433Z" fill="#525C69"/>
</svg>
