<svg width="24" height="24" viewBox="0 0 24 24" fill="none" xmlns="http://www.w3.org/2000/svg">
<path fill-rule="evenodd" clip-rule="evenodd" d="M4.18474 10.0533L11.6968 9.7847L11.6791 9.80435L12.3755 9.69585L8.29977 5.6237L7.84975 6.05635L8.94665 7.15228C9.05374 7.25927 9.05374 7.43274 8.94665 7.53973L8.45678 8.02917C8.34969 8.13616 8.17607 8.13616 8.06899 8.02917L5.11784 5.08065C5.01076 4.97366 5.01076 4.8002 5.11784 4.69321L5.60772 4.20376C5.71481 4.09677 5.88843 4.09677 5.99551 4.20376L6.99864 5.206L8.20571 4L13.945 9.73415C14.1056 9.89464 14.1056 10.1548 13.945 10.3153C13.882 10.3782 13.8004 10.419 13.7123 10.4316L12.683 10.5785L9.13318 14.1252C8.33004 14.9276 7.02789 14.9276 6.22475 14.1252L3.60236 11.5051C2.79921 10.7027 2.79921 9.40169 3.60236 8.59926L5.49056 6.71273L6.31265 7.5341L4.60041 9.18024L4.58158 9.19869C4.34291 9.43715 4.21063 9.74165 4.18474 10.0533ZM14.3925 14.77C13.6235 14.77 13 14.1471 13 13.3787C13 12.6104 14.1859 11 14.3925 11C14.5991 11 15.785 12.6104 15.785 13.3787C15.785 14.1471 15.1616 14.77 14.3925 14.77ZM7.80248 16.6052C8.42376 16.6052 9.02808 16.5326 9.60742 16.3954V17.9521H17.6074V10.7869L15.6049 8.78616C15.6029 7.77993 15.4103 6.81841 15.0614 5.93576C15.558 5.95882 16.0296 6.16607 16.3827 6.51886L19.2111 9.34478C19.5862 9.71952 19.7969 10.2278 19.7969 10.7577V17.9229C19.7969 19.0265 18.9014 19.9212 17.7969 19.9212H9.79688C8.69231 19.9212 7.79688 19.0265 7.79688 17.9229V16.6052L7.80248 16.6052Z" fill="#525C69"/>
</svg>
