<svg width="24" height="24" viewBox="0 0 24 24" fill="none" xmlns="http://www.w3.org/2000/svg">
<path fill-rule="evenodd" clip-rule="evenodd" d="M4 5C4 3.89543 4.89543 3 6 3H18C19.1046 3 20 3.89543 20 5V8C20 8.59735 19.7381 9.13353 19.3229 9.5C19.7381 9.86647 20 10.4027 20 11H21C22.1046 11 23 11.8954 23 13V15C23 16.1046 22.1046 17 21 17H20V19C20 20.1046 19.1046 21 18 21H14C12.8954 21 12 20.1046 12 19V17H11C9.89543 17 9 16.1046 9 15V13C9 11.8954 9.89543 11 11 11H12C12 10.6357 12.0974 10.2942 12.2676 10H6C4.89543 10 4 9.10457 4 8V5ZM14 9H18C18.5523 9 19 8.55228 19 8V5C19 4.44772 18.5523 4 18 4H6C5.44772 4 5 4.44772 5 5V8C5 8.55228 5.44772 9 6 9H14ZM14 10C13.4477 10 13 10.4477 13 11H19C19 10.4477 18.5523 10 18 10H14ZM14 5H7V6H14V5ZM7 7H14V8H7V7ZM13 19V17H19V19C19 19.5523 18.5523 20 18 20H14C13.4477 20 13 19.5523 13 19ZM14 18H18V19H14V18ZM21 12H19V14H21V12Z" fill="#525C69"/>
</svg>
