<svg width="24" height="24" viewBox="0 0 24 24" fill="none" xmlns="http://www.w3.org/2000/svg">
<path d="M9.16134 17.6703L6.32569 14.8372L16.4966 4.67737L19.3323 7.51054L9.16134 17.6703Z" fill="#525C69"/>
<path d="M4.73314 19.2615C4.65594 19.1823 4.62546 19.0686 4.6539 18.9611L5.5599 15.6023L8.39554 18.4354L5.03375 19.3406C4.92614 19.371 4.81234 19.3406 4.73314 19.2615Z" fill="#525C69"/>
<path d="M9.42845 8.65858C9.20842 8.87842 8.84834 8.87845 8.62827 8.65858C8.40827 8.43877 8.40827 8.07898 8.62831 7.85914L9.98436 6.5043L8.81081 5.33179L7.45476 6.68664C7.23473 6.90648 6.87468 6.90654 6.65461 6.68667C6.43458 6.46683 6.43462 6.10708 6.65465 5.88724L8.0107 4.53239L7.56305 4.08515C7.44942 3.97162 7.26348 3.97162 7.14985 4.08515L4.08521 7.14706C3.97161 7.26056 3.97158 7.44637 4.08521 7.5599L8.18287 11.6539L11.6607 8.17916L10.7845 7.30373L9.42845 8.65858Z" fill="#525C69"/>
<path d="M19.2376 15.7493L19.9249 16.436C20.0385 16.5495 20.0385 16.7353 19.9249 16.8488L16.8603 19.9108C16.7467 20.0242 16.5607 20.0243 16.4471 19.9108L12.3494 15.8167L15.8272 12.342L16.6594 13.1734L15.2752 14.5565C15.0707 14.7608 15.0706 15.0952 15.2752 15.2995C15.4797 15.5039 15.8144 15.5039 16.0189 15.2995L17.4032 13.9165L18.4939 15.0062L17.1096 16.3893C16.9051 16.5936 16.9051 16.928 17.1096 17.1323C17.3141 17.3367 17.6488 17.3366 17.8533 17.1323L19.2376 15.7493Z" fill="#525C69"/>
</svg>
