<svg width="24" height="24" viewBox="0 0 24 24" fill="none" xmlns="http://www.w3.org/2000/svg">
<path fill-rule="evenodd" clip-rule="evenodd" d="M7.66692 17.3565C7.87502 17.1486 7.87502 16.8083 7.66692 16.6001L7.11861 16.0522C6.91014 15.8443 6.56956 15.8443 6.36183 16.0522L5.76075 16.6528C5.55265 16.8607 5.55265 17.201 5.76075 17.4093L6.30869 17.9567C6.51717 18.1647 6.85774 18.1647 7.06585 17.9567L7.66692 17.3565ZM10.0595 10.9591C10.3277 11.6913 10.7499 12.3792 11.338 12.9669C11.707 13.3355 12.1173 13.636 12.5505 13.8786L7.2271 19.1958C6.53303 19.8889 5.39765 19.8889 4.70357 19.1958L4.52055 19.0126C3.82648 18.3191 3.82648 17.1848 4.52055 16.4913L10.0595 10.9591ZM18.9964 7.85684C19.4278 9.25702 19.0853 10.8423 17.9691 11.9416C16.3725 13.5136 13.8029 13.4944 12.2295 11.8992C10.6565 10.304 10.6753 7.73629 12.2719 6.16468C13.3885 5.0657 14.9789 4.7468 16.3736 5.19805L14.0169 7.51878C13.621 7.90919 13.6162 8.55214 14.0069 8.94809L15.2095 10.1676C15.6002 10.5636 16.2441 10.5684 16.64 10.1779L18.9964 7.85684Z" fill="#525C69"/>
</svg>
