<svg width="24" height="24" viewBox="0 0 24 24" fill="none" xmlns="http://www.w3.org/2000/svg">
<path fill-rule="evenodd" clip-rule="evenodd" d="M12.4044 4.25784C12.7087 4.25501 12.9742 4.44649 13.0665 4.72233L13.0907 4.81725L13.2511 5.71154C14.2248 5.89347 15.1311 6.29096 15.908 6.85796L16.6772 6.37397C16.9292 6.21462 17.2529 6.23559 17.4817 6.41487L17.5627 6.48947L18.1909 7.16981C18.3925 7.38856 18.4252 7.70512 18.2822 7.95477L18.2203 8.04492L17.6425 8.76083C17.9851 9.33846 18.2391 9.97756 18.3838 10.6628L19.3038 10.8045C19.6043 10.8502 19.8339 11.0816 19.8794 11.3691L19.8876 11.4668L19.8962 12.3849C19.8989 12.6832 19.7039 12.9436 19.4223 13.0342L19.3254 13.058L18.4081 13.2169C18.2508 14.0311 17.9323 14.7979 17.4824 15.4787L18.0491 16.2426C18.2273 16.4803 18.2243 16.7983 18.0555 17.0318L17.9845 17.1151L17.3282 17.7706C17.1178 17.9812 16.797 18.0313 16.5349 17.9063L16.4397 17.8512L15.6469 17.307C15.2208 17.5867 14.7571 17.8188 14.2627 17.9946C13.9652 18.1003 13.6673 18.1844 13.3707 18.2479L13.2244 19.16C13.1777 19.4542 12.9415 19.6797 12.6483 19.7242L12.5486 19.7322L11.6115 19.7409C11.3078 19.7437 11.0415 19.5522 10.95 19.2764L10.9261 19.1814L10.7655 18.2905C9.80951 18.115 8.91799 17.7318 8.14938 17.1844L7.37232 17.673C7.12031 17.832 6.79643 17.8117 6.56761 17.6323L6.48659 17.5576L5.85883 16.8772C5.65726 16.6587 5.6251 16.3419 5.76777 16.0924L5.82947 16.0023L6.39377 15.304C6.03085 14.7091 5.76273 14.0473 5.61241 13.3357L4.69536 13.1943C4.3958 13.1487 4.16551 12.9172 4.12019 12.6297L4.1121 12.532L4.10354 11.614C4.10076 11.3156 4.29656 11.0552 4.57766 10.9646L4.67436 10.9409L5.6018 10.7802C5.77293 10.0317 6.1187 9.27789 6.5837 8.59037L6.00072 7.80528C5.82398 7.56808 5.82581 7.24989 5.99449 7.01587L6.06554 6.93237L6.72153 6.27668C6.93218 6.06671 7.2528 6.0169 7.51518 6.14145L7.61052 6.19634L8.38105 6.72485C8.81063 6.41686 9.26647 6.16983 9.7329 6.00397C10.0376 5.89562 10.3426 5.81 10.6463 5.74596L10.7924 4.83867C10.838 4.54453 11.0748 4.31899 11.3677 4.27453L11.4673 4.26658L12.4044 4.25784ZM11.6527 15.8528C10.2821 15.757 8.76345 14.6273 8.30119 13.3597C7.32368 10.679 9.44375 7.94287 12.3428 8.14497C13.8634 8.25096 15.1819 9.23173 15.6947 10.6381C16.6723 13.3195 14.5512 16.0553 11.6527 15.8528Z" fill="#525C69"/>
</svg>
