<svg width="24" height="24" viewBox="0 0 24 24" fill="none" xmlns="http://www.w3.org/2000/svg">
<path fill-rule="evenodd" clip-rule="evenodd" d="M1.8432 15.8615C1.56706 15.8615 1.3432 15.6377 1.3432 15.3615V14.7527C1.3432 14.6135 1.4013 14.4805 1.5035 14.3859L4.44435 11.6629C4.7081 11.4076 4.9293 11.1779 5.10797 10.9737C5.28947 10.7695 5.42702 10.5696 5.52061 10.3739C5.61419 10.1754 5.66099 9.96126 5.66099 9.73155C5.66099 9.47631 5.60285 9.25652 5.48658 9.07218C5.3703 8.88501 5.21149 8.74179 5.01013 8.64253C4.80878 8.54043 4.58048 8.48939 4.32524 8.48939C4.05866 8.48939 3.82611 8.54327 3.62759 8.65104C3.42907 8.75881 3.27593 8.91337 3.16816 9.11472C3.13045 9.18519 3.09933 9.26034 3.07482 9.34018C2.99376 9.60416 2.78265 9.83364 2.50651 9.83364H1.75812C1.48198 9.83364 1.25299 9.60845 1.29379 9.33534C1.34835 8.97011 1.4655 8.64133 1.64524 8.34901C1.90331 7.92928 2.2649 7.60456 2.73 7.37485C3.1951 7.14513 3.7311 7.03027 4.338 7.03027C4.96192 7.03027 5.50501 7.14088 5.96728 7.36208C6.43238 7.58045 6.79396 7.8839 7.05204 8.27243C7.31011 8.66096 7.43915 9.10621 7.43915 9.60818C7.43915 9.93716 7.37392 10.2619 7.24347 10.5823C7.11585 10.9028 6.88755 11.2587 6.55858 11.6501C6.2296 12.0386 5.76592 12.5051 5.16753 13.0496L3.90817 14.2837C3.90012 14.2916 3.89559 14.3024 3.89559 14.3137C3.89559 14.3368 3.91436 14.3556 3.93752 14.3556H7.05401C7.33015 14.3556 7.55401 14.5795 7.55401 14.8556V15.3615C7.55401 15.6377 7.33015 15.8615 7.05401 15.8615H1.8432ZM13.4932 16.053C12.7615 16.0501 12.1319 15.87 11.6044 15.5127C11.0798 15.1554 10.6756 14.6378 10.392 13.96C10.1113 13.2822 9.97231 12.4669 9.97514 11.514C9.97514 10.5639 10.1155 9.75424 10.3963 9.08494C10.6799 8.41565 11.084 7.90659 11.6087 7.55777C12.1362 7.2061 12.7643 7.03027 13.4932 7.03027C14.222 7.03027 14.8488 7.2061 15.3734 7.55777C15.9009 7.90943 16.3065 8.41991 16.5901 9.0892C16.8737 9.75565 17.0141 10.5639 17.0112 11.514C17.0112 12.4697 16.8694 13.2865 16.5858 13.9643C16.3051 14.6421 15.9023 15.1596 15.3777 15.517C14.853 15.8743 14.2249 16.053 13.4932 16.053ZM13.4932 14.5258C13.9923 14.5258 14.3908 14.2748 14.6885 13.7728C14.9863 13.2709 15.1338 12.5179 15.131 11.514C15.131 10.8532 15.0629 10.303 14.9268 9.86342C14.7935 9.42384 14.6035 9.09345 14.3567 8.87224C14.1128 8.65104 13.825 8.54043 13.4932 8.54043C12.9969 8.54043 12.5998 8.78858 12.3021 9.28488C12.0043 9.78118 11.854 10.5242 11.8511 11.514C11.8511 12.1833 11.9178 12.7419 12.0511 13.19C12.1872 13.6353 12.3786 13.9699 12.6254 14.194C12.8721 14.4152 13.1614 14.5258 13.4932 14.5258ZM9.15366 15.7623C8.93093 15.7623 8.73969 15.6836 8.57995 15.5261C8.42246 15.3664 8.34371 15.1751 8.34371 14.9524C8.34371 14.7319 8.42246 14.5429 8.57995 14.3854C8.73969 14.2279 8.93093 14.1492 9.15366 14.1492C9.36965 14.1492 9.55864 14.2279 9.72063 14.3854C9.88262 14.5429 9.96361 14.7319 9.96361 14.9524C9.96361 15.1009 9.92537 15.237 9.84887 15.3607C9.77462 15.4822 9.67676 15.5801 9.55526 15.6544C9.43377 15.7264 9.2999 15.7623 9.15366 15.7623ZM19.311 9.88161C19.2246 9.7171 19.0541 9.61407 18.8683 9.61407H18.3255C17.9414 9.61407 17.7007 10.0293 17.8917 10.3626L19.0255 12.3416C19.1151 12.498 19.1136 12.6905 19.0216 12.8454L17.8492 14.82C17.6513 15.1533 17.8915 15.5753 18.2791 15.5753H18.8156C18.9964 15.5753 19.1632 15.4777 19.2516 15.32L20.2649 13.5145L21.2969 15.3231C21.3859 15.479 21.5517 15.5753 21.7312 15.5753H22.2497C22.6376 15.5753 22.8777 15.1529 22.6794 14.8196L21.5056 12.847C21.4129 12.6912 21.4118 12.4975 21.5027 12.3406L22.6475 10.3647C22.8407 10.0314 22.6002 9.61407 22.2149 9.61407H21.6852C21.5013 9.61407 21.3321 9.71511 21.2449 9.87712L20.2649 11.6982L19.311 9.88161Z" fill="#525C69"/>
</svg>
