<svg width="24" height="24" viewBox="0 0 24 24" fill="none" xmlns="http://www.w3.org/2000/svg">
<path fill-rule="evenodd" clip-rule="evenodd" d="M12.1779 15.5698C12.6487 15.791 13.1847 15.9016 13.7859 15.9016C14.4325 15.9016 14.9997 15.7725 15.4875 15.5145C15.9781 15.2535 16.3595 14.8962 16.6318 14.4425C16.9069 13.9859 17.043 13.464 17.0402 12.877C17.043 12.3183 16.9253 11.8248 16.6871 11.3966C16.4489 10.9655 16.1242 10.6266 15.7129 10.3799C15.3017 10.1332 14.8338 10.0098 14.3091 10.0098C13.9263 10.0098 13.5803 10.0807 13.2712 10.2225C12.9683 10.3614 12.7404 10.5357 12.5872 10.7454C12.5812 10.7536 12.5717 10.7585 12.5615 10.7585C12.5429 10.7585 12.5284 10.7424 12.5303 10.7239L12.7058 9.02484C12.7322 8.76995 12.9469 8.57622 13.2032 8.57622H16.0595C16.3356 8.57622 16.5595 8.35236 16.5595 8.07622V7.57031C16.5595 7.29417 16.3356 7.07031 16.0595 7.07031H11.6906C11.4318 7.07031 11.2158 7.26781 11.1926 7.52558L10.8618 11.2085C10.8386 11.4666 11.0165 11.6997 11.2716 11.7454L12.1519 11.9032C12.3397 11.9368 12.5254 11.8538 12.6737 11.7338C12.7722 11.654 12.8863 11.5856 13.0159 11.5285C13.257 11.4235 13.5051 11.3711 13.7604 11.3711C14.0525 11.3739 14.312 11.4406 14.5388 11.571C14.7657 11.7015 14.943 11.883 15.0706 12.1155C15.201 12.3481 15.2663 12.6175 15.2663 12.9238C15.2663 13.2244 15.2025 13.491 15.0748 13.7235C14.9501 13.9532 14.7756 14.1333 14.5516 14.2638C14.3304 14.3914 14.0752 14.4552 13.7859 14.4552C13.4229 14.4552 13.1095 14.3503 12.8458 14.1404C12.7121 14.0341 12.6098 13.9114 12.5388 13.7723C12.4184 13.5365 12.2136 13.3194 11.9489 13.3194H11.1451C10.8646 13.3194 10.6328 13.5527 10.6942 13.8264C10.7617 14.1266 10.8847 14.4028 11.0633 14.6552C11.3384 15.0437 11.7099 15.3485 12.1779 15.5698ZM5.76118 7.15625C6.03732 7.15625 6.26118 7.38011 6.26118 7.65625V15.3684C6.26118 15.6445 6.03732 15.8684 5.76118 15.8684H4.91921C4.64307 15.8684 4.41921 15.6445 4.41921 15.3684V8.94428C4.41921 8.92238 4.40146 8.90463 4.37956 8.90463C4.37211 8.90463 4.36481 8.90673 4.3585 8.91069L3.13861 9.67539C2.80562 9.88414 2.37305 9.64477 2.37305 9.25175V8.797C2.37305 8.62564 2.4608 8.46622 2.60558 8.37455L4.40732 7.2338C4.48733 7.18314 4.58009 7.15625 4.67479 7.15625H5.76118ZM19.3112 9.89156C19.2248 9.72706 19.0543 9.62402 18.8685 9.62402H18.3258C17.9416 9.62402 17.7009 10.0392 17.8919 10.3726L19.0257 12.3516C19.1153 12.5079 19.1138 12.7004 19.0218 12.8554L17.8494 14.83C17.6515 15.1633 17.8917 15.5852 18.2793 15.5852H18.8158C18.9967 15.5852 19.1634 15.4876 19.2519 15.3299L20.2651 13.5244L21.2972 15.333C21.3861 15.489 21.5519 15.5852 21.7314 15.5852H22.2499C22.6378 15.5852 22.878 15.1628 22.6796 14.8295L21.5058 12.8569C21.4131 12.7012 21.412 12.5074 21.5029 12.3506L22.6478 10.3747C22.8409 10.0414 22.6004 9.62402 22.2151 9.62402H21.6855C21.5015 9.62402 21.3324 9.72506 21.2452 9.88707L20.2651 11.7081L19.3112 9.89156ZM7.92981 15.5361C8.08955 15.6936 8.28079 15.7723 8.50353 15.7723C8.64977 15.7723 8.78364 15.7363 8.90513 15.6643C9.02662 15.5901 9.12449 15.4922 9.19874 15.3707C9.27523 15.247 9.31348 15.1109 9.31348 14.9624C9.31348 14.7419 9.23248 14.5529 9.0705 14.3954C8.90851 14.2379 8.71952 14.1592 8.50353 14.1592C8.28079 14.1592 8.08955 14.2379 7.92981 14.3954C7.77232 14.5529 7.69358 14.7419 7.69358 14.9624C7.69358 15.1851 7.77232 15.3764 7.92981 15.5361Z" fill="#525C69"/>
</svg>
