<svg width="24" height="24" viewBox="0 0 24 24" fill="none" xmlns="http://www.w3.org/2000/svg">
<path fill-rule="evenodd" clip-rule="evenodd" d="M5.76118 7.15137C6.03732 7.15137 6.26118 7.37522 6.26118 7.65137V15.3635C6.26118 15.6396 6.03732 15.8635 5.76118 15.8635H4.91921C4.64307 15.8635 4.41921 15.6397 4.41921 15.3635V8.9394C4.41921 8.9175 4.40146 8.89975 4.37956 8.89975C4.37211 8.89975 4.36481 8.90185 4.3585 8.90581L3.13861 9.67051C2.80562 9.87926 2.37305 9.63989 2.37305 9.24687V8.79212C2.37305 8.62076 2.4608 8.46133 2.60558 8.36967L4.40732 7.22892C4.48733 7.17826 4.58009 7.15137 4.67479 7.15137H5.76118ZM19.3112 9.88668C19.2248 9.72217 19.0543 9.61914 18.8685 9.61914H18.3258C17.9416 9.61914 17.7009 10.0344 17.8919 10.3677L19.0257 12.3467C19.1153 12.5031 19.1138 12.6956 19.0218 12.8505L17.8494 14.8251C17.6515 15.1584 17.8917 15.5803 18.2793 15.5803H18.8158C18.9967 15.5803 19.1634 15.4827 19.2519 15.325L20.2651 13.5195L21.2972 15.3282C21.3861 15.4841 21.5519 15.5803 21.7314 15.5803H22.2499C22.6378 15.5803 22.878 15.158 22.6796 14.8247L21.5058 12.8521C21.4131 12.6963 21.412 12.5025 21.5029 12.3457L22.6478 10.3698C22.8409 10.0365 22.6004 9.61914 22.2151 9.61914H21.6855C21.5015 9.61914 21.3324 9.72018 21.2452 9.88219L20.2651 11.7032L19.3112 9.88668ZM7.92981 15.5312C8.08955 15.6887 8.28079 15.7674 8.50353 15.7674C8.64977 15.7674 8.78364 15.7314 8.90513 15.6595C9.02662 15.5852 9.12449 15.4873 9.19874 15.3658C9.27523 15.2421 9.31348 15.106 9.31348 14.9575C9.31348 14.737 9.23248 14.548 9.0705 14.3905C8.90851 14.233 8.71952 14.1543 8.50353 14.1543C8.28079 14.1543 8.08955 14.233 7.92981 14.3905C7.77232 14.548 7.69358 14.737 7.69358 14.9575C7.69358 15.1802 7.77232 15.3715 7.92981 15.5312ZM11.5137 15.138C11.3456 15.4706 11.5873 15.8635 11.9599 15.8635H12.7404C12.9293 15.8635 13.1021 15.757 13.1871 15.5883L16.6111 8.78459C16.6461 8.71486 16.6644 8.63789 16.6644 8.55982V7.65137C16.6644 7.37522 16.4406 7.15137 16.1644 7.15137H11.0515C10.7753 7.15137 10.5515 7.37522 10.5515 7.65137V8.15727C10.5515 8.43342 10.7753 8.65727 11.0515 8.65727H14.7105C14.7371 8.65727 14.7586 8.67881 14.7586 8.70537C14.7586 8.7129 14.7569 8.72033 14.7535 8.72706L11.5137 15.138Z" fill="#525C69"/>
</svg>
