<svg width="24" height="24" viewBox="0 0 24 24" fill="none" xmlns="http://www.w3.org/2000/svg">
<path fill-rule="evenodd" clip-rule="evenodd" d="M11.3849 15.5215C11.9123 15.8788 12.5419 16.0589 13.2736 16.0617C14.0053 16.0617 14.6335 15.8831 15.1581 15.5257C15.6828 15.1684 16.0855 14.6508 16.3663 13.973C16.6499 13.2952 16.7917 12.4785 16.7917 11.5228C16.7945 10.5727 16.6541 9.76444 16.3705 9.09799C16.0869 8.42869 15.6814 7.91822 15.1539 7.56656C14.6292 7.21489 14.0025 7.03906 13.2736 7.03906C12.5448 7.03906 11.9166 7.21489 11.3891 7.56656C10.8644 7.91538 10.4603 8.42444 10.1767 9.09373C9.89596 9.76302 9.75558 10.5727 9.75558 11.5228C9.75274 12.4756 9.8917 13.291 10.1725 13.9688C10.4561 14.6466 10.8602 15.1642 11.3849 15.5215ZM14.469 13.7816C14.1712 14.2836 13.7727 14.5346 13.2736 14.5346C12.9418 14.5346 12.6525 14.424 12.4058 14.2028C12.1591 13.9787 11.9676 13.6441 11.8315 13.1988C11.6982 12.7507 11.6316 12.192 11.6316 11.5228C11.6344 10.533 11.7847 9.78997 12.0825 9.29367C12.3803 8.79737 12.7773 8.54922 13.2736 8.54922C13.6054 8.54922 13.8933 8.65983 14.1372 8.88103C14.3839 9.10224 14.5739 9.43263 14.7072 9.87221C14.8433 10.3118 14.9114 10.862 14.9114 11.5228C14.9142 12.5267 14.7668 13.2796 14.469 13.7816ZM5.76118 7.16602C6.03732 7.16602 6.26118 7.38987 6.26118 7.66602V15.3782C6.26118 15.6543 6.03732 15.8782 5.76118 15.8782H4.91921C4.64307 15.8782 4.41921 15.6543 4.41921 15.3782V8.95405C4.41921 8.93215 4.40146 8.9144 4.37956 8.9144C4.37211 8.9144 4.36481 8.9165 4.3585 8.92045L3.13861 9.68516C2.80562 9.89391 2.37305 9.65454 2.37305 9.26152V8.80676C2.37305 8.63541 2.4608 8.47598 2.60558 8.38432L4.40732 7.24357C4.48733 7.19291 4.58009 7.16602 4.67479 7.16602H5.76118ZM19.3112 9.90132C19.2248 9.73682 19.0543 9.63379 18.8685 9.63379H18.3258C17.9416 9.63379 17.7009 10.049 17.8919 10.3823L19.0257 12.3613C19.1153 12.5177 19.1138 12.7102 19.0218 12.8652L17.8494 14.8397C17.6515 15.173 17.8917 15.595 18.2793 15.595H18.8158C18.9967 15.595 19.1634 15.4974 19.2519 15.3397L20.2651 13.5342L21.2972 15.3428C21.3861 15.4987 21.5519 15.595 21.7314 15.595H22.2499C22.6378 15.595 22.878 15.1726 22.6796 14.8393L21.5058 12.8667C21.4131 12.7109 21.412 12.5172 21.5029 12.3604L22.6478 10.3845C22.8409 10.0511 22.6004 9.63379 22.2151 9.63379H21.6855C21.5015 9.63379 21.3324 9.73483 21.2452 9.89684L20.2651 11.7179L19.3112 9.90132ZM7.92981 15.5459C8.08955 15.7033 8.28079 15.7821 8.50353 15.7821C8.64977 15.7821 8.78364 15.7461 8.90513 15.6741C9.02662 15.5999 9.12449 15.502 9.19874 15.3805C9.27523 15.2568 9.31348 15.1206 9.31348 14.9721C9.31348 14.7517 9.23248 14.5627 9.0705 14.4052C8.90851 14.2477 8.71952 14.1689 8.50353 14.1689C8.28079 14.1689 8.08955 14.2477 7.92981 14.4052C7.77232 14.5627 7.69358 14.7517 7.69358 14.9721C7.69358 15.1949 7.77232 15.3861 7.92981 15.5459Z" fill="#525C69"/>
</svg>
