<svg width="24" height="24" viewBox="0 0 24 24" fill="none" xmlns="http://www.w3.org/2000/svg">
<path fill-rule="evenodd" clip-rule="evenodd" d="M10.7702 15.3653C10.7702 15.641 10.9937 15.8645 11.2694 15.8645H16.4819C16.7576 15.8645 16.981 15.641 16.981 15.3653V14.8577C16.981 14.582 16.7576 14.3585 16.4819 14.3585H13.3646C13.3414 14.3585 13.3226 14.3398 13.3226 14.3166C13.3226 14.3053 13.3272 14.2945 13.3352 14.2867L14.5946 13.0526C15.193 12.5081 15.6566 12.0415 15.9856 11.653C16.3146 11.2617 16.5429 10.9057 16.6705 10.5853C16.801 10.2648 16.8662 9.94009 16.8662 9.61111C16.8662 9.10914 16.7372 8.66389 16.4791 8.27536C16.221 7.88683 15.8594 7.58338 15.3943 7.36501C14.932 7.14381 14.389 7.0332 13.765 7.0332C13.1581 7.0332 12.6221 7.14806 12.157 7.37777C11.6919 7.60749 11.3303 7.93221 11.0723 8.35194C10.8924 8.64449 10.7752 8.97355 10.7207 9.33912C10.6801 9.61177 10.9086 9.83657 11.1843 9.83657H11.9344C12.2101 9.83657 12.4209 9.60751 12.5016 9.34394C12.5262 9.26379 12.5574 9.18836 12.5952 9.11765C12.703 8.9163 12.8561 8.76174 13.0546 8.65397C13.2531 8.5462 13.4857 8.49232 13.7523 8.49232C14.0075 8.49232 14.2358 8.54336 14.4372 8.64546C14.6385 8.74472 14.7973 8.88794 14.9136 9.07511C15.0299 9.25945 15.088 9.47924 15.088 9.73448C15.088 9.96419 15.0412 10.1783 14.9476 10.3768C14.8541 10.5725 14.7165 10.7724 14.535 10.9766C14.3563 11.1808 14.1351 11.4105 13.8714 11.6658L10.9303 14.389C10.8282 14.4835 10.7702 14.6163 10.7702 14.7553V15.3653ZM5.76118 7.16113C6.03732 7.16113 6.26118 7.38499 6.26118 7.66113V15.3733C6.26118 15.6494 6.03732 15.8733 5.76118 15.8733H4.91921C4.64307 15.8733 4.41921 15.6494 4.41921 15.3733V8.94916C4.41921 8.92727 4.40146 8.90952 4.37956 8.90952C4.37211 8.90952 4.36481 8.91161 4.3585 8.91557L3.13861 9.68028C2.80562 9.88902 2.37305 9.64965 2.37305 9.25663V8.80188C2.37305 8.63052 2.4608 8.4711 2.60558 8.37943L4.40732 7.23869C4.48733 7.18803 4.58009 7.16113 4.67479 7.16113H5.76118ZM19.3112 9.89644C19.2248 9.73194 19.0543 9.62891 18.8685 9.62891H18.3258C17.9416 9.62891 17.7009 10.0441 17.8919 10.3775L19.0257 12.3565C19.1153 12.5128 19.1138 12.7053 19.0218 12.8603L17.8494 14.8348C17.6515 15.1681 17.8917 15.5901 18.2793 15.5901H18.8158C18.9967 15.5901 19.1634 15.4925 19.2519 15.3348L20.2651 13.5293L21.2972 15.3379C21.3861 15.4939 21.5519 15.5901 21.7314 15.5901H22.2499C22.6378 15.5901 22.878 15.1677 22.6796 14.8344L21.5058 12.8618C21.4131 12.706 21.412 12.5123 21.5029 12.3555L22.6478 10.3796C22.8409 10.0462 22.6004 9.62891 22.2151 9.62891H21.6855C21.5015 9.62891 21.3324 9.72994 21.2452 9.89195L20.2651 11.713L19.3112 9.89644ZM7.92981 15.541C8.08955 15.6985 8.28079 15.7772 8.50353 15.7772C8.64977 15.7772 8.78364 15.7412 8.90513 15.6692C9.02662 15.595 9.12449 15.4971 9.19874 15.3756C9.27523 15.2519 9.31348 15.1158 9.31348 14.9673C9.31348 14.7468 9.23248 14.5578 9.0705 14.4003C8.90851 14.2428 8.71952 14.1641 8.50353 14.1641C8.28079 14.1641 8.08955 14.2428 7.92981 14.4003C7.77232 14.5578 7.69358 14.7468 7.69358 14.9673C7.69358 15.19 7.77232 15.3812 7.92981 15.541Z" fill="#525C69"/>
</svg>
