<svg width="24" height="24" viewBox="0 0 24 24" fill="none" xmlns="http://www.w3.org/2000/svg">
<path fill-rule="evenodd" clip-rule="evenodd" d="M2.2382 15.502C2.76569 15.8593 3.39528 16.0394 4.12697 16.0422C4.85865 16.0422 5.48682 15.8635 6.01148 15.5062C6.53613 15.1489 6.93884 14.6313 7.2196 13.9535C7.5032 13.2757 7.645 12.4589 7.645 11.5032C7.64784 10.5532 7.50746 9.74491 7.22386 9.07846C6.94026 8.40916 6.53472 7.89869 6.00722 7.54702C5.48257 7.19536 4.85581 7.01953 4.12697 7.01953C3.39812 7.01953 2.76995 7.19536 2.24246 7.54702C1.7178 7.89585 1.31367 8.40491 1.03007 9.0742C0.74931 9.74349 0.608929 10.5532 0.608929 11.5032C0.606093 12.4561 0.745056 13.2715 1.02582 13.9493C1.30942 14.6271 1.71354 15.1446 2.2382 15.502ZM5.32233 13.7621C5.02455 14.2641 4.6261 14.515 4.12697 14.515C3.79516 14.515 3.50589 14.4044 3.25916 14.1832C3.01242 13.9592 2.821 13.6245 2.68487 13.1793C2.55158 12.7312 2.48493 12.1725 2.48493 11.5032C2.48777 10.5135 2.63808 9.77044 2.93585 9.27414C3.23363 8.77784 3.63067 8.52969 4.12697 8.52969C4.45878 8.52969 4.74663 8.6403 4.99052 8.8615C5.23725 9.08271 5.42727 9.4131 5.56056 9.85268C5.69668 10.2923 5.76475 10.8424 5.76475 11.5032C5.76758 12.5072 5.62011 13.2601 5.32233 13.7621ZM13.7859 15.8918C13.1847 15.8918 12.6487 15.7812 12.1779 15.56C11.71 15.3388 11.3385 15.0339 11.0634 14.6454C10.8847 14.3931 10.7617 14.1168 10.6943 13.8166C10.6328 13.5429 10.8646 13.3096 11.1452 13.3096H11.9489C12.2137 13.3096 12.4184 13.5267 12.5388 13.7625C12.6098 13.9016 12.7122 14.0243 12.8458 14.1307C13.1095 14.3405 13.4229 14.4454 13.7859 14.4454C14.0752 14.4454 14.3304 14.3816 14.5516 14.254C14.7757 14.1236 14.9501 13.9435 15.0749 13.7138C15.2025 13.4812 15.2663 13.2146 15.2663 12.914C15.2663 12.6077 15.2011 12.3383 15.0706 12.1058C14.943 11.8732 14.7658 11.6917 14.5389 11.5613C14.312 11.4308 14.0525 11.3642 13.7604 11.3613C13.5052 11.3613 13.257 11.4138 13.016 11.5187C12.8863 11.5758 12.7723 11.6442 12.6737 11.724C12.5254 11.844 12.3397 11.927 12.1519 11.8934L11.2717 11.7356C11.0166 11.6899 10.8387 11.4569 10.8619 11.1987L11.1926 7.51582C11.2158 7.25805 11.4318 7.06055 11.6906 7.06055H16.0595C16.3357 7.06055 16.5595 7.2844 16.5595 7.56055V8.06645C16.5595 8.3426 16.3357 8.56645 16.0595 8.56645H13.2032C12.947 8.56645 12.7322 8.76018 12.7059 9.01507L12.5303 10.7141C12.5284 10.7326 12.5429 10.7487 12.5616 10.7487C12.5717 10.7487 12.5813 10.7438 12.5873 10.7356C12.7404 10.5259 12.9684 10.3516 13.2712 10.2127C13.5803 10.0709 13.9263 10 14.3092 10C14.8338 10 15.3018 10.1234 15.713 10.3701C16.1242 10.6169 16.4489 10.9558 16.6871 11.3868C16.9254 11.8151 17.043 12.3085 17.0402 12.8672C17.043 13.4543 16.9069 13.9761 16.6318 14.4327C16.3596 14.8864 15.9781 15.2438 15.4875 15.5047C14.9997 15.7628 14.4325 15.8918 13.7859 15.8918ZM19.3112 9.88179C19.2248 9.71729 19.0544 9.61426 18.8686 9.61426H18.3258C17.9416 9.61426 17.701 10.0295 17.892 10.3628L19.0258 12.3418C19.1153 12.4982 19.1138 12.6907 19.0218 12.8456L17.8494 14.8202C17.6515 15.1535 17.8917 15.5755 18.2794 15.5755H18.8159C18.9967 15.5755 19.1634 15.4778 19.2519 15.3202L20.2652 13.5147L21.2972 15.3233C21.3862 15.4792 21.5519 15.5755 21.7315 15.5755H22.25C22.6378 15.5755 22.878 15.1531 22.6797 14.8198L21.5059 12.8472C21.4132 12.6914 21.4121 12.4977 21.5029 12.3408L22.6478 10.3649C22.841 10.0316 22.6004 9.61426 22.2152 9.61426H21.6855C21.5015 9.61426 21.3324 9.7153 21.2452 9.87731L20.2652 11.6984L19.3112 9.88179ZM8.58021 15.5263C8.73995 15.6838 8.93119 15.7625 9.15393 15.7625C9.30017 15.7625 9.43403 15.7265 9.55553 15.6545C9.67702 15.5803 9.77489 15.4824 9.84913 15.3609C9.92563 15.2372 9.96388 15.1011 9.96388 14.9526C9.96388 14.7321 9.88288 14.5431 9.72089 14.3856C9.5589 14.2281 9.36991 14.1494 9.15393 14.1494C8.93119 14.1494 8.73995 14.2281 8.58021 14.3856C8.42272 14.5431 8.34398 14.7321 8.34398 14.9526C8.34398 15.1753 8.42272 15.3666 8.58021 15.5263Z" fill="#525C69"/>
</svg>
