<svg width="24" height="24" viewBox="0 0 24 24" fill="none" xmlns="http://www.w3.org/2000/svg">
<path fill-rule="evenodd" clip-rule="evenodd" d="M2.2382 15.5215C2.76569 15.8788 3.39528 16.0589 4.12697 16.0617C4.85865 16.0617 5.48682 15.8831 6.01148 15.5257C6.53613 15.1684 6.93884 14.6508 7.2196 13.973C7.5032 13.2952 7.645 12.4785 7.645 11.5228C7.64784 10.5727 7.50746 9.76444 7.22386 9.09799C6.94026 8.42869 6.53472 7.91822 6.00722 7.56656C5.48257 7.21489 4.85581 7.03906 4.12697 7.03906C3.39812 7.03906 2.76995 7.21489 2.24246 7.56656C1.7178 7.91538 1.31367 8.42444 1.03007 9.09373C0.74931 9.76302 0.608929 10.5727 0.608929 11.5228C0.606093 12.4756 0.745056 13.291 1.02582 13.9688C1.30942 14.6466 1.71354 15.1642 2.2382 15.5215ZM5.32233 13.7816C5.02455 14.2836 4.6261 14.5346 4.12697 14.5346C3.79516 14.5346 3.50589 14.424 3.25916 14.2028C3.01242 13.9787 2.821 13.6441 2.68487 13.1988C2.55158 12.7507 2.48493 12.192 2.48493 11.5228C2.48777 10.533 2.63808 9.78997 2.93585 9.29367C3.23363 8.79737 3.63067 8.54922 4.12697 8.54922C4.45878 8.54922 4.74663 8.65983 4.99052 8.88103C5.23725 9.10224 5.42727 9.43263 5.56056 9.87221C5.69668 10.3118 5.76475 10.862 5.76475 11.5228C5.76758 12.5267 5.62011 13.2796 5.32233 13.7816ZM11.96 15.8782C11.5873 15.8782 11.3456 15.4852 11.5137 15.1526L14.7535 8.74171C14.7569 8.73498 14.7587 8.72755 14.7587 8.72002C14.7587 8.69346 14.7371 8.67192 14.7106 8.67192H11.0515C10.7754 8.67192 10.5515 8.44807 10.5515 8.17192V7.66602C10.5515 7.38987 10.7754 7.16602 11.0515 7.16602H16.1645C16.4406 7.16602 16.6645 7.38987 16.6645 7.66602V8.57447C16.6645 8.65253 16.6462 8.72951 16.6111 8.79924L13.1871 15.6029C13.1022 15.7717 12.9294 15.8782 12.7405 15.8782H11.96ZM19.3112 9.90132C19.2248 9.73682 19.0544 9.63379 18.8686 9.63379H18.3258C17.9416 9.63379 17.701 10.049 17.892 10.3823L19.0258 12.3613C19.1153 12.5177 19.1138 12.7102 19.0218 12.8652L17.8494 14.8397C17.6515 15.173 17.8917 15.595 18.2794 15.595H18.8159C18.9967 15.595 19.1634 15.4974 19.2519 15.3397L20.2652 13.5342L21.2972 15.3428C21.3862 15.4987 21.5519 15.595 21.7315 15.595H22.25C22.6378 15.595 22.878 15.1726 22.6797 14.8393L21.5059 12.8667C21.4132 12.7109 21.4121 12.5172 21.5029 12.3604L22.6478 10.3845C22.841 10.0511 22.6004 9.63379 22.2152 9.63379H21.6855C21.5015 9.63379 21.3324 9.73483 21.2452 9.89684L20.2652 11.7179L19.3112 9.90132ZM8.58021 15.5458C8.73995 15.7033 8.93119 15.7821 9.15393 15.7821C9.30017 15.7821 9.43403 15.7461 9.55553 15.6741C9.67702 15.5998 9.77489 15.502 9.84913 15.3805C9.92563 15.2567 9.96388 15.1206 9.96388 14.9721C9.96388 14.7516 9.88288 14.5626 9.72089 14.4052C9.5589 14.2477 9.36991 14.1689 9.15393 14.1689C8.93119 14.1689 8.73995 14.2477 8.58021 14.4052C8.42272 14.5626 8.34398 14.7516 8.34398 14.9721C8.34398 15.1949 8.42272 15.3861 8.58021 15.5458Z" fill="#525C69"/>
</svg>
