<svg width="24" height="24" viewBox="0 0 24 24" fill="none" xmlns="http://www.w3.org/2000/svg">
<path fill-rule="evenodd" clip-rule="evenodd" d="M17.9079 11.55H13.5274C13.1543 11.388 12.7334 11.2362 12.2621 11.0954C11.3699 10.8287 10.7299 10.5542 10.3416 10.2716C9.95326 9.9892 9.75919 9.63681 9.75919 9.21429C9.75919 8.71279 9.93888 8.32207 10.2983 8.04215C10.6576 7.76233 11.1627 7.62236 11.8134 7.62236C12.5113 7.62236 13.0478 7.79192 13.4231 8.13114C13.5405 8.23729 13.6373 8.35767 13.718 8.48931L15.4239 7.69935C15.0678 7.15793 14.5809 6.73962 13.9622 6.44537C13.3376 6.14849 12.6267 6 11.8292 6C10.6275 6 9.65016 6.30225 8.89733 6.90665C8.14428 7.51105 7.76791 8.27984 7.76791 9.21303C7.76791 10.1465 8.16877 10.9255 8.97029 11.55H6V13.0671H12.477C12.9104 13.2388 13.2366 13.4094 13.4544 13.579C13.8086 13.8548 13.9857 14.2469 13.9857 14.7559C13.9857 15.2226 13.8113 15.5978 13.4624 15.8813C13.1133 16.165 12.5927 16.3068 11.8999 16.3068C11.0972 16.3068 10.4805 16.1266 10.0503 15.766C9.8605 15.6069 9.7151 15.4173 9.60899 15.2004L8.03213 16.2001C8.41486 16.7208 8.9411 17.1321 9.61358 17.4322C10.3088 17.7423 11.0708 17.8973 11.8999 17.8973C13.1541 17.8973 14.1472 17.6124 14.8791 17.0424C15.6111 16.4725 15.9771 15.7051 15.9771 14.7401C15.9771 14.1464 15.8511 13.628 15.5993 13.1853C15.5766 13.1454 15.5513 13.1063 15.5261 13.0671H17.9079V11.55Z" fill="#525C69"/>
</svg>
