<svg width="24" height="24" viewBox="0 0 24 24" fill="none" xmlns="http://www.w3.org/2000/svg">
<path fill-rule="evenodd" clip-rule="evenodd" d="M15.531 9.56201H21.2297V7.81104H18.2595V7.75732C19.1296 6.97673 19.6971 6.44678 19.9621 6.16748C20.2307 5.88818 20.4455 5.62321 20.6066 5.37256C20.7678 5.11833 20.8859 4.86051 20.9611 4.59912C21.0399 4.33773 21.0793 4.05306 21.0793 3.74512C21.0793 3.33333 20.9683 2.96273 20.7463 2.6333C20.5279 2.30029 20.2181 2.04427 19.8171 1.86523C19.4196 1.6862 18.9667 1.59668 18.4582 1.59668C18.0536 1.59668 17.6884 1.63786 17.3625 1.72021C17.0402 1.80257 16.7412 1.92253 16.4655 2.08008C16.1898 2.23405 15.8496 2.49186 15.445 2.85352L16.6106 4.21777C16.9292 3.94206 17.2139 3.73438 17.4646 3.59473C17.7188 3.4515 17.9694 3.37988 18.2165 3.37988C18.4564 3.37988 18.6426 3.43896 18.7751 3.55713C18.9076 3.67529 18.9738 3.83643 18.9738 4.04053C18.9738 4.20524 18.9398 4.36279 18.8718 4.51318C18.8073 4.66357 18.691 4.8444 18.5227 5.05566C18.3544 5.26335 17.9963 5.65365 17.4484 6.22656L15.531 8.16553V9.56201ZM10.6055 16.296H13.7295L10.3252 11.3946L13.4902 6.30182H10.4072L8.6709 9.39166L6.86621 6.30182H3.87207L6.98926 11.1827L3.67383 16.296H6.72949L8.65723 13.1719L10.6055 16.296Z" fill="#525C69"/>
</svg>
