<svg width="24" height="24" viewBox="0 0 24 24" fill="none" xmlns="http://www.w3.org/2000/svg">
<path fill-rule="evenodd" clip-rule="evenodd" d="M9.33792 13.2832H6.39893L7.87636 8.32812H7.90814L9.33792 13.2832ZM9.19527 5H6.63753L2.34814 18.5036H4.85823L5.74788 15.4965H9.9896L10.8475 18.5036H13.437L9.19527 5ZM22.2594 11.9919C22.2594 14.4587 20.2579 16.4584 17.7889 16.4584C15.3199 16.4584 13.3184 14.4587 13.3184 11.9919C13.3184 9.52512 15.3199 7.52539 17.7889 7.52539C20.2579 7.52539 22.2594 9.52512 22.2594 11.9919ZM19.9979 9.65506L20.8337 10.4888C20.3455 10.9825 19.6903 11.6445 19.0333 12.3085C18.3551 12.9937 17.675 13.681 17.1744 14.1872C16.8964 13.9055 16.5162 13.5312 16.1343 13.1551C15.7491 12.7759 15.3622 12.395 15.0767 12.1057L15.8992 11.2909C16.0364 11.4278 16.2748 11.6566 16.5161 11.8881L16.5163 11.8883C16.7631 12.1251 17.0129 12.3647 17.1604 12.5119L19.3084 10.3504L19.9979 9.65506Z" fill="#525C69"/>
</svg>
