<svg width="24" height="24" viewBox="0 0 24 24" fill="none" xmlns="http://www.w3.org/2000/svg">
<path fill-rule="evenodd" clip-rule="evenodd" d="M7.98977 13.2832H5.05078L6.52822 8.32812H6.55999L7.98977 13.2832ZM7.84712 5H5.28938L1 18.5036H3.51008L4.39973 15.4965H8.64145L9.49933 18.5036H12.0888L7.84712 5ZM23.4008 11.9921C23.4008 14.6143 21.2732 16.74 18.6487 16.74C16.0241 16.74 13.8965 14.6143 13.8965 11.9921C13.8965 9.36986 16.0241 7.24414 18.6487 7.24414C21.2732 7.24414 23.4008 9.36986 23.4008 11.9921ZM20.9969 9.50781L21.8854 10.3941C21.3664 10.9189 20.6698 11.6228 19.9712 12.3286C19.2504 13.057 18.5275 13.7875 17.9954 14.3255C17.6999 14.0261 17.2958 13.6282 16.8898 13.2285L16.8898 13.2284C16.4804 12.8253 16.0691 12.4204 15.7656 12.1128L16.6399 11.2467C16.7858 11.3923 17.0393 11.6356 17.2959 11.8817L17.296 11.8818C17.5584 12.1335 17.8238 12.3882 17.9805 12.5446L20.264 10.247L20.9969 9.50781Z" fill="#525C69"/>
</svg>
