<svg width="24" height="24" viewBox="0 0 24 24" fill="none" xmlns="http://www.w3.org/2000/svg">
<path fill-rule="evenodd" clip-rule="evenodd" d="M6.89826 7.09378V13.4719C6.89826 13.5795 6.98625 13.6674 7.09378 13.6674H7.29458V15.5658H5.64035C5.28816 15.5658 5 15.2775 5 14.9254V5.64035C5 5.28816 5.28816 5 5.64035 5H14.9254C15.2775 5 15.5658 5.28816 15.5658 5.64035V7.40131H13.6675V7.09378C13.6675 6.98625 13.5794 6.89826 13.4719 6.89826H7.09378C6.98625 6.89826 6.89826 6.98625 6.89826 7.09378ZM16.9142 17.1207C17.0281 17.1207 17.1212 17.0276 17.1212 16.9137V13.9939H14.0132V17.1207H16.9142ZM12.9472 17.1207H10.1616C10.0478 17.1207 9.95459 17.0276 9.95459 16.9137V13.9939H12.9472V17.1207ZM9.95459 12.9863L12.9472 12.9863V9.9541H10.1616C10.0478 9.9541 9.95459 10.0473 9.95459 10.1611V12.9863ZM14.0132 9.9541V12.9863H17.1212V10.1611C17.1212 10.0473 17.0281 9.9541 16.9142 9.9541H14.0132ZM8.71345 8.05447H18.2686C18.631 8.05447 18.9276 8.35101 18.9276 8.71345L18.9276 18.2686C18.9276 18.631 18.631 18.9276 18.2686 18.9276H8.71345C8.35101 18.9276 8.05447 18.631 8.05447 18.2686V8.71345C8.05447 8.35101 8.35101 8.05447 8.71345 8.05447Z" fill="#525C69"/>
</svg>
