<svg width="24" height="24" viewBox="0 0 24 24" fill="none" xmlns="http://www.w3.org/2000/svg">
<path fill-rule="evenodd" clip-rule="evenodd" d="M4 7C4 5.89543 4.89543 5 6 5H7H17H18C19.1046 5 20 5.89543 20 7V17C20 18.1046 19.1046 19 18 19H17H7H6C5.93096 19 5.86275 18.9965 5.79551 18.9897C4.787 18.8873 4 18.0355 4 17V7ZM8.73244 6H15.2676C15.0974 6.29417 15 6.63571 15 7V17C15 17.3643 15.0974 17.7058 15.2676 18H8.73244C8.90261 17.7058 9 17.3643 9 17V7C9 6.63571 8.90261 6.29417 8.73244 6ZM5 8H8V10H5V8ZM16 8H19V10H16V8ZM19 11H16V13H19V11ZM5 11H8V13H5V11ZM19 14H16V16H19V14ZM5 14H8V16H5V14Z" fill="#525C69"/>
</svg>
