<svg width="24" height="24" viewBox="0 0 24 24" fill="none" xmlns="http://www.w3.org/2000/svg">
<path fill-rule="evenodd" clip-rule="evenodd" d="M4 7C4 5.89543 4.89543 5 6 5H7H10C11.1046 5 12 5.89543 12 7V17C12 18.1046 11.1046 19 10 19H7H6C5.93096 19 5.86275 18.9965 5.79551 18.9897C4.787 18.8873 4 18.0355 4 17V7ZM8.73244 18H9.85714C10.4094 18 10.8571 17.5523 10.8571 17V7C10.8571 6.44772 10.4094 6 9.85714 6H8.73244C8.90261 6.29417 9 6.63571 9 7V17C9 17.3643 8.90261 17.7058 8.73244 18ZM5 8H8V10H5V8ZM5 11H8V13H5V11ZM8 14H5V16H8V14ZM15 5C13.8954 5 13 5.89543 13 7V17C13 18.1046 13.8954 19 15 19H18C19.1046 19 20 18.1046 20 17V7C20 5.89543 19.1046 5 18 5H15ZM19.125 6.99977H13.875V16.9998H19.125V6.99977ZM18 10.9998H15V12.9998H18V10.9998ZM18 13.9998H15V15.9998H18V13.9998Z" fill="#525C69"/>
</svg>
