<?xml version="1.0" encoding="UTF-8"?>
<svg width="49px" height="45px" viewBox="0 0 49 45" version="1.1" xmlns="http://www.w3.org/2000/svg" xmlns:xlink="http://www.w3.org/1999/xlink">
    <title>Combined Shape</title>
    <g id="Symbols" stroke="none" stroke-width="1" fill="none" fill-rule="evenodd">
        <g id="Icons-/-Type-1-/-Icon-/-g-01" transform="translate(-6.000000, -8.000000)" fill="#A3B2C5">
            <path d="M52,8 C53.6568542,8 55,9.34314575 55,11 L55,50 C55,51.6568542 53.6568542,53 52,53 L9,53 C7.34314575,53 6,51.6568542 6,50 L6,11 C6,9.34314575 7.34314575,8 9,8 L52,8 Z M52,16 L9,16 L9,49.6 C9,49.7932997 9.1371128,49.9545749 9.31938605,49.9918734 L9.4,50 L51.6,50 C51.7932997,50 51.9545749,49.8628872 51.9918734,49.680614 L52,49.6 L52,16 Z M46.9614258,19 C48.0659953,19 48.9614258,19.8954305 48.9614258,21 L48.9614258,44.983277 C48.9614258,46.0878465 48.0659953,46.983277 46.9614258,46.983277 L35,46.983277 C33.8954305,46.983277 33,46.0878465 33,44.983277 L33,21 C33,19.8954305 33.8954305,19 35,19 L46.9614258,19 Z M19,34 C19.5522847,34 20,34.4477153 20,35 L20,36 C20,36.5522847 19.5522847,37 19,37 L14,37 C13.4477153,37 13,36.5522847 13,36 L13,35 C13,34.4477153 13.4477153,34 14,34 L19,34 Z M44.4565207,28.4790039 L39.8424842,32.7144547 L37.9966531,31.1046781 L36.4635169,32.4144415 L39.8424842,35.4790039 L46.0403723,29.7751611 L44.4565207,28.4790039 Z M24,28 C24.5522847,28 25,28.4477153 25,29 L25,30 C25,30.5522847 24.5522847,31 24,31 L14,31 C13.4477153,31 13,30.5522847 13,30 L13,29 C13,28.4477153 13.4477153,28 14,28 L24,28 Z M24,22 C24.5522847,22 25,22.4477153 25,23 L25,24 C25,24.5522847 24.5522847,25 24,25 L14,25 C13.4477153,25 13,24.5522847 13,24 L13,23 C13,22.4477153 13.4477153,22 14,22 L24,22 Z M12.0924072,10.0966797 C11.0804021,10.0966797 10.2600098,10.917072 10.2600098,11.9290771 C10.2600098,12.9410823 11.0804021,13.7614746 12.0924072,13.7614746 C13.1044124,13.7614746 13.9248047,12.9410823 13.9248047,11.9290771 C13.9248047,10.917072 13.1044124,10.0966797 12.0924072,10.0966797 Z M16.9622803,10.0966797 C15.9502751,10.0966797 15.1298828,10.917072 15.1298828,11.9290771 C15.1298828,12.9410823 15.9502751,13.7614746 16.9622803,13.7614746 C17.9742854,13.7614746 18.7946777,12.9410823 18.7946777,11.9290771 C18.7946777,10.917072 17.9742854,10.0966797 16.9622803,10.0966797 Z M21.9622803,10.0966797 C20.9502751,10.0966797 20.1298828,10.917072 20.1298828,11.9290771 C20.1298828,12.9410823 20.9502751,13.7614746 21.9622803,13.7614746 C22.9742854,13.7614746 23.7946777,12.9410823 23.7946777,11.9290771 C23.7946777,10.917072 22.9742854,10.0966797 21.9622803,10.0966797 Z" id="Combined-Shape"></path>
        </g>
    </g>
</svg>