<svg xmlns="http://www.w3.org/2000/svg" width="58" height="50" viewBox="0 0 58 50">
  <path fill="#A3B2C5" fill-rule="evenodd" d="M56,17 C57.6568542,17 59,18.3431458 59,20 L59,52 C59,53.6568542 57.6568542,55 56,55 L19,55 C17.3431458,55 16,53.6568542 16,52 L16.0008568,51.1680841 C17.0541351,50.8614361 18.0588942,50.4408735 19.0009069,49.9206234 L19,51.6 C19,51.7932997 19.1371128,51.9545749 19.319386,51.9918734 L19.4,52 L55.6,52 C55.7932997,52 55.9545749,51.8628872 55.9918734,51.680614 L56,51.6 L56,25 L20.5808979,25.0000512 C19.2133572,24.0004297 17.6678755,23.2297518 16.0008568,22.7444214 L16,20 C16,18.3431458 17.3431458,17 19,17 L56,17 Z M8.97096106,39.8223392 L6.76348694,42.0291945 C8.0484929,43.3299024 9.83309838,44.1359274 11.8059611,44.1359274 C14.6817777,44.1359274 17.1575755,42.4232437 18.2690127,39.9622182 L21.3760636,41.1258148 C19.7902504,44.8427203 16.1023503,47.447972 11.8059611,47.447972 C8.91907366,47.447972 6.30691572,46.2717152 4.42260635,44.3723207 L2.33017465,46.4631257 L2.33017465,39.8223392 L8.97096106,39.8223392 Z M46,29 C46.5522847,29 47,29.4477153 47,30 L47,42 C47,42.5522847 46.5522847,43 46,43 L25.3695398,43.0010654 C25.8405425,41.9497393 26.1924604,40.8334357 26.4081324,39.669316 C26.8952315,39.8823937 27.4338815,40 28,40 C30.209139,40 32,38.209139 32,36 C32,33.790861 30.209139,32 28,32 C27.2656613,32 26.5775407,32.1978831 25.986053,32.5432343 C25.5935687,31.2815984 25.0356421,30.0924032 24.338441,29.0007666 L46,29 Z M39,37 L35,37 C34.4477153,37 34,37.4477153 34,38 C34,38.5128358 34.3860402,38.9355072 34.8833789,38.9932723 L35,39 L39,39 C39.5522847,39 40,38.5522847 40,38 C40,37.4477153 39.5522847,37 39,37 Z M11.8059611,26.647972 C14.6709752,26.647972 17.2654072,27.8064718 19.1463596,29.6805741 L21.232134,27.5953143 L21.232134,34.2361007 L14.5913476,34.2361007 L16.8048719,32.0230337 C15.5232471,30.7480059 13.7566265,29.9600166 11.8059611,29.9600166 C8.49359708,29.9600166 5.7119147,32.2321348 4.93445316,35.302832 L1.78463517,34.2572844 C3.00410795,29.8687657 7.02890618,26.647972 11.8059611,26.647972 Z M44,33 L35,33 C34.4477153,33 34,33.4477153 34,34 C34,34.5128358 34.3860402,34.9355072 34.8833789,34.9932723 L35,35 L44,35 C44.5522847,35 45,34.5522847 45,34 C45,33.4477153 44.5522847,33 44,33 Z M41,5 C42.6568542,5 44,6.34314575 44,8 L44,13 L4,13 L4.00009328,24.4111806 C3.30884047,24.8449805 2.65598778,25.33433 2.04779335,25.873 L1,25.873 L1,8 C1,6.34314575 2.34314575,5 4,5 L41,5 Z M23,19 C21.8954305,19 21,19.8954305 21,21 C21,22.1045695 21.8954305,23 23,23 C24.1045695,23 25,22.1045695 25,21 C25,19.8954305 24.1045695,19 23,19 Z M28,19 C26.8954305,19 26,19.8954305 26,21 C26,22.1045695 26.8954305,23 28,23 C29.1045695,23 30,22.1045695 30,21 C30,19.8954305 29.1045695,19 28,19 Z M33,19 C31.8954305,19 31,19.8954305 31,21 C31,22.1045695 31.8954305,23 33,23 C34.1045695,23 35,22.1045695 35,21 C35,19.8954305 34.1045695,19 33,19 Z M12,17 C12.5522847,17 13,17.4477153 13,18 L13,19 C13,19.5522847 12.5522847,20 12,20 L9,20 C8.44771525,20 8,19.5522847 8,19 L8,18 C8,17.4477153 8.44771525,17 9,17 L12,17 Z M8,7 C6.8954305,7 6,7.8954305 6,9 C6,10.1045695 6.8954305,11 8,11 C9.1045695,11 10,10.1045695 10,9 C10,7.8954305 9.1045695,7 8,7 Z M13,7 C11.8954305,7 11,7.8954305 11,9 C11,10.1045695 11.8954305,11 13,11 C14.1045695,11 15,10.1045695 15,9 C15,7.8954305 14.1045695,7 13,7 Z M18,7 C16.8954305,7 16,7.8954305 16,9 C16,10.1045695 16.8954305,11 18,11 C19.1045695,11 20,10.1045695 20,9 C20,7.8954305 19.1045695,7 18,7 Z" transform="translate(-1 -5)"/>
</svg>
