<?xml version="1.0" encoding="UTF-8"?>
<svg width="58px" height="50px" viewBox="0 0 58 50" version="1.1" xmlns="http://www.w3.org/2000/svg" xmlns:xlink="http://www.w3.org/1999/xlink">
    <title>Combined Shape</title>
    <g id="Symbols" stroke="none" stroke-width="1" fill="none" fill-rule="evenodd">
        <g id="Icons-/-Type-1-/-Icon-/-g-04" transform="translate(-1.000000, -5.000000)" fill="#A3B2C5">
            <path d="M56,17 C57.6568542,17 59,18.3431458 59,20 L59,52 C59,53.6568542 57.6568542,55 56,55 L19,55 C17.3431458,55 16,53.6568542 16,52 L16,20 C16,18.3431458 17.3431458,17 19,17 L56,17 Z M56,25 L19,25 L19,51.6 C19,51.7932997 19.1371128,51.9545749 19.319386,51.9918734 L19.4,52 L55.6,52 C55.7932997,52 55.9545749,51.8628872 55.9918734,51.680614 L56,51.6 L56,25 Z M4.01637946,32.9996532 C4.2374082,36.3600659 6.6716859,39.1160095 9.87527066,39.823542 L9.8758965,35 L15.751793,40.9777502 L9.8758965,46.751793 L9.87599141,42.9239834 C5.20655997,42.2901108 1.50892941,37.7870179 1.04836069,33.0002567 L4.01637946,32.9996532 Z M46,29 C46.5522847,29 47,29.4477153 47,30 L47,42 C47,42.5522847 46.5522847,43 46,43 L23,43 C22.4477153,43 22,42.5522847 22,42 L22,30 C22,29.4477153 22.4477153,29 23,29 L46,29 Z M28,32 C25.790861,32 24,33.790861 24,36 C24,38.209139 25.790861,40 28,40 C30.209139,40 32,38.209139 32,36 C32,33.790861 30.209139,32 28,32 Z M39,37 L35,37 C34.4477153,37 34,37.4477153 34,38 C34,38.5128358 34.3860402,38.9355072 34.8833789,38.9932723 L35,39 L39,39 C39.5522847,39 40,38.5522847 40,38 C40,37.4477153 39.5522847,37 39,37 Z M44,33 L35,33 C34.4477153,33 34,33.4477153 34,34 C34,34.5128358 34.3860402,34.9355072 34.8833789,34.9932723 L35,35 L44,35 C44.5522847,35 45,34.5522847 45,34 C45,33.4477153 44.5522847,33 44,33 Z M11,23 C11.5522847,23 12,23.4477153 12,24 L12,25 C12,25.3761881 11.7922764,25.7038597 11.485273,25.8745711 L8.51472701,25.8745711 C8.20772359,25.7038597 8,25.3761881 8,25 L8,24 C8,23.4477153 8.44771525,23 9,23 L11,23 Z M41,5 C42.6568542,5 44,6.34314575 44,8 L44,13 L4,13 L4,25.873 L1,25.873 L1,8 C1,6.34314575 2.34314575,5 4,5 L41,5 Z M23,19 C21.8954305,19 21,19.8954305 21,21 C21,22.1045695 21.8954305,23 23,23 C24.1045695,23 25,22.1045695 25,21 C25,19.8954305 24.1045695,19 23,19 Z M28,19 C26.8954305,19 26,19.8954305 26,21 C26,22.1045695 26.8954305,23 28,23 C29.1045695,23 30,22.1045695 30,21 C30,19.8954305 29.1045695,19 28,19 Z M33,19 C31.8954305,19 31,19.8954305 31,21 C31,22.1045695 31.8954305,23 33,23 C34.1045695,23 35,22.1045695 35,21 C35,19.8954305 34.1045695,19 33,19 Z M12,17 C12.5522847,17 13,17.4477153 13,18 L13,19 C13,19.5522847 12.5522847,20 12,20 L9,20 C8.44771525,20 8,19.5522847 8,19 L8,18 C8,17.4477153 8.44771525,17 9,17 L12,17 Z M8,7 C6.8954305,7 6,7.8954305 6,9 C6,10.1045695 6.8954305,11 8,11 C9.1045695,11 10,10.1045695 10,9 C10,7.8954305 9.1045695,7 8,7 Z M13,7 C11.8954305,7 11,7.8954305 11,9 C11,10.1045695 11.8954305,11 13,11 C14.1045695,11 15,10.1045695 15,9 C15,7.8954305 14.1045695,7 13,7 Z M18,7 C16.8954305,7 16,7.8954305 16,9 C16,10.1045695 16.8954305,11 18,11 C19.1045695,11 20,10.1045695 20,9 C20,7.8954305 19.1045695,7 18,7 Z" id="Combined-Shape"></path>
        </g>
    </g>
</svg>