<svg width="68" height="68" viewBox="0 0 68 68" fill="none" xmlns="http://www.w3.org/2000/svg">
	<circle cx="34" cy="34" r="34" fill="#96C4DE"/>
	<path fill-rule="evenodd" clip-rule="evenodd" d="M44.8183 15.0877C34.4012 9.0638 21.0808 12.6387 15.0664 23.0724C9.05205 33.5062 12.6212 46.8478 23.0384 52.8717C33.4556 58.8957 46.776 55.3208 52.7903 44.887C58.8047 34.4533 55.2355 21.1117 44.8183 15.0877ZM13.6863 22.2743C20.1407 11.0771 34.4357 7.24069 45.6152 13.7054C56.7946 20.1701 60.6249 34.4879 54.1705 45.6851C47.716 56.8824 33.421 60.7188 22.2416 54.2541C11.0622 47.7894 7.23183 33.4716 13.6863 22.2743Z" fill="white"/>
	<path fill-rule="evenodd" clip-rule="evenodd" d="M40.6018 22.4026C34.2181 18.7111 26.0553 20.9018 22.3697 27.2957C18.684 33.6896 20.8713 41.8654 27.2549 45.5569C33.6386 49.2484 41.8014 47.0577 45.4871 40.6638C49.1727 34.2699 46.9855 26.0941 40.6018 22.4026ZM21.3346 26.6971C25.3502 19.7307 34.244 17.3438 41.1994 21.3659C48.1548 25.388 50.5379 34.2959 46.5222 41.2624C42.5065 48.2288 33.6127 50.6157 26.6573 46.5936C19.702 42.5715 17.3189 33.6636 21.3346 26.6971Z" fill="white"/>
	<path d="M51.9808 30.5955C51.7975 30.9136 51.3913 31.0226 51.0737 30.839C50.7562 30.6553 50.6473 30.2485 50.8307 29.9304C51.0141 29.6123 51.4202 29.5033 51.7378 29.687C52.0554 29.8707 52.1642 30.2774 51.9808 30.5955Z" fill="white"/>
	<path d="M17.2691 38.9376C17.0857 39.2557 16.6796 39.3647 16.362 39.181C16.0444 38.9973 15.9356 38.5906 16.119 38.2725C16.3023 37.9544 16.7084 37.8454 17.026 38.029C17.3436 38.2127 17.4524 38.6195 17.2691 38.9376Z" fill="white"/>
	<path fill-rule="evenodd" clip-rule="evenodd" d="M46.5622 26.6941L19.3501 33.9972L21.2406 41.0638L48.4527 33.7607L46.5622 26.6941ZM39.4535 32.0705L29.0974 34.8498C28.9203 34.8973 28.8152 35.0797 28.8627 35.2571C28.9101 35.4345 29.0922 35.5397 29.2693 35.4922L39.6253 32.7129C39.8024 32.6654 39.9075 32.483 39.8601 32.3056C39.8126 32.1282 39.6306 32.023 39.4535 32.0705Z" fill="white"/>
</svg>