<svg xmlns="http://www.w3.org/2000/svg" width="48" height="56" viewBox="0 0 48 56">
  <g fill="none" fill-rule="evenodd">
    <path fill="#2FC6F6" d="M33.9808794,0.98651132 C35.0854489,0.98651132 35.9808794,1.88194182 35.9808794,2.98651132 L35.9806401,12.2875113 L44.5289081,12.2879707 C45.6334776,12.2879707 46.5289081,13.1834012 46.5289081,14.2879707 L46.5289081,39.6717649 C46.5289081,40.7763344 45.6334776,41.6717649 44.5289081,41.6717649 L13.1176688,41.6717649 C12.0130993,41.6717649 11.1176688,40.7763344 11.1176688,39.6717649 L11.1176401,30.3695113 L2.56964011,30.3703056 C1.46507061,30.3703056 0.569640109,29.4748751 0.569640109,28.3703056 L0.569640109,2.98651132 C0.569640109,1.88194182 1.46507061,0.98651132 2.56964011,0.98651132 L33.9808794,0.98651132 Z M42.3368955,21.1974953 L15.5724312,21.1974953 L15.5724312,36.7782876 L42.3368955,36.7782876 L42.3368955,21.1974953 Z M32.2820375,25.7514483 L38.1428977,31.8976768 L38.1428977,34.5960687 L19.5691949,34.5824954 L19.5691949,33.035678 L22.8362287,29.8646973 L25.9004877,32.2235963 L32.2820375,25.7514483 Z M31.6762799,9.43937573 L4.91181554,9.43937573 L4.91181554,25.020168 L11.1176401,25.0195113 L11.1176688,14.2879707 C11.1176688,13.1834012 12.0130993,12.2879707 13.1176688,12.2879707 L31.6756401,12.2875113 L31.6762799,9.43937573 Z M17.7998123,14.5153518 C16.5696637,14.5153518 15.5724312,15.5125843 15.5724312,16.742733 C15.5724312,17.9728816 16.5696637,18.9701142 17.7998123,18.9701142 C19.029961,18.9701142 20.0271935,17.9728816 20.0271935,16.742733 C20.0271935,15.5125843 19.029961,14.5153518 17.7998123,14.5153518 Z M24.4819558,14.5153518 C23.2518072,14.5153518 22.2545746,15.5125843 22.2545746,16.742733 C22.2545746,17.9728816 23.2518072,18.9701142 24.4819558,18.9701142 C25.7121045,18.9701142 26.709337,17.9728816 26.709337,16.742733 C26.709337,15.5125843 25.7121045,14.5153518 24.4819558,14.5153518 Z M7.13919671,2.75723224 C5.90904806,2.75723224 4.91181554,3.75446476 4.91181554,4.98461341 C4.91181554,6.21476205 5.90904806,7.21199457 7.13919671,7.21199457 C8.36934535,7.21199457 9.36657787,6.21476205 9.36657787,4.98461341 C9.36657787,3.75446476 8.36934535,2.75723224 7.13919671,2.75723224 Z M13.8213402,2.75723224 C12.5911915,2.75723224 11.593959,3.75446476 11.593959,4.98461341 C11.593959,6.21476205 12.5911915,7.21199457 13.8213402,7.21199457 C15.0514888,7.21199457 16.0487214,6.21476205 16.0487214,4.98461341 C16.0487214,3.75446476 15.0514888,2.75723224 13.8213402,2.75723224 Z" transform="translate(.81 .775)"/>
    <ellipse cx="23.805" cy="53.33" fill="#000" opacity=".023" rx="20.186" ry="1.927"/>
  </g>
</svg>
