<svg xmlns="http://www.w3.org/2000/svg" width="19" height="16" viewBox="0 0 19 16">
  <path fill="#525C69" fill-rule="evenodd" d="M12.2931152,1.54237855 C15.1302314,2.68442741 16.9887634,5.43584032 16.9889441,8.49419016 C17.0677872,12.5484454 13.8472887,15.9000966 9.79311579,15.9830641 C6.73719365,16.1048987 3.91382369,14.3576162 2.65949509,11.5683217 C1.40516648,8.7790273 1.97155875,5.50738948 4.09056068,3.30209254 C6.20956262,1.0967956 9.45599903,0.400329691 12.2931152,1.54237855 Z M5.42782828,4.58685837 C3.83313196,6.24649768 3.40688239,8.70863266 4.3508519,10.8077707 C5.2948214,12.9069088 7.41960365,14.2218604 9.71939758,14.1301713 C12.7704446,14.0677326 15.1940937,11.5453819 15.1347588,8.49427291 C15.1346228,6.19265196 13.7359482,4.1220224 11.600821,3.26255121 C9.46569377,2.40308002 7.0225246,2.92721905 5.42782828,4.58685837 Z M8.12955148,9.9889464 L8.12955148,5.41674866 L10.1295515,5.41674866 L10.1295515,7.9889464 L12.6381071,7.9889464 L12.6381071,9.9889464 L8.12955148,9.9889464 Z"/>
</svg>
