<svg xmlns="http://www.w3.org/2000/svg" width="19" height="16" viewBox="0 0 19 16">
  <path fill="#525C69" fill-rule="evenodd" d="M9.63240125,1 C13.8476601,1 17.2648025,4.41714244 17.2648025,8.63240125 C17.2648025,12.8476601 13.8476601,16.2648025 9.63240125,16.2648025 C5.41714244,16.2648025 2,12.8476601 2,8.63240125 C2,4.41714244 5.41714244,1 9.63240125,1 Z M9.63240125,2.75170898 C6.38458459,2.75170898 3.75170898,5.38458459 3.75170898,8.63240125 C3.75170898,11.8802179 6.38458459,14.5130935 9.63240125,14.5130935 C12.8802179,14.5130935 15.5130935,11.8802179 15.5130935,8.63240125 C15.5130935,5.38458459 12.8802179,2.75170898 9.63240125,2.75170898 Z M8.29596021,5.1189541 C8.42894093,5.1189541 8.55917051,5.1568331 8.67140561,5.22815739 L13.0887208,8.03531704 C13.4150088,8.24266981 13.5114248,8.67527113 13.3040721,9.00155913 C13.2489632,9.08827786 13.1754395,9.16180154 13.0887208,9.21691043 L8.67140561,12.0240701 C8.34511761,12.2314228 7.91251629,12.1350068 7.70516352,11.8087188 C7.63383923,11.6964837 7.59596023,11.5662541 7.59596023,11.4332734 L7.59596023,5.81895408 C7.59596023,5.43235477 7.9093609,5.1189541 8.29596021,5.1189541 Z"/>
</svg>
