<svg width="10" height="10" viewBox="0 0 10 10" fill="none" xmlns="http://www.w3.org/2000/svg">
<path d="M8.66635 0.621272C8.47109 0.42601 8.1545 0.42601 7.95924 0.621272L5.00169 3.57883L2.04391 0.621056C1.84865 0.425794 1.53207 0.425794 1.33681 0.621056L0.623225 1.33464C0.427963 1.5299 0.427963 1.84648 0.623225 2.04174L3.581 4.99952L0.623009 7.9575C0.427747 8.15277 0.427747 8.46935 0.623009 8.66461L1.33659 9.37819C1.53185 9.57345 1.84843 9.57345 2.0437 9.37819L5.00168 6.4202L7.95946 9.37798C8.15472 9.57324 8.4713 9.57324 8.66656 9.37798L9.38015 8.6644C9.57541 8.46913 9.57541 8.15255 9.38015 7.95729L6.42237 4.99952L9.37993 2.04196C9.57519 1.8467 9.57519 1.53012 9.37993 1.33485L8.66635 0.621272Z" fill="#828b95"/>
</svg>