<svg width="12" height="12" viewBox="0 0 12 12" fill="none" xmlns="http://www.w3.org/2000/svg">
	<path fill-rule="evenodd" clip-rule="evenodd" d="M7.66421 6.00031L11.5549 9.89098C11.7892 10.1253 11.7892 10.5052 11.5549 10.7395L10.7405 11.5539C10.5062 11.7882 10.1263 11.7882 9.89195 11.5539L6.00129 7.66323L2.11062 11.5539C1.87631 11.7882 1.49641 11.7882 1.26209 11.5539L0.447702 10.7395C0.213387 10.5052 0.213387 10.1253 0.447702 9.89098L4.33837 6.00031L0.447702 2.10964C0.213387 1.87533 0.213387 1.49543 0.447702 1.26112L1.26209 0.446725C1.49641 0.21241 1.87631 0.212411 2.11062 0.446725L6.00129 4.33739L9.89195 0.446725C10.1263 0.212411 10.5062 0.212411 10.7405 0.446725L11.5549 1.26112C11.7892 1.49543 11.7892 1.87533 11.5549 2.10964L7.66421 6.00031Z" fill="#FFF"/>
</svg>