<svg xmlns="http://www.w3.org/2000/svg" width="19" height="16" viewBox="0 0 19 16">
  <path fill="#525C69" fill-rule="evenodd" d="M4.89826027,9.47191961 L4.89826027,3.09378006 C4.89826027,2.98625485 4.98625485,2.89826027 5.09378006,2.89826027 L11.4719196,2.89826027 C11.5794448,2.89826027 11.6674928,2.98625485 11.6674928,3.09378006 L11.6674928,3.40130751 L13.565753,3.40130751 L13.565753,1.64034867 C13.565753,1.2881569 13.2775428,1 12.9254044,1 L3.64034867,1 C3.2881569,1 3,1.2881569 3,1.64034867 L3,10.9254044 C3,11.2775428 3.2881569,11.565753 3.64034867,11.565753 L5.29458273,11.565753 L5.29458273,9.6674394 L5.09378006,9.6674394 C4.98625485,9.6674394 4.89826027,9.57949819 4.89826027,9.47191961 L4.89826027,9.47191961 Z M15.1209465,12.9139615 C15.1209465,13.0278225 15.0278225,13.1209465 14.9139615,13.1209465 L8.16139736,13.1209465 C8.04753633,13.1209465 7.95435731,13.0278225 7.95435731,12.9139615 L7.95435731,6.16139736 C7.95435731,6.04753633 8.04753633,5.95435731 8.16139736,5.95435731 L14.9139615,5.95435731 C15.0278225,5.95435731 15.1209465,6.04753633 15.1209465,6.16139736 L15.1209465,12.9139615 Z M16.2686069,4.05446862 L6.71344529,4.05446862 C6.35100812,4.05446862 6.05446862,4.35100812 6.05446862,4.71344529 L6.05446862,14.2686069 C6.05446862,14.6309891 6.35100812,14.9275835 6.71344529,14.9275835 L16.2686069,14.9275835 C16.6309891,14.9275835 16.9275835,14.6309891 16.9275835,14.2686069 L16.9275835,4.71344529 C16.9275835,4.35100812 16.6309891,4.05446862 16.2686069,4.05446862 L16.2686069,4.05446862 Z"/>
</svg>
