<svg xmlns="http://www.w3.org/2000/svg" width="19" height="16" viewBox="0 0 19 16">
  <path fill="#525C69" fill-rule="evenodd" d="M6.16129936,2 L6.17836723,4.83 L8.31606443,4.83054257 C10.76451,4.83054257 12.7493672,6.81539985 12.7493672,9.26384537 L12.7493672,9.26384537 L12.7493672,9.39266183 C12.7493672,11.8411074 10.76451,13.8259646 8.31606443,13.8259646 L8.31606443,13.8259646 L4.90969636,13.8259646 C4.67079804,13.8259646 4.43631315,13.8070684 4.20765482,13.7706891 L4.20765482,13.7706891 L4.20836723,11.822 L8.1158211,11.822009 L8.27890787,11.8167331 C9.57277046,11.7327531 10.5962178,10.6567022 10.5962178,9.34161235 L10.5962178,9.34161235 L10.5909418,9.17852559 C10.5069619,7.88466299 9.43091096,6.86121566 8.1158211,6.86121566 L8.1158211,6.86121566 L6.19136723,6.861 L6.20845071,9.90895133 L2,5.93219796 L6.16129936,2 Z M16.2040319,3.88737178 L16.2040319,13.5489211 L14.1956673,13.5489211 L14.1956673,3.88737178 L16.2040319,3.88737178 Z"/>
</svg>
