<svg xmlns="http://www.w3.org/2000/svg" width="19" height="16" viewBox="0 0 19 16">
  <path fill="#525C69" fill-rule="evenodd" d="M10.282667,2.72932977 C9.79762959,1.92928923 13.8882401,1.26427663 14.1599381,3.71390849 C14.2668501,4.4523554 14.2668501,5.20285997 14.1599381,5.94130688 C14.1599381,5.94130688 14.7710521,5.86816674 14.3630922,7.07779203 C14.3630922,7.07779203 14.1384665,7.94844093 13.7935449,7.75293173 C13.7935449,7.75293173 13.8494261,8.85312812 13.3063053,9.03963546 C13.3063053,9.03963546 13.3451193,9.62560046 13.3451193,9.66526492 L13.3451193,9.66526492 L13.7990504,9.73587328 C13.7990504,9.73587328 13.7852866,10.2245056 13.8758526,10.2773916 C14.2899735,10.5558579 14.7438995,10.7669159 15.2214047,10.903021 C16.6308209,11.2754731 17.3465401,11.9146053 17.3465401,12.4741274 L17.3465401,12.4741274 L17.7347508,15.0234315 L5.90785166,15.0234315 C5.90785166,15.0234315 5.98670017,13.7678638 6.20114065,12.8974962 C6.41558113,12.0271286 7.62184325,11.3806824 8.73175855,10.8836108 C9.30626084,10.6262138 9.43068587,10.4717755 10.0087668,10.2084711 C10.0412005,10.0482074 10.0542362,9.88447764 10.0475808,9.72096394 L10.0475808,9.72096394 L10.5392248,9.66020137 C10.5392248,9.66020137 10.6039148,9.78257044 10.5001355,9.06354666 C10.5001355,9.06354666 9.94765535,8.91445331 9.92205462,7.76952891 C9.92205462,7.76952891 9.50666221,7.9132774 9.48161204,7.21957137 C9.46399434,6.74978666 9.10998862,6.34160845 9.61925035,6.00403861 L9.61925035,6.00403861 L9.35993978,5.2841709 C9.35993978,5.2841709 9.08714066,2.5042832 10.282667,2.72932977 Z M2.97577001,3.65902117 L7.1432516,7.82650275 L2.97577001,11.9939843 L2.975,8.99302117 L0,8.99309249 L0,6.99309249 L2.975,6.99302117 L2.97577001,3.65902117 Z"/>
</svg>
