<svg xmlns="http://www.w3.org/2000/svg" width="19" height="16" viewBox="0 0 19 16">
  <path fill="#525C69" fill-rule="evenodd" d="M15.2464343,8.07 L16.6443118,10.3041233 C17.2299765,11.2406438 16.9455517,12.4746187 16.0090312,13.0602834 C15.6910696,13.2591246 15.323608,13.364563 14.9485914,13.364563 L11.911,13.363 L11.911556,15.8018234 L8.55966514,12.4499325 L11.911556,9.09804166 L11.911,11.163 L14.5873928,11.1641265 L13.3404343,9.171 L15.2464343,8.07 Z M5.5787681,5.70929212 L6.80564531,10.2880602 L4.849,9.159 L3.59639283,11.1641265 L6.65243434,11.164 L6.65243434,13.364 L3.23643434,13.364563 C2.13186484,13.364563 1.23643434,12.4691325 1.23643434,11.364563 C1.23643434,10.9895465 1.34187274,10.6220849 1.54071398,10.3041233 L2.944,8.059 L1,6.93616933 L5.5787681,5.70929212 Z M10.1529527,0.30454686 C10.4101506,0.465388781 10.6273913,0.682629519 10.7882332,0.939827457 L12.534,3.731 L14.4998218,2.59662694 L13.2729446,7.17539504 L8.69417648,5.94851783 L10.627,4.832 L9.09239283,2.37712649 L7.60043434,4.761 L5.69443434,3.661 L7.39679254,0.939827457 C7.98245725,0.00330696505 9.21643216,-0.281117846 10.1529527,0.30454686 Z"/>
</svg>
