<svg xmlns="http://www.w3.org/2000/svg" width="19" height="16" viewBox="0 0 19 16">
  <path fill="#525C69" fill-rule="evenodd" d="M8.36909222,0 C11.8866447,0 14.7381844,2.85153972 14.7381844,6.36909222 C14.7381844,7.65843665 14.3550633,8.85829833 13.6964529,9.86104531 L17.0048975,13.1683785 C17.396738,13.560219 17.3944903,14.1977657 17.0095936,14.5826624 L16.5826624,15.0095936 C16.1934155,15.3988405 15.557725,15.3942439 15.1683785,15.0048975 L11.8610453,11.6964529 C10.8582983,12.3550633 9.65843665,12.7381844 8.36909222,12.7381844 C4.85153972,12.7381844 2,9.88664472 2,6.36909222 C2,2.85153972 4.85153972,0 8.36909222,0 Z M8.36909222,1.81974063 C5.85655472,1.81974063 3.81974063,3.85655472 3.81974063,6.36909222 C3.81974063,8.88162972 5.85655472,10.9184438 8.36909222,10.9184438 C10.8816297,10.9184438 12.9184438,8.88162972 12.9184438,6.36909222 C12.9184438,3.85655472 10.8816297,1.81974063 8.36909222,1.81974063 Z"/>
</svg>
