<svg width="20" height="20" viewBox="0 0 20 20" fill="none" xmlns="http://www.w3.org/2000/svg">
<path d="M20 10C20 12.1118 19.3315 14.1694 18.0902 15.8779C16.8489 17.5863 15.0986 18.858 13.0902 19.5106C11.0817 20.1631 8.91826 20.1631 6.90983 19.5106C4.9014 18.858 3.15111 17.5863 1.90983 15.8779C0.668549 14.1694 -1.84619e-07 12.1118 0 10C1.84619e-07 7.88821 0.66855 5.83062 1.90983 4.12215C3.15111 2.41367 4.9014 1.14201 6.90983 0.489434C8.91827 -0.163145 11.0817 -0.163145 13.0902 0.489435L12.4721 2.39155C10.8654 1.86948 9.13461 1.86948 7.52786 2.39155C5.92112 2.91361 4.52089 3.93094 3.52786 5.29772C2.53484 6.6645 2 8.31057 2 10C2 11.6894 2.53484 13.3355 3.52786 14.7023C4.52089 16.0691 5.92112 17.0864 7.52786 17.6085C9.13461 18.1305 10.8654 18.1305 12.4721 17.6085C14.0789 17.0864 15.4791 16.0691 16.4721 14.7023C17.4652 13.3355 18 11.6894 18 10L20 10Z" fill="#2FC6F6"/>
</svg>
