<svg width="25" height="26" viewBox="0 0 25 26" fill="none" xmlns="http://www.w3.org/2000/svg">
	<path d="M6 3.86364C6 2.28209 7.2592 1 8.8125 1H18.1875C19.7408 1 21 2.28209 21 3.86364V19.1364C21 20.7179 19.7408 22 18.1875 22H8.8125C7.2592 22 6 20.7179 6 19.1364V3.86364Z" fill="white"/>
	<rect x="8" y="3" width="11" height="17" rx="2" fill="#11A9D9"/>
	<path fill-rule="evenodd" clip-rule="evenodd" d="M9.73256 16C9.63015 16 9.54639 15.9192 9.54639 15.8203V5.67097C9.54639 5.57213 9.63015 5.49121 9.73256 5.49121H17.2673C17.3697 5.49121 17.4535 5.57213 17.4535 5.67097V15.8203C17.4535 15.9192 17.3697 16 17.2673 16H9.73256Z" fill="#DDE4EE"/>
	<path fill-rule="evenodd" clip-rule="evenodd" d="M9.73256 16C9.63015 16 9.54639 15.9192 9.54639 15.8203V5.67097C9.54639 5.57213 9.63015 5.49121 9.73256 5.49121H17.2673C17.3697 5.49121 17.4535 5.57213 17.4535 5.67097V15.8203C17.4535 15.9192 17.3697 16 17.2673 16H9.73256Z" fill="white"/>
	<circle cx="13.5" cy="18.0964" r="0.979198" fill="white"/>
</svg>