<svg width="14" height="12" viewBox="0 0 14 12" fill="none" xmlns="http://www.w3.org/2000/svg">
<path fill-rule="evenodd" clip-rule="evenodd" d="M13.026 9.77847L7.86664 1.18522C7.46912 0.5255 6.52183 0.5255 6.13276 1.18522L0.973427 9.77847C0.567446 10.4551 1.05801 11.3094 1.84459 11.3094H12.1633C12.9414 11.3094 13.432 10.4551 13.026 9.77847ZM6.25963 4.17933C6.25963 3.79872 6.56412 3.49423 6.94472 3.49423H7.03776C7.41837 3.49423 7.72285 3.79872 7.72285 4.17933V6.74208C7.72285 7.12268 7.41837 7.42717 7.03776 7.42717H6.94472C6.56412 7.42717 6.25963 7.12268 6.25963 6.74208V4.17933ZM7.85818 9.15259C7.85818 9.62623 7.46912 10.0153 6.99547 10.0153C6.52183 10.0153 6.13276 9.62623 6.13276 9.15259C6.13276 8.67894 6.52183 8.28988 6.99547 8.28988C7.46912 8.28988 7.85818 8.67894 7.85818 9.15259Z" fill="#A8ADB4"/>
</svg>
