<svg width="867" height="500" viewBox="0 0 867 500" fill="none" xmlns="http://www.w3.org/2000/svg">
<path fill-rule="evenodd" clip-rule="evenodd" d="M0 0L867 0L867 500L0 500L0 0Z"/>
<mask id="mask0" mask-type="alpha" maskUnits="userSpaceOnUse" x="0" y="0" width="867" height="500">
<path fill-rule="evenodd" clip-rule="evenodd" d="M0 0L867 0L867 500L0 500L0 0Z" fill="white"/>
</mask>
<g mask="url(#mask0)">
<g opacity="0.4">
<path fill-rule="evenodd" clip-rule="evenodd" d="M288.231 256.327C292.786 248.592 297.093 241.279 301.73 233.403H241.721V279.348H301.781C297.031 271.277 292.717 263.946 288.231 256.327V256.327ZM231.226 223.509C259.08 223.509 287.607 223.507 314.962 223.518C315.879 223.518 316.795 223.658 318.522 223.797C311.971 234.821 305.731 245.319 299.211 256.29C305.541 266.981 311.855 277.64 318.697 289.191H241.377V316.406C238.24 317.852 234.373 317.223 231.226 317.064V223.509Z" fill="white"/>
</g>
<g opacity="0.4">
<path fill-rule="evenodd" clip-rule="evenodd" d="M738.167 83.1455C755.952 52.9379 772.772 24.3834 790.878 -6.37366H556.537V173.045H791.08C772.529 141.528 755.682 112.9 738.167 83.1455V83.1455ZM515.554 -45.0124C624.327 -45.0124 735.729 -45.0215 842.554 -44.9757C846.132 -44.9757 849.71 -44.4308 856.455 -43.8859C830.871 -0.838866 806.506 40.1568 781.041 83.0024C805.764 124.749 830.417 166.377 857.137 211.484H555.194V317.762C542.943 323.408 527.842 320.949 515.554 320.331V-45.0124Z" fill="white"/>
</g>
</g>
</svg>
