<?xml version="1.0" encoding="UTF-8"?>
<svg width="49px" height="45px" viewBox="0 0 49 45" version="1.1" xmlns="http://www.w3.org/2000/svg" xmlns:xlink="http://www.w3.org/1999/xlink">
    <title>Combined Shape</title>
    <g id="Symbols" stroke="none" stroke-width="1" fill="none" fill-rule="evenodd">
        <g id="Icons-/-Type-1-/-Icon-/-g-03" transform="translate(-6.000000, -8.000000)" fill="#A3B2C5">
            <path d="M52,8 C53.6568542,8 55,9.34314575 55,11 L55,50 C55,51.6568542 53.6568542,53 52,53 L9,53 C7.34314575,53 6,51.6568542 6,50 L6,11 C6,9.34314575 7.34314575,8 9,8 L52,8 Z M52,16 L9,16 L9,49.6 C9,49.7932997 9.1371128,49.9545749 9.31938605,49.9918734 L9.4,50 L51.6,50 C51.7932997,50 51.9545749,49.8628872 51.9918734,49.680614 L52,49.6 L52,16 Z M46.9614258,19 C48.0659953,19 48.9614258,19.8954305 48.9614258,21 L48.9614258,44.983277 C48.9614258,46.0878465 48.0659953,46.983277 46.9614258,46.983277 L35,46.983277 C33.8954305,46.983277 33,46.0878465 33,44.983277 L33,21 C33,19.8954305 33.8954305,19 35,19 L46.9614258,19 Z M41.3551516,26.7916385 L40.6189532,26.7916385 C40.3538722,26.7916385 40.1268179,26.9835027 40.0846476,27.2449887 L39.8821452,28.4557092 C39.8796342,28.4706688 39.8684846,28.4826513 39.8537802,28.4863331 C39.4043939,28.5989582 38.9822979,28.7767101 38.5956349,29.0091057 C38.5826046,29.0169384 38.5662366,29.0163608 38.5538572,29.0075185 L37.5752182,28.3090854 C37.3599232,28.1552624 37.0641936,28.1793174 36.8763026,28.3668147 L36.3562052,28.8872964 C36.1687069,29.0751905 36.1446509,29.3709274 36.2988862,29.5862338 L36.9989592,30.566832 C37.0077839,30.5791937 37.0083936,30.5955607 37.0005816,30.60859 C36.7704479,30.9922656 36.5945436,31.4118517 36.4820342,31.8571532 C36.4783142,31.8718607 36.4663379,31.8829773 36.4513959,31.8854676 L35.2340362,32.0887553 C34.9729542,32.131867 34.7807129,32.3581804 34.7807129,32.6238173 L34.7807129,33.3594597 C34.7807129,33.6250781 34.9729542,33.8514101 35.2340362,33.8945218 L36.4513546,34.0977919 C36.4663172,34.1002998 36.4783142,34.111435 36.4820136,34.12616 C36.5735359,34.4897135 36.7039012,34.8374767 36.8752796,35.1612035 C36.8824199,35.1747019 36.8809112,35.191105 36.8713116,35.2029977 L36.1043612,36.1528997 C35.9376949,36.3587686 35.9446906,36.6554438 36.1210186,36.854129 L36.6091652,37.4039708 C36.7862579,37.6030001 37.0800759,37.6442528 37.3040922,37.5030974 L38.3486166,36.8469287 C38.3614196,36.8388801 38.3777359,36.8392056 38.3902599,36.8476872 C38.8360709,37.1489638 39.3389839,37.3708204 39.8780326,37.5030974 L40.0846682,38.7382521 C40.1268386,38.9997557 40.3538722,39.1916385 40.6189532,39.1916385 L41.3551516,39.1916385 C41.6207802,39.1916385 41.8470492,38.9997743 41.8901806,38.7382707 L42.0919079,37.5277662 C42.0944189,37.512788 42.1055892,37.5007879 42.1203142,37.4971062 C42.5638932,37.3860332 42.9805022,37.2114205 43.3635176,36.983122 C43.3765479,36.9753617 43.3928539,36.9759755 43.4051816,36.9847816 L44.4255259,37.7135316 C44.6404489,37.8679147 44.9363852,37.8436965 45.1240799,37.655604 L45.6444046,37.1352855 C45.8316756,36.947968 45.8570336,36.6523934 45.7015169,36.4366902 L44.9751559,35.4182679 C44.9663312,35.4059061 44.9657319,35.3895567 44.9735439,35.376545 C45.2043596,34.9915715 45.3812042,34.5711732 45.4930936,34.1238681 C45.4967722,34.1091431 45.5087692,34.0979727 45.5237319,34.0954638 L46.7273896,33.8944867 C46.9892466,33.8513564 47.1807129,33.6250419 47.1807129,33.3594236 L47.1807129,32.6237812 C47.1803202,32.3581804 46.9888539,32.131867 46.7269762,32.0887367 L45.4986632,31.883807 C45.4113982,31.5270384 45.2850629,31.1856457 45.1210832,30.8665214 C45.1141909,30.8530953 45.1157926,30.8369432 45.1252682,30.8251963 L45.8960212,29.8695004 C46.0632662,29.6634341 46.0556712,29.3669573 45.8793536,29.1680913 L45.3908246,28.618267 C45.2137422,28.4195994 44.9200896,28.3775882 44.6960939,28.5191042 L43.6456382,29.17946 C43.1902482,28.8612915 42.6752659,28.6251242 42.1199732,28.4859725 C42.1052482,28.4822731 42.0940779,28.4702544 42.0915669,28.4552577 L41.8901806,27.2449887 C41.8470492,26.9835027 41.6207699,26.7916385 41.3551516,26.7916385 Z M19,34 C19.5522847,34 20,34.4477153 20,35 L20,36 C20,36.5522847 19.5522847,37 19,37 L14,37 C13.4477153,37 13,36.5522847 13,36 L13,35 C13,34.4477153 13.4477153,34 14,34 L19,34 Z M43.3660885,33.527458 C43.1692659,34.4526729 42.4416594,35.180275 41.5164487,35.3770336 C39.7524811,35.7521815 38.2201283,34.2193832 38.5953516,32.4557973 C38.772797,31.6218629 39.6108048,30.7837959 40.4447418,30.6063162 C42.2083728,30.2309413 43.7413227,31.7633988 43.3660885,33.527458 Z M24,28 C24.5522847,28 25,28.4477153 25,29 L25,30 C25,30.5522847 24.5522847,31 24,31 L14,31 C13.4477153,31 13,30.5522847 13,30 L13,29 C13,28.4477153 13.4477153,28 14,28 L24,28 Z M24,22 C24.5522847,22 25,22.4477153 25,23 L25,24 C25,24.5522847 24.5522847,25 24,25 L14,25 C13.4477153,25 13,24.5522847 13,24 L13,23 C13,22.4477153 13.4477153,22 14,22 L24,22 Z M12.0924072,10.0966797 C11.0804021,10.0966797 10.2600098,10.917072 10.2600098,11.9290771 C10.2600098,12.9410823 11.0804021,13.7614746 12.0924072,13.7614746 C13.1044124,13.7614746 13.9248047,12.9410823 13.9248047,11.9290771 C13.9248047,10.917072 13.1044124,10.0966797 12.0924072,10.0966797 Z M16.9622803,10.0966797 C15.9502751,10.0966797 15.1298828,10.917072 15.1298828,11.9290771 C15.1298828,12.9410823 15.9502751,13.7614746 16.9622803,13.7614746 C17.9742854,13.7614746 18.7946777,12.9410823 18.7946777,11.9290771 C18.7946777,10.917072 17.9742854,10.0966797 16.9622803,10.0966797 Z M21.9622803,10.0966797 C20.9502751,10.0966797 20.1298828,10.917072 20.1298828,11.9290771 C20.1298828,12.9410823 20.9502751,13.7614746 21.9622803,13.7614746 C22.9742854,13.7614746 23.7946777,12.9410823 23.7946777,11.9290771 C23.7946777,10.917072 22.9742854,10.0966797 21.9622803,10.0966797 Z" id="Combined-Shape"></path>
        </g>
    </g>
</svg>