<svg width="18" height="14" viewBox="0 0 18 14" fill="none" xmlns="http://www.w3.org/2000/svg">
	<path d="M11.4783 10.4252L11.7327 11.7207C11.8058 12.0933 11.6078 12.4682 11.251 12.598C9.7595 13.1404 8.07763 13.4618 6.29397 13.5002H5.57102C3.77882 13.4616 2.08937 13.1373 0.592533 12.5902C0.251039 12.4654 0.0515083 12.114 0.109609 11.7551C0.165436 11.4102 0.227221 11.0794 0.290311 10.8334C0.505571 9.9942 1.71644 9.3709 2.8306 8.89163C3.12232 8.76609 3.29844 8.66595 3.47638 8.56477C3.65018 8.46594 3.82575 8.36612 4.11248 8.24067C4.14504 8.08615 4.15812 7.92828 4.15144 7.77063L4.64497 7.71204C4.64497 7.71204 4.7099 7.83003 4.60573 7.13675C4.60573 7.13675 4.05114 6.993 4.02544 5.88908C4.02544 5.88908 3.60846 6.02768 3.58331 5.35882C3.57811 5.22554 3.54367 5.09741 3.51068 4.97464C3.43153 4.68015 3.36068 4.41653 3.72148 4.18681L3.46118 3.49273C3.46118 3.49273 3.18733 0.812395 4.38743 1.02938C3.90054 0.257994 8.00677 -0.383203 8.27951 1.9787C8.38683 2.6907 8.38683 3.41433 8.27951 4.12633C8.27951 4.12633 8.89296 4.05581 8.48344 5.22211C8.48344 5.22211 8.25795 6.06158 7.91172 5.87307C7.91172 5.87307 7.96781 6.93387 7.42261 7.1137C7.42261 7.1137 7.46158 7.67868 7.46158 7.71692L7.91724 7.785C7.91724 7.785 7.90343 8.25613 7.99434 8.30713C8.41004 8.57562 8.8657 8.77912 9.34503 8.91035C10.7598 9.26946 11.4783 9.88571 11.4783 10.4252Z" fill="#525c69"/>
	<path d="M13.0645 2.09971H15.0165V4.49949H17.516V6.46705H15.0165V8.98616H13.0645V6.46705H10.6843V4.49949H13.0645V2.09971Z" fill="#525c69"/>
</svg>