<svg width="14" height="15" viewBox="0 0 14 15" fill="none" xmlns="http://www.w3.org/2000/svg">
	<path fill-rule="evenodd" clip-rule="evenodd" d="M11.4898 9.66245L13.5108 11.1311C14.1215 11.581 14.1688 12.4701 13.6054 12.9772C11.4924 14.9356 7.97177 15.6958 3.33697 10.9435C-1.2979 6.19121 -0.376129 2.78926 1.73683 0.830898C2.29964 0.323957 3.19623 0.40783 3.62458 1.02528L5.03805 3.03011C5.5331 3.76605 5.22041 4.76872 4.46091 5.26034L3.61245 5.80957C3.41748 5.93002 3.36316 6.1824 3.46778 6.37581C4.56505 8.24363 6.15032 9.8805 8.00435 11.0535C8.18926 11.157 8.45482 11.1035 8.58372 10.9328L9.18285 10.1092C9.70675 9.39133 10.7721 9.13946 11.4898 9.66245Z" fill="#525c69"/>
</svg>