<svg width="19" height="12" viewBox="0 0 19 12" fill="none" xmlns="http://www.w3.org/2000/svg">
	<path fill-rule="evenodd" clip-rule="evenodd" d="M12.6136 1.2027C10.7938 0.764182 8.97365 0.544922 7.15316 0.544922C5.32532 0.544922 3.46072 0.765956 1.55937 1.20802C1.15102 1.30297 0.861206 1.67508 0.861206 2.10437V9.44609C0.861206 9.86149 1.13298 10.2252 1.52417 10.3334C3.34095 10.8359 5.15833 11.0871 6.97632 11.0871C8.80437 11.0871 10.689 10.8331 12.6302 10.3251C13.0272 10.2212 13.3049 9.85458 13.3049 9.43452V2.09739C13.3049 1.6708 13.0186 1.30028 12.6136 1.2027ZM18.9038 1.51741C18.9038 1.48399 18.8978 1.45085 18.8863 1.4196C18.8336 1.27723 18.6783 1.2056 18.5394 1.25962L14.4812 2.83827C14.3767 2.87891 14.3077 2.98152 14.3077 3.09606V8.07913C14.3077 8.19367 14.3767 8.29629 14.4812 8.33692L18.5394 9.91557C18.5699 9.92743 18.6022 9.93351 18.6348 9.93351C18.7834 9.93351 18.9038 9.81006 18.9038 9.65779V1.51741ZM7.01282 6.6492C7.49897 6.6492 7.89308 6.2551 7.89308 5.76894C7.89308 5.28279 7.49897 4.88869 7.01282 4.88869C6.52667 4.88869 6.13256 5.28279 6.13256 5.76894C6.13256 6.2551 6.52667 6.6492 7.01282 6.6492ZM4.17253 6.64923C4.65869 6.64923 5.05279 6.25512 5.05279 5.76897C5.05279 5.28282 4.65869 4.88871 4.17253 4.88871C3.68638 4.88871 3.29228 5.28282 3.29228 5.76897C3.29228 6.25512 3.68638 6.64923 4.17253 6.64923ZM10.7349 5.76894C10.7349 6.2551 10.3408 6.6492 9.85463 6.6492C9.36847 6.6492 8.97437 6.2551 8.97437 5.76894C8.97437 5.28279 9.36847 4.88869 9.85463 4.88869C10.3408 4.88869 10.7349 5.28279 10.7349 5.76894Z" fill="#00ACE3"/>
</svg>
