<svg width="25" height="24" viewBox="0 0 25 24" fill="none" xmlns="http://www.w3.org/2000/svg">
	<path fill-rule="evenodd" clip-rule="evenodd" d="M22.3972 13.5372C22.3979 14.3786 21.1986 15.718 20.9663 15.5051C20.7341 15.2922 17.1308 13.9574 16.8984 13.7447C16.6659 13.532 16.6646 12.0154 16.6649 11.5723C16.6651 11.1291 13.036 10.9078 12.9677 10.9035C12.8987 10.9072 9.27025 11.1252 9.27197 11.5639C9.27369 12.0025 9.27369 13.5239 9.0419 13.7363C8.81011 13.9488 5.20894 15.2772 4.97629 15.4905C4.74364 15.7038 3.54239 14.3612 3.54175 13.5198C3.5411 12.8008 4.09533 9.63398 9.66229 8.73111C10.2215 8.58095 11.2521 8.48772 12.9571 8.48879L12.9709 8.48879C14.6759 8.49073 15.7068 8.58589 16.2662 8.73712C21.8368 9.65009 22.3966 12.8182 22.3972 13.5372Z" fill="white"/>
</svg>