<svg width="12" height="12" viewBox="0 0 12 12" fill="none" xmlns="http://www.w3.org/2000/svg">
<path fill-rule="evenodd" clip-rule="evenodd" d="M10.681 5.23021L8.60038 7.31012C7.45205 8.45912 5.58917 8.45912 4.44065 7.31012C4.25974 7.12972 4.11821 6.92645 3.99392 6.71683L4.96066 5.75017C5.00662 5.70382 5.06336 5.67727 5.11759 5.64598C5.18442 5.87433 5.3011 6.0905 5.48067 6.2701C6.05416 6.84405 6.98733 6.84325 7.56048 6.2701L9.64042 4.19024C10.2143 3.61637 10.2143 2.68341 9.64042 2.10998C9.06726 1.53655 8.13432 1.53655 7.56048 2.10998L6.82085 2.8504C6.22064 2.6167 5.57399 2.55387 4.94449 2.64612L6.52057 1.07008C7.66958 -0.0786996 9.53197 -0.0786996 10.681 1.07008C11.8294 2.21882 11.8294 4.0815 10.681 5.23021ZM5.18079 8.65029L4.44063 9.39071C3.86719 9.96386 2.93397 9.96386 2.36043 9.39071C1.78695 8.81677 1.78695 7.88382 2.36043 7.31012L4.44063 5.23021C5.01452 4.65638 5.94711 4.65638 6.52055 5.23021C6.69972 5.40942 6.81651 5.62554 6.88397 5.8536C6.93851 5.8219 6.99456 5.79614 7.04049 5.75014L8.00715 4.78387C7.88367 4.57342 7.74141 4.37088 7.56043 4.19028C6.4122 3.0415 4.54915 3.0415 3.40036 4.19028L1.32048 6.27022C0.171818 7.41935 0.171818 9.28149 1.32048 10.4305C2.46927 11.5789 4.33189 11.5789 5.48065 10.4305L7.05715 8.85414C6.42731 8.94693 5.78049 8.88356 5.18079 8.65029Z" fill="#FFF"/>
</svg>
