<svg width="78" height="23" viewBox="0 0 78 23" fill="none" xmlns="http://www.w3.org/2000/svg">
	<path d="M77.494 14.3695C77.9742 14.0966 78.1423 13.4862 77.8695 13.006C77.5966 12.5258 76.9862 12.3577 76.506 12.6305L77.494 14.3695ZM2.09447 0.0044719C1.54465 -0.0477003 1.05664 0.355719 1.00447 0.905534L0.154276 9.86529C0.102104 10.4151 0.505523 10.9031 1.05534 10.9553C1.60515 11.0075 2.09316 10.604 2.14533 10.0542L2.90106 2.08999L10.8653 2.84572C11.4151 2.8979 11.9031 2.49448 11.9553 1.94466C12.0075 1.39485 11.604 0.90684 11.0542 0.854667L2.09447 0.0044719ZM77 13.5C76.506 12.6305 76.5062 12.6304 76.5063 12.6304C76.5061 12.6305 76.506 12.6305 76.5056 12.6308C76.5048 12.6312 76.5033 12.632 76.5012 12.6332C76.4969 12.6356 76.49 12.6395 76.4805 12.6448C76.4615 12.6555 76.4319 12.6719 76.3921 12.6937C76.3125 12.7373 76.1918 12.8027 76.0318 12.8871C75.7117 13.0559 75.2345 13.3008 74.6139 13.6005C73.3725 14.2001 71.559 15.0185 69.2843 15.886C64.7318 17.6221 58.3494 19.5481 51.0205 20.318C36.3914 21.8546 18.0068 18.7936 2.77074 0.362853L1.22926 1.63715C16.9932 20.7064 36.1086 23.8954 51.2295 22.307C58.7756 21.5144 65.3307 19.5342 69.9969 17.7547C72.3316 16.8643 74.1978 16.0226 75.4837 15.4014C76.1268 15.0908 76.6252 14.8352 76.9648 14.6561C77.1346 14.5666 77.2648 14.4961 77.3535 14.4475C77.3979 14.4231 77.432 14.4042 77.4555 14.3911C77.4672 14.3846 77.4763 14.3795 77.4827 14.3758C77.486 14.374 77.4885 14.3726 77.4904 14.3715C77.4913 14.371 77.4922 14.3705 77.4927 14.3702C77.4934 14.3698 77.494 14.3695 77 13.5Z" fill="#2FC6F6"/>
</svg>
