<svg width="120" height="120" viewBox="0 0 120 120" fill="none" xmlns="http://www.w3.org/2000/svg">
	<path opacity="0.2" fill-rule="evenodd" clip-rule="evenodd" d="M60 120C93.1371 120 120 93.1371 120 60C120 26.8629 93.1371 0 60 0C26.8629 0 0 26.8629 0 60C0 93.1371 26.8629 120 60 120ZM60 118.492C92.3043 118.492 118.492 92.3043 118.492 60C118.492 27.6957 92.3043 1.50781 60 1.50781C27.6957 1.50781 1.50781 27.6957 1.50781 60C1.50781 92.3043 27.6957 118.492 60 118.492Z" fill="white"/>
	<g opacity="0.9" filter="url(#filter0_d_393_76234)">
		<path d="M79.1471 81.3081C79.9741 81.1609 80.5168 80.3676 80.3458 79.5452C79.4239 75.1131 77.7636 69.0085 77.7636 69.0085C77.7636 67.299 75.4725 65.345 70.9579 64.2073C69.4246 63.7894 67.9697 63.1437 66.6465 62.2937C66.4344 61.767 66.3505 61.2011 66.4011 60.6388L64.9541 60.4226C64.9541 60.3013 64.8303 58.51 64.8303 58.51C66.5693 57.9402 66.3905 54.5777 66.3905 54.5777C67.4948 55.1748 68.2141 52.5176 68.2141 52.5176C69.5204 48.8228 67.5636 49.0451 67.5636 49.0451C67.9058 46.7879 67.9058 44.4955 67.5636 42.2384C66.6941 34.7527 53.5948 36.7825 55.1486 39.2295C51.3206 38.5385 52.1943 47.0375 52.1943 47.0375L53.0246 49.235C51.8746 49.9614 52.0999 50.7969 52.3516 51.7305C52.4566 52.1202 52.5663 52.527 52.5825 52.9501C52.6629 55.0718 53.9904 54.6313 53.9904 54.6313C54.0729 58.1301 55.8404 58.5898 55.8404 58.5898C56.1725 60.7873 55.9663 60.4084 55.9663 60.4084L54.3923 60.5943C54.4138 61.0937 54.3723 61.5937 54.2686 62.0836C53.3544 62.4819 52.7948 62.7977 52.2424 63.1096C51.6736 63.4306 51.1123 63.7475 50.1793 64.1457C46.6252 65.6612 42.7622 67.6405 42.0768 70.2997C41.6577 71.9257 40.73 76.4885 40.0723 79.7885C39.9045 80.6307 40.4622 81.4454 41.3099 81.5824C47.0037 82.5021 53.0925 83 59.4201 83C66.3507 83 72.9948 82.4027 79.1471 81.3081Z" fill="white"/>
		<path d="M96.2933 74.3716C97.4936 74.0531 98.2781 72.9235 97.9761 71.719C97.417 69.489 96.2638 66.6558 94.8865 65.8211C93.0035 64.6799 93.1715 64.9168 91.9918 64.2763C91.2125 63.8353 90.3902 63.4676 89.5364 63.1784C89.0989 62.8025 88.7601 62.3335 88.5473 61.8095C88.0985 61.2639 87.5085 60.8396 86.8356 60.5784L86.7855 58.9406L90.3252 57.8608C90.3252 57.8608 91.2382 57.4463 91.3273 57.4463C91.1857 57.1576 91.0226 56.8789 90.8393 56.6125C90.7721 56.4383 90.4384 55.2436 90.4384 55.2436C90.9545 55.8879 91.5616 56.4607 92.2423 56.9456C91.6394 55.8458 91.1235 54.7045 90.699 53.5311C90.4151 52.4448 90.2177 51.3395 90.1087 50.2247C89.8654 48.1531 89.4869 46.098 88.9752 44.0715C88.6115 43.0645 87.9637 42.1731 87.1031 41.4955C85.8416 40.6403 84.361 40.1276 82.8188 40.0118H82.6414C81.0991 40.1272 79.6185 40.64 78.3571 41.4955C77.4978 42.1739 76.8505 43.0651 76.486 44.0715C75.9732 46.0978 75.5943 48.153 75.3516 50.2247C75.258 51.3645 75.0701 52.4954 74.7893 53.6067C74.3645 54.7594 73.8391 55.8759 73.2189 56.9447C73.8959 56.4573 74.4993 55.8829 75.0118 55.2379C75.0118 55.2379 74.5839 56.5484 74.5157 56.7236C74.3599 56.9498 74.2286 57.1907 74.1239 57.4425C74.2121 57.4425 75.1261 57.857 75.1261 57.857L78.6648 58.9406L78.6137 60.5784C77.9411 60.8407 77.3513 61.2652 76.9019 61.8104C76.7316 62.1735 76.5227 62.519 76.2786 62.8414C79.5026 64.1184 81.3897 65.9879 81.4659 68.0795C81.4808 68.1859 81.6509 68.822 81.889 69.7122C82.484 71.9365 83.5035 75.7479 83.5865 76.8499H83.8774C88.3687 76.2042 92.5401 75.3675 96.2933 74.3716Z" fill="white"/>
		<path d="M36.4291 76.8395H35.145C31.0549 76.254 27.2293 75.5101 23.7421 74.6319C22.5248 74.3253 21.7086 73.1869 21.9725 71.9596C22.4488 69.7448 23.4887 66.9267 25.2377 65.7789C26.3714 65.0349 26.8421 64.9065 28.0218 64.266C28.8011 63.825 29.6234 63.4572 30.4772 63.168C30.9147 62.7921 31.2536 62.3232 31.4663 61.7991C31.9151 61.2536 32.5051 60.8293 33.178 60.5681L33.2291 58.9302L29.6894 57.8504C29.6894 57.8504 28.7765 57.4359 28.6873 57.4359C28.8286 57.1473 28.9913 56.8686 29.1743 56.6022C29.2415 56.4279 29.5752 55.2333 29.5752 55.2333C29.0592 55.8776 28.4521 56.4503 27.7713 56.9353C28.3742 55.8355 28.8901 54.6941 29.3146 53.5208C29.5985 52.4345 29.7959 51.3292 29.9049 50.2144C30.1482 48.1428 30.5267 46.0877 31.0384 44.0611C31.4022 43.0542 32.05 42.1628 32.9105 41.4852C34.172 40.63 35.6526 40.1172 37.1948 40.0014H37.3722C38.9145 40.1168 40.3951 40.6296 41.6565 41.4852C42.5158 42.1636 43.1631 43.0548 43.5276 44.0611C44.0404 46.0875 44.4193 48.1426 44.662 50.2144C44.7555 51.3541 44.9435 52.485 45.2243 53.5964C45.6492 54.749 46.1745 55.8655 46.7947 56.9343C46.1185 56.4472 45.5159 55.8734 45.004 55.229C45.0136 55.2584 45.4325 56.541 45.4999 56.7142C45.6557 56.9405 45.787 57.1813 45.8917 57.4331C45.8035 57.4331 44.8895 57.8476 44.8895 57.8476L41.3498 58.9302L41.4009 60.5681C42.0735 60.8303 42.6633 61.2548 43.1127 61.8001C43.2829 62.1632 43.4918 62.5087 43.736 62.831C40.512 64.108 38.6249 65.9775 38.5497 68.0691C38.5347 68.1748 38.3669 68.802 38.1316 69.6816C37.5373 71.903 36.5124 75.7342 36.4291 76.8395Z" fill="white"/>
	</g>
	<defs>
		<filter id="filter0_d_393_76234" x="12" y="13" width="96" height="96" filterUnits="userSpaceOnUse" color-interpolation-filters="sRGB">
			<feFlood flood-opacity="0" result="BackgroundImageFix"/>
			<feColorMatrix in="SourceAlpha" type="matrix" values="0 0 0 0 0 0 0 0 0 0 0 0 0 0 0 0 0 0 127 0" result="hardAlpha"/>
			<feOffset dy="1"/>
			<feGaussianBlur stdDeviation="1"/>
			<feComposite in2="hardAlpha" operator="out"/>
			<feColorMatrix type="matrix" values="0 0 0 0 0 0 0 0 0 0 0 0 0 0 0 0 0 0 0.15 0"/>
			<feBlend mode="normal" in2="BackgroundImageFix" result="effect1_dropShadow_393_76234"/>
			<feBlend mode="normal" in="SourceGraphic" in2="effect1_dropShadow_393_76234" result="shape"/>
		</filter>
	</defs>
</svg>
