<svg width="1366" height="362" viewBox="0 0 1366 362" fill="none" xmlns="http://www.w3.org/2000/svg">
	<rect width="1366" height="362"/>
	<g clip-path="url(#clip0_1_7)">
		<path d="M1090.65 96.3229L1287.64 70.757C1306.65 68.2897 1323.55 82.977 1323.75 102.146L1326.6 366.306C1326.81 385.439 1310.29 400.476 1291.26 398.475L1091.42 377.463C1075.14 375.75 1062.77 362.016 1062.77 345.638V128.057C1062.77 111.976 1074.7 98.3926 1090.65 96.3229Z" stroke="#EAEAEA" stroke-width="2"/>
		<path d="M1061.81 90.0482L1271.73 62.8748C1290.74 60.4145 1307.63 75.1 1307.84 94.2643L1310.86 374.184C1311.07 393.315 1294.55 408.351 1275.53 406.355L1062.58 384.023C1046.29 382.314 1033.92 368.579 1033.92 352.198V121.784C1033.92 105.698 1045.86 92.1131 1061.81 90.0482Z" stroke="#EAEAEA" stroke-width="2"/>
		<path d="M1036.01 85.9673L1255.68 57.4916C1274.1 55.1045 1290.47 69.332 1290.67 87.8999L1293.83 380.548C1294.03 399.082 1278.02 413.648 1259.59 411.712L1036.76 388.311C1020.98 386.653 1009 373.347 1009 357.48V116.71C1009 101.13 1020.56 87.9702 1036.01 85.9673Z" stroke="#EAEAEA" stroke-width="2"/>
		<mask id="mask0_1_7" style="mask-type:luminance" maskUnits="userSpaceOnUse" x="1042" y="131" width="209" height="241">
			<path fill-rule="evenodd" clip-rule="evenodd" d="M1170.62 147.811C1170.62 143.053 1166.49 139.346 1161.76 139.857L1114.81 144.922C1110.75 145.36 1107.67 148.79 1107.67 152.876V199.148C1107.67 203.687 1111.44 207.317 1115.98 207.142L1162.93 205.326C1167.23 205.16 1170.62 201.63 1170.62 197.332V147.811ZM1170.62 224.757C1170.62 220.269 1166.93 216.66 1162.45 216.759L1115.49 217.796C1111.15 217.892 1107.67 221.445 1107.67 225.794V274.834C1107.67 279.201 1111.17 282.76 1115.54 282.833L1162.49 283.611C1166.96 283.685 1170.62 280.082 1170.62 275.612V224.757ZM1190.29 284.072C1185.93 283.999 1182.43 280.44 1182.43 276.073V224.142C1182.43 219.793 1185.9 216.24 1190.25 216.144L1240.8 215.027C1245.26 214.929 1248.93 218.484 1248.98 222.937L1249.57 276.833C1249.62 281.337 1245.95 284.994 1241.44 284.92L1190.29 284.072ZM1170.62 303.218C1170.62 298.937 1167.25 295.415 1162.98 295.226L1116.02 293.15C1111.47 292.949 1107.67 296.586 1107.67 301.143V350.629C1107.67 354.745 1110.79 358.19 1114.89 358.591L1161.84 363.184C1166.55 363.644 1170.62 359.948 1170.62 355.222V303.218ZM1189.65 365.904C1185.55 365.503 1182.43 362.058 1182.43 357.942V304.447C1182.43 299.89 1186.23 296.253 1190.78 296.454L1242.26 298.73C1246.5 298.917 1249.86 302.387 1249.9 306.634L1250.52 362.95C1250.58 367.711 1246.48 371.464 1241.75 371L1189.65 365.904ZM1190.73 204.25C1186.2 204.426 1182.43 200.796 1182.43 196.256V144.811C1182.43 140.725 1185.5 137.295 1189.57 136.857L1239.2 131.502C1243.9 130.995 1248.01 134.645 1248.06 139.368L1248.66 194.225C1248.71 198.557 1245.3 202.14 1240.97 202.308L1190.73 204.25ZM1042.1 159.95C1042.1 155.864 1045.18 152.435 1049.24 151.997L1089.63 147.639C1094.36 147.128 1098.49 150.835 1098.49 155.593V200.121C1098.49 204.419 1095.09 207.949 1090.8 208.115L1050.41 209.678C1045.87 209.853 1042.1 206.223 1042.1 201.684V159.95ZM1049.92 219.245C1045.57 219.342 1042.1 222.894 1042.1 227.243V273.747C1042.1 278.114 1045.6 281.674 1049.97 281.746L1090.36 282.415C1094.83 282.49 1098.49 278.887 1098.49 274.417V226.351C1098.49 221.863 1094.8 218.254 1090.31 218.353L1049.92 219.245ZM1049.32 352.176C1045.22 351.775 1042.1 348.331 1042.1 344.214V298.244C1042.1 293.687 1045.9 290.051 1050.45 290.252L1090.84 292.037C1095.12 292.226 1098.49 295.749 1098.49 300.03V348.166C1098.49 352.892 1094.42 356.588 1089.71 356.128L1049.32 352.176Z" fill="#EAEAEA"/>
		</mask>
		<g mask="url(#mask0_1_7)">
			<path d="M1115.03 146.911L1161.98 141.845L1161.55 137.868L1114.6 142.934L1115.03 146.911ZM1109.67 199.148V152.876H1105.67V199.148H1109.67ZM1162.85 203.327L1115.9 205.143L1116.06 209.14L1163.01 207.324L1162.85 203.327ZM1172.62 197.332V147.811H1168.62V197.332H1172.62ZM1162.4 214.759L1115.45 215.797L1115.54 219.796L1162.49 218.758L1162.4 214.759ZM1105.67 225.794V274.834H1109.67V225.794H1105.67ZM1115.51 284.833L1162.46 285.611L1162.52 281.611L1115.57 280.833L1115.51 284.833ZM1172.62 275.612V224.757H1168.62V275.612H1172.62ZM1180.43 224.142V276.073H1184.43V224.142H1180.43ZM1240.76 213.027L1190.2 214.145L1190.29 218.144L1240.85 217.027L1240.76 213.027ZM1251.57 276.811L1250.98 222.915L1246.98 222.959L1247.57 276.855L1251.57 276.811ZM1190.26 286.072L1241.41 286.919L1241.48 282.92L1190.33 282.072L1190.26 286.072ZM1163.06 293.228L1116.11 291.152L1115.94 295.148L1162.89 297.224L1163.06 293.228ZM1105.67 301.143V350.629H1109.67V301.143H1105.67ZM1114.7 360.581L1161.65 365.174L1162.04 361.193L1115.09 356.6L1114.7 360.581ZM1172.62 355.222V303.218H1168.62V355.222H1172.62ZM1180.43 304.447V357.942H1184.43V304.447H1180.43ZM1242.34 296.732L1190.87 294.456L1190.69 298.453L1242.17 300.728L1242.34 296.732ZM1252.52 362.928L1251.9 306.612L1247.9 306.656L1248.52 362.972L1252.52 362.928ZM1189.45 367.894L1241.55 372.991L1241.94 369.01L1189.84 363.913L1189.45 367.894ZM1180.43 144.811V196.256H1184.43V144.811H1180.43ZM1189.78 138.846L1239.42 133.491L1238.99 129.514L1189.35 134.869L1189.78 138.846ZM1246.06 139.39L1246.66 194.247L1250.66 194.203L1250.06 139.346L1246.06 139.39ZM1240.9 200.309L1190.66 202.252L1190.81 206.249L1241.05 204.306L1240.9 200.309ZM1089.42 145.65L1049.02 150.008L1049.45 153.985L1089.85 149.627L1089.42 145.65ZM1100.49 200.121V155.593H1096.49V200.121H1100.49ZM1050.48 211.676L1090.88 210.114L1090.72 206.117L1050.33 207.679L1050.48 211.676ZM1040.1 159.95V201.684H1044.1V159.95H1040.1ZM1044.1 273.747V227.243H1040.1V273.747H1044.1ZM1090.39 280.416L1050 279.746L1049.93 283.746L1090.33 284.415L1090.39 280.416ZM1096.49 226.351V274.417H1100.49V226.351H1096.49ZM1049.97 221.245L1090.36 220.352L1090.27 216.353L1049.88 217.246L1049.97 221.245ZM1040.1 298.244V344.214H1044.1V298.244H1040.1ZM1090.93 290.039L1050.54 288.254L1050.36 292.25L1090.76 294.036L1090.93 290.039ZM1100.49 348.166V300.03H1096.49V348.166H1100.49ZM1049.12 354.167L1089.52 358.118L1089.91 354.137L1049.51 350.186L1049.12 354.167ZM1096.49 348.166C1096.49 351.71 1093.43 354.482 1089.91 354.137L1089.52 358.118C1095.4 358.693 1100.49 354.073 1100.49 348.166H1096.49ZM1090.76 294.036C1093.96 294.177 1096.49 296.819 1096.49 300.03H1100.49C1100.49 294.679 1096.28 290.276 1090.93 290.039L1090.76 294.036ZM1040.1 344.214C1040.1 349.36 1044 353.666 1049.12 354.167L1049.51 350.186C1046.44 349.885 1044.1 347.302 1044.1 344.214H1040.1ZM1044.1 298.244C1044.1 294.827 1046.95 292.099 1050.36 292.25L1050.54 288.254C1044.85 288.003 1040.1 292.548 1040.1 298.244H1044.1ZM1100.49 226.351C1100.49 220.741 1095.88 216.229 1090.27 216.353L1090.36 220.352C1093.72 220.278 1096.49 222.985 1096.49 226.351H1100.49ZM1090.33 284.415C1095.91 284.508 1100.49 280.004 1100.49 274.417H1096.49C1096.49 277.769 1093.74 280.471 1090.39 280.416L1090.33 284.415ZM1044.1 227.243C1044.1 223.981 1046.7 221.317 1049.97 221.245L1049.88 217.246C1044.44 217.366 1040.1 221.807 1040.1 227.243H1044.1ZM1040.1 273.747C1040.1 279.205 1044.47 283.655 1049.93 283.746L1050 279.746C1046.72 279.692 1044.1 277.022 1044.1 273.747H1040.1ZM1050.33 207.679C1046.93 207.811 1044.1 205.088 1044.1 201.684H1040.1C1040.1 207.358 1044.81 211.895 1050.48 211.676L1050.33 207.679ZM1096.49 200.121C1096.49 203.345 1093.94 205.992 1090.72 206.117L1090.88 210.114C1096.25 209.906 1100.49 205.494 1100.49 200.121H1096.49ZM1049.02 150.008C1043.95 150.556 1040.1 154.843 1040.1 159.95H1044.1C1044.1 156.886 1046.41 154.314 1049.45 153.985L1049.02 150.008ZM1089.85 149.627C1093.4 149.244 1096.49 152.024 1096.49 155.593H1100.49C1100.49 149.645 1095.33 145.012 1089.42 145.65L1089.85 149.627ZM1246.66 194.247C1246.7 197.496 1244.14 200.183 1240.9 200.309L1241.05 204.306C1246.46 204.097 1250.72 199.618 1250.66 194.203L1246.66 194.247ZM1239.42 133.491C1242.94 133.111 1246.02 135.848 1246.06 139.39L1250.06 139.346C1249.99 133.443 1244.86 128.88 1238.99 129.514L1239.42 133.491ZM1180.43 196.256C1180.43 201.931 1185.14 206.468 1190.81 206.249L1190.66 202.252C1187.25 202.384 1184.43 199.661 1184.43 196.256H1180.43ZM1184.43 144.811C1184.43 141.746 1186.73 139.174 1189.78 138.846L1189.35 134.869C1184.27 135.416 1180.43 139.703 1180.43 144.811H1184.43ZM1248.52 362.972C1248.56 366.543 1245.49 369.357 1241.94 369.01L1241.55 372.991C1247.47 373.57 1252.59 368.879 1252.52 362.928L1248.52 362.972ZM1242.17 300.728C1245.35 300.868 1247.87 303.471 1247.9 306.656L1251.9 306.612C1251.84 301.304 1247.65 296.966 1242.34 296.732L1242.17 300.728ZM1180.43 357.942C1180.43 363.087 1184.33 367.393 1189.45 367.894L1189.84 363.913C1186.77 363.613 1184.43 361.029 1184.43 357.942H1180.43ZM1184.43 304.447C1184.43 301.029 1187.28 298.302 1190.69 298.453L1190.87 294.456C1185.18 294.205 1180.43 298.751 1180.43 304.447H1184.43ZM1161.65 365.174C1167.53 365.749 1172.62 361.129 1172.62 355.222H1168.62C1168.62 358.766 1165.57 361.538 1162.04 361.193L1161.65 365.174ZM1105.67 350.629C1105.67 355.775 1109.58 360.08 1114.7 360.581L1115.09 356.6C1112.01 356.3 1109.67 353.716 1109.67 350.629H1105.67ZM1116.11 291.152C1110.42 290.901 1105.67 295.446 1105.67 301.143H1109.67C1109.67 297.725 1112.52 294.998 1115.94 295.148L1116.11 291.152ZM1162.89 297.224C1166.09 297.365 1168.62 300.007 1168.62 303.218H1172.62C1172.62 297.867 1168.41 293.464 1163.06 293.228L1162.89 297.224ZM1247.57 276.855C1247.61 280.233 1244.85 282.976 1241.48 282.92L1241.41 286.919C1247.04 287.013 1251.64 282.441 1251.57 276.811L1247.57 276.855ZM1240.85 217.027C1244.19 216.953 1246.94 219.619 1246.98 222.959L1250.98 222.915C1250.92 217.349 1246.33 212.905 1240.76 213.027L1240.85 217.027ZM1180.43 276.073C1180.43 281.531 1184.8 285.981 1190.26 286.072L1190.33 282.072C1187.05 282.018 1184.43 279.348 1184.43 276.073H1180.43ZM1184.43 224.142C1184.43 220.88 1187.03 218.216 1190.29 218.144L1190.2 214.145C1184.77 214.265 1180.43 218.706 1180.43 224.142H1184.43ZM1162.46 285.611C1168.04 285.703 1172.62 281.2 1172.62 275.612H1168.62C1168.62 278.965 1165.87 281.667 1162.52 281.611L1162.46 285.611ZM1105.67 274.834C1105.67 280.292 1110.05 284.742 1115.51 284.833L1115.57 280.833C1112.3 280.779 1109.67 278.109 1109.67 274.834H1105.67ZM1115.45 215.797C1110.01 215.917 1105.67 220.358 1105.67 225.794H1109.67C1109.67 222.532 1112.28 219.868 1115.54 219.796L1115.45 215.797ZM1162.49 218.758C1165.85 218.684 1168.62 221.391 1168.62 224.757H1172.62C1172.62 219.147 1168.01 214.635 1162.4 214.759L1162.49 218.758ZM1163.01 207.324C1168.38 207.117 1172.62 202.704 1172.62 197.332H1168.62C1168.62 200.555 1166.07 203.203 1162.85 203.327L1163.01 207.324ZM1105.67 199.148C1105.67 204.822 1110.39 209.359 1116.06 209.14L1115.9 205.143C1112.5 205.275 1109.67 202.552 1109.67 199.148H1105.67ZM1161.98 141.845C1165.53 141.462 1168.62 144.242 1168.62 147.811H1172.62C1172.62 141.863 1167.46 137.23 1161.55 137.868L1161.98 141.845ZM1114.6 142.934C1109.52 143.481 1105.67 147.768 1105.67 152.876H1109.67C1109.67 149.811 1111.98 147.239 1115.03 146.911L1114.6 142.934Z" fill="#EAEAEA"/>
		</g>
		<path d="M1200.13 124.312C1210.08 124.312 1218.15 116.246 1218.15 106.296C1218.15 96.3455 1210.08 88.2793 1200.13 88.2793C1190.18 88.2793 1182.12 96.3455 1182.12 106.296C1182.12 116.246 1190.18 124.312 1200.13 124.312Z" stroke="#EAEAEA" stroke-width="2"/>
		<path d="M1071.61 134.803C1081.56 134.803 1089.62 126.737 1089.62 116.787C1089.62 106.837 1081.56 98.7705 1071.61 98.7705C1061.66 98.7705 1053.59 106.837 1053.59 116.787C1053.59 126.737 1061.66 134.803 1071.61 134.803Z" stroke="#EAEAEA" stroke-width="2"/>
		<path d="M1237.91 58.1561C1238.88 58.8679 1239.68 59.4889 1240.32 59.9946L1215.4 62.9618C1214.71 62.6297 1213.73 62.1939 1212.71 61.8217C1211.6 61.412 1210.3 61.0226 1209.32 61.0226C1208.72 61.0226 1207.97 61.1244 1207.35 61.7771C1206.81 62.356 1206.5 63.2362 1206.29 64.3814C1205.86 66.7028 1205.7 70.9001 1205.7 78.416C1205.7 86.0679 1206.86 91.7291 1208.02 96.2856C1208.27 97.2533 1208.51 98.1606 1208.74 99.019C1209.61 102.262 1210.29 104.807 1210.29 107.269C1210.29 113.092 1205.04 116.76 1199.48 116.76C1194.15 116.76 1190.15 113.078 1187.44 107.256C1184.73 101.445 1183.44 93.7318 1183.44 86.2849C1183.44 85.391 1183.43 84.5016 1183.43 83.6174C1183.41 76.9972 1183.4 70.6762 1184.32 65.0538C1185.37 58.7087 1187.59 53.4094 1192.24 49.6887C1201.59 42.2062 1215.51 44.6046 1225.88 50.4351C1231.09 53.3634 1235.15 56.1275 1237.91 58.1561Z" stroke="#EAEAEA" stroke-width="2"/>
		<path d="M1113.59 76.1977C1113.69 76.3475 1113.78 76.4893 1113.87 76.6225L1086.72 79.6392C1086.71 79.6209 1086.71 79.6023 1086.7 79.5834C1086.5 79.0776 1086.19 78.3951 1085.74 77.705C1084.86 76.3498 1083.33 74.7757 1080.93 74.7757C1079.29 74.7757 1078.05 76.209 1077.24 78.6587C1076.4 81.1871 1075.85 85.2475 1075.85 91.5134C1075.85 97.883 1077.05 102.416 1078.22 106.359C1078.34 106.756 1078.46 107.146 1078.57 107.53C1079.61 110.971 1080.5 113.938 1080.5 117.506C1080.5 121.487 1079.47 123.66 1077.99 124.881C1076.48 126.134 1074.28 126.579 1071.53 126.579C1066.42 126.579 1062.28 123.041 1059.37 117.464C1056.46 111.905 1054.9 104.529 1054.9 97.415C1054.9 82.8964 1056.25 72.5781 1064.36 66.0635C1068.91 62.4085 1073.64 60.5951 1078.82 60.1993C1084.02 59.8016 1089.72 60.831 1096.21 62.9554C1102.57 65.0345 1107.19 68.7785 1110.22 72.017C1111.74 73.6349 1112.85 75.1207 1113.59 76.1977Z" stroke="#EAEAEA" stroke-width="2"/>
	</g>
	<defs>
		<clipPath id="clip0_1_7">
			<rect width="320" height="318" fill="white" transform="translate(1008 44)"/>
		</clipPath>
	</defs>
</svg>