<svg width="87" height="16" viewBox="0 0 87 16" fill="none" xmlns="http://www.w3.org/2000/svg">
	<path fill-rule="evenodd" clip-rule="evenodd" d="M79.3232 4.23448C79.3232 5.84872 80.6321 7.15738 82.2468 7.15738C83.8614 7.15738 85.1703 5.84872 85.1703 4.23448C85.1703 2.62025 83.8614 1.31169 82.2468 1.31169C80.6321 1.31169 79.3232 2.62025 79.3232 4.23448ZM78.488 4.23448C78.488 2.15901 80.1709 0.476562 82.2468 0.476562C84.3227 0.476562 86.0056 2.15901 86.0056 4.23448C86.0056 6.30996 84.3227 7.99251 82.2468 7.99251C80.1709 7.99251 78.488 6.30996 78.488 4.23448ZM66.0995 3.80153C66.0995 2.83458 65.2996 2.49533 64.4484 2.49533C63.3079 2.49533 62.3716 2.86847 61.5036 3.25872L60.9076 1.47759C61.878 1.03645 63.2228 0.544521 64.8229 0.544521C67.3251 0.544521 68.5337 1.79983 68.5337 3.56397C68.5337 5.31153 67.1703 6.34709 65.8573 7.34439C64.8506 8.10903 63.8734 8.85119 63.5631 9.87453H68.6869V11.8422H60.5332C60.8114 8.50601 62.7913 7.07064 64.3114 5.96857C65.3033 5.24948 66.0995 4.67229 66.0995 3.80153ZM72.2778 7.31299H73.2992V6.10857C73.2992 5.2435 73.3672 4.24255 73.4014 4.02208L70.865 7.36388C71.0692 7.34688 71.8864 7.31299 72.2778 7.31299ZM68.2776 7.70313L73.8949 0.5785H75.5633V7.31299H77.2314V9.17891H75.5633V11.8422H73.2992V9.17891H68.2776V7.70313ZM82.6631 4.65205H81.8279V3.81692V2.56428H82.6631V3.81692H83.916V4.65205H82.6631ZM5.63695 8.3388C5.63695 9.4079 4.9727 9.91708 3.37177 9.91708H2.50314V6.74332H3.26958C3.96785 6.74332 4.581 6.81125 5.00684 7.06578C5.39854 7.30348 5.63695 7.72778 5.63695 8.3388ZM7.54445 0.63351H0.169922V11.8179H3.32068C6.76106 11.8179 7.97029 10.3074 7.97029 8.30477C7.97029 6.87918 7.37421 5.96266 6.38631 5.4536C5.55183 5.01223 4.47881 4.85953 3.26958 4.85953H2.50314V2.51742H6.96532L7.54445 0.63351ZM11.4613 3.79031H9.23019V11.8179H11.4783L13.7776 8.50844C14.2204 7.84657 14.6292 7.16774 14.8165 6.84528H14.8676C14.8165 7.30348 14.7825 7.94841 14.7825 8.61028V11.8179H17.0306V3.79031H14.7825L12.4831 7.09981C12.0384 7.7401 11.6572 8.39636 11.4632 8.73031L11.4632 8.73032L11.4443 8.76298H11.3932C11.4443 8.30477 11.4613 7.65985 11.4613 6.99797V3.79031ZM20.3528 5.69114H17.9515V3.79027H25.5474L24.9514 5.69114H22.652V11.8179H20.3528V5.69114ZM31.5937 7.7957C31.5937 9.20434 30.9125 10.1038 29.5329 10.1038C29.1412 10.1038 28.8516 10.0359 28.545 9.93403V5.57238C28.8005 5.4875 29.0389 5.47054 29.3285 5.47054C30.7421 5.47054 31.5937 6.23426 31.5937 7.7957ZM29.4307 3.58664C28.2215 3.58664 27.1315 3.80726 26.2458 4.11277V15.8402H28.545V11.8349C28.9198 11.9367 29.3114 11.9877 29.7033 11.9877C32.309 11.9877 33.944 10.2056 33.944 7.7957C33.944 5.26687 32.4282 3.58664 29.4307 3.58664ZM35.0324 3.79031H37.2635V6.99797C37.2635 7.65985 37.2464 8.30477 37.1953 8.76298H37.2464L37.2654 8.73026C37.4594 8.39629 37.8406 7.74006 38.2853 7.09981L40.5846 3.79031H42.8327V11.8179H40.5846V8.61028C40.5846 7.94841 40.6187 7.30348 40.6698 6.84528H40.6187C40.4313 7.16774 40.0226 7.84657 39.5798 8.50844L37.2805 11.8179H35.0324V3.79031ZM46.6154 3.79031H44.3161V11.8179H46.6154V8.59332H47.7394C47.9609 8.59332 48.1653 8.81395 48.3695 9.30606L49.3233 11.8179H51.8099L50.3623 8.72906C50.1238 8.21988 49.8344 7.93145 49.4426 7.77863V7.74473C49.7948 7.52418 49.9627 7.07258 50.1254 6.63491C50.2381 6.33175 50.3483 6.03528 50.5156 5.82691C50.6518 5.65726 50.8221 5.57238 51.0776 5.57238C51.248 5.57238 51.4182 5.60629 51.5546 5.65726V3.70542C51.299 3.62054 50.8732 3.58664 50.6348 3.58664C49.9024 3.58664 49.4256 3.85824 49.119 4.28254C48.8436 4.64845 48.6793 5.11505 48.5259 5.55055C48.281 6.24606 48.064 6.86223 47.4669 6.86223H46.6154V3.79031ZM52.1836 7.84656C52.1836 5.30078 54.1591 3.58664 56.5266 3.58664C57.6166 3.58664 58.3318 3.89214 58.7577 4.16375V6.08156C58.1785 5.64031 57.5654 5.40261 56.782 5.40261C55.3684 5.40261 54.5339 6.47183 54.5339 7.82961C54.5339 9.34008 55.3854 10.1548 56.6799 10.1548C57.3951 10.1548 57.9402 9.95098 58.5363 9.61168L59.1835 11.173C58.5191 11.6482 57.4804 11.9877 56.3563 11.9877C53.6823 11.9877 52.1836 10.2056 52.1836 7.84656Z" fill="#A8ADB4"/>
</svg>