<svg width="1366" height="238" viewBox="0 0 1366 238" fill="none" xmlns="http://www.w3.org/2000/svg">
	<rect width="1366" height="238"/>
	<path fill-rule="evenodd" clip-rule="evenodd" d="M6 125C6 155.928 31.0721 181 62 181H207C237.928 181 263 155.928 263 125C263 98.7439 244.93 76.7082 220.548 70.65C217.199 45.4457 195.62 26 169.5 26C164.255 26 159.193 26.7841 154.425 28.2414C143.341 12.9476 125.332 3 105 3C71.3106 3 44 30.3106 44 64C44 66.6395 44.1676 69.2399 44.4929 71.791C22.139 79.1417 6 100.186 6 125Z" fill="#F2F6F7"/>
	<path fill-rule="evenodd" clip-rule="evenodd" d="M218.745 72.2628L218.566 70.9135C215.346 46.6899 194.604 28 169.5 28C164.455 28 159.59 28.754 155.01 30.154L153.644 30.5715L152.806 29.4151C142.082 14.618 124.664 5 105 5C72.4152 5 46 31.4152 46 64C46 66.5547 46.1623 69.0706 46.4768 71.5381L46.6855 73.1753L45.1176 73.6909C23.56 80.7798 8 101.075 8 125C8 154.823 32.1766 179 62 179H207C236.823 179 261 154.823 261 125C261 99.6843 243.578 78.4328 220.066 72.591L218.745 72.2628ZM62 181C31.0721 181 6 155.928 6 125C6 100.186 22.139 79.1417 44.4929 71.791C44.1676 69.2399 44 66.6395 44 64C44 30.3106 71.3106 3 105 3C125.332 3 143.341 12.9476 154.425 28.2414C159.193 26.7841 164.255 26 169.5 26C195.62 26 217.199 45.4457 220.548 70.65C244.93 76.7082 263 98.7439 263 125C263 155.928 237.928 181 207 181H62Z" fill="#EAEAEA"/>
	<path fill-rule="evenodd" clip-rule="evenodd" d="M363.691 191.27C363.691 215.421 344.113 235 319.961 235H206.731C182.579 235 163 215.421 163 191.27C163 170.766 177.111 153.559 196.151 148.828C198.767 129.146 215.617 113.961 236.014 113.961C240.11 113.961 244.063 114.573 247.786 115.711C256.442 103.768 270.505 96 286.382 96C312.69 96 334.017 117.327 334.017 143.635C334.017 145.696 333.886 147.727 333.632 149.719C351.088 155.459 363.691 171.893 363.691 191.27Z" fill="#F2F6F7"/>
	<path fill-rule="evenodd" clip-rule="evenodd" d="M197.954 150.441L198.133 149.091C200.619 130.39 216.633 115.961 236.014 115.961C239.91 115.961 243.666 116.543 247.202 117.624L248.568 118.041L249.406 116.885C257.701 105.438 271.173 98 286.382 98C311.586 98 332.017 118.431 332.017 143.635C332.017 145.611 331.892 147.557 331.648 149.466L331.44 151.103L333.008 151.619C349.667 157.097 361.691 172.782 361.691 191.27C361.691 214.317 343.008 233 319.961 233H206.731C183.684 233 165 214.317 165 191.27C165 171.707 178.464 155.283 196.633 150.769L197.954 150.441ZM333.632 149.719C351.088 155.459 363.691 171.893 363.691 191.27C363.691 215.421 344.113 235 319.961 235H206.731C182.579 235 163 215.421 163 191.27C163 170.766 177.111 153.559 196.151 148.828C198.767 129.146 215.617 113.961 236.014 113.961C240.11 113.961 244.063 114.573 247.786 115.711C256.442 103.768 270.505 96 286.382 96C312.69 96 334.017 117.327 334.017 143.635C334.017 145.696 333.886 147.727 333.632 149.719Z" fill="#EAEAEA"/>
</svg>