<svg xmlns="http://www.w3.org/2000/svg" width="254" height="207" fill="none"><path fill="#ECFAFE" fill-rule="evenodd" d="M182.546 5.932a2.797 2.797 0 1 0 0-5.594 2.797 2.797 0 0 0 0 5.594ZM44.516 30.096a6.064 6.064 0 1 0 0-12.128 6.064 6.064 0 0 0 0 12.128Zm0-3.381a2.683 2.683 0 1 0 0-5.366 2.683 2.683 0 0 0 0 5.366ZM13.71 89.295a8.167 8.167 0 1 0 0-16.335 8.167 8.167 0 0 0 0 16.335Zm0-4.263a3.905 3.905 0 1 0 0-7.81 3.905 3.905 0 0 0 0 7.81Zm207.36 107.032a5.815 5.815 0 1 0 0-11.63 5.815 5.815 0 0 0 0 11.63Zm0-3.026a2.789 2.789 0 1 0 0-5.578 2.789 2.789 0 0 0 0 5.578ZM128.001 207c55.228 0 100-44.772 100-100 0-55.229-44.772-100-100-100-55.229 0-100 44.771-100 100 0 55.228 44.771 100 100 100Zm-100.048-6.99H8.513a6.23 6.23 0 0 1-.495-.019c-4.393-.103-7.924-3.795-7.924-8.334a8.462 8.462 0 0 1 2.38-5.898 8.094 8.094 0 0 1 2.71-1.838 8.928 8.928 0 0 1 2.487-6.905 8.446 8.446 0 0 1 6.058-2.574c2.91.003 5.479 1.499 7.023 3.781a6.813 6.813 0 0 1 2.345-.411c3.632.004 6.615 2.85 6.961 6.489 3.48.78 6.085 3.966 6.082 7.776-.003 4.391-3.469 7.948-7.74 7.946-.15 0-.3-.004-.447-.013ZM233.975 45.363h13.797c.104.006.21.009.316.009 3.032.001 5.492-2.424 5.494-5.418.002-2.597-1.846-4.77-4.316-5.302-.246-2.48-2.363-4.421-4.941-4.424-.583 0-1.143.098-1.664.28a6.09 6.09 0 0 0-4.984-2.578c-1.612 0-3.159.63-4.299 1.755a5.962 5.962 0 0 0-1.765 4.708 5.763 5.763 0 0 0-1.922 1.253 5.649 5.649 0 0 0-1.69 4.021c0 3.096 2.505 5.613 5.623 5.683.116.009.233.013.351.013Z" clip-rule="evenodd"/><path fill="#7FDEFC" d="M127.999 34.7c0-1.97-1.598-3.575-3.565-3.481a74.934 74.934 0 0 0-40.693 14.404C70.877 55.04 61.302 68.319 56.388 83.556a76.413 76.413 0 0 0 0 46.888c4.914 15.237 14.49 28.516 27.353 37.933A74.916 74.916 0 0 0 128 182.866a74.916 74.916 0 0 0 44.258-14.489c12.864-9.417 22.439-22.696 27.352-37.933a76.41 76.41 0 0 0 1.013-43.478c-.514-1.893-2.528-2.914-4.393-2.303-1.853.606-2.858 2.595-2.355 4.479a69.23 69.23 0 0 1-.996 39.098c-4.452 13.805-13.127 25.836-24.782 34.368a67.87 67.87 0 0 1-40.097 13.127 67.873 67.873 0 0 1-40.098-13.127c-11.654-8.532-20.33-20.563-24.781-34.368a69.229 69.229 0 0 1 0-42.48C67.572 71.955 76.247 59.924 87.9 51.392a67.894 67.894 0 0 1 36.534-13.033c1.966-.104 3.564-1.69 3.564-3.66Z"/><g filter="url(#a)"><circle cx="127.998" cy="107" r="56.813" fill="#fff"/></g><path fill="#E6E7E9" d="M103.359 127.008a2.54 2.54 0 0 1 2.547-2.534h44.187a2.54 2.54 0 0 1 2.546 2.534 2.54 2.54 0 0 1-2.546 2.535h-44.187a2.541 2.541 0 0 1-2.547-2.535ZM108.945 139.075a2.54 2.54 0 0 1 2.547-2.534h33.013a2.54 2.54 0 0 1 2.547 2.534 2.54 2.54 0 0 1-2.547 2.534h-33.013a2.54 2.54 0 0 1-2.547-2.534Z"/><path fill="#BBDE4D" d="M145.34 109.8c.851-.318 1.326-1.214 1.149-2.105l-.918-4.623c0-1.716-2.312-3.676-6.863-4.819a15.705 15.705 0 0 1-4.346-1.918c-.292-.162-.248-1.66-.248-1.66l-1.466-.217c0-.122-.125-1.919-.125-1.919 1.754-.572 1.573-3.946 1.573-3.946 1.114.6 1.84-2.07 1.84-2.07 1.317-3.71-.656-3.486-.656-3.486a22.671 22.671 0 0 0 0-6.83c-.878-7.513-14.088-5.474-12.522-3.02-3.861-.69-2.98 7.835-2.98 7.835l.837 2.208c-1.16.73-.932 1.569-.678 2.505.106.39.217.798.234 1.222.081 2.128 1.422 1.687 1.422 1.687.083 3.511 1.867 3.968 1.867 3.968.335 2.205.127 1.83.127 1.83l-1.588.187a5.96 5.96 0 0 1-.126 1.495c-.922.398-1.487.716-2.046 1.03-.573.322-1.139.64-2.078 1.04-3.584 1.524-6.905 3.421-7.597 6.09-.233.896-.46 2.146-.659 3.411a1.83 1.83 0 0 0 1.157 2.003c4.933 1.846 9.962 3.028 15.919 3.154h2.32c5.94-.126 11.529-1.216 16.451-3.052Z"/><defs><filter id="a" width="136.705" height="136.705" x="59.645" y="40.917" color-interpolation-filters="sRGB" filterUnits="userSpaceOnUse"><feFlood flood-opacity="0" result="BackgroundImageFix"/><feColorMatrix in="SourceAlpha" result="hardAlpha" values="0 0 0 0 0 0 0 0 0 0 0 0 0 0 0 0 0 0 127 0"/><feOffset dy="2.27"/><feGaussianBlur stdDeviation="5.77"/><feComposite in2="hardAlpha" operator="out"/><feColorMatrix values="0 0 0 0 0.392157 0 0 0 0 0.427451 0 0 0 0 0.482353 0 0 0 0.16 0"/><feBlend in2="BackgroundImageFix" result="effect1_dropShadow_3065_88923"/><feBlend in="SourceGraphic" in2="effect1_dropShadow_3065_88923" result="shape"/></filter></defs></svg>