<svg width="24" height="23" viewBox="0 0 24 23" fill="none" xmlns="http://www.w3.org/2000/svg">
	<path fill-rule="evenodd" clip-rule="evenodd" d="M11.9376 19.1667C16.1375 19.1667 19.5421 15.762 19.5421 11.5621C19.5421 7.3622 16.1375 3.95752 11.9376 3.95752C7.73769 3.95752 4.33301 7.3622 4.33301 11.5621C4.33301 15.762 7.73769 19.1667 11.9376 19.1667ZM13.0622 10.7195H11.0926V10.72H10.2477V11.5251H11.0926V14.9419H10.2477V15.7868H11.0926H12.7825H13.0622H13.6275V14.9419H13.0622V10.7195ZM13.1261 8.19339C13.1261 8.84979 12.594 9.38192 11.9376 9.38192C11.2812 9.38192 10.7491 8.84979 10.7491 8.19339C10.7491 7.53698 11.2812 7.00486 11.9376 7.00486C12.594 7.00486 13.1261 7.53698 13.1261 8.19339Z" fill="#11A9D9"/>
</svg>