<svg width="24" height="54" viewBox="0 0 24 54" xmlns="http://www.w3.org/2000/svg"><title>Group</title><g fill="none" fill-rule="evenodd"><path d="M12 54c6.627 0 12-5.373 12-12s-5.373-12-12-12S0 35.373 0 42s5.373 12 12 12z" fill="#535C6B"/><path d="M13.754 40.682s-.14.412-.14.467a.817.817 0 0 0-.11.22c.027 0 .306.136.306.136l1.087.33-.028.52c-.196.083-.39.22-.53.385-.056.11-.112.22-.196.33 1.004.412 1.59.99 1.59 1.62.027.11.612 2.25.64 2.745H21c0-.027-.14-2.772-.14-2.8 0 0-.25-.66-.668-.74a3.45 3.45 0 0 1-1.17-.385c-.252-.137-.502-.247-.753-.357a.975.975 0 0 1-.308-.44 1.454 1.454 0 0 0-.53-.384l-.027-.522 1.087-.33s.278-.137.306-.137c-.055-.08-.083-.164-.14-.246-.027-.055-.11-.44-.11-.44.167.193.334.385.557.522-.195-.33-.335-.686-.474-1.07-.082-.33-.138-.686-.194-1.043-.084-.66-.195-1.29-.362-1.922-.112-.3-.307-.603-.585-.795a2.52 2.52 0 0 0-1.31-.467H16.122a2.52 2.52 0 0 0-1.31.467c-.25.22-.474.494-.585.796-.167.633-.28 1.264-.362 1.923a6.275 6.275 0 0 1-.168 1.043c-.14.357-.306.714-.473 1.043.195-.083.39-.275.53-.468zM16.15 49c0-.824-.92-4.282-.92-4.282 0-.494-.668-1.07-1.978-1.428a3.704 3.704 0 0 1-1.254-.576c-.083-.055-.083-.494-.083-.494l-.418-.055c0-.028-.028-.577-.028-.577.5-.164.445-1.153.445-1.153.334.165.53-.604.53-.604.39-1.097-.196-1.014-.196-1.014.11-.66.11-1.345 0-2.004-.252-2.224-4.07-1.62-3.624-.88-1.115-.19-.864 2.307-.864 2.307l.25.658c-.473.302-.138.686-.138 1.098.028.63.418.494.418.494.028 1.043.53 1.18.53 1.18.083.66.027.55.027.55l-.475.055c0 .137 0 .3-.027.44-.53.246-.67.383-1.2.603-1.03.44-2.173 1.043-2.368 1.81C4.585 45.9 4 49 4 49h12.15z" fill="#FFF"/><g><path d="M12 24c6.627 0 12-5.373 12-12S18.627 0 12 0 0 5.373 0 12s5.373 12 12 12z" fill="#535C6B"/><path d="M17.8 18.76c0-.818-.885-4.282-.885-4.282 0-.506-.636-1.084-1.89-1.42a4.185 4.185 0 0 1-1.197-.567c-.08-.047-.07-.49-.07-.49l-.402-.063c0-.036-.035-.566-.035-.566.484-.168.434-1.164.434-1.164.307.177.507-.61.507-.61.364-1.095-.18-1.03-.18-1.03a7.154 7.154 0 0 0 0-2.015c-.24-2.215-3.88-1.613-3.45-.89-1.063-.203-.82 2.312-.82 2.312l.23.652c-.452.305-.137.675-.122 1.1.023.627.392.497.392.497.023 1.037.514 1.172.514 1.172.093.65.035.54.035.54l-.438.055c.006.148-.006.296-.035.44-.514.24-.625.38-1.136.612-.986.45-2.06 1.034-2.25 1.82-.19.79-.758 3.9-.758 3.9H17.8z" fill="#FFF"/></g></g></svg>