<?xml version="1.0" encoding="UTF-8" standalone="no"?>
<svg width="24px" height="54px" viewBox="0 0 24 54" version="1.1" xmlns="http://www.w3.org/2000/svg" xmlns:xlink="http://www.w3.org/1999/xlink">
    <!-- Generator: Sketch 3.6.1 (26313) - http://www.bohemiancoding.com/sketch -->
    <title>Group</title>
    <desc>Created with Sketch.</desc>
    <defs></defs>
    <g id="Page-1" stroke="none" stroke-width="1" fill="none" fill-rule="evenodd">
        <g id="Group">
            <g id="user-group" transform="translate(0.000000, 30.000000)">
                <path d="M12,24 C18.627417,24 24,18.627417 24,12 C24,5.372583 18.627417,0 12,0 C5.372583,0 0,5.372583 0,12 C0,18.627417 5.372583,24 12,24 Z" id="Oval-1-Copy-20" fill="#535C6B"></path>
                <path d="M13.7540984,10.6823529 C13.7540984,10.6823529 13.6147541,11.0941176 13.6147541,11.1490196 C13.5590164,11.2313725 13.5311475,11.2862745 13.5032787,11.3686275 C13.5311475,11.3686275 13.8098361,11.5058824 13.8098361,11.5058824 L14.8967213,11.8352941 L14.8688525,12.3568627 C14.6737705,12.4392157 14.4786885,12.5764706 14.3393443,12.7411765 C14.2836066,12.8509804 14.2278689,12.9607843 14.1442623,13.0705882 C15.147541,13.4823529 15.7327869,14.0588235 15.7327869,14.6901961 C15.7606557,14.8 16.3459016,16.9411765 16.3737705,17.4352941 L21,17.4352941 C21,17.4078431 20.8606557,14.6627451 20.8606557,14.6352941 C20.8606557,14.6352941 20.6098361,13.9764706 20.1918033,13.8941176 C19.7737705,13.8392157 19.3836066,13.7019608 19.0213115,13.5098039 C18.7704918,13.372549 18.5196721,13.2627451 18.2688525,13.1529412 C18.1295082,13.0431373 18.0180328,12.8784314 17.9622951,12.7137255 C17.8229508,12.5490196 17.6278689,12.4117647 17.4327869,12.3294118 L17.404918,11.8078431 L18.4918033,11.4784314 C18.4918033,11.4784314 18.7704918,11.3411765 18.7983607,11.3411765 C18.742623,11.2588235 18.7147541,11.1764706 18.6590164,11.0941176 C18.6311475,11.0392157 18.547541,10.654902 18.547541,10.654902 C18.7147541,10.8470588 18.8819672,11.0392157 19.104918,11.1764706 C18.9098361,10.8470588 18.7704918,10.4901961 18.6311475,10.1058824 C18.547541,9.77647059 18.4918033,9.41960784 18.4360656,9.0627451 C18.352459,8.40392157 18.2409836,7.77254902 18.0737705,7.14117647 C17.9622951,6.83921569 17.7672131,6.5372549 17.4885246,6.34509804 C17.0983607,6.07058824 16.652459,5.90588235 16.1786885,5.87843137 L16.1508197,5.87843137 L16.1229508,5.87843137 C15.6491803,5.90588235 15.2032787,6.07058824 14.8131148,6.34509804 C14.5622951,6.56470588 14.3393443,6.83921569 14.2278689,7.14117647 C14.0606557,7.77254902 13.9491803,8.40392157 13.8655738,9.0627451 C13.8377049,9.41960784 13.7819672,9.77647059 13.6983607,10.1058824 C13.5590164,10.4627451 13.3918033,10.8196078 13.2245902,11.1490196 C13.4196721,11.0666667 13.6147541,10.8745098 13.7540984,10.6823529 L13.7540984,10.6823529 Z M16.1508197,19 C16.1508197,18.1764706 15.2311475,14.7176471 15.2311475,14.7176471 C15.2311475,14.2235294 14.5622951,13.6470588 13.252459,13.2901961 C12.8065574,13.1803922 12.3885246,12.9882353 11.9983607,12.7137255 C11.9147541,12.6588235 11.9147541,12.2196078 11.9147541,12.2196078 L11.4967213,12.1647059 C11.4967213,12.1372549 11.4688525,11.5882353 11.4688525,11.5882353 C11.9704918,11.4235294 11.9147541,10.4352941 11.9147541,10.4352941 C12.2491803,10.6 12.4442623,9.83137255 12.4442623,9.83137255 C12.8344262,8.73333333 12.2491803,8.81568627 12.2491803,8.81568627 C12.3606557,8.15686275 12.3606557,7.47058824 12.2491803,6.81176471 C11.9983607,4.58823529 8.18032787,5.19215686 8.62622951,5.93333333 C7.51147541,5.74117647 7.76229508,8.23921569 7.76229508,8.23921569 L8.01311475,8.89803922 C7.53934426,9.2 7.87377049,9.58431373 7.87377049,9.99607843 C7.90163934,10.627451 8.29180328,10.4901961 8.29180328,10.4901961 C8.31967213,11.5333333 8.82131148,11.6705882 8.82131148,11.6705882 C8.90491803,12.3294118 8.84918033,12.2196078 8.84918033,12.2196078 L8.37540984,12.2745098 C8.37540984,12.4117647 8.37540984,12.5764706 8.34754098,12.7137255 C7.81803279,12.9607843 7.67868852,13.0980392 7.14918033,13.3176471 C6.11803279,13.7568627 4.97540984,14.3607843 4.78032787,15.1294118 C4.5852459,15.8980392 4,19 4,19 L16.1508197,19 L16.1508197,19 L16.1508197,19 L16.1508197,19 L16.1508197,19 Z" id="Shape" fill="#FFFFFF"></path>
            </g>
            <g id="user">
                <path d="M12,24 C18.627417,24 24,18.627417 24,12 C24,5.372583 18.627417,0 12,0 C5.372583,0 0,5.372583 0,12 C0,18.627417 5.372583,24 12,24 Z" id="Oval-1-Copy-19" fill="#535C6B"></path>
                <path d="M17.7994286,18.7612364 C17.7994286,17.9423636 16.9153469,14.4782545 16.9153469,14.4782545 C16.9153469,13.9719636 16.2786122,13.3936364 15.0247347,13.0566182 C14.5999254,12.9334616 14.1960933,12.742483 13.8276735,12.4905091 C13.747102,12.4426545 13.7593469,12.0005091 13.7593469,12.0005091 L13.3555102,11.9366182 C13.3555102,11.9007273 13.3209796,11.3705091 13.3209796,11.3705091 C13.8041633,11.2017455 13.754449,10.2062182 13.754449,10.2062182 C14.0613061,10.3831273 14.2611429,9.59530909 14.2611429,9.59530909 C14.6240816,8.50076364 14.0804082,8.56694545 14.0804082,8.56694545 C14.1755217,7.898752 14.1755217,7.219648 14.0804082,6.55145455 C13.8386939,4.33487273 10.1995102,4.93661818 10.6310204,5.66054545 C9.56742857,5.45690909 9.81012245,7.97232727 9.81012245,7.97232727 L10.0408163,8.62370909 C9.5877551,8.92916364 9.90269388,9.29850909 9.91836735,9.7236 C9.94065306,10.3513091 10.3102041,10.2212364 10.3102041,10.2212364 C10.3329796,11.2572364 10.8244898,11.3921455 10.8244898,11.3921455 C10.9168163,12.0427636 10.8592653,11.9320364 10.8592653,11.9320364 L10.4218776,11.9870182 C10.4277985,12.1349757 10.4162014,12.2831288 10.3873469,12.4281455 C9.87306122,12.6664 9.76236735,12.8061455 9.25126531,13.0390545 C8.26383673,13.4888364 7.19069388,14.0737818 6.99991837,14.8613455 C6.80914286,15.6489091 6.24195918,18.7612364 6.24195918,18.7612364 L17.7989388,18.7612364 L17.7989388,18.7612364 L17.7989388,18.7612364 L17.7994286,18.7612364 Z" id="Shape_2_copy_4" fill="#FFFFFF"></path>
            </g>
        </g>
    </g>
</svg>