<svg viewBox="0 0 24 24" fill="none" xmlns="http://www.w3.org/2000/svg">
<path fill-rule="evenodd" clip-rule="evenodd" d="M18.6154 10.8338C18.6154 10.8024 18.6176 10.771 18.6176 10.7396C18.6176 8.62563 16.9735 6.91002 14.946 6.91002C14.5302 6.90996 14.1175 6.98341 13.7272 7.12698C13.1784 5.67064 11.7924 4.70015 10.2362 4.68262C8.15285 4.68262 6.46561 6.44496 6.46561 8.61757C6.46561 8.64121 6.46561 8.66457 6.46728 8.68822C4.60236 9.41377 3.38229 11.2191 3.4046 13.2201C3.4046 15.8775 5.47012 18.032 8.0185 18.032C8.06996 18.032 8.12086 18.0295 8.17204 18.0278V18.032H17.7167V18.032C19.689 17.9776 21.2479 16.3418 21.2074 14.3691C21.2288 12.7444 20.1713 11.3021 18.6154 10.8338ZM12.2115 15.6956C10.8222 15.751 9.53851 14.9566 8.96823 13.6885C8.39796 12.4203 8.65547 10.9329 9.61887 9.93024C10.5823 8.92761 12.0583 8.61096 13.3481 9.13019C14.638 9.64942 15.483 10.9003 15.4831 12.2908C15.5189 14.1341 14.0547 15.6579 12.2115 15.6956V15.6956ZM13.5761 12.2939H12.2437V10.6528C12.2534 10.5025 12.1787 10.3593 12.0499 10.2813C11.9212 10.2032 11.7597 10.2032 11.6309 10.2813C11.5021 10.3593 11.4274 10.5025 11.4371 10.6528V12.713C11.4326 12.9406 11.6134 13.1288 11.841 13.1333H13.5761C13.7976 13.1191 13.9699 12.9351 13.9696 12.7131C13.9693 12.4911 13.7965 12.3076 13.5749 12.2939H13.5761Z" fill="#828B95"/>
</svg>
