<svg viewBox="0 0 24 24" fill="none" xmlns="http://www.w3.org/2000/svg">
<path d="M9.94499 5.50195C9.94499 5.22581 10.1688 5.00195 10.445 5.00195H12.5891C12.8653 5.00195 13.0891 5.22581 13.0891 5.50195V10.2422H16.5054C16.7796 10.2422 16.9101 10.5797 16.7072 10.7642L12.1897 14.871C11.8083 15.2177 11.2258 15.2177 10.8444 14.871L6.32696 10.7642C6.12406 10.5797 6.25455 10.2422 6.52876 10.2422H9.94499V5.50195Z" fill="#828B95"/>
<path d="M6 16.5134C6 16.2373 6.22386 16.0134 6.5 16.0134H16.5052C16.7814 16.0134 17.0052 16.2373 17.0052 16.5134V17.5134C17.0052 17.7896 16.7814 18.0134 16.5052 18.0134H6.5C6.22386 18.0134 6 17.7896 6 17.5134V16.5134Z" fill="#828B95"/>
</svg>
