<svg viewBox="0 0 24 24" fill="none" xmlns="http://www.w3.org/2000/svg">
<path fill-rule="evenodd" clip-rule="evenodd" d="M6.95801 4.30359C6.40572 4.30359 5.95801 4.7513 5.95801 5.30359L5.95805 18.7751C5.95805 19.3274 6.40576 19.7751 6.95805 19.7751H17.0418C17.5941 19.7751 18.0418 19.3274 18.0418 18.7751V9.48364C18.0418 8.98145 17.8529 8.49764 17.5126 8.12834L14.728 4.94828C14.3494 4.53736 13.8161 4.30359 13.2573 4.30359H6.95801ZM8.77992 8.4643C8.34375 8.4643 7.99016 8.8219 7.99016 9.25807C7.99016 9.69424 8.34375 10.0518 8.77992 10.0518H14.6352C15.0714 10.0518 15.425 9.69424 15.425 9.25807C15.425 8.8219 15.0714 8.4643 14.6352 8.4643H8.77992ZM8.77992 11.4795C8.34375 11.4795 7.99016 11.8371 7.99016 12.2733C7.99016 12.7095 8.34375 13.0671 8.77992 13.0671H14.6352C15.0714 13.0671 15.425 12.7095 15.425 12.2733C15.425 11.8371 15.0714 11.4795 14.6352 11.4795H8.77992ZM7.99016 15.2483C7.99016 14.8121 8.34375 14.4545 8.77992 14.4545H12.9225C13.3586 14.4545 13.7122 14.8121 13.7122 15.2483C13.7122 15.6845 13.3586 16.0421 12.9225 16.0421H8.77992C8.34375 16.0421 7.99016 15.6845 7.99016 15.2483Z" fill="#828B95"/>
</svg>
