<svg xmlns="http://www.w3.org/2000/svg" width="16" height="16" fill="none"><path fill="#BDC1C6" fill-rule="evenodd" d="M7.852 15.5a7.5 7.5 0 1 0 0-15 7.5 7.5 0 0 0 0 15Zm-.945-5.035v1.694h1.727v-1.694H6.907Zm-.154-3.63H5.136c.008-.396.076-.759.204-1.089.128-.33.308-.616.539-.858.23-.242.51-.43.836-.567a2.826 2.826 0 0 1 1.094-.203c.521 0 .956.071 1.304.214.348.143.629.321.841.534a1.974 1.974 0 0 1 .594 1.375c0 .352-.045.642-.137.869a2.143 2.143 0 0 1-.792.995c-.165.114-.32.228-.468.341a2.186 2.186 0 0 0-.39.391c-.114.147-.185.33-.215.55v.418H7.061V9.31c.022-.315.083-.58.182-.792.099-.213.214-.394.346-.545.132-.15.272-.28.418-.39.147-.11.283-.22.407-.33.125-.11.226-.231.303-.363a.901.901 0 0 0 .104-.495c0-.337-.082-.587-.247-.748-.165-.161-.394-.242-.688-.242-.198 0-.368.038-.511.115a1.02 1.02 0 0 0-.352.308c-.092.129-.16.28-.204.451a2.24 2.24 0 0 0-.066.556Z" clip-rule="evenodd"/></svg>