<svg xmlns="http://www.w3.org/2000/svg" fill="none" viewBox="0 0 762 769"><g clip-path="url(#a)"><circle cx="603.029" cy="188.217" r="362" stroke="url(#b)" stroke-width="2" opacity=".226"/><path fill="url(#c)" fill-rule="evenodd" d="M602.982 544.634c-131.03-131.03-343.422-131.081-474.389-.113-130.968 130.968-130.918 343.359.113 474.389 131.03 131.03 343.421 131.08 474.389.11 130.968-130.965 130.917-343.356-.113-474.386Zm-63.998 63.998c-95.623-95.622-250.657-95.623-346.279 0-95.623 95.622-95.623 250.656 0 346.279 95.622 95.619 250.656 95.619 346.279 0 95.622-95.623 95.622-250.657 0-346.279Z" clip-rule="evenodd" opacity=".383"/><path fill="#8E52EC" fill-rule="evenodd" d="M116.616 599.492c-90.646-24.289-183.81 29.47-208.088 120.074-24.277 90.603 29.526 183.742 120.173 208.03 90.647 24.289 183.811-29.47 208.088-120.073 24.277-90.604-29.526-183.742-120.173-208.031Zm-11.863 44.275C38.602 626.041-29.394 665.299-47.119 731.45c-17.725 66.151 21.532 134.147 87.683 151.872 66.152 17.725 134.147-21.532 151.873-87.683 17.725-66.152-21.532-134.147-87.684-151.872Z" clip-rule="evenodd" opacity=".723"/></g><defs><radialGradient id="b" cx="0" cy="0" r="1" gradientTransform="matrix(362 0 0 362 603.029 188.217)" gradientUnits="userSpaceOnUse"><stop stop-color="#D3F003"/><stop offset="1" stop-color="#9AB800"/></radialGradient><radialGradient id="c" cx="0" cy="0" r="1" gradientTransform="matrix(86.84414 324.10675 -324.02948 86.82344 365.844 781.772)" gradientUnits="userSpaceOnUse"><stop stop-color="#2FC6F6"/><stop offset="1" stop-color="#B7EB81"/></radialGradient><clipPath id="a"><path fill="#fff" d="M.852 0h761v769h-761z"/></clipPath></defs></svg>