<svg width="80" height="17" viewBox="0 0 80 17" fill="none" xmlns="http://www.w3.org/2000/svg">
<path d="M42.2544 16.9172L46.0021 11.1793L42.2227 5.34601H45.261L47.5689 9.35836H47.7489L50.0356 5.34601H52.9258L49.1781 11.0628L52.9681 16.9172H50.0039L47.6324 12.8943H47.4525L45.0811 16.9172H42.2544Z" fill="#2FC6F6"/>
<path d="M37.5666 16.9172V5.34602H40.1921V16.9172H37.5666ZM38.8899 3.40866C38.4594 3.40866 38.0889 3.25691 37.7783 2.95343C37.4678 2.64995 37.3125 2.28647 37.3125 1.863C37.3125 1.42542 37.4678 1.05842 37.7783 0.761989C38.0889 0.458505 38.4594 0.306763 38.8899 0.306763C39.3204 0.306763 39.6874 0.458505 39.9909 0.761989C40.3015 1.05842 40.4567 1.42542 40.4567 1.863C40.4567 2.28647 40.3015 2.64995 39.9909 2.95343C39.6874 3.25691 39.3204 3.40866 38.8899 3.40866Z" fill="#2FC6F6"/>
<path d="M28.8477 16.9172V5.34602H31.4837V7.12458H31.6637C31.8613 6.50349 32.2142 6.02003 32.7224 5.6742C33.2376 5.32837 33.8763 5.15546 34.6386 5.15546C34.8362 5.15546 35.0303 5.16957 35.2208 5.1978C35.4184 5.21898 35.5808 5.24721 35.7078 5.2825V7.64332C35.4961 7.59392 35.2808 7.55863 35.062 7.53746C34.8503 7.50923 34.628 7.49511 34.3951 7.49511C33.8093 7.49511 33.2976 7.60451 32.86 7.8233C32.4224 8.04209 32.0836 8.35616 31.8437 8.76551C31.6037 9.1678 31.4837 9.6442 31.4837 10.1947V16.9172H28.8477Z" fill="#2FC6F6"/>
<path d="M25.1529 16.9702C23.826 16.9702 22.8697 16.7267 22.2839 16.2397C21.6981 15.7527 21.4052 14.9552 21.4052 13.8471V7.38924H19.6055V5.34602H21.4052V2.50879H24.0836V5.34602H26.5186V7.38924H24.0836V13.2225C24.0836 13.7942 24.2036 14.2141 24.4436 14.4823C24.6906 14.7435 25.0858 14.874 25.6293 14.874C25.8198 14.874 25.9751 14.8705 26.0951 14.8634C26.2221 14.8493 26.3633 14.8352 26.5186 14.8211V16.8537C26.3351 16.889 26.1233 16.9172 25.8834 16.9384C25.6505 16.9596 25.407 16.9702 25.1529 16.9702Z" fill="#2FC6F6"/>
<path d="M15.0373 16.9172V5.34602H17.6628V16.9172H15.0373ZM16.3606 3.40866C15.9301 3.40866 15.5596 3.25691 15.249 2.95343C14.9385 2.64995 14.7832 2.28647 14.7832 1.863C14.7832 1.42542 14.9385 1.05842 15.249 0.761989C15.5596 0.458505 15.9301 0.306763 16.3606 0.306763C16.7911 0.306763 17.1581 0.458505 17.4616 0.761989C17.7722 1.05842 17.9274 1.42542 17.9274 1.863C17.9274 2.28647 17.7722 2.64995 17.4616 2.95343C17.1581 3.25691 16.7911 3.40866 16.3606 3.40866Z" fill="#2FC6F6"/>
<path d="M2.19771 16.9173V14.7999H6.73939C7.74866 14.7999 8.51443 14.5952 9.0367 14.1859C9.55898 13.7695 9.82011 13.1731 9.82011 12.3967V12.3756C9.82011 11.8604 9.70013 11.4263 9.46017 11.0734C9.2202 10.7205 8.86026 10.4559 8.38033 10.2794C7.90746 10.103 7.32166 10.0147 6.62294 10.0147H2.19771V8.07738H6.19947C7.16639 8.07738 7.9004 7.89388 8.4015 7.52687C8.90966 7.15987 9.16374 6.63054 9.16374 5.93887V5.9177C9.16374 5.24015 8.93436 4.71082 8.47561 4.3297C8.01685 3.94858 7.37459 3.75802 6.54883 3.75802H2.19771V1.64069H7.20521C8.17918 1.64069 9.012 1.79596 9.70366 2.1065C10.3953 2.40998 10.9282 2.84757 11.3022 3.41925C11.6763 3.98387 11.8633 4.65789 11.8633 5.4413V5.46247C11.8633 5.99886 11.7398 6.49997 11.4928 6.96578C11.2528 7.43159 10.9282 7.81977 10.5188 8.13031C10.1165 8.44086 9.65779 8.63847 9.14257 8.72317V8.91373C9.82717 8.97725 10.4271 9.17487 10.9423 9.50658C11.4646 9.83124 11.8704 10.2582 12.1598 10.7876C12.4562 11.3169 12.6044 11.9098 12.6044 12.5661V12.5873C12.6044 13.4766 12.3927 14.2459 11.9692 14.8952C11.5528 15.5445 10.9529 16.0456 10.1695 16.3985C9.38606 16.7443 8.45091 16.9173 7.36401 16.9173H2.19771ZM0.832031 16.9173V1.64069H3.56339V16.9173H0.832031Z" fill="#2FC6F6"/>
<path d="M75.1871 16.9173V13.9847H67.7129V11.751C68.1152 11.0664 68.5175 10.3782 68.9198 9.68655C69.3291 8.99489 69.742 8.30676 70.1584 7.62215C70.5819 6.93049 71.0018 6.24942 71.4182 5.57893C71.8417 4.90138 72.2616 4.23442 72.678 3.57805C73.1015 2.91462 73.525 2.26883 73.9484 1.64069H77.7914V11.7298H79.8558V13.9847H77.7914V16.9173H75.1871ZM70.2537 11.7933H75.2294V3.82154H75.0706C74.7601 4.30147 74.439 4.79551 74.1072 5.30367C73.7826 5.81183 73.4544 6.33058 73.1227 6.85991C72.791 7.38925 72.4628 7.92211 72.1381 8.4585C71.8135 8.98783 71.4923 9.5207 71.1747 10.0571C70.8571 10.5864 70.5501 11.1122 70.2537 11.6345V11.7933Z" fill="#0065A3"/>
<path d="M56.1529 16.9172V15.0752L61.1604 9.95121C61.8521 9.25249 62.3885 8.67728 62.7696 8.22558C63.1578 7.76682 63.4295 7.36453 63.5848 7.0187C63.7401 6.66581 63.8177 6.29528 63.8177 5.9071V5.87534C63.8177 5.40953 63.7154 4.99312 63.5107 4.62611C63.306 4.25911 63.0131 3.97327 62.632 3.76859C62.2509 3.55686 61.7956 3.45099 61.2663 3.45099C60.7299 3.45099 60.257 3.56392 59.8477 3.78977C59.4383 4.00856 59.1207 4.31557 58.8949 4.71081C58.669 5.10604 58.5561 5.56833 58.5561 6.09766L58.5455 6.14001L56.0047 6.12942L55.9941 6.09766C55.9941 5.14486 56.2235 4.30498 56.6823 3.57803C57.141 2.85108 57.7762 2.28293 58.5879 1.87358C59.3995 1.46423 60.3382 1.25955 61.4039 1.25955C62.392 1.25955 63.2707 1.44658 64.04 1.82065C64.8164 2.19471 65.4233 2.70993 65.8609 3.3663C66.2985 4.02267 66.5173 4.78138 66.5173 5.64243V5.67419C66.5173 6.24587 66.4079 6.80697 66.1891 7.35747C65.9703 7.90092 65.5963 8.49731 65.0669 9.14662C64.5446 9.79594 63.8212 10.5688 62.8966 11.4651L59.1172 15.1387L59.8371 13.9318V15.1387L59.1172 14.6623H66.7502V16.9172H56.1529Z" fill="#0065A3"/>
</svg>
