<svg xmlns="http://www.w3.org/2000/svg" width="108" height="20" fill="none"><path fill="#2FC6F6" d="M11.118 10.728c0 2.795-2.083 4.68-5.087 4.68H.086V.303h9.598v2.27H2.786v3.528h3.161c3.046 0 5.17 1.874 5.17 4.626Zm-8.332 2.46h2.565c1.905 0 3.004-.869 3.004-2.46 0-1.601-1.1-2.47-3.015-2.47H2.786v4.93ZM15.849 15.407h-2.554V4.312h2.575v7.4h.084l4.804-7.4h2.554v11.095h-2.565V7.955h-.083l-4.815 7.452ZM34.333 4.312v2.01h-3.401v9.085h-2.607V6.322h-3.401v-2.01h9.41ZM42.026 4.124c2.816 0 4.616 2.187 4.616 5.736 0 3.538-1.79 5.725-4.574 5.725-1.601 0-2.857-.775-3.475-2.02h-.052v5.495h-2.606V4.312h2.543v1.916h.052c.639-1.288 1.884-2.104 3.496-2.104Zm-.785 9.326c1.675 0 2.732-1.392 2.732-3.59 0-2.188-1.057-3.59-2.732-3.59-1.633 0-2.71 1.434-2.71 3.59 0 2.177 1.078 3.59 2.71 3.59ZM51.06 15.407h-2.555V4.312h2.575v7.4h.084l4.804-7.4h2.554v11.095h-2.564V7.955h-.084l-4.815 7.452ZM63.546 10.446h-.084v4.961h-2.606V4.312h2.606V8.94h.084l4.05-4.627h3.036l-4.69 5.181 4.91 5.914h-3.193l-4.113-4.961ZM81.633 8.269h-2.46c-.199-1.183-1.036-2.073-2.418-2.073-1.643 0-2.71 1.382-2.71 3.664 0 2.323 1.077 3.663 2.72 3.663 1.32 0 2.178-.753 2.418-2.01h2.46c-.199 2.481-2.125 4.114-4.898 4.114-3.245 0-5.349-2.167-5.349-5.767 0-3.549 2.093-5.778 5.328-5.778 2.92 0 4.73 1.853 4.909 4.187Z"/><path fill="#0065A3" d="M83.362 4.815C83.362 1.999 85.623 0 88.763 0c3.077 0 5.129 1.894 5.129 4.323 0 1.79-.848 2.962-3.486 5.558l-3.328 3.265v.053h7.044v2.208H83.51v-1.842l5.338-5.254c1.968-1.937 2.407-2.69 2.407-3.82 0-1.32-.994-2.324-2.49-2.324-1.634 0-2.869 1.11-2.869 2.648h-2.533ZM102.987 15.407v-2.9h-7.536v-2.302c1.309-2.46 2.994-5.14 6.27-9.901h3.841v9.985h2.052v2.219h-2.052v2.9h-2.575Zm-5.107-5.129v.074h5.149V2.313h-.042c-2.438 3.496-3.904 5.767-5.107 7.965Z"/></svg>