<svg xmlns="http://www.w3.org/2000/svg" width="41" height="20" fill="none"><path fill="#D91920" fill-opacity=".7" d="M20.857 17.34c-.773-.053-1.664-.192-2.367-.401-.132-.04-.677-.245-.816-.31-2.447-1.162-4.153-3.7-4.153-6.644 0-4.037 3.205-7.326 7.146-7.326 3.905 0 7.088 3.233 7.143 7.225h2.581C30.336 4.433 25.997.016 20.667.016c-5.362 0-9.726 4.471-9.726 9.97 0 3.79 2.08 7.087 5.123 8.77.55.299 1.34.606 1.607.69.868.265 1.933.441 2.881.515.322.025 1.446.038 1.774.039h17.776v-2.636H22.356c-.236 0-1.268-.01-1.499-.025Zm1.499-4.14c-.188 0-1.17-.006-1.351-.022a8.541 8.541 0 0 1-1.039-.14 4.005 4.005 0 0 1-.764-.284 3.158 3.158 0 0 1-1.612-2.769c0-1.742 1.377-3.155 3.077-3.155 1.664 0 3.017 1.358 3.071 3.054h2.48c-.052-3.099-2.515-5.596-5.551-5.596-3.07 0-5.559 2.55-5.559 5.697a5.7 5.7 0 0 0 3.048 5.075c.278.166.8.341.95.381.51.138 1.195.232 1.751.273.206.018 1.213.026 1.425.027v.004h17.819v-2.544H22.356ZM9.35 19.99H6.752V2.665H2.955V0H9.35v19.99ZM.102 3.996v2.562h2.853V19.99H5.45V3.996H.101Z"/></svg>