<svg xmlns="http://www.w3.org/2000/svg" width="120" height="120" fill="none"><path fill="#fff" fill-opacity=".5" d="M103.717 52.298a3 3 0 0 0-1.634-2.67l-29.17-14.926a3 3 0 0 0-2.747.007L41.403 49.624a3 3 0 0 0-1.619 2.663v29.501a3 3 0 0 0 1.598 2.652l28.966 15.32a2.998 2.998 0 0 0 2.805 0l28.966-15.32a3 3 0 0 0 1.598-2.652v-29.49Z"/><path fill="#2FC6F6" fill-rule="evenodd" d="M72.327 34.793a1.721 1.721 0 0 0-.383-.142l.16-.678c.184.044.364.11.536.198l.627.32-.313.623-.627-.321Zm-1.192-.14c-.131.033-.26.08-.382.144l-.618.32-.317-.62.619-.32c.171-.09.35-.156.534-.201l.164.678Zm4.327 1.744-1.254-.642.313-.622 1.254.642-.313.622Zm-6.564-.638-1.237.642-.317-.62 1.237-.642.317.62Zm9.072 1.922-1.254-.642.313-.622 1.254.641-.313.623Zm-11.546-.64-1.237.642-.316-.62 1.237-.642.316.62Zm14.054 1.923-1.254-.642.313-.622 1.254.642-.313.622Zm-16.528-.64-1.236.642-.317-.62 1.237-.642.316.62Zm19.036 1.923-1.254-.642.313-.622 1.254.642-.313.622Zm-21.51-.64-1.236.642-.317-.62 1.237-.642.317.62Zm24.018 1.924-1.254-.642.313-.622 1.254.641-.313.623Zm-26.49-.64-1.238.64-.316-.62 1.237-.641.316.62Zm28.998 1.923-1.254-.642.313-.622 1.254.642-.313.622Zm-31.473-.641-1.236.641-.317-.62 1.237-.642.316.62Zm33.981 1.924-1.254-.641.313-.623 1.254.642-.313.622Zm-36.454-.642-1.237.642-.317-.62 1.237-.642.317.62Zm38.962 1.926-1.254-.642.314-.622 1.254.642-.314.622Zm-41.436-.643-1.237.642-.316-.62 1.237-.642.316.62Zm43.944 1.926-1.254-.642.314-.622 1.254.642-.314.622Zm-46.418-.643-1.236.641-.317-.62 1.237-.642.316.62Zm-2.473 1.283-1.237.641-.317-.62 1.237-.642.317.62Zm51.4.643-1.254-.641.313-.622 1.254.641-.313.622Zm-53.874.64-1.237.64-.316-.62 1.237-.641.316.62Zm56.382.644-1.254-.642.313-.622 1.254.642-.313.622Zm-58.856.638-.618.32a1.73 1.73 0 0 0-.387.274l-.47-.51c.16-.15.34-.28.54-.384l.619-.32.316.62Zm60.737.324-.627-.32.313-.623.627.321c.201.103.384.232.546.382l-.469.513a1.726 1.726 0 0 0-.39-.273Zm-62.23 1.076c-.041.151-.064.31-.064.472v.695h-.692v-.695c0-.227.032-.449.09-.66l.667.188Zm63.177.48a1.78 1.78 0 0 0-.065-.474l.666-.19c.059.213.091.436.091.664v.695h-.692v-.695Zm-63.24 2.078v1.39h-.693v-1.39h.692Zm63.24 1.397v-1.39h.692v1.39h-.692Zm-63.24 1.383v1.39h-.693v-1.39h.692Zm63.24 1.397v-1.39h.692v1.39h-.692Zm-63.24 1.384v1.39h-.693v-1.39h.692Zm63.24 1.396v-1.39h.692v1.39h-.692Zm-63.24 1.385v1.39h-.693v-1.39h.692Zm63.24 1.395v-1.39h.692v1.39h-.692Zm-63.24 1.386v1.39h-.693v-1.39h.692Zm63.24 1.394v-1.39h.692v1.39h-.692Zm-63.24 1.387v1.39h-.693v-1.39h.692Zm63.24 1.393v-1.39h.692v1.39h-.692Zm-63.24 1.387v1.39h-.693v-1.39h.692Zm63.24 1.393v-1.39h.692v1.39h-.692Zm-63.24 1.388v1.39h-.693v-1.39h.692Zm63.24 1.392v-1.39h.692v1.39h-.692Zm-63.24 1.389v1.39h-.693v-1.39h.692Zm63.24 1.392v-1.39h.692v1.39h-.692Zm-63.24 1.389v1.39h-.693v-1.39h.692Zm63.24 1.39v-1.39h.692v1.39h-.692Zm-63.24 1.39v.696c0 .16.021.318.063.468l-.667.188a2.459 2.459 0 0 1-.089-.656v-.695h.692Zm63.24.696v-.695h.692v.695c0 .225-.031.445-.089.656l-.667-.188a1.74 1.74 0 0 0 .064-.468ZM40.675 83.6c.112.107.24.2.382.274l.622.33-.321.618-.623-.33a2.421 2.421 0 0 1-.535-.384l.475-.508Zm61.77.274a1.71 1.71 0 0 0 .381-.274l.475.508c-.158.15-.338.28-.535.384l-.623.33-.321-.618.623-.33Zm-59.52.989 1.245.658-.321.618-1.246-.659.322-.618Zm56.406.658 1.245-.659.322.618-1.246.659-.321-.618Zm-53.915.659 1.245.659-.321.618-1.246-.66.322-.617Zm51.424.659 1.245-.66.322.619-1.246.659-.32-.618Zm-48.934.658 1.246.659-.321.618-1.246-.659.322-.618Zm46.443.659 1.246-.659.321.618-1.245.659-.322-.618Zm-43.952.659 1.246.659-.322.617-1.245-.658.321-.618Zm41.461.659 1.246-.66.321.619-1.245.658-.322-.617Zm-38.97.658 1.246.659-.322.618-1.245-.659.321-.618Zm36.48.659 1.245-.659.321.618-1.245.659-.322-.618Zm-33.989.659 1.246.658-.322.618-1.245-.659.321-.617Zm31.497.658 1.246-.658.321.617-1.245.66-.322-.619Zm-29.006.659 1.245.659-.32.618-1.246-.66.321-.617Zm26.516.659 1.245-.659.321.618-1.245.659-.321-.618Zm-24.025.659 1.245.658-.321.618-1.245-.659.32-.617Zm21.534.658 1.245-.658.322.617-1.246.659-.321-.618Zm-19.043.659 1.245.659-.321.617-1.245-.658.32-.618Zm16.552.659 1.245-.66.322.619-1.246.659-.321-.618Zm-14.061.658 1.245.659-.321.618-1.246-.659.322-.618Zm11.57.659 1.245-.659.322.618-1.246.659-.321-.618Zm-9.08.659 1.246.658-.321.618-1.246-.658.322-.618Zm6.59.658 1.245-.658.32.618-1.245.658-.32-.618Zm-4.099.66.623.328c.125.067.256.116.39.15l-.166.677a2.404 2.404 0 0 1-.545-.209l-.623-.329.322-.618Zm2.23.328.623-.329.321.618-.623.329a2.404 2.404 0 0 1-.545.209l-.166-.678c.134-.033.265-.082.39-.148Z" clip-rule="evenodd"/><path fill="#C3F0FF" d="M96.537 55.628c1.494-.79 1.48-2.95-.025-3.72L72.508 39.625a2.06 2.06 0 0 0-1.888.005L46.955 51.9c-1.495.776-1.504 2.928-.015 3.716l23.846 12.612a2.06 2.06 0 0 0 1.928 0l23.823-12.6Z" opacity=".9"/><path fill="#2FC6F6" fill-rule="evenodd" d="M95.886 53.153 71.881 40.869a.687.687 0 0 0-.63.002l-23.663 12.27a.7.7 0 0 0-.005 1.24l23.846 12.612a.687.687 0 0 0 .643 0l23.823-12.6a.7.7 0 0 0-.009-1.24Zm.627-1.245c1.503.77 1.518 2.93.024 3.72l-23.823 12.6a2.06 2.06 0 0 1-1.928 0L46.94 55.616c-1.489-.788-1.48-2.94.015-3.715l23.664-12.27a2.06 2.06 0 0 1 1.888-.006l24.005 12.283Z" clip-rule="evenodd" opacity=".9"/><g filter="url(#a)"><path fill="#E5F9FF" d="M79.153 55.027a6.285 6.285 0 0 0-3.409-5.6L49.811 36.159a6.18 6.18 0 0 0-5.666.016L18.6 49.42a6.286 6.286 0 0 0-3.38 5.584v25.503a6.286 6.286 0 0 0 3.335 5.56l25.74 13.614a6.183 6.183 0 0 0 5.784 0l25.74-13.613a6.286 6.286 0 0 0 3.334-5.56v-25.48Z"/></g><path fill="#2FC6F6" fill-rule="evenodd" d="m75.389 50.134-25.933-13.27a5.401 5.401 0 0 0-4.952.014L18.96 50.123a5.493 5.493 0 0 0-2.953 4.88v25.503a5.494 5.494 0 0 0 2.914 4.86L44.66 98.98a5.402 5.402 0 0 0 5.055 0l25.74-13.613a5.494 5.494 0 0 0 2.913-4.86v-25.48a5.493 5.493 0 0 0-2.98-4.893Zm.355-.706a6.285 6.285 0 0 1 3.41 5.6v25.48a6.286 6.286 0 0 1-3.335 5.56L50.079 99.68a6.183 6.183 0 0 1-5.784 0l-25.74-13.613a6.286 6.286 0 0 1-3.334-5.56V55.003a6.286 6.286 0 0 1 3.38-5.584l25.544-13.247a6.181 6.181 0 0 1 5.666-.015l25.933 13.27Z" clip-rule="evenodd"/><path fill="#C3F0FF" d="M71.974 56.337c1.493-.79 1.479-2.95-.025-3.72L47.944 40.334a2.06 2.06 0 0 0-1.889.005L22.391 52.61c-1.495.776-1.503 2.928-.014 3.716l23.846 12.612a2.06 2.06 0 0 0 1.928 0l23.823-12.6Z" opacity=".9"/><path fill="#2FC6F6" fill-rule="evenodd" d="M71.331 55.102a.7.7 0 0 0-.008-1.24L47.318 41.578a.687.687 0 0 0-.63.002L23.024 53.85l-.623-1.221.623 1.222a.7.7 0 0 0-.005 1.238l23.847 12.612a.686.686 0 0 0 .642 0l23.823-12.6Zm.618-2.485c1.504.77 1.518 2.93.025 3.72l-23.823 12.6a2.06 2.06 0 0 1-1.928 0L22.377 56.325c-1.49-.788-1.48-2.94.015-3.715l23.663-12.27a2.06 2.06 0 0 1 1.889-.006l24.005 12.283Z" clip-rule="evenodd" opacity=".9"/><g filter="url(#b)"><path fill="#fff" d="M92.488 37.334a6.285 6.285 0 0 0-3.41-5.6l-25.933-13.27a6.18 6.18 0 0 0-5.665.016L31.935 31.727a6.286 6.286 0 0 0-3.38 5.584v25.503a6.286 6.286 0 0 0 3.335 5.56l25.74 13.614a6.18 6.18 0 0 0 5.784 0l25.74-13.614a6.286 6.286 0 0 0 3.334-5.56v-25.48Z"/></g><path fill="#2FC6F6" fill-rule="evenodd" d="M88.723 32.44 62.79 19.17a5.401 5.401 0 0 0-4.951.014L32.294 32.431a5.493 5.493 0 0 0-2.954 4.88v25.503a5.494 5.494 0 0 0 2.915 4.86l25.739 13.613a5.401 5.401 0 0 0 5.055 0l25.74-13.614a5.494 5.494 0 0 0 2.914-4.86V37.335a5.493 5.493 0 0 0-2.98-4.894Zm.356-.705a6.285 6.285 0 0 1 3.409 5.599v25.48a6.286 6.286 0 0 1-3.335 5.56l-25.74 13.614a6.18 6.18 0 0 1-5.784 0L31.89 68.374a6.286 6.286 0 0 1-3.335-5.56V37.31a6.286 6.286 0 0 1 3.38-5.584L57.48 18.48a6.18 6.18 0 0 1 5.665-.015l25.934 13.27Z" clip-rule="evenodd"/><path fill="#C3F0FF" d="M85.308 38.644c1.494-.79 1.48-2.95-.025-3.72L61.279 22.64a2.06 2.06 0 0 0-1.888.005l-23.664 12.27c-1.495.776-1.504 2.928-.015 3.716l23.846 12.612a2.06 2.06 0 0 0 1.928 0l23.823-12.6Z" opacity=".9"/><path fill="#2FC6F6" fill-rule="evenodd" d="M84.657 36.168 60.653 23.885a.687.687 0 0 0-.63.002L36.36 36.157a.7.7 0 0 0-.005 1.239L60.2 50.008a.687.687 0 0 0 .643 0l23.823-12.6a.7.7 0 0 0-.008-1.24Zm.627-1.244c1.503.77 1.518 2.93.024 3.72l-23.822 12.6a2.06 2.06 0 0 1-1.928 0L35.71 38.632c-1.489-.788-1.48-2.94.015-3.715L59.39 22.646a2.06 2.06 0 0 1 1.888-.005l24.006 12.283Z" clip-rule="evenodd" opacity=".9"/><g filter="url(#c)"><circle cx="83.646" cy="44.85" r="24.174" fill="#fff"/><circle cx="83.646" cy="44.85" r="24.174" fill="#87A2C0" fill-opacity=".02"/></g><g filter="url(#d)" opacity=".866"><path fill="#FFA900" d="M83.95 63.847c-10.062 0-18.22-8.157-18.22-18.22 0-10.063 8.158-18.22 18.22-18.22 10.064 0 18.221 8.157 18.221 18.22 0 10.063-8.157 18.22-18.22 18.22Z"/></g><path fill="#fff" fill-rule="evenodd" d="m93.142 50.613-7.87-13.106c-.605-1.007-2.05-1.007-2.644 0L74.76 50.613c-.62 1.032.128 2.335 1.328 2.335h15.738c1.187 0 1.935-1.303 1.316-2.335Zm-10.32-8.54c0-.58.464-1.045 1.045-1.045h.142c.58 0 1.045.465 1.045 1.045v3.909a1.04 1.04 0 0 1-1.045 1.045h-.142a1.04 1.04 0 0 1-1.045-1.045v-3.909Zm2.438 7.585c0 .723-.593 1.316-1.316 1.316a1.321 1.321 0 0 1-1.316-1.316c0-.722.594-1.316 1.316-1.316.723 0 1.316.594 1.316 1.316Z" clip-rule="evenodd"/><defs><filter id="a" width="90.119" height="91.109" x="2.127" y="24.961" color-interpolation-filters="sRGB" filterUnits="userSpaceOnUse"><feFlood flood-opacity="0" result="BackgroundImageFix"/><feColorMatrix in="SourceAlpha" result="hardAlpha" values="0 0 0 0 0 0 0 0 0 0 0 0 0 0 0 0 0 0 127 0"/><feOffset dy="2.576"/><feGaussianBlur stdDeviation="6.547"/><feComposite in2="hardAlpha" operator="out"/><feColorMatrix values="0 0 0 0 0.392157 0 0 0 0 0.427451 0 0 0 0 0.482353 0 0 0 0.16 0"/><feBlend in2="BackgroundImageFix" result="effect1_dropShadow_540_79689"/><feBlend in="SourceGraphic" in2="effect1_dropShadow_540_79689" result="shape"/></filter><filter id="b" width="90.119" height="91.109" x="15.462" y="7.267" color-interpolation-filters="sRGB" filterUnits="userSpaceOnUse"><feFlood flood-opacity="0" result="BackgroundImageFix"/><feColorMatrix in="SourceAlpha" result="hardAlpha" values="0 0 0 0 0 0 0 0 0 0 0 0 0 0 0 0 0 0 127 0"/><feOffset dy="2.576"/><feGaussianBlur stdDeviation="6.547"/><feComposite in2="hardAlpha" operator="out"/><feColorMatrix values="0 0 0 0 0.392157 0 0 0 0 0.427451 0 0 0 0 0.482353 0 0 0 0.16 0"/><feBlend in2="BackgroundImageFix" result="effect1_dropShadow_540_79689"/><feBlend in="SourceGraphic" in2="effect1_dropShadow_540_79689" result="shape"/></filter><filter id="c" width="59.428" height="59.428" x="53.932" y="16.406" color-interpolation-filters="sRGB" filterUnits="userSpaceOnUse"><feFlood flood-opacity="0" result="BackgroundImageFix"/><feColorMatrix in="SourceAlpha" result="hardAlpha" values="0 0 0 0 0 0 0 0 0 0 0 0 0 0 0 0 0 0 127 0"/><feOffset dy="1.27"/><feGaussianBlur stdDeviation="2.77"/><feComposite in2="hardAlpha" operator="out"/><feColorMatrix values="0 0 0 0 0.392157 0 0 0 0 0.427451 0 0 0 0 0.482353 0 0 0 0.1 0"/><feBlend in2="BackgroundImageFix" result="effect1_dropShadow_540_79689"/><feBlend in="SourceGraphic" in2="effect1_dropShadow_540_79689" result="shape"/></filter><filter id="d" width="48.441" height="48.441" x="59.73" y="23.406" color-interpolation-filters="sRGB" filterUnits="userSpaceOnUse"><feFlood flood-opacity="0" result="BackgroundImageFix"/><feColorMatrix in="SourceAlpha" result="hardAlpha" values="0 0 0 0 0 0 0 0 0 0 0 0 0 0 0 0 0 0 127 0"/><feOffset dy="2"/><feGaussianBlur stdDeviation="3"/><feColorMatrix values="0 0 0 0 0 0 0 0 0 0 0 0 0 0 0 0 0 0 0.0741641 0"/><feBlend in2="BackgroundImageFix" result="effect1_dropShadow_540_79689"/><feBlend in="SourceGraphic" in2="effect1_dropShadow_540_79689" result="shape"/></filter></defs></svg>