<?xml version="1.0" encoding="UTF-8"?>
<svg width="15px" height="12px" viewBox="0 0 15 12" version="1.1" xmlns="http://www.w3.org/2000/svg" xmlns:xlink="http://www.w3.org/1999/xlink">
    <title>Combined Shape</title>
    <g id="Page-1" stroke="none" stroke-width="1" fill="none" fill-rule="evenodd">
        <g id="Элементы-ховер" transform="translate(-472.000000, -683.000000)" fill="#525C69">
            <g id="Group" transform="translate(66.000000, 255.000000)">
                <g id="Ui-/-Grid-/-Parts-/-Tags-/-Tag-add" transform="translate(397.000000, 423.000000)">
                    <g id="Default">
                        <path d="M16.0057912,5 L16.0057912,16.7154193 L12.0567406,14.0495118 L12.0567406,13.8679725 C12.0315461,13.8712036 12.0058631,13.8728567 11.9797893,13.8728567 L11.9797893,13.8728567 L9.6009018,13.8728567 C9.26903281,13.8728567 9,13.6038539 9,13.2719586 L9,13.2719586 L9,8.44344938 C9,8.11158414 9.26903281,7.84255133 9.6009018,7.84255133 L9.6009018,7.84255133 L11.9797893,7.84255133 C12.0058631,7.84255133 12.0315461,7.84421194 12.0567406,7.84742795 L12.0567406,7.84742795 L12.0567406,7.73578429 L16.0057912,5 Z M22.4687663,7.93322174 L23.443616,8.90805396 L21.4939165,10.8577271 L23.443616,12.8074354 L22.4687663,13.7821975 L20.5191544,11.8325594 L18.5694549,13.7821975 L17.5946052,12.8074354 L19.5443046,10.8577271 L17.5946052,8.90805396 L18.5694549,7.93322174 L20.5191544,9.88289493 L22.4687663,7.93322174 Z" id="Combined-Shape"></path>
                    </g>
                </g>
            </g>
        </g>
    </g>
</svg>