<svg width="35" height="35" viewBox="0 0 35 35" fill="none" xmlns="http://www.w3.org/2000/svg">
	<path fill-rule="evenodd" clip-rule="evenodd" d="M23.702 7.04608L25.2821 1.73919C25.4198 1.27779 25.3037 0.777138 24.9775 0.42583C24.6513 0.0745222 24.1646 -0.0740708 23.7007 0.0360243C23.2368 0.146119 22.8663 0.498177 22.7286 0.959579L21.3751 5.51518C17.1674 3.29369 12.1505 3.29898 7.94737 5.52934L6.58726 0.959579C6.37443 0.246313 5.63027 -0.157383 4.92513 0.0579011C4.21999 0.273185 3.82089 1.02592 4.03372 1.73919L5.62052 7.06698C2.05711 9.94803 -0.0122946 14.316 5.49615e-05 18.9304C5.49615e-05 25.8141 4.48742 25.6113 10.6227 25.3341H10.6228C11.9096 25.276 13.269 25.2145 14.6746 25.2145C14.8522 25.2145 15.0291 25.2155 15.2052 25.2173C15.4784 22.278 16.9039 19.673 19.0258 17.8586C18.5537 17.8529 18.0628 17.8436 17.5562 17.8341L17.5559 17.8341C16.6366 17.8167 15.6655 17.7985 14.6614 17.7985C13.6604 17.7985 12.6921 17.8166 11.7751 17.8338H11.7751C7.39091 17.916 4.18054 17.9762 4.18054 15.9243C4.18054 13.4432 8.87426 11.4287 14.6614 11.4287C19.9329 11.4287 24.3027 13.0985 25.0395 15.2728C25.4197 15.2332 25.8055 15.213 26.1961 15.213C27.1598 15.213 28.0947 15.3364 28.9857 15.5685C28.2449 12.2334 26.3989 9.21436 23.702 7.04608ZM9.86761 13.2882C9.04136 13.4408 8.47549 14.2179 8.57632 15.0613C8.67714 15.9048 9.4098 16.5229 10.2482 16.472C11.0866 16.421 11.7408 15.7186 11.7411 14.869C11.6475 13.9133 10.8139 13.2099 9.86761 13.2882ZM18.1615 15.065C18.2642 15.9083 18.9979 16.5252 19.8363 16.4732C20.6747 16.4212 21.3284 15.7182 21.3285 14.8686C21.2349 13.91 20.3971 13.2056 19.4483 13.2878C18.6225 13.4432 18.0588 14.2217 18.1615 15.065ZM22.9418 25.41C22.4365 27.7847 24.4999 29.8487 26.8751 29.3435C28.1209 29.0786 29.1007 28.0989 29.3657 26.853C29.871 24.4777 27.8068 22.4142 25.432 22.9196C24.3091 23.1586 23.1807 24.2871 22.9418 25.41ZM31.7288 23.2701C31.9496 23.6998 32.1197 24.1595 32.2372 24.6399L33.8912 24.9159C34.2438 24.9739 34.5016 25.2787 34.5022 25.6363V26.6269C34.5022 26.9845 34.2444 27.2893 33.8918 27.3473L32.271 27.618C32.2509 27.6213 32.2347 27.6364 32.2297 27.6562C32.0791 28.2585 31.841 28.8246 31.5302 29.343C31.5196 29.3605 31.5204 29.3825 31.5323 29.3992L32.5104 30.7705C32.7198 31.0609 32.6857 31.4589 32.4335 31.7112L31.7329 32.4118C31.4801 32.6651 31.0816 32.6977 30.7922 32.4898L29.4183 31.5085C29.4017 31.4966 29.3798 31.4958 29.3622 31.5063C28.8465 31.8137 28.2855 32.0488 27.6882 32.1984C27.6684 32.2033 27.6533 32.2195 27.65 32.2396L27.3783 33.8696C27.3203 34.2217 27.0156 34.4801 26.6579 34.4801H25.6666C25.3097 34.4801 25.004 34.2217 24.9472 33.8696L24.6689 32.2064C23.9431 32.0283 23.2659 31.7296 22.6656 31.3239C22.6487 31.3125 22.6268 31.312 22.6095 31.3229L21.2031 32.2064C20.9014 32.3965 20.5058 32.3409 20.2673 32.0729L19.61 31.3326C19.3726 31.065 19.3632 30.6656 19.5876 30.3883L20.6203 29.1093C20.6332 29.0933 20.6353 29.0712 20.6256 29.053C20.3949 28.6171 20.2193 28.1488 20.0961 27.6593C20.0911 27.6395 20.075 27.6245 20.0548 27.6211L18.4157 27.3474C18.0641 27.2893 17.8053 26.9846 17.8053 26.6269V25.6364C17.8053 25.2787 18.0641 24.9739 18.4157 24.9159L20.0549 24.6421C20.075 24.6388 20.0911 24.6238 20.0961 24.604C20.2476 24.0044 20.4845 23.4394 20.7944 22.9228C20.8049 22.9053 20.8041 22.8832 20.7922 22.8666L19.8495 21.5462C19.6418 21.2563 19.6742 20.858 19.9267 20.605L20.627 19.9042C20.88 19.6517 21.2782 19.6193 21.5681 19.8265L22.8859 20.7669C22.9026 20.7788 22.9246 20.7796 22.9421 20.7691C23.4628 20.4561 24.0312 20.2168 24.6363 20.0651C24.6561 20.0602 24.6711 20.044 24.6745 20.0239L24.9471 18.3936C25.0039 18.0415 25.3097 17.7832 25.6666 17.7832H26.6579C27.0156 17.7832 27.3203 18.0415 27.3783 18.3936L27.6495 20.0233C27.6529 20.0435 27.6679 20.0597 27.6878 20.0646C28.4355 20.252 29.1289 20.57 29.7421 20.9984L31.1566 20.1093C31.4582 19.9187 31.8536 19.9753 32.092 20.2428L32.7499 20.9831C32.9873 21.2509 32.9975 21.6501 32.7723 21.9276L31.7345 23.2145C31.7217 23.2303 31.7195 23.252 31.7288 23.2701Z" fill="#2EC8A6"/>
</svg>
