<svg width="24" height="24" viewBox="0 0 24 24" fill="none" xmlns="http://www.w3.org/2000/svg">
	<path fill-rule="evenodd" clip-rule="evenodd" d="M14.1154 16.114C13.0893 16.7723 11.8687 17.1541 10.559 17.1541C6.91665 17.1541 3.96393 14.2013 3.96393 10.559C3.96393 6.91659 6.91665 3.96387 10.559 3.96387C14.2014 3.96387 17.1541 6.91659 17.1541 10.559C17.1541 11.8687 16.7723 13.0892 16.114 14.1153L18.8595 16.8609C19.2501 17.2514 19.2501 17.8846 18.8595 18.2751L18.2751 18.8595C17.8846 19.25 17.2515 19.25 16.8609 18.8595L14.1154 16.114ZM15.2698 10.559C15.2698 13.1607 13.1607 15.2697 10.559 15.2697C7.95733 15.2697 5.84824 13.1607 5.84824 10.559C5.84824 7.95727 7.95733 5.84818 10.559 5.84818C13.1607 5.84818 15.2698 7.95727 15.2698 10.559Z" fill="#535C68"/>
</svg>
