<svg width="110" height="110" viewBox="0 0 110 110" fill="none" xmlns="http://www.w3.org/2000/svg">
<path fill-rule="evenodd" clip-rule="evenodd" d="M18.4166 88.7795L22.5691 73.3714L35.5658 86.3681L20.1575 90.5204C19.6643 90.6601 19.1427 90.5204 18.7797 90.1574C18.4259 89.7944 18.2862 89.2728 18.4166 88.7795ZM26.0789 69.8616L71.0749 24.8745C71.9699 23.9797 73.4208 23.9797 74.3157 24.8746L84.0716 34.6306C84.9666 35.5256 84.9666 36.9767 84.0714 37.8716L39.0756 82.8583L26.0789 69.8616ZM40.3 41.5177L46.5152 35.3025L50.5311 39.3184L34.591 55.2586L15.8101 36.4776C15.2893 35.9568 15.2895 35.1044 15.8101 34.5838L29.8563 20.5375C30.3772 20.0167 31.2294 20.0167 31.7502 20.5375L33.8019 22.5892L27.5867 28.8044C26.5782 29.8129 26.578 31.4633 27.5865 32.4718C28.5952 33.4804 30.2454 33.4801 31.2539 32.4716L37.4691 26.2564L42.8478 31.6352L36.6326 37.8504C35.6241 38.8589 35.6241 40.5094 36.6325 41.5177C37.6411 42.5264 39.2915 42.5262 40.3 41.5177ZM88.4085 77.1959C88.9293 77.7167 88.9293 78.569 88.4085 79.0898L74.3622 93.136C73.8416 93.6567 72.9892 93.6568 72.4684 93.136L53.6874 74.3551L69.6275 58.415L73.4418 62.2292L67.0972 68.5739C66.1599 69.5112 66.1597 71.0451 67.0972 71.9825C68.0345 72.9199 69.5685 72.9199 70.5058 71.9825L76.8505 65.6379L81.8495 70.6369L75.5049 76.9816C74.5676 77.9189 74.5676 79.4529 75.5049 80.3902C76.4423 81.3277 77.9762 81.3275 78.9135 80.3902L85.2582 74.0456L88.4085 77.1959Z" fill="#BDC1C6"/>
</svg>
