<svg width="104" height="104" viewBox="0 0 104 104" fill="none" xmlns="http://www.w3.org/2000/svg" style="opacity: 0.3;">
	<path fill-rule="evenodd" clip-rule="evenodd" d="M52.0002 103.333C80.3507 103.333 103.333 80.3507 103.333 52.0001C103.333 23.6496 80.3507 0.666992 52.0002 0.666992C23.6497 0.666992 0.667023 23.6496 0.667023 52.0001C0.667023 80.3507 23.6497 103.333 52.0002 103.333ZM56.3442 22.5929L82.6938 66.4802C84.7672 69.9359 82.2619 74.2987 78.2878 74.2987H25.5885C21.5713 74.2987 19.0659 69.9359 21.1393 66.4802L47.4889 22.5929C49.476 19.2236 54.3139 19.2236 56.3442 22.5929ZM51.6364 34.3855C49.6926 34.3855 48.1375 35.9406 48.1375 37.8844V50.9728C48.1375 52.9166 49.6926 54.4717 51.6364 54.4717H52.1116C54.0554 54.4717 55.6105 52.9166 55.6105 50.9728V37.8844C55.6105 35.9406 54.0554 34.3855 52.1116 34.3855H51.6364ZM51.8955 67.6897C54.3145 67.6897 56.3015 65.7027 56.3015 63.2837C56.3015 60.8647 54.3145 58.8777 51.8955 58.8777C49.4765 58.8777 47.4895 60.8647 47.4895 63.2837C47.4895 65.7027 49.4765 67.6897 51.8955 67.6897Z" fill="#525C69"/>
</svg>
