<svg width="22" height="19" viewBox="0 0 22 19" fill="none" xmlns="http://www.w3.org/2000/svg">
	<path fill-rule="evenodd" clip-rule="evenodd" d="M21.6876 16.2156L12.5155 0.938707C11.8088 -0.234126 10.1247 -0.234126 9.43305 0.938707L0.260891 16.2156C-0.460852 17.4185 0.411254 18.9372 1.80963 18.9372H20.1539C21.5373 18.9372 22.4094 17.4185 21.6876 16.2156ZM9.65859 6.26156C9.65859 5.58493 10.1999 5.04362 10.8765 5.04362H11.0419C11.7186 5.04362 12.2599 5.58493 12.2599 6.26156V10.8176C12.2599 11.4942 11.7186 12.0355 11.0419 12.0355H10.8765C10.1999 12.0355 9.65859 11.4942 9.65859 10.8176V6.26156ZM12.5005 15.1029C12.5005 15.945 11.8088 16.6366 10.9668 16.6366C10.1247 16.6366 9.43305 15.945 9.43305 15.1029C9.43305 14.2609 10.1247 13.5692 10.9668 13.5692C11.8088 13.5692 12.5005 14.2609 12.5005 15.1029Z" fill="#FFA900"/>
</svg>