<svg width="24" height="24" viewBox="0 0 24 24" fill="none" xmlns="http://www.w3.org/2000/svg">
	<path fill-rule="evenodd" clip-rule="evenodd" d="M7.5 5C6.11929 5 5 6.11929 5 7.5V16.5C5 17.8807 6.11929 19 7.5 19H14.5222C15.16 19 15.7736 18.7562 16.2376 18.3186L18.2154 16.4531C18.7162 15.9808 19 15.3229 19 14.6345V7.5C19 6.11929 17.8807 5 16.5 5H7.5ZM7.7088 6.7088C7.15652 6.7088 6.7088 7.15652 6.7088 7.7088V16.2912C6.7088 16.8435 7.15652 17.2912 7.7088 17.2912H14V14.5C14 14.2239 14.2239 14 14.5 14H17.2912V7.7088C17.2912 7.15652 16.8435 6.7088 16.2912 6.7088H7.7088ZM9.08035 9C8.8042 9 8.58035 9.22386 8.58035 9.5V10.2381C8.58035 10.5143 8.8042 10.7381 9.08035 10.7381H14.1456C14.4218 10.7381 14.6456 10.5143 14.6456 10.2381V9.5C14.6456 9.22386 14.4218 9 14.1456 9H9.08035Z" fill="#535C68"/>
</svg>
