<svg width="867" height="500" viewBox="0 0 867 500" fill="none" xmlns="http://www.w3.org/2000/svg">
<path fill-rule="evenodd" clip-rule="evenodd" d="M0 0L867 0L867 500L0 500L0 0Z" fill="#DFF3F2"/>
<mask id="mask0" mask-type="alpha" maskUnits="userSpaceOnUse" x="0" y="0" width="867" height="500">
<path fill-rule="evenodd" clip-rule="evenodd" d="M0 0L867 0L867 500L0 500L0 0Z" fill="white"/>
</mask>
<g mask="url(#mask0)">
<g opacity="0.240025">
<path fill-rule="evenodd" clip-rule="evenodd" d="M295.846 300.606C292.24 299.069 288.388 298.558 284.52 298.102C280.852 297.668 277.725 296.349 276.561 292.464C280.894 282.886 291.659 283.324 297.472 292.445C299.906 292.152 302.316 292.108 305.124 291.415C303.734 282.706 297.059 279.931 290.64 277.574C290.451 273.883 289.972 269.112 289.972 269.112H281.335C281.083 272.22 280.852 275.08 280.628 277.855C279.097 278.481 277.876 278.915 276.71 279.466C271.505 281.93 267.82 285.769 267.611 291.713C267.394 297.892 270.867 302.094 276.214 304.859C278.365 305.971 280.621 306.703 283.037 307.059C285.951 307.49 288.925 307.837 291.71 308.73C294.77 309.712 297.661 311.454 297.604 315.23C297.547 319.053 294.53 320.448 291.436 321.424C283.888 323.804 277.3 321.549 272.323 314.788C269.857 315.318 267.492 315.274 264.372 316.158C266.047 325.279 272.845 328.636 280.35 330.926C281.641 333.916 281.254 339.846 281.254 339.846C281.254 339.846 286.797 340.399 289.663 339.545C289.807 336.866 289.953 334.172 290.11 331.293C291.851 330.754 293.441 330.352 294.966 329.774C301.476 327.31 306.163 323.172 306.783 315.818C307.311 309.589 302.91 303.619 295.846 300.606V300.606ZM302.976 346.842C289.22 350.194 275.419 350.01 262.036 344.799C245.722 338.447 237.368 321.693 242.668 305.034C248.269 287.43 258.305 272.536 271.682 260.016C280.28 260.016 288.423 260.102 296.564 259.971C299.574 259.923 301.326 261.748 303.116 263.58C313.461 274.168 321.375 286.397 326.844 300.107C335.416 321.599 325.358 341.39 302.976 346.842V346.842ZM303.77 233.823C301.484 239.543 299.31 244.983 297.035 250.676H274.13C272.017 245.474 269.754 239.91 267.278 233.823H303.77ZM335.579 298.015C329.586 282.241 320.608 268.3 308.591 256.373C307.574 255.363 306.096 254.66 306.017 252.635C309.574 243.658 313.229 234.428 317.013 224.878H254.031C257.928 234.626 261.623 243.87 265.464 253.477C251.327 266.941 240.973 282.36 234.741 300.338C226.83 323.16 237.514 345.525 260.286 353.721C275.741 359.283 291.563 359.46 307.282 354.892C333.127 347.384 345.148 323.203 335.579 298.015V298.015Z" fill="white"/>
</g>
<g opacity="0.240025">
<path fill-rule="evenodd" clip-rule="evenodd" d="M786.9 244.061C772.822 238.058 757.779 236.064 742.675 234.283C728.349 232.588 716.139 227.436 711.593 212.263C728.514 174.861 770.553 176.572 793.251 212.189C802.757 211.046 812.167 210.873 823.133 208.166C817.704 174.157 791.638 163.323 766.572 154.118C765.833 139.705 763.964 121.073 763.964 121.073H730.235C729.253 133.21 728.349 144.379 727.475 155.213C721.494 157.658 716.726 159.353 712.175 161.507C691.846 171.129 677.459 186.12 676.642 209.331C675.795 233.462 689.356 249.869 710.237 260.668C718.638 265.012 727.449 267.871 736.881 269.261C748.26 270.942 759.874 272.297 770.749 275.785C782.702 279.621 793.99 286.424 793.768 301.167C793.546 316.098 781.763 321.545 769.68 325.355C740.206 334.651 714.479 325.846 695.041 299.443C685.414 301.511 676.177 301.341 663.994 304.79C670.535 340.411 697.08 353.522 726.388 362.461C731.43 374.138 729.918 397.296 729.918 397.296C729.918 397.296 751.563 399.455 762.756 396.119C763.321 385.659 763.89 375.137 764.503 363.895C771.301 361.793 777.512 360.22 783.467 357.965C808.89 348.343 827.193 332.184 829.614 303.465C831.674 279.139 814.488 255.825 786.9 244.061V244.061ZM814.745 424.618C761.026 437.706 707.133 436.989 654.871 416.638C591.164 391.833 558.539 326.408 579.237 261.352C601.109 192.608 640.301 134.442 692.538 85.5498C726.115 85.5498 757.914 85.8886 789.704 85.376C801.462 85.1892 808.303 92.3134 815.292 99.468C855.689 140.819 886.597 188.572 907.951 242.113C941.428 326.039 902.149 403.328 814.745 424.618V424.618ZM817.847 -16.736C808.92 5.60097 800.431 26.8476 791.547 49.0759H702.1C693.846 28.7633 685.009 7.0345 675.342 -16.736H817.847ZM942.063 233.941C918.661 172.342 883.602 117.903 836.673 71.3266C832.7 67.3823 826.928 64.6368 826.619 56.7264C840.511 21.6702 854.785 -14.3721 869.563 -51.6655H623.611C638.828 -13.5989 653.258 22.4999 668.258 60.0148C613.049 112.595 572.617 172.807 548.281 243.015C517.386 332.137 559.108 419.473 648.038 451.48C708.39 473.2 770.176 473.891 831.561 456.054C932.488 426.732 979.43 332.302 942.063 233.941V233.941Z" fill="white"/>
</g>
</g>
</svg>
