<svg version="1.1" xmlns="http://www.w3.org/2000/svg" xmlns:xlink="http://www.w3.org/1999/xlink" viewBox="0 0 32 32">
    <path d="M15.996,0.007C7.162,0.007,0,7.168,0,16.004c0,6.551,3.938,12.177,9.575,14.65  c-0.045-1.118-0.008-2.459,0.278-3.672c0.308-1.301,2.058-8.719,2.058-8.719s-0.512-1.021-0.512-2.529  c0-2.369,1.376-4.14,3.087-4.14c1.454,0,2.157,1.091,2.157,2.4c0,1.462-0.934,3.65-1.412,5.676c-0.401,1.696,0.852,3.08,2.522,3.08  c3.031,0,5.072-3.891,5.072-8.504c0-3.505-2.361-6.128-6.655-6.128c-4.852,0-7.874,3.617-7.874,7.659  c0,1.394,0.411,2.377,1.054,3.138c0.297,0.35,0.338,0.489,0.229,0.891c-0.074,0.296-0.25,1.003-0.324,1.283  c-0.107,0.407-0.434,0.551-0.801,0.4c-2.235-0.91-3.275-3.358-3.275-6.11c0-4.543,3.831-9.993,11.433-9.993  c6.106,0,10.128,4.42,10.128,9.164c0,6.275-3.491,10.963-8.633,10.963c-1.728,0-3.353-0.934-3.907-1.992c0,0-0.93,3.686-1.125,4.396  c-0.34,1.231-1.004,2.466-1.61,3.427C12.901,31.769,14.421,32,15.996,32c8.834,0,15.995-7.16,15.995-15.996  S24.83,0.007,15.996,0.007z" fill="#fff"/></svg>