<svg viewBox="0 0 10 25" fill="none" xmlns="http://www.w3.org/2000/svg">
	<path fill-rule="evenodd" clip-rule="evenodd" d="M7.6591 3.1924C7.6591 3.52572 7.57577 3.88285 7.40911 4.26379C7.26626 4.5971 7.06388 4.89471 6.80199 5.1566C6.51629 5.44231 6.21868 5.64468 5.90917 5.76372C5.55204 5.90657 5.18301 5.978 4.80208 5.978C4.42114 5.978 4.05211 5.90657 3.69498 5.76372C3.40928 5.64468 3.12358 5.44231 2.83787 5.1566C2.57598 4.89471 2.37361 4.5971 2.23076 4.26379C2.08791 3.93047 2.01648 3.57334 2.01648 3.1924C2.01648 2.81147 2.08791 2.44243 2.23076 2.08531C2.3498 1.7758 2.55217 1.47819 2.83787 1.19249C3.09977 0.930594 3.38547 0.740126 3.69498 0.621084C4.12353 0.454424 4.49256 0.371094 4.80208 0.371094C5.11159 0.371094 5.48062 0.454424 5.90917 0.621084C6.2663 0.763935 6.5639 0.954402 6.80199 1.19249C7.08769 1.47819 7.29006 1.7758 7.40911 2.08531C7.57577 2.49005 7.6591 2.85908 7.6591 3.1924ZM9.54009 22.336C9.54009 21.786 9.26509 21.445 8.71509 21.313L8.51709 21.28C8.45109 21.28 8.37409 21.269 8.28609 21.247C8.22009 21.225 8.13209 21.203 8.02209 21.181L7.03209 21.016V8.854C7.03209 8.57786 6.80823 8.354 6.53209 8.354H0.965088C0.688946 8.354 0.465088 8.57786 0.465088 8.854V10.301C0.465088 10.851 0.740088 11.192 1.29009 11.324L1.48809 11.357C1.55409 11.357 1.62009 11.368 1.68609 11.39C1.77409 11.412 1.87309 11.434 1.98309 11.456L2.97309 11.621V21.016L1.98309 21.181L1.48809 21.28L1.29009 21.313C0.740088 21.445 0.465088 21.786 0.465088 22.336V23.783C0.465088 24.0591 0.688945 24.283 0.965087 24.283H9.04009C9.31623 24.283 9.54009 24.0591 9.54009 23.783V22.336Z" fill="white"/>
</svg>
