<svg width="174" height="172" viewBox="0 0 174 172" fill="none" xmlns="http://www.w3.org/2000/svg">
    <path opacity="0.5" fill-rule="evenodd" clip-rule="evenodd" d="M24.0785 143.567C24.0785 141.045 21.8825 139 19.1735 139C17.204 139 15.518 140.088 14.7365 141.649C14.111 141.435 13.445 141.3 12.74 141.3C9.6185 141.3 7.0925 143.595 6.9485 146.468C6.8285 146.459 6.7115 146.434 6.5885 146.434C4.0535 146.434 2 148.351 2 150.716C2 153.083 4.0535 155 6.5885 155C6.995 155 8.363 155 8.6915 155H21.0785C21.3335 155 22.505 155 22.865 155C26.2535 155 29 152.449 29 149.3C29 146.533 26.8775 144.231 24.062 143.713C24.0635 143.663 24.0785 143.617 24.0785 143.567Z" fill="white"/>
    <path opacity="0.5" fill-rule="evenodd" clip-rule="evenodd" d="M144.01 22.7109C144.01 20.6616 145.799 19 148.007 19C149.612 19 150.985 19.884 151.622 21.1521C152.132 20.9784 152.674 20.8685 153.249 20.8685C155.792 20.8685 157.851 22.7334 157.968 25.0675C158.066 25.0604 158.161 25.0403 158.261 25.0403C160.327 25.0403 162 26.5979 162 28.5195C162 30.4424 160.327 32 158.261 32C157.93 32 156.815 32 156.548 32H146.455C146.247 32 145.292 32 144.999 32C142.238 32 140 29.9271 140 27.3685C140 25.1206 141.729 23.2498 144.024 22.8291C144.022 22.7889 144.01 22.7511 144.01 22.7109Z" fill="white"/>
    <g filter="url(#filter0_d_4661_161595)">
        <path d="M32 47C32 43.134 35.134 40 39 40H132C135.866 40 139 43.134 139 47V72C139 75.866 135.866 79 132 79H39C35.134 79 32 75.866 32 72V47Z" fill="#DFE0E3"/>
    </g>
    <g filter="url(#filter1_d_4661_161595)">
        <path d="M32 72.0986C32 68.2326 35.134 65.0986 39 65.0986H132C135.866 65.0986 139 68.2326 139 72.0986V133.099C139 136.965 135.866 140.099 132 140.099H39C35.134 140.099 32 136.965 32 133.099V72.0986Z" fill="#D5D7DB"/>
    </g>
    <path d="M32 69.7471C32 65.8811 35.134 62.7471 39 62.7471H132C135.866 62.7471 139 65.8811 139 69.7471V130.747C139 134.613 135.866 137.747 132 137.747H39C35.134 137.747 32 134.613 32 130.747V69.7471Z" fill="#DFE0E3"/>
    <path d="M32 67.3955C32 63.5295 35.134 60.3955 39 60.3955H132C135.866 60.3955 139 63.5295 139 67.3955V128.396C139 132.262 135.866 135.396 132 135.396H39C35.134 135.396 32 132.261 32 128.396V67.3955Z" fill="white"/>
    <path opacity="0.3" d="M42.0547 73.9776C42.0547 72.6788 43.1076 71.626 44.4063 71.626H51.4613C52.7601 71.626 53.8129 72.6788 53.8129 73.9776V81.0326C53.8129 82.3313 52.7601 83.3842 51.4613 83.3842H44.4063C43.1076 83.3842 42.0547 82.3313 42.0547 81.0326V73.9776Z" fill="#BDC1C6"/>
    <path opacity="0.3" d="M42.0547 93.9669C42.0547 92.6681 43.1076 91.6152 44.4063 91.6152H51.4613C52.7601 91.6152 53.8129 92.6681 53.8129 93.9669V101.022C53.8129 102.321 52.7601 103.373 51.4613 103.373H44.4063C43.1076 103.373 42.0547 102.321 42.0547 101.022V93.9669Z" fill="#BDC1C6"/>
    <path opacity="0.3" d="M42.0547 113.956C42.0547 112.657 43.1076 111.604 44.4063 111.604H51.4613C52.7601 111.604 53.8129 112.657 53.8129 113.956V121.011C53.8129 122.31 52.7601 123.363 51.4613 123.363H44.4063C43.1076 123.363 42.0547 122.31 42.0547 121.011V113.956Z" fill="#BDC1C6"/>
    <path opacity="0.3" d="M60.8135 73.9776C60.8135 72.6788 61.8663 71.626 63.1651 71.626H70.2201C71.5188 71.626 72.5717 72.6788 72.5717 73.9776V81.0326C72.5717 82.3313 71.5188 83.3842 70.2201 83.3842H63.1651C61.8663 83.3842 60.8135 82.3313 60.8135 81.0326V73.9776Z" fill="#BDC1C6"/>
    <path d="M60.8135 93.9669C60.8135 92.6681 61.8663 91.6152 63.1651 91.6152H70.2201C71.5188 91.6152 72.5717 92.6681 72.5717 93.9669V101.022C72.5717 102.321 71.5188 103.373 70.2201 103.373H63.1651C61.8663 103.373 60.8135 102.321 60.8135 101.022V93.9669Z" fill="#BDC1C6"/>
    <path opacity="0.3" d="M60.8135 113.956C60.8135 112.657 61.8663 111.604 63.1651 111.604H70.2201C71.5188 111.604 72.5717 112.657 72.5717 113.956V121.011C72.5717 122.31 71.5188 123.363 70.2201 123.363H63.1651C61.8663 123.363 60.8135 122.31 60.8135 121.011V113.956Z" fill="#BDC1C6"/>
    <path opacity="0.3" d="M79.5713 73.9776C79.5713 72.6788 80.6242 71.626 81.9229 71.626H88.9779C90.2767 71.626 91.3295 72.6788 91.3295 73.9776V81.0326C91.3295 82.3313 90.2767 83.3842 88.9779 83.3842H81.9229C80.6242 83.3842 79.5713 82.3313 79.5713 81.0326V73.9776Z" fill="#BDC1C6"/>
    <path opacity="0.3" d="M79.5713 93.9669C79.5713 92.6681 80.6242 91.6152 81.9229 91.6152H88.9779C90.2767 91.6152 91.3295 92.6681 91.3295 93.9669V101.022C91.3295 102.321 90.2767 103.373 88.9779 103.373H81.9229C80.6242 103.373 79.5713 102.321 79.5713 101.022V93.9669Z" fill="#BDC1C6"/>
    <path opacity="0.3" d="M79.5713 113.956C79.5713 112.657 80.6242 111.604 81.9229 111.604H88.9779C90.2767 111.604 91.3295 112.657 91.3295 113.956V121.011C91.3295 122.31 90.2767 123.363 88.9779 123.363H81.9229C80.6242 123.363 79.5713 122.31 79.5713 121.011V113.956Z" fill="#BDC1C6"/>
    <path opacity="0.3" d="M98.3301 73.9776C98.3301 72.6788 99.3829 71.626 100.682 71.626H107.737C109.035 71.626 110.088 72.6788 110.088 73.9776V81.0326C110.088 82.3313 109.035 83.3842 107.737 83.3842H100.682C99.3829 83.3842 98.3301 82.3313 98.3301 81.0326V73.9776Z" fill="#BDC1C6"/>
    <path opacity="0.3" d="M98.3301 93.9669C98.3301 92.6681 99.3829 91.6152 100.682 91.6152H107.737C109.035 91.6152 110.088 92.6681 110.088 93.9669V101.022C110.088 102.321 109.035 103.373 107.737 103.373H100.682C99.3829 103.373 98.3301 102.321 98.3301 101.022V93.9669Z" fill="#BDC1C6"/>
    <path opacity="0.3" d="M117.088 73.9776C117.088 72.6788 118.141 71.626 119.44 71.626H126.494C127.793 71.626 128.846 72.6788 128.846 73.9776V81.0326C128.846 82.3313 127.793 83.3842 126.494 83.3842H119.44C118.141 83.3842 117.088 82.3313 117.088 81.0326V73.9776Z" fill="#BDC1C6"/>
    <path opacity="0.3" d="M117.088 93.9669C117.088 92.6681 118.141 91.6152 119.44 91.6152H126.494C127.793 91.6152 128.846 92.6681 128.846 93.9669V101.022C128.846 102.321 127.793 103.373 126.494 103.373H119.44C118.141 103.373 117.088 102.321 117.088 101.022V93.9669Z" fill="#BDC1C6"/>
    <path opacity="0.25" d="M51.9893 37.1154C51.9893 34.8425 53.8318 33 56.1046 33C58.3775 33 60.22 34.8425 60.22 37.1154V50.0495C60.22 52.3223 58.3775 54.1648 56.1046 54.1648C53.8318 54.1648 51.9893 52.3223 51.9893 50.0494V37.1154Z" fill="#BDC1C6"/>
    <path d="M51.9893 34.7638C51.9893 32.491 53.8318 30.6484 56.1046 30.6484C58.3775 30.6484 60.22 32.491 60.22 34.7638V47.6979C60.22 49.9708 58.3775 51.8133 56.1046 51.8133C53.8318 51.8133 51.9893 49.9708 51.9893 47.6979V34.7638Z" fill="#BDC1C6"/>
    <path opacity="0.25" d="M111.956 37.1154C111.956 34.8425 113.799 33 116.071 33C118.344 33 120.187 34.8425 120.187 37.1154V50.0495C120.187 52.3223 118.344 54.1648 116.071 54.1648C113.799 54.1648 111.956 52.3223 111.956 50.0494V37.1154Z" fill="#BDC1C6"/>
    <path d="M111.956 34.7638C111.956 32.491 113.799 30.6484 116.071 30.6484C118.344 30.6484 120.187 32.491 120.187 34.7638V47.6979C120.187 49.9708 118.344 51.8133 116.071 51.8133C113.799 51.8133 111.956 49.9708 111.956 47.6979V34.7638Z" fill="#BDC1C6"/>
    <defs>
        <filter id="filter0_d_4661_161595" x="29" y="38" width="113" height="45" filterUnits="userSpaceOnUse" color-interpolation-filters="sRGB">
            <feFlood flood-opacity="0" result="BackgroundImageFix"/>
            <feColorMatrix in="SourceAlpha" type="matrix" values="0 0 0 0 0 0 0 0 0 0 0 0 0 0 0 0 0 0 127 0" result="hardAlpha"/>
            <feOffset dy="1"/>
            <feGaussianBlur stdDeviation="1.5"/>
            <feComposite in2="hardAlpha" operator="out"/>
            <feColorMatrix type="matrix" values="0 0 0 0 0 0 0 0 0 0.294118 0 0 0 0 0.388235 0 0 0 0.09 0"/>
            <feBlend mode="normal" in2="BackgroundImageFix" result="effect1_dropShadow_4661_161595"/>
            <feBlend mode="normal" in="SourceGraphic" in2="effect1_dropShadow_4661_161595" result="shape"/>
        </filter>
        <filter id="filter1_d_4661_161595" x="29" y="63.0986" width="113" height="81" filterUnits="userSpaceOnUse" color-interpolation-filters="sRGB">
            <feFlood flood-opacity="0" result="BackgroundImageFix"/>
            <feColorMatrix in="SourceAlpha" type="matrix" values="0 0 0 0 0 0 0 0 0 0 0 0 0 0 0 0 0 0 127 0" result="hardAlpha"/>
            <feOffset dy="1"/>
            <feGaussianBlur stdDeviation="1.5"/>
            <feComposite in2="hardAlpha" operator="out"/>
            <feColorMatrix type="matrix" values="0 0 0 0 0 0 0 0 0 0.294118 0 0 0 0 0.388235 0 0 0 0.09 0"/>
            <feBlend mode="normal" in2="BackgroundImageFix" result="effect1_dropShadow_4661_161595"/>
            <feBlend mode="normal" in="SourceGraphic" in2="effect1_dropShadow_4661_161595" result="shape"/>
        </filter>
    </defs>
</svg>
