<svg width="24" height="25" viewBox="0 0 24 25" fill="none" xmlns="http://www.w3.org/2000/svg">
    <path fill-rule="evenodd" clip-rule="evenodd" d="M17.912 11.8432L15.2839 14.4705C13.8333 15.9218 11.4802 15.9218 10.0295 14.4705C9.80095 14.2426 9.62218 13.9858 9.46519 13.721L10.6863 12.5C10.7444 12.4415 10.8161 12.4079 10.8846 12.3684C10.969 12.6568 11.1164 12.9299 11.3432 13.1568C12.0676 13.8817 13.2463 13.8807 13.9703 13.1568L16.5976 10.5296C17.3226 9.80468 17.3226 8.62621 16.5976 7.90188C15.8736 7.17754 14.6952 7.17754 13.9703 7.90188L13.036 8.83715C12.2779 8.54194 11.4611 8.46257 10.6659 8.5791L12.6567 6.58832C14.1081 5.13723 16.4606 5.13723 17.912 6.58832C19.3627 8.03935 19.3627 10.3922 17.912 11.8432ZM10.9644 16.1633L10.0294 17.0986C9.3051 17.8226 8.12629 17.8226 7.40183 17.0986C6.67743 16.3736 6.67743 15.1951 7.40183 14.4705L10.0294 11.8432C10.7544 11.1184 11.9324 11.1184 12.6567 11.8432C12.883 12.0696 13.0306 12.3426 13.1158 12.6307C13.1847 12.5906 13.2555 12.5581 13.3135 12.5L14.5345 11.2794C14.3785 11.0136 14.1989 10.7577 13.9702 10.5296C12.5198 9.07853 10.1665 9.07853 8.71542 10.5296L6.08821 13.1569C4.63726 14.6084 4.63726 16.9606 6.08821 18.412C7.53931 19.8627 9.89209 19.8627 11.3432 18.412L13.3345 16.4208C12.5389 16.538 11.7219 16.458 10.9644 16.1633Z" fill="#525C69"/>
</svg>
