<svg width="24" height="25" viewBox="0 0 24 25" fill="none" xmlns="http://www.w3.org/2000/svg">
    <path fill-rule="evenodd" clip-rule="evenodd" d="M12.2428 20.4112C16.6366 20.4112 20.1984 16.8493 20.1984 12.4556C20.1984 8.06183 16.6366 4.5 12.2428 4.5C8.2085 4.5 4.87555 7.50293 4.35725 11.3955H1L5.43812 15.8336L9.87625 11.3955H6.38295C6.88319 8.61313 9.31649 6.50195 12.2429 6.50195C15.5313 6.50195 18.197 9.1677 18.197 12.4561C18.197 15.7444 15.5313 18.4102 12.2429 18.4102C12.0923 18.4102 11.9429 18.4046 11.7951 18.3936V20.3988C11.9433 20.407 12.0926 20.4112 12.2428 20.4112ZM13.1038 9.31715H11.1038V14.3171H13.1038V14.3167H15.5435V12.376H13.1038V9.31715Z" fill="#525C69"/>
</svg>
