<svg width="87" height="71" viewBox="0 0 87 71" fill="none" xmlns="http://www.w3.org/2000/svg">
    <path fill-rule="evenodd" clip-rule="evenodd" d="M62.5455 2.63698C63.0708 2.63698 63.4966 2.21117 63.4966 1.68592C63.4966 1.16067 63.0708 0.734863 62.5455 0.734863C62.0203 0.734863 61.5945 1.16067 61.5945 1.68592C61.5945 2.21117 62.0203 2.63698 62.5455 2.63698ZM15.6156 10.8526C16.7543 10.8526 17.6773 9.9295 17.6773 8.79083C17.6773 7.65216 16.7543 6.72909 15.6156 6.72909C14.4769 6.72909 13.5538 7.65216 13.5538 8.79083C13.5538 9.9295 14.4769 10.8526 15.6156 10.8526ZM15.6156 9.70303C16.1194 9.70303 16.5278 9.29463 16.5278 8.79083C16.5278 8.28704 16.1194 7.87863 15.6156 7.87863C15.1118 7.87863 14.7034 8.28704 14.7034 8.79083C14.7034 9.29463 15.1118 9.70303 15.6156 9.70303ZM5.14133 30.9801C6.67496 30.9801 7.91822 29.7369 7.91822 28.2033C7.91822 26.6696 6.67496 25.4264 5.14133 25.4264C3.60769 25.4264 2.36443 26.6696 2.36443 28.2033C2.36443 29.7369 3.60769 30.9801 5.14133 30.9801ZM5.14133 29.5309C5.87456 29.5309 6.46896 28.9365 6.46896 28.2032C6.46896 27.47 5.87456 26.8756 5.14133 26.8756C4.4081 26.8756 3.8137 27.47 3.8137 28.2032C3.8137 28.9365 4.4081 29.5309 5.14133 29.5309ZM75.6436 65.9218C76.7355 65.9218 77.6206 65.0366 77.6206 63.9448C77.6206 62.8529 76.7355 61.9678 75.6436 61.9678C74.5517 61.9678 73.6666 62.8529 73.6666 63.9448C73.6666 65.0366 74.5517 65.9218 75.6436 65.9218ZM75.6436 64.8929C76.1673 64.8929 76.5918 64.4684 76.5918 63.9448C76.5918 63.4211 76.1673 62.9966 75.6436 62.9966C75.1199 62.9966 74.6954 63.4211 74.6954 63.9448C74.6954 64.4684 75.1199 64.8929 75.6436 64.8929ZM44.0001 70.9999C62.7778 70.9999 78.0001 55.7776 78.0001 36.9999C78.0001 18.2222 62.7778 2.99991 44.0001 2.99991C25.2224 2.99991 10.0001 18.2222 10.0001 36.9999C10.0001 55.7776 25.2224 70.9999 44.0001 70.9999ZM9.9838 68.6233H3.37413C3.31757 68.6233 3.2615 68.6212 3.20599 68.617C1.71219 68.582 0.511794 67.3267 0.511719 65.7832C0.512153 65.0309 0.803358 64.3096 1.32127 63.778C1.58675 63.5055 1.90065 63.2943 2.24216 63.1532C2.23644 63.0766 2.23353 62.9993 2.23353 62.9212C2.234 62.1274 2.54128 61.3664 3.08776 60.8055C3.63424 60.2445 4.37517 59.9297 5.14754 59.9301C6.13693 59.9314 7.01044 60.4398 7.53541 61.2159C7.7847 61.1251 8.05306 61.0758 8.33264 61.076C9.56767 61.0775 10.582 62.045 10.6996 63.2823C11.883 63.5475 12.7686 64.6309 12.7675 65.9263C12.7663 67.4191 11.5881 68.6284 10.1355 68.6278C10.0846 68.6278 10.034 68.6263 9.9838 68.6233ZM80.0315 16.0434H84.7222C84.7579 16.0454 84.7938 16.0464 84.8299 16.0464C85.8608 16.0468 86.6969 15.2223 86.6978 14.2045C86.6985 13.3213 86.07 12.5826 85.2302 12.4018C85.1468 11.5582 84.4269 10.8985 83.5504 10.8974C83.352 10.8973 83.1616 10.931 82.9846 10.9929C82.6121 10.4637 81.9922 10.117 81.29 10.1162C80.7419 10.1159 80.2161 10.3305 79.8283 10.713C79.4404 11.0954 79.2224 11.6144 79.222 12.1556C79.222 12.2088 79.2241 12.2615 79.2281 12.3137C78.9858 12.4099 78.763 12.5539 78.5746 12.7397C78.2071 13.1022 78.0004 13.594 78.0001 14.1069C78.0001 15.1593 78.852 16.0152 79.9122 16.039C79.9516 16.0419 79.9913 16.0434 80.0315 16.0434Z" fill="#E5F9FF"/>
    <g filter="url(#filter0_d_4195_107278)">
        <path d="M25.1704 25.2416C25.1704 22.4932 27.3948 20.2651 30.1388 20.2651H58.1748C60.9188 20.2651 63.1433 22.4932 63.1433 25.2416V29.1517C63.1433 31.9001 60.9188 34.1282 58.1748 34.1282H30.1388C27.3948 34.1282 25.1704 31.9001 25.1704 29.1517V25.2416Z" fill="#9EE8FF"/>
    </g>
    <g filter="url(#filter1_d_4195_107278)">
        <path d="M25.1704 34.163C25.1704 31.4146 27.3948 29.1865 30.1388 29.1865H58.1748C60.9188 29.1865 63.1433 31.4146 63.1433 34.163V50.8697C63.1433 53.6182 60.9188 55.8462 58.1748 55.8462H30.1388C27.3948 55.8462 25.1704 53.6182 25.1704 50.8697V34.163Z" fill="#7FDEFC"/>
    </g>
    <path d="M25.1704 33.3271C25.1704 30.5786 27.3948 28.3506 30.1388 28.3506H58.1748C60.9188 28.3506 63.1433 30.5786 63.1433 33.3271V50.0338C63.1433 52.7822 60.9188 55.0103 58.1748 55.0103H30.1388C27.3948 55.0103 25.1704 52.7822 25.1704 50.0338V33.3271Z" fill="#9EE8FF"/>
    <path d="M25.1702 32.4916C25.1702 29.7432 27.3946 27.5151 30.1386 27.5151H58.1746C60.9186 27.5151 63.143 29.7432 63.143 32.4916V49.1983C63.143 51.9468 60.9186 54.1748 58.1746 54.1748H30.1386C27.3946 54.1748 25.1702 51.9468 25.1702 49.1983V32.4916Z" fill="white"/>
    <rect x="28.7383" y="31.5073" width="4.17284" height="4.17961" rx="1.17582" fill="#DFE0E3"/>
    <rect x="28.7383" y="38.6125" width="4.17284" height="4.17961" rx="1.17582" fill="#DFE0E3"/>
    <rect x="28.7383" y="45.7178" width="4.17284" height="4.17961" rx="1.17582" fill="#DFE0E3"/>
    <rect x="35.3955" y="31.5073" width="4.17284" height="4.17961" rx="1.17582" fill="#DFE0E3"/>
    <rect opacity="0.8" x="35.3955" y="38.6125" width="4.17284" height="4.17961" rx="1.17582" fill="#2FC6F6"/>
    <rect x="35.3955" y="45.7178" width="4.17284" height="4.17961" rx="1.17582" fill="#DFE0E3"/>
    <rect x="42.0525" y="31.5073" width="4.17284" height="4.17961" rx="1.17582" fill="#DFE0E3"/>
    <rect x="42.0525" y="38.6125" width="4.17284" height="4.17961" rx="1.17582" fill="#DFE0E3"/>
    <rect opacity="0.8" x="42.0525" y="45.7178" width="4.17284" height="4.17961" rx="1.17582" fill="#DFE0E3"/>
    <rect opacity="0.8" x="48.7095" y="31.5073" width="4.17284" height="4.17961" rx="1.17582" fill="#DFE0E3"/>
    <rect x="48.7095" y="38.6125" width="4.17284" height="4.17961" rx="1.17582" fill="#DFE0E3"/>
    <rect opacity="0.8" x="55.3665" y="31.5073" width="4.17284" height="4.17961" rx="1.17582" fill="#DFE0E3"/>
    <rect x="55.3665" y="38.6125" width="4.17284" height="4.17961" rx="1.17582" fill="#DFE0E3"/>
    <rect opacity="0.2" x="32.2642" y="17.7769" width="2.92099" height="7.5233" rx="1.46049" fill="#11A9D9"/>
    <rect x="32.2642" y="16.9409" width="2.92099" height="7.5233" rx="1.46049" fill="#2FC6F6"/>
    <rect opacity="0.2" x="53.5459" y="17.7769" width="2.92099" height="7.5233" rx="1.46049" fill="#11A9D9"/>
    <rect x="53.5459" y="16.9409" width="2.92099" height="7.5233" rx="1.46049" fill="#2FC6F6"/>
    <path d="M61.0429 44.9746C60.8215 44.7975 60.4684 44.9371 60.4684 45.2017V48.5053C60.4684 48.569 60.4049 48.6143 60.3413 48.6159C52.7545 48.8073 50.4092 55.214 49.7848 57.6922C49.711 57.985 50.1137 58.1655 50.3585 57.9585C51.9563 56.6079 55.8464 53.7709 60.3328 53.7704C60.4002 53.7704 60.4684 53.8181 60.4684 53.8857V57.7378C60.4684 58.0025 60.8215 58.142 61.0429 57.9649L68.7879 51.7726C68.9904 51.6107 68.9904 51.3288 68.7879 51.167L61.0429 44.9746Z" fill="#9DCF00"/>
    <path fill-rule="evenodd" clip-rule="evenodd" d="M61.0429 44.9746C60.8214 44.7975 60.4684 44.937 60.4684 45.2017V48.5053C60.4684 48.5689 60.4048 48.6143 60.3413 48.6159C54.5395 48.7622 51.8029 52.5432 50.5571 55.4226C50.4451 55.6815 50.3451 55.9332 50.256 56.1743C50.0922 56.6177 49.9652 57.0253 49.8681 57.3765C49.8374 57.4876 49.8097 57.593 49.7847 57.6921C49.7109 57.985 50.1136 58.1654 50.3584 57.9585C50.3943 57.9281 50.4314 57.897 50.4696 57.8652C50.7524 57.6298 51.0975 57.356 51.4971 57.0637C51.6817 56.9287 51.8778 56.7897 52.0848 56.6488C53.7086 55.5434 56.0006 54.3152 58.5902 53.909C58.5902 53.909 58.5903 53.909 58.5902 53.909C58.6421 53.9009 58.6942 53.8931 58.7462 53.8856C59.2645 53.8113 59.7943 53.7704 60.3327 53.7704C60.4001 53.7703 60.4684 53.8181 60.4684 53.8856V57.7378C60.4684 58.0024 60.8214 58.142 61.0429 57.9649L68.7879 51.7725C68.9903 51.6107 68.9903 51.3288 68.7879 51.1669L61.0429 44.9746ZM58.5902 55.8173V57.7378C58.5902 58.8136 59.3231 59.5059 59.9831 59.7668C60.6417 60.0272 61.512 59.9969 62.2146 59.4351L69.9596 53.2428C71.104 52.3278 71.104 50.6116 69.9596 49.6967L62.2146 43.5043C61.512 42.9426 60.6417 42.9122 59.9831 43.1726C59.3231 43.4335 58.5902 44.1259 58.5902 45.2017V46.8768C55.1139 47.3779 52.6675 49.1021 51.0102 51.091C49.1438 53.3307 48.3101 55.8569 47.9636 57.2318C47.6513 58.4715 48.4417 59.3898 49.1716 59.7238C49.8727 60.0446 50.8265 60.0244 51.5698 59.3962C52.8666 58.3 55.5218 56.3885 58.5902 55.8173Z" fill="white"/>
    <defs>
        <filter id="filter0_d_4195_107278" x="22.1704" y="17.7651" width="43.9729" height="19.8628" filterUnits="userSpaceOnUse" color-interpolation-filters="sRGB">
            <feFlood flood-opacity="0" result="BackgroundImageFix"/>
            <feColorMatrix in="SourceAlpha" type="matrix" values="0 0 0 0 0 0 0 0 0 0 0 0 0 0 0 0 0 0 127 0" result="hardAlpha"/>
            <feOffset dy="0.5"/>
            <feGaussianBlur stdDeviation="1.5"/>
            <feComposite in2="hardAlpha" operator="out"/>
            <feColorMatrix type="matrix" values="0 0 0 0 0 0 0 0 0 0.470588 0 0 0 0 0.619608 0 0 0 0.14 0"/>
            <feBlend mode="normal" in2="BackgroundImageFix" result="effect1_dropShadow_4195_107278"/>
            <feBlend mode="normal" in="SourceGraphic" in2="effect1_dropShadow_4195_107278" result="shape"/>
        </filter>
        <filter id="filter1_d_4195_107278" x="22.1704" y="26.6865" width="43.9729" height="32.6597" filterUnits="userSpaceOnUse" color-interpolation-filters="sRGB">
            <feFlood flood-opacity="0" result="BackgroundImageFix"/>
            <feColorMatrix in="SourceAlpha" type="matrix" values="0 0 0 0 0 0 0 0 0 0 0 0 0 0 0 0 0 0 127 0" result="hardAlpha"/>
            <feOffset dy="0.5"/>
            <feGaussianBlur stdDeviation="1.5"/>
            <feComposite in2="hardAlpha" operator="out"/>
            <feColorMatrix type="matrix" values="0 0 0 0 0 0 0 0 0 0.470588 0 0 0 0 0.619608 0 0 0 0.14 0"/>
            <feBlend mode="normal" in2="BackgroundImageFix" result="effect1_dropShadow_4195_107278"/>
            <feBlend mode="normal" in="SourceGraphic" in2="effect1_dropShadow_4195_107278" result="shape"/>
        </filter>
    </defs>
</svg>
