<svg width="24" height="25" viewBox="0 0 24 25" fill="none" xmlns="http://www.w3.org/2000/svg">
    <path d="M16.9945 18.0586C17.2102 18.0202 17.3518 17.8133 17.3072 17.5987C17.0667 16.4426 16.6336 14.85 16.6336 14.85C16.6336 14.4041 16.0359 13.8943 14.8582 13.5976C14.4582 13.4885 14.0786 13.3201 13.7334 13.0984C13.6781 12.961 13.6562 12.8133 13.6694 12.6666L13.2919 12.6102C13.2919 12.5786 13.2597 12.1113 13.2597 12.1113C13.7133 11.9626 13.6667 11.0855 13.6667 11.0855C13.9547 11.2413 14.1424 10.5481 14.1424 10.5481C14.4832 9.58421 13.9727 9.64219 13.9727 9.64219C14.062 9.05338 14.062 8.45534 13.9727 7.86653C13.7459 5.91375 10.3286 6.44326 10.734 7.08162C9.73538 6.90134 9.9633 9.11848 9.9633 9.11848L10.1799 9.69174C9.87991 9.88123 9.93867 10.0992 10.0043 10.3427C10.0317 10.4444 10.0603 10.5505 10.0646 10.6609C10.0855 11.2144 10.4318 11.0995 10.4318 11.0995C10.4534 12.0122 10.9145 12.1321 10.9145 12.1321C11.0011 12.7054 10.9473 12.6065 10.9473 12.6065L10.5367 12.655C10.5423 12.7853 10.5315 12.9158 10.5044 13.0435C10.2659 13.1474 10.12 13.2298 9.97584 13.3112C9.82747 13.3949 9.68105 13.4776 9.43764 13.5815C8.51049 13.9768 7.50276 14.4932 7.32396 15.1869C7.21462 15.6111 6.97261 16.8013 6.80106 17.6622C6.75728 17.8819 6.90276 18.0945 7.1239 18.1302C8.60923 18.3701 10.1976 18.5 11.8483 18.5C13.6563 18.5 15.3895 18.3442 16.9945 18.0586Z" fill="#525C69"/>
    <path d="M21.4674 16.2491C21.7805 16.166 21.9852 15.8714 21.9064 15.5571C21.7605 14.9754 21.4597 14.2363 21.1004 14.0185C20.6092 13.7208 20.653 13.7826 20.3453 13.6156C20.142 13.5005 19.9274 13.4046 19.7047 13.3291C19.5906 13.2311 19.5022 13.1088 19.4467 12.972C19.3296 12.8297 19.1757 12.719 19.0002 12.6509L18.9871 12.2236L19.9105 11.9419C19.9105 11.9419 20.1487 11.8338 20.1719 11.8338C20.135 11.7585 20.0924 11.6858 20.0446 11.6163C20.0271 11.5709 19.94 11.2592 19.94 11.2592C20.0747 11.4273 20.233 11.5767 20.4106 11.7032C20.2533 11.4163 20.1188 11.1186 20.008 10.8125C19.9339 10.5291 19.8825 10.2407 19.854 9.94993C19.7906 9.40951 19.6918 8.8734 19.5583 8.34474C19.4634 8.08205 19.2944 7.8495 19.07 7.67274C18.7409 7.44966 18.3546 7.3159 17.9523 7.28568H17.906C17.5037 7.31579 17.1174 7.44956 16.7884 7.67274C16.5642 7.84972 16.3953 8.0822 16.3003 8.34474C16.1665 8.87335 16.0677 9.40947 16.0043 9.94993C15.9799 10.2473 15.9309 10.5423 15.8577 10.8322C15.7468 11.1329 15.6098 11.4242 15.448 11.703C15.6246 11.5758 15.782 11.426 15.9157 11.2577C15.9157 11.2577 15.8041 11.5996 15.7863 11.6453C15.7456 11.7043 15.7114 11.7671 15.6841 11.8328C15.7071 11.8328 15.9455 11.9409 15.9455 11.9409L16.8686 12.2236L16.8553 12.6509C16.6799 12.7193 16.526 12.83 16.4088 12.9723C16.3643 13.067 16.3099 13.1571 16.2462 13.2412C17.0872 13.5744 17.5795 14.0621 17.5994 14.6077C17.6033 14.6355 17.6476 14.8014 17.7098 15.0336C17.865 15.6139 18.1309 16.6081 18.1526 16.8956H18.2285C19.4001 16.7272 20.4883 16.5089 21.4674 16.2491Z" fill="#525C69"/>
    <path d="M5.85065 16.8929H5.51565C4.44868 16.7402 3.45069 16.5461 2.541 16.317C2.22343 16.237 2.01052 15.9401 2.07937 15.6199C2.2036 15.0421 2.47488 14.307 2.93116 14.0075C3.2269 13.8135 3.34969 13.7799 3.65744 13.6129C3.86074 13.4978 4.07526 13.4019 4.29796 13.3264C4.41211 13.2284 4.50051 13.1061 4.556 12.9693C4.67309 12.827 4.827 12.7163 5.00254 12.6482L5.01588 12.2209L4.09247 11.9392C4.09247 11.9392 3.8543 11.8311 3.83104 11.8311C3.8679 11.7558 3.91036 11.6831 3.95809 11.6136C3.97561 11.5682 4.06267 11.2565 4.06267 11.2565C3.92805 11.4246 3.76968 11.574 3.59208 11.7005C3.74936 11.4136 3.88395 11.1159 3.9947 10.8098C4.06876 10.5264 4.12023 10.238 4.14868 9.94723C4.21214 9.40681 4.3109 8.8707 4.44437 8.34204C4.53927 8.07936 4.70827 7.84681 4.93274 7.67004C5.26184 7.44695 5.64807 7.31319 6.05039 7.28298H6.09666C6.499 7.31308 6.88526 7.44685 7.21431 7.67004C7.43849 7.84702 7.60735 8.0795 7.70242 8.34204C7.8362 8.87065 7.93504 9.40677 7.99837 9.94723C8.02275 10.2446 8.07179 10.5396 8.14504 10.8295C8.25589 11.1302 8.39292 11.4214 8.55471 11.7003C8.37832 11.5732 8.22112 11.4235 8.08756 11.2554C8.09007 11.2631 8.19936 11.5977 8.21693 11.6428C8.25759 11.7019 8.29184 11.7647 8.31915 11.8304C8.29615 11.8304 8.05771 11.9385 8.05771 11.9385L7.13431 12.2209L7.14765 12.6482C7.3231 12.7166 7.47697 12.8273 7.59418 12.9696C7.6386 13.0643 7.69309 13.1544 7.7568 13.2385C6.91575 13.5717 6.42346 14.0594 6.40385 14.605C6.39992 14.6326 6.35615 14.7962 6.29476 15.0256C6.13974 15.6051 5.87237 16.6046 5.85065 16.8929Z" fill="#525C69"/>
</svg>
