<svg width="12" height="12" viewBox="0 0 12 12" fill="none" xmlns="http://www.w3.org/2000/svg">
	<path fill-rule="evenodd" clip-rule="evenodd" d="M6.375 12C9.4816 12 12 9.4816 12 6.375C12 3.2684 9.4816 0.75 6.375 0.75C3.2684 0.75 0.75 3.2684 0.75 6.375C0.75 9.4816 3.2684 12 6.375 12ZM5.66678 8.22373V9.49423H6.96203V8.22373H5.66678ZM5.55152 5.50122H4.33877C4.34427 5.20422 4.39514 4.93197 4.49139 4.68447C4.58764 4.43697 4.72239 4.22247 4.89564 4.04097C5.06889 3.85947 5.27789 3.71785 5.52264 3.6161C5.76739 3.51435 6.04102 3.46347 6.34352 3.46347C6.73402 3.46347 7.05989 3.5171 7.32114 3.62435C7.58239 3.7316 7.79277 3.86497 7.95227 4.02447C8.11177 4.18397 8.22589 4.35585 8.29464 4.5401C8.36339 4.72435 8.39777 4.89622 8.39777 5.05572C8.39777 5.31973 8.36339 5.53697 8.29464 5.70747C8.22589 5.87797 8.14064 6.02372 8.03889 6.14472C7.93714 6.26572 7.82439 6.36885 7.70064 6.4541C7.57689 6.53935 7.46002 6.6246 7.35002 6.70985C7.24002 6.7951 7.14239 6.89272 7.05714 7.00272C6.97189 7.11272 6.91827 7.25022 6.89627 7.41522V7.72872H5.78252V7.35747C5.79902 7.12097 5.84439 6.92297 5.91864 6.76347C5.99289 6.60397 6.07952 6.46785 6.17852 6.3551C6.27752 6.24235 6.38202 6.14472 6.49202 6.06222C6.60202 5.97972 6.70377 5.89722 6.79727 5.81472C6.89077 5.73222 6.96639 5.64147 7.02414 5.54247C7.08189 5.44347 7.10802 5.31972 7.10252 5.17122C7.10252 4.91822 7.04064 4.73122 6.91689 4.61022C6.79314 4.48922 6.62127 4.42872 6.40127 4.42872C6.25277 4.42872 6.12489 4.4576 6.01764 4.51535C5.91039 4.5731 5.82239 4.6501 5.75364 4.74635C5.68489 4.8426 5.63402 4.95535 5.60102 5.0846C5.56802 5.21385 5.55152 5.35272 5.55152 5.50122Z" fill="#959ca4"/>
</svg>