<svg width="867" height="500" viewBox="0 0 867 500" fill="none" xmlns="http://www.w3.org/2000/svg">
<path fill-rule="evenodd" clip-rule="evenodd" d="M0 0L867 0L867 500L0 500L0 0Z" fill="#E1F4FA"/>
<mask id="mask0" mask-type="alpha" maskUnits="userSpaceOnUse" x="0" y="0" width="867" height="500">
<path fill-rule="evenodd" clip-rule="evenodd" d="M0 0L867 0L867 500L0 500L0 0Z" fill="white"/>
</mask>
<g mask="url(#mask0)">
<g opacity="0.292294">
<path fill-rule="evenodd" clip-rule="evenodd" d="M243.364 268.765C241.983 264.985 241.517 261.954 243.13 258.939C244.694 256.018 247.567 254.886 250.613 253.931C246.778 249.029 242.102 247.429 237.853 249.665C233.548 251.929 231.054 255.608 232.214 260.601C233.424 265.809 236.896 268.66 243.364 268.765M330.352 263.688H251.65C265.364 274.3 278.149 284.196 291.02 294.156C304.101 284.024 316.67 274.286 330.352 263.688M260.543 254.288H314.858C323.009 243.289 332.454 233.502 341.287 223.201C344.07 224.684 345.909 226.454 348.009 228.834C340.968 237.044 333.384 246.186 326.428 254.298C327.987 254.25 328.983 254.407 329.8 254.368C334.413 254.145 337.97 255.953 339.411 260.337C340.916 264.915 338.966 268.46 335.14 271.382C321.89 281.5 308.771 291.787 295.66 301.963V329.905H316.915C317.927 333.122 317.755 335.764 317.176 338.722H264.559V330.291H286.079V301.71C274.809 292.997 263.399 284.177 252.255 275.563C238.012 279.659 228.321 276.11 224.277 265.674C220.637 256.282 224.969 245.679 234.203 241.381C244.402 236.632 255.262 241.794 260.543 254.288" fill="white"/>
</g>
<g opacity="0.292294">
<path fill-rule="evenodd" clip-rule="evenodd" d="M581.953 119.717C576.563 104.956 574.742 93.1187 581.04 81.3464C587.147 69.939 598.37 65.5168 610.262 61.7896C595.288 42.6455 577.028 36.3989 560.433 45.1303C543.621 53.9704 533.885 68.3361 538.414 87.8364C543.138 108.175 556.695 119.309 581.953 119.717M921.65 99.8908H614.312C667.866 141.333 717.794 179.977 768.057 218.873C819.138 179.304 868.223 141.276 921.65 99.8908M649.04 63.184H861.146C892.976 20.2304 929.86 -17.9883 964.354 -58.2139C975.221 -52.4233 982.405 -45.512 990.603 -36.2158C963.107 -4.15692 933.494 31.5422 906.328 63.2231C912.418 63.0363 916.308 63.6488 919.498 63.4968C937.51 62.6237 951.402 69.687 957.03 86.8068C962.907 104.682 955.292 118.527 940.349 129.939C888.608 169.447 837.375 209.621 786.177 249.36V358.477H869.179C873.13 371.04 872.46 381.357 870.2 392.908H664.723V359.985H748.763V248.369C704.75 214.347 660.194 179.903 616.676 146.263C561.054 162.258 523.209 148.401 507.418 107.645C493.205 70.9685 510.121 29.5657 546.18 12.7804C586.007 -5.76421 628.416 14.392 649.04 63.184" fill="white"/>
</g>
</g>
</svg>
