<svg width="867" height="500" viewBox="0 0 867 500" fill="none" xmlns="http://www.w3.org/2000/svg">
<path fill-rule="evenodd" clip-rule="evenodd" d="M0 0L867 0L867 500L0 500L0 0Z" fill="#FAF4D8"/>
<mask id="mask0" mask-type="alpha" maskUnits="userSpaceOnUse" x="0" y="0" width="867" height="500">
<path fill-rule="evenodd" clip-rule="evenodd" d="M0 0L867 0L867 500L0 500L0 0Z" fill="white"/>
</mask>
<g mask="url(#mask0)">
<g opacity="0.341634">
<path fill-rule="evenodd" clip-rule="evenodd" d="M268.82 273.814L278.025 269.833V305.206H286.495V255.53C278.911 259.259 271.873 262.717 264.771 266.208C266.07 269.253 268.82 273.814 268.82 273.814M280.077 327.639C254.304 327.384 233.402 306.365 233.501 280.802C233.6 255.251 254.828 234.171 280.375 234.255C306.208 234.34 327.171 255.694 326.914 281.66C326.663 306.88 305.265 327.887 280.077 327.639M280.144 225.339C249.424 225.361 224.615 250.104 224.576 280.756C224.537 311.771 249.332 336.611 280.3 336.585C311.005 336.558 335.83 311.804 335.886 281.16C335.943 250.174 311.12 225.315 280.144 225.339" fill="white"/>
</g>
<g opacity="0.328753">
<path fill-rule="evenodd" clip-rule="evenodd" d="M681.364 139.436L717.31 123.889V262.024H750.387V68.0333C720.769 82.5945 693.286 96.1 665.551 109.732C670.624 121.621 681.364 139.436 681.364 139.436M725.324 349.626C624.676 348.632 543.053 266.551 543.44 166.721C543.827 66.9437 626.724 -15.3754 726.485 -15.0496C827.368 -14.7151 909.23 68.6727 908.226 170.075C907.248 268.563 823.686 350.595 725.324 349.626M725.585 -49.867C605.621 -49.7801 508.737 46.8439 508.584 166.543C508.432 287.659 605.26 384.665 726.193 384.561C846.101 384.457 943.045 287.789 943.263 168.12C943.484 47.1176 846.548 -49.9582 725.585 -49.867" fill="white"/>
</g>
</g>
</svg>
