<svg width="60" height="13" viewBox="0 0 60 13" fill="none" xmlns="http://www.w3.org/2000/svg">
	<path d="M20.5564 9.39548C19.1305 9.39548 17.9747 8.21423 17.9747 6.75676C17.9747 5.29953 19.1305 4.11809 20.5564 4.11809C21.9823 4.11809 23.1379 5.29953 23.1379 6.75676C23.1379 8.21423 21.9823 9.39548 20.5564 9.39548ZM23.1461 9.73023C23.1461 9.97177 23.5601 10.6506 24.0675 10.6506H24.3961C24.5235 10.6506 24.6278 10.5462 24.6278 10.4189V3.19796H24.6264C24.6198 3.07639 24.5191 2.97892 24.3961 2.97892H23.3779C23.2548 2.97892 23.1542 3.07639 23.1473 3.19796H23.1461V3.78476C22.5223 3.01631 21.5387 2.69751 20.5523 2.69751C18.3104 2.69751 16.4932 4.51477 16.4932 6.75676C16.4932 8.99874 18.3104 10.8163 20.5523 10.8163C21.5387 10.8163 22.6136 10.4337 23.146 9.72918L23.1461 9.73023ZM27.0604 8.69607C27.7401 9.1668 28.482 9.39548 29.1949 9.39548C29.8742 9.39548 30.5763 9.04331 30.5763 8.43055C30.5763 7.61229 29.0462 7.4849 28.085 7.15825C27.1234 6.83154 26.2952 6.15599 26.2952 5.06219C26.2952 3.38858 27.7866 2.69727 29.1784 2.69727C30.0604 2.69727 30.9703 2.98813 31.5602 3.40477C31.7635 3.55861 31.6397 3.73544 31.6397 3.73544L31.0765 4.53973C31.0133 4.63028 30.882 4.70266 30.7438 4.61044C30.3644 4.35969 29.9418 4.11802 29.1784 4.11802C28.2334 4.11802 27.8176 4.51032 27.8176 4.9963C27.8176 5.57933 28.4825 5.76265 29.2613 5.96142C30.6185 6.32707 32.0988 6.76689 32.0988 8.43055C32.0988 9.90514 30.7194 10.8166 29.1949 10.8166C28.0397 10.8166 27.0561 10.4871 26.2311 9.88178C26.0594 9.70983 26.1793 9.55013 26.1793 9.55013L26.7397 8.75003C26.8537 8.60027 26.9975 8.65256 27.0604 8.69607ZM39.7347 9.73023C39.7347 9.97177 40.1487 10.6506 40.6561 10.6506H40.9846C41.1121 10.6506 41.2164 10.5462 41.2164 10.4189V3.19796H41.2151C41.2083 3.07639 41.1077 2.97892 40.9846 2.97892H39.9664C39.8433 2.97892 39.7427 3.07639 39.736 3.19796H39.7347V3.78476C39.1109 3.01631 38.1272 2.69751 37.1411 2.69751C34.8991 2.69751 33.0816 4.51477 33.0816 6.75676C33.0816 8.99874 34.8991 10.8163 37.1411 10.8163C38.1272 10.8163 39.2022 10.4337 39.7346 9.72918L39.7347 9.73023ZM37.1449 9.39548C35.7191 9.39548 34.5633 8.21423 34.5633 6.75676C34.5633 5.29953 35.7191 4.11809 37.1449 4.11809C38.5707 4.11809 39.7265 5.29953 39.7265 6.75676C39.7265 8.21423 38.5707 9.39548 37.1449 9.39548ZM50.3388 9.97839L50.3383 6.24203H50.3385C50.3385 4.1357 49.0096 2.71482 46.8906 2.71482C45.8792 2.71482 45.0516 3.2997 44.7587 3.80207V3.79508L44.757 3.80083C44.7564 3.29234 44.344 2.99629 43.8356 2.99629H43.5087C43.3812 2.99629 43.2769 3.10068 43.2769 3.22813V9.74828V9.74939V10.4495H43.2783C43.2849 10.5711 43.3857 10.6686 43.5087 10.6686H44.5269C44.5424 10.6686 44.5578 10.6668 44.5726 10.664C44.5794 10.6626 44.5855 10.6599 44.5921 10.658C44.5998 10.6558 44.6077 10.6539 44.6148 10.6509C44.624 10.6472 44.6321 10.6421 44.6406 10.6374C44.6447 10.6349 44.6491 10.6331 44.6531 10.6306C44.663 10.624 44.6725 10.6161 44.6815 10.608C44.683 10.6065 44.6848 10.6055 44.6862 10.6041C44.6964 10.5944 44.7056 10.5837 44.7138 10.5724L44.7139 10.5722C44.7394 10.5372 44.7548 10.4951 44.7574 10.4495H44.7587V6.18405C44.7587 5.0528 45.6758 4.1357 46.8071 4.1357C47.9384 4.1357 48.8556 5.0528 48.8556 6.18405L48.8564 9.74951L48.8567 9.74828C48.8567 9.75137 48.8573 9.75471 48.8573 9.75798V10.4495H48.8586C48.8654 10.5711 48.9659 10.6686 49.0891 10.6686H50.1073C50.1229 10.6686 50.138 10.6668 50.1529 10.664C50.1589 10.6627 50.1645 10.6602 50.1702 10.6588C50.1788 10.6563 50.1873 10.6542 50.1953 10.6509C50.2035 10.6474 50.2111 10.6427 50.2189 10.6383C50.2238 10.6356 50.2288 10.6336 50.2334 10.6306C50.243 10.6243 50.2515 10.6169 50.26 10.6096C50.2621 10.6076 50.2645 10.606 50.2666 10.604C50.2763 10.5947 50.2847 10.5847 50.2927 10.5741C50.2932 10.5732 50.2938 10.5726 50.2945 10.5719C50.3196 10.5372 50.3349 10.4954 50.3376 10.4501C50.3376 10.4499 50.3377 10.4495 50.3377 10.4495H50.3389V9.97857L50.3388 9.97839ZM58.2793 9.73023C58.2793 9.97177 58.6927 10.6506 59.2002 10.6506H59.529C59.6563 10.6506 59.7608 10.5462 59.7608 10.4189V3.19796H59.7595C59.7527 3.07639 59.652 2.97892 59.529 2.97892H58.511C58.3874 2.97892 58.2873 3.07639 58.2805 3.19796H58.2793V3.78476C57.655 3.01631 56.6717 2.69751 55.6852 2.69751C53.4435 2.69751 51.626 4.51477 51.626 6.75676C51.626 8.99874 53.4435 10.8163 55.6852 10.8163C56.6717 10.8163 57.7465 10.4337 58.2786 9.72918L58.2793 9.73023ZM55.6895 9.39548C54.2637 9.39548 53.1079 8.21423 53.1079 6.75676C53.1079 5.29953 54.2637 4.11809 55.6895 4.11809C57.1148 4.11809 58.2706 5.29953 58.2706 6.75676C58.2706 8.21423 57.1148 9.39548 55.6895 9.39548Z" fill="#283343"/>
	<path d="M11.1277 6.8529C9.56437 6.8529 8.29729 8.11697 8.29729 9.67635C8.29729 11.2358 9.56437 12.5 11.1277 12.5C12.6908 12.5 13.9579 11.2358 13.9579 9.67635C13.9579 8.11697 12.6908 6.8529 11.1277 6.8529ZM3.77417 6.85309C2.21107 6.85309 0.943848 8.11697 0.943848 9.6765C0.943848 11.2358 2.21107 12.5 3.77417 12.5C5.33737 12.5 6.60464 11.2358 6.60464 9.6765C6.60464 8.11697 5.33737 6.85309 3.77417 6.85309ZM10.2811 3.32345C10.2811 4.88284 9.01406 6.1472 7.45097 6.1472C5.88772 6.1472 4.62059 4.88284 4.62059 3.32345C4.62059 1.76417 5.88772 0.5 7.45097 0.5C9.01406 0.5 10.2811 1.76417 10.2811 3.32345Z" fill="url(#paint0_radial_371_166186)"/>
	<defs>
		<radialGradient id="paint0_radial_371_166186" cx="0" cy="0" r="1" gradientUnits="userSpaceOnUse" gradientTransform="translate(7.45089 7.05826) scale(8.62357 7.9516)">
			<stop stop-color="#FFB900"/>
			<stop offset="0.6" stop-color="#F95D8F"/>
			<stop offset="0.9991" stop-color="#F95353"/>
		</radialGradient>
	</defs>
</svg>