<svg width="55" height="11" viewBox="0 0 55 11" fill="none" xmlns="http://www.w3.org/2000/svg">
	<path fill-rule="evenodd" clip-rule="evenodd" d="M10.2929 0H2.04634C1.70567 -2.83596e-07 1.37893 0.135217 1.13788 0.375952C0.896836 0.616687 0.761197 0.943254 0.760757 1.28392V9.51746C0.759939 9.68639 0.792422 9.85383 0.856351 10.0102C0.92028 10.1666 1.0144 10.3088 1.13333 10.4288C1.25226 10.5487 1.39368 10.6441 1.54948 10.7094C1.70529 10.7747 1.87243 10.8086 2.04136 10.8093H10.294C10.4628 10.8091 10.63 10.7756 10.7859 10.7108C10.9419 10.646 11.0835 10.5511 11.2027 10.4316C11.322 10.312 11.4165 10.1701 11.4809 10.014C11.5453 9.85793 11.5784 9.69068 11.5781 9.52182V1.28392C11.5777 0.943326 11.4421 0.616822 11.2011 0.376098C10.9602 0.135375 10.6335 0.000109587 10.2929 0V0ZM5.42618 7.78566C5.42569 7.89962 5.37995 8.00873 5.29904 8.08898C5.21812 8.16924 5.10865 8.21407 4.99468 8.21363H3.19072C3.07755 8.21308 2.9692 8.16776 2.88936 8.08756C2.80951 8.00737 2.76466 7.89882 2.76461 7.78566V2.4225C2.76455 2.30929 2.80937 2.20069 2.88924 2.12047C2.96911 2.04025 3.07752 1.99496 3.19072 1.99452H4.99302C5.10639 1.99496 5.215 2.04019 5.29516 2.12035C5.37533 2.20052 5.42056 2.30912 5.421 2.4225L5.42618 7.78566ZM9.58421 5.32314C9.58421 5.43667 9.53913 5.54555 9.45887 5.62584C9.37862 5.70613 9.26976 5.75127 9.15624 5.75133H7.34896C7.23555 5.75089 7.12691 5.70563 7.04674 5.62542C6.96657 5.54521 6.92136 5.43655 6.92098 5.32314V2.4225C6.92142 2.30912 6.96665 2.20052 7.04681 2.12035C7.12698 2.04019 7.23558 1.99496 7.34896 1.99452H9.15105C9.26429 1.9949 9.37275 2.04017 9.45267 2.1204C9.53258 2.20062 9.57743 2.30926 9.57737 2.4225L9.58421 5.32314Z" fill="url(#paint0_linear_371_166187)"/>
	<path d="M23.1733 0.782227V2.87254H20.6971V10.7996H18.3092V2.87254H15.833V0.782227H23.1733Z" fill="#293856"/>
	<path d="M26.2124 10.8194H24.0049V3.02173H26.2124V4.51467C26.6318 3.46277 27.3024 2.83719 28.4963 2.91349V5.22339C26.9366 5.10209 26.2124 5.48321 26.2124 6.73271V10.8194Z" fill="#293856"/>
	<path d="M40.557 10.87C39.1101 10.87 38.2002 10.1768 38.2002 8.53752V0H40.4234V8.23188C40.4234 8.70485 40.7345 8.87301 41.1166 8.87301C41.2266 8.87513 41.3366 8.86986 41.4459 8.85726V10.779C41.1552 10.8501 40.856 10.8808 40.557 10.87Z" fill="#293856"/>
	<path d="M45.1934 10.87C43.7465 10.87 42.835 10.1768 42.835 8.53751V0H45.0582V8.23188C45.0582 8.70485 45.3717 8.87301 45.7599 8.87301C45.8693 8.87533 45.9788 8.87007 46.0875 8.85725V10.779C45.7951 10.8508 45.4942 10.8814 45.1934 10.87Z" fill="#293856"/>
	<path d="M47.1533 6.91503C47.1533 4.50643 48.5397 2.8584 50.9271 2.8584C53.3146 2.8584 54.6721 4.50104 54.6721 6.91503C54.6721 9.32902 53.2997 10.9999 50.9275 10.9999C48.5554 10.9999 47.1533 9.30787 47.1533 6.91503ZM49.3177 6.91503C49.3177 8.08802 49.8099 9.01862 50.9275 9.01862C52.0452 9.01862 52.5096 8.08802 52.5096 6.91503C52.5096 5.74204 52.0327 4.8355 50.9275 4.8355C49.8224 4.8355 49.3177 5.74018 49.3177 6.91503Z" fill="#293856"/>
	<path d="M31.477 7.62376C32.0952 7.69162 32.7164 7.72802 33.3382 7.73283C35.0294 7.73283 36.4572 7.27894 36.4572 5.64148C36.4572 4.05233 34.9896 2.8584 33.2237 2.8584C30.8465 2.8584 29.3232 4.58274 29.3232 6.99134C29.3232 9.4918 30.6366 10.9766 33.6051 10.9766C34.4856 10.9838 35.3599 10.8276 36.1835 10.5159V8.64788C35.4211 8.89214 34.5632 9.13474 33.683 9.13474C32.5011 9.13495 31.6773 8.74658 31.477 7.62376ZM33.1787 4.56014C33.8043 4.56014 34.3067 4.98459 34.3067 5.56517C34.3067 6.31164 33.5188 6.54595 32.6104 6.54595C32.2239 6.54409 31.8382 6.51339 31.4563 6.45409C31.4851 6.08999 31.5896 5.7359 31.7629 5.41443C31.9022 5.15976 32.1067 4.94677 32.3556 4.79735C32.6044 4.64794 32.8885 4.56749 33.1787 4.56428V4.56014Z" fill="#293856"/>
	<defs>
		<linearGradient id="paint0_linear_371_166187" x1="6.16891" y1="10.8093" x2="6.16891" y2="0" gradientUnits="userSpaceOnUse">
			<stop stop-color="#0052CC"/>
			<stop offset="1" stop-color="#2684FF"/>
		</linearGradient>
	</defs>
</svg>