<svg width="521" height="631" viewBox="0 0 521 631" fill="none" xmlns="http://www.w3.org/2000/svg">
<g opacity="0.2" clip-path="url(#clip0_3196_430093)">
<mask id="mask0_3196_430093" style="mask-type:luminance" maskUnits="userSpaceOnUse" x="-53" y="-442" width="1136" height="1073">
<path fill-rule="evenodd" clip-rule="evenodd" d="M-52.9999 -442H1082V631H-52.9999V-442Z" fill="white"/>
</mask>
<g mask="url(#mask0_3196_430093)">
<circle opacity="0.226469" cx="495" cy="658" r="362" stroke="url(#paint0_angular_3196_430093)" stroke-width="2"/>
<ellipse opacity="0.183431" cx="495" cy="658" rx="441" ry="440" stroke="url(#paint1_angular_3196_430093)" stroke-width="2"/>
<path opacity="0.722772" fill-rule="evenodd" clip-rule="evenodd" d="M584.501 182.136C399.196 182.136 248.977 332.283 248.977 517.5C248.977 702.716 399.196 852.864 584.501 852.864C769.806 852.864 920.025 702.716 920.025 517.5C920.025 332.283 769.806 182.136 584.501 182.136ZM584.501 272.644C449.271 272.644 339.645 382.269 339.645 517.5C339.645 652.73 449.271 762.356 584.501 762.356C719.731 762.356 829.357 652.73 829.357 517.5C829.357 382.269 719.731 272.644 584.501 272.644Z" fill="url(#paint2_angular_3196_430093)"/>
<path opacity="0.722772" fill-rule="evenodd" clip-rule="evenodd" d="M244.293 495.47C146.475 551.945 112.938 676.986 169.386 774.757C225.835 872.529 350.892 906.006 448.71 849.53C546.527 793.055 580.064 668.014 523.616 570.243C467.168 472.472 342.11 438.994 244.293 495.47ZM271.877 543.246C200.492 584.46 176.034 675.74 217.248 747.125C258.462 818.509 349.741 842.968 421.126 801.754C492.51 760.54 516.969 669.26 475.755 597.875C434.541 526.491 343.261 502.032 271.877 543.246Z" fill="url(#paint3_angular_3196_430093)"/>
<path opacity="0.062407" fill-rule="evenodd" clip-rule="evenodd" d="M505.47 589.952C506.093 589.952 506.711 589.928 507.322 589.883C523.777 589.505 536.999 575.938 537 559.257C536.995 551.127 533.788 543.331 528.083 537.586C525.158 534.641 521.701 532.358 517.939 530.833C518.002 530.005 518.034 529.169 518.034 528.326C518.029 519.747 514.644 511.522 508.625 505.46C502.605 499.398 494.444 495.995 485.936 496C475.037 496.013 465.415 501.509 459.633 509.896C456.887 508.915 453.931 508.382 450.851 508.383C437.247 508.4 426.074 518.857 424.778 532.229C411.743 535.094 401.989 546.803 402 560.803C402.013 576.937 414.992 590.007 430.992 590C431.553 590 432.11 589.983 432.663 589.952H505.47Z" fill="#2FC6F6"/>
<path opacity="0.062407" fill-rule="evenodd" clip-rule="evenodd" d="M91.8228 285.963C91.3521 285.963 90.8854 285.946 90.4234 285.911C77.9911 285.626 68.0008 275.378 68.0001 262.779C68.0037 256.638 70.4273 250.75 74.7377 246.411C76.9471 244.186 79.5596 242.462 82.4018 241.31C82.3543 240.685 82.3301 240.054 82.3301 239.416C82.334 232.937 84.8913 226.724 89.4394 222.145C93.9876 217.566 100.154 214.996 106.582 215C114.816 215.01 122.086 219.161 126.455 225.496C128.53 224.755 130.764 224.352 133.09 224.353C143.369 224.366 151.811 232.264 152.79 242.364C162.639 244.529 170.009 253.373 170 263.947C169.99 276.133 160.184 286.005 148.095 286C147.671 286 147.25 285.988 146.832 285.963H91.8228Z" fill="#2FC6F6"/>
<path opacity="0.062407" fill-rule="evenodd" clip-rule="evenodd" d="M46.7437 74.9835C46.5314 74.9835 46.3209 74.9756 46.1126 74.9601C40.5059 74.8315 36.0004 70.2128 36.0001 64.5343C36.0018 61.7665 37.0947 59.1128 39.0386 57.1569C40.0351 56.1543 41.2132 55.3771 42.495 54.858C42.4736 54.5763 42.4626 54.2917 42.4626 54.0046C42.4644 51.0842 43.6177 48.2841 45.6688 46.2204C47.72 44.1566 50.5009 42.9982 53.3999 43C57.1133 43.0046 60.3919 44.8753 62.3623 47.7305C63.298 47.3966 64.3052 47.2151 65.3545 47.2156C69.99 47.2212 73.7973 50.7809 74.2387 55.3332C78.6802 56.3087 82.004 60.2948 82.0001 65.0607C81.9956 70.553 77.5734 75.0023 72.1214 75C71.9302 74.9999 71.7403 74.9944 71.5519 74.9835H46.7437Z" fill="#2FC6F6"/>
<path opacity="0.062407" fill-rule="evenodd" clip-rule="evenodd" d="M19.4806 643.978C19.1944 643.978 18.9108 643.967 18.63 643.946C11.0731 643.774 5.0005 637.567 5.00012 629.937C5.00232 626.218 6.47547 622.652 9.09551 620.023C10.4385 618.676 12.0265 617.632 13.7541 616.934C13.7252 616.556 13.7105 616.173 13.7105 615.787C13.7129 611.863 15.2673 608.101 18.0319 605.327C20.7964 602.554 24.5446 600.998 28.4519 601C33.4571 601.006 37.876 603.52 40.5317 607.357C41.7929 606.908 43.1504 606.664 44.5648 606.665C50.8126 606.672 55.9441 611.456 56.539 617.573C62.5255 618.884 67.0054 624.24 67.0001 630.644C66.994 638.024 61.0337 644.003 53.6853 644C53.4277 644 53.1717 643.992 52.9177 643.978H19.4806Z" fill="#2FC6F6"/>
</g>
</g>
<defs>
<radialGradient id="paint0_angular_3196_430093" cx="0" cy="0" r="1" gradientUnits="userSpaceOnUse" gradientTransform="translate(495 658) scale(362)">
<stop stop-color="#D3F003"/>
<stop offset="1" stop-color="#9AB800"/>
</radialGradient>
<radialGradient id="paint1_angular_3196_430093" cx="0" cy="0" r="1" gradientUnits="userSpaceOnUse" gradientTransform="translate(495 658) scale(441 440)">
<stop stop-color="#2FC6F6"/>
<stop offset="1" stop-color="#55D0E0"/>
</radialGradient>
<radialGradient id="paint2_angular_3196_430093" cx="0" cy="0" r="1" gradientUnits="userSpaceOnUse" gradientTransform="translate(584.501 517.5) rotate(30) scale(335.54 335.46)">
<stop stop-color="#2FC6F6"/>
<stop offset="0.515625" stop-color="#75D9BA"/>
<stop offset="1" stop-color="#B7EB81"/>
</radialGradient>
<radialGradient id="paint3_angular_3196_430093" cx="0" cy="0" r="1" gradientUnits="userSpaceOnUse" gradientTransform="translate(346.501 672.5) scale(204.524 204.476)">
<stop stop-color="#DAF400"/>
<stop offset="1" stop-color="#B3E600"/>
</radialGradient>
<clipPath id="clip0_3196_430093">
<rect width="990" height="663" fill="white" transform="translate(0.00012207 -32)"/>
</clipPath>
</defs>
</svg>
