<svg width="48" height="70" viewBox="0 0 48 70" fill="none" xmlns="http://www.w3.org/2000/svg">
<path d="M5.83284 0C4.14706 1.43331 3.00598 1.94317 2.80345 2.67512C2.03816 5.39739 1.09014 8.17037 1.03416 10.9853C0.633504 18.5295 2.72277 25.479 5.99967 32.0988C11.5614 43.3935 19.7889 52.5002 29.2471 60.6861C30.2572 61.564 31.176 62.4674 32.2094 63.4354C32.2327 63.5255 32.1878 63.731 32.0749 64.0519C29.9255 64.0694 27.6846 64.1123 25.5584 64.2199C24.4156 64.3441 23.1366 64.6992 22.1334 65.3638C21.5404 65.7215 20.8828 66.9659 21.0457 67.5964C21.2552 68.407 22.1507 69.2203 22.885 69.7887C23.4581 70.1122 24.3036 69.974 25.081 69.9513C30.9115 69.7806 36.7886 69.7902 42.6872 69.5041C47.717 69.2662 48.8744 67.3038 47.4135 62.7862C45.906 58.0886 44.5813 53.3401 43.1885 48.7072C42.7248 47.2914 42.0551 45.8362 41.4535 44.2657C38.0586 47.0422 38.0586 47.0422 40.4583 62.0142C33.0737 57.307 27.4681 51.5268 22.09 45.4903C16.7119 39.4539 12.4283 32.7274 9.12468 25.2463C5.75124 17.4949 5.32621 9.40769 5.83284 0Z" fill="#BBED21"/>
</svg>
