<svg width="22" height="19" viewBox="0 0 22 19" fill="none" xmlns="http://www.w3.org/2000/svg">
<path fill-rule="evenodd" clip-rule="evenodd" d="M17.3682 12.55C17.3432 12.5956 17.3301 12.6466 17.3301 12.6985L17.3302 16.0043C17.3303 17.2713 18.3768 18.2989 19.6669 18.2989C20.9558 18.2989 22.0001 17.2733 22.0001 16.0076L21.9995 5.34547C21.9995 5.02004 21.5568 4.91045 21.3997 5.19698L17.3682 12.55Z" fill="#C9CBCF"/>
<path d="M7.18134 3.76764C8.32221 1.68683 10.9477 0.899258 13.0455 2.00855C13.1766 2.07788 13.2251 2.23951 13.1538 2.36956L5.13303 16.9984C4.52694 18.1039 3.13216 18.5223 2.01769 17.933C0.903225 17.3436 0.491103 15.9698 1.09719 14.8644L7.18134 3.76764Z" fill="#2FC6F6"/>
<path d="M14.7809 3.76764C15.9218 1.68683 18.5473 0.899258 20.6451 2.00855C20.7762 2.07788 20.8247 2.23951 20.7534 2.36956L12.7326 16.9984C12.1266 18.1039 10.7318 18.5223 9.6173 17.933C8.50283 17.3436 8.09071 15.9698 8.6968 14.8644L14.7809 3.76764Z" fill="#9DCF00"/>
</svg>
