<svg xmlns="http://www.w3.org/2000/svg" width="39" height="39" viewBox="0 0 39 39">
    <g fill="none" fill-rule="evenodd">
        <circle cx="19.5" cy="19.5" r="19.5" fill="#2FC6F6"/>
        <path fill="#FFFFFF" d="M17.3704841,10.9998851 C17.1751072,11.6379354 17.0528788,12.3079644 17.0135778,13.0001964 L12,13 L12,28 L24,28 L24.0001311,21.8479143 C24.483571,21.933442 24.9811372,21.9780586 25.4891248,21.9780586 C25.6609683,21.9780586 25.8316194,21.9729523 26.0009346,21.9628833 L26,30 L10,30 L10,11 L17.3704841,10.9998851 Z M20.0420283,20.0004377 C20.3443253,20.2535715 20.6645121,20.4860478 21.0004171,20.6956944 L21,22 L14,22 L14,20 L20.0420283,20.0004377 Z M25.4890926,7 C29.0727505,7 31.9779759,9.90498994 31.9779759,13.4890664 C31.9779759,17.0725936 29.0727505,19.9778189 25.4890926,19.9778189 C21.9052515,19.9778189 19,17.0725936 19,13.4890664 C19,9.90498994 21.9052515,7 25.4890926,7 Z M17.3775222,16.0009096 C17.597479,16.7119449 17.9083652,17.3830408 18.2965951,18.0006098 L14,18 L14,16 L17.3775222,16.0009096 Z M25.7379612,11.8263744 L23.4439387,11.8263744 L23.4439387,12.7008185 L24.5909387,12.7001434 L24.5909387,16.1431434 L23.4439387,16.1440587 L23.4439387,17.0048688 L27.350003,17.0048688 L27.350003,16.1440587 L26.3709387,16.1431434 L26.3712222,11.8280106 L25.7379387,11.8271434 L25.7379612,11.8263744 Z M25.393592,8.97714343 C24.8514815,8.97714343 24.4120142,9.41239042 24.4120142,9.94929478 C24.4120142,10.4861991 24.8514815,10.9214461 25.393592,10.9214461 C25.9357024,10.9214461 26.3751697,10.4861991 26.3751697,9.94929478 C26.3751697,9.41239042 25.9357024,8.97714343 25.393592,8.97714343 Z"/>
    </g>
</svg>
