<?xml version="1.0" encoding="UTF-8"?>
<svg width="39px" height="39px" viewBox="0 0 39 39" version="1.1" xmlns="http://www.w3.org/2000/svg" xmlns:xlink="http://www.w3.org/1999/xlink">
    <title>Group 5</title>
    <g id="Symbols" stroke="none" stroke-width="1" fill="none" fill-rule="evenodd">
        <g id="Сущности-CRM-01" transform="translate(-38.000000, -505.000000)">
            <g id="Group-5" transform="translate(38.000000, 505.000000)">
                <g id="Icon-Round" fill="#2FC6F6">
                    <circle id="Oval" cx="19.5" cy="19.5" r="19.5"></circle>
                </g>
                <g id="Group-4" transform="translate(19.000000, 7.000000)"></g>
                <path d="M22,11 L26,15.5 L26,30 L10,30 L10,11 L22,11 Z M21.1018679,13 L12,13 L12,28 L24,28 L24,16.2603986 L21.1018679,13 Z M21,20 L21,22 L14,22 L14,20 L21,20 Z M21,16 L21,18 L14,18 L14,16 L21,16 Z" id="Combined-Shape" fill="#FFFFFF"></path>
                <path d="M25.4890926,6 C23.4209942,6 21.5486989,6.83820344 20.1934391,8.19345772 C18.838224,9.54866737 18,11.4208998 18,13.4890664 C18,15.5569873 18.8382558,17.4291998 20.1935486,18.7844216 C21.5487992,20.1396012 23.4210521,20.9778189 25.4890926,20.9778189 C27.5570493,20.9778189 29.429264,20.1395936 30.7844912,18.7843936 C32.1397365,17.4291756 32.9779759,15.5569742 32.9779759,13.4890664 C32.9779759,11.4209129 32.1397683,9.54869159 30.7846007,8.19348572 C29.4293643,6.83821108 27.5571072,6 25.4890926,6 Z" id="Combined-Shape" stroke="#2FC6F6" stroke-width="2" fill="#FFFFFF" fill-rule="nonzero"></path>
            </g>
        </g>
    </g>
</svg>