ы<?xml version="1.0" encoding="UTF-8"?>
<svg width="11px" height="16px" viewBox="0 0 11 16" version="1.1" xmlns="http://www.w3.org/2000/svg" xmlns:xlink="http://www.w3.org/1999/xlink">
    <g transform="translate(-7, -4)" fill="#525C69">
        <path d="M12.50021,4 C9.45059099,4 7,6.44963101 7,9.50021 C7,12.0807062 8.57419649,15.2751791 11.7225895,19.0836285 L11.7226156,19.0836069 C12.0744952,19.5092576 12.704808,19.5690609 13.1304587,19.2171813 C13.181182,19.175249 13.2276418,19.1284118 13.2691623,19.0773509 C16.4233341,15.198432 18.00042,12.0060516 18.00042,9.50021 C18.00042,6.44963101 15.549829,4 12.50021,4 Z M12.50021,11.99952 C11.100558,11.99952 9.99994,10.899862 9.99994,9.49925001 C9.99994,8.09959801 11.099598,6.99898002 12.50021,6.99898002 C13.899862,6.99898002 15.00048,8.09863803 15.00048,9.49925001 C15.00048,10.899838 13.899886,11.99952 12.50021,11.99952 Z" />
    </g>
</svg>