<svg xmlns="http://www.w3.org/2000/svg" xmlns:xlink="http://www.w3.org/1999/xlink" width="14" height="13" viewBox="0 0 14 13"><defs><path id="a" d="M7.294 8.144l.922-1.415v1.418h-.922v-.003zm.922 1.53h.744V8.84h.499v-.694h-.5V5.522h-.645L6.574 8.15v.694h1.642v.832-.004zM4.366 7.89a5.23 5.23 0 0 0-.865.992c-.142.241-.232.511-.261.791h2.694v-.736H4.407c.045-.078.098-.152.157-.22a8.21 8.21 0 0 1 .462-.458c.18-.162.348-.34.503-.528.126-.16.23-.338.308-.528.065-.17.097-.35.097-.533a1.1 1.1 0 0 0-.34-.821 1.277 1.277 0 0 0-.932-.33 1.411 1.411 0 0 0-.9.284c-.264.238-.42.579-.43.94l.762.08a.781.781 0 0 1 .164-.498.572.572 0 0 1 .764-.006c.098.11.148.258.139.407a.9.9 0 0 1-.164.486 5.577 5.577 0 0 1-.63.682V7.89zm-2.725 2.694h9.814V4.675H1.64v5.91zm9.938-9.286h-.942v.422c0 .7-.55 1.267-1.227 1.267S8.183 2.419 8.183 1.72v-.422h-3.27v.422c0 .7-.55 1.267-1.228 1.267-.678 0-1.227-.568-1.227-1.267v-.422h-.942C.68 1.297.002 1.994 0 2.857c0 .043.002.086.005.13v8.442c0 .466.366.844.818.844h11.45a.831.831 0 0 0 .818-.844V2.987c.015-.89-.651-1.635-1.512-1.689zm-7.894.876a.611.611 0 0 0 .601-.62v-.93A.612.612 0 0 0 3.69 0a.611.611 0 0 0-.605.616v.937c0 .343.27.62.601.62zm5.725-.06a.577.577 0 0 0 .568-.586v-.88A.577.577 0 0 0 9.41.061a.577.577 0 0 0-.567.585v.88c0 .323.252.586.566.587h.001z"/></defs><use fill="#B4B4B4" fill-rule="evenodd" xlink:href="#a"/></svg>