<svg width="66" height="66" viewBox="0 0 66 66" fill="none" xmlns="http://www.w3.org/2000/svg">
	<g filter="url(#filter0_d_287_221749)">
		<path fill-rule="evenodd" clip-rule="evenodd" d="M48.0062 21.1491L36.7057 15.1262C34.415 13.9053 31.585 13.9053 29.2943 15.1262L17.9938 21.1491C15.7094 22.3667 14.3333 24.596 14.3333 26.977V39.023C14.3333 41.404 15.7094 43.6333 17.9938 44.8509L29.2943 50.8738C31.585 52.0947 34.415 52.0947 36.7057 50.8738L48.0062 44.8509C50.2906 43.6333 51.6667 41.404 51.6667 39.023V26.977C51.6667 24.596 50.2906 22.3667 48.0062 21.1491ZM37.8497 13.1996C34.8487 11.6001 31.1513 11.6001 28.1503 13.1996L16.8497 19.2226C13.8487 20.8221 12 23.7781 12 26.977V39.023C12 42.2219 13.8487 45.1779 16.8497 46.7774L28.1503 52.8004C31.1513 54.3999 34.8487 54.3999 37.8497 52.8004L49.1503 46.7774C52.1513 45.1779 54 42.2219 54 39.023V26.977C54 23.7781 52.1513 20.8221 49.1503 19.2226L37.8497 13.1996Z" fill="url(#paint0_linear_287_221749)"/>
	</g>
	<g filter="url(#filter1_d_287_221749)">
		<path fill-rule="evenodd" clip-rule="evenodd" d="M39.436 36.5127C39.1344 36.3061 38.791 36.1711 38.4594 36.0244C37.526 35.6077 36.591 35.2011 35.656 34.7911C35.4544 34.7027 35.3027 34.5477 35.2194 34.3261C35.126 34.0827 35.046 33.8344 34.9677 33.5861C34.9027 33.3727 34.941 33.1927 35.0994 33.0377C35.191 32.9494 35.2594 32.8327 35.3344 32.7244C35.9177 31.8761 36.2577 30.9227 36.3677 29.8527C36.456 28.9961 36.4644 28.1511 36.2827 27.3111C36.0477 26.2061 35.5244 25.3544 34.546 24.9361C33.8727 24.6477 33.1777 24.6011 32.4677 24.7477C31.311 24.9877 30.5594 25.7377 30.2027 26.9827C29.916 27.9827 29.926 29.0111 30.056 30.0394C30.2077 31.2261 30.6594 32.2511 31.376 33.1377C31.4344 33.2111 31.4727 33.3294 31.476 33.4294C31.4894 34.0477 31.1177 34.6427 30.5294 34.9044C29.5444 35.3411 28.5627 35.7827 27.5644 36.1794C26.8027 36.4844 26.316 37.0561 26.141 37.9161C26.0144 38.5361 25.9827 39.1811 25.901 39.8127C25.871 40.0461 25.956 40.1944 26.1344 40.2877C26.3377 40.3927 26.5394 40.5077 26.751 40.5861C27.8677 40.9944 29.0294 41.1144 30.191 41.1994C31.1844 41.2694 32.1794 41.2794 33.4627 41.3294C34.4194 41.2711 35.6644 41.2261 36.9027 41.1144C37.6444 41.0477 38.381 40.8977 39.1144 40.7444C39.5577 40.6511 39.9927 40.4927 40.3727 40.1944C40.4677 40.1194 40.5194 40.0444 40.506 39.9094C40.4394 39.3011 40.4077 38.6861 40.3044 38.0861C40.1977 37.4494 39.951 36.8661 39.436 36.5127ZM27.7794 33.3084C27.841 33.12 27.8794 32.8917 27.8127 32.82C27.011 31.9334 27.2094 31.75 27.106 29.72C27.041 28.4167 27.1577 27.3434 27.386 26.5517C26.8027 26.345 26.2044 26.305 25.5894 26.4184C24.546 26.6117 23.8694 27.2134 23.5494 28.215C23.2894 29.0184 23.2977 29.845 23.4177 30.6717C23.5527 31.625 23.961 32.45 24.606 33.1617C24.6594 33.22 24.6927 33.3167 24.6944 33.3967C24.7094 33.8934 24.3727 34.3717 23.8444 34.5817C22.956 34.9334 22.0694 35.2884 21.171 35.6084C20.486 35.8517 20.046 36.31 19.8877 37.0034C19.7744 37.5017 19.746 38.02 19.6727 38.5284C19.6444 38.715 19.7227 38.835 19.8827 38.9084C20.066 38.9934 20.246 39.0867 20.4377 39.15C20.9794 39.325 21.5327 39.43 22.0894 39.5034C21.9994 39.415 21.9427 39.305 21.9677 39.1467C22.0577 38.515 22.0944 37.87 22.236 37.25C22.4327 36.39 22.9777 35.8184 23.831 35.5134C24.9494 35.1167 26.0527 34.675 27.156 34.2384C27.8127 33.9784 27.716 33.4984 27.7794 33.3084ZM46.4526 37.0034C46.2943 36.31 45.8576 35.8517 45.1693 35.6084C44.2709 35.2884 43.3859 34.9334 42.4993 34.5817C41.9693 34.3717 41.6326 33.8934 41.6459 33.3967C41.6493 33.3167 41.6843 33.22 41.7359 33.1617C42.3826 32.45 42.7893 31.625 42.9259 30.6717C43.0426 29.845 43.0509 29.0184 42.7943 28.215C42.4726 27.2134 41.7943 26.6117 40.7526 26.4184C40.1393 26.305 39.5393 26.345 38.9559 26.5517C39.1859 27.3434 39.3026 28.4167 39.2359 29.72C39.1326 31.75 39.3326 31.9334 38.5276 32.82C38.4626 32.8917 38.4993 33.12 38.5643 33.3084C38.6276 33.4984 38.5276 33.9784 39.1876 34.2384C40.2909 34.675 41.3926 35.1167 42.5109 35.5134C43.3626 35.8184 43.9093 36.39 44.1059 37.25C44.2476 37.87 44.2843 38.515 44.3759 39.1467C44.3993 39.305 44.3409 39.415 44.2526 39.5034C44.8109 39.43 45.3643 39.325 45.9043 39.15C46.0943 39.0867 46.2759 38.9934 46.4593 38.9084C46.6193 38.835 46.6959 38.715 46.6693 38.5284C46.5959 38.02 46.5659 37.5017 46.4526 37.0034Z" fill="url(#paint1_linear_287_221749)"/>
	</g>
	<defs>
		<filter id="filter0_d_287_221749" x="0.7" y="0.7" width="64.6" height="64.6" filterUnits="userSpaceOnUse" color-interpolation-filters="sRGB">
			<feFlood flood-opacity="0" result="BackgroundImageFix"/>
			<feColorMatrix in="SourceAlpha" type="matrix" values="0 0 0 0 0 0 0 0 0 0 0 0 0 0 0 0 0 0 127 0" result="hardAlpha"/>
			<feOffset/>
			<feGaussianBlur stdDeviation="5.65"/>
			<feComposite in2="hardAlpha" operator="out"/>
			<feColorMatrix type="matrix" values="0 0 0 0 0 0 0 0 0 0 0 0 0 0 0 0 0 0 0.05 0"/>
			<feBlend mode="normal" in2="BackgroundImageFix" result="effect1_dropShadow_287_221749"/>
			<feBlend mode="normal" in="SourceGraphic" in2="effect1_dropShadow_287_221749" result="shape"/>
		</filter>
		<filter id="filter1_d_287_221749" x="1.7" y="1.7" width="62.6" height="62.6" filterUnits="userSpaceOnUse" color-interpolation-filters="sRGB">
			<feFlood flood-opacity="0" result="BackgroundImageFix"/>
			<feColorMatrix in="SourceAlpha" type="matrix" values="0 0 0 0 0 0 0 0 0 0 0 0 0 0 0 0 0 0 127 0" result="hardAlpha"/>
			<feOffset/>
			<feGaussianBlur stdDeviation="5.65"/>
			<feComposite in2="hardAlpha" operator="out"/>
			<feColorMatrix type="matrix" values="0 0 0 0 0 0 0 0 0 0 0 0 0 0 0 0 0 0 0.05 0"/>
			<feBlend mode="normal" in2="BackgroundImageFix" result="effect1_dropShadow_287_221749"/>
			<feBlend mode="normal" in="SourceGraphic" in2="effect1_dropShadow_287_221749" result="shape"/>
		</filter>
		<linearGradient id="paint0_linear_287_221749" x1="16.9412" y1="17.8333" x2="42.013" y2="45.9682" gradientUnits="userSpaceOnUse">
			<stop stop-color="#1BCE42"/>
			<stop offset="0.54" stop-color="#00B65F"/>
			<stop offset="1" stop-color="#26D357"/>
		</linearGradient>
		<linearGradient id="paint1_linear_287_221749" x1="22.8443" y1="26.981" x2="31.2988" y2="42.3586" gradientUnits="userSpaceOnUse">
			<stop stop-color="#1BCE42"/>
			<stop offset="0.54" stop-color="#00B65F"/>
			<stop offset="1" stop-color="#26D357"/>
		</linearGradient>
	</defs>
</svg>
