<svg width="20" height="20" viewBox="0 0 20 20" fill="none" xmlns="http://www.w3.org/2000/svg">
<g id="layout - icon">
<path id="icon shape fx" fill-rule="evenodd" clip-rule="evenodd" d="M14.7739 9.87665L12.3418 9.87825L15.4204 12.999L18.5518 9.87825H16.5357C16.5357 6.47371 13.7753 3.70203 10.3708 3.70203C8.79571 3.70203 7.3583 4.29277 6.26866 5.26432L7.51789 6.5128C8.28624 5.85809 9.28262 5.463 10.3709 5.463C12.8023 5.463 14.7739 7.44519 14.7739 9.87665ZM2.12988 9.8778L4.20613 9.8779C4.20613 13.2824 6.96644 16.0314 10.371 16.0314C11.9002 16.0314 13.2991 15.4745 14.3768 14.5526L13.1261 13.3011C12.372 13.9069 11.414 14.2689 10.3709 14.2689C7.93949 14.2689 5.96789 12.3085 5.96789 9.87703H8.27143L5.20172 6.79692L2.12988 9.8778Z" fill="#525C69"/>
</g>
</svg>
