<svg width="20" height="20" viewBox="0 0 20 20" fill="none" xmlns="http://www.w3.org/2000/svg">
<path fill-rule="evenodd" clip-rule="evenodd" d="M9.99994 18.2899C5.42194 18.2899 1.71094 14.5779 1.71094 9.99994C1.71094 5.42194 5.42194 1.71094 9.99994 1.71094C14.5789 1.71094 18.2899 5.42194 18.2899 9.99994C18.2899 14.5779 14.5789 18.2899 9.99994 18.2899ZM10.0004 0.524902C4.76839 0.524902 0.525391 4.7679 0.525391 9.9999C0.525391 15.2319 4.76839 19.4749 10.0004 19.4749C15.2324 19.4749 19.4754 15.2319 19.4754 9.9999C19.4754 4.7679 15.2324 0.524902 10.0004 0.524902Z" fill="#525C69"/>
<rect x="9.52539" y="4.5249" width="1" height="6" fill="#525C69"/>
<rect x="15.5254" y="9.5249" width="1" height="6" transform="rotate(90 15.5254 9.5249)" fill="#525C69"/>
</svg>
