<?xml version="1.0" encoding="UTF-8"?>
<svg width="39px" height="39px" viewBox="0 0 39 39" version="1.1" xmlns="http://www.w3.org/2000/svg" xmlns:xlink="http://www.w3.org/1999/xlink">
    <title>Oval 12</title>
    <defs>
        <rect id="path-1" x="0" y="63" width="876" height="1092"></rect>
        <filter x="-2.1%" y="-1.3%" width="104.2%" height="103.4%" filterUnits="objectBoundingBox" id="filter-2">
            <feOffset dx="0" dy="4" in="SourceAlpha" result="shadowOffsetOuter1"></feOffset>
            <feGaussianBlur stdDeviation="5.5" in="shadowOffsetOuter1" result="shadowBlurOuter1"></feGaussianBlur>
            <feColorMatrix values="0 0 0 0 0   0 0 0 0 0   0 0 0 0 0  0 0 0 0.195394449 0" type="matrix" in="shadowBlurOuter1"></feColorMatrix>
        </filter>
    </defs>
    <g id="03-Финал-(Разное)" stroke="none" stroke-width="1" fill="none" fill-rule="evenodd">
        <g id="Разделы-01" transform="translate(-320.000000, -245.000000)">
            <g id="Group-9" transform="translate(320.000000, 239.412354)">
                <g id="Persons-/-Default-/-01" transform="translate(0.000000, 5.587646)">
                    <g id="01">
                        <circle id="Oval-12" fill="#2FC6F6" cx="19.5" cy="19.5" r="19.5"></circle>
                        <path d="M16.89188,8.58361172 C16.070043,7.28156045 23.0010858,6.19926468 23.4614451,10.1859955 C23.6425945,11.3878042 23.6425945,12.6092366 23.4614451,13.8110454 C23.4614451,13.8110454 24.4969037,13.6920112 23.8056651,15.6606541 C23.8056651,15.6606541 23.4250641,17.0776191 22.8406363,16.7594315 C22.8406363,16.7594315 22.9353202,18.5499809 22.015068,18.8535182 C22.015068,18.8535182 22.0808336,19.8071654 22.0808336,19.8717186 L22.0808336,19.8717186 L22.8499648,19.9866324 C22.8499648,19.9866324 22.8266436,20.7818726 22.9800967,20.8679435 C23.6817743,21.3211423 24.4508968,21.6646353 25.2599714,21.8861439 C27.6480561,22.4923028 28.8607553,23.5324788 28.8607553,24.4430906 L28.8607553,24.4430906 L29.8799047,29.6334848 L20.4375795,29.6328459 C20.943041,28.6088664 21.2270459,27.4560054 21.2270459,26.2368116 C21.2270459,23.3769624 19.6643782,20.8820939 17.34633,19.5594931 C17.3332532,19.414455 17.3067322,19.2010729 17.260354,18.8924332 C17.260354,18.8924332 16.3242434,18.6497865 16.2808661,16.7864431 C16.2808661,16.7864431 15.5770341,17.0203911 15.5345897,15.8913973 C15.5047386,15.1268314 14.9049189,14.4625288 15.7678011,13.9131401 L15.7678011,13.9131401 L15.3284308,12.7415687 C15.3284308,12.7415687 14.8662058,8.21735257 16.89188,8.58361172 Z" id="Combined-Shape" fill="#FFFFFF"></path>
                        <g id="Icons-/-·-Set-1-/-Icon-18" transform="translate(8.000000, 21.000000)" fill="#FFFFFF">
                            <path d="M5.656345,0.0497536756 C8.5176551,0.0497536756 10.8372052,2.36930381 10.8372052,5.23061391 C10.8372052,6.26897169 10.5317357,7.23598324 10.0057589,8.04668613 C10.0740833,8.08716831 10.138455,8.13728546 10.1975016,8.19633214 L12.9630706,10.9619011 C13.3552134,11.3540439 13.3542945,11.990752 12.9591413,12.3859052 L12.8116363,12.5334102 C12.4173234,12.9277231 11.783066,12.9327733 11.3876322,12.5373395 L8.62206323,9.77177056 C8.56321223,9.71291956 8.51321402,9.64856031 8.47207255,9.58033594 C7.66171432,10.1060046 6.69470278,10.4114741 5.656345,10.4114741 C2.7950349,10.4114741 0.475484761,8.09192401 0.475484761,5.23061391 C0.475484761,2.36930381 2.7950349,0.0497536756 5.656345,0.0497536756 Z M5.656345,1.69516766 C3.70377195,1.69516766 2.12089875,3.27804086 2.12089875,5.23061391 C2.12089875,7.18318696 3.70377195,8.76606016 5.656345,8.76606016 C7.60891805,8.76606016 9.19179125,7.18318696 9.19179125,5.23061391 C9.19179125,3.27804086 7.60891805,1.69516766 5.656345,1.69516766 Z" id="Icon"></path>
                        </g>
                    </g>
                </g>
            </g>
        </g>
        <g id="Group-14" transform="translate(-331.000000, -2170.000000)"></g>
    </g>
</svg>