<svg width="130" height="121" viewBox="0 0 130 121" fill="none" xmlns="http://www.w3.org/2000/svg">
<g opacity="0.3" filter="url(#filter0_d_11399_869363)">
<path fill-rule="evenodd" clip-rule="evenodd" d="M98.0709 107.958H31.7539C31.1864 107.958 30.6239 107.938 30.0669 107.898C15.0791 107.569 4.00173 95.7616 4.00098 81.2443C4.00533 74.1685 7.17341 67.8377 11.7816 62.2995C13.9844 59.6523 15.5797 57.9073 18.8009 56.3153C18.7436 55.5953 18.7144 54.8677 18.7144 54.1336C18.7192 46.6676 21.8021 39.5092 27.2852 34.2331C32.7682 28.9571 40.2022 25.9956 47.9516 26.0002C57.8785 26.0118 66.5367 31.1866 71.8039 38.4862C75.2717 37.6324 79.5597 37.3595 82.3648 37.361C94.7563 37.3753 104.934 46.4758 106.114 58.1138C117.987 60.6076 126.011 70.4059 126.001 82.5901C125.989 96.6312 114.168 108.006 99.5933 108C99.0823 108 98.5747 107.986 98.0709 107.958Z" fill="url(#paint0_linear_11399_869363)" shape-rendering="crispEdges"/>
</g>
<g filter="url(#filter1_d_11399_869363)">
<path d="M24 28C24 25.2386 26.2386 23 29 23H100C102.761 23 105 25.2386 105 28V86C105 88.7614 102.761 91 100 91H29C26.2386 91 24 88.7614 24 86V28Z" fill="white"/>
<path opacity="0.4" d="M52.9299 59.8707C52.9299 59.8707 53.5492 62.069 54 64H35.0002C34.9987 63.9179 35.0063 63.8346 35.0237 63.7514C35.2964 62.4434 35.5954 61.0542 35.7516 60.4727C36.0834 59.2371 37.9425 58.319 39.6525 57.6133C40.0995 57.429 40.3692 57.2818 40.6417 57.133C40.9086 56.9873 41.1783 56.8401 41.62 56.655C41.6698 56.4279 41.6898 56.1958 41.6796 55.9641L42.4373 55.8777C42.4373 55.8777 42.5369 56.0513 42.3767 55.0304C42.3767 55.0304 41.5263 54.8166 41.4869 53.1911C41.4869 53.1911 40.848 53.3953 40.8095 52.4103C40.8016 52.2132 40.7488 52.0239 40.6982 51.8427C40.5771 51.4085 40.4688 51.0204 41.0224 50.6828L40.6227 49.6619C40.6227 49.6619 40.2032 45.7129 42.0454 46.0342C41.2982 44.8997 47.6012 43.9557 48.0198 47.4339C48.1845 48.4824 48.1845 49.5479 48.0198 50.5964C48.0198 50.5964 48.9615 50.4928 48.3328 52.2099C48.3328 52.2099 47.9868 53.4441 47.4553 53.1656C47.4553 53.1656 47.5416 54.7276 46.7045 54.9924C46.7045 54.9924 46.7641 55.8241 46.7641 55.8807L47.464 55.9831C47.464 55.9831 47.4448 56.6766 47.5824 56.7518C48.2204 57.1471 48.9197 57.4468 49.6554 57.6401C51.8285 58.1687 52.9299 59.0761 52.9299 59.8707Z" fill="#A8ADB4"/>
<path opacity="0.4" d="M52.9299 86.8707C52.9299 86.8707 53.5492 89.069 54 91H35.0002C34.9987 90.9179 35.0063 90.8346 35.0237 90.7514C35.2964 89.4434 35.5954 88.0542 35.7516 87.4727C36.0834 86.2371 37.9425 85.319 39.6525 84.6133C40.0995 84.429 40.3692 84.2818 40.6417 84.133C40.9086 83.9873 41.1783 83.8401 41.62 83.655C41.6698 83.4279 41.6898 83.1958 41.6796 82.9641L42.4373 82.8777C42.4373 82.8777 42.5369 83.0513 42.3767 82.0304C42.3767 82.0304 41.5263 81.8166 41.4869 80.1911C41.4869 80.1911 40.848 80.3953 40.8095 79.4103C40.8016 79.2132 40.7488 79.0239 40.6982 78.8427C40.5771 78.4085 40.4688 78.0204 41.0224 77.6828L40.6227 76.6619C40.6227 76.6619 40.2032 72.7129 42.0454 73.0342C41.2982 71.8997 47.6012 70.9557 48.0198 74.4339C48.1845 75.4824 48.1845 76.5479 48.0198 77.5964C48.0198 77.5964 48.9615 77.4928 48.3328 79.2099C48.3328 79.2099 47.9868 80.4441 47.4553 80.1656C47.4553 80.1656 47.5416 81.7276 46.7045 81.9924C46.7045 81.9924 46.7641 82.8241 46.7641 82.8807L47.464 82.9831C47.464 82.9831 47.4448 83.6766 47.5824 83.7518C48.2204 84.1471 48.9197 84.4468 49.6554 84.6401C51.8285 85.1687 52.9299 86.0761 52.9299 86.8707Z" fill="#FFA900"/>
<path opacity="0.4" d="M92.9299 59.8707C92.9299 59.8707 93.5492 62.069 94 64H75.0002C74.9987 63.9179 75.0063 63.8346 75.0237 63.7514C75.2964 62.4434 75.5954 61.0542 75.7516 60.4727C76.0834 59.2371 77.9425 58.319 79.6525 57.6133C80.0995 57.429 80.3692 57.2818 80.6417 57.133C80.9086 56.9873 81.1783 56.8401 81.62 56.655C81.6698 56.4279 81.6898 56.1958 81.6796 55.9641L82.4373 55.8777C82.4373 55.8777 82.5369 56.0513 82.3767 55.0304C82.3767 55.0304 81.5263 54.8166 81.4869 53.1911C81.4869 53.1911 80.848 53.3953 80.8095 52.4103C80.8016 52.2132 80.7488 52.0239 80.6982 51.8427C80.5771 51.4085 80.4688 51.0204 81.0224 50.6828L80.6227 49.6619C80.6227 49.6619 80.2032 45.7129 82.0454 46.0342C81.2982 44.8997 87.6012 43.9557 88.0198 47.4339C88.1845 48.4824 88.1845 49.5479 88.0198 50.5964C88.0198 50.5964 88.9615 50.4928 88.3328 52.2099C88.3328 52.2099 87.9868 53.4441 87.4553 53.1656C87.4553 53.1656 87.5416 54.7276 86.7045 54.9924C86.7045 54.9924 86.7641 55.8241 86.7641 55.8807L87.464 55.9831C87.464 55.9831 87.4448 56.6766 87.5824 56.7518C88.2204 57.1471 88.9197 57.4468 89.6554 57.6401C91.8285 58.1687 92.9299 59.0761 92.9299 59.8707Z" fill="#9DCF00"/>
<path opacity="0.4" d="M24 28C24 25.2386 26.2386 23 29 23H100C102.761 23 105 25.2386 105 28V38H24V28Z" fill="#00ACE3"/>
<rect opacity="0.6" x="30" y="28" width="5" height="5" rx="2.5" fill="#00ACE3"/>
<path opacity="0.08" fill-rule="evenodd" clip-rule="evenodd" d="M65 64V38H64V64H24V65H64V91H65V65H105V64H65Z" fill="#525C69"/>
</g>
<circle cx="96" cy="85" r="16" fill="#00ACE3"/>
<path fill-rule="evenodd" clip-rule="evenodd" d="M93.5094 79.5C95.3928 79.5 97.2758 79.7371 99.1584 80.2113C99.5775 80.3168 99.8737 80.7175 99.8737 81.1788V89.1129C99.8737 89.5672 99.5864 89.9636 99.1757 90.076C97.1674 90.6253 95.2176 90.9 93.3264 90.9C91.4456 90.9 89.5654 90.6283 87.6859 90.085C87.2812 89.968 87 89.5747 87 89.1255V81.1863C87 80.7221 87.2998 80.3197 87.7223 80.2171C89.6893 79.739 91.6184 79.5 93.5094 79.5ZM105.982 80.464C105.994 80.4978 106 80.5336 106 80.5698V89.3725C106 89.5372 105.875 89.6707 105.722 89.6707C105.688 89.6707 105.655 89.6641 105.623 89.6513L101.425 87.9442C101.317 87.9003 101.245 87.7893 101.245 87.6654V82.2769C101.245 82.153 101.317 82.0421 101.425 81.9981L105.623 80.291C105.767 80.2326 105.927 80.3101 105.982 80.464Z" fill="white"/>
<defs>
<filter id="filter0_d_11399_869363" x="0.000976562" y="24.0002" width="130" height="90" filterUnits="userSpaceOnUse" color-interpolation-filters="sRGB">
<feFlood flood-opacity="0" result="BackgroundImageFix"/>
<feColorMatrix in="SourceAlpha" type="matrix" values="0 0 0 0 0 0 0 0 0 0 0 0 0 0 0 0 0 0 127 0" result="hardAlpha"/>
<feOffset dy="2"/>
<feGaussianBlur stdDeviation="2"/>
<feComposite in2="hardAlpha" operator="out"/>
<feColorMatrix type="matrix" values="0 0 0 0 0.025382 0 0 0 0 0.275095 0 0 0 0 0.358333 0 0 0 0.06 0"/>
<feBlend mode="normal" in2="BackgroundImageFix" result="effect1_dropShadow_11399_869363"/>
<feBlend mode="normal" in="SourceGraphic" in2="effect1_dropShadow_11399_869363" result="shape"/>
</filter>
<filter id="filter1_d_11399_869363" x="15.9881" y="17.6588" width="97.0237" height="84.0237" filterUnits="userSpaceOnUse" color-interpolation-filters="sRGB">
<feFlood flood-opacity="0" result="BackgroundImageFix"/>
<feColorMatrix in="SourceAlpha" type="matrix" values="0 0 0 0 0 0 0 0 0 0 0 0 0 0 0 0 0 0 127 0" result="hardAlpha"/>
<feOffset dy="2.67062"/>
<feGaussianBlur stdDeviation="4.00593"/>
<feComposite in2="hardAlpha" operator="out"/>
<feColorMatrix type="matrix" values="0 0 0 0 0.423529 0 0 0 0 0.423529 0 0 0 0 0.423529 0 0 0 0.12 0"/>
<feBlend mode="normal" in2="BackgroundImageFix" result="effect1_dropShadow_11399_869363"/>
<feBlend mode="normal" in="SourceGraphic" in2="effect1_dropShadow_11399_869363" result="shape"/>
</filter>
<linearGradient id="paint0_linear_11399_869363" x1="64.5177" y1="41.5036" x2="64.5177" y2="108" gradientUnits="userSpaceOnUse">
<stop stop-color="#7ED8FF" stop-opacity="0.8"/>
<stop offset="1" stop-color="#7ED8FF"/>
</linearGradient>
</defs>
</svg>
