<svg viewBox="0 -100 431 400" width="431" height="400" fill="none" xmlns="http://www.w3.org/2000/svg">
	<style>
		.mail-msg-list-grid-loader-animate {
		animation: animate-envelop 2.5s forwards;
		animation-iteration-count: infinite;
		transform-origin: right bottom;
		}
		@keyframes animate-envelop {
		0% {
		transform: translateY(0);
		}
		40% {
		transform: translateY(-40px);
		}
		50% {
		transform: translateY(-40px);
		}
		70% {
		transform: translateY(0);
		}
		80% {
		transform: translateY(-7px);
		}
		100% {
		transform: translateY(0px);
		}
		}
	</style>

	<defs>
		<g id="mail" clip-path="url(#a)">
			<mask id="b" style="mask-type:alpha" maskUnits="userSpaceOnUse" x="113" y="2" width="182" height="135">
				<path d="m139.518 2.622 153.757 40.495a1.998 1.998 0 0 1 1.424 2.443l-23.43 88.966a2.002 2.002 0 0 1-2.444 1.425L115.068 95.457a1.999 1.999 0 0 1-1.424-2.444l23.43-88.966a2.001 2.001 0 0 1 2.444-1.425Z" fill="#fff"/>
			</mask>
			<g mask="url(#b)">
				<g filter="url(#c)">
					<path d="m139.518 2.622 153.757 40.495a1.998 1.998 0 0 1 1.424 2.443l-23.43 88.966a2.002 2.002 0 0 1-2.444 1.425L115.068 95.457a1.999 1.999 0 0 1-1.424-2.444l23.43-88.966a2.001 2.001 0 0 1 2.444-1.425Z" fill="#000"/>
				</g>
				<path d="m139.518 2.622 153.757 40.495a1.998 1.998 0 0 1 1.424 2.443l-23.43 88.966a2.002 2.002 0 0 1-2.444 1.425L115.068 95.457a1.999 1.999 0 0 1-1.424-2.444l23.43-88.966a2.001 2.001 0 0 1 2.444-1.425Z" fill="#8AE3FF"/>
				<g filter="url(#d)">
					<path d="m208.368 53.352 62.391 83.109-157.625-41.514 95.234-41.595Z" fill="#000"/>
				</g>
				<path d="m208.368 53.352 62.391 83.109-157.625-41.514 95.234-41.595Z" fill="#68DBFF"/>
				<g filter="url(#e)">
					<path d="M199.975 85.222 137.584 2.113l157.625 41.513-95.234 41.596Z" fill="#000"/>
				</g>
				<path d="M199.975 85.222 137.584 2.113l157.625 41.513-95.234 41.596Z" fill="#ABEBFF"/>
			</g>
		</g>
	</defs>
	<use class="mail-msg-list-grid-loader-animate" xmlns:xlink="http://www.w3.org/1999/xlink" xlink:href="#mail" y="0" x="0" width="100%" height="100"/>
	<g id="line">
		<rect y="211" width="431" height="8" rx="4" fill="#eeeff0"/>
	</g>
	<mask id='mask' fill="white">
		<use xmlns:xlink="http://www.w3.org/1999/xlink" xlink:href="#line" rx="4" width="100%" height="100"/>
	</mask>
	<rect id="msk1" mask="url(#mask)" y="211" width="100%" height="8" rx="4" fill="#9DCF00"/>
	<animate xmlns:xlink="http://www.w3.org/1999/xlink" xlink:href="#msk1" attributeName="x" from="-100%" to="100%" dur="2.5s" begin="0s" repeatCount="indefinite"/>

</svg>
