<svg width="20" height="20" xmlns="http://www.w3.org/2000/svg"><g transform="translate(-1 -1)" fill="none" fill-rule="evenodd"><circle opacity=".14" cx="11" cy="11" r="11"/><circle fill="#FFF" cx="11" cy="11" r="10"/><path d="M15.5666 9.2532l-2.5065.0005c-.0722 0-.142-.0417-.169-.108a1.1373 1.1373 0 0 1 .0153-.8807 3.2343 3.2343 0 0 0 .0682-1.8753c-.1703-.425-.2155-1.2017-1.0014-1.2375a.8105.8105 0 0 0-.5842.3996c-.022.0383-.0314.0834-.0314.1271.024.5027.024.9288 0 1.2783-.0361.5243-1.0392 1.8596-1.677 2.7074a.2487.2487 0 0 1-.1634.0996c-.239.0358-.6951.0965-.8595.1182-.0385.005-.061.0534-.061.076v4.756c0 .0175.0211.0557.0587.0619.1287.0212.4508.0801.7759.1847.4084.131.7486.4413 1.4295.671a.3565.3565 0 0 0 .1134.0187h3.1973c.4128-.0736.7201-.4266.7412-.8503a1.569 1.569 0 0 0-.1379-.6843c-.0137-.0309.0044-.0633.0378-.0697.41-.0746.9224-.8527.2911-1.4796-.0167-.0162-.0137-.0383.0088-.0442.3481-.0888.6147-.3667.6962-.7132.0314-.1326.02-.2696-.0192-.3996a1.3566 1.3566 0 0 0-.2175-.43c-.0245-.0325-.0108-.0747.0285-.0875.3466-.1173.5852-.4486.5827-.8257.0398-.3696-.2572-.8129-.6166-.8134zm-7.9512.2003h-1.812c-.0942 0-.1658.0834-.1496.1743l1.0525 5.913a.192.192 0 0 0 .19.157h.67c.1036 0 .1876-.082.1876-.183l.0147-5.911c0-.083-.0683-.1503-.1532-.1503" fill="#B9BFC3"/></g></svg>