<svg width="16" height="16" viewBox="0 0 16 16" fill="none" xmlns="http://www.w3.org/2000/svg">
	<circle cx="8" cy="8" r="8" fill="#62A9F3"/>
	<path fill-rule="evenodd" clip-rule="evenodd" d="M11.6533 6.6026L9.64807 6.603C9.59034 6.603 9.53458 6.56962 9.51298 6.5166C9.42265 6.29078 9.42618 6.03629 9.52515 5.81205C9.69127 5.3286 9.71012 4.80628 9.57974 4.31184C9.44346 3.97174 9.40733 3.35045 8.77858 3.32178C8.58182 3.35084 8.4102 3.46905 8.31124 3.64146C8.29356 3.67209 8.2861 3.70822 8.2861 3.74317C8.2861 3.74317 8.31499 4.34645 8.2861 4.76583C8.25721 5.18521 7.4547 6.25347 6.94455 6.93171C6.91235 6.97491 6.86719 7.00318 6.81377 7.01143C6.62251 7.04007 6.2577 7.08857 6.12619 7.10594C6.09541 7.11 6.07741 7.14866 6.07741 7.16681C6.07741 8.01464 6.07741 9.2829 6.07741 10.9716C6.07741 10.9856 6.0943 11.0161 6.12431 11.021C6.22732 11.0381 6.48501 11.0852 6.74505 11.1688C7.0718 11.2737 7.34395 11.5219 7.88866 11.7057C7.91733 11.7155 7.94914 11.7206 7.97938 11.7206H10.5372C10.8675 11.6617 11.1133 11.3793 11.1302 11.0404C11.1349 10.8515 11.0972 10.6646 11.0199 10.4929C11.0089 10.4682 11.0234 10.4423 11.0501 10.4372C11.378 10.3775 11.788 9.75501 11.283 9.2535C11.2696 9.24054 11.272 9.22287 11.2901 9.21815C11.5685 9.14707 11.7818 8.92479 11.8469 8.64753C11.8721 8.54149 11.863 8.43192 11.8316 8.32785C11.7947 8.20375 11.7358 8.0875 11.6576 7.98382C11.638 7.9579 11.649 7.92413 11.6804 7.91391C11.9577 7.82005 12.1486 7.55496 12.1466 7.25335C12.1784 6.95763 11.9408 6.603 11.6533 6.6026ZM5.29236 6.76284H3.84281C3.7674 6.76284 3.71007 6.8296 3.72303 6.90225L4.56503 11.6326C4.57799 11.7053 4.642 11.7583 4.71701 11.7583H5.25308C5.33595 11.7583 5.40311 11.6927 5.40311 11.6118L5.41489 6.88301C5.41489 6.81664 5.3603 6.76284 5.29236 6.76284Z" fill="white"/>
</svg>