<svg xmlns:xlink="http://www.w3.org/1999/xlink" xmlns="http://www.w3.org/2000/svg" viewBox="0 0 100% 1285"
	 preserveAspectRatio="xMinYMin meet" style="width: 100%; height: 1285px" fill="none">

	<svg height="1285px">
		<defs>
			<g id="block-line">
				<rect x="19" y="0" width="100%" height="1" fill="#C6CDD3" />
			</g>

			<g id="block-vertical-line">
				<rect x="0" y="283" width="1" height="72" rx="0.5" fill="#ecedee" />
			</g>

			<g id="block-table-line">
				<rect x="19" y="0" width="100%" height="1" fill="#eaeaea" />
			</g>
		</defs>

		<rect x="0" y="0" width="100%" height="375" rx="10" fill="white" />

		<use xlink:href="#block-line" y="54"></use>
		<use xlink:href="#block-line" y="264"></use>
		<use xlink:href="#block-vertical-line" x="67"></use>
		<use xlink:href="#block-vertical-line" x="278"></use>
		<use xlink:href="#block-vertical-line" x="490"></use>
		<use xlink:href="#block-vertical-line" x="701"></use>
	</svg>

	<svg height="1285px" id="animated-elements">
		<defs>
			<g id="block-vertical-separator--animat">
				<rect x="0" y="283" width="1" height="72" rx="0.5" fill="#ecedee" />
			</g>

			<g id="block-vertical-text--animat">
				<rect x="89" y="288" width="130" height="8" rx="2" fill="#f4f4f5" />
				<rect x="89" y="310" width="130" height="8" rx="2" fill="#f4f4f5" />
				<rect x="90" y="332" width="48" height="13" rx="2" fill="#f4f4f5" />
			</g>

			<g id="block-table-title--animat">
				<rect x="22" y="25" width="26%" height="8" rx="2" fill="#ecedee" />
			</g>
		</defs>

		<use xlink:href="#block-table-title--animat"></use>

		<rect x="67" y="79" width="164" height="185" fill="#f4f4f5"/>
		<rect x="279" y="134" width="164" height="130" fill="#f4f4f5"/>
		<rect x="490" y="181" width="164" height="83" fill="#f4f4f5"/>
		<rect x="702" y="220" width="222" height="44" fill="#f4f4f5" />
		<use xlink:href="#block-vertical-text--animat"></use>
		<use xlink:href="#block-vertical-text--animat" x="211"></use>
		<use xlink:href="#block-vertical-text--animat" x="423"></use>
		<use xlink:href="#block-vertical-text--animat" x="634"></use>
	</svg>

	<rect id="msk1" width="100%" fill="url(#msk_gd)" mask="url(#headerMsk)" height="1270"/>

	<mask id="headerMsk" fill="white">
		<use xlink:href="#animated-elements"/>
	</mask>

	<linearGradient x1="66.6%" y1="50%" x2="33.3%" y2="50%" id="msk_gd">
		<stop stop-color="#000000" stop-opacity="0" offset="0%"/>
		<stop stop-color="#000000" stop-opacity="0.07" offset="50%"/>
		<stop stop-color="#000000" stop-opacity="0" offset="100%"/>
	</linearGradient>

	<animate xlink:href="#msk1" attributeName="x" from="-100%" to="100%" dur="1s" begin="0s" repeatCount="indefinite"/>

	<svg height="100%">
		<rect width="20" height="340" fill="#ffffff" x="100%" y="21" transform="translate(-20)" />
	</svg>
</svg>