<svg xmlns:xlink="http://www.w3.org/1999/xlink" class="defs-only" xmlns="http://www.w3.org/2000/svg" style="width:100%;height:1200px"><svg height="1200"><rect fill="#FFF" width="100%" height="1200"/></svg><svg height="1200"><defs><g id="c"><path d="M30 30h320v8H30z"/><rect fill="#DADADA" x="30" y="60" width="100%" height="1"/><use xlink:href="#a" x="30" y="65" width="100%"/></g><g id="b"><path fill="#DADADA" d="M0 20h1v70H0z"/><path d="M20 25h130v8H20zM20 45h130v8H20zM20 65h50v8H20z"/></g><g id="a"><path d="M30 30h165v185H30z"/><use xlink:href="#b" x="30" y="215"/><path d="M240 85h165v130H240z"/><use xlink:href="#b" x="240" y="215"/><path d="M450 130h165v85H450z"/><use xlink:href="#b" x="450" y="215"/><path d="M670 170h165v45H670z"/><use xlink:href="#b" x="670" y="215"/></g></defs></svg><use xlink:href="#c" fill="#9EA6AD" opacity=".2"/><rect id="f" width="100%" fill="url(#d)" mask="url(#e)" height="1200"/><linearGradient x1="66.6%" y1="50%" x2="33.3%" y2="50%" id="d"><stop stop-opacity="0" offset="0%"/><stop stop-opacity=".07" offset="50%"/><stop stop-opacity="0" offset="100%"/></linearGradient><mask id="e" fill="#fff"><use xlink:href="#c"/></mask><animate xlink:href="#f" attributeName="x" from="-100%" to="100%" dur="1s" begin="0s" repeatCount="indefinite"/></svg>