<svg xmlns:xlink="http://www.w3.org/1999/xlink" class="defs-only" xmlns="http://www.w3.org/2000/svg" style="width:100%;height:1200px"><svg height="1200"><rect fill="#FFF" width="100%" height="1200"/></svg><svg height="1200"><defs><g id="b"><path d="M0 0h320v8H0z"/><use xlink:href="#a" y="30"/><use xlink:href="#a" y="95"/><use xlink:href="#a" y="155"/><use xlink:href="#a" y="215"/><use xlink:href="#a" y="275"/><use xlink:href="#a" y="335"/><use xlink:href="#a" y="400"/></g><g id="a"><rect fill="#DADADA" width="100%" height="1"/><path d="M0 30h90v8H0zM140 30h90v8h-90zM280 30h90v8h-90zM420 30h90v8h-90zM560 30h90v8h-90zM700 30h90v8h-90zM840 30h90v8h-90z"/></g></defs></svg><use xlink:href="#b" fill="#9EA6AD" opacity=".2" x="30" y="30"/><rect id="e" width="100%" fill="url(#c)" mask="url(#d)" height="1200"/><linearGradient x1="66.6%" y1="50%" x2="33.3%" y2="50%" id="c"><stop stop-opacity="0" offset="0%"/><stop stop-opacity=".07" offset="50%"/><stop stop-opacity="0" offset="100%"/></linearGradient><mask id="d" fill="#fff"><use xlink:href="#b" x="30" y="30"/></mask><animate xlink:href="#e" attributeName="x" from="-100%" to="100%" dur="1s" begin="0s" repeatCount="indefinite"/></svg>