<svg xmlns:xlink="http://www.w3.org/1999/xlink" class="defs-only" xmlns="http://www.w3.org/2000/svg" style="width:100%;height:1200px"><svg height="1200"><rect width="100%" height="1200" fill="#EBF1F4"/><rect fill="#FFF" width="100%" height="1200" y="75"/><rect fill="none" stroke="#C6CDD3" x="100%" y="20" width="135" height="35" rx="2" transform="translate(-300)"/><rect fill="none" stroke="#C6CDD3" x="100%" y="20" width="135" height="35" rx="2" transform="translate(-150)"/><rect fill="none" stroke="#C6CDD3" x="35" y="95" width="97%" height="35" rx="2"/></svg><svg height="1200"><defs><g id="d"><path d="M4 30h450v12H4zM0 190h320v8H0z"/><rect fill="#DADADA" y="220" width="100%" height="1"/><rect fill="#DADADA" y="430" width="100%" height="1"/><path d="M0 580h320v8H0z"/><use xlink:href="#a" y="610"/><use xlink:href="#a" y="675"/><use xlink:href="#a" y="740"/><use xlink:href="#a" y="805"/><use xlink:href="#a" y="870"/><use xlink:href="#a" y="935"/><use xlink:href="#a" y="1000"/><use xlink:href="#b" x="30" y="245" width="100%"/></g><g id="a"><rect fill="#DADADA" width="100%" height="1"/><path d="M0 30h90v8H0zM140 30h90v8h-90zM280 30h90v8h-90zM420 30h90v8h-90zM560 30h90v8h-90zM700 30h90v8h-90zM840 30h90v8h-90z"/></g><g id="b"><path d="M0 0h165v185H0z"/><use xlink:href="#c" y="185"/><path d="M210 55h165v130H210z"/><use xlink:href="#c" x="210" y="185"/><path d="M420 100h165v85H420z"/><use xlink:href="#c" x="420" y="185"/><path d="M640 140h165v45H640z"/><use xlink:href="#c" x="640" y="185"/></g><g id="c"><path fill="#DADADA" d="M0 20h1v70H0z"/><path d="M20 25h130v8H20zM20 45h130v8H20zM20 65h50v8H20z"/></g></defs><use xlink:href="#d" fill="#9EA6AD" opacity=".2" x="30"/></svg><svg height="1200"><defs><g id="e"><rect x="100%" width="115" height="12" transform="translate(-290)"/><rect x="100%" width="115" height="12" transform="translate(-140)"/></g></defs><use xlink:href="#e" fill="#9EA6AD" opacity=".2" y="32"/></svg><rect id="h" width="100%" fill="url(#f)" mask="url(#g)" height="1200" x="89.507%"/><linearGradient x1="66.6%" y1="50%" x2="33.3%" y2="50%" id="f"><stop stop-opacity="0" offset="0%"/><stop stop-opacity=".07" offset="50%"/><stop stop-opacity="0" offset="100%"/></linearGradient><mask id="g" fill="#fff"><use xlink:href="#d" x="30"/><use xlink:href="#e" y="32"/></mask><animate xlink:href="#h" attributeName="x" from="-100%" to="100%" dur="1s" begin="0s" repeatCount="indefinite"/><svg viewBox="0 0 100% 1200" height="1200"><rect fill="#EBF1F4" width="100%" height="15" y="150"/><rect fill="#EBF1F4" width="100%" height="15" y="535"/></svg></svg>