<svg width="20" height="20" viewBox="0 0 20 20" fill="none" xmlns="http://www.w3.org/2000/svg">
	<path fill-rule="evenodd" clip-rule="evenodd" d="M10 17.0837C13.912 17.0837 17.0833 13.9123 17.0833 10.0003C17.0833 6.08831 13.912 2.91699 10 2.91699C6.088 2.91699 2.91668 6.08831 2.91668 10.0003C2.91668 13.9123 6.088 17.0837 10 17.0837ZM9.9415 8.87103L11.7641 7.04842C12.0127 6.79988 12.5097 6.79988 12.8411 7.04842C13.1725 7.3798 13.1725 7.79403 12.8411 8.12542L11.0185 9.94803L12.8411 11.7706C13.1725 12.102 13.1725 12.5163 12.8411 12.8476C12.5097 13.179 12.0955 13.179 11.7641 12.8476L9.9415 11.025L8.11889 12.8476C7.78751 13.179 7.37328 13.179 7.04189 12.8476C6.71051 12.5163 6.71051 12.102 7.04189 11.7706L8.86451 9.94803L7.04189 8.12542C6.71051 7.79403 6.71051 7.3798 7.04189 7.04842C7.37328 6.71703 7.78751 6.71703 8.11889 7.04842L9.9415 8.87103Z" fill="#2FC6F6"/>
</svg>
