<svg width="24" height="25" viewBox="0 0 24 25" fill="none" xmlns="http://www.w3.org/2000/svg">
<path fill-rule="evenodd" clip-rule="evenodd" d="M14.0503 15.8966C13.0477 16.5549 11.8481 16.9379 10.559 16.9379C7.04148 16.9379 4.18994 14.0864 4.18994 10.5688C4.18994 7.05125 7.04148 4.19971 10.559 4.19971C14.0766 4.19971 16.9281 7.05125 16.9281 10.5688C16.9281 11.8579 16.5452 13.0575 15.8868 14.0601L19.1972 17.3705C19.5877 17.761 19.5877 18.3942 19.1972 18.7847L18.7749 19.207C18.3844 19.5975 17.7512 19.5975 17.3607 19.207L14.0503 15.8966ZM15.1084 10.5688C15.1084 13.0813 13.0716 15.1182 10.559 15.1182C8.0465 15.1182 6.00968 13.0813 6.00968 10.5688C6.00968 8.05626 8.0465 6.01945 10.559 6.01945C13.0716 6.01945 15.1084 8.05626 15.1084 10.5688Z" fill="#A8ADB4"/>
</svg>
