<svg width="24" height="25" viewBox="0 0 24 25" fill="none" xmlns="http://www.w3.org/2000/svg">
<path fill-rule="evenodd" clip-rule="evenodd" d="M9.10571 16.0137C9.63404 15.2421 9.8982 14.0534 9.8982 12.4474C9.8982 10.896 9.62565 9.71775 9.08055 8.91268C8.53965 8.10761 7.73877 7.70508 6.67792 7.70508C5.58772 7.70508 4.78055 8.09084 4.25642 8.86237C3.73228 9.6297 3.47021 10.8247 3.47021 12.4474C3.47021 14.0031 3.73857 15.1792 4.27529 15.9759C4.81619 16.7726 5.61707 17.1709 6.67792 17.1709C7.77231 17.1709 8.58158 16.7852 9.10571 16.0137ZM5.69045 14.8752C5.49757 14.3846 5.40113 13.5754 5.40113 12.4474C5.40113 11.3195 5.49966 10.5102 5.69674 10.0197C5.89381 9.52487 6.22087 9.27748 6.67792 9.27748C7.12658 9.27748 7.45154 9.52487 7.65281 10.0197C7.85827 10.5102 7.961 11.3195 7.961 12.4474C7.961 13.5628 7.86037 14.3679 7.6591 14.8627C7.45783 15.3574 7.13077 15.6048 6.67792 15.6048C6.21668 15.6048 5.88752 15.3616 5.69045 14.8752Z" fill="#95C500"/>
<path d="M17.6177 11.1715C18.5067 11.1715 19.2132 11.421 19.7374 11.92C20.2657 12.4189 20.5298 13.1024 20.5298 13.9704C20.5298 14.9977 20.2133 15.7881 19.5801 16.3416C18.947 16.8951 18.0413 17.1718 16.863 17.1718C15.9009 17.1718 15.113 17.0253 14.4994 16.7324C14.4283 16.6984 14.3849 16.6256 14.3849 16.5467V15.1723C14.3849 15.0922 14.4704 15.0406 14.5427 15.0751C14.8369 15.2157 15.1701 15.3339 15.5422 15.4296C15.9824 15.5386 16.3997 15.5931 16.7938 15.5931C17.9805 15.5931 18.5738 15.1067 18.5738 14.1339C18.5738 13.2072 17.9595 12.7439 16.7309 12.7439C16.5087 12.7439 16.2634 12.767 15.995 12.8131C15.7697 12.8483 15.5798 12.8865 15.4254 12.9276C15.3711 12.9421 15.3131 12.9365 15.2635 12.91L14.6888 12.6016C14.6149 12.5619 14.5713 12.4824 14.5774 12.3988L14.8987 8.04734C14.9069 7.93641 14.9993 7.85059 15.1105 7.85059H19.6885C19.8058 7.85059 19.9009 7.94567 19.9009 8.06297V9.28608C19.9009 9.40338 19.8058 9.49847 19.6885 9.49847H16.6177L16.4479 11.3036L16.668 11.2596C16.9238 11.2009 17.2404 11.1715 17.6177 11.1715Z" fill="#95C500"/>
<path d="M10.7251 16.1464C10.7251 15.7942 10.8194 15.5279 11.0081 15.3476C11.1968 15.1673 11.4715 15.0771 11.8321 15.0771C12.1801 15.0771 12.4485 15.1694 12.6371 15.3539C12.83 15.5384 12.9265 15.8026 12.9265 16.1464C12.9265 16.4776 12.83 16.7397 12.6371 16.9326C12.4443 17.1213 12.1759 17.2156 11.8321 17.2156C11.4799 17.2156 11.2073 17.1234 11.0144 16.9389C10.8215 16.7502 10.7251 16.486 10.7251 16.1464Z" fill="#95C500"/>
</svg>
