<svg width="24" height="24" viewBox="0 0 24 24" fill="none" xmlns="http://www.w3.org/2000/svg">
<path fill-rule="evenodd" clip-rule="evenodd" d="M0.0327169 10.795H1.63585V17.9675H3.10811V9.31543H0V10.795H0.0327169ZM7.85206 12.3713C7.85206 10.2164 9.61878 8.47953 11.8108 8.47953C13.9374 8.47953 15.7041 10.152 15.7696 12.2427H17.2418C17.1764 9.34795 14.7553 7 11.7781 7C8.76814 7 6.31437 9.41228 6.31437 12.3713C6.31437 15.3304 8.76814 17.7427 11.7781 17.7427H22.9673V16.2953H11.7781C9.61878 16.2632 7.85206 14.5263 7.85206 12.3713ZM1.27588 8.6085H3.76237V18.0003H5.23463V7.16113H1.27588V8.6085V8.6085ZM9.94595 12.3713C9.94595 11.3743 10.7966 10.538 11.8108 10.538C12.7923 10.538 13.6102 11.2778 13.6757 12.2427H15.1479C15.0825 10.4737 13.6102 9.09064 11.8108 9.09064C9.97866 9.09064 8.47368 10.5702 8.47368 12.3713C8.47368 14.1725 9.97866 15.652 11.8108 15.652H23V14.2047H11.8108C10.7966 14.2047 9.94595 13.3684 9.94595 12.3713Z" fill="#525C69"/>
</svg>
