<svg width="24" height="24" viewBox="0 0 24 24" fill="none" xmlns="http://www.w3.org/2000/svg">
<path fill-rule="evenodd" clip-rule="evenodd" d="M13.3977 5.36752C12.4993 4.84885 11.3925 4.84885 10.4941 5.36752L6.39807 7.73239C5.4997 8.25106 4.94629 9.2096 4.94629 10.2469V14.9767C4.94629 16.014 5.4997 16.9726 6.39807 17.4912L10.4941 19.8561C11.3925 20.3748 12.4993 20.3748 13.3977 19.8561L17.4938 17.4912C18.3921 16.9726 18.9456 16.014 18.9456 14.9767V10.2469C18.9456 9.2096 18.3921 8.25106 17.4938 7.73239L13.3977 5.36752ZM8.91467 13.3067C8.58199 13.0248 8.54084 12.5265 8.82277 12.1938C9.1047 11.8612 9.60294 11.82 9.93562 12.1019L11.517 13.442L14.1422 10.3442C14.4241 10.0115 14.9224 9.97036 15.255 10.2523C15.5877 10.5342 15.6289 11.0325 15.347 11.3651L12.2121 15.0643C12.1123 15.1821 11.9853 15.2634 11.8481 15.3067C11.5977 15.3863 11.313 15.3392 11.0977 15.1567L8.91467 13.3067Z" fill="#95C500"/>
</svg>
