<svg width="24" height="24" viewBox="0 0 24 24" fill="none" xmlns="http://www.w3.org/2000/svg">
	<path d="M17 3.95898C17 3.68284 17.2239 3.45898 17.5 3.45898H18.5C18.7761 3.45898 19 3.68284 19 3.95898V6H21.0007C21.2769 6 21.5007 6.22386 21.5007 6.5V7.5C21.5007 7.77614 21.2769 8 21.0007 8H19V10.041C19 10.3172 18.7761 10.541 18.5 10.541H17.5C17.2239 10.541 17 10.3172 17 10.041V8H14.9993C14.7231 8 14.4993 7.77614 14.4993 7.5V6.5C14.4993 6.22386 14.7231 6 14.9993 6H17V3.95898Z" fill="#8DBB00"/>
	<path d="M18.1606 13C18.8124 13 19.4402 12.897 20.0284 12.7063V15.7328C20.0284 16.4063 19.4825 16.9523 18.809 16.9523H12.5054L9.00871 20.4485C8.75672 20.7005 8.32588 20.522 8.32588 20.1656V16.9523H6.20177C5.52827 16.9523 4.9823 16.4063 4.9823 15.7328V7.30638C4.9823 6.63289 5.52827 6.08691 6.20177 6.08691H12.168C12.1281 6.36779 12.1074 6.65487 12.1074 6.94678C12.1074 10.2899 14.8175 13 18.1606 13Z" fill="#8DBB00"/>
</svg>