<svg width="24" height="24" viewBox="0 0 24 24" fill="none" xmlns="http://www.w3.org/2000/svg">
<path d="M7 7C7 7.55228 6.55228 8 6 8C5.44772 8 5 7.55228 5 7C5 6.44772 5.44772 6 6 6C6.55228 6 7 6.44772 7 7Z" fill="#95C500"/>
<path d="M19 6.4C19 6.17909 18.8209 6 18.6 6H8.4C8.17909 6 8 6.17909 8 6.4V7.6C8 7.82091 8.17909 8 8.4 8H18.6C18.8209 8 19 7.82091 19 7.6V6.4Z" fill="#95C500"/>
<path d="M12.9996 18C12.5629 17.4186 12.25 16.7389 12.1 16H8.4C8.17909 16 8 16.1791 8 16.4V17.6C8 17.8209 8.17909 18 8.4 18H12.9996Z" fill="#95C500"/>
<path d="M13.9995 11H8.4C8.17909 11 8 11.1791 8 11.4V12.6C8 12.8209 8.17909 13 8.4 13H12.416C12.7639 12.2037 13.3132 11.5156 13.9995 11Z" fill="#95C500"/>
<path d="M7 12C7 12.5523 6.55228 13 6 13C5.44772 13 5 12.5523 5 12C5 11.4477 5.44772 11 6 11C6.55228 11 7 11.4477 7 12Z" fill="#95C500"/>
<path d="M7 17C7 17.5523 6.55228 18 6 18C5.44772 18 5 17.5523 5 17C5 16.4477 5.44772 16 6 16C6.55228 16 7 16.4477 7 17Z" fill="#95C500"/>
<path d="M16.6574 11.5C16.3813 11.5 16.1574 11.7239 16.1574 12V14.1113H14C13.7239 14.1113 13.5 14.3352 13.5 14.6113V15.3882C13.5 15.6643 13.7239 15.8882 14 15.8882H16.1574V18C16.1574 18.2761 16.3813 18.5 16.6574 18.5H17.3425C17.6187 18.5 17.8425 18.2761 17.8425 18V15.8882H20C20.2761 15.8882 20.5 15.6643 20.5 15.3882V14.6113C20.5 14.3352 20.2761 14.1113 20 14.1113H17.8425V12C17.8425 11.7239 17.6187 11.5 17.3425 11.5H16.6574Z" fill="#95C500"/>
</svg>
