<svg width="24" height="24" viewBox="0 0 24 24" fill="none" xmlns="http://www.w3.org/2000/svg">
	<path fill-rule="evenodd" clip-rule="evenodd" d="M14.475 5.49343C14.1222 5.49343 13.8361 5.20739 13.8361 4.85454V4.67796C13.8361 4.32511 14.1222 4.03907 14.475 4.03907L16.4752 4.03908H19.3098C19.6626 4.03908 19.9486 4.32512 19.9486 4.67797V4.85455C19.9486 5.2074 19.6626 5.49344 19.3098 5.49344H18.9432H17.9378V18.5886H18.9432H19.3098C19.6626 18.5886 19.9486 18.8746 19.9486 19.2275V19.4109C19.9486 19.7638 19.6626 20.0498 19.3098 20.0498H16.4752L14.475 20.0498C14.1221 20.0498 13.8361 19.7638 13.8361 19.4109V19.2275C13.8361 18.8746 14.1222 18.5886 14.475 18.5886H14.8416H15.847V5.49343H14.8416H14.475ZM14.4802 17.4073V11.1266L12.0463 5.32957L10.8829 5.32287C9.84943 5.31692 8.91339 5.93378 8.5171 6.88831C7.63215 9.01986 6.76654 11.1597 5.90098 13.2995L5.90092 13.2996C5.40692 14.5208 4.91293 15.742 4.41536 16.9616C4.16574 17.5734 3.96118 18.0894 3.96118 18.1092C3.96118 18.1442 4.75619 18.1514 5.51441 18.151C6.30804 18.1506 7.02021 17.6568 7.30473 16.9159C7.39705 16.6755 7.48916 16.435 7.58076 16.1943L7.93787 15.2517L10.6075 15.2417L13.2771 15.2351L13.8076 16.5482C13.8502 16.6543 13.8927 16.7606 13.9352 16.8668C14.0072 17.0471 14.0793 17.2274 14.1524 17.4073H14.4802ZM11.4985 10.7338C11.9874 11.9939 12.3826 13.0324 12.3757 13.039C12.3687 13.0457 11.5574 13.049 10.5763 13.0457L8.79422 13.0357L9.67832 10.714C10.1672 9.43732 10.5763 8.40212 10.5867 8.41534C10.5971 8.42857 11.0097 9.47039 11.4985 10.7338Z" fill="#8DBB00"/>
</svg>