<svg width="24" height="24" viewBox="0 0 24 24" fill="none" xmlns="http://www.w3.org/2000/svg">
<path fill-rule="evenodd" clip-rule="evenodd" d="M12.4797 8.66813H10.9589V13.1197H15.2219V11.6829H12.4797V8.66813ZM17.9579 2.94419C17.7872 2.87626 17.6021 2.84408 17.4238 2.79492H17.039C17.014 2.80386 16.9899 2.81727 16.9644 2.8204C16.3566 2.89592 15.84 3.17032 15.3716 3.54974C15.3448 3.57119 15.3243 3.60069 15.2948 3.63242C16.5041 4.66834 17.7036 5.69578 18.9428 6.75717C19.0792 6.43183 19.2315 6.13776 19.3276 5.82627C19.8031 4.28445 18.8722 3.30976 17.9579 2.94419ZM8.91924 3.9457C8.6435 3.60248 8.13313 3.24764 7.69115 3.06664C6.2977 2.49639 4.93867 3.53589 4.69466 4.55438C4.6665 4.67281 4.64013 4.79169 4.61287 4.91012V5.42272C4.62405 5.47456 4.63745 5.5255 4.64594 5.57779C4.70717 5.9447 4.80638 6.2991 4.98783 6.63964C6.30753 5.73555 7.61294 4.84085 8.91924 3.9457ZM12.0247 17.7813C8.94277 17.7893 6.40688 15.2733 6.3997 12.1994C6.39251 9.07979 8.8984 6.55446 12.0078 6.54812C15.0995 6.54178 17.6244 9.05528 17.6329 12.1474C17.6413 15.25 15.1295 17.7733 12.0247 17.7813ZM17.3501 6.97973C14.4376 4.01318 9.71652 3.96849 6.76025 6.86577C3.58097 9.98158 3.80442 15.3337 7.40647 18.0996C7.12626 18.5867 6.84471 19.0756 6.55199 19.5833C6.92426 19.8103 7.29251 20.0342 7.66031 20.2586H7.73405C8.00219 19.7831 8.27033 19.3076 8.54697 18.8164C9.62982 19.3768 10.7712 19.6566 11.9752 19.6606C13.1818 19.6647 14.3263 19.3916 15.4293 18.8285C15.7001 19.3107 15.966 19.7849 16.2319 20.2586H16.3057C16.61 20.0754 16.9139 19.8926 17.2182 19.7102C17.2808 19.6727 17.3434 19.6361 17.4207 19.5905C17.1324 19.0895 16.8513 18.6015 16.5716 18.1148C20.1683 15.3435 20.4056 10.092 17.3501 6.97973Z" fill="#525C69"/>
</svg>
