<svg width="24" height="24" viewBox="0 0 24 24" fill="none" xmlns="http://www.w3.org/2000/svg">
<path d="M7.15401 3.34077C6.88064 3.0674 6.43742 3.0674 6.16406 3.34077L5.3813 4.12353C5.10793 4.39689 5.10793 4.84011 5.3813 5.11348L12.1451 11.8773H6.97715C6.59055 11.8773 6.27715 12.1907 6.27715 12.5773V13.4773C6.27715 13.8639 6.59055 14.1773 6.97715 14.1773H14.414L14.4182 14.1773H15.5726C15.6262 14.1773 15.6784 14.1713 15.7286 14.1599C16.0401 14.089 16.2726 13.8103 16.2726 13.4773V12.5773L16.2726 12.5685V4.88184C16.2726 4.49524 15.9592 4.18184 15.5726 4.18184L14.4182 4.18184C14.0316 4.18184 13.7182 4.49524 13.7182 4.88183L13.7182 9.90494L7.15401 3.34077Z" fill="#525C69"/>
<path d="M5.73088 17.0004C5.34428 17.0004 5.03088 17.3138 5.03088 17.7004V18.6004C5.03088 18.987 5.34428 19.3004 5.73088 19.3004H18.3C18.6866 19.3004 19 18.987 19 18.6004V17.7004C19 17.3138 18.6866 17.0004 18.3 17.0004H5.73088Z" fill="#525C69"/>
</svg>
