<svg width="24" height="24" viewBox="0 0 24 24" fill="none" xmlns="http://www.w3.org/2000/svg">
<path d="M17.9355 16.7345C17.9355 17.0106 18.1593 17.2345 18.4355 17.2345L19.5494 17.2345C19.8255 17.2345 20.0494 17.0106 20.0494 16.7345L20.0494 9.43753L22.7166 9.43753C22.8948 9.43753 22.984 9.22211 22.858 9.09611L19.3491 5.58718C19.1538 5.39191 18.8373 5.39191 18.642 5.58718L15.1331 9.09611C15.0071 9.2221 15.0963 9.43753 15.2745 9.43753L17.9355 9.43753L17.9355 16.7345Z" fill="#525C69"/>
<path d="M3 7.5C3 7.22386 3.22386 7 3.5 7H12.5C12.7761 7 13 7.22386 13 7.5V9.5C13 9.77614 12.7761 10 12.5 10H3.5C3.22386 10 3 9.77614 3 9.5V7.5Z" fill="#525C69"/>
<rect x="3" y="13" width="10" height="3" rx="0.5" fill="#525C69"/>
</svg>
