<svg width="24" height="24" viewBox="0 0 24 24" fill="none" xmlns="http://www.w3.org/2000/svg">
	<path fill-rule="evenodd" clip-rule="evenodd" d="M17.237 10.5578C17.3318 10.6526 17.3318 10.8064 17.237 10.9012L16.6005 11.5377C16.5057 11.6325 16.3519 11.6325 16.2571 11.5377L11.7097 6.99027C10.6319 5.91243 8.86815 5.91243 7.79032 6.99027C6.71248 8.0681 6.71248 9.83183 7.79032 10.9097L13.9872 17.1066C14.6631 17.7825 15.7609 17.7825 16.4368 17.1066C17.1128 16.4306 17.1128 15.3329 16.4368 14.6569L10.7299 8.94997C10.4554 8.67553 10.0245 8.67553 9.75002 8.94997C9.47558 9.22441 9.47558 9.65538 9.75002 9.92982L13.8075 13.9873C13.9023 14.0821 13.9023 14.2359 13.8075 14.3307L13.1711 14.9671C13.0762 15.062 12.9225 15.062 12.8276 14.9671L8.77017 10.9097C7.95681 10.0963 7.95681 8.78347 8.77017 7.97012C9.58352 7.15676 10.8964 7.15676 11.7097 7.97012L17.4167 13.6771C18.6315 14.8919 18.6315 16.8716 17.4167 18.0864C16.2019 19.3012 14.2222 19.3012 13.0074 18.0864L6.81047 11.8895C5.19371 10.2728 5.19371 7.62717 6.81047 6.01042C8.42722 4.39366 11.0728 4.39366 12.6896 6.01042L17.237 10.5578Z" fill="#525C69"/>
</svg>
