<svg width="24" height="24" viewBox="0 0 24 24" fill="none" xmlns="http://www.w3.org/2000/svg">
	<path fill-rule="evenodd" clip-rule="evenodd" d="M18.1125 10.7026C18.2311 10.8212 18.2311 11.0135 18.1125 11.1321L17.3167 11.9279C17.1981 12.0465 17.0059 12.0465 16.8873 11.9279L12.2009 7.24153C10.8531 5.89374 8.64767 5.89374 7.29988 7.24153C5.95209 8.58932 5.95209 10.7948 7.29988 12.1426L13.0488 17.8916C13.8941 18.7368 15.2668 18.7368 16.112 17.8916C16.9572 17.0463 16.9572 15.6736 16.112 14.8284L10.9757 9.69206C10.6325 9.34889 10.0936 9.34889 9.75041 9.69206C9.40724 10.0352 9.40724 10.5742 9.75041 10.9173L13.8241 14.991C13.9427 15.1096 13.9427 15.3019 13.8241 15.4205L13.0283 16.2163C12.9097 16.3349 12.7174 16.3349 12.5988 16.2163L8.52514 12.1426C7.50808 11.1255 7.50808 9.48386 8.52514 8.46679C9.54221 7.44973 11.1839 7.44973 12.2009 8.46679L17.3373 13.6031C18.8564 15.1222 18.8564 17.5977 17.3373 19.1168C15.8182 20.6359 13.3427 20.6359 11.8236 19.1168L6.07461 13.3679C4.05293 11.3462 4.05293 8.03795 6.07461 6.01626C8.0963 3.99458 11.4045 3.99458 13.4262 6.01626L18.1125 10.7026Z" fill="#525C69"/>
</svg>