<svg width="24" height="24" viewBox="0 0 24 24" fill="none" xmlns="http://www.w3.org/2000/svg">
<path fill-rule="evenodd" clip-rule="evenodd" d="M20.035 12.5433V7.46838C20.035 7.33996 19.9312 7.23585 19.803 7.23585H18.4134C18.2853 7.23585 18.1814 7.33996 18.1814 7.46838V12.5433C18.1814 13.2854 18.018 14.5324 16.4498 14.5324C14.3414 14.5324 14.3456 13.3977 14.3485 12.626C14.3486 12.5979 14.3487 12.5703 14.3487 12.5433V7.4669C14.3487 7.03015 14.4932 6.90548 14.855 6.90548C15.2167 6.90548 15.2987 7.13234 15.2987 7.4669V12.2373C15.2987 12.4865 15.5422 12.5564 15.5422 12.5564H16.971C16.971 12.5564 17.2176 12.4837 17.2176 12.2381V7.60608C17.2176 5.96105 16.3416 5.14746 14.855 5.14746C13.3683 5.14746 12.4784 5.96105 12.4784 7.60608V12.5433C12.4784 14.7326 13.4014 16.2811 16.4498 16.2811C18.8801 16.2811 20.035 15.0805 20.035 12.5433ZM4.86488 7.00186H11.2867V8.85611H5.95144C5.8992 8.85611 5.85684 8.89762 5.85684 8.94883V15.2538C5.85684 15.305 5.8992 15.3465 5.95144 15.3465H11.8161C12.3275 16.2366 13.1715 16.9112 14.1784 17.201H4.86488C4.36783 17.201 3.96488 16.7981 3.96488 16.301V7.90186C3.96488 7.4048 4.36783 7.00186 4.86488 7.00186ZM9.64059 11.5331L11.2867 13.2379V13.3565C11.2867 13.7246 11.3365 14.0811 11.4295 14.4196H6.80278L9.64059 11.5331Z" fill="#525C69"/>
</svg>
