<svg width="24" height="24" viewBox="0 0 24 24" fill="none" xmlns="http://www.w3.org/2000/svg">
<path d="M10.533 7.45859H12.8794L12.6087 12.5276H10.8037L10.533 7.45859Z" fill="#525C69"/>
<path d="M11.706 16.0734C12.5024 16.0734 13.148 15.4278 13.148 14.6314C13.148 13.835 12.5024 13.1894 11.706 13.1894C10.9096 13.1894 10.264 13.835 10.264 14.6314C10.264 15.4278 10.9096 16.0734 11.706 16.0734Z" fill="#525C69"/>
<path fill-rule="evenodd" clip-rule="evenodd" d="M11.6984 19.3982C15.9507 19.3982 19.3979 15.951 19.3979 11.6986C19.3979 7.44624 15.9507 3.99902 11.6984 3.99902C7.446 3.99902 3.99878 7.44624 3.99878 11.6986C3.99878 15.951 7.446 19.3982 11.6984 19.3982ZM11.6984 17.569C14.9405 17.569 17.5688 14.9408 17.5688 11.6986C17.5688 8.45647 14.9405 5.82819 11.6984 5.82819C8.45622 5.82819 5.82794 8.45647 5.82794 11.6986C5.82794 14.9408 8.45622 17.569 11.6984 17.569Z" fill="#525C69"/>
</svg>
