<svg width="24" height="24" viewBox="0 0 24 24" fill="none" xmlns="http://www.w3.org/2000/svg">
<path fill-rule="evenodd" clip-rule="evenodd" d="M9.28403 4.78711L14.7407 4.79663C14.8787 4.79687 15.0109 4.85193 15.1084 4.94969L18.9601 8.81485C19.0575 8.91261 19.1121 9.04507 19.1118 9.18308L19.1023 14.6397C19.1021 14.7777 19.047 14.91 18.9493 15.0074L15.0841 18.8591C14.9863 18.9565 14.8539 19.0111 14.7159 19.0109L9.25922 19.0014C9.12121 19.0011 8.98895 18.9461 8.89153 18.8483L5.03983 14.9831C4.94242 14.8854 4.88782 14.7529 4.88806 14.6149L4.89759 9.15827C4.89783 9.02026 4.95288 8.88799 5.05064 8.79058L8.9158 4.93888C9.01356 4.84146 9.14602 4.78687 9.28403 4.78711ZM11.9999 14.3491C11.287 14.3491 10.709 14.927 10.709 15.64C10.709 16.3529 11.287 16.9309 11.9999 16.9309C12.7128 16.9309 13.2908 16.3529 13.2908 15.64C13.2908 14.927 12.7128 14.3491 11.9999 14.3491ZM12.9809 7.04024L11.0117 7.04039C10.9228 7.04408 10.8524 7.11402 10.8459 7.20063L10.8456 7.22089L11.0894 13.0962C11.093 13.1825 11.1591 13.2519 11.243 13.2614L11.2627 13.2625H12.7371C12.8235 13.2625 12.8956 13.1992 12.9085 13.1158L12.9104 13.0962L13.1544 7.2137C13.1544 7.12475 13.0874 7.05143 13.0011 7.04141L12.9809 7.04024Z" fill="#525C69"/>
</svg>
