<svg width="24" height="24" viewBox="0 0 24 24" fill="none" xmlns="http://www.w3.org/2000/svg">
<path fill-rule="evenodd" clip-rule="evenodd" d="M7.62019 8.38855C8.51279 8.38855 9.35169 8.74431 9.35169 9.75834C9.35169 10.6715 8.51676 11.2768 7.47657 12.0309C5.88239 13.1866 3.80609 14.6918 3.5144 18.1905H12.065V16.127H6.69182C7.01725 15.0538 8.04192 14.2755 9.09765 13.4737C10.4746 12.4278 11.9044 11.3418 11.9044 9.5092C11.9044 7.65919 10.6369 6.34277 8.01295 6.34277C6.33494 6.34277 4.92467 6.85865 3.90705 7.32126L4.53202 9.1891C5.44234 8.77985 6.42419 8.38855 7.62019 8.38855ZM16.9028 13.4412H15.8317C15.4212 13.4412 14.5642 13.4767 14.3501 13.4946L17.0099 9.99008C16.9741 10.2213 16.9028 11.271 16.9028 12.1781V13.4412ZM17.5275 6.37891L11.6367 13.8504V15.398H16.9027V18.1909H19.277V15.398H21.0264V13.4412H19.277V6.37891H17.5275Z" fill="#525C69"/>
</svg>
