<svg width="24" height="24" viewBox="0 0 24 24" fill="none" xmlns="http://www.w3.org/2000/svg">
<path fill-rule="evenodd" clip-rule="evenodd" d="M17.7265 6C18.9821 6 20 7.00736 20 8.25V15.75C20 16.9926 18.9821 18 17.7265 18L8.91025 18C8.17838 18 7.49125 17.6513 7.06411 17.0632L4.21369 12.6566C3.92877 12.2643 3.92877 11.7357 4.21369 11.3434L7.06411 6.93682C7.49126 6.34868 8.17838 6 8.91025 6H17.7265ZM10.7059 9L10 9.70586L12.2942 12L10 14.2941L10.7059 15L13.0001 12.7059L15.2941 14.9998L16 14.294L13.706 12L16 9.70603L15.2941 9.00017L13.0001 11.2941L10.7059 9Z" fill="#525C69"/>
</svg>
