<svg width="24" height="24" viewBox="0 0 24 24" fill="none" xmlns="http://www.w3.org/2000/svg">
<path d="M4.89113 6.0166H4.01702C3.9369 6.0166 3.87134 6.08283 3.87134 6.16378V18.8213C3.87134 18.9023 3.9369 18.9685 4.01702 18.9685H4.89113C4.97126 18.9685 5.03682 18.9023 5.03682 18.8213V6.16378C5.03682 6.08283 4.97126 6.0166 4.89113 6.0166ZM20.0606 6.0166H19.1864C19.1063 6.0166 19.0408 6.08283 19.0408 6.16378V18.8213C19.0408 18.9023 19.1063 18.9685 19.1864 18.9685H20.0606C20.1407 18.9685 20.2062 18.9023 20.2062 18.8213V6.16378C20.2062 6.08283 20.1407 6.0166 20.0606 6.0166ZM6.34798 16.6136H8.38756C8.46769 16.6136 8.53325 16.5474 8.53325 16.4664V6.16378C8.53325 6.08283 8.46769 6.0166 8.38756 6.0166H6.34798C6.26785 6.0166 6.20229 6.08283 6.20229 6.16378V16.4664C6.20229 16.5474 6.26785 16.6136 6.34798 16.6136ZM12.1936 16.6136H13.0677C13.1478 16.6136 13.2134 16.5474 13.2134 16.4664V6.16378C13.2134 6.08283 13.1478 6.0166 13.0677 6.0166H12.1936C12.1135 6.0166 12.0479 6.08283 12.0479 6.16378V16.4664C12.0479 16.5474 12.1135 16.6136 12.1936 16.6136ZM14.4881 16.6136H17.7296C17.8097 16.6136 17.8753 16.5474 17.8753 16.4664V6.16378C17.8753 6.08283 17.8097 6.0166 17.7296 6.0166H14.4881C14.408 6.0166 14.3424 6.08283 14.3424 6.16378V16.4664C14.3424 16.5474 14.408 16.6136 14.4881 16.6136ZM9.84441 16.6136H10.7185C10.7986 16.6136 10.8642 16.5474 10.8642 16.4664V6.16378C10.8642 6.08283 10.7986 6.0166 10.7185 6.0166H9.84441C9.76429 6.0166 9.69873 6.08283 9.69873 6.16378V16.4664C9.69873 16.5474 9.76429 16.6136 9.84441 16.6136ZM8.40578 17.7911H6.36619C6.28606 17.7911 6.2205 17.8573 6.2205 17.9382V18.8213C6.2205 18.9023 6.28606 18.9685 6.36619 18.9685H8.40578C8.4859 18.9685 8.55146 18.9023 8.55146 18.8213V17.9382C8.55146 17.8573 8.4859 17.7911 8.40578 17.7911ZM13.0859 17.7911H12.2118C12.1317 17.7911 12.0661 17.8573 12.0661 17.9382V18.8213C12.0661 18.9023 12.1317 18.9685 12.2118 18.9685H13.0859C13.166 18.9685 13.2316 18.9023 13.2316 18.8213V17.9382C13.2316 17.8573 13.166 17.7911 13.0859 17.7911ZM17.7478 17.7911H14.5063C14.4262 17.7911 14.3606 17.8573 14.3606 17.9382V18.8213C14.3606 18.9023 14.4262 18.9685 14.5063 18.9685H17.7478C17.8279 18.9685 17.8935 18.9023 17.8935 18.8213V17.9382C17.8935 17.8573 17.8279 17.7911 17.7478 17.7911ZM10.7367 17.7911H9.86262C9.7825 17.7911 9.71694 17.8573 9.71694 17.9382V18.8213C9.71694 18.9023 9.7825 18.9685 9.86262 18.9685H10.7367C10.8169 18.9685 10.8824 18.9023 10.8824 18.8213V17.9382C10.8824 17.8573 10.8169 17.7911 10.7367 17.7911Z" fill="#525C69"/>
</svg>
