<svg width="24" height="24" viewBox="0 0 24 24" fill="none" xmlns="http://www.w3.org/2000/svg">
<path fill-rule="evenodd" clip-rule="evenodd" d="M6 6.97852C4.89543 6.97852 4 7.87395 4 8.97852V15.0313C4 16.1359 4.89543 17.0313 6 17.0313H17.1952C18.2998 17.0313 19.1952 16.1359 19.1952 15.0313V13.8761H20.0767C20.3529 13.8761 20.5767 13.6523 20.5767 13.3761V10.6348C20.5767 10.3586 20.3529 10.1348 20.0767 10.1348H19.1952V8.97852C19.1952 7.87395 18.2998 6.97852 17.1952 6.97852H6ZM6.20732 8.26379C5.65503 8.26379 5.20732 8.71151 5.20732 9.26379V14.7465C5.20732 15.2988 5.65503 15.7465 6.20732 15.7465H16.8399C17.3922 15.7465 17.8399 15.2988 17.8399 14.7465V9.26379C17.8399 8.71151 17.3922 8.26379 16.8399 8.26379H6.20732ZM6.30176 9.37988H9.06452V14.6305H6.30176V9.37988Z" fill="#525C69"/>
</svg>
