<svg width="24" height="24" viewBox="0 0 24 24" fill="none" xmlns="http://www.w3.org/2000/svg">
<path fill-rule="evenodd" clip-rule="evenodd" d="M4 8.97852C4 7.87395 4.89543 6.97852 6 6.97852H17.1952C18.2998 6.97852 19.1952 7.87395 19.1952 8.97852V10.1348H20.0767C20.3529 10.1348 20.5767 10.3586 20.5767 10.6348V13.3761C20.5767 13.6523 20.3529 13.8761 20.0767 13.8761H19.1952V15.0313C19.1952 16.1359 18.2998 17.0313 17.1952 17.0313H6C4.89543 17.0313 4 16.1359 4 15.0313V8.97852ZM5.18126 9.26379C5.18126 8.71151 5.62898 8.26379 6.18126 8.26379H16.8399C17.3922 8.26379 17.8399 8.71151 17.8399 9.26379V14.7465C17.8399 15.2988 17.3922 15.7465 16.8399 15.7465H6.18126C5.62898 15.7465 5.18126 15.2988 5.18126 14.7465V9.26379ZM9.06452 9.37988H6.30176V14.6305H9.06452V9.37988ZM10.1616 9.37988H12.9244V14.6305H10.1616V9.37988Z" fill="#525C69"/>
</svg>
