<svg width="24" height="24" viewBox="0 0 24 24" fill="none" xmlns="http://www.w3.org/2000/svg">
<path d="M17.8861 6.27227C17.8861 6.75082 17.6178 7.1684 17.2196 7.39044C18.3714 9.02199 18.3811 11.3363 17.163 13.1194L16.7602 13.709C15.7916 15.0066 15.3005 16.364 15.1137 17.9555C15.0907 18.1147 15.0314 18.4375 14.9509 18.5554C14.83 18.7323 14.6805 18.8292 14.3871 18.8823C13.3112 19.0767 11.2037 18.1521 9.01772 16.5833C7.75217 15.6751 6.49007 14.5953 5.77967 13.69C4.8967 12.6609 4.69702 11.811 5.16597 11.3128C5.34365 11.1407 5.5351 11.0634 5.69954 10.9971C5.74545 10.9785 5.78925 10.9609 5.83005 10.9422C7.14761 10.394 8.07801 9.33295 9.03631 8.10135L9.51967 7.39379C10.2449 6.33243 11.3322 5.61908 12.5548 5.39812C13.3373 5.2567 14.3812 5.38904 15.1349 5.6663C15.175 5.67854 15.247 5.71559 15.3418 5.77257C15.5423 5.30947 16.0133 4.98438 16.5622 4.98438C17.2934 4.98438 17.8861 5.56099 17.8861 6.27227Z" fill="#BDC1C6"/>
<path d="M9.01772 17.7366C8.88148 17.6388 8.74529 17.5391 8.60982 17.4377C8.41823 17.7067 8.30516 18.0381 8.30516 18.3967C8.30516 19.2957 9.01623 20.0246 9.89338 20.0246C10.5031 20.0246 11.0325 19.6724 11.2987 19.1558C10.578 18.7805 9.80291 18.3001 9.01772 17.7366Z" fill="#BDC1C6"/>
</svg>
