<svg width="24" height="24" viewBox="0 0 24 24" fill="none" xmlns="http://www.w3.org/2000/svg">
	<path fill-rule="evenodd" clip-rule="evenodd" d="M13.3218 4.94922C13.6848 4.94922 14.0297 5.10784 14.2659 5.38345L16.2625 7.71277C16.4556 7.93814 16.5618 8.22517 16.5618 8.522V9.32926C16.4549 9.32397 16.3472 9.32129 16.2387 9.32129C15.7398 9.32129 15.2524 9.378 14.7831 9.48536V8.73787L13.095 6.72754H6.77881V16.5106H9.80619C9.88648 17.1365 10.0573 17.7341 10.3051 18.2898H6.24347C5.55672 18.2898 5 17.7331 5 17.0463V6.19268C5 5.50594 5.55672 4.94922 6.24347 4.94922H13.3218ZM13.0042 9.39551V10.1791C12.685 10.3611 12.3824 10.5691 12.0997 10.8003H8.55737V9.39551H13.0042ZM8.55737 12.0645H10.9165C10.6091 12.4966 10.3546 12.9678 10.1629 13.4692H8.55737V12.0645ZM16.1449 20.2358C13.636 20.2358 11.6021 18.202 11.6021 15.6931C11.6021 13.1842 13.636 11.1503 16.1449 11.1503C18.6538 11.1503 20.6876 13.1842 20.6876 15.6931C20.6876 18.202 18.6538 20.2358 16.1449 20.2358ZM13.7857 13.913C13.7076 13.9911 13.7076 14.1178 13.7857 14.1959L15.2833 15.6935L13.7857 17.1911C13.7076 17.2692 13.7076 17.3958 13.7857 17.4739L14.3644 18.0526C14.4425 18.1307 14.5692 18.1307 14.6473 18.0526L16.1449 16.555L17.6425 18.0526C17.7206 18.1307 17.8472 18.1307 17.9253 18.0526L18.504 17.4739C18.5821 17.3958 18.5821 17.2692 18.504 17.1911L17.0064 15.6935L18.504 14.1959C18.5821 14.1178 18.5821 13.9911 18.504 13.913L17.9253 13.3343C17.8472 13.2562 17.7206 13.2562 17.6425 13.3343L16.1449 14.8319L14.6473 13.3343C14.5691 13.2562 14.4425 13.2562 14.3644 13.3343L13.7857 13.913Z" fill="#8DBB00"/>
</svg>