<svg width="24" height="24" viewBox="0 0 24 24" fill="none" xmlns="http://www.w3.org/2000/svg">
<path fill-rule="evenodd" clip-rule="evenodd" d="M4.73197 15.268C6.06564 18.2337 9.06758 20.0915 12.3168 19.962C16.6274 19.8738 20.0516 16.3101 19.9678 11.9995C19.9676 8.74766 17.9915 5.82222 14.9749 4.60793C11.9584 3.39365 8.50658 4.13417 6.25355 6.47895C4.00052 8.82373 3.3983 12.3023 4.73197 15.268ZM11 7.99982C11 7.44753 11.4477 6.99982 12 6.99982C12.5523 6.99982 13 7.44753 13 7.99982V10.9998H15C15.5523 10.9998 16 11.4475 16 11.9998C16 12.5521 15.5523 12.9998 15 12.9998H12C11.4477 12.9998 11 12.5521 11 11.9998V7.99982Z" fill="#525C69"/>
</svg>
