<svg width="24" height="24" viewBox="0 0 24 24" fill="none" xmlns="http://www.w3.org/2000/svg">
<path fill-rule="evenodd" clip-rule="evenodd" d="M17.0137 15.311C17.0137 15.5294 16.8367 15.7063 16.6183 15.7063L8.47063 15.7063C8.01819 15.7063 7.6476 16.0769 7.64683 16.5294C7.64683 16.9826 8.01742 17.3532 8.47063 17.3532H16.6183C16.8367 17.3532 17.0137 17.5302 17.0137 17.7485V18.6047C17.0137 18.823 16.8367 19 16.6183 19H8.47063C7.11179 19 6 17.8882 6 16.5294V7.47063C6 6.11179 7.11179 5 8.47063 5H16.6183C16.8367 5 17.0137 5.17698 17.0137 5.3953V15.311L17.0137 15.311Z" fill="#525C69"/>
</svg>
