<svg width="24" height="24" viewBox="0 0 24 24" fill="none" xmlns="http://www.w3.org/2000/svg">
<path fill-rule="evenodd" clip-rule="evenodd" d="M11.4725 7.63822V18.9137C9.84912 17.7444 7.89877 17.0058 5.61978 16.6976C5.28724 16.653 5.03381 16.377 5.03381 16.0414V6.25013C5.03381 5.85691 5.36933 5.54697 5.76077 5.58683C6.85752 5.69906 9.06447 6.11428 11.4725 7.63822ZM12.5275 18.8553C14.5384 17.3435 17.2499 16.791 18.4064 16.6155C18.7306 16.5667 18.9662 16.2865 18.9662 15.9588V6.21027C18.9662 5.80634 18.6098 5.50176 18.2095 5.54994C15.9666 5.81999 14.0724 6.51525 12.5275 7.63571V10.8151H14.4061V9.16241C14.4061 9.0484 14.5676 8.9913 14.6621 9.07192L17.8148 11.7622C17.8734 11.8121 17.8734 11.8932 17.8148 11.9431L14.6621 14.6334C14.5676 14.714 14.4061 14.6569 14.4061 14.5429V12.8902H12.5275V18.8553Z" fill="#525C69"/>
</svg>
