<svg width="24" height="25" viewBox="0 0 24 25" fill="none" xmlns="http://www.w3.org/2000/svg">
<path d="M8.68696 13.5191C8.55446 13.5191 8.44704 13.6265 8.44704 13.759V15.7385C8.44704 15.871 8.55446 15.9784 8.68696 15.9784H15.3048C15.4373 15.9784 15.5447 15.871 15.5447 15.7385V13.759C15.5447 13.6265 15.4373 13.5191 15.3048 13.5191H8.68696Z" fill="#525C69"/>
<path fill-rule="evenodd" clip-rule="evenodd" d="M4.79834 6.89726C4.79834 6.01393 5.51442 5.29785 6.39775 5.29785H17.5936C18.477 5.29785 19.193 6.01393 19.193 6.89726V18.0931C19.193 18.9765 18.477 19.6925 17.5936 19.6925H6.39775C5.51442 19.6925 4.79834 18.9765 4.79834 18.0931V6.89726ZM6.91792 7.81713C6.91792 7.5963 7.09694 7.41728 7.31777 7.41728H16.6739C16.8948 7.41728 17.0738 7.5963 17.0738 7.81713V17.1733C17.0738 17.3941 16.8948 17.5731 16.6739 17.5731H7.31777C7.09694 17.5731 6.91792 17.3941 6.91792 17.1733V7.81713Z" fill="#525C69"/>
</svg>
