<svg width="24" height="24" viewBox="0 0 24 24" fill="none" xmlns="http://www.w3.org/2000/svg">
<path fill-rule="evenodd" clip-rule="evenodd" d="M10.8619 3.3006C10.8619 3.03333 11.185 2.89948 11.374 3.08847L13.9709 5.68531C14.088 5.80247 14.088 5.99242 13.9709 6.10958L12.2518 7.82862C12.1685 7.82414 12.0846 7.82188 12.0001 7.82188C11.6073 7.82188 11.226 7.87093 10.8619 7.96324V7.07315L10.8501 7.0759C8.57701 7.56093 6.82552 9.45431 6.55276 11.7989C6.53961 11.9119 6.4676 12.0105 6.36193 12.0528L4.4014 12.8359C4.21235 12.9115 4.00472 12.7807 4.00128 12.5771C4.00051 12.5313 4.00012 12.4855 4.00012 12.4395C4.00012 8.44038 6.93448 5.12663 10.7676 4.53386C10.8 4.52885 10.8317 4.52945 10.8619 4.53488V3.3006ZM16.4386 13.7155C16.3305 14.0923 16.1756 14.4493 15.9808 14.7799L16.784 17.4245C16.8322 17.583 16.9997 17.6725 17.1583 17.6244L20.6722 16.557C20.928 16.4794 20.9621 16.1313 20.7264 16.0054L19.4619 15.3301C19.8095 14.4336 20.0001 13.4588 20.0001 12.4395C20.0001 9.12539 17.9849 6.28196 15.1131 5.06774C14.9216 4.98679 14.7152 5.13129 14.7152 5.33915V7.49908C14.7152 7.60678 14.7733 7.70567 14.8651 7.76201C16.4364 8.72651 17.4845 10.4606 17.4845 12.4395C17.4845 13.0301 17.3911 13.5989 17.2184 14.1319L16.4386 13.7155ZM8.76388 15.7323C8.45645 15.4301 8.19114 15.0853 7.97756 14.7073L5.46526 14.1284C5.30381 14.0912 5.14276 14.1919 5.10556 14.3533L4.28089 17.932C4.22087 18.1925 4.50571 18.3955 4.73231 18.2538L5.84926 17.5552C7.31673 19.3177 9.52741 20.4395 12.0001 20.4395C13.3796 20.4395 14.6776 20.0903 15.8104 19.4755C15.9763 19.3856 16.0087 19.1647 15.8823 19.0247L14.5435 17.5431C14.4541 17.4441 14.3103 17.4168 14.1879 17.4701C13.5177 17.762 12.7778 17.9239 12.0001 17.9239C10.4283 17.9239 9.01092 17.2626 8.01097 16.2032L8.76388 15.7323ZM8.97957 10.152C8.97957 9.98627 9.11128 9.85195 9.27376 9.85195H14.727C14.8895 9.85195 15.0212 9.98627 15.0212 10.152V11.552C15.0212 11.7176 14.8895 11.852 14.727 11.852H9.27376C9.11128 11.852 8.97957 11.7176 8.97957 11.552V10.152ZM8.97957 13.3277C8.97957 13.162 9.11128 13.0277 9.27376 13.0277H14.727C14.8895 13.0277 15.0212 13.162 15.0212 13.3277V14.7277C15.0212 14.8934 14.8895 15.0277 14.727 15.0277H9.27376C9.11128 15.0277 8.97957 14.8934 8.97957 14.7277V13.3277Z" fill="#95C500"/>
</svg>
