<svg width="24" height="24" viewBox="0 0 24 24" fill="none" xmlns="http://www.w3.org/2000/svg">
<path fill-rule="evenodd" clip-rule="evenodd" d="M11.9999 4.2207C7.70344 4.2207 4.22046 7.70369 4.22046 12.0002C4.22046 16.2966 7.70344 19.7796 11.9999 19.7796C16.2964 19.7796 19.7794 16.2966 19.7794 12.0002C19.7794 7.70369 16.2964 4.2207 11.9999 4.2207ZM12 7.0001C10.3431 7.0001 8.99998 8.34325 8.99998 10.0001V14.0001C8.99998 15.657 10.3431 17.0001 12 17.0001C13.6568 17.0001 15 15.657 15 14.0001V10.0001C15 8.34325 13.6568 7.0001 12 7.0001Z" fill="#525C69"/>
<rect x="10" y="12" width="4" height="3" rx="1" fill="#525C69"/>
</svg>
