<svg width="24" height="24" viewBox="0 0 24 24" fill="none" xmlns="http://www.w3.org/2000/svg">
<path d="M14.5384 12.0001C14.5384 13.402 13.4019 14.5384 12 14.5384C10.5981 14.5384 9.46162 13.402 9.46162 12.0001C9.46162 10.5981 10.5981 9.46166 12 9.46166C13.4019 9.46166 14.5384 10.5981 14.5384 12.0001Z" fill="#525C69"/>
<path d="M11.1803 3.79431C11.1803 3.3416 11.5473 2.97461 12 2.97461C12.4527 2.97461 12.8197 3.3416 12.8197 3.79431V6.66761C12.8197 7.12031 12.4527 7.4873 12 7.4873C11.5473 7.4873 11.1803 7.12031 11.1803 6.66761V3.79431Z" fill="#525C69"/>
<path d="M17.2227 5.61809C17.5428 5.29797 18.0618 5.29797 18.3819 5.61809C18.702 5.9382 18.702 6.4572 18.3819 6.77731L16.3502 8.80904C16.0301 9.12915 15.5111 9.12915 15.1909 8.80904C14.8708 8.48893 14.8708 7.96993 15.1909 7.64982L17.2227 5.61809Z" fill="#525C69"/>
<path d="M20.2057 11.1803C20.6584 11.1803 21.0254 11.5473 21.0254 12C21.0254 12.4527 20.6584 12.8197 20.2057 12.8197H17.3324C16.8797 12.8197 16.5127 12.4527 16.5127 12C16.5127 11.5473 16.8797 11.1803 17.3324 11.1803H20.2057Z" fill="#525C69"/>
<path d="M18.3819 17.2227C18.702 17.5428 18.702 18.0618 18.3819 18.3819C18.0618 18.702 17.5428 18.702 17.2227 18.3819L15.191 16.3502C14.8709 16.0301 14.8709 15.5111 15.191 15.191C15.5111 14.8708 16.0301 14.8708 16.3502 15.191L18.3819 17.2227Z" fill="#525C69"/>
<path d="M12.8197 20.2057C12.8197 20.6584 12.4527 21.0254 12 21.0254C11.5473 21.0254 11.1803 20.6584 11.1803 20.2057V17.3324C11.1803 16.8797 11.5473 16.5127 12 16.5127C12.4527 16.5127 12.8197 16.8797 12.8197 17.3324V20.2057Z" fill="#525C69"/>
<path d="M6.77732 18.3819C6.45721 18.702 5.9382 18.702 5.61809 18.3819C5.29798 18.0618 5.29798 17.5428 5.61809 17.2227L7.64982 15.191C7.96993 14.8708 8.48894 14.8708 8.80905 15.191C9.12916 15.5111 9.12916 16.0301 8.80905 16.3502L6.77732 18.3819Z" fill="#525C69"/>
<path d="M3.79431 12.8197C3.3416 12.8197 2.97461 12.4527 2.97461 12C2.97461 11.5473 3.3416 11.1803 3.79431 11.1803H6.66761C7.12031 11.1803 7.4873 11.5473 7.4873 12C7.4873 12.4527 7.12031 12.8197 6.66761 12.8197H3.79431Z" fill="#525C69"/>
<path d="M5.61808 6.77731C5.29797 6.4572 5.29797 5.9382 5.61808 5.61809C5.93819 5.29797 6.4572 5.29797 6.77731 5.61809L8.80904 7.64982C9.12915 7.96993 9.12915 8.48893 8.80904 8.80904C8.48893 9.12915 7.96992 9.12915 7.64981 8.80904L5.61808 6.77731Z" fill="#525C69"/>
</svg>
