<svg width="24" height="24" viewBox="0 0 24 24" fill="none" xmlns="http://www.w3.org/2000/svg">
<path d="M3.56677 5.01279C3.56677 4.4734 4.00404 4.03613 4.54343 4.03613H12.1471C12.6865 4.03613 13.1238 4.4734 13.1238 5.01279V7.65948C13.1238 8.19887 12.6865 8.63613 12.1471 8.63613H4.54343C4.00404 8.63613 3.56677 8.19887 3.56677 7.65948V5.01279Z" fill="#95C500"/>
<path d="M7.09399 10.6739C7.09399 10.1345 7.53126 9.69727 8.07065 9.69727H15.9295C16.4689 9.69727 16.9061 10.1345 16.9061 10.6739V13.3206C16.9061 13.86 16.4689 14.2973 15.9295 14.2973H8.07065C7.53126 14.2973 7.09399 13.86 7.09399 13.3206V10.6739Z" fill="#95C500"/>
<path d="M11.0216 16.3351C11.0216 15.7957 11.4589 15.3584 11.9983 15.3584H19.607C20.1464 15.3584 20.5836 15.7957 20.5836 16.3351V18.9817C20.5836 19.5211 20.1464 19.9584 19.607 19.9584H11.9983C11.4589 19.9584 11.0216 19.5211 11.0216 18.9817V16.3351Z" fill="#95C500"/>
<path fill-rule="evenodd" clip-rule="evenodd" d="M14.7327 6.33789C14.7327 5.89606 15.0909 5.53789 15.5327 5.53789H17.5411C18.7561 5.53789 19.7411 6.52287 19.7411 7.73789V10.5693C19.7411 11.0112 19.3829 11.3693 18.9411 11.3693C18.4993 11.3693 18.1411 11.0112 18.1411 10.5693V7.73789C18.1411 7.40652 17.8725 7.13789 17.5411 7.13789H15.5327C15.0909 7.13789 14.7327 6.77972 14.7327 6.33789Z" fill="#95C500"/>
<path fill-rule="evenodd" clip-rule="evenodd" d="M6.15798 16.5594H8.55798C8.99981 16.5594 9.35798 16.9175 9.35798 17.3594C9.35798 17.8012 8.99981 18.1594 8.55798 18.1594H6.15798C4.94296 18.1594 3.95798 17.1744 3.95798 15.9594L3.95798 13.4043C3.95798 12.9625 4.31616 12.6043 4.75798 12.6043C5.19981 12.6043 5.55798 12.9625 5.55798 13.4043L5.55798 15.9594C5.55798 16.2907 5.82661 16.5594 6.15798 16.5594Z" fill="#95C500"/>
</svg>
