<svg width="24" height="24" viewBox="0 0 24 24" fill="none" xmlns="http://www.w3.org/2000/svg">
<path fill-rule="evenodd" clip-rule="evenodd" d="M7.79919 4.35352C6.80553 4.35352 6 5.15904 6 6.15271V17.8483C6 18.842 6.80553 19.6475 7.79919 19.6475H16.2008C17.1945 19.6475 18 18.842 18 17.8483V6.15271C18 5.15904 17.1945 4.35352 16.2008 4.35352H7.79919ZM8 6.75352C8 6.5326 8.17909 6.35352 8.4 6.35352H15.6C15.8209 6.35352 16 6.5326 16 6.75352V9.95352C16 10.1744 15.8209 10.3535 15.6 10.3535H8.4C8.17909 10.3535 8 10.1744 8 9.95352V6.75352ZM8 12.7535C8 12.5326 8.17909 12.3535 8.4 12.3535H9.6C9.82091 12.3535 10 12.5326 10 12.7535V13.2973C10 13.5182 9.82091 13.6973 9.6 13.6973H8.4C8.17909 13.6973 8 13.5182 8 13.2973V12.7535ZM8.4 14.3535C8.17909 14.3535 8 14.5326 8 14.7535V15.2973C8 15.5182 8.17909 15.6973 8.4 15.6973H9.6C9.82091 15.6973 10 15.5182 10 15.2973V14.7535C10 14.5326 9.82091 14.3535 9.6 14.3535H8.4ZM8 16.7535C8 16.5326 8.17909 16.3535 8.4 16.3535H9.6C9.82091 16.3535 10 16.5326 10 16.7535V17.2973C10 17.5182 9.82091 17.6973 9.6 17.6973H8.4C8.17909 17.6973 8 17.5182 8 17.2973V16.7535ZM11.4092 12.3535C11.1882 12.3535 11.0092 12.5326 11.0092 12.7535V13.2973C11.0092 13.5182 11.1882 13.6973 11.4092 13.6973H12.6092C12.8301 13.6973 13.0092 13.5182 13.0092 13.2973V12.7535C13.0092 12.5326 12.8301 12.3535 12.6092 12.3535H11.4092ZM11.0092 14.7535C11.0092 14.5326 11.1882 14.3535 11.4092 14.3535H12.6092C12.8301 14.3535 13.0092 14.5326 13.0092 14.7535V15.2973C13.0092 15.5182 12.8301 15.6973 12.6092 15.6973H11.4092C11.1882 15.6973 11.0092 15.5182 11.0092 15.2973V14.7535ZM11.4092 16.3535C11.1882 16.3535 11.0092 16.5326 11.0092 16.7535V17.2973C11.0092 17.5182 11.1882 17.6973 11.4092 17.6973H12.6092C12.8301 17.6973 13.0092 17.5182 13.0092 17.2973V16.7535C13.0092 16.5326 12.8301 16.3535 12.6092 16.3535H11.4092ZM14.0183 12.7535C14.0183 12.5326 14.1974 12.3535 14.4183 12.3535H15.6183C15.8392 12.3535 16.0183 12.5326 16.0183 12.7535V13.2973C16.0183 13.5182 15.8392 13.6973 15.6183 13.6973H14.4183C14.1974 13.6973 14.0183 13.5182 14.0183 13.2973V12.7535ZM14.4183 14.3535C14.1974 14.3535 14.0183 14.5326 14.0183 14.7535V15.2973C14.0183 15.5182 14.1974 15.6973 14.4183 15.6973H15.6183C15.8392 15.6973 16.0183 15.5182 16.0183 15.2973V14.7535C16.0183 14.5326 15.8392 14.3535 15.6183 14.3535H14.4183ZM14.0183 16.7535C14.0183 16.5326 14.1974 16.3535 14.4183 16.3535H15.6183C15.8392 16.3535 16.0183 16.5326 16.0183 16.7535V17.2973C16.0183 17.5182 15.8392 17.6973 15.6183 17.6973H14.4183C14.1974 17.6973 14.0183 17.5182 14.0183 17.2973V16.7535Z" fill="#525C69"/>
</svg>
