<svg width="24" height="24" viewBox="0 0 24 24" fill="none" xmlns="http://www.w3.org/2000/svg">
<path d="M15.0656 3.49219C14.6433 3.49219 14.301 3.83451 14.301 4.25679V5.47661C14.301 5.89889 14.6433 6.24121 15.0656 6.24121C15.4879 6.24121 15.8302 5.89889 15.8302 5.47661V4.25679C15.8302 3.83451 15.4879 3.49219 15.0656 3.49219Z" fill="#95C500"/>
<path d="M10.4359 5.13016H13.5092V5.70428C13.5092 6.56389 14.206 7.26074 15.0656 7.26074C15.9252 7.26074 16.6221 6.56389 16.6221 5.70428V5.13016H17.8308C18.9103 5.1982 19.7467 6.13478 19.7272 7.25632V10.0088L17.6748 10.0087V8.37969H6.33106V16.824H11.481L13.581 18.9502H5.30482C4.73836 18.9502 4.27862 18.4739 4.27862 17.8871V7.25632C4.27451 7.20104 4.27246 7.14683 4.27246 7.09261C4.27451 6.00614 5.12627 5.12804 6.17505 5.13016H7.35724V5.66171C7.35724 6.54193 8.04582 7.25632 8.89654 7.25632C9.74727 7.25632 10.4359 6.54193 10.4359 5.66171V5.13016Z" fill="#95C500"/>
<path d="M9.65071 4.28182V5.4512C9.65071 5.88281 9.31308 6.23257 8.89644 6.23257C8.4798 6.23257 8.14218 5.88281 8.14218 5.4512V4.28182L8.14771 4.18029C8.19329 3.79276 8.51469 3.49316 8.90157 3.49513C9.31821 3.49833 9.65275 3.85021 9.65071 4.28182Z" fill="#95C500"/>
<path d="M12.6133 10.283H11.4907C11.2646 10.283 11.0813 10.4651 11.0813 10.6898V11.805C11.0813 12.0296 11.2646 12.2117 11.4907 12.2117H12.6133C12.8394 12.2117 13.0227 12.0296 13.0227 11.805V10.6898C13.0227 10.4651 12.8394 10.283 12.6133 10.283Z" fill="#95C500"/>
<path d="M8.57947 10.2833H9.70208C9.92818 10.2833 10.1115 10.4654 10.1115 10.69V11.8052C10.1115 12.0298 9.92818 12.2119 9.70208 12.2119H8.57947C8.35336 12.2119 8.17007 12.0298 8.17007 11.8052V10.69C8.17007 10.4654 8.35336 10.2833 8.57947 10.2833Z" fill="#95C500"/>
<path d="M9.70113 13.1761H8.57852C8.35242 13.1761 8.16912 13.3581 8.16912 13.5828V14.698C8.16912 14.9226 8.35242 15.1047 8.57852 15.1047H9.70113C9.92724 15.1047 10.1105 14.9226 10.1105 14.698V13.5828C10.1105 13.3581 9.92724 13.1761 9.70113 13.1761Z" fill="#95C500"/>
<path d="M14.4029 10.283H15.5255C15.7516 10.283 15.9349 10.4651 15.9349 10.6898V11.805C15.9349 12.0296 15.7516 12.2117 15.5255 12.2117H14.4029C14.1768 12.2117 13.9935 12.0296 13.9935 11.805V10.6898C13.9935 10.4651 14.1768 10.283 14.4029 10.283Z" fill="#95C500"/>
<path d="M13.6611 13.5583L12.3131 14.9062L16.1273 18.7205L21.5192 13.3286L20.1712 11.9807L16.1273 16.0245L13.6611 13.5583Z" fill="#95C500"/>
</svg>
