<svg width="24" height="24" viewBox="0 0 24 24" fill="none" xmlns="http://www.w3.org/2000/svg">
	<path d="M9.64827 5.45609V4.2867C9.65031 3.85509 9.31577 3.50321 8.89913 3.50001C8.51225 3.49805 8.19085 3.79764 8.14527 4.18517L8.13974 4.2867V5.45609C8.13974 5.8877 8.47736 6.23745 8.894 6.23745C9.31064 6.23745 9.64827 5.8877 9.64827 5.45609Z" fill="#8DBB00"/>
	<path d="M17.8283 5.13504C18.9079 5.20308 19.7443 6.13966 19.7248 7.26121V9.43581C19.0861 9.15579 18.3959 8.97139 17.6724 8.90072V8.38457H6.32862V16.8289H10.3282C10.4617 17.5887 10.7217 18.305 11.0857 18.9551H5.30238C4.73592 18.9551 4.27618 18.4788 4.27618 17.892V7.26121C4.27207 7.20593 4.27002 7.15171 4.27002 7.09749C4.27207 6.01103 5.12382 5.13292 6.1726 5.13504H7.35479V5.66659C7.35479 6.54682 8.04338 7.26121 8.8941 7.26121C9.74483 7.26121 10.4334 6.54682 10.4334 5.66659V5.13504H17.8283Z" fill="#8DBB00"/>
	<path d="M12.7969 10.3322C12.1716 10.8279 11.6358 11.4316 11.2177 12.1151C11.1326 12.0406 11.0789 11.9315 11.0789 11.8099V10.6946C11.0789 10.47 11.2622 10.2879 11.4883 10.2879H12.6109C12.6779 10.2879 12.7411 10.3039 12.7969 10.3322Z" fill="#8DBB00"/>
	<path d="M9.69964 10.2881H8.57703C8.35092 10.2881 8.16763 10.4702 8.16763 10.6949V11.8101C8.16763 12.0347 8.35092 12.2168 8.57703 12.2168H9.69964C9.92574 12.2168 10.109 12.0347 10.109 11.8101V10.6949C10.109 10.4702 9.92574 10.2881 9.69964 10.2881Z" fill="#8DBB00"/>
	<path d="M8.57608 13.1809H9.69869C9.9248 13.1809 10.1081 13.363 10.1081 13.5876V14.7029C10.1081 14.9275 9.9248 15.1096 9.69869 15.1096H8.57608C8.34998 15.1096 8.16668 14.9275 8.16668 14.7029V13.5876C8.16668 13.363 8.34998 13.1809 8.57608 13.1809Z" fill="#8DBB00"/>
	<path fill-rule="evenodd" clip-rule="evenodd" d="M17.0052 20.6475C19.7667 20.6475 22.0052 18.4089 22.0052 15.6475C22.0052 12.886 19.7667 10.6475 17.0052 10.6475C14.2438 10.6475 12.0052 12.886 12.0052 15.6475C12.0052 18.4089 14.2438 20.6475 17.0052 20.6475ZM19.7133 17.3699L18.7286 18.3546L17.0056 16.6316L15.282 18.3552L14.2973 17.3705L16.0209 15.6469L14.2974 13.9235L15.2821 12.9388L17.0056 14.6622L18.7285 12.9393L19.7132 13.924L17.9903 15.6469L19.7133 17.3699Z" fill="#8DBB00"/>
</svg>