<svg width="24" height="24" viewBox="0 0 24 24" fill="none" xmlns="http://www.w3.org/2000/svg">
<path fill-rule="evenodd" clip-rule="evenodd" d="M13.0144 13.1098L13.9844 11.7007V13.1098H13.0144ZM13.9844 14.6351H14.7673V13.8048H15.2919V13.1098H14.7673V10.4937H14.0877L12.257 13.113V13.8048H13.9844V14.6351ZM10.1426 12.8567C9.68942 13.2674 9.38686 13.5966 9.23254 13.8457C9.07944 14.094 8.98669 14.3577 8.95631 14.6351H11.7927V13.9008H10.1856C10.2277 13.8291 10.2832 13.7562 10.3512 13.6813C10.4193 13.606 10.5809 13.4541 10.8365 13.2256C11.0916 12.9964 11.2682 12.8214 11.3658 12.6987C11.5137 12.5156 11.6214 12.3402 11.6903 12.1717C11.7575 12.0041 11.7927 11.8275 11.7927 11.6416C11.7927 11.3151 11.6737 11.0425 11.4351 10.823C11.1978 10.6039 10.8701 10.4937 10.4537 10.4937C10.073 10.4937 9.75665 10.5881 9.5031 10.7776C9.24996 10.9676 9.09929 11.2795 9.05149 11.7145L9.85751 11.7938C9.8729 11.563 9.93001 11.3977 10.0309 11.2985C10.1301 11.1989 10.2646 11.1494 10.4335 11.1494C10.6044 11.1494 10.7376 11.1964 10.8344 11.2912C10.9321 11.386 10.9807 11.5213 10.9807 11.6979C10.9807 11.8566 10.9244 12.019 10.8134 12.1815C10.7304 12.2997 10.5068 12.5249 10.1426 12.8567ZM6.83519 16.3063H17.1647V9.27212H6.83519V16.3063ZM17.2959 5.90752H16.304V6.32795C16.304 7.02501 15.7256 7.58962 15.0128 7.58962C14.2999 7.58962 13.7215 7.02501 13.7215 6.32795V5.90752H10.2784V6.32795C10.2784 7.02501 9.69998 7.58962 8.98713 7.58962C8.27427 7.58962 7.69589 7.02501 7.69589 6.32795V5.90752H6.70396C5.77482 5.90752 5.1134 6.59932 5.1134 7.58962V17.1472C5.1134 17.6117 5.49859 17.9884 5.9741 17.9884H18.0258C18.5013 17.9884 18.8865 17.6117 18.8865 17.1472V7.58962C18.8865 6.65197 18.1174 5.90752 17.2959 5.90752ZM8.98713 6.77956C9.33667 6.77956 9.62019 6.50292 9.62019 6.16107V5.23274C9.62019 4.89089 9.33667 4.61426 8.98713 4.61426C8.63718 4.61426 8.35406 4.89089 8.35406 5.23274V6.16107C8.35406 6.50292 8.63718 6.77956 8.98713 6.77956ZM15.0128 6.71961C15.3429 6.71961 15.6106 6.45796 15.6106 6.13515V5.25866C15.6106 4.93585 15.3429 4.6742 15.0128 4.6742C14.6827 4.6742 14.415 4.93585 14.415 5.25866V6.13515C14.415 6.45796 14.6827 6.71961 15.0128 6.71961Z" fill="#525C69"/>
</svg>
