<svg width="24" height="24" viewBox="0 0 24 24" fill="none" xmlns="http://www.w3.org/2000/svg">
	<path d="M10.2664 17.7829H6.10336V9.02617H17.901V12.4206H20.0154V7.86124C20.0354 6.69821 19.1738 5.72699 18.0617 5.65644H16.735V6.20764C16.735 7.12043 16.0246 7.86124 15.1493 7.86124C14.2739 7.86124 13.5635 7.12043 13.5635 6.20764V5.65644H10.3321V6.20764C10.3321 7.12043 9.62269 7.86124 8.74629 7.86124C7.8699 7.86124 7.16053 7.12043 7.16053 6.20764V5.65644H5.94267C4.86224 5.65424 3.98478 6.56482 3.98267 7.69147C3.98267 7.74769 3.98478 7.80392 3.98901 7.86124V18.8853C3.98901 19.4938 4.46262 19.9876 5.04618 19.9876H10.2664V17.7829Z" fill="#8DBB00"/>
	<path d="M9.52332 4.77672V5.98937C9.52332 6.43694 9.17551 6.79963 8.74629 6.79963C8.31708 6.79963 7.96927 6.43694 7.96927 5.98937V4.7657C7.97138 4.31923 8.32237 3.95874 8.75158 3.96095C9.18079 3.96426 9.52543 4.32915 9.52332 4.77672Z" fill="#8DBB00"/>
	<path d="M15.8829 4.80607V5.95588C15.8829 6.3781 15.5541 6.72094 15.1481 6.72094C14.7422 6.71984 14.4155 6.37699 14.4155 5.95477V4.80607C14.4155 4.38275 14.7443 4.04101 15.1492 4.04101C15.5541 4.04101 15.8829 4.38275 15.8829 4.80607Z" fill="#8DBB00"/>
	<path d="M8 11H10V13H8V11Z" fill="#8DBB00"/>
	<path d="M13 11H11V13H13V11Z" fill="#8DBB00"/>
	<path d="M12.0336 15.5606C12.0336 15.0083 12.4813 14.5606 13.0336 14.5606H19.7465C20.2987 14.5606 20.7465 15.0083 20.7465 15.5606V16.0606C20.7465 16.6129 20.2987 17.0606 19.7465 17.0606H13.0336C12.4813 17.0606 12.0336 16.6129 12.0336 16.0606V15.5606Z" fill="#8DBB00"/>
	<path d="M13.0336 18.5492C12.4813 18.5492 12.0336 18.997 12.0336 19.5492V20.0492C12.0336 20.6015 12.4813 21.0492 13.0336 21.0492H19.7465C20.2987 21.0492 20.7465 20.6015 20.7465 20.0492V19.5492C20.7465 18.997 20.2987 18.5492 19.7465 18.5492H13.0336Z" fill="#8DBB00"/>
</svg>