<svg width="24" height="24" viewBox="0 0 24 24" fill="none" xmlns="http://www.w3.org/2000/svg">
<path fill-rule="evenodd" clip-rule="evenodd" d="M17.901 17.7829H6.10336V9.02617H17.901V17.7829ZM16.735 6.20764V5.65644H18.0617C19.1738 5.72699 20.0354 6.69821 20.0154 7.86124V18.8853C20.0154 19.4938 19.5428 19.9876 18.9582 19.9876H5.04618C4.46262 19.9876 3.98901 19.4938 3.98901 18.8853V7.86124C3.98478 7.80392 3.98267 7.74769 3.98267 7.69147C3.98478 6.56482 4.86224 5.65424 5.94267 5.65644H7.16053V6.20764C7.16053 7.12043 7.8699 7.86124 8.74629 7.86124C9.62269 7.86124 10.3321 7.12043 10.3321 6.20764V5.65644H13.5635V6.20764C13.5635 7.12043 14.2739 7.86124 15.1493 7.86124C16.0246 7.86124 16.735 7.12043 16.735 6.20764ZM9.52332 4.77672V5.98937C9.52332 6.43694 9.17551 6.79963 8.74629 6.79963C8.31708 6.79963 7.96927 6.43694 7.96927 5.98937V4.77672V4.7657C7.97138 4.31923 8.32237 3.95874 8.75158 3.96095C9.18079 3.96426 9.52543 4.32915 9.52332 4.77672ZM15.8829 4.80607V5.95588C15.8829 6.3781 15.5541 6.72094 15.1481 6.72094C14.7422 6.71984 14.4155 6.37699 14.4155 5.95477V4.80607C14.4155 4.38275 14.7443 4.04101 15.1492 4.04101C15.5541 4.04101 15.8829 4.38275 15.8829 4.80607ZM11.3767 15.4694H12.8483V10.7607H12.7134L10.6016 11.687V12.6078L11.3767 12.4004V15.4694Z" fill="#525C69"/>
</svg>
