<svg width="24" height="24" viewBox="0 0 24 24" fill="none" xmlns="http://www.w3.org/2000/svg">
<path d="M11.848 10.6715H12.9444C13.1653 10.6715 13.3443 10.8505 13.3443 11.0713V12.1678C13.3443 12.3886 13.1653 12.5676 12.9444 12.5676H11.848C11.6272 12.5676 11.4481 12.3886 11.4481 12.1678V11.0713C11.4481 10.8505 11.6272 10.6715 11.848 10.6715Z" fill="#525C69"/>
<path d="M10.1011 10.6717H9.00465C8.78382 10.6717 8.6048 10.8507 8.6048 11.0716V12.168C8.6048 12.3888 8.78382 12.5678 9.00465 12.5678H10.1011C10.3219 12.5678 10.5009 12.3888 10.5009 12.168V11.0716C10.5009 10.8507 10.3219 10.6717 10.1011 10.6717Z" fill="#525C69"/>
<path d="M10.1002 13.5157H9.00373C8.7829 13.5157 8.60388 13.6947 8.60388 13.9156V15.012C8.60388 15.2328 8.7829 15.4118 9.00373 15.4118H10.1002C10.321 15.4118 10.5 15.2328 10.5 15.012V13.9156C10.5 13.6947 10.321 13.5157 10.1002 13.5157Z" fill="#525C69"/>
<path d="M12.9444 13.5157H11.848C11.6272 13.5157 11.4481 13.6947 11.4481 13.9156V15.012C11.4481 15.2328 11.6272 15.4118 11.848 15.4118H12.9444C13.1653 15.4118 13.3443 15.2328 13.3443 15.012V13.9156C13.3443 13.6947 13.1653 13.5157 12.9444 13.5157Z" fill="#525C69"/>
<path d="M14.6923 10.6715H15.7887C16.0095 10.6715 16.1885 10.8505 16.1885 11.0713V12.1678C16.1885 12.3886 16.0095 12.5676 15.7887 12.5676H14.6923C14.4714 12.5676 14.2924 12.3886 14.2924 12.1678V11.0713C14.2924 10.8505 14.4714 10.6715 14.6923 10.6715Z" fill="#525C69"/>
<path fill-rule="evenodd" clip-rule="evenodd" d="M16.8856 6.12809V5.60552H18.0402C19.0946 5.67241 19.9114 6.59318 19.8924 7.69582V18.1473C19.8924 18.7242 19.4444 19.1925 18.8901 19.1925H5.80638C5.25313 19.1925 4.80411 18.7242 4.80411 18.1473V7.69582C4.8001 7.64147 4.7981 7.58817 4.7981 7.53487C4.8001 6.46672 5.63199 5.60343 6.65631 5.60552H7.81093V6.12809C7.81093 6.99348 8.48345 7.69582 9.31433 7.69582C10.1452 7.69582 10.8177 6.99348 10.8177 6.12809V5.60552H13.8788V6.12809C13.8788 6.99348 14.5523 7.69582 15.3822 7.69582C16.2121 7.69582 16.8856 6.99348 16.8856 6.12809ZM17.8879 17.1021H6.80868V8.80023H17.8879V17.1021Z" fill="#525C69"/>
<path d="M10.0509 4.77148V5.92114C10.0509 6.34547 9.72115 6.68933 9.31423 6.68933C8.90731 6.68933 8.57756 6.34547 8.57756 5.92114V4.77148L8.58296 4.67166C8.62748 4.29067 8.94139 3.99613 9.31924 3.99806C9.72617 4.0012 10.0529 4.34715 10.0509 4.77148Z" fill="#525C69"/>
<path d="M16.0778 4.79967V5.88976C16.0778 6.29006 15.7661 6.6151 15.3812 6.6151C14.9963 6.61405 14.6866 6.28901 14.6866 5.88872V4.79967C14.6866 4.39833 14.9983 4.07434 15.3822 4.07434C15.7661 4.07434 16.0778 4.39833 16.0778 4.79967Z" fill="#525C69"/>
</svg>
