<svg width="24" height="24" viewBox="0 0 24 24" fill="none" xmlns="http://www.w3.org/2000/svg">
	<path d="M9.64827 4.2867V5.45609C9.64827 5.8877 9.31064 6.23745 8.894 6.23745C8.47736 6.23745 8.13974 5.8877 8.13974 5.45609V4.2867L8.14527 4.18517C8.19085 3.79764 8.51225 3.49805 8.89913 3.50001C9.31577 3.50321 9.65031 3.85509 9.64827 4.2867Z" fill="#95C500"/>
	<path d="M5.30238 18.9551H14.5216L11.86 16.8609L11.8141 16.8289H6.32862V8.38457H11.9572L14.438 5.13504H10.4334V5.66659C10.4334 6.54682 9.74483 7.26121 8.8941 7.26121C8.04338 7.26121 7.35479 6.54682 7.35479 5.66659V5.13504H6.1726C5.12382 5.13292 4.27207 6.01103 4.27002 7.09749C4.27002 7.15171 4.27207 7.20593 4.27618 7.26121V17.892C4.27618 18.4788 4.73592 18.9551 5.30238 18.9551Z" fill="#95C500"/>
	<path d="M8.57703 10.2881H9.69964C9.92574 10.2881 10.109 10.4702 10.109 10.6949V11.8101C10.109 12.0347 9.92574 12.2168 9.69964 12.2168H8.57703C8.35092 12.2168 8.16763 12.0347 8.16763 11.8101V10.6949C8.16763 10.4702 8.35092 10.2881 8.57703 10.2881Z" fill="#95C500"/>
	<path d="M9.69869 13.1809H8.57608C8.34998 13.1809 8.16668 13.363 8.16668 13.5876V14.7029C8.16668 14.9275 8.34998 15.1096 8.57608 15.1096H9.69869C9.9248 15.1096 10.1081 14.9275 10.1081 14.7029V13.5876C10.1081 13.363 9.9248 13.1809 9.69869 13.1809Z" fill="#95C500"/>
	<path d="M19.584 14.3836C19.5818 15.463 19.0499 16.4789 18.147 17.1282H18.6572C18.6572 17.1282 21.7395 16.1861 21.7395 13.5259C21.7395 11.5845 20.6833 10.4468 19.7129 9.40159C18.9226 8.55046 18.1893 7.76061 18.1296 6.64791C18.118 6.43193 17.8842 6.27626 17.6903 6.38796C15.8491 7.44865 13.1176 10.1449 13.1176 13.0113C13.16 14.8586 14.3832 16.4924 16.1999 17.1282H16.7101C15.861 16.4375 15.3423 15.4468 15.2731 14.3836C15.3653 13.0259 16.1141 11.7899 17.2929 11.0363C17.3643 10.9907 17.4611 11.0192 17.4992 11.0927C17.9685 11.9996 18.4387 12.4576 18.8134 12.8226C19.2694 13.2668 19.584 13.5733 19.584 14.3836Z" fill="#95C500"/>
</svg>