<svg width="24" height="24" viewBox="0 0 24 24" fill="none" xmlns="http://www.w3.org/2000/svg">
<path fill-rule="evenodd" clip-rule="evenodd" d="M5.98645 17.06H9.21206L8.23986 19.1432H4.98755C4.43616 19.1432 3.98866 18.6766 3.98866 18.1016V7.68532C3.98466 7.63116 3.98267 7.57803 3.98267 7.52491C3.98466 6.46037 4.81375 5.59998 5.83462 5.60207H6.98534V6.12288C6.98534 6.98535 7.6556 7.68532 8.48369 7.68532C9.31177 7.68532 9.98203 6.98535 9.98203 6.12288V5.60207H13.0353V6.12288C13.0353 6.98535 13.7066 7.68532 14.5337 7.68532C15.3608 7.68532 16.032 6.98535 16.032 6.12288V5.60207H17.2856C18.3364 5.66873 19.1505 6.5864 19.1315 7.68532V11.4395L17.1337 9.77467V8.78601H5.98645V17.06ZM9.21787 5.91661V4.77081C9.21987 4.34791 8.89423 4.00314 8.48868 4.00001C8.08313 3.99793 7.75149 4.33854 7.7495 4.7604V4.77081V5.91661C7.7495 6.33951 8.07813 6.6822 8.48368 6.6822C8.88924 6.6822 9.21787 6.33951 9.21787 5.91661ZM15.2269 5.88497V4.79855C15.2269 4.39857 14.9162 4.07566 14.5336 4.07566C14.151 4.07566 13.8404 4.39857 13.8404 4.79855V5.88393C13.8404 6.28287 14.149 6.60682 14.5326 6.60786C14.9162 6.60786 15.2269 6.28392 15.2269 5.88497ZM8.27853 10.6141C8.00239 10.6141 7.77853 10.838 7.77853 11.1141V12.0038C7.77853 12.28 8.00239 12.5038 8.27853 12.5038H9.16828C9.44442 12.5038 9.66828 12.28 9.66828 12.0038V11.1141C9.66828 10.838 9.44442 10.6141 9.16828 10.6141H8.27853ZM10.6131 11.151C10.6131 10.8749 10.837 10.651 11.1131 10.651H12.0029C12.279 10.651 12.5029 10.8749 12.5029 11.151V12.0408C12.5029 12.3169 12.279 12.5408 12.0029 12.5408H11.1131C10.837 12.5408 10.6131 12.3169 10.6131 12.0408V11.151ZM16.4789 11.6586C16.4789 11.4791 16.709 11.3844 16.8533 11.5045L21.901 15.7049C22.033 15.8147 22.033 16.0059 21.901 16.1157L16.8533 20.3161C16.709 20.4363 16.4789 20.3416 16.4789 20.1621V17.4551C16.4515 17.4653 16.4216 17.4709 16.3904 17.4709C13.4665 17.4712 10.9311 19.3957 9.88979 20.3118C9.73023 20.4522 9.46777 20.3298 9.51587 20.1311C9.92281 18.4501 11.4514 14.1043 16.396 13.9745C16.4251 13.9737 16.4531 13.9783 16.4789 13.9872V11.6586Z" fill="#525C69"/>
</svg>
