<svg width="24" height="24" viewBox="0 0 24 24" fill="none" xmlns="http://www.w3.org/2000/svg">
<path fill-rule="evenodd" clip-rule="evenodd" d="M12.6484 6H19.3516C19.7097 6 20 6.29033 20 6.64847V11.1293C20 11.4875 19.7097 11.7778 19.3516 11.7778H18.2222V13.2757C18.2222 13.543 17.8991 13.6769 17.7101 13.4879L16 11.7778H12.6484C12.2903 11.7778 12 11.4875 12 11.1293V6.64847C12 6.29033 12.2903 6 12.6484 6ZM15.8193 14.9632L17.7929 16.3974C18.3892 16.8367 18.4355 17.705 17.8852 18.2003C15.8218 20.1127 12.3837 20.8551 7.85759 16.2142C3.33142 11.5734 4.23157 8.2512 6.29497 6.33876C6.84459 5.84371 7.72016 5.92562 8.13846 6.52859L9.51879 8.48641C10.0022 9.20508 9.69687 10.1842 8.95518 10.6643L8.12661 11.2007C7.93621 11.3183 7.88317 11.5648 7.98534 11.7536C9.05687 13.5777 10.605 15.1762 12.4155 16.3216C12.5961 16.4227 12.8554 16.3704 12.9813 16.2038L13.5664 15.3995C14.078 14.6985 15.1184 14.4525 15.8193 14.9632Z" fill="#525C69"/>
</svg>
