<svg width="24" height="24" viewBox="0 0 24 24" fill="none" xmlns="http://www.w3.org/2000/svg">
<path fill-rule="evenodd" clip-rule="evenodd" d="M19.0338 7.12436H15.5169C15.2657 6.13541 15.0145 5.14648 14.0096 5.14648H9.99025C8.98541 5.14648 8.73418 6.13541 8.48298 7.12436H4.96602C4.41336 7.12436 3.96118 7.56938 3.96118 8.11328V17.0137C3.96118 17.5576 4.41336 18.0026 4.96602 18.0026H19.0338C19.5865 18.0026 20.0387 17.5576 20.0387 17.0137V8.11328C20.0387 7.56938 19.5865 7.12436 19.0338 7.12436ZM9.42175 12.4076C9.42175 13.8089 10.576 14.9449 11.9999 14.9449C13.4238 14.9449 14.5781 13.8089 14.5781 12.4076C14.5781 11.0062 13.4238 9.87025 11.9999 9.87025C10.576 9.87025 9.42175 11.0062 9.42175 12.4076ZM11.9999 15.872C10.0558 15.872 8.47974 14.321 8.47974 12.4076C8.47974 10.4942 10.0558 8.94314 11.9999 8.94314C13.9441 8.94314 15.5201 10.4942 15.5201 12.4076C15.5201 14.321 13.9441 15.872 11.9999 15.872ZM18.3007 9.56394H16.999V8.69629H18.3007V9.56394Z" fill="#525C69"/>
</svg>
