<svg width="24" height="24" viewBox="0 0 24 24" fill="none" xmlns="http://www.w3.org/2000/svg">
<path fill-rule="evenodd" clip-rule="evenodd" d="M19.3693 14.7753C19.6808 14.7753 19.9333 15.0466 19.9333 15.4107V17.3406C19.9333 17.7047 19.6808 17.9998 19.3693 17.9998H5.56405C5.25253 17.9998 5 17.7047 5 17.3406V15.4107C5 15.0466 5.25253 14.7753 5.56405 14.7753H19.3693ZM12.4671 15.4033C11.9991 15.4033 11.6197 15.8064 11.6197 16.3036C11.6197 16.8009 11.9991 17.204 12.4671 17.204C12.9352 17.204 13.3146 16.8009 13.3146 16.3036C13.3146 15.8064 12.9352 15.4033 12.4671 15.4033ZM11.9208 4C12.2323 4 12.4849 4.26831 12.4849 4.59929V5.83044H16.8386C17.1501 5.83044 17.4027 6.09875 17.4027 6.42973V7.65827C17.4027 7.65827 19.0102 12.1595 19.0102 12.2878V12.7992C19.0102 13.1302 18.7577 13.3985 18.4462 13.3985H6.51652C6.20501 13.3985 5.95247 13.1302 5.95247 12.7992V12.2878C5.95247 12.1595 7.30619 7.69645 7.30619 7.69645V6.42973C7.30619 6.09875 7.55872 5.83044 7.87024 5.83044H8.73042V4.59929C8.73042 4.26831 8.98295 4 9.29446 4L11.9208 4ZM16.6986 10.5479H8.32245C8.27739 10.5479 8.24056 10.5853 8.23799 10.6325L8.23784 10.6378V11.5967C8.23784 11.6445 8.27306 11.6837 8.31748 11.6864L16.6986 11.6866C16.7436 11.6866 16.7805 11.6491 16.783 11.602L16.7832 10.6378C16.7832 10.5882 16.7453 10.5479 16.6986 10.5479ZM15.9978 8.66849H9.02153C8.984 8.66849 8.95332 8.70591 8.95118 8.7531L8.95106 8.75838V9.71725C8.95106 9.76512 8.98039 9.80425 9.01738 9.80699L9.02153 9.80714H15.9978C16.0353 9.80714 16.066 9.76972 16.0682 9.72253L16.0683 8.75838C16.0683 8.70874 16.0367 8.66849 15.9978 8.66849ZM11.605 5.22878C11.605 5.06309 11.4706 4.92878 11.305 4.92878L9.91027 4.92878C9.74458 4.92878 9.61027 5.06309 9.61027 5.22878L9.61027 6.30956C9.61027 6.47525 9.74458 6.60956 9.91027 6.60956H11.305C11.4706 6.60956 11.605 6.47525 11.605 6.30956V5.22878Z" fill="#525C69"/>
</svg>
