<svg width="24" height="24" viewBox="0 0 24 24" fill="none" xmlns="http://www.w3.org/2000/svg">
	<path d="M3.99878 6.07738C3.99878 5.37072 4.57164 4.79785 5.27831 4.79785H14.6246C15.3312 4.79785 15.9041 5.37072 15.9041 6.07738V12.4473C15.9041 13.154 15.3312 13.7268 14.6246 13.7268H9.95157L7.38478 16.2936C7.23364 16.4448 6.97522 16.3377 6.97522 16.124V13.7268H5.27831C4.57164 13.7268 3.99878 13.154 3.99878 12.4473V6.07738Z" fill="#525C69"/>
	<path d="M9.95147 15.7111V16.4157C9.95147 17.1224 10.5243 17.6953 11.231 17.6953H14.7705L16.4744 19.6831C16.6193 19.8522 16.8964 19.7497 16.8964 19.527V17.6953H18.593C19.2997 17.6953 19.8726 17.1224 19.8726 16.4157V10.0458C19.8726 9.33915 19.2997 8.76629 18.593 8.76629H17.8886V14.0317C17.8886 14.9592 17.1367 15.7111 16.2092 15.7111H9.95147Z" fill="#525C69"/>
</svg>
