<svg width="24" height="24" viewBox="0 0 24 24" fill="none" xmlns="http://www.w3.org/2000/svg">
<path fill-rule="evenodd" clip-rule="evenodd" d="M15.2508 3.99805H4.79814C3.91481 3.99805 3.19873 4.71413 3.19873 5.59746V12.4098C3.19873 13.2931 3.91481 14.0092 4.79814 14.0092H6.13915V18.3723L10.5022 14.0092H15.2508C16.1342 14.0092 16.8503 13.2931 16.8503 12.4098V5.59746C16.8503 4.71413 16.1342 3.99805 15.2508 3.99805ZM8.78576 12.0351L6.23442 9.62731L7.27985 8.60846L8.78576 9.99744L12.8453 6.02507L13.8907 7.04392L8.78576 12.0351Z" fill="#525C69"/>
<path d="M9.61626 17.7832L9.60743 17.1058L11.0741 15.5661H16.7613C17.6446 15.5661 18.3607 14.85 18.3607 13.9667V7.94121H18.547C19.4303 7.94121 20.1464 8.65729 20.1464 9.54062V16.1838C20.1464 17.0672 19.4303 17.7832 18.547 17.7832H12.3492L9.61626 20.5161V17.7832Z" fill="#525C69"/>
</svg>
