<svg width="24" height="24" viewBox="0 0 24 24" fill="none" xmlns="http://www.w3.org/2000/svg">
<path fill-rule="evenodd" clip-rule="evenodd" d="M3.95728 11.9839C3.95728 16.3932 7.53178 19.9678 11.9412 19.9678C16.3505 19.9678 19.925 16.3932 19.925 11.9839C19.925 7.5745 16.3505 4 11.9412 4C7.53178 4 3.95728 7.5745 3.95728 11.9839ZM7.56152 10.0039C7.56152 9.17548 8.2331 8.50391 9.06152 8.50391H14.821C15.6495 8.50391 16.321 9.17548 16.321 10.0039V13.5735C16.321 14.402 15.6495 15.0735 14.821 15.0735H12.3019L10.4474 16.9281C10.0694 17.3061 9.42309 17.0384 9.42309 16.5038V15.0735H9.06152C8.2331 15.0735 7.56152 14.402 7.56152 13.5735V10.0039Z" fill="#525C69"/>
</svg>
