<svg width="24" height="24" viewBox="0 0 24 24" fill="none" xmlns="http://www.w3.org/2000/svg">
<path d="M6.06445 4.96582C4.95988 4.96582 4.06445 5.86125 4.06445 6.96582V11.9658C4.06445 13.0704 4.95988 13.9658 6.06445 13.9658H6.32199V15.5173C6.32199 16.0518 6.96828 16.3195 7.34625 15.9416L8.55286 14.735V10.9279C8.55286 9.27103 9.896 7.92789 11.5529 7.92789H16.0645V6.96582C16.0645 5.86125 15.169 4.96582 14.0645 4.96582H6.06445Z" fill="#525C69"/>
<path d="M10.0522 11.2478C10.0522 10.1432 10.9476 9.24777 12.0522 9.24777H18.786C19.8906 9.24777 20.786 10.1432 20.786 11.2478V15.1871C20.786 16.2903 19.8927 17.1849 18.79 17.1871V18.4734C18.79 19.0409 18.0751 19.2912 17.721 18.8476L16.3958 17.1871H12.0522C10.9476 17.1871 10.0522 16.2917 10.0522 15.1871V11.2478Z" fill="#525C69"/>
</svg>
