<svg width="24" height="24" viewBox="0 0 24 24" fill="none" xmlns="http://www.w3.org/2000/svg">
<path fill-rule="evenodd" clip-rule="evenodd" d="M5.00863 4.99316H15.2128C15.7579 4.99316 16.1998 5.43507 16.1998 5.98019V12.8004C16.1998 13.3455 15.7579 13.7875 15.2128 13.7875H10.1107L7.41069 16.4871C7.1587 16.7391 6.72787 16.5606 6.72787 16.2043V13.7875H5.00863C4.46351 13.7875 4.02161 13.3455 4.02161 12.8004V5.98019C4.02161 5.43507 4.46351 4.99316 5.00863 4.99316ZM19.9487 9.05207C20.4938 9.05207 20.9357 9.49398 20.9357 10.0391V16.1829C20.9357 16.728 20.4938 17.1699 19.9487 17.1699H18.2295V18.9102C18.2295 19.2666 17.7986 19.445 17.5467 19.1931L15.5232 17.1699H11.0977C10.5526 17.1699 10.1107 16.728 10.1107 16.1829V15.1404H16.0757C16.8934 15.1404 17.5563 14.4776 17.5563 13.6599V9.05207H19.9487Z" fill="#525C69"/>
</svg>
