<svg width="24" height="24" viewBox="0 0 24 24" fill="none" xmlns="http://www.w3.org/2000/svg">
<path fill-rule="evenodd" clip-rule="evenodd" d="M4.55653 5.9038C6.30589 3.95453 17.7655 4.07409 19.3323 5.9038C20.8992 7.73351 21.1797 15.2423 19.3323 16.9545C18.9813 17.2798 18.2908 17.5281 17.391 17.7081C17.3713 18.8132 17.2911 21.0541 16.966 21.0541C16.6697 21.0541 14.5717 19.2252 13.2863 18.0794C9.61212 18.147 5.51633 17.6931 4.55653 16.9545C2.87947 15.6641 2.80718 7.85307 4.55653 5.9038ZM5.5979 14.457C6.19789 14.5603 7.02782 14.647 7.98636 14.7132C8.04656 14.455 8.1226 14.1574 8.17712 13.944C8.21675 13.7889 8.24502 13.6784 8.24755 13.6597C8.26021 13.2909 8.75891 12.9613 9.30188 12.7362C9.26075 12.6793 9.22557 12.6184 9.19691 12.5544C9.12123 12.4583 9.02188 12.3834 8.90866 12.3372L8.90001 12.0484L9.49618 11.8575C9.49618 11.8575 9.65009 11.7844 9.66492 11.7844C9.64728 11.74 9.62519 11.6976 9.59895 11.6577C9.58979 11.633 9.5422 11.4813 9.5231 11.4206L9.51523 11.3955C9.60148 11.5093 9.70307 11.6105 9.81703 11.6965C9.71257 11.508 9.62407 11.3112 9.55254 11.108C9.50523 10.912 9.47359 10.7126 9.45786 10.5117C9.41695 10.1464 9.35318 9.78401 9.26676 9.42673C9.2054 9.24929 9.09639 9.09216 8.9517 8.97255C8.73925 8.8217 8.48988 8.73128 8.23014 8.71094H8.20027C7.94054 8.73136 7.6912 8.82177 7.47873 8.97255C7.33382 9.09202 7.22472 9.24919 7.16346 9.42673C7.07729 9.78406 7.01353 10.1464 6.97256 10.5117C6.9542 10.7082 6.92096 10.9031 6.87315 11.0946C6.80166 11.3015 6.71478 11.5027 6.61323 11.6967C6.72789 11.6111 6.83013 11.5102 6.91704 11.3965C6.91704 11.3965 6.86084 11.6072 6.84952 11.6379C6.81871 11.6849 6.7913 11.734 6.7675 11.7849C6.78252 11.7849 6.93628 11.858 6.93628 11.858L7.53241 12.0484L7.5238 12.3372C7.41047 12.3832 7.31111 12.458 7.23552 12.5542C7.19969 12.6466 7.14263 12.7293 7.06894 12.7956C6.92516 12.8466 6.78668 12.9114 6.65543 12.9891C6.45675 13.1021 6.238 13.1753 6.01137 13.2047C5.78318 13.243 5.63921 13.6195 5.63921 13.6195C5.63886 13.6257 5.61781 14.0492 5.5979 14.457ZM8.61404 14.7524C10.682 14.8702 13.2 14.8992 15.2948 14.8075C15.1722 14.2915 15.0624 13.869 15.0624 13.869C15.0624 13.869 14.6573 13.1908 13.859 12.9802C13.5879 12.9028 13.3306 12.7832 13.0966 12.6259C13.0591 12.5284 13.0442 12.4236 13.0532 12.3195L12.7973 12.2795C12.7973 12.2571 12.7754 11.9254 12.7754 11.9254C13.0829 11.8199 13.0513 11.1974 13.0513 11.1974C13.2466 11.308 13.3738 10.816 13.3738 10.816C13.6048 10.132 13.2588 10.1732 13.2588 10.1732C13.3193 9.75528 13.3193 9.3309 13.2588 8.91303C13.105 7.5272 10.7886 7.90298 11.0634 8.356C10.3864 8.22807 10.541 9.80152 10.541 9.80152L10.6878 10.2083C10.4844 10.3428 10.5243 10.4975 10.5688 10.6703C10.5874 10.7425 10.6068 10.8178 10.6096 10.8961C10.6238 11.2889 10.8585 11.2073 10.8585 11.2073C10.8732 11.8551 11.1857 11.9402 11.1857 11.9402C11.2445 12.347 11.208 12.2769 11.208 12.2769L10.9296 12.3113C10.9334 12.4037 10.9261 12.4963 10.9078 12.587C10.7461 12.6607 10.6472 12.7192 10.5494 12.7769C10.4489 12.8364 10.3496 12.8951 10.1847 12.9688C9.55618 13.2493 8.87308 13.6157 8.75187 14.1081C8.71934 14.2401 8.66956 14.4767 8.61404 14.7524ZM15.9252 14.7751C16.85 14.721 17.665 14.6404 18.2837 14.5301C18.2628 14.0998 18.2387 13.6146 18.2382 13.608C18.2382 13.608 18.0952 13.234 17.8684 13.1959C17.6433 13.1666 17.426 13.0939 17.2286 12.9817C17.0982 12.9045 16.9606 12.8401 16.8178 12.7894C16.7446 12.7236 16.6879 12.6414 16.6523 12.5496C16.5772 12.4541 16.4785 12.3798 16.3659 12.334L16.3575 12.0471L16.9497 11.858C16.9497 11.858 17.1025 11.7854 17.1174 11.7854C17.0937 11.7348 17.0664 11.686 17.0358 11.6393C17.0245 11.6088 16.9687 11.3995 16.9687 11.3995C17.055 11.5124 17.1566 11.6127 17.2705 11.6977C17.1697 11.505 17.0833 11.3051 17.0123 11.0996C16.9648 10.9093 16.9318 10.7157 16.9135 10.5204C16.8728 10.1575 16.8095 9.79755 16.7239 9.44257C16.6631 9.26618 16.5546 9.11004 16.4106 8.99135C16.1996 8.84155 15.9519 8.75174 15.6938 8.73145H15.6642C15.4061 8.75166 15.1584 8.84148 14.9474 8.99135C14.8036 9.11018 14.6952 9.26629 14.6343 9.44257C14.5485 9.7975 14.4851 10.1575 14.4445 10.5204C14.4288 10.72 14.3974 10.9181 14.3504 11.1128C14.2793 11.3147 14.1914 11.5103 14.0876 11.6975C14.2009 11.6121 14.3277 11.3985 14.3277 11.3985C14.3277 11.3985 14.316 11.6281 14.3047 11.6588C14.2785 11.6984 14.2566 11.7406 14.2391 11.7847C14.2538 11.7847 14.4067 11.8573 14.4067 11.8573L14.9988 12.0471L14.9903 12.334C14.8777 12.3799 14.6404 12.5541 14.5996 12.6106C15.139 12.8343 15.6344 13.2816 15.6472 13.6479C15.6497 13.6666 15.6782 13.7779 15.718 13.9339C15.7778 14.1683 15.8635 14.5033 15.9252 14.7751Z" fill="#525C69"/>
</svg>
