<svg width="24" height="24" viewBox="0 0 24 24" fill="none" xmlns="http://www.w3.org/2000/svg">
<path d="M9.35454 7.85449H14.6452V9.6416H9.35454V7.85449Z" fill="#525C69"/>
<path d="M14.6452 11.1135H9.35454V12.9006H14.6452V11.1135Z" fill="#525C69"/>
<path fill-rule="evenodd" clip-rule="evenodd" d="M17.8761 4.35254C18.2678 4.35254 18.5853 4.67855 18.5853 5.08071V18.9189C18.5853 19.4571 18.0363 19.8093 17.5651 19.5734L14.3806 17.9788L11.9999 19.1714L9.61838 17.9788L6.43468 19.5733C5.96352 19.8093 5.41443 19.4571 5.41443 18.9188V5.08071C5.41443 4.67855 5.73198 4.35254 6.1237 4.35254H17.8761ZM16.7615 17.0883V6.22499H7.23827V17.0883L9.61907 15.8967L11.9999 17.0883L14.3807 15.8967L16.7615 17.0883Z" fill="#525C69"/>
</svg>
