<svg width="24" height="24" viewBox="0 0 24 24" fill="none" xmlns="http://www.w3.org/2000/svg">
<path fill-rule="evenodd" clip-rule="evenodd" d="M15.2913 5C15.5054 5 15.679 5.17995 15.679 5.40194V6.4064C15.679 6.62838 15.5054 6.80834 15.2913 6.80834L14.7064 6.80772V10.3418L18.8238 16.4175C19.1315 16.8716 19.0258 17.4984 18.5878 17.8174C18.4247 17.9362 18.2301 18 18.0307 18H8.70195C8.16665 18 7.73271 17.5501 7.73271 16.9952C7.73271 16.7922 7.79201 16.5939 7.9028 16.4266L11.914 10.3659V6.80772L11.3302 6.80834C11.116 6.80834 10.9425 6.62838 10.9425 6.4064V5.40194C10.9425 5.17995 11.116 5 11.3302 5H15.2913ZM9.20265 7.91211C9.41677 7.91211 9.59034 8.09206 9.59034 8.31405V8.81765C9.59034 9.03964 9.41677 9.21959 9.20265 9.21959L8.97222 9.21941V10.7508L8.97549 10.7508L9.66039 11.6632L6.54233 15.9168L4.58155 15.9175C4.26037 15.9175 4 15.6476 4 15.3146C4 15.1829 4.04163 15.0548 4.11853 14.9498L7.19645 10.7508L7.19947 10.7508V9.21941L6.9703 9.21959C6.75618 9.21959 6.5826 9.03964 6.5826 8.81765V8.31405C6.5826 8.09206 6.75618 7.91211 6.9703 7.91211H9.20265Z" fill="#525C69"/>
</svg>
