<svg width="24" height="24" viewBox="0 0 24 24" fill="none" xmlns="http://www.w3.org/2000/svg">
<path d="M8.20048 12.9063C8.00521 12.711 8.00522 12.3944 8.20048 12.1992L8.83687 11.5628C9.03214 11.3675 9.34872 11.3675 9.54398 11.5628L11.0074 13.0262L14.6468 9.38676C14.8421 9.19149 15.1587 9.19149 15.3539 9.38676L15.9903 10.0232C16.1856 10.2184 16.1856 10.535 15.9903 10.7303L11.3611 15.3595C11.1658 15.5548 10.8492 15.5548 10.654 15.3595L10.0962 14.8018C10.093 14.7987 10.0898 14.7956 10.0866 14.7924L8.20048 12.9063Z" fill="#95C500"/>
<path fill-rule="evenodd" clip-rule="evenodd" d="M3.6543 11.9839C3.6543 16.5842 7.38358 20.3135 11.9839 20.3135C16.5842 20.3135 20.3135 16.5842 20.3135 11.9839C20.3135 7.38358 16.5842 3.6543 11.9839 3.6543C7.38358 3.6543 3.6543 7.38358 3.6543 11.9839ZM5.56006 12.0012C5.56006 15.5582 8.44354 18.4417 12.0005 18.4417C15.5574 18.4417 18.4409 15.5582 18.4409 12.0012C18.4409 8.4443 15.5574 5.56082 12.0005 5.56082C8.44354 5.56082 5.56006 8.4443 5.56006 12.0012Z" fill="#95C500"/>
</svg>
