<svg width="24" height="24" viewBox="0 0 24 24" fill="none" xmlns="http://www.w3.org/2000/svg">
<path fill-rule="evenodd" clip-rule="evenodd" d="M15.0369 10.3196C15.0369 10.2708 15.0428 10.2221 15.0543 10.1747C15.1327 9.85457 15.4504 9.65992 15.7639 9.73996L18.4943 10.437C18.7548 10.5035 18.9376 10.7425 18.9376 11.0167V16.5253H19.9127V18.517H4.31006V16.5253H5.28523V6.87877C5.28523 6.39044 5.63197 5.97415 6.10396 5.89582L12.9301 4.7629C12.9819 4.75432 13.0341 4.75 13.0865 4.75C13.6251 4.75 14.0618 5.19586 14.0618 5.74585V16.5253H15.0369V10.3196ZM9.35806 16.6811V13.4688H7.52246V16.6811H9.35806ZM12.1115 15.3044V13.4688H10.2759V15.3044H12.1115ZM18.0771 13.0098H16.2415V14.8454H18.0771V13.0098ZM12.1115 7.50293H10.2759V9.33853H12.1115V7.50293ZM9.35806 7.50293H7.52246V9.33853H9.35806V7.50293ZM12.1114 10.7157H10.2758V12.5513H12.1114V10.7157ZM9.35796 10.7157H7.52236V12.5513H9.35796V10.7157Z" fill="#525C69"/>
</svg>
