<svg width="24" height="24" viewBox="0 0 24 24" fill="none" xmlns="http://www.w3.org/2000/svg">
<path fill-rule="evenodd" clip-rule="evenodd" d="M4.73197 15.268C6.06564 18.2337 9.06758 20.0915 12.3168 19.962C16.6274 19.8738 20.0516 16.3101 19.9678 11.9995C19.9676 8.74766 17.9915 5.82222 14.9749 4.60793C11.9584 3.39365 8.50658 4.13417 6.25355 6.47895C4.00052 8.82373 3.3983 12.3023 4.73197 15.268ZM15.2132 9.66495C14.9734 9.37753 14.5461 9.33891 14.2586 9.57868L12.0689 11.4055L11.0173 10.3548C10.7319 10.0696 10.2693 10.0698 9.98415 10.3553C9.69896 10.6407 9.69916 11.1033 9.98458 11.3884L11.3949 12.7976C11.518 12.9206 11.6741 12.9905 11.8347 13.0073C12.0365 13.0566 12.2582 13.0127 12.43 12.8694L15.1269 10.6195C15.4144 10.3797 15.453 9.95237 15.2132 9.66495ZM11.9905 8.33122C12.3004 8.33122 12.5516 8.08 12.5516 7.7701C12.5516 7.4602 12.3004 7.20898 11.9905 7.20898C11.6806 7.20898 11.4294 7.4602 11.4294 7.7701C11.4294 8.08 11.6806 8.33122 11.9905 8.33122ZM11.9905 16.7895C12.3004 16.7895 12.5516 16.5383 12.5516 16.2284C12.5516 15.9185 12.3004 15.6673 11.9905 15.6673C11.6806 15.6673 11.4294 15.9185 11.4294 16.2284C11.4294 16.5383 11.6806 16.7895 11.9905 16.7895ZM8.39518 11.9889C8.39518 12.2988 8.14396 12.55 7.83407 12.55C7.52417 12.55 7.27295 12.2988 7.27295 11.9889C7.27295 11.679 7.52417 11.4278 7.83407 11.4278C8.14396 11.4278 8.39518 11.679 8.39518 11.9889ZM16.3011 12.55C16.611 12.55 16.8622 12.2988 16.8622 11.9889C16.8622 11.679 16.611 11.4278 16.3011 11.4278C15.9912 11.4278 15.74 11.679 15.74 11.9889C15.74 12.2988 15.9912 12.55 16.3011 12.55ZM12.2595 18.5236C9.59727 18.6298 7.1376 17.1076 6.04485 14.6776C4.9521 12.2476 5.44553 9.39742 7.29157 7.4762C9.13761 5.55499 11.9658 4.94824 14.4375 5.94317C16.9091 6.93811 18.5283 9.33509 18.5284 11.9995C18.5971 15.5315 15.7915 18.4514 12.2595 18.5236ZM12.2118 17.3243C10.0392 17.4109 8.03187 16.1686 7.14009 14.1853C6.24831 12.2021 6.65099 9.87587 8.15752 8.30786C9.66405 6.73984 11.9721 6.24464 13.9892 7.05666C16.0063 7.86868 17.3276 9.825 17.3278 11.9996C17.3838 14.8822 15.0942 17.2653 12.2118 17.3243Z" fill="#525C69"/>
</svg>
