<svg width="24" height="24" viewBox="0 0 24 24" fill="none" xmlns="http://www.w3.org/2000/svg">
<path fill-rule="evenodd" clip-rule="evenodd" d="M4.73197 15.268C6.06564 18.2337 9.06758 20.0915 12.3168 19.962C16.6274 19.8738 20.0516 16.3101 19.9678 11.9995C19.9676 8.74766 17.9915 5.82222 14.9749 4.60793C11.9584 3.39365 8.50658 4.13417 6.25355 6.47895C4.00052 8.82373 3.3983 12.3023 4.73197 15.268ZM6.58693 14.4342C7.58021 16.643 9.81596 18.0266 12.2359 17.9301C15.4463 17.8644 17.9965 15.2103 17.9341 11.9999C17.9339 9.57806 16.4622 7.39928 14.2156 6.49493C11.9689 5.59057 9.39814 6.14208 7.72016 7.8884C6.04218 9.63472 5.59366 12.2254 6.58693 14.4342ZM10.9917 7.98828H12.9917V10.9883H15.9917V12.9883H12.9917H10.9917V7.98828Z" fill="#525C69"/>
</svg>
