<svg width="24" height="24" viewBox="0 0 24 24" fill="none" xmlns="http://www.w3.org/2000/svg">
<path fill-rule="evenodd" clip-rule="evenodd" d="M12.2428 19.9112C16.6366 19.9112 20.1984 16.3493 20.1984 11.9556C20.1984 7.56183 16.6366 4 12.2428 4C8.2085 4 4.87555 7.00293 4.35725 10.8955H1L5.43812 15.3336L9.87625 10.8955H6.38295C6.88319 8.11313 9.31649 6.00195 12.2429 6.00195C15.5313 6.00195 18.197 8.6677 18.197 11.9561C18.197 15.2444 15.5313 17.9102 12.2429 17.9102C12.0923 17.9102 11.9429 17.9046 11.7951 17.8936V19.8988C11.9433 19.907 12.0926 19.9112 12.2428 19.9112ZM13.1038 8.81715H11.1038V13.8171H13.1038V13.8167H15.5435V11.876H13.1038V8.81715Z" fill="#525C69"/>
</svg>
