<svg width="24" height="24" viewBox="0 0 24 24" fill="none" xmlns="http://www.w3.org/2000/svg">
<path fill-rule="evenodd" clip-rule="evenodd" d="M12.318 19.9936C9.05626 20.1237 6.04272 18.2585 4.70391 15.2811C3.3651 12.3037 3.96964 8.81139 6.23137 6.45736C8.49309 4.10332 11.9582 3.35988 14.9864 4.57896C18.0146 5.79804 19.9983 8.73502 19.9985 11.9996C20.0826 16.3273 16.6452 19.905 12.318 19.9936ZM12.2489 18.2571C9.69559 18.3589 7.3366 16.8989 6.28857 14.5682C5.24055 12.2374 5.71379 9.50367 7.48426 7.66093C9.25474 5.81819 11.9672 5.23622 14.3377 6.19052C16.7082 7.14481 18.261 9.44388 18.2612 11.9994C18.3271 15.3872 15.6363 18.1878 12.2489 18.2571ZM8.44846 8.58809C9.3955 7.6024 10.6852 7.07538 12 7.0752V12.0005L16.3351 14.4091C15.532 15.8764 13.9878 16.8851 12.1957 16.9218C10.1876 17.0018 8.33232 15.8536 7.50808 14.0205C6.68383 12.1874 7.05602 10.0374 8.44846 8.58809Z" fill="#525C69"/>
</svg>
