<svg width="24" height="24" viewBox="0 0 24 24" fill="none" xmlns="http://www.w3.org/2000/svg">
<path d="M8.02106 13.8621L9.88352 11.9996L8.02106 10.1372L9.20632 8.95189L12.254 11.9996L9.20632 15.0473L8.02106 13.8621Z" fill="#95C500"/>
<path fill-rule="evenodd" clip-rule="evenodd" d="M4.55017 8.27472C4.55017 6.21751 6.21787 4.5498 8.27509 4.5498H15.7249C17.7821 4.5498 19.4498 6.21751 19.4498 8.27472V15.7245C19.4498 17.7818 17.7821 19.4495 15.7249 19.4495H8.27509C6.21787 19.4495 4.55017 17.7818 4.55017 15.7245V8.27472ZM8.27509 6.41226C7.24648 6.41226 6.41263 7.24611 6.41263 8.27472V15.7245C6.41263 16.7532 7.24648 17.587 8.27509 17.587H13.3968V6.41226H8.27509ZM15.2593 6.41226V17.587H15.7249C16.7535 17.587 17.5874 16.7532 17.5874 15.7245V8.27472C17.5874 7.24611 16.7535 6.41226 15.7249 6.41226H15.2593Z" fill="#95C500"/>
</svg>
