<svg width="24" height="24" viewBox="0 0 24 24" fill="none" xmlns="http://www.w3.org/2000/svg">
<path fill-rule="evenodd" clip-rule="evenodd" d="M13.0631 8.55728C11.1069 8.55728 9.49416 10.0557 9.31203 11.9649C7.75077 12.1371 6.5324 13.4642 6.5324 15.0706C6.5324 15.7246 6.73608 16.3331 7.08286 16.8363H5.34611C3.88299 16.8363 2.6969 15.6502 2.6969 14.1871C2.6969 12.7886 3.78066 11.6441 5.15394 11.5455C5.1081 11.3378 5.08322 11.1222 5.08322 10.9008C5.08322 9.25329 6.41875 7.91786 8.06615 7.91786C8.68373 7.91786 9.25741 8.10544 9.73334 8.42686C10.4093 7.07182 11.8082 6.14062 13.4253 6.14062C15.5616 6.14062 17.3184 7.7648 17.5286 9.8456C17.5198 9.84537 17.511 9.84508 17.5022 9.84479C17.4818 9.84413 17.4614 9.84346 17.4409 9.84346C16.9816 9.84346 16.5319 9.93662 16.1155 10.1159C15.4132 9.14257 14.2882 8.55728 13.0631 8.55728ZM20.2317 13.2009C20.2317 13.2686 20.2284 13.3355 20.2237 13.402C21.2799 13.567 22.0881 14.4806 22.0881 15.5832C22.0881 16.4444 21.5946 17.1901 20.8752 17.5539C20.8214 17.5813 20.7662 17.6064 20.7099 17.6293H9.64067V17.6289C8.23539 17.6201 7.09875 16.4785 7.09875 15.0711C7.09875 13.6582 8.24407 12.5128 9.65696 12.5128C9.72807 12.5128 9.79821 12.5165 9.86776 12.5221C9.86386 12.4571 9.86122 12.3919 9.86122 12.3259C9.86122 10.5576 11.2948 9.12402 13.0631 9.12402C14.3055 9.12402 15.3819 9.83213 15.9127 10.8662C16.3518 10.5783 16.8766 10.4102 17.441 10.4102C18.9823 10.4102 20.2317 11.6596 20.2317 13.2009Z" fill="#525C69"/>
</svg>
