<svg width="24" height="24" viewBox="0 0 24 24" fill="none" xmlns="http://www.w3.org/2000/svg">
	<path fill-rule="evenodd" clip-rule="evenodd" d="M8.17155 18.032H10.324V15.2138C9.73917 14.8633 9.25987 14.3381 8.96775 13.6885C8.39747 12.4203 8.65498 10.9329 9.61838 9.93024C10.5818 8.92761 12.0578 8.61096 13.3477 9.13019C13.9819 9.3855 14.5086 9.81772 14.8801 10.3564H18.5989C18.4145 8.42219 16.849 6.91002 14.9456 6.91002C14.5297 6.90996 14.117 6.98341 13.7267 7.12698C13.1779 5.67064 11.7919 4.70015 10.2357 4.68262C8.15236 4.68262 6.46512 6.44496 6.46512 8.61757C6.46512 8.64121 6.46512 8.66457 6.46679 8.68822C4.60187 9.41377 3.3818 11.2191 3.40411 13.2201C3.40411 15.8775 5.46963 18.032 8.01802 18.032C8.05656 18.032 8.09479 18.0306 8.13306 18.0292H8.13309L8.17155 18.0278V18.032ZM12.1471 10.3642C11.8955 10.3862 11.6573 10.4548 11.4411 10.5614C11.46 10.4463 11.5282 10.3432 11.6304 10.2813C11.7592 10.2032 11.9207 10.2032 12.0495 10.2813C12.0868 10.3039 12.1196 10.332 12.1471 10.3642ZM12.7199 12.1553L16.5249 14.8252L20.33 12.1553H12.7199ZM21.0218 12.9604L21.0219 12.9603L21.0218 12.823V12.9604ZM21.0218 12.9604V18.1383C21.0218 18.4576 20.733 18.7164 20.3751 18.7164H12.6748C12.3177 18.7164 12.0281 18.458 12.0281 18.1383V12.9603L16.525 16.3484L21.0218 12.9604Z" fill="#525C69"/>
</svg>