<svg width="24" height="24" viewBox="0 0 24 24" fill="none" xmlns="http://www.w3.org/2000/svg">
<path fill-rule="evenodd" clip-rule="evenodd" d="M18.616 10.7867C18.6154 10.8024 18.6149 10.8181 18.6149 10.8338C20.1708 11.3021 21.2283 12.7444 21.2069 14.3691C21.2474 16.3418 19.6885 17.9776 17.7162 18.032H8.17155V18.0278C8.15872 18.0283 8.1459 18.0287 8.13309 18.0292C8.09481 18.0306 8.05657 18.032 8.01802 18.032C5.46963 18.032 3.40411 15.8775 3.40411 13.2201C3.3818 11.2191 4.60187 9.41377 6.46679 8.68822C6.46512 8.66457 6.46512 8.64121 6.46512 8.61757C6.46512 6.44496 8.15236 4.68262 10.2357 4.68262C11.7919 4.70015 13.1779 5.67064 13.7267 7.12698C14.117 6.98341 14.5297 6.90996 14.9456 6.91002C16.973 6.91002 18.6171 8.62563 18.6171 10.7396C18.6171 10.7553 18.6165 10.771 18.616 10.7867ZM11.9928 8.59072C10.0029 8.59072 8.36723 10.1073 8.1786 12.0477L9.47875 12.187C9.59779 10.9032 10.6779 9.89812 11.9929 9.89812C12.7261 9.89812 13.3863 10.2107 13.8476 10.7098L13.0309 11.5265C12.968 11.5895 13.0126 11.6972 13.1017 11.6972H15.7857C15.8409 11.6972 15.8857 11.6524 15.8857 11.5972V8.91319C15.8857 8.8241 15.778 8.77949 15.715 8.84248L14.7726 9.78486C14.0743 9.04934 13.0871 8.59072 11.9928 8.59072ZM11.993 16.2558C13.9557 16.2558 15.5739 14.7803 15.7987 12.878L14.4784 12.87C14.2675 14.0515 13.2349 14.9484 11.9928 14.9484C11.2886 14.9484 10.6517 14.6601 10.1938 14.1951L11.0465 13.3424C11.1095 13.2794 11.0648 13.1717 10.9757 13.1717L8.29174 13.1717C8.23651 13.1717 8.19174 13.2165 8.19174 13.2717L8.19174 15.9557C8.19174 16.0448 8.29946 16.0894 8.36245 16.0265L9.26939 15.1195C9.96398 15.8211 10.9277 16.2558 11.993 16.2558Z" fill="#525C69"/>
</svg>
