<svg width="24" height="24" viewBox="0 0 24 24" fill="none" xmlns="http://www.w3.org/2000/svg">
<path fill-rule="evenodd" clip-rule="evenodd" d="M18.6149 10.8338C18.6149 10.8024 18.6171 10.771 18.6171 10.7396C18.6171 8.62563 16.973 6.91002 14.9456 6.91002C14.5297 6.90996 14.117 6.98341 13.7267 7.12698C13.1779 5.67064 11.7919 4.70015 10.2357 4.68262C8.15236 4.68262 6.46512 6.44496 6.46512 8.61757C6.46512 8.64121 6.46512 8.66457 6.46679 8.68822C4.60187 9.41377 3.3818 11.2191 3.40411 13.2201C3.40411 15.8775 5.46963 18.032 8.01802 18.032C8.06947 18.032 8.12037 18.0295 8.17155 18.0278V18.032H17.7162C19.6885 17.9776 21.2474 16.3418 21.2069 14.3691C21.2283 12.7444 20.1708 11.3021 18.6149 10.8338ZM12.211 15.6956C10.8217 15.751 9.53802 14.9566 8.96775 13.6885C8.39747 12.4203 8.65498 10.9329 9.61838 9.93024C10.5818 8.92761 12.0578 8.61096 13.3477 9.13019C14.6375 9.64942 15.4825 10.9003 15.4826 12.2908C15.5184 14.1341 14.0543 15.6579 12.211 15.6956ZM13.5756 12.2939H12.2432V10.6528C12.2529 10.5025 12.1782 10.3593 12.0495 10.2813C11.9207 10.2032 11.7592 10.2032 11.6304 10.2813C11.5016 10.3593 11.4269 10.5025 11.4366 10.6528V12.713C11.4321 12.9406 11.6129 13.1288 11.8405 13.1333H13.5756C13.7971 13.1191 13.9694 12.9351 13.9691 12.7131C13.9688 12.4911 13.796 12.3076 13.5745 12.2939H13.5756Z" fill="#525C69"/>
</svg>
