<svg width="24" height="24" viewBox="0 0 24 24" fill="none" xmlns="http://www.w3.org/2000/svg">
<path fill-rule="evenodd" clip-rule="evenodd" d="M18.616 10.7867C18.6154 10.8024 18.6149 10.8181 18.6149 10.8338C20.1708 11.3021 21.2283 12.7444 21.2069 14.3691C21.2474 16.3418 19.6885 17.9776 17.7162 18.032H8.17155V18.0278C8.15872 18.0283 8.1459 18.0287 8.13309 18.0292C8.09481 18.0306 8.05657 18.032 8.01802 18.032C5.46963 18.032 3.40411 15.8775 3.40411 13.2201C3.3818 11.2191 4.60187 9.41377 6.46679 8.68822C6.46512 8.66457 6.46512 8.64121 6.46512 8.61757C6.46512 6.44496 8.15236 4.68262 10.2357 4.68262C11.7919 4.70015 13.1779 5.67064 13.7267 7.12698C14.117 6.98341 14.5297 6.90996 14.9456 6.91002C16.973 6.91002 18.6171 8.62563 18.6171 10.7396C18.6171 10.7553 18.6165 10.771 18.616 10.7867ZM9.41236 9.48847H11.2495V15H9.41236V9.48847ZM12.6743 9.48847H14.5115V15H12.6743V9.48847Z" fill="#525C69"/>
</svg>
