<svg width="24" height="24" viewBox="0 0 24 24" fill="none" xmlns="http://www.w3.org/2000/svg">
<path fill-rule="evenodd" clip-rule="evenodd" d="M18.616 10.7867C18.6154 10.8024 18.6149 10.8181 18.6149 10.8338C20.1708 11.3021 21.2283 12.7444 21.2069 14.3691C21.2474 16.3418 19.6885 17.9776 17.7162 18.032H8.17155V18.0278C8.15872 18.0283 8.1459 18.0287 8.13309 18.0292C8.09481 18.0306 8.05657 18.032 8.01802 18.032C5.46963 18.032 3.40411 15.8775 3.40411 13.2201C3.3818 11.2191 4.60187 9.41377 6.46679 8.68822C6.46512 8.66457 6.46512 8.64121 6.46512 8.61757C6.46512 6.44496 8.15236 4.68262 10.2357 4.68262C11.7919 4.70015 13.1779 5.67064 13.7267 7.12698C14.117 6.98341 14.5297 6.90996 14.9456 6.91002C16.973 6.91002 18.6171 8.62563 18.6171 10.7396C18.6171 10.7553 18.6165 10.771 18.616 10.7867ZM12.0594 15.9771C14.1293 15.9771 15.8072 14.2992 15.8072 12.2293C15.8072 10.1594 14.1293 8.48145 12.0594 8.48145C9.98949 8.48145 8.31152 10.1594 8.31152 12.2293C8.31152 14.2992 9.98949 15.9771 12.0594 15.9771ZM11.9907 9.42013C11.653 9.42013 11.3828 9.63891 11.3828 9.91238V11.7538C11.3828 12.0272 11.653 12.246 11.9907 12.246H12.0733C12.411 12.246 12.6812 12.0272 12.6812 11.7538V9.91238C12.6812 9.63891 12.411 9.42013 12.0733 9.42013H11.9907ZM12.8614 14.0432C12.8614 14.505 12.4821 14.8843 12.0203 14.8843C11.5585 14.8843 11.1792 14.505 11.1792 14.0432C11.1792 13.5814 11.5585 13.2021 12.0203 13.2021C12.4821 13.2021 12.8614 13.5814 12.8614 14.0432Z" fill="#525C69"/>
</svg>
