<svg width="24" height="24" viewBox="0 0 24 24" fill="none" xmlns="http://www.w3.org/2000/svg">
<path fill-rule="evenodd" clip-rule="evenodd" d="M16.2655 16.9692H7.83494C7.7628 16.9692 7.69129 16.9665 7.62049 16.9612C5.71515 16.9168 4.18406 15.3242 4.18396 13.3661C4.18452 12.4116 4.55594 11.4966 5.21655 10.8221C5.55515 10.4764 5.95552 10.2084 6.39112 10.0294C6.38383 9.93228 6.38012 9.83414 6.38012 9.73511C6.38072 8.72809 6.77264 7.76255 7.46968 7.05091C8.16671 6.33927 9.11176 5.93982 10.0969 5.94043C11.3589 5.94201 12.473 6.58708 13.1426 7.57166C13.4606 7.45649 13.8028 7.3939 14.1594 7.3941C15.7347 7.39603 17.0286 8.62352 17.1785 10.1932C18.688 10.5297 19.8175 11.9042 19.8161 13.5475C19.8146 15.4415 18.3118 16.9757 16.4591 16.9749C16.3941 16.9749 16.3296 16.9729 16.2655 16.9692Z" fill="#525C69"/>
</svg>
