<svg width="24" height="24" viewBox="0 0 24 24" fill="none" xmlns="http://www.w3.org/2000/svg">
	<path fill-rule="evenodd" clip-rule="evenodd" d="M18.616 10.7867C18.6154 10.8024 18.6149 10.8181 18.6149 10.8338C20.1708 11.3021 21.2283 12.7444 21.2069 14.3691C21.2474 16.3418 19.6885 17.9776 17.7162 18.032H8.17155V18.0278C8.15872 18.0283 8.1459 18.0287 8.13309 18.0292C8.09481 18.0306 8.05657 18.032 8.01802 18.032C5.46963 18.032 3.40411 15.8775 3.40411 13.2201C3.3818 11.2191 4.60187 9.41377 6.46679 8.68822C6.46512 8.66457 6.46512 8.64121 6.46512 8.61757C6.46512 6.44496 8.15236 4.68262 10.2357 4.68262C11.7919 4.70015 13.1779 5.67064 13.7267 7.12698C14.117 6.98341 14.5297 6.90996 14.9456 6.91002C16.973 6.91002 18.6171 8.62563 18.6171 10.7396C18.6171 10.7553 18.6165 10.771 18.616 10.7867ZM12.8713 11.5523L16.9432 14.2236C16.9854 14.2512 17.0109 14.2981 17.0113 14.3485L17.0189 15.3011C17.0194 15.362 16.9832 15.4173 16.9271 15.4411L16.1209 15.7839L16.1154 15.7861C16.0375 15.8157 15.9504 15.7766 15.9208 15.6987L15.7357 15.2118C15.7116 15.1483 15.6481 15.1088 15.5805 15.1152L14.8493 15.1842C14.7808 15.1907 14.7166 15.15 14.6932 15.0852L14.5171 14.5978C14.4934 14.532 14.4275 14.4912 14.358 14.4992L13.4037 14.6086C13.3442 14.6154 13.2862 14.5863 13.2561 14.5345L13.0166 14.1225C12.9862 14.0702 12.9277 14.0411 12.8677 14.0485L12.2685 14.1222C12.233 14.1265 12.1971 14.1182 12.1673 14.0986L11.4914 13.6559C10.7093 14.0452 9.77656 14.0346 8.98799 13.5173C7.83125 12.7584 7.50575 11.1914 8.2646 10.0346C9.02345 8.87788 10.5905 8.55238 11.7473 9.31123C12.5097 9.81142 12.917 10.68 12.8713 11.5523ZM8.83613 10.8818C8.62317 11.2933 8.77483 11.7703 9.18628 11.9833C9.59773 12.1962 10.075 12.0441 10.2878 11.6331C10.5007 11.2217 10.349 10.7446 9.9376 10.5317C9.52615 10.3187 9.04908 10.4704 8.83613 10.8818Z" fill="#8DBB00"/>
</svg>