<svg width="24" height="24" viewBox="0 0 24 24" fill="none" xmlns="http://www.w3.org/2000/svg">
<path fill-rule="evenodd" clip-rule="evenodd" d="M18.616 10.7867C18.6154 10.8024 18.6149 10.8181 18.6149 10.8338C20.1708 11.3021 21.2283 12.7444 21.2069 14.3691C21.2474 16.3418 19.6885 17.9776 17.7162 18.032H8.17155V18.0278C8.15872 18.0283 8.1459 18.0287 8.13309 18.0292C8.09481 18.0306 8.05657 18.032 8.01802 18.032C5.46963 18.032 3.40411 15.8775 3.40411 13.2201C3.3818 11.2191 4.60187 9.41377 6.46679 8.68822C6.46512 8.66457 6.46512 8.64121 6.46512 8.61757C6.46512 6.44496 8.15236 4.68262 10.2357 4.68262C11.7919 4.70015 13.1779 5.67064 13.7267 7.12698C14.117 6.98341 14.5297 6.90996 14.9456 6.91002C16.973 6.91002 18.6171 8.62563 18.6171 10.7396C18.6171 10.7553 18.6165 10.771 18.616 10.7867ZM10.4485 7.45915L8.103 9.96624L10.4485 12.4733C10.6344 12.6721 10.9675 12.5405 10.9675 12.2684V10.7832H14.97V9.2832H10.9675V7.6641C10.9675 7.39198 10.6344 7.26043 10.4485 7.45915ZM13.4979 16.5493L16.0631 13.9918L13.4979 11.4343C13.3088 11.2458 12.9861 11.3797 12.9861 11.6468V13.2471H8.00464V14.7471H12.9861V16.3369C12.9861 16.6039 13.3088 16.7379 13.4979 16.5493Z" fill="#525C69"/>
</svg>
