<svg width="24" height="24" viewBox="0 0 24 24" fill="none" xmlns="http://www.w3.org/2000/svg">
<path d="M12.9218 6.99021C12.3514 6.66088 11.6486 6.66088 11.0782 6.99021L8.12261 8.69663C7.5522 9.02596 7.20081 9.63458 7.20081 10.2932V13.7061C7.20081 14.3647 7.5522 14.9734 8.12261 15.3027L11.0782 17.0091C11.6486 17.3384 12.3514 17.3384 12.9218 17.0091L15.8774 15.3027C16.4478 14.9734 16.7992 14.3647 16.7992 13.7061V10.2932C16.7992 9.63458 16.4478 9.02596 15.8774 8.69664L12.9218 6.99021Z" fill="#95C500"/>
<path fill-rule="evenodd" clip-rule="evenodd" d="M10.1528 3.82992C11.2959 3.16997 12.7042 3.16997 13.8472 3.82992L18.1515 6.31498C19.2946 6.97493 19.9987 8.19456 19.9987 9.51445V14.4846C19.9987 15.8045 19.2946 17.0241 18.1515 17.684L13.8472 20.1691C12.7042 20.8291 11.2959 20.8291 10.1528 20.1691L5.84856 17.684C4.7055 17.0241 4.00134 15.8045 4.00134 14.4846V9.51445C4.00134 8.19456 4.7055 6.97493 5.84856 6.31498L10.1528 3.82992ZM13.0472 5.21556L17.3515 7.70062C17.9995 8.07476 18.3987 8.76619 18.3987 9.51445V14.4846C18.3987 15.2328 17.9995 15.9243 17.3515 16.2984L13.0472 18.7835C12.3992 19.1576 11.6008 19.1576 10.9528 18.7835L6.64856 16.2984C6.00054 15.9243 5.60134 15.2328 5.60134 14.4846V9.51445C5.60134 8.76619 6.00054 8.07476 6.64856 7.70062L10.9528 5.21556C11.6008 4.84143 12.3992 4.84143 13.0472 5.21556Z" fill="#95C500"/>
</svg>
