<svg width="24" height="24" viewBox="0 0 24 24" fill="none" xmlns="http://www.w3.org/2000/svg">
<path fill-rule="evenodd" clip-rule="evenodd" d="M9.23974 9.62191C10.9715 9.62191 12.3754 8.21801 12.3754 6.48622C12.3754 4.75442 10.9715 3.35053 9.23974 3.35053C7.50795 3.35053 6.10405 4.75442 6.10405 6.48622C6.10405 8.21801 7.50795 9.62191 9.23974 9.62191ZM13.4836 6.48689C13.4836 6.76149 13.4576 7.03 13.4077 7.29007C14.4012 7.65063 15.235 8.344 15.7745 9.23543C16.4506 8.78035 17.2649 8.51477 18.1411 8.51477C18.2038 8.51477 18.266 8.51612 18.328 8.51881C17.3316 6.43261 15.3587 4.9022 13.0008 4.51912C13.3092 5.10729 13.4836 5.77672 13.4836 6.48689ZM5.43014 8.35848C5.85337 9.21835 6.55913 9.91412 7.42628 10.3246C7.30739 10.733 7.24365 11.1649 7.24365 11.6116C7.24365 11.9952 7.29064 12.3677 7.37916 12.7239C6.46955 12.8767 5.65812 13.3189 5.04277 13.9526C4.79021 13.219 4.65308 12.4316 4.65308 11.6123C4.65308 10.4411 4.93322 9.33541 5.43014 8.35848ZM12.3312 16.9088C12.3312 16.663 12.3103 16.4221 12.2702 16.1877C13.1773 16.1035 14.008 15.7555 14.6848 15.2214C15.2054 15.9507 15.9511 16.5082 16.8204 16.7927C15.5395 18.0245 13.8027 18.7859 11.8882 18.7986C12.1717 18.2295 12.3312 17.5878 12.3312 16.9088ZM21.2766 12.7578C21.2766 14.4896 19.8728 15.8935 18.141 15.8935C16.4092 15.8935 15.0053 14.4896 15.0053 12.7578C15.0053 11.026 16.4092 9.62213 18.141 9.62213C19.8728 9.62213 21.2766 11.026 21.2766 12.7578ZM8.08729 20.0438C9.81909 20.0438 11.223 18.6399 11.223 16.9081C11.223 15.1763 9.81909 13.7724 8.08729 13.7724C6.3555 13.7724 4.9516 15.1763 4.9516 16.9081C4.9516 18.6399 6.3555 20.0438 8.08729 20.0438Z" fill="#525C69"/>
</svg>
