<svg width="24" height="24" viewBox="0 0 24 24" fill="none" xmlns="http://www.w3.org/2000/svg">
<path fill-rule="evenodd" clip-rule="evenodd" d="M11.9909 4.0127C16.395 4.0127 19.9986 7.61633 19.9986 12.0204C19.9986 16.4246 16.395 20.0282 11.9909 20.0282C7.58678 20.0282 3.98315 16.4246 3.98315 12.0204C3.98315 7.61633 7.58678 4.0127 11.9909 4.0127ZM11.9909 5.85053C8.59745 5.85053 5.82099 8.62699 5.82099 12.0204C5.82099 15.4139 8.59745 18.1904 11.9909 18.1904C15.3844 18.1904 18.1608 15.4139 18.1608 12.0204C18.1608 8.62699 15.3844 5.85053 11.9909 5.85053ZM10.4332 10.6061L15.512 8.53327L13.5318 13.6748L8.46978 15.5076L10.4332 10.6061Z" fill="#525C69"/>
</svg>
