<svg width="24" height="24" viewBox="0 0 24 24" fill="none" xmlns="http://www.w3.org/2000/svg">
<path d="M5.97583 13.2712H8.8481V16.1435H5.97583V13.2712Z" fill="#525C69"/>
<path fill-rule="evenodd" clip-rule="evenodd" d="M5.00513 6.0127C3.90056 6.0127 3.00513 6.90813 3.00513 8.01269V16.9195C3.00513 18.024 3.90056 18.9195 5.00513 18.9195H18.9824C20.087 18.9195 20.9824 18.024 20.9824 16.9195V8.0127C20.9824 6.90813 20.087 6.0127 18.9824 6.0127H5.00513ZM5.42341 7.5069C4.87112 7.5069 4.42341 7.95461 4.42341 8.5069V9.70034H19.5641V8.5069C19.5641 7.95462 19.1164 7.5069 18.5641 7.5069H5.42341ZM19.5641 12.0051H4.42341V16.4253C4.42341 16.9775 4.87112 17.4253 5.42341 17.4253H18.5641C19.1164 17.4253 19.5641 16.9775 19.5641 16.4253V12.0051Z" fill="#525C69"/>
</svg>
