<svg width="24" height="24" viewBox="0 0 24 24" fill="none" xmlns="http://www.w3.org/2000/svg">
	<path fill-rule="evenodd" clip-rule="evenodd" d="M4.68393 6H19.3163C19.6939 6 20 6.32087 20 6.71667C20 6.7969 19.9871 6.87656 19.962 6.95232L19.5199 8.28329C19.4242 8.5713 19.1651 8.76431 18.8741 8.76431H5.12246C4.83087 8.76431 4.57136 8.57048 4.47618 8.28158L4.03764 6.95062C3.91437 6.5765 4.1038 6.16847 4.46073 6.03926C4.53253 6.01327 4.60797 6 4.68393 6ZM7.09384 11.1094H16.9061C17.2837 11.1094 17.5899 11.4302 17.5899 11.826C17.5899 11.912 17.5751 11.9972 17.5463 12.0777L17.0702 13.4086C16.9701 13.6884 16.715 13.8737 16.43 13.8737H7.54464C7.25521 13.8737 6.99713 13.6827 6.9003 13.3968L6.4495 12.0658C6.32316 11.6928 6.50923 11.2831 6.86509 11.1507C6.93854 11.1233 7.0159 11.1094 7.09384 11.1094ZM10.1402 16.2354H13.8598C14.2374 16.2354 14.5435 16.5562 14.5435 16.952C14.5435 17.0218 14.5338 17.0911 14.5147 17.1579L14.1339 18.4889C14.0472 18.792 13.781 18.9997 13.479 18.9997H10.5623C10.2678 18.9997 10.0064 18.802 9.91347 18.509L9.49139 17.1781C9.37228 16.8025 9.56621 16.3968 9.92456 16.2719C9.99411 16.2477 10.0669 16.2354 10.1402 16.2354Z" fill="#525C69"/>
</svg>