<svg width="24" height="24" viewBox="0 0 24 24" fill="none" xmlns="http://www.w3.org/2000/svg">
<path fill-rule="evenodd" clip-rule="evenodd" d="M5.68324 5.25586L18.0399 17.6125L16.9372 18.7152L15.1053 16.883L15.0307 16.9174C14.0927 17.3324 13.1231 17.54 12.1218 17.54C9.16097 17.54 6.47687 15.7254 4.06948 12.0962C4.02186 12.0244 4.01391 11.9347 4.04566 11.8569L4.06948 11.8119L4.234 11.5673C5.05754 10.3603 5.91313 9.36346 6.80076 8.57679L4.58055 6.35853L5.68324 5.25586ZM12.1218 6.36809C15.0826 6.36809 17.7667 8.18267 20.1741 11.8118C20.2217 11.8836 20.2297 11.9734 20.1979 12.0512L20.1741 12.0961L20.0096 12.3408C19.2041 13.5213 18.368 14.5007 17.5012 15.2792L14.883 12.6604C14.9406 12.4345 14.9712 12.1978 14.9712 11.954C14.9712 10.3803 13.6955 9.10462 12.1218 9.10462C11.8777 9.10462 11.6409 9.1353 11.4148 9.19301L9.21201 6.99104C10.1503 6.57574 11.1202 6.36809 12.1218 6.36809ZM9.27237 11.954C9.27237 13.5277 10.5481 14.8034 12.1218 14.8034C12.3965 14.8034 12.6621 14.7646 12.9135 14.692L9.38383 11.1623C9.31128 11.4137 9.27237 11.6793 9.27237 11.954Z" fill="#525C69"/>
</svg>
