<svg width="24" height="24" viewBox="0 0 24 24" fill="none" xmlns="http://www.w3.org/2000/svg">
<path fill-rule="evenodd" clip-rule="evenodd" d="M17.9075 8.13909C19.1398 9.12342 20.2314 10.2721 21.1516 11.553C21.3405 11.8271 21.3405 12.1894 21.1516 12.4635C20.9945 12.6925 17.2464 18.0685 12.4249 18.0685C11.1873 18.0466 9.97292 17.7281 8.88377 17.1399L7.13549 18.8825C6.85178 19.1638 6.39439 19.1638 6.11068 18.8825L5.59806 18.3716C5.31624 18.0895 5.31624 17.6324 5.59806 17.3503L7.01729 15.9345C5.75448 14.9374 4.63731 13.7687 3.69824 12.4622C3.50993 12.1884 3.50993 11.8268 3.69824 11.553C3.8554 11.3239 7.60308 5.9479 12.4254 5.9479C13.6962 5.97157 14.9419 6.30571 16.054 6.92118L17.5161 5.46255C17.8 5.18175 18.257 5.18175 18.5409 5.46255L19.0535 5.97387C19.3354 6.2563 19.3354 6.71366 19.0535 6.99609L17.9075 8.13909ZM12.4249 7.791C9.34661 7.791 6.64711 10.8542 5.7405 12.0071C6.50224 12.9751 7.37827 13.8473 8.3495 14.6049L9.54854 13.4092C9.35574 13.0008 9.24792 12.5443 9.24792 12.0626C9.24792 10.3183 10.662 8.9043 12.4063 8.9043C12.8911 8.9043 13.3504 9.01353 13.7609 9.20872L14.6694 8.30275C13.9652 7.97721 13.2006 7.80288 12.4249 7.791ZM11.0941 14.9364L10.2745 15.7539C10.9523 16.0544 11.6837 16.2148 12.425 16.2254V16.2249C15.4934 16.2249 18.1994 13.1605 19.1086 12.0079C18.3668 11.0652 17.517 10.2127 16.5767 9.46777L15.2833 10.7578C15.464 11.1555 15.5646 11.5973 15.5646 12.0626C15.5646 13.807 14.1506 15.221 12.4063 15.221C11.9381 15.221 11.4938 15.1191 11.0941 14.9364Z" fill="#525C69"/>
</svg>
