<svg width="24" height="24" viewBox="0 0 24 24" fill="none" xmlns="http://www.w3.org/2000/svg">
<path fill-rule="evenodd" clip-rule="evenodd" d="M5.32728 16.8175C5.42885 17.2188 5.79002 17.5 6.20406 17.5H11.9563H18.2562C18.6884 17.5 19.0602 17.1943 19.1436 16.7702L20.5745 9.50001C20.7351 8.68412 19.8876 8.04008 19.1445 8.41327L16.5598 9.71133C16.0713 9.95667 15.4763 9.76426 15.224 9.27933L12.8446 4.70701C12.4708 3.98872 11.4429 3.9893 11.0699 4.70803L8.69896 9.27684C8.44676 9.76283 7.85061 9.95564 7.36158 9.70936L4.92542 8.48252C4.15995 8.09703 3.29594 8.79011 3.50619 9.62098L5.32728 16.8175Z" fill="#525C69"/>
</svg>
