<svg width="24" height="24" viewBox="0 0 24 24" fill="none" xmlns="http://www.w3.org/2000/svg">
<path fill-rule="evenodd" clip-rule="evenodd" d="M6.64855 17.3861C6.78805 17.7251 7.11836 17.9464 7.48491 17.9464H11.9567H16.43C16.7959 17.9464 17.1257 17.726 17.2656 17.388L20.3052 10.0487C20.5341 9.49578 19.9532 8.95563 19.4184 9.22421L16.2485 10.8162C15.9329 10.9747 15.5486 10.8504 15.3855 10.5371L12.5306 5.05099C12.2891 4.58696 11.6251 4.58734 11.3842 5.05164L8.53837 10.5355C8.37544 10.8494 7.99033 10.974 7.67441 10.8149L4.51646 9.22457C3.98229 8.95556 3.40089 9.49431 3.62849 10.0474L6.64855 17.3861Z" fill="#525C69"/>
</svg>
