<svg width="24" height="24" viewBox="0 0 24 24" fill="none" xmlns="http://www.w3.org/2000/svg">
<path fill-rule="evenodd" clip-rule="evenodd" d="M11.9005 4.8916C11.9122 4.88553 11.9235 4.87965 11.9344 4.87633C11.9764 4.86427 12.0122 4.87382 12.0578 4.89707L18.741 7.54239C18.9125 7.62162 18.9767 7.77317 18.973 8.03151V10.6989C18.4494 10.541 17.8941 10.456 17.3189 10.456C14.1613 10.456 11.6015 13.0158 11.6015 16.1734C11.6015 17.4523 12.0214 18.6331 12.7308 19.5854L12.1023 19.8338C12.014 19.8579 11.9073 19.863 11.8259 19.8269L5.24127 17.223C5.11046 17.1722 5.01113 16.9922 5.00928 16.8028V7.97641C5.01422 7.77665 5.07468 7.60701 5.24127 7.52865L11.89 4.89699L11.9005 4.8916ZM11.9737 6.35554L17.143 8.40759L11.9737 10.4467L6.79987 8.40115L11.9737 6.35554ZM16.47 12.748H18.1678V15.3243H20.7438V17.022H18.1678V19.5978H16.47V17.022H13.894V15.3243H16.47V12.748Z" fill="#525C69"/>
</svg>
