<svg width="24" height="24" viewBox="0 0 24 24" fill="none" xmlns="http://www.w3.org/2000/svg">
<path fill-rule="evenodd" clip-rule="evenodd" d="M11.9566 3.6557L11.9566 3.65571L11.9504 3.65889L8.02654 5.212C7.92823 5.25824 7.89254 5.35836 7.88963 5.47625V10.477C7.88977 10.4915 7.89088 10.5059 7.89289 10.5201L4.06026 12.0371C3.96194 12.0834 3.92626 12.1835 3.92334 12.3014V17.3021C3.92443 17.4139 3.98306 17.5201 4.06026 17.5501L7.94625 19.0868C7.99431 19.1082 8.0573 19.1051 8.10937 19.0909L11.9678 17.5666C11.9695 17.5673 11.9712 17.568 11.9729 17.5687L15.8588 19.1054C15.9069 19.1267 15.9699 19.1237 16.022 19.1094L19.9428 17.5605C20.02 17.529 20.0776 17.4207 20.0768 17.3084V12.3525C20.079 12.2 20.0411 12.1106 19.9399 12.0638L16.1196 10.5516C16.1268 10.5239 16.1307 10.4944 16.1305 10.4647V5.50877C16.1327 5.35631 16.0948 5.26687 15.9936 5.22011L12.0494 3.65893C12.0225 3.64521 12.0014 3.63958 11.9766 3.64669C11.9701 3.64865 11.9635 3.65212 11.9566 3.6557ZM11.9999 4.17929L15.2567 5.47213L11.9999 6.75685L8.74023 5.46808L11.9999 4.17929ZM15.9462 11.023L19.203 12.3158L15.9462 13.6006L12.6865 12.3118L15.9462 11.023ZM11.2904 12.2973L8.03361 11.0044L4.77394 12.2932L8.03361 13.582L11.2904 12.2973Z" fill="#525C69"/>
</svg>
