<svg width="24" height="24" viewBox="0 0 24 24" fill="none" xmlns="http://www.w3.org/2000/svg">
<path fill-rule="evenodd" clip-rule="evenodd" d="M12.9164 6.97852H6C4.89543 6.97852 4 7.87395 4 8.97852V15.0313C4 15.2879 4.04831 15.5332 4.13634 15.7586L5.11344 14.7815C5.11304 14.7699 5.11284 14.7582 5.11284 14.7465V9.26379C5.11284 8.71151 5.56056 8.26379 6.11284 8.26379H11.6311L12.9164 6.97852ZM8.38685 15.7465H16.8399C17.3922 15.7465 17.8399 15.2988 17.8399 14.7465V9.26379C17.8399 8.71151 17.3922 8.26379 16.8399 8.26379H15.8696L17.1549 6.97852H17.1952C18.2998 6.97852 19.1952 7.87395 19.1952 8.97852V10.1348H20.0767C20.3529 10.1348 20.5767 10.3586 20.5767 10.6348V13.3761C20.5767 13.6523 20.3529 13.8761 20.0767 13.8761H19.1952V15.0313C19.1952 16.1359 18.2998 17.0313 17.1952 17.0313H7.10205L8.38685 15.7465Z" fill="#525C69"/>
<rect x="17.9261" y="4.3877" width="1.51352" height="19.1465" rx="0.756762" transform="rotate(45 17.9261 4.3877)" fill="#525C69"/>
</svg>
