<svg width="24" height="24" viewBox="0 0 24 24" fill="none" xmlns="http://www.w3.org/2000/svg">
<path fill-rule="evenodd" clip-rule="evenodd" d="M14.9384 13.1729L13.542 11.7766C14.9444 11.0275 16.727 11.2442 17.9094 12.4267L19.4074 13.9246C20.8552 15.3724 20.8552 17.7198 19.4074 19.1675C17.9596 20.6153 15.6123 20.6153 14.1645 19.1675L12.6665 17.6696C11.4746 16.4776 11.2639 14.6759 12.0347 13.2685L13.4214 14.6552C13.2937 15.2644 13.4664 15.9238 13.9393 16.3968L15.4373 17.8947C16.1821 18.6396 17.3898 18.6396 18.1346 17.8947C18.8795 17.1499 18.8795 15.9423 18.1346 15.1974L16.6366 13.6995C16.1749 13.2377 15.5353 13.0622 14.9384 13.1729ZM9.50064 10.735L10.8874 12.1217C9.47991 12.8924 7.67824 12.6818 6.48628 11.4898L4.98831 9.99183C3.54052 8.54404 3.54052 6.19671 4.98831 4.74893C6.43609 3.30114 8.78342 3.30114 10.2312 4.74893L11.7292 6.2469C12.9117 7.42937 13.1284 9.21191 12.3793 10.6143L10.9829 9.21794C11.0936 8.62101 10.9181 7.98143 10.4564 7.51969L8.95842 6.02172C8.21357 5.27687 7.00594 5.27687 6.2611 6.02172C5.51625 6.76656 5.51625 7.97419 6.2611 8.71904L7.75907 10.217C8.232 10.6899 8.89149 10.8626 9.50064 10.735ZM6.33895 18.0761C6.02884 17.766 6.02884 17.2632 6.33895 16.9531L8.02349 15.2686C8.33361 14.9584 8.8364 14.9584 9.14652 15.2686C9.45663 15.5787 9.45663 16.0815 9.14652 16.3916L7.46198 18.0761C7.15186 18.3862 6.64907 18.3862 6.33895 18.0761ZM20.5917 9.8496C20.7052 10.2732 20.4538 10.7087 20.0301 10.8222L17.729 11.4388C17.3054 11.5523 16.87 11.3009 16.7565 10.8772C16.6429 10.4536 16.8943 10.0182 17.318 9.90467L19.6191 9.28809C20.0427 9.17458 20.4782 9.42598 20.5917 9.8496ZM9.95461 20.4865C9.53099 20.373 9.27959 19.9375 9.3931 19.5139L10.0097 17.2128C10.1232 16.7892 10.5586 16.5378 10.9823 16.6513C11.4059 16.7648 11.6573 17.2002 11.5438 17.6238L10.9272 19.925C10.8137 20.3486 10.3782 20.6 9.95461 20.4865ZM14.6959 3.95401C15.1195 4.06752 15.3709 4.50296 15.2574 4.92658L14.6408 7.22771C14.5273 7.65133 14.0919 7.90273 13.6682 7.78922C13.2446 7.67571 12.9932 7.24028 13.1067 6.81665L13.7233 4.51553C13.8368 4.0919 14.2723 3.8405 14.6959 3.95401ZM4.05864 14.5908C3.94513 14.1672 4.19653 13.7318 4.62015 13.6183L6.92127 13.0017C7.3449 12.8882 7.78033 13.1396 7.89384 13.5632C8.00735 13.9868 7.75596 14.4223 7.33233 14.5358L5.03121 15.1524C4.60758 15.2659 4.17215 15.0145 4.05864 14.5908ZM18.0764 6.33903C18.3865 6.64915 18.3865 7.15194 18.0764 7.46206L16.3919 9.1466C16.0818 9.45671 15.579 9.45671 15.2688 9.1466C14.9587 8.83648 14.9587 8.33369 15.2688 8.02357L16.9534 6.33903C17.2635 6.02892 17.7663 6.02892 18.0764 6.33903Z" fill="#525C69"/>
</svg>
