<svg width="24" height="24" viewBox="0 0 24 24" fill="none" xmlns="http://www.w3.org/2000/svg">
<path fill-rule="evenodd" clip-rule="evenodd" d="M6.23306 6.08841C6.24169 6.08806 6.25035 6.08789 6.25906 6.08789H15.7541C16.3475 6.08789 16.8285 6.56892 16.8285 7.1623V8.58136H17.4073C17.9894 8.58136 18.5466 8.81748 18.9514 9.23572L21.0772 11.4321C21.2712 11.6325 21.3796 11.9004 21.3796 12.1793V16.032C21.3796 16.388 21.091 16.6766 20.735 16.6766H19.3522C19.357 16.7318 19.3594 16.7876 19.3594 16.8439C19.3594 17.9085 18.4964 18.7715 17.4318 18.7715C16.3672 18.7715 15.5042 17.9085 15.5042 16.8439C15.5042 16.7909 15.5064 16.7383 15.5106 16.6863H11.4383C11.4425 16.7383 11.4447 16.7909 11.4447 16.8439C11.4447 17.9085 10.5816 18.7715 9.51707 18.7715C8.4525 18.7715 7.58949 17.9085 7.58949 16.8439C7.58949 16.7909 7.59163 16.7383 7.59584 16.6863H6.25906C5.90303 16.6863 5.61441 16.3977 5.61441 16.0417V10.7769H4.0653C3.57773 10.7769 3.18248 10.3817 3.18248 9.89409C3.18248 9.40652 3.57773 9.01127 4.0653 9.01127H5.61441V7.85406H2.83204C2.34447 7.85406 1.94922 7.4588 1.94922 6.97123C1.94922 6.48366 2.34447 6.08841 2.83204 6.08841H6.23306ZM16.8424 10.4976C16.8424 10.3789 16.9386 10.2827 17.0573 10.2827H18.0448C18.16 10.2827 18.2703 10.329 18.3511 10.4111L19.7304 11.8126C19.8095 11.893 19.8538 12.0012 19.8538 12.114V12.7078C19.8538 12.8265 19.7576 12.9227 19.639 12.9227H17.0573C16.9386 12.9227 16.8424 12.8265 16.8424 12.7078V10.4976ZM10.5723 13.4885C10.6972 13.6012 10.8878 13.599 11.0099 13.4833L13.9767 10.674C14.154 10.5062 14.156 10.2246 13.9812 10.0542L13.7515 9.83029C13.5868 9.66985 13.3251 9.66736 13.1575 9.82463L10.7935 12.0423L9.92868 11.3065C9.75972 11.1627 9.50911 11.1712 9.35024 11.326L9.11422 11.556C8.93651 11.7292 8.94199 12.0165 9.12617 12.1828L10.5723 13.4885Z" fill="#525C69"/>
</svg>
