<svg width="24" height="24" viewBox="0 0 24 24" fill="none" xmlns="http://www.w3.org/2000/svg">
<path fill-rule="evenodd" clip-rule="evenodd" d="M11.9005 4.8916C11.9122 4.88553 11.9235 4.87965 11.9344 4.87633C11.9764 4.86427 12.0122 4.87382 12.0578 4.89707L18.741 7.54239C18.9125 7.62162 18.9767 7.77317 18.973 8.03151V8.31055H16.8985L11.9737 6.35554L6.79987 8.40115L11.8379 10.393V19.8318C11.8353 19.8308 11.8327 19.8298 11.8301 19.8287C11.8287 19.8281 11.8273 19.8275 11.8259 19.8269L5.24127 17.223C5.11046 17.1722 5.01113 16.9922 5.00928 16.8028V7.97641C5.01422 7.77665 5.07468 7.60701 5.24127 7.52865L11.89 4.89699L11.9005 4.8916ZM14.6448 11.0604C14.3686 11.0604 14.1448 11.2843 14.1448 11.5604V12.2425C14.1448 12.5186 14.3686 12.7425 14.6448 12.7425H22.7665C23.0427 12.7425 23.2665 12.5186 23.2665 12.2425V11.5604C23.2665 11.2843 23.0427 11.0604 22.7665 11.0604H14.6448ZM14.6448 14.4256C14.3686 14.4256 14.1448 14.6495 14.1448 14.9256V15.6077C14.1448 15.8839 14.3686 16.1077 14.6448 16.1077H22.7665C23.0427 16.1077 23.2665 15.8839 23.2665 15.6077V14.9256C23.2665 14.6495 23.0427 14.4256 22.7665 14.4256H14.6448ZM14.1448 18.2909C14.1448 18.0147 14.3686 17.7909 14.6448 17.7909H22.7665C23.0427 17.7909 23.2665 18.0147 23.2665 18.2909V18.973C23.2665 19.2491 23.0427 19.473 22.7665 19.473H14.6448C14.3686 19.473 14.1448 19.2491 14.1448 18.973V18.2909Z" fill="#525C69"/>
</svg>
