<svg width="24" height="24" viewBox="0 0 24 24" fill="none" xmlns="http://www.w3.org/2000/svg">
<path fill-rule="evenodd" clip-rule="evenodd" d="M19.8267 4.76739C19.5043 4.44497 18.9815 4.44497 18.6591 4.76739L5.6746 17.7519C5.35217 18.0743 5.35217 18.5971 5.6746 18.9195C5.99702 19.2419 6.51977 19.2419 6.84219 18.9195L9.89152 15.8702H11.5332V16.73L9.32044 19.0348C9.0613 19.302 9.0613 19.7142 9.32044 19.9806C9.57958 20.2478 9.97931 20.2478 10.2375 19.9806L12.1902 17.9666L14.1429 19.9806C14.2605 20.1019 14.425 20.1749 14.6134 20.1749C14.7778 20.1749 14.9423 20.1019 15.0599 19.9806C15.319 19.7133 15.319 19.3011 15.0599 19.0348L12.8491 16.7546V15.8703H17.9775C18.3304 15.8703 18.6125 15.5793 18.6125 15.2154V7.14923L19.8267 5.93499C20.1491 5.61257 20.1491 5.08981 19.8267 4.76739ZM14.2795 11.4822L13.3951 12.3666H14.9296C15.1895 12.3666 15.4016 12.1562 15.4016 11.9244C15.4016 11.6713 15.1656 11.4822 14.9056 11.4822H14.2795ZM6.40376 6.41992L14.8614 6.42005L12.5511 8.73036H8.55819C8.27427 8.73036 8.06226 8.94078 8.06226 9.17257C8.06226 9.42574 8.29824 9.61478 8.55819 9.61478H11.6667L9.79931 11.4822H8.55825C8.27433 11.4822 8.06231 11.6926 8.06231 11.9244C8.06231 12.1776 8.29829 12.3666 8.55825 12.3666H8.91493L5.81673 15.4648C5.78641 15.3881 5.76973 15.3039 5.76973 15.2154L5.7688 7.0748C5.7688 6.71087 6.0509 6.41992 6.40376 6.41992Z" fill="#525C69"/>
</svg>
