<svg width="24" height="24" viewBox="0 0 24 24" fill="none" xmlns="http://www.w3.org/2000/svg">
<path fill-rule="evenodd" clip-rule="evenodd" d="M4.85962 6.21484C4.85962 5.66256 5.30733 5.21484 5.85962 5.21484H18.226C18.7782 5.21484 19.226 5.66256 19.226 6.21484V14.3877C19.226 14.391 19.2259 14.3942 19.2259 14.3975H19.3292C19.7434 14.3975 20.0792 14.7332 20.0792 15.1475C20.0792 15.5617 19.7434 15.8975 19.3292 15.8975H12.8615V16.4802L15.4602 19.0787C15.7531 19.3716 15.7531 19.8465 15.4602 20.1394C15.1673 20.4323 14.6924 20.4323 14.3995 20.1394L12.0805 17.8204L9.82689 20.1021C9.53581 20.3968 9.06094 20.3997 8.76625 20.1086C8.47155 19.8175 8.46862 19.3427 8.7597 19.048L11.3615 16.4138V15.8975H4.65344C4.23923 15.8975 3.90344 15.5617 3.90344 15.1475C3.90344 14.7332 4.23923 14.3975 4.65344 14.3975H4.85967C4.85963 14.3942 4.85962 14.391 4.85962 14.3877V6.21484ZM6.94897 7.77461C6.94897 7.33278 7.30715 6.97461 7.74897 6.97461H10.6473C11.0892 6.97461 11.4473 7.33278 11.4473 7.77461V8.80284C11.4473 9.24467 11.0892 9.60284 10.6473 9.60284H7.74898C7.30715 9.60284 6.94897 9.24467 6.94897 8.80284V7.77461ZM7.74897 10.6028C7.30715 10.6028 6.94897 10.961 6.94897 11.4028V12.4311C6.94897 12.8729 7.30715 13.2311 7.74898 13.2311H10.6473C11.0892 13.2311 11.4473 12.8729 11.4473 12.4311V11.4028C11.4473 10.961 11.0892 10.6028 10.6473 10.6028H7.74897ZM12.8139 10.1704C12.8139 8.92817 13.8209 7.91577 15.0631 7.91577C16.3053 7.91577 17.3123 8.92817 17.3123 10.1704C17.3123 11.4125 16.3053 12.4249 15.0631 12.4249C13.8209 12.4249 12.8139 11.4125 12.8139 10.1704Z" fill="#95C500"/>
</svg>
