<svg width="24" height="24" viewBox="0 0 24 24" fill="none" xmlns="http://www.w3.org/2000/svg">
<path fill-rule="evenodd" clip-rule="evenodd" d="M4.78756 5.9181C4.78756 5.50341 5.10901 5.17188 5.51109 5.17188L18.6993 5.17207C19.1015 5.17207 19.4229 5.5036 19.4229 5.9183V14.2934C19.8642 14.3176 20.2145 14.6831 20.2145 15.1303C20.2145 15.5933 19.8392 15.9685 19.3763 15.9685H12.8555V16.9482L15.3748 19.5465C15.67 19.8499 15.67 20.3196 15.3748 20.6242C15.2407 20.7625 15.0533 20.8457 14.8659 20.8457C14.6512 20.8457 14.4638 20.7625 14.3298 20.6242L12.1047 18.3293L9.87959 20.6242C9.58542 20.9287 9.12994 20.9287 8.83465 20.6242C8.53936 20.3207 8.53936 19.851 8.83465 19.5465L11.356 16.9202V15.9685H4.62371C4.16079 15.9685 3.78552 15.5933 3.78552 15.1303C3.78552 14.6674 4.16079 14.2922 4.62371 14.2922H4.78852L4.78756 5.9181ZM6.92866 10.6341C6.92866 10.9679 7.17051 11.217 7.43692 11.217H13.9666C14.233 11.217 14.4503 10.9397 14.4503 10.6341C14.4503 10.3004 14.2085 10.0512 13.942 10.0512H7.43692C7.14595 10.0512 6.92866 10.3286 6.92866 10.6341ZM6.92866 8.07101C6.92866 8.4048 7.23129 8.65393 7.56467 8.65393H15.7355C16.0688 8.65393 16.3407 8.37662 16.3407 8.07101C16.3407 7.73734 16.0382 7.48808 15.7047 7.48808H7.56467C7.20056 7.48808 6.92866 7.76552 6.92866 8.07101Z" fill="#525C69"/>
</svg>
