<svg width="24" height="24" viewBox="0 0 24 24" fill="none" xmlns="http://www.w3.org/2000/svg">
<path fill-rule="evenodd" clip-rule="evenodd" d="M5.85541 5.90918C5.48791 5.90918 5.19409 6.21221 5.19409 6.59124L5.19506 15.0698C5.19506 15.4488 5.48887 15.7517 5.85638 15.7517H11.1977V16.6472L8.89316 19.0477C8.62327 19.326 8.62327 19.7553 8.89316 20.0328C9.16306 20.311 9.57938 20.311 9.84825 20.0328L11.882 17.9352L13.9158 20.0328C14.0382 20.1591 14.2096 20.2351 14.4058 20.2351C14.577 20.2351 14.7484 20.1591 14.8709 20.0328C15.1407 19.7544 15.1407 19.325 14.8709 19.0477L12.5683 16.6729V15.7518H17.9096C18.2771 15.7518 18.5709 15.4488 18.5709 15.0698V6.59142C18.5709 6.21238 18.2771 5.90936 17.9096 5.90936L5.85541 5.90918ZM8.09924 12.1026C7.82849 12.1026 7.58272 11.9058 7.58272 11.642C7.58272 11.4007 7.80354 11.1815 8.09924 11.1815H14.7101C14.9809 11.1815 15.2266 11.3784 15.2266 11.642C15.2266 11.8835 15.0058 12.1026 14.7351 12.1026H8.09924ZM7.58272 8.77553C7.58272 9.0392 7.82849 9.23609 8.09924 9.23609H14.7351C15.0058 9.23609 15.2266 9.01694 15.2266 8.77553C15.2266 8.51186 14.9809 8.31496 14.7101 8.31496H8.09924C7.80354 8.31496 7.58272 8.53411 7.58272 8.77553Z" fill="#525C69"/>
</svg>
