<svg width="24" height="24" viewBox="0 0 24 24" fill="none" xmlns="http://www.w3.org/2000/svg">
<path fill-rule="evenodd" clip-rule="evenodd" d="M4.86826 6.58594C4.86826 6.03365 5.31598 5.58594 5.86826 5.58594H18.2346C18.7869 5.58594 19.2346 6.03365 19.2346 6.58594V14.6186H19.3378C19.8349 14.6186 20.2378 15.0215 20.2378 15.5186C20.2378 16.0156 19.8349 16.4186 19.3378 16.4186H13.0202V16.7891L15.5749 19.3437C15.9264 19.6952 15.9264 20.265 15.5749 20.6165C15.2235 20.968 14.6536 20.968 14.3021 20.6166L12.0898 18.4043L9.94225 20.5786C9.59295 20.9322 9.02312 20.9357 8.66948 20.5864C8.31585 20.2371 8.31233 19.6673 8.66162 19.3137L11.2202 16.7233V16.4186H4.66209C4.16503 16.4186 3.76208 16.0156 3.76208 15.5186C3.76208 15.0215 4.16503 14.6186 4.66209 14.6186H4.86826V6.58594ZM12.2511 8.4218C12.2511 8.05077 12.5518 7.75 12.9229 7.75H16.3288C16.6998 7.75 17.0006 8.05077 17.0006 8.4218C17.0006 8.79282 16.6998 9.09359 16.3288 9.09359H12.9229C12.5518 9.09359 12.2511 8.79282 12.2511 8.4218ZM12.9229 10.3359C12.5518 10.3359 12.2511 10.6367 12.2511 11.0077C12.2511 11.3788 12.5518 11.6795 12.9229 11.6795H15.4001C15.7711 11.6795 16.0719 11.3788 16.0719 11.0077C16.0719 10.6367 15.7711 10.3359 15.4001 10.3359H12.9229ZM6.81118 8.58638C6.81118 8.03409 7.25889 7.58638 7.81118 7.58638H9.57786C10.1301 7.58638 10.5779 8.03409 10.5779 8.58638V10.2368C10.5779 10.7891 10.1301 11.2368 9.57786 11.2368H7.81118C7.25889 11.2368 6.81118 10.7891 6.81118 10.2368V8.58638Z" fill="#95C500"/>
</svg>
