<svg width="24" height="24" viewBox="0 0 24 24" fill="none" xmlns="http://www.w3.org/2000/svg">
<path d="M20.0556 5.72843C20.0556 5.45229 19.8318 5.22843 19.5556 5.22843H18.4417C18.1656 5.22843 17.9417 5.45229 17.9417 5.72843V13.0254H15.2745C15.0963 13.0254 15.0071 13.2408 15.133 13.3668L18.642 16.8757C18.8372 17.071 19.1538 17.071 19.3491 16.8757L22.858 13.3668C22.984 13.2408 22.8948 13.0254 22.7166 13.0254H20.0556V5.72843Z" fill="#525C69"/>
<path d="M3 7.5C3 7.22386 3.22386 7 3.5 7H12.5C12.7761 7 13 7.22386 13 7.5V9.5C13 9.77614 12.7761 10 12.5 10H3.5C3.22386 10 3 9.77614 3 9.5V7.5Z" fill="#525C69"/>
<rect x="3" y="13" width="10" height="3" rx="0.5" fill="#525C69"/>
</svg>
