<svg width="24" height="24" viewBox="0 0 24 24" fill="none" xmlns="http://www.w3.org/2000/svg">
<path fill-rule="evenodd" clip-rule="evenodd" d="M11.7415 5.45828C11.8226 5.12527 12.1656 4.92767 12.4943 5.02467L13.9408 5.45148C14.2479 5.54207 14.4297 5.85776 14.354 6.16881L11.3434 18.5415C11.2624 18.8745 10.9193 19.0721 10.5906 18.9751L9.14411 18.5483C8.83707 18.4577 8.65523 18.142 8.73092 17.831L11.7415 5.45828ZM5.17574 17.6545C5.25702 17.7973 5.41737 17.8759 5.58004 17.8526L7.3094 17.6052C7.58742 17.5654 7.73896 17.259 7.60183 17.0139L4.88795 12.1634C4.82005 12.042 4.82005 11.8941 4.88795 11.7727L7.60183 6.92219C7.73896 6.67709 7.58742 6.37069 7.3094 6.33091L5.58004 6.08349C5.41737 6.06022 5.25702 6.1388 5.17574 6.28162L2.05228 11.7702C1.98248 11.8929 1.98248 12.0432 2.05228 12.1659L5.17574 17.6545ZM17.42 17.8526C17.5826 17.8759 17.743 17.7973 17.8243 17.6545L20.9477 12.1659C21.0175 12.0432 21.0175 11.8929 20.9477 11.7702L17.8243 6.28162C17.743 6.1388 17.5826 6.06022 17.42 6.08349L15.6906 6.33091C15.4126 6.37069 15.261 6.67709 15.3982 6.92219L18.1121 11.7727C18.18 11.8941 18.18 12.042 18.1121 12.1634L15.3982 17.0139C15.261 17.259 15.4126 17.5654 15.6906 17.6052L17.42 17.8526Z" fill="#525C69"/>
</svg>
