<svg width="24" height="24" viewBox="0 0 24 24" fill="none" xmlns="http://www.w3.org/2000/svg">
<path d="M7.73201 7.63974C7.41104 7.88645 7.15062 8.14112 6.94324 8.40621C6.87676 8.49117 6.75647 8.51534 6.66589 8.45675L5.33033 7.59274C5.23658 7.53209 5.21037 7.40623 5.27554 7.31556C5.61372 6.84501 6.02479 6.41603 6.50671 6.04561C7.85685 5.00785 9.50806 4.62571 11.0878 4.84643L11.3773 3.37606C11.4056 3.23238 11.5477 3.14427 11.6768 3.21354C12.5337 3.67356 14.0277 5.38044 14.5047 5.9254L14.519 5.94168C14.5674 5.99704 14.5765 6.07616 14.5307 6.13376C14.0213 6.77492 11.965 7.9525 11.0589 8.45343C10.8771 8.55398 10.6606 8.40618 10.6854 8.19985L10.851 6.82201C9.7753 6.67255 8.65126 6.93318 7.73201 7.63974Z" fill="#525C69"/>
<path d="M4.65043 14.2229L7.84119 10.318C7.90628 10.2384 8.02117 10.2211 8.10682 10.2781L9.57726 11.256C9.67589 11.3216 9.69622 11.4581 9.621 11.5495L7.01428 14.7205L11.4008 18.3048L17.3511 11.0964L15.0558 9.22079C14.959 9.14172 14.9577 8.99426 15.053 8.91341L16.7376 7.48425C16.8111 7.42183 16.9188 7.42084 16.9935 7.48189L19.4354 9.47726C20.0922 10.0139 20.236 10.9245 19.7567 11.511L12.3798 20.5388C11.9005 21.1254 10.9795 21.1659 10.3228 20.6292L4.9717 16.2566C4.31496 15.72 4.17112 14.8094 4.65043 14.2229Z" fill="#525C69"/>
</svg>
