<svg width="24" height="24" viewBox="0 0 24 24" fill="none" xmlns="http://www.w3.org/2000/svg">
<path fill-rule="evenodd" clip-rule="evenodd" d="M13.1833 4.5752H18.515C19.1675 4.5752 19.6661 5.03809 19.6661 5.64241V14.1954C19.6661 14.7644 19.1675 15.2626 18.515 15.2626H13.1833C12.5308 15.2626 12.0322 14.7644 12.0322 14.1954V5.64241C12.0322 5.03743 12.5308 4.5752 13.1833 4.5752ZM15.1212 14.0988C15.1212 14.4903 15.4492 14.8105 15.8503 14.8105C16.2513 14.8105 16.5793 14.4903 16.5793 14.0988C16.5793 13.7073 16.2513 13.3871 15.8503 13.3871C15.4492 13.3871 15.1212 13.7073 15.1212 14.0988ZM13.2955 12.8704H18.4041L18.4047 6.30536H13.2955V12.8704Z" fill="#9DCF00"/>
<path d="M6.11891 8.2324H10.5601V9.85213H7.2595C7.0859 9.85213 6.94517 9.99286 6.94517 10.1665V16.2328C6.94517 16.3979 7.07246 16.5333 7.23425 16.5461H12.5796C12.6048 16.547 12.6302 16.5475 12.6557 16.5475H20.3268C20.7814 16.579 20.9856 17.151 20.6349 17.462L19.5247 18.4465C19.333 18.6165 19.0857 18.7103 18.8295 18.7103H4.98141C4.72522 18.7103 4.47791 18.6165 4.28623 18.4465L3.17601 17.462C2.81536 17.1422 3.04157 16.5461 3.5236 16.5461H5.07113V9.28018C5.07113 8.70151 5.54024 8.2324 6.11891 8.2324Z" fill="#9DCF00"/>
</svg>
