<svg width="24" height="25" viewBox="0 0 24 25" fill="none" xmlns="http://www.w3.org/2000/svg">
<path fill-rule="evenodd" clip-rule="evenodd" d="M6.87496 5.47754C6.57727 5.47754 6.2971 5.61823 6.1193 5.85698L2.708 10.4379C2.4398 10.798 2.46304 11.2974 2.76353 11.6311L11.2918 21.1015C11.4778 21.3081 11.7377 21.4153 12 21.4132C12.2624 21.4153 12.5223 21.3081 12.7083 21.1015L21.2366 11.6311C21.537 11.2974 21.5603 10.798 21.2921 10.4379L17.8808 5.85698C17.703 5.61823 17.4228 5.47754 17.1251 5.47754H16.8002H13.7301H10.27H7.54098H6.87496ZM13.1191 7.36188H10.881L9.67615 10.0584H14.3239L13.1191 7.36188ZM14.3879 11.9428H9.61219L12 17.9433L14.3879 11.9428ZM16.4159 11.9428H18.4201L14.829 15.9306L16.4159 11.9428ZM18.6601 10.0584H16.3878L15.183 7.36188H16.652L18.6601 10.0584ZM8.81711 7.36188L7.61227 10.0584H5.33998L7.34806 7.36188H7.54098H8.81711ZM7.58414 11.9428H5.57998L9.17105 15.9306L7.58414 11.9428Z" fill="#525C69"/>
</svg>
