<svg width="24" height="25" viewBox="0 0 24 25" fill="none" xmlns="http://www.w3.org/2000/svg">
	<path fill-rule="evenodd" clip-rule="evenodd" d="M19.6312 12.1494C20.0691 12.1494 20.4241 12.5044 20.4241 12.9423V16.9066C20.4241 17.5634 19.8916 18.0959 19.2348 18.0959H4.76506C4.10823 18.0959 3.57576 17.5634 3.57576 16.9066V12.9423C3.57576 12.5044 3.93074 12.1494 4.36863 12.1494H19.6312ZM14.8742 14.1322H9.12596C8.83038 14.1322 8.58518 14.3479 8.53909 14.6304L8.53131 14.7269V15.5197C8.53131 15.8153 8.74696 16.0605 9.0295 16.1066L9.12596 16.1144H14.8742C15.1698 16.1144 15.415 15.8987 15.4611 15.6162L15.4688 15.5197V14.7269C15.4688 14.3984 15.2026 14.1322 14.8742 14.1322ZM6.54916 14.1322C6.0018 14.1322 5.55808 14.5759 5.55808 15.1233C5.55808 15.6706 6.0018 16.1144 6.54916 16.1144C7.09651 16.1144 7.54023 15.6706 7.54023 15.1233C7.54023 14.5759 7.09651 14.1322 6.54916 14.1322ZM17.0693 6.20295C17.4391 6.20295 17.7781 6.40884 17.9487 6.73697L19.9286 10.5464H4.17043L6.05545 6.75299C6.2229 6.41603 6.56672 6.20295 6.94299 6.20295H17.0693Z" fill="#525C69"/>
</svg>