<svg width="24" height="24" viewBox="0 0 24 24" fill="none" xmlns="http://www.w3.org/2000/svg">
<path fill-rule="evenodd" clip-rule="evenodd" d="M18.8367 15.1865L15.2351 15.1858C15.1314 15.1858 15.0313 15.2458 14.9925 15.341C14.8303 15.7466 14.8366 16.2037 15.0144 16.6064C15.3127 17.4747 15.3466 18.4128 15.1124 19.3009C14.8676 19.9117 14.8028 21.0276 13.6735 21.0791C13.3201 21.0269 13.0118 20.8146 12.8341 20.5049C12.8024 20.4499 12.789 20.385 12.789 20.3223C12.789 20.3223 12.8408 19.2387 12.789 18.4855C12.7371 17.7323 11.2957 15.8136 10.3794 14.5954C10.3216 14.5179 10.2405 14.4671 10.1446 14.4523C9.80104 14.4008 9.14581 14.3137 8.90962 14.2825C8.85434 14.2752 8.82201 14.2058 8.82201 14.1732C8.82201 12.6504 8.82201 10.3726 8.82201 7.33956C8.82201 7.31441 8.85234 7.25963 8.90623 7.25073C9.09126 7.22019 9.55408 7.13554 10.0211 6.98532C10.608 6.79699 11.0968 6.3512 12.0751 6.0211C12.1266 6.00346 12.1838 5.99429 12.2381 5.99429H16.8321C17.4253 6.10009 17.8668 6.60725 17.8972 7.21597C17.9056 7.55525 17.8379 7.891 17.699 8.19924C17.6792 8.24368 17.7053 8.29024 17.7533 8.29941C18.3422 8.40662 19.0786 9.52461 18.1715 10.4254C18.1476 10.4486 18.1518 10.4804 18.1842 10.4888C18.6843 10.6165 19.0674 11.0157 19.1844 11.5137C19.2296 11.7042 19.2134 11.901 19.1569 12.0879C19.0906 12.3108 18.9848 12.5196 18.8445 12.7058C18.8092 12.7523 18.8289 12.813 18.8854 12.8313C19.3834 12.9999 19.7262 13.476 19.7226 14.0178C19.7798 14.5489 19.353 15.1858 18.8367 15.1865ZM7.412 14.8987H4.80852C4.67309 14.8987 4.57011 14.7788 4.59338 14.6483L6.10567 6.15229C6.12895 6.0218 6.24392 5.92658 6.37865 5.92658H7.34146C7.49029 5.92658 7.61091 6.04437 7.61091 6.18968L7.63207 14.6829C7.63207 14.8021 7.53403 14.8987 7.412 14.8987Z" fill="#525C69"/>
</svg>
