<svg width="24" height="24" viewBox="0 0 24 24" fill="none" xmlns="http://www.w3.org/2000/svg">
<path fill-rule="evenodd" clip-rule="evenodd" d="M2.96851 12.164C2.96851 9.05743 4.53491 6.31666 6.921 4.68848L7.88446 6.07672C5.93744 7.39967 4.65845 9.63231 4.65845 12.1637C4.65845 14.8591 6.10859 17.2158 8.27126 18.4962L7.40596 19.9484C4.7494 18.3731 2.96851 15.4765 2.96851 12.164ZM17.1217 4.70099L16.1584 6.08908C18.0952 7.41355 19.3662 9.64018 19.3662 12.1637C19.3662 14.8509 17.9249 17.2015 15.7732 18.4845L16.6384 19.9366C19.2839 18.3586 21.0559 15.4683 21.0559 12.164C21.0559 9.06537 19.4975 6.33068 17.1217 4.70099ZM6.22027 12.1641C6.22027 10.1642 7.23383 8.40106 8.77529 7.36032L9.7226 8.72529C8.61245 9.4659 7.88116 10.7297 7.88116 12.1644C7.88116 13.6828 8.70033 15.0099 9.92084 15.7278L9.0707 17.1546C7.36463 16.1468 6.22027 14.2891 6.22027 12.1641ZM15.2675 7.37272L14.3203 8.73754C15.4202 9.47978 16.1435 10.7376 16.1435 12.1644C16.1435 13.6746 15.3332 14.9955 14.1236 15.7161L14.9737 17.1428C16.6688 16.1323 17.8042 14.2808 17.8042 12.1641C17.8042 10.1721 16.7987 8.41503 15.2675 7.37272ZM12.0257 14.7869C13.4742 14.7869 14.6485 13.6126 14.6485 12.164C14.6485 10.7155 13.4742 9.54116 12.0257 9.54116C10.5771 9.54116 9.40279 10.7155 9.40279 12.164C9.40279 13.6126 10.5771 14.7869 12.0257 14.7869Z" fill="#525C69"/>
</svg>
