<svg width="24" height="24" viewBox="0 0 24 24" fill="none" xmlns="http://www.w3.org/2000/svg">
<path fill-rule="evenodd" clip-rule="evenodd" d="M17.8476 4C18.483 4 19 4.51192 19 5.1411V17.8589C19 18.4881 18.483 19 17.8476 19H6.15243C5.517 19 5 18.4881 5 17.8589V5.1411C5 4.51192 5.517 4 6.15243 4H17.8476ZM15.4 10H7.6C7.30177 10 7.05435 10.2176 7.00785 10.5027L7 10.6V13.4081C7 13.7064 7.21759 13.9538 7.50268 14.0003L7.6 14.0081H15.4C15.6982 14.0081 15.9456 13.7906 15.9921 13.5055L16 13.4081V10.6C16 10.2686 15.7314 10 15.4 10ZM8 6.8C7.44772 6.8 7 7.24772 7 7.8C7 8.35228 7.44772 8.8 8 8.8C8.55228 8.8 9 8.35228 9 7.8C9 7.24772 8.55228 6.8 8 6.8ZM15.2426 7H10.7574C10.3391 7 10 7.33911 10 7.75741C10 8.14086 10.2849 8.45776 10.6546 8.50791L10.7574 8.51482H15.2426C15.6609 8.51482 16 8.17572 16 7.75741C16 7.33911 15.6609 7 15.2426 7Z" fill="#525C69"/>
</svg>
