<svg width="24" height="24" viewBox="0 0 24 24" fill="none" xmlns="http://www.w3.org/2000/svg">
<path fill-rule="evenodd" clip-rule="evenodd" d="M5.98865 5C5.98865 4.44772 6.43636 4 6.98865 4H13.2466C13.8054 4 14.3387 4.23377 14.7174 4.6447L17.4821 7.64497C17.8224 8.01427 18.0114 8.49809 18.0114 9.00028V13.352C17.7321 13.3101 17.4463 13.2883 17.1553 13.2883C14.0009 13.2883 11.4437 15.8455 11.4437 19H6.98865C6.43636 19 5.98865 18.5523 5.98865 18V5ZM8.80027 7.98241C8.3641 7.98241 8.01051 8.336 8.01051 8.77217C8.01051 9.20834 8.3641 9.56193 8.80027 9.56193H14.618C15.0542 9.56193 15.4077 9.20834 15.4077 8.77217C15.4077 8.336 15.0542 7.98241 14.618 7.98241H8.80027ZM8.80027 10.9824C8.3641 10.9824 8.01051 11.336 8.01051 11.7722C8.01051 12.2083 8.3641 12.5619 8.80027 12.5619H14.618C15.0542 12.5619 15.4077 12.2083 15.4077 11.7722C15.4077 11.336 15.0542 10.9824 14.618 10.9824H8.80027Z" fill="#525C69"/>
<path fill-rule="evenodd" clip-rule="evenodd" d="M18.0043 15.5752H16.3065V18.151H13.7305L13.7305 19.8488H16.3065V22.4249H18.0043V19.8488H20.5803V18.151H18.0043V15.5752Z" fill="#525C69"/>
</svg>
