<svg width="24" height="24" viewBox="0 0 24 24" fill="none" xmlns="http://www.w3.org/2000/svg">
<path fill-rule="evenodd" clip-rule="evenodd" d="M6.95813 4.30371C6.40585 4.30371 5.95813 4.75143 5.95813 5.30371L5.95817 18.7752C5.95817 19.3275 6.40589 19.7752 6.95817 19.7752H17.0419C17.5942 19.7752 18.0419 19.3275 18.0419 18.7752V9.48377C18.0419 8.98158 17.853 8.49776 17.5127 8.12846L14.7282 4.94841C14.3495 4.53748 13.8162 4.30371 13.2574 4.30371H6.95813ZM8.78004 8.46443C8.34387 8.46443 7.99029 8.82202 7.99029 9.25819C7.99029 9.69437 8.34387 10.052 8.78004 10.052H14.6353C15.0715 10.052 15.4251 9.69437 15.4251 9.25819C15.4251 8.82202 15.0715 8.46443 14.6353 8.46443H8.78004ZM8.78004 11.4797C8.34387 11.4797 7.99029 11.8373 7.99029 12.2734C7.99029 12.7096 8.34387 13.0672 8.78004 13.0672H14.6353C15.0715 13.0672 15.4251 12.7096 15.4251 12.2734C15.4251 11.8373 15.0715 11.4797 14.6353 11.4797H8.78004ZM7.99029 15.2484C7.99029 14.8122 8.34387 14.4547 8.78004 14.4547H12.9226C13.3587 14.4547 13.7123 14.8122 13.7123 15.2484C13.7123 15.6846 13.3587 16.0422 12.9226 16.0422H8.78004C8.34387 16.0422 7.99029 15.6846 7.99029 15.2484Z" fill="#525C69"/>
</svg>
