<svg width="24" height="24" viewBox="0 0 24 24" fill="none" xmlns="http://www.w3.org/2000/svg">
<path fill-rule="evenodd" clip-rule="evenodd" d="M5.95813 5.30371C5.95813 4.75143 6.40585 4.30371 6.95813 4.30371H13.2574C13.8162 4.30371 14.3495 4.53748 14.7282 4.94841L17.5127 8.12846C17.5299 8.14714 17.5467 8.1661 17.5632 8.18535L14.2688 11.4797H8.78004C8.34387 11.4797 7.99029 11.8373 7.99029 12.2734C7.99029 12.7096 8.34387 13.0672 8.78004 13.0672H12.6813L11.2938 14.4547H8.78004C8.34387 14.4547 7.99029 14.8122 7.99029 15.2484C7.99029 15.6846 8.34387 16.0422 8.78004 16.0422H9.96261C9.45188 17.1442 9.65092 18.494 10.5597 19.4028C10.701 19.5441 10.853 19.6682 11.0131 19.7752H6.95817C6.40589 19.7752 5.95817 19.3275 5.95817 18.7752L5.95813 5.30371ZM7.99029 9.25819C7.99029 8.82202 8.34387 8.46443 8.78004 8.46443H14.6353C15.0715 8.46443 15.4251 8.82202 15.4251 9.25819C15.4251 9.69437 15.0715 10.052 14.6353 10.052H8.78004C8.34387 10.052 7.99029 9.69437 7.99029 9.25819Z" fill="#95C500"/>
<path d="M14.3203 19.7752H17.0419C17.5942 19.7752 18.0419 19.3275 18.0419 18.7752V16.1345L14.7737 19.4028C14.6324 19.5441 14.4804 19.6682 14.3203 19.7752Z" fill="#95C500"/>
<path fill-rule="evenodd" clip-rule="evenodd" d="M13.5601 17.959L11.7311 18.3786C11.6304 18.4017 11.5301 18.3388 11.5071 18.2381C11.5007 18.2106 11.5007 18.1821 11.5071 18.1545L11.9266 16.3256L13.5601 17.959ZM21.0252 10.141C21.1226 10.2384 21.1226 10.3962 21.0252 10.4936L14.1663 17.4028L12.5328 15.7694L19.3918 8.86012C19.4891 8.76277 19.647 8.76277 19.7443 8.86012L21.0252 10.141Z" fill="#95C500"/>
</svg>
