<svg width="24" height="24" viewBox="0 0 24 24" fill="none" xmlns="http://www.w3.org/2000/svg">
<path fill-rule="evenodd" clip-rule="evenodd" d="M8.95396 5C8.40168 5 7.95396 5.44772 7.95396 6V8.979C7.95396 9.53129 8.40168 9.979 8.95396 9.979H16.9708C17.5231 9.979 17.9708 9.53129 17.9708 8.979V6C17.9708 5.44772 17.5231 5 16.9708 5H8.95396ZM10.3789 6.9043C10.0533 6.9043 9.78941 7.1682 9.78941 7.49374C9.78941 7.81929 10.0533 8.08319 10.3789 8.08319H10.5278C10.8534 8.08319 11.1173 7.81929 11.1173 7.49374C11.1173 7.1682 10.8534 6.9043 10.5278 6.9043H10.3789ZM16.0445 7.49374C16.0445 7.1682 15.7806 6.9043 15.4551 6.9043H12.5239C12.1984 6.9043 11.9345 7.1682 11.9345 7.49374C11.9345 7.81929 12.1984 8.08319 12.5239 8.08319H15.4551C15.7806 8.08319 16.0445 7.81929 16.0445 7.49374ZM21.1812 11.7157C21.1934 11.7218 21.2048 11.7276 21.2155 11.7328C21.4429 11.8436 21.4113 12.233 21.1748 12.7619C20.9384 13.2909 17.4141 16.8983 17.4141 16.8983C16.5247 17.9043 14.9843 17.9584 14.9843 17.9584H8.91258C8.5856 17.9584 8.02759 18.1265 8.02759 18.1265L7.95048 18.1771C7.00351 18.7983 5.72698 18.5113 5.07424 17.5858C4.67365 17.0178 4.19733 16.3795 3.6948 15.7848C3.44575 15.4901 3.55912 15.2507 3.65427 15.1548C4.54143 14.2606 5.2478 13.6602 5.77337 13.3537C7.40987 12.3992 8.75826 12.166 9.47302 12.166C9.82081 12.166 10.9022 12.174 11.9626 12.1818C12.983 12.1893 13.984 12.1967 14.2938 12.1967C14.9256 12.1967 15.3982 12.3265 15.3982 13.0953C15.3982 13.8641 14.652 14.0626 14.3401 14.0626H11.6765C11.1952 14.0626 11.1952 14.5314 11.1952 14.5314C11.1952 14.924 11.6447 14.9992 11.6447 14.9992H15.2359C15.614 14.9992 15.7877 14.8372 15.7877 14.8372L19.2432 12.2236C20.3801 11.3118 20.9347 11.5914 21.1812 11.7157Z" fill="#525C69"/>
</svg>
