<svg width="24" height="24" viewBox="0 0 24 24" fill="none" xmlns="http://www.w3.org/2000/svg">
<path fill-rule="evenodd" clip-rule="evenodd" d="M6.16479 5.91504C6.16479 5.36275 6.61251 4.91504 7.16479 4.91504H16.8353C17.3875 4.91504 17.8353 5.36275 17.8353 5.91504V16.1739C17.8353 16.7262 17.3875 17.1739 16.8353 17.1739H13.8886V19.9487C13.8886 20.3133 13.5108 20.5553 13.1796 20.4029L6.74666 17.4418C6.39201 17.2785 6.16479 16.9238 6.16479 16.5334V16.1739V6.4762V5.91504ZM13.8886 15.7387V8.79062C13.8886 8.59542 13.775 8.41806 13.5977 8.33643L9.28296 6.35035H16.2367C16.4024 6.35035 16.5367 6.48466 16.5367 6.65035V15.4387C16.5367 15.6043 16.4024 15.7387 16.2367 15.7387H13.8886Z" fill="#525C69"/>
</svg>
