<svg width="24" height="24" viewBox="0 0 24 24" fill="none" xmlns="http://www.w3.org/2000/svg">
<path fill-rule="evenodd" clip-rule="evenodd" d="M11.2881 4.05224V1.84766L7.64561 5.49017L11.2881 9.13268V7.013C11.404 7.00374 11.5211 6.99902 11.6393 6.99902C14.0413 6.99902 15.9885 8.94622 15.9885 11.3482C15.9885 13.7502 14.0413 15.6974 11.6393 15.6974C11.6128 15.6974 11.5863 15.6971 11.5598 15.6967V15.7029H3.80652V18.6534H11.7034V18.6528C15.7081 18.6184 18.9439 15.3614 18.9439 11.3485C18.9439 7.31431 15.6736 4.04395 11.6394 4.04395C11.5216 4.04395 11.4045 4.04673 11.2881 4.05224ZM5.95547 6.76011C4.94185 8.01416 4.33481 9.61045 4.33481 11.3485C4.33481 12.1757 4.4723 12.9707 4.72568 13.7121L7.98803 13.7121C7.54654 13.0315 7.29014 12.2198 7.29014 11.3482C7.29014 10.3629 7.61781 9.45404 8.17014 8.72479L5.95547 6.76011ZM16.842 18.6364H20.2332V20.8163L23.8757 17.1738L20.306 13.604C20.2831 13.6925 20.2588 13.7805 20.2332 13.8679V15.6602H19.4881C18.8389 16.8397 17.9315 17.8572 16.842 18.6364Z" fill="#525C69"/>
</svg>
