<svg width="24" height="24" viewBox="0 0 24 24" fill="none" xmlns="http://www.w3.org/2000/svg">
<path d="M3.58188 8.70216C3.14397 8.9258 3.14623 9.55233 3.58574 9.77281L11.4606 13.7232C11.745 13.8659 12.0804 13.8647 12.3638 13.7199L20.4179 9.60667C20.8559 9.38303 20.8536 8.75649 20.4141 8.53602L12.5392 4.58565C12.2548 4.44297 11.9194 4.44418 11.636 4.58891L3.58188 8.70216Z" fill="#525C69"/>
<path d="M3.58187 14.3933L6.23873 13.0365L11.4606 15.656C11.745 15.7987 12.0804 15.7974 12.3638 15.6527L17.7611 12.8963L20.4141 14.2272C20.8536 14.4477 20.8558 15.0742 20.4179 15.2978L12.3638 19.4111C12.0804 19.5558 11.745 19.557 11.4606 19.4143L3.58573 15.464C3.14622 15.2435 3.14396 14.617 3.58187 14.3933Z" fill="#525C69"/>
</svg>
