<svg width="24" height="24" viewBox="0 0 24 24" fill="none" xmlns="http://www.w3.org/2000/svg">
<path fill-rule="evenodd" clip-rule="evenodd" d="M19.0659 14.8852C19.3848 14.8852 19.6433 15.161 19.6433 15.5311V17.4929C19.6433 17.8631 19.3848 18.1631 19.0659 18.1631H4.93432C4.61544 18.1631 4.35693 17.8631 4.35693 17.4929V15.5311C4.35693 15.161 4.61544 14.8852 4.93432 14.8852H19.0659ZM12.0007 15.5231C11.5216 15.5231 11.1332 15.9329 11.1332 16.4384C11.1332 16.9439 11.5216 17.3537 12.0007 17.3537C12.4798 17.3537 12.8682 16.9439 12.8682 16.4384C12.8682 15.9329 12.4798 15.5231 12.0007 15.5231ZM11.4414 3.93164C11.7602 3.93164 12.0187 4.20439 12.0187 4.54084V5.79234H16.4754C16.7943 5.79234 17.0528 6.06509 17.0528 6.40154V7.6504C17.0528 7.6504 18.6984 12.2261 18.6984 12.3564V12.8764C18.6984 13.2128 18.4399 13.4856 18.121 13.4856H5.90931C5.59043 13.4856 5.33192 13.2128 5.33192 12.8764V12.3564C5.33192 12.2261 6.71765 7.6892 6.71765 7.6892V6.40154C6.71765 6.06509 6.97615 5.79234 7.29503 5.79234H8.17554V4.54084C8.17554 4.20439 8.43405 3.93164 8.75293 3.93164L11.4414 3.93164ZM16.3321 10.588H7.75795C7.71183 10.588 7.67413 10.6261 7.67149 10.674L7.67134 10.6794V11.6541C7.67134 11.7028 7.7074 11.7426 7.75286 11.7453L16.3321 11.7455C16.3782 11.7455 16.4159 11.7075 16.4186 11.6595L16.4187 10.6794C16.4187 10.6289 16.3799 10.588 16.3321 10.588ZM15.6147 8.67721H8.47353C8.43511 8.67721 8.40371 8.71525 8.40151 8.76322L8.40139 8.76859V9.7433C8.40139 9.79197 8.43142 9.83175 8.46929 9.83453L8.47353 9.83468H15.6147C15.6532 9.83468 15.6846 9.79664 15.6868 9.74867L15.6869 8.76859C15.6869 8.71812 15.6546 8.67721 15.6147 8.67721ZM11.1181 4.91686C11.1181 4.89419 11.0997 4.87581 11.077 4.87581H9.11727C9.0946 4.87581 9.07622 4.89419 9.07622 4.91686V6.54333C9.07622 6.56601 9.0946 6.58439 9.11727 6.58439H11.077C11.0997 6.58439 11.1181 6.56601 11.1181 6.54333V4.91686Z" fill="#525C69"/>
</svg>
