<svg width="24" height="24" viewBox="0 0 24 24" fill="none" xmlns="http://www.w3.org/2000/svg">
<path fill-rule="evenodd" clip-rule="evenodd" d="M12 19.9844C7.59062 19.9844 4.01611 16.4099 4.01611 12.0005C4.01611 7.5911 7.59062 4.0166 12 4.0166C16.4094 4.0166 19.9839 7.5911 19.9839 12.0005C19.9839 16.4099 16.4094 19.9844 12 19.9844ZM9.84321 17.8655C8.38702 17.3298 7.18547 16.2673 6.46964 14.9091H8.62655C8.8231 15.6164 9.06732 16.2525 9.30737 16.7899C9.49294 17.2053 9.67868 17.5678 9.84321 17.8655ZM14.1227 17.8779C15.5942 17.3464 16.809 16.2779 17.5304 14.9091H15.3161C15.1254 15.6124 14.8888 16.2454 14.656 16.7808C14.471 17.2063 14.2857 17.5762 14.1227 17.8779ZM15.6651 13.0508H18.1594C18.2172 12.7093 18.2473 12.3584 18.2473 12.0005C18.2473 11.6712 18.2219 11.3478 18.1728 11.0322H15.6701C15.7014 11.3533 15.7186 11.6819 15.7186 12.0164C15.7186 12.3684 15.6995 12.7138 15.6651 13.0508ZM13.6584 11.0322C13.697 11.3537 13.7186 11.6827 13.7186 12.0164C13.7186 12.3676 13.6947 12.7134 13.6523 13.0508L10.2823 13.0508C10.2386 12.7134 10.214 12.3675 10.214 12.0164C10.214 11.6827 10.2362 11.3537 10.276 11.0322L13.6584 11.0322ZM15.3295 9.17391H17.5728C16.8538 7.75903 15.6117 6.65464 14.1012 6.11529C14.2694 6.42402 14.4628 6.8077 14.656 7.25206C14.8943 7.80018 15.1366 8.45048 15.3295 9.17391ZM9.86543 6.12731C8.37 6.67095 7.14094 7.76946 6.42718 9.17391H8.61273C8.81159 8.44651 9.06166 7.79307 9.30737 7.24297C9.50134 6.8087 9.6955 6.43239 9.86543 6.12731ZM10.7009 9.17391C10.8335 8.77144 10.9824 8.39683 11.1335 8.05863C11.3665 7.53704 11.5991 7.11421 11.7715 6.82463C11.8576 6.68012 11.9282 6.56963 11.9757 6.49749L11.9921 6.47265L12.0014 6.48716C12.0477 6.55933 12.1164 6.66989 12.2002 6.81447C12.3682 7.1042 12.5948 7.52739 12.8218 8.04953C12.9699 8.3901 13.116 8.7678 13.2459 9.17391L10.7009 9.17391ZM8.26367 11.0322H5.82726C5.77816 11.3478 5.75268 11.6712 5.75268 12.0005C5.75268 12.3584 5.78278 12.7093 5.84058 13.0508H8.2688C8.23352 12.7139 8.21399 12.3684 8.21399 12.0164C8.21399 11.6819 8.23164 11.3532 8.26367 11.0322ZM10.7176 14.9091L13.2297 14.9091C13.1039 15.2962 12.9638 15.6568 12.8218 15.9833C12.5948 16.5055 12.3682 16.9287 12.2002 17.2184C12.1164 17.363 12.0477 17.4735 12.0014 17.5457L11.9921 17.5602L11.9757 17.5354C11.9282 17.4632 11.8576 17.3527 11.7715 17.2082C11.5991 16.9187 11.3665 16.4958 11.1335 15.9742C10.9887 15.6501 10.8459 15.2926 10.7176 14.9091Z" fill="#525C69"/>
</svg>
