<svg width="24" height="24" viewBox="0 0 24 24" fill="none" xmlns="http://www.w3.org/2000/svg">
<path fill-rule="evenodd" clip-rule="evenodd" d="M12 4.0166C15.8783 4.0166 19.1107 6.78191 19.8331 10.4484C18.8259 9.85917 17.6537 9.52148 16.4026 9.52148C14.783 9.52148 13.2956 10.0874 12.1273 11.0322L10.276 11.0322C10.2362 11.3537 10.214 11.6827 10.214 12.0164C10.214 12.3675 10.2386 12.7134 10.2823 13.0508H10.4372C9.90285 14.0222 9.59888 15.1382 9.59888 16.3252C9.59888 16.7798 9.64346 17.2239 9.72848 17.6535C9.59461 17.401 9.45094 17.1113 9.30737 16.7899C9.06732 16.2525 8.8231 15.6164 8.62655 14.9091H6.46964C7.17302 16.2437 8.34537 17.2928 9.76746 17.8371C9.93198 18.5622 10.2123 19.2432 10.588 19.8599C6.85209 19.1932 4.01611 15.928 4.01611 12.0005C4.01611 7.5911 7.59062 4.0166 12 4.0166ZM15.3295 9.17391H17.5728C16.8538 7.75903 15.6117 6.65464 14.1012 6.11529C14.2694 6.42402 14.4628 6.8077 14.656 7.25206C14.8943 7.80018 15.1366 8.45048 15.3295 9.17391ZM9.86543 6.12731C8.37 6.67095 7.14094 7.76946 6.42718 9.17391H8.61273C8.81159 8.44651 9.06166 7.79307 9.30737 7.24297C9.50134 6.8087 9.6955 6.43239 9.86543 6.12731ZM10.7009 9.17391C10.8335 8.77144 10.9824 8.39683 11.1335 8.05863C11.3665 7.53704 11.5991 7.11421 11.7715 6.82463C11.8576 6.68012 11.9282 6.56963 11.9757 6.49749L11.9921 6.47265L12.0014 6.48716C12.0477 6.55933 12.1164 6.66989 12.2002 6.81447C12.3682 7.1042 12.5948 7.52739 12.8218 8.04953C12.9699 8.3901 13.116 8.7678 13.2459 9.17391L10.7009 9.17391ZM8.26367 11.0322H5.82726C5.77816 11.3478 5.75268 11.6712 5.75268 12.0005C5.75268 12.3584 5.78278 12.7093 5.84058 13.0508H8.2688C8.23352 12.7139 8.21399 12.3684 8.21399 12.0164C8.21399 11.6819 8.23164 11.3532 8.26367 11.0322Z" fill="#95C500"/>
<path fill-rule="evenodd" clip-rule="evenodd" d="M16.6116 21.5784C14.4678 21.6639 12.4871 20.4381 11.6072 18.4814C10.7272 16.5246 11.1246 14.2294 12.6111 12.6824C14.0977 11.1353 16.3751 10.6467 18.3654 11.4479C20.3558 12.2491 21.6596 14.1792 21.6597 16.3248C21.715 19.1689 19.4557 21.5202 16.6116 21.5784ZM16.4025 13.0264C16.0381 13.0264 15.7427 13.3218 15.7427 13.6862V16.3253C15.7427 16.5303 15.8362 16.7134 15.9828 16.8345C15.9881 16.8388 15.9933 16.843 15.9987 16.8472C16.1103 16.9337 16.2504 16.9852 16.4026 16.9852H18.382C18.7464 16.9852 19.0418 16.6898 19.0418 16.3254C19.0418 15.961 18.7464 15.6656 18.382 15.6656H17.0623V13.6862C17.0623 13.3218 16.7669 13.0264 16.4025 13.0264Z" fill="#95C500"/>
</svg>
