<svg width="24" height="24" viewBox="0 0 24 24" fill="none" xmlns="http://www.w3.org/2000/svg">
<path fill-rule="evenodd" clip-rule="evenodd" d="M12 4C7.58192 4 4 7.58192 4 12C4 16.4181 7.58192 20 12 20C16.4187 20 20 16.4187 20 12C20 7.58192 16.4187 4 12 4ZM6.6381 16.5861C6.6181 16.6036 6.5281 16.6717 6.41623 16.7536C5.92998 16.1836 5.53623 15.5473 5.24311 14.8542C4.86062 13.9505 4.66748 12.9905 4.66748 11.9998C4.66748 11.6586 4.69123 11.3204 4.73685 10.9873C5.15561 11.5298 5.61498 12.2629 5.77311 12.4823C6.03061 12.8411 6.31748 13.1936 6.56812 13.5579C6.98937 14.1717 7.42999 15.0117 7.20625 15.7747C7.10936 16.1023 6.89498 16.3686 6.6381 16.5861ZM15.0864 10.648C15.0864 10.648 15.4668 12.1399 17.0961 12.0161C17.6112 11.9774 17.5779 13.3551 17.2491 13.9239C16.8422 14.6283 16.9479 15.4651 16.5629 16.1682C16.3204 16.6113 15.9085 16.9401 15.5829 17.3182C15.1747 17.7926 14.7172 18.2501 14.0372 18.1913C13.5891 18.1526 13.4022 17.6557 13.3147 17.302C13.0972 16.4226 12.9454 14.6232 12.9454 14.6232C12.9454 14.6232 12.3132 13.256 10.8841 13.6732C9.45492 14.0905 9.16344 12.9832 9.12344 11.93C9.02656 9.33323 11.211 9.05883 11.4641 9.10443C11.8266 9.16943 12.8916 9.35256 13.1591 9.50007C14.0648 10.0001 14.9922 9.31069 14.9191 8.9457C14.8466 8.58133 12.5959 8.05695 11.7978 8.00007C10.9998 7.94319 10.926 8.22695 10.7072 7.98632C10.5303 7.79195 10.6935 7.48382 10.8178 7.32068C11.6985 6.16006 13.1666 5.87944 14.4084 5.27508C14.4278 5.26571 14.4565 5.19883 14.4903 5.10072C14.6122 5.14509 14.7346 5.19197 14.8546 5.24322C15.7278 5.61259 16.5121 6.14134 17.1858 6.81509C17.8596 7.48883 18.3883 8.27322 18.7577 9.14629C18.8408 9.34254 18.9146 9.5413 18.9796 9.74254C18.7152 9.89879 19.2423 9.68885 17.8573 10.011C16.4723 10.3331 15.0864 10.648 15.0864 10.648Z" fill="#525C69"/>
</svg>
