<svg width="24" height="24" viewBox="0 0 24 24" fill="none" xmlns="http://www.w3.org/2000/svg">
<path d="M18.8984 5.76875V6.76162L18.0049 7.65512H5.85444C5.41262 7.65512 5.05444 7.29695 5.05444 6.85512V5.76875C5.05444 5.32692 5.41262 4.96875 5.85444 4.96875H18.0984C18.5403 4.96875 18.8984 5.32692 18.8984 5.76875Z" fill="#95C500"/>
<path d="M5.85444 10.625H15.035L12.3487 13.3114H5.85444C5.41262 13.3114 5.05444 12.9532 5.05444 12.5114V11.425C5.05444 10.9832 5.41262 10.625 5.85444 10.625Z" fill="#95C500"/>
<path d="M5.85444 16.2834H10.4131C10.1786 17.1615 10.1661 18.0866 10.3754 18.9697H5.85444C5.41262 18.9697 5.05444 18.6116 5.05444 18.1697V17.0834C5.05444 16.6415 5.41262 16.2834 5.85444 16.2834Z" fill="#95C500"/>
<path d="M19.7724 9.3916C20.05 9.11399 20.5001 9.11399 20.7777 9.3916L21.726 10.3399C22.0036 10.6175 22.0036 11.0676 21.726 11.3452L15.4894 17.5818L13.5357 15.6282L19.7724 9.3916Z" fill="#95C500"/>
<path d="M15.104 17.9679L12.6271 18.4902L13.149 16.0154L15.104 17.9679Z" fill="#95C500"/>
</svg>
