<svg width="24" height="24" viewBox="0 0 24 24" fill="none" xmlns="http://www.w3.org/2000/svg">
<path fill-rule="evenodd" clip-rule="evenodd" d="M17.1174 12.6201L18.9816 10.7559V17.126C18.9816 18.155 18.1464 18.9902 17.1174 18.9902H6.86421C5.83517 18.9902 5 18.155 5 17.126V6.87284C5 5.8438 5.83517 5.00863 6.86421 5.00863H12.8651L11.0009 6.87284H6.86421V17.126H17.1174V12.6201ZM18.4537 3.22266L20.7774 5.5709L14.041 12.2829L11.7172 9.93465L18.4537 3.22266ZM10.6381 13.0677L11.3381 10.4708L13.5293 12.6613L10.9316 13.3611C10.8484 13.3847 10.7605 13.3611 10.6993 13.2999C10.6397 13.2387 10.6161 13.1509 10.6381 13.0677Z" fill="#525C69"/>
</svg>
