<svg width="24" height="24" viewBox="0 0 24 24" fill="none" xmlns="http://www.w3.org/2000/svg">
<path fill-rule="evenodd" clip-rule="evenodd" d="M12.7628 16.1216H8.75854C8.53796 16.1216 8.32642 16.0355 8.17045 15.8823L5.74455 13.4998C5.41975 13.1808 5.41975 12.6637 5.74455 12.3447L13.9975 4.23924C14.3223 3.92025 14.8489 3.92025 15.1737 4.23924L19.6018 8.5881C19.9266 8.90709 19.9266 9.42426 19.6018 9.74325L13.3509 15.8823C13.1949 16.0355 12.9834 16.1216 12.7628 16.1216ZM12.3946 14.625L15.1999 11.8699L11.8294 8.55962L7.49501 12.8165L9.33646 14.625H12.3946ZM5.35965 17.3291H18.2325C18.4311 17.3291 18.5921 17.4872 18.5921 17.6823V18.4919C18.5921 18.6869 18.4311 18.8451 18.2325 18.8451H5.35965C5.16102 18.8451 5 18.6869 5 18.4919V17.6823C5 17.4872 5.16102 17.3291 5.35965 17.3291Z" fill="#525C69"/>
</svg>
