<svg width="24" height="24" viewBox="0 0 24 24" fill="none" xmlns="http://www.w3.org/2000/svg">
<path d="M10.0125 5C10.1782 5 10.3125 5.13431 10.3125 5.3V6.7C10.3125 6.86569 10.1782 7 10.0125 7H8C7.44772 7 7 7.44772 7 8V16C7 16.5523 7.44772 17 8 17H16C16.5523 17 17 16.5523 17 16V14.1125C17 13.9468 17.1343 13.8125 17.3 13.8125H18.7C18.8657 13.8125 19 13.9468 19 14.1125V16.5C19 17.8807 17.8807 19 16.5 19H7.5C6.11929 19 5 17.8807 5 16.5V7.5C5 6.11929 6.11929 5 7.5 5H10.0125Z" fill="#525C69"/>
<path d="M18.7001 11.2869C18.8657 11.2869 19.0001 11.1526 19.0001 10.9869V7.5C19.0001 6.11929 17.8808 5 16.5001 5H13.1125C12.9468 5 12.8125 5.13431 12.8125 5.3V6.7C12.8125 6.86569 12.9468 7 13.1125 7H15.7157L12.4541 10.2617C12.064 10.6517 12.064 11.2841 12.4541 11.6741C12.8441 12.0642 13.4765 12.0642 13.8665 11.6741L17.0001 8.54056V10.9869C17.0001 11.1526 17.1344 11.2869 17.3001 11.2869H18.7001Z" fill="#525C69"/>
</svg>
