<svg width="24" height="24" viewBox="0 0 24 24" fill="none" xmlns="http://www.w3.org/2000/svg">
	<path fill-rule="evenodd" clip-rule="evenodd" d="M11.95 16.0454L15.6875 18.0111L14.9742 13.851L17.9752 10.9246L13.8259 10.3214L11.95 6.51879L10.0741 10.3214L5.92489 10.9246L8.92581 13.851L8.21258 18.0111L11.95 16.0454ZM7.04241 20.2532C6.84461 20.3573 6.59996 20.2812 6.49597 20.0833C6.45456 20.0045 6.44027 19.9142 6.45531 19.8265L7.39258 14.3595L3.42224 10.4877C3.26222 10.3317 3.25894 10.0754 3.41493 9.91527C3.47704 9.85152 3.55843 9.81004 3.64649 9.79723L9.13337 8.99961L11.5872 4.02555C11.6861 3.82507 11.9287 3.74275 12.1291 3.8417C12.2089 3.8811 12.2735 3.94571 12.3129 4.02555L14.7667 8.99961L20.2535 9.79723C20.4747 9.82938 20.6279 10.0348 20.5958 10.256C20.583 10.3441 20.5415 10.4256 20.4778 10.4877L16.5075 14.3595L17.4447 19.8265C17.4825 20.0468 17.3346 20.2561 17.1143 20.2939C17.0266 20.3089 16.9364 20.2947 16.8576 20.2532L11.95 17.672L7.04241 20.2532Z" fill="#525C69"/>
</svg>
