<svg width="24" height="24" viewBox="0 0 24 24" fill="none" xmlns="http://www.w3.org/2000/svg">
<path fill-rule="evenodd" clip-rule="evenodd" d="M14.4414 13.5892L17.8722 10.245L13.1309 9.55603L11.0106 5.25973L8.89022 9.55603L4.14897 10.245L7.57977 13.5892L6.76987 18.3113L11.0106 16.0818L15.2513 18.3113L14.4414 13.5892ZM11.0106 17.2116L6.15913 19.7621C5.96359 19.8649 5.72174 19.7898 5.61894 19.5942C5.578 19.5164 5.56388 19.4272 5.57875 19.3405L6.50529 13.9383L2.58039 10.1125C2.4222 9.95826 2.41896 9.70502 2.57316 9.54682C2.63456 9.48383 2.71502 9.44284 2.80208 9.43019L8.22616 8.64202L10.6519 3.72697C10.7497 3.52887 10.9895 3.44753 11.1876 3.5453C11.2665 3.58423 11.3303 3.64808 11.3693 3.72697L13.795 8.64202L19.2191 9.43019C19.4377 9.46195 19.5892 9.66493 19.5574 9.88355C19.5448 9.9706 19.5038 10.0511 19.4408 10.1125L15.5159 13.9383L16.4424 19.3405C16.4797 19.5582 16.3335 19.765 16.1158 19.8023C16.0291 19.8172 15.9399 19.8031 15.862 19.7621L11.0106 17.2116Z" fill="#525C69"/>
</svg>
