<svg width="24" height="24" viewBox="0 0 24 24" fill="none" xmlns="http://www.w3.org/2000/svg">
<path d="M7 4C6.2745 4 5.54285 4.22214 4.97185 4.66626C4.395 5.11492 4 5.78504 4 6.55556V10.4444C4 10.4991 3.97357 10.6202 3.80027 10.755C3.6971 10.8353 3.55856 10.9043 3.39554 10.9485C3.18231 11.0062 3 11.1791 3 11.4V12.6C3 12.8209 3.18231 12.9938 3.39554 13.0515C3.55856 13.0957 3.6971 13.1647 3.80027 13.245C3.97357 13.3798 4 13.5009 4 13.5556V17.4444C4 19.0716 5.59616 20 7 20H7.6C7.82091 20 8 19.8209 8 19.6V18.4C8 18.1791 7.82091 18 7.6 18H7C6.65606 18 6.37595 17.8894 6.20144 17.7537C6.02732 17.6183 6 17.4999 6 17.4444V13.5556C6 12.9578 5.76224 12.4204 5.38626 12C5.76224 11.5796 6 11.0422 6 10.4444V6.55556C6 6.50095 6.02643 6.37975 6.19973 6.24496C6.37886 6.10563 6.66464 6 7 6H7.6C7.82091 6 8 5.82091 8 5.6V4.4C8 4.17909 7.82091 4 7.6 4H7Z" fill="#95C500"/>
<path d="M17 4C17.7255 4 18.4571 4.22214 19.0282 4.66626C19.605 5.11492 20 5.78504 20 6.55556V10.4444C20 10.4991 20.0264 10.6202 20.1997 10.755C20.3029 10.8353 20.4414 10.9043 20.6045 10.9485C20.8177 11.0062 21 11.1791 21 11.4V12.6C21 12.8209 20.8177 12.9938 20.6045 13.0515C20.4414 13.0957 20.3029 13.1647 20.1997 13.245C20.0264 13.3798 20 13.5009 20 13.5556V17.4444C20 19.0716 18.4038 20 17 20H16.4C16.1791 20 16 19.8209 16 19.6V18.4C16 18.1791 16.1791 18 16.4 18H17C17.3439 18 17.6241 17.8894 17.7986 17.7537C17.9727 17.6183 18 17.4999 18 17.4444V13.5556C18 12.9578 18.2378 12.4204 18.6137 12C18.2378 11.5796 18 11.0422 18 10.4444V6.55556C18 6.50095 17.9736 6.37975 17.8003 6.24496C17.6211 6.10563 17.3354 6 17 6H16.4C16.1791 6 16 5.82091 16 5.6V4.4C16 4.17909 16.1791 4 16.4 4H17Z" fill="#95C500"/>
<path d="M9.52081 15.7054L12 14.4237L14.4792 15.7054C14.519 15.726 14.5646 15.7331 14.6089 15.7256C14.7202 15.7068 14.7949 15.6029 14.7758 15.4935L14.3023 12.7787L16.3081 10.8561C16.3403 10.8253 16.3612 10.7849 16.3677 10.7411C16.3839 10.6312 16.3065 10.5292 16.1948 10.5133L13.4229 10.1172L12.1833 7.64725C12.1634 7.60761 12.1308 7.57552 12.0905 7.55596C11.9893 7.50683 11.8667 7.5477 11.8167 7.64725L10.5771 10.1172L7.80527 10.5133C7.76078 10.5196 7.71966 10.5402 7.68828 10.5719C7.60948 10.6514 7.61114 10.7787 7.69198 10.8561L9.69771 12.7787L9.22422 15.4935C9.21662 15.5371 9.22384 15.5819 9.24476 15.621C9.29729 15.7193 9.42088 15.757 9.52081 15.7054Z" fill="#95C500"/>
</svg>
