<svg width="25" height="24" viewBox="0 0 25 24" fill="none" xmlns="http://www.w3.org/2000/svg">
<path fill-rule="evenodd" clip-rule="evenodd" d="M18.8037 5.13184H6.19652C5.52302 5.13184 4.97705 5.67781 4.97705 6.3513V16.7402C4.97705 17.4137 5.52303 17.9597 6.19652 17.9597H8.32064V21.1731C8.32064 21.5294 8.75147 21.7079 9.00346 21.4559L12.5001 17.9597H18.8037C19.4772 17.9597 20.0232 17.4137 20.0232 16.7402V6.3513C20.0232 5.67781 19.4772 5.13184 18.8037 5.13184ZM10.3901 15.0017L12.5001 13.873L14.6101 15.0017C14.8299 15.1192 15.0889 14.9331 15.0475 14.6873L14.6431 12.2888L16.3606 10.5854C16.536 10.4114 16.4377 10.1118 16.1932 10.0757L13.8246 9.72547L12.77 7.55139C12.6607 7.32596 12.3395 7.32595 12.2302 7.55139L11.1756 9.72547L8.80703 10.0757C8.56258 10.1118 8.4642 10.4114 8.63965 10.5854L10.3571 12.2888L9.95277 14.6873C9.91134 14.9331 10.1703 15.1192 10.3901 15.0017Z" fill="#BDC1C6"/>
</svg>
