<svg width="24" height="24" viewBox="0 0 24 24" fill="none" xmlns="http://www.w3.org/2000/svg">
<path d="M7.98245 11.7407C7.98245 11.4223 8.1928 11.1642 8.45229 11.1642H14.5603C14.8198 11.1642 15.0302 11.4223 15.0302 11.7407V14.4015C15.0302 14.7199 14.8198 14.978 14.5603 14.978H8.45229C8.1928 14.978 7.98245 14.7199 7.98245 14.4015V11.7407Z" fill="#525C69"/>
<path d="M10.8806 9.01083C10.8806 8.62041 11.1152 8.30391 11.4045 8.30391H14.5064C14.7956 8.30391 15.0302 8.62041 15.0302 9.01083C15.0302 9.40125 14.7956 9.71775 14.5064 9.71775H11.4045C11.1152 9.71775 10.8806 9.40125 10.8806 9.01083Z" fill="#525C69"/>
<path d="M9.89266 9.05072C9.89266 9.56619 9.46504 9.98406 8.93755 9.98406C8.41006 9.98406 7.98245 9.56619 7.98245 9.05072C7.98245 8.53526 8.41006 8.11739 8.93755 8.11739C9.46504 8.11739 9.89266 8.53526 9.89266 9.05072Z" fill="#525C69"/>
<path fill-rule="evenodd" clip-rule="evenodd" d="M5 7C5 5.89543 5.89543 5 7 5H17C18.1046 5 19 5.89543 19 7V17C19 18.1046 18.1046 19 17 19H7C5.89543 19 5 18.1046 5 17V7ZM17.3108 16.5027C17.3108 16.9483 16.9185 17.3108 16.4364 17.3108H7.5636C7.08152 17.3108 6.68928 16.9483 6.68928 16.5027V7.4973C6.68928 7.05178 7.08152 6.68928 7.5636 6.68928H16.4364C16.9185 6.68928 17.3108 7.05178 17.3108 7.4973V16.5027Z" fill="#525C69"/>
</svg>
