<svg width="24" height="24" viewBox="0 0 24 24" fill="none" xmlns="http://www.w3.org/2000/svg">
<path fill-rule="evenodd" clip-rule="evenodd" d="M19 18.8589C19 19.4881 18.483 20 17.8476 20H6.15243C5.517 20 5 19.4881 5 18.8589V6.1411C5 5.51192 5.517 5 6.15243 5H17.8476C18.483 5 19 5.51192 19 6.1411V18.8589ZM7.6 11C7.26863 11 7 11.2686 7 11.6V14.3693C7 14.7007 7.26863 14.9693 7.6 14.9693H15.4C15.7314 14.9693 16 14.7007 16 14.3693V11.6C16 11.2686 15.7314 11 15.4 11H7.6ZM10.7574 8C10.3391 8 10 8.33911 10 8.75741C10 9.17572 10.3391 9.51482 10.7574 9.51482H15.2426C15.6609 9.51482 16 9.17572 16 8.75741C16 8.33911 15.6609 8 15.2426 8H10.7574ZM8 9.8C8.55228 9.8 9 9.35228 9 8.8C9 8.24772 8.55228 7.8 8 7.8C7.44772 7.8 7 8.24772 7 8.8C7 9.35228 7.44772 9.8 8 9.8Z" fill="#525C69"/>
</svg>
