<svg width="24" height="24" viewBox="0 0 24 24" fill="none" xmlns="http://www.w3.org/2000/svg">
<path fill-rule="evenodd" clip-rule="evenodd" d="M6.9226 5.22704V18.7519H17.0774V9.15996C17.0774 9.11357 17.0714 9.06777 17.0598 9.0236H14.6147C14.0624 9.0236 13.6147 8.57589 13.6147 8.0236V5.26718C13.5508 5.24095 13.4817 5.22704 13.4111 5.22704H6.9226ZM6.32749 3.5C5.70234 3.5 5.19556 4.00678 5.19556 4.63193V19.347C5.19556 19.9722 5.70234 20.4789 6.32749 20.4789H17.6725C18.2976 20.4789 18.8044 19.9722 18.8044 19.347V9.15996C18.8044 8.59152 18.5906 8.04387 18.2054 7.62585L15.0759 4.22975C14.6472 3.76461 14.0436 3.5 13.4111 3.5H6.32749ZM8.27028 11.7162C8.27028 11.2225 8.67052 10.8223 9.16423 10.8223H14.7575C15.2512 10.8223 15.6515 11.2225 15.6515 11.7162C15.6515 12.2099 15.2512 12.6102 14.7575 12.6102H9.16423C8.67051 12.6102 8.27028 12.2099 8.27028 11.7162ZM8.27002 15.0667C8.27002 14.573 8.67025 14.1728 9.16397 14.1728H13.0568C13.5506 14.1728 13.9508 14.573 13.9508 15.0667C13.9508 15.5604 13.5506 15.9607 13.0568 15.9607H9.16397C8.67025 15.9607 8.27002 15.5604 8.27002 15.0667Z" fill="#525C69"/>
</svg>
