<svg width="24" height="24" viewBox="0 0 24 24" fill="none" xmlns="http://www.w3.org/2000/svg">
<path fill-rule="evenodd" clip-rule="evenodd" d="M17.3855 18.1396C17.3855 18.2662 17.2818 18.3679 17.1551 18.3679H7.92385C7.79621 18.3679 7.6935 18.2662 7.6935 18.1396V5.82491C7.6935 5.69926 7.79621 5.59655 7.92385 5.59655H12.3086C12.4363 5.59655 12.539 5.69926 12.539 5.82491V10.1588C12.539 10.2845 12.6427 10.3862 12.7703 10.3862H17.1551C17.2818 10.3862 17.3855 10.4889 17.3855 10.6146V18.1396ZM14.1545 6.46512C14.1545 6.41925 14.1934 6.38036 14.2412 6.38036C14.2642 6.38036 14.2861 6.38934 14.3021 6.40529L16.5677 8.64405C16.6017 8.67696 16.6017 8.73081 16.5677 8.76471C16.5508 8.78067 16.5299 8.78964 16.5059 8.78964H14.2412C14.1934 8.78964 14.1545 8.75075 14.1545 8.70388V6.46512ZM18.6619 8.45557L14.4078 4.2503C14.2462 4.09075 14.0258 4 13.7955 4H6.94359C6.46492 4 6.078 4.38293 6.078 4.85561V19.1099C6.078 19.5815 6.46492 19.9645 6.94359 19.9645H18.1354C18.612 19.9645 19 19.5815 19 19.1099V9.26232C19 8.95917 18.8783 8.66898 18.6619 8.45557ZM15.4808 11.9827H9.59619C9.43763 11.9827 9.30799 12.1104 9.30799 12.2679V13.2941C9.30799 13.4506 9.43763 13.5793 9.59619 13.5793H15.4808C15.6403 13.5793 15.77 13.4506 15.77 13.2941V12.2679C15.77 12.1104 15.6403 11.9827 15.4808 11.9827ZM9.65503 10.3862H10.5775C10.7689 10.3862 10.9235 10.2326 10.9235 10.0431V9.13169C10.9235 8.94222 10.7689 8.78964 10.5775 8.78964H9.65503C9.46356 8.78964 9.30799 8.94222 9.30799 9.13169V10.0431C9.30799 10.2326 9.46356 10.3862 9.65503 10.3862ZM15.4808 15.1758H9.59619C9.43763 15.1758 9.30799 15.3025 9.30799 15.46V16.4872C9.30799 16.6437 9.43763 16.7724 9.59619 16.7724H15.4808C15.6403 16.7724 15.77 16.6437 15.77 16.4872V15.46C15.77 15.3025 15.6403 15.1758 15.4808 15.1758Z" fill="#525C69"/>
</svg>
