<svg width="24" height="24" viewBox="0 0 24 24" fill="none" xmlns="http://www.w3.org/2000/svg">
<path fill-rule="evenodd" clip-rule="evenodd" d="M6.97681 3.46094C5.87224 3.46094 4.97681 4.35637 4.97681 5.46094V18.5396C4.97681 19.6441 5.87224 20.5396 6.97681 20.5396H17.0233C18.1279 20.5396 19.0233 19.6441 19.0233 18.5396V9.21418C19.0233 8.67637 18.8067 8.16123 18.4224 7.78501L14.5885 4.03177C14.2147 3.66586 13.7125 3.46094 13.1894 3.46094H6.97681ZM6.97681 18.5396V5.46094H13.1894L17.0233 9.21418V18.5396H6.97681ZM14.3602 13.292C14.6275 13.292 14.7613 13.6151 14.5723 13.8041L12.453 15.9235C12.0624 16.314 11.4293 16.314 11.0387 15.9235L8.91937 13.8041C8.73038 13.6151 8.86423 13.292 9.1315 13.292H10.9277V8.73484C10.9277 8.4587 11.1515 8.23484 11.4277 8.23484H12.1931C12.4693 8.23484 12.6931 8.4587 12.6931 8.73484L12.6931 13.292L14.3602 13.292Z" fill="#525C69"/>
</svg>
