<svg width="24" height="24" viewBox="0 0 24 24" fill="none" xmlns="http://www.w3.org/2000/svg">
<path fill-rule="evenodd" clip-rule="evenodd" d="M6.97681 3.46094C5.87224 3.46094 4.97681 4.35637 4.97681 5.46094V18.5396C4.97681 19.6441 5.87224 20.5396 6.97681 20.5396H17.0233C18.1279 20.5396 19.0233 19.6441 19.0233 18.5396V9.21418C19.0233 8.67637 18.8067 8.16123 18.4224 7.78501L14.5885 4.03177C14.2147 3.66586 13.7125 3.46094 13.1894 3.46094H6.97681ZM6.97681 18.5396V5.46094H13.1894L17.0233 9.21418V18.5396H6.97681ZM9.19621 11.3923C8.92894 11.3923 8.79509 11.0692 8.98408 10.8802L11.1035 8.76079C11.494 8.37027 12.1272 8.37027 12.5177 8.76079L14.6371 10.8802C14.826 11.0692 14.6922 11.3923 14.4249 11.3923L12.6289 11.3923L12.6289 15.2666C12.6289 15.5428 12.405 15.7666 12.1289 15.7666H11.3634C11.0873 15.7666 10.8634 15.5428 10.8634 15.2666L10.8634 11.3923H9.19621Z" fill="#525C69"/>
</svg>
