<svg width="24" height="24" viewBox="0 0 24 24" fill="none" xmlns="http://www.w3.org/2000/svg">
<path fill-rule="evenodd" clip-rule="evenodd" d="M6.97681 3.46094C5.87224 3.46094 4.97681 4.35637 4.97681 5.46094V18.5396C4.97681 19.6441 5.87224 20.5396 6.97681 20.5396H17.0233C18.1279 20.5396 19.0233 19.6441 19.0233 18.5396V9.21418C19.0233 8.67637 18.8067 8.16123 18.4224 7.78501L14.5885 4.03177C14.2147 3.66586 13.7125 3.46094 13.1894 3.46094H6.97681ZM6.97681 18.5396V5.46094H13.1894L17.0233 9.21418V18.5396H6.97681ZM11.1534 15.5693C10.9581 15.7646 10.6415 15.7646 10.4463 15.5693L9.90381 15.0269C9.88809 15.0111 9.87364 14.9946 9.86045 14.9775L8.58446 13.7015C8.3892 13.5062 8.3892 13.1896 8.58446 12.9944L9.1269 12.4519C9.32216 12.2567 9.63875 12.2567 9.83401 12.4519L10.8028 13.4207L14.2496 9.97395C14.4449 9.77869 14.7614 9.77869 14.9567 9.97395L15.4992 10.5164C15.6944 10.7117 15.6944 11.0282 15.4992 11.2235L11.1534 15.5693Z" fill="#525C69"/>
</svg>
