<svg width="24" height="24" viewBox="0 0 24 24" fill="none" xmlns="http://www.w3.org/2000/svg">
<path fill-rule="evenodd" clip-rule="evenodd" d="M4.97681 5.46094C4.97681 4.35637 5.87224 3.46094 6.97681 3.46094H13.1894C13.7125 3.46094 14.2147 3.66586 14.5885 4.03177L18.4224 7.78501C18.8067 8.16123 19.0233 8.67637 19.0233 9.21418V18.5396C19.0233 19.6441 18.1279 20.5396 17.0233 20.5396H6.97681C5.87224 20.5396 4.97681 19.6441 4.97681 18.5396V5.46094ZM6.97681 5.46094V18.5396H17.0233V9.21418L13.1894 5.46094H6.97681ZM12.9828 7.73186C12.7938 7.54287 12.4707 7.67672 12.4707 7.94399V9.38281H9.01308C8.73694 9.38281 8.51308 9.60667 8.51308 9.88281V10.4803C8.51308 10.7564 8.73694 10.9803 9.01308 10.9803H12.4707L12.4707 12.5373C12.4707 12.8046 12.7938 12.9384 12.9828 12.7494L14.7845 10.9478C15.175 10.5572 15.175 9.92407 14.7845 9.53354L12.9828 7.73186ZM10.8296 17.1478C10.8296 17.4151 10.5064 17.5489 10.3175 17.3599L8.51577 15.5583C8.12525 15.1677 8.12525 14.5346 8.51577 14.144L10.3175 12.3424C10.5064 12.1534 10.8296 12.2872 10.8296 12.5545V14.1115L14.2872 14.1115C14.5634 14.1115 14.7872 14.3354 14.7872 14.6115V15.209C14.7872 15.4851 14.5634 15.709 14.2872 15.709H10.8296V17.1478Z" fill="#525C69"/>
</svg>
