<svg width="24" height="24" viewBox="0 0 24 24" fill="none" xmlns="http://www.w3.org/2000/svg">
<path fill-rule="evenodd" clip-rule="evenodd" d="M6.97681 3.46094C5.87224 3.46094 4.97681 4.35637 4.97681 5.46094V18.5396C4.97681 19.6441 5.87224 20.5396 6.97681 20.5396H17.0233C18.1279 20.5396 19.0233 19.6441 19.0233 18.5396V9.21418C19.0233 8.67637 18.8067 8.16123 18.4224 7.78501L14.5885 4.03177C14.2147 3.66586 13.7125 3.46094 13.1894 3.46094H6.97681ZM6.97681 18.5396V5.46094H13.1894L17.0233 9.21418V18.5396H6.97681ZM9.3538 11.2227C9.15854 11.0274 9.15854 10.7108 9.3538 10.5156L9.89624 9.97314C10.0915 9.77788 10.4081 9.77788 10.6033 9.97314L12.1517 11.5215L13.6993 9.97395C13.8946 9.77869 14.2112 9.77869 14.4064 9.97395L14.9489 10.5164C15.1441 10.7117 15.1441 11.0282 14.9489 11.2235L13.4013 12.7711L14.9491 14.3189C15.1444 14.5142 15.1444 14.8308 14.9491 15.026L14.4067 15.5685C14.2114 15.7638 13.8949 15.7638 13.6996 15.5685L12.1517 14.0206L10.6031 15.5693C10.4078 15.7646 10.0912 15.7646 9.89596 15.5693L9.35352 15.0269C9.15825 14.8316 9.15825 14.515 9.35352 14.3197L10.9022 12.7711L9.3538 11.2227Z" fill="#525C69"/>
</svg>
