<svg width="24" height="24" viewBox="0 0 24 24" fill="none" xmlns="http://www.w3.org/2000/svg">
<path fill-rule="evenodd" clip-rule="evenodd" d="M4.97681 5.46094C4.97681 4.35637 5.87224 3.46094 6.97681 3.46094H13.1894C13.7125 3.46094 14.2147 3.66586 14.5885 4.03177L18.4224 7.78501C18.8067 8.16123 19.0233 8.67637 19.0233 9.21418V18.5396C19.0233 19.6441 18.1279 20.5396 17.0233 20.5396H6.97681C5.87224 20.5396 4.97681 19.6441 4.97681 18.5396V5.46094ZM6.97681 5.46094V18.5396H17.0233V9.21418L13.1894 5.46094H6.97681ZM8.73126 17.1454C8.45512 17.1454 8.23126 16.9215 8.23126 16.6454V15.8799C8.23126 15.6038 8.45512 15.3799 8.73126 15.3799H14.8895C15.1657 15.3799 15.3895 15.6038 15.3895 15.8799V16.6454C15.3895 16.9215 15.1657 17.1454 14.8895 17.1454H8.73126ZM14.3599 11.3841C14.6272 11.3841 14.7611 11.7072 14.5721 11.8962L12.4527 14.0156C12.0622 14.4061 11.429 14.4061 11.0385 14.0156L8.9191 11.8962C8.73011 11.7072 8.86396 11.3841 9.13123 11.3841H10.9273V8.50972C10.9273 8.23358 11.1511 8.00972 11.4273 8.00972H12.1927C12.4689 8.00972 12.6927 8.23358 12.6927 8.50972V11.3841H14.3599Z" fill="#525C69"/>
</svg>
