<svg width="24" height="24" viewBox="0 0 24 24" fill="none" xmlns="http://www.w3.org/2000/svg">
<path fill-rule="evenodd" clip-rule="evenodd" d="M12.8001 12.5821C14.6259 12.2114 16 10.5972 16 8.66211C16 6.45297 14.2091 4.66211 12 4.66211C9.79086 4.66211 8 6.45297 8 8.66211C8 10.5973 9.37427 12.2116 11.2001 12.5821V14.0058L9.22841 14.9916C8.67934 14.3829 7.88436 14.0002 7 14.0002C5.34315 14.0002 4 15.3433 4 17.0002C4 18.6571 5.34315 20.0002 7 20.0002C8.65685 20.0002 10 18.6571 10 17.0002C10 16.8026 9.98089 16.6094 9.94442 16.4225L12.0001 15.3946L14.0556 16.4224C14.0191 16.6093 14 16.8025 14 17.0002C14 18.6571 15.3431 20.0002 17 20.0002C18.6569 20.0002 20 18.6571 20 17.0002C20 15.3433 18.6569 14.0002 17 14.0002C16.1157 14.0002 15.3207 14.3828 14.7717 14.9915L12.8001 14.0058V12.5821Z" fill="#525C69"/>
</svg>
