<svg width="24" height="25" viewBox="0 0 24 25" fill="none" xmlns="http://www.w3.org/2000/svg">
<path fill-rule="evenodd" clip-rule="evenodd" d="M17.8171 8.87711C17.6105 8.87711 17.4295 9.00688 17.3282 9.18697C16.9167 9.91883 16.1328 10.4132 15.2335 10.4132C14.3341 10.4132 13.5502 9.91883 13.1387 9.18697C13.0375 9.00688 12.8564 8.87711 12.6498 8.87711H5.53691C5.15031 8.87711 4.83691 8.56371 4.83691 8.17711V7.8465C4.83691 7.4599 5.15031 7.1465 5.53691 7.1465H12.6498C12.8564 7.1465 13.0375 7.01673 13.1387 6.83664C13.5502 6.10477 14.3341 5.61035 15.2335 5.61035C16.1328 5.61035 16.9168 6.10477 17.3282 6.83664C17.4295 7.01673 17.6105 7.1465 17.8171 7.1465H18.5812C18.9678 7.1465 19.2812 7.4599 19.2812 7.8465V8.17711C19.2812 8.56371 18.9678 8.87711 18.5812 8.87711H17.8171ZM16.2014 8.01182C16.2014 8.54635 15.7681 8.97966 15.2336 8.97966C14.6991 8.97966 14.2658 8.54635 14.2658 8.01182C14.2658 7.4773 14.6991 7.04399 15.2336 7.04399C15.7681 7.04399 16.2014 7.4773 16.2014 8.01182ZM17.8171 19.1273C17.6105 19.1273 17.4295 19.257 17.3282 19.4371C16.9168 20.169 16.1329 20.6634 15.2335 20.6634C14.3341 20.6634 13.5502 20.169 13.1387 19.4371C13.0375 19.257 12.8564 19.1273 12.6499 19.1273H5.53695C5.15035 19.1273 4.83695 18.8139 4.83695 18.4273V18.0966C4.83695 17.71 5.15035 17.3966 5.53695 17.3966H12.6498C12.8564 17.3966 13.0375 17.2669 13.1387 17.0868C13.5502 16.3549 14.3341 15.8605 15.2335 15.8605C16.1329 15.8605 16.9168 16.3549 17.3283 17.0868C17.4295 17.2669 17.6105 17.3966 17.8171 17.3966H18.5813C18.9679 17.3966 19.2813 17.71 19.2813 18.0966V18.4273C19.2813 18.8139 18.9679 19.1273 18.5813 19.1273H17.8171ZM16.199 18.2616C16.199 18.7949 15.7667 19.2272 15.2334 19.2272C14.7001 19.2272 14.2678 18.7949 14.2678 18.2616C14.2678 17.7283 14.7001 17.296 15.2334 17.296C15.7667 17.296 16.199 17.7283 16.199 18.2616ZM9.70459 15.4455C10.604 15.4455 11.3879 14.9511 11.7993 14.2192C11.9006 14.0391 12.0816 13.9093 12.2882 13.9093H18.5812C18.9678 13.9093 19.2812 13.5959 19.2812 13.2093V12.8787C19.2812 12.4921 18.9678 12.1787 18.5812 12.1787H12.2882C12.0816 12.1787 11.9006 12.049 11.7993 11.8689C11.3879 11.137 10.604 10.6426 9.70459 10.6426C8.80521 10.6426 8.0213 11.137 7.60984 11.8689C7.50859 12.049 7.32754 12.1787 7.12094 12.1787H5.53691C5.15031 12.1787 4.83691 12.4921 4.83691 12.8787V13.2093C4.83691 13.5959 5.15031 13.9093 5.53691 13.9093H7.12095C7.32755 13.9093 7.50859 14.0391 7.60984 14.2192C8.02131 14.9511 8.80521 15.4455 9.70459 15.4455ZM9.7045 14.0092C10.2378 14.0092 10.6701 13.5769 10.6701 13.0437C10.6701 12.5104 10.2378 12.0781 9.7045 12.0781C9.17123 12.0781 8.73894 12.5104 8.73894 13.0437C8.73894 13.5769 9.17123 14.0092 9.7045 14.0092Z" fill="#525C69"/>
</svg>
