<svg width="24" height="25" viewBox="0 0 24 25" fill="none" xmlns="http://www.w3.org/2000/svg">
<path fill-rule="evenodd" clip-rule="evenodd" d="M6.49193 17.1512H5.28196C4.71115 17.1512 4.24841 16.6885 4.24841 16.1177C4.24841 15.5468 4.71115 15.0841 5.28196 15.0841H6.49193C6.91758 13.8798 8.06609 13.017 9.41613 13.017C10.7662 13.017 11.9147 13.8798 12.3403 15.0841H18.718C19.2888 15.0841 19.7516 15.5468 19.7516 16.1177C19.7516 16.6885 19.2888 17.1512 18.718 17.1512H12.3403C11.9147 18.3555 10.7662 19.2183 9.41613 19.2183C8.06609 19.2183 6.91758 18.3555 6.49193 17.1512ZM11.6596 9.9164H5.28196C4.71115 9.9164 4.24841 9.45367 4.24841 8.88286C4.24841 8.31204 4.71115 7.84931 5.28196 7.84931H11.6596C12.0853 6.64504 13.2338 5.78223 14.5838 5.78223C15.9339 5.78223 17.0824 6.64504 17.508 7.84931H18.718C19.2888 7.84931 19.7516 8.31204 19.7516 8.88286C19.7516 9.45367 19.2888 9.9164 18.718 9.9164H17.508C17.0824 11.1207 15.9339 11.9835 14.5838 11.9835C13.2338 11.9835 12.0853 11.1207 11.6596 9.9164ZM14.5838 9.9164C15.1547 9.9164 15.6174 9.45367 15.6174 8.88286C15.6174 8.31204 15.1547 7.84931 14.5838 7.84931C14.013 7.84931 13.5503 8.31204 13.5503 8.88286C13.5503 9.45367 14.013 9.9164 14.5838 9.9164ZM9.41613 17.1512C9.98694 17.1512 10.4497 16.6885 10.4497 16.1177C10.4497 15.5468 9.98694 15.0841 9.41613 15.0841C8.84532 15.0841 8.38258 15.5468 8.38258 16.1177C8.38258 16.6885 8.84532 17.1512 9.41613 17.1512Z" fill="#525C69"/>
</svg>
