<svg width="24" height="24" viewBox="0 0 24 24" fill="none" xmlns="http://www.w3.org/2000/svg">
<path fill-rule="evenodd" clip-rule="evenodd" d="M11.7165 4.6377C7.91136 4.6377 4.82666 5.66485 4.82666 6.93191V8.20869L4.82674 8.21964V16.1456L4.82666 16.1565V17.4333C4.82666 18.7004 7.91136 19.7275 11.7165 19.7275C12.2087 19.7275 12.6888 19.7103 13.1517 19.6777C12.4303 18.7609 12 17.6043 12 16.3472C12 13.3703 14.4133 10.957 17.3902 10.957C17.8084 10.957 18.2156 11.0047 18.6065 11.0948V7.24427H18.6064V6.93191C18.6064 5.66485 15.5217 4.6377 11.7165 4.6377ZM11.7764 9.07962C14.3996 9.07962 16.5262 8.35897 16.5262 7.46999C16.5262 6.58101 14.3996 5.86035 11.7764 5.86035C9.15317 5.86035 7.02661 6.58101 7.02661 7.46999C7.02661 8.35897 9.15317 9.07962 11.7764 9.07962ZM16.5452 12.957H18.2227V15.502H20.7681V17.1795H18.2227V19.7252H16.5452V17.1795H14V15.502H16.5452V12.957Z" fill="#525C69"/>
</svg>
