<svg width="24" height="24" viewBox="0 0 24 24" fill="none" xmlns="http://www.w3.org/2000/svg">
<path fill-rule="evenodd" clip-rule="evenodd" d="M13 20C14.2566 19.0537 14.9969 17.573 15 16C15 13.8487 13.5465 14.1338 12.0983 11.2039C12.0453 11.0967 11.9106 11.0551 11.8112 11.1216C10.1706 12.22 9.12837 14.0213 9 16C9.09633 17.5495 9.81822 18.9933 11 20H10.29C7.76154 19.0734 6.05904 16.6923 6 14C6 9.82244 9.80171 5.89297 12.3643 4.34713C12.6342 4.18433 12.9595 4.41121 12.9757 4.72597C13.1609 8.33904 18 9.61639 18 14.75C18 18.627 13.71 20 13.71 20H13Z" fill="#525C69"/>
</svg>
