<svg width="24" height="24" viewBox="0 0 24 24" fill="none" xmlns="http://www.w3.org/2000/svg">
<path d="M3.99854 4.79785V19.1925H6.39765V14.3943H8.92258C9.19328 11.4926 11.438 9.16403 14.3005 8.76484L16.7938 4.79785H3.99854Z" fill="#525C69"/>
<path fill-rule="evenodd" clip-rule="evenodd" d="M15.1758 19.6581C17.7566 19.6581 19.8487 17.5659 19.8487 14.9851C19.8487 12.4043 17.7566 10.3121 15.1758 10.3121C12.5949 10.3121 10.5028 12.4043 10.5028 14.9851C10.5028 17.5659 12.5949 19.6581 15.1758 19.6581ZM17.8859 16.792L16.9824 17.6955L15.1755 15.8886L13.3686 17.6955L12.4652 16.792L14.2721 14.9851L12.4652 13.1782L13.3686 12.2748L15.1755 14.0817L16.9824 12.2748L17.8859 13.1782L16.079 14.9851L17.8859 16.792Z" fill="#525C69"/>
</svg>
