<svg width="24" height="24" viewBox="0 0 24 24" fill="none" xmlns="http://www.w3.org/2000/svg">
<path fill-rule="evenodd" clip-rule="evenodd" d="M3.9834 7.43945C3.9834 6.61103 4.65497 5.93945 5.4834 5.93945H18.4609C19.2894 5.93945 19.9609 6.61103 19.9609 7.43945V16.2958C20.3703 16.4903 20.6533 16.9076 20.6533 17.391C20.6533 18.0603 20.1107 18.6029 19.4414 18.6029H4.50293C3.83361 18.6029 3.29102 18.0603 3.29102 17.391C3.29102 16.9076 3.57403 16.4903 3.9834 16.2958V7.43945ZM8.50522 7.71218C7.32335 7.71218 6.36526 8.67027 6.36526 9.85214C6.36526 11.034 7.32335 11.9921 8.50522 11.9921C9.68708 11.9921 10.6452 11.034 10.6452 9.85214C10.6452 8.67027 9.68708 7.71218 8.50522 7.71218ZM14.1383 11.7736C13.6228 11.7736 13.205 12.1914 13.205 12.7069V14.8676C13.205 15.3831 13.6228 15.801 14.1383 15.801H16.4251C16.9406 15.801 17.3584 15.3831 17.3584 14.8676V12.7069C17.3584 12.1914 16.9406 11.7736 16.4251 11.7736H14.1383ZM12.2785 9.22153C12.2785 8.80675 12.6147 8.4705 13.0295 8.4705H16.6382C17.0529 8.4705 17.3892 8.80675 17.3892 9.22153C17.3892 9.63632 17.0529 9.97256 16.6382 9.97256H13.0295C12.6147 9.97256 12.2785 9.63632 12.2785 9.22153ZM11.1966 13.4153C11.4518 13.1602 11.4518 12.7465 11.1966 12.4914C10.9415 12.2363 10.5278 12.2363 10.2727 12.4914L8.2931 14.4712L7.78253 13.9606C7.52739 13.7055 7.11372 13.7055 6.8586 13.9607C6.60347 14.2158 6.60348 14.6295 6.85863 14.8846L7.83118 15.8571C7.95371 15.9796 8.11989 16.0484 8.29316 16.0484C8.46643 16.0484 8.63261 15.9796 8.75512 15.8571L11.1966 13.4153Z" fill="#95C500"/>
</svg>
