<svg width="24" height="24" viewBox="0 0 24 24" fill="none" xmlns="http://www.w3.org/2000/svg">
<path fill-rule="evenodd" clip-rule="evenodd" d="M3.99365 4.95703H12.9935L14.9937 6.95703H3.99365V4.95703ZM3.99365 7.95703H19.9937V18.957H3.99365V7.95703ZM11.974 9.30957C12.5967 9.30957 12.9509 9.64236 12.9509 10.2543C12.9509 10.8662 12.5967 11.2204 11.974 11.2204C11.3621 11.2204 11.0079 10.8662 11.0079 10.2543C11.0079 9.64236 11.3621 9.30957 11.974 9.30957ZM13.6545 16.119V16.9671H10.595V16.119L11.1425 16.0438C11.2928 16.0224 11.3142 15.9902 11.3142 15.8291V13.4988C11.3142 13.3807 11.282 13.3055 11.1747 13.2733L10.595 13.0694L10.7131 12.1998H12.9352V15.8291C12.9352 16.0009 12.946 16.0224 13.107 16.0438L13.6545 16.119Z" fill="#525C69"/>
</svg>
