<svg width="24" height="24" viewBox="0 0 24 24" fill="none" xmlns="http://www.w3.org/2000/svg">
<path fill-rule="evenodd" clip-rule="evenodd" d="M12.3785 5C12.7763 5 13.1579 5.16291 13.4392 5.45289L14.5956 6.77942H4V6.03094C4 5.46157 4.44771 5 5 5H12.3785ZM19 8C19.5523 8 20 8.46157 20 9.03094V17.7758C20 18.3452 19.5523 18.8068 19 18.8068H5C4.44772 18.8068 4 18.3452 4 17.7758V8H19ZM12.6616 14.5342C13.4883 14.5342 14.1684 13.8608 14.1684 13.0422H15.5289C15.5289 14.6108 14.2373 15.8896 12.6532 15.8896C11.0775 15.8896 9.79439 14.6108 9.79439 13.0422V12.0392H8.17157L10.4936 9.68265L12.8415 12.0392H11.1548V13.0422C11.1548 13.8691 11.8349 14.5342 12.6616 14.5342Z" fill="#525C69"/>
</svg>
