<svg width="24" height="24" viewBox="0 0 24 24" fill="none" xmlns="http://www.w3.org/2000/svg">
<path fill-rule="evenodd" clip-rule="evenodd" d="M12.3785 5C12.7763 5 13.1579 5.16291 13.4392 5.45289L14.5956 6.77942H4V6.03094C4 5.46157 4.44771 5 5 5H12.3785ZM19 8C19.5523 8 20 8.46157 20 9.03094V17.7758C20 18.3452 19.5523 18.8068 19 18.8068H5C4.44772 18.8068 4 18.3452 4 17.7758V8H19ZM11.9186 16.0273H7.36164C7.50663 14.2484 8.58814 13.4638 9.40829 12.8688C9.93119 12.4895 10.3479 12.1873 10.3479 11.7535C10.3479 11.2695 9.9369 11.1051 9.51683 11.1051C8.89584 11.1051 8.4027 11.306 7.90957 11.5252L7.56255 10.4567C8.11961 10.2102 8.85018 9.94533 9.75426 9.94533C11.1423 9.94533 11.809 10.6211 11.809 11.5982C11.809 12.5703 11.0122 13.1733 10.2876 13.7217C9.80047 14.0904 9.34594 14.4344 9.18807 14.8493H11.9186V16.0273ZM14.5963 14.6393H11.9023V13.7626L14.9524 9.96359H15.957V13.516H16.8519V14.6393H15.957V16.0273H14.5963V14.6393ZM14.6511 12.0092L13.4548 13.5525C13.5369 13.5434 14.0118 13.516 14.2219 13.516H14.5963V13.0685C14.5963 12.621 14.6419 12.0823 14.6511 12.0092Z" fill="#525C69"/>
</svg>
