<svg width="24" height="24" viewBox="0 0 24 24" fill="none" xmlns="http://www.w3.org/2000/svg">
<path fill-rule="evenodd" clip-rule="evenodd" d="M18.4934 4.811C17.3526 4.42522 9.96214 3 9.96214 3L9.3851 4.34344L18.3267 5.93765C19.2472 5.93765 19.9934 6.75846 19.9934 7.77098V6.64433C19.9934 5.63181 19.2996 5.08363 18.4934 4.811ZM7.42152 5.72173C7.42152 5.72173 17.2961 6.51896 18.4369 6.90473C19.2431 7.17736 19.9369 7.72554 19.9369 8.73807V9.86472C19.9369 8.8522 19.1907 8.03138 18.2703 8.03138H6.87951L7.42152 5.72173ZM5 10.2432C5 9.69088 5.44772 9.24316 6 9.24316H18.9384C19.4907 9.24316 19.9384 9.69088 19.9384 10.2432V17.2952C19.9384 17.8475 19.4907 18.2952 18.9384 18.2952H6C5.44771 18.2952 5 17.8475 5 17.2952V10.2432Z" fill="#525C69"/>
</svg>
