<svg width="24" height="24" viewBox="0 0 24 24" fill="none" xmlns="http://www.w3.org/2000/svg">
<path fill-rule="evenodd" clip-rule="evenodd" d="M19 5C19.5523 5 20 5.44772 20 6V6.63935C20 6.87244 19.9186 7.0982 19.7698 7.27763L14 14.2363L13.6068 18.7691C13.5518 19.4029 12.9268 19.8249 12.3184 19.6391L11.6367 19.4308C11.251 19.313 10.9739 18.9751 10.9338 18.5739L10.5 14.2363L4.25606 7.28506C4.0912 7.10153 4 6.86353 4 6.61682V6C4 5.44772 4.44772 5 5 5H19ZM7.07342 6.99224C6.98685 6.99224 6.94118 7.09479 6.99909 7.15914L10.9731 11.5747C11.0478 11.6577 11.1817 11.5743 11.1402 11.4706L9.37403 7.0551C9.35884 7.01714 9.32207 6.99224 9.28118 6.99224H7.07342Z" fill="#525C69"/>
</svg>
