<svg width="24" height="24" viewBox="0 0 24 24" fill="none" xmlns="http://www.w3.org/2000/svg">
<path fill-rule="evenodd" clip-rule="evenodd" d="M6.09894 20.5998H11.1364V15.5623H6.09894V20.5998ZM4 13.4638H11.1364V10.3154H4V13.4638ZM13.4453 10.3154V13.4638H20.5817V10.3154H13.4453ZM13.4452 20.5998H18.4827V15.5623H13.4452V20.5998ZM16.3837 9.2655C18.1678 9.2655 19.6371 7.79624 19.6371 6.01214C19.6371 4.22805 18.1678 2.75879 16.3837 2.75879C14.5996 2.75879 13.1304 4.22805 13.1304 6.01214C13.1304 6.53688 13.1304 7.4814 13.1304 8.11108H11.5562C11.5562 7.4814 11.5562 6.64183 11.5562 6.22204C11.5562 4.43794 10.0869 2.96868 8.30282 2.96868C6.51873 2.96868 5.04947 4.43794 5.04947 6.22204C5.04947 8.00614 6.51873 9.47539 8.30282 9.47539C9.03745 9.47539 10.8216 9.47539 10.8216 9.47539H11.0314V10.315H13.2353V9.2655H13.6551C13.7601 9.2655 15.6491 9.2655 16.3837 9.2655ZM14.4947 6.01213C14.4947 4.96266 15.3343 4.12309 16.3837 4.12309C17.4332 4.12309 18.2728 4.96266 18.2728 6.01213C18.2728 7.0616 17.4332 7.90118 16.3837 7.90118C15.964 7.90118 15.1244 7.90118 14.4947 7.90118C14.4947 7.37644 14.4947 6.53687 14.4947 6.01213ZM8.30288 8.11108C7.25341 8.11108 6.41383 7.27151 6.41383 6.22204C6.41383 5.17257 7.25341 4.33299 8.30288 4.33299C9.35234 4.33299 10.1919 5.17257 10.1919 6.22204C10.1919 6.64183 10.1919 7.4814 10.1919 8.11108C9.56224 8.11108 8.72266 8.11108 8.30288 8.11108Z" fill="#525C69"/>
</svg>
