<svg width="24" height="24" viewBox="0 0 24 24" fill="none" xmlns="http://www.w3.org/2000/svg">
<path fill-rule="evenodd" clip-rule="evenodd" d="M17.55 11.368L17.5501 16.4151L17.5441 16.4151C17.5481 16.4542 17.5501 16.4935 17.5501 16.5331C17.5501 17.9185 15.0814 19.0416 12.036 19.0416C8.99061 19.0416 6.52183 17.9185 6.52183 16.5331C6.52183 16.4935 6.52386 16.4542 6.52784 16.4151L6.52183 16.4151L6.52181 11.368L11.6455 13.2986C11.7745 13.2945 11.9047 13.2924 12.036 13.2924C12.1673 13.2924 12.2975 13.2945 12.4264 13.2986L17.55 11.368ZM12.0495 4.70461L21.7178 8.34788C21.7376 8.35535 21.7476 8.37748 21.7402 8.39731C21.7363 8.40764 21.7281 8.4158 21.7178 8.41969L19.9315 9.09256L19.9317 12.0969C20.325 12.3745 20.6024 12.9931 20.6163 13.7174L20.6169 13.7745C20.6169 14.7506 20.1384 14.7553 19.5349 14.7544H19.3972C18.7936 14.7553 18.3152 14.7506 18.3152 13.7745C18.3152 13.0256 18.5968 12.3816 19.0005 12.0967L19.0005 9.44346L12.0495 12.063C12.0408 12.0662 12.0312 12.0662 12.0225 12.063L2.3542 8.41969C2.33437 8.41222 2.32435 8.39009 2.33182 8.37026C2.33571 8.35993 2.34387 8.35177 2.3542 8.34788L12.0225 4.70461C12.0312 4.70133 12.0408 4.70133 12.0495 4.70461Z" fill="#525C69"/>
</svg>
