<svg width="24" height="24" viewBox="0 0 24 24" fill="none" xmlns="http://www.w3.org/2000/svg">
<path fill-rule="evenodd" clip-rule="evenodd" d="M11 6C10.4477 6 10 6.44772 10 7V18C10 18.5523 10.4477 19 11 19H12C12.5523 19 13 18.5523 13 18V7C13 6.44772 12.5523 6 12 6H11ZM15 11C15 10.4477 15.4477 10 16 10H17C17.5523 10 18 10.4477 18 11V18C18 18.5523 17.5523 19 17 19H16C15.4477 19 15 18.5523 15 18V11ZM5 15C5 14.4477 5.44772 14 6 14H7C7.55228 14 8 14.4477 8 15V18C8 18.5523 7.55228 19 7 19H6C5.44772 19 5 18.5523 5 18V15Z" fill="#525C69"/>
</svg>
