<svg width="24" height="24" viewBox="0 0 24 24" fill="none" xmlns="http://www.w3.org/2000/svg">
<path d="M11.566 3.80769C11.8954 3.61749 12.3013 3.61749 12.6308 3.80769L15.0735 5.21799C15.4029 5.4082 15.6059 5.75972 15.6059 6.14013V8.96073C15.6059 9.34114 15.4029 9.69265 15.0735 9.88286L12.6308 11.2932C12.3013 11.4834 11.8954 11.4834 11.566 11.2932L9.12329 9.88286C8.79384 9.69265 8.5909 9.34114 8.5909 8.96073V6.14013C8.5909 5.75971 8.79384 5.4082 9.12329 5.21799L11.566 3.80769Z" fill="#525C69"/>
<path d="M7.2566 11.2941C7.58605 11.1039 7.99194 11.1039 8.32139 11.2941L10.7641 12.7044C11.0935 12.8946 11.2965 13.2461 11.2965 13.6265V16.4471C11.2965 16.8276 11.0935 17.1791 10.7641 17.3693L8.32139 18.7796C7.99194 18.9698 7.58605 18.9698 7.2566 18.7796L4.81389 17.3693C4.48444 17.1791 4.28149 16.8276 4.28149 16.4471V13.6265C4.28149 13.2461 4.48444 12.8946 4.81389 12.7044L7.2566 11.2941Z" fill="#525C69"/>
<path d="M17.1416 11.2941C16.8122 11.1039 16.4063 11.1039 16.0768 11.2941L13.6341 12.7044C13.3047 12.8946 13.1017 13.2461 13.1017 13.6265V16.4471C13.1017 16.8276 13.3047 17.1791 13.6341 17.3693L16.0768 18.7796C16.4063 18.9698 16.8122 18.9698 17.1416 18.7796L19.5843 17.3693C19.9138 17.1791 20.1167 16.8276 20.1167 16.4471V13.6265C20.1167 13.2461 19.9138 12.8946 19.5843 12.7044L17.1416 11.2941Z" fill="#525C69"/>
</svg>
