<svg width="24" height="24" viewBox="0 0 24 24" fill="none" xmlns="http://www.w3.org/2000/svg">
<path d="M6.79077 11.8192H7.24155C8.21345 11.8192 9.00133 12.607 9.00133 13.5789V17.7584C9.00133 18.7303 8.21345 19.5182 7.24155 19.5182H5.84072C4.86881 19.5182 4.08093 18.7303 4.08093 17.7584V13.5789C4.08093 13.5404 4.08217 13.5021 4.08462 13.4641L4.08462 12.4552C4.0846 12.3731 4.0883 10.5793 5.0659 8.76081C5.56603 7.8305 6.33164 6.87452 7.49112 6.15597C8.65435 5.43509 10.1387 5 12 5C13.8612 5 15.3456 5.43509 16.5088 6.15597C17.6683 6.87453 18.4339 7.83051 18.9341 8.76082C19.9117 10.5793 19.9153 12.3731 19.9153 12.4551L19.9153 13.4643C19.9178 13.5022 19.919 13.5404 19.919 13.5789V17.7584C19.919 18.7303 19.1311 19.5182 18.1592 19.5182H16.7916C15.8197 19.5182 15.0318 18.7303 15.0318 17.7584V13.5789C15.0318 12.607 15.8197 11.8192 16.7916 11.8192H17.2092C17.1323 11.348 16.9665 10.6757 16.6091 10.0107C16.2849 9.40781 15.814 8.83082 15.1183 8.39972C14.4264 7.97094 13.4372 7.63968 12 7.63968C10.5628 7.63968 9.5735 7.97094 8.88162 8.39971C8.18599 8.83081 7.71502 9.4078 7.39089 10.0107C7.03341 10.6757 6.86764 11.348 6.79077 11.8192Z" fill="#525C69"/>
</svg>
