<svg width="24" height="24" viewBox="0 0 24 24" fill="none" xmlns="http://www.w3.org/2000/svg">
<path fill-rule="evenodd" clip-rule="evenodd" d="M6.3061 6.47484C5.02363 7.15793 4.02386 8.44326 4.00084 9.84628C3.99577 10.1625 4.0145 10.4777 4.034 10.7939C4.05663 11.1669 4.13617 11.3963 4.31604 11.9359C4.4959 12.4755 5.01192 13.341 5.49143 13.9632C5.84102 14.4156 6.23626 14.8264 6.65217 15.2204C7.28736 15.8216 12.0286 19.4194 12.0286 19.4194C12.0286 19.4194 16.9279 15.6236 17.4784 15.092C17.9178 14.6647 18.3325 14.2165 18.686 13.7171C19.2096 12.9742 19.7821 12.1529 19.9117 11.26C19.9577 10.9408 19.9827 10.6204 19.9944 10.2986C20.0123 9.82786 19.9917 9.35865 19.8672 8.9007C19.5933 7.89679 18.7566 7.1129 17.855 6.56847C17.352 6.26454 16.8035 6.09057 16.2174 6.02712C15.8491 5.98721 15.4808 5.99028 15.1144 6.04759C14.4059 6.15862 13.7727 6.44055 13.2081 6.87548C12.7313 7.24031 12.3439 7.68393 12.0279 8.18947C12.0185 8.20328 12.0099 8.2171 12.0005 8.2304C11.9471 8.1557 11.9034 8.0856 11.8566 8.01703C11.3989 7.34674 10.8215 6.80538 10.0876 6.4339C9.64473 6.20979 9.17458 6.07163 8.67946 6.02098C8.53862 6.00665 8.39816 6 8.2577 6C8.07198 6 7.88665 6.01177 7.70132 6.03582C7.20855 6.09875 6.7423 6.24254 6.3061 6.47484Z" fill="#525C69"/>
</svg>
