<svg width="24" height="24" viewBox="0 0 24 24" fill="none" xmlns="http://www.w3.org/2000/svg">
	<path fill-rule="evenodd" clip-rule="evenodd" d="M20 12C20 16.4183 16.4183 20 12 20C7.58172 20 4 16.4183 4 12C4 7.58172 7.58172 4 12 4C16.4183 4 20 7.58172 20 12ZM10.9929 14.6289V16.4358H12.8351V14.6289H10.9929ZM10.8286 10.7573H9.10378C9.1116 10.3349 9.18395 9.94771 9.32084 9.59571C9.45773 9.24371 9.64937 8.93865 9.89578 8.68051C10.1422 8.42238 10.4394 8.22096 10.7875 8.07625C11.1356 7.93153 11.5248 7.85918 11.955 7.85918C12.5104 7.85918 12.9738 7.93545 13.3454 8.08798C13.7169 8.24051 14.0161 8.4302 14.243 8.65705C14.4698 8.88389 14.6321 9.12833 14.7299 9.39038C14.8277 9.65243 14.8766 9.89687 14.8766 10.1237C14.8766 10.4992 14.8277 10.8082 14.7299 11.0506C14.6321 11.2931 14.5109 11.5004 14.3662 11.6725C14.2215 11.8446 14.0611 11.9913 13.8851 12.1125C13.7091 12.2338 13.5429 12.355 13.3864 12.4762C13.23 12.5975 13.0912 12.7363 12.9699 12.8928C12.8487 13.0492 12.7724 13.2448 12.7411 13.4794V13.9253H11.1571V13.3973C11.1806 13.061 11.2451 12.7794 11.3507 12.5525C11.4563 12.3257 11.5795 12.1321 11.7203 11.9717C11.8611 11.8114 12.0097 11.6725 12.1662 11.5552C12.3226 11.4378 12.4673 11.3205 12.6003 11.2032C12.7333 11.0858 12.8408 10.9568 12.923 10.816C13.0051 10.6752 13.0423 10.4992 13.0344 10.288C13.0344 9.92816 12.9464 9.6622 12.7704 9.49011C12.5944 9.31802 12.35 9.23198 12.0371 9.23198C11.8259 9.23198 11.644 9.27305 11.4915 9.35518C11.339 9.43731 11.2138 9.54682 11.116 9.68371C11.0183 9.8206 10.9459 9.98096 10.899 10.1648C10.852 10.3486 10.8286 10.5461 10.8286 10.7573Z" fill="#525C69"/>
</svg>
