<svg width="24" height="24" viewBox="0 0 24 24" fill="none" xmlns="http://www.w3.org/2000/svg">
<path fill-rule="evenodd" clip-rule="evenodd" d="M9.61464 18.9997C9.78043 18.9998 9.91489 18.8654 9.91489 18.6997V12.9902H14.0319V18.7C14.0319 18.8657 14.1662 19 14.3318 19L17.5831 19.0014C17.7488 19.0014 17.8832 18.8671 17.8832 18.7014V12.1022C17.8832 12.0816 17.8808 12.0584 17.8808 12.0377H19.1349C19.3743 12.0377 19.5793 11.9275 19.7149 11.7246C19.8481 11.5241 19.8727 11.2893 19.7849 11.0619C19.6744 10.7763 12.6912 4.27312 12.6563 4.24641C12.2309 3.92081 11.7377 3.91789 11.3128 4.23763C11.2741 4.26676 4.28355 10.7763 4.17305 11.0619C4.08527 11.2874 4.11228 11.5248 4.24303 11.7246C4.37869 11.925 4.58125 12.0377 4.82066 12.0377H6.0772C6.07475 12.0584 6.07475 12.0816 6.07475 12.1022V18.6969C6.07475 18.8625 6.20891 18.9968 6.37449 18.9969L9.61464 18.9997Z" fill="#525C69"/>
</svg>
