<svg width="24" height="24" viewBox="0 0 24 24" fill="none" xmlns="http://www.w3.org/2000/svg">
<path fill-rule="evenodd" clip-rule="evenodd" d="M7.4367 17.7595L7.43686 15.1237C7.43894 14.9495 7.69606 14.6113 7.83124 14.4974L10.6156 12.0003L7.83124 9.50999C7.69398 9.39477 7.43686 8.831 7.43686 8.65477V6.241H6.89265C6.79414 6.241 6.71427 6.16331 6.71427 6.06748V5.19989C6.71427 5.10405 6.79414 5.02637 6.89265 5.02637H16.2437C16.3423 5.02637 16.4221 5.10405 16.4221 5.19989V6.06748C16.4221 6.16331 16.3423 6.241 16.2437 6.241H15.6995V8.65477C15.6974 8.82897 15.4396 9.39003 15.3037 9.50322L12.5206 12.0003L15.305 14.4919C15.4416 14.6071 15.6987 14.9474 15.6994 15.1236V17.7595H16.2436C16.3421 17.7595 16.422 17.8372 16.422 17.933V18.8006C16.422 18.8965 16.3421 18.9742 16.2436 18.9742H6.89249C6.79398 18.9742 6.71411 18.8965 6.71411 18.8006V17.933C6.71411 17.8372 6.79398 17.7595 6.89249 17.7595H7.4367Z" fill="#525C69"/>
</svg>
