<svg width="24" height="24" viewBox="0 0 24 24" fill="none" xmlns="http://www.w3.org/2000/svg">
<path fill-rule="evenodd" clip-rule="evenodd" d="M18.7 7.98271C19.418 7.98271 20 8.56565 20 9.28475V17.6979C20 18.417 19.418 19 18.7 19H5.3C4.58203 19 4 18.417 4 17.6979V9.28475C4 8.56565 4.58203 7.98271 5.3 7.98271H18.7ZM8.74128 10.2982C7.97935 10.1777 8.15284 11.6583 8.15284 11.6583L8.31817 12.041C8.02309 12.2041 8.18263 12.3987 8.22235 12.6211L8.2301 12.6887C8.24604 13.058 8.51027 12.9814 8.51027 12.9814C8.52659 13.5909 8.87833 13.671 8.87833 13.671L8.90637 13.851C8.92975 14.0303 8.90339 13.9887 8.90339 13.9887L8.58999 14.0211C8.59422 14.1079 8.58594 14.195 8.56532 14.2801C8.19612 14.4203 8.11753 14.5026 7.75156 14.6394L7.42328 14.7673C6.82265 15.0127 6.25422 15.3195 6.1381 15.7114L5.59692 17.6046H13.8761C13.8765 17.1228 13.2432 15.4857 13.2432 15.4857C13.2432 15.1878 12.7877 14.8476 11.8889 14.6494C11.5846 14.577 11.2953 14.4646 11.0314 14.3164C10.9745 14.2882 10.9825 14.0282 10.9825 14.0282L10.693 13.9898L10.6683 13.6568C11.0146 13.5575 10.9789 12.9719 10.9789 12.9719C11.1327 13.045 11.249 12.8402 11.305 12.7107L11.3418 12.6135C11.6019 11.9698 11.2123 12.0086 11.2123 12.0086C11.2805 11.6155 11.2805 11.216 11.2123 10.823C11.0392 9.5189 8.43225 9.87285 8.74128 10.2982ZM17.5 12.9075H14.5C14.2545 12.9075 14.0504 13.0847 14.0081 13.3183L14 13.4083V14.1362C14 14.3821 14.1769 14.5866 14.4101 14.629L14.5 14.637H17.5C17.7455 14.637 17.9496 14.4599 17.9919 14.2263L18 14.1362V13.4083C18 13.1317 17.7761 12.9075 17.5 12.9075ZM17.5 9.98661H14.5C14.2545 9.98661 14.0504 10.1638 14.0081 10.3974L14 10.4874V11.2153C14 11.4612 14.1769 11.6657 14.4101 11.7081L14.5 11.7161H17.5C17.7455 11.7161 17.9496 11.539 17.9919 11.3054L18 11.2153V10.4874C18 10.2108 17.7761 9.98661 17.5 9.98661ZM17.7474 6C18.3616 6 18.8764 6.42665 19.0123 7.00019H4.98755C5.12348 6.42665 5.63821 6 6.25244 6H17.7474Z" fill="#525C69"/>
</svg>
