<svg width="24" height="24" viewBox="0 0 24 24" fill="none" xmlns="http://www.w3.org/2000/svg">
	<path fill-rule="evenodd" clip-rule="evenodd" d="M12.76 2.41944C12.76 2.0934 12.3538 1.8291 11.8526 1.8291C11.3515 1.8291 10.9453 2.0934 10.9453 2.41944V3.89528C10.9453 4.22131 11.3515 4.48561 11.8526 4.48561C12.3538 4.48561 12.76 4.22131 12.76 3.89528V2.41944ZM18.1478 11.7715C18.1478 13.3779 16.9669 14.8419 15.967 15.9453C15.6113 16.3379 15.5913 16.7402 15.573 17.1078C15.5329 17.916 15.5011 18.5564 11.9301 18.5564C8.34196 18.5564 8.29302 17.9098 8.23144 17.0962C8.20385 16.7317 8.17373 16.3337 7.82178 15.9453C6.82187 14.8419 5.71237 13.3779 5.71237 11.7715C5.71237 8.33757 8.49614 5.5538 11.9301 5.5538C15.364 5.5538 18.1478 8.33757 18.1478 11.7715ZM9.21185 20.3279C9.21185 19.6808 9.73646 19.1562 10.3836 19.1562H13.2835C13.9306 19.1562 14.4552 19.6808 14.4552 20.3279C14.4552 20.9751 13.9306 21.4997 13.2835 21.4997H10.3836C9.73646 21.4997 9.21185 20.9751 9.21185 20.3279ZM18.3213 3.68857C18.7033 4.01295 18.8407 4.4787 18.6282 4.72885L17.6666 5.8612C17.4542 6.11135 16.9723 6.05117 16.5903 5.72679C16.2084 5.40242 16.071 4.93667 16.2834 4.68652L17.245 3.55417C17.4575 3.30402 17.9393 3.36419 18.3213 3.68857ZM4.83616 4.73815C4.63908 4.47807 4.80309 4.02189 5.20248 3.71923C5.60188 3.41658 6.08542 3.38206 6.2825 3.64214L7.17462 4.81942C7.3717 5.0795 7.20769 5.53568 6.8083 5.83834C6.4089 6.14099 5.92536 6.17551 5.72828 5.91543L4.83616 4.73815ZM2.17673 9.4099C2.03896 9.89171 2.18217 10.3552 2.49659 10.4451L3.91986 10.852C4.23428 10.942 4.60085 10.6243 4.73862 10.1425C4.87639 9.66065 4.73318 9.19718 4.41876 9.10728L2.99549 8.7003C2.68107 8.6104 2.3145 8.92809 2.17673 9.4099ZM21.3552 10.1195C21.6695 10.0296 21.8126 9.56617 21.6748 9.08437C21.5371 8.60256 21.1706 8.28484 20.8563 8.37471L19.4336 8.78152C19.1193 8.87139 18.9762 9.33483 19.1139 9.81663C19.2517 10.2984 19.6182 10.6162 19.9325 10.5263L21.3552 10.1195Z" fill="#8DBB00"/>
</svg>