<svg width="24" height="24" viewBox="0 0 24 24" fill="none" xmlns="http://www.w3.org/2000/svg">
	<path d="M13.3287 9.87941C13.3287 10.6133 12.7338 11.2081 12 11.2081C11.2662 11.2081 10.6713 10.6133 10.6713 9.87941C10.6713 9.14557 11.2662 8.55068 12 8.55068C12.7338 8.55068 13.3287 9.14557 13.3287 9.87941Z" fill="#8DBB00"/>
	<path d="M13.3287 14.1537C13.3287 14.8875 12.7338 15.4824 12 15.4824C11.2662 15.4824 10.6713 14.8875 10.6713 14.1537C10.6713 13.4198 11.2662 12.8249 12 12.8249C12.7338 12.8249 13.3287 13.4198 13.3287 14.1537Z" fill="#8DBB00"/>
	<path fill-rule="evenodd" clip-rule="evenodd" d="M5 7C5 5.89543 5.89543 5 7 5H17C18.1046 5 19 5.89543 19 7V17C19 18.1046 18.1046 19 17 19H7C5.89543 19 5 18.1046 5 17V7ZM7 7H17V17H7L7 7Z" fill="#8DBB00"/>
</svg>