<svg width="24" height="24" viewBox="0 0 24 24" fill="none" xmlns="http://www.w3.org/2000/svg">
<path fill-rule="evenodd" clip-rule="evenodd" d="M8.28251 4.86623C10.5414 3.70718 13.243 3.71128 15.4988 4.87851L12.8741 7.50322C12.2293 7.35715 11.5585 7.35495 10.913 7.49663L8.28251 4.86623ZM4.98921 6.84254L8.17402 10.0274C8.36816 9.63897 8.62717 9.27476 8.95107 8.95086C9.27495 8.62699 9.63913 8.36799 10.0275 8.17386L6.84269 4.98908C6.49401 5.24462 6.16035 5.52996 5.8452 5.84511C5.53007 6.16024 5.24474 6.49388 4.98921 6.84254ZM18.7602 6.83117C18.5068 6.48663 18.2242 6.15681 17.9125 5.84511C17.6007 5.53331 17.2708 5.2507 16.9262 4.99725L13.7431 8.18037C14.1265 8.37376 14.4862 8.63059 14.8065 8.95086C15.1268 9.27114 15.3836 9.63084 15.577 10.0143L18.7602 6.83117ZM15.5835 13.7295C15.3894 14.1178 15.1304 14.482 14.8065 14.8058C14.4826 15.1297 14.1184 15.3888 13.73 15.5829L16.9151 18.768C17.2637 18.5125 17.5974 18.2271 17.9125 17.912C18.2277 17.5969 18.513 17.2632 18.7686 16.9145L15.5835 13.7295ZM10.0145 15.5772L6.83123 18.7604C6.48668 18.5071 6.15686 18.2245 5.84516 17.9128C5.53337 17.601 5.25075 17.2711 4.99731 16.9264L8.18054 13.7432C8.37393 14.1267 8.63076 14.4864 8.95103 14.8066C9.27131 15.1269 9.63101 15.3838 10.0145 15.5772ZM16.2534 10.8844L18.879 8.25877C20.0462 10.5145 20.0503 13.2161 18.8912 15.4749L16.2595 12.8432C16.401 12.1984 16.399 11.5284 16.2534 10.8844ZM12.8425 16.2586C12.1983 16.3997 11.5291 16.3975 10.8857 16.2521L8.25876 18.879C10.5146 20.0462 13.2162 20.0502 15.4751 18.8911L12.8425 16.2586ZM7.49749 10.9136C7.35626 11.5586 7.3586 12.2286 7.50452 12.8727L4.87851 15.4987C3.71125 13.243 3.70718 10.5413 4.86629 8.2824L7.49749 10.9136Z" fill="#525C69"/>
</svg>
