<svg width="24" height="24" viewBox="0 0 24 24" fill="none" xmlns="http://www.w3.org/2000/svg">
<path fill-rule="evenodd" clip-rule="evenodd" d="M17.986 9.96079C18.3011 10.2758 18.0779 10.8144 17.6325 10.8144L13.6827 10.8143C13.4066 10.8144 13.1827 10.5905 13.1828 10.3144L13.1827 6.36462C13.1827 5.91918 13.7213 5.69605 14.0363 6.01111L15.3041 7.27884L18.6074 3.97554C18.8026 3.78029 19.1192 3.78029 19.3145 3.97554L20.0216 4.68264C20.2168 4.87789 20.2168 5.1945 20.0216 5.38975L16.7183 8.69305L17.986 9.96079ZM18.6799 15.4117L16.723 13.9454C16.0281 13.4233 14.9965 13.6747 14.4893 14.3914L13.9092 15.2138C13.7843 15.3841 13.5272 15.4375 13.3482 15.3342C11.553 14.1631 10.018 12.5289 8.9556 10.6641C8.85431 10.471 8.9069 10.219 9.09568 10.0988L9.91721 9.55046C10.6526 9.05964 10.9554 8.05859 10.476 7.32386L9.10743 5.32228C8.69267 4.70583 7.82454 4.62209 7.2796 5.12821C5.23371 7.08339 4.3412 10.4798 8.82895 15.2244C13.3166 19.969 16.7255 19.21 18.7714 17.2548C19.317 16.7485 19.2711 15.8608 18.6799 15.4117Z" fill="#525C69"/>
</svg>
