<svg width="24" height="24" viewBox="0 0 24 24" fill="none" xmlns="http://www.w3.org/2000/svg">
<path fill-rule="evenodd" clip-rule="evenodd" d="M11.9352 20.0003C16.3177 20.0003 19.8704 16.4476 19.8704 12.0651C19.8704 7.68259 16.3177 4.12988 11.9352 4.12988C7.55271 4.12988 4 7.68259 4 12.0651C4 16.4476 7.55271 20.0003 11.9352 20.0003ZM13.1086 11.1855H11.0535V11.1863H10.1718V12.0265H11.0535V15.5918H10.1718V16.4735H11.0535V16.4732H12.8169V16.4735H13.6986V15.5918H13.1086V11.1855ZM13.1754 8.54992C13.1754 9.23486 12.6201 9.79012 11.9352 9.79012C11.2503 9.79012 10.695 9.23486 10.695 8.54992C10.695 7.86498 11.2503 7.30972 11.9352 7.30972C12.6201 7.30972 13.1754 7.86498 13.1754 8.54992Z" fill="#525C69"/>
</svg>
