<svg width="24" height="24" viewBox="0 0 24 24" fill="none" xmlns="http://www.w3.org/2000/svg">
	<path fill-rule="evenodd" clip-rule="evenodd" d="M11.9352 20.0003C12.5636 20.0003 13.1749 19.9272 13.7611 19.7892C13.297 19.0304 13.0294 18.1383 13.0294 17.1837C13.0294 16.9426 13.0465 16.7055 13.0795 16.4735H12.8169V16.4732H11.0535V16.4735H10.1718V15.5918H11.0535V12.0265H10.1718V11.1863H11.0535V11.1855H13.1086V15.5918H13.2882C13.953 13.6109 15.8246 12.1837 18.0294 12.1837C18.6745 12.1837 19.291 12.3058 19.8571 12.5282C19.8659 12.375 19.8704 12.2206 19.8704 12.0651C19.8704 7.68259 16.3177 4.12988 11.9352 4.12988C7.55271 4.12988 4 7.68259 4 12.0651C4 16.4476 7.55271 20.0003 11.9352 20.0003ZM13.1754 8.54992C13.1754 9.23486 12.6201 9.79012 11.9352 9.79012C11.2503 9.79012 10.695 9.23486 10.695 8.54992C10.695 7.86498 11.2503 7.30972 11.9352 7.30972C12.6201 7.30972 13.1754 7.86498 13.1754 8.54992ZM17.0315 14.1759C17.0315 13.8997 17.2554 13.6759 17.5315 13.6759H18.5315C18.8077 13.6759 19.0315 13.8997 19.0315 14.1759V16.2169H21.0323C21.3084 16.2169 21.5323 16.4407 21.5323 16.7169V17.7169C21.5323 17.993 21.3084 18.2169 21.0323 18.2169H19.0315V20.2579C19.0315 20.534 18.8077 20.7579 18.5315 20.7579H17.5315C17.2554 20.7579 17.0315 20.534 17.0315 20.2579V18.2169H15.0308C14.7546 18.2169 14.5308 17.993 14.5308 17.7169V16.7169C14.5308 16.4407 14.7546 16.2169 15.0308 16.2169H17.0315V14.1759Z" fill="#8DBB00"/>
</svg>