<svg width="24" height="24" viewBox="0 0 24 24" fill="none" xmlns="http://www.w3.org/2000/svg">
<path fill-rule="evenodd" clip-rule="evenodd" d="M19.3992 11.6996C19.3992 15.9519 15.9519 19.3992 11.6996 19.3992C7.44722 19.3992 4 15.9519 4 11.6996C4 7.44722 7.44722 4 11.6996 4C15.9519 4 19.3992 7.44722 19.3992 11.6996ZM17.57 11.6996C17.57 14.9417 14.9417 17.57 11.6996 17.57C8.45744 17.57 5.82916 14.9417 5.82916 11.6996C5.82916 8.45744 8.45744 5.82916 11.6996 5.82916C14.9417 5.82916 17.57 8.45744 17.57 11.6996ZM12.7851 8.41256C12.7851 9.08698 12.2383 9.63371 11.5639 9.63371C10.8895 9.63371 10.3428 9.08698 10.3428 8.41256C10.3428 7.73814 10.8895 7.19141 11.5639 7.19141C12.2383 7.19141 12.7851 7.73814 12.7851 8.41256ZM10.677 10.672H12.7666V15.0098H13.3448V15.8779H12.7666V15.8785H10.4547V15.8779H9.80884V15.0098H10.4547V11.4993H9.80884V10.672H10.4547H10.677Z" fill="#525C69"/>
</svg>
