<svg width="24" height="24" viewBox="0 0 24 24" fill="none" xmlns="http://www.w3.org/2000/svg">
<path fill-rule="evenodd" clip-rule="evenodd" d="M16.3684 13.4415L17.6684 14.7415C18.4733 15.5465 18.4738 16.8638 17.6689 17.6687C16.864 18.4736 15.5462 18.4736 14.7412 17.6687L13.4412 16.3687C12.8671 15.7945 12.7111 14.9624 12.9555 14.2386L13.3564 14.6395C13.7092 14.9922 14.2869 14.9933 14.6402 14.64C14.9935 14.2867 14.993 13.7084 14.6402 13.3557L14.2393 12.9548C14.9626 12.7109 15.7942 12.8674 16.3684 13.4415ZM7.15249 10.08L5.85246 8.77993C5.04753 7.975 5.04806 6.6577 5.85298 5.85277C6.65791 5.04784 7.97469 5.04784 8.77962 5.85277L10.0796 7.1528C10.6538 7.72693 10.8108 8.55907 10.5664 9.28183L9.92944 8.6449C9.57618 8.29163 8.99838 8.29163 8.64512 8.6449C8.29185 8.99817 8.29237 9.57544 8.64564 9.92871L9.28257 10.5656C8.55928 10.8106 7.72662 10.6541 7.15249 10.08ZM11.3158 6.082L9.85042 4.61659C8.41117 3.17735 6.05605 3.17735 4.61681 4.61659C3.17756 6.05584 3.17756 8.41096 4.61681 9.8502L6.08222 11.3156C7.29903 12.5324 9.16429 12.7083 10.5847 11.8678L11.6539 12.937C10.8129 14.3569 10.9893 16.2226 12.2055 17.4389L13.6715 18.9049C15.1107 20.3441 17.4658 20.3441 18.9051 18.9049C20.3443 17.4656 20.3443 15.1105 18.9051 13.6713L17.4392 12.2053C16.2229 10.989 14.3571 10.8127 12.9377 11.6532L11.8685 10.584C12.7085 9.16408 12.5326 7.29882 11.3158 6.082Z" fill="#525C69"/>
</svg>
