<svg width="24" height="24" viewBox="0 0 24 24" fill="none" xmlns="http://www.w3.org/2000/svg">
<path fill-rule="evenodd" clip-rule="evenodd" d="M4.41241 7.84931C4.18095 7.96361 4.03442 8.19937 4.03442 8.45752V9.80505C4.03442 9.99236 4.18627 10.1442 4.37359 10.1442H5.37284V17.8856C5.37284 18.2601 5.67654 18.5639 6.05117 18.5639H7.9985V10.916C7.9985 10.5414 8.3022 10.2377 8.67682 10.2377H15.3901C15.7647 10.2377 16.0684 10.5414 16.0684 10.916V18.5639H18.0158C18.3904 18.5639 18.6941 18.2601 18.6941 17.8856V10.1442H19.6937C19.8811 10.1442 20.0329 9.99236 20.0329 9.80505V8.45752C20.0329 8.19937 19.8863 7.96361 19.6549 7.84931L12.334 4.23418C12.1447 4.14069 11.9226 4.14069 11.7333 4.23418L4.41241 7.84931ZM10.6165 12.0965C10.6165 11.9092 10.7684 11.7574 10.9557 11.7574H13.1109C13.2982 11.7574 13.4501 11.9092 13.4501 12.0965V14.2517C13.4501 14.439 13.2982 14.5909 13.1109 14.5909H10.9557C10.7684 14.5909 10.6165 14.439 10.6165 14.2517V12.0965ZM8.81828 15.9614C8.81828 15.7741 8.97012 15.6223 9.15744 15.6223H11.3127C11.4999 15.6223 11.6518 15.7741 11.6518 15.9614V18.1167C11.6518 18.3039 11.4999 18.4558 11.3127 18.4558H9.15744C8.97012 18.4558 8.81828 18.3039 8.81828 18.1167V15.9614ZM12.4153 15.9614C12.4153 15.7741 12.5671 15.6223 12.7544 15.6223H14.9096C15.097 15.6223 15.2488 15.7741 15.2488 15.9614V18.1167C15.2488 18.3039 15.097 18.4558 14.9096 18.4558H12.7544C12.5671 18.4558 12.4153 18.3039 12.4153 18.1167V15.9614Z" fill="#525C69"/>
</svg>
