<svg width="24" height="24" viewBox="0 0 24 24" fill="none" xmlns="http://www.w3.org/2000/svg">
	<path fill-rule="evenodd" clip-rule="evenodd" d="M11.7331 7.11714V13.9028H13.1678V11.7028H14.3739C14.8951 11.7028 15.3391 11.6067 15.7058 11.4145C16.0747 11.2223 16.3563 10.954 16.5507 10.6094C16.7451 10.2648 16.8423 9.86719 16.8423 9.41658C16.8423 8.96597 16.7462 8.56837 16.554 8.22378C16.364 7.87699 16.0879 7.6064 15.7257 7.41202C15.3634 7.21543 14.925 7.11714 14.4103 7.11714H11.7331ZM13.1678 10.553H14.1419C14.418 10.553 14.6455 10.5056 14.8245 10.4106C15.0056 10.3134 15.1403 10.1797 15.2287 10.0097C15.3193 9.83737 15.3645 9.63967 15.3645 9.41658C15.3645 9.19127 15.3193 8.99468 15.2287 8.82681C15.1403 8.65672 15.0056 8.5253 14.8245 8.43252C14.6433 8.33754 14.4136 8.29005 14.1353 8.29005H13.1678V10.553Z" fill="#8DBB00"/>
	<path d="M10.5528 13.9028V7.11714H9.11811V13.9028H10.5528Z" fill="#8DBB00"/>
	<path fill-rule="evenodd" clip-rule="evenodd" d="M20.6837 10.4503C20.6837 14.9701 14.1367 21.9075 12.5 21.9075C10.8633 21.9075 4.31628 14.9701 4.31628 10.4503C4.31628 5.93058 7.98026 2.2666 12.5 2.2666C17.0197 2.2666 20.6837 5.93058 20.6837 10.4503ZM18.5014 10.4503C18.5014 13.7648 15.8145 16.4517 12.5 16.4517C9.18552 16.4517 6.49861 13.7648 6.49861 10.4503C6.49861 7.13584 9.18552 4.44893 12.5 4.44893C15.8145 4.44893 18.5014 7.13584 18.5014 10.4503Z" fill="#8DBB00"/>
</svg>
