<svg width="24" height="24" viewBox="0 0 24 24" fill="none" xmlns="http://www.w3.org/2000/svg">
<path fill-rule="evenodd" clip-rule="evenodd" d="M4.08106 16.6563L10.9481 9.78928C10.5406 8.23976 10.9481 6.5282 12.1307 5.34561C13.9248 3.55146 16.8603 3.55146 18.6544 5.34561C20.4485 7.13975 20.4485 10.0752 18.6544 11.8693C17.4313 13.0924 15.7602 13.4594 14.2107 13.0519L12.6107 14.6505C12.5643 14.6968 12.5031 14.7252 12.4378 14.7306L11.3342 14.8218C11.2238 14.8309 11.1295 14.905 11.0944 15.0101L10.818 15.8393C10.7833 15.9436 10.69 16.0175 10.5805 16.0274L8.82611 16.1869C8.69836 16.1985 8.59533 16.2964 8.57719 16.4234L8.44276 17.3644C8.42491 17.4893 8.32479 17.5864 8.19935 17.6003L6.86066 17.749C6.73691 17.7628 6.63757 17.8575 6.61793 17.9804L6.46723 18.9238C6.44312 19.0748 6.30121 19.1776 6.15028 19.1535C6.14674 19.1529 6.14321 19.1523 6.1397 19.1516L4.56415 18.8367C4.45452 18.8148 4.36883 18.7291 4.34697 18.6194L4.00535 16.9061C3.98726 16.8154 4.01567 16.7217 4.08106 16.6563ZM17.4798 8.63995C18.0807 8.03912 18.0807 7.121 17.4798 6.52017C16.879 5.91934 15.9609 5.91934 15.36 6.52017C14.7592 7.121 14.7592 8.03912 15.36 8.63995C15.9602 9.24012 16.879 9.24078 17.4798 8.63995Z" fill="#525C69"/>
</svg>
