<svg width="24" height="24" viewBox="0 0 24 24" fill="none" xmlns="http://www.w3.org/2000/svg">
<path fill-rule="evenodd" clip-rule="evenodd" d="M14.3666 3.15288C14.2323 3.11689 14.0907 3.16866 14.0051 3.28501L6.87807 12.9802L6.87173 12.989C6.70946 13.2194 6.74886 13.5471 6.96216 13.7259C7.04975 13.7993 7.15788 13.8392 7.26924 13.8392H11.1221L9.39365 20.382L9.39133 20.3912C9.34437 20.5876 9.45247 20.7892 9.63618 20.8445C9.77145 20.8853 9.91644 20.836 10.0047 20.7192L17.2946 11.0704L17.3012 11.0616C17.4662 10.8336 17.4309 10.5054 17.2199 10.3236C17.1314 10.2474 17.0212 10.2059 16.9076 10.2059H13.0723L14.6218 3.60767L14.6238 3.5984C14.6654 3.40063 14.5518 3.20246 14.3666 3.15288ZM19.3864 14.6787C19.1081 14.5071 18.7522 14.609 18.5915 14.9062C18.4308 15.2034 18.5262 15.5834 18.8045 15.755L20.1616 16.5918C20.44 16.7634 20.7958 16.6616 20.9565 16.3643C21.1172 16.0671 21.0219 15.6871 20.7435 15.5155L19.3864 14.6787ZM4.88841 14.6263C5.16672 14.4547 5.52261 14.5566 5.68329 14.8538C5.84398 15.151 5.74862 15.531 5.47031 15.7026L4.11316 16.5394C3.83484 16.711 3.47896 16.6092 3.31827 16.3119C3.15758 16.0147 3.25294 15.6347 3.53126 15.4631L4.88841 14.6263ZM21.384 10.6168H19.8169C19.4955 10.6168 19.235 10.895 19.235 11.2382C19.235 11.5814 19.4955 11.8596 19.8169 11.8596H21.384C21.7053 11.8596 21.9659 11.5814 21.9659 11.2382C21.9659 10.895 21.7053 10.6168 21.384 10.6168ZM2.61608 10.5855H4.18318C4.50455 10.5855 4.76508 10.8638 4.76508 11.2069C4.76508 11.5501 4.50455 11.8284 4.18318 11.8284H2.61608C2.2947 11.8284 2.03418 11.5501 2.03418 11.2069C2.03418 10.8638 2.2947 10.5855 2.61608 10.5855ZM4.20408 5.99423C3.92576 5.82263 3.56988 5.92446 3.40919 6.22168C3.2485 6.51889 3.34386 6.89894 3.62218 7.07054L4.97933 7.90729C5.25765 8.07888 5.61353 7.97705 5.77422 7.67984C5.9349 7.38262 5.83954 7.00258 5.56123 6.83098L4.20408 5.99423ZM20.0707 5.9106C20.349 5.739 20.7049 5.84083 20.8656 6.13805C21.0263 6.43526 20.9309 6.81531 20.6526 6.9869L19.2955 7.82365C19.0172 7.99525 18.6613 7.89342 18.5006 7.5962C18.3399 7.29899 18.4353 6.91894 18.7136 6.74735L20.0707 5.9106Z" fill="#525C69"/>
</svg>
