<svg width="24" height="24" viewBox="0 0 24 24" fill="none" xmlns="http://www.w3.org/2000/svg">
<path fill-rule="evenodd" clip-rule="evenodd" d="M14.3666 3.15288C14.2322 3.11689 14.0906 3.16866 14.0051 3.28501L6.878 12.9802L6.87166 12.989C6.70939 13.2194 6.74879 13.5471 6.9621 13.7259C7.04969 13.7993 7.15782 13.8392 7.26917 13.8392H11.1221L9.39358 20.382L9.39127 20.3912C9.3443 20.5876 9.4524 20.7892 9.63612 20.8445C9.77139 20.8853 9.91638 20.836 10.0046 20.7192L17.2946 11.0704L17.3011 11.0616C17.4661 10.8336 17.4308 10.5054 17.2198 10.3236C17.1314 10.2474 17.0212 10.2059 16.9075 10.2059H13.0723L14.6217 3.60767L14.6238 3.5984C14.6653 3.40063 14.5517 3.20246 14.3666 3.15288Z" fill="#525C69"/>
</svg>
