<svg width="24" height="24" viewBox="0 0 24 24" fill="none" xmlns="http://www.w3.org/2000/svg">
<path fill-rule="evenodd" clip-rule="evenodd" d="M18.8367 8.71679L15.2351 8.71749C15.1314 8.71749 15.0313 8.65754 14.9925 8.56231C14.8303 8.15673 14.8366 7.69966 15.0144 7.2969C15.3127 6.4286 15.3466 5.49048 15.1124 4.60243C14.8676 3.99159 14.8028 2.87571 13.6735 2.82422C13.3201 2.87642 13.0118 3.08873 12.8341 3.39838C12.8024 3.4534 12.789 3.51829 12.789 3.58107C12.789 3.58107 12.8408 4.66459 12.789 5.41782C12.7371 6.17106 11.2957 8.08972 10.3794 9.30788C10.3216 9.38547 10.2405 9.43625 10.1446 9.45107C9.80104 9.50251 9.14581 9.58962 8.90962 9.62081C8.85434 9.62811 8.82201 9.69754 8.82201 9.73013C8.82201 11.2529 8.82201 13.5308 8.82201 16.5638C8.82201 16.5889 8.85234 16.6437 8.90623 16.6526C9.09126 16.6831 9.55408 16.7678 10.0211 16.918C10.608 17.1063 11.0968 17.5521 12.0751 17.8822C12.1266 17.8999 12.1838 17.909 12.2381 17.909H16.8321C17.4253 17.8032 17.8668 17.2961 17.8972 16.6873C17.9056 16.3481 17.8379 16.0123 17.699 15.7041C17.6792 15.6596 17.7053 15.6131 17.7533 15.6039C18.3422 15.4967 19.0786 14.3787 18.1715 13.478C18.1476 13.4547 18.1518 13.4229 18.1842 13.4145C18.6843 13.2868 19.0674 12.8876 19.1844 12.3896C19.2296 12.1991 19.2134 12.0024 19.1569 11.8154C19.0906 11.5925 18.9848 11.3838 18.8445 11.1975C18.8092 11.151 18.8289 11.0903 18.8854 11.072C19.3834 10.9034 19.7262 10.4273 19.7226 9.88557C19.7798 9.35443 19.353 8.71749 18.8367 8.71679ZM7.412 9.00488H4.80852C4.67309 9.00488 4.57011 9.12479 4.59338 9.25529L6.10567 17.7513C6.12895 17.8818 6.24392 17.9771 6.37865 17.9771H7.34146C7.49029 17.9771 7.61091 17.8593 7.61091 17.714L7.63207 9.22072C7.63207 9.10152 7.53403 9.00488 7.412 9.00488Z" fill="#525C69"/>
</svg>
