<svg width="24" height="24" viewBox="0 0 24 24" fill="none" xmlns="http://www.w3.org/2000/svg">
<path fill-rule="evenodd" clip-rule="evenodd" d="M4.78516 4.56755C4.78516 3.70613 5.48347 3.00781 6.34489 3.00781C7.20631 3.00781 7.90462 3.70613 7.90462 4.56755V20.1649C7.90462 21.0263 7.20631 21.7246 6.34489 21.7246C5.48347 21.7246 4.78516 21.0263 4.78516 20.1649V4.56755ZM11.0242 7.68669C11.0242 6.82527 11.7225 6.12695 12.5839 6.12695C13.4453 6.12695 14.1436 6.82527 14.1436 7.68669V17.0451C14.1436 17.9065 13.4453 18.6048 12.5839 18.6048C11.7225 18.6048 11.0242 17.9065 11.0242 17.0451V7.68669ZM18.8228 9.24707C17.9614 9.24707 17.2631 9.94539 17.2631 10.8068V13.9263C17.2631 14.7877 17.9614 15.486 18.8228 15.486C19.6842 15.486 20.3825 14.7877 20.3825 13.9263V10.8068C20.3825 9.94539 19.6842 9.24707 18.8228 9.24707Z" fill="#95C500"/>
</svg>
