<svg width="24" height="24" viewBox="0 0 24 24" fill="none" xmlns="http://www.w3.org/2000/svg">
<path d="M12.1667 5.43451C13.9335 3.66769 16.7981 3.66769 18.5649 5.43451C20.3317 7.20133 20.3317 10.0659 18.5649 11.8327L15.5776 14.82C13.8108 16.5868 10.9462 16.5868 9.17936 14.82C8.9479 14.5886 8.74676 14.3383 8.57594 14.0741L10.4066 12.2434C10.4936 12.1564 10.589 12.1045 10.6854 12.0769C10.7902 12.35 10.9528 12.6061 11.173 12.8263C12.0134 13.6668 13.3761 13.6668 14.2165 12.8263L16.5713 10.4716C17.4117 9.63113 17.4117 8.2685 16.5713 7.42805C15.7789 6.6357 14.5225 6.59036 13.677 7.29202C12.9298 7.00452 11.8272 6.75098 10.5815 7.01967L12.1667 5.43451Z" fill="#95C500"/>
<path d="M11.8334 18.5641C10.0665 20.331 7.20196 20.331 5.43514 18.5641C3.66832 16.7973 3.66832 13.9328 5.43514 12.1659L8.42245 9.17863C10.1893 7.41181 13.0538 7.41181 14.8207 9.17863C15.0521 9.41009 15.2533 9.66039 15.4241 9.9246L13.5934 11.7553C13.5064 11.8423 13.411 11.8942 13.3146 11.9218C13.2098 11.6486 13.0473 11.3925 12.827 11.1723C11.9866 10.3319 10.6239 10.3319 9.7835 11.1723L7.42874 13.5271C6.58829 14.3675 6.58829 15.7302 7.42874 16.5706C8.22109 17.363 9.47757 17.4083 10.323 16.7066C11.0702 16.9941 12.1728 17.2477 13.4185 16.979L11.8334 18.5641Z" fill="#95C500"/>
</svg>
