<svg width="24" height="24" viewBox="0 0 24 24" fill="none" xmlns="http://www.w3.org/2000/svg">
<path d="M5 6C5 5.44772 5.44772 5 6 5H7C7.55228 5 8 5.44772 8 6V8.926L15 6.65893V6C15 5.44772 15.4477 5 16 5H18C18.5523 5 19 5.44772 19 6V8C19 8.55228 18.5523 9 18 9H16C15.4477 9 15 8.55228 15 8V7.73008L8 9.99715V11.513H15V11C15 10.4477 15.4477 10 16 10H18C18.5523 10 19 10.4477 19 11V13C19 13.5523 18.5523 14 18 14H16C15.4477 14 15 13.5523 15 13V12.513H8V14.0654L15 16.3324V16C15 15.4477 15.4477 15 16 15H18C18.5523 15 19 15.4477 19 16V18C19 18.5523 18.5523 19 18 19H16C15.4477 19 15 18.5523 15 18V17.4036L8 15.1365V18C8 18.5523 7.55228 19 7 19H6C5.44772 19 5 18.5523 5 18V6Z" fill="#525C69"/>
</svg>
