<svg width="24" height="24" viewBox="0 0 24 24" fill="none" xmlns="http://www.w3.org/2000/svg">
<path fill-rule="evenodd" clip-rule="evenodd" d="M17.912 11.3432L15.2839 13.9705C13.8333 15.4218 11.4802 15.4218 10.0295 13.9705C9.80095 13.7426 9.62218 13.4858 9.46519 13.221L10.6863 12C10.7444 11.9415 10.8161 11.9079 10.8846 11.8684C10.969 12.1568 11.1164 12.4299 11.3432 12.6568C12.0676 13.3817 13.2463 13.3807 13.9703 12.6568L16.5976 10.0296C17.3226 9.30468 17.3226 8.12621 16.5976 7.40188C15.8736 6.67754 14.6952 6.67754 13.9703 7.40188L13.036 8.33715C12.2779 8.04194 11.4611 7.96257 10.6659 8.0791L12.6567 6.08832C14.1081 4.63723 16.4606 4.63723 17.912 6.08832C19.3627 7.53935 19.3627 9.89221 17.912 11.3432ZM10.9644 15.6633L10.0294 16.5986C9.3051 17.3226 8.12629 17.3226 7.40183 16.5986C6.67743 15.8736 6.67743 14.6951 7.40183 13.9705L10.0294 11.3432C10.7544 10.6184 11.9324 10.6184 12.6567 11.3432C12.883 11.5696 13.0306 11.8426 13.1158 12.1307C13.1847 12.0906 13.2555 12.0581 13.3135 12L14.5345 10.7794C14.3785 10.5136 14.1989 10.2577 13.9702 10.0296C12.5198 8.57853 10.1665 8.57853 8.71542 10.0296L6.08821 12.6569C4.63726 14.1084 4.63726 16.4606 6.08821 17.912C7.53931 19.3627 9.89209 19.3627 11.3432 17.912L13.3345 15.9208C12.5389 16.038 11.7219 15.958 10.9644 15.6633Z" fill="#525C69"/>
</svg>
