<svg width="21" height="21" viewBox="0 0 21 21" fill="none" xmlns="http://www.w3.org/2000/svg">
	<path d="M3.25732 4.55762C3.25732 4.28147 3.48118 4.05762 3.75732 4.05762H15.0215C15.2976 4.05762 15.5215 4.28147 15.5215 4.55762V5.54943C15.5215 5.61645 15.5083 5.6804 15.4844 5.7388C14.8448 5.55097 14.1679 5.4502 13.4676 5.4502C12.4473 5.4502 11.4769 5.66407 10.5989 6.04943H3.75732C3.48118 6.04943 3.25732 5.82558 3.25732 5.54943V4.55762Z" fill="#8DBB00"/>
	<path d="M6.32275 12.595C6.32275 12.4619 6.32639 12.3297 6.33358 12.1984H3.75732C3.48118 12.1984 3.25732 12.4222 3.25732 12.6984V13.6902C3.25732 13.9663 3.48118 14.1902 3.75732 14.1902H6.50149C6.38453 13.6773 6.32275 13.1434 6.32275 12.595Z" fill="#8DBB00"/>
	<path d="M6.76329 10.1194C7.03181 9.39246 7.41518 8.72118 7.89137 8.12756H3.75732C3.48118 8.12756 3.25732 8.35142 3.25732 8.62756V9.61938C3.25732 9.89552 3.48118 10.1194 3.75732 10.1194H6.76329Z" fill="#8DBB00"/>
	<path fill-rule="evenodd" clip-rule="evenodd" d="M18.9124 12.5943C18.9124 15.6014 16.4746 18.0391 13.4675 18.0391C10.4604 18.0391 8.02265 15.6014 8.02265 12.5943C8.02265 9.58716 10.4604 7.14941 13.4675 7.14941C16.4746 7.14941 18.9124 9.58716 18.9124 12.5943ZM12.3115 8.51741C12.3606 8.38477 12.5482 8.38477 12.5972 8.51741L13.1392 9.98213C13.2935 10.3991 13.6223 10.7279 14.0393 10.8822L15.504 11.4242C15.6367 11.4733 15.6367 11.6609 15.504 11.7099L14.0393 12.2519C13.6223 12.4062 13.2935 12.735 13.1392 13.152L12.5972 14.6167C12.5482 14.7494 12.3606 14.7494 12.3115 14.6167L11.7695 13.152C11.6152 12.735 11.2864 12.4062 10.8694 12.2519L9.40471 11.7099C9.27208 11.6609 9.27208 11.4733 9.40471 11.4242L10.8694 10.8822C11.2864 10.7279 11.6152 10.3991 11.7695 9.98213L12.3115 8.51741ZM15.5438 12.7501C15.5721 12.6734 15.6805 12.6734 15.7089 12.7501L16.022 13.5964C16.1112 13.8373 16.3012 14.0273 16.5421 14.1164L17.3884 14.4296C17.4651 14.458 17.4651 14.5664 17.3884 14.5947L16.5421 14.9079C16.3012 14.997 16.1112 15.187 16.022 15.428L15.7089 16.2743C15.6805 16.3509 15.5721 16.3509 15.5438 16.2743L15.2306 15.428C15.1414 15.187 14.9515 14.997 14.7105 14.9079L13.8642 14.5947C13.7876 14.5664 13.7876 14.458 13.8642 14.4296L14.7105 14.1164C14.9515 14.0273 15.1414 13.8373 15.2306 13.5964L15.5438 12.7501Z" fill="#8DBB00"/>
</svg>