<svg width="24" height="24" viewBox="0 0 24 24" fill="none" xmlns="http://www.w3.org/2000/svg">
<path fill-rule="evenodd" clip-rule="evenodd" d="M15.3203 13.3822L17.624 13.3835C18.0376 13.3835 18.4086 13.6382 18.5572 14.0242L20.4743 19.0041C20.6728 19.5195 20.4158 20.0982 19.9004 20.2966C19.7857 20.3408 19.6639 20.3634 19.5411 20.3634H4.45874C3.90646 20.3634 3.45874 19.9157 3.45874 19.3634C3.45874 19.2385 3.48214 19.1147 3.52773 18.9984L5.48012 14.0185C5.63029 13.6355 5.99971 13.3835 6.41112 13.3835L8.48179 13.3818C8.96382 14.133 9.51511 14.9113 10.1357 15.7165L10.5163 16.2029L10.8247 16.5867L10.9206 16.6933C11.4214 17.196 12.2315 17.2476 12.7941 16.7905C12.8716 16.7275 12.9421 16.6565 13.0045 16.5785C13.8998 15.4593 14.6718 14.3939 15.3203 13.3822ZM11.9207 3C14.2501 3 16.1218 4.87104 16.1218 7.20108C16.1218 9.06485 14.9796 11.4259 12.6952 14.2841C12.6504 14.3401 12.5998 14.391 12.5442 14.4362C12.1484 14.7575 11.5813 14.7264 11.2227 14.3824L11.1376 14.29L10.8797 13.968C8.77301 11.3015 7.71966 9.04589 7.71966 7.20108C7.71966 4.87104 9.59143 3 11.9207 3ZM11.9207 5.29102C10.8509 5.29102 10.011 6.13167 10.011 7.20073C10.011 8.27053 10.8516 9.11045 11.9207 9.11045C12.9898 9.11045 13.8304 8.27051 13.8304 7.20073C13.8304 6.13094 12.9898 5.29102 11.9207 5.29102Z" fill="#525C69"/>
</svg>
