<svg width="24" height="24" viewBox="0 0 24 24" fill="none" xmlns="http://www.w3.org/2000/svg">
<path fill-rule="evenodd" clip-rule="evenodd" d="M12.5002 4C9.45059 4 7 6.44963 7 9.50021C7 12.7201 10.2679 17.2145 11.7659 19.1056C12.1454 19.5847 12.8513 19.5813 13.2275 19.0995C14.7222 17.1849 18.0004 12.629 18.0004 9.50021C18.0004 6.44963 15.5498 4 12.5002 4ZM12.5002 11.9995C11.1006 11.9995 9.99994 10.8999 9.99994 9.49925C9.99994 8.0996 11.0996 6.99898 12.5002 6.99898C13.8999 6.99898 15.0005 8.09864 15.0005 9.49925C15.0005 10.8998 13.8999 11.9995 12.5002 11.9995Z" fill="#525C69"/>
</svg>
