<svg width="24" height="24" viewBox="0 0 24 24" fill="none" xmlns="http://www.w3.org/2000/svg">
	<path fill-rule="evenodd" clip-rule="evenodd" d="M11.5002 4C8.45059 4 6 6.44963 6 9.50021C6 12.7201 9.26788 17.2145 10.7659 19.1056C11.1454 19.5847 11.8513 19.5813 12.2275 19.0995C12.5901 18.635 13.0577 18.015 13.558 17.2977C13.2015 16.6097 13 15.8284 13 15C13 12.5943 14.699 10.5854 16.9626 10.1078C16.9874 9.90025 17.0004 9.6974 17.0004 9.50021C17.0004 6.44963 14.5498 4 11.5002 4ZM11.5002 11.9995C10.1006 11.9995 8.99994 10.8999 8.99994 9.49925C8.99994 8.0996 10.0996 6.99898 11.5002 6.99898C12.8999 6.99898 14.0005 8.09864 14.0005 9.49925C14.0005 10.8998 12.8999 11.9995 11.5002 11.9995ZM17.0021 11.9922C17.0021 11.716 17.2259 11.4922 17.5021 11.4922H18.5021C18.7782 11.4922 19.0021 11.716 19.0021 11.9922V14.0332H21.0028C21.2789 14.0332 21.5028 14.2571 21.5028 14.5332V15.5332C21.5028 15.8093 21.2789 16.0332 21.0028 16.0332H19.0021V18.0742C19.0021 18.3504 18.7782 18.5742 18.5021 18.5742H17.5021C17.2259 18.5742 17.0021 18.3504 17.0021 18.0742V16.0332H15.0013C14.7252 16.0332 14.5013 15.8093 14.5013 15.5332V14.5332C14.5013 14.2571 14.7252 14.0332 15.0013 14.0332H17.0021V11.9922Z" fill="#8DBB00"/>
</svg>