<svg width="24" height="24" viewBox="0 0 24 24" fill="none" xmlns="http://www.w3.org/2000/svg">
<path fill-rule="evenodd" clip-rule="evenodd" d="M12.6916 14.7259V16.4723H11.3084V14.7259C11.0594 14.5231 10.9001 14.2131 10.9001 13.8656C10.9001 13.2545 11.3925 12.759 12 12.759C12.6074 12.759 13.0999 13.2545 13.0999 13.8656C13.0999 14.2131 12.9405 14.5231 12.6916 14.7259ZM8.98877 7.63136C8.98877 5.95805 10.337 4.60156 12 4.60156C13.6631 4.60156 15.0113 5.95805 15.0113 7.63136V10.1926H8.98877V7.63136ZM16.6027 10.1922V7.63097C16.6027 5.07333 14.542 3 12 3C9.45803 3 7.39731 5.07333 7.39731 7.63097V10.1922H6.5C6.22386 10.1922 6 10.416 6 10.6922V18.4627C6 18.7388 6.22386 18.9627 6.5 18.9627H17.5C17.7761 18.9627 18 18.7388 18 18.4627V10.6922C18 10.416 17.7761 10.1922 17.5 10.1922H16.6027Z" fill="#525C69"/>
</svg>
