<svg width="24" height="24" viewBox="0 0 24 24" fill="none" xmlns="http://www.w3.org/2000/svg">
<path fill-rule="evenodd" clip-rule="evenodd" d="M12.2637 11.6416C13.971 11.6416 15.3551 13.0257 15.3551 14.733C15.3551 16.4403 13.971 17.8243 12.2637 17.8243C10.5564 17.8243 9.17236 16.4403 9.17236 14.733C9.17236 13.0257 10.5564 11.6416 12.2637 11.6416ZM3.26039 11.0654C3.0621 10.8672 3.06504 10.5439 3.27475 10.3577C5.66613 8.23466 8.81431 6.94531 12.2636 6.94531C15.6204 6.94531 18.692 8.16639 21.0584 10.1886C21.2743 10.3731 21.2803 10.7014 21.0795 10.9022L19.8273 12.1544C19.639 12.3427 19.3368 12.3493 19.1316 12.1795C17.2665 10.6365 14.8734 9.70923 12.2636 9.70923C9.56869 9.70923 7.10469 10.6981 5.21467 12.3327C5.00985 12.5098 4.7015 12.5066 4.51002 12.3151L3.26039 11.0654Z" fill="#525C69"/>
</svg>
