<svg width="24" height="24" viewBox="0 0 24 24" fill="none" xmlns="http://www.w3.org/2000/svg">
<path fill-rule="evenodd" clip-rule="evenodd" d="M11.6421 11.0156L13.6796 13.0451L6.03749 20.6871L4 18.6577L11.6421 11.0156ZM16.5245 13.6523L17.0923 15.2444L18.6843 15.8121L17.0923 16.3799L16.5245 17.9719L15.9568 16.3799L14.3647 15.8121L15.9568 15.2444L16.5245 13.6523ZM14.7732 7.88379L16.8107 9.91323L14.0355 12.6884L11.998 10.6589L14.7732 7.88379ZM9.15808 2.78906L10.1326 5.52156L12.8651 6.49605L10.1326 7.47055L9.15808 10.203L8.18359 7.47055L5.45109 6.49605L8.18359 5.52156L9.15808 2.78906ZM18.8969 3.51758L19.4646 5.10961L21.0566 5.67737L19.4646 6.24514L18.8969 7.83716L18.3291 6.24514L16.7371 5.67737L18.3291 5.10961L18.8969 3.51758Z" fill="#525C69"/>
</svg>
