<svg width="24" height="24" viewBox="0 0 24 24" fill="none" xmlns="http://www.w3.org/2000/svg">
	<path d="M12.8575 2.09826C12.9154 1.9362 13.1446 1.93633 13.2023 2.09845L13.4247 2.72316C13.4431 2.77492 13.4838 2.81567 13.5356 2.83415L14.16 3.05725C14.3221 3.11514 14.322 3.34438 14.1598 3.40209L13.5351 3.62449C13.4834 3.64291 13.4426 3.68362 13.4241 3.73536L13.201 4.35981C13.1431 4.52187 12.9139 4.52174 12.8562 4.35962L12.6338 3.73491C12.6154 3.68315 12.5747 3.6424 12.5229 3.62392L11.8985 3.40083C11.7364 3.34293 11.7365 3.11369 11.8987 3.05598L12.5234 2.83358C12.5751 2.81516 12.6159 2.77446 12.6344 2.72271L12.8575 2.09826Z" fill="#8DBB00"/>
	<path d="M5.34787 2.68039C5.40577 2.51834 5.635 2.51846 5.69272 2.68059L6.46533 4.85084C6.48375 4.9026 6.52445 4.94335 6.57619 4.96184L8.74558 5.73688C8.90764 5.79478 8.90751 6.02401 8.74539 6.08172L6.57513 6.85433C6.52337 6.87276 6.48263 6.91346 6.46414 6.9652L5.6891 9.13459C5.6312 9.29665 5.40197 9.29652 5.34425 9.1344L4.57164 6.96414C4.55322 6.91238 4.51251 6.87163 4.46077 6.85315L2.29139 6.07811C2.12933 6.02021 2.12946 5.79098 2.29158 5.73326L4.46183 4.96065C4.5136 4.94222 4.55434 4.90152 4.57283 4.84978L5.34787 2.68039Z" fill="#8DBB00"/>
	<path fill-rule="evenodd" clip-rule="evenodd" d="M5.88418 18.378L5.88825 11.1048C8.42293 10.5568 10.4169 8.55551 10.9537 6.01625L18.2557 6.02035C19.1662 6.02086 19.9039 6.75938 19.9034 7.66988L19.8974 18.3858C19.8968 19.2963 19.1583 20.034 18.2478 20.0335L7.53186 20.0275C6.62136 20.027 5.88367 19.2885 5.88418 18.378ZM7.57565 18.0922C7.57558 18.227 7.68479 18.3363 7.81959 18.3364L18.0104 18.3421C18.1452 18.3422 18.2546 18.233 18.2547 18.0982L18.2549 17.6119C18.255 17.5532 18.2338 17.4964 18.1954 17.452L15.5936 14.4462C15.4964 14.3338 15.3221 14.3337 15.2247 14.4459L14.1688 15.6629C14.0714 15.7752 13.8972 15.7751 13.7999 15.6627L10.6111 11.9791C10.5138 11.8668 10.3395 11.8667 10.2422 11.9789L7.63703 14.9814C7.59854 15.0258 7.57734 15.0825 7.5773 15.1413L7.57565 18.0922ZM15.7499 8.39947C15.8078 8.23741 16.037 8.23754 16.0947 8.39966L16.4609 9.42814C16.4793 9.4799 16.52 9.52065 16.5717 9.53914L17.5998 9.90643C17.7619 9.96433 17.7617 10.1936 17.5996 10.2513L16.5711 10.6174C16.5194 10.6358 16.4786 10.6765 16.4601 10.7283L16.0928 11.7564C16.0349 11.9184 15.8057 11.9183 15.748 11.7562L15.3818 10.7277C15.3634 10.6759 15.3227 10.6352 15.271 10.6167L14.2429 10.2494C14.0808 10.1915 14.081 9.96226 14.2431 9.90455L15.2716 9.53841C15.3233 9.51998 15.3641 9.47928 15.3826 9.42754L15.7499 8.39947Z" fill="#8DBB00"/>
</svg>