<svg width="24" height="25" viewBox="0 0 24 25" fill="none" xmlns="http://www.w3.org/2000/svg">
<path fill-rule="evenodd" clip-rule="evenodd" d="M11.5095 4.36637C11.7918 4.22906 12.1222 4.23227 12.4018 4.37504L18.6536 7.56781C18.7144 7.59888 18.7707 7.63532 18.8222 7.67627C19.5167 7.98985 20 8.68848 20 9.5V16.5C20 17.6046 19.1046 18.5 18 18.5H6C4.89543 18.5 4 17.6046 4 16.5V9.5C4 8.90478 4.35228 8.10914 4.92791 7.82914L11.5095 4.36637ZM6 11.1677V16C6 16.2761 6.22386 16.5 6.5 16.5H17.5C17.7761 16.5 18 16.2761 18 16V10.9842L12.3858 13.7698C12.1115 13.9059 11.7901 13.9088 11.5134 13.7779L6 11.1677ZM11.9361 6.38294L17.2768 9.11042L11.9311 11.7628L6.32877 9.11051L11.9361 6.38294Z" fill="#C9CCD0"/>
</svg>
