<svg width="24" height="24" viewBox="0 0 24 24" fill="none" xmlns="http://www.w3.org/2000/svg">
	<path d="M22.7526 6.39258H22.7548V5.35232C22.7548 4.65939 21.0696 4.09766 18.9908 4.09766C16.912 4.09766 15.2268 4.65939 15.2268 5.35232V6.39258H15.229C15.2973 7.06551 16.9554 7.60403 18.9908 7.60403C21.0262 7.60403 22.6843 7.06551 22.7526 6.39258Z" fill="#BDC1C6"/>
	<path d="M18.9905 8.55333C20.7265 8.55333 22.2036 8.13308 22.753 7.54624C22.7542 7.55935 22.7548 7.57251 22.7548 7.58572V8.62598H22.7526C22.6843 9.2989 21.0262 9.83743 18.9908 9.83743C16.9554 9.83743 15.2973 9.2989 15.229 8.62598H15.2268V7.58572C15.2268 7.57267 15.2274 7.55966 15.2286 7.54671C15.7783 8.13331 17.255 8.55333 18.9905 8.55333Z" fill="#BDC1C6"/>
	<path d="M18.9905 10.7867C20.7265 10.7867 22.2036 10.3665 22.753 9.77964C22.7542 9.79275 22.7548 9.80591 22.7548 9.81912V10.8594H22.7526C22.6843 11.5323 21.0262 12.0708 18.9908 12.0708C16.9554 12.0708 15.2973 11.5323 15.229 10.8594H15.2268V9.81912C15.2268 9.80607 15.2274 9.79306 15.2286 9.78011C15.7783 10.3667 17.255 10.7867 18.9905 10.7867Z" fill="#BDC1C6"/>
	<path d="M13.1066 10.4715L13.658 12.2014L12.547 12.9561C12.2024 13.1903 11.7487 13.1862 11.4083 12.9459L6 9.12749V15.5C6 15.7761 6.22386 16 6.5 16H17.5C17.7761 16 18 15.7761 18 15.5V13.9316H20V16C20 17.1045 19.1046 18 18 18H6C4.89543 18 4 17.1045 4 16V7.99998C4 6.89541 4.89543 5.99998 6 5.99998H13.1066V7.99998H7.87065L11.996 10.9126L13.1066 10.1581V10.4715Z" fill="#BDC1C6"/>
</svg>