<svg width="24" height="24" viewBox="0 0 24 24" fill="none" xmlns="http://www.w3.org/2000/svg">
<path fill-rule="evenodd" clip-rule="evenodd" d="M18.9342 11.0978C18.9342 11.3651 18.6111 11.499 18.4221 11.31L15.6567 8.54458C15.4614 8.34931 15.4614 8.03273 15.6567 7.83747L18.4221 5.07208C18.6111 4.88309 18.9342 5.01694 18.9342 5.28421L18.9342 6.96777L21.6536 6.96777C21.9297 6.96777 22.1536 7.19163 22.1536 7.46777V8.63965C22.1536 8.91579 21.9297 9.13965 21.6536 9.13965L18.9342 9.13965V11.0978ZM7.87065 8.00024H12.4447L14.2949 6.00024H6C4.89543 6.00024 4 6.89567 4 8.00024V16.0002C4 17.1048 4.89543 18.0002 6 18.0002H18C19.1046 18.0002 20 17.1048 20 16.0002V13.4166H18V15.5002C18 15.7764 17.7761 16.0002 17.5 16.0002H6.5C6.22386 16.0002 6 15.7764 6 15.5002V9.12775L11.4083 12.9462C11.7487 13.1865 12.2024 13.1905 12.547 12.9564L14.998 11.2912L13.6369 9.79808L11.996 10.9129L7.87065 8.00024Z" fill="#C9CCD0"/>
</svg>
