<svg width="24" height="24" viewBox="0 0 24 24" fill="none" xmlns="http://www.w3.org/2000/svg">
<path fill-rule="evenodd" clip-rule="evenodd" d="M4 8C4 6.89543 4.89543 6 6 6H18C19.1046 6 20 6.89543 20 8V11.6479C19.4024 11.2824 18.725 11.0348 18 10.9372V9.25152L12.547 12.9562C12.2024 13.1903 11.7487 13.1862 11.4083 12.9459L6 9.12752V15.5C6 15.7761 6.22386 16 6.5 16H12.1253C12.125 16.0228 12.1249 16.0455 12.1249 16.0684C12.1249 16.7512 12.2571 17.4031 12.4972 18H6C4.89543 18 4 17.1046 4 16V8ZM16.2832 8H7.87065L11.996 10.9126L16.2832 8Z" fill="#C9CCD0"/>
<path d="M17.9751 12.6026C17.9751 12.4599 17.8061 12.3847 17.7001 12.4801L13.993 15.8182C13.8961 15.9055 13.8961 16.0574 13.993 16.1447L17.7001 19.4828C17.8061 19.5782 17.9751 19.503 17.9751 19.3603V17.2091C17.9952 17.2172 18.0171 17.2216 18.04 17.2216C20.1874 17.2219 21.2091 18.1391 21.9739 18.8672C22.0911 18.9787 22.2838 18.8814 22.2485 18.7236C21.9496 17.3877 21.1522 14.4531 18.0359 14.443C18.0146 14.4424 17.994 14.4461 17.9751 14.4531V12.6026Z" fill="#C9CCD0"/>
</svg>
