<svg width="24" height="24" viewBox="0 0 24 24" fill="none" xmlns="http://www.w3.org/2000/svg">
<path fill-rule="evenodd" clip-rule="evenodd" d="M4 8C4 6.89543 4.89543 6 6 6H18C19.1046 6 20 6.89543 20 8V11.7849H18V9.25152L12.547 12.9562C12.2024 13.1903 11.7487 13.1862 11.4083 12.9459L6 9.12752V15.5C6 15.7761 6.22386 16 6.5 16H12.2714V18H6C4.89543 18 4 17.1046 4 16V8ZM16.2832 8H7.87065L11.996 10.9126L16.2832 8Z" fill="#C9CCD0"/>
<path d="M17.9687 13.9454C17.9687 13.6782 18.2918 13.5443 18.4808 13.7333L21.2462 16.4987C21.4414 16.6939 21.4414 17.0105 21.2462 17.2058L18.4808 19.9712C18.2918 20.1602 17.9687 20.0263 17.9687 19.759V18.0755H15.2493C14.9732 18.0755 14.7493 17.8516 14.7493 17.5755V16.4036C14.7493 16.1275 14.9732 15.9036 15.2493 15.9036H17.9687V13.9454Z" fill="#C9CCD0"/>
</svg>
