<svg width="24" height="24" viewBox="0 0 24 24" fill="none" xmlns="http://www.w3.org/2000/svg">
<path fill-rule="evenodd" clip-rule="evenodd" d="M4 8C4 6.89543 4.89543 6 6 6H18C19.1046 6 20 6.89543 20 8V16C20 17.1046 19.1046 18 18 18H6C4.89543 18 4 17.1046 4 16V8ZM6 9.12752V15.5C6 15.7761 6.22386 16 6.5 16H17.5C17.7761 16 18 15.7761 18 15.5V9.25152L12.547 12.9562C12.2024 13.1903 11.7487 13.1862 11.4083 12.9459L6 9.12752ZM16.2832 8H7.87065L11.996 10.9126L16.2832 8Z" fill="#C9CCD0"/>
<path fill-rule="evenodd" clip-rule="evenodd" d="M4 8C4 6.89543 4.89543 6 6 6H18C19.1046 6 20 6.89543 20 8V16C20 17.1046 19.1046 18 18 18H6C4.89543 18 4 17.1046 4 16V8ZM6 9.12752V15.5C6 15.7761 6.22386 16 6.5 16H17.5C17.7761 16 18 15.7761 18 15.5V9.25152L12.547 12.9562C12.2024 13.1903 11.7487 13.1862 11.4083 12.9459L6 9.12752ZM16.2832 8H7.87065L11.996 10.9126L16.2832 8Z" fill="#C9CCD0"/>
</svg>
