<svg width="24" height="24" viewBox="0 0 24 24" fill="none" xmlns="http://www.w3.org/2000/svg">
<path fill-rule="evenodd" clip-rule="evenodd" d="M18.3997 5.62891H5.60028C4.71647 5.62891 4 6.33174 4 7.19874V16.8013C4 17.6683 4.71647 18.3711 5.60028 18.3711H18.3997C19.2835 18.3711 20 17.6683 20 16.8013V7.19874C20 6.33174 19.2835 5.62891 18.3997 5.62891ZM6.96299 7.73579C6.96299 8.13868 6.63665 8.46528 6.2341 8.46528C5.83154 8.46528 5.5052 8.13868 5.5052 7.73579C5.5052 7.3329 5.83154 7.0063 6.2341 7.0063C6.63665 7.0063 6.96299 7.3329 6.96299 7.73579ZM8.34091 8.46528C8.74347 8.46528 9.0698 8.13868 9.0698 7.73579C9.0698 7.3329 8.74347 7.0063 8.34091 7.0063C7.93835 7.0063 7.61202 7.3329 7.61202 7.73579C7.61202 8.13868 7.93835 8.46528 8.34091 8.46528ZM11.8511 8.00295C11.8891 8.00347 11.9274 8.007 11.9648 8.0135C12.0005 8.01969 12.0355 8.03398 12.0675 8.05688L16.3732 11.1334C16.554 11.2625 16.6036 11.5255 16.4839 11.7207L16.3163 11.9942C16.1967 12.1894 15.9531 12.2429 15.7724 12.1138L15.3018 11.7776C15.3582 11.8832 15.3891 12.0044 15.3891 12.1301L15.389 15.8084C15.389 16.1985 15.0961 16.5147 14.7349 16.5147H13.1539V14.2361C13.1539 13.5356 12.586 12.9678 11.8855 12.9678C11.185 12.9678 10.6172 13.5356 10.6172 14.2361V16.5147H9.06871C8.70742 16.5147 8.41453 16.1985 8.41454 15.8084L8.41461 12.1301C8.41461 11.9832 8.45689 11.8424 8.53261 11.7254L7.99884 12.1068C7.81806 12.2359 7.57453 12.1824 7.45491 11.9872L7.28727 11.7137C7.16764 11.5185 7.21721 11.2555 7.39799 11.1264L11.7037 8.04988C11.7491 8.01742 11.8005 8.00226 11.8511 8.00295Z" fill="#95C500"/>
</svg>
