<svg width="24" height="24" viewBox="0 0 24 24" fill="none" xmlns="http://www.w3.org/2000/svg">
<path fill-rule="evenodd" clip-rule="evenodd" d="M6.39738 14.3945C7.28071 14.3945 7.9968 15.1106 7.9968 15.994C7.9968 16.8773 7.28071 17.5934 6.39738 17.5934C5.51405 17.5934 4.79797 16.8773 4.79797 15.994C4.79797 15.1106 5.51405 14.3945 6.39738 14.3945ZM19.1927 15.1942V16.7937H9.59621V15.1942H19.1927ZM6.39738 10.396C7.28071 10.396 7.9968 11.1121 7.9968 11.9954C7.9968 12.8788 7.28071 13.5948 6.39738 13.5948C5.51405 13.5948 4.79797 12.8788 4.79797 11.9954C4.79797 11.1121 5.51405 10.396 6.39738 10.396ZM19.1927 11.1957V12.7951H9.59621V11.1957H19.1927ZM6.3978 6.39746C7.28113 6.39746 7.99721 7.11354 7.99721 7.99687C7.99721 8.8802 7.28113 9.59628 6.3978 9.59628C5.51447 9.59628 4.79839 8.8802 4.79839 7.99687C4.79839 7.11354 5.51447 6.39746 6.3978 6.39746ZM19.1927 7.19719V8.7966H9.59621V7.19719H19.1927Z" fill="#525C69"/>
</svg>
