<svg width="24" height="24" viewBox="0 0 24 24" fill="none" xmlns="http://www.w3.org/2000/svg">
<path fill-rule="evenodd" clip-rule="evenodd" d="M11.9344 5.2288C11.9202 5.23311 11.9054 5.24172 11.89 5.24947L5.24127 7.88113C5.07468 7.95949 5.01422 8.12912 5.00928 8.32889V16.8023C5.01113 16.9917 5.11046 17.1717 5.24127 17.2225L11.8259 19.8264C11.9073 19.8626 12.014 19.8574 12.1023 19.8333L18.7459 17.2087C18.8767 17.1553 18.9742 16.9719 18.973 16.7816V8.38399C18.9767 8.12565 18.9125 7.9741 18.741 7.89487L12.0578 5.24955C12.0122 5.2263 11.9764 5.21682 11.9344 5.22888L11.9344 5.2288ZM11.974 6.13086L17.4924 8.32152L11.974 10.4984L6.45068 8.31464L11.974 6.13086Z" fill="#525C69"/>
</svg>
