<svg width="24" height="24" viewBox="0 0 24 24" fill="none" xmlns="http://www.w3.org/2000/svg">
	<path fill-rule="evenodd" clip-rule="evenodd" d="M11.9102 10.9141L15.4609 7.39842L14.9929 5.54513L17.5634 3L18.2488 5.7148L18.2297 5.73377L18.239 5.74307L18.2582 5.72409L21 6.40279L18.4296 8.94792L16.6676 8.51177L13.1368 12.0078C13.1973 12.1808 13.2301 12.3667 13.2301 12.5601C13.2301 13.4932 12.4662 14.2496 11.5238 14.2496C10.5814 14.2496 9.81747 13.4932 9.81747 12.5601C9.81747 11.627 10.5814 10.8706 11.5238 10.8706C11.6567 10.8706 11.7861 10.8856 11.9102 10.9141ZM13.6547 4.38611V5.90028C12.9824 5.68956 12.2665 5.5759 11.5238 5.5759C7.62818 5.5759 4.47016 8.70284 4.47016 12.5601C4.47016 16.4174 7.62818 19.5443 11.5238 19.5443C15.4194 19.5443 18.5774 16.4174 18.5774 12.5601C18.5774 11.7689 18.4446 11.0085 18.1997 10.2994L19.5095 9.60225C19.8574 10.5227 20.0476 11.5194 20.0476 12.5601C20.0476 17.2213 16.2314 21 11.5238 21C6.81624 21 3 17.2213 3 12.5601C3 7.89889 6.81624 4.12022 11.5238 4.12022C12.2596 4.12022 12.9737 4.21254 13.6547 4.38611ZM13.1098 7.3655L11.766 8.69609C11.6859 8.69124 11.6052 8.68878 11.5239 8.68878C9.36431 8.68878 7.61366 10.4222 7.61366 12.5605C7.61366 14.6988 9.36431 16.4322 11.5239 16.4322C13.6834 16.4322 15.434 14.6988 15.434 12.5605C15.434 12.5129 15.4332 12.4655 15.4315 12.4183L16.7939 11.0692C16.9304 11.543 17.0035 12.0433 17.0035 12.5605C17.0035 15.557 14.5502 17.9862 11.5239 17.9862C8.49752 17.9862 6.04419 15.557 6.04419 12.5605C6.04419 9.56394 8.49752 7.13477 11.5239 7.13477C12.0753 7.13477 12.6078 7.21543 13.1098 7.3655Z" fill="#525C69"/>
</svg>