<svg width="24" height="25" viewBox="0 0 24 25" fill="none" xmlns="http://www.w3.org/2000/svg">
<path d="M13.9115 7.12952C14.7749 5.50133 16.7857 4.89812 18.4028 5.7822C18.5039 5.83746 18.542 5.96475 18.4881 6.06651L12.2883 17.7578C11.8296 18.6228 10.7613 18.9433 9.90229 18.4736C9.04323 18.0039 8.71867 16.922 9.17735 16.057L13.9115 7.12952Z" fill="#BDC1C6"/>
<path d="M8.04588 7.12952C8.90928 5.50133 10.9201 4.89812 12.5371 5.7822C12.6382 5.83746 12.6764 5.96475 12.6224 6.06651L6.42262 17.7578C5.96394 18.6228 4.8957 18.9433 4.03664 18.4736C3.17758 18.0039 2.85302 16.922 3.3117 16.057L8.04588 7.12952Z" fill="#BDC1C6"/>
<path fill-rule="evenodd" clip-rule="evenodd" d="M15.8745 14.1828C15.8552 14.2192 15.8451 14.2598 15.8451 14.3012L15.8452 16.9358C15.8453 17.9456 16.6519 18.7646 17.6464 18.7646C18.6399 18.7646 19.4449 17.9472 19.4448 16.9384L19.4444 8.44097C19.4444 8.18161 19.1032 8.09426 18.9821 8.32263L15.8745 14.1828Z" fill="#BDC1C6"/>
</svg>
