<svg width="24" height="24" viewBox="0 0 24 24" fill="none" xmlns="http://www.w3.org/2000/svg">
<path fill-rule="evenodd" clip-rule="evenodd" d="M18.7065 15.0576C18.8169 15.0576 18.9065 15.1472 18.9065 15.2576L18.9065 16.7423C18.9065 16.8527 18.8169 16.9423 18.7065 16.9423H5.29351C5.18305 16.9423 5.09351 16.8527 5.09351 16.7423L5.09355 15.2576C5.09355 15.1472 5.18309 15.0576 5.29355 15.0576H18.7065ZM18.7065 11.0576C18.8169 11.0576 18.9065 11.1472 18.9065 11.2576L18.9065 12.7423C18.9065 12.8527 18.8169 12.9423 18.7065 12.9423H5.29351C5.18305 12.9423 5.09351 12.8527 5.09351 12.7423L5.09355 11.2576C5.09355 11.1472 5.18309 11.0576 5.29355 11.0576H18.7065ZM18.7065 7.05762C18.8169 7.05762 18.9065 7.14716 18.9065 7.25762L18.9065 8.74226C18.9065 8.85271 18.8169 8.94225 18.7065 8.94225H5.29351C5.18305 8.94225 5.09351 8.85271 5.09351 8.74225L5.09355 7.25761C5.09355 7.14716 5.18309 7.05762 5.29355 7.05762H18.7065Z" fill="#525C69"/>
</svg>
