<svg width="24" height="24" viewBox="0 0 24 24" fill="none" xmlns="http://www.w3.org/2000/svg">
	<path fill-rule="evenodd" clip-rule="evenodd" d="M6 9.5C6.82843 9.5 7.5 8.82843 7.5 8C7.5 7.17157 6.82843 6.5 6 6.5C5.17157 6.5 4.5 7.17157 4.5 8C4.5 8.82843 5.17157 9.5 6 9.5ZM18.9065 15.2576C18.9065 15.1472 18.8169 15.0576 18.7065 15.0576H5.29354C5.18309 15.0576 5.09354 15.1472 5.09354 15.2576L5.09351 16.7423C5.0935 16.8527 5.18305 16.9423 5.29351 16.9423H18.7065C18.8169 16.9423 18.9064 16.8527 18.9065 16.7423L18.9065 15.2576ZM18.9065 11.2576C18.9065 11.1472 18.8169 11.0576 18.7065 11.0576H5.29354C5.18309 11.0576 5.09354 11.1472 5.09354 11.2576L5.09351 12.7423C5.0935 12.8527 5.18305 12.9423 5.29351 12.9423H18.7065C18.8169 12.9423 18.9064 12.8527 18.9065 12.7423L18.9065 11.2576ZM18.9065 7.25762C18.9065 7.14716 18.8169 7.05762 18.7065 7.05762H9.2C9.08954 7.05762 9 7.14716 9 7.25762V8.74225C9 8.85271 9.08954 8.94225 9.19999 8.94225H18.7065C18.8169 8.94225 18.9064 8.85271 18.9065 8.74226L18.9065 7.25762Z" fill="#8DBB00"/>
</svg>