<svg width="24" height="24" viewBox="0 0 24 24" fill="none" xmlns="http://www.w3.org/2000/svg">
	<path fill-rule="evenodd" clip-rule="evenodd" d="M17.527 10.5088C19.1175 10.5088 20.4069 9.21947 20.4069 7.62894C20.4069 6.0384 19.1175 4.74902 17.527 4.74902C15.9365 4.74902 14.6471 6.0384 14.6471 7.62894C14.6471 9.21947 15.9365 10.5088 17.527 10.5088ZM17.5271 12.2269C18.0047 12.2269 18.4653 12.154 18.8983 12.0189V16.0115C18.8983 16.6336 18.394 17.1379 17.7719 17.1379H11.9492L9.45417 19.6326C8.95018 20.1366 8.08852 19.7796 8.08852 19.0669V17.1379H6.12644C5.50432 17.1379 5 16.6336 5 16.0115V8.2279C5 7.60579 5.50432 7.10146 6.12644 7.10146H12.9593C12.9395 7.2746 12.9293 7.45066 12.9293 7.62909C12.9293 10.1684 14.9878 12.2269 17.5271 12.2269Z" fill="#525C69"/>
</svg>