<svg width="24" height="25" viewBox="0 0 24 25" fill="none" xmlns="http://www.w3.org/2000/svg">
<path fill-rule="evenodd" clip-rule="evenodd" d="M9.32035 12.5229V12.262L12.1949 15.0924C12.1117 15.1002 12.0273 15.1042 11.942 15.1042C10.4941 15.1042 9.32035 13.9485 9.32035 12.5229ZM11.9523 16.7233C12.574 16.7233 13.1205 16.6379 13.5999 16.4757L15.0597 17.9131C14.4508 18.2226 13.7554 18.4452 12.9755 18.5496L12.9748 19.7943L13.3913 19.7946C13.8697 19.7946 14.2575 20.1764 14.2575 20.6475C14.2575 21.1185 13.8697 21.5003 13.3913 21.5003H10.4929C10.0145 21.5003 9.62671 21.1185 9.62671 20.6475C9.62671 20.1764 10.0145 19.7946 10.4929 19.7946L10.9081 19.7943L10.908 18.5488C7.43286 18.0868 5.65639 15.3344 5.68339 12.8728C5.68913 12.3501 6.12413 11.931 6.65499 11.9366C7.15047 11.9419 7.55434 12.3154 7.60132 12.7901L7.60583 12.8933C7.60045 13.3843 7.87899 14.3271 8.39307 15.0604C9.13114 16.1132 10.2658 16.7233 11.9523 16.7233ZM16.3443 12.5376L18.0433 14.2104C18.1573 13.7586 18.2101 13.3037 18.2006 12.863C18.1893 12.3404 17.7499 11.9257 17.2191 11.9368C16.8193 11.9452 16.4818 12.1926 16.3443 12.5376ZM9.60783 5.90486L14.5637 10.7844V7.08129C14.5637 5.65568 13.3899 4.5 11.942 4.5C10.9245 4.5 10.0423 5.07076 9.60783 5.90486ZM5.53895 5.21928C5.22044 5.53288 5.22044 6.04133 5.53895 6.35494L17.9078 18.5333C18.2263 18.8469 18.7427 18.8469 19.0612 18.5333C19.3797 18.2197 19.3797 17.7113 19.0612 17.3977L6.69236 5.21928C6.37385 4.90568 5.85745 4.90568 5.53895 5.21928Z" fill="#525C69"/>
</svg>
