<svg width="24" height="24" viewBox="0 0 24 24" fill="none" xmlns="http://www.w3.org/2000/svg">
<path fill-rule="evenodd" clip-rule="evenodd" d="M17.1647 11.5951C17.6843 11.5843 18.1144 11.9904 18.1254 12.5022C18.1761 14.8541 16.4176 17.6155 13.0113 18.0717L13.0105 19.2908L13.4181 19.2911C13.8864 19.2911 14.266 19.665 14.266 20.1264C14.266 20.5877 13.8864 20.9617 13.4181 20.9617H10.5813C10.1131 20.9617 9.73347 20.5877 9.73347 20.1264C9.73347 19.665 10.1131 19.2911 10.5813 19.2911L10.9876 19.2908L10.9876 18.0709C7.58617 17.6184 5.84741 14.9228 5.87383 12.5119C5.87944 12 6.30521 11.5894 6.82481 11.5949C7.30978 11.6001 7.70507 11.9659 7.75106 12.4308L7.75548 12.5319C7.75021 13.0128 8.02284 13.9362 8.52601 14.6544C9.24842 15.6855 10.359 16.283 12.0097 16.283C13.6513 16.283 14.758 15.674 15.4817 14.623C15.9438 13.952 16.213 13.0994 16.2417 12.6403L16.2441 12.5416C16.233 12.0297 16.6452 11.606 17.1647 11.5951ZM11.9997 3.95801C13.5366 3.95801 14.7826 5.11822 14.7826 6.54941V12.0124C14.7826 13.4436 13.5366 14.6038 11.9997 14.6038C10.4627 14.6038 9.2168 13.4436 9.2168 12.0124V6.54941C9.2168 5.11822 10.4627 3.95801 11.9997 3.95801Z" fill="#525C69"/>
</svg>
