<svg width="24" height="24" viewBox="0 0 24 24" fill="none" xmlns="http://www.w3.org/2000/svg">
<path fill-rule="evenodd" clip-rule="evenodd" d="M5.43936 3.01917C5.44021 2.9298 5.54893 2.88634 5.61115 2.9505L7.49164 4.88973C7.5233 4.92238 7.57301 4.92955 7.61261 4.90719L9.96463 3.5787C10.0424 3.53475 10.1344 3.60717 10.11 3.69314L9.37082 6.29131C9.35837 6.33505 9.37701 6.38169 9.41618 6.4048L11.7427 7.77746C11.8197 7.82288 11.8029 7.93877 11.7163 7.96057L9.0966 8.61951C9.0525 8.6306 9.02143 8.67006 9.021 8.71554L8.99549 11.4167C8.99465 11.5061 8.88593 11.5495 8.82371 11.4854L6.94321 9.54613C6.91155 9.51348 6.86185 9.50631 6.82225 9.52868L4.47023 10.8572C4.39241 10.9011 4.30041 10.8287 4.32486 10.7427L5.06404 8.14456C5.07649 8.10081 5.05784 8.05418 5.01867 8.03107L2.69216 6.6584C2.61519 6.61298 2.63191 6.4971 2.71859 6.47529L5.33825 5.81636C5.38236 5.80526 5.41343 5.7658 5.41385 5.72032L5.43936 3.01917ZM8.43012 12.9214C8.12768 12.9729 7.81682 12.9997 7.4997 12.9997C7.35111 12.9997 7.2039 12.9938 7.05829 12.9823V18.6037C7.05829 19.3581 7.70373 20.0189 8.54851 20.0189H16.4507C17.2954 20.0189 17.9409 19.3581 17.9409 18.6037V5.3954C17.9409 4.59403 17.2954 3.9802 16.4507 3.9802H11.7263C12.285 4.6504 12.6873 5.45554 12.8771 6.33957L16.5702 6.33957L16.5694 17.1898H8.43012V12.9214ZM11.5558 18.6037C11.5558 19.1229 11.9804 19.5474 12.4996 19.5474C13.0188 19.5474 13.4434 19.1229 13.4434 18.6037C13.4434 18.0844 13.0188 17.6599 12.4996 17.6599C11.9804 17.6599 11.5558 18.0844 11.5558 18.6037ZM9.99994 12.9997V12.4C10.3577 12.2171 10.6928 11.9962 10.9999 11.7426V12.9997H13.9999V9.99973H12.4002C12.5622 9.68293 12.6943 9.34837 12.7929 8.99973H13.9999C14.5522 8.99973 14.9999 9.44744 14.9999 9.99973V12.9997C14.9999 13.552 14.5522 13.9997 13.9999 13.9997H10.9999C10.4477 13.9997 9.99994 13.552 9.99994 12.9997Z" fill="#525C69"/>
</svg>
