<svg width="24" height="24" viewBox="0 0 24 24" fill="none" xmlns="http://www.w3.org/2000/svg">
<path fill-rule="evenodd" clip-rule="evenodd" d="M16.1905 4.03613H7.80951C6.78373 4.03613 6 4.76273 6 5.71373V19.1585C6 20.0529 6.78373 20.8361 7.80951 20.8361H16.1905C17.2163 20.8361 18 20.0529 18 19.1585V5.71373C18 4.76377 17.2163 4.03613 16.1905 4.03613ZM12 19.6896C11.3696 19.6896 10.854 19.1863 10.854 18.5708C10.854 17.9554 11.3696 17.4521 12 17.4521C12.6305 17.4521 13.146 17.9554 13.146 18.5708C13.146 19.1863 12.6305 19.6896 12 19.6896ZM16.0154 16.6401H7.98486V6.32031H16.0163L16.0154 16.6401Z" fill="#525C69"/>
</svg>
