<svg width="24" height="24" viewBox="0 0 24 24" fill="none" xmlns="http://www.w3.org/2000/svg">
<path d="M5.34429 14.2184C6.56957 14.2184 7.56285 13.2251 7.56285 11.9998C7.56285 10.7745 6.56957 9.78125 5.34429 9.78125C4.11901 9.78125 3.12573 10.7745 3.12573 11.9998C3.12573 13.2251 4.11901 14.2184 5.34429 14.2184Z" fill="#525C69"/>
<path d="M12 14.2184C13.2252 14.2184 14.2185 13.2251 14.2185 11.9998C14.2185 10.7745 13.2252 9.78125 12 9.78125C10.7747 9.78125 9.78141 10.7745 9.78141 11.9998C9.78141 13.2251 10.7747 14.2184 12 14.2184Z" fill="#525C69"/>
<path d="M20.8742 11.9998C20.8742 13.2251 19.8809 14.2184 18.6556 14.2184C17.4304 14.2184 16.4371 13.2251 16.4371 11.9998C16.4371 10.7745 17.4304 9.78125 18.6556 9.78125C19.8809 9.78125 20.8742 10.7745 20.8742 11.9998Z" fill="#525C69"/>
</svg>
