<svg width="24" height="24" viewBox="0 0 24 24" fill="none" xmlns="http://www.w3.org/2000/svg">
<path d="M18.107 5.16303C18.107 5.02214 18.2692 4.94784 18.371 5.04211L21.9302 8.33879C22.0233 8.42496 22.0233 8.57504 21.9302 8.66121L18.371 11.9579C18.2692 12.0522 18.107 11.9779 18.107 11.837V9.7124C18.0877 9.7204 18.0666 9.7248 18.0446 9.72481C15.983 9.72506 15.002 10.6309 14.2677 11.3499C14.1552 11.4601 13.9702 11.364 14.0041 11.2081C14.291 9.88878 15.0566 6.99063 18.0486 6.98067C18.0691 6.98007 18.0888 6.98364 18.107 6.99063V5.16303Z" fill="#95C500"/>
<path d="M8.4 6H12.9996C12.5629 6.58141 12.25 7.26112 12.1 8H8.4C8.17909 8 8 7.82091 8 7.6V6.4C8 6.17909 8.17909 6 8.4 6Z" fill="#95C500"/>
<path d="M8.4 11H12.416C12.7639 11.7963 13.3132 12.4844 13.9995 13H8.4C8.17909 13 8 12.8209 8 12.6V11.4C8 11.1791 8.17909 11 8.4 11Z" fill="#95C500"/>
<path d="M6 8C6.55228 8 7 7.55228 7 7C7 6.44772 6.55228 6 6 6C5.44772 6 5 6.44772 5 7C5 7.55228 5.44772 8 6 8Z" fill="#95C500"/>
<path d="M19 16.4C19 16.1791 18.8209 16 18.6 16H8.4C8.17909 16 8 16.1791 8 16.4V17.6C8 17.8209 8.17909 18 8.4 18H18.6C18.8209 18 19 17.8209 19 17.6V16.4Z" fill="#95C500"/>
<path d="M6 13C6.55228 13 7 12.5523 7 12C7 11.4477 6.55228 11 6 11C5.44772 11 5 11.4477 5 12C5 12.5523 5.44772 13 6 13Z" fill="#95C500"/>
<path d="M6 18C6.55228 18 7 17.5523 7 17C7 16.4477 6.55228 16 6 16C5.44772 16 5 16.4477 5 17C5 17.5523 5.44772 18 6 18Z" fill="#95C500"/>
</svg>
