<svg width="24" height="25" viewBox="0 0 24 25" fill="none" xmlns="http://www.w3.org/2000/svg">
<path fill-rule="evenodd" clip-rule="evenodd" d="M9.53 9.63488L8.1394 9.75858V16.1439C7.72539 15.9226 7.23761 15.7949 6.7154 15.7949C5.21572 15.7949 4 16.8482 4 18.1474C4 19.4467 5.21572 20.5 6.7154 20.5C8.2136 20.5 9.52762 19.4488 9.53 18.1513M9.53 9.63488V18.1474Z" fill="#BDC1C6"/>
<path d="M8.87045 5.41402C8.45566 5.45485 8.13842 5.82416 8.13842 6.2662V9.76528L17.5678 8.82355V15.1389C17.154 14.9179 16.6666 14.7903 16.1448 14.7903C14.6451 14.7903 13.4294 15.8436 13.4294 17.1429C13.4294 18.4422 14.6451 19.4955 16.1448 19.4955C17.6236 19.4955 18.9648 18.4713 18.998 17.1971L18.9987 17.1429V8.69635L19 8.69623V5.35591C19 4.85203 18.5918 4.45719 18.119 4.50373L8.87045 5.41402Z" fill="#BDC1C6"/>
</svg>
