<svg width="24" height="25" viewBox="0 0 24 25" fill="none" xmlns="http://www.w3.org/2000/svg">
<path fill-rule="evenodd" clip-rule="evenodd" d="M12.7915 6.5292V5.18858C12.7915 4.80829 12.4832 4.5 12.1029 4.5C11.7226 4.5 11.4143 4.80829 11.4143 5.18858V15.8546C10.9728 15.6186 10.4526 15.4824 9.89574 15.4824C8.29647 15.4824 7 16.6056 7 17.9912C7 19.3768 8.29647 20.5 9.89574 20.5C11.4934 20.5 12.7889 19.379 12.7915 17.9953M12.7915 6.5292V17.9912Z" fill="#BDC1C6"/>
<path d="M12.6083 4.70312C12.6083 4.70312 13.829 6.0682 14.844 6.69289C15.5518 7.12856 16.5465 7.44799 17.0836 7.60142C17.3058 7.6649 17.4636 7.86623 17.4636 8.09736V9.86956C17.4636 10.1075 17.2579 10.2901 17.0237 10.2478C16.528 10.1582 15.6814 9.96554 14.844 9.59035C13.5453 9.00846 12.6083 8.25788 12.6083 8.25788L12.6083 4.70312Z" fill="#BDC1C6"/>
</svg>
