<svg width="24" height="25" viewBox="0 0 24 25" fill="none" xmlns="http://www.w3.org/2000/svg">
	<path fill-rule="evenodd" clip-rule="evenodd" d="M3.72266 6.22168C3.72266 5.94554 3.94651 5.72168 4.22266 5.72168H17.2388C17.515 5.72168 17.7388 5.94554 17.7388 6.22168V7.49804C17.7388 7.73172 17.5785 7.92796 17.3619 7.98278V7.97959H12.7282L12.7256 7.99804H4.22266C3.94651 7.99804 3.72266 7.77418 3.72266 7.49804V6.22168ZM4.22266 10.373H12.3862L12.0609 12.6494H4.22266C3.94651 12.6494 3.72266 12.4256 3.72266 12.1494V10.873C3.72266 10.5969 3.94651 10.373 4.22266 10.373ZM4.22266 15.0254H11.3189L9.471 17.3018H4.22266C3.94651 17.3018 3.72266 17.0779 3.72266 16.8018V15.5254C3.72266 15.2492 3.94651 15.0254 4.22266 15.0254ZM21.5301 19.1029C21.5906 19.4107 21.427 19.7206 21.1322 19.8277C19.9053 20.2736 18.522 20.5378 17.055 20.5693H16.4615C14.9874 20.5376 13.5978 20.271 12.3665 19.8212C12.0843 19.7181 11.9194 19.4278 11.9675 19.1313C12.0133 18.8483 12.064 18.5769 12.1158 18.375C12.2929 17.6845 13.2892 17.1717 14.2059 16.7773C14.446 16.674 14.5909 16.5916 14.7373 16.5084C14.8803 16.4271 15.0247 16.3449 15.2607 16.2417C15.2875 16.1146 15.2982 15.9847 15.2927 15.855L15.6988 15.8068C15.6988 15.8068 15.7522 15.9038 15.6665 15.3334C15.6665 15.3334 15.2102 15.2151 15.1891 14.3068C15.1891 14.3068 14.846 14.4209 14.8253 13.8705C14.821 13.7609 14.7927 13.6554 14.7655 13.5544C14.7004 13.3121 14.6421 13.0952 14.939 12.9062L14.7248 12.3351C14.7248 12.3351 14.4995 10.1297 15.4869 10.3083C15.0863 9.67357 18.4649 9.14599 18.6893 11.0894C18.7776 11.6752 18.7776 12.2706 18.6893 12.8564C18.6893 12.8564 19.1941 12.7984 18.8571 13.758C18.8571 13.758 18.6716 14.4488 18.3867 14.2937C18.3867 14.2937 18.4328 15.1665 17.9843 15.3144C17.9843 15.3144 18.0163 15.7793 18.0163 15.8108L18.3912 15.8668C18.3912 15.8668 18.3799 16.2544 18.4547 16.2964C18.7967 16.5173 19.1716 16.6848 19.566 16.7927C20.7301 17.0882 21.3213 17.5953 21.3213 18.0391L21.5301 19.1029Z" fill="#95C500"/>
</svg>