<svg width="24" height="24" viewBox="0 0 24 24" fill="none" xmlns="http://www.w3.org/2000/svg">
<path d="M22.287 7.77421C22.287 9.97029 20.5067 11.7506 18.3106 11.7506C16.1145 11.7506 14.3343 9.97029 14.3343 7.77421C14.3343 5.57813 16.1145 3.79785 18.3106 3.79785C20.5067 3.79785 22.287 5.57813 22.287 7.77421Z" fill="#525C69"/>
<path d="M18.3272 17.5439L18.3272 14.0723C16.6842 14.0245 15.1971 13.3548 14.0932 12.2903L11.263 14.5562L4.19873 8.90053V17.5439C4.19873 18.0777 4.65378 18.5091 5.21471 18.5091H17.3113C17.8735 18.5091 18.3272 18.077 18.3272 17.5439Z" fill="#525C69"/>
<path d="M12.1451 7.55713C12.144 7.60547 12.1435 7.65395 12.1435 7.70255C12.1435 8.81505 12.4285 9.86096 12.9296 10.7712L11.2629 12.0139L5.28544 7.55713H12.1451Z" fill="#525C69"/>
</svg>
