<svg width="24" height="24" viewBox="0 0 24 24" fill="none" xmlns="http://www.w3.org/2000/svg">
<path fill-rule="evenodd" clip-rule="evenodd" d="M6.64706 5H17.3529C18.2626 5 19 5.73741 19 6.64706V12.0249C17.5085 11.2353 15.6481 11.2416 14.1161 12.2034C13.3646 12.6752 12.7859 13.3181 12.3986 14.0499L9.53454 10.7451L6.6897 14.0276V17.3106H11.927C12.0408 17.8708 12.2557 18.4203 12.5775 18.933C12.5917 18.9555 12.6059 18.9778 12.6204 19H6.64706C5.73741 19 5 18.2626 5 17.3529V6.64706C5 5.73741 5.73741 5 6.64706 5ZM14.9368 10.4327C15.6971 10.4327 16.3133 9.81644 16.3133 9.05621C16.3133 8.29598 15.6971 7.67969 14.9368 7.67969C14.1766 7.67969 13.5603 8.29598 13.5603 9.05621C13.5603 9.81644 14.1766 10.4327 14.9368 10.4327Z" fill="#95C500"/>
<path fill-rule="evenodd" clip-rule="evenodd" d="M20.2416 16.3368C20.2416 18.2864 18.6611 19.8669 16.7115 19.8669C14.7619 19.8669 13.1814 18.2864 13.1814 16.3368C13.1814 14.3871 14.7619 12.8066 16.7115 12.8066C18.6611 12.8066 20.2416 14.3871 20.2416 16.3368ZM18.5245 17.545L17.9202 18.1493L16.7116 16.9407L15.503 18.1493L14.8987 17.545L16.1073 16.3364L14.8987 15.1278L15.503 14.5235L16.7116 15.7321L17.9202 14.5235L18.5245 15.1278L17.3159 16.3364L18.5245 17.545Z" fill="#95C500"/>
</svg>
