<svg width="24" height="24" viewBox="0 0 24 24" fill="none" xmlns="http://www.w3.org/2000/svg">
<path fill-rule="evenodd" clip-rule="evenodd" d="M3.01516 5.35683C2.61751 5.75449 2.61751 6.39921 3.01516 6.79687L4.24963 8.03133C4.09055 8.31825 3.99998 8.6484 3.99998 8.9997V14.9997C3.99998 16.1043 4.89541 16.9997 5.99998 16.9997H13.218L14.9083 18.69C15.306 19.0877 15.9507 19.0877 16.3484 18.69C16.746 18.2924 16.746 17.6477 16.3484 17.25L4.45519 5.35683C4.05754 4.95918 3.41281 4.95918 3.01516 5.35683ZM16 14.9997C16 15.0408 15.9987 15.0816 15.9963 15.1221L7.87392 6.9997H14C15.1045 6.9997 16 7.89513 16 8.9997V14.9997ZM21 7.9997L17 9.86787V14.3557L21 15.9997V7.9997Z" fill="#525C69"/>
</svg>
