<svg width="24" height="24" viewBox="0 0 24 24" fill="none" xmlns="http://www.w3.org/2000/svg">
<path fill-rule="evenodd" clip-rule="evenodd" d="M3.34308 5.60541C3.02675 5.92173 3.02675 6.4346 3.34308 6.75092L15.0407 18.4485C15.357 18.7648 15.8699 18.7648 16.1862 18.4485C16.5025 18.1322 16.5025 17.6193 16.1862 17.303L4.48859 5.60541C4.17227 5.28908 3.6594 5.28908 3.34308 5.60541ZM3.99999 15.0003V9.70141L11.2989 17.0003H5.99999C4.89543 17.0003 3.99999 16.1049 3.99999 15.0003ZM16 9.00029V14.9218L8.07849 7.00029H14C15.1046 7.00029 16 7.89572 16 9.00029ZM21 8.62859C21 8.33588 20.6959 8.1423 20.4307 8.26616L17.2307 9.7607C17.09 9.82644 17 9.96775 17 10.1231V14.0882C17 14.2504 17.0979 14.3965 17.2479 14.4582L20.4479 15.7734C20.7112 15.8816 21 15.688 21 15.4034V8.62859Z" fill="#A77BDE"/>
</svg>
