<svg width="24" height="24" viewBox="0 0 24 24" fill="none" xmlns="http://www.w3.org/2000/svg">
<path fill-rule="evenodd" clip-rule="evenodd" d="M20 12C20 16.4183 16.4183 20 12 20C7.58172 20 4 16.4183 4 12C4 7.58172 7.58172 4 12 4C16.4183 4 20 7.58172 20 12ZM10.9939 8.44666C10.9939 7.93918 11.3999 7.5332 11.9074 7.5332H12.0314C12.5389 7.5332 12.9449 7.93918 12.9449 8.44666V11.8637C12.9449 12.3711 12.5389 12.7771 12.0314 12.7771H11.9074C11.3999 12.7771 10.9939 12.3711 10.9939 11.8637V8.44666ZM11.975 16.2273C12.6065 16.2273 13.1253 15.7086 13.1253 15.077C13.1253 14.4455 12.6065 13.9268 11.975 13.9268C11.3435 13.9268 10.8247 14.4455 10.8247 15.077C10.8247 15.7086 11.3435 16.2273 11.975 16.2273Z" fill="#525C69"/>
</svg>
