<svg width="24" height="24" viewBox="0 0 24 24" fill="none" xmlns="http://www.w3.org/2000/svg">
<path fill-rule="evenodd" clip-rule="evenodd" d="M7 5.00001C5.89543 5.00001 5 5.89544 5 7.00001V17C5 18.1046 5.89543 19 7 19H17C18.1046 19 19 18.1046 19 17V10.4308C19 9.76429 18.7338 9.12537 18.2607 8.65597L15.3063 5.72516C14.838 5.26065 14.2052 5 13.5456 5L7 5.00001ZM7.625 9.8125C7.625 9.39829 7.96079 9.0625 8.375 9.0625H14.1212C14.5354 9.0625 14.8712 9.39829 14.8712 9.8125C14.8712 10.2267 14.5354 10.5625 14.1212 10.5625H8.375C7.96079 10.5625 7.625 10.2267 7.625 9.8125ZM7.625 13.1348C7.625 12.7206 7.96079 12.3848 8.375 12.3848H13.0521C13.4663 12.3848 13.8021 12.7206 13.8021 13.1348C13.8021 13.549 13.4663 13.8848 13.0521 13.8848H8.375C7.96079 13.8848 7.625 13.549 7.625 13.1348Z" fill="#95C500"/>
</svg>
