<svg width="24" height="24" viewBox="0 0 24 24" fill="none" xmlns="http://www.w3.org/2000/svg">
<path fill-rule="evenodd" clip-rule="evenodd" d="M12.001 2.48828C11.4163 2.48828 10.9422 2.96234 10.9422 3.54712V4.2802C10.9422 4.86498 11.4163 5.33904 12.001 5.33904C12.5858 5.33904 13.0599 4.86498 13.0599 4.2802V3.54712C13.0599 2.96234 12.5858 2.48828 12.001 2.48828ZM19.3833 17.1578C19.5547 17.1582 19.6975 17.0234 19.6919 16.8521C19.6702 16.1827 19.4753 15.5284 19.1239 14.9542C18.962 14.6558 18.6321 14.326 18.2936 13.9876C17.9156 13.6097 17.5268 13.221 17.3493 12.8536C17.0807 12.2971 16.9194 11.5907 16.7492 10.8457C16.2471 8.64737 15.6685 6.11416 12.0316 6.11416C8.39034 6.11416 7.76935 8.57196 7.22065 10.7437C7.03561 11.4761 6.85878 12.1759 6.57711 12.738C6.35456 13.1801 5.96289 13.5596 5.58303 13.9277C5.22757 14.2721 4.88245 14.6065 4.69588 14.9728C4.40275 15.5534 4.27253 16.2307 4.31643 16.8836C4.32708 17.0421 4.46314 17.1588 4.62197 17.1592C7.08719 17.1648 9.5524 17.1617 12.0176 17.1585C14.4728 17.1554 16.928 17.1522 19.3833 17.1578ZM10.4942 17.9638V18.5831C10.4942 19.4153 11.1688 20.0899 12.001 20.0899C12.8331 20.0899 13.5078 19.4153 13.5078 18.5831V17.9638H10.4942Z" fill="#525C69"/>
</svg>
