<svg width="24" height="24" viewBox="0 0 24 24" fill="none" xmlns="http://www.w3.org/2000/svg">
<path fill-rule="evenodd" clip-rule="evenodd" d="M12.0416 6.65397C12.9107 6.65397 13.5933 6.80841 14.1358 7.07268L4.80905 16.3995C4.82451 15.8975 4.94691 15.3944 5.17059 14.9514C5.34533 14.6083 5.66859 14.295 6.00153 13.9725C6.35733 13.6277 6.72418 13.2723 6.93264 12.8581C7.19646 12.3317 7.36208 11.6762 7.5354 10.9902C8.04934 8.95606 8.63098 6.65397 12.0416 6.65397ZM12.0284 16.9986L10.4942 17.0005L16.4508 11.044L16.4603 11.0858C16.6197 11.7835 16.7708 12.4452 17.0224 12.9664C17.1886 13.3106 17.5527 13.6746 17.9068 14.0286L17.9068 14.0286C18.2239 14.3456 18.5329 14.6545 18.6846 14.9339C19.0137 15.4718 19.1962 16.0846 19.2166 16.7116C19.2218 16.8721 19.088 16.9983 18.9275 16.9979C16.6278 16.9927 14.3281 16.9957 12.0284 16.9986ZM12.0129 3.25781C11.4652 3.25781 11.0212 3.70184 11.0212 4.24957V4.93621C11.0212 5.48394 11.4652 5.92796 12.0129 5.92796C12.5607 5.92796 13.0047 5.48394 13.0047 4.93621V4.24957C13.0047 3.70184 12.5607 3.25781 12.0129 3.25781ZM10.6015 17.7529V18.333C10.6015 19.1124 11.2334 19.7443 12.0129 19.7443C12.7923 19.7443 13.4242 19.1124 13.4242 18.333V17.7529H10.6015ZM19.1264 5.22532C18.7939 4.89287 18.2549 4.89287 17.9225 5.22532L4.87336 18.2744C4.54091 18.6069 4.54091 19.1459 4.87336 19.4783C5.20581 19.8108 5.74482 19.8108 6.07727 19.4783L19.1264 6.42923C19.4588 6.09678 19.4588 5.55777 19.1264 5.22532Z" fill="#525C69"/>
</svg>
