<svg width="24" height="25" viewBox="0 0 24 25" fill="none" xmlns="http://www.w3.org/2000/svg">
<path d="M6.53258 16.8038H4.53555V10.4464L2.57397 11.0195V9.50697L6.34942 8.20122H6.53258V16.8038Z" fill="#525C69"/>
<path d="M14.4189 16.8038H8.41601V15.504L11.1811 12.597C11.8626 11.8211 12.2033 11.2046 12.2033 10.7477C12.2033 10.3775 12.1225 10.0958 11.961 9.90283C11.7995 9.70983 11.5652 9.61332 11.2579 9.61332C10.9546 9.61332 10.7085 9.74331 10.5194 10.0033C10.3303 10.2593 10.2358 10.5803 10.2358 10.9663H8.23876C8.23876 10.4385 8.37071 9.95207 8.63462 9.50697C8.89853 9.05794 9.26485 8.70737 9.73358 8.45528C10.2023 8.20319 10.7262 8.07715 11.3052 8.07715C12.2348 8.07715 12.9497 8.29182 13.4499 8.72116C13.9541 9.1505 14.2062 9.76694 14.2062 10.5705C14.2062 10.9092 14.1432 11.2401 14.0171 11.5631C13.8911 11.8821 13.6942 12.2189 13.4263 12.5734C13.1624 12.924 12.735 13.3947 12.1442 13.9855L11.0334 15.2676H14.4189V16.8038Z" fill="#525C69"/>
<path d="M17.2431 11.6694H18.1825C18.927 11.6694 19.2992 11.3051 19.2992 10.5764C19.2992 10.2928 19.2106 10.0624 19.0333 9.88511C18.8561 9.70392 18.606 9.61332 18.283 9.61332C18.0191 9.61332 17.7886 9.69013 17.5917 9.84375C17.3987 9.99737 17.3022 10.1884 17.3022 10.4169H15.3111C15.3111 9.96389 15.4371 9.56015 15.6892 9.20565C15.9413 8.85114 16.2899 8.57542 16.735 8.37848C17.184 8.17759 17.6764 8.07715 18.2121 8.07715C19.1692 8.07715 19.9216 8.29576 20.4691 8.73298C21.0166 9.1702 21.2903 9.77088 21.2903 10.535C21.2903 10.9053 21.1761 11.2558 20.9477 11.5867C20.7231 11.9136 20.3942 12.1795 19.961 12.3843C20.4179 12.5498 20.7763 12.8019 21.0363 13.1406C21.2962 13.4754 21.4262 13.891 21.4262 14.3873C21.4262 15.1554 21.1308 15.7698 20.54 16.2307C19.9491 16.6915 19.1732 16.922 18.2121 16.922C17.6488 16.922 17.1249 16.8156 16.6405 16.6029C16.1599 16.3863 15.7956 16.0889 15.5474 15.7108C15.2993 15.3287 15.1752 14.8954 15.1752 14.4109H17.1781C17.1781 14.6748 17.2845 14.9033 17.4972 15.0963C17.7099 15.2893 17.9718 15.3858 18.283 15.3858C18.6335 15.3858 18.9132 15.2893 19.122 15.0963C19.3307 14.8993 19.4351 14.6492 19.4351 14.3459C19.4351 13.9126 19.3268 13.6054 19.1102 13.4242C18.8935 13.243 18.5942 13.1524 18.2121 13.1524H17.2431V11.6694Z" fill="#525C69"/>
</svg>
