<svg width="24" height="25" viewBox="0 0 24 25" fill="none" xmlns="http://www.w3.org/2000/svg">
	<path d="M17.9151 5.46189C17.798 5.34473 17.608 5.34473 17.4909 5.46189L5.18721 17.7655C5.07006 17.8827 5.07006 18.0727 5.18721 18.1898L6.7143 19.7169C6.83146 19.8341 7.02141 19.8341 7.13857 19.7169L9.7808 17.0747C10.3442 17.8329 11.2466 18.3241 12.2637 18.3241C13.971 18.3241 15.3551 16.94 15.3551 15.2327C15.3551 14.2156 14.8639 13.3132 14.1057 12.7498L15.9864 10.869C17.1404 11.2936 18.2016 11.9099 19.1316 12.6793C19.3368 12.8491 19.639 12.8425 19.8273 12.6541L21.0795 11.402C21.2803 11.2011 21.2743 10.8729 21.0584 10.6884C20.1637 9.92379 19.1682 9.27374 18.0946 8.76091L19.4422 7.41325C19.5594 7.29609 19.5594 7.10614 19.4422 6.98898L17.9151 5.46189Z" fill="#8DBB00"/>
	<path d="M12.2636 7.44507C12.5561 7.44507 12.8463 7.45434 13.1341 7.47259L10.2005 10.4062C8.31778 10.771 6.60984 11.6258 5.21467 12.8324C5.00985 13.0096 4.7015 13.0063 4.51002 12.8148L3.26039 11.5652C3.0621 11.3669 3.06504 11.0436 3.27475 10.8575C5.66613 8.73442 8.81431 7.44507 12.2636 7.44507Z" fill="#8DBB00"/>
</svg>