<svg width="24" height="24" viewBox="0 0 24 24" fill="none" xmlns="http://www.w3.org/2000/svg">
<path d="M7.57752 11.9998L10.6101 15.0324L11.7895 13.853L9.93627 11.9998L11.7895 10.1466L10.6101 8.96719L7.57752 11.9998Z" fill="#95C500"/>
<path fill-rule="evenodd" clip-rule="evenodd" d="M8.29358 4.58691C6.24658 4.58691 4.58716 6.24634 4.58716 8.29333V15.7062C4.58716 17.7532 6.24658 19.4126 8.29358 19.4126H15.7064C17.7534 19.4126 19.4128 17.7532 19.4128 15.7062V8.29333C19.4128 6.24634 17.7534 4.58691 15.7064 4.58691H8.29358ZM6.44037 8.29333C6.44037 7.26984 7.27008 6.44012 8.29358 6.44012H13.3899V17.5594H8.29358C7.27008 17.5594 6.44037 16.7297 6.44037 15.7062V8.29333ZM15.2431 17.5594H15.7064C16.7299 17.5594 17.5596 16.7297 17.5596 15.7062V8.29333C17.5596 7.26984 16.7299 6.44012 15.7064 6.44012H15.2431V17.5594Z" fill="#95C500"/>
</svg>
