<svg width="24" height="24" viewBox="0 0 24 24" fill="none" xmlns="http://www.w3.org/2000/svg">
<path fill-rule="evenodd" clip-rule="evenodd" d="M18.6112 16.9242C20.8516 13.8157 20.3526 9.51273 17.448 6.90615C14.5603 4.32051 10.1745 4.31882 7.36582 6.90244C4.54124 9.50665 4.17349 13.8093 6.50922 16.9191C8.81916 20.0174 13.1283 20.8914 16.42 18.9296C16.4499 18.9515 16.4814 18.9701 16.5154 18.985L18.5634 19.5274C18.7401 19.5736 18.9267 19.5237 19.0526 19.3957C19.1791 19.2663 19.226 19.0802 19.1768 18.9053L18.6112 16.9242ZM14.7376 13.903C14.6143 13.7662 14.4214 13.7105 14.2435 13.7601C14.0625 13.8173 13.9274 13.9646 13.89 14.1469C13.8453 14.3333 13.8984 14.5306 14.032 14.6745L14.2932 14.9497H9.57063C9.33429 14.9628 9.15522 15.1582 9.16859 15.3886L9.17202 15.6021C9.16553 15.8325 9.35109 16.0283 9.58819 16.0407H14.3142L14.0618 16.3166C13.9331 16.4601 13.8862 16.6571 13.9366 16.8438C13.9797 17.0261 14.1191 17.1735 14.3027 17.2306C14.4818 17.2806 14.6727 17.2246 14.7922 17.0878L15.8979 15.8821C16.0922 15.6607 16.0869 15.3319 15.8857 15.1105L14.7376 13.903ZM10.3743 11.206C10.5114 11.206 10.6416 11.1481 10.7302 11.0474C10.9241 10.8264 10.9188 10.4975 10.7179 10.2762L10.4572 10.0007H15.1835C15.4202 9.98828 15.5997 9.79285 15.5856 9.56209L15.5821 9.34936C15.589 9.1186 15.4031 8.92242 15.166 8.91077H10.44L10.6927 8.63491C10.8859 8.41429 10.8802 8.08581 10.6786 7.86595C10.5874 7.76485 10.456 7.7066 10.3186 7.70622C10.1811 7.70547 10.0513 7.76297 9.96198 7.8637L8.85627 9.072C8.66193 9.29261 8.66728 9.62184 8.86849 9.84246L10.0128 11.0474C10.1048 11.1481 10.2365 11.206 10.3743 11.206ZM9.68324 11.9629L9.68209 11.9636C9.44537 11.9757 9.26593 12.1715 9.27967 12.4022L9.28311 12.6187C9.27662 12.8495 9.46255 13.0449 9.69927 13.0573H15.4122C15.6489 13.0449 15.8284 12.8495 15.8146 12.6187L15.8108 12.4045C15.8184 12.1726 15.6329 11.9757 15.395 11.9629H9.68324Z" fill="#525C69"/>
</svg>
