<svg width="24" height="24" viewBox="0 0 24 24" fill="none" xmlns="http://www.w3.org/2000/svg">
<path fill-rule="evenodd" clip-rule="evenodd" d="M19.1499 11.7674C18.4951 12.7032 15.1412 17.1959 11.1022 17.1959C7.06321 17.1959 3.70933 12.7032 3.05456 11.7674C2.98181 11.6634 2.98181 11.5324 3.05456 11.4284C3.70933 10.4927 7.06321 6 11.1022 6C15.1412 6 18.4951 10.4927 19.1499 11.4284C19.2226 11.5324 19.2226 11.6634 19.1499 11.7674ZM13.9576 11.5979C13.9576 13.175 12.6792 14.4534 11.1021 14.4534C9.52496 14.4534 8.24654 13.175 8.24654 11.5979C8.24654 10.0208 9.52496 8.74239 11.1021 8.74239C12.6792 8.74239 13.9576 10.0208 13.9576 11.5979Z" fill="#525C69"/>
</svg>
