<svg width="24" height="24" viewBox="0 0 24 24" fill="none" xmlns="http://www.w3.org/2000/svg">
	<path fill-rule="evenodd" clip-rule="evenodd" d="M11.3943 8.03543V18.999C9.52996 17.8621 7.29015 17.1438 4.67293 16.8442C4.29103 16.8008 4 16.5324 4 16.2062V6.6857C4 6.30336 4.38531 6.00199 4.83484 6.04074C6.09437 6.14987 8.62886 6.55361 11.3943 8.03543ZM12.6058 18.9422C14.9151 17.4722 18.029 16.935 19.3571 16.7644C19.7295 16.717 20 16.4445 20 16.1258V6.64695C20 6.25419 19.5908 5.95803 19.131 6.00488C16.5553 6.26746 14.38 6.94347 12.6058 8.03293V18.9422ZM9.95089 10.4559C8.88294 9.98842 7.60605 9.66337 6.12133 9.47703C5.7481 9.43019 5.40069 9.64839 5.34537 9.9644C5.29004 10.2804 5.54776 10.5746 5.92099 10.6214C7.26462 10.79 8.39838 11.0787 9.32339 11.4836C9.65856 11.6303 10.0707 11.5192 10.244 11.2354C10.4173 10.9516 10.2861 10.6026 9.95089 10.4559ZM9.95089 12.95C8.88294 12.4826 7.60605 12.1575 6.12133 11.9712C5.7481 11.9243 5.40069 12.1425 5.34537 12.4585C5.29004 12.7746 5.54776 13.0687 5.92099 13.1155C7.26462 13.2842 8.39838 13.5728 9.32339 13.9777C9.65856 14.1244 10.0707 14.0133 10.244 13.7295C10.4173 13.4457 10.2861 13.0968 9.95089 12.95ZM17.9946 11.9712C16.5099 12.1575 15.233 12.4826 14.1651 12.95C13.8299 13.0968 13.6987 13.4457 13.872 13.7295C14.0452 14.0133 14.4574 14.1244 14.7926 13.9777C15.7176 13.5728 16.8514 13.2842 18.195 13.1155C18.5682 13.0687 18.8259 12.7746 18.7706 12.4585C18.7153 12.1425 18.3679 11.9243 17.9946 11.9712ZM14.1651 10.4559C15.233 9.98842 16.5099 9.66337 17.9946 9.47703C18.3679 9.43019 18.7153 9.64839 18.7706 9.9644C18.8259 10.2804 18.5682 10.5746 18.195 10.6214C16.8514 10.79 15.7176 11.0787 14.7926 11.4836C14.4574 11.6303 14.0452 11.5192 13.872 11.2354C13.6987 10.9516 13.8299 10.6026 14.1651 10.4559Z" fill="#525C69"/>
</svg>