<svg width="24" height="24" viewBox="0 0 24 24" fill="none" xmlns="http://www.w3.org/2000/svg">
<path fill-rule="evenodd" clip-rule="evenodd" d="M15.0112 5.03625C14.6961 4.72119 14.9193 4.18266 15.3647 4.18262L19.3145 4.1827C19.5906 4.18262 19.8145 4.40652 19.8144 4.68265L19.8145 8.63242C19.8145 9.07786 19.2759 9.30098 18.9609 8.98593L17.6931 7.71819L14.3898 11.0215C14.1946 11.2167 13.878 11.2167 13.6827 11.0215L12.9756 10.3144C12.7804 10.1191 12.7804 9.80253 12.9756 9.60728L16.2789 6.30398L15.0112 5.03625ZM18.6799 15.4117L16.723 13.9454C16.0281 13.4233 14.9965 13.6747 14.4893 14.3914L13.9092 15.2138C13.7843 15.3841 13.5272 15.4375 13.3482 15.3342C11.553 14.1631 10.018 12.5289 8.9556 10.6641C8.85431 10.471 8.9069 10.219 9.09568 10.0988L9.91721 9.55046C10.6526 9.05964 10.9554 8.05859 10.476 7.32386L9.10743 5.32228C8.69267 4.70583 7.82454 4.62209 7.2796 5.12821C5.23371 7.08339 4.3412 10.4798 8.82895 15.2244C13.3166 19.969 16.7255 19.21 18.7714 17.2548C19.317 16.7485 19.2711 15.8608 18.6799 15.4117Z" fill="#525C69"/>
</svg>
