<svg width="24" height="24" viewBox="0 0 24 24" fill="none" xmlns="http://www.w3.org/2000/svg">
<path fill-rule="evenodd" clip-rule="evenodd" d="M10.5796 4.02832L18.9517 12.4004C19.186 12.6347 19.186 13.0146 18.9517 13.2489C18.8599 13.3407 18.7408 13.4003 18.6123 13.4186L17.1109 13.6331L11.9326 18.8114C10.761 19.983 8.86148 19.983 7.68991 18.8114L3.86452 14.9861C2.69295 13.8145 2.69295 11.915 3.86452 10.7434L6.61911 7.98883L7.81836 9.18808L5.29295 11.6186C4.94473 11.9668 4.75175 12.4115 4.71404 12.8667L15.6723 12.4742L15.6448 12.5023L16.6623 12.3445L10.7168 6.39898L10.0603 7.0304L11.6605 8.63077C11.8167 8.78698 11.8167 9.04025 11.6605 9.19646L10.9459 9.91106C10.7896 10.0673 10.5364 10.0673 10.3802 9.91106L6.07522 5.60611C5.91901 5.4499 5.91901 5.19664 6.07522 5.04043L6.78983 4.32582C6.94604 4.16961 7.19931 4.16961 7.35552 4.32582L8.81862 5.78872L10.5796 4.02832ZM18.8817 13.7716C19.1831 13.7716 20.913 16.1228 20.913 17.2447C20.913 18.3665 20.0036 19.276 18.8817 19.276C17.7598 19.276 16.8504 18.3665 16.8504 17.2447C16.8504 16.1228 18.5803 13.7716 18.8817 13.7716Z" fill="#525C69"/>
</svg>
