<svg width="24" height="24" viewBox="0 0 24 24" fill="none" xmlns="http://www.w3.org/2000/svg">
<path fill-rule="evenodd" clip-rule="evenodd" d="M17.1466 9.36039C17.7051 9.3732 18.3507 9.38226 18.9828 9.21659C19.3629 9.11703 19.4226 8.97712 19.2581 8.62225C18.4187 6.81133 17.074 5.48195 15.3968 4.47326C14.7823 4.10373 14.1043 3.82757 13.3999 3.84576C12.214 3.87641 11.6558 4.63857 11.8011 5.87631C11.9227 6.91204 12.3599 7.84664 12.9699 8.69491C13.0882 8.85936 13.2144 8.96373 13.4072 9.00459C14.612 9.25954 15.8289 9.38269 17.1466 9.36039M11.0728 5.36328C10.9895 5.40263 10.9639 5.40759 10.9487 5.42299C9.33455 7.05759 7.7031 8.67508 6.11468 10.3349C5.1527 11.3402 4.87787 12.5407 5.50643 13.8345C6.45329 15.7832 7.9148 17.2287 9.85403 18.1602C10.4903 18.4659 11.1712 18.5173 11.8603 18.3528C12.4994 18.2002 12.9856 17.7931 13.436 17.3419C14.7896 15.9859 16.1377 14.6243 17.482 13.2589C17.684 13.0538 17.9474 12.9092 18.1354 12.6121C17.1964 12.6088 16.3571 12.3692 15.5571 11.9875C14.3412 11.4074 13.3945 10.4825 12.5213 9.47947C12.0439 8.93103 11.6299 8.32842 11.3842 7.62697C11.1332 6.9102 11.0333 6.16961 11.0728 5.36328M10.9571 19.5128C10.187 19.5024 9.52928 19.1616 8.89546 18.7735C7.75814 18.0772 6.81675 17.1444 5.95142 16.1388C5.26413 15.3401 4.64956 14.4815 4.36649 13.4331C4.29838 13.181 4.24271 12.1204 4.24392 12.0953C4.28724 11.2192 4.72001 10.5246 5.29879 9.93056C7.20116 7.97828 9.11894 6.0414 11.0426 4.11063C11.499 3.65254 12.0462 3.33531 12.6778 3.15151C12.9019 3.08626 13.4957 3.10417 13.5522 3.10288C14.2375 3.08713 14.8504 3.33322 15.4236 3.67477C17.048 4.64275 18.3524 5.96479 19.4443 7.50559C20.0719 8.39105 20.5142 9.35212 20.4459 10.4852C20.4225 10.8744 20.2961 11.2464 20.2958 11.6421C20.2954 12.1319 20.4118 12.6027 20.4671 13.0829C20.5096 13.4517 20.5925 13.8158 20.6575 14.182C20.6575 14.4217 20.608 15.1633 20.588 15.2948C20.4612 16.1287 20.2643 16.5823 19.6865 16.6587C19.3555 16.7026 19.0725 16.5835 18.8231 16.4065C18.1141 15.903 17.7789 15.3977 18.4032 14.4687C18.5582 14.2382 18.7741 14.0688 18.9488 13.8598C19.2313 13.522 19.4322 13.1496 19.3802 12.6593C19.3043 12.6774 19.2955 12.7485 19.256 12.7888C17.4821 14.5974 15.7074 16.4052 13.9282 18.2085C13.3556 18.7889 12.7279 19.2823 11.9153 19.4853C11.7519 19.5261 10.9951 19.5134 10.9571 19.5128" fill="#525C69"/>
</svg>
