<svg xmlns="http://www.w3.org/2000/svg" width="24" height="24" fill="none"><path fill="#525C69" d="M4.22 6.043a.51.51 0 0 1 .51-.51h12.562a.51.51 0 0 1 .51.51v2.838a.51.51 0 0 1-.51.51H4.73a.51.51 0 0 1-.51-.51V6.043ZM4.216 15.182a.51.51 0 0 1 .51-.51h12.562a.51.51 0 0 1 .51.51v2.831a.51.51 0 0 1-.51.51H4.726a.51.51 0 0 1-.51-.51v-2.831Z"/><path fill="#525C69" d="M15.703 3.603c0-.36.418-.541.662-.286l3.581 3.74a.417.417 0 0 1 0 .573l-3.581 3.741c-.244.255-.662.075-.662-.286V3.603ZM15.703 12.953c0-.36.418-.54.662-.286l3.581 3.741a.418.418 0 0 1 0 .573l-3.581 3.74c-.244.256-.662.075-.662-.285v-7.483Z"/></svg>