<svg width="24" height="24" viewBox="0 0 24 24" fill="none" xmlns="http://www.w3.org/2000/svg">
	<path fill-rule="evenodd" clip-rule="evenodd" d="M6.89826 13.4719L6.89826 7.09378C6.89826 6.98625 6.98625 6.89826 7.09378 6.89826L13.4719 6.89826C13.5794 6.89826 13.6675 6.98625 13.6675 7.09378V7.40131L15.5658 7.40131V5.64035C15.5658 5.28816 15.2775 5 14.9254 5L5.64035 5C5.28816 5 5 5.28816 5 5.64035L5 14.9254C5 15.2775 5.28816 15.5658 5.64035 15.5658H7.29458L7.29458 13.6674H7.09378C6.98625 13.6674 6.89826 13.5795 6.89826 13.4719ZM17.1209 16.9137C17.1209 17.0276 17.0278 17.1207 16.9139 17.1207H10.1614C10.0475 17.1207 9.95435 17.0276 9.95435 16.9137L9.95435 10.1611C9.95435 10.0473 10.0475 9.9541 10.1614 9.9541L16.9139 9.9541C17.0278 9.9541 17.1209 10.0473 17.1209 10.1611V16.9137ZM18.2686 8.05447L8.71345 8.05447C8.35101 8.05447 8.05447 8.35101 8.05447 8.71345L8.05447 18.2686C8.05447 18.631 8.35101 18.9276 8.71345 18.9276H18.2686C18.631 18.9276 18.9276 18.631 18.9276 18.2686V8.71345C18.9276 8.35101 18.631 8.05447 18.2686 8.05447Z" fill="#525C69"/>
</svg>
