<svg width="24" height="24" viewBox="0 0 24 24" fill="none" xmlns="http://www.w3.org/2000/svg">
<path d="M11.3432 10.0343L9.93557 8.674L10.5874 8.03872L11.3432 8.76373L13.1727 7.00385L13.8246 7.63913L11.3432 10.0343Z" fill="#525C69"/>
<path fill-rule="evenodd" clip-rule="evenodd" d="M17.6472 4.72604C17.6472 4.02142 17.0752 3.44238 16.3636 3.44238H7.25949C6.55486 3.44238 5.97583 4.01445 5.97583 4.72604V11.4647C5.97583 11.5361 6.16081 11.8265 6.34251 12.1118C6.51789 12.3872 6.6902 12.6577 6.6902 12.7219V19.6971C6.6902 20.4018 7.26227 20.9808 7.97386 20.9808H15.6491C16.3537 20.9808 16.9327 20.4087 16.9327 19.6971L16.9329 12.7835C16.9329 12.7128 17.1182 12.4226 17.3001 12.138C17.4753 11.8638 17.6472 11.5947 17.6472 11.5316L17.6472 4.72604ZM7.85945 4.95207H15.7636C15.938 4.95207 16.0776 5.09159 16.0776 5.266C16.0776 5.44041 15.938 5.57994 15.7636 5.57994H7.85945C7.68504 5.57994 7.54552 5.44041 7.54552 5.266C7.54552 5.09159 7.68504 4.95207 7.85945 4.95207ZM7.54566 6.66824C7.54566 6.49383 7.68519 6.3543 7.8596 6.3543H15.7638C15.9382 6.3543 16.0777 6.49383 16.0777 6.66824V10.4592C16.0777 10.6336 15.9382 10.7731 15.7638 10.7731H7.8596C7.68519 10.7731 7.54566 10.6336 7.54566 10.4592V6.66824ZM14.9992 14.1116H14.086C13.7633 14.1116 13.5015 13.8498 13.5015 13.5271C13.5015 13.2045 13.7633 12.9427 14.086 12.9427H14.9992C15.3218 12.9427 15.5836 13.2045 15.5836 13.5271C15.5836 13.8498 15.3218 14.1116 14.9992 14.1116ZM11.3586 14.1117H12.2718C12.5944 14.1117 12.8562 13.8499 12.8562 13.5273C12.8562 13.2046 12.5944 12.9428 12.2718 12.9428H11.3586C11.0359 12.9428 10.7741 13.2046 10.7741 13.5273C10.7741 13.8499 11.0359 14.1117 11.3586 14.1117ZM9.54436 14.1118H8.63116C8.30849 14.1118 8.04672 13.85 8.04672 13.5274C8.04672 13.2047 8.3085 12.9429 8.63116 12.9429H9.54436C9.86704 12.9429 10.1288 13.2047 10.1288 13.5274C10.1288 13.85 9.86702 14.1118 9.54436 14.1118ZM8.63116 16.2487H9.54436C9.86702 16.2487 10.1288 15.9869 10.1288 15.6643C10.1288 15.3416 9.86704 15.0798 9.54436 15.0798H8.63116C8.3085 15.0798 8.04672 15.3416 8.04672 15.6643C8.04672 15.9869 8.30849 16.2487 8.63116 16.2487ZM8.63116 18.3795H9.54436C9.86702 18.3795 10.1288 18.1177 10.1288 17.795C10.1288 17.4724 9.86704 17.2106 9.54436 17.2106H8.63116C8.3085 17.2106 8.04672 17.4724 8.04672 17.795C8.04672 18.1177 8.30849 18.3795 8.63116 18.3795ZM11.3586 18.3793H12.2718C12.5944 18.3793 12.8562 18.1176 12.8562 17.7949C12.8562 17.4722 12.5944 17.2105 12.2718 17.2105H11.3586C11.0359 17.2105 10.7741 17.4722 10.7741 17.7949C10.7741 18.1176 11.0359 18.3793 11.3586 18.3793ZM12.8562 15.6641C12.8562 15.9868 12.5944 16.2486 12.2718 16.2486H11.3586C11.0359 16.2486 10.7741 15.9868 10.7741 15.6641C10.7741 15.3415 11.0359 15.0797 11.3586 15.0797H12.2718C12.5944 15.0797 12.8562 15.3415 12.8562 15.6641ZM14.9992 18.3792H14.086C13.7633 18.3792 13.5015 18.1174 13.5015 17.7948C13.5015 17.4721 13.7633 17.2103 14.086 17.2103H14.9992C15.3218 17.2103 15.5836 17.4721 15.5836 17.7948C15.5836 18.1174 15.3218 18.3792 14.9992 18.3792ZM14.086 16.2485H14.9992C15.3218 16.2485 15.5836 15.9867 15.5836 15.664C15.5836 15.3413 15.3218 15.0796 14.9992 15.0796H14.086C13.7633 15.0796 13.5015 15.3413 13.5015 15.664C13.5015 15.9867 13.7633 16.2485 14.086 16.2485Z" fill="#525C69"/>
</svg>
