<svg width="24" height="24" viewBox="0 0 24 24" fill="none" xmlns="http://www.w3.org/2000/svg">
<path d="M14.872 14.7295C14.872 14.7295 15.3699 16.6051 15.6539 17.9919C15.7041 18.2372 15.5602 18.4795 15.3201 18.5503C13.7718 19.0067 12.016 19.2655 10.1548 19.268H10.0992C7.83192 19.2649 5.72098 18.8816 3.95125 18.2238C3.59781 18.0925 3.40206 17.7203 3.47478 17.3503C3.6484 16.467 3.83869 15.5288 3.93808 15.1361C4.14927 14.3016 5.3326 13.6816 6.42099 13.205C6.70551 13.0805 6.87716 12.9811 7.05062 12.8806C7.2205 12.7822 7.39213 12.6828 7.67326 12.5578C7.70499 12.4044 7.71774 12.2477 7.71123 12.0911L8.1935 12.0328C8.1935 12.0328 8.25689 12.1501 8.15494 11.4606C8.15494 11.4606 7.61367 11.3162 7.58855 10.2184C7.58855 10.2184 7.18193 10.3563 7.15739 9.69107C7.15241 9.55801 7.11878 9.43016 7.08659 9.30774C7.00947 9.0145 6.94054 8.75241 7.29293 8.52443L7.03851 7.83494C7.03851 7.83494 6.77152 5.168 7.94404 5.38499C7.46849 4.6188 11.4803 3.98123 11.7467 6.33026C11.8515 7.03836 11.8515 7.758 11.7467 8.46609C11.7467 8.46609 12.3461 8.39609 11.9459 9.55574C11.9459 9.55574 11.7257 10.3893 11.3874 10.2012C11.3874 10.2012 11.4423 11.2561 10.9095 11.4349C10.9095 11.4349 10.9475 11.9966 10.9475 12.0349L11.393 12.104C11.393 12.104 11.3807 12.5724 11.4683 12.6231C11.8744 12.8901 12.3195 13.0925 12.7878 13.2231C14.1709 13.5801 14.872 14.1928 14.872 14.7295Z" fill="#525C69"/>
<path d="M21.0205 15.2542C21.031 15.4621 21.0428 15.6981 21.0548 15.9373C21.0728 16.2952 20.8508 16.6229 20.5075 16.7257C19.3899 17.0604 18.1229 17.3309 16.7485 17.5217H16.3163C16.2903 17.1556 15.9587 15.8876 15.7662 15.1519C15.6899 14.8602 15.6355 14.6521 15.6307 14.6171C15.6058 13.9241 14.9962 13.3052 13.954 12.8823C14.0328 12.7757 14.1004 12.6612 14.1555 12.5407C14.3017 12.3594 14.4923 12.2187 14.7088 12.1324L14.7254 11.5899L13.5812 11.2324C13.5812 11.2324 13.2871 11.095 13.2579 11.095C13.2917 11.0115 13.3341 10.9318 13.3844 10.857C13.4063 10.7987 13.5447 10.3635 13.5447 10.3635C13.3781 10.5775 13.1827 10.7675 12.964 10.9282C13.1642 10.5746 13.3339 10.2047 13.4714 9.82247C13.5621 9.45455 13.6229 9.07991 13.6531 8.7022C13.7315 8.01581 13.8538 7.33514 14.0194 6.66437C14.1382 6.32965 14.3476 6.03436 14.6244 5.81126C15.0332 5.5276 15.5105 5.35795 16.0069 5.31982H16.0653C16.5626 5.35763 17.0408 5.52729 17.4505 5.81126C17.7275 6.03393 17.937 6.32909 18.0558 6.66379C18.2211 7.33461 18.3436 8.01526 18.4223 8.70162C18.4576 9.07094 18.5214 9.437 18.6131 9.79651C18.7505 10.1855 18.9173 10.5635 19.112 10.9273C18.8929 10.7671 18.6971 10.5773 18.5301 10.3635C18.5301 10.3635 18.6379 10.7584 18.6595 10.8167C18.7187 10.9049 18.7714 10.9972 18.8173 11.0929C18.7889 11.0929 18.4939 11.2303 18.4939 11.2303L17.3497 11.5879L17.3661 12.1307C17.5828 12.2167 17.7734 12.3574 17.9193 12.539C17.9886 12.7133 18.0982 12.8687 18.2392 12.9925C18.5152 13.0885 18.7814 13.2108 19.034 13.3577C19.4165 13.5702 19.6492 13.6309 20.0108 13.8534C20.6939 14.2737 20.9838 14.5246 21.0204 15.2515L21.0205 15.2542Z" fill="#525C69"/>
</svg>
