<svg width="24" height="24" viewBox="0 0 24 24" fill="none" xmlns="http://www.w3.org/2000/svg">
<path d="M18.6102 18.7826C19.0562 18.6205 19.3037 18.1517 19.2122 17.686L18.8963 16.0768C18.8963 15.4053 18.0019 14.6382 16.2409 14.1912C15.6442 14.0278 15.077 13.7745 14.5596 13.4403C14.4464 13.3768 14.4636 12.7904 14.4636 12.7904L13.8964 12.7056C13.8964 12.658 13.8479 11.9547 13.8479 11.9547C14.5265 11.7309 14.4567 10.4105 14.4567 10.4105C14.8877 10.6451 15.1684 9.60016 15.1684 9.60016C15.6781 8.14839 14.9145 8.23617 14.9145 8.23617C15.0481 7.34989 15.0481 6.44915 14.9145 5.56287C14.575 2.62285 9.46373 3.42099 10.0698 4.38119C8.57596 4.11109 8.91682 7.44748 8.91682 7.44748L9.24084 8.31146C8.79173 8.5974 8.87993 8.92555 8.97844 9.29212C9.01952 9.44494 9.06238 9.60443 9.06886 9.77033C9.10016 10.6029 9.6192 10.4304 9.6192 10.4304C9.65119 11.8045 10.3415 11.9834 10.3415 11.9834C10.4712 12.8464 10.3904 12.6995 10.3904 12.6995L9.77605 12.7725C9.78436 12.9687 9.76807 13.1652 9.72755 13.3576C9.37062 13.5137 9.1521 13.638 8.93575 13.761C8.71426 13.8869 8.49503 14.0116 8.1319 14.1679C6.74504 14.7644 5.23779 15.5403 4.96984 16.5849C4.8915 16.8903 4.81478 17.3009 4.74543 17.729C4.67275 18.1776 4.92217 18.6168 5.34907 18.7728C7.21183 19.4533 9.31409 19.8566 11.5441 19.9044H12.442C14.6614 19.8568 16.7541 19.4572 18.6102 18.7826Z" fill="#525C69"/>
</svg>
