<svg width="24" height="24" viewBox="0 0 24 24" fill="none" xmlns="http://www.w3.org/2000/svg">
<path fill-rule="evenodd" clip-rule="evenodd" d="M10.2218 14.013L12.4195 19.5347C12.1455 19.5519 11.8692 19.5636 11.5909 19.5696H10.6998C8.51976 19.5223 6.46438 19.1286 4.64215 18.4646C4.21514 18.309 3.96567 17.8697 4.03859 17.4211C4.10598 17.0066 4.18036 16.6099 4.25628 16.3139C4.51908 15.2894 5.99735 14.5284 7.35754 13.9433C7.71369 13.7901 7.9287 13.6678 8.14593 13.5443C8.35813 13.4236 8.57245 13.3018 8.92251 13.1486C8.96226 12.96 8.97823 12.7672 8.97008 12.5748L9.57259 12.5032C9.57259 12.5032 9.65186 12.6473 9.52468 11.8009C9.52468 11.8009 8.84762 11.6254 8.81625 10.2777C8.81625 10.2777 8.30718 10.4469 8.27649 9.63035C8.27013 9.46764 8.22809 9.31121 8.18781 9.16133C8.09119 8.80181 8.00469 8.47997 8.44516 8.19953L8.12738 7.35216C8.12738 7.35216 7.79306 4.07993 9.25817 4.34483C8.66376 3.40309 13.6768 2.6203 14.0098 5.50379C14.1408 6.37302 14.1408 7.25645 14.0098 8.12569C14.0098 8.12569 14.7587 8.03959 14.2587 9.46346C14.2587 9.46346 13.9834 10.4883 13.5607 10.2582C13.5607 10.2582 13.5908 10.826 13.4178 11.2734H12.0801C10.6666 11.2734 9.69918 12.6997 10.2218 14.013ZM21.6483 13.0168H12.1484C12.0991 13.0168 12.0501 13.0247 12.0035 13.0401C11.7717 13.1165 11.6488 13.3579 11.7288 13.5793L12.0135 14.3667C12.0753 14.5377 12.2438 14.6523 12.4331 14.6523H21.3613C21.5502 14.6523 21.7184 14.5381 21.7805 14.3677L22.0675 13.5803C22.0839 13.5355 22.0922 13.4883 22.0922 13.4409C22.0922 13.2067 21.8935 13.0168 21.6483 13.0168ZM20.0836 16.0401H13.7131C13.6625 16.0401 13.6122 16.0483 13.5646 16.0645C13.3335 16.1428 13.2127 16.3852 13.2947 16.6059L13.5874 17.3934C13.6503 17.5625 13.8178 17.6756 14.0057 17.6756H19.7745C19.9595 17.6756 20.1252 17.5659 20.1901 17.4004L20.4993 16.6129C20.5179 16.5653 20.5275 16.5149 20.5275 16.4641C20.5275 16.2299 20.3288 16.0401 20.0836 16.0401ZM18.1058 19.0728H15.6909C15.6433 19.0728 15.596 19.0801 15.5509 19.0944C15.3182 19.1683 15.1923 19.4083 15.2696 19.6305L15.5437 20.418C15.604 20.5913 15.7737 20.7083 15.9649 20.7083H17.8585C18.0546 20.7083 18.2274 20.5854 18.2838 20.406L18.531 19.6186C18.5434 19.5791 18.5497 19.538 18.5497 19.4968C18.5497 19.2626 18.351 19.0728 18.1058 19.0728Z" fill="#525C69"/>
</svg>
