<svg width="24" height="24" viewBox="0 0 24 24" fill="none" xmlns="http://www.w3.org/2000/svg">
<path fill-rule="evenodd" clip-rule="evenodd" d="M10.1447 15.0733V19.7029H9.83126C7.7936 19.6592 5.87146 19.2942 4.16473 18.6778C3.73726 18.5235 3.48749 18.0839 3.56122 17.6355C3.62275 17.2612 3.6902 16.9051 3.759 16.6369C4.00649 15.6721 5.39864 14.9555 6.67959 14.4044C7.015 14.2601 7.21748 14.145 7.42206 14.0286C7.62189 13.915 7.82372 13.8002 8.15339 13.656C8.19082 13.4784 8.20587 13.2969 8.19818 13.1156L8.76559 13.0482C8.76559 13.0482 8.84025 13.1839 8.72048 12.3868C8.72048 12.3868 8.08286 12.2216 8.05331 10.9524C8.05331 10.9524 7.57391 11.1117 7.545 10.3427C7.53902 10.1895 7.49943 10.0422 7.46149 9.90103C7.3705 9.56246 7.28904 9.25936 7.70385 8.99526L7.40458 8.19726C7.40458 8.19726 7.08974 5.11566 8.4695 5.36513C7.90972 4.47826 12.6307 3.74107 12.9443 6.45657C13.0676 7.27516 13.0676 8.10712 12.9443 8.92572C12.9443 8.92572 13.6495 8.84464 13.1787 10.1856C13.1787 10.1856 12.9195 11.1507 12.5214 10.934C12.5214 10.934 12.5705 11.862 12.167 12.2362C10.9902 12.6417 10.1447 13.7588 10.1447 15.0733ZM13.9184 13.4453C12.8138 13.4453 11.9184 14.3407 11.9184 15.4453V18.8863C11.9184 19.9908 12.8138 20.8863 13.9184 20.8863H14.0878V23.0369L16.2904 20.8863H18.6264C19.731 20.8863 20.6264 19.9908 20.6264 18.8863V15.4453C20.6264 14.3407 19.731 13.4453 18.6264 13.4453H13.9184ZM19.0449 17.1797L16.7852 14.9199V16.3725H14.207V18.1157H16.7852V19.4394L19.0449 17.1797Z" fill="#525C69"/>
</svg>
