<svg width="24" height="24" viewBox="0 0 24 24" fill="none" xmlns="http://www.w3.org/2000/svg">
<path d="M9.73657 14.2628V19.5257C7.91406 19.3992 6.19358 19.0299 4.64211 18.4645C4.2151 18.3089 3.96562 17.8697 4.03854 17.4211C4.10593 17.0066 4.1803 16.6099 4.25622 16.3139C4.51902 15.2894 5.99729 14.5284 7.35748 13.9433C7.71364 13.7901 7.92864 13.6678 8.14587 13.5443C8.35807 13.4236 8.57239 13.3018 8.92245 13.1486C8.9622 12.96 8.97818 12.7672 8.97002 12.5748L9.57253 12.5032C9.57253 12.5032 9.6518 12.6473 9.52462 11.8009C9.52462 11.8009 8.84756 11.6254 8.81619 10.2777C8.81619 10.2777 8.30713 10.4469 8.27643 9.63035C8.27007 9.46764 8.22803 9.31121 8.18775 9.16133C8.09113 8.80181 8.00463 8.47997 8.4451 8.19953L8.12732 7.35216C8.12732 7.35216 7.793 4.07993 9.25812 4.34483C8.6637 3.40309 13.6767 2.6203 14.0097 5.50379C14.1407 6.37302 14.1407 7.25645 14.0097 8.12569C14.0097 8.12569 14.7586 8.03959 14.2587 9.46346C14.2587 9.46346 13.9834 10.4883 13.5607 10.2582C13.5607 10.2582 13.6292 11.5532 12.9636 11.7728C12.9636 11.7728 12.9826 12.0483 12.9966 12.2628H11.7366C10.632 12.2628 9.73657 13.1583 9.73657 14.2628Z" fill="#525C69"/>
<path d="M11.8001 13.7403L15.5767 16.3411L19.3532 13.7403H11.8001Z" fill="#525C69"/>
<path d="M20.0399 14.5243L20.0399 19.5681C20.0399 19.8792 19.7532 20.1314 19.398 20.1314H11.7554C11.401 20.1314 11.1135 19.8796 11.1135 19.5681V14.5243L15.5767 17.8246L20.0399 14.5243Z" fill="#525C69"/>
</svg>
