<svg width="24" height="24" viewBox="0 0 24 24" fill="none" xmlns="http://www.w3.org/2000/svg">
<path fill-rule="evenodd" clip-rule="evenodd" d="M10.6168 14.8438V18.7254H10.2892C8.25156 18.6817 6.32942 18.3166 4.62269 17.7003C4.19522 17.5459 3.94545 17.1064 4.01917 16.6579C4.08071 16.2836 4.14816 15.9276 4.21696 15.6594C4.46445 14.6945 5.8566 13.9779 7.13755 13.4269C7.47296 13.2826 7.67544 13.1674 7.88001 13.0511C8.07985 12.9375 8.28168 12.8227 8.61135 12.6785C8.64878 12.5008 8.66382 12.3193 8.65614 12.1381L9.22355 12.0707C9.22355 12.0707 9.29821 12.2064 9.17844 11.4093C9.17844 11.4093 8.54082 11.244 8.51127 9.97483C8.51127 9.97483 8.03187 10.1342 8.00296 9.36518C7.99698 9.21195 7.95738 9.06464 7.91945 8.92349C7.82846 8.58492 7.747 8.28182 8.16181 8.01772L7.86254 7.21972C7.86254 7.21972 7.5477 4.13812 8.92745 4.38759C8.36767 3.50072 13.0887 2.76353 13.4022 5.47903C13.5256 6.29762 13.5256 7.12958 13.4022 7.94818C13.4022 7.94818 14.1075 7.8671 13.6367 9.20801C13.6367 9.20801 13.3774 10.1732 12.9794 9.95643C12.9794 9.95643 13.0439 11.176 12.417 11.3828C12.417 11.3828 12.4606 12.0147 12.4618 12.0742C11.3783 12.5266 10.6168 13.5962 10.6168 14.8438ZM12.1544 15.1438C12.1544 14.0392 13.0498 13.1438 14.1544 13.1438H18.8624C19.967 13.1438 20.8624 14.0392 20.8624 15.1438V17.4768C20.8624 18.5814 19.967 19.4768 18.8624 19.4768H16.526L14.3238 21.627V19.4768H14.1544C13.0498 19.4768 12.1544 18.5814 12.1544 17.4768V15.1438Z" fill="#525C69"/>
</svg>
