<svg width="24" height="24" viewBox="0 0 24 24" fill="none" xmlns="http://www.w3.org/2000/svg">
<path fill-rule="evenodd" clip-rule="evenodd" d="M9.97095 15.7197C9.97095 17.1904 10.5083 18.5356 11.3974 19.5696H10.704C8.40642 19.5202 6.24713 19.0861 4.3532 18.3562C4.09875 18.2582 3.94961 17.9955 3.99064 17.7259C4.0698 17.2058 4.16181 16.682 4.25622 16.3139C4.51902 15.2894 5.99729 14.5284 7.35749 13.9433C7.71364 13.7901 7.92865 13.6678 8.14588 13.5443C8.35807 13.4236 8.57239 13.3018 8.92245 13.1486C8.9622 12.96 8.97818 12.7672 8.97002 12.5748L9.57253 12.5032C9.57253 12.5032 9.65181 12.6473 9.52463 11.8009C9.52463 11.8009 8.84756 11.6254 8.81619 10.2777C8.81619 10.2777 8.30713 10.4469 8.27643 9.63035C8.27008 9.46764 8.22804 9.31121 8.18775 9.16133C8.09113 8.80181 8.00463 8.47997 8.4451 8.19953L8.12732 7.35216C8.12732 7.35216 7.79301 4.07993 9.25812 4.34483C8.66371 3.40309 13.6767 2.6203 14.0097 5.50379C14.1407 6.37302 14.1407 7.25645 14.0097 8.12569C14.0097 8.12569 14.7586 8.03959 14.2587 9.46346C14.2587 9.46346 14.1428 9.89487 13.9459 10.135C13.8251 10.1769 13.706 10.2225 13.5889 10.2718C13.5796 10.2679 13.5702 10.2633 13.5607 10.2582C13.5607 10.2582 13.5612 10.267 13.5616 10.2833C11.4506 11.1844 9.97095 13.2793 9.97095 15.7197ZM19.7316 11.979C19.8973 12.1447 19.8973 12.4141 19.7316 12.5798L19.2433 13.068C19.8431 13.8006 20.2043 14.7366 20.2043 15.7555C20.2043 18.0988 18.2977 20.0054 15.9544 20.0054C13.6112 20.0054 11.7046 18.0988 11.7046 15.7555C11.7046 13.5557 13.3848 11.741 15.5294 11.5274V11.3071H14.9685C14.7337 11.3071 14.5435 11.1169 14.5435 10.8821C14.5435 10.6473 14.7337 10.4571 14.9685 10.4571H16.9404C17.1752 10.4571 17.3654 10.6473 17.3654 10.8821C17.3654 11.1169 17.1752 11.3071 16.9404 11.3071H16.3794L16.38 11.5274C17.2332 11.613 18.0125 11.9513 18.6425 12.4672L19.1307 11.979C19.2965 11.8132 19.5658 11.8132 19.7316 11.979ZM15.9544 16.3166H17.7867C18.0215 16.3166 18.2116 16.1264 18.2116 15.8916C18.2116 15.6568 18.0215 15.4666 17.7867 15.4666H16.3794V13.5775C16.3794 13.3427 16.1892 13.1525 15.9544 13.1525C15.7196 13.1525 15.5294 13.3427 15.5294 13.5775V15.8916C15.5294 16.1264 15.7196 16.3166 15.9544 16.3166Z" fill="#525C69"/>
</svg>
