<svg width="24" height="24" viewBox="0 0 24 24" fill="none" xmlns="http://www.w3.org/2000/svg">
<path fill-rule="evenodd" clip-rule="evenodd" d="M19.5486 17.4106C19.9953 17.2502 20.2427 16.7812 20.1512 16.3155L19.8714 14.8902C19.8714 14.27 19.0454 13.5615 17.4188 13.1486C16.8677 12.9977 16.3438 12.7638 15.8659 12.4551C15.7613 12.3965 15.7772 11.8548 15.7772 11.8548L15.2533 11.7765C15.2533 11.7325 15.2085 11.083 15.2085 11.083C15.8354 10.8762 15.7709 9.65662 15.7709 9.65662C16.1689 9.87335 16.4282 8.90821 16.4282 8.90821C16.899 7.5673 16.1937 7.64837 16.1937 7.64837C16.3171 6.82978 16.3171 5.99782 16.1937 5.17922C15.8802 2.46372 11.1592 3.20091 11.719 4.08778C10.3392 3.83831 10.654 6.91992 10.654 6.91992L10.9533 7.71791C10.5385 7.98202 10.62 8.28511 10.711 8.62368C10.7489 8.76483 10.7885 8.91215 10.7945 9.06537C10.8234 9.83437 11.3028 9.67502 11.3028 9.67502C11.3323 10.9442 11.9699 11.1095 11.9699 11.1095C11.9924 11.2592 12.0081 11.376 12.0186 11.467C13.6229 11.5267 14.905 12.846 14.905 14.4648V18.3014C14.905 18.3272 14.9047 18.3528 14.9041 18.3784C16.5623 18.256 18.1295 17.9201 19.5486 17.4106ZM6.21924 12.9199C5.11467 12.9199 4.21924 13.8154 4.21924 14.9199V18.3609C4.21924 19.4655 5.11467 20.3609 6.21924 20.3609H6.38867V22.5115L8.59122 20.3609H10.9272C12.0318 20.3609 12.9272 19.4655 12.9272 18.3609V14.9199C12.9272 13.8154 12.0318 12.9199 10.9272 12.9199H6.21924ZM11.3458 16.6543L9.08602 14.3945V15.8471H6.50784V17.5903H9.08602V18.914L11.3458 16.6543Z" fill="#525C69"/>
</svg>
