<svg width="24" height="24" viewBox="0 0 24 24" fill="none" xmlns="http://www.w3.org/2000/svg">
<path fill-rule="evenodd" clip-rule="evenodd" d="M11.0605 13.2816L11.0605 19.5696H10.6998C8.51976 19.5223 6.46438 19.1286 4.64215 18.4646C4.21514 18.309 3.96567 17.8697 4.03859 17.4211C4.10598 17.0066 4.18036 16.6099 4.25628 16.3139C4.51908 15.2894 5.99735 14.5284 7.35754 13.9433C7.71369 13.7901 7.9287 13.6678 8.14593 13.5443C8.35813 13.4236 8.57245 13.3018 8.92251 13.1486C8.96226 12.96 8.97823 12.7672 8.97008 12.5748L9.57259 12.5032C9.57259 12.5032 9.65186 12.6473 9.52468 11.8009C9.52468 11.8009 8.84762 11.6254 8.81625 10.2777C8.81625 10.2777 8.30718 10.4469 8.27649 9.63035C8.27013 9.46764 8.22809 9.31121 8.18781 9.16133C8.09119 8.80181 8.00469 8.47997 8.44516 8.19953L8.12738 7.35216C8.12738 7.35216 7.79306 4.07993 9.25817 4.34483C8.66376 3.40309 13.6768 2.6203 14.0098 5.50379C14.1408 6.37302 14.1408 7.25645 14.0098 8.12569C14.0098 8.12569 14.7587 8.03959 14.2587 9.46346C14.2587 9.46346 13.9834 10.4883 13.5607 10.2582C13.5607 10.2582 13.5669 10.3739 13.5577 10.5421H13.4832C11.553 10.5421 11.0604 11.7806 11.0605 13.2816ZM13.8972 12.2686C13.3568 12.2686 12.9187 12.7067 12.9187 13.2471C12.9187 13.7875 13.3568 14.2256 13.8972 14.2256H19.8708C20.4111 14.2256 20.8492 13.7875 20.8492 13.2471C20.8492 12.7067 20.4111 12.2686 19.8708 12.2686H13.8972ZM13.8972 15.2042C13.3568 15.2042 12.9187 15.6423 12.9187 16.1827C12.9187 16.7231 13.3568 17.1612 13.8972 17.1612H19.8708C20.4111 17.1612 20.8492 16.7231 20.8492 16.1827C20.8492 15.6423 20.4111 15.2042 19.8708 15.2042H13.8972ZM19.8708 18.1398C20.4111 18.1398 20.8492 18.5779 20.8492 19.1183C20.8492 19.6587 20.4111 20.0967 19.8708 20.0967H13.8972C13.3568 20.0967 12.9187 19.6587 12.9187 19.1183C12.9187 18.5779 13.3568 18.1398 13.8972 18.1398H19.8708Z" fill="#525C69"/>
</svg>
