<svg width="24" height="24" viewBox="0 0 24 24" fill="none" xmlns="http://www.w3.org/2000/svg">
<path d="M12.0879 15.2392L5.72859 8.87988V12.9678H1.82202V17.8733H5.72859V21.5985L12.0879 15.2392Z" fill="#525C69"/>
<path fill-rule="evenodd" clip-rule="evenodd" d="M18.5199 15.5134C18.5748 15.7928 18.4262 16.0734 18.1602 16.1752C16.3854 16.8539 14.3649 17.2574 12.2159 17.3035H12.2137L13.7855 15.7317C14.176 15.3412 14.176 14.708 13.7855 14.3175L10.1385 10.6705L10.3209 10.6488C10.3209 10.6488 10.3955 10.7845 10.2758 9.98742C10.2758 9.98742 9.63815 9.82214 9.60861 8.55295C9.60861 8.55295 9.1292 8.7123 9.10029 7.9433C9.09431 7.79008 9.05472 7.64276 9.01678 7.50161C8.92579 7.16304 8.84433 6.85995 9.25914 6.59584L8.95987 5.79785C8.95987 5.79785 8.64503 2.71624 10.0248 2.96571C9.46501 2.07884 14.186 1.34165 14.4996 4.05715C14.6229 4.87575 14.6229 5.70771 14.4996 6.5263C14.4996 6.5263 15.2048 6.44522 14.734 7.78614C14.734 7.78614 14.4748 8.75128 14.0767 8.53455C14.0767 8.53455 14.1412 9.75416 13.5144 9.96091C13.5144 9.96091 13.5592 10.6105 13.5592 10.6544L14.0831 10.7327C14.0831 10.7327 14.0672 11.2744 14.1717 11.333C14.6496 11.6417 15.1735 11.8757 15.7246 12.0265C17.3512 12.4394 18.1772 13.1479 18.1772 13.7682L18.5199 15.5134Z" fill="#525C69"/>
</svg>
