<svg width="24" height="24" viewBox="0 0 24 24" fill="none" xmlns="http://www.w3.org/2000/svg">
<path d="M16.9949 17.5586C17.2107 17.5202 17.3523 17.3133 17.3077 17.0987C17.0672 15.9426 16.634 14.35 16.634 14.35C16.634 13.9041 16.0364 13.3943 14.8587 13.0976C14.4587 12.9885 14.0791 12.8201 13.7339 12.5984C13.6786 12.461 13.6567 12.3133 13.6699 12.1666L13.2924 12.1102C13.2924 12.0786 13.2601 11.6113 13.2601 11.6113C13.7138 11.4626 13.6672 10.5855 13.6672 10.5855C13.9552 10.7413 14.1429 10.0481 14.1429 10.0481C14.4837 9.08421 13.9732 9.14219 13.9732 9.14219C14.0625 8.55338 14.0625 7.95534 13.9732 7.36653C13.7464 5.41375 10.3291 5.94326 10.7345 6.58162C9.73587 6.40134 9.96379 8.61848 9.96379 8.61848L10.1804 9.19174C9.8804 9.38123 9.93916 9.59918 10.0048 9.84274C10.0322 9.94439 10.0608 10.0505 10.0651 10.1609C10.086 10.7144 10.4323 10.5995 10.4323 10.5995C10.4539 11.5122 10.915 11.6321 10.915 11.6321C11.0016 12.2054 10.9478 12.1065 10.9478 12.1065L10.5372 12.155C10.5428 12.2853 10.532 12.4158 10.5049 12.5435C10.2664 12.6474 10.1205 12.7298 9.97633 12.8112C9.82796 12.8949 9.68154 12.9776 9.43813 13.0815C8.51098 13.4768 7.50325 13.9932 7.32445 14.6869C7.21511 15.1111 6.9731 16.3013 6.80154 17.1622C6.75777 17.3819 6.90325 17.5945 7.12439 17.6302C8.60972 17.8701 10.1981 18 11.8488 18C13.6568 18 15.39 17.8442 16.9949 17.5586Z" fill="#525C69"/>
<path d="M21.4679 15.7491C21.781 15.666 21.9857 15.3714 21.9069 15.0571C21.761 14.4754 21.4602 13.7363 21.1009 13.5185C20.6097 13.2208 20.6535 13.2826 20.3457 13.1156C20.1424 13.0005 19.9279 12.9046 19.7052 12.8291C19.5911 12.7311 19.5027 12.6088 19.4472 12.472C19.3301 12.3297 19.1762 12.219 19.0006 12.1509L18.9876 11.7236L19.911 11.4419C19.911 11.4419 20.1491 11.3338 20.1724 11.3338C20.1355 11.2585 20.0929 11.1858 20.0451 11.1163C20.0276 11.0709 19.9405 10.7592 19.9405 10.7592C20.0751 10.9273 20.2335 11.0767 20.4111 11.2032C20.2538 10.9163 20.1192 10.6186 20.0085 10.3125C19.9344 10.0291 19.883 9.74075 19.8545 9.44993C19.791 8.90951 19.6923 8.3734 19.5588 7.84474C19.4639 7.58205 19.2949 7.3495 19.0704 7.17274C18.7413 6.94966 18.3551 6.8159 17.9528 6.78568H17.9065C17.5042 6.81579 17.1179 6.94956 16.7889 7.17274C16.5647 7.34972 16.3958 7.5822 16.3008 7.84474C16.167 8.37335 16.0681 8.90947 16.0048 9.44993C15.9804 9.74726 15.9314 10.0423 15.8582 10.3322C15.7473 10.6329 15.6103 10.9242 15.4485 11.203C15.6251 11.0758 15.7825 10.926 15.9162 10.7577C15.9162 10.7577 15.8046 11.0996 15.7868 11.1453C15.7461 11.2043 15.7119 11.2671 15.6846 11.3328C15.7076 11.3328 15.946 11.4409 15.946 11.4409L16.8691 11.7236L16.8558 12.1509C16.6803 12.2193 16.5265 12.33 16.4093 12.4723C16.3648 12.567 16.3103 12.6571 16.2467 12.7412C17.0877 13.0744 17.58 13.5621 17.5999 14.1077C17.6037 14.1355 17.6481 14.3014 17.7102 14.5336C17.8655 15.1139 18.1314 16.1081 18.1531 16.3956H18.229C19.4006 16.2272 20.4888 16.0089 21.4679 15.7491Z" fill="#525C69"/>
<path d="M5.85114 16.3929H5.51614C4.44917 16.2402 3.45117 16.0461 2.54148 15.817C2.22392 15.737 2.01101 15.4401 2.07985 15.1199C2.20409 14.5421 2.47537 13.807 2.93164 13.5075C3.22739 13.3135 3.35017 13.2799 3.65793 13.1129C3.86123 12.9978 4.07574 12.9019 4.29845 12.8264C4.4126 12.7284 4.501 12.6061 4.55649 12.4693C4.67357 12.327 4.82748 12.2163 5.00303 12.1482L5.01636 11.7209L4.09296 11.4392C4.09296 11.4392 3.85479 11.3311 3.83152 11.3311C3.86839 11.2558 3.91085 11.1831 3.95858 11.1136C3.9761 11.0682 4.06316 10.7565 4.06316 10.7565C3.92854 10.9246 3.77017 11.074 3.59257 11.2005C3.74985 10.9136 3.88443 10.6159 3.99518 10.3098C4.06925 10.0264 4.12072 9.73804 4.14917 9.44723C4.21263 8.90681 4.31139 8.3707 4.44486 7.84204C4.53976 7.57936 4.70876 7.34681 4.93323 7.17004C5.26233 6.94695 5.64856 6.81319 6.05088 6.78298H6.09715C6.49949 6.81308 6.88575 6.94685 7.2148 7.17004C7.43897 7.34702 7.60784 7.5795 7.70291 7.84204C7.83669 8.37065 7.93553 8.90677 7.99886 9.44723C8.02324 9.74456 8.07228 10.0396 8.14552 10.3295C8.25637 10.6302 8.39341 10.9214 8.5552 11.2003C8.37881 11.0732 8.22161 10.9235 8.08805 10.7554C8.09056 10.7631 8.19985 11.0977 8.21742 11.1428C8.25807 11.2019 8.29233 11.2647 8.31964 11.3304C8.29664 11.3304 8.0582 11.4385 8.0582 11.4385L7.1348 11.7209L7.14813 12.1482C7.32359 12.2166 7.47745 12.3273 7.59467 12.4696C7.63909 12.5643 7.69358 12.6544 7.75729 12.7385C6.91624 13.0717 6.42395 13.5594 6.40434 14.105C6.40041 14.1326 6.35664 14.2962 6.29525 14.5256C6.14023 15.1051 5.87286 16.1046 5.85114 16.3929Z" fill="#525C69"/>
</svg>
