<svg width="24" height="24" viewBox="0 0 24 24" fill="none" xmlns="http://www.w3.org/2000/svg">
	<path fill-rule="evenodd" clip-rule="evenodd" d="M12.5641 17.1841C12.5641 15.8235 13.0613 14.579 13.8838 13.6225C13.5854 13.4711 13.2199 13.3346 12.7878 13.2231C12.3195 13.0925 11.8744 12.8901 11.4683 12.6231C11.3807 12.5724 11.393 12.104 11.393 12.104L10.9475 12.0349C10.9475 11.9966 10.9095 11.4349 10.9095 11.4349C11.4423 11.2561 11.3874 10.2012 11.3874 10.2012C11.7257 10.3893 11.9459 9.55574 11.9459 9.55574C12.3461 8.3961 11.7467 8.46609 11.7467 8.46609C11.8515 7.758 11.8515 7.03836 11.7467 6.33026C11.4803 3.98123 7.46849 4.6188 7.94404 5.38499C6.77152 5.168 7.03851 7.83494 7.03851 7.83494L7.29293 8.52443C6.94054 8.75241 7.00947 9.0145 7.08659 9.30774C7.11878 9.43016 7.15241 9.55801 7.1574 9.69107C7.18193 10.3563 7.58855 10.2184 7.58855 10.2184C7.61367 11.3162 8.15494 11.4606 8.15494 11.4606C8.25689 12.1501 8.1935 12.0328 8.1935 12.0328L7.71123 12.0911C7.71774 12.2477 7.70499 12.4044 7.67326 12.5578C7.39213 12.6828 7.22051 12.7822 7.05062 12.8806C6.87716 12.9811 6.70551 13.0805 6.42099 13.205C5.3326 13.6816 4.14927 14.3016 3.93808 15.1361C3.83869 15.5288 3.6484 16.467 3.47478 17.3503C3.40206 17.7203 3.59781 18.0925 3.95125 18.2238C5.72098 18.8816 7.83192 19.2649 10.0992 19.268H10.1548C11.1014 19.2667 12.0207 19.1992 12.8993 19.073C12.6825 18.4843 12.5641 17.848 12.5641 17.1841ZM14.4062 13.0923C15.2122 12.378 16.2307 11.8983 17.3549 11.76L17.3497 11.5879L18.4939 11.2303C18.4939 11.2303 18.7889 11.0929 18.8173 11.0929C18.7714 10.9972 18.7187 10.9049 18.6595 10.8167C18.6379 10.7584 18.5301 10.3635 18.5301 10.3635C18.6971 10.5773 18.8929 10.7671 19.112 10.9273C18.9173 10.5635 18.7505 10.1855 18.6131 9.79651C18.5214 9.437 18.4576 9.07094 18.4223 8.70162C18.3436 8.01526 18.2211 7.33461 18.0558 6.66379C17.937 6.32909 17.7275 6.03393 17.4505 5.81126C17.0408 5.52729 16.5626 5.35763 16.0653 5.31982H16.0069C15.5105 5.35795 15.0332 5.5276 14.6244 5.81126C14.3476 6.03436 14.1382 6.32965 14.0194 6.66437C13.8538 7.33514 13.7315 8.01581 13.6531 8.7022C13.6229 9.07991 13.5621 9.45455 13.4714 9.82247C13.3339 10.2047 13.1642 10.5746 12.964 10.9282C13.1827 10.7675 13.3781 10.5775 13.5447 10.3635C13.5447 10.3635 13.4063 10.7987 13.3844 10.857C13.3341 10.9318 13.2917 11.0115 13.2579 11.095C13.2871 11.095 13.5812 11.2324 13.5812 11.2324L14.7254 11.5899L14.7088 12.1324C14.4923 12.2187 14.3017 12.3594 14.1555 12.5407C14.1004 12.6612 14.0328 12.7757 13.954 12.8823C14.1153 12.9477 14.2662 13.0179 14.4062 13.0923ZM18.0295 19.9586C17.5161 19.9586 17.0352 19.8191 16.6228 19.576L20.4248 15.7838C20.6656 16.1949 20.8037 16.6735 20.8037 17.1844C20.8037 18.7165 19.5616 19.9586 18.0295 19.9586ZM18.0293 14.4098C18.5422 14.4098 19.0225 14.549 19.4347 14.7916L15.6293 18.5764C15.3914 18.1671 15.2551 17.6915 15.2551 17.1841C15.2551 15.6519 16.4972 14.4098 18.0293 14.4098ZM13.8633 17.1847C13.8633 19.4856 15.7285 21.3508 18.0294 21.3508C20.3303 21.3508 22.1955 19.4856 22.1955 17.1847C22.1955 14.8838 20.3303 13.0185 18.0294 13.0185C15.7285 13.0185 13.8633 14.8838 13.8633 17.1847Z" fill="#525C69"/>
</svg>