<svg width="24" height="24" viewBox="0 0 24 24" fill="none" xmlns="http://www.w3.org/2000/svg">
<path d="M21.3724 18.3706C22.01 18.1608 22.3595 17.4952 22.2302 16.8365L22.0484 15.9108C21.9571 15.3321 21.2848 14.6824 19.781 14.3007C19.2715 14.1612 18.7872 13.9449 18.3454 13.6595C18.2488 13.6053 18.2634 13.1046 18.2634 13.1046L17.7791 13.0322C17.7791 12.9916 17.7377 12.3911 17.7377 12.3911C18.3172 12.1999 18.2576 11.0724 18.2576 11.0724C18.6256 11.2728 18.8652 10.3805 18.8652 10.3805C19.3005 9.1409 18.6485 9.21586 18.6485 9.21586C18.7626 8.45909 18.7626 7.68996 18.6485 6.93319C18.3586 4.42278 13.9942 5.10429 14.5117 5.92418C13.2361 5.69355 13.5272 8.54242 13.5272 8.54242L13.8039 9.28015C13.4204 9.5243 13.4957 9.8045 13.5798 10.1175C13.6149 10.248 13.6515 10.3842 13.657 10.5258C13.6837 11.2368 14.1269 11.0894 14.1269 11.0894C14.1543 12.2628 14.7437 12.4156 14.7437 12.4156C14.8544 13.1524 14.7854 13.027 14.7854 13.027L14.2609 13.0893C14.268 13.2569 14.2541 13.4247 14.2195 13.5889C13.9147 13.7222 13.7281 13.8283 13.5434 13.9334C13.3542 14.0409 13.167 14.1474 12.857 14.2808C11.6728 14.7902 10.4851 15.0753 10.2563 15.9673C10.2037 16.1724 10.1277 16.5251 10.0547 16.8981C9.93114 17.5289 10.2791 18.1523 10.889 18.3552C12.3761 18.85 14.0278 19.1417 15.7709 19.1791H16.5371C18.262 19.1421 19.8974 18.8561 21.3724 18.3706Z" fill="#525C69"/>
<path fill-rule="evenodd" clip-rule="evenodd" d="M7.6651 16.0923L8.00972 18.2236C8.11009 18.8715 7.59503 19.4637 6.93798 19.451C4.43934 19.4392 1.80787 17.8317 1.8648 12.0657C1.92167 6.29958 4.57095 4.68847 7.0696 4.70026C7.72616 4.71272 8.22648 5.29813 8.11212 5.94411L7.75476 8.05501C7.60893 8.81575 6.80286 9.26626 6.03466 9.12732L5.17647 8.97213C4.98279 8.93281 4.7949 9.06069 4.7409 9.24549C4.27284 11.0818 4.24639 13.0612 4.66923 14.9059C4.71963 15.0813 4.91579 15.205 5.09952 15.1733L5.97226 15.0064C6.73396 14.8619 7.5436 15.3345 7.6651 16.0923Z" fill="#525C69"/>
</svg>
