<svg width="24" height="24" viewBox="0 0 24 24" fill="none" xmlns="http://www.w3.org/2000/svg">
<path fill-rule="evenodd" clip-rule="evenodd" d="M11.4398 19.5696L11.4398 13.1781C11.4397 11.7584 11.8804 10.5735 13.5615 10.4493C13.5647 10.3328 13.5607 10.2582 13.5607 10.2582C13.9834 10.4883 14.2587 9.46346 14.2587 9.46346C14.7587 8.03959 14.0098 8.12569 14.0098 8.12569C14.1408 7.25645 14.1408 6.37302 14.0098 5.50379C13.6768 2.6203 8.66376 3.40309 9.25817 4.34483C7.79306 4.07993 8.12738 7.35216 8.12738 7.35216L8.44516 8.19953C8.00469 8.47997 8.09119 8.80181 8.18781 9.16133C8.22809 9.31121 8.27013 9.46764 8.27649 9.63035C8.30718 10.4469 8.81625 10.2777 8.81625 10.2777C8.84762 11.6254 9.52468 11.8009 9.52468 11.8009C9.65186 12.6473 9.57259 12.5032 9.57259 12.5032L8.97008 12.5748C8.97823 12.7672 8.96226 12.96 8.92251 13.1486C8.57245 13.3018 8.35813 13.4236 8.14593 13.5443C7.9287 13.6678 7.71369 13.7901 7.35754 13.9433C5.99735 14.5284 4.51908 15.2894 4.25628 16.3139C4.18036 16.6099 4.10598 17.0066 4.03859 17.4211C3.96567 17.8697 4.21514 18.309 4.64215 18.4646C6.46438 19.1286 8.51976 19.5223 10.6998 19.5696H11.4398ZM19.8206 12.5701C20.1344 12.2563 20.1344 11.7476 19.8206 11.4338C19.5069 11.12 18.9981 11.12 18.6843 11.4338L15.6676 14.4506L14.3773 13.1602C14.0811 12.8641 13.601 12.8641 13.3049 13.1602C13.0087 13.4564 13.0087 13.9365 13.3049 14.2326L15.1542 16.0819L15.1633 16.0912L15.1725 16.1003L15.195 16.1228C15.4912 16.4189 15.9713 16.4189 16.2674 16.1228L16.2783 16.1117C16.2855 16.105 16.2926 16.0982 16.2996 16.0912L19.8206 12.5701ZM19.8206 15.4133C20.1344 15.7271 20.1344 16.2358 19.8206 16.5496L16.2996 20.0707C16.2926 20.0777 16.2855 20.0845 16.2783 20.0912L16.2674 20.1023C15.9713 20.3984 15.4912 20.3984 15.195 20.1023L15.1725 20.0798L15.1633 20.0707L15.1542 20.0614L13.3049 18.2121C13.0087 17.916 13.0087 17.4359 13.3049 17.1397C13.601 16.8436 14.0811 16.8436 14.3773 17.1397L15.6676 18.43L18.6843 15.4133C18.9981 15.0995 19.5069 15.0995 19.8206 15.4133Z" fill="#525C69"/>
</svg>
