<svg width="24" height="24" viewBox="0 0 24 24" fill="none" xmlns="http://www.w3.org/2000/svg">
<path fill-rule="evenodd" clip-rule="evenodd" d="M19.7341 17.3763C20.0002 17.275 20.1488 16.9943 20.0939 16.7149L19.7719 15.0745C19.7719 14.4835 18.9848 13.8084 17.4348 13.415C16.9097 13.2712 16.4105 13.0482 15.9551 12.7541C15.8555 12.6982 15.8706 12.1821 15.8706 12.1821L15.3714 12.1075C15.3714 12.0656 15.3288 11.4467 15.3288 11.4467C15.926 11.2497 15.8646 10.0875 15.8646 10.0875C16.2439 10.294 16.4909 9.37438 16.4909 9.37438C16.9396 8.09666 16.2675 8.17392 16.2675 8.17392C16.3851 7.3939 16.3851 6.60115 16.2675 5.82113C15.9687 3.2336 11.4702 3.93605 12.0036 4.78113C10.6889 4.54341 10.9889 7.47979 10.9889 7.47979L11.2741 8.24019C10.8788 8.49184 10.9564 8.78065 11.0431 9.10327C11.0793 9.23777 11.117 9.37814 11.1227 9.52415C11.1502 10.2569 11.607 10.1051 11.607 10.1051C11.6352 11.3144 12.2428 11.4719 12.2428 11.4719C12.3569 12.2314 12.2858 12.1022 12.2858 12.1022L11.7451 12.1664C11.7485 12.2457 11.7472 12.3252 11.7415 12.4043C13.6433 13.2854 14.9625 15.2112 14.9625 17.445C14.9625 17.7739 14.9339 18.0961 14.8791 18.4093C16.6244 18.2961 18.267 17.9348 19.7341 17.3763ZM9.13967 13.8521H5.64972L5.64276 10.9434L1.896 14.703L5.65966 18.4637L5.6527 15.3333H8.95325C10.178 15.3333 11.1751 16.3294 11.1751 17.5551C11.1751 18.7798 10.178 19.7769 8.95325 19.7769H7.32235L7.32831 21.2581H9.13967C11.1815 21.2581 12.8427 19.597 12.8427 17.5551C12.8427 15.5132 11.1815 13.8521 9.13967 13.8521Z" fill="#525C69"/>
</svg>
