<svg width="24" height="24" viewBox="0 0 24 24" fill="none" xmlns="http://www.w3.org/2000/svg">
<path d="M15.4773 14.9252L15.7317 16.2207C15.8048 16.5933 15.6069 16.9682 15.2501 17.098C13.7585 17.6404 12.0767 17.9618 10.293 18.0002H9.57005C7.77784 17.9616 6.0884 17.6373 4.59156 17.0902C4.25006 16.9654 4.05053 16.614 4.10863 16.2551C4.16446 15.9102 4.22624 15.5794 4.28933 15.3334C4.50459 14.4942 5.71546 13.8709 6.82962 13.3916C7.12135 13.2661 7.29746 13.1659 7.4754 13.0648C7.64921 12.9659 7.82477 12.8661 8.1115 12.7407C8.14406 12.5861 8.15715 12.4283 8.15047 12.2706L8.64399 12.212C8.64399 12.212 8.70893 12.33 8.60475 11.6368C8.60475 11.6368 8.05016 11.493 8.02446 10.3891C8.02446 10.3891 7.60748 10.5277 7.58234 9.85882C7.57713 9.72554 7.5427 9.59741 7.5097 9.47464C7.43056 9.18015 7.35971 8.91653 7.7205 8.68681L7.4602 7.99273C7.4602 7.99273 7.18636 5.3124 8.38645 5.52938C7.89956 4.75799 12.0058 4.1168 12.2785 6.4787C12.3859 7.1907 12.3859 7.91433 12.2785 8.62633C12.2785 8.62633 12.892 8.55581 12.4825 9.72211C12.4825 9.72211 12.257 10.5616 11.9107 10.3731C11.9107 10.3731 11.9668 11.4339 11.4216 11.6137C11.4216 11.6137 11.4606 12.1787 11.4606 12.2169L11.9163 12.285C11.9163 12.285 11.9024 12.7561 11.9934 12.8071C12.4091 13.0756 12.8647 13.2791 13.3441 13.4103C14.7589 13.7695 15.4773 14.3857 15.4773 14.9252Z" fill="#525C69"/>
<path d="M17.0636 6.59971H19.0155V8.99949H21.5151V10.967H19.0155V13.4862H17.0636V10.967H14.6833V8.99949H17.0636V6.59971Z" fill="#525C69"/>
</svg>
