<svg width="24" height="24" viewBox="0 0 24 24" fill="none" xmlns="http://www.w3.org/2000/svg">
<path fill-rule="evenodd" clip-rule="evenodd" d="M15.5103 17.4868C15.556 17.7197 15.4322 17.9535 15.2106 18.0385C13.6731 18.6284 11.9217 18.9792 10.0586 19.0192H9.34025C7.47295 18.9791 5.71787 18.6269 4.17788 18.0345C3.96579 17.953 3.8415 17.734 3.87576 17.5094C3.93991 17.0888 4.01432 16.6662 4.09066 16.3686C4.30462 15.5344 5.50817 14.9149 6.6156 14.4385C6.90556 14.3137 7.08062 14.2142 7.25748 14.1136C7.43024 14.0154 7.60473 13.9162 7.88974 13.7915C7.9221 13.6379 7.93511 13.481 7.92847 13.3243L8.41901 13.2661C8.41901 13.2661 8.48355 13.3833 8.38001 12.6942C8.38001 12.6942 7.82877 12.5514 7.80322 11.4541C7.80322 11.4541 7.38876 11.5919 7.36377 10.927C7.3586 10.7946 7.32437 10.6672 7.29157 10.5452C7.21291 10.2525 7.14248 9.99045 7.5011 9.76213L7.24237 9.07223C7.24237 9.07223 6.97018 6.40809 8.16303 6.62377C7.67908 5.85704 11.7605 5.21971 12.0316 7.56735C12.1383 8.27505 12.1383 8.99431 12.0316 9.70201C12.0316 9.70201 12.6413 9.63191 12.2343 10.7912C12.2343 10.7912 12.0102 11.6256 11.666 11.4382C11.666 11.4382 11.7218 12.4926 11.1799 12.6713C11.1799 12.6713 11.2186 13.2329 11.2186 13.2709L11.6715 13.3386C11.6715 13.3386 11.6578 13.8069 11.7481 13.8575C12.1613 14.1244 12.6142 14.3267 13.0907 14.4571C14.4969 14.8141 15.211 15.4266 15.211 15.9628L15.5103 17.4868ZM21.33 9.9849C21.3299 8.33397 20.3266 6.84873 18.7951 6.23224C17.2636 5.61574 15.5111 5.9917 14.3673 7.18215C13.2234 8.37259 12.9177 10.1387 13.5948 11.6444C14.2719 13.15 15.796 14.0932 17.4456 14.0275C19.6341 13.9827 21.3725 12.1734 21.33 9.9849ZM14.607 11.189C14.1156 10.0963 14.3375 8.8146 15.1676 7.95067C15.9977 7.08675 17.2695 6.81391 18.381 7.26131C19.4924 7.7087 20.2205 8.78657 20.2206 9.98468C20.2515 11.5729 18.9898 12.886 17.4016 12.9185C16.2044 12.9662 15.0984 12.2817 14.607 11.189ZM16.5706 7.94828V10.6891H19.3114V9.59279H17.6669V7.94828H16.5706Z" fill="#525C69"/>
</svg>
