<svg width="24" height="24" viewBox="0 0 24 24" fill="none" xmlns="http://www.w3.org/2000/svg">
<path fill-rule="evenodd" clip-rule="evenodd" d="M9.56882 13.1246V19.5134C7.69496 19.3675 5.9319 18.9646 4.35321 18.3562C4.09877 18.2582 3.94961 17.9954 3.99064 17.7259C4.06979 17.2057 4.16181 16.6819 4.25622 16.3139C4.51902 15.2894 5.99729 14.5284 7.35748 13.9433C7.71363 13.7901 7.92864 13.6678 8.14587 13.5443C8.35807 13.4236 8.57238 13.3018 8.92245 13.1486C8.9622 12.96 8.97817 12.7672 8.97002 12.5748L9.57253 12.5032C9.57253 12.5032 9.6518 12.6473 9.52462 11.8009C9.52462 11.8009 8.84756 11.6254 8.81618 10.2777C8.81618 10.2777 8.30712 10.4469 8.27642 9.63035C8.27007 9.46764 8.22803 9.31121 8.18775 9.16133C8.09113 8.80181 8.00463 8.47997 8.4451 8.19953L8.12732 7.35216C8.12732 7.35216 7.793 4.07993 9.25811 4.34483C8.6637 3.40309 13.6767 2.6203 14.0097 5.50379C14.1407 6.37302 14.1407 7.25645 14.0097 8.12569C14.0097 8.12569 14.7586 8.03959 14.2587 9.46346C14.2587 9.46346 13.9834 10.4883 13.5607 10.2582C13.5607 10.2582 13.5846 10.7096 13.4671 11.1246H11.5688C10.4643 11.1246 9.56882 12.02 9.56882 13.1246ZM18.8687 12.6141H21.263C21.6393 12.6141 21.9471 12.9171 21.9471 13.2874V19.3468C21.9471 19.7171 21.6393 20.0201 21.263 20.0201H11.6856C11.3093 20.0201 11.0015 19.7171 11.0015 19.3468V13.2874C11.0015 12.9171 11.3093 12.6141 11.6856 12.6141H14.0799C14.251 11.9408 14.422 11.2676 15.1061 11.2676H17.8425C18.5266 11.2676 18.6976 11.9408 18.8687 12.6141ZM16.4907 18.1013C15.4909 18.1013 14.6804 17.3036 14.6804 16.3197C14.6804 15.3357 15.4909 14.5381 16.4907 14.5381C17.4905 14.5381 18.3009 15.3357 18.3009 16.3197C18.3009 17.3036 17.4905 18.1013 16.4907 18.1013ZM13.7617 16.3197C13.7617 17.8032 14.9836 19.0057 16.4909 19.0057C17.9982 19.0057 19.22 17.8032 19.22 16.3197C19.22 14.8363 17.9982 13.6338 16.4909 13.6338C14.9836 13.6338 13.7617 14.8363 13.7617 16.3197ZM19.9844 14.1278H20.8984V13.5186H19.9844V14.1278Z" fill="#525C69"/>
</svg>
