<svg width="24" height="24" viewBox="0 0 24 24" fill="none" xmlns="http://www.w3.org/2000/svg">
<path fill-rule="evenodd" clip-rule="evenodd" d="M12 20.0048C16.4212 20.0048 20.0053 16.4207 20.0053 11.9995C20.0053 7.57826 16.4212 3.99414 12 3.99414C7.57875 3.99414 3.99463 7.57826 3.99463 11.9995C3.99463 16.4207 7.57875 20.0048 12 20.0048ZM16.4464 16.0381C17.416 14.9713 18.007 13.5542 18.007 11.9991C18.007 8.68157 15.3176 5.99219 12.0001 5.99219C8.68255 5.99219 5.99316 8.68157 5.99316 11.9991C5.99316 13.5542 6.58412 14.9713 7.55373 16.0381H16.4464ZM15.6887 14.4772C15.4081 14.5481 15.1143 14.5857 14.8117 14.5857H9.18902C8.88369 14.5857 8.58731 14.5474 8.30444 14.4753C8.4907 13.9491 9.25358 13.5538 9.95782 13.2469C10.1501 13.1631 10.2661 13.0963 10.3834 13.0288L10.3834 13.0288L10.3834 13.0288L10.3834 13.0287L10.3834 13.0287C10.4979 12.9628 10.6136 12.8961 10.8025 12.8124C10.824 12.7093 10.8326 12.6039 10.8282 12.4986L11.1534 12.4595C11.1534 12.4595 11.1962 12.5383 11.1276 12.0755C11.1276 12.0755 10.7621 11.9796 10.7452 11.2427C10.7452 11.2427 10.4704 11.3352 10.4538 10.8887C10.4504 10.7997 10.4277 10.7142 10.406 10.6323L10.406 10.6323C10.3538 10.4357 10.3071 10.2597 10.5449 10.1064L10.3734 9.64305C10.3734 9.64305 10.1929 7.85386 10.9837 7.99871C10.6629 7.48379 13.3687 7.05577 13.5485 8.6324C13.6192 9.10768 13.6192 9.59071 13.5485 10.066C13.5485 10.066 13.9527 10.0189 13.6829 10.7975C13.6829 10.7975 13.5343 11.3578 13.3061 11.232C13.3061 11.232 13.3431 11.9401 12.9838 12.0601C12.9838 12.0601 13.0095 12.4373 13.0095 12.4628L13.3097 12.5082C13.3097 12.5082 13.3006 12.8227 13.3606 12.8568C13.6345 13.036 13.9348 13.1718 14.2506 13.2594C15.1829 13.4992 15.6564 13.9105 15.6564 14.2706L15.6887 14.4772Z" fill="#525C69"/>
</svg>
