<svg width="24" height="24" viewBox="0 0 24 24" fill="none" xmlns="http://www.w3.org/2000/svg">
<path d="M11.6709 7.93864C11.6709 7.93864 11.5731 8.21279 11.5577 8.24955C11.5222 8.29666 11.4923 8.3469 11.4684 8.39949C11.489 8.39949 11.6967 8.48603 11.6967 8.48603L12.5044 8.71131L12.4926 9.05309C12.3398 9.10747 12.2053 9.19608 12.1021 9.31035C12.0631 9.38626 12.0154 9.45837 11.9598 9.52552C12.6956 9.79196 13.3564 10.1819 13.374 10.6185C13.3759 10.6308 13.3887 10.6772 13.409 10.7477H16.9331C16.9271 10.6406 16.9233 10.5736 16.9233 10.5711C16.9233 10.5711 16.7283 10.1255 16.4189 10.0801C16.1124 10.0455 15.8161 9.95892 15.546 9.82503C15.3677 9.73251 15.1798 9.65547 14.9849 9.59498C14.8854 9.51696 14.808 9.41904 14.7591 9.30924C14.6561 9.19484 14.5215 9.1062 14.3686 9.05199L14.357 8.71003L15.1648 8.48475C15.1648 8.48475 15.373 8.3982 15.393 8.3982C15.3607 8.33788 15.3235 8.27972 15.2817 8.22419C15.2664 8.18744 15.1903 7.93864 15.1903 7.93864C15.3082 8.07336 15.4464 8.1929 15.6011 8.29383C15.4636 8.06464 15.3459 7.82649 15.2489 7.58142C15.1841 7.35492 15.1391 7.1243 15.1142 6.89162C15.0586 6.4592 14.9722 6.03037 14.8554 5.60774C14.7716 5.39688 14.6237 5.21092 14.4282 5.07064C14.1389 4.89173 13.8014 4.78484 13.4503 4.76102H13.4091C13.0586 4.78504 12.7217 4.89192 12.433 5.07064C12.2377 5.21119 12.0899 5.39723 12.006 5.60811C11.8891 6.03071 11.8027 6.45955 11.7474 6.89199C11.726 7.12995 11.6832 7.36598 11.6191 7.59778C11.5221 7.83859 11.4022 8.07163 11.2609 8.29438C11.4153 8.19318 11.5533 8.07347 11.6709 7.93864Z" fill="#525C69"/>
<path d="M11.1195 9.98599C11.9401 10.1711 12.4424 10.4605 12.6193 10.7477H10.9095C10.6729 10.7477 10.4564 10.8809 10.3497 11.0921L8.89636 13.9697C8.89636 13.9697 5.2284 14.4492 3.98938 13.4406C3.62202 13.1416 4.28579 11.7966 4.44507 11.2467C4.60435 10.6968 5.49681 10.2881 6.31767 9.97408C6.53225 9.89203 6.66171 9.82651 6.79253 9.7603C6.92066 9.69545 7.0501 9.62993 7.26212 9.54757C7.28605 9.44647 7.29567 9.34319 7.29076 9.24004L7.65449 9.2016C7.65449 9.2016 7.70229 9.27887 7.62541 8.82449C7.62541 8.82449 7.21718 8.72935 7.19823 8.00589C7.19823 8.00589 6.89157 8.0968 6.87306 7.65838C6.8693 7.57069 6.84394 7.48644 6.81966 7.40576C6.7615 7.21252 6.70952 7.03979 6.97529 6.88955L6.7834 6.43518C6.7834 6.43518 6.58204 4.67764 7.46635 4.82065C7.10769 4.31572 10.1334 3.89556 10.3343 5.44359C10.4134 5.91023 10.4134 6.38447 10.3343 6.85111C10.3343 6.85111 10.7864 6.80498 10.4845 7.56919C10.4845 7.56919 10.3184 8.11852 10.0633 7.99455C10.0633 7.99455 10.1047 8.68976 9.70289 8.80758C9.70289 8.80758 9.73153 9.17777 9.73153 9.20295L10.0675 9.2485C10.0675 9.2485 10.0582 9.55718 10.1243 9.59063C10.4306 9.76657 10.7663 9.89995 11.1195 9.98599Z" fill="#525C69"/>
<path fill-rule="evenodd" clip-rule="evenodd" d="M20.4197 15.6421H10.2294C9.96489 15.6421 9.75043 15.8565 9.75043 16.1211V18.5161C9.75043 18.9129 10.0721 19.2346 10.4689 19.2346H20.1802C20.577 19.2346 20.8987 18.9129 20.8987 18.5161V16.1211C20.8987 15.8565 20.6843 15.6421 20.4197 15.6421ZM12.7442 17.1988C12.7442 17.0004 12.9051 16.8396 13.1035 16.8396H17.5457C17.7441 16.8396 17.9049 17.0004 17.9049 17.1988V17.6778C17.9049 17.8762 17.7441 18.0371 17.5457 18.0371H13.1035C12.9051 18.0371 12.7442 17.8762 12.7442 17.6778V17.1988ZM12.1455 17.4383C12.1455 17.769 11.8774 18.0371 11.5467 18.0371C11.216 18.0371 10.9479 17.769 10.9479 17.4383C10.9479 17.1076 11.216 16.8396 11.5467 16.8396C11.8774 16.8396 12.1455 17.1076 12.1455 17.4383Z" fill="#525C69"/>
<path d="M18.8719 12.0495H11.7847C11.5574 12.0495 11.3497 12.1782 11.2485 12.3818L10.1097 14.6736H20.5993L19.4032 12.3721C19.3002 12.1739 19.0953 12.0495 18.8719 12.0495Z" fill="#525C69"/>
</svg>
