<svg width="24" height="24" viewBox="0 0 24 24" fill="none" xmlns="http://www.w3.org/2000/svg">
	<path fill-rule="evenodd" clip-rule="evenodd" d="M13.0294 17.1836C13.0294 15.9102 13.5054 14.748 14.2892 13.8652C13.9423 13.6174 13.4411 13.3917 12.7878 13.2231C12.3195 13.0925 11.8744 12.8901 11.4683 12.6231C11.3807 12.5724 11.393 12.104 11.393 12.104L10.9475 12.0349C10.9475 11.9966 10.9095 11.4349 10.9095 11.4349C11.4423 11.2561 11.3874 10.2012 11.3874 10.2012C11.7257 10.3893 11.9459 9.55574 11.9459 9.55574C12.3461 8.3961 11.7467 8.46609 11.7467 8.46609C11.8515 7.758 11.8515 7.03836 11.7467 6.33026C11.4803 3.98123 7.46849 4.6188 7.94404 5.38499C6.77152 5.168 7.03851 7.83494 7.03851 7.83494L7.29293 8.52443C6.94054 8.75241 7.00947 9.0145 7.08659 9.30774C7.11878 9.43016 7.15241 9.55801 7.15739 9.69107C7.18193 10.3563 7.58855 10.2184 7.58855 10.2184C7.61367 11.3162 8.15494 11.4606 8.15494 11.4606C8.25689 12.1501 8.1935 12.0328 8.1935 12.0328L7.71123 12.0911C7.71774 12.2477 7.70499 12.4044 7.67326 12.5578C7.39213 12.6828 7.2205 12.7822 7.05062 12.8806C6.87716 12.9811 6.70551 13.0805 6.42099 13.205C5.3326 13.6816 4.14927 14.3016 3.93808 15.1361C3.83869 15.5288 3.6484 16.467 3.47478 17.3503C3.40206 17.7203 3.59781 18.0925 3.95125 18.2238C5.72098 18.8816 7.83192 19.2649 10.0992 19.268H10.1548C11.2716 19.2665 12.3505 19.1727 13.3693 18.9993C13.1499 18.4365 13.0294 17.8241 13.0294 17.1836ZM14.8216 13.3481C15.5697 12.7217 16.5038 12.3102 17.5289 12.2083C17.4766 12.1789 17.4222 12.153 17.3661 12.1307L17.3497 11.5879L18.4939 11.2303C18.4939 11.2303 18.7889 11.0929 18.8173 11.0929C18.7714 10.9972 18.7187 10.9049 18.6595 10.8167C18.6379 10.7584 18.5301 10.3635 18.5301 10.3635C18.6971 10.5773 18.8929 10.7671 19.112 10.9273C18.9173 10.5635 18.7505 10.1855 18.6131 9.79651C18.5214 9.437 18.4576 9.07094 18.4223 8.70162C18.3436 8.01526 18.2211 7.33461 18.0558 6.66379C17.937 6.32909 17.7275 6.03393 17.4505 5.81126C17.0408 5.52729 16.5626 5.35763 16.0653 5.31982H16.0069C15.5105 5.35795 15.0332 5.5276 14.6244 5.81126C14.3476 6.03436 14.1382 6.32965 14.0194 6.66437C13.8538 7.33514 13.7315 8.01581 13.6531 8.7022C13.6229 9.07991 13.5621 9.45455 13.4714 9.82247C13.3339 10.2047 13.1642 10.5746 12.964 10.9282C13.1827 10.7675 13.3781 10.5775 13.5447 10.3635C13.5447 10.3635 13.4063 10.7987 13.3844 10.857C13.3341 10.9318 13.2917 11.0115 13.2579 11.095C13.2871 11.095 13.5812 11.2324 13.5812 11.2324L14.7254 11.5899L14.7088 12.1324C14.4923 12.2187 14.3017 12.3594 14.1555 12.5407C14.1004 12.6612 14.0328 12.7757 13.954 12.8823C14.2898 13.0186 14.5807 13.1752 14.8216 13.3481ZM17.0315 14.1758C17.0315 13.8996 17.2554 13.6758 17.5315 13.6758H18.5315C18.8076 13.6758 19.0315 13.8996 19.0315 14.1758V16.2168H21.0322C21.3084 16.2168 21.5322 16.4407 21.5322 16.7168V17.7168C21.5322 17.9929 21.3084 18.2168 21.0322 18.2168H19.0315V20.2578C19.0315 20.534 18.8076 20.7578 18.5315 20.7578H17.5315C17.2554 20.7578 17.0315 20.534 17.0315 20.2578V18.2168H15.0308C14.7546 18.2168 14.5308 17.9929 14.5308 17.7168V16.7168C14.5308 16.4407 14.7546 16.2168 15.0308 16.2168H17.0315V14.1758Z" fill="#8DBB00"/>
</svg>