<svg width="24" height="24" viewBox="0 0 24 24" fill="none" xmlns="http://www.w3.org/2000/svg">
<path fill-rule="evenodd" clip-rule="evenodd" d="M11.1629 13.542V20.0101L11.061 20.0125H10.2317C8.07805 19.9663 6.05347 19.5612 4.27586 18.8797C4.02124 18.7821 3.87206 18.5193 3.91332 18.2498C3.98695 17.7687 4.07209 17.2869 4.15941 16.9465C4.40689 15.9816 5.79904 15.265 7.07999 14.714C7.4154 14.5697 7.61788 14.4545 7.82246 14.3382C8.02229 14.2246 8.22412 14.1098 8.55379 13.9656C8.59122 13.7879 8.60627 13.6064 8.59859 13.4252L9.16599 13.3578C9.16599 13.3578 9.24065 13.4935 9.12088 12.6964C9.12088 12.6964 8.48326 12.5311 8.45372 11.2619C8.45372 11.2619 7.97431 11.4213 7.9454 10.6523C7.93942 10.4991 7.89983 10.3517 7.86189 10.2106C7.7709 9.87203 7.68944 9.56893 8.10425 9.30483L7.80498 8.50683C7.80498 8.50683 7.49014 5.42523 8.8699 5.6747C8.31012 4.78783 13.0311 4.05064 13.3447 6.76614C13.468 7.58473 13.468 8.41669 13.3447 9.23529C13.3447 9.23529 14.0499 9.15421 13.5791 10.4951C13.5791 10.4951 13.3199 11.4603 12.9218 11.2435C12.9218 11.2435 12.9705 12.1653 12.5714 12.542H12.1629C11.6106 12.542 11.1629 12.9897 11.1629 13.542ZM12.5742 13.6455H14.1712H19.661L18.2417 16.4083L19.661 19.1711H14.1712V21.1792H12.5742V19.1711V13.6455Z" fill="#525C69"/>
</svg>
