<svg width="24" height="24" viewBox="0 0 24 24" fill="none" xmlns="http://www.w3.org/2000/svg">
<path fill-rule="evenodd" clip-rule="evenodd" d="M10.8186 19.5696V12.1463C10.8186 11.4079 11.3967 10.8438 12.1534 10.8438H13.5269C13.575 10.5289 13.5607 10.2582 13.5607 10.2582C13.9834 10.4883 14.2587 9.46346 14.2587 9.46346C14.7586 8.03959 14.0097 8.12569 14.0097 8.12569C14.1407 7.25645 14.1407 6.37302 14.0097 5.50379C13.6767 2.6203 8.66371 3.40309 9.25812 4.34483C7.79301 4.07993 8.12733 7.35216 8.12733 7.35216L8.44511 8.19953C8.00464 8.47997 8.09114 8.80181 8.18776 9.16133C8.22804 9.31121 8.27008 9.46764 8.27644 9.63035C8.30713 10.4469 8.8162 10.2777 8.8162 10.2777C8.84757 11.6254 9.52463 11.8009 9.52463 11.8009C9.65181 12.6473 9.57254 12.5032 9.57254 12.5032L8.97003 12.5748C8.97818 12.7672 8.96221 12.96 8.92246 13.1486C8.5724 13.3018 8.35808 13.4236 8.14588 13.5443C7.92865 13.6678 7.71364 13.7901 7.35749 13.9433C5.9973 14.5284 4.51903 15.2894 4.25623 16.3139C4.18031 16.6099 4.10593 17.0066 4.03854 17.4211C3.96562 17.8697 4.21509 18.309 4.6421 18.4646C6.46433 19.1286 8.51971 19.5223 10.6997 19.5696H10.8186Z" fill="#525C69"/>
<path fill-rule="evenodd" clip-rule="evenodd" d="M17.5728 12.0107H13.112C12.5661 12.0107 12.1489 12.3975 12.1489 12.9036V20.0597C12.1489 20.5357 12.5661 20.9526 13.112 20.9526H17.5728C18.1188 20.9526 18.5359 20.5357 18.5359 20.0597V12.9036C18.5359 12.398 18.1188 12.0107 17.5728 12.0107ZM15.3423 20.3421C15.0068 20.3421 14.7324 20.0742 14.7324 19.7466C14.7324 19.419 15.0068 19.1512 15.3423 19.1512C15.6779 19.1512 15.9523 19.419 15.9523 19.7466C15.9523 20.0742 15.6779 20.3421 15.3423 20.3421ZM17.4796 18.7191H13.2053V13.2264H17.48L17.4796 18.7191Z" fill="#525C69"/>
</svg>
