<svg width="24" height="24" viewBox="0 0 24 24" fill="none" xmlns="http://www.w3.org/2000/svg">
<path fill-rule="evenodd" clip-rule="evenodd" d="M8.4115 18.2749L9.37141 19.2617C7.8329 19.0936 6.38187 18.7406 5.06614 18.2362C4.81151 18.1386 4.66234 17.8758 4.70359 17.6062C4.77723 17.1251 4.86237 16.6433 4.94968 16.3029C5.19716 15.3381 6.58931 14.6215 7.87027 14.0704C8.20567 13.9261 8.40815 13.811 8.61273 13.6947C8.81256 13.581 9.01439 13.4663 9.34406 13.322C9.38149 13.1444 9.39654 12.9629 9.38886 12.7816L9.95627 12.7143C9.95627 12.7143 10.0309 12.8499 9.91115 12.0528C9.91115 12.0528 9.27353 11.8876 9.24399 10.6184C9.24399 10.6184 8.76458 10.7777 8.73567 10.0087C8.72969 9.85551 8.6901 9.70819 8.65216 9.56704C8.56117 9.22847 8.47971 8.92538 8.89452 8.66127L8.59525 7.86327C8.59525 7.86327 8.28041 4.78167 9.66017 5.03114C9.10039 4.14427 13.8214 3.40708 14.1349 6.12258C14.2583 6.94118 14.2583 7.77314 14.1349 8.59173C14.1349 8.59173 14.8402 8.51065 14.3694 9.85157C14.3694 9.85157 14.1102 10.8167 13.7121 10.6C13.7121 10.6 13.7766 11.8196 13.1498 12.0263C13.1498 12.0263 13.1946 12.6759 13.1946 12.7199L13.7184 12.7981C13.7184 12.7981 13.7125 12.9994 13.7316 13.1698L13.5655 13.2053L8.4115 18.2749ZM17.189 12.4657H18.2972C20.0367 12.4657 21.4469 13.8759 21.4469 15.6154V15.9085C21.4469 17.648 20.0367 19.0582 18.2972 19.0582H14.7626V21.919L11.0247 18.181L14.7626 14.4431V17.2054H18.2972C19.0135 17.2054 19.5942 16.6248 19.5942 15.9085V15.6154C19.5942 14.8991 19.0135 14.3185 18.2972 14.3185H17.189V12.4657Z" fill="#525C69"/>
</svg>
