<svg width="24" height="24" viewBox="0 0 24 24" fill="none" xmlns="http://www.w3.org/2000/svg">
<path fill-rule="evenodd" clip-rule="evenodd" d="M9.02391 15.1677C9.82052 14.6165 12.0775 13.2875 14.3551 11.9722C14.0202 11.694 13.4923 11.4374 12.7744 11.252C12.3217 11.1258 11.8914 10.9302 11.4989 10.6721C11.4142 10.623 11.4261 10.1702 11.4261 10.1702L10.9954 10.1034C10.9954 10.0665 10.9587 9.52347 10.9587 9.52347C11.4738 9.35064 11.4207 8.33087 11.4207 8.33087C11.7477 8.51272 11.9606 7.70693 11.9606 7.70693C12.3474 6.58594 11.768 6.6536 11.768 6.6536C11.8694 5.96911 11.8694 5.27345 11.768 4.58896C11.5105 2.31821 7.63239 2.93453 8.09209 3.67519C6.95865 3.46543 7.21673 6.04349 7.21673 6.04349L7.46268 6.70999C7.12204 6.93038 7.18867 7.18374 7.26321 7.4672C7.29433 7.58554 7.32684 7.70913 7.33166 7.83775C7.35538 8.48086 7.74844 8.3475 7.74844 8.3475C7.77273 9.40872 8.29596 9.54828 8.29596 9.54828C8.39451 10.2148 8.33323 10.1014 8.33323 10.1014L7.86704 10.1578C7.87333 10.3091 7.861 10.4606 7.83033 10.6089C7.55858 10.7298 7.39267 10.8259 7.22844 10.921L7.22844 10.921C7.06076 11.0181 6.89483 11.1142 6.6198 11.2346C5.56768 11.6953 4.42379 12.2947 4.21964 13.1013C4.11537 13.5132 3.90763 14.5462 3.7293 15.4585C3.68408 15.6898 3.80652 15.9219 4.02606 16.0076C5.15425 16.4479 6.43379 16.771 7.8109 16.9461C8.11335 16.1841 8.50893 15.5241 9.02391 15.1677ZM15.0108 11.5942C15.8242 11.1261 16.6224 10.6695 17.3391 10.261C17.2942 10.2367 17.2478 10.215 17.2001 10.1961L17.1843 9.67136L18.2904 9.3257C18.2904 9.3257 18.5755 9.19291 18.6029 9.19291C18.5586 9.10035 18.5077 9.01112 18.4505 8.92591C18.4296 8.86952 18.3254 8.48778 18.3254 8.48778C18.4868 8.69449 18.6761 8.8779 18.8878 9.03277C18.6996 8.68111 18.5384 8.3157 18.4056 7.93968C18.3169 7.59215 18.2553 7.2383 18.2212 6.88128C18.145 6.2178 18.0267 5.55983 17.8668 4.91137C17.752 4.58782 17.5495 4.3025 17.2817 4.08725C16.8857 3.81274 16.4234 3.64874 15.9427 3.61219H15.8862C15.4064 3.64905 14.945 3.81304 14.5498 4.08725C14.2823 4.30292 14.0799 4.58837 13.965 4.91193C13.8049 5.56034 13.6867 6.21833 13.6109 6.88184C13.5817 7.24696 13.5229 7.60912 13.4352 7.96478C13.3023 8.33427 13.1383 8.69184 12.9448 9.03361C13.1562 8.87834 13.3451 8.69466 13.5061 8.48778C13.5061 8.48778 13.3723 8.90843 13.3511 8.96482C13.3025 9.0371 13.2616 9.1142 13.2288 9.19488C13.2571 9.19488 13.5414 9.32767 13.5414 9.32767L14.6475 9.67333L14.6314 10.1977C14.4221 10.2812 14.2378 10.4171 14.0966 10.5925C14.0432 10.7089 13.9779 10.8196 13.9017 10.9226C14.3643 11.1103 14.7388 11.338 15.0108 11.5942ZM20.6155 9.95367C20.6272 9.9532 20.6381 9.95275 20.6483 9.9522C20.8641 9.9405 21.0023 10.2444 21.0454 10.7377C21.0886 11.2309 19.9554 15.3891 19.9554 15.3891C19.7092 16.5099 18.5812 17.1902 18.5812 17.1902L14.0468 19.7128C13.8026 19.8486 13.4558 20.206 13.4558 20.206C12.9867 21.1015 11.8666 21.4313 10.9547 20.9952C10.436 20.7471 9.84225 20.4823 9.24719 20.2573C8.93875 20.1407 8.92395 19.9148 8.95517 19.8037C9.24619 18.7673 9.52427 18.0254 9.78942 17.5782C10.615 16.1855 11.5251 15.4511 12.0589 15.1542C12.3186 15.0097 13.1295 14.5664 13.9247 14.1317C14.6898 13.7134 15.4405 13.303 15.6719 13.1743C16.1437 12.9118 16.5505 12.8124 16.8699 13.3865C17.1893 13.9607 16.7145 14.419 16.4816 14.5485L14.4925 15.6551C14.133 15.8551 14.3278 16.2052 14.3278 16.2052C14.4909 16.4984 14.8578 16.3678 14.8578 16.3678L17.5397 14.8758C17.8221 14.7187 17.8844 14.5256 17.8844 14.5256L19.3792 11.1381C19.8495 9.98487 20.3798 9.96327 20.6155 9.95367Z" fill="#525C69"/>
</svg>
