<svg width="24" height="24" viewBox="0 0 24 24" fill="none" xmlns="http://www.w3.org/2000/svg">
<path fill-rule="evenodd" clip-rule="evenodd" d="M10.0381 16.7612C10.0381 17.7754 10.2889 18.7311 10.7318 19.5696H10.7001C8.51998 19.5223 6.46448 19.1286 4.64215 18.4646C4.21514 18.309 3.96567 17.8697 4.03859 17.4211C4.10598 17.0066 4.18035 16.6099 4.25628 16.3139C4.51907 15.2894 5.99734 14.5284 7.35754 13.9433C7.71369 13.7901 7.9287 13.6678 8.14593 13.5443C8.35813 13.4236 8.57244 13.3018 8.92251 13.1486C8.96226 12.96 8.97823 12.7672 8.97008 12.5748L9.57258 12.5032C9.57258 12.5032 9.65186 12.6473 9.52468 11.8009C9.52468 11.8009 8.84762 11.6254 8.81624 10.2777C8.81624 10.2777 8.30718 10.4469 8.27648 9.63035C8.27013 9.46764 8.22809 9.31121 8.18781 9.16133C8.09119 8.80181 8.00469 8.47997 8.44516 8.19953L8.12738 7.35216C8.12738 7.35216 7.79306 4.07993 9.25817 4.34483C8.66376 3.40309 13.6768 2.6203 14.0098 5.50379C14.1408 6.37302 14.1408 7.25645 14.0098 8.12569C14.0098 8.12569 14.7587 8.03959 14.2587 9.46346C14.2587 9.46346 13.9834 10.4883 13.5607 10.2582C13.5607 10.2582 13.5953 10.9121 13.3765 11.3694C11.3975 12.3558 10.0381 14.3997 10.0381 16.7612ZM20.5371 16.7605C20.5371 19.2338 18.5321 21.2388 16.0588 21.2388C13.5856 21.2388 11.5806 19.2338 11.5806 16.7605C11.5806 14.2873 13.5856 12.2823 16.0588 12.2823C18.5321 12.2823 20.5371 14.2873 20.5371 16.7605ZM15.3405 14.9209L14.7757 14.1437C14.6027 13.9089 14.2608 13.8907 14.0658 14.1073C13.3128 14.9199 13.0204 16.2737 14.8479 18.0559C16.6753 19.8382 17.9834 19.4837 18.7365 18.6712C18.9314 18.4548 18.8992 18.11 18.6618 17.9453L17.8908 17.4018C17.6078 17.2114 17.2223 17.3317 17.0332 17.6237L16.822 17.95C16.7757 18.025 16.6787 18.0458 16.6043 18.0056C15.886 17.5837 15.2566 16.9741 14.8056 16.2611C14.7658 16.19 14.7863 16.0879 14.8519 16.0384L15.1687 15.808C15.4447 15.6065 15.5416 15.1968 15.3405 14.9209Z" fill="#525C69"/>
</svg>
