<svg width="24" height="24" viewBox="0 0 24 24" fill="none" xmlns="http://www.w3.org/2000/svg">
<path fill-rule="evenodd" clip-rule="evenodd" d="M10.4624 16.1565C10.4624 17.071 10.6607 17.9391 11.0167 18.7203C10.9483 18.7225 10.8798 18.7243 10.8112 18.7257H9.9133C7.68324 18.6779 5.58098 18.2746 3.71822 17.5941C3.29132 17.4381 3.0419 16.9989 3.11457 16.5503C3.18393 16.1221 3.26065 15.7116 3.33899 15.4062C3.60694 14.3616 5.11419 13.5857 6.50105 12.9892C6.86418 12.8329 7.08341 12.7082 7.3049 12.5823C7.52125 12.4593 7.73977 12.335 8.0967 12.1789C8.13722 11.9865 8.15351 11.79 8.1452 11.5938L8.75952 11.5208C8.75952 11.5208 8.84035 11.6677 8.71067 10.8047C8.71067 10.8047 8.02034 10.6258 7.98835 9.25167C7.98835 9.25167 7.46931 9.42419 7.43801 8.59162C7.43153 8.42572 7.38866 8.26623 7.34759 8.11341C7.24908 7.74684 7.16088 7.41869 7.60999 7.13275L7.28597 6.26877C7.28597 6.26877 6.94511 2.93238 8.43894 3.20248C7.83288 2.24228 12.9442 1.44414 13.2837 4.38416C13.4173 5.27044 13.4173 6.17118 13.2837 7.05746C13.2837 7.05746 14.0473 6.96968 13.5375 8.42145C13.5375 8.42145 13.2568 9.4664 12.8259 9.23175C12.8259 9.23175 12.8957 10.5522 12.217 10.776C12.217 10.776 12.2655 11.4793 12.2655 11.5269L12.5038 11.5625C11.2502 12.6952 10.4624 14.3339 10.4624 16.1565ZM21.521 16.1569C21.521 13.4679 19.3412 11.2881 16.6522 11.2881C13.9633 11.2881 11.7834 13.4679 11.7834 16.1569C11.7834 18.8458 13.9633 21.0256 16.6522 21.0256C19.3412 21.0256 21.521 18.8458 21.521 16.1569ZM16.0632 16.7945L18.857 14.0007L19.6809 14.8246L16.064 18.4414L14.074 16.453L14.8979 15.6291L16.0632 16.7945Z" fill="#525C69"/>
</svg>
