<svg width="24" height="24" viewBox="0 0 24 24" fill="none" xmlns="http://www.w3.org/2000/svg">
<path fill-rule="evenodd" clip-rule="evenodd" d="M16.0392 19.5053C15.6625 18.8473 15.4472 18.0851 15.4472 17.2726C15.4472 16.126 15.876 15.0795 16.582 14.2849C16.4721 14.2523 16.3584 14.221 16.2407 14.1912C15.6441 14.0278 15.0769 13.7745 14.5594 13.4403C14.4463 13.3768 14.4635 12.7904 14.4635 12.7904L13.8963 12.7056C13.8963 12.658 13.8478 11.9547 13.8478 11.9547C14.5264 11.7309 14.4566 10.4105 14.4566 10.4105C14.8876 10.6451 15.1682 9.60016 15.1682 9.60016C15.678 8.14839 14.9144 8.23617 14.9144 8.23617C15.048 7.34989 15.048 6.44915 14.9144 5.56287C14.5749 2.62285 9.46361 3.42099 10.0697 4.38119C8.57583 4.11109 8.9167 7.44748 8.9167 7.44748L9.24072 8.31146C8.79161 8.5974 8.87981 8.92555 8.97832 9.29212C9.01939 9.44494 9.06226 9.60443 9.06874 9.77033C9.10004 10.6029 9.61908 10.4304 9.61908 10.4304C9.65107 11.8045 10.3414 11.9834 10.3414 11.9834C10.4711 12.8464 10.3902 12.6995 10.3902 12.6995L9.77593 12.7725C9.78424 12.9687 9.76795 13.1652 9.72743 13.3576C9.3705 13.5137 9.15198 13.638 8.93563 13.761C8.71414 13.8869 8.49491 14.0116 8.13178 14.1679C6.74491 14.7644 5.23766 15.5403 4.96972 16.5849C4.89138 16.8903 4.81466 17.3009 4.7453 17.729C4.67262 18.1776 4.92205 18.6168 5.34895 18.7728C7.21171 19.4533 9.31397 19.8566 11.544 19.9044H12.4419C13.6874 19.8777 14.893 19.7401 16.0392 19.5053ZM17.2115 16.8228C17.0225 16.6338 17.1563 16.3107 17.4236 16.3107H19.4998V12.6279C19.4998 11.5234 18.6044 10.6279 17.4998 10.6279H17.2999C17.1342 10.6279 16.9999 10.4936 16.9999 10.3279V8.92793C16.9999 8.76224 17.1342 8.62793 17.2999 8.62793H17.4998C19.709 8.62793 21.4998 10.4188 21.4998 12.6279V16.3107H23.5242C23.7915 16.3107 23.9254 16.6338 23.7364 16.8228L20.6861 19.8731C20.5689 19.9903 20.3789 19.9903 20.2618 19.8731L17.2115 16.8228Z" fill="#525C69"/>
</svg>
