<svg width="24" height="24" viewBox="0 0 24 24" fill="none" xmlns="http://www.w3.org/2000/svg">
<path fill-rule="evenodd" clip-rule="evenodd" d="M6.52941 6H16.4706C17.3153 6 18 6.68474 18 7.52941V17.4706C18 18.3153 17.3153 19 16.4706 19H6.52941C5.68474 19 5 18.3153 5 17.4706V7.52941C5 6.68474 5.68474 6 6.52941 6ZM7 16.9997H16V15.5264L13.6002 12.5262L12.3999 13.5674L9.39982 10.2764L7 13.2762V16.9997ZM14.5 11C15.3284 11 16 10.3284 16 9.5C16 8.67157 15.3284 8 14.5 8C13.6716 8 13 8.67157 13 9.5C13 10.3284 13.6716 11 14.5 11Z" fill="#525C69"/>
</svg>
