<svg width="24" height="24" viewBox="0 0 24 24" fill="none" xmlns="http://www.w3.org/2000/svg">
	<path fill-rule="evenodd" clip-rule="evenodd" d="M15.0672 4.00195C15.6282 4.00259 16.0825 4.486 16.0819 5.08166C16.0813 5.67733 15.626 6.15969 15.065 6.15905H14.0196L15.054 13.8439H16.0746C16.6201 13.8659 17.0516 14.3417 17.0516 14.9213C17.0516 15.5008 16.6201 15.9767 16.0746 15.9987L13.584 16.001L12.7912 21.6312C12.7969 21.7323 12.7492 21.8284 12.6675 21.8806C12.5857 21.9329 12.4835 21.9327 12.4019 21.8802C12.3203 21.8277 12.2729 21.7315 12.2788 21.6304L11.4137 15.9994L8.97131 16.0002C8.42127 15.9843 7.9832 15.5063 7.9834 14.9221C7.9836 14.3379 8.42199 13.8601 8.97204 13.8447H9.99263L11.0278 6.15905H9.98972C9.43968 6.14318 9.00161 5.6651 9.0018 5.0809C9.002 4.4967 9.4404 4.01895 9.99045 4.0035L15.0672 4.00195Z" fill="#525C69"/>
</svg>
