<svg width="24" height="24" viewBox="0 0 24 24" fill="none" xmlns="http://www.w3.org/2000/svg">
	<path fill-rule="evenodd" clip-rule="evenodd" d="M20.2137 8.29933C20.6559 8.7425 20.6329 9.48235 20.1625 9.95185C19.692 10.4213 18.9522 10.4427 18.5101 9.99953L17.6853 9.17474L12.4382 16.0542L13.2434 16.8594C13.6565 17.3071 13.6215 18.023 13.1642 18.4803C12.7069 18.9376 11.991 18.9725 11.5433 18.5595L9.57644 16.5963L4.50878 20.4129C4.43342 20.4971 4.32 20.5353 4.21428 20.5121C4.10856 20.4888 4.02798 20.408 4.00506 20.3022C3.98213 20.1964 4.02064 20.0831 4.10505 20.0079L7.86531 14.8827L5.93764 12.9563C5.51619 12.5098 5.54776 11.7869 6.00884 11.3262C6.46992 10.8654 7.19275 10.8343 7.63892 11.2561L8.44416 12.0614L15.3248 6.81425L14.5057 5.99521C14.0843 5.54872 14.1158 4.82588 14.5769 4.36511C15.038 3.90434 15.7608 3.87328 16.207 4.29508L20.2137 8.29933Z" fill="#525C69"/>
</svg>
