<svg width="24" height="24" viewBox="0 0 24 24" fill="none" xmlns="http://www.w3.org/2000/svg">
	<path fill-rule="evenodd" clip-rule="evenodd" d="M9.65071 4.31111V5.4805C9.65071 5.91211 9.31308 6.26186 8.89644 6.26186C8.4798 6.26186 8.14218 5.91211 8.14218 5.4805V4.31111L8.14771 4.20959C8.19329 3.82206 8.51469 3.52246 8.90157 3.52442C9.31821 3.52762 9.65275 3.8795 9.65071 4.31111ZM16.6486 5.15946V5.691C16.6486 6.57123 15.959 7.28562 15.1093 7.28562C14.2596 7.28562 13.57 6.57123 13.57 5.691V5.15946H10.4359V5.691C10.4359 6.57123 9.74727 7.28562 8.89654 7.28562C8.04582 7.28562 7.35724 6.57123 7.35724 5.691V5.15946H6.17505C5.12627 5.15734 4.27451 6.03544 4.27246 7.12191C4.27246 7.17612 4.27451 7.23034 4.27862 7.28562V17.9164C4.27862 18.5032 4.73836 18.9795 5.30482 18.9795H13.7129L13.7129 16.8533H6.33106V8.40898H17.6748V13.1008L19.7272 14.3497V7.28562C19.7467 6.16407 18.9103 5.2275 17.8308 5.15946H16.6486ZM12.6133 10.3123H11.4907C11.2646 10.3123 11.0813 10.4944 11.0813 10.7191V11.8343C11.0813 12.0589 11.2646 12.241 11.4907 12.241H12.6133C12.8394 12.241 13.0227 12.0589 13.0227 11.8343V10.7191C13.0227 10.4944 12.8394 10.3123 12.6133 10.3123ZM8.57947 10.3126H9.70208C9.92818 10.3126 10.1115 10.4947 10.1115 10.7193V11.8345C10.1115 12.0591 9.92818 12.2412 9.70208 12.2412H8.57947C8.35336 12.2412 8.17007 12.0591 8.17007 11.8345V10.7193C8.17007 10.4947 8.35336 10.3126 8.57947 10.3126ZM9.70113 13.2054H8.57852C8.35242 13.2054 8.16912 13.3874 8.16912 13.6121V14.7273C8.16912 14.9519 8.35242 15.134 8.57852 15.134H9.70113C9.92724 15.134 10.1105 14.9519 10.1105 14.7273V13.6121C10.1105 13.3874 9.92724 13.2054 9.70113 13.2054ZM11.4907 13.2054H12.6133C12.8394 13.2054 13.0227 13.3874 13.0227 13.6121V14.7273C13.0227 14.9519 12.8394 15.134 12.6133 15.134H11.4907C11.2646 15.134 11.0813 14.9519 11.0813 14.7273V13.6121C11.0813 13.3874 11.2646 13.2054 11.4907 13.2054ZM14.4029 10.3123H15.5255C15.7516 10.3123 15.9349 10.4944 15.9349 10.7191V11.8343C15.9349 12.0589 15.7516 12.241 15.5255 12.241H14.4029C14.1768 12.241 13.9935 12.0589 13.9935 11.8343V10.7191C13.9935 10.4944 14.1768 10.3123 14.4029 10.3123ZM15.8215 5.44858V4.33979C15.8215 3.93157 15.5024 3.60201 15.1093 3.60201C14.7163 3.60201 14.3971 3.93157 14.3971 4.33979V5.44752C14.3971 5.85468 14.7142 6.1853 15.1083 6.18636C15.5024 6.18636 15.8215 5.85574 15.8215 5.44858Z" fill="#95C500"/>
	<path fill-rule="evenodd" clip-rule="evenodd" d="M21.2436 17.1424L15.9546 13.943C15.8299 13.8665 15.6674 13.8578 15.5332 13.9205C15.399 13.9832 15.3155 14.1068 15.3166 14.2411V20.6397C15.315 20.7741 15.3984 20.8981 15.5328 20.9609C15.6672 21.0237 15.83 21.0148 15.9546 20.9378L21.2436 17.7383C21.3554 17.6715 21.4224 17.5598 21.4224 17.4404C21.4224 17.321 21.3554 17.2093 21.2436 17.1424Z" fill="#95C500"/>
	<path d="M9.65071 4.31111V5.4805C9.65071 5.91211 9.31308 6.26186 8.89644 6.26186C8.4798 6.26186 8.14218 5.91211 8.14218 5.4805V4.31111L8.14771 4.20959C8.19329 3.82206 8.51469 3.52246 8.90157 3.52442C9.31821 3.52762 9.65275 3.8795 9.65071 4.31111Z" fill="#95C500"/>
	<path d="M16.6486 5.15946V5.691C16.6486 6.57123 15.959 7.28562 15.1093 7.28562C14.2596 7.28562 13.57 6.57123 13.57 5.691V5.15946H10.4359V5.691C10.4359 6.57123 9.74727 7.28562 8.89654 7.28562C8.04582 7.28562 7.35724 6.57123 7.35724 5.691V5.15946H6.17505C5.12627 5.15734 4.27451 6.03544 4.27246 7.12191C4.27246 7.17612 4.27451 7.23034 4.27862 7.28562V17.9164C4.27862 18.5032 4.73836 18.9795 5.30482 18.9795H13.7129L13.7129 16.8533H6.33106V8.40898H17.6748V13.1008L19.7272 14.3497V7.28562C19.7467 6.16407 18.9103 5.2275 17.8308 5.15946H16.6486Z" fill="#95C500"/>
	<path d="M12.6133 10.3123H11.4907C11.2646 10.3123 11.0813 10.4944 11.0813 10.7191V11.8343C11.0813 12.0589 11.2646 12.241 11.4907 12.241H12.6133C12.8394 12.241 13.0227 12.0589 13.0227 11.8343V10.7191C13.0227 10.4944 12.8394 10.3123 12.6133 10.3123Z" fill="#95C500"/>
	<path d="M8.57947 10.3126H9.70208C9.92818 10.3126 10.1115 10.4947 10.1115 10.7193V11.8345C10.1115 12.0591 9.92818 12.2412 9.70208 12.2412H8.57947C8.35336 12.2412 8.17007 12.0591 8.17007 11.8345V10.7193C8.17007 10.4947 8.35336 10.3126 8.57947 10.3126Z" fill="#95C500"/>
	<path d="M9.70113 13.2054H8.57852C8.35242 13.2054 8.16912 13.3874 8.16912 13.6121V14.7273C8.16912 14.9519 8.35242 15.134 8.57852 15.134H9.70113C9.92724 15.134 10.1105 14.9519 10.1105 14.7273V13.6121C10.1105 13.3874 9.92724 13.2054 9.70113 13.2054Z" fill="#95C500"/>
	<path d="M11.4907 13.2054H12.6133C12.8394 13.2054 13.0227 13.3874 13.0227 13.6121V14.7273C13.0227 14.9519 12.8394 15.134 12.6133 15.134H11.4907C11.2646 15.134 11.0813 14.9519 11.0813 14.7273V13.6121C11.0813 13.3874 11.2646 13.2054 11.4907 13.2054Z" fill="#95C500"/>
	<path d="M14.4029 10.3123H15.5255C15.7516 10.3123 15.9349 10.4944 15.9349 10.7191V11.8343C15.9349 12.0589 15.7516 12.241 15.5255 12.241H14.4029C14.1768 12.241 13.9935 12.0589 13.9935 11.8343V10.7191C13.9935 10.4944 14.1768 10.3123 14.4029 10.3123Z" fill="#95C500"/>
	<path d="M15.8215 5.44858V4.33979C15.8215 3.93157 15.5024 3.60201 15.1093 3.60201C14.7163 3.60201 14.3971 3.93157 14.3971 4.33979V5.44752C14.3971 5.85468 14.7142 6.1853 15.1083 6.18636C15.5024 6.18636 15.8215 5.85574 15.8215 5.44858Z" fill="#95C500"/>
	<path fill-rule="evenodd" clip-rule="evenodd" d="M21.2436 17.1424L15.9546 13.943C15.8299 13.8665 15.6674 13.8578 15.5332 13.9205C15.399 13.9832 15.3155 14.1068 15.3166 14.2411V20.6397C15.315 20.7741 15.3984 20.8981 15.5328 20.9609C15.6672 21.0237 15.83 21.0148 15.9546 20.9378L21.2436 17.7383C21.3554 17.6715 21.4224 17.5598 21.4224 17.4404C21.4224 17.321 21.3554 17.2093 21.2436 17.1424Z" fill="#95C500"/>
</svg>