<svg width="24" height="25" viewBox="0 0 24 25" fill="none" xmlns="http://www.w3.org/2000/svg">
	<path fill-rule="evenodd" clip-rule="evenodd" d="M9.65071 5.9805V4.81111C9.65275 4.3795 9.31821 4.02762 8.90157 4.02442C8.51469 4.02246 8.19329 4.32206 8.14771 4.70959L8.14218 4.81111V5.9805C8.14218 6.41211 8.4798 6.76186 8.89644 6.76186C9.31308 6.76186 9.65071 6.41211 9.65071 5.9805ZM16.6486 6.191V5.65946H17.8308C18.9103 5.7275 19.7467 6.66407 19.7272 7.78562V10.9825C19.0872 10.6922 18.3977 10.4919 17.6748 10.3977V8.90898H6.33106V17.3533H9.47559C9.45982 17.4415 9.45156 17.5274 9.45156 17.6107C9.45156 18.2567 9.53579 18.8831 9.69387 19.4795H5.30482C4.73836 19.4795 4.27862 19.0032 4.27862 18.4164V7.78562C4.27451 7.73034 4.27246 7.67612 4.27246 7.62191C4.27451 6.53544 5.12627 5.65734 6.17505 5.65946H7.35724V6.191C7.35724 7.07123 8.04582 7.78562 8.89654 7.78562C9.74727 7.78562 10.4359 7.07123 10.4359 6.191V5.65946H13.57V6.191C13.57 7.07123 14.2596 7.78562 15.1093 7.78562C15.959 7.78562 16.6486 7.07123 16.6486 6.191ZM11.4907 10.8123H12.6133C12.8394 10.8123 13.0227 10.9944 13.0227 11.2191V12.3343C13.0227 12.5589 12.8394 12.741 12.6133 12.741H11.4907C11.2646 12.741 11.0813 12.5589 11.0813 12.3343V11.2191C11.0813 10.9944 11.2646 10.8123 11.4907 10.8123ZM9.70208 10.8126H8.57947C8.35336 10.8126 8.17007 10.9947 8.17007 11.2193V12.3345C8.17007 12.5591 8.35336 12.7412 8.57947 12.7412H9.70208C9.92818 12.7412 10.1115 12.5591 10.1115 12.3345V11.2193C10.1115 10.9947 9.92818 10.8126 9.70208 10.8126ZM8.57852 13.7054H9.70113C9.92724 13.7054 10.1105 13.8874 10.1105 14.1121V15.2273C10.1105 15.4519 9.92724 15.634 9.70113 15.634H8.57852C8.35242 15.634 8.16912 15.4519 8.16912 15.2273V14.1121C8.16912 13.8874 8.35242 13.7054 8.57852 13.7054ZM15.8215 4.83979V5.94858C15.8215 6.35574 15.5024 6.68636 15.1083 6.68636C14.7142 6.6853 14.3971 6.35468 14.3971 5.94752V4.83979C14.3971 4.43157 14.7163 4.10201 15.1093 4.10201C15.5024 4.10201 15.8215 4.43157 15.8215 4.83979Z" fill="#95C500"/>
	<path fill-rule="evenodd" clip-rule="evenodd" d="M11.8393 19.8073C12.736 21.8012 14.7541 23.0502 16.9386 22.9631C19.8366 22.9038 22.1386 20.508 22.0823 17.6099C22.0821 15.4237 20.7536 13.457 18.7256 12.6406C16.6976 11.8243 14.377 12.3221 12.8623 13.8985C11.3476 15.4749 10.9427 17.8135 11.8393 19.8073ZM16.1974 14.921C16.1974 14.5497 16.4984 14.2487 16.8697 14.2487C17.241 14.2487 17.542 14.5497 17.542 14.921V16.9379H18.8865C19.2578 16.9379 19.5588 17.2389 19.5588 17.6101C19.5588 17.9814 19.2578 18.2824 18.8865 18.2824H16.8696C16.4983 18.2824 16.1973 17.9814 16.1973 17.6101L16.1974 17.5995V14.921Z" fill="#95C500"/>
</svg>