<svg width="24" height="24" viewBox="0 0 24 24" fill="none" xmlns="http://www.w3.org/2000/svg">
<path fill-rule="evenodd" clip-rule="evenodd" d="M19.6343 12.024C19.6343 16.2393 16.2172 19.6564 12.0019 19.6564C7.78665 19.6564 4.36951 16.2393 4.36951 12.024C4.36951 7.80874 7.78665 4.3916 12.0019 4.3916C16.2172 4.3916 19.6343 7.80874 19.6343 12.024ZM17.8826 12.0242C17.8826 15.2721 15.2497 17.9049 12.0019 17.9049C8.75409 17.9049 6.12122 15.2721 6.12122 12.0242C6.12122 8.77643 8.75409 6.14355 12.0019 6.14355C15.2497 6.14355 17.8826 8.77643 17.8826 12.0242ZM11.0409 8.61976C10.5749 8.3236 9.96547 8.65839 9.96547 9.21056V14.8249C9.96547 15.377 10.5749 15.7118 11.0409 15.4157L15.4582 12.6085C15.891 12.3335 15.891 11.7019 15.4582 11.4269L11.0409 8.61976Z" fill="#525C69"/>
</svg>
