<svg width="24" height="25" viewBox="0 0 24 25" fill="none" xmlns="http://www.w3.org/2000/svg">
<path d="M7.2981 11.1669C7.45128 8.54325 9.62743 6.46289 12.2895 6.46289H16.2227C16.775 6.46289 17.2227 6.91061 17.2227 7.46289V8.5006H20C20.5523 8.5006 21 8.94832 21 9.5006C21 10.0529 20.5523 10.5006 20 10.5006H17.2227V14.5006H20C20.5523 14.5006 21 14.9483 21 15.5006C21 16.0529 20.5523 16.5006 20 16.5006H17.2227V17.5371C17.2227 18.0894 16.775 18.5371 16.2227 18.5371H12.2895C9.57993 18.5371 7.37377 16.3818 7.29184 13.6922C6.77589 13.782 6.38459 13.9414 6.103 14.148C5.62718 14.497 5.2076 15.1782 5.31947 16.7102C5.36974 17.3987 4.85234 17.9976 4.16382 18.0479C3.4753 18.0982 2.87638 17.5808 2.82611 16.8922C2.6756 14.831 3.22453 13.1588 4.62442 12.1321C5.38774 11.5722 6.30843 11.2799 7.2981 11.1669Z" fill="#525C69"/>
</svg>
