<svg width="24" height="25" viewBox="0 0 24 25" fill="none" xmlns="http://www.w3.org/2000/svg">
<path d="M18.2648 9.52148C18.6513 9.52148 18.966 9.85595 18.966 10.2667V15.4832C18.966 15.894 18.6513 16.2284 18.2648 16.2284H17.5636V18.7358C17.5636 19.1466 17.2489 19.481 16.8625 19.481H7.04593C6.65945 19.481 6.34475 19.1466 6.34475 18.7358V16.2284H5.64356C5.25709 16.2284 4.94238 15.894 4.94238 15.4832V10.2667C4.94238 9.85595 5.25709 9.52148 5.64356 9.52148H18.2648ZM16.1613 15.4832H7.74711V17.9906H16.1613V15.4832ZM16.8625 11.0119C16.476 11.0119 16.1613 11.3464 16.1613 11.7571C16.1613 12.1679 16.476 12.5023 16.8625 12.5023C17.2489 12.5023 17.5636 12.1679 17.5636 11.7571C17.5636 11.3464 17.2489 11.0119 16.8625 11.0119ZM16.6842 5.44238C16.8401 5.44238 16.9632 5.58131 16.9632 5.75044V8.20286C16.9632 8.37501 16.8374 8.51092 16.6842 8.51092H7.22479C7.0716 8.51092 6.94576 8.37501 6.94576 8.20588V5.75044C6.94576 5.58131 7.0716 5.44238 7.22479 5.44238L16.6842 5.44238Z" fill="#525C69"/>
</svg>
