<svg width="24" height="25" viewBox="0 0 24 25" fill="none" xmlns="http://www.w3.org/2000/svg">
<path d="M9 3.5C8.44772 3.5 8 3.94772 8 4.5V6.5H17V4.5C17 3.94772 16.5523 3.5 16 3.5H9Z" fill="#525C69"/>
<path fill-rule="evenodd" clip-rule="evenodd" d="M5 9.5C5 8.39543 5.89543 7.5 7 7.5H18C19.1046 7.5 20 8.39543 20 9.5V13.5C20 14.6046 19.1046 15.5 18 15.5V14.5C18 13.9477 17.5523 13.5 17 13.5H8C7.44772 13.5 7 13.9477 7 14.5L7 15.5C5.89543 15.5 5 14.6046 5 13.5V9.5ZM18 10.5C18 11.0523 17.5523 11.5 17 11.5C16.4477 11.5 16 11.0523 16 10.5C16 9.94771 16.4477 9.5 17 9.5C17.5523 9.5 18 9.94771 18 10.5ZM12 10.5078C12 10.2798 12.1848 10.095 12.4128 10.095H14.5872C14.8152 10.095 15 10.2798 15 10.5078C15 10.7358 14.8152 10.9206 14.5872 10.9206H12.4128C12.1848 10.9206 12 10.7358 12 10.5078Z" fill="#525C69"/>
<path fill-rule="evenodd" clip-rule="evenodd" d="M8 15C8 14.7239 8.22386 14.5 8.5 14.5H16.5C16.7761 14.5 17 14.7239 17 15V20C17 20.2761 16.7761 20.5 16.5 20.5H8.5C8.22386 20.5 8 20.2761 8 20V15ZM9 17C9 16.7239 9.22386 16.5 9.5 16.5H15.5C15.7761 16.5 16 16.7239 16 17C16 17.2761 15.7761 17.5 15.5 17.5H9.5C9.22386 17.5 9 17.2761 9 17ZM9.5 18.5C9.22386 18.5 9 18.7239 9 19C9 19.2761 9.22386 19.5 9.5 19.5H15.5C15.7761 19.5 16 19.2761 16 19C16 18.7239 15.7761 18.5 15.5 18.5H9.5Z" fill="#525C69"/>
</svg>
