<svg width="24" height="24" viewBox="0 0 24 24" fill="none" xmlns="http://www.w3.org/2000/svg">
<path d="M4.97185 4.66626C5.54285 4.22214 6.2745 4 7 4H7.6C7.82091 4 8 4.17909 8 4.4V5.6C8 5.82091 7.82091 6 7.6 6H7C6.66464 6 6.37886 6.10563 6.19973 6.24496C6.02643 6.37975 6 6.50095 6 6.55556V10.4444C6 11.0422 5.76224 11.5796 5.38626 12C5.76224 12.4204 6 12.9578 6 13.5556V17.4444C6 17.4999 6.02732 17.6183 6.20144 17.7537C6.37595 17.8894 6.65606 18 7 18H7.6C7.82091 18 8 18.1791 8 18.4V19.6C8 19.8209 7.82091 20 7.6 20H7C5.59616 20 4 19.0716 4 17.4444V13.5556C4 13.5009 3.97357 13.3798 3.80027 13.245C3.6971 13.1647 3.55856 13.0957 3.39554 13.0515C3.18231 12.9938 3 12.8209 3 12.6V11.4C3 11.1791 3.18231 11.0062 3.39554 10.9485C3.55856 10.9043 3.6971 10.8353 3.80027 10.755C3.97357 10.6202 4 10.4991 4 10.4444V6.55556C4 5.78504 4.395 5.11492 4.97185 4.66626Z" fill="#95C500"/>
<path d="M19.0282 4.66626C18.4571 4.22214 17.7255 4 17 4H16.4C16.1791 4 16 4.17909 16 4.4V5.6C16 5.82091 16.1791 6 16.4 6H17C17.3354 6 17.6211 6.10563 17.8003 6.24496C17.9736 6.37975 18 6.50095 18 6.55556V10.4444C18 11.0422 18.2378 11.5796 18.6137 12C18.2378 12.4204 18 12.9578 18 13.5556V17.4444C18 17.4999 17.9727 17.6183 17.7986 17.7537C17.6241 17.8894 17.3439 18 17 18H16.4C16.1791 18 16 18.1791 16 18.4V19.6C16 19.8209 16.1791 20 16.4 20H17C18.4038 20 20 19.0716 20 17.4444V13.5556C20 13.5009 20.0264 13.3798 20.1997 13.245C20.3029 13.1647 20.4414 13.0957 20.6045 13.0515C20.8177 12.9938 21 12.8209 21 12.6V11.4C21 11.1791 20.8177 11.0062 20.6045 10.9485C20.4414 10.9043 20.3029 10.8353 20.1997 10.755C20.0264 10.6202 20 10.4991 20 10.4444V6.55556C20 5.78504 19.605 5.11492 19.0282 4.66626Z" fill="#95C500"/>
<path d="M11.0129 6.95114C10.9513 6.78451 10.7156 6.78451 10.6539 6.95114L9.97301 8.79132C9.77916 9.31521 9.36611 9.72825 8.84223 9.92211L7.00205 10.603C6.83542 10.6647 6.83542 10.9004 7.00205 10.962L8.84223 11.643C9.36611 11.8368 9.77916 12.2499 9.97301 12.7737L10.6539 14.6139C10.7156 14.7805 10.9513 14.7805 11.0129 14.6139L11.6939 12.7737C11.8877 12.2499 12.3008 11.8368 12.8246 11.643L14.6648 10.962C14.8315 10.9004 14.8315 10.6647 14.6648 10.603L12.8246 9.92211C12.3008 9.72825 11.8877 9.3152 11.6939 8.79132L11.0129 6.95114Z" fill="#95C500"/>
<path d="M14.7672 12.4521C14.7282 12.3467 14.5792 12.3467 14.5402 12.4521L14.1097 13.6155C13.9871 13.9468 13.7259 14.2079 13.3947 14.3305L12.2312 14.761C12.1259 14.8 12.1259 14.949 12.2312 14.988L13.3947 15.4185C13.7259 15.5411 13.9871 15.8022 14.1097 16.1335L14.5402 17.297C14.5792 17.4023 14.7282 17.4023 14.7672 17.297L15.1977 16.1335C15.3203 15.8022 15.5814 15.5411 15.9127 15.4185L17.0761 14.988C17.1815 14.949 17.1815 14.8 17.0761 14.761L15.9127 14.3305C15.5814 14.2079 15.3203 13.9468 15.1977 13.6155L14.7672 12.4521Z" fill="#95C500"/>
</svg>
