<svg width="24" height="24" viewBox="0 0 24 24" fill="none" xmlns="http://www.w3.org/2000/svg">
<path d="M4.97185 4.66626C5.54285 4.22214 6.2745 4 7 4H7.6C7.82091 4 8 4.17909 8 4.4V5.6C8 5.82091 7.82091 6 7.6 6H7C6.66464 6 6.37886 6.10563 6.19973 6.24496C6.02643 6.37975 6 6.50095 6 6.55556V10.4444C6 11.0422 5.76224 11.5796 5.38626 12C5.76224 12.4204 6 12.9578 6 13.5556V17.4444C6 17.4999 6.02732 17.6183 6.20144 17.7537C6.37595 17.8894 6.65606 18 7 18H7.6C7.82091 18 8 18.1791 8 18.4V19.6C8 19.8209 7.82091 20 7.6 20H7C5.59616 20 4 19.0716 4 17.4444V13.5556C4 13.5009 3.97357 13.3798 3.80027 13.245C3.6971 13.1647 3.55856 13.0957 3.39554 13.0515C3.18231 12.9938 3 12.8209 3 12.6V11.4C3 11.1791 3.18231 11.0062 3.39554 10.9485C3.55856 10.9043 3.6971 10.8353 3.80027 10.755C3.97357 10.6202 4 10.4991 4 10.4444V6.55556C4 5.78504 4.395 5.11492 4.97185 4.66626Z" fill="#95C500"/>
<path d="M19.0282 4.66626C18.4571 4.22214 17.7255 4 17 4H16.4C16.1791 4 16 4.17909 16 4.4V5.6C16 5.82091 16.1791 6 16.4 6H17C17.3354 6 17.6211 6.10563 17.8003 6.24496C17.9736 6.37975 18 6.50095 18 6.55556V10.4444C18 11.0422 18.2378 11.5796 18.6137 12C18.2378 12.4204 18 12.9578 18 13.5556V17.4444C18 17.4999 17.9727 17.6183 17.7986 17.7537C17.6241 17.8894 17.3439 18 17 18H16.4C16.1791 18 16 18.1791 16 18.4V19.6C16 19.8209 16.1791 20 16.4 20H17C18.4038 20 20 19.0716 20 17.4444V13.5556C20 13.5009 20.0264 13.3798 20.1997 13.245C20.3029 13.1647 20.4414 13.0957 20.6045 13.0515C20.8177 12.9938 21 12.8209 21 12.6V11.4C21 11.1791 20.8177 11.0062 20.6045 10.9485C20.4414 10.9043 20.3029 10.8353 20.1997 10.755C20.0264 10.6202 20 10.4991 20 10.4444V6.55556C20 5.78504 19.605 5.11492 19.0282 4.66626Z" fill="#95C500"/>
<path d="M8.9 8C8.67909 8 8.5 8.17909 8.5 8.4V9.6C8.5 9.82091 8.67909 10 8.9 10H11V15.6C11 15.8209 11.1791 16 11.4 16H12.6C12.8209 16 13 15.8209 13 15.6V10H15.1C15.3209 10 15.5 9.82091 15.5 9.6V8.4C15.5 8.17909 15.3209 8 15.1 8H8.9Z" fill="#95C500"/>
</svg>
