<svg width="24" height="24" viewBox="0 0 24 24" fill="none" xmlns="http://www.w3.org/2000/svg">
<path fill-rule="evenodd" clip-rule="evenodd" d="M16.6052 15.7063C16.8232 15.7063 17 15.5294 17 15.311L17 5.3953C17 5.17698 16.8232 5 16.6052 5H8.46757C7.11041 5 6 6.11179 6 7.47063V16.5294C6 17.8882 7.11041 19 8.46757 19H16.6052C16.8232 19 17 18.823 17 18.6047V17.7485C17 17.5302 16.8232 17.3532 16.6052 17.3532H8.46757C8.01492 17.3532 7.64478 16.9826 7.64478 16.5294C7.64556 16.0769 8.01569 15.7063 8.46757 15.7063L16.6052 15.7063ZM11.8412 7.11056C11.8958 6.96315 12.1042 6.96315 12.1588 7.11056L12.7612 8.73847C12.9327 9.20193 13.2981 9.56733 13.7615 9.73882L15.3894 10.3412C15.5369 10.3958 15.5369 10.6042 15.3894 10.6588L13.7615 11.2612C13.2981 11.4327 12.9327 11.7981 12.7612 12.2615L12.1588 13.8894C12.1042 14.0369 11.8958 14.0369 11.8412 13.8894L11.2388 12.2615C11.0673 11.7981 10.7019 11.4327 10.2385 11.2612L8.61056 10.6588C8.46315 10.6042 8.46315 10.3958 8.61056 10.3412L10.2385 9.73882C10.7019 9.56733 11.0673 9.20193 11.2388 8.73848L11.8412 7.11056Z" fill="#95C500"/>
</svg>
