<svg width="24" height="24" viewBox="0 0 24 24" fill="none" xmlns="http://www.w3.org/2000/svg">
<path fill-rule="evenodd" clip-rule="evenodd" d="M8.79774 3.02806C9.36056 3.04737 9.83486 3.45659 9.93954 4.0132L11.928 14.5858L14.0445 8.67196C14.2104 8.20838 14.6389 7.89214 15.1283 7.87217C15.6177 7.8522 16.0704 8.1325 16.2731 8.58104L17.9587 12.3114H20.1159C20.7808 12.3114 21.3198 12.8535 21.3198 13.5223C21.3198 14.1911 20.7808 14.7333 20.1159 14.7333H17.1835C16.7114 14.7333 16.2829 14.4557 16.0876 14.0234L15.3067 12.2952L12.6983 19.5836C12.5144 20.0974 12.0114 20.4238 11.4703 20.3806C10.9291 20.3373 10.4837 19.9351 10.3828 19.3985L8.56952 9.75741L7.51388 13.828C7.3756 14.3612 6.89685 14.7333 6.34903 14.7333H3.33945C2.67459 14.7333 2.13562 14.1911 2.13562 13.5223C2.13562 12.8535 2.67459 12.3114 3.33945 12.3114H5.41895L7.59184 3.93264C7.734 3.3845 8.23492 3.00874 8.79774 3.02806Z" fill="#525C69"/>
</svg>
