<svg width="24" height="24" viewBox="0 0 24 24" fill="none" xmlns="http://www.w3.org/2000/svg">
<path fill-rule="evenodd" clip-rule="evenodd" d="M3.95728 11.9839C3.95728 16.3932 7.53178 19.9678 11.9412 19.9678C16.3505 19.9678 19.925 16.3932 19.925 11.9839C19.925 7.5745 16.3505 4 11.9412 4C7.53178 4 3.95728 7.5745 3.95728 11.9839ZM10.4328 7.1398C10.32 6.70601 9.93234 6.40027 9.4842 6.39167C9.03606 6.38306 8.63694 6.6737 8.50757 7.10284L6.90822 12.4079H5.73132C5.17904 12.4079 4.73132 12.8557 4.73132 13.4079C4.73132 13.9602 5.17904 14.4079 5.73132 14.4079H7.6512C8.09231 14.4079 8.48131 14.1189 8.60863 13.6966L9.39396 11.0916L11.0168 17.3322C11.1235 17.7425 11.4774 18.0409 11.8998 18.0769C12.3222 18.1128 12.7214 17.8785 12.896 17.4921L14.8666 13.1288L15.285 13.8898C15.4607 14.2094 15.7965 14.4079 16.1613 14.4079H17.7404C18.2926 14.4079 18.7404 13.9602 18.7404 13.4079C18.7404 12.8557 18.2926 12.4079 17.7404 12.4079H16.7526L15.655 10.4119C15.4725 10.0799 15.1181 9.87962 14.7395 9.89449C14.361 9.90936 14.0233 10.1369 13.8674 10.4821L12.2394 14.0869L10.4328 7.1398Z" fill="#525C69"/>
</svg>
