<svg width="24" height="24" viewBox="0 0 24 24" fill="none" xmlns="http://www.w3.org/2000/svg">
<path d="M8.675 14.1C9.35181 14.1 9.9 14.6482 9.9 15.325V17.775C9.9 18.4518 9.35181 19 8.675 19H6.225C5.54819 19 5 18.4518 5 17.775V15.325C5 14.6482 5.54819 14.1 6.225 14.1H8.675ZM13.3434 17.6C13.568 17.6 13.75 17.782 13.75 18.0066V18.2434C13.75 18.468 13.568 18.65 13.3434 18.65H13.1066C12.882 18.65 12.7 18.468 12.7 18.2434V18.0066C12.7 17.782 12.882 17.6 13.1066 17.6H13.3434ZM15.7934 17.6C16.018 17.6 16.2 17.782 16.2 18.0066V18.2434C16.2 18.468 16.018 18.65 15.7934 18.65H15.5566C15.332 18.65 15.15 18.468 15.15 18.2434V18.0066C15.15 17.782 15.332 17.6 15.5566 17.6H15.7934ZM8.675 15.325H6.225V17.775H8.675V15.325ZM14.7434 16.2C14.968 16.2 15.15 16.382 15.15 16.6066V16.8434C15.15 17.068 14.968 17.25 14.7434 17.25H14.5066C14.282 17.25 14.1 17.068 14.1 16.8434V16.6066C14.1 16.382 14.282 16.2 14.5066 16.2H14.7434ZM16.8434 16.2C17.068 16.2 17.25 16.382 17.25 16.6066V16.8434C17.25 17.068 17.068 17.25 16.8434 17.25H16.6066C16.382 17.25 16.2 17.068 16.2 16.8434V16.6066C16.2 16.382 16.382 16.2 16.6066 16.2H16.8434ZM12.2934 16.2C12.518 16.2 12.7 16.382 12.7 16.6066V16.8434C12.7 17.068 12.518 17.25 12.2934 17.25H12.0566C11.832 17.25 11.65 17.068 11.65 16.8434V16.6066C11.65 16.382 11.832 16.2 12.0566 16.2H12.2934ZM8.0625 15.9375V17.1625H6.8375V15.9375H8.0625ZM13.3434 15.15C13.568 15.15 13.75 15.332 13.75 15.5566V15.7934C13.75 16.018 13.568 16.2 13.3434 16.2H13.1066C12.882 16.2 12.7 16.018 12.7 15.7934V15.5566C12.7 15.332 12.882 15.15 13.1066 15.15H13.3434ZM18.5934 15.15C18.818 15.15 19 15.332 19 15.5566V15.7934C19 16.018 18.818 16.2 18.5934 16.2H18.3566C18.132 16.2 17.95 16.018 17.95 15.7934V15.5566C17.95 15.332 18.132 15.15 18.3566 15.15H18.5934ZM15.7934 15.15C16.018 15.15 16.2 15.332 16.2 15.5566V15.7934C16.2 16.018 16.018 16.2 15.7934 16.2H15.5566C15.332 16.2 15.15 16.018 15.15 15.7934V15.5566C15.15 15.332 15.332 15.15 15.5566 15.15H15.7934ZM14.7434 13.75C14.968 13.75 15.15 13.932 15.15 14.1566V14.3934C15.15 14.618 14.968 14.8 14.7434 14.8H14.5066C14.282 14.8 14.1 14.618 14.1 14.3934V14.1566C14.1 13.932 14.282 13.75 14.5066 13.75H14.7434ZM12.2934 13.75C12.518 13.75 12.7 13.932 12.7 14.1566V14.3934C12.7 14.618 12.518 14.8 12.2934 14.8H12.0566C11.832 14.8 11.65 14.618 11.65 14.3934V14.1566C11.65 13.932 11.832 13.75 12.0566 13.75H12.2934ZM16.8434 13.75C17.068 13.75 17.25 13.932 17.25 14.1566V14.3934C17.25 14.618 17.068 14.8 16.8434 14.8H16.6066C16.382 14.8 16.2 14.618 16.2 14.3934V14.1566C16.2 13.932 16.382 13.75 16.6066 13.75H16.8434ZM13.3434 12.7C13.568 12.7 13.75 12.882 13.75 13.1066V13.3434C13.75 13.568 13.568 13.75 13.3434 13.75H13.1066C12.882 13.75 12.7 13.568 12.7 13.3434V13.1066C12.7 12.882 12.882 12.7 13.1066 12.7H13.3434ZM15.7934 12.7C16.018 12.7 16.2 12.882 16.2 13.1066V13.3434C16.2 13.568 16.018 13.75 15.7934 13.75H15.5566C15.332 13.75 15.15 13.568 15.15 13.3434V13.1066C15.15 12.882 15.332 12.7 15.5566 12.7H15.7934ZM18.5934 12.7C18.818 12.7 19 12.882 19 13.1066V13.3434C19 13.568 18.818 13.75 18.5934 13.75H18.3566C18.132 13.75 17.95 13.568 17.95 13.3434V13.1066C17.95 12.882 18.132 12.7 18.3566 12.7H18.5934ZM12.2934 11.65C12.518 11.65 12.7 11.832 12.7 12.0566V12.2934C12.7 12.518 12.518 12.7 12.2934 12.7H12.0566C11.832 12.7 11.65 12.518 11.65 12.2934V12.0566C11.65 11.832 11.832 11.65 12.0566 11.65H12.2934ZM9.49344 11.65C9.71798 11.65 9.9 11.832 9.9 12.0566V12.2934C9.9 12.518 9.71798 12.7 9.49344 12.7H9.25656C9.03202 12.7 8.85 12.518 8.85 12.2934V12.0566C8.85 11.832 9.03202 11.65 9.25656 11.65H9.49344ZM7.39344 11.65C7.61798 11.65 7.8 11.832 7.8 12.0566V12.2934C7.8 12.518 7.61798 12.7 7.39344 12.7H7.15656C6.93202 12.7 6.75 12.518 6.75 12.2934V12.0566C6.75 11.832 6.93202 11.65 7.15656 11.65H7.39344ZM14.7434 11.65C14.968 11.65 15.15 11.832 15.15 12.0566V12.2934C15.15 12.518 14.968 12.7 14.7434 12.7H14.5066C14.282 12.7 14.1 12.518 14.1 12.2934V12.0566C14.1 11.832 14.282 11.65 14.5066 11.65H14.7434ZM16.8434 11.65C17.068 11.65 17.25 11.832 17.25 12.0566V12.2934C17.25 12.518 17.068 12.7 16.8434 12.7H16.6066C16.382 12.7 16.2 12.518 16.2 12.2934V12.0566C16.2 11.832 16.382 11.65 16.6066 11.65H16.8434ZM12.2934 8.85C12.518 8.85 12.7 9.03202 12.7 9.25656V9.49344C12.7 9.71798 12.518 9.9 12.2934 9.9H12.0566C11.832 9.9 11.65 9.71798 11.65 9.49344V9.25656C11.65 9.03202 11.832 8.85 12.0566 8.85H12.2934ZM8.675 5C9.35181 5 9.9 5.54819 9.9 6.225V8.675C9.9 9.35181 9.35181 9.9 8.675 9.9H6.225C5.54819 9.9 5 9.35181 5 8.675V6.225C5 5.54819 5.54819 5 6.225 5H8.675ZM17.775 5C18.4518 5 19 5.54819 19 6.225V8.675C19 9.35181 18.4518 9.9 17.775 9.9H15.325C14.6482 9.9 14.1 9.35181 14.1 8.675V6.225C14.1 5.54819 14.6482 5 15.325 5H17.775ZM8.675 6.225H6.225V8.675H8.675V6.225ZM17.775 6.225H15.325V8.675H17.775V6.225ZM8.0625 6.8375V8.0625H6.8375V6.8375H8.0625ZM17.1625 6.8375V8.0625H15.9375V6.8375H17.1625ZM12.2934 6.75C12.518 6.75 12.7 6.93202 12.7 7.15656V7.39344C12.7 7.61798 12.518 7.8 12.2934 7.8H12.0566C11.832 7.8 11.65 7.61798 11.65 7.39344V7.15656C11.65 6.93202 11.832 6.75 12.0566 6.75H12.2934Z" fill="#525C69"/>
</svg>
