<svg width="24" height="24" viewBox="0 0 24 24" fill="none" xmlns="http://www.w3.org/2000/svg">
<path fill-rule="evenodd" clip-rule="evenodd" d="M5.63821 3.99805C4.73345 3.99805 4 4.7315 4 5.63626V9.62351C4 10.5283 4.73345 11.2617 5.63821 11.2617H9.62546C10.5302 11.2617 11.2637 10.5283 11.2637 9.62351V5.63626C11.2637 4.7315 10.5302 3.99805 9.62546 3.99805H5.63821ZM9.91863 5.34277H5.34521V9.91619H9.91863V5.34277ZM6.38293 6.3809H8.88101V8.87898H6.38293V6.3809ZM5.63821 12.7217C4.73345 12.7217 4 13.4551 4 14.3599V18.3471C4 19.2519 4.73345 19.9853 5.63821 19.9853H9.62546C10.5302 19.9853 11.2637 19.2519 11.2637 18.3471V14.3599C11.2637 13.4551 10.5302 12.7217 9.62546 12.7217H5.63821ZM9.91863 14.0664H5.34521V18.6398H9.91863V14.0664ZM6.38281 15.1045H8.88089V17.6026H6.38281V15.1045ZM12.7626 5.63626C12.7626 4.7315 13.496 3.99805 14.4008 3.99805H18.388C19.2928 3.99805 20.0262 4.7315 20.0262 5.63626V9.62351C20.0262 10.5283 19.2928 11.2617 18.388 11.2617H14.4008C13.496 11.2617 12.7626 10.5283 12.7626 9.62351V5.63626ZM14.1078 5.34277H18.6812V9.91619H14.1078V5.34277ZM17.6436 6.3809H15.1455V8.87898H17.6436V6.3809ZM17.1436 12.7217H15.6447V13.8361H14.2613V12.7217C13.4335 12.7217 12.7625 13.3927 12.7625 14.2205V18.4865C12.7625 19.3143 13.4335 19.9854 14.2613 19.9854V15.335H15.6447V17.1029H17.1436V15.335H18.5272V17.1029H20.0261V14.2205C20.0261 13.3927 19.355 12.7217 18.5272 12.7217V13.8361H17.1436V12.7217ZM15.6448 18.2178H17.1436V19.9857H15.6448V18.2178ZM18.5273 18.2178H20.0262V18.4868C20.0262 19.3146 19.3551 19.9857 18.5273 19.9857V18.2178Z" fill="#525C69"/>
</svg>
