<svg width="24" height="24" viewBox="0 0 24 24" fill="none" xmlns="http://www.w3.org/2000/svg">
<path fill-rule="evenodd" clip-rule="evenodd" d="M9.58252 5.59767C10.5058 5.59767 11.2543 6.34613 11.2543 7.2694V12.0612C11.2543 13.0573 11.1463 13.6327 10.9305 14.5126C10.7147 15.3925 10.3827 16.1644 9.93446 16.8284C9.48623 17.4925 8.9135 18.0237 8.21625 18.4222C7.56158 18.7963 6.80447 18.9947 5.9449 19.0176C5.889 19.019 5.77589 19.0979 5.77589 18.8658V16.8284C5.77589 16.5372 5.90446 16.5278 5.96677 16.524C6.44598 16.4953 6.84718 16.3561 7.17038 16.1063C7.53561 15.8241 7.83443 15.4506 8.06684 14.9857C8.29926 14.5209 8.45697 13.998 8.53997 13.4169C8.62298 12.8359 8.66448 12.6256 8.66448 12.0612H6.47007C5.5468 12.0612 4.79834 11.3127 4.79834 10.3895L4.79834 7.2694C4.79834 6.34613 5.5468 5.59767 6.47007 5.59767L9.58252 5.59767ZM17.3036 5.59766C18.2269 5.59766 18.9753 6.34612 18.9753 7.26939V12.0612C18.9753 13.0572 18.8674 13.6327 18.6516 14.5126C18.4358 15.3924 18.1038 16.1644 17.6555 16.8284C17.2073 17.4925 16.6346 18.0237 15.9373 18.4221C15.2827 18.7962 14.5255 18.9947 13.666 19.0176C13.6101 19.019 13.497 19.0979 13.497 18.8658V16.8284C13.497 16.5372 13.6255 16.5277 13.6878 16.524C14.1671 16.4953 14.5683 16.356 14.8915 16.1063C15.2567 15.8241 15.5555 15.4505 15.7879 14.9857C16.0203 14.5209 16.178 13.998 16.2611 13.4169C16.3441 12.8359 16.3856 12.6256 16.3856 12.0612H14.1912C13.2679 12.0612 12.5194 11.3127 12.5194 10.3894V7.26939C12.5194 6.34612 13.2679 5.59766 14.1912 5.59766L17.3036 5.59766Z" fill="#525C69"/>
</svg>
