<svg width="24" height="24" viewBox="0 0 24 24" fill="none" xmlns="http://www.w3.org/2000/svg">
<path d="M9.08027 9.19625C8.80413 9.19625 8.58027 9.4201 8.58027 9.69625V10.4344C8.58027 10.7105 8.80413 10.9344 9.08027 10.9344H14.1456C14.4217 10.9344 14.6456 10.7105 14.6456 10.4344V9.69625C14.6456 9.4201 14.4217 9.19625 14.1456 9.19625H9.08027Z" fill="#525C69"/>
<path d="M8.58027 13.0304C8.58027 12.7543 8.80413 12.5304 9.08027 12.5304H14.1456C14.4217 12.5304 14.6456 12.7543 14.6456 13.0304V13.7686C14.6456 14.0447 14.4217 14.2686 14.1456 14.2686H9.08027C8.80413 14.2686 8.58027 14.0447 8.58027 13.7686V13.0304Z" fill="#525C69"/>
<path fill-rule="evenodd" clip-rule="evenodd" d="M5 10.5C5 7.46247 7.46243 5 10.5 5H18.5568C18.6874 5 18.8093 5.02371 18.9198 5.06625C19.4024 5.15974 20.0248 5.39635 20.5614 5.96277C21.1906 6.62683 21.4635 7.48113 21.5831 8.00576C21.7693 8.82251 21.106 9.45402 20.4006 9.45403L18 9.45403V15.5C18 17.433 16.433 19 14.5 19H5.5C5.22386 19 5 18.7765 5 18.5003V10.5ZM18.394 7.95403L20.0126 7.95403C19.8996 7.61815 19.7273 7.26331 19.4725 6.99442C19.3931 6.91062 19.3102 6.84103 19.2262 6.78328L18.4657 7.84807C18.4408 7.88284 18.4169 7.91817 18.394 7.95403ZM6.7088 10.7087C6.7088 8.49953 8.49967 6.7088 10.7088 6.7088H17.2852C17.2852 6.7088 16.3149 7.77816 16.3149 9V14.9912C16.3149 16.2615 15.2851 17.2912 14.0149 17.2912H6.7088V10.7087Z" fill="#525C69"/>
</svg>
