<svg width="24" height="24" viewBox="0 0 24 24" fill="none" xmlns="http://www.w3.org/2000/svg">
<path fill-rule="evenodd" clip-rule="evenodd" d="M3.1803 9.67964C3.1803 7.92465 4.603 6.50195 6.35798 6.50195H13.31C15.065 6.50195 16.4877 7.92465 16.4877 9.67964V14.32C16.4877 16.075 15.065 17.4976 13.31 17.4976H6.35798C4.60299 17.4976 3.1803 16.075 3.1803 14.32V9.67964ZM5.3537 9.67604C5.3537 9.09105 5.82793 8.61682 6.41293 8.61682H13.1595C13.7445 8.61682 14.2188 9.09105 14.2188 9.67604V14.3251C14.2188 14.9101 13.7445 15.3843 13.1595 15.3843H6.41293C5.82793 15.3843 5.3537 14.9101 5.3537 14.3251V9.67604Z" fill="#95C500"/>
<path d="M18.174 9.6283C18.059 9.69794 17.9856 9.84762 17.9856 10.0122V14.2121C17.9856 14.3839 18.0655 14.5387 18.188 14.604L20.8005 15.9971C21.0154 16.1117 21.2512 15.9067 21.2512 15.6052V8.42914C21.2512 8.1191 21.003 7.91405 20.7864 8.04525L18.174 9.6283Z" fill="#95C500"/>
</svg>
