<svg width="24" height="24" viewBox="0 0 24 24" fill="none" xmlns="http://www.w3.org/2000/svg">
<path fill-rule="evenodd" clip-rule="evenodd" d="M13.9964 7.39962V8.97449C13.9964 9.14384 13.8621 9.28112 13.6964 9.28112C13.6169 9.28112 13.5406 9.24881 13.4843 9.19131L10.9238 6.5742C10.6895 6.33471 10.6895 5.94641 10.9238 5.70692L13.4843 3.08981C13.6015 2.97006 13.7914 2.97006 13.9086 3.08981C13.9648 3.14731 13.9964 3.22531 13.9964 3.30663V4.87153L16.7004 4.87153C17.2466 4.87153 17.7483 5.06612 18.1428 5.39117C18.7692 5.80433 19.1812 6.50491 19.1812 7.29962V8.52974L19.0004 8.5546V8.55615L16.6004 9.00968V7.39962H13.9964ZM18.4072 18.4058C18.8825 17.985 19.1812 17.3766 19.1812 16.7V13.9857H20.6936C20.7749 13.9857 20.8529 13.9541 20.9104 13.8978C21.0302 13.7807 21.0302 13.5907 20.9104 13.4735L18.2933 10.913C18.0538 10.6787 17.6655 10.6787 17.426 10.913L14.8089 13.4735C14.7514 13.5298 14.7191 13.6061 14.7191 13.6857C14.7191 13.8514 14.8564 13.9857 15.0258 13.9857H16.6004V16.6H14.9959L15.3661 18.4233L15.4703 19.1809H16.7004C17.3775 19.1809 17.9863 18.8818 18.4072 18.4058ZM5.61931 5.61752C5.15936 6.03736 4.87177 6.63563 4.87177 7.29962L4.87177 10.0036H3.30687C3.22555 10.0036 3.14756 10.0352 3.09005 10.0914C2.97031 10.2086 2.97031 10.3985 3.09005 10.5157L5.70716 13.0762C5.94666 13.3105 6.33495 13.3105 6.57444 13.0762L9.19155 10.5157C9.24906 10.4594 9.28136 10.3831 9.28136 10.3036C9.28136 10.1379 9.14408 10.0036 8.97473 10.0036L7.4 10.0036L7.4 7.39962L8.9345 7.39962L8.91926 7.32456H8.94338L8.60608 4.87153H7.3C6.63675 4.87153 6.03907 5.15847 5.61931 5.61752ZM7.4 14.8942L5 15.3477V15.3763L4.87177 15.3939V16.7C4.87177 17.2463 5.06645 17.7481 5.39164 18.1427C5.80482 18.769 6.50535 19.1809 7.3 19.1809H10.0143V20.6934C10.0143 20.7747 10.0459 20.8527 10.1022 20.9102C10.2193 21.0299 10.4093 21.0299 10.5265 20.9102L13.087 18.2931C13.3213 18.0536 13.3213 17.6653 13.087 17.4258L10.5265 14.8087C10.4702 14.7512 10.3939 14.7189 10.3143 14.7189C10.1486 14.7189 10.0143 14.8562 10.0143 15.0255L10.0143 16.6H7.4V14.8942Z" fill="#525C69"/>
</svg>
