<svg width="24" height="24" viewBox="0 0 24 24" fill="none" xmlns="http://www.w3.org/2000/svg">
	<path d="M4.04797 11.9556C4.04797 16.3493 7.60981 19.9112 12.0036 19.9112C13.626 19.9112 15.135 19.4255 16.3931 18.5916C16.61 18.4478 16.6629 18.1566 16.5245 17.9363L15.9969 17.0965C15.8385 16.8443 15.4969 16.7873 15.2473 16.9498C14.3141 17.5572 13.2 17.9102 12.0035 17.9102C8.71512 17.9102 6.04938 15.2444 6.04938 11.9561C6.04938 8.6677 8.71512 6.00195 12.0035 6.00195C13.4605 6.00195 14.7952 6.52527 15.83 7.39419L14.8666 8.38164C14.5555 8.70047 14.7852 9.23626 15.2306 9.23078L18.9121 9.18551C19.0225 9.18415 19.111 9.09351 19.1096 8.98306L19.0643 5.30158C19.0589 4.85616 18.5176 4.63972 18.2065 4.95855L17.231 5.95834C15.833 4.73873 14.0045 4 12.0036 4C7.60981 4 4.04797 7.56183 4.04797 11.9556Z" fill="#525C69"/>
	<path fill-rule="evenodd" clip-rule="evenodd" d="M8.03443 10.6846C8.03443 9.58 8.92986 8.68457 10.0344 8.68457H10.8759C11.9804 8.68457 12.8759 9.58 12.8759 10.6846V11.0928H17.52C17.7962 11.0928 18.02 11.3166 18.02 11.5928V13.8066C18.02 14.0828 17.7962 14.3066 17.52 14.3066H16.6661C16.39 14.3066 16.1661 14.0828 16.1661 13.8066V12.8203H12.8759V13.2285C12.8759 14.3331 11.9804 15.2285 10.8759 15.2285H10.0344C8.92986 15.2285 8.03443 14.3331 8.03443 13.2285V10.6846ZM9.66004 10.9797C9.66004 10.5406 10.016 10.1846 10.4551 10.1846C10.8943 10.1846 11.2502 10.5406 11.2502 10.9797V12.9334C11.2502 13.3725 10.8943 13.7285 10.4551 13.7285C10.016 13.7285 9.66004 13.3725 9.66004 12.9334V10.9797Z" fill="#525C69"/>
</svg>