<svg width="24" height="24" viewBox="0 0 24 24" fill="none" xmlns="http://www.w3.org/2000/svg">
<path fill-rule="evenodd" clip-rule="evenodd" d="M8.29179 16.8849C9.28182 17.713 10.4498 18.1525 11.7069 18.0381C11.9266 18.6097 12.305 19.5471 12.8309 20.6814C15.2307 19.2331 15.5736 17.21 15.5282 15.9977C15.7637 15.7628 15.9994 15.5061 16.2345 15.2267C19.1162 11.8036 19.5153 5.14796 18.727 4.48869C17.9388 3.82942 11.4325 5.37684 8.55081 8.79996C8.31281 9.08269 8.09787 9.36176 7.90503 9.63686C6.69836 9.80653 4.77142 10.4997 3.76147 13.0957C4.96787 13.4135 5.95625 13.6218 6.55988 13.7385C6.66663 14.9899 7.30329 16.0581 8.29179 16.8849ZM10.0103 14.8438C10.8783 15.5698 12.1724 15.457 12.9008 14.5918C13.6291 13.7265 13.5159 12.4365 12.6479 11.7104C11.7799 10.9844 10.4858 11.0973 9.75739 11.9625C9.02905 12.8278 9.14229 14.1178 10.0103 14.8438ZM15.08 10.5291C14.689 10.9937 13.9942 11.0543 13.528 10.6645C13.062 10.2747 13.0012 9.58205 13.3923 9.11748C13.7833 8.65292 14.4781 8.59232 14.9443 8.98214C15.4103 9.37195 15.4711 10.0646 15.08 10.5291ZM9.37898 18.5031C8.75278 18.3186 8.16464 17.9988 7.62883 17.5695C7.09303 17.1403 6.66119 16.6426 6.36205 16.0859C5.48758 18.2046 5.11104 19.9171 5.37799 20.1309C5.64494 20.3449 7.34568 19.6934 9.37898 18.5031Z" fill="#525C69"/>
</svg>
