<svg width="24" height="24" viewBox="0 0 24 24" fill="none" xmlns="http://www.w3.org/2000/svg">
<path fill-rule="evenodd" clip-rule="evenodd" d="M16.6052 15.7063C16.8232 15.7063 17 15.5294 17 15.311L17 5.3953C17 5.17698 16.8232 5 16.6052 5H8.46757C7.11041 5 6 6.11179 6 7.47063V16.5294C6 17.8882 7.11041 19 8.46757 19H16.6052C16.8232 19 17 18.823 17 18.6047V17.7485C17 17.5302 16.8232 17.3532 16.6052 17.3532H8.46757C8.01492 17.3532 7.64478 16.9826 7.64478 16.5294C7.64556 16.0769 8.01569 15.7063 8.46757 15.7063L16.6052 15.7063ZM15.2669 12.9218C15.307 13.1265 15.1983 13.3325 15.0022 13.4037C14.1864 13.7002 13.2666 13.8759 12.2911 13.8968H11.8965C10.9163 13.8758 9.99228 13.6985 9.17353 13.3994C8.9859 13.3309 8.87627 13.1378 8.90821 12.9406C8.93869 12.7525 8.97242 12.572 9.00685 12.4378C9.12462 11.9786 9.78711 11.6376 10.3967 11.3754C10.5563 11.3067 10.6526 11.2519 10.75 11.1966C10.8451 11.1425 10.9411 11.0879 11.098 11.0193C11.1158 10.9347 11.123 10.8483 11.1193 10.7621L11.3894 10.73C11.3894 10.73 11.4249 10.7946 11.3679 10.4153C11.3679 10.4153 11.0645 10.3366 11.0504 9.73266C11.0504 9.73266 10.8223 9.80849 10.8085 9.44255C10.8057 9.36963 10.7868 9.29953 10.7688 9.23237C10.7255 9.07125 10.6867 8.92701 10.8841 8.80133L10.7417 8.42158C10.7417 8.42158 10.5919 6.95512 11.2484 7.07384C10.9821 6.6518 13.2287 6.30099 13.3779 7.59323C13.4366 7.98278 13.4366 8.37869 13.3779 8.76823C13.3779 8.76823 13.7135 8.72965 13.4894 9.36775C13.4894 9.36775 13.3661 9.82704 13.1766 9.72391C13.1766 9.72391 13.2073 10.3043 12.909 10.4027C12.909 10.4027 12.9304 10.7118 12.9304 10.7327L13.1797 10.77C13.1797 10.77 13.1721 11.0277 13.2218 11.0556C13.4493 11.2025 13.6986 11.3139 13.9608 11.3856C14.7349 11.5821 15.128 11.9193 15.128 12.2144L15.2669 12.9218Z" fill="#A77BDE"/>
</svg>
