<svg width="24" height="24" viewBox="0 0 24 24" fill="none" xmlns="http://www.w3.org/2000/svg">
<path fill-rule="evenodd" clip-rule="evenodd" d="M4.01829 19.3696L4.92428 16.0078L7.75993 18.8435L4.39813 19.7494C4.29052 19.7799 4.17672 19.7494 4.09752 19.6702C4.02032 19.591 3.98985 19.4772 4.01829 19.3696ZM5.68996 15.2423L15.5073 5.42696C15.7025 5.23174 16.0191 5.23175 16.2143 5.427L18.3429 7.55557C18.5382 7.75085 18.5382 8.06746 18.3429 8.26271L8.5256 18.078L5.68996 15.2423ZM8.79271 9.05823L10.1488 7.70218L11.025 8.57839L7.54712 12.0562L3.44947 7.95857C3.33584 7.84494 3.33587 7.65896 3.44947 7.54537L6.5141 4.48073C6.62773 4.3671 6.81368 4.3671 6.92731 4.48073L7.37495 4.92838L6.01891 6.28442C5.79887 6.50446 5.79884 6.86453 6.01887 7.08457C6.23894 7.30464 6.59898 7.30457 6.81902 7.08453L8.17506 5.72849L9.34861 6.90203L7.99256 8.25808C7.77253 8.47812 7.77253 8.83823 7.99253 9.05823C8.2126 9.27829 8.57268 9.27826 8.79271 9.05823ZM19.2891 16.8426C19.4028 16.9562 19.4028 17.1421 19.2891 17.2558L16.2245 20.3204C16.1109 20.434 15.9249 20.434 15.8113 20.3204L11.7136 16.2228L15.1915 12.7449L16.0237 13.5771L14.6394 14.9614C14.4349 15.1659 14.4349 15.5006 14.6394 15.7051C14.8439 15.9096 15.1786 15.9096 15.3831 15.7051L16.7674 14.3208L17.8581 15.4115L16.4738 16.7958C16.2693 17.0003 16.2693 17.335 16.4738 17.5395C16.6784 17.7441 17.013 17.744 17.2175 17.5395L18.6018 16.1552L19.2891 16.8426Z" fill="#525C69"/>
</svg>
