<svg width="24" height="24" viewBox="0 0 24 24" fill="none" xmlns="http://www.w3.org/2000/svg">
<path fill-rule="evenodd" clip-rule="evenodd" d="M19.0485 11.5371C19.0485 15.2193 15.9323 18.3355 12.2501 18.3355C8.24424 18.3355 5.12805 15.2193 5.12805 11.5371C5.12805 7.53123 8.24424 4.41504 12.2501 4.41504C15.9323 4.41504 19.0485 7.53123 19.0485 11.5371ZM10.2868 10.1244C10.2868 10.8446 9.8883 11.4285 9.39675 11.4285C8.90521 11.4285 8.50673 10.8446 8.50673 10.1244C8.50673 9.40421 8.90521 8.82036 9.39675 8.82036C9.8883 8.82036 10.2868 9.40421 10.2868 10.1244ZM14.6447 10.1244C14.6447 10.8446 14.2462 11.4285 13.7547 11.4285C13.2632 11.4285 12.8647 10.8446 12.8647 10.1244C12.8647 9.40421 13.2632 8.82036 13.7547 8.82036C14.2462 8.82036 14.6447 9.40421 14.6447 10.1244ZM8.55133 14.8416C8.55133 14.9641 8.70991 15.1463 8.80691 15.0688C9.1177 14.8208 9.45351 14.6131 9.80897 14.4522C10.3618 14.2019 10.9621 14.0648 11.5897 14.0649C12.621 14.0651 13.5782 14.4361 14.3719 15.07C14.4689 15.1475 14.6015 14.9653 14.6015 14.843V14.2591C14.6015 14.2173 14.5835 14.1769 14.5519 14.1491C13.7223 13.417 12.6931 12.9822 11.5769 12.982C10.4608 12.9818 9.43115 13.4159 8.60115 14.1477C8.56956 14.1756 8.55154 14.2159 8.55154 14.2576L8.55133 14.8416Z" fill="#525C69"/>
</svg>
