<svg width="24" height="24" viewBox="0 0 24 24" fill="none" xmlns="http://www.w3.org/2000/svg">
<path fill-rule="evenodd" clip-rule="evenodd" d="M18.6313 12.1818L11.8182 5.36875C11.5908 5.09622 11.228 4.95996 10.8643 4.95996H6.32258C5.55014 4.95996 4.95996 5.55014 4.95996 6.32258V10.8643C4.95996 11.228 5.09622 11.5908 5.36875 11.8182L12.1818 18.6313C12.4544 18.9038 12.818 19.04 13.1357 19.04C13.4533 19.04 13.817 18.9038 14.0895 18.6313L18.6313 14.0895C19.1763 13.5896 19.1763 12.6817 18.6313 12.1818ZM8.35713 9.5111C7.72228 9.5111 7.20315 8.99198 7.20315 8.35713C7.20315 7.72228 7.72228 7.20315 8.35713 7.20315C8.99198 7.20315 9.5111 7.72228 9.5111 8.35713C9.5111 8.99198 8.99198 9.5111 8.35713 9.5111Z" fill="#525C69"/>
</svg>
