<svg width="24" height="24" viewBox="0 0 24 24" fill="none" xmlns="http://www.w3.org/2000/svg">
<path fill-rule="evenodd" clip-rule="evenodd" d="M8 5C6.34315 5 5 6.34315 5 8V16C5 17.6569 6.34315 19 8 19H16C17.6569 19 19 17.6569 19 16V8C19 6.34315 17.6569 5 16 5H8ZM7.00005 8.5C7.00005 7.67157 7.67162 7 8.50005 7H15.5001C16.3285 7 17.0001 7.67157 17.0001 8.5V15.5C17.0001 16.3284 16.3285 17 15.5001 17H8.50005C7.67162 17 7.00005 16.3284 7.00005 15.5V8.5ZM12.0001 9C12.0001 8.44771 12.4478 8 13.0001 8H15.0001C15.5523 8 16.0001 8.44771 16.0001 9V15C16.0001 15.5523 15.5523 16 15.0001 16H13.0001C12.4478 16 12.0001 15.5523 12.0001 15V9Z" fill="#525C69"/>
</svg>
