<svg width="24" height="25" viewBox="0 0 24 25" fill="none" xmlns="http://www.w3.org/2000/svg">
<path fill-rule="evenodd" clip-rule="evenodd" d="M3.67456 6.4873C3.67456 5.93502 4.12228 5.4873 4.67456 5.4873H19.3253C19.8776 5.4873 20.3253 5.93502 20.3253 6.4873V17.0216C20.3253 17.5738 19.8776 18.0216 19.3253 18.0216H4.67456C4.12228 18.0216 3.67456 17.5738 3.67456 17.0216V6.4873ZM6.02643 7.79684C6.02643 7.63115 6.16075 7.49684 6.32643 7.49684H17.6735C17.8392 7.49684 17.9735 7.63115 17.9735 7.79684V15.8302C17.9735 15.9959 17.8392 16.1302 17.6735 16.1302H6.32643C6.16075 16.1302 6.02643 15.9959 6.02643 15.8302V7.79684ZM7.93089 18.9259C7.76521 18.9259 7.63089 19.0602 7.63089 19.2259V20.2356C7.63089 20.4013 7.76521 20.5356 7.93089 20.5356H16.0664C16.2321 20.5356 16.3664 20.4013 16.3664 20.2356V19.2259C16.3664 19.0602 16.2321 18.9259 16.0664 18.9259H7.93089Z" fill="#525C69"/>
</svg>
