<svg width="24" height="24" viewBox="0 0 24 24" fill="none" xmlns="http://www.w3.org/2000/svg">
<path d="M9.94836 6.52734C9.94836 6.2512 9.72451 6.02734 9.44836 6.02734H6C4.89543 6.02734 4 6.92277 4 8.02734V15.9631C4 17.0676 4.89543 17.9631 6 17.9631H9.63876L8.56658 19.2458C8.34891 19.5062 8.53408 19.9023 8.87349 19.9023H15.0949C15.4344 19.9023 15.6195 19.5062 15.4019 19.2458L14.3297 17.9631H17.9684C19.073 17.9631 19.9684 17.0676 19.9684 15.9631V15.4209C19.9684 15.1448 19.7445 14.9209 19.4684 14.9209H18.3336C18.0985 14.9209 17.908 15.1115 17.908 15.3465C17.908 15.6227 17.6841 15.8465 17.408 15.8465H6.56043C6.28428 15.8465 6.06042 15.6227 6.06042 15.3465V8.64355C6.06042 8.36741 6.28428 8.14355 6.56042 8.14355H9.44836C9.72451 8.14355 9.94836 7.9197 9.94836 7.64355V6.52734Z" fill="#95C500"/>
<path d="M19.4684 13.1504C19.7445 13.1504 19.9684 12.9265 19.9684 12.6504V8.02734C19.9684 6.92277 19.073 6.02734 17.9684 6.02734H12.8C12.5238 6.02734 12.3 6.2512 12.3 6.52734V7.64355C12.3 7.9197 12.5238 8.14355 12.8 8.14355H16.0674L12.4973 11.7136C12.302 11.9089 12.302 12.2255 12.4973 12.4207L13.4349 13.3583C13.6302 13.5536 13.9468 13.5536 14.142 13.3583L17.908 9.59243V12.6504C17.908 12.9265 18.1318 13.1504 18.408 13.1504H19.4684Z" fill="#95C500"/>
</svg>
