<svg width="24" height="24" viewBox="0 0 24 24" fill="none" xmlns="http://www.w3.org/2000/svg">
<path fill-rule="evenodd" clip-rule="evenodd" d="M14.6664 16.9082C13.6182 17.5559 12.3828 17.9297 11.0601 17.9297C7.2658 17.9297 4.18994 14.8539 4.18994 11.0596C4.18994 7.26532 7.2658 4.18945 11.0601 4.18945C14.8543 4.18945 17.9302 7.26532 17.9302 11.0596C17.9302 12.3823 17.5564 13.6177 16.9087 14.666L19.4 17.1573C19.7905 17.5479 19.7906 18.181 19.4 18.5715L18.572 19.3996C18.1815 19.7901 17.5483 19.7901 17.1578 19.3996L14.6664 16.9082ZM15.5104 11.0596C15.5104 13.5175 13.5179 15.51 11.0601 15.51C8.6022 15.51 6.6097 13.5175 6.6097 11.0596C6.6097 8.60172 8.6022 6.60923 11.0601 6.60923C13.5179 6.60923 15.5104 8.60172 15.5104 11.0596Z" fill="#525C69"/>
</svg>
