<svg xmlns="http://www.w3.org/2000/svg" width="24" height="24" fill="none"><path fill="#525C69" d="M2.09 9.919c0-.228.185-.414.414-.414h2.735v5.08H2.504a.413.413 0 0 1-.414-.413V9.919ZM12.792 9.92c0-.228.185-.414.413-.414h2.75v5.078h-2.75a.413.413 0 0 1-.413-.414V9.92Z"/><path fill="#525C69" d="M15.856 5.521c0-.355.438-.522.675-.258l5.841 6.524a.387.387 0 0 1 0 .516l-5.84 6.524a.387.387 0 0 1-.676-.258V5.52ZM5.24 5.521c0-.355.437-.522.674-.258l5.841 6.524a.387.387 0 0 1 0 .516l-5.84 6.524a.387.387 0 0 1-.676-.258V5.52Z"/></svg>