<svg width="24" height="24" viewBox="0 0 24 24" fill="none" xmlns="http://www.w3.org/2000/svg">
<path fill-rule="evenodd" clip-rule="evenodd" d="M6.17071 17H5C4.44772 17 4 16.5523 4 16C4 15.4477 4.44772 15 5 15H6.17071C6.58254 13.8348 7.69378 13 9 13C10.3062 13 11.4175 13.8348 11.8293 15H18C18.5523 15 19 15.4477 19 16C19 16.5523 18.5523 17 18 17H11.8293C11.4175 18.1652 10.3062 19 9 19C7.69378 19 6.58254 18.1652 6.17071 17ZM11.1707 10H5C4.44772 10 4 9.55228 4 9C4 8.44772 4.44772 8 5 8H11.1707C11.5825 6.83481 12.6938 6 14 6C15.3062 6 16.4175 6.83481 16.8293 8H18C18.5523 8 19 8.44772 19 9C19 9.55228 18.5523 10 18 10H16.8293C16.4175 11.1652 15.3062 12 14 12C12.6938 12 11.5825 11.1652 11.1707 10ZM14 10C14.5523 10 15 9.55228 15 9C15 8.44772 14.5523 8 14 8C13.4477 8 13 8.44772 13 9C13 9.55228 13.4477 10 14 10ZM9 17C9.55228 17 10 16.5523 10 16C10 15.4477 9.55228 15 9 15C8.44772 15 8 15.4477 8 16C8 16.5523 8.44772 17 9 17Z" fill="#525C69"/>
</svg>
