<svg width="24" height="24" viewBox="0 0 24 24" fill="none" xmlns="http://www.w3.org/2000/svg">
<path fill-rule="evenodd" clip-rule="evenodd" d="M15.4994 13.4332C14.7672 13.4332 14.1054 13.7399 13.6357 14.2306L9.74265 12.2844C9.76475 12.1487 9.77685 12.0083 9.77685 11.8636C9.77685 11.719 9.76475 11.5791 9.74213 11.4429L13.6357 9.49668C14.1055 9.98795 14.7672 10.2946 15.4994 10.2946C16.925 10.2946 18.0806 9.13742 18.0806 7.71301C18.0806 6.28809 16.925 5.13086 15.4994 5.13086C14.0744 5.13086 12.9193 6.28806 12.9193 7.71301C12.9193 7.85765 12.9314 7.99336 12.953 8.13381L9.05994 10.0805C8.58967 9.58924 7.92847 9.28258 7.19569 9.28258C5.77016 9.28258 4.6145 10.4398 4.6145 11.8642C4.6145 13.2891 5.77016 14.4463 7.19569 14.4463C7.92843 14.4463 8.5897 14.1392 9.05994 13.6484L12.9525 15.5946C12.9309 15.735 12.9188 15.8749 12.9188 16.0154C12.9188 17.4397 14.0739 18.597 15.4989 18.597C16.9244 18.597 18.0801 17.4398 18.0801 16.0154C18.0801 14.5904 16.9249 13.4332 15.4994 13.4332L15.4994 13.4332Z" fill="#525C69"/>
</svg>
