<svg width="24" height="24" viewBox="0 0 24 24" fill="none" xmlns="http://www.w3.org/2000/svg">
<path d="M13.1517 13.5743C13.1517 13.7952 12.9726 13.9743 12.7517 13.9743H11.2841C11.0632 13.9743 10.8841 13.7952 10.8841 13.5743V8.02603H8.86926C8.59604 8.02603 8.46504 7.69057 8.66596 7.50542L11.8051 4.61259C11.92 4.50674 12.0968 4.50674 12.2117 4.61259L15.3508 7.50542C15.5517 7.69057 15.4207 8.02603 15.1475 8.02603H13.1517V13.5743Z" fill="#525C69"/>
<path d="M5 13.1062C5 12.8853 5.17909 12.7062 5.4 12.7062H6.87637C7.09728 12.7062 7.27637 12.8853 7.27637 13.1062V15.7619C7.27637 16.3142 7.72408 16.7619 8.27637 16.7619H15.7236C16.2759 16.7619 16.7236 16.3142 16.7236 15.7619V13.1062C16.7236 12.8853 16.9027 12.7062 17.1236 12.7062H18.6C18.8209 12.7062 19 12.8853 19 13.1062V16.6992C19 17.9694 17.9703 18.9992 16.7 18.9992H7.3C6.02975 18.9992 5 17.9694 5 16.6992V13.1062Z" fill="#525C69"/>
</svg>
