<svg width="24" height="24" viewBox="0 0 24 24" fill="none" xmlns="http://www.w3.org/2000/svg">
<path fill-rule="evenodd" clip-rule="evenodd" d="M11.8101 3.67867C11.1411 4.25718 9.93578 5.02039 8.76818 5.63233C7.60057 6.24427 6.46147 6.70039 5.56063 6.70039C5.5135 6.70039 5.37287 6.82431 5.36754 6.87144C4.63245 12.9226 7.11673 16.5853 11.8861 20.0305C11.9188 20.054 12.0815 20.054 12.1142 20.0305C16.8836 16.5853 19.3685 12.9226 18.6327 6.87144C18.6274 6.82507 18.4868 6.70039 18.4397 6.70039C17.5388 6.70039 16.3997 6.24427 15.2321 5.63233C14.0645 5.02039 12.8591 4.25716 12.1902 3.67867C12.1644 3.65662 11.845 3.64902 11.8101 3.67867Z" fill="#525C69"/>
</svg>
