<svg width="24" height="24" viewBox="0 0 24 24" fill="none" xmlns="http://www.w3.org/2000/svg">
	<path fill-rule="evenodd" clip-rule="evenodd" d="M5.90919 5.89341C7.35324 5.31686 9.60162 4.62207 12.0228 4.62207C14.4278 4.62207 16.5941 5.34968 18.0467 5.90228C18.5115 6.07907 18.8294 6.50895 18.8476 7.00584C18.8913 8.19259 18.9006 10.4975 18.4756 12.6527C17.5296 17.4505 13.6951 19.9634 12.43 20.6739C12.1738 20.8178 11.8717 20.818 11.6153 20.6744C10.3476 19.9645 6.50151 17.4516 5.55556 12.6527C5.1263 10.475 5.12392 8.1451 5.15916 6.96961C5.17349 6.49182 5.46526 6.07066 5.90919 5.89341ZM11.9999 7.24424C12.4844 7.24424 12.8772 7.63704 12.8772 8.12158V11.9705C12.8772 12.4551 12.4844 12.8479 11.9999 12.8479C11.5154 12.8479 11.1226 12.4551 11.1226 11.9705V8.12158C11.1226 7.63704 11.5154 7.24424 11.9999 7.24424ZM12 14.1632C12.6057 14.1632 13.0967 14.6542 13.0967 15.2598L13.0967 15.3661C13.0967 15.9718 12.6057 16.4628 12 16.4628C11.3943 16.4628 10.9033 15.9719 10.9033 15.3662L10.9033 15.2599C10.9033 14.6542 11.3943 14.1632 12 14.1632Z" fill="#525C69"/>
</svg>
