<svg width="24" height="24" viewBox="0 0 24 24" fill="none" xmlns="http://www.w3.org/2000/svg">
	<path fill-rule="evenodd" clip-rule="evenodd" d="M5.90919 5.89341C7.35324 5.31686 9.60162 4.62207 12.0228 4.62207C14.4278 4.62207 16.5941 5.34968 18.0467 5.90228C18.5115 6.07907 18.8294 6.50895 18.8476 7.00584C18.8913 8.19259 18.9006 10.4975 18.4756 12.6527C17.5296 17.4505 13.6951 19.9634 12.43 20.6739C12.1738 20.8178 11.8717 20.818 11.6153 20.6744C10.3476 19.9645 6.50151 17.4516 5.55556 12.6527C5.1263 10.475 5.12392 8.1451 5.15916 6.96961C5.17349 6.49182 5.46526 6.07066 5.90919 5.89341ZM10.8856 12.9109C10.9487 12.8479 10.904 12.7402 10.8149 12.7402H8.55337C8.49814 12.7402 8.45337 12.785 8.45337 12.8402V15.1019C8.45337 15.191 8.56105 15.2356 8.62405 15.1727L9.20256 14.5946C9.24173 14.5555 9.30516 14.5557 9.3451 14.594C10.0776 15.2971 11.0722 15.7293 12.1677 15.7293C13.8146 15.7293 15.2335 14.7526 15.8766 13.3468C15.9003 13.295 15.8743 13.2344 15.821 13.2144L14.7887 12.8278C14.7394 12.8094 14.6844 12.8324 14.6611 12.8797C14.2079 13.7987 13.2616 14.431 12.1677 14.431C11.4301 14.431 10.7597 14.1436 10.2622 13.6747C10.2222 13.637 10.2225 13.5738 10.2614 13.5349L10.8856 12.9109ZM14.9736 8.69562C14.2427 8.00203 13.255 7.57649 12.1679 7.57649C10.3288 7.57649 8.77407 8.79439 8.26635 10.4677C8.25087 10.5187 8.27949 10.5724 8.33009 10.5892L9.37236 10.9351C9.42749 10.9534 9.4864 10.921 9.50284 10.8653C9.84246 9.71454 10.9071 8.87474 12.1679 8.87474C12.8964 8.87474 13.5595 9.15516 14.055 9.61397C14.0956 9.65156 14.0956 9.71517 14.0564 9.75429L13.4305 10.3801C13.3674 10.4431 13.4121 10.5509 13.5012 10.5509H15.7627C15.818 10.5509 15.8627 10.5061 15.8627 10.4509V8.18921C15.8627 8.10012 15.755 8.0555 15.692 8.11849L15.1157 8.69464C15.0767 8.73363 15.0136 8.73359 14.9736 8.69562Z" fill="#525C69"/>
</svg>
