<svg width="24" height="24" viewBox="0 0 24 24" fill="none" xmlns="http://www.w3.org/2000/svg">
	<path d="M8.8912 11.9983C8.65132 10.7164 8.62722 9.32778 8.64154 8.49467C9.51579 8.15027 10.7375 7.79351 12.0109 7.79351C13.2741 7.79351 14.4481 8.16722 15.3558 8.51851C15.3756 9.35196 15.3586 10.7284 15.1209 11.9983C14.6584 14.4695 12.965 16.1183 12.0099 16.8707C11.0522 16.1186 9.35364 14.4696 8.8912 11.9983Z" fill="#525C69"/>
	<path fill-rule="evenodd" clip-rule="evenodd" d="M5.92552 5.90085C7.36478 5.32643 9.60441 4.63477 12.016 4.63477C14.4115 4.63477 16.5694 5.35907 18.0171 5.90968C18.4819 6.08644 18.7997 6.51635 18.8179 7.01325C18.8613 8.1968 18.8703 10.492 18.4471 12.6383C17.5046 17.4182 13.6854 19.9225 12.4232 20.6317C12.167 20.7756 11.8649 20.7757 11.6086 20.6321C10.3438 19.9236 6.51307 17.4192 5.57065 12.6383C5.14316 10.4695 5.14047 8.14931 5.17552 6.97696C5.1898 6.49918 5.48157 6.07803 5.92552 5.90085ZM12.0109 6.57433C10.3174 6.57433 8.75207 7.11047 7.80004 7.5236C7.58464 7.61706 7.44208 7.82593 7.43351 8.06057C7.40619 8.80917 7.38479 10.5765 7.69282 12.2226C8.30905 15.5158 10.7685 17.5033 11.6599 18.1296C11.8705 18.2775 12.1512 18.2773 12.3615 18.1291C13.2513 17.5021 15.7031 15.5148 16.3193 12.2226C16.6258 10.5854 16.5938 8.82784 16.5607 8.07275C16.5502 7.83465 16.402 7.62447 16.1812 7.53472C15.2158 7.14223 13.704 6.57433 12.0109 6.57433Z" fill="#525C69"/>
</svg>
