<svg width="24" height="24" viewBox="0 0 24 24" fill="none" xmlns="http://www.w3.org/2000/svg">
	<path fill-rule="evenodd" clip-rule="evenodd" d="M5.90919 5.89341C7.35324 5.31686 9.60162 4.62207 12.0228 4.62207C14.4278 4.62207 16.5941 5.34968 18.0467 5.90228C18.5115 6.07907 18.8294 6.50895 18.8476 7.00584C18.8913 8.19259 18.9006 10.4975 18.4756 12.6527C17.5296 17.4505 13.6951 19.9634 12.43 20.6739C12.1738 20.8178 11.8717 20.818 11.6153 20.6744C10.3476 19.9645 6.50151 17.4516 5.55556 12.6527C5.1263 10.475 5.12392 8.1451 5.15916 6.96961C5.17349 6.49182 5.46526 6.07066 5.90919 5.89341ZM15.5329 9.09198C15.3556 8.91465 15.0681 8.91465 14.8908 9.09198L11.0627 12.9201L9.69588 11.5533C9.51855 11.376 9.23105 11.376 9.05372 11.5533L8.59515 12.0119C8.41783 12.1892 8.41783 12.4767 8.59515 12.6541L10.7419 14.8008C10.9192 14.9781 11.2067 14.9781 11.384 14.8008L11.8426 14.3422C11.8474 14.3374 11.852 14.3326 11.8566 14.3277L15.9915 10.1927C16.1688 10.0154 16.1688 9.72788 15.9915 9.55055L15.5329 9.09198Z" fill="#525C69"/>
</svg>
