<svg width="24" height="24" viewBox="0 0 24 24" fill="none" xmlns="http://www.w3.org/2000/svg">
	<path fill-rule="evenodd" clip-rule="evenodd" d="M17.5975 5.73488C16.1654 5.2135 14.1911 4.62207 12.0228 4.62207C9.60162 4.62207 7.35324 5.31686 5.90919 5.89341C5.46526 6.07066 5.17349 6.49182 5.15916 6.96961C5.12392 8.1451 5.1263 10.475 5.55556 12.6527C6.50151 17.4516 10.3476 19.9645 11.6153 20.6744C11.8717 20.818 12.1738 20.8178 12.43 20.6739C12.9799 20.3651 14.0153 19.7157 15.0879 18.6861C14.81 18.2827 14.6472 17.7937 14.6472 17.2668C14.6472 17.2083 14.6492 17.1504 14.6532 17.0929L10.1987 11.5298C10.0178 11.3039 10.0659 10.972 10.3036 10.8068L17.5975 5.73488ZM18.4756 12.6527C18.3194 13.4451 18.0843 14.1751 17.7951 14.845C17.59 14.7907 17.3745 14.7618 17.1522 14.7618L17.1227 14.7619L13.2395 11.3124C13.1954 11.2732 13.194 11.2038 13.2374 11.1637L18.5498 6.25266C18.7283 6.45837 18.8372 6.72111 18.8476 7.00584C18.8913 8.19259 18.9006 10.4975 18.4756 12.6527ZM17.1522 19.042C18.1327 19.042 18.9275 18.2472 18.9275 17.2667C18.9275 16.2863 18.1327 15.4915 17.1522 15.4915C16.1718 15.4915 15.377 16.2863 15.377 17.2667C15.377 18.2472 16.1718 19.042 17.1522 19.042Z" fill="#525C69"/>
</svg>