<svg width="24" height="24" viewBox="0 0 24 24" fill="none" xmlns="http://www.w3.org/2000/svg">
	<path fill-rule="evenodd" clip-rule="evenodd" d="M5.90919 5.89341C7.35324 5.31686 9.60162 4.62207 12.0228 4.62207C14.4278 4.62207 16.5941 5.34968 18.0467 5.90228C18.5115 6.07907 18.8294 6.50895 18.8476 7.00584C18.8913 8.19259 18.9006 10.4975 18.4756 12.6527C17.5296 17.4505 13.6951 19.9634 12.43 20.6739C12.1738 20.8178 11.8717 20.818 11.6153 20.6744C10.3476 19.9645 6.50151 17.4516 5.55556 12.6527C5.1263 10.475 5.12392 8.1451 5.15916 6.96961C5.17349 6.49182 5.46526 6.07066 5.90919 5.89341ZM8.20703 11.2596C8.20703 9.362 9.59814 7.78928 11.4162 7.50564L10.9167 8.88337L11.3291 10.9274L9.64983 14.2401C8.7709 13.5442 8.20703 12.4678 8.20703 11.2596ZM12.0066 15.0592C11.4559 15.0592 10.9325 14.942 10.4601 14.7313L11.9523 11.837L13.7939 12.5231L15.0217 11.2954L15.8011 11.4576C15.6982 13.464 14.0387 15.0592 12.0066 15.0592ZM12.5322 7.49609C14.1086 7.71421 15.376 8.89943 15.7161 10.4335L14.7866 10.2556L13.5811 11.4611L12.3134 10.9343L11.844 8.98431L12.5322 7.49609Z" fill="#525C69"/>
</svg>