<svg width="24" height="24" viewBox="0 0 24 24" fill="none" xmlns="http://www.w3.org/2000/svg">
	<path fill-rule="evenodd" clip-rule="evenodd" d="M5.90919 5.89341C7.35324 5.31686 9.60162 4.62207 12.0228 4.62207C14.4278 4.62207 16.5941 5.34968 18.0467 5.90228C18.5115 6.07907 18.8294 6.50895 18.8476 7.00584C18.8913 8.19259 18.9006 10.4975 18.4756 12.6527C17.5296 17.4505 13.6951 19.9634 12.43 20.6739C12.1738 20.8178 11.8717 20.818 11.6153 20.6744C10.3476 19.9645 6.50151 17.4516 5.55556 12.6527C5.1263 10.475 5.12392 8.1451 5.15916 6.96961C5.17349 6.49182 5.46526 6.07066 5.90919 5.89341ZM12.5822 8.01449C12.5822 7.61223 12.2561 7.28613 11.8538 7.28613C11.4516 7.28613 11.1255 7.61223 11.1255 8.01449V12.1765C11.1255 12.3697 11.2022 12.555 11.3388 12.6916C11.4754 12.8281 11.6607 12.9049 11.8538 12.9049L15.1835 12.9049C15.5857 12.9049 15.9118 12.5788 15.9118 12.1765C15.9118 11.7742 15.5857 11.4481 15.1835 11.4481L12.5822 11.4482V8.01449Z" fill="#525C69"/>
</svg>
