<svg width="24" height="24" viewBox="0 0 24 24" fill="none" xmlns="http://www.w3.org/2000/svg">
	<path fill-rule="evenodd" clip-rule="evenodd" d="M5.90919 5.89341C7.35324 5.31686 9.60162 4.62207 12.0228 4.62207C14.4278 4.62207 16.5941 5.34968 18.0467 5.90228C18.5115 6.07907 18.8294 6.50895 18.8476 7.00584C18.8913 8.19259 18.9006 10.4975 18.4756 12.6527C17.5296 17.4505 13.6951 19.9634 12.43 20.6739C12.1738 20.8178 11.8717 20.818 11.6153 20.6744C10.3476 19.9645 6.50151 17.4516 5.55556 12.6527C5.1263 10.475 5.12392 8.1451 5.15916 6.96961C5.17349 6.49182 5.46526 6.07066 5.90919 5.89341ZM8.51367 12.2784C9.15549 12.2784 9.67578 11.7581 9.67578 11.1163C9.67578 10.4745 9.15549 9.95417 8.51367 9.95417C7.87186 9.95417 7.35156 10.4745 7.35156 11.1163C7.35156 11.7581 7.87186 12.2784 8.51367 12.2784ZM12.0005 12.2784C12.6423 12.2784 13.1626 11.7581 13.1626 11.1163C13.1626 10.4745 12.6423 9.95417 12.0005 9.95417C11.3587 9.95417 10.8384 10.4745 10.8384 11.1163C10.8384 11.7581 11.3587 12.2784 12.0005 12.2784ZM16.6498 11.1163C16.6498 11.7581 16.1295 12.2784 15.4876 12.2784C14.8458 12.2784 14.3255 11.7581 14.3255 11.1163C14.3255 10.4745 14.8458 9.95417 15.4876 9.95417C16.1295 9.95417 16.6498 10.4745 16.6498 11.1163Z" fill="#525C69"/>
</svg>
