<svg width="24" height="24" viewBox="0 0 24 24" fill="none" xmlns="http://www.w3.org/2000/svg">
	<path fill-rule="evenodd" clip-rule="evenodd" d="M10.0835 3.21978C9.96257 2.88007 9.48223 2.8798 9.36091 3.21938L7.73686 7.76518C7.69813 7.8736 7.61274 7.95889 7.50428 7.9975L2.95666 9.61645C2.61694 9.73739 2.61667 10.2177 2.95625 10.3391L7.50206 11.9631C7.61048 12.0018 7.69577 12.0872 7.73438 12.1957L9.35333 16.7433C9.47427 17.083 9.95461 17.0833 10.0759 16.7437L11.7 12.1979C11.7387 12.0895 11.8241 12.0042 11.9326 11.9656L16.4802 10.3466C16.8199 10.2257 16.8202 9.74535 16.4806 9.62403L11.9348 7.99999C11.8264 7.96125 11.7411 7.87587 11.7025 7.76741L10.0835 3.21978ZM18.0496 13.4437C17.9796 13.2471 17.7017 13.2469 17.6315 13.4434L16.6917 16.0739C16.6693 16.1367 16.6199 16.186 16.5571 16.2084L13.9256 17.1452C13.729 17.2152 13.7288 17.4931 13.9253 17.5634L16.5558 18.5031C16.6186 18.5255 16.6679 18.575 16.6903 18.6377L17.6271 21.2693C17.6971 21.4658 17.975 21.466 18.0452 21.2695L18.985 18.639C19.0074 18.5763 19.0568 18.5269 19.1196 18.5046L21.7512 17.5677C21.9477 17.4978 21.9479 17.2198 21.7514 17.1496L19.1209 16.2098C19.0582 16.1874 19.0088 16.138 18.9865 16.0752L18.0496 13.4437Z" fill="#8DBB00"/>
</svg>
