<svg width="24" height="25" viewBox="0 0 24 25" fill="none" xmlns="http://www.w3.org/2000/svg">
<path d="M7.59393 3.75377C7.56171 3.66671 7.43857 3.66671 7.40636 3.75377L6.84087 5.28197C6.83074 5.30934 6.80916 5.33092 6.78179 5.34105L5.25359 5.90654C5.16653 5.93875 5.16653 6.06189 5.25359 6.09411L6.78179 6.65959C6.80916 6.66972 6.83074 6.6913 6.84087 6.71867L7.40636 8.24687C7.43857 8.33393 7.56171 8.33393 7.59393 8.24687L8.15941 6.71867C8.16954 6.6913 8.19112 6.66972 8.21849 6.65959L9.74669 6.09411C9.83375 6.06189 9.83375 5.93875 9.74669 5.90654L8.21849 5.34105C8.19112 5.33092 8.16954 5.30934 8.15941 5.28197L7.59393 3.75377Z" fill="#525C69"/>
<path d="M16.3126 5.00722C16.377 4.8331 16.6233 4.8331 16.6877 5.00722L17.4135 6.96876C17.4338 7.0235 17.477 7.06666 17.5317 7.08692L19.4932 7.81275C19.6674 7.87718 19.6674 8.12346 19.4932 8.18789L17.5317 8.91373C17.477 8.93398 17.4338 8.97714 17.4135 9.03189L16.6877 10.9934C16.6233 11.1675 16.377 11.1675 16.3126 10.9934L15.5867 9.03189C15.5665 8.97714 15.5233 8.93398 15.4686 8.91373L13.507 8.18789C13.3329 8.12346 13.3329 7.87718 13.507 7.81275L15.4686 7.08692C15.5233 7.06666 15.5665 7.0235 15.5867 6.96876L16.3126 5.00722Z" fill="#525C69"/>
<path d="M10.5153 7.29791C10.6119 7.03673 10.9813 7.03673 11.078 7.29791L12.8063 11.9688C12.8367 12.0509 12.9015 12.1156 12.9836 12.146L17.6544 13.8744C17.9156 13.971 17.9156 14.3404 17.6544 14.4371L12.9836 16.1655C12.9015 16.1958 12.8367 16.2606 12.8063 16.3427L11.078 21.0135C10.9813 21.2747 10.6119 21.2747 10.5153 21.0135L8.7869 16.3427C8.75651 16.2606 8.69177 16.1958 8.60965 16.1655L3.93881 14.4371C3.67762 14.3404 3.67762 13.971 3.93881 13.8744L8.60965 12.146C8.69177 12.1156 8.75651 12.0509 8.7869 11.9688L10.5153 7.29791Z" fill="#525C69"/>
</svg>
