<svg width="24" height="24" viewBox="0 0 24 24" fill="none" xmlns="http://www.w3.org/2000/svg">
<path fill-rule="evenodd" clip-rule="evenodd" d="M18.1646 16.2194C18.1646 16.1089 18.0751 16.0194 17.9646 16.0194H16.6143H10.3295L12.9718 12.1117C13.0178 12.0437 13.0175 11.9545 12.9712 11.8868L10.3554 8.06194H16.7069H17.9123C18.0228 8.06194 18.1123 7.9724 18.1123 7.86194V5.50371C18.1123 5.39325 18.0228 5.30371 17.9123 5.30371H8.46904H7.61238H5.79766C5.6872 5.30371 5.59766 5.39325 5.59766 5.50371V6.62521C5.59766 6.66762 5.61114 6.70893 5.63615 6.74317L9.49628 12.0282L5.6356 17.3658C5.61094 17.3999 5.59766 17.4409 5.59766 17.483V18.605C5.59766 18.7154 5.6872 18.805 5.79766 18.805H6.90592H8.44585H17.9646C18.0751 18.805 18.1646 18.7154 18.1646 18.605V16.2194ZM15.7718 15.1731C15.86 15.1731 15.9378 15.1153 15.9632 15.0309L16.2658 14.0285H18.2376L18.5402 15.0309C18.5657 15.1153 18.6435 15.1731 18.7317 15.1731H20.0584C20.1947 15.1731 20.291 15.0398 20.2483 14.9104L18.4066 9.33067C18.3795 9.24872 18.303 9.19336 18.2167 9.19336H16.2868C16.2005 9.19336 16.124 9.24872 16.0969 9.33067L14.2552 14.9104C14.2125 15.0398 14.3088 15.1731 14.4451 15.1731H15.7718ZM16.6325 12.8139H17.8709L17.2818 10.8625C17.2778 10.8492 17.2656 10.8401 17.2517 10.8401C17.2379 10.8401 17.2256 10.8492 17.2216 10.8625L16.6325 12.8139Z" fill="#525C69"/>
</svg>
