<svg width="24" height="24" viewBox="0 0 24 24" fill="none" xmlns="http://www.w3.org/2000/svg">
<path d="M17.8386 15.0276C17.9694 14.9216 18.1645 15.0147 18.1645 15.183V18.605C18.1645 18.7154 18.075 18.805 17.9645 18.805H6.9058L6.81322 16.0194H16.6142L17.8386 15.0276ZM17.9122 5.30371C18.0226 5.30371 18.1122 5.39325 18.1122 5.50371V8.99604C18.1122 9.17474 17.8957 9.26374 17.77 9.1367L16.7068 8.06194H7.61226V5.30371L17.9122 5.30371ZM12.9711 11.8868C13.0174 11.9545 13.0176 12.0437 12.9717 12.1117L8.44573 18.805H5.79753C5.68708 18.805 5.59753 18.7154 5.59753 18.605V17.483C5.59753 17.4409 5.61081 17.3999 5.63548 17.3658L9.49616 12.0282L5.63603 6.74317C5.61101 6.70893 5.59753 6.66761 5.59753 6.62521V5.50371C5.59753 5.39325 5.68708 5.30371 5.79753 5.30371H8.46892L12.9711 11.8868Z" fill="#525C69"/>
</svg>
