<svg width="24" height="24" viewBox="0 0 24 24" fill="none" xmlns="http://www.w3.org/2000/svg">
	<path d="M21.6623 10.2854C19.2865 7.63688 15.8377 5.9707 11.9998 5.9707C8.16209 5.9707 4.7135 7.63667 2.33777 10.2849L3.9806 11.9277C5.9339 9.69776 8.80238 8.28964 11.9997 8.28964C15.1974 8.28964 18.0661 9.69799 20.0194 11.9282L21.6623 10.2854Z" fill="#8DBB00"/>
	<path d="M18.2139 13.7329C16.7261 11.9611 14.4944 10.8348 11.9996 10.8348C9.50509 10.8348 7.27358 11.9608 5.78569 13.7324L7.4388 15.3855C8.4978 14.031 10.1471 13.1603 11.9997 13.1603C13.8525 13.1603 15.5019 14.0312 16.5609 15.386L18.2139 13.7329Z" fill="#8DBB00"/>
	<path d="M11.9997 19.9467L14.5121 17.4343C13.9989 16.5836 13.0657 16.0147 11.9998 16.0147C10.9337 16.0147 10.0006 16.5836 9.48737 17.4344L11.9997 19.9467Z" fill="#8DBB00"/>
</svg>