<svg width="24" height="24" viewBox="0 0 24 24" fill="none" xmlns="http://www.w3.org/2000/svg">
	<path d="M16.1375 6.64437C14.838 6.20747 13.4465 5.9707 11.9998 5.9707C8.16209 5.9707 4.7135 7.63667 2.33777 10.2849L3.9806 11.9277C5.9339 9.69776 8.80238 8.28964 11.9997 8.28964C12.773 8.28964 13.527 8.372 14.2535 8.52842L16.1375 6.64437Z" fill="#8DBB00"/>
	<path d="M11.947 10.8349C9.47371 10.8507 7.26311 11.9733 5.78569 13.7324L7.41761 15.3643L7.64117 15.1407C7.81286 14.9443 7.99762 14.7595 8.19409 14.5878L11.947 10.8349Z" fill="#8DBB00"/>
	<path d="M13.5115 13.3598L15.3255 11.5458C16.4469 12.0506 17.4329 12.8028 18.2139 13.7329L16.5609 15.386C15.8009 14.4136 14.7367 13.6906 13.5115 13.3598Z" fill="#8DBB00"/>
	<path d="M9.57838 17.2929L10.346 16.5253C10.8167 16.2031 11.3862 16.0147 11.9998 16.0147C13.0657 16.0147 13.9989 16.5836 14.5121 17.4343L11.9997 19.9467L9.48737 17.4344C9.51638 17.3863 9.54674 17.3391 9.57838 17.2929Z" fill="#8DBB00"/>
	<path d="M17.2185 9.65277L18.9097 7.96152C19.9324 8.60611 20.8587 9.38954 21.6623 10.2854L20.0194 11.9282C19.2242 11.0204 18.2774 10.2487 17.2185 9.65277Z" fill="#8DBB00"/>
	<path d="M17.6912 3.96191L19.207 5.47778L6.17405 18.5108L4.65818 16.9949L17.6912 3.96191Z" fill="#8DBB00"/>
</svg>