<svg width="24" height="24" viewBox="0 0 24 24" fill="none" xmlns="http://www.w3.org/2000/svg">
<path fill-rule="evenodd" clip-rule="evenodd" d="M11.9848 3C11.0444 3 10.2821 3.7664 10.2821 4.70677C10.2821 4.74648 10.2835 4.78588 10.2861 4.82492L6.77417 7.30371H5.07385C4.52157 7.30371 4.07385 7.75143 4.07385 8.30371V17.5073C4.07385 18.0595 4.52157 18.5073 5.07385 18.5073H18.8958C19.448 18.5073 19.8958 18.0595 19.8958 17.5073V8.30371C19.8958 7.75143 19.448 7.30371 18.8958 7.30371H17.191L13.6809 4.85676C13.6853 4.80733 13.6875 4.7573 13.6875 4.70677C13.6875 3.7664 12.9251 3 11.9848 3ZM10.7996 5.93133C11.1061 6.22958 11.5241 6.41353 11.9848 6.41353C12.4359 6.41353 12.846 6.23718 13.1506 5.94987L15.0927 7.30371H8.85517L10.7996 5.93133ZM6.56891 10.6749C6.56891 10.2331 6.92708 9.87494 7.36891 9.87494H14.4844C14.9262 9.87494 15.2844 10.2331 15.2844 10.6749V10.8122C15.2844 11.254 14.9262 11.6122 14.4844 11.6122H7.36891C6.92708 11.6122 6.56891 11.254 6.56891 10.8122V10.6749ZM7.36891 13.5195C6.92708 13.5195 6.56891 13.8776 6.56891 14.3195V14.4567C6.56891 14.8986 6.92708 15.2567 7.36891 15.2567H13.1004C13.5422 15.2567 13.9004 14.8986 13.9004 14.4567V14.3195C13.9004 13.8776 13.5422 13.5195 13.1004 13.5195H7.36891Z" fill="#95C500"/>
</svg>
