<svg width="24" height="24" viewBox="0 0 24 24" fill="none" xmlns="http://www.w3.org/2000/svg">
<path fill-rule="evenodd" clip-rule="evenodd" d="M6.71836 5.51206L7.20216 7.62635L20.3436 7.60365C20.5455 7.60452 20.7355 7.69927 20.8592 7.85923C20.9838 8.02007 21.0285 8.22872 20.9821 8.42693L19.7498 15.3489C19.6793 15.648 19.4155 15.8592 19.1122 15.861H8.3237C8.02035 15.8592 7.75654 15.648 7.68607 15.3489L5.55234 6.33534H3.66767C3.29893 6.33534 3 6.03641 3 5.66767C3 5.29893 3.29893 5 3.66767 5H6.07988C6.38408 5.00174 6.64703 5.21299 6.71836 5.51206ZM10.2339 20C9.311 20 8.5625 19.2428 8.5625 18.309C8.5625 17.3745 9.31098 16.6173 10.2339 16.6173C11.1577 16.6173 11.9062 17.3745 11.9062 18.309C11.9062 19.2427 11.1577 20 10.2339 20ZM17.1538 20C16.2309 20 15.4824 19.2428 15.4824 18.309C15.4824 17.3745 16.2309 16.6173 17.1538 16.6173C18.0776 16.6173 18.8261 17.3745 18.8261 18.309C18.8261 19.2427 18.0777 20 17.1538 20Z" fill="#525C69"/>
</svg>
