<svg width="24" height="24" viewBox="0 0 24 24" fill="none" xmlns="http://www.w3.org/2000/svg">
	<path d="M11.1187 2.74905C11.1187 2.49636 11.4242 2.36981 11.6029 2.54849L14.1881 5.13368C14.2988 5.24445 14.2988 5.42404 14.1881 5.5348L11.6029 8.12C11.4242 8.29868 11.1187 8.17213 11.1187 7.91944V6.69424C10.5913 6.78192 10.0787 6.947 9.59875 7.1842C9.45841 7.25356 9.28595 7.20577 9.20923 7.06932L8.2447 5.35375C8.16787 5.21711 8.21624 5.04358 8.3556 4.97181C9.21789 4.52773 10.1554 4.24407 11.1187 4.13538V2.74905Z" fill="#8DBB00"/>
	<path d="M16.0032 8.38257C15.8975 8.26694 15.8954 8.08769 16.0053 7.97604L17.3864 6.57348C17.4963 6.4619 17.6763 6.46019 17.7839 6.57395C20.0897 9.01138 20.6787 12.7483 18.9835 15.852C17.2957 18.9421 13.8559 20.4665 10.5719 19.865C10.4179 19.8368 10.3212 19.685 10.3548 19.532L10.778 17.6096C10.8116 17.4566 10.9631 17.3607 11.1177 17.3863C13.3277 17.7526 15.6242 16.714 16.7587 14.6368C17.8983 12.5504 17.5227 10.044 16.0032 8.38257Z" fill="#8DBB00"/>
	<path d="M8.19143 19.0195C8.30356 19.0808 8.41652 19.139 8.53022 19.1944C8.67119 19.2629 8.83912 19.1977 8.90251 19.0543L9.69828 17.2545C9.76158 17.1113 9.69655 16.9446 9.55694 16.8739C9.5066 16.8483 9.45649 16.822 9.40662 16.7947C7.95539 16.0021 7.01109 14.6423 6.69869 13.141C6.66679 12.9877 6.5228 12.8814 6.36805 12.9052L4.42291 13.2038C4.268 13.2276 4.16123 13.3727 4.19062 13.5266C4.62108 15.7815 6.01949 17.8333 8.19143 19.0195Z" fill="#8DBB00"/>
	<path d="M4.34565 11.5854C4.18935 11.5761 4.0696 11.4419 4.08436 11.286C4.18303 10.244 4.4903 9.20435 5.02385 8.22747C5.43626 7.4724 5.95326 6.81082 6.54704 6.2509C6.661 6.14344 6.84056 6.15552 6.94387 6.27326L8.24219 7.75289C8.34551 7.87064 8.33323 8.04933 8.22108 8.15871C7.8439 8.52657 7.51443 8.95611 7.24871 9.44263C6.90063 10.0799 6.69392 10.7564 6.61799 11.436C6.60059 11.5918 6.46704 11.7113 6.31059 11.702L4.34565 11.5854Z" fill="#8DBB00"/>
	<path d="M8.34791 12.418C8.12638 12.1965 8.12638 11.8373 8.34791 11.6158L8.93343 11.0303C9.15496 10.8087 9.51414 10.8087 9.73567 11.0303L11.1605 12.4551L14.1924 9.42324C14.414 9.2017 14.7731 9.2017 14.9947 9.42324L15.5802 10.0088C15.8017 10.2303 15.8017 10.5895 15.5802 10.811L11.5619 14.8293C11.535 14.8562 11.5061 14.8798 11.4757 14.9001C11.2552 15.0478 10.9541 15.0242 10.7594 14.8295L8.34791 12.418Z" fill="#8DBB00"/>
</svg>