<svg width="24" height="24" viewBox="0 0 24 24" fill="none" xmlns="http://www.w3.org/2000/svg">
<path fill-rule="evenodd" clip-rule="evenodd" d="M12 18.2137C15.4317 18.2137 18.2137 15.4317 18.2137 12C18.2137 8.56827 15.4317 5.78631 12 5.78631C8.56827 5.78631 5.78631 8.56827 5.78631 12C5.78631 15.4317 8.56827 18.2137 12 18.2137ZM12 20C7.58172 20 4 16.4183 4 12C4 7.58172 7.58172 4 12 4C16.4183 4 20 7.58172 20 12C20 16.4183 16.4183 20 12 20ZM8.90063 9.69961C8.90063 9.10288 9.38438 8.61914 9.9811 8.61914C10.5778 8.61914 11.0616 9.10288 11.0616 9.69961V10.7801C11.0616 11.3768 10.5778 11.8605 9.9811 11.8605C9.38438 11.8605 8.90063 11.3768 8.90063 10.7801V9.69961ZM14.0563 8.61914C13.4596 8.61914 12.9758 9.10288 12.9758 9.69961V10.7801C12.9758 11.3768 13.4596 11.8605 14.0563 11.8605C14.653 11.8605 15.1368 11.3768 15.1368 10.7801V9.69961C15.1368 9.10288 14.653 8.61914 14.0563 8.61914ZM15.9292 14.3825C16.0991 14.189 16.0886 13.7391 15.896 13.583C15.6894 13.4155 15.3518 13.4133 15.1417 13.5779C14.3486 14.1997 13.2853 14.554 12.1504 14.554C11.022 14.554 9.96424 14.2038 9.17235 13.5883C8.96143 13.4244 8.62377 13.4278 8.41816 13.5959C8.2285 13.7511 8.21745 14.1929 8.38242 14.3891C8.40866 14.4581 8.4463 14.5225 8.49528 14.5784C9.46651 15.6867 10.7666 16.3187 12.1505 16.3187C13.5423 16.3187 14.8493 15.6794 15.822 14.5597C15.8678 14.507 15.9035 14.4468 15.9292 14.3825Z" fill="#525C69"/>
</svg>
