<svg width="24" height="24" viewBox="0 0 24 24" fill="none" xmlns="http://www.w3.org/2000/svg">
<path fill-rule="evenodd" clip-rule="evenodd" d="M6.00488 6.0312C4.9003 6.0312 4.00487 6.92664 4.00488 8.03122L4.00495 15.9489C4.00496 17.0534 4.90038 17.9488 6.00495 17.9488H7.68893V20.055C7.68893 20.4177 8.13294 20.5931 8.38088 20.3284L10.6096 17.9488H18.108C19.2125 17.9488 20.108 17.0534 20.108 15.9488L20.1079 8.03118C20.1079 6.92662 19.2125 6.0312 18.1079 6.0312H6.00488ZM8.65663 13.5363C8.79597 13.3232 8.86564 13.0794 8.86564 12.8047C8.86564 12.5058 8.79143 12.258 8.643 12.0611C8.49457 11.8642 8.22952 11.6799 7.84785 11.5083C7.45002 11.3265 7.20617 11.2013 7.11631 11.1326C7.02644 11.064 6.98151 10.9862 6.98151 10.8994C6.98151 10.8186 7.01685 10.751 7.08753 10.6964C7.15821 10.6419 7.2713 10.6147 7.4268 10.6147C7.72769 10.6147 8.08513 10.7096 8.49912 10.8994L8.86564 9.9755C8.38905 9.76346 7.92156 9.65744 7.46315 9.65744C6.94415 9.65744 6.53623 9.77154 6.23937 9.99973C5.94251 10.2279 5.79409 10.546 5.79409 10.9539C5.79409 11.172 5.82892 11.3608 5.89859 11.5204C5.96826 11.6799 6.07529 11.8213 6.21968 11.9444C6.36407 12.0676 6.58065 12.1949 6.86943 12.3261C7.18851 12.4695 7.38489 12.5644 7.4586 12.6109C7.53231 12.6573 7.58583 12.7033 7.61915 12.7487C7.65247 12.7941 7.66913 12.8471 7.66913 12.9077C7.66913 13.0047 7.62773 13.0839 7.54493 13.1455C7.46214 13.2071 7.33188 13.2379 7.15417 13.2379C6.94819 13.2379 6.72202 13.2051 6.47564 13.1394C6.22927 13.0738 5.99199 12.9824 5.76379 12.8653V13.9316C5.97987 14.0346 6.18787 14.1068 6.3878 14.1482C6.58772 14.1896 6.8351 14.2103 7.12994 14.2103C7.48334 14.2103 7.7913 14.1512 8.05383 14.033C8.31636 13.9149 8.51729 13.7493 8.65663 13.5363ZM10.5742 10.9596L11.4799 14.1493H12.6189L13.5125 10.9657H13.5398C13.5155 11.4463 13.5019 11.7482 13.4989 11.8714C13.4958 11.9946 13.4943 12.1067 13.4943 12.2076V14.1493H14.5939V9.72071H12.9975L12.0918 12.865H12.0676L11.1437 9.72071H9.55036V14.1493H10.6106V12.2258C10.6106 11.9249 10.5894 11.5029 10.547 10.9596H10.5742ZM18.4445 12.8047C18.4445 13.0794 18.3749 13.3232 18.2355 13.5363C18.0962 13.7493 17.8952 13.9149 17.6327 14.033C17.3702 14.1512 17.0622 14.2103 16.7088 14.2103C16.414 14.2103 16.1666 14.1896 15.9667 14.1482C15.7668 14.1068 15.5588 14.0346 15.3427 13.9316V12.8653C15.5709 12.9824 15.8082 13.0738 16.0545 13.1394C16.3009 13.2051 16.5271 13.2379 16.7331 13.2379C16.9108 13.2379 17.041 13.2071 17.1238 13.1455C17.2066 13.0839 17.248 13.0047 17.248 12.9077C17.248 12.8471 17.2314 12.7941 17.198 12.7487C17.1647 12.7033 17.1112 12.6573 17.0375 12.6109C16.9638 12.5644 16.7674 12.4695 16.4483 12.3261C16.1595 12.1949 15.943 12.0676 15.7986 11.9444C15.6542 11.8213 15.5471 11.6799 15.4775 11.5204C15.4078 11.3608 15.373 11.172 15.373 10.9539C15.373 10.546 15.5214 10.2279 15.8183 9.99973C16.1151 9.77154 16.523 9.65744 17.042 9.65744C17.5004 9.65744 17.9679 9.76346 18.4445 9.9755L18.078 10.8994C17.664 10.7096 17.3066 10.6147 17.0057 10.6147C16.8502 10.6147 16.7371 10.6419 16.6664 10.6964C16.5957 10.751 16.5604 10.8186 16.5604 10.8994C16.5604 10.9862 16.6053 11.064 16.6952 11.1326C16.7851 11.2013 17.0289 11.3265 17.4267 11.5083C17.8084 11.6799 18.0735 11.8642 18.2219 12.0611C18.3703 12.258 18.4445 12.5058 18.4445 12.8047Z" fill="#525C69"/>
</svg>
