<svg width="24" height="24" viewBox="0 0 24 24" fill="none" xmlns="http://www.w3.org/2000/svg">
	<path d="M9.65071 5.4512V4.28182C9.65275 3.85021 9.31821 3.49833 8.90157 3.49513C8.51469 3.49316 8.19329 3.79276 8.14771 4.18029L8.14218 4.28182V5.4512C8.14218 5.88281 8.4798 6.23257 8.89644 6.23257C9.31308 6.23257 9.65071 5.88281 9.65071 5.4512Z" fill="#95C500"/>
	<path d="M19.7272 7.1789C19.7276 7.2046 19.7277 7.23041 19.7272 7.25632V17.8871L19.7272 17.8922V7.1789Z" fill="#95C500"/>
	<path d="M15.3996 5.13016L12.2476 8.37969H6.33106V16.824H15.6857V18.95H18.7232C18.7158 18.9501 18.7084 18.9502 18.701 18.9502H5.30482C4.73836 18.9502 4.27862 18.4739 4.27862 17.8871V7.25632C4.27451 7.20104 4.27246 7.14683 4.27246 7.09261C4.27451 6.00614 5.12627 5.12804 6.17505 5.13016H7.35724V5.66171C7.35724 6.54193 8.04582 7.25632 8.89654 7.25632C9.74727 7.25632 10.4359 6.54193 10.4359 5.66171V5.13016H15.3996Z" fill="#95C500"/>
	<path d="M11.4907 10.283H12.6133C12.8394 10.283 13.0227 10.4651 13.0227 10.6898V11.805C13.0227 12.0296 12.8394 12.2117 12.6133 12.2117H11.4907C11.2646 12.2117 11.0813 12.0296 11.0813 11.805V10.6898C11.0813 10.4651 11.2646 10.283 11.4907 10.283Z" fill="#95C500"/>
	<path d="M9.70208 10.2833H8.57947C8.35336 10.2833 8.17007 10.4654 8.17007 10.69V11.8052C8.17007 12.0298 8.35336 12.2119 8.57947 12.2119H9.70208C9.92818 12.2119 10.1115 12.0298 10.1115 11.8052V10.69C10.1115 10.4654 9.92818 10.2833 9.70208 10.2833Z" fill="#95C500"/>
	<path d="M8.57852 13.1761H9.70113C9.92724 13.1761 10.1105 13.3581 10.1105 13.5828V14.698C10.1105 14.9226 9.92724 15.1047 9.70113 15.1047H8.57852C8.35242 15.1047 8.16912 14.9226 8.16912 14.698V13.5828C8.16912 13.3581 8.35242 13.1761 8.57852 13.1761Z" fill="#95C500"/>
	<path d="M12.6133 13.1761H11.4907C11.2646 13.1761 11.0813 13.3581 11.0813 13.5828V14.698C11.0813 14.9226 11.2646 15.1047 11.4907 15.1047H12.6133C12.8394 15.1047 13.0227 14.9226 13.0227 14.698V13.5828C13.0227 13.3581 12.8394 13.1761 12.6133 13.1761Z" fill="#95C500"/>
	<path d="M17.6383 16.3457C17.6383 16.6218 17.8622 16.8457 18.1383 16.8457H19.2523C19.5284 16.8457 19.7523 16.6218 19.7523 16.3457V9.80371L22.4195 9.80371C22.5977 9.80371 22.6869 9.58828 22.5609 9.46229L19.052 5.95338C18.8567 5.75812 18.5401 5.75812 18.3449 5.95338L14.836 9.46229C14.71 9.58828 14.7992 9.80371 14.9774 9.80371H17.6383L17.6383 16.3457Z" fill="#95C500"/>
</svg>