<svg width="24" height="25" viewBox="0 0 24 25" fill="none" xmlns="http://www.w3.org/2000/svg">
	<path fill-rule="evenodd" clip-rule="evenodd" d="M13.7272 7.00721C13.7896 6.87354 13.8685 6.74309 13.9651 6.61801L14.9857 5.29688C14.982 5.29542 14.9784 5.29396 14.9748 5.2925C11.9582 4.07822 8.50646 4.81874 6.25343 7.16352C4.0004 9.5083 3.39818 12.9869 4.73185 15.9526C6.06551 18.9183 9.06746 20.7761 12.3167 20.6466C13.7586 20.6171 15.1014 20.1987 16.2468 19.4935C16.2416 19.452 16.2389 19.4098 16.2389 19.367L16.2389 16.9037C15.2134 17.9335 13.8033 18.5826 12.2357 18.6147C9.81584 18.7112 7.58008 17.3276 6.58681 15.1188C5.59354 12.91 6.04205 10.3193 7.72004 8.57297C9.27761 6.95196 11.6044 6.36044 13.7272 7.00721ZM12.9916 8.67285H10.9916V13.6729H12.9916H15.4793V11.6729H12.9916V8.67285Z" fill="#95C500"/>
	<path d="M18.3957 17.3779C18.3957 17.6541 18.6195 17.8779 18.8957 17.8779L20.0096 17.8779C20.2857 17.8779 20.5096 17.6541 20.5096 17.3779L20.5096 9.55205L23.1768 9.55205C23.355 9.55205 23.4442 9.33662 23.3182 9.21063L19.8093 5.70172C19.6141 5.50646 19.2975 5.50646 19.1022 5.70172L15.5933 9.21063C15.4673 9.33662 15.5565 9.55205 15.7347 9.55205L18.3957 9.55205L18.3957 17.3779Z" fill="#95C500"/>
</svg>