<svg width="24" height="24" viewBox="0 0 24 24" fill="none" xmlns="http://www.w3.org/2000/svg">
<path d="M13.5223 3.99805L8.26676 7.63894V7.78752C8.23323 7.78324 8.19906 7.78103 8.16436 7.78103H4.99844C4.55677 7.78103 4.19873 8.13907 4.19873 8.58073V15.0067C4.19873 15.4484 4.55677 15.8064 4.99844 15.8064H8.16436C8.19906 15.8064 8.23323 15.8042 8.26676 15.7999V16.0415L13.5223 19.5894V3.99805Z" fill="#525C69"/>
<path d="M21.9806 13.8204L20.8673 14.9337L18.6407 12.7071L16.4142 14.9337L15.3009 13.8204L17.5275 11.5938L15.3009 9.36723L16.4142 8.25395L18.6407 10.4805L20.8673 8.25395L21.9806 9.36723L19.754 11.5938L21.9806 13.8204Z" fill="#525C69"/>
</svg>
