<svg width="24" height="24" viewBox="0 0 24 24" fill="none" xmlns="http://www.w3.org/2000/svg">
<path fill-rule="evenodd" clip-rule="evenodd" d="M12.4808 4.32851C12.8127 4.10293 13.2618 4.34071 13.2618 4.74206V18.0614C13.2618 18.46 12.8181 18.6984 12.4857 18.4783L8.04031 15.5346L8.04113 15.2983C8.00586 15.3031 7.96986 15.3055 7.93329 15.3055H4.79824C4.35658 15.3055 3.99854 14.9475 3.99854 14.5058V8.28415C3.99854 7.84249 4.35658 7.48445 4.79824 7.48445H7.93329C7.96986 7.48445 8.00586 7.4869 8.04113 7.49166L8.04031 7.34598L12.4808 4.32851ZM18.2759 5.3748C19.9027 6.97049 20.7921 9.10694 20.7921 11.3646C20.7921 13.6224 19.9027 15.7603 18.2759 17.3546C18.0002 17.625 17.5398 17.625 17.233 17.3546C17.1095 17.204 17.0172 17.0241 17.0172 16.843C17.0172 16.6622 17.0783 16.4823 17.2318 16.3318C18.614 15.0077 19.35 13.2616 19.35 11.3648C19.35 9.468 18.614 7.72173 17.233 6.39781C16.9572 6.12736 16.9572 5.67583 17.233 5.3748C17.5087 5.10434 17.969 5.10434 18.2759 5.3748ZM16.3691 7.87354C17.321 8.80603 17.8425 10.0407 17.8425 11.3649C17.8425 12.689 17.321 13.9236 16.3691 14.8574C16.0934 15.1279 15.6331 15.1279 15.3262 14.8574C15.2233 14.732 15.1429 14.5853 15.1189 14.4351L15.1116 14.3445C15.1116 14.1634 15.1728 13.9835 15.3262 13.833C16.0011 13.1709 16.3691 12.2972 16.3691 11.3647C16.3691 10.4311 16.0011 9.55857 15.3262 8.89655C15.0505 8.62609 15.0505 8.17456 15.3262 7.87354C15.6019 7.60308 16.0623 7.60308 16.3691 7.87354Z" fill="#525C69"/>
</svg>
