<svg width="24" height="24" viewBox="0 0 24 24" fill="none" xmlns="http://www.w3.org/2000/svg">
<path fill-rule="evenodd" clip-rule="evenodd" d="M8.41779 17.3608C8.6259 17.1527 8.6259 16.8121 8.41779 16.6036L7.86947 16.0553C7.66099 15.8472 7.32041 15.8472 7.11267 16.0553L6.51159 16.6564C6.30348 16.8645 6.30348 17.2051 6.51159 17.4136L7.05954 17.9615C7.26802 18.1696 7.6086 18.1696 7.81671 17.9615L8.41779 17.3608ZM10.8103 10.958C11.0786 11.6908 11.5007 12.3794 12.0889 12.9675C12.4579 13.3365 12.8682 13.6373 13.3014 13.88L7.97796 19.202C7.28388 19.8957 6.1485 19.8957 5.45443 19.202L5.27141 19.0186C4.57734 18.3245 4.57734 17.1892 5.27141 16.4951L10.8103 10.958ZM20.9449 7.14136C21.4559 8.8016 21.0502 10.6813 19.7279 11.9848C17.8364 13.8488 14.7922 13.826 12.9283 11.9345C11.0647 10.0431 11.087 6.99841 12.9785 5.13491C14.3013 3.83181 16.1853 3.45368 17.8377 3.98874L15.0457 6.7405C14.5767 7.20343 14.571 7.96579 15.0339 8.43528L16.4586 9.88132C16.9215 10.3508 17.6843 10.3565 18.1533 9.89356L20.9449 7.14136Z" fill="#525C69"/>
</svg>
