<svg width="24" height="24" viewBox="0 0 24 24" fill="none" xmlns="http://www.w3.org/2000/svg">
<path fill-rule="evenodd" clip-rule="evenodd" d="M17.1762 2.88219C17.7026 2.77406 18.1621 3.16825 18.2015 3.70424C18.3091 5.16696 18.4965 7.99727 18.5002 9.99961C18.5039 11.9694 18.3252 14.6245 18.214 16.0815C18.1699 16.6593 17.6425 17.0594 17.0916 16.88C15.5782 16.3872 13.2113 15.2899 11.5741 13.7152C11.5741 13.7152 11.2459 9.8763 11.5741 6.24728C11.5782 6.19513 11.5822 6.14297 11.5873 6.09294C12.5658 4.25015 15.4798 3.23063 17.1762 2.88219ZM10.4604 13.2444C10.39 12.1749 10.2521 9.44343 10.455 6.72923C4.97927 7.20651 5.24635 11.3976 5.35275 13.0672C5.36833 13.3117 5.38046 13.5021 5.37061 13.6188C5.32809 14.1269 5.58398 19.1429 5.69951 21.3418C5.72903 21.9035 6.21643 22.3285 6.77715 22.2834L7.28367 22.2427C7.7736 22.2033 8.15721 21.8148 8.17854 21.3238C8.21207 20.5516 8.26148 19.1594 8.31576 16.7815C8.39684 13.2262 8.49517 13.227 10.3785 13.2437L10.4604 13.2444Z" fill="#525C69"/>
</svg>
