<svg width="24" height="24" viewBox="0 0 24 24" fill="none" xmlns="http://www.w3.org/2000/svg">
<path fill-rule="evenodd" clip-rule="evenodd" d="M6.31699 8.88166C6.31904 8.88109 6.32111 8.88058 6.32321 8.88014L19.2759 6.14113C19.649 6.06224 20.0001 6.34683 20.0001 6.72815V16.1172C20.0001 16.5109 19.6273 16.7979 19.2467 16.6973L14.2781 15.3839V16.9735C14.2781 17.5258 13.8304 17.9735 13.2781 17.9735H8.60401C8.05172 17.9735 7.60401 17.5258 7.60401 16.9735V13.6198L6.31834 13.2799C6.31657 13.2795 6.31481 13.279 6.31308 13.2784C6.28585 13.2986 6.25487 13.3145 6.22103 13.3247L4.41954 13.8703C4.2269 13.9286 4.03259 13.7844 4.03259 13.5832V8.57395C4.03259 8.37267 4.2269 8.22849 4.41954 8.28683L6.22103 8.83236C6.2565 8.8431 6.28883 8.86 6.31699 8.88166ZM12.9631 15.0363L8.91895 13.9674V16.4981C8.91895 16.6638 9.05326 16.7981 9.21895 16.7981H12.6631C12.8288 16.7981 12.9631 16.6638 12.9631 16.4981V15.0363Z" fill="#525C69"/>
</svg>
