<svg width="24" height="24" viewBox="0 0 24 24" fill="none" xmlns="http://www.w3.org/2000/svg">
	<path fill-rule="evenodd" clip-rule="evenodd" d="M18.2137 12C18.2137 15.4317 15.4317 18.2137 12 18.2137C8.56827 18.2137 5.78631 15.4317 5.78631 12C5.78631 8.56827 8.56827 5.78631 12 5.78631C15.4317 5.78631 18.2137 8.56827 18.2137 12ZM4 12C4 16.4183 7.58172 20 12 20C16.4183 20 20 16.4183 20 12C20 7.58172 16.4183 4 12 4C7.58172 4 4 7.58172 4 12ZM10 12C10 13.1046 10.8954 14 12 14C13.1046 14 14 13.1046 14 12C14 11.792 13.9682 11.5913 13.9093 11.4027L15.8516 8.94281C16.0438 8.69934 16.0234 8.35051 15.804 8.13116C15.584 7.91113 15.2339 7.89133 14.9904 8.08513L12.5045 10.0642C12.3434 10.0223 12.1743 10 12 10C10.8954 10 10 10.8954 10 12ZM12.0001 15.7752C13.0665 15.7752 14.0296 15.3331 14.7161 14.6221H16.6743C15.7563 16.2554 14.007 17.3589 11.9999 17.3589C9.99287 17.3589 8.24354 16.2554 7.32553 14.6221H9.28408C9.97059 15.3331 10.9337 15.7752 12.0001 15.7752Z" fill="#525C69"/>
</svg>