<svg width="24" height="24" viewBox="0 0 24 24" fill="none" xmlns="http://www.w3.org/2000/svg">
<path fill-rule="evenodd" clip-rule="evenodd" d="M11.9827 2.54688C12.5358 2.54688 12.9994 2.92597 13.1225 3.43586L13.1225 10.7398C13.1225 10.8601 13.219 10.958 13.3395 10.9621L13.3472 10.9622H13.4436C13.5651 10.9622 13.6641 10.8668 13.6682 10.7475L13.6683 10.7398L13.6683 5.50461C13.845 5.10811 14.2457 4.83132 14.7118 4.83132C15.2484 4.83132 15.6984 5.1982 15.8195 5.69226L15.8195 11.9152C15.8195 12.0354 15.9159 12.1334 16.0365 12.1374L16.0442 12.1376H16.1405C16.2621 12.1376 16.3611 12.0421 16.3652 11.9228L16.3653 11.9152V8.64353C16.3653 8.10844 16.8037 7.67466 17.3445 7.67466C17.8854 7.67466 18.2189 8.10844 18.2189 8.64353V11.5022C18.2189 11.5022 18.2064 13.5323 18.1024 14.4983C17.9984 15.4644 17.6157 18.0277 16.1681 20.28C16.0935 20.3961 15.9656 20.4676 15.8271 20.4713L15.8158 20.4714H9.38333C9.25512 20.4714 9.13426 20.4131 9.05526 20.3137L9.0482 20.3046L4.28597 13.9578C4.13405 13.7553 4.16787 13.4708 4.36312 13.3087C4.5921 13.1186 4.83138 13.0053 5.08096 12.9688L5.20946 12.9499C5.68714 12.8809 6.00793 12.8593 6.67316 13.2479C7.14919 13.5259 7.58169 14.0243 7.97066 14.743L7.98541 14.7704V5.48253C7.98541 4.84217 8.51008 4.32306 9.15731 4.32306H9.18941C9.7425 4.32306 10.2061 4.70215 10.3293 5.21204L10.3292 10.2316C10.3292 10.3518 10.4257 10.4498 10.5462 10.4538L10.6503 10.4539C10.7718 10.4539 10.8708 10.3585 10.8749 10.2392L10.875 10.2316L10.875 3.24532C11.0552 2.83434 11.469 2.54688 11.9506 2.54688H11.9827Z" fill="#525C69"/>
</svg>
