<svg width="24" height="24" viewBox="0 0 24 24" fill="none" xmlns="http://www.w3.org/2000/svg">
<path d="M20 6.4C20 6.17909 19.8209 6 19.6 6H4.4C4.17909 6 4 6.17909 4 6.4V7.6C4 7.82091 4.17909 8 4.4 8H19.6C19.8209 8 20 7.82091 20 7.6V6.4Z" fill="#95C500"/>
<path d="M20 16.4C20 16.1791 19.8209 16 19.6 16H10.4C10.1791 16 10 16.1791 10 16.4V17.6C10 17.8209 10.1791 18 10.4 18H19.6C19.8209 18 20 17.8209 20 17.6V16.4Z" fill="#95C500"/>
<path d="M10 11.4C10 11.1791 10.1791 11 10.4 11H19.6C19.8209 11 20 11.1791 20 11.4V12.6C20 12.8209 19.8209 13 19.6 13H10.4C10.1791 13 10 12.8209 10 12.6V11.4Z" fill="#95C500"/>
<path d="M4.14142 11.5658C4.06332 11.6439 4.06332 11.7705 4.14142 11.8486L6.15147 13.8587C6.22958 13.9368 6.22958 14.0634 6.15147 14.1415L4.14142 16.1515C4.06332 16.2297 4.06332 16.3563 4.14142 16.4344L5.27279 17.5658C5.3509 17.6439 5.47753 17.6439 5.55563 17.5658L8.9799 14.1415C9.058 14.0634 9.058 13.9368 8.9799 13.8587L5.55563 10.4344C5.47753 10.3563 5.3509 10.3563 5.27279 10.4344L4.14142 11.5658Z" fill="#95C500"/>
</svg>
