<svg width="24" height="24" viewBox="0 0 24 24" fill="none" xmlns="http://www.w3.org/2000/svg">
<path fill-rule="evenodd" clip-rule="evenodd" d="M9.01319 6H15.0118C15.564 6 16.0116 6.44772 16.0116 7V17C16.0116 17.5523 15.564 18 15.0118 18H9.01319C8.46104 18 8.01342 17.5523 8.01342 17V7C8.01342 6.44772 8.46104 6 9.01319 6ZM12.0125 12.9803C13.1168 12.9803 14.012 12.0849 14.012 10.9803C14.012 9.87577 13.1168 8.98034 12.0125 8.98034C10.9082 8.98034 10.013 9.87577 10.013 10.9803C10.013 12.0849 10.9082 12.9803 12.0125 12.9803ZM17.2768 7.97754H19.0002C19.5524 7.97754 20 8.42525 20 8.97754V14.9917C20 15.544 19.5524 15.9917 19.0002 15.9917H17.2768V7.97754ZM6.80511 7.9959V15.9927H4.99977C4.44761 15.9927 4 15.545 4 14.9927V8.9959C4 8.44361 4.44761 7.9959 4.99977 7.9959H6.80511Z" fill="#525C69"/>
</svg>
