<svg width="24" height="24" viewBox="0 0 24 24" fill="none" xmlns="http://www.w3.org/2000/svg">
<path d="M7.91323 8.645L9.07553 9.78083L11.9813 7L13 7.99714L9.07553 11.7L7 9.74167L7.91323 8.645Z" fill="#95C500"/>
<path fill-rule="evenodd" clip-rule="evenodd" d="M5.2 4C4.53726 4 4 4.53726 4 5.2V14.8C4 15.4627 4.53726 16 5.2 16H9.375L9.375 17.72C9.375 18.2861 9.83391 18.745 10.4 18.745H12.5V19.5C12.5 20.0523 12.9477 20.5 13.5 20.5H19.5C20.0523 20.5 20.5 20.0523 20.5 19.5V13.5C20.5 12.9477 20.0523 12.5 19.5 12.5H17.5V15.5C17.5 16.6046 16.6046 17.5 15.5 17.5H13L12.5 17.495H10.625L10.625 16H14.8C15.4627 16 16 15.4627 16 14.8V5.2C16 4.53726 15.4627 4 14.8 4H5.2ZM12.5 14.5H7.5V12.7H5.5V5.5H14.5V12.7H12.5V14.5Z" fill="#95C500"/>
</svg>
