<svg width="24" height="24" viewBox="0 0 24 24" fill="none" xmlns="http://www.w3.org/2000/svg">
<path fill-rule="evenodd" clip-rule="evenodd" d="M9.95588 5.45312C8.85131 5.45312 7.95588 6.34856 7.95588 7.45312V7.82008H5.48739C4.68952 7.82008 4.04272 8.46688 4.04272 9.26474V11.2309L10.2649 12.2408V11.9421C10.2649 11.5431 10.5883 11.2197 10.9872 11.2197H13.0124C13.4114 11.2197 13.7348 11.5431 13.7348 11.9421V12.2409L19.9571 11.2309V9.26474C19.9571 8.46688 19.3103 7.82008 18.5124 7.82008H16.0442V7.45312C16.0442 6.34856 15.1488 5.45312 14.0442 5.45312H9.95588ZM10.2649 13.2354V13.9673C10.2649 14.3662 10.5883 14.6896 10.9872 14.6896H13.0124C13.4114 14.6896 13.7348 14.3662 13.7348 13.9673V13.2355L19.9571 12.2256V17.5787C19.9571 18.3765 19.3103 19.0233 18.5124 19.0233H5.48739C4.68952 19.0233 4.04272 18.3765 4.04272 17.5787V12.2255L10.2649 13.2354ZM9.57209 7.82008H14.4283V7.38249C14.4283 6.98355 14.1049 6.66016 13.706 6.66016H10.2944C9.89549 6.66016 9.57209 6.98355 9.57209 7.38249V7.82008Z" fill="#525C69"/>
</svg>
