<svg width="24" height="24" viewBox="0 0 24 24" fill="none" xmlns="http://www.w3.org/2000/svg">
<path fill-rule="evenodd" clip-rule="evenodd" d="M12.0002 16.1563C14.2956 16.1563 16.1565 14.2955 16.1565 12C16.1565 9.70458 14.2956 7.84375 12.0002 7.84375C9.70471 7.84375 7.84387 9.70458 7.84387 12C7.84387 14.2955 9.70471 16.1563 12.0002 16.1563ZM12.0003 14.4339C13.3446 14.4339 14.4345 13.344 14.4345 11.9997C14.4345 10.6553 13.3446 9.56543 12.0003 9.56543C10.6559 9.56543 9.56604 10.6553 9.56604 11.9997C9.56604 13.344 10.6559 14.4339 12.0003 14.4339Z" fill="#525C69"/>
<path fill-rule="evenodd" clip-rule="evenodd" d="M12.0016 3.09668C11.6471 3.09668 11.3598 3.384 11.3598 3.73843V5.6763C11.3598 6.03073 11.6471 6.31805 12.0016 6.31805C12.356 6.31805 12.6433 6.03073 12.6433 5.6763V3.73843C12.6433 3.384 12.356 3.09668 12.0016 3.09668ZM11.999 17.6847C11.646 17.6847 11.3598 17.9708 11.3598 18.3239V20.2649C11.3598 20.6179 11.646 20.9041 11.999 20.9041C12.352 20.9041 12.6381 20.6179 12.6381 20.2649V18.3239C12.6381 17.9709 12.352 17.6847 11.999 17.6847ZM20.9028 12C20.9028 11.6316 20.6042 11.333 20.2358 11.333H18.3513C17.9829 11.333 17.6843 11.6316 17.6843 12C17.6843 12.3684 17.9829 12.667 18.3513 12.667H20.2358C20.6042 12.667 20.9028 12.3684 20.9028 12ZM6.31762 12C6.31762 11.6316 6.01899 11.333 5.65061 11.333H3.76247C3.39409 11.333 3.09546 11.6316 3.09546 12C3.09546 12.3684 3.39409 12.667 3.76247 12.667L5.65061 12.667C6.01899 12.667 6.31762 12.3684 6.31762 12ZM5.70424 5.7047C5.44145 5.96749 5.44145 6.39355 5.70424 6.65635L7.03909 7.99119C7.30188 8.25398 7.72794 8.25398 7.99073 7.99119C8.25353 7.7284 8.25353 7.30233 7.99073 7.03954L6.65589 5.7047C6.3931 5.4419 5.96703 5.4419 5.70424 5.7047ZM15.9619 15.9628C15.7048 16.2199 15.7048 16.6368 15.9619 16.8939L17.3647 18.2966C17.6218 18.5537 18.0386 18.5537 18.2957 18.2966C18.5528 18.0395 18.5528 17.6227 18.2957 17.3656L16.893 15.9628C16.6359 15.7057 16.219 15.7057 15.9619 15.9628ZM18.2956 5.70571C18.046 5.45611 17.6413 5.45611 17.3917 5.70571L16.0349 7.06247C15.7853 7.31207 15.7853 7.71677 16.0349 7.96637C16.2845 8.21598 16.6892 8.21598 16.9388 7.96637L18.2956 6.60962C18.5452 6.36001 18.5452 5.95532 18.2956 5.70571ZM7.96446 16.035C7.7029 15.7734 7.27883 15.7734 7.01727 16.035L5.70321 17.349C5.44165 17.6106 5.44165 18.0347 5.70321 18.2962C5.96477 18.5578 6.38885 18.5578 6.65041 18.2962L7.96446 16.9822C8.22603 16.7206 8.22603 16.2965 7.96446 16.035Z" fill="#525C69"/>
</svg>
