<svg width="24" height="24" viewBox="0 0 24 24" fill="none" xmlns="http://www.w3.org/2000/svg">
<path fill-rule="evenodd" clip-rule="evenodd" d="M21.3677 13.1974C21.3435 13.0683 21.2888 12.9435 21.1969 12.8375L15.5285 6.30677C15.3833 6.14022 15.1735 6.04412 14.953 6.04297H14.9499C14.7302 6.04297 14.5211 6.13754 14.3756 6.30256L13.0172 7.84363C12.7377 8.16103 12.7679 8.6446 13.0853 8.92448C13.4024 9.20436 13.8867 9.17373 14.1658 8.85633L14.9457 7.97189L18.5658 12.1425C17.9854 12.0997 17.3659 12.0855 16.7521 12.0855C16.2391 12.0855 15.7482 12.0954 15.296 12.1383H8.39321C7.94141 12.0954 7.45019 12.0855 6.93752 12.0855C6.32377 12.0855 5.70428 12.0997 5.12384 12.1425L8.74392 7.97189L9.52345 8.85633C9.80218 9.17335 10.2869 9.20398 10.6043 8.92448C10.9217 8.6446 10.952 8.16103 10.6721 7.84363L9.31402 6.30256C9.16853 6.13754 8.95948 6.04297 8.73971 6.04297H8.73664C8.51611 6.04412 8.30629 6.14022 8.16118 6.30677L2.49311 12.8375C2.40084 12.9431 2.34647 13.0679 2.32197 13.1966C2.28636 13.2896 2.26147 13.3873 2.26147 13.496C2.26147 15.6903 4.61117 18.0411 6.89808 18.0411C9.18499 18.0411 10.5224 16.701 10.7509 14.985C10.8218 14.4555 10.8065 14.0244 10.7218 13.6698H12.9678C12.8832 14.0244 12.8679 14.4555 12.9383 14.985C13.1673 16.701 14.5046 18.0411 16.7916 18.0411C19.0785 18.0411 21.4282 15.6903 21.4282 13.496C21.4282 13.3876 21.4033 13.29 21.3677 13.1974" fill="#525C69"/>
</svg>
