<svg width="24" height="24" viewBox="0 0 24 24" fill="none" xmlns="http://www.w3.org/2000/svg">
<path fill-rule="evenodd" clip-rule="evenodd" d="M13.0617 4L14.951 5.8962L13.3918 7.46355C15.3047 8.05974 16.6923 9.84948 16.6923 11.9657C16.6923 12.1727 16.6782 12.3762 16.6521 12.5761L17.259 14.3895L19.8498 13.5118C19.9479 13.0114 20 12.4945 20 11.9645C20 7.88822 16.9786 4.52166 13.0617 4V4ZM15.4538 15.1548C14.5973 16.0893 13.367 16.6772 11.9994 16.6772C10.9667 16.6772 10.012 16.3413 9.23712 15.7735L7.26388 15.7818L7.27571 18.448C8.5983 19.4239 10.2332 20 11.9994 20C15.0042 20 17.6234 18.3357 18.9909 15.8752L16.0299 16.8748L15.4538 15.1548ZM7.68384 13.8181C7.44133 13.2503 7.30529 12.6234 7.30529 11.9645C7.30529 9.83765 8.7095 8.03963 10.6378 7.45409L12.1887 5.8962L10.3905 4.09345C6.74336 4.83986 4 8.08103 4 11.9645C4 13.5934 4.48266 15.1087 5.31312 16.3744L5.30129 13.8276L7.68384 13.8181V13.8181Z" fill="#525C69"/>
</svg>
