<svg width="24" height="24" viewBox="0 0 24 24" fill="none" xmlns="http://www.w3.org/2000/svg">
<path fill-rule="evenodd" clip-rule="evenodd" d="M4.61334 7C4.61334 5.89543 5.50877 5 6.61334 5H17.7461C18.8507 5 19.7461 5.89543 19.7461 7V9.91909H20.0023C20.5533 9.91909 21 10.3658 21 10.9168C21 11.4678 20.5533 11.9145 20.0023 11.9145H19.7461V17C19.7461 18.1046 18.8507 19 17.7461 19H6.61334C5.50877 19 4.61334 18.1046 4.61334 17V11.9145H3.99771C3.44669 11.9145 3 11.4678 3 10.9168C3 10.3658 3.44669 9.91909 3.99771 9.91909H4.61334V7ZM6.60311 11.9145V16.9871H9.08558V11.9145H6.60311ZM9.08558 9.91909H6.60311V6.96207H9.08558V9.91909ZM11.0921 11.9145V16.9871H13.3445V11.9145H11.0921ZM13.3445 9.91909H11.0921V6.96207H13.3445V9.91909ZM15.351 11.9145V16.9871H17.6699V11.9145H15.351ZM17.6699 9.91909H15.351V6.96207H17.6699V9.91909Z" fill="#525C69"/>
</svg>
