<svg width="24" height="24" viewBox="0 0 24 24" fill="none" xmlns="http://www.w3.org/2000/svg">
<path fill-rule="evenodd" clip-rule="evenodd" d="M9.60103 4.45508C9.07849 4.45508 8.64405 4.85738 8.60398 5.37838L8.40713 7.93733H7.03908C6.4868 7.93733 6.03908 8.38504 6.03908 8.93733V9.25883C6.03908 9.81111 6.4868 10.2588 7.03908 10.2588H8.22856L7.96069 13.7411H6.19275C5.64046 13.7411 5.19275 14.1888 5.19275 14.7411V15.0626C5.19275 15.6149 5.64046 16.0626 6.19275 16.0626H7.78211L7.59707 18.4681C7.5524 19.0489 8.01162 19.5448 8.59413 19.5448H8.90972C9.43226 19.5448 9.8667 19.1425 9.90677 18.6215L10.1036 16.0626H13.5859L13.4008 18.4681C13.3561 19.0489 13.8154 19.5448 14.3979 19.5448H14.7135C15.236 19.5448 15.6704 19.1425 15.7105 18.6215L15.9074 16.0626H16.961C17.5133 16.0626 17.961 15.6149 17.961 15.0626V14.7411C17.961 14.1888 17.5133 13.7411 16.961 13.7411H16.0859L16.3538 10.2588H17.8073C18.3596 10.2588 18.8073 9.81111 18.8073 9.25883V8.93733C18.8073 8.38504 18.3596 7.93733 17.8073 7.93733H16.5324L16.7174 5.53177C16.7621 4.95098 16.3029 4.45508 15.7204 4.45508H15.4048C14.8822 4.45508 14.4478 4.85738 14.4077 5.37838L14.2109 7.93733H10.7286L10.9137 5.53177C10.9584 4.95098 10.4991 4.45508 9.91662 4.45508H9.60103ZM14.0323 10.2588H10.5501L10.2822 13.7411H13.7644L14.0323 10.2588Z" fill="#525C69"/>
</svg>
