<svg width="24" height="24" viewBox="0 0 24 24" fill="none" xmlns="http://www.w3.org/2000/svg">
<path fill-rule="evenodd" clip-rule="evenodd" d="M19.0745 12.1373C19.0745 16.1892 15.7898 19.4739 11.738 19.4739C10.0497 19.4739 8.49464 18.9036 7.25486 17.9452L8.47124 16.461C9.37956 17.1483 10.5112 17.556 11.738 17.556C14.7309 17.556 17.1571 15.1298 17.1571 12.1369C17.1571 9.144 14.7309 6.71777 11.738 6.71777C10.5006 6.71777 9.36006 7.13252 8.44781 7.83058L7.23204 6.34713C8.47553 5.37806 10.0393 4.80078 11.738 4.80078C15.7898 4.80078 19.0745 8.08546 19.0745 12.1373ZM11.7381 15.7668C10.9417 15.7668 10.2053 15.5103 9.6068 15.0755L10.6779 13.7686C10.9828 13.9672 11.3469 14.0826 11.738 14.0826C12.8122 14.0826 13.683 13.2118 13.683 12.1376C13.683 11.0634 12.8122 10.1926 11.738 10.1926C11.3367 10.1926 10.9637 10.3142 10.654 10.5225L9.58358 9.21641C10.1862 8.77122 10.9314 8.50803 11.7381 8.50803C13.7425 8.50803 15.3675 10.133 15.3675 12.1374C15.3675 14.1419 13.7425 15.7668 11.7381 15.7668ZM5.20822 7.52149L9.39538 12.2481L5.20822 16.9747V13.7484H1.47168V10.7478H5.20822V7.52149Z" fill="#525C69"/>
</svg>
