<svg width="24" height="24" viewBox="0 0 24 24" fill="none" xmlns="http://www.w3.org/2000/svg">
<path d="M11 9.50038C11 9.22423 11.2238 9.00038 11.5 9.00038H12.5C12.7761 9.00038 13 9.22423 13 9.50038V11.0004H14.5C14.7761 11.0004 15 11.2242 15 11.5004V12.5004C15 12.7765 14.7761 13.0004 14.5 13.0004H13V14.5004C13 14.7765 12.7761 15.0004 12.5 15.0004H11.5C11.2238 15.0004 11 14.7765 11 14.5004V13.0004H9.49997C9.22383 13.0004 8.99997 12.7765 8.99997 12.5004V11.5004C8.99997 11.2242 9.22383 11.0004 9.49997 11.0004H11V9.50038Z" fill="#525C69"/>
<path fill-rule="evenodd" clip-rule="evenodd" d="M11.055 3.0498C11.055 2.77366 11.2789 2.5498 11.555 2.5498H12.4451C12.7212 2.5498 12.9451 2.77366 12.9451 3.0498V4.28012C16.4844 4.70895 19.2908 7.51565 19.7191 11.0552H20.9503C21.2265 11.0552 21.4503 11.279 21.4503 11.5552V12.4452C21.4503 12.7214 21.2265 12.9452 20.9503 12.9452H19.7188C19.2896 16.4837 16.4837 19.2893 12.9451 19.718V20.9504C12.9451 21.2266 12.7212 21.4504 12.4451 21.4504H11.555C11.2789 21.4504 11.055 21.2266 11.055 20.9504V19.718C7.51641 19.2893 4.71047 16.4837 4.28123 12.9452H3.04968C2.77354 12.9452 2.54968 12.7214 2.54968 12.4452V11.5552C2.54968 11.279 2.77354 11.0552 3.04968 11.0552H4.28096C4.70928 7.51563 7.51566 4.70892 11.055 4.28011V3.0498ZM12 17.833C15.2217 17.833 17.8334 15.2213 17.8334 11.9996C17.8334 8.77795 15.2217 6.16626 12 6.16626C8.77832 6.16626 6.16663 8.77795 6.16663 11.9996C6.16663 15.2213 8.77832 17.833 12 17.833Z" fill="#525C69"/>
</svg>
