<svg width="24" height="24" viewBox="0 0 24 24" fill="none" xmlns="http://www.w3.org/2000/svg">
<path d="M11.0001 8.55652C11.0001 8.28038 11.224 8.05652 11.5001 8.05652H12.5001C12.7763 8.05652 13.0001 8.28038 13.0001 8.55652V10.9999H15.1901C15.4662 10.9999 15.6901 11.2237 15.6901 11.4999V12.4999C15.6901 12.776 15.4662 12.9999 15.1901 12.9999H12.5113L12.5001 13H11.5001C11.224 13 11.0001 12.7761 11.0001 12.5V8.55652Z" fill="#525C69"/>
<path fill-rule="evenodd" clip-rule="evenodd" d="M11.055 3.0498C11.055 2.77366 11.2789 2.5498 11.555 2.5498H12.4451C12.7212 2.5498 12.9451 2.77366 12.9451 3.0498V4.28012C16.4844 4.70895 19.2908 7.51565 19.7191 11.0552H20.9503C21.2265 11.0552 21.4503 11.279 21.4503 11.5552V12.4452C21.4503 12.7214 21.2265 12.9452 20.9503 12.9452H19.7188C19.2896 16.4837 16.4837 19.2893 12.9451 19.718V20.9504C12.9451 21.2266 12.7212 21.4504 12.4451 21.4504H11.555C11.2789 21.4504 11.055 21.2266 11.055 20.9504V19.718C7.51641 19.2893 4.71047 16.4837 4.28123 12.9452H3.04968C2.77354 12.9452 2.54968 12.7214 2.54968 12.4452V11.5552C2.54968 11.279 2.77354 11.0552 3.04968 11.0552H4.28096C4.70928 7.51563 7.51566 4.70892 11.055 4.28011V3.0498ZM12.0001 17.6733C15.1335 17.6733 17.6736 15.1333 17.6736 11.9999C17.6736 8.86655 15.1335 6.32646 12.0001 6.32646C8.86679 6.32646 6.32671 8.86655 6.32671 11.9999C6.32671 15.1333 8.86679 17.6733 12.0001 17.6733Z" fill="#525C69"/>
</svg>
