<svg width="24" height="24" viewBox="0 0 24 24" fill="none" xmlns="http://www.w3.org/2000/svg">
<path fill-rule="evenodd" clip-rule="evenodd" d="M19.4259 6.45178C20.0306 7.12851 20.2122 8.8465 19.9083 8.97111C19.6044 9.09571 15.9979 10.5207 15.6703 10.524C15.3426 10.5272 14.1851 9.37148 13.8472 9.03334C13.5094 8.69521 11.3773 10.5163 10.819 11.0505C10.2608 11.5848 8.15461 13.8679 8.57878 14.289C9.016 14.7299 10.0775 15.485 10.0719 16.1096C10.0689 16.4366 8.72493 20.0257 8.51592 20.3412C8.07396 21.0085 6.29006 20.1566 5.89583 19.7562C2.92206 16.7361 6.46945 11.6258 8.95129 9.13141C11.4161 6.67254 16.5248 3.20515 19.4259 6.45178Z" fill="#525C69"/>
</svg>
