<svg width="24" height="24" viewBox="0 0 24 24" fill="none" xmlns="http://www.w3.org/2000/svg">
<path fill-rule="evenodd" clip-rule="evenodd" d="M17.9065 5.94324C16.6195 4.65629 14.8947 3.94549 13.0578 3.96321C12.7287 3.98397 12.4663 4.24637 12.4633 4.5577C12.4777 4.88647 12.7351 5.14385 13.0464 5.14085C14.5883 5.1083 16.0033 5.68415 17.0845 6.76536C18.1657 7.84657 18.7415 9.26147 18.7083 10.8041C18.7067 10.9773 18.7744 11.1147 18.8774 11.2178C18.9807 11.321 19.1358 11.371 19.292 11.3864C19.6211 11.3656 19.8835 11.1032 19.8865 10.7919C19.9051 8.95587 19.1934 7.23018 17.9065 5.94324ZM16.2073 14.2052L18.1642 15.6714C18.7554 16.1206 18.8013 17.0083 18.2557 17.5146C16.2098 19.4697 12.8009 20.2287 8.3132 15.4842C3.82545 10.7396 4.71796 7.3432 6.76385 5.38802C7.30879 4.8819 8.17692 4.96564 8.59168 5.58208L9.96025 7.58366C10.4397 8.3184 10.1369 9.31945 9.40146 9.81026L8.57993 10.3586C8.39115 10.4788 8.33856 10.7308 8.43985 10.9239C9.50225 12.7887 11.0373 14.4229 12.8325 15.5939C13.0115 15.6973 13.2686 15.6439 13.3935 15.4735L13.9736 14.6512C14.4808 13.9345 15.5124 13.683 16.2073 14.2052ZM13.3952 6.47483C14.4693 6.4638 15.4703 6.87034 16.2251 7.62514C16.9799 8.37994 17.3864 9.38093 17.3761 10.4557C17.3731 10.7671 17.1107 11.0295 16.7816 11.0502C16.6515 11.0374 16.522 10.9996 16.4228 10.9277L16.3669 10.8802C16.2637 10.7769 16.196 10.6395 16.1976 10.4663C16.205 9.70424 15.9167 8.99643 15.3852 8.4649C14.853 7.93269 14.1459 7.64512 13.3838 7.65247C13.0725 7.65547 12.8151 7.39809 12.8007 7.06933C12.8037 6.758 13.0661 6.4956 13.3952 6.47483Z" fill="#525C69"/>
</svg>
