<svg width="24" height="24" viewBox="0 0 24 24" fill="none" xmlns="http://www.w3.org/2000/svg">
<path fill-rule="evenodd" clip-rule="evenodd" d="M17.2734 13.1509L19.2309 14.6177C19.8224 15.067 19.8683 15.9551 19.3225 16.4616C17.2759 18.4174 13.8657 19.1767 9.3764 14.4304C4.887 9.68406 5.77984 6.28638 7.82648 4.33048C8.37163 3.82418 9.24008 3.90795 9.65498 4.52462L11.0241 6.52693C11.5036 7.26194 11.2007 8.26336 10.4651 8.75436L9.64323 9.30289C9.45438 9.42319 9.40177 9.67527 9.5031 9.86842C10.5659 11.7339 12.1015 13.3687 13.8973 14.5402C14.0764 14.6436 14.3336 14.5901 14.4585 14.4197L15.0388 13.5971C15.5463 12.8802 16.5782 12.6286 17.2734 13.1509Z" fill="#525C69"/>
</svg>
