<svg width="24" height="24" viewBox="0 0 24 24" fill="none" xmlns="http://www.w3.org/2000/svg">
<path fill-rule="evenodd" clip-rule="evenodd" d="M8 4C6.89543 4 6 4.89543 6 6C7.10457 6 8 6.89543 8 8C8 9.10457 7.10457 10 6 10C7.10457 10 8 10.8954 8 12C8 13.1046 7.10457 14 6 14C7.10457 14 8 14.8954 8 16C8 17.1046 7.10457 18 6 18C6 19.1046 6.89543 20 8 20H17C18.1046 20 19 19.1046 19 18V6C19 4.89543 18.1046 4 17 4H8ZM15.9316 13.0564L17.0261 13.8518C17.3568 14.0954 17.3825 14.577 17.0773 14.8516C15.933 15.9122 14.0263 16.3239 11.5162 13.7502C9.00608 11.1765 9.50528 9.33406 10.6496 8.27347C10.9544 7.99892 11.44 8.04435 11.672 8.37874L12.4375 9.46451C12.7056 9.86307 12.5362 10.4061 12.1249 10.6723L11.6654 10.9698C11.5598 11.035 11.5304 11.1717 11.587 11.2764C12.1813 12.288 13.0398 13.1745 14.0439 13.8097C14.1441 13.8658 14.2879 13.8368 14.3577 13.7444L14.6822 13.2983C14.9659 12.9096 15.5429 12.7732 15.9316 13.0564ZM5 7C4.44772 7 4 7.44772 4 8C4 8.55228 4.44772 9 5 9H6C6.55228 9 7 8.55228 7 8C7 7.44772 6.55228 7 6 7H5ZM4 12C4 11.4477 4.44772 11 5 11H6C6.55228 11 7 11.4477 7 12C7 12.5523 6.55228 13 6 13H5C4.44772 13 4 12.5523 4 12ZM5 15C4.44772 15 4 15.4477 4 16C4 16.5523 4.44772 17 5 17H6C6.55228 17 7 16.5523 7 16C7 15.4477 6.55228 15 6 15H5Z" fill="#BDC1C6"/>
</svg>
