<svg width="24" height="24" viewBox="0 0 24 24" fill="none" xmlns="http://www.w3.org/2000/svg">
<path fill-rule="evenodd" clip-rule="evenodd" d="M21.4968 13.6973C21.4458 14.6034 20.3594 15.9466 20.0564 15.8198C19.7534 15.693 16.1956 14.1505 15.9616 13.9211C15.7277 13.6917 15.7264 12.056 15.7266 11.578C15.7268 11.1 12.9315 10.88 12.159 10.8631C11.3864 10.8461 8.28273 10.9713 8.28491 11.5689C8.2823 12.1899 8.49894 13.4744 8.05333 13.912C7.82001 14.1412 4.33183 15.7287 3.9609 15.804C3.17655 15.9634 2.51756 14.0995 2.5219 13.5377C2.55463 9.2994 8.67655 8.19426 12.1953 8.18537C15.6769 8.1896 21.7411 9.35017 21.4968 13.6973Z" fill="#525C69"/>
</svg>
