<svg width="24" height="24" viewBox="0 0 24 24" fill="none" xmlns="http://www.w3.org/2000/svg">
<path d="M13.3938 9.29921C13.2901 9.41798 13.1388 9.48667 12.9787 9.48667C12.8185 9.48667 12.665 9.41798 12.5578 9.29921L11.2247 7.87882C10.9898 7.61824 10.9836 7.23001 11.21 6.96987L12.499 5.5455C12.6023 5.42672 12.754 5.35892 12.9142 5.35936C13.0743 5.3598 13.2274 5.4285 13.3342 5.54815C13.5682 5.80741 13.5753 6.19431 13.3497 6.45445L13.0556 6.77974H18.5635C18.8398 6.79393 19.0561 7.02482 19.0481 7.29693L19.0516 7.54777C19.0685 7.81988 18.8594 8.05078 18.5836 8.06496H13.0761L13.3791 8.39025C13.6136 8.65084 13.6194 9.03862 13.3938 9.29921Z" fill="#525C69"/>
<path d="M17.4881 9.33439C17.6955 9.27545 17.9202 9.34148 18.0639 9.5028L19.4018 10.9263C19.6363 11.1873 19.6425 11.5755 19.416 11.8366L18.1271 13.2583C17.9887 13.4196 17.7658 13.4852 17.5571 13.4267C17.3435 13.3593 17.1802 13.1856 17.1299 12.9702C17.0712 12.7504 17.1259 12.5177 17.2759 12.3484L17.57 12.0231H12.0625C11.7867 12.0085 11.5704 11.7781 11.5784 11.506L11.574 11.2547C11.5584 10.9826 11.7667 10.7521 12.0425 10.737H17.546L17.2416 10.4122C17.0859 10.2429 17.0241 10.0098 17.0757 9.78998C17.1197 9.57548 17.2768 9.40131 17.4881 9.33439Z" fill="#525C69"/>
<path d="M17.7929 16.398L15.8193 14.9638C15.1184 14.453 14.078 14.699 13.5664 15.4L12.9813 16.2044C12.8554 16.371 12.5961 16.4233 12.4155 16.3221C10.605 15.1767 9.05687 13.5782 7.98534 11.7542C7.88317 11.5653 7.93621 11.3189 8.12661 11.2012L8.95518 10.6649C9.69687 10.1848 10.0022 9.20563 9.51879 8.48695L8.13846 6.52913C7.72016 5.92616 6.84459 5.84426 6.29497 6.33931C4.23157 8.25175 3.33142 11.5739 7.85759 16.2148C12.3837 20.8556 15.8218 20.1132 17.8852 18.2008C18.4355 17.7056 18.3892 16.8373 17.7929 16.398Z" fill="#525C69"/>
</svg>
