<svg width="24" height="24" viewBox="0 0 24 24" fill="none" xmlns="http://www.w3.org/2000/svg">
<path fill-rule="evenodd" clip-rule="evenodd" d="M5.91858 4.546C6.59531 3.94129 8.3133 3.75968 8.43791 4.0636C8.56251 4.36753 9.98752 7.97403 9.99077 8.30167C9.99401 8.6293 8.83828 9.78687 8.50014 10.1247C8.162 10.4625 9.98305 12.5946 10.5173 13.1529C11.0516 13.7112 13.3347 15.8173 13.7558 15.3931C14.1967 14.9559 14.9518 13.8944 15.5764 13.9001C15.9034 13.903 19.4925 15.247 19.808 15.456C20.4753 15.898 19.6234 17.6819 19.223 18.0761C16.2029 21.0499 11.0926 17.5025 8.59821 15.0206C6.13933 12.5558 2.67195 7.44709 5.91858 4.546Z" fill="#525C69"/>
</svg>
