<svg width="24" height="24" viewBox="0 0 24 24" fill="none" xmlns="http://www.w3.org/2000/svg">
<path fill-rule="evenodd" clip-rule="evenodd" d="M8.40704 7.25463C8.01017 6.85776 8.01017 6.21431 8.40704 5.81744L11.2814 2.94306C11.6783 2.54619 12.3217 2.54619 12.7186 2.94306L15.593 5.81744C15.9899 6.21431 15.9899 6.85776 15.593 7.25463L12.7186 10.129C12.3217 10.5259 11.6783 10.5259 11.2814 10.129L8.40704 7.25463ZM2.94305 12.7186C2.54618 12.3217 2.54618 11.6783 2.94305 11.2814L5.81743 8.40705C6.2143 8.01018 6.85775 8.01018 7.25462 8.40705L10.129 11.2814C10.5259 11.6783 10.5259 12.3217 10.129 12.7186L7.25462 15.593C6.85775 15.9899 6.2143 15.9899 5.81743 15.593L2.94305 12.7186ZM8.40704 18.1826C8.01017 17.7857 8.01017 17.1423 8.40704 16.7454L11.2814 13.871C11.6783 13.4742 12.3217 13.4742 12.7186 13.871L15.593 16.7454C15.9899 17.1423 15.9899 17.7857 15.593 18.1826L12.7186 21.057C12.3217 21.4539 11.6783 21.4539 11.2814 21.057L8.40704 18.1826ZM13.871 12.7186C13.4742 12.3217 13.4742 11.6783 13.871 11.2814L16.7454 8.40705C17.1423 8.01018 17.7857 8.01018 18.1826 8.40705L21.057 11.2814C21.4539 11.6783 21.4539 12.3217 21.057 12.7186L18.1826 15.593C17.7857 15.9899 17.1423 15.9899 16.7454 15.593L13.871 12.7186ZM10.1053 6.86867C9.89369 6.65704 9.89369 6.31393 10.1053 6.10231L11.638 4.56959C11.8497 4.35797 12.1928 4.35797 12.4044 4.56959L13.9371 6.10231C14.1487 6.31393 14.1487 6.65704 13.9371 6.86867L12.4044 8.40139C12.1928 8.61301 11.8497 8.61301 11.638 8.40139L10.1053 6.86867Z" fill="#BDC1C6"/>
</svg>
