<svg width="24" height="24" viewBox="0 0 24 24" fill="none" xmlns="http://www.w3.org/2000/svg">
<path fill-rule="evenodd" clip-rule="evenodd" d="M5.60028 6H18.3997C19.2835 6 20 6.71706 20 7.60159V17.3984C20 18.2829 19.2835 19 18.3997 19H5.60028C4.71647 19 4 18.2829 4 17.3984V7.60159C4 6.71706 4.71647 6 5.60028 6ZM6.00035 10.004V17.0061H18.0186V10.004H6.00035ZM7.00053 9.00299C7.55291 9.00299 8.0007 8.55483 8.0007 8.00199C8.0007 7.44916 7.55291 7.001 7.00053 7.001C6.44814 7.001 6.00035 7.44916 6.00035 8.00199C6.00035 8.55483 6.44814 9.00299 7.00053 9.00299ZM10.0011 9.00299C10.5534 9.00299 11.0012 8.55483 11.0012 8.00199C11.0012 7.44916 10.5534 7.001 10.0011 7.001C9.44867 7.001 9.00088 7.44916 9.00088 8.00199C9.00088 8.55483 9.44867 9.00299 10.0011 9.00299Z" fill="#525C69"/>
</svg>
