<svg width="24" height="24" viewBox="0 0 24 24" fill="none" xmlns="http://www.w3.org/2000/svg">
<path d="M11.9319 3.10063C12.0069 3.10158 12.0826 3.10803 12.1567 3.11995C12.2272 3.13128 12.2964 3.15744 12.3598 3.19938L20.8741 8.83365C21.2316 9.07021 21.3297 9.55177 21.0931 9.90926L20.7616 10.4102C20.525 10.7677 20.0435 10.8657 19.686 10.6292L12.4187 5.82011C12.159 5.64826 11.8217 5.64826 11.562 5.82011L4.31404 10.6164C3.95656 10.8529 3.47499 10.7549 3.23843 10.3974L2.90693 9.89644C2.67037 9.53896 2.7684 9.05739 3.12588 8.82083L11.6402 3.18657C11.7301 3.12711 11.8317 3.09936 11.9319 3.10063Z" fill="#BDC1C6"/>
<path fill-rule="evenodd" clip-rule="evenodd" d="M5.13614 11.9805C5.13615 11.5467 5.35355 11.1418 5.71511 10.9022L11.6033 6.99977C11.8632 6.82751 12.201 6.82751 12.4609 6.99977L18.3491 10.9022C18.7106 11.1418 18.928 11.5467 18.928 11.9805L18.9279 18.717C18.9279 19.4314 18.3487 20.0106 17.6343 20.0106H6.42962C5.71516 20.0106 5.13598 19.4314 5.136 18.7169L5.13614 11.9805ZM11.6776 10.858C11.7727 10.6665 12.0459 10.6665 12.141 10.858L13.1088 12.8058C13.1465 12.8816 13.2189 12.9342 13.3026 12.9466L15.4542 13.2651C15.6657 13.2964 15.7501 13.5562 15.5974 13.7059L14.0439 15.2282C13.9835 15.2875 13.9558 15.3726 13.9699 15.456L14.3319 17.6007C14.3674 17.8116 14.1465 17.9721 13.957 17.8731L12.0291 16.8661C11.954 16.8269 11.8646 16.8269 11.7895 16.8661L9.86163 17.8731C9.67213 17.9721 9.45116 17.8116 9.48674 17.6007L9.84869 15.456C9.86278 15.3726 9.83513 15.2875 9.77466 15.2282L8.22121 13.7059C8.06851 13.5562 8.15291 13.2964 8.36441 13.2651L10.516 12.9466C10.5997 12.9342 10.6721 12.8816 10.7098 12.8058L11.6776 10.858Z" fill="#BDC1C6"/>
</svg>
