<svg width="24" height="24" viewBox="0 0 24 24" fill="none" xmlns="http://www.w3.org/2000/svg">
<path d="M20.3284 5.7043C20.3284 4.71018 19.5225 3.9043 18.5284 3.9043H12.6534C11.6593 3.9043 10.8534 4.71018 10.8534 5.7043V9.26169C10.8534 10.2558 11.6593 11.0617 12.6534 11.0617H18.5284C19.5225 11.0617 20.3284 10.2558 20.3284 9.26169V5.7043Z" fill="#95C500"/>
<path d="M18.5282 12.598C19.5224 12.598 20.3282 13.4039 20.3282 14.398V17.9537C20.3282 18.9478 19.5224 19.7537 18.5282 19.7537H18.3574V20.8129C18.3574 21.434 17.6086 21.7474 17.1661 21.3115L15.5849 19.7537H12.6533C11.6592 19.7537 10.8533 18.9478 10.8533 17.9537V14.398C10.8533 13.4039 11.6592 12.598 12.6533 12.598H18.5282Z" fill="#95C500"/>
<path d="M5.36057 11.8489C5.13966 11.8489 4.96057 11.6698 4.96057 11.4489V8.79834H2.31101C2.0901 8.79834 1.91101 8.61925 1.91101 8.39834V7.39834C1.91101 7.17742 2.0901 6.99834 2.31101 6.99834H4.96057V4.34922C4.96057 4.1283 5.13966 3.94922 5.36057 3.94922H6.36057C6.58148 3.94922 6.76057 4.1283 6.76057 4.34922V6.99834H9.41071C9.63163 6.99834 9.81071 7.17742 9.81071 7.39834V8.39834C9.81071 8.61925 9.63163 8.79834 9.41071 8.79834H6.76057V11.4489C6.76057 11.6698 6.58149 11.8489 6.36057 11.8489H5.36057Z" fill="#95C500"/>
<path d="M6.75117 15.3333V13.4862C6.75117 13.2653 6.57209 13.0862 6.35117 13.0862H5.35117C5.13026 13.0862 4.95117 13.2653 4.95117 13.4862V15.3333C4.95117 16.6036 5.98092 17.6333 7.25117 17.6333H9.26304C9.48395 17.6333 9.66304 17.4542 9.66304 17.2333V16.2333C9.66304 16.0124 9.48395 15.8333 9.26304 15.8333H7.25117C6.97503 15.8333 6.75117 15.6094 6.75117 15.3333Z" fill="#95C500"/>
</svg>
