<svg width="24" height="24" viewBox="0 0 24 24" fill="none" xmlns="http://www.w3.org/2000/svg">
<path fill-rule="evenodd" clip-rule="evenodd" d="M20.0748 8.85852C20.0748 7.26794 18.7853 5.97852 17.1948 5.97852H6.82995C5.23937 5.97852 3.94995 7.26794 3.94995 8.85852V15.1434C3.94995 16.734 5.23937 18.0234 6.82995 18.0234H13.7225L15.7427 20.0138C16.28 20.5431 17.1893 20.1625 17.1893 19.4083V18.0234H17.1948C18.7853 18.0234 20.0748 16.734 20.0748 15.1434V8.85852ZM8.41101 14.1654V12.1899H6.43457C6.15843 12.1899 5.93457 11.966 5.93457 11.6899V10.8119C5.93457 10.5357 6.15843 10.3119 6.43457 10.3119H8.41101V8.33496C8.41101 8.05882 8.63487 7.83496 8.91101 7.83496H9.78901C10.0652 7.83496 10.289 8.05882 10.289 8.33496V10.3119H12.265C12.5412 10.3119 12.765 10.5357 12.765 10.8119V11.6899C12.765 11.966 12.5412 12.1899 12.265 12.1899H10.289V14.1654C10.289 14.4416 10.0652 14.6654 9.78901 14.6654H8.91101C8.63487 14.6654 8.41101 14.4416 8.41101 14.1654Z" fill="#95C500"/>
</svg>
