<svg width="24" height="24" viewBox="0 0 24 24" fill="none" xmlns="http://www.w3.org/2000/svg">
	<path fill-rule="evenodd" clip-rule="evenodd" d="M11.9999 3.35352C8.58938 3.35352 5.84875 6.09307 5.84875 9.50469C5.84875 13.1056 9.5034 18.132 11.1787 20.2469C11.6031 20.7827 12.3926 20.7789 12.8133 20.2401C14.4849 18.0988 18.1511 13.0038 18.1511 9.50469C18.1511 6.09307 15.4105 3.35352 11.9999 3.35352ZM12 13.4947C9.76584 13.4947 8.00901 11.7394 8.00901 9.50367C8.00901 7.26951 9.76431 5.51268 12 5.51268C14.2342 5.51268 15.991 7.26798 15.991 9.50367C15.991 11.7393 14.2342 13.4947 12 13.4947Z" fill="#8DBB00"/>
	<path d="M11.6931 6.7741C11.3843 6.7741 11.1339 7.02446 11.1339 7.33328V9.93771C11.1339 10.2465 11.3843 10.497 11.6931 10.497H12.0809C12.0852 10.497 12.0896 10.497 12.0939 10.4969H14.1067C14.4155 10.4969 14.6659 10.2465 14.6659 9.93771V9.54986C14.6659 9.24104 14.4155 8.99069 14.1067 8.99069H12.6401V7.33328C12.6401 7.02446 12.3897 6.7741 12.0809 6.7741H11.6931Z" fill="#8DBB00"/>
</svg>