<svg width="24" height="24" viewBox="0 0 24 24" fill="none" xmlns="http://www.w3.org/2000/svg">
	<path fill-rule="evenodd" clip-rule="evenodd" d="M6.52232 20.68L6.57822 20.6809C7.59527 20.6986 8.65287 20.717 9.0106 20.5029C9.1719 20.4063 9.78586 19.8942 10.5675 19.2422C12.1577 17.9158 14.4418 16.0104 15.0201 15.8481C15.5686 15.6942 16.9887 15.5782 17.9498 15.5142C18.4819 15.4788 18.8995 15.0391 18.8995 14.5059V9.36825C18.8995 8.84317 18.4942 8.40744 17.9707 8.36707C17.0191 8.29368 15.5746 8.17433 14.8146 8.07199C13.8275 7.93908 11.0021 5.43388 9.7807 4.35084C9.52275 4.12211 9.33633 3.95682 9.25387 3.89069C8.90953 3.61457 7.54 3.64068 6.4719 3.6753C5.91903 3.69321 5.47143 4.15141 5.47266 4.70457L5.506 19.6592C5.50724 20.217 5.96462 20.6703 6.52232 20.68ZM11.222 9.82874C11.3099 9.74087 11.3648 9.63252 11.3868 9.51905C11.4018 9.44144 11.4014 9.36143 11.3856 9.28394C11.3629 9.17264 11.3084 9.06653 11.222 8.98019L9.56935 7.32751C9.33503 7.09319 8.95513 7.09319 8.72082 7.32751C8.4865 7.56182 8.4865 7.94172 8.72082 8.17603L9.39842 8.85364H6.98454C6.65317 8.85364 6.38454 9.12227 6.38454 9.45364C6.38454 9.78501 6.65317 10.0536 6.98454 10.0536H9.30009L8.72998 10.6238C8.49567 10.8581 8.49567 11.238 8.72999 11.4723C8.9643 11.7066 9.3442 11.7066 9.57851 11.4723L11.222 9.82874ZM13.6497 14.025C13.4154 13.7906 13.4154 13.4107 13.6497 13.1764L14.2198 12.6063H12.0222C11.6908 12.6063 11.4222 12.3377 11.4222 12.0063C11.4222 11.6749 11.6908 11.4063 12.0222 11.4063H14.3181L13.6406 10.7288C13.4062 10.4945 13.4062 10.1146 13.6406 9.88024C13.8749 9.64593 14.2548 9.64593 14.4891 9.88024L16.1374 11.5286L16.1418 11.5329C16.2589 11.65 16.3175 11.8036 16.3175 11.9571C16.3175 11.9911 16.3146 12.0251 16.3089 12.0587C16.2887 12.1769 16.233 12.2902 16.1418 12.3815L16.1375 12.3857L14.4983 14.0249C14.2639 14.2593 13.884 14.2593 13.6497 14.025ZM8.72999 16.9359C8.49567 16.7016 8.49567 16.3217 8.72998 16.0874L9.30009 15.5173H6.98454C6.65317 15.5173 6.38454 15.2486 6.38454 14.9173C6.38454 14.5859 6.65317 14.3173 6.98454 14.3173H9.39836L8.72082 13.6397C8.4865 13.4054 8.4865 13.0255 8.72082 12.7912C8.95513 12.5569 9.33503 12.5569 9.56935 12.7912L11.2177 14.4395L11.222 14.4438C11.3392 14.561 11.3978 14.7146 11.3978 14.8681C11.3978 15.0217 11.3392 15.1752 11.222 15.2924L11.2177 15.2967L9.57851 16.9359C9.3442 17.1702 8.9643 17.1702 8.72999 16.9359Z" fill="#95C500"/>
</svg>
