<svg width="24" height="24" viewBox="0 0 24 24" fill="none" xmlns="http://www.w3.org/2000/svg">
	<path d="M11.0006 4.30566V5.97715H14.7813V7.89121H13.7823C13.1287 9.8475 12.2229 11.4081 11.0581 12.566C10.9916 12.6322 10.9234 12.6982 10.8535 12.7639C11.2312 13.0598 11.5977 13.3164 12.0241 13.566C12.3631 13.7585 12.5214 13.8472 12.878 14.0057L12.0242 15.7686C11.7824 15.6691 11.3669 15.4658 10.8171 15.1441C10.2485 14.8114 9.77139 14.465 9.25337 14.0451C8.257 14.7356 7.06633 15.4052 5.681 16.0563L5.20277 16.2769L4.31405 14.569C5.6532 13.9629 6.80232 13.3456 7.76106 12.7193C7.23345 12.1567 6.5494 11.3085 5.69695 10.1647L5.47618 9.86693L7.09642 8.66032L7.70594 9.47406C8.41126 10.4001 8.97239 11.0767 9.37962 11.4958C9.50926 11.38 9.63261 11.2639 9.74964 11.1475C10.5765 10.3255 11.2646 9.24142 11.81 7.89121H4.09705V5.97715H8.9896V4.30566H11.0006Z" fill="#8DBB00"/>
	<path fill-rule="evenodd" clip-rule="evenodd" d="M12.3804 17.6837C12.2621 18.0097 12.5036 18.3543 12.8504 18.3543H14.1968C14.4166 18.3543 14.6105 18.2108 14.6749 18.0007L15.1321 16.5084H18.0905L18.5493 18.0011C18.6138 18.211 18.8076 18.3543 19.0272 18.3543H20.374C20.7208 18.3543 20.9623 18.0097 20.844 17.6837L18.1479 10.2545C18.0762 10.0567 17.8883 9.92503 17.6779 9.92503H15.5465C15.3361 9.92503 15.1482 10.0567 15.0764 10.2545L12.3804 17.6837ZM16.6311 11.7593H16.587L15.6063 14.9604H17.6148L16.6311 11.7593Z" fill="#8DBB00"/>
</svg>