<svg width="24" height="24" viewBox="0 0 24 24" fill="none" xmlns="http://www.w3.org/2000/svg">
<path fill-rule="evenodd" clip-rule="evenodd" d="M9.00173 16.9492C9.8759 17.4851 10.9042 17.794 12.0047 17.794C15.1826 17.794 17.7589 15.2178 17.7589 12.0399C17.7589 10.9394 17.4499 9.91106 16.9141 9.03688L9.00173 16.9492H9.00173ZM7.09527 15.0433L15.0076 7.13091C14.1335 6.59506 13.1051 6.28613 12.0047 6.28613C8.82672 6.28613 6.25049 8.86237 6.25049 12.0403C6.25049 13.1408 6.55941 14.1691 7.09527 15.0433ZM12.0047 20.0553C7.57789 20.0553 3.98926 16.4667 3.98926 12.0399C3.98926 7.61305 7.57789 4.02441 12.0047 4.02441C16.4315 4.02441 20.0201 7.61305 20.0201 12.0399C20.0201 16.4667 16.4315 20.0553 12.0047 20.0553Z" fill="#525C69"/>
</svg>
