<svg width="24" height="24" viewBox="0 0 24 24" fill="none" xmlns="http://www.w3.org/2000/svg">
<path d="M13.7498 14.3345L18.1177 18.7024L19.5451 17.275L7.16318 4.89306L5.73578 6.32046L10.1647 10.7493L8.44416 12.0614L7.63892 11.2561C7.19275 10.8343 6.46992 10.8654 6.00884 11.3262C5.54776 11.7869 5.51619 12.5098 5.93764 12.9563L7.86531 14.8827L4.10505 20.0079C4.02064 20.0831 3.98213 20.1964 4.00506 20.3022C4.02798 20.408 4.10856 20.4888 4.21428 20.5121C4.32 20.5353 4.43342 20.4971 4.50878 20.4129L9.57644 16.5963L11.5433 18.5595C11.991 18.9725 12.7069 18.9376 13.1642 18.4803C13.6215 18.023 13.6565 17.3071 13.2434 16.8594L12.4382 16.0542L13.7498 14.3345Z" fill="#525C69"/>
<path d="M17.6853 9.17474L15.8764 11.5464L12.953 8.62297L15.3248 6.81425L14.5057 5.99521C14.0843 5.54872 14.1158 4.82588 14.5769 4.36511C15.038 3.90434 15.7608 3.87328 16.207 4.29508L20.2137 8.29933C20.6559 8.7425 20.6329 9.48235 20.1625 9.95185C19.692 10.4213 18.9522 10.4427 18.5101 9.99953L17.6853 9.17474Z" fill="#525C69"/>
</svg>
