<svg width="24" height="24" viewBox="0 0 24 24" fill="none" xmlns="http://www.w3.org/2000/svg">
<path d="M20 6.4C20 6.17909 19.8209 6 19.6 6H4.4C4.17909 6 4 6.17909 4 6.4V7.6C4 7.82091 4.17909 8 4.4 8H19.6C19.8209 8 20 7.82091 20 7.6V6.4Z" fill="#95C500"/>
<path d="M14 16.4C14 16.1791 13.8209 16 13.6 16H4.4C4.17909 16 4 16.1791 4 16.4V17.6C4 17.8209 4.17909 18 4.4 18H13.6C13.8209 18 14 17.8209 14 17.6V16.4Z" fill="#95C500"/>
<path d="M4 11.4C4 11.1791 4.17909 11 4.4 11H13.6C13.8209 11 14 11.1791 14 11.4V12.6C14 12.8209 13.8209 13 13.6 13H4.4C4.17909 13 4 12.8209 4 12.6V11.4Z" fill="#95C500"/>
<path d="M19.8586 16.4342C19.9367 16.3561 19.9367 16.2295 19.8586 16.1514L17.8485 14.1413C17.7704 14.0632 17.7704 13.9366 17.8485 13.8585L19.8586 11.8485C19.9367 11.7703 19.9367 11.6437 19.8586 11.5656L18.7272 10.4342C18.6491 10.3561 18.5225 10.3561 18.4444 10.4342L15.0201 13.8585C14.942 13.9366 14.942 14.0632 15.0201 14.1413L18.4444 17.5656C18.5225 17.6437 18.6491 17.6437 18.7272 17.5656L19.8586 16.4342Z" fill="#95C500"/>
</svg>
