<svg width="24" height="24" viewBox="0 0 24 24" fill="none" xmlns="http://www.w3.org/2000/svg">
<path fill-rule="evenodd" clip-rule="evenodd" d="M6.06445 4.96582C4.95988 4.96582 4.06445 5.86125 4.06445 6.96582V11.9658C4.06445 13.0704 4.95988 13.9658 6.06445 13.9658H6.08763V15.5173C6.08763 16.0518 6.73392 16.3195 7.1119 15.9416L9.00293 14.0505V11.4785C9.00293 10.0978 10.1222 8.97852 11.5029 8.97852H16.0645V6.96582C16.0645 5.86125 15.169 4.96582 14.0645 4.96582H6.06445ZM10.175 11.7188C10.175 10.8903 10.8466 10.2188 11.675 10.2188H17.6324C18.4608 10.2188 19.1324 10.8903 19.1324 11.7188V16.4474C19.1324 17.2758 18.4608 17.9474 17.6324 17.9474H11.675C10.8466 17.9474 10.175 17.2758 10.175 16.4474V11.7188ZM19.9053 12.435L22.9967 10.9912V17.1741L19.9053 15.9035V12.435Z" fill="#525C69"/>
</svg>
