<svg width="24" height="24" viewBox="0 0 24 24" fill="none" xmlns="http://www.w3.org/2000/svg">
<path fill-rule="evenodd" clip-rule="evenodd" d="M10.3083 18.7311C7.63226 18.8378 5.15983 17.3077 4.06141 14.8651C2.96299 12.4225 3.45898 9.55749 5.3146 7.6263C7.17022 5.69512 10.0131 5.08522 12.4976 6.08531C14.9821 7.08541 16.6096 9.49483 16.6098 12.173C16.6788 15.7234 13.8586 18.6584 10.3083 18.7311ZM10.0356 8.03613C9.53856 8.03613 9.13562 8.43908 9.13562 8.93613V12.767C9.13562 13.264 9.53856 13.6674 10.0356 13.6674H12.8393C13.3363 13.6674 13.7393 13.2644 13.7393 12.7674V12.5533C13.7393 12.0563 13.3363 11.6533 12.8393 11.6533L11.1497 11.6533V8.93613C11.1497 8.43908 10.7467 8.03613 10.2497 8.03613H10.0356Z" fill="#95C500"/>
<path d="M20.7375 17.2328H16.6787C17.1036 16.6525 17.4535 16.0143 17.7145 15.3328H20.7375C21.0689 15.3328 21.3375 15.6014 21.3375 15.9328V16.6328C21.3375 16.9642 21.0689 17.2328 20.7375 17.2328Z" fill="#95C500"/>
<path d="M20.7375 13.2328H18.2107C18.2424 12.9132 18.2556 12.5882 18.2492 12.2592C18.2492 11.9471 18.2317 11.6379 18.1976 11.3328H20.7375C21.0689 11.3328 21.3375 11.6014 21.3375 11.9328V12.6328C21.3375 12.9642 21.0689 13.2328 20.7375 13.2328Z" fill="#95C500"/>
<path d="M20.7375 9.23278L17.6795 9.23278C17.4146 8.5549 17.0624 7.91624 16.6337 7.33278H20.7375C21.0689 7.33278 21.3375 7.60141 21.3375 7.93278V8.63278C21.3375 8.96415 21.0689 9.23278 20.7375 9.23278Z" fill="#95C500"/>
</svg>
