<svg width="24" height="24" viewBox="0 0 24 24" fill="none" xmlns="http://www.w3.org/2000/svg">
<path d="M15.1233 13.8833H13.9611V12.2371C13.9762 12.0024 13.8595 11.7787 13.6584 11.6568C13.4573 11.5349 13.205 11.5349 13.0039 11.6568C12.8027 11.7787 12.6861 12.0024 12.7012 12.2371V14.538C12.6942 14.8934 12.9766 15.1873 13.332 15.1944H15.125C15.471 15.1722 15.7401 14.8848 15.7397 14.5381C15.7392 14.1913 15.4694 13.9047 15.1233 13.8833Z" fill="#95C500"/>
<path fill-rule="evenodd" clip-rule="evenodd" d="M7.9978 4.06348C6.89323 4.06348 5.9978 4.95891 5.9978 6.06348V17.9248C5.9978 19.0294 6.89323 19.9248 7.9978 19.9248H17C18.1046 19.9248 19 19.0294 19 17.9248V9.34343C19 8.69728 18.7498 8.07621 18.3019 7.61048L15.6283 4.83053C15.157 4.34044 14.5064 4.06348 13.8264 4.06348L7.9978 4.06348ZM13.7309 17.6984C12.2096 17.759 10.8041 16.8892 10.1797 15.5006C9.55522 14.112 9.83719 12.4833 10.8921 11.3855C11.947 10.2876 13.5631 9.94091 14.9755 10.5094C16.3879 11.078 17.3131 12.4477 17.3132 13.9702C17.3524 15.9885 15.7492 17.6571 13.7309 17.6984Z" fill="#95C500"/>
</svg>
