<svg width="24" height="24" viewBox="0 0 24 24" fill="none" xmlns="http://www.w3.org/2000/svg">
<path fill-rule="evenodd" clip-rule="evenodd" d="M20.0157 15.9123L13.1366 4.45464C12.6065 3.57502 11.3435 3.57502 10.8247 4.45464L3.94561 15.9123C3.4043 16.8145 4.05838 17.9535 5.10716 17.9535H18.8654C19.9029 17.9535 20.557 16.8145 20.0157 15.9123ZM10.9939 8.44678C10.9939 7.93931 11.3999 7.53333 11.9073 7.53333H12.0314C12.5389 7.53333 12.9448 7.93931 12.9448 8.44678V11.8638C12.9448 12.3713 12.5389 12.7772 12.0314 12.7772H11.9073C11.3999 12.7772 10.9939 12.3713 10.9939 11.8638V8.44678ZM13.1253 15.0778C13.1253 15.7093 12.6065 16.2281 11.975 16.2281C11.3435 16.2281 10.8247 15.7093 10.8247 15.0778C10.8247 14.4463 11.3435 13.9275 11.975 13.9275C12.6065 13.9275 13.1253 14.4463 13.1253 15.0778Z" fill="#525C69"/>
</svg>
