<svg width="24" height="24" viewBox="0 0 24 24" fill="none" xmlns="http://www.w3.org/2000/svg">
<path fill-rule="evenodd" clip-rule="evenodd" d="M12 19.9999C16.4182 19.9999 19.9999 16.4182 19.9999 12C19.9999 7.58171 16.4182 4 12 4C7.58171 4 4 7.58171 4 12C4 16.4182 7.58171 19.9999 12 19.9999ZM12.677 7.41703L16.7834 14.2566C17.1065 14.7952 16.7161 15.4751 16.0967 15.4751H7.88387C7.2578 15.4751 6.86735 14.7952 7.19048 14.2566L11.2969 7.41703C11.6066 6.89194 12.3606 6.89194 12.677 7.41703ZM11.9433 9.25483C11.6404 9.25483 11.398 9.49718 11.398 9.80011V11.8399C11.398 12.1428 11.6404 12.3851 11.9433 12.3851H12.0173C12.3203 12.3851 12.5626 12.1428 12.5626 11.8399V9.80011C12.5626 9.49718 12.3203 9.25483 12.0173 9.25483H11.9433ZM11.9837 14.4451C12.3606 14.4451 12.6703 14.1354 12.6703 13.7584C12.6703 13.3815 12.3606 13.0718 11.9837 13.0718C11.6067 13.0718 11.297 13.3815 11.297 13.7584C11.297 14.1354 11.6067 14.4451 11.9837 14.4451Z" fill="#525C69"/>
</svg>
