<svg width="24" height="24" viewBox="0 0 24 24" fill="none" xmlns="http://www.w3.org/2000/svg">
	<path d="M12 13.4329C11.2501 13.4329 10.6347 12.8569 10.572 12.1232L8.93024 10.6148C8.72701 10.4281 8.69143 10.1206 8.84665 9.89242C9.00126 9.66513 9.29873 9.58488 9.54667 9.70357L11.5207 10.6485C11.6706 10.5953 11.8319 10.5664 12 10.5664C12.1039 10.5664 12.2051 10.5775 12.3027 10.5984L15.355 8.76581C15.5837 8.62845 15.8792 8.68516 16.0409 8.89745C16.2021 9.10913 16.1788 9.40804 15.9869 9.59226L13.4326 12.0436C13.4093 12.8148 12.7769 13.4329 12 13.4329Z" fill="#8DBB00"/>
	<path d="M12.6524 6.88896C12.6524 7.26342 12.3488 7.56698 11.9743 7.56698C11.5999 7.56698 11.2963 7.26342 11.2963 6.88896C11.2963 6.5145 11.5999 6.21094 11.9743 6.21094C12.3488 6.21094 12.6524 6.5145 12.6524 6.88896Z" fill="#8DBB00"/>
	<path d="M12.6524 17.1089C12.6524 17.4834 12.3488 17.787 11.9743 17.787C11.5999 17.787 11.2963 17.4834 11.2963 17.1089C11.2963 16.7345 11.5999 16.4309 11.9743 16.4309C12.3488 16.4309 12.6524 16.7345 12.6524 17.1089Z" fill="#8DBB00"/>
	<path d="M6.952 12.6646C7.32646 12.6646 7.63002 12.3611 7.63002 11.9866C7.63002 11.6122 7.32646 11.3086 6.952 11.3086C6.57754 11.3086 6.27398 11.6122 6.27398 11.9866C6.27398 12.3611 6.57754 12.6646 6.952 12.6646Z" fill="#8DBB00"/>
	<path d="M17.8611 11.9866C17.8611 12.3611 17.5575 12.6646 17.1831 12.6646C16.8086 12.6646 16.5051 12.3611 16.5051 11.9866C16.5051 11.6122 16.8086 11.3086 17.1831 11.3086C17.5575 11.3086 17.8611 11.6122 17.8611 11.9866Z" fill="#8DBB00"/>
	<path fill-rule="evenodd" clip-rule="evenodd" d="M12 20C7.58172 20 4 16.4183 4 12C4 7.58172 7.58172 4 12 4C16.4183 4 20 7.58172 20 12C20 16.4183 16.4183 20 12 20ZM12 18.2137C15.4317 18.2137 18.2137 15.4317 18.2137 12C18.2137 8.56827 15.4317 5.78631 12 5.78631C8.56827 5.78631 5.78631 8.56827 5.78631 12C5.78631 15.4317 8.56827 18.2137 12 18.2137Z" fill="#8DBB00"/>
	<path fill-rule="evenodd" clip-rule="evenodd" d="M12 18.2137C15.4317 18.2137 18.2137 15.4317 18.2137 12C18.2137 8.56827 15.4317 5.78631 12 5.78631C8.56827 5.78631 5.78631 8.56827 5.78631 12C5.78631 15.4317 8.56827 18.2137 12 18.2137ZM12 20C7.58172 20 4 16.4183 4 12C4 7.58172 7.58172 4 12 4C16.4183 4 20 7.58172 20 12C20 16.4183 16.4183 20 12 20ZM12 13.4329C11.2501 13.4329 10.6347 12.8569 10.572 12.1232L8.93024 10.6148C8.72701 10.4281 8.69143 10.1206 8.84665 9.89242C9.00126 9.66513 9.29873 9.58488 9.54667 9.70357L11.5207 10.6485C11.6706 10.5953 11.8319 10.5664 12 10.5664C12.1039 10.5664 12.2051 10.5775 12.3027 10.5984L15.355 8.76581C15.5837 8.62845 15.8792 8.68516 16.0409 8.89745C16.2021 9.10913 16.1788 9.40804 15.9869 9.59226L13.4326 12.0436C13.4093 12.8148 12.7769 13.4329 12 13.4329ZM12.6524 6.88896C12.6524 7.26342 12.3488 7.56698 11.9743 7.56698C11.5999 7.56698 11.2963 7.26342 11.2963 6.88896C11.2963 6.5145 11.5999 6.21094 11.9743 6.21094C12.3488 6.21094 12.6524 6.5145 12.6524 6.88896ZM12.6524 17.1089C12.6524 17.4834 12.3488 17.787 11.9743 17.787C11.5999 17.787 11.2963 17.4834 11.2963 17.1089C11.2963 16.7345 11.5999 16.4309 11.9743 16.4309C12.3488 16.4309 12.6524 16.7345 12.6524 17.1089ZM6.952 12.6646C7.32646 12.6646 7.63002 12.3611 7.63002 11.9866C7.63002 11.6122 7.32646 11.3086 6.952 11.3086C6.57754 11.3086 6.27398 11.6122 6.27398 11.9866C6.27398 12.3611 6.57754 12.6646 6.952 12.6646ZM17.8611 11.9866C17.8611 12.3611 17.5575 12.6646 17.1831 12.6646C16.8086 12.6646 16.5051 12.3611 16.5051 11.9866C16.5051 11.6122 16.8086 11.3086 17.1831 11.3086C17.5575 11.3086 17.8611 11.6122 17.8611 11.9866Z" fill="#8DBB00"/>
</svg>