<svg width="24" height="24" viewBox="0 0 24 24" fill="none" xmlns="http://www.w3.org/2000/svg">
<path d="M11.9432 16.7748C9.38912 16.7748 7.30339 14.7694 7.17473 12.2473C7.61344 12.6817 8.13806 12.9137 8.74858 12.9434C9.67032 12.9881 10.5542 12.3883 11.4465 11.7827C12.3232 11.1877 13.2082 10.5871 14.1452 10.5871C15.137 10.5871 15.9868 10.8992 16.6945 11.5233C16.7101 11.6801 16.718 11.8391 16.718 12C16.718 14.6371 14.5803 16.7748 11.9432 16.7748Z" fill="#525C69"/>
<path fill-rule="evenodd" clip-rule="evenodd" d="M12 20C16.4183 20 20 16.4183 20 12C20 7.58172 16.4183 4 12 4C7.58172 4 4 7.58172 4 12C4 16.4183 7.58172 20 12 20ZM11.9998 18.0995C15.3685 18.0995 18.0993 15.3687 18.0993 12C18.0993 8.63137 15.3685 5.90055 11.9998 5.90055C8.6312 5.90055 5.90037 8.63137 5.90037 12C5.90037 15.3687 8.6312 18.0995 11.9998 18.0995Z" fill="#525C69"/>
</svg>
