<svg width="24" height="24" viewBox="0 0 24 24" fill="none" xmlns="http://www.w3.org/2000/svg">
<path fill-rule="evenodd" clip-rule="evenodd" d="M17.3971 7.13747V9.78207L19.5346 7.64454V6.28246C19.5346 5.57418 18.9604 5 18.2521 5H6.28246C5.57418 5 5 5.57418 5 6.28246V18.2521C5 18.9604 5.57418 19.5346 6.28246 19.5346H7.64454L9.78196 17.3972H9.70229V14.6185H7.13736V7.13747H17.3971ZM10.2639 10.5258L11.4609 11.7655L14.4533 8.73035L15.5024 9.81868L11.4609 13.8602L9.32348 11.7228L10.2639 10.5258ZM19.4666 18.5109L21.5192 16.459C22.6522 15.3257 22.6522 13.4881 21.5192 12.3548C20.3856 11.2215 18.5483 11.2215 17.4147 12.3548L15.8599 13.9097C16.4809 13.8186 17.1188 13.8806 17.711 14.1112L18.4406 13.3807C19.0068 12.815 19.9271 12.815 20.4926 13.3807C21.0588 13.9464 21.0588 14.8668 20.4926 15.433L18.4406 17.4849C17.8752 18.0503 16.9546 18.0511 16.3888 17.4849C16.2117 17.3077 16.0966 17.0944 16.0306 16.8692C16.0204 16.8751 16.01 16.8808 15.9996 16.8866C15.956 16.9108 15.9124 16.935 15.8758 16.9719L14.9221 17.9256C15.0447 18.1324 15.1843 18.3329 15.3628 18.5109C16.4959 19.6444 18.3337 19.6444 19.4666 18.5109ZM15.3628 20.5635L16.093 19.833C16.6846 20.0632 17.3227 20.1257 17.9441 20.0341L16.3888 21.5893C15.2555 22.7223 13.418 22.7223 12.2846 21.5893C11.1514 20.4557 11.1514 18.6187 12.2846 17.485L14.3365 15.433C15.4698 14.2997 17.3078 14.2997 18.4406 15.433C18.6191 15.6112 18.7595 15.811 18.8813 16.0186L17.9277 16.9719C17.8917 17.0079 17.8496 17.0313 17.8068 17.055C17.7956 17.0612 17.7844 17.0675 17.7732 17.074C17.7067 16.849 17.5915 16.6358 17.4147 16.459C16.849 15.8929 15.929 15.8929 15.3628 16.459L13.3106 18.5109C12.7448 19.0769 12.7448 19.9973 13.3106 20.5635C13.8764 21.1289 14.7971 21.1289 15.3628 20.5635Z" fill="#525C69"/>
</svg>
