<svg width="24" height="24" viewBox="0 0 24 24" fill="none" xmlns="http://www.w3.org/2000/svg">
<path fill-rule="evenodd" clip-rule="evenodd" d="M17.9379 9.2865C19.6869 9.2865 21.1046 7.86872 21.1046 6.11981C21.1046 4.3709 19.6869 2.95312 17.9379 2.95312C16.189 2.95312 14.7713 4.3709 14.7713 6.11981C14.7713 7.86872 16.189 9.2865 17.9379 9.2865ZM19 17.7554V10.6387C18.6589 10.7186 18.3034 10.7608 17.938 10.7608C17.5952 10.7608 17.2611 10.7236 16.9395 10.6531V14.2526H14.4669V16.9312H9.52178V14.2526H7.04921V7.04094H13.3883C13.3283 6.74317 13.2969 6.43509 13.2969 6.11966C13.2969 5.7266 13.3457 5.34496 13.4377 4.98047H6.22505C5.54227 4.98047 4.98877 5.53397 4.98877 6.21675V17.7554C4.98877 18.4382 5.54227 18.9917 6.22505 18.9917H17.7637C18.4465 18.9917 19 18.4382 19 17.7554ZM8.93018 9.4822C8.93018 9.08375 9.25318 8.76074 9.65163 8.76074H13.4079C13.8064 8.76074 14.1294 9.08375 14.1294 9.4822C14.1294 9.88065 13.8064 10.2037 13.4079 10.2037H9.65163C9.25318 10.2037 8.93018 9.88065 8.93018 9.4822ZM9.63303 11.0586C9.26926 11.0586 8.97437 11.3535 8.97437 11.7173C8.97437 12.0811 9.26926 12.376 9.63303 12.376H13.5149C13.8787 12.376 14.1736 12.0811 14.1736 11.7173C14.1736 11.3535 13.8787 11.0586 13.5149 11.0586H9.63303Z" fill="#525C69"/>
</svg>
