<svg width="24" height="24" viewBox="0 0 24 24" fill="none" xmlns="http://www.w3.org/2000/svg">
<path fill-rule="evenodd" clip-rule="evenodd" d="M17.3971 7.13747V11.4258H19.5346V6.28246C19.5346 5.57418 18.9604 5 18.2521 5H6.28246C5.57418 5 5 5.57418 5 6.28246V18.2521C5 18.9604 5.57418 19.5346 6.28246 19.5346H12.2634V17.3972H9.70229V14.6185H7.13736V7.13747H17.3971ZM10.2639 10.5258L11.4609 11.7655L14.4533 8.73035L15.5024 9.81868L11.4609 13.8602L9.32348 11.7228L10.2639 10.5258ZM17.1183 14.1544C17.1183 13.7088 17.6569 13.4858 17.9719 13.8008L20.7648 16.5937C20.9601 16.7889 20.9601 17.1056 20.7648 17.3008L17.9719 20.0937C17.6569 20.4087 17.1183 20.1856 17.1183 19.7401V17.9472H14.4955C14.2194 17.9472 13.9955 17.7234 13.9955 17.4472V16.4472C13.9955 16.1711 14.2194 15.9472 14.4955 15.9472L17.1183 15.9472V14.1544Z" fill="#525C69"/>
</svg>
