<svg width="24" height="24" viewBox="0 0 24 24" fill="none" xmlns="http://www.w3.org/2000/svg">
<path fill-rule="evenodd" clip-rule="evenodd" d="M14.4874 14.2806V16.9684H9.52524V14.2806H7.04417V7.04415H16.9685V14.2806H14.4874ZM17.7956 4.97656H6.21722C5.53209 4.97656 4.97668 5.53197 4.97668 6.2171V17.7954C4.97668 18.4806 5.53209 19.036 6.21722 19.036H17.7956C18.4807 19.036 19.0361 18.4806 19.0361 17.7954V6.2171C19.0361 5.53197 18.4807 4.97656 17.7956 4.97656ZM9.79329 11.0778L8.64597 9.93276L7.74451 11.0383L9.79329 13.0125L13.6672 9.27964L12.6616 8.27441L9.79329 11.0778ZM11.5103 12.1829L12.5091 11.2204L12.791 11.5016L15.6304 8.72641L16.6259 9.72154L12.791 13.4169L11.5103 12.1829Z" fill="#525C69"/>
</svg>
