<svg width="24" height="24" viewBox="0 0 24 24" fill="none" xmlns="http://www.w3.org/2000/svg">
<path fill-rule="evenodd" clip-rule="evenodd" d="M15.7843 16.0002V17.502H8.6026V16.0002H6.96456V7.00764H17.4589V16.0002H15.7843ZM18.3335 4.82129H6.09012C5.36563 4.82129 4.77832 5.4086 4.77832 6.13308V18.3765C4.77832 19.101 5.36563 19.6883 6.09012 19.6883H18.3335C19.058 19.6883 19.6453 19.101 19.6453 18.3765V6.13308C19.6453 5.4086 19.058 4.82129 18.3335 4.82129ZM11.4493 15.1076C11.4497 15.1049 11.45 15.1022 11.45 15.0993H13.3114C13.3114 15.1022 13.3118 15.1049 13.3122 15.1076C13.3125 15.1102 13.3129 15.1127 13.3129 15.1152C13.3129 15.6739 12.8953 16.1272 12.3807 16.1272C11.8662 16.1272 11.4486 15.6739 11.4486 15.1152C11.4486 15.1127 11.449 15.1102 11.4493 15.1076ZM12.8172 8.41195C14.0713 8.64838 14.7028 9.90247 14.7028 10.7865C14.7028 11.3708 14.6997 11.8551 14.6973 12.2462C14.6956 12.5111 14.6942 12.7333 14.6942 12.9149C14.6942 13.3646 15.6524 14.0004 15.6524 14.0004V14.5534H9.06079V14.0004C9.06079 14.0004 10.0199 13.3646 10.0199 12.9149C10.0199 12.7333 10.0184 12.5111 10.0167 12.2462C10.0141 11.8551 10.0109 11.3708 10.0109 10.7865C10.0109 9.9035 10.641 8.65095 11.8927 8.41298V8.38933C11.8927 8.11333 12.1005 7.8877 12.3547 7.8877C12.6089 7.8877 12.8172 8.11333 12.8172 8.38933V8.41195Z" fill="#525C69"/>
</svg>
