<svg width="24" height="24" viewBox="0 0 24 24" fill="none" xmlns="http://www.w3.org/2000/svg">
<path fill-rule="evenodd" clip-rule="evenodd" d="M17.4821 17.4558V6.98475H6.98513V17.4558H17.4821ZM6.11046 4.79785H18.357C19.0816 4.79785 19.6691 5.38531 19.6691 6.10998V18.3565C19.6691 19.0811 19.0816 19.6686 18.357 19.6686H6.11046C5.3858 19.6686 4.79834 19.0811 4.79834 18.3565V6.10998C4.79834 5.38531 5.3858 4.79785 6.11046 4.79785Z" fill="#525C69"/>
<path fill-rule="evenodd" clip-rule="evenodd" d="M8.44673 11.4201L9.45664 12.4015L12.756 9.17676L13.9128 10.3331L9.45664 14.627L7.47923 12.6535L8.44673 11.4201ZM15.8702 9.44922L11.438 13.7201L12.5745 14.8153L16.9858 10.5644L15.8702 9.44922Z" fill="#525C69"/>
</svg>
