<svg width="24" height="24" viewBox="0 0 24 24" fill="none" xmlns="http://www.w3.org/2000/svg">
<path fill-rule="evenodd" clip-rule="evenodd" d="M18.3997 5H5.60028C4.71647 5 4 5.77222 4 6.72479V17.2752C4 18.2278 4.71647 19 5.60028 19H18.3997C19.2835 19 20 18.2278 20 17.2752V6.72479C20 5.77222 19.2835 5 18.3997 5ZM6 17V9H18V17H6ZM8 7C8 7.55228 7.55228 8 7 8C6.44772 8 6 7.55228 6 7C6 6.44772 6.44772 6 7 6C7.55228 6 8 6.44772 8 7ZM11 7C11 7.55228 10.5523 8 10 8C9.44772 8 9 7.55228 9 7C9 6.44772 9.44772 6 10 6C10.5523 6 11 6.44772 11 7ZM8 11.1951C8 11.0874 8.10593 11 8.23661 11H14.7634C14.8941 11 15 11.0874 15 11.1951V12.8049C15 12.9126 14.8941 13 14.7634 13H8.23661C8.10593 13 8 12.9126 8 12.8049V11.1951Z" fill="#525C69"/>
</svg>
