<svg width="24" height="24" viewBox="0 0 24 24" fill="none" xmlns="http://www.w3.org/2000/svg">
<path fill-rule="evenodd" clip-rule="evenodd" d="M15.7843 17.502V16.0002H17.4589V7.00764H6.96456V16.0002H8.6026V17.502H15.7843ZM6.09012 4.82129H18.3335C19.058 4.82129 19.6453 5.4086 19.6453 6.13308V18.3765C19.6453 19.101 19.058 19.6883 18.3335 19.6883H6.09012C5.36563 19.6883 4.77832 19.101 4.77832 18.3765V6.13308C4.77832 5.4086 5.36563 4.82129 6.09012 4.82129Z" fill="#525C69"/>
<path fill-rule="evenodd" clip-rule="evenodd" d="M15.4327 13.4328V8.76562H10.9311L12.4391 10.3292L9.45184 13.4263C8.98822 13.907 8.98822 14.6691 9.45184 15.1498L9.90658 15.6213H12.8775L11.5916 14.2881L13.9246 11.8693L15.4327 13.4328Z" fill="#525C69"/>
</svg>
