<svg width="24" height="24" viewBox="0 0 24 24" fill="none" xmlns="http://www.w3.org/2000/svg">
<path fill-rule="evenodd" clip-rule="evenodd" d="M17.6838 12.2373V6.15468H7.18679V12.2373H5V5.2799C5 4.55523 5.58746 3.96777 6.31212 3.96777H18.5586C19.2833 3.96777 19.8707 4.55523 19.8707 5.2799V12.2373H17.6838ZM11.7167 10.5191L10.6266 9.39008L9.77002 10.4802L11.7167 12.4269L15.3975 8.74608L14.442 7.75488L11.7167 10.5191ZM5 14.1045L18.2015 14.1045L19.87 16.5432L18.2015 18.9819L6 18.9819C5.44771 18.9819 5 18.5342 5 17.9819V14.1045ZM7.40022 15.6973C6.93284 15.6973 6.55396 16.0762 6.55396 16.5435C6.55396 17.0109 6.93284 17.3898 7.40022 17.3898H7.50028C7.96766 17.3898 8.34654 17.0109 8.34654 16.5435C8.34654 16.0762 7.96766 15.6973 7.50028 15.6973H7.40022ZM10.4946 15.6973C10.0272 15.6973 9.64835 16.0762 9.64835 16.5435C9.64835 17.0109 10.0272 17.3898 10.4946 17.3898H15.9121C16.3795 17.3898 16.7584 17.0109 16.7584 16.5435C16.7584 16.0762 16.3795 15.6973 15.9121 15.6973H10.4946Z" fill="#525C69"/>
</svg>
