<svg width="24" height="24" viewBox="0 0 24 24" fill="none" xmlns="http://www.w3.org/2000/svg">
<path fill-rule="evenodd" clip-rule="evenodd" d="M11.3816 5H4V6.64038H13.0221L11.3816 5ZM17.123 7.46056H4V16.4826H10.8976V11.9113C10.8976 10.8067 11.793 9.91126 12.8976 9.91126H17.123V7.46056ZM19.5239 18.3209V20.2875H15.8933V18.3209H14.078V13.0262H21.3392V18.3209H19.5239ZM21.9444 11.5135H13.473C12.9717 11.5135 12.5653 11.9198 12.5653 12.4211V20.8925C12.5653 21.3938 12.9717 21.8002 13.473 21.8002H21.9444C22.4457 21.8002 22.852 21.3938 22.852 20.8925V12.4211C22.852 11.9198 22.4457 11.5135 21.9444 11.5135ZM17.138 16.3017L16.2908 15.4243L15.6252 16.2714L17.138 17.7842L19.9983 14.9238L19.2558 14.1536L17.138 16.3017Z" fill="#525C69"/>
</svg>
