<svg width="13" height="16" viewBox="0 0 13 16" fill="none" xmlns="http://www.w3.org/2000/svg">
	<path fill-rule="evenodd" clip-rule="evenodd" d="M6.99675 2.75915C7.46866 2.75915 7.86422 3.07506 7.9693 3.49997L7.96925 6.95003C7.96925 7.05024 8.05157 7.13187 8.15442 7.13523L8.16102 7.13534H8.2432C8.3469 7.13534 8.43138 7.05579 8.43485 6.9564L8.43496 6.95003L8.43496 4.34359C8.58568 4.01317 8.92761 3.78252 9.32529 3.78252C9.78314 3.78252 10.1671 4.08825 10.2704 4.49997L10.2704 7.92949C10.2704 8.0297 10.3527 8.11133 10.4556 8.11469L10.4622 8.1148H10.5444C10.6481 8.1148 10.7325 8.03525 10.736 7.93586L10.7361 7.92949V6.49997C10.7361 6.05406 11.1102 5.69258 11.5716 5.69258C12.0331 5.69258 12.3177 6.05406 12.3177 6.49997V7.58536C12.3177 7.58536 12.307 9.27706 12.2183 10.0821C12.1295 10.8872 11.803 13.0233 10.5678 14.9002C10.5042 14.9969 10.395 15.0565 10.2769 15.0595L10.2673 15.0597H4.77887C4.66948 15.0597 4.56635 15.0111 4.49895 14.9283L4.49292 14.9207L0.429627 9.63164C0.300003 9.46292 0.328861 9.22581 0.495459 9.09075C0.690828 8.93237 0.89499 8.83795 1.10794 8.80749L1.21758 8.79179C1.62516 8.73428 1.89886 8.71629 2.46646 9.04007C2.87263 9.27176 3.24165 9.68706 3.57353 10.286L3.58611 10.3088V1.22541C3.58611 0.691779 4.03379 0.259186 4.58602 0.259186H4.61341C5.08533 0.259186 5.48088 0.575094 5.58596 1L5.58592 6.52648C5.58592 6.62669 5.66824 6.70832 5.77109 6.71168L5.85987 6.71179C5.96357 6.71179 6.04804 6.63224 6.05152 6.53285L6.05163 6.52648L6.05161 3.34119C6.20536 2.99871 6.5584 2.75915 6.96935 2.75915H6.99675Z" fill="#00ACE3"/>
</svg>
