<?xml version="1.0" encoding="UTF-8"?>
<svg width="104px" height="73px" viewBox="0 0 104 73" version="1.1" xmlns="http://www.w3.org/2000/svg" xmlns:xlink="http://www.w3.org/1999/xlink">
    <title>scrum-icon-project</title>
    <defs>
        <path d="M1475.69879,5257.14946 L1481.6379,5263.08856 L1478.6212,5263.08932 C1477.82586,5266.28621 1476.21257,5269.15977 1474.01641,5271.47494 L1480.82142,5271.47432 L1480.82232,5268.50252 L1486.76142,5274.44162 L1480.82232,5280.38073 L1480.82142,5277.40732 L1460.37971,5277.40824 L1460.38037,5277.34102 L1460.36937,5277.34102 L1460.36937,5277.34102 C1451.2705,5277.34102 1443.68076,5270.87968 1441.93821,5262.29506 L1447.90464,5262.29488 C1449.51828,5267.64984 1454.48835,5271.55007 1460.36937,5271.55007 L1460.37942,5271.54932 L1460.37971,5271.475 L1461.76527,5271.4761 C1466.73909,5270.9458 1470.87562,5267.61398 1472.56634,5263.08915 L1469.75969,5263.08856 L1475.69879,5257.14946 Z M1459,5227.06154 L1459.00027,5232.09061 C1444.67694,5233.47862 1433.48056,5245.55113 1433.48056,5260.23869 C1433.48056,5263.29682 1433.96594,5266.24158 1434.86388,5269.00013 L1387,5269 L1387,5227.06154 L1459,5227.06154 Z M1460.86125,5250.389 C1461.17529,5250.389 1461.44747,5250.59316 1461.54007,5250.8844 L1461.5641,5250.98455 L1461.82865,5252.57442 C1461.83195,5252.59412 1461.84662,5252.60991 1461.86597,5252.61477 C1462.49122,5252.77146 1463.07757,5253.02177 1463.60906,5253.3533 L1463.87017,5253.52578 L1465.2501,5252.6583 C1465.51166,5252.49305 1465.84552,5252.51829 1466.07986,5252.70924 L1466.16274,5252.78856 L1466.8045,5253.51084 C1467.01039,5253.74306 1467.04115,5254.07659 1466.89113,5254.33796 L1466.8264,5254.43225 L1465.81389,5255.68771 C1465.80144,5255.70314 1465.79934,5255.72436 1465.80839,5255.742 C1465.98072,5256.07737 1466.12141,5256.43147 1466.22948,5256.79965 L1466.3044,5257.07836 L1467.91799,5257.34757 C1468.2276,5257.39856 1468.46229,5257.64447 1468.50651,5257.9475 L1468.51404,5258.05043 L1468.51404,5259.01681 C1468.51404,5259.33085 1468.31031,5259.60307 1468.01879,5259.69568 L1467.91853,5259.7197 L1466.33734,5259.98372 C1466.31768,5259.98701 1466.30192,5260.00169 1466.29709,5260.02103 C1466.1501,5260.60864 1465.91779,5261.1609 1465.61458,5261.66662 C1465.60774,5261.67801 1465.60581,5261.69136 1465.60871,5261.7038 L1465.6167,5261.72143 L1466.57088,5263.05929 C1466.75248,5263.31116 1466.74634,5263.64594 1466.56995,5263.89005 L1466.49586,5263.977 L1465.81233,5264.66052 C1465.59316,5264.88015 1465.26164,5264.9297 1464.99238,5264.79556 L1464.89467,5264.73662 L1463.55429,5263.77929 C1463.53809,5263.76772 1463.51667,5263.76691 1463.49956,5263.77711 C1462.99641,5264.07702 1462.44912,5264.3064 1461.86641,5264.45231 C1461.85352,5264.45553 1461.8427,5264.46361 1461.83594,5264.47447 L1461.8291,5264.49258 L1461.5641,5266.08277 C1461.5131,5266.39195 1461.26724,5266.62702 1460.9642,5266.67094 L1460.86125,5266.67834 L1459.89414,5266.67834 C1459.58074,5266.67834 1459.30782,5266.47417 1459.21599,5266.1829 L1459.19227,5266.08275 L1458.92083,5264.46018 L1458.62033,5264.37854 C1458.02547,5264.20101 1457.46838,5263.93843 1456.9664,5263.59919 L1456.93919,5263.59055 L1456.93919,5263.59055 L1456.9117,5263.5982 L1455.53955,5264.46018 C1455.27797,5264.625 1454.94394,5264.6005 1454.70955,5264.40939 L1454.62666,5264.32996 L1453.9854,5263.60766 C1453.7795,5263.37565 1453.74936,5263.04194 1453.89898,5262.78071 L1453.96352,5262.68648 L1454.97103,5261.43864 C1454.98364,5261.42301 1454.98562,5261.40147 1454.97624,5261.38373 C1454.75111,5260.95847 1454.57985,5260.50163 1454.45962,5260.02404 C1454.45638,5260.01115 1454.4483,5260.00035 1454.43745,5259.9936 L1454.41935,5259.98678 L1452.82021,5259.71975 C1452.51153,5259.66878 1452.27611,5259.42285 1452.23211,5259.1198 L1452.2247,5259.01686 L1452.2247,5258.05048 C1452.2247,5257.73642 1452.42925,5257.4642 1452.72019,5257.37161 L1452.82021,5257.34759 L1454.4194,5257.08054 C1454.43903,5257.07727 1454.45476,5257.06267 1454.45965,5257.04335 C1454.60745,5256.45837 1454.83853,5255.90718 1455.14084,5255.40316 C1455.14768,5255.39175 1455.14961,5255.37839 1455.1467,5255.36594 L1455.13871,5255.34831 L1454.21906,5254.06014 C1454.03896,5253.80873 1454.04391,5253.47383 1454.22023,5253.22916 L1454.29435,5253.14197 L1454.97758,5252.45824 C1455.19698,5252.2393 1455.52831,5252.19001 1455.79787,5252.32368 L1455.89572,5252.3824 L1457.18131,5253.29991 C1457.19758,5253.31152 1457.21908,5253.31228 1457.2362,5253.30199 C1457.74414,5252.9967 1458.29863,5252.7632 1458.88897,5252.61525 C1458.90184,5252.61202 1458.91265,5252.60395 1458.91939,5252.59311 L1458.92623,5252.57502 L1459.19225,5250.98455 C1459.2421,5250.67539 1459.48869,5250.44032 1459.79136,5250.3964 L1459.89414,5250.389 L1460.86125,5250.389 Z M1459.66529,5255.40018 C1458.56978,5255.63332 1457.46893,5256.73426 1457.23582,5257.82976 C1456.74291,5260.14651 1458.75589,5262.16008 1461.07314,5261.66726 C1462.28855,5261.40879 1463.24438,5260.45297 1463.50293,5259.23755 C1463.99586,5256.92019 1461.98209,5254.90706 1459.66529,5255.40018 Z M1460.36937,5239.72632 C1469.46809,5239.72632 1477.05774,5246.18746 1478.80044,5254.77188 L1472.83387,5254.77173 C1471.22,5249.41714 1466.25012,5245.51727 1460.36937,5245.51727 C1454.95885,5245.51727 1450.31935,5248.8184 1448.35513,5253.51641 L1451.20063,5253.51665 L1445.26153,5259.45575 L1439.32242,5253.51665 L1442.23852,5253.51691 C1444.43382,5245.56544 1451.7197,5239.72632 1460.36937,5239.72632 Z M1416.83864,5211 L1423.346,5216.353 L1459,5216.35385 L1459,5221.70769 L1387,5221.70769 L1387,5211 L1416.83864,5211 Z" id="path-1"></path>
        <filter x="-3.5%" y="-3.6%" width="107.0%" height="110.1%" filterUnits="objectBoundingBox" id="filter-2">
            <feOffset dx="0" dy="1" in="SourceAlpha" result="shadowOffsetOuter1"></feOffset>
            <feGaussianBlur stdDeviation="1" in="shadowOffsetOuter1" result="shadowBlurOuter1"></feGaussianBlur>
            <feColorMatrix values="0 0 0 0 0   0 0 0 0 0   0 0 0 0 0  0 0 0 0.0816066576 0" type="matrix" in="shadowBlurOuter1"></feColorMatrix>
        </filter>
    </defs>
    <g id="Page-1" stroke="none" stroke-width="1" fill="none" fill-rule="evenodd">
        <g id="scrum-icon-project" transform="translate(-1385.000000, -5210.000000)">
            <use fill="black" fill-opacity="1" filter="url(#filter-2)" xlink:href="#path-1"></use>
            <use fill="#FFFFFF" fill-rule="evenodd" xlink:href="#path-1"></use>
        </g>
    </g>
</svg>