<svg width="64" height="64" viewBox="0 0 64 64" fill="none" xmlns="http://www.w3.org/2000/svg">
<circle opacity="0.19" cx="32" cy="32" r="32" fill="#2FC6F6"/>
<path fill-rule="evenodd" clip-rule="evenodd" d="M31.6152 17.0662C32.1287 17.0662 32.6211 17.2701 32.9841 17.6331L36.0285 20.6773H16.1675V19.0022C16.1675 17.9329 17.0343 17.0662 18.1035 17.0662H31.6152ZM43.1202 22.4828C44.1895 22.4828 45.0562 23.3496 45.0562 24.4188V25.607C43.7452 25.1237 42.3298 24.8601 40.8536 24.8601C34.0749 24.8601 28.5799 30.418 28.5799 37.2744C28.5799 39.0802 28.9611 40.796 29.6465 42.3438H18.1035C17.0343 42.3438 16.1675 41.477 16.1675 40.4078V22.4828H43.1202Z" fill="#00AAE4"/>
<path fill-rule="evenodd" clip-rule="evenodd" d="M31.4571 37.2743C31.4571 42.5234 35.664 46.7784 40.8536 46.7784C46.0432 46.7784 50.25 42.5234 50.25 37.2743C50.25 32.0253 46.0432 27.7703 40.8536 27.7703C35.664 27.7703 31.4571 32.0253 31.4571 37.2743ZM34.6528 37.2744C34.6528 40.7382 37.4289 43.5461 40.8536 43.5461C44.2782 43.5461 47.0543 40.7382 47.0543 37.2744C47.0543 33.8105 44.2782 31.0026 40.8536 31.0026C37.4289 31.0026 34.6528 33.8105 34.6528 37.2744Z" fill="#00AAE4"/>
<rect x="45.7857" y="30.0325" width="3.26637" height="17.2167" rx="1" transform="rotate(45 45.7857 30.0325)" fill="#00AAE4"/>
</svg>
