<svg width="64" height="64" viewBox="0 0 64 64" fill="none" xmlns="http://www.w3.org/2000/svg">
<circle opacity="0.19" cx="32" cy="32" r="32" fill="#2FC6F6"/>
<path fill-rule="evenodd" clip-rule="evenodd" d="M32.9523 17.0985C33.4658 17.0985 33.9582 17.3025 34.3212 17.6655L37.6265 20.9705H16.3306V19.0345C16.3306 17.9653 17.1973 17.0985 18.2666 17.0985H32.9523ZM45.3705 22.9065C46.4397 22.9065 47.3065 23.7733 47.3065 24.8425V29.1617C44.3643 26.4679 40.1405 25.1028 35.6322 26.0436C31.2119 26.9658 26.7701 31.3208 25.8295 35.6543C25.157 38.7531 25.6406 41.7148 26.9367 44.2025H18.2666C17.1973 44.2025 16.3306 43.3357 16.3306 42.2665V22.9065H45.3705ZM39.2947 34.1245C39.4657 34.1463 39.6001 34.2742 39.6307 34.4361L39.637 34.4912L39.6583 35.0057C40.1909 35.1825 40.6691 35.4751 41.0617 35.853L41.5305 35.6404C41.6842 35.5703 41.8643 35.6069 41.9789 35.7251L42.0187 35.7732L42.3191 36.2033C42.4154 36.3416 42.4095 36.5218 42.31 36.6509L42.2684 36.6968L41.8893 37.0541C42.0374 37.4047 42.1309 37.783 42.1596 38.1789L42.6647 38.329C42.8298 38.3776 42.9409 38.5252 42.9444 38.6901L42.9415 38.7455L42.8758 39.2615C42.8545 39.4292 42.725 39.5604 42.5599 39.5896L42.5037 39.5955L41.9772 39.6142C41.8263 40.0594 41.5886 40.4655 41.2836 40.8132L41.5428 41.285C41.6246 41.4321 41.5985 41.6104 41.4858 41.7285L41.4396 41.7698L41.0209 42.0873C40.8866 42.1894 40.7027 42.1928 40.5652 42.1026L40.516 42.0643L40.1131 41.6983C39.8525 41.8226 39.5744 41.9173 39.2834 41.9779C39.1081 42.0145 38.9343 42.0388 38.7627 42.0517L38.6107 42.5521C38.5619 42.7136 38.412 42.8221 38.244 42.8245L38.1874 42.8213L37.6608 42.7543C37.4901 42.7325 37.3553 42.6046 37.3251 42.4427L37.319 42.3876L37.2973 41.8754C36.7742 41.7034 36.3032 41.4198 35.9139 41.0535L35.4401 41.2681C35.2865 41.3379 35.1062 41.3017 34.9916 41.1834L34.9518 41.1353L34.6517 40.7052C34.5553 40.567 34.5616 40.3868 34.6608 40.2577L34.7024 40.2118L35.073 39.863C34.915 39.5013 34.8154 39.1094 34.7857 38.6985L34.2814 38.5487C34.1168 38.5 34.0053 38.3524 34.0019 38.1876L34.0049 38.1321L34.0706 37.6161C34.0919 37.4485 34.2218 37.3173 34.3866 37.2881L34.4427 37.2822L34.9761 37.2631C35.1296 36.8563 35.3815 36.46 35.6951 36.1099L35.4279 35.624C35.3469 35.4773 35.3724 35.2988 35.4851 35.1804L35.5313 35.139L35.9499 34.8213C36.0843 34.7197 36.268 34.7163 36.4058 34.8064L36.4551 34.8445L36.8473 35.2006C37.1121 35.0607 37.387 34.9571 37.6615 34.8998C37.8407 34.8624 38.0183 34.8378 38.1935 34.8251L38.3453 34.3268C38.3935 34.1652 38.5437 34.0568 38.7115 34.0543L38.768 34.0575L39.2947 34.1245ZM46.4276 37.7987L49.4815 40.7927L47.9303 40.7931C47.5213 42.4047 46.6918 43.8533 45.5625 45.0204L48.2252 45.0201L48.2257 43.522L51.2796 46.5159L48.2257 49.5099L48.2252 48.011L38.5504 48.0115L38.5508 47.9776H38.5451C33.8664 47.9776 29.9637 44.7203 29.0677 40.3927L32.1357 40.3926C32.9654 43.0921 35.5211 45.0583 38.5451 45.0583L38.5503 45.0579L38.5504 45.0204L39.2629 45.021C41.8205 44.7536 43.9475 43.074 44.8169 40.793L43.3737 40.7927L46.4276 37.7987ZM38.5456 29.0154C43.2242 29.0154 47.1268 32.2725 48.0229 36.6L44.9549 36.6C44.125 33.9006 41.5695 31.9347 38.5456 31.9347C35.7635 31.9347 33.3778 33.5988 32.3678 35.9671L33.831 35.9673L30.7771 38.9612L27.7231 35.9673L29.2226 35.9674C30.3514 31.9589 34.0979 29.0154 38.5456 29.0154ZM37.9828 40.5755C37.2209 40.4165 36.4552 39.6658 36.2931 38.9188C35.9502 37.339 37.3503 35.966 38.962 36.3021C39.8074 36.4783 40.4722 37.1301 40.652 37.9588C40.9949 39.539 39.5942 40.9117 37.9828 40.5755Z" fill="#00AAE4"/>
</svg>
