<svg width="64" height="64" viewBox="0 0 64 64" fill="none" xmlns="http://www.w3.org/2000/svg">
<circle opacity="0.09" cx="32" cy="32" r="32" fill="#2FC6F6"/>
<path d="M38.2432 36.5711C38.2432 36.5711 39.5406 41.4581 40.0805 44.407C36.5676 45.5521 32.5013 46.2064 28.1676 46.2064C22.7755 46.2064 17.7974 45.1935 13.7842 43.4826C14.2046 41.3132 14.7676 38.4737 15.0307 37.4343C15.479 35.6628 17.9912 34.3464 20.3019 33.3346C20.9059 33.0703 21.2703 32.8592 21.6386 32.6459C21.9992 32.437 22.3636 32.226 22.9604 31.9606C23.0278 31.6349 23.0548 31.3022 23.041 30.9699L24.0649 30.8461C24.0649 30.8461 24.1995 31.095 23.983 29.6312C23.983 29.6312 22.8339 29.3247 22.7806 26.9941C22.7806 26.9941 21.9173 27.287 21.8652 25.8746C21.8547 25.5921 21.7833 25.3207 21.7149 25.0608C21.5512 24.4383 21.4049 23.8818 22.153 23.3978L21.6128 21.9341C21.6128 21.9341 21.046 16.2722 23.5353 16.7328C22.5257 15.1062 31.0427 13.7527 31.6083 18.7396C31.8309 20.2429 31.8309 21.7707 31.6083 23.274C31.6083 23.274 32.8808 23.1254 32.0312 25.5873C32.0312 25.5873 31.5636 27.3569 30.8455 26.9576C30.8455 26.9576 30.9621 29.1972 29.831 29.5767C29.831 29.5767 29.9116 30.7693 29.9116 30.8504L30.8573 30.9972C30.8573 30.9972 30.8312 31.9916 31.0173 32.0993C31.8793 32.6661 32.8243 33.0958 33.8185 33.373C36.7548 34.1309 38.2432 35.4318 38.2432 36.5711Z" fill="#38C3F3"/>
<path d="M51.2944 37.687C51.3355 38.5054 51.387 39.5283 51.4312 40.4202C48.7751 41.3117 45.6577 42.0224 42.225 42.499H41.3072C41.2521 41.7218 40.548 39.0299 40.1395 37.4679C39.9775 36.8487 39.8619 36.4068 39.8517 36.3325C39.799 34.8613 38.5048 33.5474 36.2921 32.6495C36.4595 32.4233 36.6029 32.1803 36.72 31.9245C37.0303 31.5394 37.4349 31.2408 37.8946 31.0576L37.9299 29.9059L35.5008 29.1468C35.5008 29.1468 34.8763 28.8551 34.8143 28.8551C34.8862 28.6779 34.9762 28.5086 35.0828 28.3499C35.1294 28.226 35.4233 27.3022 35.4233 27.3022C35.0696 27.7565 34.6547 28.1599 34.1905 28.5009C34.6154 27.7503 34.9758 26.9651 35.2676 26.1536C35.4602 25.3725 35.5892 24.5771 35.6534 23.7753C35.8198 22.3181 36.0795 20.873 36.431 19.449C36.6833 18.7384 37.1279 18.1115 37.7153 17.6378C38.5834 17.0356 39.5966 16.6755 40.6505 16.5945H40.7745C41.8303 16.6748 42.8454 17.035 43.7152 17.6378C44.3033 18.1106 44.7481 18.7372 45.0001 19.4477C45.3513 20.8719 45.6112 22.3169 45.7784 23.774C45.8533 24.5581 45.9887 25.3352 46.1834 26.0985C46.4751 26.9243 46.8292 27.7268 47.2426 28.4991C46.7774 28.159 46.3617 27.7562 46.0072 27.3022C46.0072 27.3022 46.2361 28.1406 46.282 28.2644C46.4076 28.4515 46.5196 28.6475 46.6168 28.8508C46.5567 28.8508 45.9304 29.1424 45.9304 29.1424L43.5013 29.9016L43.536 31.0539C43.996 31.2366 44.4007 31.5352 44.7105 31.9207C44.8575 32.2907 45.0902 32.6207 45.3896 32.8836C45.9756 33.0874 46.5407 33.347 47.077 33.6588C47.889 34.11 48.7801 34.4017 49.702 34.5183C50.6323 34.6712 51.2189 36.1727 51.2189 36.1727C51.2189 36.1874 51.2507 36.8196 51.294 37.6792L51.2944 37.687Z" fill="#38C3F3"/>
</svg>
