<svg width="64" height="65" viewBox="0 0 64 65" fill="none" xmlns="http://www.w3.org/2000/svg">
<circle opacity="0.09" cx="32" cy="32.9526" r="32" fill="#2FC6F6"/>
<path fill-rule="evenodd" clip-rule="evenodd" d="M35.2085 21.6787C34.8454 21.3156 34.353 21.1117 33.8396 21.1117H21.0494C19.9801 21.1117 19.1134 21.9785 19.1134 23.0477V24.1719V24.5624V42.1898C19.1134 43.259 19.9801 44.1258 21.0494 44.1258H42.6588C43.4506 44.1258 44.1314 43.6504 44.4313 42.9696L51.8815 32.4202C52.3493 31.7578 51.8755 30.8434 51.0646 30.8434H44.5948V26.1079C44.5948 25.0387 43.728 24.1719 42.6588 24.1719H37.7019L35.2085 21.6787ZM42.0673 30.8434V26.8055H21.8091V40.5748L28.3828 31.2665C28.5702 31.0012 28.8748 30.8434 29.1996 30.8434H42.0673Z" fill="#38C3F3"/>
</svg>
