<svg width="64" height="64" viewBox="0 0 64 64" fill="none" xmlns="http://www.w3.org/2000/svg">
	<rect width="64" height="64" rx="32" fill="#E9FFCF"/>
	<path fill-rule="evenodd" clip-rule="evenodd" d="M35.6945 15.6598C33.4084 14.3399 30.5917 14.3399 28.3056 15.6598L19.6971 20.63C17.411 21.9499 16.0027 24.3891 16.0027 27.0289V36.9691C16.0027 39.6089 17.411 42.0482 19.6971 43.3681L28.3056 48.3382C30.5917 49.6581 33.4084 49.6581 35.6945 48.3382L44.303 43.3681C46.5891 42.0482 47.9974 39.6089 47.9974 36.9691V27.0289C47.9974 24.3891 46.5891 21.9499 44.303 20.63L35.6945 15.6598ZM42.703 23.4012L34.0945 18.4311C32.7984 17.6829 31.2017 17.6829 29.9056 18.4311L21.2971 23.4012C20.0011 24.1495 19.2027 25.5324 19.2027 27.0289V36.9691C19.2027 38.4657 20.0011 39.8485 21.2971 40.5968L29.9056 45.5669C31.2017 46.3152 32.7984 46.3152 34.0945 45.5669L42.703 40.5968C43.999 39.8485 44.7974 38.4657 44.7974 36.9691V27.0289C44.7974 25.5324 43.999 24.1495 42.703 23.4012ZM30.1565 21.9804C31.2973 21.3218 32.7028 21.3218 33.8436 21.9804L39.7549 25.3933C40.8957 26.0519 41.5985 27.2692 41.5985 28.5865V35.4122C41.5985 36.7295 40.8957 37.9467 39.7549 38.6054L33.8436 42.0182C32.7028 42.6769 31.2973 42.6769 30.1565 42.0182L24.2452 38.6054C23.1044 37.9467 22.4016 36.7295 22.4016 35.4122V28.5865C22.4016 27.2692 23.1044 26.0519 24.2452 25.3933L30.1565 21.9804Z" fill="#19CC45"/>
	<rect x="8" y="8" width="48" height="48" rx="6" fill="white" fill-opacity="0.01"/>
</svg>
