<svg xmlns="http://www.w3.org/2000/svg" width="29" height="26" fill="none"><path fill="#FFA900" fill-rule="evenodd" d="M.722 6.736c-.405.2-.662.613-.662 1.065v2.358c0 .328.266.593.594.593h1.748V24.3c0 .655.532 1.187 1.188 1.187h3.407V12.103c0-.656.532-1.187 1.187-1.187h11.749c.655 0 1.187.531 1.187 1.187v13.384h3.408c.655 0 1.187-.532 1.187-1.187V10.752h1.749a.594.594 0 0 0 .594-.593V7.8c0-.452-.257-.865-.662-1.065L14.584.41a1.187 1.187 0 0 0-1.05 0L.721 6.736Zm10.857 7.434c0-.328.266-.594.593-.594h3.772c.328 0 .594.266.594.594v3.771a.593.593 0 0 1-.594.594h-3.772a.594.594 0 0 1-.593-.594V14.17Zm-3.147 6.763c0-.328.266-.594.594-.594h3.771c.328 0 .594.266.594.594v3.771a.594.594 0 0 1-.594.594H9.026a.594.594 0 0 1-.594-.594v-3.771Zm6.295 0c0-.328.265-.594.593-.594h3.772c.328 0 .593.266.593.594v3.771a.593.593 0 0 1-.593.594H15.32a.594.594 0 0 1-.593-.594v-3.771Z" clip-rule="evenodd"/></svg>