<svg xmlns="http://www.w3.org/2000/svg" width="22" height="27" fill="none"><path fill="#9DCF00" fill-rule="evenodd" d="M1.25 0a1 1 0 0 0-1 1v24.25a1 1 0 0 0 1 1h19.04a1 1 0 0 0 1-1V8.165a2 2 0 0 0-.53-1.356L15.08.645A2 2 0 0 0 13.609 0H1.25Zm3.328 6.97a.79.79 0 0 0-.79.789v1.185c0 .436.354.79.79.79h11.366a.79.79 0 0 0 .79-.79V7.759a.79.79 0 0 0-.79-.79H4.578Zm0 5.25a.79.79 0 0 0-.79.789v1.185c0 .436.354.79.79.79h11.366a.79.79 0 0 0 .79-.79v-1.185a.79.79 0 0 0-.79-.79H4.578Zm-.79 5.969a.79.79 0 0 1 .79-.79h8.383a.79.79 0 0 1 .79.79v1.184a.79.79 0 0 1-.79.79H4.579a.79.79 0 0 1-.79-.79V18.19Z" clip-rule="evenodd"/></svg>