<svg width="167" height="154" viewBox="0 0 167 154" fill="none" xmlns="http://www.w3.org/2000/svg">
	<g clip-path="url(#clip0_13555_544834)">
		<path opacity="0.6" fill-rule="evenodd" clip-rule="evenodd" d="M117.307 154.43H-7.43268C-8.48292 154.43 -9.52411 154.39 -10.5549 154.311C-38.2943 153.653 -60.5853 130.043 -60.5867 101.014C-60.5786 86.8657 -55.171 73.2999 -45.5535 63.3012C-40.6237 58.176 -34.7948 54.2033 -28.453 51.5493C-28.5591 50.1096 -28.6132 48.6547 -28.6132 47.1866C-28.6044 32.2578 -22.8984 17.944 -12.7504 7.39415C-2.60244 -3.15571 11.1563 -9.07745 25.499 -9.06835C43.8716 -9.04503 64.0925 0.517941 73.8409 15.114C78.4702 13.4068 83.4535 12.4789 88.6452 12.4817C111.579 12.5105 130.416 30.7076 132.6 53.9787C154.574 58.9652 167.019 79.3423 167 103.705C166.977 131.782 147.098 154.527 120.124 154.515C119.179 154.514 118.239 154.486 117.307 154.43Z" fill="#C3F0FF"/>
		<path opacity="0.3" fill-rule="evenodd" clip-rule="evenodd" d="M16.6955 39.2678C16.6955 37.1871 18.5072 35.5 20.742 35.5C22.3667 35.5 23.7576 36.3976 24.4023 37.6851C24.9183 37.5087 25.4678 37.3971 26.0494 37.3971C28.6245 37.3971 30.7083 39.2906 30.8271 41.6605C30.9261 41.6533 31.0226 41.6329 31.1241 41.6329C33.2154 41.6329 34.9094 43.2144 34.9094 45.1655C34.9094 47.1178 33.2154 48.6994 31.1241 48.6994C30.7887 48.6994 29.6602 48.6994 29.3892 48.6994H19.1704C18.9601 48.6994 17.9936 48.6994 17.6966 48.6994C14.9013 48.6994 12.6355 46.5947 12.6355 43.9968C12.6355 41.7145 14.3865 39.815 16.7092 39.3878C16.7079 39.347 16.6955 39.3086 16.6955 39.2678Z" fill="white"/>
		<path opacity="0.3" fill-rule="evenodd" clip-rule="evenodd" d="M146.414 71.5757C146.414 70.0004 145.038 68.7231 143.342 68.7231C142.108 68.7231 141.052 69.4027 140.563 70.3774C140.171 70.2439 139.754 70.1594 139.312 70.1594C137.357 70.1594 135.775 71.5929 135.685 73.3871C135.609 73.3817 135.536 73.3662 135.459 73.3662C133.871 73.3662 132.585 74.5636 132.585 76.0407C132.585 77.5188 133.871 78.7161 135.459 78.7161C135.714 78.7161 136.571 78.7161 136.776 78.7161H144.535C144.695 78.7161 145.428 78.7161 145.654 78.7161C147.776 78.7161 149.496 77.1227 149.496 75.1559C149.496 73.428 148.167 71.9899 146.403 71.6665C146.404 71.6356 146.414 71.6066 146.414 71.5757Z" fill="white"/>
		<g opacity="0.8" filter="url(#filter0_d_13555_544834)">
			<path fill-rule="evenodd" clip-rule="evenodd" d="M110.843 121.958H44.5265C43.959 121.958 43.3965 121.938 42.8395 121.898C27.8517 121.569 16.7743 109.761 16.7736 95.2441C16.7779 88.1683 19.946 81.8375 24.5542 76.2994C26.757 73.6521 28.3523 71.9071 31.5735 70.3152C31.5162 69.5952 31.487 68.8676 31.487 68.1334C31.4917 60.6674 34.5747 53.509 40.0578 48.233C45.5408 42.9569 52.9747 39.9955 60.7242 40C70.651 40.0117 79.3093 45.1865 84.5765 52.486C88.0443 51.6323 92.3323 51.3594 95.1374 51.3608C107.529 51.3752 117.706 60.4757 118.886 72.1137C130.759 74.6074 138.784 84.4058 138.774 96.5899C138.761 110.631 126.94 122.006 112.366 122C111.855 122 111.347 121.986 110.843 121.958Z" fill="url(#paint0_linear_13555_544834)" shape-rendering="crispEdges"/>
		</g>
		<g filter="url(#filter1_d_13555_544834)">
			<path d="M36.7727 42C36.7727 39.2386 39.0113 37 41.7727 37H112.773C115.534 37 117.773 39.2386 117.773 42V100C117.773 102.761 115.534 105 112.773 105H41.7727C39.0113 105 36.7727 102.761 36.7727 100V42Z" fill="white"/>
			<path opacity="0.4" d="M65.7026 73.8707C65.7026 73.8707 66.3219 76.069 66.7727 78H47.7729C47.7714 77.9179 47.779 77.8346 47.7964 77.7514C48.0691 76.4434 48.3681 75.0542 48.5243 74.4727C48.8561 73.2371 50.7152 72.319 52.4252 71.6133C52.8722 71.429 53.1419 71.2818 53.4144 71.133C53.6813 70.9873 53.951 70.8401 54.3927 70.655C54.4425 70.4279 54.4625 70.1958 54.4523 69.9641L55.21 69.8777C55.21 69.8777 55.3096 70.0513 55.1494 69.0304C55.1494 69.0304 54.299 68.8166 54.2596 67.1911C54.2596 67.1911 53.6207 67.3953 53.5822 66.4103C53.5743 66.2132 53.5215 66.0239 53.4709 65.8427C53.3498 65.4085 53.2415 65.0204 53.7951 64.6828L53.3954 63.6619C53.3954 63.6619 52.9759 59.7129 54.8181 60.0342C54.0709 58.8997 60.374 57.9557 60.7925 61.4339C60.9572 62.4824 60.9572 63.5479 60.7925 64.5964C60.7925 64.5964 61.7342 64.4928 61.1055 66.2099C61.1055 66.2099 60.7595 67.4441 60.228 67.1656C60.228 67.1656 60.3143 68.7276 59.4772 68.9924C59.4772 68.9924 59.5369 69.8241 59.5369 69.8807L60.2367 69.9831C60.2367 69.9831 60.2175 70.6766 60.3551 70.7518C60.9931 71.1471 61.6924 71.4468 62.4281 71.6401C64.6012 72.1687 65.7026 73.0761 65.7026 73.8707Z" fill="#A8ADB4"/>
			<path opacity="0.4" d="M65.7026 100.871C65.7026 100.871 66.3219 103.069 66.7727 105H47.7729C47.7714 104.918 47.779 104.835 47.7964 104.751C48.0691 103.443 48.3681 102.054 48.5243 101.473C48.8561 100.237 50.7152 99.319 52.4252 98.6133C52.8722 98.429 53.1419 98.2818 53.4144 98.133C53.6813 97.9873 53.951 97.8401 54.3927 97.655C54.4425 97.4279 54.4625 97.1958 54.4523 96.9641L55.21 96.8777C55.21 96.8777 55.3096 97.0513 55.1494 96.0304C55.1494 96.0304 54.299 95.8166 54.2596 94.1911C54.2596 94.1911 53.6207 94.3953 53.5822 93.4103C53.5743 93.2132 53.5215 93.0239 53.4709 92.8427C53.3498 92.4085 53.2415 92.0204 53.7951 91.6828L53.3954 90.6619C53.3954 90.6619 52.9759 86.7129 54.8181 87.0342C54.0709 85.8997 60.374 84.9557 60.7925 88.4339C60.9572 89.4824 60.9572 90.5479 60.7925 91.5964C60.7925 91.5964 61.7342 91.4928 61.1055 93.2099C61.1055 93.2099 60.7595 94.4441 60.228 94.1656C60.228 94.1656 60.3143 95.7276 59.4772 95.9924C59.4772 95.9924 59.5369 96.8241 59.5369 96.8807L60.2367 96.9831C60.2367 96.9831 60.2175 97.6766 60.3551 97.7518C60.9931 98.1471 61.6924 98.4468 62.4281 98.6401C64.6012 99.1687 65.7026 100.076 65.7026 100.871Z" fill="#FFA900"/>
			<path opacity="0.4" d="M105.703 73.8707C105.703 73.8707 106.322 76.069 106.773 78H87.7729C87.7714 77.9179 87.779 77.8346 87.7964 77.7514C88.0691 76.4434 88.3681 75.0542 88.5243 74.4727C88.8561 73.2371 90.7152 72.319 92.4252 71.6133C92.8722 71.429 93.1419 71.2818 93.4144 71.133C93.6813 70.9873 93.951 70.8401 94.3927 70.655C94.4425 70.4279 94.4625 70.1958 94.4523 69.9641L95.21 69.8777C95.21 69.8777 95.3096 70.0513 95.1494 69.0304C95.1494 69.0304 94.299 68.8166 94.2596 67.1911C94.2596 67.1911 93.6207 67.3953 93.5822 66.4103C93.5743 66.2132 93.5215 66.0239 93.4709 65.8427C93.3498 65.4085 93.2415 65.0204 93.7951 64.6828L93.3954 63.6619C93.3954 63.6619 92.9759 59.7129 94.8181 60.0342C94.0709 58.8997 100.374 57.9557 100.792 61.4339C100.957 62.4824 100.957 63.5479 100.792 64.5964C100.792 64.5964 101.734 64.4928 101.105 66.2099C101.105 66.2099 100.759 67.4441 100.228 67.1656C100.228 67.1656 100.314 68.7276 99.4772 68.9924C99.4772 68.9924 99.5369 69.8241 99.5369 69.8807L100.237 69.9831C100.237 69.9831 100.217 70.6766 100.355 70.7518C100.993 71.1471 101.692 71.4468 102.428 71.6401C104.601 72.1687 105.703 73.0761 105.703 73.8707Z" fill="#9DCF00"/>
			<path opacity="0.4" d="M36.7727 42C36.7727 39.2386 39.0113 37 41.7727 37H112.773C115.534 37 117.773 39.2386 117.773 42V52H36.7727V42Z" fill="#00ACE3"/>
			<rect opacity="0.6" x="42.7727" y="42" width="5" height="5" rx="2.5" fill="#00ACE3"/>
			<path opacity="0.08" fill-rule="evenodd" clip-rule="evenodd" d="M77.7727 78V52H76.7727V78H36.7727V79H76.7727V105H77.7727V79H117.773V78H77.7727Z" fill="#525C69"/>
		</g>
		<circle cx="108.773" cy="99" r="16" fill="#00ACE3"/>
		<path fill-rule="evenodd" clip-rule="evenodd" d="M106.282 93.5C108.165 93.5 110.048 93.7371 111.931 94.2113C112.35 94.3168 112.646 94.7175 112.646 95.1788V103.113C112.646 103.567 112.359 103.964 111.948 104.076C109.94 104.625 107.99 104.9 106.099 104.9C104.218 104.9 102.338 104.628 100.459 104.085C100.054 103.968 99.7727 103.575 99.7727 103.125V95.1863C99.7727 94.7221 100.073 94.3197 100.495 94.2171C102.462 93.739 104.391 93.5 106.282 93.5ZM118.755 94.464C118.767 94.4978 118.773 94.5336 118.773 94.5698V103.373C118.773 103.537 118.648 103.671 118.494 103.671C118.461 103.671 118.427 103.664 118.396 103.651L114.197 101.944C114.089 101.9 114.018 101.789 114.018 101.665V96.2769C114.018 96.153 114.089 96.0421 114.197 95.9981L118.396 94.291C118.539 94.2326 118.7 94.3101 118.755 94.464Z" fill="white"/>
	</g>
	<defs>
		<filter id="filter0_d_13555_544834" x="12.7736" y="38" width="130" height="90" filterUnits="userSpaceOnUse" color-interpolation-filters="sRGB">
			<feFlood flood-opacity="0" result="BackgroundImageFix"/>
			<feColorMatrix in="SourceAlpha" type="matrix" values="0 0 0 0 0 0 0 0 0 0 0 0 0 0 0 0 0 0 127 0" result="hardAlpha"/>
			<feOffset dy="2"/>
			<feGaussianBlur stdDeviation="2"/>
			<feComposite in2="hardAlpha" operator="out"/>
			<feColorMatrix type="matrix" values="0 0 0 0 0.025382 0 0 0 0 0.275095 0 0 0 0 0.358333 0 0 0 0.06 0"/>
			<feBlend mode="normal" in2="BackgroundImageFix" result="effect1_dropShadow_13555_544834"/>
			<feBlend mode="normal" in="SourceGraphic" in2="effect1_dropShadow_13555_544834" result="shape"/>
		</filter>
		<filter id="filter1_d_13555_544834" x="28.7608" y="31.6588" width="97.0237" height="84.0237" filterUnits="userSpaceOnUse" color-interpolation-filters="sRGB">
			<feFlood flood-opacity="0" result="BackgroundImageFix"/>
			<feColorMatrix in="SourceAlpha" type="matrix" values="0 0 0 0 0 0 0 0 0 0 0 0 0 0 0 0 0 0 127 0" result="hardAlpha"/>
			<feOffset dy="2.67062"/>
			<feGaussianBlur stdDeviation="4.00593"/>
			<feComposite in2="hardAlpha" operator="out"/>
			<feColorMatrix type="matrix" values="0 0 0 0 0.423529 0 0 0 0 0.423529 0 0 0 0 0.423529 0 0 0 0.12 0"/>
			<feBlend mode="normal" in2="BackgroundImageFix" result="effect1_dropShadow_13555_544834"/>
			<feBlend mode="normal" in="SourceGraphic" in2="effect1_dropShadow_13555_544834" result="shape"/>
		</filter>
		<linearGradient id="paint0_linear_13555_544834" x1="77.2903" y1="55.5035" x2="77.2903" y2="122" gradientUnits="userSpaceOnUse">
			<stop stop-color="white" stop-opacity="0.4"/>
			<stop offset="1" stop-color="white" stop-opacity="0.8"/>
		</linearGradient>
		<clipPath id="clip0_13555_544834">
			<path d="M0.772705 0H150.773C159.609 0 166.773 7.16344 166.773 16V139C166.773 147.837 159.609 155 150.773 155H16.7727C7.93615 155 0.772705 147.837 0.772705 139V0Z" fill="white"/>
		</clipPath>
	</defs>
</svg>