<svg width="200" height="230" viewBox="0 0 200 230" fill="none" xmlns="http://www.w3.org/2000/svg">
    <rect width="200" height="230" fill="#F7F7F7"/>
    <path opacity="0.1" fill-rule="evenodd" clip-rule="evenodd" d="M128 75.8462H114C113 71.923 112 68 108 68H92C88 68 86.9999 71.923 86 75.8462H72C69.8 75.8462 68 77.6116 68 79.7692V115.077C68 117.235 69.8 119 72 119H128C130.2 119 132 117.235 132 115.077V79.7692C132 77.6116 130.2 75.8462 128 75.8462ZM89.2208 97.5493C89.2208 103.442 94.0913 108.219 100.099 108.219C106.108 108.219 110.978 103.442 110.978 97.5493C110.978 91.6567 106.108 86.8799 100.1 86.8799C94.0914 86.8799 89.2208 91.6567 89.2208 97.5493ZM100.1 112.117C91.8962 112.117 85.2459 105.595 85.2459 97.5493C85.2459 89.5037 91.8961 82.9813 100.1 82.9813C108.303 82.9813 114.953 89.5036 114.953 97.5493C114.953 105.595 108.303 112.117 100.1 112.117ZM126.587 84.4181H121.095V80.7696H126.587V84.4181Z" fill="#525C69"/>
</svg>
