<svg width="14" height="11" viewBox="0 0 14 11" fill="none" xmlns="http://www.w3.org/2000/svg">
	<path fill-rule="evenodd" clip-rule="evenodd" d="M7.34594 8.60889C7.23079 8.7215 7.04727 8.72311 6.93018 8.61252L5.9867 7.72143C5.82137 7.56528 5.81931 7.30289 5.98217 7.14417L6.43853 6.69941C6.58787 6.55387 6.82397 6.54747 6.98097 6.68472L7.1398 6.82357L11.9902 2.07613C12.1455 1.92417 12.3936 1.92391 12.5492 2.07553L12.9954 2.51037C13.1563 2.66718 13.1565 2.9257 12.9959 3.08279L7.34594 8.60889Z" fill="white"/>
	<path fill-rule="evenodd" clip-rule="evenodd" d="M3.20527 8.6057C3.08882 8.71959 2.90277 8.71976 2.78612 8.60607L0.377305 6.25849C0.21621 6.10149 0.21621 5.84257 0.377305 5.68557L0.823571 5.25065C0.978906 5.09927 1.22659 5.09927 1.38193 5.25065L2.99587 6.82357L7.84628 2.07612C8.00153 1.92417 8.24968 1.9239 8.40525 2.07552L8.85144 2.51037C9.01234 2.66718 9.01257 2.9257 8.85196 3.08279L3.20527 8.6057Z" fill="white"/>
</svg>