<?xml version="1.0" encoding="UTF-8"?>
<svg width="46px" height="46px" viewBox="0 0 46 46" version="1.1" xmlns="http://www.w3.org/2000/svg" xmlns:xlink="http://www.w3.org/1999/xlink">
    <g id="Symbols" stroke="none" stroke-width="1" fill="none" fill-rule="evenodd">
        <g id="Icons-/-Type-1-/-Icon-/-c-02" transform="translate(-7.000000, -7.000000)" fill="#A3B2C5">
            <path d="M50,7 C51.6568542,7 53,8.34314575 53,10 L53,50 C53,51.6568542 51.6568542,53 50,53 L10,53 C8.34314575,53 7,51.6568542 7,50 L7,10 C7,8.34314575 8.34314575,7 10,7 L50,7 Z M49.6,10 L10.4,10 C10.2067003,10 10.0454251,10.1371128 10.0081266,10.319386 L10,10.4 L10,49.6 C10,49.7932997 10.1371128,49.9545749 10.319386,49.9918734 L10.4,50 L49.6,50 C49.7932997,50 49.9545749,49.8628872 49.9918734,49.680614 L50,49.6 L50,10.4 C50,10.1790861 49.8209139,10 49.6,10 Z M29.7002293,29.6325523 C29.9587189,29.2079959 30.512437,29.0733722 30.9369934,29.3318617 L30.9369934,29.3318617 L42.4804529,36.3600541 C42.6786028,36.4806969 42.822514,36.6731943 42.8821602,36.8973826 C43.0099582,37.3777289 42.7241614,37.8707274 42.243815,37.9985254 L42.243815,37.9985254 L39.6778908,38.6811997 C39.5797873,38.7073005 39.4868068,38.7498108 39.4028853,38.8069311 C38.9919785,39.0866104 38.8855976,39.6464411 39.165277,40.057348 L39.165277,40.057348 L41.6693336,43.7363251 C41.6738441,43.7429519 41.6782658,43.7496387 41.6825976,43.7563836 C41.9511989,44.174616 41.829899,44.7314047 41.4116667,45.000006 L41.4116667,45.000006 L39.3825781,46.3031473 L39.3825781,46.3031473 L39.3622258,46.3158384 C38.9369843,46.5731994 38.3836257,46.4371054 38.1262647,46.011864 L38.1262647,46.011864 L35.862601,42.2715789 C35.8431815,42.2394917 35.8217752,42.2086498 35.7985074,42.1792337 C35.4901455,41.7893902 34.9241383,41.7233363 34.5342948,42.0316982 L34.5342948,42.0316982 L32.2753475,43.8185004 C32.1394518,43.9259924 31.9754159,43.9919716 31.8029383,44.0085148 C31.3081528,44.0559723 30.868578,43.6933412 30.8211205,43.1985557 L30.8211205,43.1985557 L29.5730681,30.1865184 C29.5545043,29.992975 29.5991169,29.7986243 29.7002293,29.6325523 Z M38,20 C39.1045695,20 40,20.8954305 40,22 L40,31.148 L36.842,29.619 L36.8421053,24.1578947 C36.8421053,23.60561 36.39439,23.1578947 35.8421053,23.1578947 L24.1578947,23.1578947 C23.6450589,23.1578947 23.2223876,23.5439349 23.1646225,24.0412736 L23.1578947,24.1578947 L23.1578947,35.8421053 C23.1578947,36.3549411 23.5439349,36.7776124 24.0412736,36.8353775 L24.1578947,36.8421053 L27.272,36.842 L27.308,40 L22,40 C20.8954305,40 20,39.1045695 20,38 L20,22 C20,20.8954305 20.8954305,20 22,20 L38,20 Z" id="Combined-Shape"></path>
        </g>
    </g>
</svg>