<?xml version="1.0" encoding="UTF-8"?>
<svg width="46px" height="46px" viewBox="0 0 46 46" version="1.1" xmlns="http://www.w3.org/2000/svg" xmlns:xlink="http://www.w3.org/1999/xlink">
    <g id="Symbols" stroke="none" stroke-width="1" fill="none" fill-rule="evenodd">
        <g id="Icons-/-Type-1-/-Icon-/-c-04" transform="translate(-7.000000, -7.000000)" fill="#2FC6F6">
            <path d="M50,7 C51.6568542,7 53,8.34314575 53,10 L53,50 C53,51.6568542 51.6568542,53 50,53 L10,53 C8.34314575,53 7,51.6568542 7,50 L7,10 C7,8.34314575 8.34314575,7 10,7 L50,7 Z M49.6,10 L10.4,10 C10.2067003,10 10.0454251,10.1371128 10.0081266,10.319386 L10,10.4 L10,49.6 C10,49.7932997 10.1371128,49.9545749 10.319386,49.9918734 L10.4,50 L49.6,50 C49.7932997,50 49.9545749,49.8628872 49.9918734,49.680614 L50,49.6 L50,10.4 C50,10.1790861 49.8209139,10 49.6,10 Z M43.7644488,37.4473891 L45.5515351,39.5333827 L38.5544443,44.8803697 L31.5573535,39.5333827 L33.3445842,37.4473891 L37.2906137,40.4628378 L38.542423,41.4228278 L39.8184193,40.4628378 L43.7644488,37.4473891 Z M38.9442834,27 C39.5273396,27 40,27.4726604 40,28.0557166 L40,33.611 L43.7644488,30.7346488 L45.5515351,32.8206425 L38.5544443,38.1676295 L31.5573535,32.8206425 L33.3445842,30.7346488 L37,33.528 L37,28.0557166 C37,27.4726604 37.4726604,27 38.0557166,27 L38.9442834,27 Z M25.0429688,26 C25.5952535,26 26.0429688,26.4477153 26.0429688,27 L26.0429688,28 C26.0429688,28.5522847 25.5952535,29 25.0429688,29 L15,29 C14.4477153,29 14,28.5522847 14,28 L14,27 C14,26.4477153 14.4477153,26 15,26 L25.0429688,26 Z M39,20 C39.5522847,20 40,20.4477153 40,21 L40,22 C40,22.5522847 39.5522847,23 39,23 L15,23 C14.4477153,23 14,22.5522847 14,22 L14,21 C14,20.4477153 14.4477153,20 15,20 L39,20 Z M39,14 C39.5522847,14 40,14.4477153 40,15 L40,16 C40,16.5522847 39.5522847,17 39,17 L15,17 C14.4477153,17 14,16.5522847 14,16 L14,15 C14,14.4477153 14.4477153,14 15,14 L39,14 Z" id="Combined-Shape"></path>
        </g>
    </g>
</svg>