<?xml version="1.0" encoding="UTF-8"?>
<svg width="46px" height="46px" viewBox="0 0 46 46" version="1.1" xmlns="http://www.w3.org/2000/svg" xmlns:xlink="http://www.w3.org/1999/xlink">
    <g id="Symbols" stroke="none" stroke-width="1" fill="none" fill-rule="evenodd">
        <g id="Icons-/-Type-1-/-Icon-/-c-03" transform="translate(-7.000000, -7.000000)" fill="#A3B2C5">
            <path d="M50,7 C51.6568542,7 53,8.34314575 53,10 L53,50 C53,51.6568542 51.6568542,53 50,53 L10,53 C8.34314575,53 7,51.6568542 7,50 L7,10 C7,8.34314575 8.34314575,7 10,7 L50,7 Z M49.6,10 L10.4,10 C10.2067003,10 10.0454251,10.1371128 10.0081266,10.319386 L10,10.4 L10,49.6 C10,49.7932997 10.1371128,49.9545749 10.319386,49.9918734 L10.4,50 L49.6,50 C49.7932997,50 49.9545749,49.8628872 49.9918734,49.680614 L50,49.6 L50,10.4 C50,10.1790861 49.8209139,10 49.6,10 Z M27.9614258,35.0029297 C29.0659953,35.0029297 29.9614258,35.8983602 29.9614258,37.0029297 L29.9614258,45 C29.9614258,46.1045695 29.0659953,47 27.9614258,47 L16,47 C14.8954305,47 14,46.1045695 14,45 L14,37.0029297 C14,35.8983602 14.8954305,35.0029297 16,35.0029297 L27.9614258,35.0029297 Z M42.4342606,36.2265625 L44.0214844,37.8137863 L41.1907394,40.6445312 L43.9554921,43.4092839 L42.3682683,44.9965078 L39.6035156,42.2317551 L36.7727707,45.0625 L35.1855469,43.4752762 L38.0162918,40.6445312 L35.2515391,37.8797786 L36.8387629,36.2925547 L39.6035156,39.0573074 L42.4342606,36.2265625 Z M25.4565207,37.4819336 L20.8424842,41.7173844 L18.9966531,40.1076078 L17.4635169,41.4173711 L20.8424842,44.4819336 L27.0403723,38.7780908 L25.4565207,37.4819336 Z M28,26 C28.5522847,26 29,26.4477153 29,27 L29,28 C29,28.5522847 28.5522847,29 28,29 L15,29 C14.4477153,29 14,28.5522847 14,28 L14,27 C14,26.4477153 14.4477153,26 15,26 L28,26 Z M39,20 C39.5522847,20 40,20.4477153 40,21 L40,22 C40,22.5522847 39.5522847,23 39,23 L15,23 C14.4477153,23 14,22.5522847 14,22 L14,21 C14,20.4477153 14.4477153,20 15,20 L39,20 Z M39,14 C39.5522847,14 40,14.4477153 40,15 L40,16 C40,16.5522847 39.5522847,17 39,17 L15,17 C14.4477153,17 14,16.5522847 14,16 L14,15 C14,14.4477153 14.4477153,14 15,14 L39,14 Z" id="Combined-Shape"></path>
        </g>
    </g>
</svg>