<?xml version="1.0" encoding="UTF-8"?>
<svg width="46px" height="46px" viewBox="0 0 46 46" version="1.1" xmlns="http://www.w3.org/2000/svg" xmlns:xlink="http://www.w3.org/1999/xlink">
    <g id="Symbols" stroke="none" stroke-width="1" fill="none" fill-rule="evenodd">
        <g id="Icons-/-Type-1-/-Icon-/-c-01" transform="translate(-7.000000, -7.000000)" fill="#A3B2C5">
            <path d="M50,7 C51.6568542,7 53,8.34314575 53,10 L53,50 C53,51.6568542 51.6568542,53 50,53 L10,53 C8.34314575,53 7,51.6568542 7,50 L7,10 C7,8.34314575 8.34314575,7 10,7 L50,7 Z M49.6,10 L10.4,10 C10.2067003,10 10.0454251,10.1371128 10.0081266,10.319386 L10,10.4 L10,49.6 C10,49.7932997 10.1371128,49.9545749 10.319386,49.9918734 L10.4,50 L49.6,50 C49.7932997,50 49.9545749,49.8628872 49.9918734,49.680614 L50,49.6 L50,10.4 C50,10.1790861 49.8209139,10 49.6,10 Z M38,21 C39.1045695,21 40,21.8954305 40,23 L40,38 C40,39.1045695 39.1045695,40 38,40 L23,40 C21.8954305,40 21,39.1045695 21,38 L21,23 C21,21.8954305 21.8954305,21 23,21 L38,21 Z M34.0320655,26.2777778 L28.9465008,31.3872105 L26.9120362,29.4452578 L25.2222222,31.0252897 L28.9465008,34.7222222 L35.7777778,27.841396 L34.0320655,26.2777778 Z" id="Combined-Shape"></path>
        </g>
    </g>
</svg>