<svg width="42" height="42" viewBox="0 0 42 42" fill="none" xmlns="http://www.w3.org/2000/svg">
	<path fill-rule="evenodd" clip-rule="evenodd" d="M12.25 10.15H29.75C30.9098 10.15 31.85 11.0902 31.85 12.25V29.75C31.85 30.9098 30.9098 31.85 29.75 31.85H12.25C11.0902 31.85 10.15 30.9098 10.15 29.75V12.25C10.15 11.0902 11.0902 10.15 12.25 10.15ZM7 12.25C7 9.35051 9.35051 7 12.25 7H29.75C32.6495 7 35 9.35051 35 12.25V29.75C35 32.6495 32.6495 35 29.75 35H12.25C9.35051 35 7 32.6495 7 29.75V12.25ZM24.7079 17.6897C24.7079 19.1531 23.8502 20.4173 22.6073 21.0126L24.1374 26.6623C24.3215 27.342 23.7646 28.0004 23.0056 28.0004H18.9941C18.2351 28.0004 17.6782 27.342 17.8623 26.6623L19.3924 21.0125C18.1496 20.4172 17.2919 19.153 17.2919 17.6897C17.2919 15.6538 18.9521 14.0034 20.9999 14.0034C23.0478 14.0034 24.7079 15.6538 24.7079 17.6897Z" fill="#FFFFFF"/>
</svg>