<svg width="42" height="42" viewBox="0 0 42 42" fill="none" xmlns="http://www.w3.org/2000/svg">
	<path fill-rule="evenodd" clip-rule="evenodd" d="M12.25 10.15H29.75C30.9098 10.15 31.85 11.0902 31.85 12.25V29.75C31.85 30.9098 30.9098 31.85 29.75 31.85H12.25C11.0902 31.85 10.15 30.9098 10.15 29.75V12.25C10.15 11.0902 11.0902 10.15 12.25 10.15ZM7 12.25C7 9.35051 9.35051 7 12.25 7H29.75C32.6495 7 35 9.35051 35 12.25V29.75C35 32.6495 32.6495 35 29.75 35H12.25C9.35051 35 7 32.6495 7 29.75V12.25ZM18.5057 20.2505L20.1625 21.9072L24.1342 17.9355L25.3054 19.1067L20.1636 24.2485L20.0999 24.1847L20.0987 24.1859L17.3345 21.4217L18.5057 20.2505ZM13.6027 21.0008C13.6027 25.0863 16.9146 28.3982 21 28.3982C25.0854 28.3982 28.3973 25.0863 28.3973 21.0008C28.3973 16.9154 25.0854 13.6035 21 13.6035C16.9146 13.6035 13.6027 16.9154 13.6027 21.0008Z" fill="#FFFFFF"/>
</svg>