<svg xmlns="http://www.w3.org/2000/svg" width="57" height="16" viewBox="0 0 57 16">
  <path fill="#FFFFFF" fill-rule="evenodd" d="M53.5827123,2.44248197 L52.8512294,2.44248197 L52.8512294,4.45041346 L54.792514,4.45041346 L54.792514,3.75078711 L53.5827123,3.75078711 L53.5827123,2.44248197 Z M53.2736401,6.93253982 C51.7269782,6.93253982 50.4731696,5.67873125 50.4731696,4.13206935 C50.4731696,2.58543513 51.7269782,1.33162656 53.2736401,1.33162656 C54.820302,1.33162656 56.0741105,2.58543513 56.0741105,4.13209703 C56.0741105,5.67875893 54.820302,6.93253982 53.2736401,6.93253982 L53.2736401,6.93253982 Z M53.2596631,0.611878835 C51.3180187,0.611878835 49.7440116,2.18588589 49.7440116,4.12755796 C49.7440116,6.06920235 51.3180187,7.6432094 53.2596631,7.6432094 C55.2012798,7.6432094 56.7753145,6.06920235 56.7753145,4.12755796 C56.7753145,2.18591356 55.2012798,0.611878835 53.2596631,0.611878835 L53.2596631,0.611878835 Z M44.366288,6.23072697 L44.366288,7.2761256 L43.4799507,7.2761256 C43.1401567,7.2761256 42.4310924,7.30557423 42.2538194,7.32032622 L44.4549383,4.41966399 C44.4254066,4.61108008 44.366288,5.47978694 44.366288,6.23072697 L44.366288,6.23072697 Z M46.3310429,1.43065588 L44.8833273,1.43065588 L40.0083891,7.61478483 L40.0083891,8.89577249 L44.366288,8.89577249 L44.366288,11.2074898 L46.3310429,11.2074898 L46.3310429,8.89577249 L47.7787862,8.89577249 L47.7787862,7.2761256 L46.3310429,7.2761256 L46.3310429,1.43065588 Z M40.0745102,4.02210751 C40.0745102,2.49080651 39.0256519,1.40120725 36.8540923,1.40120725 C35.4654677,1.40120725 34.2984274,1.82821237 33.4564014,2.21104454 L33.9734407,3.75706985 C34.726844,3.41841063 35.5393107,3.09447571 36.5291056,3.09447571 C37.2677293,3.09447571 37.9620139,3.388962 37.9620139,4.22824791 C37.9620139,6.14238108 33.5302444,6.42214305 33.1314148,11.2074898 L40.2074718,11.2074898 L40.2074718,9.49949705 L35.7609227,9.49949705 C36.3813366,7.45281737 40.0745102,6.70190502 40.0745102,4.02210751 L40.0745102,4.02210751 Z M22.5935939,11.2080711 L24.521206,11.2080711 L24.521206,4.4764301 L22.5935939,4.4764301 L22.5935939,11.2080711 Z M32.2602446,4.4764301 L30.2612252,4.4764301 L28.7476654,6.52579448 L27.2341332,4.4764301 L25.2351138,4.4764301 L27.7053112,7.82089755 L25.1637341,11.2080711 L27.1627535,11.2080711 L28.7333839,9.10174683 L30.2897605,11.2080711 L32.2888076,11.2080711 L29.7614565,7.82089755 L32.2602446,4.4764301 Z M23.5645684,1.28850536 C22.8934496,1.28850536 22.3937086,1.78661341 22.3937086,2.3985858 C22.3937086,3.03901044 22.8934496,3.53711849 23.5645684,3.53711849 C24.221378,3.53711849 24.721119,3.02478432 24.721119,2.3985858 C24.721119,1.75813349 24.221378,1.28850536 23.5645684,1.28850536 L23.5645684,1.28850536 Z M15.1402125,9.81332976 C14.6975697,9.81332976 14.4976844,9.59988256 14.4976844,8.97368404 L14.4976844,5.97075425 L16.0968778,5.97075425 L16.5395206,4.4764301 L14.4976844,4.4764301 L14.4976844,2.34165363 L12.5557632,2.89669385 L12.5557632,4.4764301 L11.3135238,4.4764301 L11.3135238,5.97075425 L12.5557632,5.97075425 L12.5557632,9.45756597 C12.5557632,10.6388047 13.3553876,11.3503876 14.6404438,11.3503876 C15.3115626,11.3503876 16.1968481,11.165365 16.6965891,10.8237997 L16.1397222,9.51449814 C15.882711,9.68526697 15.5114479,9.81332976 15.1402125,9.81332976 L15.1402125,9.81332976 Z M3.88878831,9.61410868 L2.88927861,9.61410868 L2.88927861,7.25163121 L4.07439216,7.25163121 C4.9739592,7.25163121 5.51654464,7.66435484 5.51654464,8.39019157 C5.51654464,9.24409109 4.9739592,9.61410868 3.88878831,9.61410868 L3.88878831,9.61410868 Z M2.88927861,3.42328183 L3.58893263,3.42328183 C4.50278114,3.42328183 4.93114244,3.92138988 4.93114244,4.56181452 C4.93114244,5.17378691 4.48847199,5.65766884 3.63177706,5.65766884 L2.88927861,5.65766884 L2.88927861,3.42328183 Z M5.73073913,6.12732464 L5.73073913,6.09884472 C6.45895611,5.72882713 6.84447297,4.97453815 6.84447297,4.20602305 C6.84447297,3.01053052 5.93062446,1.82929178 3.88878831,1.82929178 L0.933075965,1.82929178 L0.933075965,11.2080711 L4.14579955,11.2080711 C6.37329492,11.2080711 7.48702876,9.81332976 7.48702876,8.39019157 C7.48702876,7.33701562 6.85875445,6.42618394 5.73073913,6.12732464 L5.73073913,6.12732464 Z M9.6144154,1.28850536 C8.94329665,1.28850536 8.44352796,1.78661341 8.44352796,2.3985858 C8.44352796,3.03901044 8.94329665,3.53711849 9.6144154,3.53711849 C10.271225,3.53711849 10.770966,3.02478432 10.770966,2.3985858 C10.770966,1.75813349 10.271225,1.28850536 9.6144154,1.28850536 L9.6144154,1.28850536 Z M8.64344098,11.2080711 L10.571053,11.2080711 L10.571053,4.4764301 L8.64344098,4.4764301 L8.64344098,11.2080711 Z M19.2095757,5.18801303 L18.9953812,4.4764301 L17.3675972,4.4764301 L17.3675972,11.2080711 L19.2952369,11.2080711 L19.2952369,6.51156835 C19.8092593,6.09884472 20.137678,5.95652813 20.5517578,5.95652813 C20.7373893,5.95652813 21.065808,5.99923418 21.4084804,6.21270906 L22.0795991,4.61874669 C21.7797435,4.40527181 21.3799174,4.30563359 21.0515265,4.30563359 C20.3233095,4.30563359 19.7806964,4.66142506 19.2095757,5.18801303 L19.2095757,5.18801303 Z" opacity=".7"/>
</svg>
