<?xml version="1.0" encoding="UTF-8"?>
<svg width="16px" height="4px" viewBox="0 0 16 4" version="1.1" xmlns="http://www.w3.org/2000/svg" xmlns:xlink="http://www.w3.org/1999/xlink">
    <g id="03-Финал-(Разное)" stroke="none" stroke-width="1" fill="none" fill-rule="evenodd">
        <g id="Заголовок-и-кнопка-02" transform="translate(-541.000000, -374.000000)">
            <rect id="Rectangle" fill="#FFFFFF" x="0" y="0" width="580" height="975"></rect>
            <g id="Icons-/-·-Set-4-/-Icon-11" transform="translate(537.000000, 364.000000)" fill="#525C69">
                <path d="M6,10 C7.1045695,10 8,10.8954305 8,12 C8,13.1045695 7.1045695,14 6,14 C4.8954305,14 4,13.1045695 4,12 C4,10.8954305 4.8954305,10 6,10 Z M12,10 C13.1045695,10 14,10.8954305 14,12 C14,13.1045695 13.1045695,14 12,14 C10.8954305,14 10,13.1045695 10,12 C10,10.8954305 10.8954305,10 12,10 Z M18,10 C19.1045695,10 20,10.8954305 20,12 C20,13.1045695 19.1045695,14 18,14 C16.8954305,14 16,13.1045695 16,12 C16,10.8954305 16.8954305,10 18,10 Z" id="Combined-Shape"></path>
            </g>
        </g>
    </g>
</svg>