<svg width="48" height="48" viewBox="0 0 48 48" fill="none" xmlns="http://www.w3.org/2000/svg">
<path fill-rule="evenodd" clip-rule="evenodd" d="M25.6197 23.5239V24.7625H24.4296V23.6088C23.6159 23.5724 22.8265 23.3538 22.365 23.0865L22.7293 21.6655C23.2393 21.9451 23.9558 22.1999 24.7454 22.1999C25.4376 22.1999 25.9111 21.9328 25.9111 21.447C25.9111 20.9855 25.5227 20.694 24.624 20.3903C23.3244 19.9531 22.4378 19.3459 22.4378 18.1677C22.4378 17.099 23.1906 16.2611 24.4904 16.0059V14.852H25.6805V15.9209C26.4942 15.9572 27.0409 16.1272 27.4416 16.3217L27.0896 17.6939C26.7736 17.5607 26.2149 17.2811 25.3405 17.2811C24.551 17.2811 24.296 17.6212 24.296 17.9612C24.296 18.3621 24.721 18.6171 25.7535 19.0058C27.1987 19.516 27.7817 20.1838 27.7817 21.2769C27.7817 22.3579 27.0165 23.2809 25.6197 23.5239V23.5239ZM24.9406 12.7523C20.9869 12.7523 17.7816 15.9574 17.7816 19.9111C17.7816 23.865 20.9869 27.07 24.9406 27.07C28.8943 27.07 32.0994 23.865 32.0994 19.9111C32.0994 15.9574 28.8943 12.7523 24.9406 12.7523V12.7523ZM30.9307 32.7679H18.9505C18.3076 32.7679 17.7816 33.2937 17.7816 33.9368C17.7816 34.5795 18.3076 35.1054 18.9505 35.1054H30.9307C31.5736 35.1054 32.0994 34.5795 32.0994 33.9368C32.0994 33.2937 31.5736 32.7679 30.9307 32.7679V32.7679ZM30.9307 29.2615H18.9505C18.3076 29.2615 17.7816 29.7875 17.7816 30.4303C17.7816 31.0732 18.3076 31.599 18.9505 31.599H30.9307C31.5736 31.599 32.0994 31.0732 32.0994 30.4303C32.0994 29.7875 31.5736 29.2615 30.9307 29.2615V29.2615ZM35.5495 37.4792C35.5495 37.5599 35.484 37.6253 35.4034 37.6253H14.4634C14.3827 37.6253 14.3173 37.5599 14.3173 37.4792V10.4882C14.3173 10.4075 14.3827 10.3421 14.4634 10.3421H35.4034C35.484 10.3421 35.5495 10.4075 35.5495 10.4882V37.4792ZM36.0856 8.07837H13.7814C12.8264 8.07837 12.0448 8.85976 12.0448 9.81473V38.1527C12.0448 39.1077 12.8264 39.8893 13.7814 39.8893H36.0856C37.0406 39.8893 37.822 39.1077 37.822 38.1527V9.81473C37.822 8.85976 37.0406 8.07837 36.0856 8.07837V8.07837Z" fill="#A8ADB4"/>
</svg>
