<svg width="124px" height="30px" viewBox="0 0 124 30" version="1.1" xmlns="http://www.w3.org/2000/svg" xmlns:xlink="http://www.w3.org/1999/xlink">
    <g id="В-отрисовку" stroke="none" stroke-width="1" fill="none" fill-rule="evenodd">
        <g id="02_Дизайн-слайдер-вкладки-Copy-2" transform="translate(-37.000000, -1818.000000)">
            <g id="Group-28" transform="translate(35.000000, 1635.000000)">
                <g id="Group-17" transform="translate(2.000000, 2.000000)">
                    <g id="Group-29" transform="translate(0.000000, 181.000000)">
                        <rect id="Rectangle-23" x="0" y="0" width="124" height="30"></rect>
                    </g>
                </g>
            </g>
            <path d="M97.4487305,1835.7168 L97.4487305,1835.00293 C97.4487305,1834.46061 97.5594064,1834.00269 97.7807617,1833.62915 C98.002117,1833.25561 98.3950167,1832.89177 98.9594727,1832.5376 C99.4077171,1832.25537 99.7300609,1832.00081 99.9265137,1831.77393 C100.122966,1831.54704 100.221191,1831.28695 100.221191,1830.99365 C100.221191,1830.76123 100.116049,1830.57723 99.9057617,1830.44165 C99.6954742,1830.30607 99.4215512,1830.23828 99.0839844,1830.23828 C98.2483682,1830.23828 97.2716527,1830.53434 96.1538086,1831.12646 L95,1828.86865 C96.3779366,1828.08284 97.8167243,1827.68994 99.3164062,1827.68994 C100.550462,1827.68994 101.518877,1827.9611 102.22168,1828.50342 C102.924483,1829.04574 103.275879,1829.7845 103.275879,1830.71973 C103.275879,1831.38933 103.119549,1831.96899 102.806885,1832.45874 C102.49422,1832.94849 101.994795,1833.41194 101.308594,1833.84912 C100.727536,1834.22543 100.363689,1834.50073 100.217041,1834.67505 C100.070393,1834.84937 99.9970703,1835.0555 99.9970703,1835.29346 L99.9970703,1835.7168 L97.4487305,1835.7168 Z M97.0917969,1838.62207 C97.0917969,1838.11295 97.239826,1837.72005 97.5358887,1837.44336 C97.8319514,1837.16667 98.267738,1837.02832 98.8432617,1837.02832 C99.3966499,1837.02832 99.821369,1837.16805 100.117432,1837.44751 C100.413494,1837.72697 100.561523,1838.11849 100.561523,1838.62207 C100.561523,1839.12565 100.407961,1839.51579 100.10083,1839.79248 C99.7936996,1840.06917 99.3745144,1840.20752 98.8432617,1840.20752 C98.2954074,1840.20752 97.866538,1840.07056 97.5566406,1839.79663 C97.2467432,1839.5227 97.0917969,1839.13119 97.0917969,1838.62207 Z" id="?" fill="#DBDFE2"></path>
        </g>
    </g>
</svg>