<svg width="124px" height="57px" viewBox="0 0 124 57" version="1.1" xmlns="http://www.w3.org/2000/svg" xmlns:xlink="http://www.w3.org/1999/xlink">
    <g id="В-отрисовку" stroke="none" stroke-width="1" fill="none" fill-rule="evenodd">
        <g id="02_Дизайн-слайдер-вкладки-Copy-2" transform="translate(-37.000000, -1637.000000)">
            <g id="Group-28" transform="translate(35.000000, 1635.000000)">
                <g id="Group-17" transform="translate(2.000000, 2.000000)">
                    <rect id="Rectangle-7" x="0" y="0" width="124" height="57"></rect>
                    <path d="M9.36676697,43 L26.633233,43 C27.9403623,43 29,44.0596377 29,45.366767 L29,45.633233 C29,46.9403623 27.9403623,48 26.633233,48 L9.36676697,48 C8.05963766,48 7,46.9403623 7,45.633233 L7,45.366767 C7,44.0596377 8.05963766,43 9.36676697,43 Z" id="Rectangle-19-Copy" fill="#A8ADB4" opacity="0.332087862"></path>
                    <path d="M36.366767,43 L79.633233,43 C80.9403623,43 82,44.0596377 82,45.366767 L82,45.633233 C82,46.9403623 80.9403623,48 79.633233,48 L36.366767,48 C35.0596377,48 34,46.9403623 34,45.633233 L34,45.366767 C34,44.0596377 35.0596377,43 36.366767,43 Z" id="Rectangle-19-Copy-3" fill="#A8ADB4" opacity="0.332087862"></path>
                    <rect id="Rectangle-19-Copy-4" fill="#A8ADB4" opacity="0.332370924" x="7" y="29" width="69" height="9" rx="4.5"></rect>
                    <path d="M9.36676697,9 L114.633233,9 C115.940362,9 117,10.0596377 117,11.366767 L117,11.633233 C117,12.9403623 115.940362,14 114.633233,14 L9.36676697,14 C8.05963766,14 7,12.9403623 7,11.633233 L7,11.366767 C7,10.0596377 8.05963766,9 9.36676697,9 Z" id="Rectangle-19-Copy-5" fill="#A8ADB4" opacity="0.332087862"></path>
                    <path d="M9.36676697,18 L60.633233,18 C61.9403623,18 63,19.0596377 63,20.366767 L63,20.633233 C63,21.9403623 61.9403623,23 60.633233,23 L9.36676697,23 C8.05963766,23 7,21.9403623 7,20.633233 L7,20.366767 C7,19.0596377 8.05963766,18 9.36676697,18 Z" id="Rectangle-19-Copy-6" fill="#A8ADB4" opacity="0.332087862"></path>
                </g>
            </g>
        </g>
    </g>
</svg>