<svg width="42" height="42" viewBox="0 0 42 42" fill="none" xmlns="http://www.w3.org/2000/svg">
	<path fill-rule="evenodd" clip-rule="evenodd" d="M15.4334 14.1187C15.0438 14.7024 14.3885 15.0529 13.6868 15.0529H10.5C9.7268 15.0529 9.1 15.6797 9.1 16.4529V29.7504C9.1 30.5236 9.7268 31.1504 10.5 31.1504H31.5002C32.2734 31.1504 32.9002 30.5236 32.9002 29.7504V16.4529C32.9002 15.6797 32.2734 15.0529 31.5002 15.0529H28.2183C27.5289 15.0529 26.8834 14.7145 26.4912 14.1475L24.6113 11.4297C24.3498 11.0516 23.9194 10.826 23.4597 10.8261L18.3793 10.8267C17.9116 10.8268 17.4747 11.0604 17.2151 11.4495L15.4684 10.2836C16.1176 9.311 17.2097 8.72686 18.3791 8.72671L23.4595 8.72607C24.6086 8.72593 25.6847 9.28992 26.3384 10.235L28.2183 12.9528H31.5002C33.4332 12.9528 35.0002 14.5199 35.0002 16.4529V29.7504C35.0002 31.6834 33.4332 33.2504 31.5002 33.2504H10.5C8.567 33.2504 7 31.6834 7 29.7504V16.4529C7 14.5199 8.567 12.9528 10.5 12.9528H13.6868L15.4684 10.2836L17.2151 11.4495L15.4334 14.1187Z" fill="white" fill-opacity="0.7"/>
	<path fill-rule="evenodd" clip-rule="evenodd" d="M20.9996 26.8425C23.2912 26.8425 25.1489 24.9848 25.1489 22.6932C25.1489 20.4016 23.2912 18.5438 20.9996 18.5438C18.708 18.5438 16.8502 20.4016 16.8502 22.6932C16.8502 24.9848 18.708 26.8425 20.9996 26.8425ZM20.9996 28.9425C24.451 28.9425 27.2489 26.1446 27.2489 22.6932C27.2489 19.2418 24.451 16.4438 20.9996 16.4438C17.5482 16.4438 14.7502 19.2418 14.7502 22.6932C14.7502 26.1446 17.5482 28.9425 20.9996 28.9425Z" fill="white" fill-opacity="0.7"/>
</svg>
