<svg width="95" height="95" viewBox="0 0 95 95" fill="none" xmlns="http://www.w3.org/2000/svg">
	<path fill-rule="evenodd" clip-rule="evenodd" d="M61.2389 72.6239C55.0124 76.7151 47.5611 79.0951 39.554 79.0951C17.7158 79.0951 0.0125122 61.3918 0.0125122 39.5536C0.0125122 17.7155 17.7158 0.012207 39.554 0.012207C61.3921 0.012207 79.0954 17.7155 79.0954 39.5536C79.0954 47.5608 76.7154 55.0121 72.6242 61.2386C72.7306 61.3341 72.835 61.433 72.9373 61.5353L91.9158 80.5138C95.04 83.638 94.996 88.7473 91.8718 91.8715C88.7476 94.9957 83.6383 95.0397 80.5141 91.9155L61.5356 72.937C61.4333 72.8347 61.3344 72.7303 61.2389 72.6239ZM67.7979 39.5537C67.7979 55.1523 55.1526 67.7975 39.554 67.7975C23.9553 67.7975 11.3101 55.1523 11.3101 39.5537C11.3101 23.955 23.9553 11.3098 39.554 11.3098C55.1526 11.3098 67.7979 23.955 67.7979 39.5537Z" fill="#EEEFF0"/>
</svg>
