<svg width="18" height="17" viewBox="0 0 18 17" fill="none" xmlns="http://www.w3.org/2000/svg">
	<path fill-rule="evenodd" clip-rule="evenodd" d="M9.48986 11.1525V12.3895H8.5101V11.1525C8.33377 11.0088 8.22089 10.7893 8.22089 10.5432C8.22089 10.1103 8.56972 9.75932 8.99999 9.75932C9.43023 9.75932 9.77907 10.1103 9.77907 10.5432C9.77907 10.7893 9.66621 11.0088 9.48986 11.1525ZM6.86704 6.12723C6.86704 4.94197 7.82203 3.98112 9.00003 3.98112C10.1781 3.98112 11.133 4.94197 11.133 6.12723V7.94141H6.86704V6.12723ZM12.2602 7.94114V6.12695C12.2602 4.31529 10.8006 2.84668 8.99999 2.84668C7.19944 2.84668 5.73976 4.31529 5.73976 6.12695V7.94114H5.25C4.97386 7.94114 4.75 8.165 4.75 8.44114V13.6536C4.75 13.9297 4.97386 14.1536 5.25 14.1536H12.75C13.0261 14.1536 13.25 13.9297 13.25 13.6536V8.44114C13.25 8.165 13.0261 7.94114 12.75 7.94114H12.2602Z" fill="#2FC6F6"/>
</svg>