<svg width="135" height="98" viewBox="0 0 135 98" fill="none" xmlns="http://www.w3.org/2000/svg">
	<g opacity="0.5">
		<g filter="url(#filter0_d_7310_39459)">
			<path d="M33.1064 28.0011C33.1064 25.4447 35.1916 23.3723 37.7637 23.3723H116.16C118.732 23.3723 120.818 25.4447 120.818 28.0011V82.0032C120.818 84.5596 118.732 86.632 116.16 86.632H37.7637C35.1916 86.632 33.1064 84.5596 33.1064 82.0032V28.0011Z" fill="white"/>
			<path d="M33.1064 28.0011C33.1064 25.4447 35.1916 23.3723 37.7637 23.3723H116.16C118.732 23.3723 120.818 25.4447 120.818 28.0011V82.0032C120.818 84.5596 118.732 86.632 116.16 86.632H37.7637C35.1916 86.632 33.1064 84.5596 33.1064 82.0032V28.0011Z" fill="#87A2C0" fill-opacity="0.02"/>
		</g>
		<path fill-rule="evenodd" clip-rule="evenodd" d="M36.8548 86.5438L37.0054 85.7871C37.25 85.8352 37.5035 85.8605 37.7637 85.8605H38.5477V86.632H37.7637C37.4526 86.632 37.1487 86.6016 36.8548 86.5438ZM115.376 86.632V85.8605H116.16C116.421 85.8605 116.674 85.8352 116.919 85.7871L117.069 86.5438C116.775 86.6016 116.471 86.632 116.16 86.632H115.376ZM118.748 85.8523L118.316 85.2113C118.74 84.9294 119.105 84.5668 119.388 84.1458L120.033 84.575C119.693 85.0798 119.256 85.5144 118.748 85.8523ZM120.818 28.7511H120.041V28.0011C120.041 27.7425 120.016 27.4906 119.968 27.2475L120.729 27.0977C120.787 27.3899 120.818 27.692 120.818 28.0011V28.7511ZM120.033 25.4293L119.388 25.8585C119.105 25.4375 118.74 25.0749 118.316 24.793L118.748 24.152C119.256 24.4899 119.693 24.9245 120.033 25.4293ZM38.5476 23.3723H37.7637C37.4526 23.3723 37.1487 23.4026 36.8548 23.4604L37.0054 24.2172C37.25 24.1691 37.5035 24.1438 37.7637 24.1438H38.5476V23.3723ZM35.176 24.152L35.6079 24.793C35.1843 25.0749 34.8195 25.4375 34.5359 25.8585L33.8909 25.4293C34.2309 24.9245 34.6682 24.4899 35.176 24.152ZM33.1064 81.2532H33.8827V82.0032C33.8827 82.2618 33.9081 82.5137 33.9565 82.7568L33.1951 82.9066C33.1369 82.6144 33.1064 82.3123 33.1064 82.0032V81.2532ZM33.8909 84.575L34.5359 84.1458C34.8195 84.5668 35.1843 84.9294 35.6079 85.2113L35.176 85.8523C34.6682 85.5144 34.2309 85.0798 33.8909 84.575ZM33.1064 79.7531H33.8827V78.2531H33.1064V79.7531ZM33.1064 76.753H33.8827V75.2529H33.1064V76.753ZM33.1064 73.7529H33.8827V72.2528H33.1064V73.7529ZM33.1064 70.7528H33.8827V69.2527H33.1064V70.7528ZM33.1064 67.7526H33.8827V66.2526H33.1064V67.7526ZM33.1064 64.7525H33.8827V63.2525H33.1064V64.7525ZM33.1064 61.7524H33.8827V60.2523H33.1064V61.7524ZM33.1064 58.7523H33.8827V57.2522H33.1064V58.7523ZM33.1064 55.7522H33.8827V54.2521H33.1064V55.7522ZM33.1064 52.7521H33.8827V51.252H33.1064V52.7521ZM33.1064 49.7519H33.8827V48.2519H33.1064V49.7519ZM33.1064 46.7518H33.8827V45.2518H33.1064V46.7518ZM33.1064 43.7517H33.8827V42.2517H33.1064V43.7517ZM33.1064 40.7516H33.8827V39.2516H33.1064V40.7516ZM33.1064 37.7515H33.8827V36.2514H33.1064V37.7515ZM33.1064 34.7514H33.8827V33.2513H33.1064V34.7514ZM33.1064 31.7513H33.8827V30.2512H33.1064V31.7513ZM33.1064 28.7511H33.8827V28.0011C33.8827 27.7425 33.9081 27.4906 33.9565 27.2475L33.1951 27.0977C33.1369 27.3899 33.1064 27.692 33.1064 28.0011V28.7511ZM40.1156 23.3723V24.1438H41.6835V23.3723H40.1156ZM43.2514 23.3723V24.1438H44.8194V23.3723H43.2514ZM46.3873 23.3723V24.1438H47.9552V23.3723H46.3873ZM49.5232 23.3723V24.1438H51.0911V23.3723H49.5232ZM52.659 23.3723V24.1438H54.227V23.3723H52.659ZM55.7949 23.3723V24.1438H57.3629V23.3723H55.7949ZM58.9308 23.3723V24.1438H60.4987V23.3723H58.9308ZM62.0667 23.3723V24.1438H63.6346V23.3723H62.0667ZM65.2025 23.3723V24.1438H66.7705V23.3723H65.2025ZM68.3384 23.3723V24.1438H69.9063V23.3723H68.3384ZM71.4743 23.3723V24.1438H73.0422V23.3723H71.4743ZM74.6101 23.3723V24.1438H76.1781V23.3723H74.6101ZM77.746 23.3723V24.1438H79.3139V23.3723H77.746ZM80.8819 23.3723V24.1438H82.4498V23.3723H80.8819ZM84.0177 23.3723V24.1438H85.5857V23.3723H84.0177ZM87.1536 23.3723V24.1438H88.7215V23.3723H87.1536ZM90.2895 23.3723V24.1438H91.8574V23.3723H90.2895ZM93.4253 23.3723V24.1438H94.9933V23.3723H93.4253ZM96.5612 23.3723V24.1438H98.1291V23.3723H96.5612ZM99.6971 23.3723V24.1438H101.265V23.3723H99.6971ZM102.833 23.3723V24.1438H104.401V23.3723H102.833ZM105.969 23.3723V24.1438H107.537V23.3723H105.969ZM109.105 23.3723V24.1438H110.673V23.3723H109.105ZM112.241 23.3723V24.1438H113.808V23.3723H112.241ZM115.376 23.3723V24.1438H116.16C116.421 24.1438 116.674 24.1691 116.919 24.2172L117.069 23.4604C116.775 23.4026 116.471 23.3723 116.16 23.3723H115.376ZM120.818 30.2512H120.041V31.7512H120.818V30.2512ZM120.818 33.2513H120.041V34.7514H120.818V33.2513ZM120.818 36.2514H120.041V37.7515H120.818V36.2514ZM120.818 39.2515H120.041V40.7516H120.818V39.2515ZM120.818 42.2517H120.041V43.7517H120.818V42.2517ZM120.818 45.2518H120.041V46.7518H120.818V45.2518ZM120.818 48.2519H120.041V49.7519H120.818V48.2519ZM120.818 51.252H120.041V52.7521H120.818V51.252ZM120.818 54.2521H120.041V55.7522H120.818V54.2521ZM120.818 57.2522H120.041V58.7523H120.818V57.2522ZM120.818 60.2523H120.041V61.7524H120.818V60.2523ZM120.818 63.2525H120.041V64.7525H120.818V63.2525ZM120.818 66.2526H120.041V67.7526H120.818V66.2526ZM120.818 69.2527H120.041V70.7528H120.818V69.2527ZM120.818 72.2528H120.041V73.7529H120.818V72.2528ZM120.818 75.2529H120.041V76.753H120.818V75.2529ZM120.818 78.253H120.041V79.7531H120.818V78.253ZM120.818 81.2531H120.041V82.0032C120.041 82.2618 120.016 82.5137 119.968 82.7568L120.729 82.9066C120.787 82.6144 120.818 82.3123 120.818 82.0032V81.2531ZM113.808 86.632V85.8605H112.241V86.632H113.808ZM110.673 86.632V85.8605H109.105V86.632H110.673ZM107.537 86.632V85.8605H105.969V86.632H107.537ZM104.401 86.632V85.8605H102.833V86.632H104.401ZM101.265 86.632V85.8605H99.6971V86.632H101.265ZM98.1291 86.632V85.8605H96.5612V86.632H98.1291ZM94.9933 86.632V85.8605H93.4253V86.632H94.9933ZM91.8574 86.632V85.8605H90.2895V86.632H91.8574ZM88.7215 86.632V85.8605H87.1536V86.632H88.7215ZM85.5857 86.632V85.8605H84.0177V86.632H85.5857ZM82.4498 86.632V85.8605H80.8819V86.632H82.4498ZM79.3139 86.632V85.8605H77.746V86.632H79.3139ZM76.1781 86.632V85.8605H74.6101V86.632H76.1781ZM73.0422 86.632V85.8605H71.4742V86.632H73.0422ZM69.9063 86.632V85.8605H68.3384V86.632H69.9063ZM66.7704 86.632V85.8605H65.2025V86.632H66.7704ZM63.6346 86.632V85.8605H62.0667V86.632H63.6346ZM60.4987 86.632V85.8605H58.9308V86.632H60.4987ZM57.3629 86.632V85.8605H55.7949V86.632H57.3629ZM54.227 86.632V85.8605H52.6591V86.632H54.227ZM51.0911 86.632V85.8605H49.5232V86.632H51.0911ZM47.9553 86.632V85.8605H46.3873V86.632H47.9553ZM44.8194 86.632V85.8605H43.2515V86.632H44.8194ZM41.6835 86.632V85.8605H40.1156V86.632H41.6835Z" fill="#B8BFC9"/>
		<rect opacity="0.1" x="33.8828" y="45.7446" width="86.1588" height="0.771455" fill="#A8ADB4"/>
		<path opacity="0.5" d="M40.8687 54.2307C40.8687 53.3786 41.5637 52.6878 42.4211 52.6878H111.503C112.361 52.6878 113.056 53.3786 113.056 54.2307V61.9453C113.056 62.7974 112.361 63.4882 111.503 63.4882H42.4211C41.5637 63.4882 40.8687 62.7974 40.8687 61.9453V54.2307Z" fill="#EDEEF0"/>
		<path opacity="0.5" d="M40.8687 69.6599C40.8687 68.8077 41.5637 68.1169 42.4211 68.1169H111.503C112.361 68.1169 113.056 68.8077 113.056 69.6599V77.3744C113.056 78.2266 112.361 78.9174 111.503 78.9174H42.4211C41.5637 78.9174 40.8687 78.2266 40.8687 77.3744V69.6599Z" fill="#EDEEF0"/>
		<rect x="40.8687" y="30.3155" width="33.7095" height="3.35949" rx="1.67974" fill="#C3F0FF"/>
		<rect x="40.8687" y="36.4871" width="22.7611" height="3.35949" rx="1.67974" fill="#C3F0FF"/>
	</g>
	<g filter="url(#filter1_di_7310_39459)">
		<path d="M22.2407 14.8863C22.2407 12.3299 24.3258 10.2576 26.898 10.2576H105.295C107.867 10.2576 109.952 12.3299 109.952 14.8863V70.4313C109.952 72.9877 107.867 75.0601 105.295 75.0601H26.898C24.3258 75.0601 22.2407 72.9877 22.2407 70.4313V14.8863Z" fill="white"/>
	</g>
	<path fill-rule="evenodd" clip-rule="evenodd" d="M25.989 74.972L26.1532 74.1474C26.3934 74.1947 26.6423 74.2195 26.898 74.2195H27.7501V75.0601H26.898C26.5869 75.0601 26.283 75.0298 25.989 74.972ZM104.443 75.0601V74.2195H105.295C105.55 74.2195 105.799 74.1947 106.039 74.1474L106.204 74.972C105.91 75.0298 105.606 75.0601 105.295 75.0601H104.443ZM107.882 74.2804L107.412 73.582C107.828 73.3052 108.186 72.949 108.465 72.5355L109.167 73.0031C108.827 73.5079 108.39 73.9425 107.882 74.2804ZM109.952 15.7031H109.106V14.8863C109.106 14.6322 109.081 14.3848 109.034 14.1461L109.863 13.9829C109.921 14.2751 109.952 14.5772 109.952 14.8863V15.7031ZM109.167 12.3145L108.465 12.7821C108.186 12.3686 107.828 12.0125 107.412 11.7357L107.882 11.0372C108.39 11.3751 108.827 11.8097 109.167 12.3145ZM27.7501 10.2576H26.898C26.5869 10.2576 26.283 10.2879 25.989 10.3457L26.1532 11.1702C26.3934 11.123 26.6423 11.0981 26.898 11.0981H27.7501V10.2576ZM24.3103 11.0372L24.7808 11.7357C24.3648 12.0125 24.0064 12.3686 23.7279 12.7821L23.0252 12.3145C23.3652 11.8097 23.8024 11.3751 24.3103 11.0372ZM22.2407 69.6145H23.0864V70.4313C23.0864 70.6854 23.1115 70.9328 23.159 71.1716L22.3294 71.3347C22.2712 71.0425 22.2407 70.7405 22.2407 70.4313V69.6145ZM23.0252 73.0031L23.7279 72.5355C24.0064 72.949 24.3648 73.3052 24.7808 73.582L24.3103 74.2804C23.8024 73.9425 23.3652 73.5079 23.0252 73.0031ZM22.2407 67.9808H23.0864V66.3471H22.2407V67.9808ZM22.2407 64.7135H23.0864V63.0798H22.2407V64.7135ZM22.2407 61.4461H23.0864V59.8124H22.2407V61.4461ZM22.2407 58.1788H23.0864V56.5451H22.2407V58.1788ZM22.2407 54.9114H23.0864V53.2777H22.2407V54.9114ZM22.2407 51.644H23.0864V50.0104H22.2407V51.644ZM22.2407 48.3767H23.0864V46.743H22.2407V48.3767ZM22.2407 45.1093H23.0864V43.4757H22.2407V45.1093ZM22.2407 41.842H23.0864V40.2083H22.2407V41.842ZM22.2407 38.5746H23.0864V36.941H22.2407V38.5746ZM22.2407 35.3073H23.0864V33.6736H22.2407V35.3073ZM22.2407 32.0399H23.0864V30.4063H22.2407V32.0399ZM22.2407 28.7726H23.0864V27.1389H22.2407V28.7726ZM22.2407 25.5052H23.0864V23.8715H22.2407V25.5052ZM22.2407 22.2379H23.0864V20.6042H22.2407V22.2379ZM22.2407 18.9705H23.0864V17.3368H22.2407V18.9705ZM22.2407 15.7032H23.0864V14.8863C23.0864 14.6322 23.1115 14.3848 23.159 14.1461L22.3294 13.983C22.2712 14.2751 22.2407 14.5772 22.2407 14.8863V15.7032ZM29.4544 10.2576V11.0981H31.1586V10.2576H29.4544ZM32.8629 10.2576V11.0981H34.5672V10.2576H32.8629ZM36.2715 10.2576V11.0981H37.9757V10.2576H36.2715ZM39.68 10.2576V11.0981H41.3843V10.2576H39.68ZM43.0886 10.2576V11.0981H44.7929V10.2576H43.0886ZM46.4971 10.2576V11.0981H48.2014V10.2576H46.4971ZM49.9057 10.2576V11.0981H51.61V10.2576H49.9057ZM53.3142 10.2576V11.0981H55.0185V10.2576H53.3142ZM56.7228 10.2576V11.0981H58.4271V10.2576H56.7228ZM60.1313 10.2576V11.0981H61.8356V10.2576H60.1313ZM63.5399 10.2576V11.0981H65.2442V10.2576H63.5399ZM66.9484 10.2576V11.0981H68.6527V10.2576H66.9484ZM70.357 10.2576V11.0981H72.0613V10.2576H70.357ZM73.7655 10.2576V11.0981H75.4698V10.2576H73.7655ZM77.1741 10.2576V11.0981H78.8784V10.2576H77.1741ZM80.5826 10.2576V11.0981H82.2869V10.2576H80.5826ZM83.9912 10.2576V11.0981H85.6955V10.2576H83.9912ZM87.3998 10.2576V11.0981H89.104V10.2576H87.3998ZM90.8083 10.2576V11.0981H92.5126V10.2576H90.8083ZM94.2169 10.2576V11.0981H95.9212V10.2576H94.2169ZM97.6254 10.2576V11.0981H99.3297V10.2576H97.6254ZM101.034 10.2576V11.0981H102.738V10.2576H101.034ZM104.443 10.2576V11.0981H105.295C105.55 11.0981 105.799 11.123 106.039 11.1702L106.204 10.3457C105.91 10.2879 105.606 10.2576 105.295 10.2576H104.443ZM109.952 17.3368H109.106V18.9705H109.952V17.3368ZM109.952 20.6042H109.106V22.2379H109.952V20.6042ZM109.952 23.8715H109.106V25.5052H109.952V23.8715ZM109.952 27.1389H109.106V28.7726H109.952V27.1389ZM109.952 30.4062H109.106V32.0399H109.952V30.4062ZM109.952 33.6736H109.106V35.3073H109.952V33.6736ZM109.952 36.941H109.106V38.5746H109.952V36.941ZM109.952 40.2083H109.106V41.842H109.952V40.2083ZM109.952 43.4757H109.106V45.1093H109.952V43.4757ZM109.952 46.743H109.106V48.3767H109.952V46.743ZM109.952 50.0104H109.106V51.644H109.952V50.0104ZM109.952 53.2777H109.106V54.9114H109.952V53.2777ZM109.952 56.5451H109.106V58.1787H109.952V56.5451ZM109.952 59.8124H109.106V61.4461H109.952V59.8124ZM109.952 63.0798H109.106V64.7134H109.952V63.0798ZM109.952 66.3471H109.106V67.9808H109.952V66.3471ZM109.952 69.6145H109.106V70.4313C109.106 70.6854 109.081 70.9328 109.034 71.1716L109.863 71.3347C109.921 71.0425 109.952 70.7405 109.952 70.4313V69.6145ZM102.738 75.0601V74.2195H101.034V75.0601H102.738ZM99.3297 75.0601V74.2195H97.6254V75.0601H99.3297ZM95.9211 75.0601V74.2195H94.2169V75.0601H95.9211ZM92.5126 75.0601V74.2195H90.8083V75.0601H92.5126ZM89.104 75.0601V74.2195H87.3998V75.0601H89.104ZM85.6955 75.0601V74.2195H83.9912V75.0601H85.6955ZM82.2869 75.0601V74.2195H80.5827V75.0601H82.2869ZM78.8784 75.0601V74.2195H77.1741V75.0601H78.8784ZM75.4698 75.0601V74.2195H73.7655V75.0601H75.4698ZM72.0613 75.0601V74.2195H70.357V75.0601H72.0613ZM68.6527 75.0601V74.2195H66.9484V75.0601H68.6527ZM65.2442 75.0601V74.2195H63.5399V75.0601H65.2442ZM61.8356 75.0601V74.2195H60.1313V75.0601H61.8356ZM58.4271 75.0601V74.2195H56.7228V75.0601H58.4271ZM55.0185 75.0601V74.2195H53.3142V75.0601H55.0185ZM51.61 75.0601V74.2195H49.9057V75.0601H51.61ZM48.2014 75.0601V74.2195H46.4971V75.0601H48.2014ZM44.7928 75.0601V74.2195H43.0886V75.0601H44.7928ZM41.3843 75.0601V74.2195H39.68V75.0601H41.3843ZM37.9757 75.0601V74.2195H36.2714V75.0601H37.9757ZM34.5672 75.0601V74.2195H32.8629V75.0601H34.5672ZM31.1586 75.0601V74.2195H29.4543V75.0601H31.1586Z" fill="#7FDEFC"/>
	<path opacity="0.1" d="M23.0171 32.6299H109.176V33.4013H23.0171V32.6299Z" fill="#2FC6F6"/>
	<path opacity="0.4" d="M30.0029 41.1159C30.0029 40.2638 30.698 39.573 31.5553 39.573H100.638C101.495 39.573 102.19 40.2638 102.19 41.1159V48.8305C102.19 49.6826 101.495 50.3734 100.638 50.3734H31.5553C30.698 50.3734 30.0029 49.6826 30.0029 48.8305V41.1159Z" fill="#F4FCFE"/>
	<path opacity="0.4" fill-rule="evenodd" clip-rule="evenodd" d="M100.638 40.3444H31.5553C31.1267 40.3444 30.7791 40.6898 30.7791 41.1159V48.8305C30.7791 49.2565 31.1267 49.6019 31.5553 49.6019H100.638C101.066 49.6019 101.414 49.2565 101.414 48.8305V41.1159C101.414 40.6898 101.066 40.3444 100.638 40.3444ZM31.5553 39.573C30.698 39.573 30.0029 40.2638 30.0029 41.1159V48.8305C30.0029 49.6826 30.698 50.3734 31.5553 50.3734H100.638C101.495 50.3734 102.19 49.6826 102.19 48.8305V41.1159C102.19 40.2638 101.495 39.573 100.638 39.573H31.5553Z" fill="#2FC6F6"/>
	<path opacity="0.4" d="M30.0029 56.5451C30.0029 55.6929 30.698 55.0022 31.5553 55.0022H100.638C101.495 55.0022 102.19 55.6929 102.19 56.5451V64.2597C102.19 65.1118 101.495 65.8026 100.638 65.8026H31.5553C30.698 65.8026 30.0029 65.1118 30.0029 64.2597V56.5451Z" fill="#F4FCFE"/>
	<path opacity="0.4" fill-rule="evenodd" clip-rule="evenodd" d="M100.638 55.7736H31.5553C31.1267 55.7736 30.7791 56.119 30.7791 56.5451V64.2597C30.7791 64.6857 31.1267 65.0311 31.5553 65.0311H100.638C101.066 65.0311 101.414 64.6857 101.414 64.2597V56.5451C101.414 56.119 101.066 55.7736 100.638 55.7736ZM31.5553 55.0022C30.698 55.0022 30.0029 55.6929 30.0029 56.5451V64.2597C30.0029 65.1118 30.698 65.8026 31.5553 65.8026H100.638C101.495 65.8026 102.19 65.1118 102.19 64.2597V56.5451C102.19 55.6929 101.495 55.0022 100.638 55.0022H31.5553Z" fill="#2FC6F6"/>
	<rect opacity="0.5" x="30.0029" y="17.2007" width="33.7095" height="3.35949" rx="1.67974" fill="#C3F0FF"/>
	<rect opacity="0.5" x="30.0029" y="23.3724" width="22.7611" height="3.35949" rx="1.67974" fill="#C3F0FF"/>
	<path fill-rule="evenodd" clip-rule="evenodd" d="M110.299 54.1996C116.68 45.6179 115.96 33.4586 108.138 25.6846C99.5229 17.122 85.5549 17.122 76.9396 25.6846C68.3244 34.2472 68.3244 48.1299 76.9396 56.6924C84.5778 64.2839 96.4234 65.1449 105.016 59.2754L118.009 72.1893C118.616 72.7918 119.598 72.7918 120.205 72.1893L123.204 69.2079C123.811 68.6053 123.811 67.6284 123.204 67.0259L110.299 54.1996ZM104.865 28.9374C111.673 35.7035 111.673 46.6735 104.865 53.4396C98.0576 60.2057 87.0202 60.2057 80.2124 53.4396C73.4047 46.6735 73.4047 35.7035 80.2124 28.9374C87.0202 22.1713 98.0576 22.1713 104.865 28.9374Z" fill="#2FC6F6"/>
	<path d="M104.866 28.9374C111.673 35.7035 111.673 46.6735 104.866 53.4396C98.0579 60.2057 87.0204 60.2057 80.2127 53.4396C73.405 46.6735 73.405 35.7035 80.2127 28.9374C87.0204 22.1713 98.0579 22.1713 104.866 28.9374Z" fill="white"/>
	<defs>
		<filter id="filter0_d_7310_39459" x="26.5691" y="20.1037" width="100.786" height="76.3342" filterUnits="userSpaceOnUse" color-interpolation-filters="sRGB">
			<feFlood flood-opacity="0" result="BackgroundImageFix"/>
			<feColorMatrix in="SourceAlpha" type="matrix" values="0 0 0 0 0 0 0 0 0 0 0 0 0 0 0 0 0 0 127 0" result="hardAlpha"/>
			<feOffset dy="3.26865"/>
			<feGaussianBlur stdDeviation="3.26865"/>
			<feComposite in2="hardAlpha" operator="out"/>
			<feColorMatrix type="matrix" values="0 0 0 0 0.392157 0 0 0 0 0.427451 0 0 0 0 0.482353 0 0 0 0.1 0"/>
			<feBlend mode="normal" in2="BackgroundImageFix" result="effect1_dropShadow_7310_39459"/>
			<feBlend mode="normal" in="SourceGraphic" in2="effect1_dropShadow_7310_39459" result="shape"/>
		</filter>
		<filter id="filter1_di_7310_39459" x="10.7007" y="0.987553" width="110.791" height="87.8825" filterUnits="userSpaceOnUse" color-interpolation-filters="sRGB">
			<feFlood flood-opacity="0" result="BackgroundImageFix"/>
			<feColorMatrix in="SourceAlpha" type="matrix" values="0 0 0 0 0 0 0 0 0 0 0 0 0 0 0 0 0 0 127 0" result="hardAlpha"/>
			<feOffset dy="2.27"/>
			<feGaussianBlur stdDeviation="5.77"/>
			<feComposite in2="hardAlpha" operator="out"/>
			<feColorMatrix type="matrix" values="0 0 0 0 0.392157 0 0 0 0 0.427451 0 0 0 0 0.482353 0 0 0 0.16 0"/>
			<feBlend mode="normal" in2="BackgroundImageFix" result="effect1_dropShadow_7310_39459"/>
			<feBlend mode="normal" in="SourceGraphic" in2="effect1_dropShadow_7310_39459" result="shape"/>
			<feColorMatrix in="SourceAlpha" type="matrix" values="0 0 0 0 0 0 0 0 0 0 0 0 0 0 0 0 0 0 127 0" result="hardAlpha"/>
			<feOffset dy="3"/>
			<feComposite in2="hardAlpha" operator="arithmetic" k2="-1" k3="1"/>
			<feColorMatrix type="matrix" values="0 0 0 0 0.592157 0 0 0 0 0.886275 0 0 0 0 0.980392 0 0 0 0.25 0"/>
			<feBlend mode="normal" in2="shape" result="effect2_innerShadow_7310_39459"/>
		</filter>
	</defs>
</svg>