<svg width="34" height="34" viewBox="0 0 34 34" fill="none" xmlns="http://www.w3.org/2000/svg">
	<path fill-rule="evenodd" clip-rule="evenodd" d="M17.0001 8.14551C11.1009 8.14551 6.72925 11.958 6.72925 16.2063C6.72925 18.2594 7.71704 20.1755 9.42575 21.6413C9.89443 22.0434 10.1674 22.696 10.017 23.3754C9.7926 24.3895 9.48529 25.4077 9.19609 26.2683C10.3399 25.756 11.7961 25.0567 13.2677 24.2237C13.648 24.0084 14.087 23.9441 14.5018 24.0258C15.3004 24.1832 16.1371 24.267 17.0001 24.267C22.8993 24.267 27.2709 20.4545 27.2709 16.2063C27.2709 11.958 22.8993 8.14551 17.0001 8.14551ZM4.60425 16.2063C4.60425 10.3772 10.3808 6.02051 17.0001 6.02051C23.6193 6.02051 29.3959 10.3772 29.3959 16.2063C29.3959 22.0353 23.6193 26.392 17.0001 26.392C16.0411 26.392 15.1063 26.3027 14.2077 26.1332C12.3406 27.1829 10.5203 28.0188 9.29055 28.5475C7.78215 29.1959 6.4435 27.6708 6.93666 26.2967C7.25374 25.4132 7.6296 24.2617 7.89466 23.1254C5.88372 21.3391 4.60425 18.9161 4.60425 16.2063Z" fill="#7FA800"/>
</svg>
