<svg width="35" height="24" viewBox="0 0 35 24" fill="none" xmlns="http://www.w3.org/2000/svg">
	<path fill-rule="evenodd" clip-rule="evenodd" d="M4.02356 9.366V19.3968H6.04406V7.29688H1.77856V9.366H4.02356ZM17.9876 6.12675C20.9061 6.12675 23.3307 8.46576 23.4205 11.3895H25.441C25.3512 7.34123 22.0286 4.05762 17.9427 4.05762C13.8119 4.05762 10.4444 7.4312 10.4444 11.5695C10.4444 15.7077 13.8119 19.0813 17.9427 19.0813L34.4552 19.0813V17.0572L17.9427 17.0572C14.9793 17.0122 12.5547 14.5832 12.5547 11.5695C12.5547 8.55572 14.9793 6.12675 17.9876 6.12675ZM6.94255 6.30735V19.4418H8.96305V4.2832H3.53015V6.30735H6.94255ZM15.4282 11.5694C15.4282 10.1749 16.5956 9.00544 17.9875 9.00544C19.3345 9.00544 20.457 10.04 20.5468 11.3894H22.5673C22.4775 8.91547 20.457 6.98129 17.9875 6.98129C15.4731 6.98129 13.4077 9.05042 13.4077 11.5694C13.4077 14.0883 15.4731 16.1574 17.9875 16.1574L34.5 16.1574V14.1333L17.9875 14.1333C16.5956 14.1333 15.4282 12.9638 15.4282 11.5694Z" fill="#E92F2A"/>
</svg>
