<svg width="48" height="48" viewBox="0 0 48 48" fill="none" xmlns="http://www.w3.org/2000/svg">
	<circle cx="24" cy="24" r="24" fill="#2FC6F6" />
	<path fill-rule="evenodd" clip-rule="evenodd" d="M35.8167 15.8085H29.9082C29.4862 14.1471 29.0642 12.4857 27.376 12.4857H20.6235C18.9353 12.4857 18.5133 14.1471 18.0913 15.8085H12.1828C11.2543 15.8085 10.4946 16.5562 10.4946 17.4699V32.4226C10.4946 33.3364 11.2543 34.084 12.1828 34.084H35.8167C36.7452 34.084 37.5049 33.3364 37.5049 32.4226V17.4699C37.5048 16.5562 36.7452 15.8085 35.8167 15.8085ZM19.6684 24.6844C19.6684 27.0386 21.6076 28.9471 23.9997 28.9471C26.3918 28.9471 28.331 27.0386 28.331 24.6844C28.331 22.3301 26.3919 20.4217 23.9997 20.4217C21.6076 20.4217 19.6684 22.3301 19.6684 24.6844ZM23.9997 30.5047C20.7336 30.5047 18.0858 27.8989 18.0858 24.6844C18.0858 21.4699 20.7335 18.8641 23.9997 18.8641C27.2659 18.8641 29.9137 21.4699 29.9137 24.6844C29.9136 27.8989 27.266 30.5047 23.9997 30.5047ZM34.5852 19.9063H32.3984V18.4487H34.5852V19.9063Z" fill="white"/>
</svg>