<svg width="15" height="15" viewBox="0 0 15 15" fill="none" xmlns="http://www.w3.org/2000/svg">
	<path fill-rule="evenodd" clip-rule="evenodd" d="M7.37215 0.333313C3.48492 0.333313 0.333374 3.48486 0.333374 7.37209C0.333374 11.2593 3.48492 14.4109 7.37215 14.4109C11.26 14.4109 14.411 11.2599 14.411 7.37209C14.411 3.48486 11.26 0.333313 7.37215 0.333313ZM2.65451 11.4073C2.63692 11.4227 2.55772 11.4827 2.4593 11.5547C2.03147 11.0532 1.68503 10.4934 1.42713 9.88357C1.09059 9.08841 0.920662 8.24382 0.920662 7.37212C0.920662 7.07187 0.941558 6.77437 0.981701 6.48127C1.35014 6.95859 1.75432 7.60364 1.89345 7.79666C2.12002 8.11232 2.37241 8.42241 2.59293 8.74307C2.96357 9.28307 3.35125 10.0222 3.15439 10.6935C3.06914 10.9817 2.88052 11.216 2.65451 11.4073ZM10.0878 6.18257C10.0878 6.18257 10.4225 7.49522 11.856 7.38632C12.3091 7.35223 12.2799 8.56441 11.9906 9.06482C11.6326 9.68457 11.7255 10.4209 11.3868 11.0395C11.1735 11.4294 10.8111 11.7187 10.5245 12.0513C10.1655 12.4687 9.76296 12.8712 9.16462 12.8196C8.77037 12.7854 8.60595 12.3482 8.52897 12.037C8.33761 11.2633 8.20398 9.68016 8.20398 9.68016C8.20398 9.68016 7.64781 8.47724 6.39037 8.84432C5.13293 9.21141 4.87647 8.23724 4.84127 7.31056C4.75604 5.02577 6.67797 4.78434 6.90068 4.82447C7.21962 4.88165 8.15667 5.04277 8.39206 5.17256C9.18887 5.61248 10.005 5.00593 9.94062 4.6848C9.87679 4.36421 7.89652 3.90283 7.19434 3.85278C6.49215 3.80274 6.42722 4.05241 6.23476 3.84069C6.07913 3.66967 6.22266 3.39857 6.33209 3.25503C7.10691 2.23387 8.39867 1.98696 9.49121 1.45522C9.50829 1.44697 9.53354 1.38813 9.56329 1.3018C9.67054 1.34084 9.77829 1.38209 9.88387 1.42718C10.652 1.75217 11.3421 2.21739 11.935 2.81018C12.5278 3.40297 12.993 4.09312 13.318 4.86128C13.3911 5.03396 13.456 5.20883 13.5132 5.3859C13.2805 5.52337 13.7443 5.33866 12.5257 5.62206C11.3072 5.90547 10.0878 6.18257 10.0878 6.18257Z" fill="white" fill-opacity="0.7"/>
</svg>