<svg width="227" height="166" viewBox="0 0 227 166" fill="none" xmlns="http://www.w3.org/2000/svg">
<path d="M23.379 148.089C17.381 149.211 9.9939 153.552 4.92043 157.072C3.52113 158.043 4.22543 160.121 5.92841 160.124L213.74 160.515C215.729 160.519 216.184 158.027 214.3 157.39C198.524 152.052 169.1 142.84 156.005 138.631L145.509 135.409C145.144 135.297 144.824 135.072 144.595 134.767L143.314 133.061C142.855 132.45 142.061 132.194 141.331 132.422L137.532 133.608C136.803 133.836 136.009 133.58 135.549 132.969L134.292 131.296C134.048 130.972 133.921 130.574 133.93 130.168L134.202 118.594C134.208 118.367 134.255 118.144 134.344 117.935L136.831 112.036C137.74 109.882 138.8 103.907 139.388 100.091C139.528 99.1854 140.314 98.52 141.229 98.5413L143.334 98.5904C144.571 98.6193 148.355 95.5688 150.951 90.4005C153.548 85.2322 153.769 75.8229 152.63 71.6125C152.148 69.8283 150.651 69.3286 149.223 69.4057C148.318 69.4546 146.606 68.2649 146.693 67.3624C147.108 63.0602 147.432 57.0376 146.736 53.7545C145.622 48.4987 144.759 37.9584 141.123 34.7357L141.113 34.7273C137.484 31.5112 136.273 30.4379 135.037 30.4091C134.104 30.3873 133.156 27.8837 132.733 26.4221C132.684 26.2554 132.664 26.0839 132.668 25.9104L132.81 19.8976C132.834 18.8513 131.696 14.6427 128.059 11.4191C124.425 8.1974 124.423 8.19644 121.978 7.09618L121.974 7.09427C119.525 5.9921 115.839 4.85836 113.39 3.75528C110.942 2.65221 104.733 3.55334 99.7863 3.43794L89.8924 3.20715C84.9454 3.09175 83.6596 5.15366 77.4267 7.10018C71.1939 9.04669 71.1939 9.04669 69.9326 10.0632C68.6713 11.0798 66.0995 15.2036 64.7891 18.3109C63.4786 21.4182 61.0297 20.3151 59.7439 22.377C58.458 24.4389 55.9599 25.4266 54.6495 28.5339C53.339 31.6411 53.2162 36.8681 53.1916 37.9134L52.8231 53.5941C52.7739 55.6849 56.3859 59.9529 58.8102 62.1014C61.2346 64.2499 58.7365 65.2375 59.8995 68.4025C61.0626 71.5675 59.7276 75.7202 59.6538 78.8563C59.5801 81.9925 60.7923 83.0667 59.4573 87.2194C58.1223 91.372 59.8567 92.2392 59.8076 94.33C59.7584 96.4208 60.4483 97.702 62.8727 99.8505C65.297 101.999 65.2479 104.09 67.6476 107.284C70.0474 110.477 67.4756 114.601 67.4265 116.692C67.3923 118.147 72.8567 124.582 76.6627 128.812C77.4543 129.692 77.2168 131.086 76.1722 131.643L74.8968 132.323C74.6225 132.469 74.3152 132.542 74.0045 132.535L72.6661 132.503C72.2392 132.493 71.8225 132.635 71.4899 132.903L66.9597 136.554C66.1188 137.232 63.9375 138.785 61.939 139.575C59.441 140.563 53.1836 143.554 44.4773 145.443C35.771 147.332 33.3221 146.229 23.379 148.089Z" fill="url(#paint0_linear_283_1356)" fill-opacity="0.32" stroke="url(#paint1_linear_283_1356)" stroke-width="1.80689"/>
<path d="M145.777 78.0469H148.963C149.266 80.3437 149.327 85.7126 147.142 88.8134C144.957 91.9141 143.501 92.1151 143.046 91.828" stroke="white" stroke-width="0.903444"/>
<path d="M90.3671 78.8105C84.6661 75.9503 63.1698 77.4756 52.1635 78.6925C51.6141 78.7532 51.25 79.2883 51.4006 79.8202C52.7844 84.7089 55.738 93.9158 58.4789 98.4995C62.1583 104.653 71.9701 103.422 81.7818 102.191C91.5935 100.961 97.7259 82.5024 90.3671 78.8105Z" fill="url(#paint2_linear_283_1356)" fill-opacity="0.32" stroke="white" stroke-width="0.903444"/>
<path d="M127.128 73.7109C116.948 73.7109 106.695 76.7466 102.153 78.5152C101.729 78.6802 101.507 79.1366 101.63 79.5744C102.562 82.8906 104.508 89.4048 106.315 94.1101C108.764 100.485 116.11 103.035 127.128 100.485C138.147 97.9349 138.147 96.66 139.372 92.8351C140.288 89.9707 141.992 80.1791 142.876 74.7563C142.965 74.2076 142.541 73.7109 141.986 73.7109H127.128Z" fill="url(#paint3_linear_283_1356)" fill-opacity="0.32" stroke="white" stroke-width="0.903444"/>
<path d="M91.8789 79.7812H102.286" stroke="white" stroke-width="0.903444"/>
<path d="M87.5439 143.955C91.9858 149.19 104.448 156.52 118.764 143.955" stroke="white" stroke-width="0.903444"/>
<path d="M84.5088 124.01C86.2432 125.022 91.0129 126.958 96.2162 126.611C102.72 126.178 106.623 127.045 107.056 126.611C107.403 126.265 113.561 123.865 116.596 122.709" stroke="white" stroke-width="0.903444"/>
<path d="M85.8096 124.877C88.5558 125.744 92.3138 130.904 100.552 130.08C104.888 129.647 107.924 130.948 112.693 124.443M84.5088 124.01C86.2432 123.721 93.7013 122.709 95.7826 122.709C98.3843 122.709 97.0835 124.877 100.552 122.709H116.596" stroke="white" stroke-width="0.903444"/>
<path d="M89.2791 108.4C88.4119 109.268 87.1978 111.262 89.2791 112.303C91.8807 113.604 93.6152 113.604 94.4824 114.037C95.3497 114.471 98.3849 117.073 102.287 114.905C106.19 112.736 106.19 113.17 107.491 113.17C108.792 113.17 111.393 112.303 110.96 109.701" stroke="white" stroke-width="0.903444"/>
<path d="M62.8282 53.3301C62.6837 48.2713 64.7361 38.2404 74.1021 38.5873C85.8096 39.0209 97.5168 41.1884 102.72 39.8879C107.923 38.5873 118.764 35.1181 120.932 34.2509C123.1 33.3837 125.268 32.0829 127.87 34.2509C130.471 36.419 134.374 41.6232 134.807 45.5256C135.241 49.4281 136.108 58.5339 136.975 59.4012C137.843 60.2684 139.577 62.87 140.444 65.0381" stroke="white" stroke-width="0.903444"/>
<defs>
<linearGradient id="paint0_linear_283_1356" x1="111.871" y1="123.769" x2="111.832" y2="162.706" gradientUnits="userSpaceOnUse">
<stop stop-color="white"/>
<stop offset="1" stop-color="white" stop-opacity="0"/>
</linearGradient>
<linearGradient id="paint1_linear_283_1356" x1="111.867" y1="120.339" x2="111.749" y2="162.705" gradientUnits="userSpaceOnUse">
<stop stop-color="white"/>
<stop offset="0.940497" stop-color="white" stop-opacity="0"/>
</linearGradient>
<linearGradient id="paint2_linear_283_1356" x1="72.1841" y1="96.8433" x2="72.3051" y2="103.197" gradientUnits="userSpaceOnUse">
<stop stop-color="white"/>
<stop offset="1" stop-color="white" stop-opacity="0"/>
</linearGradient>
<linearGradient id="paint3_linear_283_1356" x1="122.052" y1="94.6854" x2="122.193" y2="101.463" gradientUnits="userSpaceOnUse">
<stop stop-color="white"/>
<stop offset="1" stop-color="white" stop-opacity="0"/>
</linearGradient>
</defs>
</svg>
