<svg width="320" height="262" viewBox="0 0 320 262" fill="none" xmlns="http://www.w3.org/2000/svg">
	<path fill-rule="evenodd" clip-rule="evenodd" d="M230.202 7.65214C232.145 7.65214 233.72 6.07119 233.72 4.12099C233.72 2.17079 232.145 0.589844 230.202 0.589844C228.259 0.589844 226.684 2.17079 226.684 4.12099C226.684 6.07119 228.259 7.65214 230.202 7.65214ZM56.6107 38.1562C60.8226 38.1562 64.237 34.729 64.237 30.5012C64.237 26.2735 60.8226 22.8462 56.6107 22.8462C52.3989 22.8462 48.9845 26.2735 48.9845 30.5012C48.9845 34.729 52.3989 38.1562 56.6107 38.1562ZM56.6109 33.8887C58.4744 33.8887 59.9851 32.3724 59.9851 30.5019C59.9851 28.6313 58.4744 27.115 56.6109 27.115C54.7474 27.115 53.2368 28.6313 53.2368 30.5019C53.2368 32.3724 54.7474 33.8887 56.6109 33.8887ZM17.8674 112.888C23.5402 112.888 28.1389 108.272 28.1389 102.578C28.1389 96.8833 23.5402 92.2673 17.8674 92.2673C12.1946 92.2673 7.59582 96.8833 7.59582 102.578C7.59582 108.272 12.1946 112.888 17.8674 112.888ZM17.8672 107.506C20.5794 107.506 22.7781 105.299 22.7781 102.576C22.7781 99.8541 20.5794 97.6472 17.8672 97.6472C15.1551 97.6472 12.9564 99.8541 12.9564 102.576C12.9564 105.299 15.1551 107.506 17.8672 107.506ZM278.651 242.621C282.69 242.621 285.964 239.335 285.964 235.281C285.964 231.227 282.69 227.94 278.651 227.94C274.613 227.94 271.338 231.227 271.338 235.281C271.338 239.335 274.613 242.621 278.651 242.621ZM278.651 238.801C280.588 238.801 282.158 237.225 282.158 235.281C282.158 233.337 280.588 231.76 278.651 231.76C276.714 231.76 275.144 233.337 275.144 235.281C275.144 237.225 276.714 238.801 278.651 238.801ZM161.604 261.475C231.061 261.475 287.368 204.957 287.368 135.237C287.368 65.5183 231.061 8.99983 161.604 8.99983C92.1462 8.99983 35.8398 65.5183 35.8398 135.237C35.8398 204.957 92.1462 261.475 161.604 261.475ZM35.7793 252.652H11.3306C11.1214 252.652 10.914 252.644 10.7086 252.629C5.18314 252.499 0.742955 247.838 0.742676 242.107C0.744282 239.314 1.82143 236.636 3.73717 234.662C4.71915 233.65 5.88023 232.866 7.14346 232.342C7.12233 232.058 7.11156 231.771 7.11156 231.481C7.1133 228.534 8.2499 225.708 10.2713 223.625C12.2927 221.543 15.0333 220.374 17.8903 220.376C21.55 220.38 24.7811 222.268 26.7229 225.149C27.645 224.812 28.6376 224.629 29.6718 224.63C34.2401 224.635 37.9922 228.228 38.4272 232.822C42.8044 233.806 46.0801 237.829 46.0762 242.638C46.0717 248.181 41.7136 252.671 36.3406 252.669C36.1522 252.669 35.9651 252.663 35.7793 252.652ZM294.882 57.4294H312.233C312.364 57.4369 312.497 57.4407 312.631 57.4408C316.444 57.4424 319.537 54.3809 319.54 50.6019C319.543 47.3226 317.218 44.5799 314.112 43.9087C313.803 40.7764 311.14 38.3271 307.898 38.3232C307.164 38.3229 306.46 38.4477 305.805 38.6775C304.427 36.7129 302.134 35.4257 299.537 35.4226C297.51 35.4214 295.565 36.2184 294.13 37.6385C292.696 39.0585 291.889 40.9851 291.888 42.9945C291.888 43.1921 291.895 43.3879 291.91 43.5817C291.014 43.9389 290.19 44.4737 289.493 45.1635C288.133 46.5093 287.369 48.3353 287.368 50.2397C287.368 54.1469 290.519 57.3248 294.44 57.4133C294.586 57.424 294.733 57.4294 294.882 57.4294Z" fill="#ECFAFE"/>
	<g filter="url(#filter0_d_1602_337997)">
		<path d="M56.4351 101.819C56.4351 98.1003 59.4494 95.0859 63.1677 95.0859H252.602C256.32 95.0859 259.334 98.1003 259.334 101.819V215.432C259.334 219.151 256.32 222.165 252.602 222.165H63.1677C59.4494 222.165 56.4351 219.151 56.4351 215.432V101.819Z" fill="url(#paint0_linear_1602_337997)"/>
		<path d="M56.4351 101.819C56.4351 98.1003 59.4494 95.0859 63.1677 95.0859H252.602C256.32 95.0859 259.334 98.1003 259.334 101.819V215.432C259.334 219.151 256.32 222.165 252.602 222.165H63.1677C59.4494 222.165 56.4351 219.151 56.4351 215.432V101.819Z" fill="black" fill-opacity="0.6"/>
		<rect opacity="0.9" x="62.3042" y="100.977" width="191.161" height="115.297" rx="3.36634" fill="white"/>
		<rect x="62.3042" y="100.977" width="191.161" height="115.297" rx="4.20792" fill="url(#paint1_angular_1602_337997)"/>
		<path d="M43.0205 222.645C43.0205 227.027 46.5731 230.58 50.9554 230.58H264.814C269.197 230.58 272.749 227.027 272.749 222.645C272.749 221.915 272.157 221.323 271.427 221.323H44.343C43.6126 221.323 43.0205 221.915 43.0205 222.645Z" fill="url(#paint2_linear_1602_337997)"/>
		<path d="M43.0205 222.645C43.0205 227.027 46.5731 230.58 50.9554 230.58H264.814C269.197 230.58 272.749 227.027 272.749 222.645C272.749 221.915 272.157 221.323 271.427 221.323H44.343C43.6126 221.323 43.0205 221.915 43.0205 222.645Z" fill="black" fill-opacity="0.03"/>
		<path d="M43.4413 222.645C43.4413 226.795 46.8055 230.159 50.9554 230.159H264.814C268.964 230.159 272.329 226.795 272.329 222.645C272.329 222.147 271.925 221.743 271.427 221.743H44.343C43.845 221.743 43.4413 222.147 43.4413 222.645Z" stroke="black" stroke-opacity="0.05" stroke-width="0.841584"/>
		<path d="M138.601 221.323C138.601 223.647 140.485 225.531 142.809 225.531H172.961C175.285 225.531 177.169 223.647 177.169 221.323H138.601Z" fill="url(#paint3_linear_1602_337997)"/>
		<path d="M138.601 221.323C138.601 223.647 140.485 225.531 142.809 225.531H172.961C175.285 225.531 177.169 223.647 177.169 221.323H138.601Z" fill="black" fill-opacity="0.2"/>
	</g>
	<path opacity="0.2" fill-rule="evenodd" clip-rule="evenodd" d="M99.4069 161.767L87.6987 156.414C86.9759 156.083 86.1369 156.337 85.7087 156.977C85.5717 157.111 85.4567 157.273 85.3725 157.459L80.0806 169.139C79.7136 169.949 80.0708 170.905 80.8783 171.275C81.6859 171.644 82.638 171.286 83.005 170.476L86.8444 161.999C96.8374 191.593 123.612 213.893 156.608 216.502C189.979 219.14 220.162 200.883 234.392 172.679L234.4 172.541C234.426 171.503 233.609 170.639 232.574 170.612C232.063 170.598 231.595 170.791 231.25 171.117C217.637 198.072 188.782 215.52 156.879 212.997C125.41 210.509 99.8588 189.292 90.2416 161.106L98.0828 164.69C98.8874 165.058 99.8361 164.702 100.202 163.895C100.567 163.088 100.212 162.135 99.4069 161.767ZM238.123 108.548C227.62 79.9498 201.313 58.5887 169.062 56.0385C136.57 53.4692 107.1 70.7096 92.4357 97.6533L91.9968 98.4697L91.9944 98.5408C91.982 99.5236 92.7326 100.361 93.723 100.439C94.3158 100.486 94.8655 100.251 95.2397 99.8452C109.168 73.7892 137.515 57.0702 168.791 59.5433C199.598 61.9793 224.734 82.364 234.8 109.667L226.813 106.015C226.009 105.648 225.06 106.004 224.694 106.811C224.329 107.618 224.685 108.57 225.489 108.938L237.197 114.292C237.92 114.622 238.759 114.368 239.187 113.729C239.324 113.594 239.439 113.432 239.524 113.246L244.815 101.566C245.182 100.756 244.825 99.8002 244.018 99.4309C243.21 99.0617 242.258 99.419 241.891 100.229L238.123 108.548Z" fill="#2FC6F6"/>
	<g filter="url(#filter1_d_1602_337997)">
		<rect x="109.163" y="57.1973" width="98.5195" height="132.829" rx="5.16559" fill="white"/>
	</g>
	<rect opacity="0.3" x="116.742" y="164.279" width="34.9773" height="14.0436" rx="2.34061" fill="#0AE989"/>
	<rect opacity="0.7" x="116.742" y="102.838" width="83.9456" height="25.1615" rx="2.34061" fill="#14CBC3"/>
	<rect x="116.742" y="133.268" width="67.6228" height="2.34061" rx="1.1703" fill="#DFE0E3"/>
	<rect x="116.742" y="139.119" width="67.6228" height="2.34061" rx="1.1703" fill="#DFE0E3"/>
	<rect x="116.742" y="144.971" width="67.6228" height="2.34061" rx="1.1703" fill="#DFE0E3"/>
	<rect x="116.742" y="150.822" width="37.8921" height="2.34061" rx="1.1703" fill="#DFE0E3"/>
	<rect x="116.742" y="80.0195" width="34.9773" height="2.92576" rx="1.46288" fill="#DFE0E3"/>
	<rect x="116.742" y="85.8711" width="34.9773" height="2.92576" rx="1.46288" fill="#DFE0E3"/>
	<g filter="url(#filter2_d_1602_337997)">
		<rect x="142.701" y="31.9492" width="124.244" height="167.513" rx="5.16559" fill="white"/>
	</g>
	<rect x="152.258" y="42.2812" width="52.9324" height="12.545" rx="2.95176" fill="#F7CC00"/>
	<rect x="152.258" y="166.992" width="44.1103" height="17.7106" rx="2.95176" fill="#387CC3"/>
	<rect x="152.258" y="89.5078" width="105.865" height="31.7315" rx="2.95176" fill="#2FC6F6"/>
	<rect x="152.258" y="127.881" width="85.2799" height="2.95176" rx="1.47588" fill="#DFE0E3"/>
	<rect x="152.258" y="135.262" width="85.2799" height="2.95177" rx="1.47588" fill="#DFE0E3"/>
	<rect x="152.258" y="142.641" width="85.2799" height="2.95177" rx="1.47588" fill="#DFE0E3"/>
	<rect x="152.258" y="150.02" width="47.7862" height="2.95177" rx="1.47588" fill="#DFE0E3"/>
	<rect x="152.258" y="60.7285" width="44.1103" height="3.6897" rx="1.84485" fill="#DFE0E3"/>
	<rect x="152.258" y="68.1074" width="44.1103" height="3.6897" rx="1.84485" fill="#DFE0E3"/>
	<path d="M234.351 48.6243H232.375V46.641H234.351V48.6243Z" fill="#A8ADB4"/>
	<path fill-rule="evenodd" clip-rule="evenodd" d="M231.387 43.666H235.339C236.43 43.666 237.315 44.5536 237.315 45.6493V49.616C237.315 50.7118 236.43 51.5993 235.339 51.5993H231.387C230.295 51.5993 229.411 50.7118 229.411 49.616V45.6493C229.411 44.5536 230.295 43.666 231.387 43.666ZM231.387 49.616H235.339V45.6493H231.387V49.616Z" fill="#A8ADB4"/>
	<path d="M234.351 63.3577H232.375V61.3744H234.351V63.3577Z" fill="#A8ADB4"/>
	<path fill-rule="evenodd" clip-rule="evenodd" d="M231.387 58.3994H235.339C236.43 58.3994 237.315 59.2869 237.315 60.3827V64.3494C237.315 65.4451 236.43 66.3327 235.339 66.3327H231.387C230.295 66.3327 229.411 65.4451 229.411 64.3494V60.3827C229.411 59.2869 230.295 58.3994 231.387 58.3994ZM231.387 64.3494H235.339V60.3827H231.387V64.3494Z" fill="#A8ADB4"/>
	<path d="M247.053 48.6243H249.029V46.641H247.053V48.6243Z" fill="#A8ADB4"/>
	<path fill-rule="evenodd" clip-rule="evenodd" d="M250.017 43.666H246.065C244.973 43.666 244.089 44.5536 244.089 45.6493V49.616C244.089 50.7118 244.973 51.5993 246.065 51.5993H250.017C251.109 51.5993 251.993 50.7118 251.993 49.616V45.6493C251.993 44.5536 251.109 43.666 250.017 43.666ZM250.017 49.616H246.065V45.6493H250.017V49.616Z" fill="#A8ADB4"/>
	<path d="M240.793 46.4993C240.431 46.4993 240.137 46.7941 240.137 47.1576V47.5411C240.137 47.9046 240.431 48.1993 240.793 48.1993H241.175C241.537 48.1993 241.831 47.9046 241.831 47.5411V47.1576C241.831 46.7941 241.537 46.4993 241.175 46.4993H240.793Z" fill="#A8ADB4"/>
	<path d="M240.137 50.5576C240.137 50.1941 240.431 49.8993 240.793 49.8993H241.175C241.537 49.8993 241.831 50.1941 241.831 50.5576V50.9411C241.831 51.3046 241.537 51.5993 241.175 51.5993H240.793C240.431 51.5993 240.137 51.3046 240.137 50.9411V50.5576Z" fill="#A8ADB4"/>
	<path d="M240.793 54.4327C240.431 54.4327 240.137 54.7274 240.137 55.0909V55.4744C240.137 55.838 240.431 56.1327 240.793 56.1327H241.175C241.537 56.1327 241.831 55.838 241.831 55.4744V55.0909C241.831 54.7274 241.537 54.4327 241.175 54.4327H240.793Z" fill="#A8ADB4"/>
	<path d="M235.621 55.0909C235.621 54.7274 235.915 54.4327 236.277 54.4327H236.659C237.021 54.4327 237.315 54.7274 237.315 55.0909V55.4744C237.315 55.838 237.021 56.1327 236.659 56.1327H236.277C235.915 56.1327 235.621 55.838 235.621 55.4744V55.0909Z" fill="#A8ADB4"/>
	<path d="M232.89 54.4327C232.527 54.4327 232.234 54.7274 232.234 55.0909V55.4744C232.234 55.838 232.527 56.1327 232.89 56.1327H233.272C233.634 56.1327 233.927 55.838 233.927 55.4744V55.0909C233.927 54.7274 233.634 54.4327 233.272 54.4327H232.89Z" fill="#A8ADB4"/>
	<path d="M244.089 55.0909C244.089 54.7274 244.383 54.4327 244.745 54.4327H245.127C245.489 54.4327 245.783 54.7274 245.783 55.0909V55.4744C245.783 55.838 245.489 56.1327 245.127 56.1327H244.745C244.383 56.1327 244.089 55.838 244.089 55.4744V55.0909Z" fill="#A8ADB4"/>
	<path d="M248.132 54.4327C247.77 54.4327 247.476 54.7274 247.476 55.0909V55.4744C247.476 55.838 247.77 56.1327 248.132 56.1327H248.514C248.876 56.1327 249.17 55.838 249.17 55.4744V55.0909C249.17 54.7274 248.876 54.4327 248.514 54.4327H248.132Z" fill="#A8ADB4"/>
	<path d="M241.831 56.7909C241.831 56.4274 242.125 56.1327 242.487 56.1327H242.869C243.231 56.1327 243.525 56.4274 243.525 56.7909V57.1744C243.525 57.538 243.231 57.8327 242.869 57.8327H242.487C242.125 57.8327 241.831 57.538 241.831 57.1744V56.7909Z" fill="#A8ADB4"/>
	<path d="M246.439 56.1327C246.076 56.1327 245.783 56.4274 245.783 56.7909V57.1744C245.783 57.538 246.076 57.8327 246.439 57.8327H246.821C247.183 57.8327 247.476 57.538 247.476 57.1744V56.7909C247.476 56.4274 247.183 56.1327 246.821 56.1327H246.439Z" fill="#A8ADB4"/>
	<path d="M244.089 58.4909C244.089 58.1274 244.383 57.8327 244.745 57.8327H245.127C245.489 57.8327 245.783 58.1274 245.783 58.4909V58.8744C245.783 59.238 245.489 59.5327 245.127 59.5327H244.745C244.383 59.5327 244.089 59.238 244.089 58.8744V58.4909Z" fill="#A8ADB4"/>
	<path d="M240.793 57.8327C240.431 57.8327 240.137 58.1274 240.137 58.4909V58.8744C240.137 59.238 240.431 59.5327 240.793 59.5327H241.175C241.537 59.5327 241.831 59.238 241.831 58.8744V58.4909C241.831 58.1274 241.537 57.8327 241.175 57.8327H240.793Z" fill="#A8ADB4"/>
	<path d="M241.831 60.7576C241.831 60.3941 242.125 60.0993 242.487 60.0993H242.869C243.231 60.0993 243.525 60.3941 243.525 60.7576V61.1411C243.525 61.5046 243.231 61.7994 242.869 61.7994H242.487C242.125 61.7994 241.831 61.5046 241.831 61.1411V60.7576Z" fill="#A8ADB4"/>
	<path d="M244.745 61.7994C244.383 61.7994 244.089 62.0941 244.089 62.4576V62.8411C244.089 63.2046 244.383 63.4994 244.745 63.4994H245.127C245.489 63.4994 245.783 63.2046 245.783 62.8411V62.4576C245.783 62.0941 245.489 61.7994 245.127 61.7994H244.745Z" fill="#A8ADB4"/>
	<path d="M241.831 64.7243C241.831 64.3607 242.125 64.066 242.487 64.066H242.869C243.231 64.066 243.525 64.3607 243.525 64.7243V65.1078C243.525 65.4713 243.231 65.766 242.869 65.766H242.487C242.125 65.766 241.831 65.4713 241.831 65.1078V64.7243Z" fill="#A8ADB4"/>
	<path d="M250.955 56.1327C250.593 56.1327 250.299 56.4274 250.299 56.7909V57.1744C250.299 57.538 250.593 57.8327 250.955 57.8327H251.337C251.699 57.8327 251.993 57.538 251.993 57.1744V56.7909C251.993 56.4274 251.699 56.1327 251.337 56.1327H250.955Z" fill="#A8ADB4"/>
	<path d="M250.299 60.7576C250.299 60.3941 250.593 60.0993 250.955 60.0993H251.337C251.699 60.0993 251.993 60.3941 251.993 60.7576V61.1411C251.993 61.5046 251.699 61.7994 251.337 61.7994H250.955C250.593 61.7994 250.299 61.5046 250.299 61.1411V60.7576Z" fill="#A8ADB4"/>
	<path d="M246.439 60.0993C246.076 60.0993 245.783 60.3941 245.783 60.7576V61.1411C245.783 61.5046 246.076 61.7994 246.439 61.7994H246.821C247.183 61.7994 247.476 61.5046 247.476 61.1411V60.7576C247.476 60.3941 247.183 60.0993 246.821 60.0993H246.439Z" fill="#A8ADB4"/>
	<path d="M245.783 64.7243C245.783 64.3607 246.076 64.066 246.439 64.066H246.821C247.183 64.066 247.476 64.3607 247.476 64.7243V65.1078C247.476 65.4713 247.183 65.766 246.821 65.766H246.439C246.076 65.766 245.783 65.4713 245.783 65.1078V64.7243Z" fill="#A8ADB4"/>
	<path d="M248.132 61.7994C247.77 61.7994 247.476 62.0941 247.476 62.4576V62.8411C247.476 63.2046 247.77 63.4994 248.132 63.4994H248.514C248.876 63.4994 249.17 63.2046 249.17 62.8411V62.4576C249.17 62.0941 248.876 61.7994 248.514 61.7994H248.132Z" fill="#A8ADB4"/>
	<path d="M247.476 58.4909C247.476 58.1274 247.77 57.8327 248.132 57.8327H248.514C248.876 57.8327 249.17 58.1274 249.17 58.4909V58.8744C249.17 59.238 248.876 59.5327 248.514 59.5327H248.132C247.77 59.5327 247.476 59.238 247.476 58.8744V58.4909Z" fill="#A8ADB4"/>
	<path d="M240.793 61.7994C240.431 61.7994 240.137 62.0941 240.137 62.4576V62.8411C240.137 63.2046 240.431 63.4994 240.793 63.4994H241.175C241.537 63.4994 241.831 63.2046 241.831 62.8411V62.4576C241.831 62.0941 241.537 61.7994 241.175 61.7994H240.793Z" fill="#A8ADB4"/>
	<path opacity="0.7" d="M164.144 111V100.431H171.146V102.255H166.356V104.789H170.875V106.518H166.356V109.176H171.146V111H164.144ZM173.757 107.638V105.771H178.503V107.638H173.757ZM181.32 111V100.431H183.532V111H181.32ZM186.29 111V100.431H188.223L192.999 107.301H193.042V100.431H195.247V111H193.328L188.538 104.079H188.494V111H186.29ZM200.876 111L197.338 100.431H199.785L202.202 108.737H202.246L204.655 100.431H207.109L203.571 111H200.876ZM213.814 111.183C210.672 111.183 208.717 109.081 208.717 105.719V105.705C208.717 102.343 210.687 100.248 213.814 100.248C216.949 100.248 218.912 102.35 218.912 105.705V105.719C218.912 109.081 216.957 111.183 213.814 111.183ZM213.814 109.308C215.572 109.308 216.656 107.909 216.656 105.719V105.705C216.656 103.5 215.55 102.123 213.814 102.123C212.086 102.123 210.973 103.493 210.973 105.705V105.719C210.973 107.931 212.079 109.308 213.814 109.308ZM221.34 111V100.431H223.552V111H221.34ZM231.012 111.183C227.921 111.183 225.98 109.118 225.98 105.712V105.705C225.98 102.299 227.929 100.248 231.012 100.248C233.576 100.248 235.414 101.867 235.619 104.108L235.626 104.174H233.473L233.444 104.049C233.195 102.885 232.331 102.123 231.012 102.123C229.32 102.123 228.236 103.485 228.236 105.697V105.705C228.236 107.931 229.32 109.308 231.012 109.308C232.287 109.308 233.18 108.576 233.466 107.323L233.48 107.25H235.634L235.626 107.331C235.421 109.579 233.568 111.183 231.012 111.183ZM238.003 111V100.431H245.005V102.255H240.215V104.789H244.734V106.518H240.215V109.176H245.005V111H238.003Z" fill="white"/>
	<defs>
		<filter id="filter0_d_1602_337997" x="33.7914" y="94.2441" width="248.187" height="141.386" filterUnits="userSpaceOnUse" color-interpolation-filters="sRGB">
			<feFlood flood-opacity="0" result="BackgroundImageFix"/>
			<feColorMatrix in="SourceAlpha" type="matrix" values="0 0 0 0 0 0 0 0 0 0 0 0 0 0 0 0 0 0 127 0" result="hardAlpha"/>
			<feOffset dy="1.68317"/>
			<feGaussianBlur stdDeviation="0.841584"/>
			<feComposite in2="hardAlpha" operator="out"/>
			<feColorMatrix type="matrix" values="0 0 0 0 0 0 0 0 0 0 0 0 0 0 0 0 0 0 0.13 0"/>
			<feBlend mode="normal" in2="BackgroundImageFix" result="effect1_dropShadow_1602_337997"/>
			<feBlend mode="normal" in="SourceGraphic" in2="effect1_dropShadow_1602_337997" result="shape"/>
		</filter>
		<filter id="filter1_d_1602_337997" x="100.308" y="53.5076" width="116.23" height="150.541" filterUnits="userSpaceOnUse" color-interpolation-filters="sRGB">
			<feFlood flood-opacity="0" result="BackgroundImageFix"/>
			<feColorMatrix in="SourceAlpha" type="matrix" values="0 0 0 0 0 0 0 0 0 0 0 0 0 0 0 0 0 0 127 0" result="hardAlpha"/>
			<feOffset dy="5.16559"/>
			<feGaussianBlur stdDeviation="4.42764"/>
			<feComposite in2="hardAlpha" operator="out"/>
			<feColorMatrix type="matrix" values="0 0 0 0 0 0 0 0 0 0 0 0 0 0 0 0 0 0 0.09 0"/>
			<feBlend mode="normal" in2="BackgroundImageFix" result="effect1_dropShadow_1602_337997"/>
			<feBlend mode="normal" in="SourceGraphic" in2="effect1_dropShadow_1602_337997" result="shape"/>
		</filter>
		<filter id="filter2_d_1602_337997" x="133.845" y="28.2595" width="141.955" height="185.222" filterUnits="userSpaceOnUse" color-interpolation-filters="sRGB">
			<feFlood flood-opacity="0" result="BackgroundImageFix"/>
			<feColorMatrix in="SourceAlpha" type="matrix" values="0 0 0 0 0 0 0 0 0 0 0 0 0 0 0 0 0 0 127 0" result="hardAlpha"/>
			<feOffset dy="5.16559"/>
			<feGaussianBlur stdDeviation="4.42764"/>
			<feComposite in2="hardAlpha" operator="out"/>
			<feColorMatrix type="matrix" values="0 0 0 0 0 0 0 0 0 0 0 0 0 0 0 0 0 0 0.09 0"/>
			<feBlend mode="normal" in2="BackgroundImageFix" result="effect1_dropShadow_1602_337997"/>
			<feBlend mode="normal" in="SourceGraphic" in2="effect1_dropShadow_1602_337997" result="shape"/>
		</filter>
		<linearGradient id="paint0_linear_1602_337997" x1="225.641" y1="118.19" x2="37.2125" y2="120.893" gradientUnits="userSpaceOnUse">
			<stop stop-color="#C7C7C7"/>
			<stop offset="0.28125" stop-color="#C7C7C7"/>
			<stop offset="0.578125" stop-color="#EBEBEB"/>
			<stop offset="0.755208" stop-color="#C7C7C7"/>
			<stop offset="1" stop-color="#F3F3F3"/>
		</linearGradient>
		<radialGradient id="paint1_angular_1602_337997" cx="0" cy="0" r="1" gradientUnits="userSpaceOnUse" gradientTransform="translate(157.885 158.625) rotate(-159.037) scale(235.237 237.355)">
			<stop stop-color="#B1ECFF"/>
			<stop offset="1" stop-color="#CBF2FF"/>
		</radialGradient>
		<linearGradient id="paint2_linear_1602_337997" x1="234.601" y1="228.897" x2="31.3192" y2="183.57" gradientUnits="userSpaceOnUse">
			<stop stop-color="#C7C7C7"/>
			<stop offset="0.28125" stop-color="#C7C7C7"/>
			<stop offset="0.578125" stop-color="#EBEBEB"/>
			<stop offset="0.755208" stop-color="#C7C7C7"/>
			<stop offset="1" stop-color="#F3F3F3"/>
		</linearGradient>
		<linearGradient id="paint3_linear_1602_337997" x1="171.225" y1="228.93" x2="134.627" y2="225.345" gradientUnits="userSpaceOnUse">
			<stop stop-color="#C7C7C7"/>
			<stop offset="0.28125" stop-color="#C7C7C7"/>
			<stop offset="0.578125" stop-color="#EBEBEB"/>
			<stop offset="0.755208" stop-color="#C7C7C7"/>
			<stop offset="1" stop-color="#9A9A9A"/>
		</linearGradient>
	</defs>
</svg>
