<svg xmlns="http://www.w3.org/2000/svg" width="470" height="246" fill="none"><path fill="#FF5752" fill-rule="evenodd" d="M431.596 191.987h-19.954a7.12 7.12 0 0 1-.508-.019c-4.51-.105-8.134-3.858-8.134-8.471a8.555 8.555 0 0 1 2.444-5.995 8.31 8.31 0 0 1 2.78-1.867 9.025 9.025 0 0 1 2.553-7.018 8.718 8.718 0 0 1 6.218-2.617c2.987.004 5.624 1.524 7.209 3.844a7.069 7.069 0 0 1 2.407-.419c3.729.005 6.791 2.897 7.146 6.596 3.573.792 6.246 4.031 6.243 7.903-.004 4.463-3.561 8.078-7.946 8.076a8.69 8.69 0 0 1-.458-.013ZM83.233 90.984h-23.19c-.199 0-.395-.007-.59-.021C54.212 90.842 50 86.512 50 81.188a9.834 9.834 0 0 1 2.84-6.916 9.674 9.674 0 0 1 3.231-2.155 10.377 10.377 0 0 1 2.967-8.098A10.165 10.165 0 0 1 66.265 61c3.471.004 6.536 1.758 8.378 4.435a8.27 8.27 0 0 1 2.797-.483c4.333.005 7.892 3.343 8.305 7.61 4.152.915 7.259 4.652 7.255 9.12-.004 5.149-4.138 9.32-9.234 9.318-.18 0-.357-.005-.533-.016Z" clip-rule="evenodd" opacity=".117"/><path stroke="#FF5752" d="M77.513 230.964H24.122c-.457 0-.91-.017-1.358-.05C10.697 230.637 1 220.678 1 208.433a22.606 22.606 0 0 1 6.54-15.907 22.266 22.266 0 0 1 7.438-4.957 23.856 23.856 0 0 1 6.83-18.625A23.414 23.414 0 0 1 38.449 162c7.991.01 15.047 4.044 19.288 10.2a19.065 19.065 0 0 1 6.44-1.11c9.976.012 18.17 7.688 19.12 17.503 9.559 2.104 16.712 10.699 16.704 20.975-.01 11.843-9.527 21.437-21.26 21.432-.412 0-.82-.012-1.227-.036Z" clip-rule="evenodd" opacity=".2"/><path stroke="#FF5752" d="M384.186 71.99h-16.179a5.5 5.5 0 0 1-.412-.016c-3.656-.085-6.595-3.116-6.595-6.842a6.895 6.895 0 0 1 1.982-4.842 6.739 6.739 0 0 1 2.254-1.508 7.274 7.274 0 0 1 2.07-5.668A7.078 7.078 0 0 1 372.348 51c2.421.003 4.56 1.23 5.845 3.104a5.749 5.749 0 0 1 1.951-.337c3.023.003 5.506 2.34 5.794 5.327 2.897.64 5.065 3.256 5.062 6.383-.003 3.605-2.887 6.524-6.443 6.523-.124 0-.248-.004-.371-.01Z" clip-rule="evenodd" opacity=".302"/><path fill="#FFCDCC" fill-rule="evenodd" d="M358 123c0 67.932-55.293 123-123.5 123S111 190.932 111 123C111 55.069 166.292 0 234.5 0 302.707 0 358 55.069 358 123Zm-43 0c0 44.183-36.041 80-80.5 80S154 167.183 154 123s36.04-80 80.5-80c44.459 0 80.5 35.817 80.5 80Z" clip-rule="evenodd" opacity=".212"/><g filter="url(#a)"><path fill="#EEF2F4" d="M168.5 77a5.5 5.5 0 0 1 5.5-5.5h93a5.5 5.5 0 0 1 5.5 5.5v35a5.5 5.5 0 0 1-5.5 5.5h-93a5.5 5.5 0 0 1-5.5-5.5V77Z"/><path fill="#fff" fill-opacity=".8" d="M168.5 77a5.5 5.5 0 0 1 5.5-5.5h93a5.5 5.5 0 0 1 5.5 5.5v35a5.5 5.5 0 0 1-5.5 5.5h-93a5.5 5.5 0 0 1-5.5-5.5V77Z"/><path stroke="#FFCDCC" d="M168.5 77a5.5 5.5 0 0 1 5.5-5.5h93a5.5 5.5 0 0 1 5.5 5.5v35a5.5 5.5 0 0 1-5.5 5.5h-93a5.5 5.5 0 0 1-5.5-5.5V77Z"/><rect width="30" height="5" x="178" y="81" fill="#9DCF00" opacity=".5" rx="2.5"/><rect width="61" height="5" x="178" y="92" fill="#000" fill-opacity=".05" rx="2.5"/><rect width="54" height="5" x="178" y="103" fill="#000" fill-opacity=".05" rx="2.5"/></g><g filter="url(#b)"><path fill="#EEF2F4" d="M198.5 131a5.5 5.5 0 0 1 5.5-5.5h81a5.5 5.5 0 0 1 5.5 5.5v38a5.5 5.5 0 0 1-5.5 5.5h-81a5.5 5.5 0 0 1-5.5-5.5v-38Z"/><path fill="#fff" fill-opacity=".8" d="M198.5 131a5.5 5.5 0 0 1 5.5-5.5h81a5.5 5.5 0 0 1 5.5 5.5v38a5.5 5.5 0 0 1-5.5 5.5h-81a5.5 5.5 0 0 1-5.5-5.5v-38Z"/><path stroke="#FFCDCC" d="M198.5 131a5.5 5.5 0 0 1 5.5-5.5h81a5.5 5.5 0 0 1 5.5 5.5v38a5.5 5.5 0 0 1-5.5 5.5h-81a5.5 5.5 0 0 1-5.5-5.5v-38Z"/><rect width="54" height="5" x="208" y="161" fill="#000" fill-opacity=".05" rx="2.5"/><rect width="75" height="21" x="207" y="134" fill="#2FC6F6" opacity=".2" rx="2"/></g><g filter="url(#c)"><g filter="url(#d)"><circle cx="280.461" cy="159" r="34" fill="#FF5752"/></g><path fill="#fff" fill-rule="evenodd" d="m299.982 168.616-16.594-27.638c-1.279-2.122-4.326-2.122-5.577 0l-16.594 27.638c-1.306 2.176.272 4.924 2.802 4.924h33.188c2.503 0 4.08-2.748 2.775-4.924Zm-21.763-18.008c0-1.225.979-2.204 2.203-2.204h.3c1.224 0 2.203.979 2.203 2.204v8.242a2.195 2.195 0 0 1-2.203 2.204h-.3a2.195 2.195 0 0 1-2.203-2.204v-8.242Zm5.141 15.995a2.787 2.787 0 0 1-2.774 2.775 2.787 2.787 0 0 1-2.775-2.775 2.787 2.787 0 0 1 2.775-2.775 2.787 2.787 0 0 1 2.774 2.775Z" clip-rule="evenodd"/></g><defs><filter id="a" width="119.149" height="61.149" x="160.926" y="66.284" color-interpolation-filters="sRGB" filterUnits="userSpaceOnUse"><feFlood flood-opacity="0" result="BackgroundImageFix"/><feColorMatrix in="SourceAlpha" result="hardAlpha" values="0 0 0 0 0 0 0 0 0 0 0 0 0 0 0 0 0 0 127 0"/><feOffset dy="2.358"/><feGaussianBlur stdDeviation="3.537"/><feComposite in2="hardAlpha" operator="out"/><feColorMatrix values="0 0 0 0 0.423529 0 0 0 0 0.423529 0 0 0 0 0.423529 0 0 0 0.12 0"/><feBlend in2="BackgroundImageFix" result="effect1_dropShadow_4166_113962"/><feBlend in="SourceGraphic" in2="effect1_dropShadow_4166_113962" result="shape"/></filter><filter id="b" width="107.149" height="64.149" x="190.926" y="120.284" color-interpolation-filters="sRGB" filterUnits="userSpaceOnUse"><feFlood flood-opacity="0" result="BackgroundImageFix"/><feColorMatrix in="SourceAlpha" result="hardAlpha" values="0 0 0 0 0 0 0 0 0 0 0 0 0 0 0 0 0 0 127 0"/><feOffset dy="2.358"/><feGaussianBlur stdDeviation="3.537"/><feComposite in2="hardAlpha" operator="out"/><feColorMatrix values="0 0 0 0 0.423529 0 0 0 0 0.423529 0 0 0 0 0.423529 0 0 0 0.12 0"/><feBlend in2="BackgroundImageFix" result="effect1_dropShadow_4166_113962"/><feBlend in="SourceGraphic" in2="effect1_dropShadow_4166_113962" result="shape"/></filter><filter id="c" width="74" height="74" x="243.461" y="125" color-interpolation-filters="sRGB" filterUnits="userSpaceOnUse"><feFlood flood-opacity="0" result="BackgroundImageFix"/><feColorMatrix in="SourceAlpha" result="hardAlpha" values="0 0 0 0 0 0 0 0 0 0 0 0 0 0 0 0 0 0 127 0"/><feOffset dy="3"/><feGaussianBlur stdDeviation="1.5"/><feComposite in2="hardAlpha" operator="out"/><feColorMatrix values="0 0 0 0 0 0 0 0 0 0 0 0 0 0 0 0 0 0 0.05 0"/><feBlend in2="BackgroundImageFix" result="effect1_dropShadow_4166_113962"/><feBlend in="SourceGraphic" in2="effect1_dropShadow_4166_113962" result="shape"/></filter><filter id="d" width="91.08" height="91.08" x="234.921" y="115.73" color-interpolation-filters="sRGB" filterUnits="userSpaceOnUse"><feFlood flood-opacity="0" result="BackgroundImageFix"/><feColorMatrix in="SourceAlpha" result="hardAlpha" values="0 0 0 0 0 0 0 0 0 0 0 0 0 0 0 0 0 0 127 0"/><feOffset dy="2.27"/><feGaussianBlur stdDeviation="5.77"/><feComposite in2="hardAlpha" operator="out"/><feColorMatrix values="0 0 0 0 0.392157 0 0 0 0 0.427451 0 0 0 0 0.482353 0 0 0 0.16 0"/><feBlend in2="BackgroundImageFix" result="effect1_dropShadow_4166_113962"/><feBlend in="SourceGraphic" in2="effect1_dropShadow_4166_113962" result="shape"/></filter></defs></svg>