<svg xmlns="http://www.w3.org/2000/svg" width="470" height="246" fill="none"><path fill="#2FC6F6" fill-rule="evenodd" d="M431.596 191.987h-19.954a7.12 7.12 0 0 1-.508-.019c-4.51-.105-8.134-3.858-8.134-8.471a8.555 8.555 0 0 1 2.444-5.995 8.31 8.31 0 0 1 2.78-1.867 9.025 9.025 0 0 1 2.553-7.018 8.718 8.718 0 0 1 6.218-2.617c2.987.004 5.624 1.524 7.209 3.844a7.069 7.069 0 0 1 2.407-.419c3.729.005 6.791 2.897 7.146 6.596 3.573.792 6.246 4.031 6.243 7.903-.004 4.463-3.561 8.078-7.946 8.076a8.69 8.69 0 0 1-.458-.013ZM83.233 90.984h-23.19c-.199 0-.395-.007-.59-.021C54.212 90.842 50 86.512 50 81.188a9.834 9.834 0 0 1 2.84-6.916 9.674 9.674 0 0 1 3.231-2.155 10.377 10.377 0 0 1 2.967-8.098A10.165 10.165 0 0 1 66.265 61c3.471.004 6.536 1.758 8.378 4.435a8.27 8.27 0 0 1 2.797-.483c4.333.005 7.892 3.343 8.305 7.61 4.152.915 7.259 4.652 7.255 9.12-.004 5.149-4.138 9.32-9.234 9.318-.18 0-.357-.005-.533-.016Z" clip-rule="evenodd" opacity=".117"/><path stroke="#2FC6F6" d="M77.513 230.964H24.122c-.457 0-.91-.017-1.358-.05C10.697 230.637 1 220.678 1 208.433a22.606 22.606 0 0 1 6.54-15.907 22.266 22.266 0 0 1 7.438-4.957 23.856 23.856 0 0 1 6.83-18.625A23.414 23.414 0 0 1 38.449 162c7.991.01 15.047 4.044 19.288 10.2a19.065 19.065 0 0 1 6.44-1.11c9.976.012 18.17 7.688 19.12 17.503 9.559 2.104 16.712 10.699 16.704 20.975-.01 11.843-9.527 21.437-21.26 21.432-.412 0-.82-.012-1.227-.036Z" clip-rule="evenodd" opacity=".2"/><path stroke="#2FC6F6" d="M384.186 71.99h-16.179a5.5 5.5 0 0 1-.412-.016c-3.656-.085-6.595-3.116-6.595-6.842a6.895 6.895 0 0 1 1.982-4.842 6.739 6.739 0 0 1 2.254-1.508 7.274 7.274 0 0 1 2.07-5.668A7.078 7.078 0 0 1 372.348 51c2.421.003 4.56 1.23 5.845 3.104a5.749 5.749 0 0 1 1.951-.337c3.023.003 5.506 2.34 5.794 5.327 2.897.64 5.065 3.256 5.062 6.383-.003 3.605-2.887 6.524-6.443 6.523-.124 0-.248-.004-.371-.01Z" clip-rule="evenodd" opacity=".302"/><path fill="#9CE7FF" fill-rule="evenodd" d="M358 123c0 67.932-55.293 123-123.5 123S111 190.932 111 123C111 55.069 166.292 0 234.5 0 302.707 0 358 55.069 358 123Zm-43 0c0 44.183-36.041 80-80.5 80S154 167.183 154 123s36.04-80 80.5-80c44.459 0 80.5 35.817 80.5 80Z" clip-rule="evenodd" opacity=".212"/><path fill="#A6EAFE" fill-rule="evenodd" d="m281.406 49.133 16.217-3.153a2.056 2.056 0 0 0 1.663-2.071 2.037 2.037 0 0 0-.006-.754l-3.135-16.129a2.064 2.064 0 0 0-4.051.787l2.277 11.705c-32.414-23.407-76.963-26.686-113.404-4.79C144.112 56.871 126.1 98.43 132.152 138.46l.094.15a2.408 2.408 0 0 0 3.342.649c.544-.367.89-.918 1.009-1.514-5.77-38.268 11.454-77.99 46.688-99.16 34.754-20.883 77.22-17.82 108.197 4.4l-10.86 2.112a2.056 2.056 0 0 0 .784 4.036ZM175.875 208.067c32.208 21.989 75.572 24.639 111.19 3.237 35.885-21.561 53.906-61.527 49.243-100.565l-.147-1.179-.051-.076a2.407 2.407 0 0 0-3.216-.691 2.394 2.394 0 0 0-1.145 1.752c4.773 37.564-12.461 76.148-47.002 96.902-34.023 20.443-75.438 17.938-106.228-3.025l11.062-2.151a2.057 2.057 0 0 0-.785-4.036l-16.216 3.152a2.058 2.058 0 0 0-1.664 2.072c-.043.243-.043.497.007.754l3.135 16.129a2.063 2.063 0 0 0 4.051-.788l-2.234-11.487Z" clip-rule="evenodd"/><g filter="url(#a)"><path fill="#EEF2F4" d="M168 77a6 6 0 0 1 6-6h93a6 6 0 0 1 6 6v35a6 6 0 0 1-6 6h-93a6 6 0 0 1-6-6V77Z"/><path fill="#fff" fill-opacity=".8" d="M168 77a6 6 0 0 1 6-6h93a6 6 0 0 1 6 6v35a6 6 0 0 1-6 6h-93a6 6 0 0 1-6-6V77Z"/><path stroke="#000" stroke-opacity=".06" d="M168.5 77a5.5 5.5 0 0 1 5.5-5.5h93a5.5 5.5 0 0 1 5.5 5.5v35a5.5 5.5 0 0 1-5.5 5.5h-93a5.5 5.5 0 0 1-5.5-5.5V77Z"/><rect width="30" height="5" x="178" y="81" fill="#9DCF00" opacity=".5" rx="2.5"/><rect width="61" height="5" x="178" y="92" fill="#000" fill-opacity=".05" rx="2.5"/><rect width="54" height="5" x="178" y="103" fill="#000" fill-opacity=".05" rx="2.5"/></g><g filter="url(#b)"><path fill="#EEF2F4" d="M198 131a6 6 0 0 1 6-6h81a6 6 0 0 1 6 6v38a6 6 0 0 1-6 6h-81a6 6 0 0 1-6-6v-38Z"/><path fill="#fff" fill-opacity=".8" d="M198 131a6 6 0 0 1 6-6h81a6 6 0 0 1 6 6v38a6 6 0 0 1-6 6h-81a6 6 0 0 1-6-6v-38Z"/><path stroke="#000" stroke-opacity=".06" d="M198.5 131a5.5 5.5 0 0 1 5.5-5.5h81a5.5 5.5 0 0 1 5.5 5.5v38a5.5 5.5 0 0 1-5.5 5.5h-81a5.5 5.5 0 0 1-5.5-5.5v-38Z"/><rect width="54" height="5" x="208" y="161" fill="#000" fill-opacity=".05" rx="2.5"/><rect width="75" height="21" x="207" y="134" fill="#2FC6F6" opacity=".2" rx="2"/></g><g filter="url(#c)"><g filter="url(#d)"><circle cx="280.613" cy="155.614" r="34" fill="#2FC6F6"/></g><rect width="6.726" height="28.882" x="266.564" y="174.256" fill="#fff" rx="1.595" transform="rotate(-90 266.564 174.256)"/><path fill="#fff" fill-rule="evenodd" d="M293.566 151.497c.603-.603.176-1.634-.677-1.634h-8.343v-13.382c0-.881-.714-1.595-1.595-1.595h-3.89c-.881 0-1.595.714-1.595 1.595v13.382h-8.343c-.853 0-1.28 1.031-.677 1.634l10.304 10.304a3.19 3.19 0 0 0 4.512 0l10.304-10.304Z" clip-rule="evenodd"/></g><defs><filter id="a" width="119.149" height="61.149" x="160.926" y="66.284" color-interpolation-filters="sRGB" filterUnits="userSpaceOnUse"><feFlood flood-opacity="0" result="BackgroundImageFix"/><feColorMatrix in="SourceAlpha" result="hardAlpha" values="0 0 0 0 0 0 0 0 0 0 0 0 0 0 0 0 0 0 127 0"/><feOffset dy="2.358"/><feGaussianBlur stdDeviation="3.537"/><feComposite in2="hardAlpha" operator="out"/><feColorMatrix values="0 0 0 0 0.423529 0 0 0 0 0.423529 0 0 0 0 0.423529 0 0 0 0.12 0"/><feBlend in2="BackgroundImageFix" result="effect1_dropShadow_4166_113703"/><feBlend in="SourceGraphic" in2="effect1_dropShadow_4166_113703" result="shape"/></filter><filter id="b" width="107.149" height="64.149" x="190.926" y="120.284" color-interpolation-filters="sRGB" filterUnits="userSpaceOnUse"><feFlood flood-opacity="0" result="BackgroundImageFix"/><feColorMatrix in="SourceAlpha" result="hardAlpha" values="0 0 0 0 0 0 0 0 0 0 0 0 0 0 0 0 0 0 127 0"/><feOffset dy="2.358"/><feGaussianBlur stdDeviation="3.537"/><feComposite in2="hardAlpha" operator="out"/><feColorMatrix values="0 0 0 0 0.423529 0 0 0 0 0.423529 0 0 0 0 0.423529 0 0 0 0.12 0"/><feBlend in2="BackgroundImageFix" result="effect1_dropShadow_4166_113703"/><feBlend in="SourceGraphic" in2="effect1_dropShadow_4166_113703" result="shape"/></filter><filter id="c" width="74" height="74" x="243.613" y="121.614" color-interpolation-filters="sRGB" filterUnits="userSpaceOnUse"><feFlood flood-opacity="0" result="BackgroundImageFix"/><feColorMatrix in="SourceAlpha" result="hardAlpha" values="0 0 0 0 0 0 0 0 0 0 0 0 0 0 0 0 0 0 127 0"/><feOffset dy="3"/><feGaussianBlur stdDeviation="1.5"/><feComposite in2="hardAlpha" operator="out"/><feColorMatrix values="0 0 0 0 0 0 0 0 0 0 0 0 0 0 0 0 0 0 0.05 0"/><feBlend in2="BackgroundImageFix" result="effect1_dropShadow_4166_113703"/><feBlend in="SourceGraphic" in2="effect1_dropShadow_4166_113703" result="shape"/></filter><filter id="d" width="91.08" height="91.08" x="235.073" y="112.344" color-interpolation-filters="sRGB" filterUnits="userSpaceOnUse"><feFlood flood-opacity="0" result="BackgroundImageFix"/><feColorMatrix in="SourceAlpha" result="hardAlpha" values="0 0 0 0 0 0 0 0 0 0 0 0 0 0 0 0 0 0 127 0"/><feOffset dy="2.27"/><feGaussianBlur stdDeviation="5.77"/><feComposite in2="hardAlpha" operator="out"/><feColorMatrix values="0 0 0 0 0.392157 0 0 0 0 0.427451 0 0 0 0 0.482353 0 0 0 0.16 0"/><feBlend in2="BackgroundImageFix" result="effect1_dropShadow_4166_113703"/><feBlend in="SourceGraphic" in2="effect1_dropShadow_4166_113703" result="shape"/></filter></defs></svg>