<svg width="470" height="246" viewBox="0 0 470 246" fill="none" xmlns="http://www.w3.org/2000/svg">
<path opacity="0.117164" fill-rule="evenodd" clip-rule="evenodd" d="M431.596 191.987H411.642C411.471 191.987 411.302 191.98 411.134 191.968C406.624 191.863 403 188.11 403 183.497C403.001 181.248 403.88 179.092 405.444 177.502C406.245 176.688 407.193 176.056 408.224 175.635C408.207 175.406 408.198 175.175 408.198 174.941C408.2 172.568 409.127 170.293 410.777 168.617C412.427 166.94 414.664 165.999 416.995 166C419.982 166.004 422.619 167.524 424.204 169.844C424.957 169.572 425.767 169.425 426.611 169.425C430.34 169.43 433.402 172.322 433.757 176.021C437.33 176.813 440.003 180.052 440 183.924C439.996 188.387 436.439 192.002 432.054 192C431.9 192 431.748 191.995 431.596 191.987Z" fill="#2FC6F6"/>
<path opacity="0.117164" fill-rule="evenodd" clip-rule="evenodd" d="M83.2332 90.9845H60.0429C59.8444 90.9845 59.6477 90.9771 59.453 90.9626C54.2119 90.842 50.0003 86.512 50 81.1884C50.0015 78.5936 51.0232 76.1058 52.8404 74.2721C53.7718 73.3321 54.8731 72.6036 56.0713 72.1168C56.0513 71.8528 56.0411 71.586 56.0411 71.3168C56.0427 68.5789 57.1208 65.9539 59.0381 64.0191C60.9555 62.0843 63.5551 60.9983 66.265 61C69.7363 61.0043 72.801 62.7581 74.6429 65.4349C75.5175 65.1218 76.4591 64.9516 77.44 64.9521C81.7732 64.9574 85.3321 68.2946 85.7447 72.5624C89.8966 73.4769 93.0037 77.2139 93 81.6819C92.9958 86.8309 88.862 91.0021 83.7655 91C83.5868 90.9999 83.4093 90.9947 83.2332 90.9845Z" fill="#2FC6F6"/>
<path opacity="0.2" fill-rule="evenodd" clip-rule="evenodd" d="M77.5135 230.964H24.122C23.6651 230.964 23.2122 230.947 22.7638 230.914C10.6972 230.637 1.00061 220.678 1 208.433C1.00351 202.465 3.35581 196.743 7.53941 192.526C9.68388 190.364 12.2195 188.688 14.9781 187.569C14.932 186.961 14.9085 186.348 14.9085 185.729C14.9123 179.432 17.3944 173.394 21.8088 168.944C26.2231 164.494 32.2082 161.996 38.4472 162C46.4393 162.01 53.4954 166.044 57.7359 172.2C59.7497 171.48 61.9174 171.089 64.1758 171.09C74.1522 171.102 82.3461 178.778 83.296 188.593C92.855 190.697 100.008 199.292 100 209.568C99.9903 221.411 90.4729 231.005 78.7393 231C78.3278 231 77.9192 230.988 77.5135 230.964V230.964Z" stroke="#2FC6F6"/>
<path opacity="0.302432" fill-rule="evenodd" clip-rule="evenodd" d="M384.186 71.9892H368.007C367.868 71.9892 367.731 71.984 367.595 71.9738C363.939 71.8894 361 68.8584 361 65.1319C361.001 63.3155 361.714 61.574 362.982 60.2904C363.631 59.6325 364.4 59.1225 365.236 58.7818C365.222 58.597 365.215 58.4102 365.215 58.2217C365.216 56.3052 365.968 54.4677 367.306 53.1134C368.643 51.759 370.457 50.9988 372.348 51C374.769 51.003 376.908 52.2306 378.193 54.1044C378.803 53.8852 379.46 53.7661 380.144 53.7665C383.167 53.7702 385.65 56.1062 385.938 59.0937C388.835 59.7338 391.003 62.3497 391 65.4773C390.997 69.0816 388.113 72.0015 384.557 72C384.433 71.9999 384.309 71.9963 384.186 71.9892V71.9892Z" stroke="#2FC6F6"/>
<path opacity="0.211609" fill-rule="evenodd" clip-rule="evenodd" d="M358 123C358 190.932 302.707 246 234.5 246C166.293 246 111 190.932 111 123C111 55.0689 166.292 0 234.5 0C302.707 0 358 55.0689 358 123ZM315 123C315 167.183 278.959 203 234.5 203C190.041 203 154 167.183 154 123C154 78.8172 190.04 43 234.5 43C278.959 43 315 78.8172 315 123Z" fill="#9CE7FF"/>
<path fill-rule="evenodd" clip-rule="evenodd" d="M281.406 49.1326L297.623 45.9804C298.624 45.7858 299.313 44.8953 299.286 43.909C299.33 43.6661 299.33 43.4114 299.28 43.1547L296.145 27.0261C295.927 25.9076 294.844 25.1771 293.726 25.3945C292.607 25.6119 291.877 26.6949 292.094 27.8134L294.371 39.5184C261.957 16.1112 217.408 12.8317 180.967 34.7275C144.112 56.8724 126.1 98.4301 132.152 138.46L132.246 138.61C132.99 139.712 134.486 140.002 135.588 139.259C136.132 138.892 136.478 138.341 136.597 137.745C130.827 99.4772 148.051 59.755 183.285 38.5847C218.039 17.7024 260.505 20.765 291.482 42.9847L280.622 45.0967C279.507 45.3134 278.78 46.3924 278.996 47.5069C279.213 48.6213 280.292 49.3492 281.406 49.1326ZM175.875 208.067C208.083 230.056 251.447 232.706 287.065 211.304C322.95 189.743 340.971 149.777 336.308 110.739L336.161 109.56L336.11 109.484C335.394 108.45 333.987 108.136 332.894 108.793C332.239 109.187 331.839 109.842 331.749 110.545C336.522 148.109 319.288 186.693 284.747 207.447C250.724 227.89 209.309 225.385 178.519 204.422L189.581 202.271C190.695 202.054 191.423 200.975 191.207 199.861C190.99 198.746 189.911 198.019 188.796 198.235L172.58 201.387C171.579 201.582 170.89 202.472 170.916 203.459C170.873 203.702 170.873 203.956 170.923 204.213L174.058 220.342C174.276 221.46 175.359 222.191 176.477 221.973C177.596 221.756 178.326 220.673 178.109 219.554L175.875 208.067Z" fill="#A6EAFE"/>
<g filter="url(#filter0_d_4166_113797)">
<path d="M168 77C168 73.6863 170.686 71 174 71H267C270.314 71 273 73.6863 273 77V112C273 115.314 270.314 118 267 118H174C170.686 118 168 115.314 168 112V77Z" fill="#EEF2F4"/>
<path d="M168 77C168 73.6863 170.686 71 174 71H267C270.314 71 273 73.6863 273 77V112C273 115.314 270.314 118 267 118H174C170.686 118 168 115.314 168 112V77Z" fill="white" fill-opacity="0.8"/>
<path d="M168.5 77C168.5 73.9624 170.962 71.5 174 71.5H267C270.038 71.5 272.5 73.9624 272.5 77V112C272.5 115.038 270.038 117.5 267 117.5H174C170.962 117.5 168.5 115.038 168.5 112V77Z" stroke="black" stroke-opacity="0.06"/>
<rect opacity="0.5" x="178" y="81" width="30" height="5" rx="2.5" fill="#9DCF00"/>
<rect x="178" y="92" width="61" height="5" rx="2.5" fill="black" fill-opacity="0.05"/>
<rect x="178" y="103" width="54" height="5" rx="2.5" fill="black" fill-opacity="0.05"/>
</g>
<g filter="url(#filter1_d_4166_113797)">
<path d="M198 131C198 127.686 200.686 125 204 125H285C288.314 125 291 127.686 291 131V169C291 172.314 288.314 175 285 175H204C200.686 175 198 172.314 198 169V131Z" fill="#EEF2F4"/>
<path d="M198 131C198 127.686 200.686 125 204 125H285C288.314 125 291 127.686 291 131V169C291 172.314 288.314 175 285 175H204C200.686 175 198 172.314 198 169V131Z" fill="white" fill-opacity="0.8"/>
<path d="M198.5 131C198.5 127.962 200.962 125.5 204 125.5H285C288.038 125.5 290.5 127.962 290.5 131V169C290.5 172.038 288.038 174.5 285 174.5H204C200.962 174.5 198.5 172.038 198.5 169V131Z" stroke="black" stroke-opacity="0.06"/>
<rect x="208" y="161" width="54" height="5" rx="2.5" fill="black" fill-opacity="0.05"/>
<rect opacity="0.2" x="207" y="134" width="75" height="21" rx="2" fill="#2FC6F6"/>
</g>
<g filter="url(#filter2_d_4166_113797)">
<g filter="url(#filter3_d_4166_113797)">
<circle cx="280.614" cy="155.614" r="34" fill="#2FC6F6"/>
</g>
<rect x="266.565" y="174.256" width="6.7258" height="28.8822" rx="1.59548" transform="rotate(-90 266.565 174.256)" fill="white"/>
<path fill-rule="evenodd" clip-rule="evenodd" d="M293.566 151.497C294.169 150.894 293.742 149.863 292.889 149.863H284.546L284.546 136.481C284.546 135.6 283.832 134.886 282.951 134.886L279.061 134.886C278.18 134.886 277.466 135.6 277.466 136.481L277.466 149.863H269.123C268.27 149.863 267.843 150.894 268.446 151.497L278.75 161.801C279.996 163.047 282.016 163.047 283.262 161.801L293.566 151.497Z" fill="white"/>
</g>
<defs>
<filter id="filter0_d_4166_113797" x="160.926" y="66.2837" width="119.149" height="61.1488" filterUnits="userSpaceOnUse" color-interpolation-filters="sRGB">
<feFlood flood-opacity="0" result="BackgroundImageFix"/>
<feColorMatrix in="SourceAlpha" type="matrix" values="0 0 0 0 0 0 0 0 0 0 0 0 0 0 0 0 0 0 127 0" result="hardAlpha"/>
<feOffset dy="2.35813"/>
<feGaussianBlur stdDeviation="3.5372"/>
<feComposite in2="hardAlpha" operator="out"/>
<feColorMatrix type="matrix" values="0 0 0 0 0.423529 0 0 0 0 0.423529 0 0 0 0 0.423529 0 0 0 0.12 0"/>
<feBlend mode="normal" in2="BackgroundImageFix" result="effect1_dropShadow_4166_113797"/>
<feBlend mode="normal" in="SourceGraphic" in2="effect1_dropShadow_4166_113797" result="shape"/>
</filter>
<filter id="filter1_d_4166_113797" x="190.926" y="120.284" width="107.149" height="64.1488" filterUnits="userSpaceOnUse" color-interpolation-filters="sRGB">
<feFlood flood-opacity="0" result="BackgroundImageFix"/>
<feColorMatrix in="SourceAlpha" type="matrix" values="0 0 0 0 0 0 0 0 0 0 0 0 0 0 0 0 0 0 127 0" result="hardAlpha"/>
<feOffset dy="2.35813"/>
<feGaussianBlur stdDeviation="3.5372"/>
<feComposite in2="hardAlpha" operator="out"/>
<feColorMatrix type="matrix" values="0 0 0 0 0.423529 0 0 0 0 0.423529 0 0 0 0 0.423529 0 0 0 0.12 0"/>
<feBlend mode="normal" in2="BackgroundImageFix" result="effect1_dropShadow_4166_113797"/>
<feBlend mode="normal" in="SourceGraphic" in2="effect1_dropShadow_4166_113797" result="shape"/>
</filter>
<filter id="filter2_d_4166_113797" x="243.614" y="121.614" width="74" height="74" filterUnits="userSpaceOnUse" color-interpolation-filters="sRGB">
<feFlood flood-opacity="0" result="BackgroundImageFix"/>
<feColorMatrix in="SourceAlpha" type="matrix" values="0 0 0 0 0 0 0 0 0 0 0 0 0 0 0 0 0 0 127 0" result="hardAlpha"/>
<feOffset dy="3"/>
<feGaussianBlur stdDeviation="1.5"/>
<feComposite in2="hardAlpha" operator="out"/>
<feColorMatrix type="matrix" values="0 0 0 0 0 0 0 0 0 0 0 0 0 0 0 0 0 0 0.05 0"/>
<feBlend mode="normal" in2="BackgroundImageFix" result="effect1_dropShadow_4166_113797"/>
<feBlend mode="normal" in="SourceGraphic" in2="effect1_dropShadow_4166_113797" result="shape"/>
</filter>
<filter id="filter3_d_4166_113797" x="235.074" y="112.344" width="91.08" height="91.08" filterUnits="userSpaceOnUse" color-interpolation-filters="sRGB">
<feFlood flood-opacity="0" result="BackgroundImageFix"/>
<feColorMatrix in="SourceAlpha" type="matrix" values="0 0 0 0 0 0 0 0 0 0 0 0 0 0 0 0 0 0 127 0" result="hardAlpha"/>
<feOffset dy="2.27"/>
<feGaussianBlur stdDeviation="5.77"/>
<feComposite in2="hardAlpha" operator="out"/>
<feColorMatrix type="matrix" values="0 0 0 0 0.392157 0 0 0 0 0.427451 0 0 0 0 0.482353 0 0 0 0.16 0"/>
<feBlend mode="normal" in2="BackgroundImageFix" result="effect1_dropShadow_4166_113797"/>
<feBlend mode="normal" in="SourceGraphic" in2="effect1_dropShadow_4166_113797" result="shape"/>
</filter>
</defs>
</svg>
