<svg xmlns="http://www.w3.org/2000/svg" width="268" height="140" fill="none"><path fill="#FF5752" fill-rule="evenodd" d="M245.624 109.261h-11.356c-.098 0-.194-.004-.289-.011-2.567-.059-4.629-2.195-4.629-4.821 0-1.28.501-2.507 1.391-3.411a4.727 4.727 0 0 1 1.582-1.063 5.152 5.152 0 0 1 1.453-3.994 4.956 4.956 0 0 1 3.538-1.49c1.7.003 3.201.868 4.103 2.188.428-.154.89-.238 1.37-.238 2.122.003 3.865 1.649 4.067 3.754 2.033.451 3.554 2.294 3.553 4.498-.003 2.539-2.027 4.596-4.523 4.595-.087 0-.174-.002-.26-.007ZM47.368 51.78H34.17c-.112 0-.224-.005-.335-.013-2.983-.068-5.38-2.533-5.38-5.562 0-1.477.582-2.893 1.617-3.936a5.506 5.506 0 0 1 1.838-1.227 5.906 5.906 0 0 1 1.688-4.608 5.785 5.785 0 0 1 4.114-1.719c1.975.003 3.72 1 4.767 2.524a4.708 4.708 0 0 1 1.592-.274c2.466.002 4.492 1.902 4.727 4.33 2.362.521 4.13 2.648 4.129 5.19-.003 2.93-2.355 5.305-5.256 5.303-.102 0-.203-.002-.303-.008Z" clip-rule="evenodd" opacity=".117"/><path stroke="#FF5752" stroke-width=".569" d="M44.114 131.443H13.728c-.26 0-.518-.009-.773-.028C6.088 131.257.57 125.589.57 118.621a12.865 12.865 0 0 1 3.722-9.053 12.665 12.665 0 0 1 4.233-2.821 13.576 13.576 0 0 1 3.887-10.6 13.325 13.325 0 0 1 9.47-3.952c4.548.006 8.564 2.302 10.977 5.805 1.146-.41 2.38-.632 3.665-.632 5.678.007 10.34 4.376 10.881 9.962 5.44 1.197 9.512 6.088 9.507 11.937-.006 6.74-5.422 12.199-12.1 12.197-.234 0-.467-.007-.697-.021Z" clip-rule="evenodd" opacity=".2"/><path stroke="#FF5752" stroke-width=".569" d="M218.643 40.97h-9.208c-.079 0-.157-.003-.234-.01-2.081-.047-3.754-1.772-3.754-3.893a3.929 3.929 0 0 1 1.128-2.755 3.84 3.84 0 0 1 1.283-.859 4.144 4.144 0 0 1 1.178-3.226 4.028 4.028 0 0 1 2.869-1.203c1.379.002 2.595.7 3.327 1.767a3.27 3.27 0 0 1 1.11-.192c1.721.002 3.134 1.331 3.298 3.032 1.648.364 2.882 1.853 2.88 3.633-.001 2.05-1.643 3.712-3.666 3.712-.071 0-.142-.002-.211-.007Z" clip-rule="evenodd" opacity=".302"/><path fill="#FFCDCC" fill-rule="evenodd" d="M203.74 70c0 38.661-31.467 70-70.285 70-38.817 0-70.284-31.339-70.284-70 0-38.66 31.467-70 70.284-70 38.818 0 70.285 31.34 70.285 70Zm-24.472 0c0 25.145-20.511 45.528-45.813 45.528-25.301 0-45.813-20.383-45.813-45.528s20.511-45.528 45.813-45.528c25.302 0 45.813 20.383 45.813 45.528Z" clip-rule="evenodd" opacity=".212"/><g filter="url(#a)"><path fill="#EEF2F4" d="M99.025 40.69h52.927a3.13 3.13 0 0 1 3.13 3.13v19.92a3.13 3.13 0 0 1-3.13 3.13H99.025a3.13 3.13 0 0 1-3.13-3.13V43.82a3.13 3.13 0 0 1 3.13-3.13Z"/><path fill="#fff" fill-opacity=".8" d="M99.025 40.69h52.927a3.13 3.13 0 0 1 3.13 3.13v19.92a3.13 3.13 0 0 1-3.13 3.13H99.025a3.13 3.13 0 0 1-3.13-3.13V43.82a3.13 3.13 0 0 1 3.13-3.13Z"/><path stroke="#FFCDCC" stroke-width=".569" d="M99.025 40.69h52.927a3.13 3.13 0 0 1 3.13 3.13v19.92a3.13 3.13 0 0 1-3.13 3.13H99.025a3.13 3.13 0 0 1-3.13-3.13V43.82a3.13 3.13 0 0 1 3.13-3.13Z"/><rect width="17.073" height="2.846" x="101.302" y="46.097" fill="#9DCF00" opacity=".5" rx="1.423"/><rect width="34.715" height="2.846" x="101.302" y="52.357" fill="#000" fill-opacity=".05" rx="1.423"/><rect width="30.732" height="2.846" x="101.302" y="58.618" fill="#000" fill-opacity=".05" rx="1.423"/></g><g filter="url(#b)"><path fill="#EEF2F4" d="M116.098 71.423h46.098a3.13 3.13 0 0 1 3.13 3.13v21.626a3.13 3.13 0 0 1-3.13 3.13h-46.098a3.13 3.13 0 0 1-3.13-3.13V74.553a3.13 3.13 0 0 1 3.13-3.13Z"/><path fill="#fff" fill-opacity=".8" d="M116.098 71.423h46.098a3.13 3.13 0 0 1 3.13 3.13v21.626a3.13 3.13 0 0 1-3.13 3.13h-46.098a3.13 3.13 0 0 1-3.13-3.13V74.553a3.13 3.13 0 0 1 3.13-3.13Z"/><path stroke="#FFCDCC" stroke-width=".569" d="M116.098 71.423h46.098a3.13 3.13 0 0 1 3.13 3.13v21.626a3.13 3.13 0 0 1-3.13 3.13h-46.098a3.13 3.13 0 0 1-3.13-3.13V74.553a3.13 3.13 0 0 1 3.13-3.13Z"/><rect width="30.732" height="2.846" x="118.375" y="91.626" fill="#000" fill-opacity=".05" rx="1.423"/><rect width="42.683" height="11.951" x="117.806" y="76.26" fill="#2FC6F6" opacity=".2" rx="1.138"/></g><g filter="url(#c)"><g filter="url(#d)"><circle cx="159.611" cy="90.488" r="19.35" fill="#FF5752"/></g><path fill="#fff" fill-rule="evenodd" d="m170.721 95.96-9.444-15.73c-.728-1.207-2.462-1.207-3.174 0l-9.444 15.73c-.743 1.239.155 2.802 1.595 2.802h18.887c1.425 0 2.323-1.563 1.58-2.802Zm-12.386-10.249a1.25 1.25 0 0 1 1.254-1.254h.171a1.25 1.25 0 0 1 1.254 1.254v4.691a1.25 1.25 0 0 1-1.254 1.254h-.171a1.25 1.25 0 0 1-1.254-1.254v-4.69Zm2.926 9.103c0 .867-.712 1.58-1.579 1.58a1.586 1.586 0 0 1-1.579-1.58c0-.867.712-1.579 1.579-1.579s1.579.712 1.579 1.58Z" clip-rule="evenodd"/></g><defs><filter id="a" width="67.808" height="34.8" x="91.584" y="37.722" color-interpolation-filters="sRGB" filterUnits="userSpaceOnUse"><feFlood flood-opacity="0" result="BackgroundImageFix"/><feColorMatrix in="SourceAlpha" result="hardAlpha" values="0 0 0 0 0 0 0 0 0 0 0 0 0 0 0 0 0 0 127 0"/><feOffset dy="1.342"/><feGaussianBlur stdDeviation="2.013"/><feComposite in2="hardAlpha" operator="out"/><feColorMatrix values="0 0 0 0 0.423529 0 0 0 0 0.423529 0 0 0 0 0.423529 0 0 0 0.12 0"/><feBlend in2="BackgroundImageFix" result="effect1_dropShadow_4166_114218"/><feBlend in="SourceGraphic" in2="effect1_dropShadow_4166_114218" result="shape"/></filter><filter id="b" width="60.979" height="36.507" x="108.658" y="68.454" color-interpolation-filters="sRGB" filterUnits="userSpaceOnUse"><feFlood flood-opacity="0" result="BackgroundImageFix"/><feColorMatrix in="SourceAlpha" result="hardAlpha" values="0 0 0 0 0 0 0 0 0 0 0 0 0 0 0 0 0 0 127 0"/><feOffset dy="1.342"/><feGaussianBlur stdDeviation="2.013"/><feComposite in2="hardAlpha" operator="out"/><feColorMatrix values="0 0 0 0 0.423529 0 0 0 0 0.423529 0 0 0 0 0.423529 0 0 0 0.12 0"/><feBlend in2="BackgroundImageFix" result="effect1_dropShadow_4166_114218"/><feBlend in="SourceGraphic" in2="effect1_dropShadow_4166_114218" result="shape"/></filter><filter id="c" width="42.114" height="42.114" x="138.554" y="71.138" color-interpolation-filters="sRGB" filterUnits="userSpaceOnUse"><feFlood flood-opacity="0" result="BackgroundImageFix"/><feColorMatrix in="SourceAlpha" result="hardAlpha" values="0 0 0 0 0 0 0 0 0 0 0 0 0 0 0 0 0 0 127 0"/><feOffset dy="1.707"/><feGaussianBlur stdDeviation=".854"/><feComposite in2="hardAlpha" operator="out"/><feColorMatrix values="0 0 0 0 0 0 0 0 0 0 0 0 0 0 0 0 0 0 0.05 0"/><feBlend in2="BackgroundImageFix" result="effect1_dropShadow_4166_114218"/><feBlend in="SourceGraphic" in2="effect1_dropShadow_4166_114218" result="shape"/></filter><filter id="d" width="51.834" height="51.834" x="133.694" y="65.863" color-interpolation-filters="sRGB" filterUnits="userSpaceOnUse"><feFlood flood-opacity="0" result="BackgroundImageFix"/><feColorMatrix in="SourceAlpha" result="hardAlpha" values="0 0 0 0 0 0 0 0 0 0 0 0 0 0 0 0 0 0 127 0"/><feOffset dy="1.292"/><feGaussianBlur stdDeviation="3.284"/><feComposite in2="hardAlpha" operator="out"/><feColorMatrix values="0 0 0 0 0.392157 0 0 0 0 0.427451 0 0 0 0 0.482353 0 0 0 0.16 0"/><feBlend in2="BackgroundImageFix" result="effect1_dropShadow_4166_114218"/><feBlend in="SourceGraphic" in2="effect1_dropShadow_4166_114218" result="shape"/></filter></defs></svg>