<svg xmlns="http://www.w3.org/2000/svg" width="268" height="140" fill="none"><path fill="#2FC6F6" fill-rule="evenodd" d="M245.624 109.261h-11.356c-.098 0-.194-.004-.289-.011-2.567-.059-4.629-2.195-4.629-4.821 0-1.28.501-2.507 1.391-3.411a4.727 4.727 0 0 1 1.582-1.063 5.152 5.152 0 0 1 1.453-3.994 4.956 4.956 0 0 1 3.538-1.49c1.7.003 3.201.868 4.103 2.188.428-.154.89-.238 1.37-.238 2.122.003 3.865 1.649 4.067 3.754 2.033.451 3.554 2.294 3.553 4.498-.003 2.539-2.027 4.596-4.523 4.595-.087 0-.174-.002-.26-.007ZM47.368 51.78H34.17c-.112 0-.224-.005-.335-.013-2.983-.068-5.38-2.533-5.38-5.562 0-1.477.582-2.893 1.617-3.936a5.506 5.506 0 0 1 1.838-1.227 5.906 5.906 0 0 1 1.688-4.608 5.785 5.785 0 0 1 4.114-1.719c1.975.003 3.72 1 4.767 2.524a4.708 4.708 0 0 1 1.592-.274c2.466.002 4.492 1.902 4.727 4.33 2.362.521 4.13 2.648 4.129 5.19-.003 2.93-2.355 5.305-5.256 5.303-.102 0-.203-.002-.303-.008Z" clip-rule="evenodd" opacity=".117"/><path stroke="#2FC6F6" stroke-width=".569" d="M44.114 131.443H13.728c-.26 0-.518-.009-.773-.028C6.088 131.257.57 125.589.57 118.621a12.865 12.865 0 0 1 3.722-9.053 12.665 12.665 0 0 1 4.233-2.821 13.576 13.576 0 0 1 3.887-10.6 13.325 13.325 0 0 1 9.47-3.952c4.548.006 8.564 2.302 10.977 5.805 1.146-.41 2.38-.632 3.665-.632 5.678.007 10.34 4.376 10.881 9.962 5.44 1.197 9.512 6.088 9.507 11.937-.006 6.74-5.422 12.199-12.1 12.197-.234 0-.467-.007-.697-.021Z" clip-rule="evenodd" opacity=".2"/><path stroke="#2FC6F6" stroke-width=".569" d="M218.643 40.97h-9.208c-.079 0-.157-.003-.234-.01-2.081-.047-3.754-1.772-3.754-3.893a3.929 3.929 0 0 1 1.128-2.755 3.84 3.84 0 0 1 1.283-.859 4.144 4.144 0 0 1 1.178-3.226 4.028 4.028 0 0 1 2.869-1.203c1.379.002 2.595.7 3.327 1.767a3.27 3.27 0 0 1 1.11-.192c1.721.002 3.134 1.331 3.298 3.032 1.648.364 2.882 1.853 2.88 3.633-.001 2.05-1.643 3.712-3.666 3.712-.071 0-.142-.002-.211-.007Z" clip-rule="evenodd" opacity=".302"/><path fill="#9CE7FF" fill-rule="evenodd" d="M203.74 70c0 38.661-31.467 70-70.285 70-38.817 0-70.284-31.339-70.284-70 0-38.66 31.467-70 70.284-70 38.818 0 70.285 31.34 70.285 70Zm-24.472 0c0 25.145-20.511 45.528-45.813 45.528-25.301 0-45.813-20.383-45.813-45.528s20.511-45.529 45.813-45.529c25.302 0 45.813 20.384 45.813 45.529Z" clip-rule="evenodd" opacity=".212"/><path fill="#A6EAFE" fill-rule="evenodd" d="m160.15 27.962 9.229-1.794c.57-.11.962-.618.947-1.179a1.193 1.193 0 0 0-.004-.43l-1.784-9.178a1.175 1.175 0 0 0-2.306.448l1.296 6.661c-18.447-13.32-43.8-15.187-64.539-2.726-20.974 12.603-31.225 36.253-27.78 59.034l.053.086a1.37 1.37 0 0 0 2.476-.493c-3.284-21.778 6.519-44.384 26.57-56.432 19.779-11.884 43.947-10.141 61.576 2.504l-6.181 1.202a1.17 1.17 0 0 0 .447 2.297Zm-60.059 90.45c18.33 12.514 43.009 14.022 63.279 1.843 20.422-12.271 30.678-35.016 28.025-57.233l-.084-.671-.029-.043a1.369 1.369 0 0 0-2.482.603c2.717 21.379-7.091 43.337-26.749 55.148-19.363 11.635-42.932 10.209-60.455-1.721l6.296-1.224a1.171 1.171 0 0 0-.447-2.297l-9.229 1.794a1.17 1.17 0 0 0-.947 1.179c-.024.138-.024.283.004.429l1.785 9.179a1.174 1.174 0 0 0 2.305-.448l-1.272-6.538Z" clip-rule="evenodd"/><g filter="url(#a)"><path fill="#EEF2F4" d="M95.61 43.82a3.415 3.415 0 0 1 3.415-3.414h52.927a3.414 3.414 0 0 1 3.414 3.415V63.74a3.414 3.414 0 0 1-3.414 3.414H99.025a3.415 3.415 0 0 1-3.415-3.414V43.82Z"/><path fill="#fff" fill-opacity=".8" d="M95.61 43.82a3.415 3.415 0 0 1 3.415-3.414h52.927a3.414 3.414 0 0 1 3.414 3.415V63.74a3.414 3.414 0 0 1-3.414 3.414H99.025a3.415 3.415 0 0 1-3.415-3.414V43.82Z"/><path stroke="#000" stroke-opacity=".06" stroke-width=".569" d="M99.025 40.69h52.927a3.13 3.13 0 0 1 3.13 3.13v19.92a3.13 3.13 0 0 1-3.13 3.13H99.025a3.13 3.13 0 0 1-3.13-3.13V43.82a3.13 3.13 0 0 1 3.13-3.13Z"/><rect width="17.073" height="2.846" x="101.302" y="46.097" fill="#9DCF00" opacity=".5" rx="1.423"/><rect width="34.715" height="2.846" x="101.302" y="52.357" fill="#000" fill-opacity=".05" rx="1.423"/><rect width="30.732" height="2.846" x="101.302" y="58.618" fill="#000" fill-opacity=".05" rx="1.423"/></g><g filter="url(#b)"><path fill="#EEF2F4" d="M112.684 74.553a3.414 3.414 0 0 1 3.414-3.415h46.098a3.414 3.414 0 0 1 3.414 3.415v21.626a3.414 3.414 0 0 1-3.414 3.415h-46.098a3.414 3.414 0 0 1-3.414-3.415V74.553Z"/><path fill="#fff" fill-opacity=".8" d="M112.684 74.553a3.414 3.414 0 0 1 3.414-3.415h46.098a3.414 3.414 0 0 1 3.414 3.415v21.626a3.414 3.414 0 0 1-3.414 3.415h-46.098a3.414 3.414 0 0 1-3.414-3.415V74.553Z"/><path stroke="#000" stroke-opacity=".06" stroke-width=".569" d="M116.098 71.423h46.098a3.13 3.13 0 0 1 3.13 3.13v21.626a3.13 3.13 0 0 1-3.13 3.13h-46.098a3.13 3.13 0 0 1-3.13-3.13V74.553a3.13 3.13 0 0 1 3.13-3.13Z"/><rect width="30.732" height="2.846" x="118.375" y="91.626" fill="#000" fill-opacity=".05" rx="1.423"/><rect width="42.683" height="11.951" x="117.806" y="76.26" fill="#2FC6F6" opacity=".2" rx="1.138"/></g><g filter="url(#c)"><g filter="url(#d)"><circle cx="159.699" cy="88.561" r="19.35" fill="#2FC6F6"/></g><rect width="3.828" height="16.437" x="151.704" y="99.17" fill="#fff" rx=".908" transform="rotate(-90 151.704 99.17)"/><path fill="#fff" fill-rule="evenodd" d="M167.07 86.218a.545.545 0 0 0-.385-.93h-4.749v-7.616a.908.908 0 0 0-.908-.908h-2.213a.908.908 0 0 0-.908.908v7.616h-4.748a.544.544 0 0 0-.385.93l5.864 5.864c.709.709 1.859.709 2.568 0l5.864-5.864Z" clip-rule="evenodd"/></g><defs><filter id="a" width="67.808" height="34.8" x="91.584" y="37.722" color-interpolation-filters="sRGB" filterUnits="userSpaceOnUse"><feFlood flood-opacity="0" result="BackgroundImageFix"/><feColorMatrix in="SourceAlpha" result="hardAlpha" values="0 0 0 0 0 0 0 0 0 0 0 0 0 0 0 0 0 0 127 0"/><feOffset dy="1.342"/><feGaussianBlur stdDeviation="2.013"/><feComposite in2="hardAlpha" operator="out"/><feColorMatrix values="0 0 0 0 0.423529 0 0 0 0 0.423529 0 0 0 0 0.423529 0 0 0 0.12 0"/><feBlend in2="BackgroundImageFix" result="effect1_dropShadow_4166_114153"/><feBlend in="SourceGraphic" in2="effect1_dropShadow_4166_114153" result="shape"/></filter><filter id="b" width="60.979" height="36.507" x="108.658" y="68.454" color-interpolation-filters="sRGB" filterUnits="userSpaceOnUse"><feFlood flood-opacity="0" result="BackgroundImageFix"/><feColorMatrix in="SourceAlpha" result="hardAlpha" values="0 0 0 0 0 0 0 0 0 0 0 0 0 0 0 0 0 0 127 0"/><feOffset dy="1.342"/><feGaussianBlur stdDeviation="2.013"/><feComposite in2="hardAlpha" operator="out"/><feColorMatrix values="0 0 0 0 0.423529 0 0 0 0 0.423529 0 0 0 0 0.423529 0 0 0 0.12 0"/><feBlend in2="BackgroundImageFix" result="effect1_dropShadow_4166_114153"/><feBlend in="SourceGraphic" in2="effect1_dropShadow_4166_114153" result="shape"/></filter><filter id="c" width="42.114" height="42.114" x="138.642" y="69.211" color-interpolation-filters="sRGB" filterUnits="userSpaceOnUse"><feFlood flood-opacity="0" result="BackgroundImageFix"/><feColorMatrix in="SourceAlpha" result="hardAlpha" values="0 0 0 0 0 0 0 0 0 0 0 0 0 0 0 0 0 0 127 0"/><feOffset dy="1.707"/><feGaussianBlur stdDeviation=".854"/><feComposite in2="hardAlpha" operator="out"/><feColorMatrix values="0 0 0 0 0 0 0 0 0 0 0 0 0 0 0 0 0 0 0.05 0"/><feBlend in2="BackgroundImageFix" result="effect1_dropShadow_4166_114153"/><feBlend in="SourceGraphic" in2="effect1_dropShadow_4166_114153" result="shape"/></filter><filter id="d" width="51.834" height="51.834" x="133.782" y="63.936" color-interpolation-filters="sRGB" filterUnits="userSpaceOnUse"><feFlood flood-opacity="0" result="BackgroundImageFix"/><feColorMatrix in="SourceAlpha" result="hardAlpha" values="0 0 0 0 0 0 0 0 0 0 0 0 0 0 0 0 0 0 127 0"/><feOffset dy="1.292"/><feGaussianBlur stdDeviation="3.284"/><feComposite in2="hardAlpha" operator="out"/><feColorMatrix values="0 0 0 0 0.392157 0 0 0 0 0.427451 0 0 0 0 0.482353 0 0 0 0.16 0"/><feBlend in2="BackgroundImageFix" result="effect1_dropShadow_4166_114153"/><feBlend in="SourceGraphic" in2="effect1_dropShadow_4166_114153" result="shape"/></filter></defs></svg>