<svg xmlns="http://www.w3.org/2000/svg" width="58" height="50" viewBox="0 0 58 50">
  <path fill="#2FC6F6" fill-rule="evenodd" d="M55,12 C56.6568542,12 58,13.3431458 58,15 L58,47 C58,48.6568542 56.6568542,50 55,50 L18,50 C16.3431458,50 15,48.6568542 15,47 L15.0008568,46.1680841 C16.0541351,45.8614361 17.0588942,45.4408735 18.0009069,44.9206234 L18,46.6 C18,46.7932997 18.1371128,46.9545749 18.319386,46.9918734 L18.4,47 L54.6,47 C54.7932997,47 54.9545749,46.8628872 54.9918734,46.680614 L55,46.6 L55,20 L19.5808979,20.0000512 C18.2133572,19.0004297 16.6678755,18.2297518 15.0008568,17.7444214 L15,15 C15,13.3431458 16.3431458,12 18,12 L55,12 Z M7.97096106,34.8223392 L5.76348694,37.0291945 C7.0484929,38.3299024 8.83309838,39.1359274 10.8059611,39.1359274 C13.6817777,39.1359274 16.1575755,37.4232437 17.2690127,34.9622182 L20.3760636,36.1258148 C18.7902504,39.8427203 15.1023503,42.447972 10.8059611,42.447972 C7.91907366,42.447972 5.30691572,41.2717152 3.42260635,39.3723207 L1.33017465,41.4631257 L1.33017465,34.8223392 L7.97096106,34.8223392 Z M45,24 C45.5522847,24 46,24.4477153 46,25 L46,37 C46,37.5522847 45.5522847,38 45,38 L24.3695398,38.0010654 C24.8405425,36.9497393 25.1924604,35.8334357 25.4081324,34.669316 C25.8952315,34.8823937 26.4338815,35 27,35 C29.209139,35 31,33.209139 31,31 C31,28.790861 29.209139,27 27,27 C26.2656613,27 25.5775407,27.1978831 24.986053,27.5432343 C24.5935687,26.2815984 24.0356421,25.0924032 23.338441,24.0007666 L45,24 Z M38,32 L34,32 C33.4477153,32 33,32.4477153 33,33 C33,33.5128358 33.3860402,33.9355072 33.8833789,33.9932723 L34,34 L38,34 C38.5522847,34 39,33.5522847 39,33 C39,32.4477153 38.5522847,32 38,32 Z M10.8059611,21.647972 C13.6709752,21.647972 16.2654072,22.8064718 18.1463596,24.6805741 L20.232134,22.5953143 L20.232134,29.2361007 L13.5913476,29.2361007 L15.8048719,27.0230337 C14.5232471,25.7480059 12.7566265,24.9600166 10.8059611,24.9600166 C7.49359708,24.9600166 4.7119147,27.2321348 3.93445316,30.302832 L0.78463517,29.2572844 C2.00410795,24.8687657 6.02890618,21.647972 10.8059611,21.647972 Z M43,28 L34,28 C33.4477153,28 33,28.4477153 33,29 C33,29.5128358 33.3860402,29.9355072 33.8833789,29.9932723 L34,30 L43,30 C43.5522847,30 44,29.5522847 44,29 C44,28.4477153 43.5522847,28 43,28 Z M40,0 C41.6568542,0 43,1.34314575 43,3 L43,8 L3,8 L3.00009328,19.4111806 C2.30884047,19.8449805 1.65598778,20.33433 1.04779335,20.873 L0,20.873 L0,3 C0,1.34314575 1.34314575,0 3,0 L40,0 Z M22,14 C20.8954305,14 20,14.8954305 20,16 C20,17.1045695 20.8954305,18 22,18 C23.1045695,18 24,17.1045695 24,16 C24,14.8954305 23.1045695,14 22,14 Z M27,14 C25.8954305,14 25,14.8954305 25,16 C25,17.1045695 25.8954305,18 27,18 C28.1045695,18 29,17.1045695 29,16 C29,14.8954305 28.1045695,14 27,14 Z M32,14 C30.8954305,14 30,14.8954305 30,16 C30,17.1045695 30.8954305,18 32,18 C33.1045695,18 34,17.1045695 34,16 C34,14.8954305 33.1045695,14 32,14 Z M11,12 C11.5522847,12 12,12.4477153 12,13 L12,14 C12,14.5522847 11.5522847,15 11,15 L8,15 C7.44771525,15 7,14.5522847 7,14 L7,13 C7,12.4477153 7.44771525,12 8,12 L11,12 Z M7,2 C5.8954305,2 5,2.8954305 5,4 C5,5.1045695 5.8954305,6 7,6 C8.1045695,6 9,5.1045695 9,4 C9,2.8954305 8.1045695,2 7,2 Z M12,2 C10.8954305,2 10,2.8954305 10,4 C10,5.1045695 10.8954305,6 12,6 C13.1045695,6 14,5.1045695 14,4 C14,2.8954305 13.1045695,2 12,2 Z M17,2 C15.8954305,2 15,2.8954305 15,4 C15,5.1045695 15.8954305,6 17,6 C18.1045695,6 19,5.1045695 19,4 C19,2.8954305 18.1045695,2 17,2 Z"/>
</svg>
