<svg width="11" height="13" viewBox="0 0 11 13" fill="none" xmlns="http://www.w3.org/2000/svg">
<path fill-rule="evenodd" clip-rule="evenodd" d="M0.190186 1.04495C0.190186 0.47067 0.65573 0.00512695 1.23001 0.00512695C1.80429 0.00512695 2.26983 0.470671 2.26983 1.04495V11.4432C2.26983 12.0174 1.80429 12.483 1.23001 12.483C0.65573 12.483 0.190186 12.0174 0.190186 11.4432V1.04495ZM4.34953 3.12438C4.34953 2.5501 4.81507 2.08455 5.38935 2.08455C5.96363 2.08455 6.42917 2.5501 6.42917 3.12438V9.36331C6.42917 9.93759 5.96363 10.4031 5.38935 10.4031C4.81507 10.4031 4.34953 9.93759 4.34953 9.36331V3.12438ZM9.54861 4.16463C8.97433 4.16463 8.50879 4.63018 8.50879 5.20445V7.2841C8.50879 7.85838 8.97433 8.32392 9.54861 8.32392C10.1229 8.32392 10.5884 7.85838 10.5884 7.2841V5.20445C10.5884 4.63018 10.1229 4.16463 9.54861 4.16463Z" fill="#525C69" fill-opacity="0.3"/>
</svg>
