<?xml version="1.0" encoding="UTF-8" standalone="no"?>
<svg width="19px" height="240px" viewBox="0 0 19 240" version="1.1" xmlns="http://www.w3.org/2000/svg" xmlns:xlink="http://www.w3.org/1999/xlink">
    <!-- Generator: Sketch 3.7.2 (28276) - http://www.bohemiancoding.com/sketch -->
    <title>sprite</title>
    <desc>Created with Sketch.</desc>
    <defs></defs>
    <g id="Page-1" stroke="none" stroke-width="1" fill="none" fill-rule="evenodd">
        <g id="sprite">
            <g id="crm-activity-arrow-left-icon" transform="translate(0.000000, 50.000000)" opacity="0.3" fill="#80868E">
                <g id="Path-Copy-2">
                    <g id="Page-1">
                        <g id="Artboard-3-Copy">
                            <g id="Group-Copy-4">
                                <g id="Group-9">
                                    <polygon id="Path-Copy-2" transform="translate(5.485281, 5.485280) rotate(225.000000) translate(-5.485281, -5.485280) " points="3.54594139 7.42462025 3.54594139 1.60660075 1.60660139 1.60660075 1.60660139 8.39429015 1.60660139 9.36396005 9.36396039 9.36396005 9.36396039 7.42462025"></polygon>
                                </g>
                            </g>
                        </g>
                    </g>
                </g>
            </g>
            <g id="crm-activity-arrow-right-icon" transform="translate(4.000000, 89.000000)" opacity="0.3" fill="#80868E">
                <g id="Path-Copy-4">
                    <g id="Page-1">
                        <g id="Artboard-3-Copy">
                            <g id="Group-Copy-4">
                                <g id="Group-9">
                                    <polygon id="Path-Copy-4" transform="translate(5.485281, 5.485282) rotate(45.000000) translate(-5.485281, -5.485282) " points="3.54594161 7.42462145 3.54594161 1.60660195 1.60660161 1.60660195 1.60660161 8.39429135 1.60660161 9.36396125 9.36396061 9.36396125 9.36396061 7.42462145"></polygon>
                                </g>
                            </g>
                        </g>
                    </g>
                </g>
            </g>
            <g id="crm-activity-calendar" transform="translate(1.000000, 162.000000)" opacity="0.7" fill="#80868E">
                <g id="Shape">
                    <g id="Page-1">
                        <g id="Artboard-1">
                            <path d="M11.501465,2.579302 C11.884597,2.579302 12.195186,2.258603 12.195186,1.863001 L12.195186,0.786486 C12.195186,0.390884 11.884597,0.070185 11.501465,0.070185 C11.118334,0.070185 10.807745,0.390884 10.807745,0.786486 L10.807745,1.863001 C10.807745,2.258603 11.118334,2.579302 11.501465,2.579302 L11.501465,2.579302 L11.501465,2.579302 Z M4.504283,2.652584 C4.69922,2.652858 4.88625,2.573021 5.024091,2.430693 C5.161932,2.288365 5.239253,2.095248 5.238987,1.893965 L5.238987,0.758618 C5.238987,0.339645 4.910049,0 4.504283,0 C4.098517,0 3.769579,0.339645 3.769579,0.758618 L3.769579,1.893965 C3.769313,2.095248 3.846634,2.288365 3.984476,2.430693 C4.122317,2.573021 4.309346,2.652858 4.504283,2.652584 L4.504283,2.652584 L4.504283,2.652584 Z M14.152398,1.582261 L13.000861,1.582261 L13.000861,2.098328 C13.000861,2.953376 12.329559,3.646529 11.501465,3.646529 C10.673372,3.646529 10.002069,2.953376 10.002069,2.098328 L10.002069,1.582261 L6.003679,1.582261 L6.003679,2.098328 C6.003679,2.953376 5.332377,3.646529 4.504283,3.646529 C3.67619,3.646529 3.004887,2.953376 3.004887,2.098328 L3.004887,1.582261 L1.853351,1.582261 C1.336126,1.58108 0.84206,1.803615 0.491047,2.195865 C0.140033,2.588115 -0.035844,3.114226 0.006095,3.646529 L0.006095,13.967866 C0.006095,14.537898 0.45363,15 1.005692,15 L15.000056,15 C15.552119,15 15.999654,14.537898 15.999654,13.967866 L15.999654,3.646529 C16.019256,2.558434 15.204454,1.647912 14.152398,1.582261 L14.152398,1.582261 L14.152398,1.582261 Z M14.000459,12.935732 L2.00529,12.935732 L2.00529,5.710796 L14.000459,5.710796 L14.000459,12.935732 L14.000459,12.935732 L14.000459,12.935732 Z M5.336948,9.640129 C4.936434,9.997239 4.581109,10.405049 4.279374,10.853919 C4.105111,11.148424 3.995894,11.478988 3.959503,11.82206 L7.258174,11.82206 L7.258174,10.921007 L5.391926,10.921007 C5.446941,10.824761 5.511243,10.734506 5.583848,10.65162 C5.662483,10.559417 5.850408,10.372944 6.147621,10.092204 C6.36811,9.89324 6.573621,9.677245 6.762374,9.446088 C6.917449,9.250564 7.044374,9.032948 7.139222,8.799972 C7.218092,8.592508 7.258445,8.371571 7.258174,8.148696 C7.265813,7.767785 7.114314,7.401904 6.842342,7.14443 C6.5285,6.860717 6.119219,6.715772 5.702801,6.740866 C5.308945,6.726752 4.921853,6.849203 4.603243,7.088695 C4.281053,7.379915 4.090897,7.796543 4.078455,8.238492 L5.004082,8.336544 C4.998867,8.116161 5.069729,7.901045 5.204001,7.72965 C5.328195,7.603554 5.497855,7.536925 5.671813,7.54593 C5.843627,7.536029 6.0119,7.599041 6.137625,7.720361 C6.257738,7.855654 6.319122,8.035733 6.307557,8.218881 C6.301443,8.432368 6.233553,8.639072 6.112635,8.812358 C5.877431,9.112543 5.617934,9.391536 5.336948,9.646322 L5.336948,9.640129 L5.336948,9.640129 Z M10.042053,11.82206 L10.950687,11.82206 L10.950687,10.803344 L11.560441,10.803344 L11.560441,9.955962 L10.950687,9.955962 L10.950687,6.746026 L10.162005,6.746026 L8.035861,9.960091 L8.035861,10.808505 L10.042053,10.808505 L10.042053,11.827221 L10.042053,11.82206 L10.042053,11.82206 Z M8.915507,9.950802 L10.042053,8.221978 L10.042053,9.955962 L8.915507,9.955962 L8.915507,9.950802 L8.915507,9.950802 Z" id="Shape"></path>
                        </g>
                    </g>
                </g>
            </g>
            <g id="crm-activity-arrow-down" transform="translate(3.000000, -2.000000)" fill="#535C69">
                <g id="Path">
                    <g id="Page-1">
                        <g id="Artboard-1">
                            <polygon id="Path" transform="translate(5.485282, 5.485281) rotate(-45.000000) translate(-5.485282, -5.485281) " points="3.5459421 7.42462074 3.5459421 1.60660124 1.6066021 1.60660124 1.6066021 8.39429064 1.6066021 9.36396054 9.3639611 9.36396054 9.3639611 7.42462074"></polygon>
                        </g>
                    </g>
                </g>
            </g>
            <g id="crm-activity-arrow-left-active" transform="translate(4.000000, 110.000000)" fill="#80868E">
                <g id="Path-Copy-5">
                    <g id="Page-1">
                        <g id="Artboard-1">
                            <polygon id="Path-Copy-5" transform="translate(5.485281, 5.485281) rotate(45.000000) translate(-5.485281, -5.485281) " points="3.54594165 7.42462065 3.54594165 1.60660165 1.60660165 1.60660165 1.60660165 8.39429065 1.60660165 9.36396065 9.36396065 9.36396065 9.36396065 7.42462065"></polygon>
                        </g>
                    </g>
                </g>
            </g>
            <g id="crm-activity-arrow-right-active" transform="translate(0.000000, 69.000000)" fill="#80868E">
                <g id="Path-Copy-3">
                    <g id="Page-1">
                        <g id="Artboard-1">
                            <polygon id="Path-Copy-3" transform="translate(5.485281, 5.485281) rotate(225.000000) translate(-5.485281, -5.485281) " points="3.54594165 7.42462065 3.54594165 1.60660165 1.60660165 1.60660165 1.60660165 8.39429065 1.60660165 9.36396065 9.36396065 9.36396065 9.36396065 7.42462065"></polygon>
                        </g>
                    </g>
                </g>
            </g>
            <g id="crm-activity-flame" transform="translate(4.000000, 223.000000)">
                <g id="Group">
                    <g id="Page-1">
                        <g id="Artboard-1">
                            <g id="Group">
                                <path d="M6.99737834,0 C4.48779883,1.21921125 0,5.48917695 0,10.0533128 C0,14.6177213 4.28414257,16.0853005 4.28414257,16.0853005 L7.71167473,16.0853005 C7.71167473,16.0853005 11.9958173,14.7055089 11.9958173,10.8076861 C11.9958173,5.31551023 6.52190776,4.21298556 6.99737834,0" id="Fill-1-Copy" fill="#A6ACB3"></path>
                                <path d="M3,12.9755379 C3,15.605875 5.33680504,16.4515986 5.33680504,16.4515986 L7.20636804,16.4515986 C7.20636804,16.4515986 8.99790865,15.6564644 8.99790865,13.4102615 C8.99790865,10.2452788 6.54431789,10.4536899 5.99895433,8 C4.63009278,8.70259631 3,10.3453579 3,12.9755379 L3,12.9755379 Z" id="Fill-1-Copy-2" fill="#EEF2F4"></path>
                            </g>
                        </g>
                    </g>
                </g>
            </g>
        </g>
    </g>
</svg>