<?xml version="1.0" encoding="UTF-8"?>
<svg width="40px" height="34px" viewBox="0 0 40 34" version="1.1" xmlns="http://www.w3.org/2000/svg" xmlns:xlink="http://www.w3.org/1999/xlink">
    <g id="01-Финал-(Поля,-Соглашения,-Платежи-Аналитика-Капча)" stroke="none" stroke-width="1" fill="none" fill-rule="evenodd">
        <g id="Form-/-03-/-03-/-01" transform="translate(-200.000000, -164.000000)">
            <rect id="Rectangle" fill="#FFFFFF" x="0" y="0" width="580" height="923"></rect>
            <g id="Group" transform="translate(20.000000, 130.000000)">
                <rect id="Rectangle" stroke-opacity="0.424825175" stroke="#525C69" fill="#FFFFFF" opacity="0.498834" x="160.5" y="10.5" width="79" height="79" rx="3"></rect>
                <g id="Icons-/-Type-1-/-Icon-/-d-02" transform="translate(170.000000, 20.000000)" fill="#A3B2C5">
                    <path d="M21.0764377,28.1319671 C22.1810072,28.1319671 23.0764377,29.0273976 23.0764377,30.1319671 L23.0764377,45.7466236 C23.0764377,46.8511931 22.1810072,47.7466236 21.0764377,47.7466236 L12,47.7466236 C10.8954305,47.7466236 10,46.8511931 10,45.7466236 L10,30.1319671 C10,29.0273976 10.8954305,28.1319671 12,28.1319671 L21.0764377,28.1319671 Z M16.5382189,45.1313361 C16.177123,45.1313361 15.884397,45.4240621 15.884397,45.785158 C15.884397,46.1462538 16.177123,46.4389798 16.5382189,46.4389798 C16.8993147,46.4389798 17.1920407,46.1462538 17.1920407,45.785158 C17.1920407,45.4240621 16.8993147,45.1313361 16.5382189,45.1313361 Z M21.2797973,30.2598107 L11.7966404,30.2598107 L11.7966404,43.9331959 L21.2797973,43.9331959 L21.2797973,30.2598107 Z M47.0198957,14 C48.1244652,14 49.0198957,14.8954305 49.0198957,16 L49.0198957,37.4137689 C49.0198957,38.5183384 48.1244652,39.4137689 47.0198957,39.4137689 L39.415691,39.413 L40.4292466,42.1331459 C40.4569617,42.2075763 40.4756615,42.284909 40.4850486,42.3634932 L40.4921075,42.4821018 C40.4921075,42.9949376 40.1060673,43.417609 39.6087286,43.4753741 L39.4921075,43.4821018 L25.062691,43.482 L25.062691,35.835 L45.7330294,35.8357031 L45.7330294,17.5780658 L17.2115574,17.5780658 L17.210691,24.41 L13.924691,24.41 L13.924691,16 C13.924691,14.8954305 14.8201215,14 15.924691,14 L47.0198957,14 Z M18.8776945,38.297901 C19.4299792,38.297901 19.8776945,38.7456163 19.8776945,39.297901 L19.8776945,40.7935721 C19.8776945,41.3458569 19.4299792,41.7935721 18.8776945,41.7935721 L17.2541242,41.7935721 C16.7018394,41.7935721 16.2541242,41.3458569 16.2541242,40.7935721 L16.2541242,39.297901 C16.2541242,38.7456163 16.7018394,38.297901 17.2541242,38.297901 L18.8776945,38.297901 Z M42.0887984,27.1621129 C42.6410832,27.1621129 43.0887984,27.6098281 43.0887984,28.1621129 L43.0887984,32.1621129 C43.0887984,32.7143976 42.6410832,33.1621129 42.0887984,33.1621129 L37.8692711,33.1621129 C37.3169863,33.1621129 36.8692711,32.7143976 36.8692711,32.1621129 L36.8692711,28.1621129 C36.8692711,27.6098281 37.3169863,27.1621129 37.8692711,27.1621129 L42.0887984,27.1621129 Z" id="Combined-Shape"></path>
                </g>
            </g>
        </g>
    </g>
</svg>