<?xml version="1.0" encoding="UTF-8"?>
<svg width="26px" height="39px" viewBox="0 0 26 39" version="1.1" xmlns="http://www.w3.org/2000/svg" xmlns:xlink="http://www.w3.org/1999/xlink">
    <g id="01-Финал-(Поля,-Соглашения,-Платежи-Аналитика-Капча)" stroke="none" stroke-width="1" fill="none" fill-rule="evenodd">
        <g id="Form-/-03-/-03-/-01" transform="translate(-72.000000, -161.000000)">
            <rect id="Rectangle" fill="#FFFFFF" x="0" y="0" width="580" height="923"></rect>
            <g id="Group" transform="translate(20.000000, 130.000000)">
                <rect id="Rectangle" stroke-opacity="0.424825175" stroke="#525C69" fill="#FFFFFF" opacity="0.498834" x="25.5" y="10.5" width="79" height="79" rx="4"></rect>
                <g id="Icons-/-Type-1-/-Icon-/-d-01" transform="translate(35.000000, 20.000000)" fill="#A3B2C5">
                    <path d="M39.7350068,11 C41.391861,11 42.7350068,12.3431458 42.7350068,14 L42.7350068,46.9838932 C42.7350068,48.6407474 41.391861,49.9838932 39.7350068,49.9838932 L20,49.9838932 C18.3431458,49.9838932 17,48.6407474 17,46.9838932 L17,14 C17,12.3431458 18.3431458,11 20,11 L39.7350068,11 Z M29.8675034,44.4764386 C28.931548,44.4764386 28.1728063,45.2351803 28.1728063,46.1711357 C28.1728063,47.107091 28.931548,47.8658328 29.8675034,47.8658328 C30.8034587,47.8658328 31.5622005,47.107091 31.5622005,46.1711357 C31.5622005,45.2351803 30.8034587,44.4764386 29.8675034,44.4764386 Z M39.5629141,15.119388 L20.1720927,15.119388 L20.1720927,42.9538607 L39.5629141,42.9538607 L39.5629141,15.119388 Z M36.0555671,34.0149076 C36.6078519,34.0149076 37.0555671,34.4626228 37.0555671,35.0149076 L37.0555671,39.0149076 C37.0555671,39.5671923 36.6078519,40.0149076 36.0555671,40.0149076 L31.8360398,40.0149076 C31.2837551,40.0149076 30.8360398,39.5671923 30.8360398,39.0149076 L30.8360398,35.0149076 C30.8360398,34.4626228 31.2837551,34.0149076 31.8360398,34.0149076 L36.0555671,34.0149076 Z" id="Combined-Shape"></path>
                </g>
            </g>
        </g>
    </g>
</svg>