<?xml version="1.0" encoding="UTF-8"?>
<svg width="42px" height="32px" viewBox="0 0 42 32" version="1.1" xmlns="http://www.w3.org/2000/svg" xmlns:xlink="http://www.w3.org/1999/xlink">
    <g id="01-Финал-(Поля,-Соглашения,-Платежи-Аналитика-Капча)" stroke="none" stroke-width="1" fill="none" fill-rule="evenodd">
        <g id="Form-/-03-/-03-/-01" transform="translate(-333.000000, -164.000000)">
            <rect id="Rectangle" fill="#FFFFFF" x="0" y="0" width="580" height="923"></rect>
            <g id="Group" transform="translate(20.000000, 130.000000)">
                <rect id="Rectangle" stroke="#9DCF00" stroke-width="2" fill="#FFFFFF" opacity="0.901669457" x="293" y="9" width="82" height="82" rx="4"></rect>
                <g id="Icons-/-Type-1-/-Icon-/-d-03" transform="translate(304.000000, 20.000000)" fill="#2FC6F6">
                    <path d="M42.0554382,14.5039704 C42.7277216,13.8320099 43.8099321,13.8320099 44.4822156,14.5039704 L44.4822156,14.5039704 L45.6961169,15.7275954 C46.3636944,16.4034584 46.3636944,17.4979464 45.6961169,18.1738094 L45.6961169,18.1738094 L42.9822682,20.9090931 C45.9004769,23.2646449 48.4852947,26.0134419 50.6645001,29.0786812 C51.1118333,29.7346391 51.1118333,30.6016253 50.6645001,31.2575833 C50.2923328,31.8056762 41.4167046,44.6708346 29.9994706,44.6708346 C27.0686489,44.6182895 24.1930409,43.8561692 21.6139142,42.4484166 L21.6139142,42.4484166 L18.5856869,45.4951856 C17.9138616,46.1682715 16.8307349,46.1682715 16.1589096,45.4951856 L16.1589096,45.4951856 L14.9450082,44.2725966 C14.2776661,43.5974442 14.2776661,42.5036073 14.9450082,41.8284548 L14.9450082,41.8284548 L17.194042,39.5639355 C14.2036624,37.1779366 11.5581736,34.3810281 9.33444112,31.254475 C8.88851963,30.5992097 8.88851963,29.7339465 9.33444112,29.0786812 C9.7066085,28.5305883 18.5812114,15.6654299 30.0004959,15.6654299 C33.0098072,15.722079 35.9597372,16.5216903 38.5931538,17.9945654 L38.5931538,17.9945654 Z M39.8306359,24.0878244 L36.7679701,27.1747132 C37.195815,28.1265147 37.4340964,29.1837908 37.4340964,30.2973088 C37.4340964,34.4715399 34.0856099,37.8554228 29.9550425,37.8554228 C28.8464712,37.8554228 27.7942323,37.6116848 26.8479381,37.1743453 L24.9070316,39.1308489 C26.5118853,39.8500372 28.2440803,40.2338304 29.9994706,40.2581174 C37.2654492,40.2581174 43.6732898,32.9246559 45.8263242,30.1665781 C44.0696217,27.9105732 42.0573324,25.8704053 39.8306359,24.0878244 L39.8306359,24.0878244 Z M29.9994706,20.0760749 C22.7099112,20.0760749 16.3174495,27.4064281 14.1705665,30.165542 C15.9743881,32.481894 18.0488497,34.5692393 20.3487501,36.382096 L20.3487501,36.382096 L23.1883197,33.5207091 C22.7314603,32.5429786 22.4759887,31.4502934 22.4759887,30.2973088 C22.4759887,26.1230778 25.8244752,22.7391949 29.9550425,22.7391949 C31.1035418,22.7391949 32.1915774,23.0008067 33.1639814,23.4682789 L35.3143899,21.300736 C33.646887,20.521706 31.8363244,20.1045171 29.9994706,20.0760749 Z" id="Combined-Shape"></path>
                </g>
            </g>
        </g>
    </g>
</svg>