<svg width="22" height="23" viewBox="0 0 22 23" fill="none" xmlns="http://www.w3.org/2000/svg">
	<path fill-rule="evenodd" clip-rule="evenodd" d="M9.04242 5.09253V6.06702C9.04242 6.4267 8.76106 6.71816 8.41386 6.71816C8.06666 6.71816 7.78531 6.4267 7.78531 6.06702V5.09253L7.78992 5.00793C7.82791 4.68499 8.09574 4.43532 8.41814 4.43696C8.76534 4.43963 9.04413 4.73286 9.04242 5.09253ZM14.874 5.79949V6.24244C14.874 6.97596 14.2993 7.57129 13.5912 7.57129C12.8831 7.57129 12.3085 6.97596 12.3085 6.24244V5.79949H9.69671V6.24244C9.69671 6.97596 9.12289 7.57129 8.41395 7.57129C7.70501 7.57129 7.13119 6.97596 7.13119 6.24244V5.79949H6.14603C5.27205 5.79772 4.56226 6.52947 4.56055 7.43486C4.56055 7.48004 4.56226 7.52522 4.56568 7.57129V16.4303C4.56568 16.9193 4.94879 17.3162 5.42085 17.3162H16.5843C17.0572 17.3162 17.4395 16.9193 17.4395 16.4303V7.57129C17.4557 6.63667 16.7588 5.85619 15.8591 5.79949H14.874ZM6.27605 15.5444H15.7292V8.50742H6.27605V15.5444ZM11.5113 10.0936H10.5758C10.3873 10.0936 10.2346 10.2453 10.2346 10.4325V11.3618C10.2346 11.549 10.3873 11.7008 10.5758 11.7008H11.5113C11.6997 11.7008 11.8524 11.549 11.8524 11.3618V10.4325C11.8524 10.2453 11.6997 10.0936 11.5113 10.0936ZM8.14972 10.0937H9.08523C9.27365 10.0937 9.4264 10.2455 9.4264 10.4327V11.362C9.4264 11.5492 9.27365 11.701 9.08523 11.701H8.14972C7.9613 11.701 7.80855 11.5492 7.80855 11.362V10.4327C7.80855 10.2455 7.9613 10.0937 8.14972 10.0937ZM9.08444 12.5044H8.14893C7.96051 12.5044 7.80777 12.6561 7.80777 12.8433V13.7727C7.80777 13.9599 7.96051 14.1116 8.14893 14.1116H9.08444C9.27286 14.1116 9.42561 13.9599 9.42561 13.7727V12.8433C9.42561 12.6561 9.27286 12.5044 9.08444 12.5044ZM10.5758 12.5044H11.5113C11.6997 12.5044 11.8524 12.6561 11.8524 12.8433V13.7727C11.8524 13.9599 11.6997 14.1116 11.5113 14.1116H10.5758C10.3873 14.1116 10.2346 13.9599 10.2346 13.7727V12.8433C10.2346 12.6561 10.3873 12.5044 10.5758 12.5044ZM13.0026 10.0936H13.9381C14.1265 10.0936 14.2793 10.2453 14.2793 10.4325V11.3618C14.2793 11.549 14.1265 11.7008 13.9381 11.7008H13.0026C12.8142 11.7008 12.6614 11.549 12.6614 11.3618V10.4325C12.6614 10.2453 12.8142 10.0936 13.0026 10.0936ZM14.1848 6.04042V5.11643C14.1848 4.77625 13.9188 4.50162 13.5913 4.50162C13.2637 4.50162 12.9978 4.77625 12.9978 5.11643V6.03954C12.9978 6.37884 13.262 6.65435 13.5904 6.65524C13.9188 6.65524 14.1848 6.37972 14.1848 6.04042Z" fill="#525C69" fill-opacity="0.6"/>
</svg>