<svg width="22" height="23" viewBox="0 0 22 23" fill="none" xmlns="http://www.w3.org/2000/svg">
	<path fill-rule="evenodd" clip-rule="evenodd" d="M7.11833 4.87561C6.19785 4.87561 5.45166 5.6218 5.45166 6.54228V16.4153C5.45166 17.3358 6.19785 18.082 7.11833 18.082H14.8657C15.7862 18.082 16.5324 17.3358 16.5324 16.4153L16.5324 9.44087C16.5324 8.99291 16.3521 8.56381 16.0321 8.25033L13.0734 5.35173C12.7619 5.04654 12.3431 4.87561 11.907 4.87561H7.11833ZM7.22068 6.43567C7.08261 6.43567 6.97068 6.5476 6.97068 6.68567V16.2449C6.97068 16.383 7.08261 16.4949 7.22068 16.4949H14.7212C14.8593 16.4949 14.9712 16.383 14.9712 16.2449V9.56421C14.9712 9.5379 14.9671 9.51202 14.9591 9.48743H12.8373C12.3771 9.48743 12.004 9.11433 12.004 8.65409V6.4542C11.9743 6.44208 11.9422 6.43567 11.9095 6.43567H7.22068ZM9.08329 10.678C8.76113 10.678 8.49996 10.9392 8.49996 11.2614V11.4893C8.49996 11.8115 8.76113 12.0726 9.08329 12.0726H12.8712C13.1933 12.0726 13.4545 11.8115 13.4545 11.4893V11.2614C13.4545 10.9392 13.1933 10.678 12.8712 10.678H9.08329ZM8.49996 13.7776C8.49996 13.4555 8.76113 13.1943 9.08329 13.1943H11.9344C12.2566 13.1943 12.5178 13.4555 12.5178 13.7776V14.0056C12.5178 14.3277 12.2566 14.5889 11.9344 14.5889H9.08329C8.76113 14.5889 8.49996 14.3277 8.49996 14.0056V13.7776Z" fill="#00ACE3" />
</svg>