<svg width="22" height="23" viewBox="0 0 22 23" fill="none" xmlns="http://www.w3.org/2000/svg">
	<path fill-rule="evenodd" clip-rule="evenodd" d="M10.9867 18.4279C7.15314 18.4279 4.04541 15.3201 4.04541 11.4865C4.04541 7.65296 7.15314 4.54523 10.9867 4.54523C14.8203 4.54523 17.928 7.65296 17.928 11.4865C17.928 15.3201 14.8203 18.4279 10.9867 18.4279ZM11.0006 16.868C8.03644 16.868 5.63355 14.4651 5.63355 11.501C5.63355 8.53689 8.03644 6.134 11.0006 6.134C13.9647 6.134 16.3676 8.53689 16.3676 11.501C16.3676 14.4651 13.9647 16.868 11.0006 16.868ZM7.83389 11.666C7.67118 11.8287 7.67118 12.0925 7.83389 12.2552L9.40565 13.827L9.4137 13.8348L9.87846 14.2996C10.0412 14.4623 10.305 14.4623 10.4677 14.2996L14.3254 10.4419C14.4881 10.2791 14.4881 10.0153 14.3254 9.85261L13.7951 9.32228C13.6324 9.15956 13.3686 9.15956 13.2058 9.32228L10.173 12.3551L8.95348 11.1356C8.79076 10.9729 8.52694 10.9729 8.36422 11.1356L7.83389 11.666Z" fill="#525C69" fill-opacity="0.6"/>
</svg>
