<svg xmlns="http://www.w3.org/2000/svg" width="219" height="178" fill="none"><path fill="#E5F9FF" fill-rule="evenodd" d="M157.848 5.038a2.399 2.399 0 0 0 2.406-2.392 2.399 2.399 0 0 0-2.406-2.392 2.398 2.398 0 0 0-2.405 2.392 2.399 2.399 0 0 0 2.405 2.392ZM39.143 25.698c2.88 0 5.215-2.322 5.215-5.185 0-2.864-2.334-5.185-5.215-5.185-2.88 0-5.215 2.321-5.215 5.185 0 2.863 2.335 5.184 5.215 5.184Zm0-2.891a2.3 2.3 0 0 0 2.308-2.294 2.3 2.3 0 0 0-2.308-2.294 2.3 2.3 0 0 0-2.307 2.294 2.3 2.3 0 0 0 2.307 2.294ZM12.65 76.312c3.879 0 7.024-3.126 7.024-6.983 0-3.856-3.145-6.983-7.024-6.983-3.88 0-7.024 3.127-7.024 6.983 0 3.857 3.144 6.983 7.024 6.983Zm0-3.644a3.348 3.348 0 0 0 3.358-3.339 3.348 3.348 0 0 0-3.358-3.338 3.348 3.348 0 0 0-3.358 3.338 3.348 3.348 0 0 0 3.358 3.339Zm178.329 91.512c2.762 0 5.001-2.226 5.001-4.971 0-2.746-2.239-4.972-5.001-4.972-2.762 0-5.001 2.226-5.001 4.972 0 2.745 2.239 4.971 5.001 4.971Zm0-2.587a2.391 2.391 0 0 0 2.398-2.384 2.392 2.392 0 0 0-2.398-2.385 2.391 2.391 0 0 0-2.398 2.385 2.39 2.39 0 0 0 2.398 2.384Zm-80.04 15.357c47.497 0 86-38.279 86-85.5 0-47.22-38.503-85.5-86-85.5-47.496 0-86 38.28-86 85.5 0 47.221 38.504 85.5 86 85.5Zm-86.04-5.976H8.178c-.142 0-.284-.005-.425-.016-3.778-.088-6.814-3.245-6.815-7.126a7.213 7.213 0 0 1 2.048-5.043 6.975 6.975 0 0 1 2.33-1.571 7.612 7.612 0 0 1 2.139-5.904 7.29 7.29 0 0 1 5.21-2.201c2.502.003 4.711 1.282 6.04 3.234a5.87 5.87 0 0 1 2.016-.352c3.124.003 5.69 2.436 5.987 5.548 2.993.667 5.233 3.391 5.23 6.649-.003 3.754-2.983 6.795-6.657 6.793-.129 0-.257-.004-.384-.011ZM202.077 38.751h11.864a4.764 4.764 0 0 0 .273.008c2.607 0 4.722-2.073 4.724-4.632.002-2.222-1.587-4.08-3.712-4.534-.211-2.121-2.032-3.78-4.248-3.783-.502 0-.984.085-1.432.24a5.246 5.246 0 0 0-4.286-2.204c-1.386-.001-2.716.539-3.697 1.5a5.086 5.086 0 0 0-1.518 4.026 4.956 4.956 0 0 0-1.653 1.071 4.819 4.819 0 0 0-1.454 3.438c.001 2.647 2.155 4.799 4.837 4.859.1.007.2.01.302.01Z" clip-rule="evenodd"/><g filter="url(#a)"><path fill="#fff" d="M162.132 75.076c0-4.115-1.883-8.007-5.116-10.575L113.87 30.227a6.839 6.839 0 0 0-8.534.027L62.794 64.502a13.506 13.506 0 0 0-5.047 10.52v62.352c0 3.738 3.048 6.768 6.808 6.768h90.769c3.76 0 6.808-3.03 6.808-6.768V75.076Z"/></g><path fill="#2FC6F6" fill-rule="evenodd" d="m156.307 65.382-43.146-34.274a5.698 5.698 0 0 0-7.111.023L63.508 65.379a12.38 12.38 0 0 0-4.626 9.643v62.352c0 3.115 2.54 5.64 5.673 5.64h90.769c3.133 0 5.673-2.525 5.673-5.64V75.076c0-3.772-1.726-7.34-4.69-9.694Zm.708-.881a13.506 13.506 0 0 1 5.117 10.575v62.298c0 3.738-3.048 6.768-6.808 6.768h-90.77c-3.759 0-6.807-3.03-6.807-6.768V75.022c0-4.084 1.855-7.95 5.047-10.52l42.542-34.248a6.839 6.839 0 0 1 8.534-.027L157.015 64.5Z" clip-rule="evenodd" opacity=".5"/><g filter="url(#b)" opacity=".3"><path fill="#2FC6F6" d="M72.497 86.613c0-3.738 3.048-6.768 6.808-6.768h61.269c3.76 0 6.808 3.03 6.808 6.768v49.633c0 3.738-3.048 6.768-6.808 6.768h-61.27c-3.759 0-6.807-3.03-6.807-6.768V86.613Z"/></g><g filter="url(#c)" opacity=".3"><path fill="#2FC6F6" d="M72.497 86.613c0-3.738 3.048-6.768 6.808-6.768h61.269c3.76 0 6.808 3.03 6.808 6.768v12.409H72.497V86.612Z"/></g><path fill="#2FC6F6" fill-rule="evenodd" d="M140.574 80.973H79.305c-3.133 0-5.673 2.525-5.673 5.64v11.28h72.615v-11.28c0-3.115-2.54-5.64-5.673-5.64Zm-61.269-1.128c-3.76 0-6.808 3.03-6.808 6.768v12.409h74.885V86.612c0-3.738-3.048-6.768-6.808-6.768H79.305Z" clip-rule="evenodd" opacity=".5"/><path fill="#fff" d="M73.632 88.87h72.615v1.127H73.632V88.87Z" opacity=".3"/><g filter="url(#d)"><path fill="#2FC6F6" d="M116.939 106.631a2.263 2.263 0 0 1 2.27-2.256h12.48c1.254 0 2.27 1.01 2.27 2.256v12.408a2.263 2.263 0 0 1-2.27 2.256h-12.48a2.263 2.263 0 0 1-2.27-2.256v-12.408Z"/></g><g filter="url(#e)" opacity=".5"><path fill="#2FC6F6" d="M117.882 59.54c0 4.362-3.556 7.897-7.943 7.897-4.386 0-7.942-3.535-7.942-7.896s3.556-7.896 7.942-7.896c4.387 0 7.943 3.535 7.943 7.896Z"/></g><g filter="url(#f)"><path fill="#2FC6F6" d="M127.363 125.367a2.263 2.263 0 0 1 2.269-2.256h12.481a2.263 2.263 0 0 1 2.269 2.256v12.409a2.263 2.263 0 0 1-2.269 2.256h-12.481a2.263 2.263 0 0 1-2.269-2.256v-12.409Z"/></g><g filter="url(#g)"><path fill="#2FC6F6" d="M106.939 125.367a2.263 2.263 0 0 1 2.27-2.256h12.48c1.254 0 2.27 1.01 2.27 2.256v12.409a2.263 2.263 0 0 1-2.27 2.256h-12.48a2.263 2.263 0 0 1-2.27-2.256v-12.409Z"/></g><g filter="url(#h)"><path fill="#fff" d="M104.687 93.03c0-3.314 1.564-6 3.495-6h58.963c1.93 0 3.495 2.686 3.495 6v55.476c0 3.314-1.565 6-3.495 6h-58.963c-1.931 0-3.495-2.686-3.495-6V93.03Z"/></g><path fill="#2FC6F6" fill-rule="evenodd" d="M168.06 88.12h-59.827c-1.603 0-2.903 2.198-2.903 4.91v55.476c0 2.712 1.3 4.91 2.903 4.91h59.827c1.603 0 2.902-2.198 2.902-4.91V93.03c0-2.712-1.299-4.91-2.902-4.91Zm-59.827-1.09c-1.959 0-3.546 2.686-3.546 6v55.476c0 3.314 1.587 6 3.546 6h59.827c1.959 0 3.546-2.686 3.546-6V93.03c0-3.314-1.587-6-3.546-6h-59.827Z" clip-rule="evenodd"/><path fill="#9DCF00" d="M115.678 97.917c0-1.203.531-2.178 1.185-2.178h36.166c.655 0 1.186.975 1.186 2.178 0 1.202-.531 2.177-1.186 2.177h-36.166c-.654 0-1.185-.975-1.185-2.177Z"/><path fill="#E6E7E9" d="M115.678 107.715c0-1.203.531-2.178 1.185-2.178h29.19c.655 0 1.185.975 1.185 2.178 0 1.202-.53 2.177-1.185 2.177h-29.19c-.654 0-1.185-.975-1.185-2.177ZM115.678 130.577c0-1.202.975-2.177 2.177-2.177h31.117a2.177 2.177 0 1 1 0 4.354h-31.117a2.177 2.177 0 0 1-2.177-2.177ZM115.678 140.375c0-1.202.975-2.177 2.177-2.177h19.596a2.178 2.178 0 1 1 0 4.355h-19.596a2.178 2.178 0 0 1-2.177-2.178Z"/><g filter="url(#i)"><path fill="#fff" d="M112.817 99.128c0-3.314 1.565-6 3.495-6h58.964c1.93 0 3.495 2.686 3.495 6v55.476c0 3.314-1.565 6-3.495 6h-58.964c-1.93 0-3.495-2.686-3.495-6V99.128Z"/></g><path fill="#2FC6F6" fill-rule="evenodd" d="M176.191 94.218h-59.827c-1.603 0-2.903 2.198-2.903 4.91v55.476c0 2.712 1.3 4.911 2.903 4.911h59.827c1.603 0 2.902-2.199 2.902-4.911V99.128c0-2.712-1.299-4.91-2.902-4.91Zm-59.827-1.09c-1.959 0-3.547 2.686-3.547 6v55.476c0 3.314 1.588 6 3.547 6h59.827c1.959 0 3.546-2.686 3.546-6V99.128c0-3.314-1.587-6-3.546-6h-59.827Z" clip-rule="evenodd"/><path fill="#9DCF00" d="M123.809 106.433c0-1.202.53-2.177 1.185-2.177h36.166c.655 0 1.186.975 1.186 2.177 0 1.203-.531 2.178-1.186 2.178h-36.166c-.655 0-1.185-.975-1.185-2.178Z"/><path fill="#E6E7E9" d="M123.809 116.231c0-1.202.53-2.177 1.185-2.177h29.19c.654 0 1.185.975 1.185 2.177 0 1.203-.531 2.178-1.185 2.178h-29.19c-.655 0-1.185-.975-1.185-2.178ZM123.809 136.675c0-1.202.974-2.177 2.177-2.177h31.117a2.177 2.177 0 0 1 0 4.355h-31.117a2.177 2.177 0 0 1-2.177-2.178ZM123.809 146.473c0-1.202.974-2.177 2.177-2.177h19.596a2.178 2.178 0 1 1 0 4.355h-19.596a2.177 2.177 0 0 1-2.177-2.178Z"/><defs><filter id="a" width="130.572" height="141.583" x="44.654" y="18.228" color-interpolation-filters="sRGB" filterUnits="userSpaceOnUse"><feFlood flood-opacity="0" result="BackgroundImageFix"/><feColorMatrix in="SourceAlpha" result="hardAlpha" values="0 0 0 0 0 0 0 0 0 0 0 0 0 0 0 0 0 0 127 0"/><feOffset dy="2.576"/><feGaussianBlur stdDeviation="6.547"/><feComposite in2="hardAlpha" operator="out"/><feColorMatrix values="0 0 0 0 0.392157 0 0 0 0 0.427451 0 0 0 0 0.482353 0 0 0 0.16 0"/><feBlend in2="BackgroundImageFix" result="effect1_dropShadow_4247_71"/><feBlend in="SourceGraphic" in2="effect1_dropShadow_4247_71" result="shape"/></filter><filter id="b" width="89.719" height="78.004" x="65.08" y="76.136" color-interpolation-filters="sRGB" filterUnits="userSpaceOnUse"><feFlood flood-opacity="0" result="BackgroundImageFix"/><feColorMatrix in="SourceAlpha" result="hardAlpha" values="0 0 0 0 0 0 0 0 0 0 0 0 0 0 0 0 0 0 127 0"/><feOffset dy="3.709"/><feGaussianBlur stdDeviation="3.709"/><feComposite in2="hardAlpha" operator="out"/><feColorMatrix values="0 0 0 0 0.392157 0 0 0 0 0.427451 0 0 0 0 0.482353 0 0 0 0.1 0"/><feBlend in2="BackgroundImageFix" result="effect1_dropShadow_4247_71"/><feBlend in="SourceGraphic" in2="effect1_dropShadow_4247_71" result="shape"/></filter><filter id="c" width="80.885" height="25.176" x="69.497" y="77.845" color-interpolation-filters="sRGB" filterUnits="userSpaceOnUse"><feFlood flood-opacity="0" result="BackgroundImageFix"/><feColorMatrix in="SourceAlpha" result="hardAlpha" values="0 0 0 0 0 0 0 0 0 0 0 0 0 0 0 0 0 0 127 0"/><feOffset dy="1"/><feGaussianBlur stdDeviation="1.5"/><feComposite in2="hardAlpha" operator="out"/><feColorMatrix values="0 0 0 0 0.392157 0 0 0 0 0.427451 0 0 0 0 0.482353 0 0 0 0.1 0"/><feBlend in2="BackgroundImageFix" result="effect1_dropShadow_4247_71"/><feBlend in="SourceGraphic" in2="effect1_dropShadow_4247_71" result="shape"/></filter><filter id="d" width="31.854" height="31.755" x="109.522" y="100.666" color-interpolation-filters="sRGB" filterUnits="userSpaceOnUse"><feFlood flood-opacity="0" result="BackgroundImageFix"/><feColorMatrix in="SourceAlpha" result="hardAlpha" values="0 0 0 0 0 0 0 0 0 0 0 0 0 0 0 0 0 0 127 0"/><feOffset dy="3.709"/><feGaussianBlur stdDeviation="3.709"/><feComposite in2="hardAlpha" operator="out"/><feColorMatrix values="0 0 0 0 0.392157 0 0 0 0 0.427451 0 0 0 0 0.482353 0 0 0 0.1 0"/><feBlend in2="BackgroundImageFix" result="effect1_dropShadow_4247_71"/><feBlend in="SourceGraphic" in2="effect1_dropShadow_4247_71" result="shape"/></filter><filter id="e" width="30.719" height="30.627" x="94.58" y="47.936" color-interpolation-filters="sRGB" filterUnits="userSpaceOnUse"><feFlood flood-opacity="0" result="BackgroundImageFix"/><feColorMatrix in="SourceAlpha" result="hardAlpha" values="0 0 0 0 0 0 0 0 0 0 0 0 0 0 0 0 0 0 127 0"/><feOffset dy="3.709"/><feGaussianBlur stdDeviation="3.709"/><feComposite in2="hardAlpha" operator="out"/><feColorMatrix values="0 0 0 0 0.392157 0 0 0 0 0.427451 0 0 0 0 0.482353 0 0 0 0.1 0"/><feBlend in2="BackgroundImageFix" result="effect1_dropShadow_4247_71"/><feBlend in="SourceGraphic" in2="effect1_dropShadow_4247_71" result="shape"/></filter><filter id="f" width="31.854" height="31.755" x="119.945" y="119.403" color-interpolation-filters="sRGB" filterUnits="userSpaceOnUse"><feFlood flood-opacity="0" result="BackgroundImageFix"/><feColorMatrix in="SourceAlpha" result="hardAlpha" values="0 0 0 0 0 0 0 0 0 0 0 0 0 0 0 0 0 0 127 0"/><feOffset dy="3.709"/><feGaussianBlur stdDeviation="3.709"/><feComposite in2="hardAlpha" operator="out"/><feColorMatrix values="0 0 0 0 0.392157 0 0 0 0 0.427451 0 0 0 0 0.482353 0 0 0 0.1 0"/><feBlend in2="BackgroundImageFix" result="effect1_dropShadow_4247_71"/><feBlend in="SourceGraphic" in2="effect1_dropShadow_4247_71" result="shape"/></filter><filter id="g" width="31.854" height="31.755" x="99.522" y="119.403" color-interpolation-filters="sRGB" filterUnits="userSpaceOnUse"><feFlood flood-opacity="0" result="BackgroundImageFix"/><feColorMatrix in="SourceAlpha" result="hardAlpha" values="0 0 0 0 0 0 0 0 0 0 0 0 0 0 0 0 0 0 127 0"/><feOffset dy="3.709"/><feGaussianBlur stdDeviation="3.709"/><feComposite in2="hardAlpha" operator="out"/><feColorMatrix values="0 0 0 0 0.392157 0 0 0 0 0.427451 0 0 0 0 0.482353 0 0 0 0.1 0"/><feBlend in2="BackgroundImageFix" result="effect1_dropShadow_4247_71"/><feBlend in="SourceGraphic" in2="effect1_dropShadow_4247_71" result="shape"/></filter><filter id="h" width="89.034" height="90.556" x="93.147" y="77.76" color-interpolation-filters="sRGB" filterUnits="userSpaceOnUse"><feFlood flood-opacity="0" result="BackgroundImageFix"/><feColorMatrix in="SourceAlpha" result="hardAlpha" values="0 0 0 0 0 0 0 0 0 0 0 0 0 0 0 0 0 0 127 0"/><feOffset dy="2.27"/><feGaussianBlur stdDeviation="5.77"/><feComposite in2="hardAlpha" operator="out"/><feColorMatrix values="0 0 0 0 0.392157 0 0 0 0 0.427451 0 0 0 0 0.482353 0 0 0 0.16 0"/><feBlend in2="BackgroundImageFix" result="effect1_dropShadow_4247_71"/><feBlend in="SourceGraphic" in2="effect1_dropShadow_4247_71" result="shape"/><feColorMatrix in="SourceAlpha" result="hardAlpha" values="0 0 0 0 0 0 0 0 0 0 0 0 0 0 0 0 0 0 127 0"/><feOffset dx="3"/><feComposite in2="hardAlpha" k2="-1" k3="1" operator="arithmetic"/><feColorMatrix values="0 0 0 0 0.592157 0 0 0 0 0.886275 0 0 0 0 0.980392 0 0 0 0.45 0"/><feBlend in2="shape" result="effect2_innerShadow_4247_71"/></filter><filter id="i" width="89.034" height="90.556" x="101.277" y="83.858" color-interpolation-filters="sRGB" filterUnits="userSpaceOnUse"><feFlood flood-opacity="0" result="BackgroundImageFix"/><feColorMatrix in="SourceAlpha" result="hardAlpha" values="0 0 0 0 0 0 0 0 0 0 0 0 0 0 0 0 0 0 127 0"/><feOffset dy="2.27"/><feGaussianBlur stdDeviation="5.77"/><feComposite in2="hardAlpha" operator="out"/><feColorMatrix values="0 0 0 0 0.392157 0 0 0 0 0.427451 0 0 0 0 0.482353 0 0 0 0.16 0"/><feBlend in2="BackgroundImageFix" result="effect1_dropShadow_4247_71"/><feBlend in="SourceGraphic" in2="effect1_dropShadow_4247_71" result="shape"/><feColorMatrix in="SourceAlpha" result="hardAlpha" values="0 0 0 0 0 0 0 0 0 0 0 0 0 0 0 0 0 0 127 0"/><feOffset dx="3"/><feComposite in2="hardAlpha" k2="-1" k3="1" operator="arithmetic"/><feColorMatrix values="0 0 0 0 0.592157 0 0 0 0 0.886275 0 0 0 0 0.980392 0 0 0 0.45 0"/><feBlend in2="shape" result="effect2_innerShadow_4247_71"/></filter></defs></svg>