<svg xmlns="http://www.w3.org/2000/svg" width="219" height="178" fill="none"><path fill="#E5F9FF" fill-rule="evenodd" d="M157.627 5.038a2.399 2.399 0 0 0 2.405-2.392 2.398 2.398 0 0 0-2.405-2.392 2.399 2.399 0 0 0-2.406 2.392 2.399 2.399 0 0 0 2.406 2.392ZM38.922 25.698c2.88 0 5.215-2.322 5.215-5.185 0-2.864-2.335-5.185-5.215-5.185s-5.215 2.321-5.215 5.185c0 2.863 2.334 5.184 5.215 5.184Zm0-2.891a2.3 2.3 0 0 0 2.307-2.294 2.3 2.3 0 0 0-2.307-2.294 2.3 2.3 0 0 0-2.308 2.294 2.3 2.3 0 0 0 2.308 2.294ZM12.428 76.312c3.88 0 7.024-3.126 7.024-6.983 0-3.856-3.145-6.983-7.024-6.983-3.88 0-7.024 3.127-7.024 6.983 0 3.857 3.145 6.983 7.024 6.983Zm0-3.644a3.348 3.348 0 0 0 3.358-3.339 3.348 3.348 0 0 0-3.358-3.338 3.348 3.348 0 0 0-3.358 3.338 3.348 3.348 0 0 0 3.358 3.339Zm178.329 91.512c2.762 0 5.001-2.226 5.001-4.971 0-2.746-2.239-4.972-5.001-4.972-2.762 0-5 2.226-5 4.972 0 2.745 2.238 4.971 5 4.971Zm0-2.587a2.391 2.391 0 0 0 2.399-2.384 2.392 2.392 0 0 0-2.399-2.385 2.392 2.392 0 0 0-2.398 2.385 2.391 2.391 0 0 0 2.398 2.384Zm-80.039 15.357c47.496 0 86-38.279 86-85.5 0-47.22-38.504-85.5-86-85.5-47.497 0-86 38.28-86 85.5 0 47.221 38.503 85.5 86 85.5Zm-86.041-5.976H7.958c-.143 0-.285-.005-.425-.016-3.779-.088-6.815-3.245-6.815-7.126a7.213 7.213 0 0 1 2.047-5.043 6.975 6.975 0 0 1 2.33-1.571 7.612 7.612 0 0 1 2.139-5.904 7.29 7.29 0 0 1 5.21-2.201c2.502.003 4.712 1.282 6.04 3.234a5.87 5.87 0 0 1 2.016-.352c3.124.003 5.69 2.436 5.987 5.548 2.994.667 5.233 3.391 5.23 6.649-.002 3.754-2.982 6.795-6.657 6.793a6.97 6.97 0 0 1-.383-.011ZM201.856 38.751h11.865a4.69 4.69 0 0 0 .272.008c2.608 0 4.723-2.073 4.725-4.632.002-2.222-1.588-4.08-3.712-4.534-.211-2.121-2.032-3.78-4.249-3.783-.502 0-.984.085-1.431.24a5.25 5.25 0 0 0-4.287-2.204c-1.386-.001-2.716.539-3.697 1.5a5.08 5.08 0 0 0-1.518 4.026 4.966 4.966 0 0 0-1.653 1.071 4.818 4.818 0 0 0-1.453 3.438c0 2.647 2.155 4.799 4.836 4.859.1.007.2.01.302.01Z" clip-rule="evenodd"/><g filter="url(#a)"><path fill="#fff" d="M161.91 75.076c0-4.115-1.883-8.007-5.116-10.575l-43.146-34.274a6.839 6.839 0 0 0-8.534.027L62.573 64.502a13.506 13.506 0 0 0-5.047 10.52v62.352c0 3.738 3.047 6.768 6.807 6.768h90.769c3.76 0 6.808-3.03 6.808-6.768V75.076Z"/></g><path fill="#2FC6F6" fill-rule="evenodd" d="M156.086 65.382 112.94 31.108a5.7 5.7 0 0 0-7.112.023L63.287 65.379a12.38 12.38 0 0 0-4.627 9.643v62.352c0 3.115 2.54 5.64 5.673 5.64h90.769c3.133 0 5.673-2.525 5.673-5.64V75.076a12.38 12.38 0 0 0-4.689-9.694Zm.708-.881a13.508 13.508 0 0 1 5.116 10.575v62.298c0 3.738-3.048 6.768-6.808 6.768H64.333c-3.76 0-6.808-3.03-6.808-6.768V75.022c0-4.084 1.855-7.95 5.048-10.52l42.541-34.248a6.839 6.839 0 0 1 8.534-.027L156.794 64.5Z" clip-rule="evenodd" opacity=".5"/><g filter="url(#b)" opacity=".3"><path fill="#2FC6F6" d="M72.275 86.613c0-3.738 3.048-6.768 6.808-6.768h61.269c3.76 0 6.808 3.03 6.808 6.768v49.633c0 3.738-3.048 6.768-6.808 6.768H79.083c-3.76 0-6.808-3.03-6.808-6.768V86.613Z"/></g><g filter="url(#c)" opacity=".3"><path fill="#2FC6F6" d="M72.275 86.613c0-3.738 3.048-6.768 6.808-6.768h61.269c3.76 0 6.808 3.03 6.808 6.768v12.409H72.275V86.612Z"/></g><path fill="#2FC6F6" fill-rule="evenodd" d="M140.353 80.973h-61.27c-3.133 0-5.673 2.525-5.673 5.64v11.28h72.616v-11.28c0-3.115-2.54-5.64-5.673-5.64Zm-61.27-1.128c-3.76 0-6.807 3.03-6.807 6.768v12.409h74.884V86.612c0-3.738-3.048-6.768-6.807-6.768h-61.27Z" clip-rule="evenodd" opacity=".5"/><path fill="#fff" d="M73.41 88.87h72.616v1.127H73.41V88.87Z" opacity=".3"/><g filter="url(#d)"><path fill="#2FC6F6" d="M116.718 106.631a2.263 2.263 0 0 1 2.269-2.256h12.481a2.263 2.263 0 0 1 2.269 2.256v12.408a2.263 2.263 0 0 1-2.269 2.256h-12.481a2.263 2.263 0 0 1-2.269-2.256v-12.408Z"/></g><g filter="url(#e)"><path fill="#95C500" d="M117.66 59.54c0 4.362-3.556 7.897-7.942 7.897-4.387 0-7.942-3.535-7.942-7.896s3.555-7.896 7.942-7.896c4.386 0 7.942 3.535 7.942 7.896Z"/></g><g filter="url(#f)"><path fill="#2FC6F6" d="M127.141 125.367a2.263 2.263 0 0 1 2.269-2.256h12.481a2.263 2.263 0 0 1 2.269 2.256v12.409a2.263 2.263 0 0 1-2.269 2.256H129.41a2.263 2.263 0 0 1-2.269-2.256v-12.409Z"/></g><g filter="url(#g)"><path fill="#2FC6F6" d="M106.718 125.367a2.263 2.263 0 0 1 2.269-2.256h12.481a2.263 2.263 0 0 1 2.269 2.256v12.409a2.263 2.263 0 0 1-2.269 2.256h-12.481a2.263 2.263 0 0 1-2.269-2.256v-12.409Z"/></g><g filter="url(#h)"><circle cx="138.467" cy="110.45" r="41.439" fill="#2FC6F6"/></g><path fill="#fff" fill-rule="evenodd" d="M111.039 104.019h4.462v20.341h4.097V99.824h-8.65v4.195h.091Zm32.778-6.567c5.918 0 10.834 4.743 11.016 10.671h4.097c-.182-8.209-6.919-14.867-15.204-14.867-8.377 0-15.205 6.841-15.205 15.232 0 8.392 6.828 15.233 15.205 15.233h28.413v-4.105h-28.413c-6.01-.091-10.926-5.017-10.926-11.128s4.916-11.036 11.017-11.036Zm-22.397.366v26.634h4.097V93.713H114.5v4.105h6.92Zm17.207 10.67c0-2.827 2.367-5.199 5.189-5.199 2.732 0 5.008 2.098 5.19 4.834h4.097a9.262 9.262 0 0 0-9.287-8.939c-5.098 0-9.287 4.196-9.287 9.304 0 5.108 4.189 9.304 9.287 9.304h28.414v-4.105h-28.414c-2.822 0-5.189-2.371-5.189-5.199Z" clip-rule="evenodd"/><defs><filter id="a" width="130.572" height="141.583" x="44.432" y="18.228" color-interpolation-filters="sRGB" filterUnits="userSpaceOnUse"><feFlood flood-opacity="0" result="BackgroundImageFix"/><feColorMatrix in="SourceAlpha" result="hardAlpha" values="0 0 0 0 0 0 0 0 0 0 0 0 0 0 0 0 0 0 127 0"/><feOffset dy="2.576"/><feGaussianBlur stdDeviation="6.547"/><feComposite in2="hardAlpha" operator="out"/><feColorMatrix values="0 0 0 0 0.392157 0 0 0 0 0.427451 0 0 0 0 0.482353 0 0 0 0.16 0"/><feBlend in2="BackgroundImageFix" result="effect1_dropShadow_4247_65"/><feBlend in="SourceGraphic" in2="effect1_dropShadow_4247_65" result="shape"/></filter><filter id="b" width="89.719" height="78.004" x="64.858" y="76.136" color-interpolation-filters="sRGB" filterUnits="userSpaceOnUse"><feFlood flood-opacity="0" result="BackgroundImageFix"/><feColorMatrix in="SourceAlpha" result="hardAlpha" values="0 0 0 0 0 0 0 0 0 0 0 0 0 0 0 0 0 0 127 0"/><feOffset dy="3.709"/><feGaussianBlur stdDeviation="3.709"/><feComposite in2="hardAlpha" operator="out"/><feColorMatrix values="0 0 0 0 0.392157 0 0 0 0 0.427451 0 0 0 0 0.482353 0 0 0 0.1 0"/><feBlend in2="BackgroundImageFix" result="effect1_dropShadow_4247_65"/><feBlend in="SourceGraphic" in2="effect1_dropShadow_4247_65" result="shape"/></filter><filter id="c" width="80.885" height="25.176" x="69.275" y="77.845" color-interpolation-filters="sRGB" filterUnits="userSpaceOnUse"><feFlood flood-opacity="0" result="BackgroundImageFix"/><feColorMatrix in="SourceAlpha" result="hardAlpha" values="0 0 0 0 0 0 0 0 0 0 0 0 0 0 0 0 0 0 127 0"/><feOffset dy="1"/><feGaussianBlur stdDeviation="1.5"/><feComposite in2="hardAlpha" operator="out"/><feColorMatrix values="0 0 0 0 0.392157 0 0 0 0 0.427451 0 0 0 0 0.482353 0 0 0 0.1 0"/><feBlend in2="BackgroundImageFix" result="effect1_dropShadow_4247_65"/><feBlend in="SourceGraphic" in2="effect1_dropShadow_4247_65" result="shape"/></filter><filter id="d" width="31.854" height="31.755" x="109.3" y="100.666" color-interpolation-filters="sRGB" filterUnits="userSpaceOnUse"><feFlood flood-opacity="0" result="BackgroundImageFix"/><feColorMatrix in="SourceAlpha" result="hardAlpha" values="0 0 0 0 0 0 0 0 0 0 0 0 0 0 0 0 0 0 127 0"/><feOffset dy="3.709"/><feGaussianBlur stdDeviation="3.709"/><feComposite in2="hardAlpha" operator="out"/><feColorMatrix values="0 0 0 0 0.392157 0 0 0 0 0.427451 0 0 0 0 0.482353 0 0 0 0.1 0"/><feBlend in2="BackgroundImageFix" result="effect1_dropShadow_4247_65"/><feBlend in="SourceGraphic" in2="effect1_dropShadow_4247_65" result="shape"/></filter><filter id="e" width="30.719" height="30.627" x="94.358" y="47.936" color-interpolation-filters="sRGB" filterUnits="userSpaceOnUse"><feFlood flood-opacity="0" result="BackgroundImageFix"/><feColorMatrix in="SourceAlpha" result="hardAlpha" values="0 0 0 0 0 0 0 0 0 0 0 0 0 0 0 0 0 0 127 0"/><feOffset dy="3.709"/><feGaussianBlur stdDeviation="3.709"/><feComposite in2="hardAlpha" operator="out"/><feColorMatrix values="0 0 0 0 0.392157 0 0 0 0 0.427451 0 0 0 0 0.482353 0 0 0 0.1 0"/><feBlend in2="BackgroundImageFix" result="effect1_dropShadow_4247_65"/><feBlend in="SourceGraphic" in2="effect1_dropShadow_4247_65" result="shape"/></filter><filter id="f" width="31.854" height="31.755" x="119.724" y="119.403" color-interpolation-filters="sRGB" filterUnits="userSpaceOnUse"><feFlood flood-opacity="0" result="BackgroundImageFix"/><feColorMatrix in="SourceAlpha" result="hardAlpha" values="0 0 0 0 0 0 0 0 0 0 0 0 0 0 0 0 0 0 127 0"/><feOffset dy="3.709"/><feGaussianBlur stdDeviation="3.709"/><feComposite in2="hardAlpha" operator="out"/><feColorMatrix values="0 0 0 0 0.392157 0 0 0 0 0.427451 0 0 0 0 0.482353 0 0 0 0.1 0"/><feBlend in2="BackgroundImageFix" result="effect1_dropShadow_4247_65"/><feBlend in="SourceGraphic" in2="effect1_dropShadow_4247_65" result="shape"/></filter><filter id="g" width="31.854" height="31.755" x="99.3" y="119.403" color-interpolation-filters="sRGB" filterUnits="userSpaceOnUse"><feFlood flood-opacity="0" result="BackgroundImageFix"/><feColorMatrix in="SourceAlpha" result="hardAlpha" values="0 0 0 0 0 0 0 0 0 0 0 0 0 0 0 0 0 0 127 0"/><feOffset dy="3.709"/><feGaussianBlur stdDeviation="3.709"/><feComposite in2="hardAlpha" operator="out"/><feColorMatrix values="0 0 0 0 0.392157 0 0 0 0 0.427451 0 0 0 0 0.482353 0 0 0 0.1 0"/><feBlend in2="BackgroundImageFix" result="effect1_dropShadow_4247_65"/><feBlend in="SourceGraphic" in2="effect1_dropShadow_4247_65" result="shape"/></filter><filter id="h" width="97.712" height="97.712" x="89.611" y="65.302" color-interpolation-filters="sRGB" filterUnits="userSpaceOnUse"><feFlood flood-opacity="0" result="BackgroundImageFix"/><feColorMatrix in="SourceAlpha" result="hardAlpha" values="0 0 0 0 0 0 0 0 0 0 0 0 0 0 0 0 0 0 127 0"/><feOffset dy="3.709"/><feGaussianBlur stdDeviation="3.709"/><feComposite in2="hardAlpha" operator="out"/><feColorMatrix values="0 0 0 0 0.392157 0 0 0 0 0.427451 0 0 0 0 0.482353 0 0 0 0.1 0"/><feBlend in2="BackgroundImageFix" result="effect1_dropShadow_4247_65"/><feBlend in="SourceGraphic" in2="effect1_dropShadow_4247_65" result="shape"/></filter></defs></svg>