<svg width="24" height="24" viewBox="0 0 24 24" fill="none" xmlns="http://www.w3.org/2000/svg">
<g opacity="0.8">
<path fill-rule="evenodd" clip-rule="evenodd" d="M17.0581 11.6355C17.5669 11.6246 17.9881 12.0306 17.999 12.5424C18.0486 14.8937 16.3265 17.6546 12.9904 18.1107L12.9897 19.3295L13.3889 19.3297C13.8475 19.3297 14.2192 19.7036 14.2192 20.1649C14.2192 20.6261 13.8475 21 13.3889 21H10.6106C10.152 21 9.78026 20.6261 9.78026 20.1649C9.78026 19.7036 10.152 19.3297 10.6106 19.3297L11.0085 19.3295L11.0085 18.1099C7.67729 17.6575 5.97441 14.9624 6.00029 12.552C6.00579 12.0402 6.42277 11.6298 6.93164 11.6353C7.40659 11.6405 7.79373 12.0062 7.83877 12.471L7.84309 12.572C7.83793 13.0528 8.10494 13.9761 8.59772 14.6941C9.30522 15.725 10.3929 16.3224 12.0095 16.3224C13.6173 16.3224 14.701 15.7135 15.4098 14.6627C15.8624 13.9918 16.126 13.1394 16.1542 12.6804L16.1565 12.5817C16.1457 12.07 16.5493 11.6463 17.0581 11.6355ZM11.9997 4C13.5049 4 14.7251 5.15996 14.7251 6.59085V12.0526C14.7251 13.4835 13.5049 14.6435 11.9997 14.6435C10.4945 14.6435 9.27425 13.4835 9.27425 12.0526V6.59085C9.27425 5.15996 10.4945 4 11.9997 4Z" fill="#925AEB"/>
</g>
</svg>
