<svg width="269" height="220" viewBox="0 0 269 220" fill="none" xmlns="http://www.w3.org/2000/svg">
<path fill-rule="evenodd" clip-rule="evenodd" d="M193.399 5.93011C195.037 5.93011 196.365 4.60261 196.365 2.96506C196.365 1.3275 195.037 0 193.399 0C191.762 0 190.434 1.3275 190.434 2.96506C190.434 4.60261 191.762 5.93011 193.399 5.93011ZM47.0885 31.5435C50.6385 31.5435 53.5163 28.6656 53.5163 25.1157C53.5163 21.5657 50.6385 18.6879 47.0885 18.6879C43.5385 18.6879 40.6607 21.5657 40.6607 25.1157C40.6607 28.6656 43.5385 31.5435 47.0885 31.5435ZM47.0885 27.9596C48.6591 27.9596 49.9324 26.6863 49.9324 25.1157C49.9324 23.545 48.6591 22.2717 47.0885 22.2717C45.5178 22.2717 44.2446 23.545 44.2446 25.1157C44.2446 26.6863 45.5178 27.9596 47.0885 27.9596ZM14.4335 94.2941C19.2148 94.2941 23.0909 90.4181 23.0909 85.6367C23.0909 80.8554 19.2148 76.9794 14.4335 76.9794C9.65215 76.9794 5.77611 80.8554 5.77611 85.6367C5.77611 90.4181 9.65215 94.2941 14.4335 94.2941ZM14.4335 89.7758C16.7194 89.7758 18.5726 87.9227 18.5726 85.6367C18.5726 83.3508 16.7194 81.4976 14.4335 81.4976C12.1475 81.4976 10.2944 83.3508 10.2944 85.6367C10.2944 87.9227 12.1475 89.7758 14.4335 89.7758ZM234.235 203.23C237.639 203.23 240.398 200.47 240.398 197.066C240.398 193.662 237.639 190.903 234.235 190.903C230.831 190.903 228.071 193.662 228.071 197.066C228.071 200.47 230.831 203.23 234.235 203.23ZM234.235 200.022C235.867 200.022 237.191 198.699 237.191 197.066C237.191 195.434 235.867 194.11 234.235 194.11C232.602 194.11 231.279 195.434 231.279 197.066C231.279 198.699 232.602 200.022 234.235 200.022ZM135.581 219.062C194.124 219.062 241.581 171.604 241.581 113.062C241.581 54.5194 194.124 7.06163 135.581 7.06163C77.0392 7.06163 29.5814 54.5194 29.5814 113.062C29.5814 171.604 77.0392 219.062 135.581 219.062ZM29.5306 211.652H8.92399C8.74766 211.652 8.57286 211.646 8.3998 211.632C3.74264 211.523 0.000235297 207.61 0 202.798C0.00135398 200.452 0.909229 198.204 2.5239 196.546C3.35156 195.697 4.33018 195.038 5.39489 194.598C5.37708 194.36 5.36801 194.118 5.36801 193.875C5.36948 191.4 6.32745 189.028 8.03119 187.279C9.73493 185.53 12.0449 184.548 14.4529 184.55C17.5374 184.554 20.2607 186.139 21.8974 188.559C22.6746 188.276 23.5112 188.122 24.3829 188.122C28.2333 188.127 31.3957 191.143 31.7623 195.001C35.4517 195.828 38.2126 199.205 38.2093 203.244C38.2055 207.898 34.5323 211.668 30.0037 211.666C29.8449 211.666 29.6872 211.661 29.5306 211.652ZM247.915 47.7265H262.539C262.65 47.7328 262.762 47.736 262.874 47.736C266.088 47.7374 268.695 45.1667 268.698 41.9935C268.7 39.2399 266.741 36.9369 264.122 36.3733C263.862 33.7432 261.618 31.6865 258.885 31.6833C258.267 31.683 257.673 31.7878 257.121 31.9808C255.96 30.3311 254.027 29.2503 251.838 29.2477C250.129 29.2466 248.49 29.9159 247.281 31.1083C246.072 32.3006 245.392 33.9184 245.391 35.6057C245.391 35.7716 245.397 35.936 245.41 36.0988C244.654 36.3987 243.96 36.8477 243.373 37.427C242.227 38.557 241.582 40.0903 241.581 41.6894C241.582 44.9702 244.237 47.6387 247.543 47.713C247.665 47.722 247.789 47.7265 247.915 47.7265Z" fill="#E5F9FF"/>
<g filter="url(#filter0_d_6001_66542)">
<rect x="50" y="42" width="168" height="132.344" rx="9" fill="white"/>
</g>
<rect x="58" y="50" width="151.991" height="50.7983" rx="6" fill="#7FDEFC"/>
<g opacity="0.2">
<mask id="mask0_6001_66542" style="mask-type:alpha" maskUnits="userSpaceOnUse" x="58" y="50" width="152" height="51">
<rect x="58" y="50" width="151.991" height="50.7983" rx="6" fill="#C3F0FF"/>
</mask>
<g mask="url(#mask0_6001_66542)">
<path d="M195.143 55.1669C195.353 55.1695 195.565 55.1876 195.772 55.2209C195.97 55.2526 196.163 55.3258 196.341 55.4432L220.163 71.2075C221.163 71.8693 221.438 73.2167 220.776 74.2169L219.848 75.6186C219.186 76.6188 217.839 76.8931 216.839 76.2312L196.505 62.7758C195.779 62.295 194.835 62.295 194.108 62.7758L173.829 76.1953C172.829 76.8572 171.482 76.5829 170.82 75.5827L169.892 74.1811C169.23 73.1809 169.505 71.8335 170.505 71.1716L194.327 55.4073C194.579 55.241 194.863 55.1633 195.143 55.1669Z" fill="white"/>
<path fill-rule="evenodd" clip-rule="evenodd" d="M176.129 80.0121C176.129 78.7985 176.738 77.6656 177.749 76.9952L194.224 66.0764C194.951 65.5944 195.896 65.5944 196.623 66.0764L213.098 76.9951C214.11 77.6656 214.718 78.7985 214.718 80.0122L214.718 98.8604C214.718 100.859 213.097 102.48 211.098 102.48H179.748C177.749 102.48 176.129 100.859 176.129 98.8602L176.129 80.0121ZM194.432 75.8981C194.698 75.3624 195.462 75.3624 195.728 75.8981L198.436 81.3481C198.542 81.5602 198.744 81.7074 198.979 81.7421L204.998 82.6333C205.59 82.7209 205.826 83.4477 205.399 83.8664L201.053 88.1258C200.884 88.2916 200.806 88.5297 200.846 88.7633L201.858 94.764C201.958 95.3539 201.34 95.8031 200.809 95.5261L195.415 92.7086C195.205 92.5989 194.955 92.5989 194.745 92.7086L189.351 95.5261C188.821 95.8031 188.202 95.3539 188.302 94.764L189.315 88.7633C189.354 88.5297 189.277 88.2916 189.108 88.1258L184.761 83.8664C184.334 83.4477 184.57 82.7209 185.162 82.6333L191.182 81.7421C191.416 81.7074 191.619 81.5602 191.724 81.3481L194.432 75.8981Z" fill="white"/>
</g>
</g>
<rect opacity="0.5" x="70.5273" y="62.1084" width="83.46" height="5" rx="2.5" fill="white"/>
<path d="M84.69 88.4554C84.8698 88.4234 84.9878 88.251 84.9506 88.0722C84.7502 87.1087 84.3893 85.7816 84.3893 85.7816C84.3893 85.41 83.8912 84.9852 82.9098 84.7379C82.5765 84.647 82.2602 84.5066 81.9725 84.3219C81.9264 84.2074 81.9082 84.0843 81.9192 83.9621L81.6046 83.9151C81.6046 83.8887 81.5777 83.4993 81.5777 83.4993C81.9557 83.3754 81.9169 82.6445 81.9169 82.6445C82.157 82.7743 82.3133 82.1966 82.3133 82.1966C82.5973 81.3934 82.1719 81.4417 82.1719 81.4417C82.2463 80.9511 82.2463 80.4527 82.1719 79.962C81.9829 78.3347 79.1352 78.776 79.473 79.3079C78.6408 79.1577 78.8307 81.0053 78.8307 81.0053L79.0113 81.483C78.7613 81.6409 78.8102 81.8226 78.8649 82.0255C78.8878 82.1102 78.9116 82.1987 78.9151 82.2906C78.9326 82.7519 79.2212 82.6561 79.2212 82.6561C79.2391 83.4167 79.6234 83.5167 79.6234 83.5167C79.6956 83.9944 79.6507 83.912 79.6507 83.912L79.3086 83.9524C79.3133 84.061 79.3042 84.1697 79.2817 84.2762C79.0829 84.3628 78.9613 84.4314 78.8412 84.4992C78.7176 84.569 78.5955 84.6379 78.3927 84.7245C77.6201 85.0539 76.7803 85.4842 76.6313 86.0623C76.5402 86.4158 76.3385 87.4077 76.1955 88.1251C76.1591 88.3082 76.2803 88.4853 76.4646 88.5151C77.7024 88.715 79.026 88.8232 80.4016 88.8232C81.9082 88.8232 83.3526 88.6934 84.69 88.4554Z" fill="white"/>
<path d="M88.4175 86.9475C88.6784 86.8783 88.849 86.6327 88.7833 86.3708C88.6618 85.8861 88.4111 85.2702 88.1117 85.0887C87.7023 84.8406 87.7388 84.8921 87.4824 84.7529C87.313 84.657 87.1342 84.5771 86.9486 84.5142C86.8535 84.4325 86.7798 84.3305 86.7336 84.2166C86.636 84.098 86.5078 84.0058 86.3615 83.949L86.3506 83.5929L87.1201 83.3582C87.1201 83.3582 87.3185 83.2681 87.3379 83.2681C87.3072 83.2053 87.2717 83.1448 87.2318 83.0868C87.2172 83.049 87.1447 82.7893 87.1447 82.7893C87.2569 82.9293 87.3889 83.0538 87.5368 83.1593C87.4058 82.9202 87.2936 82.672 87.2013 82.417C87.1396 82.1808 87.0967 81.9405 87.073 81.6982C87.0201 81.2478 86.9378 80.8011 86.8266 80.3605C86.7475 80.1416 86.6067 79.9478 86.4196 79.8005C86.1454 79.6146 85.8235 79.5032 85.4883 79.478H85.4497C85.1144 79.5031 84.7925 79.6145 84.5183 79.8005C84.3315 79.948 84.1908 80.1417 84.1116 80.3605C84.0001 80.801 83.9177 81.2478 83.8649 81.6982C83.8446 81.946 83.8037 82.1918 83.7427 82.4334C83.6504 82.684 83.5362 82.9267 83.4013 83.159C83.5485 83.0531 83.6797 82.9282 83.7911 82.788C83.7911 82.788 83.6981 83.0729 83.6832 83.111C83.6494 83.1602 83.6208 83.2125 83.5981 83.2673C83.6172 83.2673 83.8159 83.3574 83.8159 83.3574L84.5852 83.5929L84.5741 83.949C84.4279 84.006 84.2997 84.0983 84.202 84.2168C84.165 84.2958 84.1195 84.3709 84.0665 84.4409C84.7673 84.7185 85.1776 85.125 85.1941 85.5797C85.1974 85.6028 85.2344 85.7411 85.2861 85.9346C85.4155 86.4181 85.6371 87.2467 85.6551 87.4863H85.7184C86.6948 87.3459 87.6016 87.164 88.4175 86.9475Z" fill="white"/>
<path d="M75.4035 87.484H75.1244C74.2352 87.3567 73.4036 87.195 72.6455 87.0041C72.3809 86.9374 72.2034 86.69 72.2608 86.4232C72.3643 85.9417 72.5904 85.3291 72.9706 85.0795C73.2171 84.9178 73.3194 84.8899 73.5759 84.7506C73.7453 84.6548 73.924 84.5748 74.1096 84.5119C74.2048 84.4302 74.2784 84.3283 74.3247 84.2144C74.4222 84.0958 74.5505 84.0035 74.6968 83.9467L74.7079 83.5907L73.9384 83.3559C73.9384 83.3559 73.7399 83.2658 73.7205 83.2658C73.7512 83.2031 73.7866 83.1425 73.8264 83.0846C73.841 83.0467 73.9136 82.787 73.9136 82.787C73.8014 82.9271 73.6694 83.0516 73.5214 83.157C73.6525 82.9179 73.7646 82.6698 73.8569 82.4147C73.9186 82.1786 73.9615 81.9383 73.9852 81.6959C74.0381 81.2456 74.1204 80.7988 74.2316 80.3583C74.3107 80.1394 74.4516 79.9456 74.6386 79.7983C74.9129 79.6124 75.2347 79.5009 75.57 79.4757H75.6085C75.9438 79.5008 76.2657 79.6123 76.5399 79.7983C76.7267 79.9458 76.8675 80.1395 76.9467 80.3583C77.0582 80.7988 77.1405 81.2456 77.1933 81.6959C77.2136 81.9437 77.2545 82.1896 77.3155 82.4312C77.4079 82.6817 77.5221 82.9244 77.6569 83.1568C77.5099 83.0509 77.3789 82.9262 77.2676 82.7861C77.2697 82.7925 77.3608 83.0713 77.3754 83.1089C77.4093 83.1581 77.4379 83.2105 77.4606 83.2652C77.4415 83.2652 77.2428 83.3553 77.2428 83.3553L76.4733 83.5907L76.4844 83.9467C76.6306 84.0037 76.7588 84.096 76.8565 84.2146C76.8935 84.2935 76.9389 84.3686 76.992 84.4387C76.2911 84.7163 75.8809 85.1227 75.8645 85.5774C75.8613 85.6004 75.8248 85.7367 75.7736 85.9279C75.6444 86.4109 75.4216 87.2437 75.4035 87.484Z" fill="white"/>
<path fill-rule="evenodd" clip-rule="evenodd" d="M99.9082 80.8608C99.9082 79.7563 100.804 78.8608 101.908 78.8608H111.169C112.274 78.8608 113.169 79.7563 113.169 80.8608V86.7959C113.169 87.9005 112.274 88.7959 111.169 88.7959H101.908C100.804 88.7959 99.9082 87.9005 99.9082 86.7959V80.8608ZM106.607 86.2698C106.877 86.1809 107.026 85.8985 106.971 85.6191L106.895 85.2322C106.895 84.9905 106.573 84.7145 105.939 84.5537C105.725 84.4949 105.521 84.4037 105.334 84.2835C105.294 84.2606 105.3 84.0496 105.3 84.0496L105.096 84.0191C105.096 84.002 105.078 83.7489 105.078 83.7489C105.323 83.6684 105.297 83.1933 105.297 83.1933C105.452 83.2777 105.553 82.9017 105.553 82.9017C105.737 82.3793 105.462 82.4109 105.462 82.4109C105.51 82.092 105.51 81.7679 105.462 81.449C105.34 80.3911 103.501 80.6783 103.719 81.0238C103.181 80.9266 103.304 82.1271 103.304 82.1271L103.421 82.438C103.259 82.5409 103.291 82.659 103.326 82.7909C103.341 82.8459 103.356 82.9032 103.359 82.9629C103.37 83.2625 103.557 83.2004 103.557 83.2004C103.568 83.6949 103.817 83.7593 103.817 83.7593C103.863 84.0698 103.834 84.0169 103.834 84.0169L103.613 84.0432C103.616 84.1138 103.61 84.1845 103.596 84.2537C103.467 84.3099 103.389 84.3546 103.311 84.3989C103.231 84.4442 103.152 84.489 103.022 84.5453C102.523 84.7599 101.98 85.0391 101.884 85.415C101.867 85.4802 101.851 85.5588 101.835 85.6441C101.785 85.9122 101.936 86.1773 102.195 86.2632C102.821 86.4711 103.516 86.5937 104.249 86.6094H104.572C105.298 86.5939 105.986 86.4737 106.607 86.2698ZM107.537 81.8542C107.537 81.4877 107.834 81.1906 108.201 81.1906H111.077C111.443 81.1906 111.74 81.4877 111.74 81.8542C111.74 82.2208 111.443 82.5179 111.077 82.5179H108.201C107.834 82.5179 107.537 82.2208 107.537 81.8542ZM107.537 84.1215C107.537 83.7549 107.834 83.4578 108.201 83.4578H109.971C110.337 83.4578 110.634 83.7549 110.634 84.1215C110.634 84.488 110.337 84.7852 109.971 84.7852H108.201C107.834 84.7852 107.537 84.488 107.537 84.1215Z" fill="white"/>
<path fill-rule="evenodd" clip-rule="evenodd" d="M137.938 77.8324C136.987 77.5109 130.828 76.3232 130.828 76.3232L130.348 77.4428L137.799 78.7713C138.566 78.7713 139.188 79.4553 139.188 80.2991V79.3602C139.188 78.5164 138.61 78.0596 137.938 77.8324ZM128.711 78.5914C128.711 78.5914 136.94 79.2557 137.891 79.5772C138.563 79.8044 139.141 80.2612 139.141 81.105V82.0438C139.141 81.2001 138.519 80.5161 137.752 80.5161H128.26L128.711 78.5914ZM126.693 82.5259C126.693 81.9736 127.141 81.5259 127.693 81.5259H138.142C138.694 81.5259 139.142 81.9736 139.142 82.5259V88.0693C139.142 88.6215 138.694 89.0693 138.142 89.0693H127.693C127.141 89.0693 126.693 88.6216 126.693 88.0693V82.5259Z" fill="white"/>
<path d="M61.2969 114C61.2969 111.791 63.0877 110 65.2969 110H133.288C135.497 110 137.288 111.791 137.288 114V136.482C137.288 138.691 135.497 140.482 133.288 140.482H65.2969C63.0877 140.482 61.2969 138.691 61.2969 136.482V114Z" fill="#E5F9FF"/>
<g clip-path="url(#clip0_6001_66542)">
<path fill-rule="evenodd" clip-rule="evenodd" d="M91.3948 123.293C88.8051 123.293 86.7057 121.261 86.7057 118.753C86.7057 116.246 88.8051 114.213 91.3948 114.213C93.9846 114.213 96.084 116.246 96.084 118.753C96.084 121.261 93.9846 123.293 91.3948 123.293Z" fill="#C3F0FF"/>
<path fill-rule="evenodd" clip-rule="evenodd" d="M127.789 143.081H69.1089L85.0815 128.695L94.1019 136.291L108.665 120.063L127.789 140.252V143.081Z" fill="#C3F0FF"/>
</g>
<rect opacity="0.5" x="61.2969" y="146.559" width="38.1905" height="4.5" rx="2.25" fill="#BDC1C6"/>
<rect x="61.2969" y="155.059" width="28.4964" height="4.5" rx="2.25" fill="#525C69" fill-opacity="0.1"/>
<path fill-rule="evenodd" clip-rule="evenodd" d="M122.868 148.922C121.76 149.509 120.896 150.613 120.876 151.819C120.871 152.09 120.888 152.361 120.904 152.633C120.924 152.953 120.993 153.15 121.148 153.614C121.304 154.077 121.75 154.821 122.164 155.356C122.466 155.744 122.808 156.097 123.168 156.436C123.717 156.952 127.815 160.043 127.815 160.043C127.815 160.043 132.05 156.782 132.526 156.325C132.905 155.958 133.264 155.573 133.57 155.144C134.022 154.506 134.517 153.8 134.629 153.033C134.669 152.759 134.69 152.484 134.7 152.207C134.716 151.803 134.698 151.4 134.591 151.006C134.354 150.144 133.631 149.47 132.851 149.003C132.416 148.741 131.942 148.592 131.436 148.537C131.117 148.503 130.799 148.506 130.482 148.555C129.87 148.65 129.322 148.893 128.834 149.266C128.422 149.58 128.087 149.961 127.814 150.395C127.806 150.407 127.799 150.419 127.791 150.43C127.744 150.366 127.707 150.306 127.666 150.247C127.271 149.671 126.771 149.206 126.137 148.887C125.754 148.694 125.348 148.576 124.92 148.532C124.798 148.52 124.677 148.514 124.555 148.514C124.395 148.514 124.235 148.524 124.074 148.545C123.648 148.599 123.245 148.723 122.868 148.922Z" fill="#525C69" fill-opacity="0.1"/>
<rect opacity="0.5" x="170.848" y="131.257" width="21.332" height="4.5" rx="2.25" fill="#BDC1C6"/>
<rect x="173.555" y="139.757" width="15.9172" height="4.5" rx="2.25" fill="#525C69" fill-opacity="0.1"/>
<path d="M181.512 112.518C181.512 111.413 180.615 110.51 179.514 110.592C174.157 110.988 169.018 112.972 164.757 116.315C159.967 120.072 156.558 125.331 155.07 131.26C153.581 137.188 154.097 143.448 156.537 149.048C158.977 154.648 163.201 159.268 168.541 162.176C173.88 165.084 180.03 166.115 186.016 165.105C192.002 164.096 197.483 161.103 201.591 156.6C205.699 152.098 208.2 146.344 208.696 140.249C209.138 134.826 207.972 129.409 205.368 124.677C204.833 123.704 203.579 123.447 202.652 124.058L200.971 125.167C200.053 125.772 199.805 127.001 200.316 127.974C202.209 131.577 203.049 135.664 202.716 139.754C202.328 144.509 200.378 148.997 197.174 152.508C193.97 156.02 189.694 158.355 185.025 159.142C180.356 159.93 175.559 159.126 171.394 156.857C167.23 154.589 163.935 150.985 162.032 146.618C160.129 142.25 159.726 137.367 160.887 132.743C162.048 128.118 164.707 124.016 168.443 121.086C171.651 118.569 175.495 117.041 179.515 116.659C180.615 116.554 181.512 115.669 181.512 114.564L181.512 112.518Z" fill="#C3F0FF"/>
<defs>
<filter id="filter0_d_6001_66542" x="45" y="39" width="178" height="142.344" filterUnits="userSpaceOnUse" color-interpolation-filters="sRGB">
<feFlood flood-opacity="0" result="BackgroundImageFix"/>
<feColorMatrix in="SourceAlpha" type="matrix" values="0 0 0 0 0 0 0 0 0 0 0 0 0 0 0 0 0 0 127 0" result="hardAlpha"/>
<feOffset dy="2"/>
<feGaussianBlur stdDeviation="2.5"/>
<feComposite in2="hardAlpha" operator="out"/>
<feColorMatrix type="matrix" values="0 0 0 0 0.423529 0 0 0 0 0.423529 0 0 0 0 0.423529 0 0 0 0.08 0"/>
<feBlend mode="normal" in2="BackgroundImageFix" result="effect1_dropShadow_6001_66542"/>
<feBlend mode="normal" in="SourceGraphic" in2="effect1_dropShadow_6001_66542" result="shape"/>
</filter>
<clipPath id="clip0_6001_66542">
<rect width="71" height="30" fill="white" transform="translate(61.2969 110.482)"/>
</clipPath>
</defs>
</svg>
