<svg width="22" height="22" viewBox="0 0 22 22" fill="none" xmlns="http://www.w3.org/2000/svg">
	<path d="M15.5827 14.4903L15.8557 16.0114C15.9397 16.4797 15.6833 16.9455 15.2324 17.0972C13.62 17.6399 11.809 17.961 9.89078 18H9.09702C7.17464 17.9609 5.35994 17.6385 3.7449 17.0937C3.30465 16.9452 3.04507 16.4957 3.10797 16.0353C3.16726 15.6014 3.23239 15.1596 3.2989 14.9143C3.53524 14.0426 4.86471 13.3952 6.08799 12.8973C6.4083 12.7669 6.60166 12.6629 6.79703 12.5578C6.98786 12.4551 7.18061 12.3515 7.49543 12.2211C7.53118 12.0606 7.54555 11.8967 7.53821 11.7329L8.08007 11.672C8.08007 11.672 8.15137 11.7946 8.03699 11.0745C8.03699 11.0745 7.42808 10.9251 7.39986 9.77844C7.39986 9.77844 6.94204 9.92241 6.91444 9.22763C6.90872 9.08919 6.87091 8.9561 6.83469 8.82857C6.74779 8.52268 6.67 8.24884 7.06613 8.01022L6.78034 7.28924C6.78034 7.28924 6.47967 4.50506 7.79731 4.73046C7.26273 3.92918 11.7712 3.26314 12.0706 5.71656C12.1884 6.45614 12.1884 7.20781 12.0706 7.94739C12.0706 7.94739 12.7441 7.87414 12.2945 9.08563C12.2945 9.08563 12.0469 9.95763 11.6668 9.76182C11.6668 9.76182 11.7284 10.8637 11.1298 11.0505C11.1298 11.0505 11.1726 11.6374 11.1726 11.6771L11.6729 11.7478C11.6729 11.7478 11.6577 12.2372 11.7575 12.2902C12.2139 12.5691 12.7142 12.7805 13.2405 12.9168C14.7939 13.2898 15.5827 13.9299 15.5827 14.4903Z" fill="#00A94E"/>
	<path d="M17.0633 5.59961H19.0153V7.99939H21.5149V9.96694H19.0153V12.4861H17.0633V9.96694H14.6831V7.99939H17.0633V5.59961Z" fill="#00A94E"/>
</svg>