<svg width="22" height="23" viewBox="0 0 22 23" fill="none" xmlns="http://www.w3.org/2000/svg">
	<path d="M15.5827 14.9903L15.8557 16.5114C15.9397 16.9797 15.6833 17.4455 15.2324 17.5972C13.62 18.1399 11.809 18.461 9.89078 18.5H9.09702C7.17464 18.4609 5.35994 18.1385 3.7449 17.5937C3.30465 17.4452 3.04507 16.9957 3.10797 16.5353C3.16726 16.1014 3.23239 15.6596 3.2989 15.4143C3.53524 14.5426 4.86471 13.8952 6.08799 13.3973C6.4083 13.2669 6.60166 13.1629 6.79703 13.0578C6.98786 12.9551 7.18061 12.8515 7.49543 12.7211C7.53118 12.5606 7.54555 12.3967 7.53821 12.2329L8.08007 12.172C8.08007 12.172 8.15137 12.2946 8.03699 11.5745C8.03699 11.5745 7.42808 11.4251 7.39986 10.2784C7.39986 10.2784 6.94204 10.4224 6.91444 9.72763C6.90872 9.58919 6.87091 9.4561 6.83469 9.32857C6.74779 9.02268 6.67 8.74884 7.06613 8.51022L6.78034 7.78924C6.78034 7.78924 6.47967 5.00506 7.79731 5.23046C7.26273 4.42918 11.7712 3.76314 12.0706 6.21656C12.1884 6.95614 12.1884 7.70781 12.0706 8.44739C12.0706 8.44739 12.7441 8.37414 12.2945 9.58563C12.2945 9.58563 12.0469 10.4576 11.6668 10.2618C11.6668 10.2618 11.7284 11.3637 11.1298 11.5505C11.1298 11.5505 11.1726 12.1374 11.1726 12.1771L11.6729 12.2478C11.6729 12.2478 11.6577 12.7372 11.7575 12.7902C12.2139 13.0691 12.7142 13.2805 13.2405 13.4168C14.7939 13.7898 15.5827 14.4299 15.5827 14.9903Z" fill="#19CC45"/>
	<path d="M17.0638 6.09961H19.0158V8.49939H21.5153V10.4669H19.0158V12.9861H17.0638V10.4669H14.6836V8.49939H17.0638V6.09961Z" fill="#19CC45"/>
</svg>
