<svg width="13" height="10" viewBox="0 0 13 10" fill="none" xmlns="http://www.w3.org/2000/svg">
<path fill-rule="evenodd" clip-rule="evenodd" d="M2.46683 0.586343C1.55841 1.0702 0.850245 1.98064 0.833939 2.97445C0.830346 3.19843 0.843612 3.4217 0.85743 3.64568C0.87346 3.9099 0.9298 4.07241 1.0572 4.45463C1.18461 4.83684 1.55012 5.4499 1.88978 5.89063C2.1374 6.21102 2.41736 6.50206 2.71197 6.78114C3.16189 7.207 6.52029 9.75538 6.52029 9.75538C6.52029 9.75538 9.99062 7.06674 10.3806 6.69016C10.6918 6.38753 10.9855 6.07003 11.2359 5.71629C11.6068 5.19003 12.0124 4.60832 12.1041 3.97586C12.1367 3.7497 12.1544 3.52282 12.1627 3.29484C12.1754 2.9614 12.1608 2.62904 12.0726 2.30466C11.8786 1.59356 11.286 1.0383 10.6473 0.652669C10.291 0.437381 9.90246 0.314152 9.48736 0.269209C9.22647 0.240939 8.96558 0.243114 8.70607 0.283707C8.20419 0.362356 7.75565 0.562059 7.35575 0.870132C7.01803 1.12855 6.7436 1.44278 6.51974 1.80087C6.51311 1.81066 6.50703 1.82044 6.50039 1.82987C6.46253 1.77695 6.43158 1.7273 6.39841 1.67873C6.07424 1.20394 5.66521 0.820478 5.14537 0.557348C4.83169 0.3986 4.49867 0.300741 4.14796 0.26486C4.0482 0.254712 3.9487 0.25 3.84921 0.25C3.71766 0.25 3.58639 0.258336 3.45511 0.275371C3.10606 0.319951 2.77581 0.421796 2.46683 0.586343Z" fill="#FF5752"/>
</svg>
