<svg width="16" height="16" viewBox="0 0 16 16" fill="none" xmlns="http://www.w3.org/2000/svg">
<path fill-rule="evenodd" clip-rule="evenodd" d="M7.56357 3.20924C7.89517 2.97952 8.3483 3.21685 8.3483 3.62025V12.119C8.3483 12.5197 7.90062 12.7576 7.56854 12.5335L4.84459 10.6946V10.5335C4.82224 10.5364 4.79945 10.5378 4.77632 10.5378H2.66571C2.37126 10.5378 2.13257 10.2992 2.13257 10.0047V5.72073C2.13257 5.42629 2.37126 5.18759 2.66571 5.18759H4.77632C4.79945 5.18759 4.82224 5.18907 4.84459 5.19192V5.09287L7.56357 3.20924ZM13.2449 9.95598L13.9871 9.21385L12.5027 7.72944L13.9871 6.24506L13.2449 5.50287L11.7606 6.98725L10.2762 5.50287L9.534 6.24506L11.0184 7.72944L9.534 9.21385L10.2762 9.95598L11.7606 8.47162L13.2449 9.95598Z" fill="white" fill-opacity="0.5"/>
</svg>
