<svg width="16" height="16" viewBox="0 0 16 16" fill="none" xmlns="http://www.w3.org/2000/svg">
	<path fill-rule="evenodd" clip-rule="evenodd" d="M12.9237 6.35006C13.1878 6.61484 13.1741 7.05689 12.893 7.3374C12.612 7.61791 12.1699 7.63067 11.9058 7.36589L11.6114 7.07716L9.12446 10.2522L9.60557 10.7333C9.85236 11.0008 9.83146 11.4286 9.55825 11.7018C9.28505 11.975 8.85729 11.9959 8.5898 11.7491L7.20631 10.3682L4.42692 12.2129C4.38189 12.2632 4.31413 12.286 4.25096 12.2721C4.1878 12.2582 4.13965 12.21 4.12595 12.1467C4.11226 12.0835 4.13526 12.0158 4.1857 11.9709L6.18394 9.34435L4.57386 7.73462C4.32205 7.46785 4.34092 7.03597 4.6164 6.76067C4.89189 6.48537 5.32377 6.46682 5.59034 6.71883L6.07145 7.19994L9.12446 4.5986L8.8466 4.30672C8.59479 4.03996 8.61366 3.60807 8.88914 3.33277C9.16463 3.05747 9.59651 3.03892 9.86308 3.29093L12.9237 6.35006Z" fill="#fff"/>
</svg>