<svg width="14" height="11" viewBox="0 0 14 11" fill="none" xmlns="http://www.w3.org/2000/svg">
<path fill-rule="evenodd" clip-rule="evenodd" d="M7.34594 8.60901C7.23079 8.72163 7.04727 8.72323 6.93018 8.61264L5.9867 7.72155C5.82137 7.5654 5.81931 7.30301 5.98217 7.14429L6.43853 6.69953C6.58787 6.55399 6.82397 6.54759 6.98097 6.68485L7.1398 6.8237L11.9902 2.07625C12.1455 1.92429 12.3936 1.92403 12.5492 2.07565L12.9954 2.51049C13.1563 2.6673 13.1565 2.92582 12.9959 3.08291L7.34594 8.60901Z" fill="white"/>
<path fill-rule="evenodd" clip-rule="evenodd" d="M3.20524 8.60582C3.08879 8.71972 2.90274 8.71988 2.78608 8.6062L0.377275 6.25862C0.21618 6.10162 0.21618 5.8427 0.377275 5.6857L0.82354 5.25078C0.978875 5.09939 1.22656 5.09939 1.3819 5.25077L2.99584 6.8237L7.84625 2.07625C8.0015 1.92429 8.24965 1.92403 8.40522 2.07565L8.85141 2.51049C9.01231 2.6673 9.01254 2.92582 8.85193 3.08291L3.20524 8.60582Z" fill="white"/>
</svg>
