<?xml version="1.0" encoding="UTF-8"?>
<svg width="38px" height="40px" viewBox="0 0 38 40" version="1.1" xmlns="http://www.w3.org/2000/svg" xmlns:xlink="http://www.w3.org/1999/xlink">
    <g id="01-Финал-(Поля,-Соглашения,-Платежи-Аналитика-Капча)" stroke="none" stroke-width="1" fill="none" fill-rule="evenodd">
        <g id="Form-/-03-/-03-/-01" transform="translate(-471.000000, -161.000000)">
            <rect id="Rectangle" fill="#FFFFFF" x="0" y="0" width="580" height="923"></rect>
            <g id="Group" transform="translate(20.000000, 130.000000)">
                <rect id="Rectangle" stroke-opacity="0.424825175" stroke="#525C69" fill="#FFFFFF" opacity="0.498834" x="429.5" y="10.5" width="79" height="79" rx="4"></rect>
                <g id="Icons-/-Type-1-/-Icon-/-d-04" transform="translate(439.000000, 20.000000)" fill="#2FC6F6">
                    <path d="M46.0891257,30.845017 L49.6680731,34.4239644 L43.2470205,40.845017 L49.6680731,47.2660697 L46.0891257,50.845017 L39.6680731,44.4239644 L33.2470205,50.845017 L29.6680731,47.2660697 L36.0891257,40.845017 L29.6680731,34.4239644 L33.2470205,30.845017 L39.6680731,37.2660697 L46.0891257,30.845017 Z M23.7534646,31.062436 L20.6848075,34.1301987 C21.7535609,35.9090103 23.3345283,37.3450382 25.2236946,38.2342675 C25.1611631,38.7661623 25.1291937,39.3085053 25.1291937,39.8583151 C25.1291937,41.8623764 25.553941,43.7672326 26.318324,45.4877724 C22.0828059,44.6401807 18.412852,42.2272014 15.9374839,38.8777204 L12.9104218,41.9054788 L12.9104218,31.062436 L23.7534646,31.062436 Z M29.3461783,11.487938 L29.3461783,22.3309808 L25.9402553,18.9248422 C22.7051528,20.1620261 20.2388467,22.9538979 19.4552915,26.3865033 L18.850756,26.8110741 C16.2903013,27.0613655 14.2276674,27.2126645 12.6628543,27.2649712 C13.1438363,21.6107516 16.3779808,16.7416775 21.019201,14.003865 L18.5031355,11.487938 L29.3461783,11.487938 Z M33.5053984,12.0723855 C37.4993132,12.9836223 40.9605259,15.2941783 43.3458975,18.4609144 L46.5903789,15.2164138 L46.5903789,26.0594566 L40.5027618,26.0585267 C40.0118713,26.0059797 39.5133247,25.979026 39.0084828,25.979026 C38.5036409,25.979026 38.0050944,26.0059797 37.5142039,26.0585267 L35.7473361,26.0594566 L38.6090598,23.1978622 C37.4156554,21.2783308 35.6199435,19.7722541 33.486106,18.943814 L33.5053984,12.0723855 Z" id="Combined-Shape"></path>
                </g>
            </g>
        </g>
    </g>
</svg>