<svg width="20" height="20" viewBox="0 0 20 20" fill="none" xmlns="http://www.w3.org/2000/svg">
	<g opacity="0.5">
		<path fill-rule="evenodd" clip-rule="evenodd" d="M16.7888 10.1375C16.2431 10.9173 13.4482 14.6612 10.0824 14.6612C6.71658 14.6612 3.92168 10.9173 3.37604 10.1375C3.31541 10.0508 3.31541 9.94165 3.37604 9.855C3.92168 9.0752 6.71658 5.3313 10.0824 5.3313C13.4482 5.3313 16.2431 9.0752 16.7888 9.855C16.8494 9.94165 16.8494 10.0508 16.7888 10.1375ZM12.4619 9.99623C12.4619 11.3105 11.3965 12.3758 10.0823 12.3758C8.76807 12.3758 7.70268 11.3105 7.70268 9.99623C7.70268 8.68201 8.76807 7.61662 10.0823 7.61662C11.3965 7.61662 12.4619 8.68201 12.4619 9.99623Z" fill="#05B5AB"/>
	</g>
</svg>