<svg width="162" height="156" viewBox="0 0 162 156" fill="none" xmlns="http://www.w3.org/2000/svg">
	<path opacity="0.15" fill-rule="evenodd" clip-rule="evenodd" d="M99.9763 155.903H-38.1441C-39.307 155.903 -40.4598 155.857 -41.6012 155.766C-72.3163 155.01 -96.9984 127.875 -97 94.5139C-96.9911 78.2534 -91.0034 62.6627 -80.3542 51.1716C-74.8956 45.2814 -68.4414 40.7157 -61.4193 37.6656C-61.5368 36.011 -61.5966 34.3389 -61.5966 32.6517C-61.5869 15.4946 -55.2689 -0.955713 -44.0323 -13.0803C-32.7957 -25.2048 -17.561 -32.0104 -1.67974 -32C18.6637 -31.9732 41.0538 -20.9828 51.8479 -4.20811C56.9738 -6.17016 62.4917 -7.23658 68.2403 -7.2333C93.6346 -7.20028 114.492 13.713 116.91 40.4576C141.242 46.1884 155.021 69.607 155 97.6066C154.975 129.874 132.964 156.013 103.096 156C102.049 156 101.009 155.967 99.9763 155.903Z" fill="#05B5AB"/>
	<g opacity="0.8" filter="url(#filter0_d_19480_685291)">
		<path fill-rule="evenodd" clip-rule="evenodd" d="M106.071 123.958H39.7539C39.1864 123.958 38.6239 123.938 38.0669 123.898C23.0791 123.569 12.0017 111.762 12.001 97.2444C12.0053 90.1685 15.1734 83.8377 19.7816 78.2996C21.9844 75.6524 23.5797 73.9074 26.8009 72.3154C26.7436 71.5954 26.7144 70.8678 26.7144 70.1337C26.7192 62.6677 29.8021 55.5093 35.2852 50.2332C40.7682 44.9572 48.2022 41.9957 55.9516 42.0002C65.8785 42.0119 74.5367 47.1867 79.8039 54.4863C83.2717 53.6325 87.5597 53.3596 90.3648 53.3611C102.756 53.3754 112.934 62.4759 114.114 74.1139C125.987 76.6077 134.011 86.406 134.001 98.5902C133.989 112.631 122.168 124.006 107.593 124C107.082 124 106.575 123.986 106.071 123.958Z" fill="url(#paint0_linear_19480_685291)" shape-rendering="crispEdges"/>
	</g>
	<g filter="url(#filter1_d_19480_685291)">
		<path d="M31 43.213C31 40.8862 32.8862 39 35.213 39H106.384C109.486 39 112 41.5143 112 44.6159V55.3841C112 58.4857 109.486 61 106.384 61H35.213C32.8862 61 31 59.1138 31 56.787V43.213Z" fill="white"/>
		<path fill-rule="evenodd" clip-rule="evenodd" d="M107.024 54.3349C106.697 54.8028 105.02 57.0491 103 57.0491C100.981 57.0491 99.3039 54.8028 98.9765 54.3349C98.9401 54.2829 98.9401 54.2174 98.9765 54.1654C99.3039 53.6975 100.981 51.4512 103 51.4512C105.02 51.4512 106.697 53.6975 107.024 54.1654C107.061 54.2174 107.061 54.2829 107.024 54.3349ZM104.428 54.2501C104.428 55.0387 103.789 55.6779 103 55.6779C102.212 55.6779 101.572 55.0387 101.572 54.2501C101.572 53.4616 102.212 52.8224 103 52.8224C103.789 52.8224 104.428 53.4616 104.428 54.2501Z" fill="#8DBB00"/>
		<rect opacity="0.5" x="37" y="45" width="19" height="3" rx="1.5" fill="#BDC1C6"/>
		<rect x="37" y="52" width="49" height="3" rx="1.5" fill="#525C69" fill-opacity="0.1"/>
	</g>
	<g filter="url(#filter2_d_19480_685291)">
		<path d="M31 69.9142C31 67.2003 33.2 65.0002 35.9139 65.0002H107.086C109.8 65.0002 112 67.2003 112 69.9142V103.085C112 105.8 109.799 108 107.085 108H35.9151C33.2006 108 31 105.8 31 103.085V69.9142Z" fill="white"/>
		<path opacity="0.5" d="M71.75 98.5002C71.75 95.0485 68.9518 92.2502 65.5 92.2502C62.0482 92.2502 59.25 95.0485 59.25 98.5002C59.25 101.952 62.0482 104.75 65.5 104.75C68.9518 104.75 71.75 101.952 71.75 98.5002Z" fill="#00ACE3" stroke="white" stroke-width="1.5"/>
		<path d="M63.75 98.5002C63.75 95.0485 60.9518 92.2502 57.5 92.2502C54.0482 92.2502 51.25 95.0485 51.25 98.5002C51.25 101.952 54.0482 104.75 57.5 104.75C60.9518 104.75 63.75 101.952 63.75 98.5002Z" fill="#FFA900" stroke="white" stroke-width="1.5"/>
		<path d="M55.75 98.5002C55.75 95.0485 52.9518 92.2502 49.5 92.2502C46.0482 92.2502 43.25 95.0485 43.25 98.5002C43.25 101.952 46.0482 104.75 49.5 104.75C52.9518 104.75 55.75 101.952 55.75 98.5002Z" fill="#05B5AB" stroke="white" stroke-width="1.5"/>
		<path d="M47.75 98.5002C47.75 95.0485 44.9518 92.2502 41.5 92.2502C38.0482 92.2502 35.25 95.0485 35.25 98.5002C35.25 101.952 38.0482 104.75 41.5 104.75C44.9518 104.75 47.75 101.952 47.75 98.5002Z" fill="#00ACE3" stroke="white" stroke-width="1.5"/>
		<rect x="78" y="97.0002" width="18" height="3" rx="1.5" fill="#8DBB00"/>
		<rect opacity="0.08" x="31" y="88.0002" width="81" height="1" fill="#525C69"/>
		<rect opacity="0.5" x="37" y="71.0002" width="19" height="3" rx="1.5" fill="#BDC1C6"/>
		<rect x="37" y="77.0002" width="36" height="3" rx="1.40398" fill="#525C69" fill-opacity="0.1"/>
	</g>
	<defs>
		<filter id="filter0_d_19480_685291" x="8.00098" y="40.0002" width="130" height="90" filterUnits="userSpaceOnUse" color-interpolation-filters="sRGB">
			<feFlood flood-opacity="0" result="BackgroundImageFix"/>
			<feColorMatrix in="SourceAlpha" type="matrix" values="0 0 0 0 0 0 0 0 0 0 0 0 0 0 0 0 0 0 127 0" result="hardAlpha"/>
			<feOffset dy="2"/>
			<feGaussianBlur stdDeviation="2"/>
			<feComposite in2="hardAlpha" operator="out"/>
			<feColorMatrix type="matrix" values="0 0 0 0 0.025382 0 0 0 0 0.275095 0 0 0 0 0.358333 0 0 0 0.06 0"/>
			<feBlend mode="normal" in2="BackgroundImageFix" result="effect1_dropShadow_19480_685291"/>
			<feBlend mode="normal" in="SourceGraphic" in2="effect1_dropShadow_19480_685291" result="shape"/>
		</filter>
		<filter id="filter1_d_19480_685291" x="26.4699" y="36.1687" width="90.0601" height="31.0601" filterUnits="userSpaceOnUse" color-interpolation-filters="sRGB">
			<feFlood flood-opacity="0" result="BackgroundImageFix"/>
			<feColorMatrix in="SourceAlpha" type="matrix" values="0 0 0 0 0 0 0 0 0 0 0 0 0 0 0 0 0 0 127 0" result="hardAlpha"/>
			<feOffset dy="1.69877"/>
			<feGaussianBlur stdDeviation="2.26503"/>
			<feComposite in2="hardAlpha" operator="out"/>
			<feColorMatrix type="matrix" values="0 0 0 0 0.423529 0 0 0 0 0.423529 0 0 0 0 0.423529 0 0 0 0.1 0"/>
			<feBlend mode="normal" in2="BackgroundImageFix" result="effect1_dropShadow_19480_685291"/>
			<feBlend mode="normal" in="SourceGraphic" in2="effect1_dropShadow_19480_685291" result="shape"/>
		</filter>
		<filter id="filter2_d_19480_685291" x="22.9881" y="59.659" width="97.0237" height="59.0237" filterUnits="userSpaceOnUse" color-interpolation-filters="sRGB">
			<feFlood flood-opacity="0" result="BackgroundImageFix"/>
			<feColorMatrix in="SourceAlpha" type="matrix" values="0 0 0 0 0 0 0 0 0 0 0 0 0 0 0 0 0 0 127 0" result="hardAlpha"/>
			<feOffset dy="2.67062"/>
			<feGaussianBlur stdDeviation="4.00593"/>
			<feComposite in2="hardAlpha" operator="out"/>
			<feColorMatrix type="matrix" values="0 0 0 0 0.423529 0 0 0 0 0.423529 0 0 0 0 0.423529 0 0 0 0.12 0"/>
			<feBlend mode="normal" in2="BackgroundImageFix" result="effect1_dropShadow_19480_685291"/>
			<feBlend mode="normal" in="SourceGraphic" in2="effect1_dropShadow_19480_685291" result="shape"/>
		</filter>
		<linearGradient id="paint0_linear_19480_685291" x1="72.5177" y1="57.5037" x2="72.5177" y2="124" gradientUnits="userSpaceOnUse">
			<stop stop-color="white" stop-opacity="0.4"/>
			<stop offset="1" stop-color="white" stop-opacity="0.8"/>
		</linearGradient>
	</defs>
</svg>