<svg width="20" height="20" viewBox="0 0 20 20" fill="none" xmlns="http://www.w3.org/2000/svg">
	<g opacity="0.5">
		<path fill-rule="evenodd" clip-rule="evenodd" d="M15.6974 7.26375L12.6961 7.26433C12.6097 7.26433 12.5262 7.21437 12.4939 7.13502C12.3587 6.79703 12.364 6.41614 12.5121 6.08051C12.7607 5.35693 12.7889 4.57515 12.5938 3.83511C12.3898 3.32608 12.3357 2.39618 11.3947 2.35327C11.1002 2.39677 10.8433 2.5737 10.6952 2.83174C10.6688 2.87759 10.6576 2.93167 10.6576 2.98398C10.6576 2.98398 10.7008 3.88691 10.6576 4.51461C10.6143 5.14231 9.41321 6.74119 8.64966 7.75632C8.60146 7.82098 8.53386 7.8633 8.45392 7.87565C8.16766 7.91851 7.62163 7.9911 7.4248 8.0171C7.37874 8.02318 7.3518 8.08104 7.3518 8.1082C7.3518 9.37716 7.3518 11.2754 7.3518 13.8029C7.3518 13.8239 7.37707 13.8695 7.42198 13.8769C7.57617 13.9024 7.96185 13.9729 8.35106 14.0981C8.84011 14.255 9.24745 14.6265 10.0627 14.9016C10.1056 14.9163 10.1533 14.9239 10.1985 14.9239H14.0268C14.5212 14.8358 14.8891 14.4131 14.9144 13.9059C14.9215 13.6231 14.865 13.3434 14.7493 13.0865C14.7328 13.0495 14.7545 13.0107 14.7945 13.003C15.2853 12.9137 15.899 11.982 15.1431 11.2314C15.1231 11.212 15.1266 11.1855 15.1537 11.1785C15.5704 11.0721 15.8896 10.7394 15.9872 10.3244C16.0248 10.1657 16.0113 10.0017 15.9642 9.84595C15.909 9.6602 15.8208 9.48622 15.7038 9.33104C15.6744 9.29224 15.6909 9.24169 15.7379 9.22641C16.1529 9.08593 16.4386 8.68916 16.4356 8.23773C16.4833 7.79512 16.1276 7.26433 15.6974 7.26375ZM6.17679 7.50383H4.00722C3.89436 7.50383 3.80854 7.60375 3.82794 7.71249L5.08818 14.7925C5.10758 14.9013 5.20339 14.9806 5.31566 14.9806H6.11801C6.24203 14.9806 6.34255 14.8825 6.34255 14.7614L6.36018 7.68369C6.36018 7.58435 6.27848 7.50383 6.17679 7.50383Z" fill="#05B5AB"/>
	</g>
</svg>
