<svg width="18" height="19" viewBox="0 0 18 19" fill="none" xmlns="http://www.w3.org/2000/svg">
	<rect y="0.5" width="18" height="18" rx="4" fill="#05B5AB"/>
	<path fill-rule="evenodd" clip-rule="evenodd" d="M6.15833 7.94086C6.15938 7.94056 6.16045 7.9403 6.16154 7.94007L12.6379 6.57057C12.8244 6.53112 13 6.67342 13 6.86408V11.5586C13 11.7554 12.8136 11.8989 12.6233 11.8486L10.139 11.192V11.9871C10.139 12.2632 9.9151 12.4871 9.63896 12.4871H7.30191C7.02577 12.4871 6.80191 12.2632 6.80191 11.9871V10.3099L6.15911 10.14L6.15641 10.1392C6.14278 10.1493 6.12728 10.1573 6.11033 10.1624L5.20959 10.4352C5.11327 10.4643 5.01611 10.3922 5.01611 10.2916V7.78699C5.01611 7.68635 5.11327 7.61426 5.20959 7.64343L6.11033 7.9162C6.12807 7.92157 6.14424 7.93002 6.15833 7.94086ZM9.48148 11.0182L7.45939 10.4837V11.7496C7.45939 11.8324 7.52655 11.8996 7.60939 11.8996H9.33148C9.41432 11.8996 9.48148 11.8324 9.48148 11.7496V11.0182Z" fill="white"/>
</svg>
