<svg width="20" height="20" viewBox="0 0 20 20" fill="none" xmlns="http://www.w3.org/2000/svg">
	<path d="M6.47582 4.83085H13.1281C14.0486 4.83085 14.7948 5.57704 14.7948 6.49752V13.3622H14.973C15.8934 13.3622 16.6396 12.6161 16.6396 11.6956V5.03434C16.6396 4.11387 15.8934 3.36768 14.973 3.36768H8.13022C7.2778 3.36768 6.57603 4.00726 6.47582 4.83085Z" fill="#2FC6F6"/>
	<path fill-rule="evenodd" clip-rule="evenodd" d="M3.35254 8.29237C3.35254 7.3719 4.09873 6.62571 5.01921 6.62571H11.6903C12.6108 6.62571 13.357 7.3719 13.357 8.29237V14.9635C13.357 15.884 12.6108 16.6302 11.6903 16.6302H5.01921C4.09873 16.6302 3.35254 15.884 3.35254 14.9635V8.29237ZM11.6255 8.35745H5.08413V14.8988H11.6255V8.35745Z" fill="#2FC6F6"/>
</svg>
