<svg width="20" height="20" viewBox="0 0 20 20" fill="none" xmlns="http://www.w3.org/2000/svg">
	<path fill-rule="evenodd" clip-rule="evenodd" d="M16.7885 10.1377C16.2429 10.9175 13.448 14.6614 10.0822 14.6614C6.71633 14.6614 3.92143 10.9175 3.37579 10.1377C3.31516 10.0511 3.31516 9.94189 3.37579 9.85524C3.92143 9.07544 6.71633 5.33154 10.0822 5.33154C13.448 5.33154 16.2429 9.07544 16.7885 9.85524C16.8491 9.94189 16.8491 10.0511 16.7885 10.1377ZM12.4617 9.99647C12.4617 11.3107 11.3963 12.3761 10.082 12.3761C8.76782 12.3761 7.70244 11.3107 7.70244 9.99647C7.70244 8.68225 8.76782 7.61687 10.082 7.61687C11.3963 7.61687 12.4617 8.68225 12.4617 9.99647Z" fill="#525C69"/>
</svg>
