<svg width="20" height="20" viewBox="0 0 20 20" fill="none" xmlns="http://www.w3.org/2000/svg">
	<path fill-rule="evenodd" clip-rule="evenodd" d="M10.5763 13.1207V14.576H9.42365V13.1207C9.2162 12.9517 9.0834 12.6934 9.0834 12.4038C9.0834 11.8945 9.49379 11.4816 9.99999 11.4816C10.5062 11.4816 10.9165 11.8945 10.9165 12.4038C10.9165 12.6934 10.7838 12.9517 10.5763 13.1207ZM7.49064 7.20859C7.49064 5.81416 8.61415 4.68376 10 4.68376C11.3859 4.68376 12.5095 5.81416 12.5095 7.20859V9.34293H7.49064V7.20859ZM13.8356 9.3426V7.20826C13.8356 5.07689 12.1183 3.34912 9.99998 3.34912C7.88169 3.34912 6.16443 5.07689 6.16443 7.20826V9.3426H5.5C5.22386 9.3426 5 9.56646 5 9.8426V16.1513C5 16.4275 5.22386 16.6513 5.5 16.6513H14.5C14.7761 16.6513 15 16.4275 15 16.1513V9.8426C15 9.56646 14.7761 9.3426 14.5 9.3426H13.8356Z" fill="#FF5752"/>
</svg>
