<svg width="20" height="20" viewBox="0 0 20 20" fill="none" xmlns="http://www.w3.org/2000/svg">
	<path fill-rule="evenodd" clip-rule="evenodd" d="M13.8377 13.0885C14.0194 13.0885 14.1667 12.941 14.1667 12.759L14.1667 4.49592C14.1667 4.31399 14.0194 4.1665 13.8377 4.1665H7.05631C5.92534 4.1665 5 5.09299 5 6.22537V13.7743C5 14.9067 5.92534 15.8332 7.05631 15.8332H13.8377C14.0194 15.8332 14.1667 15.6857 14.1667 15.5038V14.7902C14.1667 14.6083 14.0194 14.4608 13.8377 14.4608H7.05631C6.6791 14.4608 6.37065 14.152 6.37065 13.7743C6.3713 13.3973 6.67974 13.0884 7.05631 13.0884L13.8377 13.0885ZM12.7224 10.768C12.7559 10.9385 12.6652 11.1102 12.5019 11.1696C11.822 11.4167 11.0555 11.5631 10.2426 11.5805H9.91373C9.09691 11.563 8.3269 11.4153 7.64461 11.166C7.48825 11.1089 7.39689 10.948 7.42351 10.7837C7.44891 10.6269 7.47701 10.4765 7.50571 10.3647C7.60385 9.98204 8.15592 9.69786 8.6639 9.47935C8.79691 9.42211 8.8772 9.37645 8.95833 9.33032C9.03758 9.28526 9.11762 9.23975 9.24835 9.18255C9.26319 9.1121 9.26916 9.04012 9.26611 8.96824L9.49113 8.94153C9.49113 8.94153 9.52073 8.99533 9.47324 8.67924C9.47324 8.67924 9.22038 8.6137 9.20866 8.11039C9.20866 8.11039 9.01855 8.17358 9.00709 7.86863C9.00471 7.80786 8.98901 7.74945 8.97397 7.69348C8.93789 7.55921 8.90558 7.43901 9.07008 7.33427L8.9514 7.01782C8.9514 7.01782 8.82655 5.79577 9.37371 5.89471C9.15172 5.54301 11.0239 5.25067 11.1482 6.32753C11.1972 6.65215 11.1972 6.98207 11.1482 7.3067C11.1482 7.3067 11.4279 7.27455 11.2412 7.8063C11.2412 7.8063 11.1384 8.18904 10.9805 8.10309C10.9805 8.10309 11.0061 8.58674 10.7575 8.66873C10.7575 8.66873 10.7753 8.92632 10.7753 8.94376L10.9831 8.9748C10.9831 8.9748 10.9768 9.1896 11.0182 9.21285C11.2077 9.33526 11.4155 9.42805 11.634 9.48788C12.2791 9.65161 12.6066 9.93257 12.6066 10.1785L12.7224 10.768Z" fill="#9DCF00"/>
</svg>
