<svg width="20" height="20" viewBox="0 0 20 20" fill="none" xmlns="http://www.w3.org/2000/svg">
	<path fill-rule="evenodd" clip-rule="evenodd" d="M10.576 12.565C8.67924 12.9684 7.03155 11.3202 7.43501 9.42387C7.62582 8.52716 8.5269 7.62602 9.42361 7.43518C11.32 7.03155 12.9683 8.67935 12.5648 10.5762C12.3532 11.571 11.5708 12.3534 10.576 12.565ZM14.8579 8.80882C14.7641 8.4252 14.6283 8.05811 14.4519 7.71497C14.4445 7.70053 14.4462 7.68316 14.4564 7.67053L15.2852 6.6429C15.465 6.42133 15.4569 6.10253 15.2673 5.8887L14.742 5.29749C14.5516 5.08387 14.2358 5.0387 13.995 5.19086L12.8654 5.90092C12.3758 5.55881 11.822 5.30486 11.2249 5.15524C11.2091 5.15126 11.1971 5.13834 11.1944 5.12221L10.9778 3.82085C10.9315 3.53968 10.6882 3.33337 10.4025 3.33337H9.61093C9.3259 3.33337 9.08175 3.53968 9.03641 3.82085L8.81866 5.1227C8.81596 5.13878 8.80397 5.15167 8.78816 5.15563C8.30495 5.27673 7.85109 5.46786 7.43532 5.71775C7.42131 5.72617 7.40371 5.72555 7.3904 5.71604L6.3381 4.96504C6.1066 4.79964 5.78861 4.8255 5.58657 5.02711L5.02733 5.58677C4.82572 5.78881 4.79985 6.1068 4.9657 6.33832L5.71846 7.39272C5.72795 7.40601 5.72861 7.42361 5.72021 7.43762C5.47275 7.85018 5.28361 8.30134 5.16263 8.78016C5.15863 8.79598 5.14575 8.80793 5.12969 8.81061L3.8207 9.0292C3.53996 9.07556 3.33325 9.3189 3.33325 9.60453V10.3955C3.33325 10.6812 3.53996 10.9245 3.8207 10.9709L5.12964 11.1895C5.14573 11.1921 5.15863 11.2041 5.16261 11.22C5.26102 11.6109 5.4012 11.9848 5.58547 12.3329C5.59315 12.3474 5.59153 12.3651 5.58121 12.3778L4.75653 13.3992C4.57732 13.6206 4.58484 13.9396 4.77444 14.1533L5.29933 14.7445C5.48975 14.9585 5.80569 15.0029 6.04656 14.8511L7.16971 14.1455C7.18347 14.1369 7.20102 14.1372 7.21448 14.1463C7.69385 14.4703 8.23462 14.7088 8.81424 14.8511L9.03643 16.1792C9.08177 16.4604 9.3259 16.6667 9.61093 16.6667H10.4025C10.6882 16.6667 10.9315 16.4604 10.9778 16.1792L11.1948 14.8776C11.1975 14.8615 11.2095 14.8486 11.2253 14.8446C11.7023 14.7252 12.1502 14.5374 12.5621 14.292C12.5761 14.2836 12.5936 14.2843 12.6069 14.2937L13.704 15.0773C13.9351 15.2433 14.2533 15.2173 14.4552 15.0151L15.0146 14.4556C15.216 14.2542 15.2433 13.9363 15.0761 13.7044L14.295 12.6093C14.2855 12.596 14.2849 12.5784 14.2933 12.5645C14.5415 12.1505 14.7316 11.6985 14.8519 11.2175C14.8559 11.2017 14.8688 11.1896 14.8849 11.1869L16.1791 10.9708C16.4607 10.9245 16.6666 10.6811 16.6666 10.3955V9.6045C16.6662 9.3189 16.4603 9.07555 16.1787 9.02918L14.8579 8.80882Z" fill="#2FC6F6"/>
</svg>
