<svg xmlns="http://www.w3.org/2000/svg" xmlns:xlink="http://www.w3.org/1999/xlink" width="94" height="96" viewBox="0 0 94 96">
  <defs>
    <path id="iphone-2-a" d="M0.400835073,7.10297508 C0.400835073,3.18011026 3.57340223,0 7.48375507,0 L40.4160362,0 C44.3278249,0 47.4989562,3.18040663 47.4989562,7.10297508 L47.4989562,77.8766168 C47.4989562,81.7994816 44.326389,84.9795918 40.4160362,84.9795918 L7.48375507,84.9795918 C3.57196637,84.9795918 0.400835073,81.7991852 0.400835073,77.8766168 L0.400835073,7.10297508 Z"/>
    <filter id="iphone-2-b" width="129.7%" height="116.5%" x="-14.9%" y="-8.2%" filterUnits="objectBoundingBox">
      <feGaussianBlur in="SourceAlpha" result="shadowBlurInner1" stdDeviation="3"/>
      <feOffset dx="3" dy="8" in="shadowBlurInner1" result="shadowOffsetInner1"/>
      <feComposite in="shadowOffsetInner1" in2="SourceAlpha" k2="-1" k3="1" operator="arithmetic" result="shadowInnerInner1"/>
      <feColorMatrix in="shadowInnerInner1" result="shadowMatrixInner1" values="0 0 0 0 0.708041029   0 0 0 0 0.708041029   0 0 0 0 0.708041029  0 0 0 0.123329937 0"/>
      <feGaussianBlur in="SourceAlpha" result="shadowBlurInner2" stdDeviation="1.5"/>
      <feOffset dx="-6" in="shadowBlurInner2" result="shadowOffsetInner2"/>
      <feComposite in="shadowOffsetInner2" in2="SourceAlpha" k2="-1" k3="1" operator="arithmetic" result="shadowInnerInner2"/>
      <feColorMatrix in="shadowInnerInner2" result="shadowMatrixInner2" values="0 0 0 0 0   0 0 0 0 0   0 0 0 0 0  0 0 0 0.02 0"/>
      <feMerge>
        <feMergeNode in="shadowMatrixInner1"/>
        <feMergeNode in="shadowMatrixInner2"/>
      </feMerge>
    </filter>
    <path id="iphone-2-c" d="M4.27480916,8.38957975 C4.27480916,5.78494392 6.38415204,3.67346939 8.98736154,3.67346939 L12.2444031,3.67346939 C12.5041729,3.67346939 12.7127124,3.88356161 12.7101683,4.14486857 L12.7079037,4.37745189 C12.6964938,5.54934806 13.6374646,6.49935761 14.8088094,6.49935761 L32.929435,6.49935761 C34.1011431,6.49935761 35.0602576,5.54854888 35.0716598,4.37745189 L35.0739243,4.14486857 C35.0764591,3.88452199 35.2887704,3.67346939 35.5499635,3.67346939 L38.7692337,3.67346939 C41.371424,3.67346939 43.480916,5.78441112 43.480916,8.38957975 L43.480916,76.1002162 C43.480916,78.704852 41.3706026,80.8163265 38.7672053,80.8163265 L8.98851992,80.8163265 C6.38520935,80.8163265 4.27480916,78.7053848 4.27480916,76.1002162 L4.27480916,8.38957975 Z"/>
    <filter id="iphone-2-d" width="178%" height="178%" x="-39%" y="-39%" filterUnits="objectBoundingBox">
      <feOffset dy="2" in="SourceAlpha" result="shadowOffsetOuter1"/>
      <feGaussianBlur in="shadowOffsetOuter1" result="shadowBlurOuter1" stdDeviation="3"/>
      <feColorMatrix in="shadowBlurOuter1" result="shadowMatrixOuter1" values="0 0 0 0 0   0 0 0 0 0   0 0 0 0 0  0 0 0 0.0735085227 0"/>
      <feMerge>
        <feMergeNode in="shadowMatrixOuter1"/>
        <feMergeNode in="SourceGraphic"/>
      </feMerge>
    </filter>
  </defs>
  <g fill="none" fill-rule="evenodd">
    <g transform="translate(0 16)">
      <rect width="76" height="49" x="9" y="2" fill="#FFF" opacity=".68" rx="1"/>
      <path fill="#E9E9E9" d="M84,0 C85.6568542,-3.04359188e-16 87,1.34314575 87,3 L87,49 C87,50.6568542 85.6568542,52 84,52 L10,52 C8.34314575,52 7,50.6568542 7,49 L7,3 C7,1.34314575 8.34314575,3.04359188e-16 10,0 L84,0 Z M83,3 L11,3 C10.4477153,3 10,3.44771525 10,4 L10,4 L10,49 C10,49.5522847 10.4477153,50 11,50 L11,50 L83,50 C83.5522847,50 84,49.5522847 84,49 L84,49 L84,4 C84,3.44771525 83.5522847,3 83,3 L83,3 Z"/>
      <path fill="#FFF" d="M4,52 L90,52 C92.209139,52 94,53.790861 94,56 L94,56 L94,56 L0,56 C-2.705415e-16,53.790861 1.790861,52 4,52 Z" transform="matrix(1 0 0 -1 0 108)"/>
    </g>
    <g fill="#FFF" opacity=".383" transform="translate(15 32)">
      <rect width="15" height="12" opacity=".7" rx="2"/>
      <rect width="11" height="2" x="2" y="8"/>
    </g>
    <g fill="#FFF" opacity=".383" transform="translate(15 24)">
      <rect width="44" height="4" opacity=".7" rx="2"/>
      <rect width="32.267" height="1" x="5.867" y="2.667"/>
    </g>
    <g fill="#FFF" opacity=".383" transform="translate(15 47)">
      <rect width="15" height="12" opacity=".7" rx="2"/>
      <rect width="11" height="2" x="2" y="8"/>
    </g>
    <g fill="#FFF" opacity=".383" transform="translate(63 32)">
      <rect width="15" height="12" opacity=".7" rx="2"/>
      <rect width="11" height="2" x="2" y="8"/>
    </g>
    <g fill="#FFF" opacity=".383" transform="translate(63 47)">
      <rect width="15" height="12" opacity=".7" rx="2"/>
      <rect width="11" height="2" x="2" y="8"/>
    </g>
    <g transform="translate(22)">
      <g fill="#404854" transform="translate(0 12.99)">
        <rect width="1" height="3.69" rx=".5"/>
        <path d="M0 7.23290094C0 7.02909051.170748658 6.86386951.36809816 6.86386951L.36809816 6.86386951C.571393159 6.86386951.736196319 7.03353913.736196319 7.23290094L.736196319 13.3587076C.736196319 13.562518.565447661 13.727739.36809816 13.727739L.36809816 13.727739C.16480316 13.727739 0 13.5580694 0 13.3587076L0 7.23290094zM47.2638037 2.66302706C47.2638037 2.45959633 47.4345523 2.29468315 47.6319018 2.29468315L47.6319018 2.29468315C47.8351968 2.29468315 48 2.45118286 48 2.66302706L48 12.9970965C48 13.2005272 47.8292513 13.3654404 47.6319018 13.3654404L47.6319018 13.3654404C47.4286068 13.3654404 47.2638037 13.2089407 47.2638037 12.9970965L47.2638037 2.66302706z"/>
      </g>
      <use fill="#282C31" xlink:href="#iphone-2-a"/>
      <use fill="#000" filter="url(#iphone-2-b)" xlink:href="#iphone-2-a"/>
      <path stroke="#FFF" stroke-linejoin="square" stroke-opacity=".287" d="M0.900835073,7.10297508 L0.900835073,77.8766168 C0.900835073,81.5234644 3.84853102,84.4795918 7.48375507,84.4795918 L40.4160362,84.4795918 C44.0504413,84.4795918 46.9989562,81.5231423 46.9989562,77.8766168 L46.9989562,7.10297508 C46.9989562,3.45612745 44.0512602,0.5 40.4160362,0.5 L7.48375507,0.5 C3.84934995,0.5 0.900835073,3.45644952 0.900835073,7.10297508 Z"/>
      <use fill="#FFF" xlink:href="#iphone-2-c"/>
    </g>
    <circle cx="46.369" cy="28.065" r="10.661" fill="#525C69" fill-opacity=".447" opacity=".725"/>
    <path fill="#FFF" d="M44.1341817,31.2181317 C44.8084571,31.2181317 45.3547885,31.764447 45.3547885,32.4387385 C45.3547885,33.1123877 44.8084732,33.658719 44.1341817,33.658719 C43.4605325,33.658719 42.9142012,33.1124037 42.9142012,32.4387385 C42.9142012,31.7644631 43.4605165,31.2181317 44.1341817,31.2181317 Z M49.1846446,31.2181317 C49.85892,31.2181317 50.4052513,31.764447 50.4052513,32.4387385 C50.4052513,33.1123877 49.858936,33.658719 49.1846446,33.658719 C48.5109954,33.658719 47.964664,33.1124037 47.964664,32.4387385 C47.964664,31.7644631 48.5109793,31.2181317 49.1846446,31.2181317 Z M41.3208282,22.8363835 C41.5298065,22.8375623 41.7121125,22.9726431 41.7762406,23.1684257 L41.7868573,23.2058284 L42.139988,24.7312657 L51.5129934,24.7148873 C51.6603988,24.7155136 51.7990209,24.7838772 51.8893429,24.8992886 C51.9711967,25.0037297 52.0058015,25.1361058 51.9872118,25.2657902 L51.979037,25.3088766 L51.0795749,30.3029978 C51.031169,30.5060776 50.8577508,30.6530375 50.6529225,30.67067 L50.614172,30.6724426 L42.7396336,30.6724426 C42.5312447,30.6712638 42.3484172,30.5361831 42.2847492,30.3404005 L42.2742307,30.3029978 L40.7706225,23.9244779 L39.0998092,23.9244779 C38.9736709,23.9244779 38.8697098,23.8295266 38.8555017,23.7072001 L38.853847,23.6785157 L38.853847,23.0823457 C38.853847,22.9562075 38.9487983,22.8522463 39.0711248,22.8380383 L39.0998092,22.8363835 L41.3208282,22.8363835 Z M50.3772757,28.2125178 L43.0388418,28.2125178 L43.2473588,29.141215 L50.2334448,29.141215 L50.3772757,28.2125178 Z M50.7217042,26.1780538 L42.5719741,26.1780538 L42.7667385,27.0632385 L50.5689981,27.0632385 L50.7217042,26.1780538 Z"/>
    <g fill="#525C69" transform="translate(30 46)">
      <rect width="15" height="12" opacity=".131" rx="2"/>
      <rect width="11" height="2" x="2" y="8" opacity=".116"/>
    </g>
    <g fill="#525C69" transform="translate(30 60)">
      <rect width="15" height="12" opacity=".131" rx="2"/>
      <rect width="11" height="2" x="2" y="8" opacity=".116"/>
    </g>
    <g fill="#525C69" transform="translate(47 46)">
      <rect width="15" height="12" opacity=".131" rx="2"/>
      <rect width="11" height="2" x="2" y="8" opacity=".116"/>
    </g>
    <g fill="#525C69" transform="translate(47 60)">
      <rect width="15" height="12" opacity=".131" rx="2"/>
      <rect width="11" height="2" x="2" y="8" opacity=".116"/>
    </g>
    <g filter="url(#iphone-2-d)" transform="translate(44 45)">
      <circle cx="20.5" cy="20.5" r="20.5" fill="#2FC6F6"/>
      <path fill="#FFF" d="M22,14 L22,19 L27,19 L27,22 L22,22 L22,27 L19,27 L19,21.999 L14,22 L14,19 L19,18.999 L19,14 L22,14 Z"/>
    </g>
  </g>
</svg>
