<svg width="20" height="21" viewBox="0 0 20 21" fill="none" xmlns="http://www.w3.org/2000/svg">
	<path fill-rule="evenodd" clip-rule="evenodd" d="M9.94575 5.35782C9.93393 5.36141 9.92159 5.36859 9.90873 5.37505L4.36813 7.56809C4.22931 7.63339 4.17892 7.77476 4.1748 7.94123V15.0024C4.17635 15.1603 4.25913 15.3103 4.36813 15.3526L9.85529 17.5225C9.92316 17.5526 10.0121 17.5483 10.0856 17.5282L15.622 15.3411C15.731 15.2966 15.8123 15.1437 15.8112 14.9851V7.98715C15.8143 7.77187 15.7608 7.64557 15.6179 7.57955L10.0486 5.37511C10.0106 5.35574 9.98074 5.34784 9.94578 5.35789L9.94575 5.35782ZM9.97866 6.10987L14.5774 7.93542L9.97866 9.74948L5.37588 7.92968L9.97866 6.10987Z" fill="#A8ADB4"/>
</svg>