<svg width="20" height="21" viewBox="0 0 20 21" fill="none" xmlns="http://www.w3.org/2000/svg">
	<path fill-rule="evenodd" clip-rule="evenodd" d="M5.14193 15.1667H4.16634C3.7061 15.1667 3.33301 14.7936 3.33301 14.3333C3.33301 13.8731 3.7061 13.5 4.16634 13.5H5.14193C5.48513 12.529 6.41116 11.8333 7.49967 11.8333C8.58819 11.8333 9.51422 12.529 9.85742 13.5H14.9997C15.4599 13.5 15.833 13.8731 15.833 14.3333C15.833 14.7936 15.4599 15.1667 14.9997 15.1667H9.85742C9.51422 16.1377 8.58819 16.8333 7.49967 16.8333C6.41116 16.8333 5.48513 16.1377 5.14193 15.1667ZM9.3086 9.33333H4.16634C3.7061 9.33333 3.33301 8.96024 3.33301 8.5C3.33301 8.03976 3.7061 7.66667 4.16634 7.66667H9.3086C9.65179 6.69567 10.5778 6 11.6663 6C12.7549 6 13.6809 6.69567 14.0241 7.66667H14.9997C15.4599 7.66667 15.833 8.03976 15.833 8.5C15.833 8.96024 15.4599 9.33333 14.9997 9.33333H14.0241C13.6809 10.3043 12.7549 11 11.6663 11C10.5778 11 9.65179 10.3043 9.3086 9.33333V9.33333ZM11.6663 9.33333C12.1266 9.33333 12.4997 8.96024 12.4997 8.5C12.4997 8.03976 12.1266 7.66667 11.6663 7.66667C11.2061 7.66667 10.833 8.03976 10.833 8.5C10.833 8.96024 11.2061 9.33333 11.6663 9.33333ZM7.49967 15.1667C7.95991 15.1667 8.33301 14.7936 8.33301 14.3333C8.33301 13.8731 7.95991 13.5 7.49967 13.5C7.03944 13.5 6.66634 13.8731 6.66634 14.3333C6.66634 14.7936 7.03944 15.1667 7.49967 15.1667Z" fill="#FF5752"/>
</svg>