<svg width="20" height="21" viewBox="0 0 20 21" fill="none" xmlns="http://www.w3.org/2000/svg">
	<path fill-rule="evenodd" clip-rule="evenodd" d="M9.98524 3.12256C10.4462 3.12256 10.8325 3.43847 10.9351 3.86338L10.9351 9.95003C10.9351 10.0502 11.0155 10.1319 11.1159 10.1352L11.1224 10.1353H11.2026C11.3039 10.1353 11.3864 10.0558 11.3898 9.9564L11.3899 9.95003L11.3899 5.58734C11.5371 5.25692 11.8711 5.02626 12.2595 5.02626C12.7066 5.02626 13.0816 5.332 13.1826 5.74371L13.1825 10.9295C13.1825 11.0297 13.2629 11.1113 13.3634 11.1147L13.3698 11.1148H13.4501C13.5514 11.1148 13.6339 11.0353 13.6373 10.9359L13.6374 10.9295V8.2031C13.6374 7.75719 14.0028 7.39571 14.4534 7.39571C14.9041 7.39571 15.1821 7.75719 15.1821 8.2031V10.5854C15.1821 10.5854 15.1717 12.2771 15.085 13.0821C14.9983 13.8872 14.6794 16.0233 13.473 17.9002C13.4109 17.9969 13.3043 18.0565 13.1889 18.0595L13.1795 18.0597H7.8191C7.71226 18.0597 7.61153 18.0111 7.54571 17.9283L7.53982 17.9207L3.57129 12.6316C3.44469 12.4629 3.47288 12.2258 3.63559 12.0908C3.8264 11.9324 4.0258 11.8379 4.23379 11.8075L4.34087 11.7918C4.73894 11.7343 5.00626 11.7163 5.56062 12.0401C5.95731 12.2718 6.31773 12.6871 6.64187 13.286L6.65416 13.3088V5.56894C6.65416 5.03531 7.09139 4.60271 7.63074 4.60271H7.6575C8.1184 4.60271 8.50474 4.91862 8.60736 5.34353L8.60733 9.52648C8.60733 9.62669 8.68772 9.70832 8.78818 9.71168L8.87488 9.71178C8.97617 9.71178 9.05867 9.63224 9.06206 9.53285L9.06217 9.52648L9.06215 3.7046C9.21231 3.36212 9.55713 3.12256 9.95849 3.12256H9.98524Z" fill="#55D0E0"/>
</svg>