<svg width="69" height="69" viewBox="0 0 69 69" fill="none" xmlns="http://www.w3.org/2000/svg">
	<path fill-rule="evenodd" clip-rule="evenodd" d="M23.6073 10.1661C22.0203 9.6164 20.2912 10.4765 19.7722 12.0738L9.64783 43.2334C9.1148 44.8739 10.0716 46.6249 11.7401 47.0624L40.9439 54.7196C41.4661 54.8565 41.9945 54.847 42.4839 54.7151C41.8541 53.4449 41.5 52.0138 41.5 50.5C41.5 49.4517 41.6698 48.443 41.9834 47.5H18.1665V38.4327L26.0237 29.3667L35.8463 40.7005L39.776 36.1662L45.49 42.7602C46.4333 42.0874 47.5049 41.5828 48.661 41.2901L54.7893 24.1753C55.352 22.6039 54.524 20.8755 52.9469 20.3292L23.6073 10.1661ZM44.7462 24.7042C44.7462 26.8038 43.0441 28.506 40.9444 28.506C38.8447 28.506 37.1426 26.8038 37.1426 24.7042C37.1426 22.6045 38.8447 20.9023 40.9444 20.9023C43.0441 20.9023 44.7462 22.6045 44.7462 24.7042Z" fill="#EDF2F4"/>
	<path fill-rule="evenodd" clip-rule="evenodd" d="M53.2745 19.3846L23.9349 9.22151C21.819 8.48854 19.5135 9.63536 18.8215 11.7651L8.6971 42.9247C7.9864 45.112 9.26215 47.4467 11.4868 48.03L40.6906 55.6872C41.4746 55.8928 42.2692 55.8508 42.988 55.6069C42.8047 55.3199 42.6364 55.0223 42.4841 54.7154C41.9948 54.8473 41.4664 54.8568 40.9442 54.7199L11.7404 47.0627C10.0719 46.6252 9.11513 44.8742 9.64816 43.2337L19.7725 12.0741C20.2915 10.4768 22.0206 9.6167 23.6076 10.1664L52.9472 20.3295C54.5243 20.8758 55.3523 22.6042 54.7897 24.1756L48.6614 41.29C49.0329 41.196 49.4131 41.1238 49.8006 41.075L55.7311 24.5127C56.4814 22.4176 55.3773 20.113 53.2745 19.3846Z" fill="#DFE0E3"/>
	<path fill-rule="evenodd" clip-rule="evenodd" d="M51.3852 16.7352L20.9193 11.0682C18.733 10.6615 16.6347 12.1161 16.2485 14.3061L10.5616 46.5585C10.1585 48.8445 11.7796 50.9925 14.0886 51.2318L42.2253 54.1471C42.0845 53.8088 41.9628 53.4607 41.8613 53.104L14.1916 50.2371C12.4599 50.0576 11.2441 48.4467 11.5464 46.7321L17.2334 14.4798C17.523 12.8373 19.0967 11.7463 20.7364 12.0513L51.2023 17.7184C52.8371 18.0225 53.9126 19.5982 53.6003 21.2314L49.8049 41.0745C50.1437 41.032 50.4881 41.0073 50.837 41.0014L54.5825 21.4192C54.999 19.2416 53.5648 17.1407 51.3852 16.7352Z" fill="#DFE0E3"/>
	<path fill-rule="evenodd" clip-rule="evenodd" d="M20.7362 12.0511C19.0965 11.7461 17.5228 12.8371 17.2331 14.4796L11.5462 46.7319C11.2439 48.4465 12.4597 50.0575 14.1914 50.2369L41.8613 53.1038C41.626 52.2764 41.5 51.4029 41.5 50.5C41.5 49.4517 41.6698 48.443 41.9834 47.5H18.1665V38.4327L26.0237 29.3667L35.8463 40.7005L39.776 36.1662L45.49 42.7603C46.7377 41.8704 48.2097 41.2747 49.8047 41.0745L53.6001 21.2312C53.9124 19.598 52.8368 18.0223 51.2021 17.7182L20.7362 12.0511ZM44.7462 24.7042C44.7462 26.8038 43.0441 28.506 40.9444 28.506C38.8447 28.506 37.1426 26.8038 37.1426 24.7042C37.1426 22.6045 38.8447 20.9023 40.9444 20.9023C43.0441 20.9023 44.7462 22.6045 44.7462 24.7042Z" fill="#EDF2F4"/>
	<path fill-rule="evenodd" clip-rule="evenodd" d="M47.6176 13.5H18.049C15.5367 13.5 13.5 15.5367 13.5 18.049V47.6176C13.5 50.13 15.5367 52.1667 18.049 52.1667H41.6457C41.5499 51.6255 41.4999 51.0686 41.4999 50.5C41.4999 49.4517 41.6698 48.443 41.9834 47.5H18.1667V38.4327L26.0239 29.3667L35.8464 40.7005L39.7761 36.1662L45.4901 42.7601C47.044 41.6519 48.9459 41 50.9999 41C51.3949 41 51.7843 41.0241 52.1667 41.0709V18.049C52.1667 15.5367 50.13 13.5 47.6176 13.5ZM44.7464 24.7042C44.7464 26.8039 43.0443 28.506 40.9446 28.506C38.8449 28.506 37.1428 26.8039 37.1428 24.7042C37.1428 22.6045 38.8449 20.9024 40.9446 20.9024C43.0443 20.9024 44.7464 22.6045 44.7464 24.7042Z" fill="#D5D7DB"/>
	<path fill-rule="evenodd" clip-rule="evenodd" d="M52.5 45V49H56.5V52H52.5V56H49.5V52H45.5V49H49.5V45H52.5Z" fill="#D5D7DB"/>
</svg>
