<svg width="21" height="21" viewBox="0 0 21 21" xmlns="http://www.w3.org/2000/svg"><style>.waitLoader{-moz-transform-origin:50%;transform-origin:50%;animation:waitLoader 1s infinite steps(12)}@keyframes waitLoader{to{transform:rotate(360deg)}}</style><g fill="#fff" class="waitLoader"><path d="M6.434 8.075a1.073 1.073 0 0 1-1.465.378L2.51 7.004a1.075 1.075 0 0 1-.378-1.466 1.073 1.073 0 0 1 1.465-.378l2.46 1.45c.506.298.676.958.377 1.465" opacity=".1"/><path d="M8.109 6.415c-.51.294-1.168.119-1.462-.391L5.219 3.553a1.073 1.073 0 0 1 .39-1.462 1.073 1.073 0 0 1 1.462.391L8.5 4.952c.294.51.118 1.168-.391 1.463" opacity=".2"/><path d="M10.43 5.792c-.589 0-1.07-.481-1.07-1.07V1.868c0-.589.481-1.07 1.07-1.07.588 0 1.07.481 1.07 1.07v2.854c0 .589-.482 1.07-1.07 1.07" opacity=".3"/><path d="M15.32 2.132c.508.3.678.958.379 1.466l-1.45 2.458a1.074 1.074 0 0 1-1.465.378 1.072 1.072 0 0 1-.378-1.464l1.45-2.46a1.074 1.074 0 0 1 1.465-.378" opacity=".4"/><path d="M18.768 5.61c.295.509.12 1.167-.39 1.461L15.905 8.5c-.509.295-1.167.12-1.462-.39a1.073 1.073 0 0 1 .392-1.462l2.47-1.429a1.073 1.073 0 0 1 1.462.391" opacity=".5"/><path d="M20.061 10.43c0 .588-.481 1.07-1.07 1.07h-2.854c-.588 0-1.07-.482-1.07-1.07 0-.589.482-1.07 1.07-1.07h2.854c.589 0 1.07.481 1.07 1.07" opacity=".6"/><path d="M18.727 15.32a1.074 1.074 0 0 1-1.465.379l-2.459-1.45a1.073 1.073 0 0 1-.378-1.465 1.072 1.072 0 0 1 1.465-.378l2.459 1.45c.507.298.677.957.378 1.465" opacity=".7"/><path d="M15.25 18.768c-.51.295-1.168.12-1.462-.39l-1.429-2.472a1.073 1.073 0 0 1 .391-1.461 1.073 1.073 0 0 1 1.463.39l1.428 2.471c.294.51.119 1.167-.391 1.462" opacity=".8"/><path d="M10.43 20.061c-.589 0-1.07-.481-1.07-1.07v-2.854c0-.588.481-1.07 1.07-1.07.588 0 1.07.482 1.07 1.07v2.854c0 .589-.482 1.07-1.07 1.07" opacity=".9"/><path d="M8.075 14.425c.507.299.677.958.378 1.465L7.004 18.35a1.075 1.075 0 0 1-1.466.378 1.073 1.073 0 0 1-.378-1.465l1.45-2.46a1.074 1.074 0 0 1 1.465-.377" opacity=".95"/><path d="M5.792 10.43c0 .588-.481 1.07-1.07 1.07H1.868c-.589 0-1.07-.482-1.07-1.07 0-.589.481-1.07 1.07-1.07h2.854c.589 0 1.07.481 1.07 1.07M6.415 12.75c.294.51.119 1.168-.391 1.462l-2.471 1.429a1.074 1.074 0 0 1-1.463-.391 1.073 1.073 0 0 1 .392-1.462l2.47-1.429a1.073 1.073 0 0 1 1.463.391"/></g></svg>