<svg xmlns="http://www.w3.org/2000/svg" width="47" height="51" viewBox="0 0 47 51">
  <path fill="#2FC6F6" fill-rule="evenodd" d="M38.8757799,30.154541 L38.8757799,37.654541 L46.3757799,37.654541 L46.3757799,42.654541 L38.8747799,42.654541 L38.8757799,50.154541 L33.8757799,50.154541 L33.8747799,42.654541 L26.3757799,42.654541 L26.3757799,37.654541 L33.8757799,37.653541 L33.8757799,30.154541 L38.8757799,30.154541 Z M23.2039478,7.10542736e-15 C23.8272971,7.10542736e-15 24.4263602,0.221005684 24.8940341,0.614930102 L25.0449122,0.752576676 L37.8357174,13.3964645 C38.4363027,13.9887467 38.7941842,14.7777467 38.8456891,15.6125361 L38.8521457,15.8221001 L38.852,24.286 L33.997,24.286 L33.9978762,19.8878131 C33.9978762,19.5415079 33.7358569,19.2531493 33.398885,19.2074944 L33.3052658,19.2011993 L20.1216816,19.2011993 C19.7698794,19.2011993 19.4785433,18.9442189 19.4324304,18.6103962 L19.4260728,18.5175839 L19.4260728,5.48691361 C19.4260728,5.14060841 19.166573,4.85224978 18.8277115,4.8065949 L18.7334624,4.80029983 L5.54987819,4.80029983 C5.19807608,4.80029983 4.90925937,5.0597997 4.86356633,5.39404224 L4.85726779,5.48691361 L4.85726779,42.5130864 C4.85726779,42.86214 5.11676765,43.1482083 5.45562913,43.1934624 L5.54987819,43.1997002 L21.782,43.199 L21.782,48 L2.60253607,48 C1.2186991,48 0.089896179,46.93551 0.00511228137,45.5928495 L-9.76996262e-13,45.4304454 L-9.76996262e-13,2.57255294 C-9.76996262e-13,1.20601392 1.07557842,0.0889647502 2.43775029,0.00505939806 L2.60253607,7.10542736e-15 L23.2039478,7.10542736e-15 Z M24.5441939,7.1569742 C24.4208347,7.1569742 24.3173011,7.24288506 24.2902376,7.35428595 L24.2833406,7.41183085 L24.2833406,14.1430445 C24.2833406,14.2638337 24.3692515,14.3670002 24.4844287,14.3940112 L24.5441939,14.4008995 L31.3533637,14.4008995 C31.4253233,14.4008995 31.4882878,14.3739147 31.5392592,14.3259417 C31.6242114,14.2409894 31.6383701,14.114394 31.5817353,14.0172958 L31.5392592,13.9631457 L24.727091,7.23193204 C24.679118,7.18395902 24.6131551,7.1569742 24.5441939,7.1569742 Z"/>
</svg>