<svg xmlns="http://www.w3.org/2000/svg" width="54" height="53" viewBox="0 0 54 53">
  <path fill="#2FC6F6" d="M16.432,4.9 L16.432,9.7 L5.54987819,9.70029983 C5.19807608,9.70029983 4.90925937,9.9597997 4.86356633,10.2940422 L4.85726779,10.3869136 L4.85726779,47.4130864 C4.85726779,47.76214 5.11676765,48.0482083 5.45562913,48.0934624 L5.54987819,48.0997002 L33.3052658,48.0997002 C33.3669672,48.0997002 33.426858,48.0916703 33.4839048,48.0765929 L38.852,48.076 L38.8521457,50.3304454 C38.8521457,51.6941014 37.7737951,52.8110397 36.416741,52.8949408 L36.2526079,52.9 L2.60253607,52.9 C1.2186991,52.9 0.089896179,51.83551 0.00511228137,50.4928495 L-4.27746727e-12,50.3304454 L-4.27746727e-12,7.47255294 C-4.27746727e-12,6.10601392 1.07557842,4.98896475 2.43775029,4.9050594 L2.60253607,4.9 L16.432,4.9 Z M36.5091624,-1.13686838e-13 C38.9924074,-1.13686838e-13 41.4072657,0.519040552 43.6299682,1.51016328 C45.551058,2.36679422 45.6199777,5.06838236 43.7450651,6.02185245 L43.7450651,6.02185245 L43.6038779,6.09907478 C43.4666914,6.1793306 43.344374,6.26616424 43.2627316,6.33687162 L43.2627316,6.33687162 L43.0782209,6.50844781 L36.1888937,13.397775 C35.1432127,14.443456 35.1432127,16.1388399 36.1888937,17.184521 C37.2001735,18.1958008 38.8275369,18.232327 39.8365947,17.3161231 L39.8365947,17.3161231 L39.9756397,17.184521 L46.8649669,10.2951938 C47.1131236,10.047037 47.3049694,9.7614972 47.4374,9.44913563 L47.4374,9.44913563 L47.5144913,9.2832603 C48.4139885,7.51040733 50.9797125,7.44765617 51.9425175,9.24392107 C53.292336,11.7622207 54.0091624,14.5822492 54.0091624,17.5 C54.0091624,27.1649831 46.1741455,35 36.5091624,35 C34.3644281,35 32.2720944,34.6127281 30.3125807,33.8706103 L30.3125807,33.8706103 L30.238,33.842 L21.7402601,42.3378863 C18.8905163,45.1876302 14.3095154,45.2509578 11.3828268,42.5278692 L11.3828268,42.5278692 L11.1858831,42.3378863 C8.27137231,39.4233756 8.27137231,34.69802 11.1858642,31.7835281 L11.1858642,31.7835281 L19.913,23.057 L19.8476685,22.8654246 C19.3453406,21.3045741 19.0633559,19.6706466 19.0162374,18.0016974 L19.0162374,18.0016974 L19.0091624,17.5 C19.0091624,7.83501688 26.8441792,-1.13686838e-13 36.5091624,-1.13686838e-13 Z M36.5091624,5 C29.605603,5 24.0091624,10.5964406 24.0091624,17.5 C24.0091624,19.2996798 24.3881779,21.0411741 25.1115443,22.6416575 C25.5399335,23.5894895 25.3366928,24.7035415 24.6012066,25.4390433 L24.6012066,25.4390433 L14.721417,35.3190432 C13.7595277,36.2809325 13.7595277,37.8404631 14.721417,38.8023524 C15.6833062,39.7642417 17.2428369,39.7642417 18.2048078,38.8022708 L18.2048078,38.8022708 L27.9154224,29.0925524 C28.6825192,28.3255263 29.8567416,28.1407285 30.82235,28.6350634 C32.5667352,29.5280863 34.5014299,30 36.5091624,30 C43.4127217,30 49.0091624,24.4035594 49.0091624,17.5 C49.0091624,16.8038365 48.952413,16.1164728 48.8410891,15.4428681 L48.8410891,15.4428681 L48.834,15.398 L43.4686111,20.7616164 L43.2433218,20.9754466 C40.2179436,23.7253145 35.5539357,23.6206308 32.6533598,20.7200549 C29.6550573,17.7217524 29.6550573,12.8605436 32.6533598,9.86224111 L32.6533598,9.86224111 L37.479,5.039 L37.3255357,5.02615076 C37.1902419,5.01745402 37.0545396,5.01091633 36.9184653,5.00655282 L36.9184653,5.00655282 Z"/>
</svg>