<svg xmlns="http://www.w3.org/2000/svg" width="39" height="48" viewBox="0 0 39 48"><path fill="#2FC6F6" fill-rule="evenodd" d="M33.9978762,42.5130864 C33.9978762,42.8938722 33.6860516,43.1997002 33.3052658,43.1997002 L5.54987819,43.1997002 C5.16609407,43.1997002 4.85726779,42.8938722 4.85726779,42.5130864 L4.85726779,5.48691361 C4.85726779,5.10912612 5.16609407,4.80029983 5.54987819,4.80029983 L18.7334624,4.80029983 C19.1172465,4.80029983 19.4260728,5.10912612 19.4260728,5.48691361 L19.4260728,18.5175839 C19.4260728,18.8953714 19.7378974,19.2011993 20.1216816,19.2011993 L33.3052658,19.2011993 C33.6860516,19.2011993 33.9978762,19.5100256 33.9978762,19.8878131 L33.9978762,42.5130864 Z M24.2833406,7.41183085 C24.2833406,7.27390843 24.4002748,7.1569742 24.5441939,7.1569742 C24.6131551,7.1569742 24.679118,7.18395902 24.727091,7.23193204 L31.5392592,13.9631457 C31.6412018,14.0620901 31.6412018,14.223999 31.5392592,14.3259417 C31.4882878,14.3739147 31.4253233,14.4008995 31.3533637,14.4008995 L24.5441939,14.4008995 C24.4002748,14.4008995 24.2833406,14.2839653 24.2833406,14.1430445 L24.2833406,7.41183085 Z M25.0449122,0.752576676 C24.5591855,0.272846524 23.8965582,7.10542736e-15 23.2039478,7.10542736e-15 L2.60253607,7.10542736e-15 C1.16334562,7.10542736e-15 -1.06226139e-12,1.15135236 -1.06226139e-12,2.57255294 L-1.06226139e-12,45.4304454 C-1.06226139e-12,46.8486476 1.16334562,48 2.60253607,48 L36.2526079,48 C37.6858017,48 38.8521457,46.8486476 38.8521457,45.4304454 L38.8521457,15.8221001 C38.8521457,14.9106128 38.4863514,14.0381036 37.8357174,13.3964645 L25.0449122,0.752576676 Z"/></svg>