<svg xmlns="http://www.w3.org/2000/svg" width="76" height="57" viewBox="0 0 76 57"><path fill="#2FC6F6" d="M58.0037993,0.116021054 C60.6182183,0.116021054 63.8383191,1.20355311 66.6879408,3.59518422 C70.4274186,6.73365387 73.0709848,11.6961875 74.2872637,18.5912888 L74.3444915,18.9273189 C74.716608,20.4306341 74.9300417,22.4981876 75.0114356,25.280955 L75.033713,26.2352406 L75.0460371,27.1944756 L75.0496032,28.1196424 L75.0459849,28.9922982 L75.0337121,29.9472062 C74.9811919,32.8938529 74.7979918,35.1118706 74.4571413,36.7449044 L74.4020088,36.9979114 L74.344,37.241 L74.2856004,37.5855702 C73.1469926,44.0343437 70.7600637,48.7929088 67.3928583,51.9508222 L67.0932148,52.22531 L66.7970556,52.4842211 C64.0815975,54.8036702 61.0281647,55.9249845 58.411676,56.0463195 L58.0998443,56.0560924 L57.8070549,56.0536465 C53.2779604,55.9117227 46.9160568,50.9122363 48.9300232,46.2677996 L49.0243413,46.0631449 L49.1665563,45.7719377 L49.328,45.534 L49.3491235,45.4924141 L49.4719339,45.2241025 L49.7104611,44.6762148 L50.0557094,43.8532281 L52.1257218,38.7496132 L52.8038062,37.1382768 L53.0005129,36.6888913 C53.3373728,35.9349188 53.5571215,35.5428031 53.8844549,35.1396604 L53.9765639,35.0291588 L54.153638,34.8294094 C55.1768783,33.7109004 56.1468415,33.3669427 57.5794656,33.1056708 C58.0941217,33.0118115 58.66167,32.9451928 59.2935923,32.8969158 L59.566,32.878 L59.584217,32.7517973 L59.6592645,32.1542158 C59.7476432,31.4142089 59.8267732,30.6234914 59.8960706,29.8198555 L59.946191,29.2152968 L60.028,28.096 L59.9856475,27.4741797 C59.9054593,26.3975578 59.8071766,25.3150188 59.6932843,24.3208836 L59.6230956,23.7357655 L59.566,23.297 L59.3963363,23.286161 L58.9277837,23.2472433 L58.3616024,23.1910142 C56.3769133,22.9777666 55.3616023,22.6597905 54.1600049,21.3490527 L53.9628347,21.1261641 C53.5332937,20.6194851 53.2966979,20.1722242 52.8180379,19.0631507 L52.7116043,18.8150995 L52.271721,17.7719474 L50.242154,12.7698459 L50.242154,12.7698459 L49.7894083,11.6799604 L49.4510572,10.9002736 L49.3507629,10.6823043 L49.3249419,10.6466218 C48.4307672,9.33571133 48.3635237,7.86015276 48.7707746,6.54360304 C48.9816279,5.86196239 49.2990194,5.29221277 49.7004039,4.74534422 C50.2093918,4.05187079 50.8864046,3.37329197 51.6551996,2.74938834 C53.3326685,1.3880645 55.2459273,0.388151185 57.1961511,0.163327818 L57.5406515,0.131783224 L57.8486853,0.118695223 L58.0037993,0.116021054 Z M43.8613898,15.5 C45.5081096,15.5 47.0167895,16.3986655 47.8044171,17.8314156 L47.9072968,18.0300668 L52.045907,26.5300668 C52.6135233,27.6958539 52.6489993,29.045638 52.152335,30.2344247 L52.045907,30.4699332 L47.9072968,38.9699332 C47.1864239,40.4504832 45.7179983,41.4135204 44.0850321,41.494464 L43.8613898,41.5 L28,41.5 L28,55 C28,55.5522847 27.5522847,56 27,56 L22,56 C21.4477153,56 21,55.5522847 21,55 L21,41.5 L5,41.5 C2.58572667,41.5 0.615510911,39.5987635 0.50489799,37.2118357 L0.5,37 L0.5,20 C0.5,17.5857267 2.40123652,15.6155109 4.7881643,15.504898 L5,15.5 L43.8613898,15.5 Z M58.0636384,4.61651589 L57.8444386,4.62151745 C55.7444818,4.76360597 52.5826279,7.61772987 53.1009029,8.18288986 C53.6324669,8.76254113 56.9476651,17.7306612 57.4770881,18.3081714 C57.8904955,18.7591284 60.290419,18.8600325 61.8423334,18.8810327 L62.8858861,18.885805 C63.5882053,18.883687 64.0667262,22.6193916 64.3212789,25.3316248 L64.3425493,25.5614845 L64.4732174,27.1399399 L64.5381151,28.0877301 L64.4733217,29.0348271 C64.2991829,31.3863515 63.7736314,37.291651 62.8816323,37.2904139 L61.8151799,37.2959236 C60.2606639,37.3173571 57.8852539,37.4171666 57.4738754,37.8668465 C56.9567138,38.4321583 53.7758583,47.018081 53.13981,47.939364 L53.0679087,48.0378759 C52.746016,48.697001 55.7888042,51.4047303 57.8347339,51.5506126 L58.002827,51.5567404 L58.1946816,51.5520406 C60.2956557,51.454311 67.7514177,49.7229256 69.9388301,36.30422 C70.23535,35.2040298 70.4440467,33.3707328 70.519041,30.5554299 L70.5361446,29.7630858 L70.5461347,28.9555821 L70.5496411,28.1011749 L70.5460734,27.2125425 L70.5360622,26.4050424 C70.4811139,23.1368003 70.2623099,21.0642012 69.9389732,19.8638712 C67.7030727,6.15193164 59.962644,4.64728843 58.0636384,4.61651589 Z M43.8613898,20 L5,20 L5,37 L43.8613898,37 L48,28.5 L43.8613898,20 Z"/></svg>