<svg width="20" height="20" viewBox="0 0 20 20" fill="none" xmlns="http://www.w3.org/2000/svg">
	<circle cx="10" cy="10" r="10" fill="#00ACE3"/>
	<path fill-rule="evenodd" clip-rule="evenodd" d="M14.5665 8.25326L12.06 8.25375C11.9878 8.25375 11.9181 8.21202 11.8911 8.14575C11.7782 7.86348 11.7826 7.54537 11.9063 7.26506C12.114 6.66075 12.1375 6.00785 11.9746 5.3898C11.8042 4.96467 11.759 4.18806 10.9731 4.15222C10.7272 4.18855 10.5126 4.33631 10.3889 4.55182C10.3668 4.59011 10.3575 4.63527 10.3575 4.67896C10.3575 4.67896 10.3936 5.43306 10.3575 5.95729C10.3214 6.48151 9.31826 7.81684 8.68057 8.66464C8.64031 8.71864 8.58386 8.75398 8.5171 8.76429C8.27802 8.80009 7.822 8.86072 7.65762 8.88242C7.61914 8.8875 7.59665 8.93582 7.59665 8.95851C7.59665 10.0183 7.59665 11.6036 7.59665 13.7145C7.59665 13.732 7.61775 13.7701 7.65526 13.7763C7.78403 13.7976 8.10614 13.8565 8.43119 13.961C8.83962 14.0921 9.17982 14.4024 9.86071 14.6321C9.89654 14.6444 9.93631 14.6508 9.97411 14.6508H13.1714C13.5842 14.5771 13.8915 14.2242 13.9127 13.8005C13.9185 13.5644 13.8714 13.3307 13.7747 13.1162C13.761 13.0853 13.7791 13.0529 13.8125 13.0465C14.2224 12.9719 14.7349 12.1938 14.1036 11.5669C14.0869 11.5507 14.0899 11.5286 14.1125 11.5227C14.4605 11.4338 14.7271 11.156 14.8086 10.8094C14.84 10.6769 14.8287 10.5399 14.7894 10.4098C14.7433 10.2547 14.6696 10.1094 14.5719 9.97977C14.5474 9.94738 14.5611 9.90516 14.6004 9.89239C14.947 9.77507 15.1856 9.44371 15.1831 9.06669C15.2229 8.69704 14.9259 8.25375 14.5665 8.25326ZM6.61532 8.45355H4.80339C4.70913 8.45355 4.63746 8.537 4.65366 8.62782L5.70616 14.5408C5.72236 14.6316 5.80238 14.6979 5.89615 14.6979H6.56623C6.66981 14.6979 6.75376 14.6159 6.75376 14.5148L6.76849 8.60376C6.76849 8.5208 6.70025 8.45355 6.61532 8.45355Z" fill="white"/>
</svg>