<svg width="190" height="150" viewBox="0 0 190 150" fill="none" xmlns="http://www.w3.org/2000/svg">
<path opacity="0.2" d="M15 148C17.9916 140.83 24.3891 126.203 26.046 125.056C28.1172 123.622 32.2594 119.32 35.7113 118.603C38.3097 118.064 54.1514 111.134 63.107 107.131C64.024 106.721 64.49 105.696 64.2142 104.73C63.0034 100.489 61.2552 93.6402 61.2552 90.6406C61.2552 86.3386 59.8745 79.8857 61.2552 77.7347C62.636 75.5837 61.2552 66.2628 61.2552 63.3949C61.2552 61.3412 61.624 57.2197 61.8664 54.8349C61.9163 54.3439 61.7794 53.8577 61.5256 53.4344C59.6011 50.2237 58.0116 43.4669 64.7071 37.5831C73.682 29.6962 84.728 21.8093 92.3222 21.0923C99.9163 20.3753 112.343 23.9603 117.866 27.5452C123.389 31.1302 130.983 43.3192 130.293 51.9231C129.84 57.5712 129.046 66.8239 128.521 72.8677C128.388 74.3981 129.989 75.4318 131.524 75.3688C132.781 75.3171 133.657 75.8576 133.054 77.7347C131.674 82.0368 129.603 87.0558 128.912 90.6407C128.454 93.0207 127.647 96.5529 127.122 98.7786C126.951 99.5065 127.194 100.27 127.769 100.747C130.867 103.32 136.476 107.532 139.958 108.566C144.791 110 146.862 112.151 147.552 112.151C147.706 112.151 147.863 112.224 148.014 112.341C148.731 112.893 149.565 113.421 150.441 113.193V113.193C151.197 112.997 151.996 113.284 152.453 113.918L153.289 115.075C153.594 115.498 154.054 115.785 154.569 115.874L157.36 116.358C157.719 116.42 158.053 116.578 158.328 116.816L161.657 119.697C161.915 119.92 162.225 120.074 162.559 120.143L164.535 120.554C165.145 120.68 165.66 121.083 165.93 121.644L167.505 124.914C167.55 125.009 167.601 125.096 167.661 125.183C171.831 131.21 180 143.866 180 147.283" stroke="url(#paint0_linear_394_15976)"/>
<defs>
<linearGradient id="paint0_linear_394_15976" x1="96.934" y1="124.242" x2="97.4806" y2="148" gradientUnits="userSpaceOnUse">
<stop stop-color="white"/>
<stop offset="0.940497" stop-color="white" stop-opacity="0"/>
</linearGradient>
</defs>
</svg>
