<svg width="80" height="80" viewBox="0 0 80 80" fill="none" xmlns="http://www.w3.org/2000/svg">
	<g opacity="0.8">
		<path fill-rule="evenodd" clip-rule="evenodd" d="M10.0507 17.8555C8.72514 19.181 8.72514 21.3301 10.0507 22.6556L14.1664 26.7714C13.6356 27.7281 13.3333 28.8292 13.3333 30.001V50.0009C13.3333 53.6828 16.3181 56.6676 20 56.6676H44.0627L49.6946 62.2995C51.0201 63.625 53.1692 63.625 54.4947 62.2995C55.8202 60.974 55.8202 58.8249 54.4947 57.4994L14.8508 17.8555C13.5252 16.53 11.3762 16.5299 10.0507 17.8555ZM53.3333 50.0009C53.3333 50.1371 53.3292 50.2724 53.3212 50.4065L26.249 23.3343H46.6667C50.3486 23.3343 53.3333 26.3191 53.3333 30.001V50.0009ZM70 26.6676L56.6667 32.8948V47.8541L70 53.3343V26.6676Z" fill="#A8ADB4"/>
	</g>
</svg>