<svg width="14" height="14" viewBox="0 0 14 14" fill="none" xmlns="http://www.w3.org/2000/svg">
	<path fill-rule="evenodd" clip-rule="evenodd" d="M3.66202 9.46866C3.71049 9.67111 3.89149 9.81389 4.09966 9.81389H6.9938H10.2308C10.451 9.81389 10.6388 9.65462 10.6748 9.43744L11.2703 5.84242C11.3304 5.47943 10.9532 5.20161 10.6244 5.36674L9.21638 6.07387C8.99654 6.18427 8.7288 6.09768 8.61524 5.87946L7.39354 3.53183C7.22533 3.20859 6.76278 3.20886 6.59494 3.53228L5.37748 5.87834C5.26398 6.09704 4.99572 6.18381 4.77565 6.07298L3.45067 5.40573C3.10864 5.23348 2.72148 5.53998 2.81064 5.91241L3.66202 9.46866Z" fill="#8DBB00"/>
</svg>