<svg width="10" height="7" viewBox="0 0 10 7" fill="none" xmlns="http://www.w3.org/2000/svg">
<path fill-rule="evenodd" clip-rule="evenodd" d="M1.63545 6.35261C1.70007 6.62254 1.9414 6.81292 2.21896 6.81292H4.99478H8.10459C8.39812 6.81292 8.64855 6.60055 8.69653 6.31097L9.22309 3.13233C9.30326 2.64834 8.80028 2.27792 8.36187 2.4981L7.34948 3.00653C7.05637 3.15374 6.69937 3.03829 6.54796 2.74733L5.52777 0.786901C5.30349 0.355924 4.68674 0.356278 4.46296 0.78751L3.44671 2.74584C3.29539 3.03744 2.9377 3.15312 2.64428 3.00535L1.74022 2.55007C1.28418 2.32041 0.767957 2.72908 0.886839 3.22565L1.63545 6.35261Z" fill="#E89B06"/>
</svg>
