<svg width="24" height="24" viewBox="0 0 24 24" fill="none" xmlns="http://www.w3.org/2000/svg">
	<g clip-path="url(#clip0_23236_390756)">
		<circle opacity="0.1" cx="12" cy="12" r="12" fill="#2FC6F6"/>
		<path fill-rule="evenodd" clip-rule="evenodd" d="M14.232 8.62373C12.8022 8.27918 11.3721 8.1069 9.94172 8.1069C8.50556 8.1069 7.04052 8.28057 5.54661 8.62791C5.22576 8.70251 4.99805 8.99488 4.99805 9.33219V15.1007C4.99805 15.4271 5.21159 15.7129 5.51895 15.7979C6.94641 16.1927 8.37436 16.39 9.80278 16.39C11.2391 16.39 12.7199 16.1905 14.2451 15.7913C14.557 15.7097 14.7752 15.4216 14.7752 15.0916V9.3267C14.7752 8.99152 14.5503 8.7004 14.232 8.62373ZM19.1743 8.871C19.1743 8.84474 19.1697 8.8187 19.1606 8.79415C19.1192 8.68229 18.9972 8.62601 18.8881 8.66845L15.6995 9.90882C15.6174 9.94075 15.5631 10.0214 15.5631 10.1114V14.0266C15.5631 14.1166 15.6174 14.1973 15.6995 14.2292L18.8881 15.4696C18.912 15.4789 18.9374 15.4836 18.963 15.4836C19.0797 15.4836 19.1743 15.3867 19.1743 15.267V8.871ZM9.83146 12.9031C10.2134 12.9031 10.5231 12.5935 10.5231 12.2115C10.5231 11.8295 10.2134 11.5199 9.83146 11.5199C9.44948 11.5199 9.13983 11.8295 9.13983 12.2115C9.13983 12.5935 9.44948 12.9031 9.83146 12.9031ZM7.59981 12.9032C7.98178 12.9032 8.29144 12.5935 8.29144 12.2115C8.29144 11.8295 7.98178 11.5199 7.59981 11.5199C7.21783 11.5199 6.90817 11.8295 6.90817 12.2115C6.90817 12.5935 7.21783 12.9032 7.59981 12.9032ZM12.7559 12.2115C12.7559 12.5935 12.4463 12.9031 12.0643 12.9031C11.6823 12.9031 11.3727 12.5935 11.3727 12.2115C11.3727 11.8295 11.6823 11.5199 12.0643 11.5199C12.4463 11.5199 12.7559 11.8295 12.7559 12.2115Z" fill="#7FDEFC"/>
	</g>
	<defs>
		<clipPath id="clip0_23236_390756">
			<rect width="24" height="24" fill="white"/>
		</clipPath>
	</defs>
</svg>
