<svg width="24" height="24" viewBox="0 0 24 24" fill="none" xmlns="http://www.w3.org/2000/svg">
	<g clip-path="url(#clip0_23236_390614)">
		<circle opacity="0.1" cx="12" cy="12" r="12" fill="#9DCF00"/>
		<path fill-rule="evenodd" clip-rule="evenodd" d="M7.30902 10.0897C7.31061 10.0893 7.31222 10.0889 7.31385 10.0886L17.0284 8.0343C17.3082 7.97513 17.5715 8.18857 17.5715 8.47457V15.5163C17.5715 15.8116 17.2919 16.0269 17.0065 15.9514L13.28 14.9664V16.1591C13.28 16.5733 12.9442 16.9091 12.53 16.9091H9.0244C8.61019 16.9091 8.2744 16.5733 8.2744 16.1591V13.6433L7.3102 13.3884L7.30615 13.3872C7.28571 13.4024 7.26245 13.4143 7.23703 13.422L5.88591 13.8312C5.74143 13.8749 5.5957 13.7668 5.5957 13.6158V9.85894C5.5957 9.70798 5.74143 9.59985 5.88591 9.6436L7.23703 10.0527C7.26365 10.0608 7.2879 10.0735 7.30902 10.0897ZM12.2937 14.7057L9.26062 13.904V15.8029C9.26062 15.9271 9.36136 16.0279 9.48562 16.0279H12.0687C12.193 16.0279 12.2937 15.9271 12.2937 15.8029V14.7057Z" fill="#BBDE4D"/>
	</g>
	<defs>
		<clipPath id="clip0_23236_390614">
			<rect width="24" height="24" fill="white"/>
		</clipPath>
	</defs>
</svg>
