<svg width="24" height="24" viewBox="0 0 24 24" fill="none" xmlns="http://www.w3.org/2000/svg">
	<g clip-path="url(#clip0_23236_390620)">
		<circle opacity="0.1" cx="12" cy="12" r="12" fill="#FFA900"/>
		<path fill-rule="evenodd" clip-rule="evenodd" d="M6.75638 6.7448H14.4095C14.8183 6.7448 15.1497 7.07623 15.1497 7.48507V12.6003C15.1497 13.0091 14.8183 13.3405 14.4095 13.3405H10.5829L8.55793 15.3653C8.36893 15.5543 8.04581 15.4204 8.04581 15.1531V13.3405H6.75638C6.34754 13.3405 6.01611 13.0091 6.01611 12.6003V7.48507C6.01611 7.07623 6.34754 6.7448 6.75638 6.7448ZM17.9614 9.78899C18.3703 9.78899 18.7017 10.1204 18.7017 10.5293V15.1371C18.7017 15.5459 18.3703 15.8773 17.9614 15.8773H16.672V17.1826C16.672 17.4499 16.3489 17.5837 16.1599 17.3947L14.6423 15.8773H11.3232C10.9144 15.8773 10.5829 15.5459 10.5829 15.1371V14.3553H15.0567C15.67 14.3553 16.1671 13.8581 16.1671 13.2449V9.78899H17.9614Z" fill="#FFC34D"/>
	</g>
	<defs>
		<clipPath id="clip0_23236_390620">
			<rect width="24" height="24" fill="white"/>
		</clipPath>
	</defs>
</svg>
