<svg width="24" height="24" viewBox="0 0 24 24" fill="none" xmlns="http://www.w3.org/2000/svg">
	<g clip-path="url(#clip0_23236_390698)">
		<circle opacity="0.1" cx="12" cy="12" r="12" fill="#FFA900"/>
		<path fill-rule="evenodd" clip-rule="evenodd" d="M6.4174 7.42785C7.72941 5.9659 16.3241 6.05557 17.4992 7.42785C18.6744 8.80013 18.8847 14.4318 17.4992 15.7159C17.236 15.9599 16.7181 16.1461 16.0432 16.281C16.0285 17.1099 15.9683 18.7906 15.7245 18.7906C15.5023 18.7906 13.9288 17.4189 12.9647 16.5595C10.2091 16.6103 7.13725 16.2698 6.4174 15.7159C5.1596 14.7481 5.10538 8.8898 6.4174 7.42785ZM7.19843 13.8427C7.64842 13.9202 8.27087 13.9852 8.98977 14.0349C9.03492 13.8413 9.09195 13.618 9.13284 13.458C9.16257 13.3417 9.18376 13.2588 9.18566 13.2448C9.19516 12.9682 9.56919 12.721 9.97641 12.5521C9.94556 12.5095 9.91918 12.4638 9.89769 12.4158C9.84092 12.3437 9.76641 12.2876 9.68149 12.2529L9.675 12.0363L10.1221 11.8931C10.1221 11.8931 10.2376 11.8383 10.2487 11.8383C10.2355 11.805 10.2189 11.7732 10.1992 11.7432C10.1923 11.7248 10.1567 11.611 10.1423 11.5654L10.1364 11.5466C10.2011 11.6319 10.2773 11.7079 10.3628 11.7724C10.2844 11.631 10.2181 11.4834 10.1644 11.331C10.1289 11.184 10.1052 11.0345 10.0934 10.8837C10.0627 10.6098 10.0149 10.338 9.95007 10.07C9.90405 9.93697 9.82229 9.81912 9.71378 9.72941C9.55444 9.61627 9.36741 9.54846 9.1726 9.5332H9.1502C8.95541 9.54852 8.7684 9.61632 8.60905 9.72941C8.50036 9.81901 8.41854 9.93689 8.37259 10.07C8.30797 10.338 8.26015 10.6098 8.22942 10.8837C8.21565 11.0312 8.19072 11.1773 8.15486 11.321C8.10124 11.4761 8.03608 11.6271 7.95993 11.7725C8.04592 11.7084 8.1226 11.6326 8.18778 11.5474C8.18778 11.5474 8.14563 11.7054 8.13714 11.7285C8.11403 11.7637 8.09347 11.8005 8.07562 11.8387C8.08689 11.8387 8.20221 11.8935 8.20221 11.8935L8.6493 12.0363L8.64285 12.2529C8.55785 12.2874 8.48333 12.3435 8.42664 12.4157C8.39977 12.485 8.35697 12.547 8.30171 12.5967C8.19387 12.6349 8.09001 12.6836 7.99157 12.7419C7.84256 12.8266 7.6785 12.8815 7.50853 12.9035C7.33738 12.9323 7.2294 13.2146 7.2294 13.2146C7.22914 13.2192 7.21336 13.5369 7.19843 13.8427ZM9.46053 14.0643C11.0115 14.1527 12.9 14.1744 14.4711 14.1056C14.3791 13.7187 14.2968 13.4017 14.2968 13.4017C14.2968 13.4017 13.993 12.8931 13.3942 12.7351C13.1909 12.6771 12.9979 12.5874 12.8224 12.4694C12.7943 12.3963 12.7832 12.3177 12.7899 12.2396L12.598 12.2096C12.598 12.1928 12.5816 11.9441 12.5816 11.9441C12.8122 11.8649 12.7885 11.3981 12.7885 11.3981C12.935 11.481 13.0303 11.112 13.0303 11.112C13.2036 10.599 12.9441 10.6299 12.9441 10.6299C12.9895 10.3165 12.9895 9.99817 12.9441 9.68477C12.8288 8.6454 11.0914 8.92723 11.2975 9.267C10.7898 9.17105 10.9057 10.3511 10.9057 10.3511L11.0158 10.6563C10.8633 10.7571 10.8932 10.8731 10.9266 11.0027C10.9405 11.0569 10.9551 11.1133 10.9572 11.1721C10.9679 11.4667 11.1439 11.4055 11.1439 11.4055C11.1549 11.8913 11.3893 11.9552 11.3893 11.9552C11.4333 12.2603 11.406 12.2076 11.406 12.2076L11.1972 12.2335C11.2001 12.3028 11.1946 12.3723 11.1808 12.4403C11.0596 12.4956 10.9854 12.5394 10.9121 12.5827C10.8366 12.6273 10.7622 12.6713 10.6385 12.7266C10.1671 12.937 9.65481 13.2118 9.56391 13.5811C9.53951 13.6801 9.50217 13.8576 9.46053 14.0643ZM14.9439 14.0813C15.6375 14.0408 16.2488 13.9803 16.7128 13.8976C16.6971 13.5748 16.679 13.2109 16.6786 13.206C16.6786 13.206 16.5714 12.9255 16.4013 12.8969C16.2325 12.875 16.0695 12.8204 15.9215 12.7363C15.8236 12.6784 15.7205 12.6301 15.6134 12.5921C15.5584 12.5427 15.5159 12.4811 15.4892 12.4122C15.4329 12.3406 15.3589 12.2848 15.2744 12.2505L15.2681 12.0353L15.7123 11.8935C15.7123 11.8935 15.8269 11.839 15.8381 11.839C15.8203 11.8011 15.7998 11.7645 15.7768 11.7295C15.7684 11.7066 15.7265 11.5496 15.7265 11.5496C15.7913 11.6343 15.8675 11.7095 15.9529 11.7733C15.8772 11.6287 15.8125 11.4788 15.7592 11.3247C15.7236 11.182 15.6988 11.0368 15.6852 10.8903C15.6546 10.6181 15.6071 10.3482 15.5429 10.0819C15.4973 9.94964 15.416 9.83253 15.308 9.74351C15.1497 9.63116 14.9639 9.5638 14.7704 9.54858H14.7481C14.5546 9.56375 14.3688 9.63111 14.2105 9.74351C14.1027 9.83264 14.0214 9.94972 13.9757 10.0819C13.9113 10.3481 13.8638 10.6181 13.8333 10.8903C13.8216 11.04 13.798 11.1886 13.7628 11.3346C13.7095 11.486 13.6436 11.6327 13.5657 11.7731C13.6507 11.7091 13.7458 11.5489 13.7458 11.5489C13.7458 11.5489 13.737 11.7211 13.7285 11.7441C13.7089 11.7738 13.6924 11.8054 13.6793 11.8385C13.6903 11.8385 13.8051 11.893 13.8051 11.893L14.2491 12.0353L14.2427 12.2505C14.1583 12.2849 13.9803 12.4156 13.9497 12.4579C14.3543 12.6257 14.7258 12.9612 14.7354 13.2359C14.7373 13.2499 14.7586 13.3334 14.7885 13.4504C14.8334 13.6262 14.8976 13.8775 14.9439 14.0813Z" fill="#FFC34D"/>
	</g>
	<defs>
		<clipPath id="clip0_23236_390698">
			<rect width="24" height="24" fill="white"/>
		</clipPath>
	</defs>
</svg>
