<svg width="24" height="24" viewBox="0 0 24 24" fill="none" xmlns="http://www.w3.org/2000/svg">
	<g clip-path="url(#clip0_23236_390766)">
		<circle opacity="0.1" cx="12" cy="12" r="12" fill="#FFA900"/>
		<path fill-rule="evenodd" clip-rule="evenodd" d="M17.1273 9.53745L14.4262 9.53798C14.3484 9.53798 14.2733 9.49301 14.2442 9.42159C14.1225 9.11741 14.1273 8.7746 14.2606 8.47253C14.4844 7.82131 14.5098 7.11772 14.3341 6.45168C14.1506 5.99355 14.1019 5.15664 13.2549 5.11802C12.9899 5.15717 12.7587 5.31641 12.6254 5.54864C12.6016 5.58991 12.5915 5.63858 12.5915 5.68566C12.5915 5.68566 12.6305 6.4983 12.5915 7.06323C12.5526 7.62815 11.4716 9.06715 10.7844 9.98077C10.741 10.039 10.6802 10.077 10.6082 10.0882C10.3506 10.1267 9.85917 10.1921 9.68203 10.2155C9.64057 10.2209 9.61633 10.273 9.61633 10.2975C9.61633 11.4395 9.61633 13.1479 9.61633 15.4227C9.61633 15.4415 9.63907 15.4826 9.67949 15.4893C9.81826 15.5122 10.1654 15.5757 10.5157 15.6884C10.9558 15.8296 11.3224 16.1639 12.0562 16.4115C12.0948 16.4248 12.1376 16.4316 12.1784 16.4316H15.6239C16.0688 16.3523 16.3999 15.9719 16.4227 15.5154C16.429 15.2609 16.3783 15.0091 16.274 14.7779C16.2592 14.7446 16.2788 14.7097 16.3148 14.7028C16.7565 14.6224 17.3088 13.7839 16.6285 13.1083C16.6105 13.0909 16.6137 13.0671 16.638 13.0607C17.0131 12.965 17.3003 12.6655 17.3881 12.2921C17.422 12.1492 17.4098 12.0016 17.3675 11.8614C17.3178 11.6943 17.2384 11.5377 17.1332 11.398C17.1067 11.3631 17.1215 11.3176 17.1638 11.3038C17.5373 11.1774 17.7944 10.8203 17.7918 10.414C17.8346 10.0157 17.5146 9.53798 17.1273 9.53745ZM8.55882 9.75352H6.60621C6.50463 9.75352 6.4274 9.84345 6.44485 9.94132L7.57907 16.3134C7.59653 16.4112 7.68276 16.4826 7.7838 16.4826H8.50591C8.61754 16.4826 8.708 16.3943 8.708 16.2853L8.72387 9.9154C8.72387 9.826 8.65034 9.75352 8.55882 9.75352Z" fill="#FFC34D"/>
	</g>
	<defs>
		<clipPath id="clip0_23236_390766">
			<rect width="24" height="24" fill="white"/>
		</clipPath>
	</defs>
</svg>
