<svg width="24" height="24" viewBox="0 0 24 24" fill="none" xmlns="http://www.w3.org/2000/svg">
	<g clip-path="url(#clip0_23236_390610)">
		<circle opacity="0.1" cx="12" cy="12" r="12" fill="#2FC6F6"/>
		<path fill-rule="evenodd" clip-rule="evenodd" d="M17.3715 9.42019L14.5417 9.42074C14.4602 9.42074 14.3815 9.37364 14.3511 9.29882C14.2236 8.98015 14.2286 8.62102 14.3682 8.30456C14.6027 7.62233 14.6293 6.88523 14.4453 6.18748C14.253 5.70753 14.202 4.83077 13.3147 4.79031C13.037 4.83133 12.7948 4.99814 12.6552 5.24144C12.6302 5.28467 12.6197 5.33566 12.6197 5.38498C12.6197 5.38498 12.6605 6.23632 12.6197 6.82815C12.5789 7.41998 11.4464 8.9275 10.7265 9.88462C10.6811 9.94558 10.6173 9.98549 10.542 9.99712C10.2721 10.0375 9.75723 10.106 9.57165 10.1305C9.52822 10.1362 9.50282 10.1908 9.50282 10.2164C9.50282 11.4128 9.50282 13.2026 9.50282 15.5857C9.50282 15.6054 9.52665 15.6485 9.56899 15.6555C9.71437 15.6795 10.078 15.746 10.445 15.864C10.9061 16.012 11.2901 16.3622 12.0588 16.6216C12.0993 16.6355 12.1442 16.6427 12.1869 16.6427H15.7964C16.2625 16.5595 16.6095 16.1611 16.6333 15.6828C16.6399 15.4162 16.5867 15.1524 16.4776 14.9102C16.462 14.8753 16.4825 14.8387 16.5202 14.8315C16.983 14.7473 17.5616 13.8688 16.8489 13.1611C16.83 13.1428 16.8334 13.1179 16.8589 13.1112C17.2518 13.0109 17.5527 12.6972 17.6447 12.306C17.6802 12.1563 17.6675 12.0017 17.6231 11.8548C17.571 11.6797 17.4879 11.5157 17.3776 11.3693C17.3499 11.3328 17.3654 11.2851 17.4097 11.2707C17.801 11.1382 18.0704 10.7642 18.0676 10.3385C18.1125 9.9212 17.7772 9.42074 17.3715 9.42019ZM8.39495 9.64631H6.34936C6.24295 9.64631 6.16204 9.74052 6.18032 9.84305L7.36855 16.5185C7.38684 16.6211 7.47718 16.6959 7.58303 16.6959H8.33953C8.45647 16.6959 8.55124 16.6033 8.55124 16.4891L8.56786 9.8159C8.56786 9.72223 8.49083 9.64631 8.39495 9.64631Z" fill="#7FDEFC"/>
	</g>
	<defs>
		<clipPath id="clip0_23236_390610">
			<rect width="24" height="24" fill="white"/>
		</clipPath>
	</defs>
</svg>
