<svg width="24" height="24" viewBox="0 0 24 24" fill="none" xmlns="http://www.w3.org/2000/svg">
	<g clip-path="url(#clip0_23236_390760)">
		<circle opacity="0.1" cx="12" cy="12" r="12" fill="#9DCF00"/>
		<path fill-rule="evenodd" clip-rule="evenodd" d="M16.434 11.5074L14.4629 13.4779C13.375 14.5664 11.6102 14.5664 10.5221 13.4779C10.3507 13.3069 10.2166 13.1144 10.0989 12.9158L11.0147 12C11.0583 11.9561 11.112 11.9309 11.1634 11.9013C11.2267 12.1176 11.3373 12.3224 11.5074 12.4926C12.0507 13.0363 12.9347 13.0356 13.4777 12.4926L15.4482 10.5222C15.9919 9.97851 15.9919 9.09466 15.4482 8.55141C14.9052 8.00815 14.0214 8.00815 13.4777 8.55141L12.777 9.25286C12.2084 9.03146 11.5958 8.97193 10.9994 9.05932L12.4926 7.56624C13.5811 6.47792 15.3455 6.47792 16.434 7.56624C17.522 8.65452 17.522 10.4192 16.434 11.5074ZM11.2233 14.7475L10.5221 15.4489C9.97883 15.9919 9.09472 15.9919 8.55137 15.4489C8.00807 14.9052 8.00807 14.0214 8.55137 13.4779L10.5221 11.5074C11.0658 10.9638 11.9493 10.9638 12.4925 11.5074C12.6623 11.6772 12.7729 11.8819 12.8368 12.098C12.8885 12.068 12.9416 12.0436 12.9851 12L13.9009 11.0846C13.7839 10.8852 13.6491 10.6933 13.4777 10.5222C12.3899 9.4339 10.6249 9.4339 9.53657 10.5222L7.56616 12.4927C6.47795 13.5813 6.47795 15.3455 7.56616 16.434C8.65448 17.522 10.4191 17.522 11.5074 16.434L13.0009 14.9406C12.4042 15.0285 11.7914 14.9685 11.2233 14.7475Z" fill="#BBDE4D"/>
	</g>
	<defs>
		<clipPath id="clip0_23236_390760">
			<rect width="24" height="24" fill="white"/>
		</clipPath>
	</defs>
</svg>
