<svg xmlns="http://www.w3.org/2000/svg" width="42" height="42"><g fill="none" fill-rule="evenodd"><circle cx="21" cy="21" r="21" fill="#9DCF00"/><path fill="#FFF" d="M27.701 17.035a18319.86 18319.86 0 00-12.9 0c-.118 0-.102-.017-.102.101a47638.995 47638.995 0 00.001 10.025 1.663 1.663 0 001.605 1.619c.285.007.57.005.854 0 .074 0 .092.02.092.094-.003 1.162.003 2.324-.005 3.486a.985.985 0 00.505.906c.522.315 1.066.325 1.602.038.376-.201.572-.516.568-.962-.01-1.154-.002-2.308-.005-3.462 0-.075.014-.1.095-.1.82.004 1.64.003 2.46.003.097 0 .097 0 .097.1 0 1.16.005 2.32-.002 3.478a.99.99 0 00.506.907c.474.29.98.317 1.486.094.452-.2.691-.54.684-1.06-.014-1.146-.004-2.293-.006-3.44 0-.063.017-.082.081-.08.261.003.523 0 .784 0a1.71 1.71 0 00.42-.045c.767-.191 1.278-.851 1.278-1.655v-9.948c0-.114.014-.1-.098-.1zm3.803 1.217c0-.351-.135-.631-.415-.831-.496-.355-1.036-.396-1.587-.154-.447.196-.683.536-.677 1.05.014 1.04.004 2.081.005 3.122 0 1.07.002 2.139-.002 3.208a.937.937 0 00.41.81c.537.38 1.111.406 1.69.106.387-.201.58-.528.577-.98-.006-2.11-.007-4.22 0-6.331zm-17.812.003a.986.986 0 00-.466-.874c-.431-.287-.904-.334-1.39-.173-.423.14-.73.407-.813.874a.068.068 0 000 .05.133.133 0 01.01.023 22094.5 22094.5 0 00.002 6.469c0 .03 0 .061-.002.092a.296.296 0 01-.01.04.07.07 0 000 .05c.04.269.19.508.415.659.551.377 1.13.399 1.71.08.36-.197.546-.508.544-.937-.006-2.118-.007-4.235 0-6.353zm14.032-2.821c-.166-.917-.515-1.753-1.093-2.488-.553-.705-1.254-1.217-2.073-1.57-.058-.026-.064-.043-.029-.095.22-.322.434-.647.65-.97.125-.186.25-.37.372-.557a.217.217 0 00-.146-.341c-.107-.018-.179.038-.236.124-.353.531-.709 1.06-1.061 1.592a.076.076 0 01-.105.036 6.46 6.46 0 00-.442-.129 9.801 9.801 0 00-3.005-.251 8.243 8.243 0 00-2.096.383.068.068 0 01-.092-.033c-.134-.204-.27-.405-.405-.608l-.676-1.01a.216.216 0 00-.266-.094.22.22 0 00-.138.24c.01.046.03.088.058.124.332.497.663.994.997 1.488.04.059.033.076-.031.104-1.55.689-2.54 1.863-3.007 3.487-.1.366-.168.74-.201 1.119-.014.134-.018.134.111.134h6.435c2.157 0 4.315 0 6.472.002.08 0 .087-.028.08-.092a6.94 6.94 0 00-.073-.595zm-9.298-1.172a.731.731 0 11.001-1.463.731.731 0 01-.001 1.464zm5.604 0a.731.731 0 11.007-1.463.731.731 0 01-.007 1.464z"/></g></svg>