<svg xmlns="http://www.w3.org/2000/svg" width="42" height="42"><g fill="none" fill-rule="evenodd"><circle cx="21" cy="21" r="21" fill="#1EAE43"/><path fill="#FFF" d="M24.642 16.45a7.601 7.601 0 110 15.203 7.601 7.601 0 010-15.202zm-4.528 5.848l-.063.052-1.806 1.806a.4.4 0 00.202.675l.08.008h.796a5.363 5.363 0 008.49 3.596l.202-.156-1.438-1.49a3.305 3.305 0 01-5.097-1.695l-.05-.179-.016-.075.726-.001a.4.4 0 00.334-.62l-.051-.063-1.806-1.806a.4.4 0 00-.503-.052zm-6.11-9.799v.613c0 1.014.788 1.837 1.762 1.837.925 0 1.683-.743 1.756-1.687l.006-.15v-.613h4.698v.613c0 .323.08.628.221.892a10.243 10.243 0 00-4.497 2.24h-5.12v9.728h1.707c.163.86.432 1.68.793 2.45h-3.675c-.608 0-1.108-.483-1.168-1.1l-.006-.125V14.949a2.555 2.555 0 01-.007-.189c.002-1.197.894-2.175 2.022-2.255l.155-.006h1.353zm10.619 6.23c-1.19 0-2.288.387-3.178 1.042l-.201.156 1.438 1.491a3.305 3.305 0 015.097 1.695l.05.178.016.076h-.726a.4.4 0 00-.334.62l.051.064 1.806 1.806a.4.4 0 00.503.051l.063-.051 1.806-1.806a.4.4 0 00-.202-.675l-.08-.008-.796-.001a5.363 5.363 0 00-5.313-4.638zm2.48-6.23c1.181.075 2.109 1.066 2.167 2.283l.003.086a10.217 10.217 0 00-3.658-1.054c.065-.161.108-.335.126-.517l.008-.185v-.613h1.354zm-11.331-1.883c.44.003.8.349.851.793l.006.113v1.347c0 .498-.386.9-.863.9-.44 0-.803-.343-.857-.787l-.006-.113v-1.36c.002-.495.392-.896.869-.893zm8.216.09c.415 0 .758.323.808.742l.007.107v1.278a.84.84 0 01-.713.843l-.102.007a.829.829 0 01-.81-.745l-.005-.107v-1.276c0-.47.365-.85.815-.85z"/></g></svg>