<svg xmlns="http://www.w3.org/2000/svg" width="42" height="42"><g fill="none" fill-rule="evenodd"><circle cx="21" cy="21" r="21" fill="#55D0E0"/><path fill="#FFF" d="M16.402 11.95c-1.525.272-3.045.564-4.576.804-.571.09-.57.094-.57.651V29.42c0 .103.006.206-.002.307-.016.214.087.299.293.333 1.646.273 3.293.536 4.933.84 1.138.21 2.277.408 3.417.61 1.156.203 2.306.436 3.469.607.6.088.6.095.6-.479V10.638c-.843.135-1.62.239-2.389.388-1.72.334-3.45.615-5.175.923zm3.514 5.642c.009.223-.072.295-.294.292-.738-.01-1.477-.005-2.215-.004-.529.002-.484-.062-.485.503-.001.409-.004.818 0 1.227.005.323.05.382.382.395.446.019.893.01 1.34.012.755.005.755.005.755.748 0 .273-.013.546.004.818.015.233-.085.293-.3.28-.563-.03-1.13.023-1.691-.086a2.148 2.148 0 00-.308-.006c-.133-.006-.182.06-.181.184 0 .562.002 1.125-.001 1.688a.19.19 0 00.042.14c.033.04.08.065.131.07a1 1 0 00.25.045c.689-.035 1.362.144 2.05.132.4-.006.408.02.413.403.005.426-.008.852.005 1.278.006.207-.073.27-.271.25-.46-.047-.92-.077-1.38-.128-.779-.088-1.557-.186-2.336-.28-.068-.007-.137-.002-.205-.01-.654-.067-.654-.068-.654-.717v-3.887-4.092c0-.38.005-.373.363-.42.917-.12 1.84-.15 2.762-.208.512-.032 1.02-.1 1.536-.1.229 0 .296.077.288.296-.014.392-.014.785 0 1.177zm14.04-1.32a3.572 3.572 0 00-.007-.41.96.96 0 00-.616-.81c-.18-.079-.372-.056-.56-.056-2.406-.002-4.812-.002-7.218-.001-.086 0-.172.003-.258 0-.157-.004-.204.08-.203.224.005.375.005.75 0 1.126-.002.19.08.283.276.281.187 0 .365-.018.524.143.287.291.601.558.908.83.156.139.19.272.036.435-.052.067-.1.138-.143.212-.228.313-.234.312-.542.07-.223-.177-.41-.386-.757-.354-.26.024-.311.11-.305.34.014.528.05 1.063-.007 1.585-.075.677.13 1.181.682 1.582.247.18.443.426.664.642.09.09.165.188.067.31-.077.097-.182.067-.279.02a4.608 4.608 0 01-.227-.117c-.28-.153-.558-.308-.895-.494v1.286c0 .562-.004 1.126.002 1.689.002.201.113.284.287.222a.636.636 0 00.21-.138c.187-.176.368-.358.55-.54l1.85-1.852c.085-.084.174-.2.306-.118.157.098.08.23.016.356a8.504 8.504 0 01-.553.975c-.565.833-1.137 1.66-1.836 2.39-.116.122-.22.26-.416.277-.13.01-.307-.07-.38.072-.056.11-.033.264-.035.398-.004.306.006.614-.003.92-.006.182.074.246.245.235.103-.006.207 0 .31 0 2.32 0 4.64-.019 6.96.01.812.01 1.37-.31 1.36-1.35-.033-3.463-.012-6.927-.013-10.39zm-1.64 9.592c-.003.473-.038.508-.486.51-.825.005-1.65-.004-2.475.006a.634.634 0 01-.5-.203 12.89 12.89 0 00-.86-.81c-.162-.137-.141-.244-.033-.387.133-.175.257-.356.4-.555a.513.513 0 01.094.057c.378.503.89.635 1.493.562.275-.019.55-.021.824-.006a.167.167 0 00.143-.044.163.163 0 00.048-.14c0-.427 0-.853-.002-1.28 0-.197-.157-.296-.274-.413-.693-.688-1.39-1.37-2.087-2.054l-.22-.215c-.093-.087-.174-.187-.076-.307.092-.113.222-.078.33-.017.356.2.719.394 1.061.617a19.312 19.312 0 012.292 1.722.9.9 0 01.337.757c-.022.733-.003 1.467-.009 2.2zm-.06-6.02c-.203.411-.616.72-.936 1.074-.122.136-.25.172-.397.039a.293.293 0 00-.042-.03c-.568-.357-.572-.365-.13-.84.119-.127.223-.243.218-.437a40.044 40.044 0 01-.001-1.432c.002-.167-.048-.25-.233-.245-.394.009-.79.011-1.184-.002-.202-.006-.312.114-.432.235L27.123 20.2c-.085.084-.165.174-.253.255-.108.099-.212.276-.383.15-.178-.13-.021-.283.04-.407.457-.918 1.077-1.73 1.7-2.54a9.15 9.15 0 01.702-.813.7.7 0 01.546-.225c.807.01 1.614 0 2.421.007.36.003.41.055.42.422.01.426.001.852.001 1.278 0 .051.003.102 0 .153-.018.46.136.965-.061 1.364z"/></g></svg>