<svg xmlns="http://www.w3.org/2000/svg" width="42" height="42"><g fill="none" fill-rule="evenodd"><circle cx="21" cy="21" r="21" fill="#397CED"/><path fill="#FFF" fill-rule="nonzero" d="M21.218 10a10.569 10.569 0 017.36 2.865l-3.14 3.14-.204-.186a5.972 5.972 0 00-4.016-1.464c-2.869 0-5.304 1.934-6.175 4.54a6.59 6.59 0 000 4.21c.87 2.607 3.306 4.541 6.175 4.541 1.487 0 2.758-.382 3.745-1.051a5.099 5.099 0 002.197-3.344h-5.942v-4.237h10.373c.127.74.19 1.487.19 2.237 0 3.347-1.196 6.178-3.272 8.092h-.002c-1.745 1.612-4.113 2.575-6.92 2.652l-.369.005a11 11 0 01-9.828-6.06l-.15-.313a11 11 0 01.15-9.566l.144-.276a11 11 0 019.684-5.784z"/></g></svg>