<svg xmlns="http://www.w3.org/2000/svg" width="42" height="42"><g fill="none" fill-rule="evenodd"><circle cx="21" cy="21" r="21" fill="#2FC6F6"/><path fill="#FFF" d="M26.201 9c.477 0 .935.184 1.273.512.295.287.477.663.517 1.063l.009.173-.001 1.342H27V12H15v16h12v-.079h.999L28 31.253c0 .916-.727 1.668-1.652 1.741L26.2 33H15.798c-.477 0-.935-.184-1.272-.512a1.725 1.725 0 01-.517-1.063L14 31.253V10.748c0-.463.189-.908.526-1.236a1.822 1.822 0 011.094-.503L15.798 9h10.403zm-5.202 21a1 1 0 10.002 2 1 1 0 00-.002-2zm10.424-14.977l.216.007c1.213.095 2.131.576 2.74 1.45-1.087.664-1.624 1.564-1.618 2.757 0 .062-.113 1.99 1.995 2.988-.394 1.197-1.746 3.856-3.317 3.88-.91 0-1.443-.583-2.471-.583-1.06 0-1.636.563-2.451.582-1.559.049-3.053-2.877-3.467-4.07-.31-.908-.466-1.789-.466-2.64 0-2.884 1.918-4.302 3.722-4.331.874 0 1.986.64 2.471.64.46 0 1.714-.764 2.862-.673zm.321-3.452c.027.342.109 1.294-.786 2.339-.643.739-1.423 1.17-2.278 1.106-.072-.89.266-1.68.84-2.32.52-.596 1.435-1.08 2.224-1.125zm-9.869-1.642h-1.75c-.074.003-.13.035-.125.071-.003.027.027.052.073.064l.051.007h1.751c.074-.003.13-.035.125-.071.005-.036-.051-.068-.125-.07z"/></g></svg>