<svg xmlns="http://www.w3.org/2000/svg" width="63" height="12"><g fill="none" fill-rule="evenodd" opacity=".5"><path fill="#FFF" d="M4.066 9.988c1.209 0 1.813-.411 1.813-1.362 0-.808-.604-1.267-1.606-1.267h-1.32v2.63h1.113zM3.78 5.585c.954 0 1.447-.539 1.447-1.22 0-.713-.477-1.267-1.494-1.267h-.78v2.487h.827zM.776 1.324h3.29c2.273 0 3.29 1.315 3.29 2.645 0 .856-.428 1.695-1.239 2.107v.032c1.256.332 1.955 1.346 1.955 2.518 0 1.584-1.24 3.137-3.72 3.137H.777V1.323z"/><path d="M.776 11.921h61.63V0H.776z"/><path fill="#FFF" d="M9.2 11.762h2.147V4.27H9.2v7.492zm-.222-9.805c0-.68.557-1.235 1.304-1.235.731 0 1.287.523 1.287 1.235 0 .697-.556 1.268-1.287 1.268-.747 0-1.304-.555-1.304-1.268zm4.42 7.857v-3.88h-1.384V4.27h1.383V2.512l2.162-.618V4.27h2.273l-.492 1.663h-1.78v3.343c0 .697.222.934.715.934.413 0 .826-.142 1.112-.333l.62 1.458c-.556.38-1.542.586-2.289.586-1.43 0-2.32-.792-2.32-2.107m5.197-5.544h1.813l.238.792c.636-.586 1.24-.982 2.05-.982.366 0 .811.11 1.145.349l-.747 1.774a1.836 1.836 0 00-.954-.285c-.46 0-.826.158-1.399.617v5.228h-2.146V4.27zm5.66 7.492H26.4V4.27h-2.146v7.492zm-.223-9.805c0-.68.556-1.235 1.303-1.235.732 0 1.288.523 1.288 1.235 0 .697-.556 1.268-1.288 1.268-.747 0-1.303-.555-1.303-1.268zM29.786 7.993l-2.75-3.723h2.226l1.685 2.281 1.685-2.281h2.225l-2.782 3.723 2.814 3.769h-2.225l-1.733-2.344-1.749 2.344h-2.225zM41.772 3.456c0-1-.828-1.352-1.709-1.352-1.18 0-2.15.386-3.047.79l-.617-1.843C37.403.594 38.795.085 40.45.085c2.59 0 3.84 1.3 3.84 3.125 0 3.195-4.404 4.09-5.144 6.531h5.303v2.036H36.01c.476-5.705 5.76-6.039 5.76-8.321"/><path fill="#FFF" d="M48.167 7.09h1.057V5.844c0-.896.07-1.932.105-2.16l-2.625 3.459a28.776 28.776 0 011.463-.053zm-4.14.404L49.84.12h1.727v6.97h1.726v1.931h-1.726v2.756h-2.343V9.021h-5.197V7.494zm14.489-.58a3.025 3.025 0 110-6.05 3.025 3.025 0 010 6.05m0-6.914a3.89 3.89 0 10-.001 7.78 3.89 3.89 0 000-7.78"/><path fill="#FFF" d="M58.948 2.16v1.297h1.297v.864h-2.161v-2.16h.864z"/></g></svg>