<svg xmlns="http://www.w3.org/2000/svg" width="42" height="42"><g fill="none" fill-rule="evenodd"><circle cx="21" cy="21" r="21" fill="#FF5752"/><path fill="#FFF" d="M31.298 11.685a1.8 1.8 0 011.795 1.8V27.62a1.8 1.8 0 01-1.795 1.8H24.74l.49 1.843h1.46a.673.673 0 01.587 1.014.673.673 0 01-.588.336H16.246a.673.673 0 01-.588-1.014.673.673 0 01.588-.336h1.458l.491-1.843h-6.558a1.8 1.8 0 01-1.795-1.8V13.485a1.8 1.8 0 011.795-1.8zm0 1.35h-19.66a.45.45 0 00-.45.45v11.678h20.559V13.485a.45.45 0 00-.45-.45zm-7.987 2.819l.181.005c.891.07 1.566.423 2.013 1.065-.799.488-1.193 1.15-1.188 2.026 0 .045-.084 1.462 1.466 2.195-.29.88-1.283 2.833-2.438 2.85-.668 0-1.06-.428-1.815-.428-.78 0-1.202.414-1.801.428-1.145.036-2.243-2.114-2.547-2.99a5.979 5.979 0 01-.342-1.94c0-2.12 1.409-3.16 2.734-3.182.642 0 1.46.47 1.816.47.337 0 1.259-.56 2.102-.494zm.259-2.536c.019.25.08.95-.578 1.718-.472.543-1.045.86-1.674.813-.053-.654.195-1.235.617-1.704.383-.439 1.054-.794 1.635-.827z"/></g></svg>