<svg xmlns="http://www.w3.org/2000/svg" width="42" height="42"><g fill="none" fill-rule="evenodd"><circle cx="21" cy="21" r="21" fill="#FFA900"/><path fill="#FFF" fill-rule="nonzero" d="M23.244 30.561c.038-.236.047-17.33.012-17.703l-8.717 2.077v12.05c-1.5.586-2.993 1.17-4.487 1.752-.01-.005-.017-.008-.025-.014-.007-.004-.015-.012-.016-.018-.004-.045-.01-.09-.01-.136L10 13.974c.067-.083.153-.093.228-.12 4.269-1.6 8.538-3.196 12.807-4.794a.657.657 0 01.446-.035c2.342.68 4.687 1.352 7.03 2.027.035.01.069.022.117.037v20.522c-.673.187-1.34.374-2.008.558-1.7.469-3.4.934-5.098 1.406a.727.727 0 01-.476-.017c-4.198-1.552-8.399-3.098-12.598-4.646a.57.57 0 01-.233-.139c4.343.597 8.686 1.192 13.03 1.788z"/></g></svg>