<svg xmlns="http://www.w3.org/2000/svg" width="42" height="42"><g fill="none" fill-rule="evenodd"><circle cx="21" cy="21" r="21" fill="#F9C500"/><path fill="#FFF" d="M12.453 12.162v1.486a2.047 2.047 0 004.089.153l.005-.153v-1.486h8.879v1.486c0 1.08.835 1.964 1.895 2.042l.152.005c1.08 0 1.964-.835 2.042-1.894l.005-.153v-1.486h3.494V30H8.69V12.162h3.763zm11.093 2.843H21.51c-2.001 0-3.684 1.367-3.684 4.102 0 1.866.68 2.915 1.716 3.513l.144.08-2.374 5.342h1.577l2.16-4.996h1.134v4.996h1.364V15.005zm-1.364 1.185v5.689h-.726c-1.187 0-2.16-.675-2.16-2.772 0-2.092.987-2.862 2.043-2.914l.117-.003h.726zM14.5 10c.672 0 1.217.545 1.217 1.216v2.162a1.216 1.216 0 01-2.433 0v-2.162c0-.671.545-1.216 1.216-1.216zm12.973 0c.672 0 1.217.545 1.217 1.216v2.162a1.216 1.216 0 11-2.433 0v-2.162c0-.671.545-1.216 1.216-1.216z"/></g></svg>