<svg width="175" height="175" viewBox="0 0 175 175" fill="none" xmlns="http://www.w3.org/2000/svg">
  <circle opacity="0.1" cx="87.3819" cy="87.5" r="87.3819" fill="#748C94"/>
  <path fill-rule="evenodd" clip-rule="evenodd" d="M87.382 166.269C130.885 166.269 166.151 131.003 166.151 87.4999C166.151 43.997 130.885 8.73096 87.382 8.73096C43.8791 8.73096 8.61304 43.997 8.61304 87.4999C8.61304 131.003 43.8791 166.269 87.382 166.269ZM87.382 163.262C129.224 163.262 163.144 129.342 163.144 87.4999C163.144 45.6574 129.224 11.7374 87.382 11.7374C45.5395 11.7374 11.6195 45.6574 11.6195 87.4999C11.6195 129.342 45.5395 163.262 87.382 163.262Z" fill="white"/>
  <ellipse opacity="0.1" cx="88.1166" cy="132.164" rx="38.6769" ry="2.92499" fill="#5992A5"/>
  <path d="M111.453 116.362H69.0776C66.5441 116.362 64.4109 114.467 64.1124 111.951L57.7197 58.0649C57.481 56.0522 55.7745 54.5361 53.7476 54.5361H40.5027" stroke="#8C9598" stroke-width="7" stroke-linecap="round" stroke-linejoin="round"/>
  <path d="M61.229 67.3721L123.176 67.3721C124.41 67.3721 125.35 68.4791 125.149 69.697L120.588 97.4024C120.19 99.8178 118.102 101.59 115.654 101.59H67.0253" stroke="#8C9598" stroke-width="7" stroke-linecap="round" stroke-linejoin="round"/>
  <path d="M63.9988 79.2529L121.294 79.2529" stroke="#8C9598" stroke-width="4" stroke-linecap="round" stroke-linejoin="round"/>
  <path d="M80.8384 101.028L80.8384 67.9201" stroke="#8C9598" stroke-width="4" stroke-linecap="round" stroke-linejoin="round"/>
  <path d="M101.341 101.028L101.341 67.9201" stroke="#8C9598" stroke-width="4" stroke-linecap="round" stroke-linejoin="round"/>
  <path d="M64.2634 89.2559L120.106 89.2559" stroke="#8C9598" stroke-width="4" stroke-linecap="round" stroke-linejoin="round"/>
  <path d="M78.0255 123.776C78.0255 127.835 74.7654 131.126 70.7416 131.126C66.7216 131.126 63.4614 127.835 63.4614 123.776C63.4614 119.713 66.7215 116.422 70.7416 116.422C74.7653 116.422 78.0255 119.713 78.0255 123.776Z" fill="#565656"/>
  <path d="M113.629 123.776C113.629 127.835 110.369 131.126 106.345 131.126C102.325 131.126 99.0651 127.835 99.0651 123.776C99.0651 119.713 102.325 116.422 106.345 116.422C110.369 116.422 113.629 119.713 113.629 123.776Z" fill="#565656"/>
  <g opacity="0.12">
    <rect x="94.3375" y="34.1123" width="4.75857" height="15.8562" rx="2.37929" transform="rotate(12.5361 94.3375 34.1123)" fill="#565E66"/>
    <rect x="113.936" y="41.9248" width="4.75857" height="14.1058" rx="2.37929" transform="rotate(42.4307 113.936 41.9248)" fill="#565E66"/>
    <rect width="4.75857" height="14.1058" rx="2.37929" transform="matrix(-0.954456 0.298352 0.298352 0.954456 78.1656 34.7974)" fill="#565E66"/>
  </g>
</svg>
