<svg width="15" height="14" viewBox="0 0 15 14" fill="none" xmlns="http://www.w3.org/2000/svg">
<path fill-rule="evenodd" clip-rule="evenodd" d="M3.27273 0C1.46525 0 0 1.46525 0 3.27273V10.7273C0 12.5347 1.46525 14 3.27273 14H11.7273C13.5347 14 15 12.5347 15 10.7273V3.27273C15 1.46525 13.5347 0 11.7273 0H3.27273ZM1.69558 3.4315C1.69558 2.47278 2.47278 1.69558 3.4315 1.69558H11.5681C12.5268 1.69558 13.304 2.47278 13.304 3.4315V10.5681C13.304 11.5268 12.5268 12.304 11.5681 12.304H3.4315C2.47278 12.304 1.69558 11.5268 1.69558 10.5681V3.4315ZM7.99996 4.09104C7.99996 3.48855 8.48837 3.00013 9.09087 3.00013H10.909C11.5115 3.00013 12 3.48855 12 4.09104V9.90922C12 10.5117 11.5115 11.0001 10.909 11.0001H9.09087C8.48837 11.0001 7.99996 10.5117 7.99996 9.90922V4.09104Z" fill="#11A9D9"/>
</svg>
