<svg viewBox="0 0 68 14" fill="none" xmlns="http://www.w3.org/2000/svg">
	<path fill-rule="evenodd" clip-rule="evenodd" d="M3.95089 11.7305C5.40143 11.7305 6.1267 11.2467 6.1267 10.1305C6.1267 9.18187 5.40143 8.64234 4.19907 8.64234H2.61487V11.7305H3.95089ZM3.60732 6.55878C4.75255 6.55878 5.34417 5.92633 5.34417 5.12652C5.34417 4.28927 4.77168 3.63824 3.55006 3.63824H2.61487V6.55878H3.60732ZM-3.05176e-05 1.55469H3.95089C6.68018 1.55469 7.90181 3.09871 7.90181 4.66144C7.90181 5.66592 7.38646 6.65182 6.41301 7.13561V7.17278C7.92094 7.56339 8.76073 8.75396 8.76073 10.1305C8.76073 11.9909 7.27193 13.8139 4.29446 13.8139H-3.05176e-05V1.55469Z" fill="#A8ADB4"/>
	<path fill-rule="evenodd" clip-rule="evenodd" d="M10.1159 13.8139H12.6926V5.01476H10.1159V13.8139ZM9.8486 2.29876C9.8486 1.49894 10.5166 0.847778 11.4138 0.847778C12.2917 0.847778 12.9597 1.46177 12.9597 2.29876C12.9597 3.11742 12.2917 3.78703 11.4138 3.78703C10.5166 3.78703 9.8486 3.136 9.8486 2.29876V2.29876Z" fill="#A8ADB4"/>
	<path fill-rule="evenodd" clip-rule="evenodd" d="M15.1548 11.5259V6.9683H13.4942V5.01495H15.1548V2.94998L17.7506 2.22449V5.01495H20.48L19.8882 6.9683H17.7506V10.8935C17.7506 11.712 18.0177 11.991 18.6094 11.991C19.1057 11.991 19.6019 11.8235 19.9455 11.6002L20.6899 13.3117C20.0219 13.7582 18.8385 14.0001 17.9415 14.0001C16.2236 14.0001 15.1548 13.0699 15.1548 11.5259" fill="#A8ADB4"/>
	<path fill-rule="evenodd" clip-rule="evenodd" d="M21.3961 5.01487H23.5721L23.8582 5.94503C24.6218 5.2567 25.347 4.79163 26.3204 4.79163C26.7594 4.79163 27.2939 4.92183 27.6946 5.20096L26.7976 7.28451C26.3396 7.00539 25.9005 6.94964 25.6525 6.94964C25.0989 6.94964 24.6599 7.13559 23.9729 7.67513V13.814H21.3961V5.01487Z" fill="#A8ADB4"/>
	<path fill-rule="evenodd" clip-rule="evenodd" d="M28.1912 13.8139H30.768V5.01476H28.1912V13.8139ZM27.9239 2.29876C27.9239 1.49894 28.592 0.847778 29.489 0.847778C30.367 0.847778 31.035 1.46177 31.035 2.29876C31.035 3.11742 30.367 3.78703 29.489 3.78703C28.592 3.78703 27.9239 3.136 27.9239 2.29876V2.29876Z" fill="#A8ADB4"/>
	<path fill-rule="evenodd" clip-rule="evenodd" d="M34.8333 9.38655L31.5312 5.01477H34.2035L36.2266 7.69374L38.2498 5.01477H40.9219L37.5817 9.38655L40.96 13.8139H38.288L36.2076 11.0608L34.108 13.8139H31.436L34.8333 9.38655Z" fill="#A8ADB4"/>
	<path fill-rule="evenodd" clip-rule="evenodd" d="M63.7136 8.68082C62.0989 8.68082 60.79 7.37215 60.79 5.75792C60.79 4.14369 62.0989 2.83513 63.7136 2.83513C65.3282 2.83513 66.6371 4.14369 66.6371 5.75792C66.6371 7.37215 65.3282 8.68082 63.7136 8.68082ZM63.7136 2C61.6377 2 59.9548 3.68245 59.9548 5.75792C59.9548 7.83339 61.6377 9.51595 63.7136 9.51595C65.7895 9.51595 67.4724 7.83339 67.4724 5.75792C67.4724 3.68245 65.7895 2 63.7136 2ZM45.9152 4.01877C46.7664 4.01877 47.5663 4.35801 47.5663 5.32497C47.5663 6.19573 46.7701 6.77292 45.7782 7.49201C44.2581 8.59408 42.2781 10.0294 42 13.3657H50.1537V11.398H45.0299C45.3402 10.3746 46.3174 9.63247 47.3241 8.86783C48.6371 7.87052 50.0005 6.83497 50.0005 5.0874C50.0005 3.32327 48.7919 2.06796 46.2897 2.06796C44.6896 2.06796 43.3448 2.55988 42.3744 3.00102L42.9704 4.78215C43.8384 4.39191 44.7747 4.01877 45.9152 4.01877ZM54.766 8.83643H53.7446C53.3532 8.83643 52.536 8.87032 52.3318 8.88732L54.8682 5.54552C54.834 5.76598 54.766 6.76694 54.766 7.63201V8.83643ZM55.3617 2.10194L49.7444 9.22657V10.7023H54.766V13.3656H57.0301V10.7023H58.6982V8.83643H57.0301V2.10194H55.3617ZM63.2946 6.17549H64.1299H65.3828V5.34036H64.1299V4.08772H63.2946V5.34036V6.17549Z" fill="#A8ADB4"/>
</svg>