<svg xmlns="http://www.w3.org/2000/svg" width="254" height="207" fill="none"><path fill="#E5F9FF" fill-rule="evenodd" d="M182.546 5.932a2.797 2.797 0 1 0 0-5.594 2.797 2.797 0 0 0 0 5.594ZM44.516 30.096a6.064 6.064 0 1 0 0-12.128 6.064 6.064 0 0 0 0 12.128Zm0-3.381a2.683 2.683 0 1 0 0-5.366 2.683 2.683 0 0 0 0 5.366ZM13.71 89.295a8.167 8.167 0 1 0 0-16.335 8.167 8.167 0 0 0 0 16.335Zm0-4.263a3.905 3.905 0 1 0 0-7.81 3.905 3.905 0 0 0 0 7.81Zm207.36 107.032a5.815 5.815 0 1 0 0-11.63 5.815 5.815 0 0 0 0 11.63Zm0-3.026a2.789 2.789 0 1 0 0-5.578 2.789 2.789 0 0 0 0 5.578ZM128.001 207c55.228 0 100-44.772 100-100 0-55.229-44.772-100-100-100-55.229 0-100 44.771-100 100 0 55.228 44.771 100 100 100Zm-100.048-6.99H8.513a6.23 6.23 0 0 1-.495-.019c-4.393-.103-7.924-3.795-7.924-8.334a8.462 8.462 0 0 1 2.38-5.898 8.094 8.094 0 0 1 2.71-1.838 8.928 8.928 0 0 1 2.487-6.905 8.446 8.446 0 0 1 6.058-2.574c2.91.003 5.479 1.499 7.023 3.781a6.813 6.813 0 0 1 2.345-.411c3.632.004 6.615 2.85 6.961 6.489 3.48.78 6.085 3.966 6.082 7.776-.003 4.391-3.469 7.948-7.74 7.946-.15 0-.3-.004-.447-.013ZM233.975 45.363h13.797c.104.006.21.009.316.009 3.032.001 5.492-2.424 5.494-5.418.002-2.597-1.846-4.77-4.316-5.302-.246-2.48-2.363-4.421-4.941-4.424-.583 0-1.143.098-1.664.28a6.09 6.09 0 0 0-4.984-2.578c-1.612 0-3.159.63-4.299 1.755a5.962 5.962 0 0 0-1.765 4.708 5.763 5.763 0 0 0-1.922 1.253 5.649 5.649 0 0 0-1.69 4.021c0 3.096 2.505 5.613 5.623 5.683.116.009.233.013.351.013Z" clip-rule="evenodd"/><g filter="url(#a)" opacity=".5"><rect width="122" height="83" x="77.836" y="79.5" fill="#fff" rx="8.446" shape-rendering="crispEdges"/><path fill="#DFE0E3" d="M99.602 94.895a2.401 2.401 0 0 1 2.407-2.395h66.953a2.401 2.401 0 0 1 2.407 2.395 2.401 2.401 0 0 1-2.407 2.396h-66.953a2.401 2.401 0 0 1-2.407-2.396ZM99.602 106.686a2.4 2.4 0 0 1 2.407-2.395h46.953a2.401 2.401 0 0 1 2.407 2.395 2.402 2.402 0 0 1-2.407 2.396h-46.953a2.402 2.402 0 0 1-2.407-2.396Z"/><rect width="4.144" height="24.297" x="87.836" y="89.669" fill="#BBDE4D" rx="2.072"/><rect width="62" height="16" x="107.836" y="134.5" fill="#E6E7E9" rx="8"/></g><g filter="url(#b)"><rect width="122" height="83" x="57.836" y="59.5" fill="#fff" rx="8.446" shape-rendering="crispEdges"/><path fill="#E6E7E9" d="M79.602 74.895a2.401 2.401 0 0 1 2.406-2.395h66.954a2.401 2.401 0 0 1 2.407 2.395 2.401 2.401 0 0 1-2.407 2.396H82.009a2.401 2.401 0 0 1-2.407-2.396ZM79.602 86.686a2.401 2.401 0 0 1 2.406-2.395h46.954a2.401 2.401 0 0 1 2.407 2.395 2.401 2.401 0 0 1-2.407 2.396H82.009a2.401 2.401 0 0 1-2.407-2.396Z"/><rect width="4.144" height="24.297" x="67.836" y="69.669" fill="#BBDE4D" rx="2.072"/><mask id="c" width="67" height="48" x="113" y="95" maskUnits="userSpaceOnUse" style="mask-type:alpha"><path fill="#D9D9D9" d="M113.836 95.5h66v39a8 8 0 0 1-8 8h-58v-47Z"/></mask><g mask="url(#c)"><path fill="#F4FCFE" d="M184.339 125.629c0 16.058-13.017 29.075-29.075 29.075-16.057 0-29.075-13.017-29.075-29.075s13.018-29.075 29.075-29.075c16.058 0 29.075 13.017 29.075 29.075Z"/></g><path fill="#7FDEFC" fill-rule="evenodd" d="m163.489 116.726 1.383-4.644c.12-.404.019-.842-.267-1.15a1.16 1.16 0 0 0-1.117-.341c-.406.096-.73.405-.851.808l-1.184 3.987a12.547 12.547 0 0 0-11.752.013l-1.19-4a1.166 1.166 0 0 0-1.455-.789 1.184 1.184 0 0 0-.78 1.472l1.389 4.662a13.303 13.303 0 0 0-4.919 10.383c0 7.287 5.747 5.499 12.843 5.499 7.095 0 12.842 1.788 12.842-5.499a13.287 13.287 0 0 0-4.942-10.401Zm-7.912 9.41c-5.065 0-9.172.532-9.172-1.64 0-2.171 4.107-3.934 9.172-3.934s9.178 1.761 9.178 3.934-4.108 1.64-9.178 1.64Zm-4.196-3.948a1.405 1.405 0 0 0-1.13 1.552c.089.738.73 1.279 1.464 1.235a1.4 1.4 0 0 0 1.306-1.403 1.528 1.528 0 0 0-1.64-1.384Zm7.259 1.556c.09.738.732 1.278 1.466 1.232a1.4 1.4 0 0 0 1.305-1.404 1.527 1.527 0 0 0-1.645-1.383 1.404 1.404 0 0 0-1.126 1.555Z" clip-rule="evenodd"/><rect width="44" height="16" x="67.836" y="114.5" fill="#2FC6F6" rx="8"/></g><defs><filter id="a" width="145.08" height="106.08" x="66.296" y="70.23" color-interpolation-filters="sRGB" filterUnits="userSpaceOnUse"><feFlood flood-opacity="0" result="BackgroundImageFix"/><feColorMatrix in="SourceAlpha" result="hardAlpha" values="0 0 0 0 0 0 0 0 0 0 0 0 0 0 0 0 0 0 127 0"/><feOffset dy="2.27"/><feGaussianBlur stdDeviation="5.77"/><feComposite in2="hardAlpha" operator="out"/><feColorMatrix values="0 0 0 0 0.392157 0 0 0 0 0.427451 0 0 0 0 0.482353 0 0 0 0.16 0"/><feBlend in2="BackgroundImageFix" result="effect1_dropShadow_3065_89333"/><feBlend in="SourceGraphic" in2="effect1_dropShadow_3065_89333" result="shape"/></filter><filter id="b" width="145.08" height="106.08" x="46.296" y="50.23" color-interpolation-filters="sRGB" filterUnits="userSpaceOnUse"><feFlood flood-opacity="0" result="BackgroundImageFix"/><feColorMatrix in="SourceAlpha" result="hardAlpha" values="0 0 0 0 0 0 0 0 0 0 0 0 0 0 0 0 0 0 127 0"/><feOffset dy="2.27"/><feGaussianBlur stdDeviation="5.77"/><feComposite in2="hardAlpha" operator="out"/><feColorMatrix values="0 0 0 0 0.392157 0 0 0 0 0.427451 0 0 0 0 0.482353 0 0 0 0.16 0"/><feBlend in2="BackgroundImageFix" result="effect1_dropShadow_3065_89333"/><feBlend in="SourceGraphic" in2="effect1_dropShadow_3065_89333" result="shape"/></filter></defs></svg>