<svg width="28" height="28" viewBox="0 0 28 28" fill="none" xmlns="http://www.w3.org/2000/svg">
	<path fill-rule="evenodd" clip-rule="evenodd" d="M14 0C21.732 0 28 6.26801 28 14C28 21.732 21.732 28 14 28C6.26801 28 0 21.732 0 14C0 6.26801 6.26801 0 14 0Z" fill="#008DBA"/>
	<path d="M14.458 20.7719C10.6282 20.7719 7.875 18.4417 7.875 14.3196V14.3119C7.875 10.4897 10.5128 7.875 14.2965 7.875C17.911 7.875 20.4873 10.1514 20.4873 13.7659V13.7736C20.4873 16.2883 19.3799 17.6572 17.9033 17.6572C16.9343 17.6572 16.2729 17.0804 15.9961 16.3191L15.9576 16.2268H15.8884C15.5193 17.1573 14.7349 17.6111 13.7582 17.6111C12.1663 17.6111 11.0896 16.296 11.0896 14.335V14.3273C11.0896 12.4354 12.197 11.1281 13.7582 11.1281C14.5887 11.1281 15.327 11.5664 15.6193 12.2355H15.6808V11.2819H16.9882V14.9733C16.9882 15.9884 17.3727 16.496 17.9495 16.496C18.7031 16.496 19.2261 15.5654 19.2261 13.7966V13.7889C19.2261 10.8435 17.2112 8.9978 14.2119 8.9978C11.2588 8.9978 9.14392 11.1819 9.14392 14.3273V14.335C9.14392 17.7495 11.3972 19.6337 14.5118 19.6337C15.5116 19.6337 16.5344 19.4875 17.0958 19.2568V20.3796C16.3806 20.6334 15.4501 20.7719 14.458 20.7719ZM14.0197 16.4114C14.9963 16.4114 15.6193 15.6193 15.6193 14.358V14.3427C15.6193 13.0968 14.9963 12.3124 14.035 12.3124C13.0737 12.3124 12.5046 13.066 12.5046 14.3427V14.3503C12.5046 15.6346 13.0814 16.4114 14.0197 16.4114Z" fill="white"/>
</svg>