<?xml version="1.0" encoding="UTF-8"?>
<svg width="36px" height="44px" viewBox="0 0 36 44" version="1.1" xmlns="http://www.w3.org/2000/svg" xmlns:xlink="http://www.w3.org/1999/xlink">
    <title>Path</title>
    <g id="Symbols" stroke="none" stroke-width="1" fill="none" fill-rule="evenodd">
        <g id="Icons-/-Type-1-/-Icon-/-f-04" transform="translate(-12.000000, -8.000000)" fill="#A3B2C5">
            <path d="M30.949409,29.3637369 L30.949409,31.0771467 L29.303102,31.0771467 L29.303102,29.4812341 C28.1774472,29.4308397 27.0854786,29.1284732 26.4470597,28.7587346 L26.9510037,26.7930833 C27.6565254,27.1797997 28.6477052,27.5322911 29.7399433,27.5322911 C30.697437,27.5322911 31.3525643,27.1628219 31.3525643,26.4907168 C31.3525643,25.8522979 30.8152036,25.4491426 29.5720518,25.0290096 C27.774292,24.4242767 26.5478485,23.5842801 26.5478485,21.9544119 C26.5478485,20.4759963 27.5891532,19.316925 29.3871825,18.9638947 L29.3871825,17.3677125 L31.0334895,17.3677125 L31.0334895,18.8463975 C32.1591443,18.8965225 32.9153298,19.1317862 33.4696683,19.400736 L32.982702,21.2990151 C32.5455912,21.1146848 31.7726973,20.7279683 30.5632316,20.7279683 C29.4709935,20.7279683 29.1182326,21.1984958 29.1182326,21.6687537 C29.1182326,22.2233617 29.7062572,22.5761225 31.1345478,23.1137527 C33.1336158,23.8195439 33.9401957,24.7433515 33.9401957,26.2554531 C33.9401957,27.7508465 32.8816437,29.0276844 30.949409,29.3637369 L30.949409,29.3637369 Z M30.0099711,14.4631622 C24.5406959,14.4631622 20.1067967,18.8967919 20.1067967,24.3660671 C20.1067967,29.8356118 24.5406959,34.2692416 30.0099711,34.2692416 C35.4792463,34.2692416 39.912876,29.8356118 39.912876,24.3660671 C39.912876,18.8967919 35.4792463,14.4631622 30.0099711,14.4631622 L30.0099711,14.4631622 Z M38.2962127,42.15125 L21.7237295,42.15125 C20.8344164,42.15125 20.1067967,42.8786003 20.1067967,43.7681828 C20.1067967,44.6572263 20.8344164,45.3848461 21.7237295,45.3848461 L38.2962127,45.3848461 C39.1855258,45.3848461 39.912876,44.6572263 39.912876,43.7681828 C39.912876,42.8786003 39.1855258,42.15125 38.2962127,42.15125 L38.2962127,42.15125 Z M38.2962127,37.3007211 L21.7237295,37.3007211 C20.8344164,37.3007211 20.1067967,38.0283408 20.1067967,38.9176539 C20.1067967,39.8069669 20.8344164,40.5343172 21.7237295,40.5343172 L38.2962127,40.5343172 C39.1855258,40.5343172 39.912876,39.8069669 39.912876,38.9176539 C39.912876,38.0283408 39.1855258,37.3007211 38.2962127,37.3007211 L38.2962127,37.3007211 Z M44.6855227,48.6685671 C44.6855227,48.7801355 44.5949744,48.8706837 44.4834061,48.8706837 L15.5165939,48.8706837 C15.4050256,48.8706837 15.3144773,48.7801355 15.3144773,48.6685671 L15.3144773,11.3311634 C15.3144773,11.219595 15.4050256,11.1290468 15.5165939,11.1290468 L44.4834061,11.1290468 C44.5949744,11.1290468 44.6855227,11.219595 44.6855227,11.3311634 L44.6855227,48.6685671 Z M45.4271558,7.99758692 L14.5731136,7.99758692 C13.2520795,7.99758692 12.1708905,9.07850649 12.1708905,10.3995406 L12.1708905,49.6001899 C12.1708905,50.921224 13.2520795,52.0024131 14.5731136,52.0024131 L45.4271558,52.0024131 C46.7481899,52.0024131 47.8291095,50.921224 47.8291095,49.6001899 L47.8291095,10.3995406 C47.8291095,9.07850649 46.7481899,7.99758692 45.4271558,7.99758692 L45.4271558,7.99758692 Z" id="Icon"></path>
        </g>
    </g>
</svg>