<?xml version="1.0" encoding="UTF-8"?>
<svg width="49px" height="34px" viewBox="0 0 49 34" version="1.1" xmlns="http://www.w3.org/2000/svg" xmlns:xlink="http://www.w3.org/1999/xlink">
    <title>Icon 2</title>
    <g id="Symbols" stroke="none" stroke-width="1" fill="none" fill-rule="evenodd">
        <g id="Icons-/-Type-1-/-Icon-/-f-03" transform="translate(-6.000000, -13.000000)" fill="#A3B2C5">
            <g id="Icon-2" transform="translate(6.070563, 13.000000)">
                <path d="M5.96268839,18.6264969 C5.68062029,19.0817691 5.13778001,19.100415 4.81273117,18.6736093 C4.66510473,18.4797789 4.56601622,18.2492139 4.42082184,18.0531752 C3.18101213,16.3793388 1.936769,14.7087563 0.691020434,13.0393578 C0.462602316,12.7332229 0.221318352,12.4366719 1.0658141e-14,12.1535485 C2.74332885,8.08633805 5.46649354,4.04908037 8.19763273,0 C8.50180084,0.146843647 8.82262625,0.307711161 9.14834002,0.458012569 C11.3277463,1.46367726 13.5697705,2.27868971 15.9520993,2.6528521 C17.4059983,2.8812459 18.0589766,2.87346314 19.8531455,2.64629457 C19.7359106,2.82889433 19.6759826,3.00804747 19.5515781,3.10043182 C19.1295678,3.41371302 18.6869538,3.69966543 18.2471331,3.98840525 C18.1263754,4.06769732 17.9838215,4.11304396 17.8585719,4.18636076 C17.1831147,4.58188257 16.4353498,4.51371341 15.7071778,4.49445905 C13.3436348,4.43195285 11.1172093,3.85838678 9.07771614,2.63114379 C9.05880503,2.61976264 9.03615712,2.61473667 8.97748205,2.59232212 C6.87361137,5.77065303 4.76629022,8.9541577 2.65897786,12.1377076 L2.55449452,12.0881259 C2.60293823,12.153948 2.65007615,12.2207744 2.70003408,12.2854578 C3.79105386,13.6984256 4.87134105,15.1189208 5.75773083,16.6743907 C6.0038364,17.1062689 6.19999511,17.5582221 6.14589112,18.0680153 C6.12552991,18.2596005 6.06348861,18.4638374 5.96268839,18.6264969 Z M39.5079755,19.1964855 C40.2074783,19.1252004 40.9105682,19.0535465 41.6374753,18.9794207 C41.9515278,19.7195908 42.0392455,20.5130435 41.893193,21.3220099 C41.6411024,22.7177068 40.8935489,23.7790133 39.6542782,24.4762128 C39.4715267,24.5790005 39.4124593,24.689221 39.3888543,24.892835 C39.1748344,26.7411471 38.1956848,28.0287193 36.4635953,28.6939858 C36.0820217,28.8405335 35.8991541,29.0148767 35.7641579,29.3925433 C35.3102349,30.6623134 34.4193505,31.5436833 33.1630008,32.02102 C32.1901892,32.3906598 31.1944482,32.39499 30.2120363,32.0236324 C30.0680536,31.9692045 29.9928051,31.9773581 29.8977956,32.1145473 C29.1635003,33.1755282 28.1562159,33.7930169 26.8716248,33.9621771 C25.8419153,34.0977416 24.9057767,33.8679134 24.0493798,33.2884206 C23.3571308,32.8200396 22.6633801,32.3538269 21.9550611,31.8763738 C22.2991933,31.3144734 22.6378685,30.7614202 22.9920497,30.1831661 C23.7186306,30.6734868 24.4258157,31.1335233 25.114719,31.619441 C26.3678407,32.5034055 28.0890983,31.807269 28.5384615,30.432235 C28.4747896,30.38701 28.4083772,30.3375801 28.3398616,30.2913264 C26.7177535,29.1968472 25.0963271,28.1015319 23.4724523,27.0097883 C23.2054218,26.8303023 23.0444413,26.6027618 23.0663016,26.2692735 C23.0893344,25.9176858 23.2810368,25.6859937 23.5971716,25.5621103 C23.8761223,25.4527723 24.1332741,25.5353458 24.3731363,25.6974098 C25.7465751,26.6252983 27.1209518,27.551738 28.4950912,28.478646 C29.2520844,28.989323 30.0183957,29.4868841 30.7627499,30.0153095 C31.2241512,30.3429054 31.7272964,30.3755987 32.2248503,30.2349793 C33.1826335,29.9641851 33.7793656,29.3147207 34.0168084,28.339811 C34.0646757,28.1432544 34.0229433,28.0270163 33.8448535,27.9074038 C30.8377105,25.8886035 27.8361475,23.8615888 24.8334832,21.8361484 C24.4607718,21.5847513 24.309778,21.2688672 24.3902081,20.9138152 C24.5090788,20.388759 25.0927404,20.1339295 25.5576154,20.4053125 C25.6303685,20.4477873 25.6993472,20.496906 25.7693028,20.5440524 C28.8166138,22.5993717 31.868558,24.6478803 34.9045457,26.7197541 C35.2484417,26.9544247 35.5427362,26.9633583 35.8802494,26.8070815 C36.8386961,26.3635412 37.3538486,25.612198 37.4196388,24.5563423 C37.4298688,24.3929942 37.3704787,24.2790627 37.2230711,24.1799885 C33.7338598,21.8329658 30.2483438,19.480581 26.7627097,17.1283129 C26.191398,16.742762 26.2169339,15.9918857 26.8134227,15.7029007 C27.0823907,15.5726125 27.3464297,15.6039853 27.5952057,15.7725723 C28.1542728,16.1513566 28.7144963,16.5283681 29.2745014,16.9057035 C32.1699631,18.8567142 35.0676008,20.8044406 37.9567631,22.7647906 C38.1734896,22.9118386 38.3366539,22.9092987 38.556104,22.8066011 C39.8622494,22.1952352 40.4233362,20.5095851 39.5479981,19.268213 C39.5305053,19.2433753 39.51808,19.2149258 39.5079755,19.1964855 Z M19.947229,25.7810825 C21.4821751,25.9693777 22.4619141,27.5777192 21.8481975,28.9380748 C21.688807,29.2913541 21.4585798,29.6134659 21.2531885,29.9451036 C20.8339619,30.6218877 20.4483351,31.3240842 19.9777929,31.9634672 C19.3182749,32.8596702 18.0294085,33.0345866 17.1110997,32.4150617 C15.4833043,31.3169035 13.9617577,30.0821857 12.4854394,28.7915352 C10.7647698,27.2872513 9.05589413,25.769558 7.34263012,24.2567986 C6.87524151,23.8441048 6.47217863,23.3791304 6.25048137,22.7871053 C6.03315509,22.2067079 6.04734868,21.6378302 6.39289947,21.0991544 C6.81084265,20.4476211 7.22983038,19.7966353 7.63939458,19.1398823 C8.19634816,18.2466824 9.48412433,17.8760011 10.5200317,18.3191411 C11.0814201,18.5592866 11.4531914,18.9076821 11.8315402,19.5642905 C12.3418784,19.1086457 12.937056,18.9285049 13.5907914,18.9610556 C14.0807342,18.9854328 14.5334433,19.1553758 14.9215895,19.4564959 C15.7040323,20.0635917 16.1868403,21.099776 15.6657013,22.3418026 C16.7820181,21.952946 17.7775639,22.1199105 18.5486121,23.0255317 C19.3280051,23.9410229 19.3176159,24.9334334 18.6163188,25.9824651 C19.0869405,25.7841317 19.508277,25.7272804 19.947229,25.7810825 Z M47.7940761,12.9445395 C47.9157102,13.1306167 47.8455697,13.2511982 47.7515416,13.3956079 C46.8434638,14.7893998 45.603171,15.7923961 44.1042915,16.4872883 C43.2423727,16.8868765 42.3433464,17.1749564 41.4101068,17.3724489 C40.9315443,17.4244755 40.453579,17.4829529 39.9741044,17.5232893 C39.8704524,17.5320388 39.7471403,17.499251 39.6567579,17.4454742 C38.5242529,16.7720356 37.3965872,16.0904326 36.2667705,15.4124843 C35.137161,14.7346365 34.0061754,14.0591201 32.8764478,13.381389 C31.8978485,12.7943631 30.920953,12.2045199 29.9419983,11.6180791 C28.8051548,10.9370405 27.6667341,10.2587477 26.5295163,9.57843857 C26.2006403,9.38170429 25.8782384,9.17339205 25.5420644,8.99027211 C25.4609132,8.94609936 25.3198826,8.94522811 25.2347551,8.98508793 C23.9021828,9.60890824 22.594839,10.291571 21.2399295,10.8612873 C19.6962008,11.5102978 18.098625,11.6617271 16.4994031,11.0023163 C15.6789518,10.6639736 15.0370864,10.0964415 14.5092275,9.39389096 C14.0389468,8.76795795 14.4230978,7.95464454 14.9535015,7.68427473 C16.8161807,6.73474528 18.5869358,5.62915352 20.3727543,4.54844948 C21.02229,4.15543334 21.6610106,3.74345826 22.3220568,3.37104832 C22.9783745,3.00133995 23.6941691,2.78461967 24.4409628,2.68176765 C24.5587424,2.6655813 24.6842301,2.68012163 24.8029905,2.69962836 C27.5760052,3.15583136 30.3483177,3.61662698 33.1222304,4.0670735 C33.2598848,4.08942765 33.4279109,4.05953419 33.5539395,3.99746434 C35.2894343,3.14339257 37.0205516,2.28055579 38.7506421,1.41557326 C38.8848795,1.34843666 38.9717759,1.3321555 39.1035023,1.44877203 C40.1261932,2.3536052 40.9903944,3.40013344 41.8323164,4.46694062 C43.9757319,7.18297622 45.9030526,10.0508253 47.7940761,12.9445395 Z" id="Icon"></path>
            </g>
        </g>
    </g>
</svg>