<svg xmlns="http://www.w3.org/2000/svg" width="63" height="30" viewBox="0 0 63 30">
  <path fill="#FFFFFF" fill-rule="evenodd" d="M0,0 L63,0 L63,30 L0,30 L0,0 Z M0,11 L2,11 L2,20 L0,20 L0,11 Z M6,10 L8,10 L8,21 L6,21 L6,10 Z M9,11 L11,11 L11,20 L9,20 L9,11 Z M15,12 L17,12 L17,19 L15,19 L15,12 Z M30,11 L32,11 L32,20 L30,20 L30,11 Z M60,10 L62,10 L62,21 L60,21 L60,10 Z M57,11 L59,11 L59,20 L57,20 L57,11 Z M54,11 L56,11 L56,20 L54,20 L54,11 Z M27,11 L29,11 L29,20 L27,20 L27,11 Z M39,11 L41,11 L41,20 L39,20 L39,11 Z M45,11 L47,11 L47,20 L45,20 L45,11 Z M24,10 L26,10 L26,21 L24,21 L24,10 Z M36,10 L38,10 L38,21 L36,21 L36,10 Z M12,13 L14,13 L14,18 L12,18 L12,13 Z M21,13 L23,13 L23,18 L21,18 L21,13 Z M42,13 L44,13 L44,18 L42,18 L42,13 Z M48,13 L50,13 L50,18 L48,18 L48,13 Z M18,14 L20,14 L20,17 L18,17 L18,14 Z M51,14 L53,14 L53,17 L51,17 L51,14 Z M3,7 L5,7 L5,24 L3,24 L3,7 Z M33,7 L35,7 L35,24 L33,24 L33,7 Z"/>
</svg>
