<?xml version="1.0" encoding="UTF-8"?>
<svg width="33px" height="25px" viewBox="0 0 33 25" version="1.1" xmlns="http://www.w3.org/2000/svg" xmlns:xlink="http://www.w3.org/1999/xlink">
    <g stroke="none" stroke-width="1" fill="none" fill-rule="evenodd">
        <path d="M16.5,-1.56319402e-13 C23.29322,-1.56319402e-13 28.8002128,5.50699286 28.8002128,12.3002128 C28.8002128,19.0934328 23.29322,24.6004256 16.5,24.6004256 C9.70678004,24.6004256 4.19978718,19.0934328 4.19978718,12.3002128 C4.19978718,5.50699286 9.70678004,-1.56319402e-13 16.5,-1.56319402e-13 Z M7.78723346,0.786850624 C4.30901573,3.42310325 2.06231466,7.59928546 2.06231466,12.3002128 C2.06231466,16.8691764 4.18464803,20.9424424 7.49724717,23.5879434 L4.46458629,23.5873984 C1.69576347,20.6362061 0,16.6662428 0,12.3002128 C0,7.82151444 1.78441338,3.75958814 4.68107339,0.786600673 L7.78723346,0.786850624 Z M28.3189266,0.786600673 C31.2155866,3.75958814 33,7.82151444 33,12.3002128 C33,16.6662428 31.3042365,20.6362061 28.5354137,23.5873984 L25.5027528,23.5879434 C28.815352,20.9424424 30.9376853,16.8691764 30.9376853,12.3002128 C30.9376853,7.59928546 28.6909843,3.42310325 25.2127665,0.786850624 L28.3189266,0.786600673 Z M22.513278,5.05641505 L10.486722,5.05641505 C10.0195115,5.05641505 9.63745475,5.42597696 9.63745475,5.87790779 L9.63745475,18.7225178 C9.63745475,19.1744487 10.0195115,19.5440106 10.486722,19.5440106 L22.513278,19.5440106 C22.9804885,19.5440106 23.3625452,19.1744487 23.3625452,18.7225178 L23.3625452,5.87790779 C23.3625452,5.42597696 22.9804885,5.05641505 22.513278,5.05641505 Z M17.3467127,14.0758123 C17.7736171,14.0758123 18.1227477,14.4135248 18.1227477,14.8270168 L18.1227477,14.8654557 C18.1227477,15.2789477 17.7736171,15.6166603 17.3467127,15.6166603 L12.4639934,15.6166603 C12.037089,15.6166603 11.686823,15.2789477 11.686823,14.8654557 L11.686823,14.8270168 C11.686823,14.4135248 12.037089,14.0758123 12.4639934,14.0758123 L17.3467127,14.0758123 Z M17.3467127,10.7261427 C17.7736171,10.7261427 18.1227477,11.0638553 18.1227477,11.4773473 L18.1227477,11.5163352 C18.1227477,11.9298272 17.7736171,12.2675398 17.3467127,12.2675398 L12.4639934,12.2675398 C12.037089,12.2675398 11.686823,11.9298272 11.686823,11.5163352 L11.686823,11.4773473 C11.686823,11.0638553 12.037089,10.7261427 12.4639934,10.7261427 L17.3467127,10.7261427 Z M18.7017936,7.37702221 C19.1292657,7.37702221 19.4783963,7.7147348 19.4783963,8.1282268 L19.4783963,8.16666563 C19.4783963,8.58015763 19.1292657,8.91787022 18.7017936,8.91787022 L12.4639934,8.91787022 C12.037089,8.91787022 11.6873907,8.58015763 11.6873907,8.16666563 L11.6873907,8.1282268 C11.6873907,7.7147348 12.037089,7.37702221 12.4639934,7.37702221 L18.7017936,7.37702221 Z" id="Combined-Shape" fill="#2FC6F6"></path>
    </g>
</svg>