<svg xmlns="http://www.w3.org/2000/svg" width="36" height="36" viewBox="0 0 36 36">
  <path fill="#2FC6F6" fill-rule="evenodd" d="M5.92011992,7.67130433 C5.24880933,7.67130433 4.70460573,8.21550732 4.70460573,8.88681912 L4.70460573,23.4047605 C4.70460573,24.0760286 5.24880933,24.6202753 5.92011992,24.6202753 L29.9639187,24.6202753 C30.6352475,24.6202753 31.1794335,24.0760286 31.1794335,23.4047605 L31.1794335,8.88681912 C31.1794335,8.21550914 30.6352475,7.67130433 29.9639187,7.67130433 L5.92011992,7.67130433 Z M7.37777986,21.2632617 L7.37777986,14.0783402 C9.50411028,14.0766263 11.2272909,12.352376 11.2272909,10.2256445 C11.2272909,10.1943511 11.2269262,10.1631488 11.2261969,10.1320377 L24.8455341,10.1320377 C24.8448048,10.1631488 24.8444401,10.1943511 24.8444401,10.2256445 C24.8444401,12.2921412 26.4714067,13.9786376 28.5143224,14.0740798 L28.5143224,21.2632617 C28.5143224,21.5988653 28.2422294,21.8710191 27.906565,21.8710191 L7.98553725,21.8710191 C7.649885,21.8710191 7.37777986,21.5988653 7.37777986,21.2632617 Z M4.70460573,25.9355231 L4.70460573,28.8725186 C4.70460573,29.5437867 5.24880933,30.6914201 5.92011992,30.6914201 L29.9639187,30.6914201 C30.6352475,30.6914201 31.1794335,30.1471734 31.1794335,29.4759053 L31.1794335,25.9355231 L28.5138393,25.9355231 L28.5138393,27.3704383 C28.5138393,27.706042 28.2417463,27.9781957 27.9060819,27.9781957 L8.0514501,27.9781957 C7.71579785,27.9781957 7.44369271,27.706042 7.44369271,27.3704383 L7.44369271,25.9355231 L4.70460573,25.9355231 Z M21.7079573,16.1305062 C21.7079573,18.1783149 20.0478334,19.8384387 18.0000248,19.8384387 C15.9521599,19.8384387 14.292036,18.1783149 14.292036,16.1305062 C14.292036,14.0826582 15.9521599,12.4225569 18.0000248,12.4225569 C20.0478334,12.4225569 21.7079573,14.0826582 21.7079573,16.1305062 Z"/>
</svg>
