<svg xmlns="http://www.w3.org/2000/svg" width="36" height="36" viewBox="0 0 36 36">
  <path fill="#2FC6F6" fill-rule="evenodd" d="M10.4396026,0.562595164 C11.0325712,2.32204501 12.6960727,3.58907146 14.6555041,3.58907146 C16.6149354,3.58907146 18.2784369,2.32204501 18.8714055,0.562595164 L21.7508853,0.562595164 C22.1010654,0.562595164 22.4115481,0.73255983 22.6043395,0.994494306 L28.4624969,6.85280663 C28.6279249,7.01823462 28.6279249,7.28644637 28.4624969,7.45187436 L25.0178575,10.8965138 C24.8524295,11.0619418 24.5842177,11.0619418 24.4187897,10.8965138 L22.8097145,9.28737282 L22.8098974,22.5900477 C22.8098974,22.9409735 22.5254159,23.225455 22.1744901,23.225455 L7.13651796,23.225455 C6.78559222,23.225455 6.50111069,22.9409735 6.50111069,22.5900477 L6.50092778,9.28758463 L4.89221836,10.8965138 C4.72679038,11.0619418 4.45857862,11.0619418 4.29315064,10.8965138 L0.848511226,7.45187436 C0.683083242,7.28644637 0.683083242,7.01823462 0.848511226,6.85280663 L6.70619514,0.995138064 C6.89895141,0.732838346 7.20965594,0.562595164 7.56012281,0.562595164 L10.4396026,0.562595164 Z M12.3441325,11.3026902 L9.70298586,14.3501813 L9.70298586,17.3980972 L19.6080222,17.3980972 L19.6080222,16.6362245 L16.9668756,13.5883085 L15.645934,15.1124789 L12.3441325,11.3026902 Z" transform="translate(3 6.5)"/>
</svg>
