<?xml version="1.0" encoding="UTF-8"?>
<svg width="34px" height="32px" viewBox="0 0 34 32" version="1.1" xmlns="http://www.w3.org/2000/svg" xmlns:xlink="http://www.w3.org/1999/xlink">
    <g stroke="none" stroke-width="1" fill-rule="evenodd"  transform="translate(0, -3)" fill="#2FC6F6">
            <path d="M13.7537703,28.3874483 C15.5100659,28.3874483 16.9331038,29.8104443 16.9331038,31.5667818 C16.9331038,33.3214463 15.5101078,34.7444841 13.7537703,34.7444841 C11.9991057,34.7444841 10.5760679,33.3214881 10.5760679,31.5667818 C10.5760679,29.8104861 11.9990639,28.3874483 13.7537703,28.3874483 Z M24.9631626,28.3874483 C26.7194583,28.3874483 28.1424961,29.8104443 28.1424961,31.5667818 C28.1424961,33.3214463 26.7195001,34.7444841 24.9631626,34.7444841 C23.2084981,34.7444841 21.7854603,33.3214881 21.7854603,31.5667818 C21.7854603,29.8104861 23.2084563,28.3874483 24.9631626,28.3874483 Z M5.85543425,6.55537805 C6.38929542,6.55838941 6.85632922,6.89689192 7.03167745,7.39100955 L7.06930759,7.51767684 L7.98911267,11.4910072 L8.027,11.490378 L8.503,13.650378 L8.4717538,13.6508293 L10.8962723,24.6816586 L29.1145343,24.6816586 L30.9045715,13.6508293 L29.459,13.650378 L29.013,11.452378 L31.9998873,11.4483462 C32.3838365,11.4499774 32.7449077,11.6280453 32.9801707,11.9286591 C33.1874542,12.1931418 33.2784097,12.5264011 33.2388062,12.8551276 L33.2137983,12.9955192 L30.8709554,26.0037847 C30.7472964,26.5225774 30.3104196,26.9007618 29.7903348,26.9584441 L29.6587132,26.9660835 L10.121369,26.9660835 C9.58901356,26.9630721 9.12070216,26.6245696 8.94643471,26.130452 L8.90912686,26.0037847 L4.85248201,9.06484987 L1,9.06484987 C0.487164161,9.06484987 0.0644928393,8.67880968 0.00672773132,8.18147099 L-1.21147536e-12,8.06484987 L-1.21147536e-12,7.55537805 C-1.21153817e-12,7.04254221 0.38604019,6.61987089 0.883378875,6.56210578 L1,6.55537805 L5.85543425,6.55537805 Z M26.0277102,4.60784215 L28.7702286,17.5103765 C29.0032518,18.6066647 28.3034373,19.6842845 27.2071492,19.9173077 L14.3046148,22.6598261 C13.2083266,22.8928493 12.1307068,22.1930348 11.8976836,21.0967467 L9.15516523,8.1942123 C8.92214199,7.09792415 9.62195647,6.02030435 10.7182446,5.78728111 L23.620779,3.04476276 C24.7170672,2.81173952 25.794687,3.511554 26.0277102,4.60784215 Z M15.669788,11.9711666 L13.0821154,16.6559729 L13.9231158,20.6125688 L26.781156,17.879508 L26.5709352,16.8904969 L22.301379,13.6626631 L21.0071819,16.0057194 L15.669788,11.9711666 Z M21.260942,6.26074503 C19.9951097,6.52980598 19.1870669,7.77408276 19.4561279,9.039915 C19.7251888,10.3057472 20.9694656,11.11379 22.2352979,10.8447291 C23.5011301,10.5756681 24.3091729,9.33139136 24.0401119,8.06555912 C23.771051,6.79972687 22.5267742,5.99168409 21.260942,6.26074503 Z" id="Combined-Shape"></path>
    </g>
</svg>