<svg xmlns="http://www.w3.org/2000/svg" width="36" height="36" viewBox="0 0 36 36">
  <defs>
    <filter id="a">
      <feColorMatrix in="SourceGraphic" values="0 0 0 0 0.184314 0 0 0 0 0.776471 0 0 0 0 0.964706 0 0 0 1.000000 0"/>
    </filter>
  </defs>
  <g fill="none" fill-rule="evenodd" filter="url(#a)">
    <g transform="translate(3.5 2.028)">
      <path fill="#D8D8D8" d="M14.740413,25.46673 C16.4350608,25.46673 19.199716,25.9189692 19.2621131,24.1798265 C19.3959331,20.4499675 23.010171,16.7976063 23.010171,13.8889987 C23.010171,9.28574336 19.2784952,5.55406758 14.6752398,5.55406758 C10.0719845,5.55406758 6.34030869,9.28574336 6.34030869,13.8889987 C6.34030869,16.8215731 9.81325319,20.3769515 10.144345,24.2164692 C10.2909721,25.916835 13.069732,25.46673 14.740413,25.46673 Z"/>
      <rect width="7.836" height="2.28" x="10.971" y="26.641" fill="#D8D8D8" rx="1.14"/>
      <rect width="4.132" height="1.496" x="12.823" y="29.989" fill="#D8D8D8" rx=".748"/>
      <path fill="#D8D8D8" d="M22.7927258,2.45621697 C23.343548,2.45621697 23.7900777,2.90274664 23.7900777,3.4535689 L23.7900777,5.44827276 C23.7900777,5.99909502 23.343548,6.44562469 22.7927258,6.44562469 C22.2419035,6.44562469 21.7953738,5.99909502 21.7953738,5.44827276 L21.7953738,3.4535689 C21.7953738,2.90274664 22.2419035,2.45621697 22.7927258,2.45621697 Z" transform="rotate(42 22.793 4.45)"/>
      <path fill="#D8D8D8" d="M14.6752398,0.0234189078 C15.2260621,0.0234189078 15.6725918,0.469948576 15.6725918,1.02077084 L15.6725918,3.0154747 C15.6725918,3.56629696 15.2260621,4.01282663 14.6752398,4.01282663 C14.1244176,4.01282663 13.6778879,3.56629696 13.6778879,3.0154747 L13.6778879,1.02077084 C13.6778879,0.469948576 14.1244176,0.0234189078 14.6752398,0.0234189078 Z"/>
      <path fill="#D8D8D8" d="M6.21387276,2.61485357 C6.76469502,2.61485357 7.21122469,3.06138324 7.21122469,3.6122055 L7.21122469,5.60690936 C7.21122469,6.15773162 6.76469502,6.60426129 6.21387276,6.60426129 C5.6630505,6.60426129 5.21652083,6.15773162 5.21652083,5.60690936 L5.21652083,3.6122055 C5.21652083,3.06138324 5.6630505,2.61485357 6.21387276,2.61485357 Z" transform="rotate(-45 6.214 4.61)"/>
      <path fill="#D8D8D8" d="M26.1119604,8.91231506 C26.6627827,8.91231506 27.1093124,9.35884473 27.1093124,9.90966699 L27.1093124,11.9043708 C27.1093124,12.4551931 26.6627827,12.9017228 26.1119604,12.9017228 C25.5611382,12.9017228 25.1146085,12.4551931 25.1146085,11.9043708 L25.1146085,9.90966699 C25.1146085,9.35884473 25.5611382,8.91231506 26.1119604,8.91231506 Z" transform="rotate(75 26.112 10.907)"/>
      <path fill="#D8D8D8" d="M2.48064611,9.03437761 C3.03146837,9.03437761 3.47799804,9.48090728 3.47799804,10.0317295 L3.47799804,12.0264334 C3.47799804,12.5772557 3.03146837,13.0237853 2.48064611,13.0237853 C1.92982385,13.0237853 1.48329418,12.5772557 1.48329418,12.0264334 L1.48329418,10.0317295 C1.48329418,9.48090728 1.92982385,9.03437761 2.48064611,9.03437761 Z" transform="rotate(-75 2.48 11.03)"/>
    </g>
  </g>
</svg>
