<?xml version="1.0" encoding="UTF-8"?>
<svg width="23px" height="26px" viewBox="0 0 23 26" version="1.1" xmlns="http://www.w3.org/2000/svg" xmlns:xlink="http://www.w3.org/1999/xlink">
    <g stroke="none" stroke-width="1" fill-rule="evenodd" transform="translate(-7, -5)" fill="#2FC6F6">
          <path d="M27.8063591,5 C28.5613361,5 29.1787109,5.64054866 29.1787109,6.42386447 L29.1787109,6.42386447 L29.1787109,28.6869754 C29.1787109,29.4702912 28.5613361,30.1108398 27.8063591,30.1108398 L27.8063591,30.1108398 L8.37235189,30.1108398 C7.61737488,30.1108398 7,29.4702912 7,28.6869754 L7,28.6869754 L7,6.42386447 C7,5.64054866 7.61737488,5 8.37235189,5 L8.37235189,5 Z M17.3312988,24.2719727 L10.9213867,24.2719727 C10.369102,24.2719727 9.92138672,24.7196879 9.92138672,25.2719727 C9.92138672,25.8242574 10.369102,26.2719727 10.9213867,26.2719727 L10.9213867,26.2719727 L17.3312988,26.2719727 C17.8835836,26.2719727 18.3312988,25.8242574 18.3312988,25.2719727 C18.3312988,24.7196879 17.8835836,24.2719727 17.3312988,24.2719727 L17.3312988,24.2719727 Z M22.4475098,20.2553711 L10.9213867,20.2553711 C10.369102,20.2553711 9.92138672,20.7030863 9.92138672,21.2553711 C9.92138672,21.8076558 10.369102,22.2553711 10.9213867,22.2553711 L10.9213867,22.2553711 L22.4475098,22.2553711 C22.9997945,22.2553711 23.4475098,21.8076558 23.4475098,21.2553711 C23.4475098,20.7030863 22.9997945,20.2553711 22.4475098,20.2553711 L22.4475098,20.2553711 Z M15.4525531,8.38321581 C15.3380958,8.44318608 15.2345202,8.52512537 15.1419121,8.62877557 C15.0437773,8.74891687 15.0300893,8.81447978 15.1009343,8.82526353 C15.4280122,8.87433533 15.6595612,8.99172333 15.7958389,9.17731282 L15.8449492,9.27565718 C15.8831494,9.34661196 15.9212922,9.47223117 15.9594637,9.65234275 C15.9975779,9.83245432 16.0221761,10.0316956 16.0330004,10.2499518 C16.0602044,10.6485203 16.0602044,10.9896998 16.0330004,11.273519 C16.0057105,11.5574528 15.9799383,11.778491 15.9553402,11.9368056 C15.930742,12.0951203 15.8939737,12.2234067 15.8449492,12.3216364 C15.7958389,12.4198947 15.7631654,12.479951 15.7467858,12.501748 C15.7304347,12.5235449 15.7168041,12.5372827 15.7059798,12.5426746 C15.6351348,12.5698634 15.561455,12.5837159 15.4851979,12.5837159 C15.4088262,12.5837159 15.3162181,12.5454566 15.2072303,12.4689952 C15.0982712,12.3925338 14.9851884,12.287507 14.8679822,12.1537426 C14.7507759,12.0199495 14.6185931,11.8329834 14.4713766,11.5928155 C14.3242745,11.3526476 14.1716458,11.0687998 14.0135763,10.7412721 L13.8827967,10.5037428 C13.8010415,10.3509347 13.6893619,10.1284338 13.5476434,9.83644086 C13.405839,9.54433316 13.2805002,9.26177597 13.1715411,8.98882663 C13.127986,8.87419192 13.0625533,8.78691812 12.9753573,8.72686181 L12.9344368,8.70222553 C12.9072328,8.68042858 12.8635632,8.65728367 12.8036571,8.63261871 C12.7436652,8.60798243 12.6810673,8.59031544 12.6156059,8.57944565 L10.3754572,8.59573599 C10.1465427,8.59573599 9.99122225,8.64767581 9.90943845,8.75141205 L9.87670775,8.80048385 C9.86035671,8.82781606 9.85210961,8.87146731 9.85210961,8.9315523 C9.85210961,8.99160861 9.86846064,9.06531669 9.90119134,9.1525905 C10.228212,9.9223667 10.5838398,10.6647533 10.9680747,11.3798651 C11.3523097,12.0949769 11.6862029,12.6710184 11.969554,13.1074735 C12.2529624,13.5442441 12.5418402,13.9564644 12.8361874,14.3439337 C13.1305346,14.7315464 13.3253725,14.9799455 13.420701,15.0890736 C13.5161441,15.1984025 13.5911126,15.280141 13.6456065,15.3347194 L13.8500373,15.5312074 C13.9808456,15.6622472 14.1729344,15.8191851 14.4263898,16.0020213 C14.6799023,16.1849722 14.9605617,16.3650838 15.2685109,16.5426428 C15.5765174,16.7199151 15.9348369,16.8645779 16.34367,16.9764593 C16.7524459,17.0884555 17.1503114,17.1333973 17.5373241,17.1117151 L18.4775514,17.1117151 C18.6682371,17.095224 18.8127046,17.0351677 18.9108967,16.9315175 L18.943427,16.8904761 C18.9653047,16.8578954 18.9857793,16.8072749 19.0046789,16.7391595 C19.0238076,16.6709293 19.0333147,16.5957585 19.0333147,16.5139913 C19.0277307,16.2793014 19.0455708,16.067785 19.0863482,15.8794709 C19.1270969,15.6912141 19.1735441,15.5492759 19.2254894,15.4536848 C19.2774061,15.3581798 19.3359949,15.2775885 19.4011986,15.212255 C19.4665455,15.1467782 19.5131072,15.1071135 19.5404258,15.0934617 C19.5675725,15.0797239 19.5892498,15.0704028 19.6056008,15.0648102 C19.7364091,15.0211589 19.8903551,15.0634335 20.0676678,15.1918347 C20.2448374,15.3201212 20.4110109,15.4785219 20.5664459,15.6667786 C20.7217951,15.8552074 20.9084431,16.0666091 21.1264187,16.3012991 C21.3445375,16.5360751 21.5352518,16.710594 21.6987048,16.8254008 L21.8621579,16.9236591 C21.9713175,16.989222 22.113036,17.0492783 22.2874852,17.1038567 C22.4616194,17.1584171 22.6141908,17.1720582 22.7451996,17.1447834 L24.8381031,17.1120879 C25.0451112,17.1120879 25.2061875,17.0777578 25.3204443,17.0096423 C25.4349301,16.9414122 25.5029401,16.8662414 25.5248751,16.7844742 C25.5467529,16.7026209 25.5479269,16.6097545 25.5290273,16.5059322 C25.5096409,16.402368 25.4905408,16.3299506 25.4715266,16.2890239 C25.4525125,16.2479826 25.4347869,16.2139392 25.4183214,16.1866644 C25.1458805,15.6952294 24.6252533,15.0920277 23.8567548,14.3768872 L23.8241673,14.3442492 L23.8159202,14.3442492 C23.4671363,14.0112435 23.2462685,13.7873373 23.1537749,13.6727026 C22.9845374,13.4543317 22.9466237,13.2332935 23.0391172,13.0093299 C23.1044641,12.8401168 23.34993,12.4827617 23.7749424,11.936777 C23.9985019,11.6474226 24.175557,11.4155146 24.306308,11.2407949 C25.249313,9.98517631 25.6581461,9.18281941 25.5327213,8.8334087 L25.4840118,8.75175621 C25.4512811,8.70259837 25.3668056,8.65762784 25.2306997,8.61661517 C25.0942788,8.57568854 24.9199155,8.56892002 24.7072948,8.59619488 L22.3527461,8.61248522 C22.3146033,8.59894817 22.260138,8.6002101 22.1891785,8.61661517 C22.118305,8.63302024 22.0828539,8.64125145 22.0828539,8.64125145 L22.0418761,8.66175778 L22.0093458,8.68639406 C21.9820845,8.70268441 21.9521029,8.73133592 21.9193722,8.77229122 C21.8868133,8.81310313 21.8595807,8.86099904 21.8378175,8.91557743 C21.5814699,9.57611081 21.2900149,10.1902396 20.9629084,10.7579353 C20.7612265,11.0964475 20.5760103,11.3898171 20.4068587,11.6382162 C20.2379362,11.8865293 20.0962177,12.0694802 19.9818464,12.1867535 C19.8673033,12.3041415 19.7639281,12.3981838 19.6710909,12.4692246 C19.5783968,12.5402941 19.5076378,12.5703223 19.458642,12.5593378 C19.4095316,12.5483533 19.3632848,12.5374548 19.3195007,12.5265563 C19.2432436,12.4773985 19.1819058,12.410545 19.135659,12.3259384 C19.0892117,12.2413319 19.0579415,12.1348423 19.0415904,12.0065559 C19.0253253,11.8781833 19.0157037,11.7677646 19.0129546,11.6749269 C19.0104061,11.5822038 19.0115801,11.4510493 19.0171068,11.2818362 C19.0227767,11.1125371 19.0253253,10.9979884 19.0253253,10.9379321 C19.0253253,10.7304596 19.0293629,10.5052915 19.0374669,10.2623703 C19.045714,10.0194491 19.0523861,9.8269764 19.0579701,9.68518156 C19.0635254,9.54324332 19.0661027,9.39307386 19.0661027,9.23475923 C19.0661027,9.0764446 19.056481,8.95228807 19.0374669,8.86217493 C19.0186818,8.7721765 18.9898456,8.68481665 18.9518459,8.60012406 C18.9136171,8.51551751 18.8576628,8.45006933 18.7842406,8.40360742 C18.7106753,8.35720288 18.6192126,8.32037752 18.510368,8.29301663 C18.2214616,8.22753976 17.8535777,8.19211973 17.4065444,8.18661313 C16.392809,8.17571466 15.7414309,8.24127757 15.4525531,8.38321581 Z" id="Combined-Shape"></path>
    </g>
</svg>