<svg width="18" height="18" viewBox="0 0 18 18" fill="none" xmlns="http://www.w3.org/2000/svg">
<path opacity="0.8" fill-rule="evenodd" clip-rule="evenodd" d="M18 8.97267C18 13.9281 13.9828 17.9453 9.02733 17.9453C4.07186 17.9453 0.054657 13.9281 0.054657 8.97267C0.054657 4.0172 4.07186 0 9.02733 0C13.9828 0 18 4.0172 18 8.97267ZM15.1665 8.97267C15.1665 12.3633 12.4179 15.1119 9.02733 15.1119C5.63674 15.1119 2.88813 12.3633 2.88813 8.97267C2.88813 5.58209 5.63674 2.83348 9.02733 2.83348C12.4179 2.83348 15.1665 5.58209 15.1665 8.97267ZM7.91454 4.9392H10.0587V7.98747H12.0571V10.1825H10.0587H7.91454V7.98747V4.9392Z" fill="#2FC6F6"/>
</svg>
