<svg width="16" height="13" viewBox="0 0 16 13" fill="none" xmlns="http://www.w3.org/2000/svg">
	<path fill-rule="evenodd" clip-rule="evenodd" d="M15.1212 10.9237L8.91974 0.594727C8.44192 -0.198242 7.3033 -0.198242 6.83565 0.594727L0.634221 10.9237C0.14624 11.737 0.735884 12.7638 1.68135 12.7638H14.0842C15.0195 12.7638 15.6091 11.737 15.1212 10.9237ZM6.98814 4.1936C6.98814 3.73612 7.35412 3.37014 7.8116 3.37014H7.92343C8.38092 3.37014 8.7469 3.73612 8.7469 4.1936V7.27399C8.7469 7.73147 8.38092 8.09745 7.92343 8.09745H7.8116C7.35412 8.09745 6.98814 7.73147 6.98814 7.27399V4.1936ZM8.90956 10.1713C8.90956 10.7406 8.44191 11.2083 7.8726 11.2083C7.30329 11.2083 6.83564 10.7406 6.83564 10.1713C6.83564 9.60199 7.30329 9.13434 7.8726 9.13434C8.44191 9.13434 8.90956 9.60199 8.90956 10.1713Z" fill="white"/>
</svg>