<svg width="16" height="17" viewBox="0 0 16 17" fill="none" xmlns="http://www.w3.org/2000/svg">
<path opacity="0.1" fill-rule="evenodd" clip-rule="evenodd" d="M1.88235 0.997437H14.1176C15.1572 0.997437 16 1.84019 16 2.87979V15.1151C16 16.1547 15.1572 16.9974 14.1176 16.9974H1.88235C0.842758 16.9974 0 16.1547 0 15.1151V2.87979C0 1.84019 0.842758 0.997437 1.88235 0.997437ZM1.93104 15.0664H14.1241V14.1285L10.8729 10.3765L9.24681 12.2528L5.18229 7.56295L1.93104 11.3144V15.0664ZM11.3564 7.20681C12.2252 7.20681 12.9295 6.50248 12.9295 5.63365C12.9295 4.76481 12.2252 4.06048 11.3564 4.06048C10.4875 4.06048 9.78321 4.76481 9.78321 5.63365C9.78321 6.50248 10.4875 7.20681 11.3564 7.20681Z" fill="#525C69"/>
</svg>
