<svg width="64" height="64" viewBox="0 0 64 64" fill="none" xmlns="http://www.w3.org/2000/svg">
<circle opacity="0.09" cx="32" cy="32" r="32" fill="#2FC6F6"/>
<mask id="mask0" style="mask-type:alpha" maskUnits="userSpaceOnUse" x="15" y="15" width="34" height="34">
<rect x="15" y="15" width="34" height="34" fill="white"/>
</mask>
<g mask="url(#mask0)">
<path fill-rule="evenodd" clip-rule="evenodd" d="M49 32C49 41.3893 41.3893 49 32 49C22.6107 49 15 41.3893 15 32C15 22.6107 22.6107 15 32 15C41.3893 15 49 22.6107 49 32Z" fill="#F7A704"/>
<path d="M40.1525 36.7908C40.1525 35.997 39.0952 35.0901 37.0133 34.5617C36.308 34.3686 35.6374 34.0691 35.0257 33.674C34.892 33.599 34.9123 32.9057 34.9123 32.9057L34.2418 32.8055C34.2418 32.7492 34.1844 31.9179 34.1844 31.9179C34.9867 31.6532 34.9042 30.0922 34.9042 30.0922C35.4137 30.3696 35.7455 29.1343 35.7455 29.1343C36.3481 27.4181 35.4454 27.5219 35.4454 27.5219C35.6033 26.4741 35.6033 25.4093 35.4454 24.3616C35.044 20.8859 29.0016 21.8295 29.7181 22.9646C27.9521 22.6453 28.355 26.5895 28.355 26.5895L28.7381 27.6109C28.2072 27.9489 28.3114 28.3368 28.4279 28.7702C28.4764 28.9508 28.5271 29.1394 28.5348 29.3355C28.5718 30.3197 29.1854 30.1158 29.1854 30.1158C29.2232 31.7402 30.0393 31.9518 30.0393 31.9518C30.1926 32.972 30.097 32.7983 30.097 32.7983L29.3708 32.8845C29.3806 33.1165 29.3614 33.3488 29.3135 33.5762C28.8915 33.7608 28.6332 33.9077 28.3774 34.0532C28.1156 34.202 27.8564 34.3494 27.4271 34.5341C25.7876 35.2394 24.0058 36.1566 23.689 37.3915C23.5414 37.9669 23.3987 38.858 23.2883 39.6458C25.6922 40.6506 28.4803 41.2518 31.4615 41.3158H32.522C35.51 41.2517 38.304 40.6479 40.7117 39.6388L40.1525 36.7908Z" fill="white"/>
</g>
</svg>
