<svg width="64" height="64" viewBox="0 0 64 64" fill="none" xmlns="http://www.w3.org/2000/svg">
<circle opacity="0.09" cx="32" cy="32" r="32" fill="#2FC6F6"/>
<path fill-rule="evenodd" clip-rule="evenodd" d="M32.9841 17.6331C32.6211 17.2701 32.1287 17.0662 31.6152 17.0662H18.1035C17.0343 17.0662 16.1675 17.9329 16.1675 19.0022V20.6773H36.0285L32.9841 17.6331ZM45.0562 24.4188C45.0562 23.3496 44.1895 22.4828 43.1202 22.4828H16.1675V40.4078C16.1675 41.477 17.0343 42.3438 18.1035 42.3438H29.6465C28.9611 40.796 28.5799 39.0802 28.5799 37.2744C28.5799 30.418 34.0749 24.8601 40.8536 24.8601C42.3298 24.8601 43.7452 25.1237 45.0562 25.607V24.4188ZM40.8537 46.7445C35.6826 46.7445 31.4908 42.5047 31.4908 37.2744C31.4908 32.0441 35.6826 27.8043 40.8537 27.8043C46.0248 27.8043 50.2166 32.0441 50.2166 37.2744C50.2166 42.5047 46.0248 46.7445 40.8537 46.7445ZM44.6981 34.046C44.6997 32.0975 42.953 30.5127 40.8093 30.5127C38.6633 30.5127 36.9178 32.0975 36.9178 34.046V35.6416H36.0812V42.1766H45.5324V35.6408H44.6985V34.046H44.6981ZM40.1414 40.3848H41.4764L41.2722 38.5934C41.5216 38.4529 41.6853 38.2045 41.6853 37.919C41.6853 37.4791 41.2928 37.1219 40.8085 37.1219C40.3212 37.1219 39.9279 37.4791 39.9279 37.919C39.9279 38.2045 40.0943 38.4541 40.3411 38.5934L40.1414 40.3848ZM38.3825 34.046C38.3825 32.8322 39.4704 31.8456 40.8078 31.8456C42.1428 31.8456 43.2304 32.8322 43.2304 34.046V35.6416H38.3821V34.046H38.3825Z" fill="#38C3F3"/>
</svg>
