<!-- <svg width="1363" height="896" viewBox="0 0 1363 896" fill="none" xmlns="http://www.w3.org/2000/svg"> -->
<svg xmlns:xlink="http://www.w3.org/1999/xlink" xmlns="http://www.w3.org/2000/svg" viewBox="0 0 1363 896"
    preserveAspectRatio="xMinYMin meet" style="width: 1363px; height: 896px" fill="none">

    <svg height="100%">
        <rect width="100%" height="100%" fill="white" />
        <rect x="31" y="43" width="498" height="15" rx="7.5" fill="#E6E7E9" />
        <rect x="31" y="73" width="498" height="15" rx="7.5" fill="#E6E7E9" />

        <rect x="1019" y="49" width="290" height="212" rx="3" stroke="#E6E7E9" stroke-width="2" />
        <rect x="1018" y="48" width="292" height="40" rx="4" fill="#7FCEDD" />
        <rect x="1036" y="116" width="233" height="5" rx="2.5" fill="#E6E7E9" />
        <rect x="1036" y="138" width="233" height="5" rx="2.5" fill="#E6E7E9" />
        <rect x="1036" y="160" width="75" height="5" rx="2.5" fill="#E6E7E9" />
        <rect x="1036" y="187" width="233" height="5" rx="2.5" fill="#E6E7E9" />
        <rect x="1036" y="209" width="75" height="5" rx="2.5" fill="#E6E7E9" />

        <rect x="1019" y="304" width="290" height="212" rx="3" stroke="#E6E7E9" stroke-width="2" />
        <rect x="1018" y="303" width="292" height="40" rx="4" fill="#EAA93D" />
        <circle cx="1050" cy="384" r="15" fill="#D9D9D9" />
        <circle cx="1050" cy="456" r="15" fill="#D9D9D9" />
        <rect x="1085" y="371" width="184" height="5" rx="2.5" fill="#E6E7E9" />
        <rect x="1085" y="393" width="184" height="5" rx="2.5" fill="#E6E7E9" />
        <rect x="1085" y="414" width="75" height="5" rx="2.5" fill="#E6E7E9" />
        <rect x="1085" y="442" width="184" height="5" rx="2.5" fill="#E6E7E9" />
        <rect x="1085" y="464" width="59" height="5" rx="2.5" fill="#E6E7E9" />

        <rect x="1019" y="554" width="290" height="212" rx="3" stroke="#E6E7E9" stroke-width="2" />
        <rect x="1018" y="553" width="292" height="40" rx="4" fill="#67C3F1" />
        <rect x="1036" y="621" width="233" height="5" rx="2.5" fill="#E6E7E9" />
        <rect x="1036" y="643" width="233" height="5" rx="2.5" fill="#E6E7E9" />
        <rect x="1036" y="665" width="75" height="5" rx="2.5" fill="#E6E7E9" />
        <rect x="1036" y="692" width="233" height="5" rx="2.5" fill="#E6E7E9" />
        <rect x="1036" y="714" width="75" height="5" rx="2.5" fill="#E6E7E9" />
    </svg>


    <circle id="c1" cx="61" cy="180" r="21" fill="#E6E7E9" fill-opacity="0" />
    <rect id="l1" x="103" y="163" width="0" height="8" rx="4" fill="#E6E7E9" />
    <rect id="l2" x="103" y="189" width="0" height="8" rx="4" fill="#E6E7E9" />
    <rect id="l3" x="103" y="215" width="0" height="8" rx="4" fill="#E6E7E9" />
    <rect id="l4" x="103" y="241" width="0" height="8" rx="4" fill="#E6E7E9" />
    <rect id="l5" x="103" y="267" width="0" height="8" rx="4" fill="#E6E7E9" />
    <rect id="l6" x="103" y="293" width="0" height="8" rx="4" fill="#E6E7E9" />
    <rect id="l7" x="103" y="319" width="0" height="8" rx="4" fill="#E6E7E9" />

    <svg id="b1" style="width: 1363px; height: 896px" x="-10" y="0" viewBox="0 0 1363 896" preserveAspectRatio="xMinYMin meet" fill-opacity="0">
        <rect x="106" y="357" width="87" height="87" rx="12" fill="#E6E7E9" />
        <path fill-rule="evenodd" clip-rule="evenodd"
            d="M132.603 377.25H167.397C170.354 377.25 172.75 379.647 172.75 382.603V417.397C172.75 420.354 170.354 422.75 167.397 422.75H132.603C129.647 422.75 127.25 420.354 127.25 417.397V382.603C127.25 379.647 129.647 377.25 132.603 377.25ZM134.112 415.785H165.992V413.332L157.491 403.522L153.24 408.428L142.613 396.166L134.112 405.975V415.785ZM158.757 395.233C161.028 395.233 162.87 393.392 162.87 391.12C162.87 388.848 161.028 387.007 158.757 387.007C156.485 387.007 154.643 388.848 154.643 391.12C154.643 393.392 156.485 395.233 158.757 395.233Z"
            fill="#C9CCD0" />
    </svg>

    <svg id="b2" style="width: 1363px; height: 896px" x="-10" y="0" viewBox="0 0 1363 896" preserveAspectRatio="xMinYMin meet" fill-opacity="0">
        <rect x="226" y="357" width="87" height="87" rx="12" fill="#E6E7E9" />
        <path fill-rule="evenodd" clip-rule="evenodd"
            d="M252.603 377.25H287.397C290.354 377.25 292.75 379.647 292.75 382.603V417.397C292.75 420.354 290.354 422.75 287.397 422.75H252.603C249.647 422.75 247.25 420.354 247.25 417.397V382.603C247.25 379.647 249.647 377.25 252.603 377.25ZM254.112 415.785H285.992V413.332L277.491 403.522L273.24 408.428L262.613 396.166L254.112 405.975V415.785ZM278.757 395.233C281.028 395.233 282.87 393.392 282.87 391.12C282.87 388.848 281.028 387.007 278.757 387.007C276.485 387.007 274.643 388.848 274.643 391.12C274.643 393.392 276.485 395.233 278.757 395.233Z"
            fill="#C9CCD0" />
    </svg>

    <svg id="t1" style="width: 1363px; height: 896px" x="0" y="10" viewBox="0 0 1363 896" preserveAspectRatio="xMinYMin meet" fill-opacity="0">
        <circle cx="61" cy="522" r="21" fill="#E6E7E9" />
        <rect x="97" y="496" width="530" height="66" rx="33" fill="#F1F4F6" />
        <rect x="124" y="514" width="448" height="4" rx="2" fill="#E6E7E9" />
        <rect x="124" y="528" width="448" height="4" rx="2" fill="#E6E7E9" />
        <rect x="124" y="542" width="167" height="4" rx="2" fill="#E6E7E9" />
    </svg>
    <svg id="t2" style="width: 1363px; height: 896px" x="0" y="10" viewBox="0 0 1363 896" preserveAspectRatio="xMinYMin meet" fill-opacity="0">
        <circle cx="61" cy="629" r="21" fill="#E6E7E9" />
        <rect x="97" y="603" width="530" height="66" rx="33" fill="#F1F4F6" />
        <rect x="124" y="621" width="448" height="4" rx="2" fill="#E6E7E9" />
        <rect x="124" y="635" width="448" height="4" rx="2" fill="#E6E7E9" />
        <rect x="124" y="649" width="167" height="4" rx="2" fill="#E6E7E9" />
    </svg>
    <svg id="t3" style="width: 1363px; height: 896px" x="0" y="10" viewBox="0 0 1363 896" preserveAspectRatio="xMinYMin meet" fill-opacity="0">
        <circle cx="61" cy="736" r="21" fill="#E6E7E9" />
        <rect x="97" y="710" width="530" height="66" rx="33" fill="#F1F4F6" />
        <rect x="124" y="728" width="448" height="4" rx="2" fill="#E6E7E9" />
        <rect x="124" y="742" width="448" height="4" rx="2" fill="#E6E7E9" />
        <rect x="124" y="756" width="167" height="4" rx="2" fill="#E6E7E9" />
    </svg>


       <!--Анимация появления линий-->
       <animate id="an1" xlink:href="#c1" attributeName="fill-opacity" from="0" to="1" begin="0.1s;an1.end+6.3s" dur=".3s" fill="freeze" repeatCount="1"/>
       <animate id="an2" xlink:href="#l1" attributeName="width" from="0" to="576" begin=".4s;an2.end+6.3s" dur=".3s" fill="freeze" repeatCount="1"/>
       <animate id="an3" xlink:href="#l2" attributeName="width" from="0" to="576" begin=".7s;an3.end+6.3s" dur=".3s" fill="freeze" repeatCount="1"/>
       <animate id="an4" xlink:href="#l3" attributeName="width" from="0" to="576" begin="1s;an4.end+6.3s" dur=".3s" fill="freeze" repeatCount="1"/>
       <animate id="an5" xlink:href="#l4" attributeName="width" from="0" to="576" begin="1.3s;an5.end+6.3s" dur=".3s" fill="freeze" repeatCount="1"/>
       <animate id="an6" xlink:href="#l5" attributeName="width" from="0" to="576" begin="1.6s;an6.end+6.3s" dur=".3s" fill="freeze" repeatCount="1"/>
       <animate id="an7" xlink:href="#l6" attributeName="width" from="0" to="576" begin="1.9s;an7.end+6.3s" dur=".3s" fill="freeze" repeatCount="1"/>
       <animate id="an8" xlink:href="#l7" attributeName="width" from="0" to="181" begin="2.2s;an8.end+6.4s" dur=".2s" fill="freeze" repeatCount="1"/>

       <animate id="an9" xlink:href="#b1" attributeName="fill-opacity" from="0" to="1" begin="2.5s;an9.end+6.3s" dur=".3s" fill="freeze" repeatCount="1"/>
       <animate id="an10" xlink:href="#b1" attributeName="x" from="-10" to="0" begin="2.5s;an10.end+6.3s" dur=".3s" fill="freeze" repeatCount="1"/>
       <animate id="an11" xlink:href="#b2" attributeName="fill-opacity" from="0" to="1" begin="2.8s;an11.end+6.3s" dur=".3s" fill="freeze" repeatCount="1"/>
       <animate id="an12" xlink:href="#b2" attributeName="x" from="-10" to="0" begin="2.8s;an12.end+6.3s" dur=".3s" fill="freeze" repeatCount="1"/>


       <animate id="an13" xlink:href="#t1" attributeName="fill-opacity" from="0" to="1" begin="3.2s;an13.end+6.2s" dur=".4s" fill="freeze" repeatCount="1"/>
       <animate id="an14" xlink:href="#t1" attributeName="y" from="10" to="0" begin="3.2s;an14.end+6.2s" dur=".4s" fill="freeze" repeatCount="1"/>

       <animate id="an15" xlink:href="#t2" attributeName="fill-opacity" from="0" to="1" begin="3.7s;an15.end+6.2s" dur=".4s" fill="freeze" repeatCount="1"/>
       <animate id="an16" xlink:href="#t2" attributeName="y" from="10" to="0" begin="3.7s;an16.end+6.2s" dur=".4s" fill="freeze" repeatCount="1"/>

       <animate id="an17" xlink:href="#t3" attributeName="fill-opacity" from="0" to="1" begin="4.2s;an17.end+6.2s" dur=".4s" fill="freeze" repeatCount="1"/>
       <animate id="an18" xlink:href="#t3" attributeName="y" from="10" to="0" begin="4.2s;an18.end+6.2s" dur=".4s" fill="freeze" repeatCount="1"/>
       
       <!--Анимация исчезновения линий-->
       <animate id="op1" xlink:href="#c1" attributeName="fill-opacity" from="1" to="0" begin="an18.end+2s" dur="0.001s" fill="freeze" repeatCount="1"/>
       <animate id="op2" xlink:href="#l1" attributeName="width" from="576" to="0" begin="an18.end+2s" dur="0.001s" fill="freeze" repeatCount="1"/>
       <animate id="op3" xlink:href="#l2" attributeName="width" from="576" to="0" begin="an18.end+2s" dur="0.001s" fill="freeze" repeatCount="1"/>
       <animate id="op4" xlink:href="#l3" attributeName="width" from="576" to="0" begin="an18.end+2s" dur="0.001s" fill="freeze" repeatCount="1"/>
       <animate id="op5" xlink:href="#l4" attributeName="width" from="576" to="0" begin="an18.end+2s" dur="0.001s" fill="freeze" repeatCount="1"/>
       <animate id="op6" xlink:href="#l5" attributeName="width" from="576" to="0" begin="an18.end+2s" dur="0.001s" fill="freeze" repeatCount="1"/>
       <animate id="op7" xlink:href="#l6" attributeName="width" from="576" to="0" begin="an18.end+2s" dur="0.001s" fill="freeze" repeatCount="1"/>
       <animate id="op8" xlink:href="#l7" attributeName="width" from="181" to="0" begin="an18.end+2s" dur="0.001s" fill="freeze" repeatCount="1"/>

       <animate id="op9" xlink:href="#b1" attributeName="fill-opacity" from="1" to="0" begin="an18.end+2s" dur="0.001s" fill="freeze" repeatCount="1"/>
       <animate id="op10" xlink:href="#b1" attributeName="x" from="0" to="-10" begin="an18.end+2s" dur="0.001s" fill="freeze" repeatCount="1"/>
       <animate id="op11" xlink:href="#b2" attributeName="fill-opacity" from="1" to="0" begin="an18.end+2s" dur="0.001s" fill="freeze" repeatCount="1"/>
       <animate id="op12" xlink:href="#b2" attributeName="x" from="0" to="-10" begin="an18.end+2s" dur="0.001s" fill="freeze" repeatCount="1"/>


       <animate id="op13" xlink:href="#t1" attributeName="fill-opacity" from="1" to="0" begin="an18.end+2s" dur="0.001s" fill="freeze" repeatCount="1"/>
       <animate id="op14" xlink:href="#t1" attributeName="y" from="10" to="0" begin="an18.end+2s" dur="0.001s" fill="freeze" repeatCount="1"/>

       <animate id="op15" xlink:href="#t2" attributeName="fill-opacity" from="1" to="0" begin="an18.end+2s" dur="0.001s" fill="freeze" repeatCount="1"/>
       <animate id="op16" xlink:href="#t2" attributeName="y" from="10" to="0" begin="an18.end+2s" dur="0.001s" fill="freeze" repeatCount="1"/>

       <animate id="op17" xlink:href="#t3" attributeName="fill-opacity" from="1" to="0" begin="an18.end+2s" dur="0.001s" fill="freeze" repeatCount="1"/>
       <animate id="op18" xlink:href="#t4" attributeName="y" from="10" to="0" begin="an18.end+2s" dur="0.001s" fill="freeze" repeatCount="1"/>

</svg>