<svg width="64" height="64" viewBox="0 0 64 64" fill="none" xmlns="http://www.w3.org/2000/svg">
<circle opacity="0.09" cx="32" cy="32" r="32" fill="#2FC6F6"/>
<path fill-rule="evenodd" clip-rule="evenodd" d="M33.4251 36.716V40.3145H30.5749V36.716C30.062 36.298 29.7336 35.6594 29.7336 34.9434C29.7336 33.684 30.7484 32.6631 32 32.6631C33.2516 32.6631 34.2664 33.684 34.2664 34.9434C34.2664 35.6594 33.9381 36.298 33.4251 36.716ZM25.7951 25.0965C25.7951 21.6486 28.5731 18.8534 32 18.8534C35.4269 18.8534 38.2049 21.6486 38.2049 25.0965V27.374H25.7951V25.0965ZM41.4841 27.374V25.0965C41.4841 19.8263 37.2379 15.5541 32 15.5541C26.7621 15.5541 22.5159 19.8263 22.5159 25.0965V27.374H21.1367C20.3082 27.374 19.6367 28.0455 19.6367 28.874V43.946C19.6367 44.7745 20.3082 45.446 21.1367 45.446H42.8633C43.6918 45.446 44.3633 44.7745 44.3633 43.946V28.874C44.3633 28.0455 43.6918 27.374 42.8633 27.374H41.4841Z" fill="#38C3F3"/>
</svg>
