<svg width="64" height="65" viewBox="0 0 64 65" fill="none" xmlns="http://www.w3.org/2000/svg">
	<rect y="0.5" width="64" height="64" rx="32" fill="white"/>
	<path fill-rule="evenodd" clip-rule="evenodd" d="M35.6945 16.1598C33.4084 14.8399 30.5917 14.8399 28.3056 16.1598L19.6971 21.13C17.411 22.4499 16.0027 24.8891 16.0027 27.5289V37.4691C16.0027 40.1089 17.411 42.5482 19.6971 43.8681L28.3056 48.8382C30.5917 50.1581 33.4084 50.1581 35.6945 48.8382L44.303 43.8681C46.5891 42.5482 47.9974 40.1089 47.9974 37.4691V27.5289C47.9974 24.8891 46.5891 22.4499 44.303 21.13L35.6945 16.1598ZM42.703 23.9012L34.0945 18.9311C32.7984 18.1829 31.2017 18.1829 29.9056 18.9311L21.2971 23.9012C20.0011 24.6495 19.2027 26.0324 19.2027 27.5289V37.4691C19.2027 38.9657 20.0011 40.3485 21.2971 41.0968L29.9056 46.0669C31.2017 46.8152 32.7984 46.8152 34.0945 46.0669L42.703 41.0968C43.999 40.3485 44.7974 38.9657 44.7974 37.4691V27.5289C44.7974 26.0324 43.999 24.6495 42.703 23.9012ZM30.1565 22.4804C31.2973 21.8218 32.7028 21.8218 33.8436 22.4804L39.7549 25.8933C40.8957 26.5519 41.5985 27.7692 41.5985 29.0865V35.9122C41.5985 37.2295 40.8957 38.4467 39.7549 39.1054L33.8436 42.5182C32.7028 43.1769 31.2973 43.1769 30.1565 42.5182L24.2452 39.1054C23.1044 38.4467 22.4016 37.2295 22.4016 35.9122V29.0865C22.4016 27.7692 23.1044 26.5519 24.2452 25.8933L30.1565 22.4804Z" fill="#19CC45"/>
	<rect x="8" y="8.5" width="48" height="48" rx="6" fill="white" fill-opacity="0.01"/>
</svg>
