<svg width="15" height="14" viewBox="0 0 15 14" fill="none" xmlns="http://www.w3.org/2000/svg">
<path fill-rule="evenodd" clip-rule="evenodd" d="M2.14707 0H12.853C13.7627 0 14.5001 0.737418 14.5001 1.64707V12.353C14.5001 13.2627 13.7627 14.0001 12.853 14.0001H2.14707C1.23742 14.0001 0.5 13.2627 0.5 12.353V1.64707C0.5 0.737418 1.23742 0 2.14707 0ZM2.61133 11.8564H12.4206V11.1019L9.805 8.08347L8.49683 9.59291L5.22694 5.81995L2.61133 8.83798V11.8564ZM10.1943 5.53328C10.8933 5.53328 11.4599 4.96665 11.4599 4.26768C11.4599 3.56871 10.8933 3.00208 10.1943 3.00208C9.49534 3.00208 8.92871 3.56871 8.92871 4.26768C8.92871 4.96665 9.49534 5.53328 10.1943 5.53328Z" fill="#BDC1C6"/>
</svg>
