<svg width="15" height="14" viewBox="0 0 15 14" fill="none" xmlns="http://www.w3.org/2000/svg">
<path fill-rule="evenodd" clip-rule="evenodd" d="M13.412 6.34321L10.7839 8.97047C9.33335 10.4218 6.98024 10.4218 5.52947 8.97047C5.30095 8.7426 5.12218 8.48584 4.96519 8.22105L6.18633 7C6.24438 6.94146 6.31606 6.90792 6.38455 6.86841C6.46898 7.15684 6.61635 7.4299 6.84319 7.65677C7.56759 8.38175 8.74633 8.38074 9.47031 7.65677L12.0976 5.02957C12.8226 4.30468 12.8226 3.12621 12.0976 2.40188C11.3736 1.67754 10.1952 1.67754 9.47031 2.40188L8.53604 3.33715C7.77788 3.04194 6.96106 2.96257 6.1659 3.0791L8.15675 1.08832C9.60812 -0.362774 11.9606 -0.362774 13.412 1.08832C14.8627 2.53935 14.8627 4.89221 13.412 6.34321ZM6.46438 10.6633L5.52944 11.5986C4.8051 12.3226 3.62629 12.3226 2.90183 11.5986C2.17743 10.8736 2.17743 9.69515 2.90183 8.97047L5.52944 6.34321C6.25436 5.61838 7.43237 5.61838 8.15671 6.34321C8.38303 6.56959 8.53056 6.84258 8.61578 7.13065C8.68467 7.09061 8.75546 7.05808 8.81348 6.99997L10.0345 5.77942C9.87855 5.51359 9.69886 5.25775 9.47024 5.02963C8.01985 3.57853 5.66652 3.57853 4.21542 5.02963L1.58821 7.65692C0.137263 9.10844 0.137263 11.4606 1.58821 12.912C3.03931 14.3627 5.39209 14.3627 6.84315 12.912L8.83452 10.9208C8.03893 11.038 7.2219 10.958 6.46438 10.6633Z" fill="#BDC1C6"/>
</svg>
