<svg xmlns="http://www.w3.org/2000/svg" width="16" height="15" viewBox="0 0 16 15">
  <path fill="#EEAD36" fill-rule="evenodd" d="M8.00880417,12.3428359 L3.90614964,14.499729 C3.75949626,14.5768293 3.57810811,14.5204453 3.50100786,14.3737919 C3.47030614,14.3153938 3.45971174,14.2485034 3.47086479,14.1834761 L4.25440208,9.61510311 L0.935284853,6.37976343 C0.816639774,6.26411306 0.814212082,6.07417907 0.929862451,5.95553399 C0.975915034,5.9082889 1.03625776,5.87754275 1.10154887,5.86805539 L5.68845607,5.20153876 L7.73978333,1.04509575 C7.81311002,0.896519643 7.99299778,0.835517941 8.14157389,0.908844632 C8.20073767,0.938043705 8.24862593,0.985931963 8.277825,1.04509575 L10.3291523,5.20153876 L14.9160595,5.86805539 C15.0800229,5.89188068 15.1936274,6.04411354 15.1698021,6.20807701 C15.1603147,6.27336812 15.1295686,6.33371084 15.0823235,6.37976343 L11.7632062,9.61510311 L12.5467435,14.1834761 C12.5747518,14.346777 12.4650755,14.5018638 12.3017746,14.5298721 C12.2367473,14.5410251 12.1698568,14.5304307 12.1114587,14.499729 L8.00880417,12.3428359 Z"/>
</svg>
