<svg xmlns="http://www.w3.org/2000/svg" width="15" height="15" viewBox="0 0 15 15"><path fill="#EEAD36" fill-rule="evenodd" d="M10.0344724,9.32416986 L12.893474,6.53733206 L8.942431,5.9632119 L7.17547083,2.38295955 L5.40851067,5.9632119 L1.45746762,6.53733206 L4.31646923,9.32416986 L3.6415505,13.259248 L7.17547083,11.4013561 L10.7093912,13.259248 L10.0344724,9.32416986 Z M7.17547083,12.3428359 L3.1325987,14.4682996 C2.96965051,14.5539665 2.76810812,14.4913177 2.68244118,14.3283695 C2.64832816,14.2634826 2.6365566,14.1891599 2.64894888,14.1169074 L3.42106875,9.61510311 L0.150316491,6.42690762 C0.0184886296,6.29840722 0.0157911941,6.08736946 0.1442916,5.9555416 C0.195461136,5.90304705 0.262508607,5.86888466 0.335054285,5.85834316 L4.85512274,5.20153876 L6.8765588,1.10566193 C6.9580329,0.94057737 7.15790818,0.872797703 7.32299274,0.954271802 C7.38873028,0.986715215 7.44193945,1.03992439 7.47438286,1.10566193 L9.49581893,5.20153876 L14.0158874,5.85834316 C14.198069,5.8848157 14.3242962,6.05396331 14.2978236,6.23614494 C14.2872821,6.30869062 14.2531197,6.37573809 14.2006252,6.42690762 L10.9298729,9.61510311 L11.7019928,14.1169074 C11.7331131,14.2983529 11.6112505,14.4706715 11.429805,14.5017919 C11.3575525,14.5141841 11.2832298,14.5024126 11.218343,14.4682996 L7.17547083,12.3428359 Z"/></svg>
