<svg width="40" height="40" viewBox="0 0 40 40" fill="none" xmlns="http://www.w3.org/2000/svg">
<path fill-rule="evenodd" clip-rule="evenodd" d="M29.7915 29.6646H10.2186V15.0945H29.7915V29.6646ZM28.0208 10.4048V9.48763H30.0606C31.9233 9.60502 33.3664 11.221 33.3327 13.1562V31.4989C33.3327 32.5114 32.5413 33.3332 31.5621 33.3332H8.44793C7.47053 33.3332 6.67728 32.5114 6.67728 31.4989V13.1562C6.6702 13.0608 6.66666 12.9672 6.66666 12.8737C6.6702 10.9991 8.13984 9.48396 9.94944 9.48763H11.9892V10.4048C11.9892 11.9235 13.1773 13.1562 14.6452 13.1562C16.1131 13.1562 17.3012 11.9235 17.3012 10.4048V9.48763H22.7089V10.4048C22.7089 11.9235 23.8987 13.1562 25.3648 13.1562C26.8309 13.1562 28.0208 11.9235 28.0208 10.4048ZM15.9466 8.02388V10.0416C15.9466 10.7863 15.3641 11.3898 14.6452 11.3898C13.9263 11.3898 13.3438 10.7863 13.3438 10.0416V8.02388V8.00554C13.3473 7.26266 13.9352 6.66285 14.654 6.66652C15.3729 6.67202 15.9502 7.27917 15.9466 8.02388ZM26.5937 8.07341V9.98655C26.5937 10.6891 26.043 11.2595 25.3631 11.2595C24.6831 11.2577 24.136 10.6872 24.136 9.98472V8.07341C24.136 7.36905 24.6867 6.80042 25.3648 6.80042C26.043 6.80042 26.5937 7.36905 26.5937 8.07341ZM13.8906 18.3787C13.6144 18.3787 13.3906 18.6025 13.3906 18.8787V21.2064C13.3906 21.4826 13.6144 21.7064 13.8906 21.7064H16.2403C16.5165 21.7064 16.7403 21.4826 16.7403 21.2064V18.8787C16.7403 18.6025 16.5165 18.3787 16.2403 18.3787H13.8906ZM13.8906 23.3703C13.6144 23.3703 13.3906 23.5942 13.3906 23.8703V26.1981C13.3906 26.4742 13.6144 26.6981 13.8906 26.6981H16.2403C16.5165 26.6981 16.7403 26.4742 16.7403 26.1981V23.8703C16.7403 23.5942 16.5165 23.3703 16.2403 23.3703H13.8906ZM18.4152 18.8787C18.4152 18.6025 18.6391 18.3787 18.9152 18.3787H21.265C21.5411 18.3787 21.765 18.6025 21.765 18.8787V21.2064C21.765 21.4826 21.5411 21.7064 21.265 21.7064H18.9152C18.6391 21.7064 18.4152 21.4826 18.4152 21.2064V18.8787ZM18.9152 23.3703C18.6391 23.3703 18.4152 23.5942 18.4152 23.8703V26.1981C18.4152 26.4742 18.6391 26.6981 18.9152 26.6981H21.265C21.5411 26.6981 21.765 26.4742 21.765 26.1981V23.8703C21.765 23.5942 21.5411 23.3703 21.265 23.3703H18.9152ZM23.4399 18.8787C23.4399 18.6025 23.6637 18.3787 23.9399 18.3787H26.2897C26.5658 18.3787 26.7897 18.6025 26.7897 18.8787V21.2064C26.7897 21.4826 26.5658 21.7064 26.2897 21.7064H23.9399C23.6637 21.7064 23.4399 21.4826 23.4399 21.2064V18.8787Z" fill="white"/>
</svg>
