<svg width="40" height="40" viewBox="0 0 40 40" fill="none" xmlns="http://www.w3.org/2000/svg">
<path fill-rule="evenodd" clip-rule="evenodd" d="M6.81711 9.99951C5.82344 9.99951 5.01791 10.805 5.01791 11.7987V25.9183C5.01791 26.9119 5.82344 27.7174 6.81711 27.7174H28.9198C29.9134 27.7174 30.7189 26.9119 30.7189 25.9183V11.7987C30.7189 10.805 29.9134 9.99951 28.9198 9.99951H6.81711ZM17.9428 23.1919C17.9921 23.4433 17.8584 23.696 17.6186 23.786C16.3045 24.2792 14.814 24.572 13.2304 24.606H12.6086C11.0201 24.5719 9.52516 24.2774 8.20809 23.7813C7.97851 23.6949 7.84414 23.4582 7.88199 23.2158C7.9347 22.8783 7.99458 22.5462 8.0559 22.3072C8.24145 21.5838 9.28522 21.0465 10.2456 20.6334C10.4971 20.5252 10.6489 20.4389 10.8023 20.3516C10.9521 20.2664 11.1034 20.1804 11.3506 20.0723C11.3787 19.9391 11.39 19.803 11.3842 19.6671L11.8096 19.6166C11.8096 19.6166 11.8656 19.7183 11.7758 19.1207C11.7758 19.1207 11.2977 18.9968 11.2756 18.0452C11.2756 18.0452 10.9161 18.1647 10.8945 17.5881C10.89 17.4732 10.8603 17.3628 10.8319 17.2569C10.7636 17.0031 10.7026 16.7758 11.0136 16.5778L10.7892 15.9795C10.7892 15.9795 10.5531 13.6691 11.5876 13.8561C11.1679 13.1912 14.7075 12.6385 14.9426 14.6744C15.0351 15.2882 15.0351 15.9119 14.9426 16.5257C14.9426 16.5257 15.4714 16.4649 15.1184 17.4703C15.1184 17.4703 14.924 18.1939 14.6256 18.0314C14.6256 18.0314 14.6739 18.9458 14.204 19.1008C14.204 19.1008 14.2375 19.5878 14.2375 19.6208L14.6303 19.6795C14.6303 19.6795 14.6184 20.0856 14.6968 20.1295C15.0551 20.361 15.4479 20.5364 15.8611 20.6495C17.0806 20.9591 17.7 21.4903 17.7 21.9553L17.9428 23.1919ZM9.24723 28.865V29.7926C9.24723 30.7862 10.0528 31.5918 11.0464 31.5918H33.1491C34.1427 31.5918 34.9483 30.7862 34.9483 29.7926V15.673C34.9483 14.6794 34.1427 13.8738 33.1491 13.8738H32.2364V16.1076C32.5836 16.2322 32.8319 16.5644 32.8319 16.9545V28.5116C32.8319 29.0084 32.4291 29.4112 31.9323 29.4112H12.264C11.8926 29.4112 11.5738 29.1861 11.4364 28.865H9.24723ZM18.7848 15.6532C18.7848 15.0452 19.2777 14.5523 19.8856 14.5523H25.2322C25.8402 14.5523 26.3331 15.0452 26.3331 15.6532C26.3331 16.2611 25.8402 16.754 25.2322 16.754H19.8856C19.2777 16.754 18.7848 16.2611 18.7848 15.6532ZM18.7848 19.4903C18.7848 18.8824 19.2776 18.3895 19.8856 18.3895H23.6596C24.2676 18.3895 24.7604 18.8824 24.7604 19.4903C24.7604 20.0983 24.2676 20.5912 23.6596 20.5912H19.8856C19.2776 20.5912 18.7848 20.0983 18.7848 19.4903Z" fill="white"/>
</svg>
