<svg width="40" height="40" viewBox="0 0 40 40" fill="none" xmlns="http://www.w3.org/2000/svg">
<path fill-rule="evenodd" clip-rule="evenodd" d="M7.59441 9.83901C10.51 6.59023 29.6094 6.7895 32.2207 9.83901C34.8321 12.8885 35.2996 25.4032 32.2207 28.2569C31.6358 28.7991 30.4849 29.2129 28.9852 29.5128C28.9523 31.3547 28.8187 35.0895 28.2769 35.0895C27.7831 35.0895 24.2863 32.0413 22.144 30.1316C16.0204 30.2444 9.19408 29.4878 7.59441 28.2569C4.79931 26.1062 4.67883 13.0878 7.59441 9.83901ZM9.33009 24.0937C10.3301 24.2659 11.7133 24.4104 13.3109 24.5208C13.4112 24.0905 13.5379 23.5944 13.6288 23.2388C13.6949 22.9803 13.742 22.796 13.7462 22.7649C13.7673 22.1503 14.5984 21.601 15.5034 21.2257C15.4348 21.1309 15.3762 21.0294 15.3284 20.9227C15.2023 20.7625 15.0367 20.6378 14.848 20.5607L14.8336 20.0794L15.8272 19.7612C15.8272 19.7612 16.0837 19.6395 16.1085 19.6395C16.0791 19.5655 16.0422 19.4947 15.9985 19.4282C15.9832 19.3872 15.9039 19.1343 15.8721 19.0331L15.859 18.9913C16.0027 19.1809 16.172 19.3496 16.362 19.4929C16.1879 19.1788 16.0404 18.8507 15.9212 18.512C15.8423 18.1855 15.7896 17.8531 15.7634 17.5182C15.6952 16.9094 15.5889 16.3054 15.4449 15.71C15.3426 15.4142 15.1609 15.1524 14.9198 14.953C14.5657 14.7016 14.1501 14.5509 13.7172 14.517H13.6674C13.2345 14.551 12.8189 14.7017 12.4648 14.953C12.2233 15.1521 12.0415 15.4141 11.9394 15.71C11.7957 16.3055 11.6895 16.9094 11.6212 17.5182C11.5906 17.8458 11.5352 18.1706 11.4555 18.4898C11.3364 18.8345 11.1916 19.17 11.0223 19.4932C11.2134 19.3507 11.3838 19.1824 11.5287 18.993C11.5287 18.993 11.435 19.3441 11.4161 19.3953C11.3648 19.4736 11.3191 19.5555 11.2794 19.6403C11.3045 19.6403 11.5607 19.7621 11.5607 19.7621L12.5543 20.0794L12.5399 20.5607C12.351 20.6375 12.1854 20.7621 12.0595 20.9225C11.9998 21.0764 11.9046 21.2143 11.7818 21.3247C11.5422 21.4097 11.3114 21.5178 11.0926 21.6473C10.7615 21.8356 10.3969 21.9576 10.0192 22.0066C9.63889 22.0704 9.39894 22.698 9.39894 22.698C9.39836 22.7082 9.36327 23.414 9.33009 24.0937ZM14.3569 24.5866C17.8035 24.7831 22.0002 24.8314 25.4915 24.6785C25.2872 23.8186 25.1043 23.1143 25.1043 23.1143C25.1043 23.1143 24.4291 21.984 23.0985 21.633C22.6466 21.504 22.2178 21.3047 21.8278 21.0425C21.7653 20.88 21.7406 20.7054 21.7555 20.5319L21.3291 20.4652C21.3291 20.4278 21.2925 19.8751 21.2925 19.8751C21.8051 19.6992 21.7524 18.6618 21.7524 18.6618C22.0779 18.846 22.2898 18.0261 22.2898 18.0261C22.6748 16.8861 22.0981 16.9546 22.0981 16.9546C22.199 16.2581 22.199 15.5508 22.0981 14.8544C21.8419 12.5447 17.9812 13.171 18.4391 13.926C17.3109 13.7128 17.5685 16.3352 17.5685 16.3352L17.8132 17.0132C17.4742 17.2374 17.5406 17.4952 17.6148 17.7832C17.6458 17.9035 17.6781 18.029 17.6829 18.1595C17.7066 18.8142 18.0978 18.6782 18.0978 18.6782C18.1221 19.7578 18.643 19.8997 18.643 19.8997C18.741 20.5777 18.6802 20.4608 18.6802 20.4608L18.2162 20.5182C18.2226 20.6722 18.2103 20.8266 18.1798 20.9777C17.9104 21.1006 17.7455 21.1981 17.5826 21.2943C17.415 21.3933 17.2496 21.4911 16.9746 21.614C15.9272 22.0816 14.7887 22.6923 14.5866 23.5128C14.5324 23.7329 14.4495 24.1273 14.3569 24.5866ZM26.542 24.625C28.0834 24.535 29.4418 24.4007 30.473 24.2167C30.4382 23.4996 30.3979 22.6909 30.3971 22.6799C30.3971 22.6799 30.1587 22.0565 29.7808 21.993C29.4056 21.9443 29.0434 21.8231 28.7144 21.6361C28.4971 21.5074 28.2678 21.4 28.0298 21.3157C27.9077 21.2059 27.8133 21.069 27.7539 20.916C27.6288 20.7567 27.4642 20.6329 27.2765 20.5566L27.2626 20.0784L28.2497 19.7632C28.2497 19.7632 28.5043 19.6422 28.5291 19.6422C28.4897 19.5579 28.4442 19.4766 28.393 19.3987C28.3743 19.3479 28.2812 18.9991 28.2812 18.9991C28.4252 19.1873 28.5945 19.3544 28.7843 19.496C28.6162 19.1749 28.4723 18.8417 28.3539 18.4992C28.2748 18.182 28.2197 17.8594 28.1894 17.5339C28.1215 16.9291 28.0159 16.3292 27.8733 15.7375C27.7719 15.4436 27.5911 15.1833 27.3512 14.9855C26.9994 14.7358 26.5865 14.5861 26.1565 14.5523H26.107C25.6769 14.586 25.2641 14.7357 24.9124 14.9855C24.6727 15.1836 24.4921 15.4437 24.3905 15.7375C24.2475 16.3291 24.1419 16.9291 24.0742 17.5339C24.0482 17.8666 23.9957 18.1968 23.9174 18.5212C23.799 18.8577 23.6525 19.1837 23.4795 19.4958C23.6683 19.3535 23.8797 18.9974 23.8797 18.9974C23.8797 18.9974 23.8601 19.3801 23.8412 19.4312C23.7976 19.4973 23.761 19.5676 23.7319 19.6411C23.7564 19.6411 24.0114 19.7621 24.0114 19.7621L24.9981 20.0784L24.9839 20.5566C24.7963 20.6331 24.4008 20.9234 24.3328 21.0176C25.2318 21.3904 26.0575 22.1358 26.0788 22.7464C26.0829 22.7775 26.1304 22.9631 26.1968 23.223C26.2965 23.6137 26.4392 24.1722 26.542 24.625Z" fill="white"/>
</svg>
