<svg width="40" height="40" viewBox="0 0 40 40" fill="none" xmlns="http://www.w3.org/2000/svg">
<path d="M24.7865 24.5493C24.7865 24.5493 25.6874 27.9426 26.1472 30.2724C26.1957 30.518 26.0517 30.7598 25.8124 30.8333C23.1648 31.6463 20.1389 32.1091 16.9246 32.1136H16.8319C12.7813 32.108 9.03004 31.3744 5.95772 30.1296C5.7393 30.0411 5.61687 29.8097 5.66192 29.5783C5.98074 27.9412 6.37257 25.9809 6.56338 25.227C6.91537 23.8362 8.88758 22.8028 10.7016 22.0085C11.1758 21.801 11.4618 21.6353 11.7509 21.4678C12.0341 21.3038 12.3201 21.1381 12.7887 20.9298C12.8416 20.6741 12.8628 20.4129 12.852 20.1521L13.6558 20.0548C13.6558 20.0548 13.7614 20.2503 13.5915 19.1011C13.5915 19.1011 12.6894 18.8605 12.6475 17.0308C12.6475 17.0308 11.9698 17.2607 11.9289 16.1519C11.9206 15.9302 11.8646 15.7171 11.8109 15.5131C11.6824 15.0243 11.5675 14.5875 12.1548 14.2075L11.7308 13.0584C11.7308 13.0584 11.2858 8.61349 13.24 8.97515C12.4474 7.69816 19.1337 6.63554 19.5777 10.5506C19.7525 11.7308 19.7525 12.9302 19.5777 14.1103C19.5777 14.1103 20.5767 13.9937 19.9098 15.9264C19.9098 15.9264 19.5427 17.3157 18.9789 17.0021C18.9789 17.0021 19.0704 18.7604 18.1824 19.0583C18.1824 19.0583 18.2457 19.9946 18.2457 20.0583L18.9882 20.1735C18.9882 20.1735 18.9677 20.9541 19.1138 21.0387C19.7905 21.4837 20.5324 21.821 21.3129 22.0386C23.6181 22.6336 24.7865 23.6549 24.7865 24.5493Z" fill="white"/>
<path d="M35.0341 25.4238C35.0607 25.9534 35.0929 26.5923 35.1228 27.1928C35.134 27.4165 34.9952 27.6207 34.7819 27.6892C32.7768 28.3339 30.4556 28.8502 27.9141 29.203H27.1937C27.1504 28.5928 26.5977 26.4796 26.2769 25.2533C26.1498 24.7672 26.0591 24.4203 26.051 24.362C26.0097 23.207 24.9936 22.1755 23.2565 21.4706C23.3879 21.293 23.5005 21.1022 23.5925 20.9014C23.8361 20.5991 24.1537 20.3647 24.5146 20.2209L24.5423 19.3167L22.6353 18.7208C22.6353 18.7208 22.1451 18.4918 22.0964 18.4918C22.1528 18.3527 22.2234 18.2198 22.3072 18.0951C22.3437 17.9979 22.5745 17.2727 22.5745 17.2727C22.2968 17.6294 21.9711 17.946 21.6066 18.2138C21.9402 17.6245 22.2231 17.008 22.4523 16.3709C22.6035 15.7577 22.7047 15.1333 22.7551 14.5038C22.8857 13.3598 23.0897 12.2254 23.3656 11.1074C23.5637 10.5496 23.9127 10.0574 24.3739 9.6856C25.0553 9.21283 25.8507 8.93008 26.6781 8.86652H26.7755C27.6043 8.92955 28.4013 9.21231 29.0841 9.6856C29.5457 10.0567 29.895 10.5486 30.0928 11.1065C30.3685 12.2245 30.5726 13.3589 30.7038 14.5029C30.7626 15.1184 30.8689 15.7285 31.0217 16.3277C31.2508 16.976 31.5287 17.606 31.8533 18.2123C31.4881 17.9453 31.1617 17.6291 30.8835 17.2727C30.8835 17.2727 31.0631 17.9308 31.0991 18.0281C31.1978 18.175 31.2857 18.3288 31.362 18.4884C31.3148 18.4884 30.8231 18.7174 30.8231 18.7174L28.9161 19.3133L28.9434 20.218C29.3045 20.3614 29.6222 20.5959 29.8655 20.8985C29.9809 21.189 30.1636 21.448 30.3986 21.6544C30.8586 21.8144 31.3023 22.0182 31.7233 22.263C32.3608 22.6172 33.0603 22.8462 33.7841 22.9377C34.5144 23.0578 34.9749 24.2365 34.9749 24.2365C34.9749 24.2481 34.9999 24.7444 35.0339 25.4193L35.0341 25.4238Z" fill="white"/>
</svg>
