<svg width="40" height="40" viewBox="0 0 40 40" fill="none" xmlns="http://www.w3.org/2000/svg">
<path fill-rule="evenodd" clip-rule="evenodd" d="M10.5756 14.7921C10.5553 14.7801 10.5334 14.7704 10.5101 14.7634L7.10759 13.733C6.91495 13.6747 6.72064 13.8189 6.72064 14.0201V22.9079C6.72064 23.1092 6.91495 23.2533 7.10759 23.195L10.5101 22.1647C10.5293 22.1588 10.5476 22.1512 10.5648 22.142L12.6733 22.6993V28.9566C12.6733 29.5089 13.121 29.9566 13.6733 29.9566H22.7968C23.3491 29.9566 23.7968 29.5089 23.7968 28.9566V25.6395L32.5802 27.9612C32.9608 28.0618 33.3335 27.7748 33.3335 27.3811V10.7199C33.3335 10.3385 32.9824 10.0539 32.6094 10.1328L10.5756 14.7921ZM21.6052 25.0602L14.8649 23.2786V27.6984C14.8649 27.8641 14.9992 27.9984 15.1649 27.9984H21.3052C21.4709 27.9984 21.6052 27.8641 21.6052 27.6984V25.0602Z" fill="white"/>
</svg>
