<svg width="26" height="23" viewBox="0 0 26 23" fill="none" xmlns="http://www.w3.org/2000/svg">
<path fill-rule="evenodd" clip-rule="evenodd" d="M2.42969 0.714355C1.32512 0.714355 0.429688 1.60978 0.429688 2.71435V11.5455C0.429688 12.6501 1.32512 13.5455 2.42969 13.5455H4.43848V18.4806L9.44947 13.5455H16.4692C17.5738 13.5455 18.4692 12.6501 18.4692 11.5455V2.71436C18.4692 1.60979 17.5738 0.714355 16.4692 0.714355H2.42969ZM23.4841 6.63637C24.5886 6.63637 25.4841 7.5318 25.4841 8.63637V16.4805C25.4841 17.5851 24.5886 18.4805 23.4841 18.4805H21.4753V22.4286L17.4665 18.4805H11.4489C10.3443 18.4805 9.44889 17.5851 9.44889 16.4805V15.5195H17.478C19.1349 15.5195 20.478 14.1763 20.478 12.5195V6.63637H23.4841Z" fill="white"/>
</svg>
