<svg xmlns="http://www.w3.org/2000/svg" width="14" height="15" viewBox="0 0 14 15">
  <path fill="#626B77" fill-rule="evenodd" d="M13.0273438,2 L13.0273438,10.0446659 C13.0273438,11.1260357 12.1678135,12.0115643 11.0869235,12.0437782 L10.0407923,12.0749562 L9.9543256,14.6921559 L7.16476055,11.9859477 L2.02734375,11.9859477 C0.92277425,11.9859477 0.02734375,11.0905172 0.02734375,9.98594766 L0.02734375,2 C0.02734375,0.8954305 0.92277425,1.60739944e-14 2.02734375,1.5160575e-14 L11.0273438,1.68138481e-14 C12.1319132,1.68814835e-14 13.0273438,0.8954305 13.0273438,2 Z M11.0023832,2 L2.02734375,2 L2.02734375,10 L11.0023832,10 L11.0023832,2 Z M3.74950108,4 L9.30518642,4 L9.30518642,6 L3.74950108,6 L3.74950108,4 Z"/>
</svg>
