<svg xmlns="http://www.w3.org/2000/svg" width="12" height="12" viewBox="0 0 12 12">
  <path fill="#525C69" fill-rule="evenodd" d="M5.09864501,6.42035398 L5.09864501,3.25290174 L7.09463822,3.25290174 L7.09463822,6.42035398 L9.02296524,6.42035398 L6.09859404,9.34472518 L3.17422284,6.42035398 L5.09864501,6.42035398 Z M6.01316131,10.4978554 C3.67038518,10.4978554 1.7722584,8.59972858 1.7722584,6.25814774 C1.7722584,3.91537161 3.67158048,2.01724483 6.01316131,2.01724483 C8.35474215,2.01724483 10.2528689,3.91537161 10.2528689,6.25814774 C10.2528689,8.59972858 8.35474215,10.4978554 6.01316131,10.4978554 M6.01316131,0.353395655 C2.75120414,0.353395655 0.109604521,2.99738586 0.109604521,6.25814774 C0.109604521,9.51890962 2.75120414,12.1617045 6.01316131,12.1617045 C9.27392319,12.1617045 11.9167181,9.51890962 11.9167181,6.25814774 C11.9167181,2.99738586 9.27392319,0.353395655 6.01316131,0.353395655" transform="translate(-.109 -.299)"/>
</svg>
