<?xml version="1.0" encoding="UTF-8"?>
<svg width="13px" height="12px" viewBox="0 0 13 12" version="1.1" xmlns="http://www.w3.org/2000/svg" xmlns:xlink="http://www.w3.org/1999/xlink">
    <!-- Generator: Sketch 51.2 (57519) - http://www.bohemiancoding.com/sketch -->
    <title>переместить в папку</title>
    <desc>Created with Sketch.</desc>
    <defs></defs>
    <g id="Финал" stroke="none" stroke-width="1" fill="none" fill-rule="evenodd">
        <g id="01_Почта" transform="translate(-1102.000000, -163.000000)" fill="#646D7B">
            <g id="переместить-в-папку" transform="translate(1102.000000, 163.000000)">
                <path d="M2,2.1313586 L4.29680833,2.1313586 L6.48110708,0.407725757 C6.71050294,0.226709204 6.99419579,0.128258168 7.28641052,0.128258168 L11.1299435,0.128258168 C11.6753509,0.128258168 12.1865678,0.393944937 12.5,0.840296252 L12.6367629,1.03505711 C12.8731587,1.37170264 13,1.77305254 13,2.18440782 L13,9.91227175 C13,11.0168412 12.1045695,11.9122717 11,11.9122717 L2,11.9122717 C0.8954305,11.9122717 -3.27602566e-13,11.0168412 -3.27737837e-13,9.91227175 L1.17683641e-13,4.1313586 C1.68563219e-13,3.0267891 0.8954305,2.1313586 2,2.1313586 Z M1.99613113,3.82800293 L1.99613113,10.3486419 L11.0038689,10.3486419 L11.0038689,2.01342822 L7.46324884,2.01342822 L5.19183804,3.82800293 L1.99613113,3.82800293 Z M3.98795005,4.33154586 L6.6693051,7.0129009 L3.98795005,9.69425595 L3.98795005,4.33154586 Z" id="Combined-Shape"></path>
            </g>
        </g>
    </g>
</svg>