<svg xmlns="http://www.w3.org/2000/svg" width="14" height="14" viewBox="0 0 14 14">
<path fill="#525C69" d="M505,4 L505,6 L504,6 L504,10 L505,10 L505,12 L503,12 C502.447715,12 502,11.5522847 502,11 L502,5 C502,4.44771525 502.447715,4 503,4 L505,4 Z M509,4 L515,4 C515.552285,4 516,4.44771525 516,5 L516,11 C516,11.5522847 515.552285,12 515,12 L509,12 L509,10 L514,10 L514,6 L509,6 L509,4 Z M508,13 L509,13 C509.552285,13 510,13.4477153 510,14 C510,14.5522847 509.552285,15 509,15 L505,15 C504.447715,15 504,14.5522847 504,14 C504,13.4477153 504.447715,13 505,13 L506,13 L506,3 L505,3 C504.447715,3 504,2.55228475 504,2 C504,1.44771525 504.447715,1 505,1 L509,1 C509.552285,1 510,1.44771525 510,2 C510,2.55228475 509.552285,3 509,3 L508,3 L508,13 Z" transform="translate(-502 -1)"/>
</svg>