<svg width="15px" height="14px" viewBox="0 0 15 14" xmlns="http://www.w3.org/2000/svg">
	<path fill="#525C69" d="M2.13992502,2.69231071 C3.37372185,1.3472158 5.14588807,0.503960118 7.1150072,0.503960118 C10.8425578,0.503960118 13.8643346,3.5257369 13.8643346,7.25328747 C13.8643346,10.980838 10.8425578,14.0026148 7.1150072,14.0026148 C5.25863364,14.0026148 3.57730487,13.253159 2.35708581,12.0403123 L3.74404068,10.5883198 C4.603538,11.4570199 5.7964218,11.9952124 7.1150072,11.9952124 C9.7339,11.9952124 11.8569321,9.87218027 11.8569321,7.25328747 C11.8569321,4.63439468 9.7339,2.5113626 7.1150072,2.5113626 C5.70018964,2.5113626 4.43009093,3.13097771 3.56126667,4.11365236 L5.18602563,5.73841131 C5.26413049,5.81651617 5.26413049,5.94314917 5.18602563,6.02125403 C5.14851835,6.0587613 5.09764757,6.07983267 5.04460427,6.07983267 L0.269563049,6.07983267 C0.159106098,6.07983267 0.0695630464,5.99028962 0.0695630464,5.87983267 L0.0695630464,1.10479145 C0.0695630464,0.994334501 0.159106098,0.904791449 0.269563049,0.904791449 C0.322606348,0.904791449 0.373477131,0.925862818 0.410984408,0.963370094 L2.13992502,2.69231071 Z M5.99221164,4.78290753 C5.99221164,4.56199362 6.17129774,4.38290752 6.39221165,4.38290752 L7.41208846,4.38290752 C7.63300236,4.38290752 7.81208846,4.56199362 7.81208846,4.78290753 L7.81208846,6.6935611 C7.81208846,6.914475 7.99117457,7.0935611 8.21208847,7.0935611 L9.23109202,7.0935611 C9.45200592,7.0935611 9.63109202,7.27264721 9.63109202,7.49356111 L9.63109202,8.51256466 C9.63109202,8.73347856 9.45200592,8.91256466 9.23109202,8.91256466 L6.39221165,8.91256466 C6.17129774,8.91256466 5.99221164,8.73347856 5.99221164,8.51256466 L5.99221164,4.78290753 Z"></path>
</svg>