<svg width="12px" height="10px" viewBox="0 0 12 10" xmlns="http://www.w3.org/2000/svg">
    <g stroke="none" stroke-width="1" fill="none" fill-rule="evenodd">
        <g transform="translate(-84.000000, -438.000000)" fill="#525C69">
            <path d="M94,445.75 C94,445.888 93.953,446 93.895,446 L92.105,446 C92.047,446 92,445.888 92,445.75 L92,445.25 C92,445.112 92.047,445 92.105,445 L93.895,445 C93.953,445 94,445.112 94,445.25 L94,445.75 Z M91,445.75 C91,445.888 90.859,446 90.68425,446 L85.31575,446 C85.141,446 85,445.888 85,445.75 L85,445.25 C85,445.112 85.141,445 85.31575,445 L90.68425,445 C90.859,445 91,445.112 91,445.25 L91,445.75 Z M84.7058824,444 C84.3162353,444 84,444.448 84,445 L84,447 C84,447.553 84.3162353,448 84.7058824,448 L95.2941176,448 C95.6837647,448 96,447.553 96,447 L96,445 C96,444.448 95.6837647,444 95.2941176,444 L84.7058824,444 Z M95.2941176,443 C95.6837647,443 96,442.68 96,442.285714 C96,442.285714 94.272,438 93.8823529,438 L86.1176471,438 C85.728,438 84,442.285714 84,442.285714 C84,442.68 84.3162353,443 84.7058824,443 L95.2941176,443 Z"></path>
        </g>
    </g>
</svg>