<svg xmlns="http://www.w3.org/2000/svg" width="14" height="11" viewBox="0 0 14 11">
  <path fill="#646D7B" fill-rule="evenodd" d="M5.26630001,5.94126674 L2.73968037,3.4146471 L3.91004565,2.24428182 L6.43666529,4.77090146 L8.98723425,2.22033249 L10.1934856,3.42658383 L6.46214463,7.15792478 L5.2558933,5.95167345 L5.26630001,5.94126674 Z M2.02532665,0 L11.0253267,0 C12.1298962,7.78148667e-16 13.0253267,0.8954305 13.0253267,2 L13.0253267,8.91227175 C13.0253267,10.0168412 12.1298962,10.9122717 11.0253267,10.9122717 L2.02532665,10.9122717 C0.920757152,10.9122717 0.0253266517,10.0168412 0.0253266517,8.91227175 L0.0253266517,2 C0.0253266517,0.8954305 0.920757152,2.02906125e-16 2.02532665,0 Z M1.84962016,1.53132204 L1.84962016,9.3809497 L11.2010331,9.3809497 L11.2010331,1.53132204 L1.84962016,1.53132204 Z"/>
</svg>
