<svg width="14px" height="11px" viewBox="0 0 14 11" xmlns="http://www.w3.org/2000/svg">
	<path fill="#525C69" d="M8.19251905,4.2941164 C8.19251905,4.2941164 8.0907997,4.57942092 8.07470486,4.61766549 C8.03778917,4.66669095 8.00665058,4.71898061 7.98178402,4.77370336 C8.0032438,4.77370336 8.21934378,4.86376933 8.21934378,4.86376933 L9.05992334,5.09820857 L9.04769126,5.45388311 C8.88861406,5.51046998 8.74861734,5.60268051 8.64124304,5.72159512 C8.60070462,5.80059597 8.55108174,5.87563796 8.49317056,5.9455171 C9.25885549,6.22279027 9.70672109,6.6285652 9.7249619,7.08291074 C9.73740857,7.16379801 10.2020128,8.65208561 10.2286229,8.9872993 L13.7658384,8.9872993 C13.7688427,8.97334003 13.6585395,7.04791695 13.6585395,7.03357524 C13.6585395,7.03357524 13.4555299,6.56985978 13.1336333,6.52262773 C12.8145997,6.48663073 12.5062512,6.39653637 12.2252408,6.25721038 C12.0396577,6.16092151 11.8441185,6.08074924 11.6413202,6.01779935 C11.5377315,5.93661423 11.4572039,5.83471381 11.4063356,5.72044779 C11.299111,5.60139426 11.1590697,5.50915436 10.9998874,5.45273577 L10.9878699,5.09687001 L11.8284495,4.86243077 C11.8284495,4.86243077 12.0451932,4.7723648 12.0660092,4.7723648 C12.0323404,4.7095875 11.9936114,4.64906638 11.9501264,4.59127674 C11.9342462,4.55303216 11.8550596,4.2941164 11.8550596,4.2941164 C11.9777212,4.43432022 12.1215805,4.5587129 12.2825384,4.66375021 C12.1394894,4.42524465 12.0169599,4.1774093 11.9160054,3.92237914 C11.8486273,3.68666656 11.8017772,3.44666954 11.775873,3.20452848 C11.7180147,2.75452824 11.6280593,2.30826735 11.5065528,1.86845429 C11.4193436,1.64901618 11.2653979,1.45549824 11.0619062,1.30950984 C10.7609217,1.12332493 10.4096257,1.01209385 10.0442834,0.987299302 C10.0374163,0.987299302 10.0307638,0.987299302 10.0228236,0.987299302 C10.0148835,0.987299302 10.0088748,0.987299302 10.0013639,0.987299302 C9.63666732,1.01230324 9.28605411,1.12352922 8.9856725,1.30950984 C8.78237719,1.45577995 8.62854198,1.64938474 8.54124047,1.86883673 C8.41960605,2.30861609 8.32972003,2.75488839 8.27213483,3.20491093 C8.24993079,3.45254556 8.20529207,3.69817494 8.13865501,3.93939797 C8.03765239,4.19000534 7.91295237,4.43251837 7.76589864,4.66432387 C7.92655554,4.55901258 8.07011887,4.43443295 8.19251905,4.2941164 Z M10.0192947,10.5703457 C10.0192947,9.97508377 9.2544728,7.45782183 9.2544728,7.45782183 C9.2544728,7.08978353 8.70424124,6.6695398 7.61868023,6.42471433 C7.25115085,6.33517407 6.90179262,6.19637195 6.58309859,6.01327151 C6.51431965,5.97846789 6.5239487,5.65723446 6.5239487,5.65723446 L6.1743224,5.60982953 C6.1743224,5.5836268 6.14451819,5.19838672 6.14451819,5.19838672 C6.56269417,5.07577396 6.5195927,4.35229867 6.5195927,4.35229867 C6.78507943,4.4813121 6.95794384,3.90965261 6.95794384,3.90965261 C7.27203435,3.11436986 6.80158637,3.16237485 6.80158637,3.16237485 C6.88388116,2.67676356 6.88388116,2.18323373 6.80158637,1.69762244 C6.59249838,0.086654802 3.44379831,0.523900301 3.81703871,1.04935498 C2.89677643,0.900539493 3.10632295,2.72952981 3.10632295,2.72952981 L3.30601115,3.20237902 C2.91397117,3.42400208 3.18633579,3.69263003 3.19963305,4.00246227 C3.21889116,4.45870975 3.53802546,4.3640999 3.53802546,4.3640999 C3.55774209,5.11697825 3.9825667,5.21598855 3.9825667,5.21598855 C4.06257954,5.68883775 4.01282944,5.60842938 4.01282944,5.60842938 L3.63431598,5.64843355 C3.6394241,5.75577335 3.62941456,5.86325442 3.60451177,5.96846685 C3.15859495,6.14168487 3.06368001,6.24329545 2.62166066,6.41231304 C1.76742617,6.73914704 0.838681152,7.16439129 0.672923896,7.73665084 C0.50716664,8.30891039 0.0192946602,10.5703457 0.0192946602,10.5703457 L10.0188361,10.5703457 L10.0192947,10.5703457 Z"></path>
</svg>