<svg width="11px" height="11px" viewBox="0 0 11 11" xmlns="http://www.w3.org/2000/svg">
    <g transform="translate(-256.000000, -87.000000)" fill-rule="nonzero">
        <g transform="translate(235.000000, 64.000000)">
            <g transform="translate(21.000000, 20.000000)">
                <path fill="#525C69" d="M8.891509,9.7818946 C8.293384,9.7818946 7.752789,10.0323866 7.369109,10.4332749 L4.189009,8.84351489 C4.2070556,8.73266176 4.2169391,8.61793681 4.2169391,8.49978001 C4.2169391,8.38162321 4.20705626,8.26732724 4.18858,8.15604513 L7.36912,6.56628508 C7.752833,6.96759143 8.293373,7.2180944 8.89152,7.2180944 C10.05598,7.2180944 11,6.272818 11,5.10926719 C11,3.94529841 10.05598,3 8.89152,3 C7.7275,3 6.78392,3.94527641 6.78392,5.10926719 C6.78392,5.22742399 6.79380284,5.33827712 6.81142,5.45300207 L3.63132,7.0432021 C3.247178,6.64189576 2.707067,6.39139278 2.10848,6.39139278 C0.94402,6.39139278 0,7.33666919 0,8.50021999 C0,9.66418878 0.94402,10.6094872 2.10848,10.6094872 C2.707034,10.6094872 3.2472,10.3585662 3.63132,9.95767786 L6.81098,11.5474379 C6.7933624,11.6621629 6.78348,11.7764478 6.78348,11.8911728 C6.78348,13.0547016 7.727071,14 8.89108,14 C10.05554,14 10.99956,13.0547236 10.99956,11.8911728 C10.99956,10.727204 10.055969,9.7819056 8.89152,9.7819056 L8.891509,9.7818946 Z" id="111"></path>
            </g>
        </g>
    </g>
</svg>