<svg width="12px" height="12px" viewBox="0 0 12 12" xmlns="http://www.w3.org/2000/svg" xmlns:xlink="http://www.w3.org/1999/xlink">
    <g stroke="none" stroke-width="1" fill="none" fill-rule="evenodd">
		<path fill="#525C69" d="M1.00156067,11.9999535 C0.448042722,11.9999535 -1.42108547e-14,11.5747336 -1.42108547e-14,11.0494114 L-1.42108547e-14,2.51145045 C0.000933362598,1.98878156 0.448042722,1.56444617 0.998764888,1.56356172 L2.31768318,1.56356172 L2.31768318,0.948773196 C2.31768318,0.425219845 2.76479398,0.000884457277 3.31644807,0.000884457277 C3.86810216,0.000884457277 4.31521296,0.425219845 4.31521296,0.948773196 L4.31521296,1.55913943 L7.6465002,1.55913943 L7.6465002,0.948773196 C7.6465002,0.424335387 8.09454292,-2.5243549e-29 8.64619702,-2.5243549e-29 C9.19878304,-2.5243549e-29 9.64682576,0.424335387 9.64682576,0.948773196 L9.64682576,1.55913943 L10.9918859,1.55913943 C11.2588476,1.55736779 11.5155343,1.65658621 11.7050265,1.83554367 C11.8945115,2.01448979 12.0009259,2.25811014 11.9999939,2.51147313 L11.9999939,11.049434 C11.9999939,11.302797 11.8935844,11.5455239 11.7040946,11.7244791 C11.5155439,11.9025407 11.2588476,12.0017677 10.9918859,11.9999762 L1.00156067,11.9999535 Z M10,3.99409729 L2,3.99409729 L2,10.0576965 L10,10.0576965 L10,3.99409729 Z"></path>
    </g>
</svg>