<svg width="10px" height="13px" viewBox="0 0 10 13" xmlns="http://www.w3.org/2000/svg">
    <g transform="translate(-497.000000, -84.000000)">
        <g transform="translate(235.000000, 64.000000)">
            <g transform="translate(21.000000, 20.000000)">
                <g transform="translate(133.000000, 0.000000)">
                    <path fill="#525C69" d="M112,1 L112,0 L114,0 L114,1 L116.5,1 C117.328427,1 118,1.67157288 118,2.5 L118,3 L108,3 L108,2.5 C108,1.67157288 108.671573,1 109.5,1 L112,1 Z M109,4 L117,4 L116.281019,12.0885398 C116.235158,12.6044774 115.802918,13 115.284946,13 L110.715054,13 C110.197082,13 109.764842,12.6044774 109.718981,12.0885398 L109,4 Z"></path>
                </g>
            </g>
        </g>
    </g>
</svg>