<svg width="13px" height="12px" viewBox="0 0 13 12" xmlns="http://www.w3.org/2000/svg">
    <g fill="none" fill-rule="evenodd">
		<path fill="#525C69" d="M6.27311111,8.09276488 L6.26234231,8.10353368 L3.20469729,5.04588865 L4.48586052,3.76472542 L6.28270586,5.56157076 L11.3488787,0.618991728 L12.6561661,1.9262792 L6.30391134,8.12356511 L6.27311111,8.09276488 Z M7,0.0829584402 L7,2.12601749 C6.68038008,2.043753 6.34529957,2 6,2 C3.790861,2 2,3.790861 2,6 C2,8.209139 3.790861,10 6,10 C8.209139,10 10,8.209139 10,6 L12,6 C12,9.3137085 9.3137085,12 6,12 C2.6862915,12 0,9.3137085 0,6 C0,2.6862915 2.6862915,0 6,0 C6.34071221,0 6.67479153,0.0283987962 7,0.0829584402 Z"></path>
    </g>
</svg>