<svg xmlns="http://www.w3.org/2000/svg" width="11" height="14" viewBox="0 0 11 14">
  <path fill="#626B77" d="M6.16513348,3.03298162 L6.16513348,-5.77315973e-15 L10.330267,4.16513348 L6.16513348,8.33026695 L6.16513348,4.63355215 C6.05971511,4.62494774 5.95310329,4.62056146 5.84546699,4.62056146 C3.70424994,4.62056146 1.96845056,6.35636084 1.96845056,8.49757789 C1.96845056,10.6387949 3.70424994,12.3745943 5.84546699,12.3745943 C7.24616306,12.3745943 8.47337126,11.6318045 9.15467766,10.5186387 L10.1538557,11.5178168 C9.17081581,13.0101922 7.48017369,13.9951558 5.559481,13.9951558 C2.52325257,13.9951558 0.0619031121,11.5338063 0.0619031121,8.49757789 C0.0619031121,5.46134946 2.52325257,3 5.559481,3 C5.76417059,3 5.96624741,3.01118654 6.16513348,3.03298162 Z" transform="matrix(-1 0 0 1 11 0)"/>
</svg>
