<svg width="12px" height="12px" viewBox="0 0 12 12" xmlns="http://www.w3.org/2000/svg">
    <g stroke="none" stroke-width="1" fill="none">
        <g transform="translate(-83.000000, -365.000000)" fill="#525C69">
            <path d="M87.1750513,374.56038 C87.7222093,374.841402 88.3425834,375 89,375 C91.209139,375 93,373.209139 93,371 C93,370.342583 92.8414022,369.722209 92.5603802,369.175051 L87.1750513,374.56038 Z M85.510922,372.957557 L90.9575569,367.510922 C90.3789015,367.185568 89.7111216,367 89,367 C86.790861,367 85,368.790861 85,371 C85,371.711122 85.1855682,372.378902 85.510922,372.957557 Z M89,377 C85.6862915,377 83,374.313708 83,371 C83,367.686292 85.6862915,365 89,365 C92.3137085,365 95,367.686292 95,371 C95,374.313708 92.3137085,377 89,377 Z"></path>
        </g>
    </g>
</svg>