<svg width="12px" height="12px" viewBox="0 0 12 12" xmlns="http://www.w3.org/2000/svg" xmlns:xlink="http://www.w3.org/1999/xlink">
    <g stroke="none" stroke-width="1" fill="none" fill-rule="evenodd">
        <g transform="translate(-454.000000, -164.000000)" fill="#525C69">
            <g transform="translate(235.000000, 141.000000)">
                <g transform="translate(218.891059, 22.701389)">
                    <path d="M6.10152285,10.4978554 C3.75874672,10.4978554 1.86061994,8.59972858 1.86061994,6.25814774 C1.86061994,3.91537161 3.75994201,2.01724483 6.10152285,2.01724483 C8.44310369,2.01724483 10.3412305,3.91537161 10.3412305,6.25814774 C10.3412305,8.59972858 8.44310369,10.4978554 6.10152285,10.4978554 M6.10152285,0.353395655 C2.83956568,0.353395655 0.197966059,2.99738586 0.197966059,6.25814774 C0.197966059,9.51890962 2.83956568,12.1617045 6.10152285,12.1617045 C9.36228473,12.1617045 12.0050796,9.51890962 12.0050796,6.25814774 C12.0050796,2.99738586 9.36228473,0.353395655 6.10152285,0.353395655"></path>
                    <rect id="Rectangle-9" x="3.00610533" y="5.3160145" width="6.12221873" height="1.9959932"></rect>
                </g>
            </g>
        </g>
    </g>
</svg>