<svg xmlns="http://www.w3.org/2000/svg" width="12" height="13" viewBox="0 0 12 13">
  <path fill="#626B77" d="M6.00780085,12.9006348 C2.70366565,12.9006348 0.0251348376,10.222104 0.0251348376,6.91796875 C0.0251348376,3.61383355 2.70366565,0.935302734 6.00780085,0.935302734 C9.31193606,0.935302734 11.9904669,3.61383355 11.9904669,6.91796875 C11.9904669,10.222104 9.31193606,12.9006348 6.00780085,12.9006348 Z M6.00780085,11.3735259 C8.46853709,11.3735259 10.463358,9.37870499 10.463358,6.91796875 C10.463358,4.45723251 8.46853709,2.46241165 6.00780085,2.46241165 C3.54706461,2.46241165 1.55224375,4.45723251 1.55224375,6.91796875 C1.55224375,9.37870499 3.54706461,11.3735259 6.00780085,11.3735259 Z M5.17993164,3.96405654 L8.10430284,6.88842773 L5.17993164,9.81279893 L5.17993164,3.96405654 Z"/>
</svg>
