<svg width="14px" height="11px" viewBox="0 0 14 11" xmlns="http://www.w3.org/2000/svg">
	<rect fill="#525C69" transform="translate(7.587367, 5.345101) rotate(-90.000000) translate(-7.587367, -5.345101) " x="6.32253348" y="2.34510098" width="2.52966669" height="6"></rect>
	<polygon fill="#525C69" transform="translate(11.587367, 5.520283) rotate(-90.000000) translate(-11.587367, -5.520283) " points="11.5873668 7.52028277 7.35056951 3.52028277 15.8241641 3.52028277"></polygon>
	<path fill="#525C69" d="M6.58736682,9 L2.58736682,9 C2.5409919,9.1720618 2.44889523,9.0769726 2.58736682,9 L2.58736682,2 C2.44889523,2.01609343 2.5409919,1.92201582 2.58736682,2 L6.58736682,2 L6.58736682,0 L1.58736682,0 C0.878353106,0 0.587366822,0.299429833 0.587366822,1 L0.587366822,10 C0.587366822,10.6995586 0.878353106,11 1.58736682,11 L6.58736682,11 L6.58736682,9 Z"></path>
</svg>