<svg xmlns="http://www.w3.org/2000/svg" width="12" height="13" viewBox="0 0 12 13">
	<path fill="#525C69" fill-rule="evenodd" d="M230,11 L230,5 C230,3.8954305 229.104569,3 228,3 L223,3 C223,1.8954305 223.895431,1 225,1 L230,1 C231.104569,1 232,1.8954305 232,3 L232,9 C232,10.1045695 231.104569,11 230,11 Z M222,4 L227,4 C228.104569,4 229,4.8954305 229,6 L229,12 C229,13.1045695 228.104569,14 227,14 L222,14 C220.895431,14 220,13.1045695 220,12 L220,6 C220,4.8954305 220.895431,4 222,4 Z" opacity=".9" transform="translate(-220 -1)"/>
</svg>