<svg width="11px" height="14px" viewBox="0 0 11 14" xmlns="http://www.w3.org/2000/svg">
    <g transform="translate(-745.000000, -85.000000)" >
        <g transform="translate(235.000000, 64.000000)">
            <g transform="translate(21.000000, 20.000000)">
                <g transform="translate(133.000000, 0.000000)">
                    <path fill="#525C69" d="M359,7 L359,4 L363,8 L359,12 L359,9 L356,9 L356,7 L359,7 Z M356,12 L358,12 L358,13 L365,13 L365,12 L365,4 L365,3 L358,3 L358,4 L356,4 L356,3 C356,1.8954305 356.895431,1 358,1 L365,1 C366.104569,1 367,1.8954305 367,3 L367,13 C367,14.1045695 366.104569,15 365,15 L358,15 C356.895431,15 356,14.1045695 356,13 L356,12 Z" id="Combined-Shape"></path>
                </g>
            </g>
        </g>
    </g>
</svg>