<svg width="15px" height="12px" viewBox="0 0 15 12" xmlns="http://www.w3.org/2000/svg" xmlns:xlink="http://www.w3.org/1999/xlink">
    <path d="M12.9928294,6.87900629 L12.9928294,10 C12.9928294,11.1045695 12.0973989,12 10.9928294,12 L2.99282939,12 C1.88825989,12 0.992829389,11.1045695 0.992829389,10 L0.992829389,2 C0.992829389,0.8954305 1.88825989,-8.02423455e-16 2.99282939,-7.34788079e-16 L9.88500026,5.31283169e-16 L7.88500026,2 L2.96786887,2 L2.96786887,10 L10.9678689,10 L10.9678689,6.85182349 L11.9939405,7.87789515 L12.9928294,6.87900629 Z"></path>
    <g stroke="none" stroke-width="1" fill="none" fill-rule="evenodd">
        <path d="M8.67067863,7.24086289 L8.68243613,7.25262039 L7.27565326,8.65940327 L7.26389576,8.64764577 L7.22453529,8.68700624 L5.77461725,7.2370882 L5.81397772,7.19772773 L3.83857039,5.2223204 L5.24535327,3.81553753 L7.2207606,5.79094486 L12.7831544,0.228551023 L14.2330725,1.67846906 L8.67067863,7.24086289 Z" id="Combined-Shape" fill="#525C69"></path>
        <mask fill="white">
            <use xlink:href="#path-1"></use>
        </mask>
        <use id="Combined-Shape" fill="#525C69" xlink:href="#path-1"></use>
    </g>
</svg>