<svg width="867" height="500" viewBox="0 0 867 500" fill="none" xmlns="http://www.w3.org/2000/svg">
<path fill-rule="evenodd" clip-rule="evenodd" d="M0 0L867 0L867 500L0 500L0 0Z"/>
<mask id="mask0" mask-type="alpha" maskUnits="userSpaceOnUse" x="0" y="0" width="867" height="500">
<path fill-rule="evenodd" clip-rule="evenodd" d="M0 0L867 0L867 500L0 500L0 0Z" fill="white"/>
</mask>
<g mask="url(#mask0)">
<g opacity="0.4">
<path fill-rule="evenodd" clip-rule="evenodd" d="M304.92 279.599C310.036 279.93 314.25 276.102 314.442 270.951C314.628 265.984 311.047 262.007 306.13 261.724C300.94 261.423 296.735 265.194 296.562 270.305C296.397 275.156 300.113 279.288 304.92 279.599M265.445 279.615C270.58 279.619 274.496 275.575 274.393 270.373C274.293 265.436 270.465 261.701 265.499 261.697C260.329 261.693 256.354 265.749 256.494 270.883C256.625 275.73 260.603 279.61 265.445 279.615M309.583 292.875C305.28 303.98 297.645 310.787 285.445 310.791C273.265 310.796 265.781 303.736 261.369 292.945C259.699 293.401 258.464 293.751 257.223 294.074C255.819 294.442 254.266 294.49 253.377 295.907C258.486 311.887 272.154 321.008 289.04 319.72C302.592 318.687 315.419 307.572 317.595 294.731C316.106 294.239 314.584 293.648 313.014 293.25C311.974 292.989 310.864 293.004 309.583 292.875M285.613 335.768C258.14 335.835 236.157 314.035 235.969 286.537C235.781 258.884 257.925 236.447 285.44 236.414C312.807 236.381 335.373 258.995 335.28 286.359C335.187 313.61 312.981 335.702 285.613 335.768M285.394 227.442C253.161 227.468 226.649 254.067 226.717 286.312C226.784 318.502 253.505 345.121 285.643 345.019C317.887 344.915 344.36 318.302 344.283 286.064C344.206 253.761 317.743 227.419 285.394 227.442" fill="white"/>
</g>
<g opacity="0.4">
<path fill-rule="evenodd" clip-rule="evenodd" d="M822.339 162.024C842.316 163.319 858.771 148.371 859.523 128.254C860.249 108.858 846.262 93.3277 827.064 92.22C806.796 91.0471 790.375 105.773 789.697 125.73C789.053 144.674 803.566 160.812 822.339 162.024M668.183 162.086C688.237 162.103 703.529 146.313 703.124 125.996C702.737 106.717 687.785 92.1299 668.396 92.1169C648.206 92.0995 632.68 107.938 633.228 127.99C633.741 146.917 649.275 162.069 668.183 162.086M840.547 213.87C823.744 257.237 793.927 283.818 746.284 283.835C698.72 283.852 669.494 256.281 652.265 214.144C645.745 215.925 640.92 217.289 636.074 218.553C630.593 219.987 624.53 220.178 621.057 225.708C641.007 288.114 694.382 323.731 760.324 318.7C813.247 314.669 863.336 271.264 871.834 221.116C866.018 219.196 860.076 216.889 853.943 215.334C849.884 214.313 845.55 214.374 840.547 213.87M746.94 381.37C639.654 381.631 553.811 296.501 553.076 189.117C552.342 81.1293 638.816 -6.48953 746.266 -6.61551C853.138 -6.74583 941.26 81.5637 940.894 188.422C940.534 294.842 853.816 381.114 746.94 381.37M746.084 -41.6532C620.213 -41.5533 516.679 62.3209 516.944 188.241C517.209 313.944 621.556 417.896 747.058 417.496C872.976 417.092 976.354 313.166 976.054 187.272C975.754 61.1262 872.411 -41.7444 746.084 -41.6532" fill="white"/>
</g>
</g>
</svg>
