<svg width="24" height="24" viewBox="0 0 24 24" fill="none" xmlns="http://www.w3.org/2000/svg">
	<path fill-rule="evenodd" clip-rule="evenodd" d="M14.0503 15.8863C13.0477 16.5447 11.8481 16.9276 10.559 16.9276C7.04148 16.9276 4.18994 14.0761 4.18994 10.5585C4.18994 7.04099 7.04148 4.18945 10.559 4.18945C14.0766 4.18945 16.9281 7.04099 16.9281 10.5585C16.9281 11.8476 16.5452 13.0472 15.8868 14.0498L19.1972 17.3602C19.5877 17.7507 19.5877 18.3839 19.1972 18.7744L18.7749 19.1967C18.3844 19.5873 17.7512 19.5873 17.3607 19.1967L14.0503 15.8863ZM15.1084 10.5585C15.1084 13.0711 13.0716 15.1079 10.559 15.1079C8.0465 15.1079 6.00968 13.0711 6.00968 10.5585C6.00968 8.04601 8.0465 6.00919 10.559 6.00919C13.0716 6.00919 15.1084 8.04601 15.1084 10.5585Z" fill="#BDC1C6"/>
</svg>
