<?xml version="1.0" encoding="UTF-8"?>
<svg width="49px" height="45px" viewBox="0 0 49 45" version="1.1" xmlns="http://www.w3.org/2000/svg" xmlns:xlink="http://www.w3.org/1999/xlink">
    <title>icon 02</title>
    <g id="Page-1" stroke="none" stroke-width="1" fill="none" fill-rule="evenodd">
        <g id="Размещение-формы-01" transform="translate(-332.000000, -307.000000)">
            <g id="Group-2" transform="translate(28.000000, 283.000000)">
                <rect id="Rectangle" stroke-opacity="0.424825175" stroke="#525C69" fill="#FFFFFF" opacity="0.498834" x="287.5" y="6.5" width="79" height="79" rx="4"></rect>
                <g id="Icons-/-Type-1-/-Icon-/-g-18" transform="translate(298.000000, 16.000000)" fill="#2FC6F6">
                    <path d="M52,8 C53.6568542,8 55,9.34314575 55,11 L55,50 C55,51.6568542 53.6568542,53 52,53 L9,53 C7.34314575,53 6,51.6568542 6,50 L6,11 C6,9.34314575 7.34314575,8 9,8 L52,8 Z M52,16 L9,16 L9,49.6 C9,49.7932997 9.1371128,49.9545749 9.31938605,49.9918734 L9.4,50 L51.6,50 C51.7932997,50 51.9545749,49.8628872 51.9918734,49.680614 L52,49.6 L52,16 Z M27.0409375,21.9707707 C29.5556396,21.9738701 31.7758342,23.2443544 33.1101212,25.1835101 C33.7437471,24.9566971 34.4258274,24.8334196 35.136424,24.8337981 C38.2754814,24.8376158 40.8536909,27.255189 41.1525718,30.3468615 C44.1603264,31.0093428 46.4111451,33.7165209 46.4084887,36.9532802 C46.4054225,40.6833483 43.4107993,43.7050914 39.7188045,43.7035457 C39.5893551,43.7035457 39.460766,43.6997207 39.3331361,43.6923344 L22.5334994,43.6923344 C22.3897501,43.6923344 22.24724,43.6869735 22.1061545,43.6764387 C18.3093842,43.5890956 15.2581779,40.4523346 15.2581779,36.5957594 C15.2592818,34.7160477 15.9994312,32.9137671 17.3158016,31.5853989 C17.9905562,30.9044945 18.7883785,30.3766986 19.6563893,30.0241032 C19.6418678,29.8328281 19.634473,29.6395381 19.6344729,29.4445038 C19.6356687,27.4611382 20.4166623,25.5594862 21.805644,24.1578896 C23.1946256,22.7562929 25.0778171,21.9695632 27.0409375,21.9707707 Z M26.6498699,29.8206581 C24.9443042,31.5956818 24.4884202,34.2289937 25.498018,36.4740717 C26.5076158,38.7191498 28.780121,40.1255218 31.2398053,40.0274582 C34.5029726,39.9606784 37.095123,37.2629644 37.0316629,33.9997308 C37.0315174,31.5380925 35.5356017,29.3235049 33.2520324,28.4042801 C30.968463,27.4850552 28.3554355,28.0456343 26.6498699,29.8206581 Z M31.8760972,29.9962958 L31.8760972,33.106056 L34.5265488,33.106056 L34.5265488,34.8730238 L30.1091294,34.8730238 L30.1091294,29.9962958 L31.8760972,29.9962958 Z M12.0924072,10.0966797 C11.0804021,10.0966797 10.2600098,10.917072 10.2600098,11.9290771 C10.2600098,12.9410823 11.0804021,13.7614746 12.0924072,13.7614746 C13.1044124,13.7614746 13.9248047,12.9410823 13.9248047,11.9290771 C13.9248047,10.917072 13.1044124,10.0966797 12.0924072,10.0966797 Z M16.9622803,10.0966797 C15.9502751,10.0966797 15.1298828,10.917072 15.1298828,11.9290771 C15.1298828,12.9410823 15.9502751,13.7614746 16.9622803,13.7614746 C17.9742854,13.7614746 18.7946777,12.9410823 18.7946777,11.9290771 C18.7946777,10.917072 17.9742854,10.0966797 16.9622803,10.0966797 Z M21.9622803,10.0966797 C20.9502751,10.0966797 20.1298828,10.917072 20.1298828,11.9290771 C20.1298828,12.9410823 20.9502751,13.7614746 21.9622803,13.7614746 C22.9742854,13.7614746 23.7946777,12.9410823 23.7946777,11.9290771 C23.7946777,10.917072 22.9742854,10.0966797 21.9622803,10.0966797 Z" id="Combined-Shape"></path>
                </g>
            </g>
        </g>
    </g>
</svg>