<?xml version="1.0" encoding="UTF-8"?>
<svg width="49px" height="45px" viewBox="0 0 49 45" version="1.1" xmlns="http://www.w3.org/2000/svg" xmlns:xlink="http://www.w3.org/1999/xlink">
    <title>icon 02</title>
    <g id="Page-1" stroke="none" stroke-width="1" fill="none" fill-rule="evenodd">
        <g id="Размещение-формы-01" transform="translate(-197.000000, -142.000000)">
            <g id="Group-2" transform="translate(41.000000, 114.000000)">
                <rect id="Rectangle" stroke-opacity="0.424825175" stroke="#525C69" fill="#FFFFFF" opacity="0.498834" x="140.5" y="10.5" width="79" height="79" rx="3"></rect>
                <g id="Icons-/-Type-1-/-Icon-/-g-11" transform="translate(150.000000, 20.000000)" fill="#2FC6F6">
                    <path d="M52,8 C53.6568542,8 55,9.34314575 55,11 L55,50 C55,51.6568542 53.6568542,53 52,53 L9,53 C7.34314575,53 6,51.6568542 6,50 L6,11 C6,9.34314575 7.34314575,8 9,8 L52,8 Z M52,16 L9,16 L9,49.6 C9,49.7932997 9.1371128,49.9545749 9.31938605,49.9918734 L9.4,50 L51.6,50 C51.7932997,50 51.9545749,49.8628872 51.9918734,49.680614 L52,49.6 L52,16 Z M21,31 L21,33 L17,33 L17,31 L21,31 Z M26.7,31 L26.7,33 L22.7,33 L22.7,31 L26.7,31 Z M32.4000001,31 L32.4000001,33 L28.4000001,33 L28.4000001,31 L32.4000001,31 Z M38.1000001,31 L38.1000001,33 L34.1000001,33 L34.1000001,31 L38.1000001,31 Z M43.8000002,31 L43.8000002,33 L39.8000002,33 L39.8000002,31 L43.8000002,31 Z M43,25 C43.5522847,25 44,25.4477153 44,26 L44,28 C44,28.5522847 43.5522847,29 43,29 L18,29 C17.4477153,29 17,28.5522847 17,28 L17,26 C17,25.4477153 17.4477153,25 18,25 L43,25 Z M12.0924072,10.0966797 C11.0804021,10.0966797 10.2600098,10.917072 10.2600098,11.9290771 C10.2600098,12.9410823 11.0804021,13.7614746 12.0924072,13.7614746 C13.1044124,13.7614746 13.9248047,12.9410823 13.9248047,11.9290771 C13.9248047,10.917072 13.1044124,10.0966797 12.0924072,10.0966797 Z M16.9622803,10.0966797 C15.9502751,10.0966797 15.1298828,10.917072 15.1298828,11.9290771 C15.1298828,12.9410823 15.9502751,13.7614746 16.9622803,13.7614746 C17.9742854,13.7614746 18.7946777,12.9410823 18.7946777,11.9290771 C18.7946777,10.917072 17.9742854,10.0966797 16.9622803,10.0966797 Z M21.9622803,10.0966797 C20.9502751,10.0966797 20.1298828,10.917072 20.1298828,11.9290771 C20.1298828,12.9410823 20.9502751,13.7614746 21.9622803,13.7614746 C22.9742854,13.7614746 23.7946777,12.9410823 23.7946777,11.9290771 C23.7946777,10.917072 22.9742854,10.0966797 21.9622803,10.0966797 Z" id="Combined-Shape"></path>
                </g>
            </g>
        </g>
    </g>
</svg>