<?xml version="1.0" encoding="UTF-8"?>
<svg width="49px" height="45px" viewBox="0 0 49 45" version="1.1" xmlns="http://www.w3.org/2000/svg" xmlns:xlink="http://www.w3.org/1999/xlink">
    <title>icon 04</title>
    <g id="Page-1" stroke="none" stroke-width="1" fill="none" fill-rule="evenodd">
        <g id="Размещение-формы-01" transform="translate(-466.000000, -307.000000)">
            <g id="Group-2" transform="translate(28.000000, 283.000000)">
                <rect id="Rectangle" stroke-opacity="0.424825175" stroke="#525C69" fill="#FFFFFF" opacity="0.498834" x="422.5" y="6.5" width="79" height="79" rx="4"></rect>
                <g id="Icons-/-Type-1-/-Icon-/-g-17" transform="translate(432.000000, 16.000000)" fill="#2FC6F6">
                    <path d="M52,8 C53.6568542,8 55,9.34314575 55,11 L55,50 C55,51.6568542 53.6568542,53 52,53 L9,53 C7.34314575,53 6,51.6568542 6,50 L6,11 C6,9.34314575 7.34314575,8 9,8 L52,8 Z M52,16 L9,16 L9,49.6 C9,49.7932997 9.1371128,49.9545749 9.31938605,49.9918734 L9.4,50 L51.6,50 C51.7932997,50 51.9545749,49.8628872 51.9918734,49.680614 L52,49.6 L52,16 Z M41.4194448,23.9516973 C43.835814,26.6442076 43.7359558,37.4335438 41.4194448,39.2159667 C40.093676,40.2361351 34.4361888,40.8631848 29.361115,40.7697366 C27.5855998,42.3524567 24.6875423,44.8787395 24.2782797,44.8787395 C23.8292783,44.8787395 23.7185221,41.7833853 23.6912793,40.2568583 C22.4483566,40.0083358 21.4945488,39.6653562 21.009767,39.2159667 C18.4580266,36.8509674 18.8454795,26.4790589 21.009767,23.9516973 C23.1739769,21.4243334 39.0030723,21.259182 41.4194448,23.9516973 Z M29.1840356,34.6600842 C28.4207318,34.6600842 27.8017232,35.2791109 27.8017232,36.0431061 C27.8017232,36.8064099 28.42075,37.4254185 29.1840356,37.4254185 C29.9480489,37.4254185 30.5670575,36.8063917 30.5670575,36.0431061 C30.5670575,35.2790927 29.9480307,34.6600842 29.1840356,34.6600842 Z M34.0601631,34.6600842 C33.2968593,34.6600842 32.6778507,35.2791109 32.6778507,36.0431061 C32.6778507,36.8064099 33.2968774,37.4254185 34.0601631,37.4254185 C34.8241764,37.4254185 35.443185,36.8063917 35.443185,36.0431061 C35.443185,35.2790927 34.8241582,34.6600842 34.0601631,34.6600842 Z M25.74823,25.1630522 L23.746909,25.1630522 L23.658375,25.170196 C23.3990336,25.2124969 23.2010942,25.4375664 23.2010942,25.708867 C23.2010942,25.9801677 23.3990336,26.2052371 23.658375,26.247538 L23.746909,26.2546818 L25.311942,26.2546818 L27.0765976,33.6231816 L27.1056983,33.7113053 C27.1778967,33.8800448 27.3310958,34.0014058 27.5116306,34.0334187 L27.6039275,34.0417852 L35.6799049,34.0417852 L35.7722019,34.0334179 C35.9527369,34.0014032 36.1059369,33.8800405 36.1781346,33.7113036 L36.2072347,33.6231816 L37.2263801,27.9645376 L37.2404407,27.8666727 C37.2473318,27.7358375 37.2071915,27.6056389 37.1247512,27.5004495 C37.042879,27.395835 36.9259815,27.3253376 36.7969835,27.3009599 L36.6983243,27.2915116 L26.676388,27.3100693 L26.2762694,25.5816558 L26.2469631,25.4935321 C26.1623815,25.2966694 25.9683662,25.164294 25.74823,25.1630522 Z M12.0924072,10.0966797 C11.0804021,10.0966797 10.2600098,10.917072 10.2600098,11.9290771 C10.2600098,12.9410823 11.0804021,13.7614746 12.0924072,13.7614746 C13.1044124,13.7614746 13.9248047,12.9410823 13.9248047,11.9290771 C13.9248047,10.917072 13.1044124,10.0966797 12.0924072,10.0966797 Z M16.9622803,10.0966797 C15.9502751,10.0966797 15.1298828,10.917072 15.1298828,11.9290771 C15.1298828,12.9410823 15.9502751,13.7614746 16.9622803,13.7614746 C17.9742854,13.7614746 18.7946777,12.9410823 18.7946777,11.9290771 C18.7946777,10.917072 17.9742854,10.0966797 16.9622803,10.0966797 Z M21.9622803,10.0966797 C20.9502751,10.0966797 20.1298828,10.917072 20.1298828,11.9290771 C20.1298828,12.9410823 20.9502751,13.7614746 21.9622803,13.7614746 C22.9742854,13.7614746 23.7946777,12.9410823 23.7946777,11.9290771 C23.7946777,10.917072 22.9742854,10.0966797 21.9622803,10.0966797 Z" id="Combined-Shape"></path>
                </g>
            </g>
        </g>
    </g>
</svg>