<?xml version="1.0" encoding="UTF-8"?>
<svg width="49px" height="45px" viewBox="0 0 49 45" version="1.1" xmlns="http://www.w3.org/2000/svg" xmlns:xlink="http://www.w3.org/1999/xlink">
    <title>icon 02</title>
    <g id="Page-1" stroke="none" stroke-width="1" fill="none" fill-rule="evenodd">
        <g id="Размещение-формы-01" transform="translate(-62.000000, -473.000000)">
            <g id="Group-2" transform="translate(28.000000, 283.000000)">
                <rect id="Rectangle" stroke-opacity="0.424825175" stroke="#525C69" fill="#FFFFFF" opacity="0.498834" x="18.5" y="172.5" width="79" height="79" rx="4"></rect>
                <g id="Icons-/-Type-1-/-Icon-/-g-16" transform="translate(28.000000, 182.000000)" fill="#2FC6F6">
                    <path d="M52,8 C53.6568542,8 55,9.34314575 55,11 L55,50 C55,51.6568542 53.6568542,53 52,53 L9,53 C7.34314575,53 6,51.6568542 6,50 L6,11 C6,9.34314575 7.34314575,8 9,8 L52,8 Z M52,16 L9,16 L9,49.6 C9,49.7932997 9.1371128,49.9545749 9.31938605,49.9918734 L9.4,50 L51.6,50 C51.7932997,50 51.9545749,49.8628872 51.9918734,49.680614 L52,49.6 L52,16 Z M22.6039837,22.9707846 C27.8518139,22.9707846 32.1060208,27.2249915 32.1060208,32.4728217 C32.1060208,37.720652 27.8518139,41.9748589 22.6039837,41.9748589 C17.3561535,41.9748589 13.1019465,37.720652 13.1019465,32.4728217 C13.1019465,27.2249915 17.3561535,22.9707846 22.6039837,22.9707846 Z M41,35 C41.5522847,35 42,35.4477153 42,36 L42,37 C42,37.5522847 41.5522847,38 41,38 L36,38 C35.4477153,38 35,37.5522847 35,37 L35,36 C35,35.4477153 35.4477153,35 36,35 L41,35 Z M19.2104105,27.0436196 C17.6516475,28.5332736 16.9716435,31.121019 20.3908646,34.735913 C23.8100377,38.3508203 26.4072871,37.7725448 27.9660565,36.282915 C28.3520295,35.9247151 28.3494694,35.3159509 27.9864518,34.9568185 L27.8962926,34.8786008 L26.4053576,33.7614699 C25.9111807,33.3901654 25.1936073,33.5323105 24.7859024,33.996874 L24.7034743,34.1012887 L24.2614817,34.7278132 C24.166391,34.8575878 23.970482,34.8983131 23.8340748,34.8195543 C22.4663217,33.9273288 21.296839,32.6822186 20.4873641,31.2614336 C20.4212116,31.1353361 20.4412,30.9762735 20.5388373,30.8757021 L20.5940873,30.8307141 L21.2200134,30.4129366 C21.7429582,30.0639131 21.978767,29.3762482 21.7109574,28.8309736 L21.6457823,28.7164838 L20.6030381,27.1914788 C20.2870387,26.7218063 19.6256076,26.658007 19.2104105,27.0436196 Z M46,30 C46.5522847,30 47,30.4477153 47,31 L47,32 C47,32.5522847 46.5522847,33 46,33 L36,33 C35.4477153,33 35,32.5522847 35,32 L35,31 C35,30.4477153 35.4477153,30 36,30 L46,30 Z M46,25 C46.5522847,25 47,25.4477153 47,26 L47,27 C47,27.5522847 46.5522847,28 46,28 L36,28 C35.4477153,28 35,27.5522847 35,27 L35,26 C35,25.4477153 35.4477153,25 36,25 L46,25 Z M12.0924072,10.0966797 C11.0804021,10.0966797 10.2600098,10.917072 10.2600098,11.9290771 C10.2600098,12.9410823 11.0804021,13.7614746 12.0924072,13.7614746 C13.1044124,13.7614746 13.9248047,12.9410823 13.9248047,11.9290771 C13.9248047,10.917072 13.1044124,10.0966797 12.0924072,10.0966797 Z M16.9622803,10.0966797 C15.9502751,10.0966797 15.1298828,10.917072 15.1298828,11.9290771 C15.1298828,12.9410823 15.9502751,13.7614746 16.9622803,13.7614746 C17.9742854,13.7614746 18.7946777,12.9410823 18.7946777,11.9290771 C18.7946777,10.917072 17.9742854,10.0966797 16.9622803,10.0966797 Z M21.9622803,10.0966797 C20.9502751,10.0966797 20.1298828,10.917072 20.1298828,11.9290771 C20.1298828,12.9410823 20.9502751,13.7614746 21.9622803,13.7614746 C22.9742854,13.7614746 23.7946777,12.9410823 23.7946777,11.9290771 C23.7946777,10.917072 22.9742854,10.0966797 21.9622803,10.0966797 Z" id="Combined-Shape"></path>
                </g>
            </g>
        </g>
    </g>
</svg>