<svg width="24" height="24" viewBox="0 0 24 24" fill="none" xmlns="http://www.w3.org/2000/svg">
<path d="M17.0001 3.95898C17.0001 3.68284 17.224 3.45898 17.5001 3.45898H18.5001C18.7763 3.45898 19.0001 3.68284 19.0001 3.95898V6H21.0009C21.277 6 21.5009 6.22386 21.5009 6.5V7.5C21.5009 7.77614 21.277 8 21.0009 8H19.0001V10.041C19.0001 10.3172 18.7763 10.541 18.5001 10.541H17.5001C17.224 10.541 17.0001 10.3172 17.0001 10.041V8H14.9994C14.7232 8 14.4994 7.77614 14.4994 7.5V6.5C14.4994 6.22386 14.7232 6 14.9994 6H17.0001V3.95898Z" fill="#8DBB00"/>
<path d="M18.1608 13C18.8126 13 19.4403 12.897 20.0286 12.7063V15.7328C20.0286 16.4063 19.4826 16.9523 18.8091 16.9523H12.5055L9.00883 20.4485C8.75684 20.7005 8.32601 20.522 8.32601 20.1656V16.9523H6.20189C5.5284 16.9523 4.98242 16.4063 4.98242 15.7328V7.30638C4.98242 6.63289 5.5284 6.08691 6.20189 6.08691H12.1681C12.1282 6.36779 12.1075 6.65487 12.1075 6.94678C12.1075 10.2899 14.8177 13 18.1608 13Z" fill="#8DBB00"/>
</svg>
