<svg width="48" height="48" viewBox="0 0 48 48" fill="none" xmlns="http://www.w3.org/2000/svg" xmlns:xlink="http://www.w3.org/1999/xlink">
	<path d="M15.7477 13C14.2302 13 13 14.2329 13 15.7537V28.1641C13 29.6849 14.2302 30.9178 15.7477 30.9178H20.2754V27.816H16.0944V16.1005H27.7843V20.671H30.8788V15.7537C30.8788 14.2329 29.6486 13 28.1311 13H15.7477Z" fill="white"/>
	<path fill-rule="evenodd" clip-rule="evenodd" d="M22.7174 25.4443C22.7174 23.9234 23.9476 22.6906 25.4651 22.6906H32.2523C33.7698 22.6906 35 23.9234 35 25.4443V32.2463C35 33.7671 33.7698 35 32.2523 35H25.4651C23.9476 35 22.7174 33.7671 22.7174 32.2463V25.4443ZM25.392 25.3717H32.3249V32.3197H25.392V25.3717Z" fill="white"/>
</svg>
