<svg width="43" height="45" viewBox="0 0 43 45" fill="none" xmlns="http://www.w3.org/2000/svg">
<g id="collab icon">
<path id="Polygon 9" opacity="0.2" d="M17.8571 1.45446C19.8019 0.331602 22.1981 0.331602 24.1429 1.45446L37.2215 9.00538C39.1663 10.1282 40.3644 12.2034 40.3644 14.4491V29.5509C40.3644 31.7966 39.1663 33.8718 37.2215 34.9946L24.1429 42.5455C22.1981 43.6684 19.8019 43.6684 17.8571 42.5455L4.7785 34.9946C2.83365 33.8718 1.63558 31.7966 1.63558 29.5509V14.4491C1.63558 12.2034 2.83365 10.1282 4.7785 9.00538L17.8571 1.45446Z" stroke="white" stroke-width="1.10833"/>
<g id="Icon">
<path d="M22.6133 13.2329C21.6151 12.6565 20.3852 12.6565 19.387 13.2329L14.2147 16.2191C13.2164 16.7954 12.6015 17.8605 12.6015 19.0132V24.9857C12.6015 26.1383 13.2164 27.2034 14.2147 27.7797L19.387 30.7659C20.3852 31.3423 21.6151 31.3423 22.6133 30.7659L27.7856 27.7797C28.7838 27.2034 29.3988 26.1383 29.3988 24.9857V19.0132C29.3988 17.8605 28.7838 16.7954 27.7856 16.2191L22.6133 13.2329Z" fill="url(#paint0_linear_3638_80741)"/>
<path fill-rule="evenodd" clip-rule="evenodd" d="M17.7675 7.70236C19.7679 6.54745 22.2324 6.54745 24.2328 7.70236L31.7652 12.0512C33.7656 13.2061 34.9978 15.3405 34.9978 17.6503V26.348C34.9978 28.6578 33.7656 30.7922 31.7652 31.9471L24.2328 36.2959C22.2324 37.4508 19.7679 37.4508 17.7675 36.2959L10.2351 31.9471C8.23471 30.7922 7.00244 28.6578 7.00244 26.348V17.6503C7.00244 15.3405 8.23471 13.2061 10.2351 12.0512L17.7675 7.70236ZM22.8328 10.1272L30.3652 14.4761C31.4992 15.1308 32.1978 16.3408 32.1978 17.6503V26.348C32.1978 27.6575 31.4992 28.8675 30.3652 29.5222L22.8328 33.8711C21.6987 34.5258 20.3015 34.5258 19.1675 33.8711L11.6351 29.5222C10.501 28.8675 9.80244 27.6575 9.80244 26.348V17.6503C9.80244 16.3408 10.501 15.1308 11.6351 14.4761L19.1675 10.1272C20.3015 9.4725 21.6987 9.4725 22.8328 10.1272Z" fill="url(#paint1_linear_3638_80741)"/>
</g>
<g id="play icon">
<g id="Ellipse 5817" opacity="0.9" filter="url(#filter0_d_3638_80741)">
<circle cx="32.2734" cy="32" r="7.72656" fill="url(#paint2_linear_3638_80741)"/>
</g>
<path id="Rectangle 3468553" d="M31.7267 34.9593C31.2627 35.2832 30.626 34.9512 30.626 34.3853L30.626 29.5436C30.626 28.9777 31.2627 28.6457 31.7267 28.9697L35.194 31.3905C35.593 31.6691 35.593 32.2598 35.194 32.5384L31.7267 34.9593Z" fill="url(#paint3_linear_3638_80741)"/>
</g>
</g>
<defs>
<filter id="filter0_d_3638_80741" x="21.5469" y="23.2734" width="21.4531" height="21.4531" filterUnits="userSpaceOnUse" color-interpolation-filters="sRGB">
<feFlood flood-opacity="0" result="BackgroundImageFix"/>
<feColorMatrix in="SourceAlpha" type="matrix" values="0 0 0 0 0 0 0 0 0 0 0 0 0 0 0 0 0 0 127 0" result="hardAlpha"/>
<feOffset dy="2"/>
<feGaussianBlur stdDeviation="1.5"/>
<feComposite in2="hardAlpha" operator="out"/>
<feColorMatrix type="matrix" values="0 0 0 0 0 0 0 0 0 0 0 0 0 0 0 0 0 0 0.1 0"/>
<feBlend mode="normal" in2="BackgroundImageFix" result="effect1_dropShadow_3638_80741"/>
<feBlend mode="normal" in="SourceGraphic" in2="effect1_dropShadow_3638_80741" result="shape"/>
</filter>
<linearGradient id="paint0_linear_3638_80741" x1="11.1229" y1="10.5209" x2="30.768" y2="36.6229" gradientUnits="userSpaceOnUse">
<stop stop-color="white"/>
<stop offset="0.06" stop-color="#A2FFB9"/>
<stop offset="0.14" stop-color="white"/>
<stop offset="0.465" stop-color="white"/>
<stop offset="0.515" stop-color="#A2FFB9"/>
<stop offset="0.63" stop-color="white"/>
<stop offset="1" stop-color="#A2FFB9"/>
</linearGradient>
<linearGradient id="paint1_linear_3638_80741" x1="11.1229" y1="10.5209" x2="30.768" y2="36.6229" gradientUnits="userSpaceOnUse">
<stop stop-color="white"/>
<stop offset="0.06" stop-color="#A2FFB9"/>
<stop offset="0.14" stop-color="white"/>
<stop offset="0.465" stop-color="white"/>
<stop offset="0.515" stop-color="#A2FFB9"/>
<stop offset="0.63" stop-color="white"/>
<stop offset="1" stop-color="#A2FFB9"/>
</linearGradient>
<linearGradient id="paint2_linear_3638_80741" x1="32.2734" y1="24.2734" x2="32.2734" y2="39.7266" gradientUnits="userSpaceOnUse">
<stop stop-color="white"/>
<stop offset="1" stop-color="#F4F4F4"/>
</linearGradient>
<linearGradient id="paint3_linear_3638_80741" x1="33.321" y1="28.2012" x2="33.321" y2="35.7278" gradientUnits="userSpaceOnUse">
<stop stop-color="#00BCF8"/>
<stop offset="1" stop-color="#00A7DC"/>
</linearGradient>
</defs>
</svg>
