<svg width="48" height="48" viewBox="0 0 48 48" fill="none" xmlns="http://www.w3.org/2000/svg">
<path fill-rule="evenodd" clip-rule="evenodd" d="M23.9999 47.9999C37.2547 47.9999 47.9998 37.2548 47.9998 24C47.9998 10.7452 37.2547 9.15527e-05 23.9999 9.15527e-05C10.7451 9.15527e-05 0 10.7452 0 24C0 37.2548 10.7451 47.9999 23.9999 47.9999ZM26.0309 10.2512L38.3502 30.7699C39.3196 32.3856 38.1482 34.4253 36.2902 34.4253H11.6516C9.77341 34.4253 8.60206 32.3856 9.57145 30.7699L21.8908 10.2512C22.8198 8.67591 25.0817 8.67591 26.0309 10.2512ZM23.8299 15.7646C22.9211 15.7646 22.194 16.4916 22.194 17.4004V23.5197C22.194 24.4285 22.9211 25.1555 23.8299 25.1555H24.052C24.9608 25.1555 25.6878 24.4285 25.6878 23.5197V17.4004C25.6878 16.4916 24.9608 15.7646 24.052 15.7646H23.8299ZM23.951 31.3354C25.0819 31.3354 26.0109 30.4064 26.0109 29.2754C26.0109 28.1445 25.0819 27.2155 23.951 27.2155C22.82 27.2155 21.891 28.1445 21.891 29.2754C21.891 30.4064 22.82 31.3354 23.951 31.3354Z" fill="#D5D7DB"/>
</svg>
