<svg width="28" height="28" viewBox="0 0 28 28" fill="none" xmlns="http://www.w3.org/2000/svg">
	<path fill-rule="evenodd" clip-rule="evenodd" d="M18.5963 7.89818H21.6647V7.90984C22.0497 7.90984 22.3647 8.22484 22.3647 8.60984C22.3647 8.99484 22.0497 9.30984 21.6647 9.30984H6.53301C6.14801 9.30984 5.83301 8.99484 5.83301 8.60984C5.83301 8.22484 6.14801 7.90984 6.53301 7.90984H9.57801L9.97467 5.90318C10.2547 4.47984 11.503 3.46484 12.9497 3.46484H15.178C16.6013 3.46484 17.838 4.45651 18.1413 5.84484L18.5963 7.89818ZM11.3513 6.17151L11.0363 7.74651V7.75818H17.1263L16.7763 6.14818C16.613 5.40151 15.948 4.86484 15.178 4.86484H12.9497C12.1797 4.86484 11.503 5.41318 11.3513 6.17151Z" fill="#525C69" fill-opacity="0.4"/>
	<path d="M12.0861 20.6155C12.4711 20.6155 12.7861 20.3005 12.7861 19.9155V14.7822C12.7861 14.3972 12.4711 14.0822 12.0861 14.0822C11.7011 14.0822 11.3861 14.3972 11.3861 14.7822V19.9155C11.3861 20.3005 11.7011 20.6155 12.0861 20.6155Z" fill="#525C69" fill-opacity="0.4"/>
	<path d="M16.5549 19.9155C16.5549 20.3005 16.2399 20.6155 15.8549 20.6155C15.4699 20.6155 15.1549 20.3005 15.1549 19.9155V14.7822C15.1549 14.3972 15.4699 14.0822 15.8549 14.0822C16.2399 14.0822 16.5549 14.3972 16.5549 14.7822V19.9155Z" fill="#525C69" fill-opacity="0.4"/>
	<path fill-rule="evenodd" clip-rule="evenodd" d="M7.52494 10.5002H20.3699C21.0816 10.5002 21.6299 11.1302 21.5249 11.8302L19.9849 22.3652C19.8216 23.5085 18.8299 24.3602 17.6749 24.3602H10.0916C8.92494 24.3602 7.93327 23.4968 7.7816 22.3418L6.36994 11.8185C6.2766 11.1185 6.81327 10.5002 7.52494 10.5002ZM17.6749 22.9602C18.1416 22.9602 18.5266 22.6218 18.5966 22.1668H18.6083L20.1016 11.9002H7.79327L9.16994 22.1552C9.22827 22.6102 9.62494 22.9602 10.0916 22.9602H17.6749Z" fill="#525C69" fill-opacity="0.4"/>
</svg>
