<svg width="867" height="500" viewBox="0 0 867 500" fill="none" xmlns="http://www.w3.org/2000/svg">
<path fill-rule="evenodd" clip-rule="evenodd" d="M0 0L867 0L867 500L0 500L0 0Z"/>
<mask id="mask0" mask-type="alpha" maskUnits="userSpaceOnUse" x="0" y="0" width="867" height="500">
<path fill-rule="evenodd" clip-rule="evenodd" d="M0 0L867 0L867 500L0 500L0 0Z" fill="white"/>
</mask>
<g mask="url(#mask0)">
<g opacity="0.4">
<path fill-rule="evenodd" clip-rule="evenodd" d="M282.711 277.096V311.774H290.984V276.696C287.952 276.61 285.259 276.019 282.711 277.096M264.891 277.036V311.879C267.944 312.093 270.608 312.472 273.122 311.668V276.696C270.175 276.573 267.629 276.126 264.891 277.036M247.235 276.941V311.914C250.177 312.065 252.718 312.478 255.411 311.619V276.753C252.43 276.511 249.768 276.174 247.235 276.941M322.504 296.227C322.472 305.227 318.771 308.369 309.427 307.144V259.23C318.741 258.01 322.478 261.19 322.505 270.156C322.531 278.846 322.535 287.537 322.504 296.227M300.238 314.565C300.205 322.26 297.099 325.419 289.517 325.445C275.623 325.492 261.728 325.513 247.834 325.433C241.766 325.398 238.057 322.22 238 316.517C237.827 299.686 237.937 282.853 237.937 265.336C250.36 269.709 260.958 267.611 270.645 260.248C271.674 259.465 272.742 258.758 274.149 258.762C282.63 258.782 291.111 258.77 300.25 258.77V280.681C300.25 291.975 300.287 303.27 300.238 314.565M249.808 236.469C262.778 236.456 275.747 236.448 288.717 236.47C297.763 236.488 300.858 240.07 299.776 249.767H269.883C263.795 254.281 257.941 259.18 249.596 258.761C240.385 258.3 237.84 256.002 237.92 247.333C237.993 239.378 241.149 236.477 249.808 236.469M331.376 267.694C331.216 257.581 323.986 250.356 313.864 249.809C312.436 249.73 310.904 250.232 309.5 249.186C309.398 248.703 309.215 248.185 309.188 247.66C308.491 233.694 302.14 227.58 288.276 227.571C274.938 227.562 261.599 227.528 248.261 227.581C236.424 227.629 229.069 234.834 229.036 246.524C228.973 269.482 228.974 292.44 229.036 315.399C229.068 327.103 236.407 334.298 248.246 334.343C261.585 334.395 274.922 334.361 288.261 334.354C301.008 334.348 306.8 329.632 309.532 316.698C310.824 316.64 311.736 316.589 312.647 316.56C324.231 316.188 331.316 309.113 331.397 297.688C331.47 287.689 331.532 277.689 331.376 267.694" fill="white"/>
</g>
<g opacity="0.4">
<path fill-rule="evenodd" clip-rule="evenodd" d="M735.609 152.251V287.671H767.916V150.687C756.076 150.352 745.558 148.046 735.609 152.251M666.021 152.016V288.084C677.943 288.918 688.345 290.399 698.163 287.259V150.687C686.654 150.209 676.713 148.463 666.021 152.016M597.071 151.647V288.219C608.559 288.81 618.482 290.421 629.001 287.068V150.913C617.356 149.966 606.964 148.65 597.071 151.647M891.005 226.959C890.879 262.106 876.427 274.374 839.938 269.591V82.4814C876.309 77.716 890.905 90.1355 891.009 125.148C891.109 159.084 891.127 193.024 891.005 226.959M804.054 298.57C803.924 328.622 791.797 340.959 762.189 341.059C707.931 341.242 653.669 341.324 599.412 341.011C575.714 340.877 561.232 328.466 561.006 306.194C560.332 240.469 560.762 174.731 560.762 106.326C609.274 123.402 650.661 115.209 688.489 86.4564C692.51 83.3982 696.678 80.6397 702.172 80.6527C735.292 80.7309 768.413 80.6875 804.102 80.6875V166.252C804.102 210.356 804.246 254.461 804.054 298.57M607.118 -6.40214C657.768 -6.45427 708.413 -6.48468 759.063 -6.3978C794.388 -6.3283 806.475 7.65944 802.25 45.5262H685.516C661.74 63.1543 638.878 82.2853 606.292 80.652C570.32 78.8492 560.384 69.8745 560.697 36.0215C560.979 4.95746 573.306 -6.37174 607.118 -6.40214M925.652 115.535C925.026 76.0439 896.791 47.8295 857.264 45.6922C851.687 45.3838 845.706 47.343 840.221 43.2596C839.825 41.3743 839.108 39.35 839.004 37.2996C836.283 -17.2395 811.482 -41.1143 757.341 -41.149C705.253 -41.1838 653.164 -41.3184 601.08 -41.1099C554.854 -40.9231 526.133 -12.7869 526.002 32.8643C525.754 122.516 525.759 212.172 526.002 301.828C526.128 347.532 554.785 375.629 601.019 375.807C653.107 376.011 705.192 375.877 757.281 375.851C807.061 375.824 829.681 357.41 840.347 306.902C845.393 306.676 848.953 306.477 852.513 306.364C897.747 304.908 925.417 277.28 925.734 232.663C926.017 193.619 926.26 154.566 925.652 115.535" fill="white"/>
</g>
</g>
</svg>
