<svg width="18" height="18" viewBox="0 0 18 18" fill="none" xmlns="http://www.w3.org/2000/svg">
<path fill-rule="evenodd" clip-rule="evenodd" d="M15.1227 0.543758C15.3101 0.356919 15.5682 0.25408 15.8144 0.351222C16.0823 0.456928 16.4681 0.675249 16.919 1.12617C17.3639 1.57109 17.6242 2.00137 17.7726 2.31665C17.9148 2.61891 17.8125 2.95954 17.5759 3.19537L9.66029 11.0855C9.66029 11.0855 9.51383 10.4897 8.63966 9.61551C7.7655 8.74135 7.12109 8.51956 7.12109 8.51956L15.1227 0.543758ZM5.94244 11.9431L6.70737 9.10552C6.70737 9.10552 7.50008 9.44345 8.10934 10.0215C8.71859 10.5995 9.10164 11.4991 9.10164 11.4991L6.26316 12.2638C6.17226 12.2895 6.07621 12.2638 6.00933 12.1969C5.94415 12.13 5.91843 12.034 5.94244 11.9431ZM9.19331 0.601614C10.1512 0.601614 10.6309 1.75975 9.95359 2.43709C9.75195 2.63873 9.47847 2.752 9.19331 2.752H3.56641C3.01412 2.752 2.56641 3.19972 2.56641 3.752V14.2526C2.56641 14.8049 3.01412 15.2526 3.56641 15.2526H14.067C14.6193 15.2526 15.067 14.8049 15.067 14.2526V9.64858C15.067 9.36334 15.1803 9.08978 15.382 8.88809C16.0595 8.21056 17.218 8.69042 17.218 9.64858V14.4016C17.218 16.0585 15.8748 17.4016 14.218 17.4016H3.41797C1.76112 17.4016 0.417969 16.0585 0.417969 14.4016V3.60162C0.417969 1.94476 1.76111 0.601614 3.41797 0.601614H9.19331Z" fill="#00ADE3"/>
</svg>
