<svg width="31" height="30" viewBox="0 0 31 30" fill="none" xmlns="http://www.w3.org/2000/svg">
	<path fill-rule="evenodd" clip-rule="evenodd" d="M18.2147 14.7462C19.7428 14.7462 21.0352 13.7378 21.463 12.3501H23.4037C24.0613 12.3501 24.5944 11.817 24.5944 11.1594C24.5944 10.5018 24.0613 9.96875 23.4037 9.96875H21.3218C20.793 8.77893 19.6008 7.94922 18.2147 7.94922C16.8287 7.94922 15.6365 8.77893 15.1077 9.96875H7.21787C6.56028 9.96875 6.02719 10.5018 6.02719 11.1594C6.02719 11.817 6.56028 12.3501 7.21788 12.3501H14.9665C15.3942 13.7378 16.6867 14.7462 18.2147 14.7462ZM18.2149 12.6839C18.9528 12.6839 19.551 12.0857 19.551 11.3478C19.551 10.6099 18.9528 10.0117 18.2149 10.0117C17.4769 10.0117 16.8788 10.6099 16.8788 11.3478C16.8788 12.0857 17.4769 12.6839 18.2149 12.6839ZM12.4021 16.7167C10.8741 16.7167 9.58164 17.7251 9.15391 19.1128H7.21315C6.55555 19.1128 6.02246 19.6459 6.02246 20.3035C6.02246 20.9611 6.55555 21.4941 7.21315 21.4941L9.29506 21.4941C9.8239 22.684 11.0161 23.5137 12.4021 23.5137C13.7882 23.5137 14.9804 22.684 15.5092 21.4941L23.399 21.4941C24.0566 21.4941 24.5897 20.9611 24.5897 20.3035C24.5897 19.6459 24.0566 19.1128 23.399 19.1128L15.6504 19.1128C15.2226 17.7251 13.9302 16.7167 12.4021 16.7167ZM12.4 18.8003C11.6739 18.8003 11.0853 19.3889 11.0853 20.115C11.0853 20.8411 11.6739 21.4297 12.4 21.4297C13.1261 21.4297 13.7147 20.8411 13.7147 20.115C13.7147 19.3889 13.1261 18.8003 12.4 18.8003Z" fill="#00ACE3"/>
</svg>