<?xml version="1.0" encoding="UTF-8"?>
<svg width="16px" height="16px" viewBox="0 0 16 16" version="1.1" xmlns="http://www.w3.org/2000/svg" xmlns:xlink="http://www.w3.org/1999/xlink">
    <title>Oval</title>
    <g id="03-Финал-(Разное)" stroke="none" stroke-width="1" fill="none" fill-rule="evenodd">
        <g id="Divider-01-b" transform="translate(-11.000000, -9.000000)">
            <g id="Group-5" transform="translate(11.000000, 6.000000)">
                <circle id="Oval" fill="#2FC6F6" cx="8" cy="11" r="8"></circle>
                <g id="Icons-/-·-Set-2-/-Icon-18" transform="translate(3.557656, 6.175136)"></g>
                <path d="M11.043391,6.92603314 C11.5956758,6.92603314 12.043391,7.37374839 12.043391,7.92603314 L12.043391,13.981977 C12.043391,14.5342618 11.5956758,14.981977 11.043391,14.981977 L4.95418074,14.981977 C4.40189599,14.981977 3.95418074,14.5342618 3.95418074,13.981977 L3.95418074,7.92603314 C3.95418074,7.37374839 4.40189599,6.92603314 4.95418074,6.92603314 L11.043391,6.92603314 Z M9.15706885,10.9964903 L5.6856954,10.9964903 L5.6856954,12.1964903 L9.15706885,12.1964903 L9.15706885,10.9964903 Z M10.4035819,9.02022677 L5.65647217,9.02022677 L5.65647217,10.2202268 L10.4035819,10.2202268 L10.4035819,9.02022677 Z" id="Combined-Shape" fill="#FFFFFF" opacity="0.900000036"></path>
            </g>
        </g>
    </g>
</svg>