<svg width="867" height="500" viewBox="0 0 867 500" fill="none" xmlns="http://www.w3.org/2000/svg">
<path fill-rule="evenodd" clip-rule="evenodd" d="M0 0L867 0L867 500L0 500L0 0Z"/>
<mask id="mask0" mask-type="alpha" maskUnits="userSpaceOnUse" x="0" y="0" width="867" height="500">
<path fill-rule="evenodd" clip-rule="evenodd" d="M0 0L867 0L867 500L0 500L0 0Z" fill="white"/>
</mask>
<g mask="url(#mask0)">
<g opacity="0.4">
<path fill-rule="evenodd" clip-rule="evenodd" d="M227.596 243.282C227.657 256.448 235.546 266.38 246.967 267.436C242.905 259.646 240.761 251.361 239.117 242.979C234.892 242.947 231.222 242.472 227.596 243.282V243.282ZM331.902 243.066C330.35 251.766 327.699 260.029 323.601 268.101C336.994 264.623 344.371 255.087 343.18 243.066H331.902ZM273.626 327.225H297.525C298.393 323.874 296.769 321.641 294.845 319.884C288.1 313.722 288.903 306.913 292.715 299.723C296.283 292.989 300.988 287.01 305.372 280.821C312.239 271.134 318.531 261.151 321.591 249.514C322.876 244.626 324.109 239.688 322.79 234.796H248.039C247.283 241.496 248.679 247.478 250.553 253.394C254.618 266.224 262.344 276.994 269.954 287.829C273.606 293.027 277.405 298.146 279.785 304.101C282.912 311.923 281.906 316.32 275.837 322.008C274.426 323.33 272.816 324.574 273.626 327.225V327.225ZM217.914 234.101H238.239C238.239 234.101 238.213 228.559 239.406 225.945H332.037C332.267 228.538 332.48 230.93 332.744 233.889H352.558C355.884 245.266 348.867 263.874 339.063 270.444C333.155 274.403 326.675 277.217 319.875 279.243C317.197 280.041 315.282 281.466 313.731 283.822C309.85 289.721 305.664 295.419 301.76 301.305C299.917 304.083 298.248 307.043 298.648 311.189C306.157 317.476 308.077 326.023 306.584 335.979H264.874C262.771 325.722 264.371 320.863 272.182 313.69C273.386 310.447 272.055 307.539 270.55 304.72C266.206 296.591 260.252 289.525 255.305 281.793C254.247 280.14 252.486 279.806 250.854 279.17C247.074 277.698 243.209 276.395 239.559 274.647C223.867 267.132 215.891 252.427 217.914 234.101V234.101Z" fill="white"/>
</g>
<g opacity="0.4">
<path fill-rule="evenodd" clip-rule="evenodd" d="M520.377 26.2037C520.618 77.6194 551.424 116.405 596.024 120.528C580.161 90.1087 571.79 57.7542 565.367 25.0185C548.87 24.8942 534.537 23.042 520.377 26.2037V26.2037ZM927.703 25.3616C921.645 59.3363 911.293 91.6037 895.288 123.125C947.588 109.542 976.399 72.3021 971.747 25.3616H927.703ZM700.13 354.009H793.46C796.847 340.923 790.508 332.204 782.995 325.342C756.655 301.279 759.789 274.689 774.674 246.611C788.609 220.315 806.981 196.965 824.104 172.798C850.917 134.97 875.491 95.9854 887.441 50.5408C892.457 31.4506 897.271 12.1697 892.122 -6.93306H600.212C597.26 19.2306 602.708 42.589 610.026 65.6904C625.902 115.797 656.073 157.852 685.793 200.164C700.051 220.464 714.886 240.453 724.182 263.708C736.392 294.256 732.466 311.423 708.767 333.638C703.256 338.801 696.967 343.658 700.13 354.009V354.009ZM482.569 -9.64781H561.939C561.939 -9.64781 561.839 -31.2906 566.499 -41.5009H928.234C929.129 -31.3735 929.963 -22.0335 930.991 -10.4766H1008.37C1021.36 33.9528 993.954 106.618 955.669 132.276C932.6 147.736 907.292 158.725 880.74 166.636C870.279 169.752 862.803 175.317 856.746 184.516C841.588 207.551 825.244 229.803 809.998 252.789C802.8 263.637 796.283 275.198 797.846 291.388C827.167 315.939 834.664 349.317 828.834 388.194H665.953C657.739 348.141 663.988 329.166 694.491 301.155C699.192 288.491 693.997 277.133 688.118 266.127C671.156 234.382 647.905 206.789 628.584 176.593C624.454 170.137 617.576 168.832 611.203 166.35C596.443 160.603 581.351 155.514 567.096 148.689C505.816 119.339 474.671 61.9148 482.569 -9.64781V-9.64781Z" fill="white"/>
</g>
</g>
</svg>
