<svg width="19" height="19" viewBox="0 0 19 19" fill="none" xmlns="http://www.w3.org/2000/svg">
	<path fill-rule="evenodd" clip-rule="evenodd" d="M9.475 17.765C4.897 17.765 1.186 14.053 1.186 9.475C1.186 4.897 4.897 1.186 9.475 1.186C14.054 1.186 17.765 4.897 17.765 9.475C17.765 14.053 14.054 17.765 9.475 17.765ZM9.475 0C4.243 0 0 4.243 0 9.475C0 14.707 4.243 18.95 9.475 18.95C14.707 18.95 18.95 14.707 18.95 9.475C18.95 4.243 14.707 0 9.475 0Z" fill="#525C69"/>
	<rect x="9" y="4" width="1" height="6" fill="#525C69"/>
	<rect x="15" y="9" width="1" height="6" transform="rotate(90 15 9)" fill="#525C69"/>
</svg>
