<svg width="18" height="16" viewBox="0 0 18 16" fill="none" xmlns="http://www.w3.org/2000/svg">
<path fill-rule="evenodd" clip-rule="evenodd" d="M8.73759 0.542005C9.0692 0.312281 9.52233 0.54961 9.52233 0.953012V14.6489C9.52233 15.0496 9.07465 15.2875 8.74257 15.0633L4.26677 12.0418V11.8002C4.23324 11.8045 4.19906 11.8067 4.16436 11.8067H0.998435C0.556771 11.8067 0.19873 11.4487 0.19873 11.007V4.58105C0.19873 4.13939 0.556771 3.78135 0.998435 3.78135H4.16436C4.19906 3.78135 4.23324 3.78356 4.26677 3.78784V3.63926L8.73759 0.542005ZM16.8672 10.9339L17.9805 9.82068L15.7539 7.59407L17.9805 5.36751L16.8672 4.25422L14.6407 6.48079L12.4141 4.25422L11.3008 5.36751L13.5274 7.59407L11.3008 9.82068L12.4141 10.9339L14.6407 8.70735L16.8672 10.9339Z" fill="#525C69"/>
</svg>
