<svg width="42" height="42" viewBox="0 0 42 42" fill="none" xmlns="http://www.w3.org/2000/svg">
	<path fill-rule="evenodd" clip-rule="evenodd" d="M23.625 8.8654C23.625 7.35192 24.8519 6.125 26.3654 6.125H33.1346C34.6481 6.125 35.875 7.35192 35.875 8.8654V15.6346C35.875 17.1481 34.6481 18.375 33.1346 18.375H26.3654C24.8519 18.375 23.625 17.1481 23.625 15.6346V8.8654ZM26.2925 8.79314H33.207V15.7077H26.2925V8.79314ZM8.8654 23.625C7.35192 23.625 6.125 24.8519 6.125 26.3654V33.1346C6.125 34.6481 7.35192 35.875 8.8654 35.875H15.6346C17.1481 35.875 18.375 34.6481 18.375 33.1346V26.3654C18.375 24.8519 17.1481 23.625 15.6346 23.625H8.8654ZM15.707 26.2931H8.79247V33.2077H15.707V26.2931ZM26.3654 23.625C24.8519 23.625 23.625 24.8519 23.625 26.3654V33.1346C23.625 34.6481 24.8519 35.875 26.3654 35.875H33.1346C34.6481 35.875 35.875 34.6481 35.875 33.1346V26.3654C35.875 24.8519 34.6481 23.625 33.1346 23.625H26.3654ZM33.207 26.2931H26.2925V33.2077H33.207V26.2931ZM8.8654 6.125C7.35192 6.125 6.125 7.35192 6.125 8.8654V15.6346C6.125 17.1481 7.35192 18.375 8.8654 18.375H15.6346C17.1481 18.375 18.375 17.1481 18.375 15.6346V8.8654C18.375 7.35192 17.1481 6.125 15.6346 6.125H8.8654ZM15.707 8.79314H8.79247V15.7077H15.707V8.79314Z" fill="#959CA4"/>
</svg>