<svg width="18" height="18" viewBox="0 0 18 18" fill="none" xmlns="http://www.w3.org/2000/svg">
	<path d="M10.0454 6.9744C9.96766 7.06348 9.8542 7.115 9.73406 7.115C9.61393 7.115 9.4988 7.06348 9.41838 6.9744L8.4186 5.90912C8.24241 5.71368 8.23773 5.42251 8.40759 5.2274L9.37433 4.15912C9.45175 4.07004 9.56554 4.01919 9.68568 4.01952C9.80581 4.01985 9.9206 4.07137 10.0007 4.16112C10.1762 4.35556 10.1816 4.64573 10.0124 4.84084L9.79179 5.08481H13.9227C14.1299 5.09544 14.2921 5.26862 14.2861 5.4727L14.2888 5.66083C14.3015 5.86491 14.1446 6.03808 13.9377 6.04872H9.80714L10.0344 6.29269C10.2103 6.48813 10.2146 6.77896 10.0454 6.9744Z" fill="#2FC6F6"/>
	<path d="M13.1162 7.00079C13.2717 6.95659 13.4402 7.00611 13.548 7.1271L14.5514 8.19471C14.7273 8.39049 14.7319 8.68165 14.5621 8.87743L13.5954 9.94371C13.4916 10.0647 13.3244 10.1139 13.1679 10.07C13.0077 10.0195 12.8852 9.8892 12.8475 9.72766C12.8035 9.5628 12.8445 9.3883 12.957 9.26133L13.1776 9.01736H9.04697C8.84007 9.00639 8.67789 8.83355 8.6839 8.62947L8.68056 8.44101C8.66888 8.23693 8.82505 8.06409 9.03195 8.05278H13.1595L12.9313 7.80915C12.8145 7.68218 12.7681 7.50734 12.8068 7.34248C12.8398 7.18161 12.9576 7.05098 13.1162 7.00079Z" fill="#2FC6F6"/>
	<path d="M13.3447 12.2985L11.8645 11.2228C11.3388 10.8398 10.5586 11.0243 10.1749 11.55L9.73604 12.1533C9.64163 12.2782 9.44713 12.3174 9.31171 12.2416C7.95379 11.3825 6.79272 10.1837 5.98906 8.81564C5.91244 8.67399 5.95222 8.48914 6.09502 8.40092L6.71644 7.99866C7.27271 7.63859 7.50173 6.90422 7.13915 6.36522L6.1039 4.89685C5.79018 4.44462 5.1335 4.38319 4.72129 4.75448C3.17374 6.18881 2.49862 8.68044 5.89326 12.1611C9.28784 15.6417 11.8664 15.0849 13.414 13.6506C13.8267 13.2792 13.792 12.628 13.3447 12.2985Z" fill="#2FC6F6"/>
</svg>