<svg width="18" height="18" viewBox="0 0 18 18" fill="none" xmlns="http://www.w3.org/2000/svg">
	<path d="M9.4582 3.75766C10.6473 4.0061 11.7233 4.60034 12.5913 5.49097C13.4084 6.33149 13.9736 7.36737 14.2396 8.51019C14.2897 8.72556 14.1535 8.9399 13.9408 8.97717L13.8417 8.99452C13.6478 9.02848 13.4627 8.90137 13.417 8.705C13.1879 7.72076 12.7001 6.82742 11.9955 6.10454C11.248 5.33961 10.3212 4.82611 9.29762 4.6096C9.1052 4.56892 8.97638 4.38248 9.00363 4.18285L9.01778 4.07926C9.04744 3.86224 9.24895 3.71394 9.4582 3.75766Z" fill="#2FC6F6"/>
	<path d="M11.6105 8.99479L11.7054 8.97821C11.9126 8.94205 12.0443 8.72997 11.9863 8.52346C11.821 7.93499 11.513 7.40206 11.0847 6.96244C10.6274 6.49486 10.0696 6.17068 9.45437 6.01122C9.25017 5.95829 9.04617 6.09825 9.01691 6.31152L9.00345 6.40984C8.97829 6.59329 9.09333 6.76448 9.26873 6.81092C9.7399 6.93569 10.1676 7.18476 10.5185 7.54352C10.8478 7.88019 11.0841 8.29 11.2123 8.74188C11.262 8.91741 11.4343 9.02555 11.6105 8.99479Z" fill="#2FC6F6"/>
	<path d="M13.3447 12.2985L11.8645 11.2228C11.3388 10.8398 10.5586 11.0243 10.1749 11.55L9.73604 12.1533C9.64163 12.2782 9.44713 12.3175 9.31171 12.2416C7.95379 11.3825 6.79272 10.1837 5.98906 8.81566C5.91244 8.67401 5.95222 8.48915 6.09502 8.40093L6.71644 7.99867C7.27271 7.63861 7.50173 6.90424 7.13915 6.36523L6.1039 4.89687C5.79018 4.44464 5.1335 4.38321 4.72129 4.7545C3.17374 6.18882 2.49862 8.68046 5.89326 12.1611C9.28784 15.6417 11.8664 15.0849 13.414 13.6506C13.8267 13.2792 13.792 12.628 13.3447 12.2985Z" fill="#2FC6F6"/>
</svg>